<?xml version="1.0" encoding="utf-8" standalone="no"?>
<!DOCTYPE svg PUBLIC "-//W3C//DTD SVG 1.1//EN"
  "http://www.w3.org/Graphics/SVG/1.1/DTD/svg11.dtd">
<!-- Created with matplotlib (http://matplotlib.org/) -->
<svg height="469pt" version="1.1" viewBox="0 0 716 469" width="716pt" xmlns="http://www.w3.org/2000/svg" xmlns:xlink="http://www.w3.org/1999/xlink">
 <defs>
  <style type="text/css">
*{stroke-linecap:butt;stroke-linejoin:round;}
  </style>
 </defs>
 <g id="figure_1">
  <g id="patch_1">
   <path d="M 0 469.458125 
L 716.446875 469.458125 
L 716.446875 0 
L 0 0 
z
" style="fill:#ffffff;"/>
  </g>
  <g id="axes_1">
   <g id="patch_2">
    <path d="M 30.103125 445.58 
L 699.703125 445.58 
L 699.703125 10.7 
L 30.103125 10.7 
z
" style="fill:#ffffff;"/>
   </g>
   <g id="matplotlib.axis_1">
    <g id="xtick_1">
     <g id="line2d_1">
      <defs>
       <path d="M 0 0 
L 0 3.5 
" id="m93be2e52db" style="stroke:#000000;stroke-width:0.8;"/>
      </defs>
      <g>
       <use style="stroke:#000000;stroke-width:0.8;" x="30.103125" xlink:href="#m93be2e52db" y="445.58"/>
      </g>
     </g>
     <g id="text_1">
      <!-- −300 -->
      <defs>
       <path d="M 10.59375 35.5 
L 73.1875 35.5 
L 73.1875 27.203125 
L 10.59375 27.203125 
z
" id="DejaVuSans-2212"/>
       <path d="M 40.578125 39.3125 
Q 47.65625 37.796875 51.625 33 
Q 55.609375 28.21875 55.609375 21.1875 
Q 55.609375 10.40625 48.1875 4.484375 
Q 40.765625 -1.421875 27.09375 -1.421875 
Q 22.515625 -1.421875 17.65625 -0.515625 
Q 12.796875 0.390625 7.625 2.203125 
L 7.625 11.71875 
Q 11.71875 9.328125 16.59375 8.109375 
Q 21.484375 6.890625 26.8125 6.890625 
Q 36.078125 6.890625 40.9375 10.546875 
Q 45.796875 14.203125 45.796875 21.1875 
Q 45.796875 27.640625 41.28125 31.265625 
Q 36.765625 34.90625 28.71875 34.90625 
L 20.21875 34.90625 
L 20.21875 43.015625 
L 29.109375 43.015625 
Q 36.375 43.015625 40.234375 45.921875 
Q 44.09375 48.828125 44.09375 54.296875 
Q 44.09375 59.90625 40.109375 62.90625 
Q 36.140625 65.921875 28.71875 65.921875 
Q 24.65625 65.921875 20.015625 65.03125 
Q 15.375 64.15625 9.8125 62.3125 
L 9.8125 71.09375 
Q 15.4375 72.65625 20.34375 73.4375 
Q 25.25 74.21875 29.59375 74.21875 
Q 40.828125 74.21875 47.359375 69.109375 
Q 53.90625 64.015625 53.90625 55.328125 
Q 53.90625 49.265625 50.4375 45.09375 
Q 46.96875 40.921875 40.578125 39.3125 
z
" id="DejaVuSans-33"/>
       <path d="M 31.78125 66.40625 
Q 24.171875 66.40625 20.328125 58.90625 
Q 16.5 51.421875 16.5 36.375 
Q 16.5 21.390625 20.328125 13.890625 
Q 24.171875 6.390625 31.78125 6.390625 
Q 39.453125 6.390625 43.28125 13.890625 
Q 47.125 21.390625 47.125 36.375 
Q 47.125 51.421875 43.28125 58.90625 
Q 39.453125 66.40625 31.78125 66.40625 
z
M 31.78125 74.21875 
Q 44.046875 74.21875 50.515625 64.515625 
Q 56.984375 54.828125 56.984375 36.375 
Q 56.984375 17.96875 50.515625 8.265625 
Q 44.046875 -1.421875 31.78125 -1.421875 
Q 19.53125 -1.421875 13.0625 8.265625 
Q 6.59375 17.96875 6.59375 36.375 
Q 6.59375 54.828125 13.0625 64.515625 
Q 19.53125 74.21875 31.78125 74.21875 
z
" id="DejaVuSans-30"/>
      </defs>
      <g transform="translate(16.369531 460.178437)scale(0.1 -0.1)">
       <use xlink:href="#DejaVuSans-2212"/>
       <use x="83.789062" xlink:href="#DejaVuSans-33"/>
       <use x="147.412109" xlink:href="#DejaVuSans-30"/>
       <use x="211.035156" xlink:href="#DejaVuSans-30"/>
      </g>
     </g>
    </g>
    <g id="xtick_2">
     <g id="line2d_2">
      <g>
       <use style="stroke:#000000;stroke-width:0.8;" x="164.023125" xlink:href="#m93be2e52db" y="445.58"/>
      </g>
     </g>
     <g id="text_2">
      <!-- −200 -->
      <defs>
       <path d="M 19.1875 8.296875 
L 53.609375 8.296875 
L 53.609375 0 
L 7.328125 0 
L 7.328125 8.296875 
Q 12.9375 14.109375 22.625 23.890625 
Q 32.328125 33.6875 34.8125 36.53125 
Q 39.546875 41.84375 41.421875 45.53125 
Q 43.3125 49.21875 43.3125 52.78125 
Q 43.3125 58.59375 39.234375 62.25 
Q 35.15625 65.921875 28.609375 65.921875 
Q 23.96875 65.921875 18.8125 64.3125 
Q 13.671875 62.703125 7.8125 59.421875 
L 7.8125 69.390625 
Q 13.765625 71.78125 18.9375 73 
Q 24.125 74.21875 28.421875 74.21875 
Q 39.75 74.21875 46.484375 68.546875 
Q 53.21875 62.890625 53.21875 53.421875 
Q 53.21875 48.921875 51.53125 44.890625 
Q 49.859375 40.875 45.40625 35.40625 
Q 44.1875 33.984375 37.640625 27.21875 
Q 31.109375 20.453125 19.1875 8.296875 
z
" id="DejaVuSans-32"/>
      </defs>
      <g transform="translate(150.289531 460.178437)scale(0.1 -0.1)">
       <use xlink:href="#DejaVuSans-2212"/>
       <use x="83.789062" xlink:href="#DejaVuSans-32"/>
       <use x="147.412109" xlink:href="#DejaVuSans-30"/>
       <use x="211.035156" xlink:href="#DejaVuSans-30"/>
      </g>
     </g>
    </g>
    <g id="xtick_3">
     <g id="line2d_3">
      <g>
       <use style="stroke:#000000;stroke-width:0.8;" x="297.943125" xlink:href="#m93be2e52db" y="445.58"/>
      </g>
     </g>
     <g id="text_3">
      <!-- −100 -->
      <defs>
       <path d="M 12.40625 8.296875 
L 28.515625 8.296875 
L 28.515625 63.921875 
L 10.984375 60.40625 
L 10.984375 69.390625 
L 28.421875 72.90625 
L 38.28125 72.90625 
L 38.28125 8.296875 
L 54.390625 8.296875 
L 54.390625 0 
L 12.40625 0 
z
" id="DejaVuSans-31"/>
      </defs>
      <g transform="translate(284.209531 460.178437)scale(0.1 -0.1)">
       <use xlink:href="#DejaVuSans-2212"/>
       <use x="83.789062" xlink:href="#DejaVuSans-31"/>
       <use x="147.412109" xlink:href="#DejaVuSans-30"/>
       <use x="211.035156" xlink:href="#DejaVuSans-30"/>
      </g>
     </g>
    </g>
    <g id="xtick_4">
     <g id="line2d_4">
      <g>
       <use style="stroke:#000000;stroke-width:0.8;" x="431.863125" xlink:href="#m93be2e52db" y="445.58"/>
      </g>
     </g>
     <g id="text_4">
      <!-- 0 -->
      <g transform="translate(428.681875 460.178437)scale(0.1 -0.1)">
       <use xlink:href="#DejaVuSans-30"/>
      </g>
     </g>
    </g>
    <g id="xtick_5">
     <g id="line2d_5">
      <g>
       <use style="stroke:#000000;stroke-width:0.8;" x="565.783125" xlink:href="#m93be2e52db" y="445.58"/>
      </g>
     </g>
     <g id="text_5">
      <!-- 100 -->
      <g transform="translate(556.239375 460.178437)scale(0.1 -0.1)">
       <use xlink:href="#DejaVuSans-31"/>
       <use x="63.623047" xlink:href="#DejaVuSans-30"/>
       <use x="127.246094" xlink:href="#DejaVuSans-30"/>
      </g>
     </g>
    </g>
    <g id="xtick_6">
     <g id="line2d_6">
      <g>
       <use style="stroke:#000000;stroke-width:0.8;" x="699.703125" xlink:href="#m93be2e52db" y="445.58"/>
      </g>
     </g>
     <g id="text_6">
      <!-- 200 -->
      <g transform="translate(690.159375 460.178437)scale(0.1 -0.1)">
       <use xlink:href="#DejaVuSans-32"/>
       <use x="63.623047" xlink:href="#DejaVuSans-30"/>
       <use x="127.246094" xlink:href="#DejaVuSans-30"/>
      </g>
     </g>
    </g>
   </g>
   <g id="matplotlib.axis_2">
    <g id="ytick_1">
     <g id="line2d_7">
      <defs>
       <path d="M 0 0 
L -3.5 0 
" id="m5a056304bb" style="stroke:#000000;stroke-width:0.8;"/>
      </defs>
      <g>
       <use style="stroke:#000000;stroke-width:0.8;" x="30.103125" xlink:href="#m5a056304bb" y="424.832311"/>
      </g>
     </g>
     <g id="text_7">
      <!-- 0.0 -->
      <defs>
       <path d="M 10.6875 12.40625 
L 21 12.40625 
L 21 0 
L 10.6875 0 
z
" id="DejaVuSans-2e"/>
      </defs>
      <g transform="translate(7.2 428.63153)scale(0.1 -0.1)">
       <use xlink:href="#DejaVuSans-30"/>
       <use x="63.623047" xlink:href="#DejaVuSans-2e"/>
       <use x="95.410156" xlink:href="#DejaVuSans-30"/>
      </g>
     </g>
    </g>
    <g id="ytick_2">
     <g id="line2d_8">
      <g>
       <use style="stroke:#000000;stroke-width:0.8;" x="30.103125" xlink:href="#m5a056304bb" y="345.959303"/>
      </g>
     </g>
     <g id="text_8">
      <!-- 0.2 -->
      <g transform="translate(7.2 349.758522)scale(0.1 -0.1)">
       <use xlink:href="#DejaVuSans-30"/>
       <use x="63.623047" xlink:href="#DejaVuSans-2e"/>
       <use x="95.410156" xlink:href="#DejaVuSans-32"/>
      </g>
     </g>
    </g>
    <g id="ytick_3">
     <g id="line2d_9">
      <g>
       <use style="stroke:#000000;stroke-width:0.8;" x="30.103125" xlink:href="#m5a056304bb" y="267.086296"/>
      </g>
     </g>
     <g id="text_9">
      <!-- 0.4 -->
      <defs>
       <path d="M 37.796875 64.3125 
L 12.890625 25.390625 
L 37.796875 25.390625 
z
M 35.203125 72.90625 
L 47.609375 72.90625 
L 47.609375 25.390625 
L 58.015625 25.390625 
L 58.015625 17.1875 
L 47.609375 17.1875 
L 47.609375 0 
L 37.796875 0 
L 37.796875 17.1875 
L 4.890625 17.1875 
L 4.890625 26.703125 
z
" id="DejaVuSans-34"/>
      </defs>
      <g transform="translate(7.2 270.885514)scale(0.1 -0.1)">
       <use xlink:href="#DejaVuSans-30"/>
       <use x="63.623047" xlink:href="#DejaVuSans-2e"/>
       <use x="95.410156" xlink:href="#DejaVuSans-34"/>
      </g>
     </g>
    </g>
    <g id="ytick_4">
     <g id="line2d_10">
      <g>
       <use style="stroke:#000000;stroke-width:0.8;" x="30.103125" xlink:href="#m5a056304bb" y="188.213288"/>
      </g>
     </g>
     <g id="text_10">
      <!-- 0.6 -->
      <defs>
       <path d="M 33.015625 40.375 
Q 26.375 40.375 22.484375 35.828125 
Q 18.609375 31.296875 18.609375 23.390625 
Q 18.609375 15.53125 22.484375 10.953125 
Q 26.375 6.390625 33.015625 6.390625 
Q 39.65625 6.390625 43.53125 10.953125 
Q 47.40625 15.53125 47.40625 23.390625 
Q 47.40625 31.296875 43.53125 35.828125 
Q 39.65625 40.375 33.015625 40.375 
z
M 52.59375 71.296875 
L 52.59375 62.3125 
Q 48.875 64.0625 45.09375 64.984375 
Q 41.3125 65.921875 37.59375 65.921875 
Q 27.828125 65.921875 22.671875 59.328125 
Q 17.53125 52.734375 16.796875 39.40625 
Q 19.671875 43.65625 24.015625 45.921875 
Q 28.375 48.1875 33.59375 48.1875 
Q 44.578125 48.1875 50.953125 41.515625 
Q 57.328125 34.859375 57.328125 23.390625 
Q 57.328125 12.15625 50.6875 5.359375 
Q 44.046875 -1.421875 33.015625 -1.421875 
Q 20.359375 -1.421875 13.671875 8.265625 
Q 6.984375 17.96875 6.984375 36.375 
Q 6.984375 53.65625 15.1875 63.9375 
Q 23.390625 74.21875 37.203125 74.21875 
Q 40.921875 74.21875 44.703125 73.484375 
Q 48.484375 72.75 52.59375 71.296875 
z
" id="DejaVuSans-36"/>
      </defs>
      <g transform="translate(7.2 192.012507)scale(0.1 -0.1)">
       <use xlink:href="#DejaVuSans-30"/>
       <use x="63.623047" xlink:href="#DejaVuSans-2e"/>
       <use x="95.410156" xlink:href="#DejaVuSans-36"/>
      </g>
     </g>
    </g>
    <g id="ytick_5">
     <g id="line2d_11">
      <g>
       <use style="stroke:#000000;stroke-width:0.8;" x="30.103125" xlink:href="#m5a056304bb" y="109.34028"/>
      </g>
     </g>
     <g id="text_11">
      <!-- 0.8 -->
      <defs>
       <path d="M 31.78125 34.625 
Q 24.75 34.625 20.71875 30.859375 
Q 16.703125 27.09375 16.703125 20.515625 
Q 16.703125 13.921875 20.71875 10.15625 
Q 24.75 6.390625 31.78125 6.390625 
Q 38.8125 6.390625 42.859375 10.171875 
Q 46.921875 13.96875 46.921875 20.515625 
Q 46.921875 27.09375 42.890625 30.859375 
Q 38.875 34.625 31.78125 34.625 
z
M 21.921875 38.8125 
Q 15.578125 40.375 12.03125 44.71875 
Q 8.5 49.078125 8.5 55.328125 
Q 8.5 64.0625 14.71875 69.140625 
Q 20.953125 74.21875 31.78125 74.21875 
Q 42.671875 74.21875 48.875 69.140625 
Q 55.078125 64.0625 55.078125 55.328125 
Q 55.078125 49.078125 51.53125 44.71875 
Q 48 40.375 41.703125 38.8125 
Q 48.828125 37.15625 52.796875 32.3125 
Q 56.78125 27.484375 56.78125 20.515625 
Q 56.78125 9.90625 50.3125 4.234375 
Q 43.84375 -1.421875 31.78125 -1.421875 
Q 19.734375 -1.421875 13.25 4.234375 
Q 6.78125 9.90625 6.78125 20.515625 
Q 6.78125 27.484375 10.78125 32.3125 
Q 14.796875 37.15625 21.921875 38.8125 
z
M 18.3125 54.390625 
Q 18.3125 48.734375 21.84375 45.5625 
Q 25.390625 42.390625 31.78125 42.390625 
Q 38.140625 42.390625 41.71875 45.5625 
Q 45.3125 48.734375 45.3125 54.390625 
Q 45.3125 60.0625 41.71875 63.234375 
Q 38.140625 66.40625 31.78125 66.40625 
Q 25.390625 66.40625 21.84375 63.234375 
Q 18.3125 60.0625 18.3125 54.390625 
z
" id="DejaVuSans-38"/>
      </defs>
      <g transform="translate(7.2 113.139499)scale(0.1 -0.1)">
       <use xlink:href="#DejaVuSans-30"/>
       <use x="63.623047" xlink:href="#DejaVuSans-2e"/>
       <use x="95.410156" xlink:href="#DejaVuSans-38"/>
      </g>
     </g>
    </g>
    <g id="ytick_6">
     <g id="line2d_12">
      <g>
       <use style="stroke:#000000;stroke-width:0.8;" x="30.103125" xlink:href="#m5a056304bb" y="30.467273"/>
      </g>
     </g>
     <g id="text_12">
      <!-- 1.0 -->
      <g transform="translate(7.2 34.266491)scale(0.1 -0.1)">
       <use xlink:href="#DejaVuSans-31"/>
       <use x="63.623047" xlink:href="#DejaVuSans-2e"/>
       <use x="95.410156" xlink:href="#DejaVuSans-30"/>
      </g>
     </g>
    </g>
   </g>
   <g id="line2d_13">
    <path clip-path="url(#p35caa3def8)" d="M 28.280361 424.265042 
L 89.584072 423.965298 
L 115.127285 423.677303 
L 130.453213 423.312153 
L 135.561855 423.054602 
L 140.670498 422.596073 
L 145.779141 421.730247 
L 150.887783 420.078472 
L 155.996426 416.998138 
L 161.105068 411.488594 
L 166.213711 402.136684 
L 171.322354 387.167774 
L 176.430996 364.675897 
L 181.539639 333.078128 
L 186.648281 291.761038 
L 191.756924 241.77293 
L 201.974209 130.712367 
L 207.082852 81.792496 
L 212.191494 46.531175 
L 217.300137 30.467273 
L 222.408779 36.281972 
L 227.517422 63.075633 
L 232.626064 106.604301 
L 237.734707 160.389429 
L 242.84335 217.300776 
L 247.951992 271.0812 
L 253.060635 317.375571 
L 258.169277 354.072733 
L 263.27792 381.037026 
L 268.386562 399.479209 
L 273.495205 411.251235 
L 278.603848 418.274173 
L 283.71249 422.189836 
L 288.821133 424.225103 
L 293.929775 425.203274 
L 299.038418 425.627785 
L 304.147061 425.781772 
L 314.364346 425.792294 
L 375.668057 425.426374 
L 477.840908 425.200867 
L 671.969326 425.049398 
L 702.621182 425.042278 
L 702.621182 425.042278 
" style="fill:none;stroke:#1f77b4;stroke-linecap:square;stroke-width:1.5;"/>
   </g>
   <g id="line2d_14">
    <path clip-path="url(#p35caa3def8)" d="M 28.280361 424.202866 
L 89.584072 423.863346 
L 115.127285 423.51963 
L 125.34457 423.276316 
L 135.561855 422.786627 
L 140.670498 422.269817 
L 145.779141 421.323263 
L 150.887783 419.563261 
L 155.996426 416.344297 
L 161.105068 410.66734 
L 166.213711 401.128288 
L 171.322354 385.971486 
L 176.430996 363.32037 
L 181.539639 331.628458 
L 186.648281 290.317465 
L 191.756924 240.457241 
L 201.974209 129.96676 
L 207.082852 81.384976 
L 212.191494 46.395158 
L 217.300137 30.467273 
L 222.408779 36.247411 
L 227.517422 62.846967 
L 232.626064 106.075306 
L 237.734707 159.531106 
L 242.84335 216.160232 
L 247.951992 269.758996 
L 253.060635 315.992379 
L 258.169277 352.737936 
L 263.27792 379.828324 
L 268.386562 398.436156 
L 273.495205 410.380188 
L 278.603848 417.559308 
L 283.71249 421.604955 
L 288.821133 423.742773 
L 293.929775 424.800086 
L 299.038418 425.286149 
L 304.147061 425.489478 
L 314.364346 425.576223 
L 692.403896 425.03948 
L 702.621182 425.033001 
L 702.621182 425.033001 
" style="fill:none;stroke:#ff7f0e;stroke-linecap:square;stroke-width:1.5;"/>
   </g>
   <g id="line2d_15">
    <path clip-path="url(#p35caa3def8)" d="M 28.280361 424.02458 
L 64.040859 423.736539 
L 94.692715 423.319575 
L 115.127285 422.827015 
L 125.34457 422.396222 
L 130.453213 422.070881 
L 135.561855 421.597274 
L 140.670498 420.85167 
L 145.779141 419.604681 
L 150.887783 417.454096 
L 155.996426 413.740795 
L 161.105068 407.466964 
L 166.213711 397.257204 
L 171.322354 381.423319 
L 176.430996 358.197894 
L 181.539639 326.172313 
L 186.648281 284.902083 
L 191.756924 235.538762 
L 201.974209 127.211309 
L 207.082852 79.897326 
L 212.191494 45.912467 
L 217.300137 30.467273 
L 222.408779 36.077482 
L 227.517422 61.898593 
L 232.626064 103.943215 
L 237.734707 156.103148 
L 242.84335 211.613848 
L 247.951992 264.477476 
L 253.060635 310.441075 
L 258.169277 347.346767 
L 263.27792 374.913722 
L 268.386562 394.173364 
L 273.495205 406.817195 
L 278.603848 414.653729 
L 283.71249 419.265383 
L 288.821133 421.862455 
L 293.929775 423.278363 
L 299.038418 424.038621 
L 304.147061 424.450353 
L 314.364346 424.820391 
L 329.690273 425.019819 
L 360.342129 425.15301 
L 442.08041 425.143159 
L 702.621182 425.013115 
L 702.621182 425.013115 
" style="fill:none;stroke:#2ca02c;stroke-linecap:square;stroke-width:1.5;"/>
   </g>
   <g id="line2d_16">
    <path clip-path="url(#p35caa3def8)" d="M 28.280361 422.972426 
L 53.823574 422.452899 
L 74.258145 421.808436 
L 89.584072 421.089432 
L 99.801357 420.432732 
L 110.018643 419.551979 
L 115.127285 418.987766 
L 120.235928 418.305328 
L 125.34457 417.460432 
L 130.453213 416.38302 
L 135.561855 414.959432 
L 140.670498 413.004355 
L 145.779141 410.22006 
L 150.887783 406.143693 
L 155.996426 400.090543 
L 161.105068 391.112863 
L 166.213711 378.007567 
L 171.322354 359.415807 
L 176.430996 334.052701 
L 181.539639 301.076465 
L 186.648281 260.550432 
L 191.756924 213.881768 
L 196.865566 164.067352 
L 201.974209 115.578077 
L 207.082852 73.792417 
L 212.191494 44.038338 
L 217.300137 30.467273 
L 222.408779 35.088675 
L 227.517422 57.27771 
L 232.626064 93.923757 
L 237.734707 140.169803 
L 247.951992 239.815108 
L 253.060635 284.268825 
L 258.169277 321.597157 
L 263.27792 351.067578 
L 268.386562 373.115456 
L 273.495205 388.870086 
L 278.603848 399.71887 
L 283.71249 406.995543 
L 288.821133 411.811309 
L 293.929775 415.002708 
L 299.038418 417.152556 
L 304.147061 418.643416 
L 309.255703 419.71587 
L 314.364346 420.517471 
L 319.472988 421.138193 
L 329.690273 422.038893 
L 339.907559 422.663405 
L 355.233486 423.301389 
L 370.559414 423.71138 
L 396.102627 424.109961 
L 436.971768 424.456941 
L 493.166836 424.685492 
L 595.339687 424.844549 
L 702.621182 424.893718 
L 702.621182 424.893718 
" style="fill:none;stroke:#d62728;stroke-linecap:square;stroke-width:1.5;"/>
   </g>
   <g id="line2d_17">
    <path clip-path="url(#p35caa3def8)" d="M 28.280361 410.213265 
L 38.497646 408.598965 
L 48.714932 406.686834 
L 58.932217 404.392401 
L 64.040859 403.070434 
L 69.149502 401.612028 
L 74.258145 399.999039 
L 79.366787 398.209616 
L 84.47543 396.21708 
L 89.584072 393.988697 
L 94.692715 391.484357 
L 99.801357 388.655043 
L 104.91 385.440999 
L 110.018643 381.769451 
L 115.127285 377.551775 
L 120.235928 372.680051 
L 125.34457 367.023054 
L 130.453213 360.421967 
L 135.561855 352.686431 
L 140.670498 343.592148 
L 145.779141 332.881971 
L 150.887783 320.273222 
L 155.996426 305.47459 
L 161.105068 288.215947 
L 166.213711 268.293317 
L 171.322354 245.628687 
L 176.430996 220.340151 
L 181.539639 192.812537 
L 196.865566 105.571746 
L 201.974209 79.421111 
L 207.082852 57.444489 
L 212.191494 41.209464 
L 217.300137 31.965779 
L 222.408779 30.467273 
L 227.517422 36.858484 
L 232.626064 50.651303 
L 237.734707 70.79715 
L 242.84335 95.838547 
L 247.951992 124.107187 
L 258.169277 183.795745 
L 263.27792 212.490717 
L 268.386562 239.139787 
L 273.495205 263.213452 
L 278.603848 284.483115 
L 283.71249 302.95438 
L 288.821133 318.794018 
L 293.929775 332.26317 
L 299.038418 343.663797 
L 304.147061 353.300555 
L 309.255703 361.457012 
L 314.364346 368.383349 
L 319.472988 374.292276 
L 324.581631 379.36015 
L 329.690273 383.730897 
L 334.798916 387.521081 
L 339.907559 390.825004 
L 345.016201 393.719262 
L 350.124844 396.266499 
L 355.233486 398.518343 
L 360.342129 400.51764 
L 365.450771 402.300152 
L 370.559414 403.895876 
L 375.668057 405.330091 
L 380.776699 406.624205 
L 390.993984 408.862218 
L 401.21127 410.725036 
L 411.428555 412.294199 
L 421.64584 413.626056 
L 431.863125 414.761111 
L 447.189053 416.165409 
L 462.51498 417.293743 
L 477.840908 418.219467 
L 498.275479 419.229787 
L 523.818691 420.228317 
L 549.361904 420.988392 
L 585.122402 421.794322 
L 620.8829 422.39406 
L 666.860684 422.937763 
L 702.621182 423.216128 
L 702.621182 423.216128 
" style="fill:none;stroke:#9467bd;stroke-linecap:square;stroke-width:1.5;"/>
   </g>
   <g id="line2d_18">
    <path clip-path="url(#p35caa3def8)" d="M 28.280361 287.91997 
L 38.497646 280.493922 
L 48.714932 272.539063 
L 53.823574 268.346288 
L 58.932217 264.004572 
L 64.040859 259.512836 
L 74.258145 250.083411 
L 84.47543 240.068902 
L 94.692715 229.466062 
L 104.91 218.250995 
L 115.127285 206.394697 
L 125.34457 193.885255 
L 135.561855 180.748799 
L 145.779141 167.062428 
L 155.996426 152.947095 
L 171.322354 131.284693 
L 186.648281 109.535259 
L 196.865566 95.354476 
L 201.974209 88.465623 
L 207.082852 81.764377 
L 212.191494 75.292472 
L 217.300137 69.09229 
L 222.408779 63.206364 
L 227.517422 57.676998 
L 232.626064 52.545993 
L 237.734707 47.854438 
L 242.84335 43.642539 
L 247.951992 39.949366 
L 253.060635 36.812389 
L 258.169277 34.266697 
L 263.27792 32.343865 
L 268.386562 31.070582 
L 273.495205 30.467273 
L 278.603848 30.546932 
L 283.71249 31.31437 
L 288.821133 32.765919 
L 293.929775 34.889564 
L 299.038418 37.665423 
L 304.147061 41.066519 
L 309.255703 45.059817 
L 314.364346 49.607507 
L 319.472988 54.66844 
L 324.581631 60.199594 
L 329.690273 66.157341 
L 334.798916 72.498372 
L 339.907559 79.180182 
L 345.016201 86.16117 
L 350.124844 93.400529 
L 360.342129 108.494433 
L 370.559414 124.150121 
L 401.21127 171.703361 
L 411.428555 186.96256 
L 421.64584 201.620326 
L 431.863125 215.574828 
L 436.971768 222.272932 
L 442.08041 228.781744 
L 447.189053 235.10014 
L 452.297695 241.227132 
L 457.406338 247.161824 
L 462.51498 252.903913 
L 467.623623 258.454482 
L 472.732266 263.816631 
L 477.840908 268.995597 
L 482.949551 273.998232 
L 488.058193 278.831978 
L 493.166836 283.503699 
L 498.275479 288.018787 
L 503.384121 292.380777 
L 508.492764 296.591572 
L 513.601406 300.652088 
L 518.710049 304.563108 
L 523.818691 308.326082 
L 528.927334 311.943725 
L 534.035977 315.420338 
L 544.253262 321.975462 
L 554.470547 328.051626 
L 564.687832 333.710372 
L 574.905117 338.994559 
L 585.122402 343.924201 
L 595.339687 348.510318 
L 605.556973 352.769445 
L 615.774258 356.725154 
L 625.991543 360.400894 
L 636.208828 363.816573 
L 646.426113 366.993815 
L 656.643398 369.960883 
L 666.860684 372.746028 
L 677.077969 375.364689 
L 687.295254 377.817885 
L 697.512539 380.105463 
L 702.621182 381.190095 
L 702.621182 381.190095 
" style="fill:none;stroke:#8c564b;stroke-linecap:square;stroke-width:1.5;"/>
   </g>
   <g id="line2d_19">
    <path clip-path="url(#p35caa3def8)" d="M 28.280361 253.228738 
L 43.606289 246.49889 
L 58.932217 239.463591 
L 69.149502 234.569548 
L 84.47543 226.911495 
L 99.801357 218.920197 
L 115.127285 210.640999 
L 130.453213 202.071886 
L 145.779141 193.173204 
L 155.996426 187.026143 
L 166.213711 180.68831 
L 176.430996 174.155462 
L 191.756924 164.014631 
L 207.082852 153.529536 
L 222.408779 142.757145 
L 237.734707 131.711911 
L 253.060635 120.410631 
L 268.386562 108.85653 
L 288.821133 93.097674 
L 309.255703 77.393019 
L 319.472988 69.775693 
L 329.690273 62.402503 
L 339.907559 55.354879 
L 345.016201 51.992362 
L 350.124844 48.765619 
L 355.233486 45.699743 
L 360.342129 42.822227 
L 365.450771 40.162523 
L 370.559414 37.751904 
L 375.668057 35.623496 
L 380.776699 33.812249 
L 385.885342 32.354572 
L 390.993984 31.287454 
L 396.102627 30.647098 
L 401.21127 30.467273 
L 406.319912 30.777671 
L 411.428555 31.602527 
L 416.537197 32.959586 
L 421.64584 34.859371 
L 426.754482 37.304624 
L 431.863125 40.289839 
L 436.971768 43.800965 
L 442.08041 47.815467 
L 447.189053 52.302926 
L 452.297695 57.226252 
L 457.406338 62.543367 
L 462.51498 68.209022 
L 467.623623 74.17645 
L 472.732266 80.398609 
L 482.949551 93.422638 
L 493.166836 106.929179 
L 518.710049 140.968537 
L 528.927334 154.214729 
L 539.144619 167.094894 
L 549.361904 179.54822 
L 559.579189 191.529847 
L 569.796475 203.008494 
L 580.01376 213.968823 
L 590.231045 224.413934 
L 600.44833 234.357851 
L 610.665615 243.81072 
L 620.8829 252.775039 
L 631.100186 261.258644 
L 641.317471 269.286412 
L 651.534756 276.895017 
L 661.752041 284.117673 
L 671.969326 290.975299 
L 682.186611 297.47884 
L 692.403896 303.635818 
L 702.621182 309.456431 
L 702.621182 309.456431 
" style="fill:none;stroke:#e377c2;stroke-linecap:square;stroke-width:1.5;"/>
   </g>
   <g id="line2d_20">
    <path clip-path="url(#p35caa3def8)" d="M 28.280361 262.03281 
L 48.714932 254.249569 
L 64.040859 248.216256 
L 79.366787 241.960433 
L 94.692715 235.400783 
L 104.91 230.789355 
L 115.127285 225.95627 
L 130.453213 218.364101 
L 186.648281 189.928715 
L 196.865566 184.458301 
L 207.082852 178.693722 
L 217.300137 172.617482 
L 227.517422 166.288278 
L 253.060635 150.059424 
L 268.386562 140.206295 
L 278.603848 133.435875 
L 288.821133 126.406263 
L 299.038418 119.096213 
L 309.255703 111.537991 
L 324.581631 99.859028 
L 339.907559 87.877615 
L 355.233486 75.567488 
L 370.559414 62.879591 
L 385.885342 50.107408 
L 390.993984 46.008792 
L 396.102627 42.115892 
L 401.21127 38.542282 
L 406.319912 35.427391 
L 411.428555 32.931279 
L 416.537197 31.22363 
L 421.64584 30.467273 
L 426.754482 30.798334 
L 431.863125 32.3067 
L 436.971768 35.021143 
L 442.08041 38.902894 
L 447.189053 43.849519 
L 452.297695 49.708411 
L 457.406338 56.296812 
L 462.51498 63.423851 
L 467.623623 70.910119 
L 498.275479 116.927469 
L 508.492764 131.471588 
L 518.710049 145.442957 
L 528.927334 158.813581 
L 539.144619 171.546306 
L 549.361904 183.618723 
L 559.579189 195.046738 
L 569.796475 205.879096 
L 580.01376 216.174344 
L 590.231045 225.980558 
L 600.44833 235.326049 
L 610.665615 244.227496 
L 620.8829 252.710267 
L 631.100186 260.813376 
L 641.317471 268.563778 
L 651.534756 275.950022 
L 661.752041 282.93807 
L 671.969326 289.522612 
L 682.186611 295.756808 
L 692.403896 301.722514 
L 702.621182 307.470828 
L 702.621182 307.470828 
" style="fill:none;stroke:#7f7f7f;stroke-linecap:square;stroke-width:1.5;"/>
   </g>
   <g id="line2d_21">
    <path clip-path="url(#p35caa3def8)" d="M 28.280361 263.065106 
L 43.606289 257.139254 
L 58.932217 250.991741 
L 74.258145 244.613871 
L 89.584072 238.00321 
L 104.91 231.16458 
L 120.235928 224.091863 
L 135.561855 216.756004 
L 150.887783 209.136566 
L 166.213711 201.242107 
L 181.539639 193.073779 
L 196.865566 184.60031 
L 212.191494 175.794843 
L 227.517422 166.66296 
L 242.84335 157.213623 
L 258.169277 147.432845 
L 273.495205 137.289096 
L 288.821133 126.759015 
L 304.147061 115.84767 
L 319.472988 104.553797 
L 329.690273 96.793457 
L 339.907559 88.834549 
L 350.124844 80.676582 
L 365.450771 68.090805 
L 390.993984 46.75356 
L 396.102627 42.745243 
L 401.21127 39.031265 
L 406.319912 35.763425 
L 411.428555 33.120325 
L 416.537197 31.2936 
L 421.64584 30.467273 
L 426.754482 30.793284 
L 431.863125 32.368184 
L 436.971768 35.216553 
L 442.08041 39.285503 
L 447.189053 44.451811 
L 452.297695 50.53991 
L 457.406338 57.346196 
L 462.51498 64.664009 
L 472.732266 80.108859 
L 488.058193 103.460344 
L 498.275479 118.438084 
L 508.492764 132.768983 
L 518.710049 146.437925 
L 528.927334 159.463637 
L 539.144619 171.874888 
L 549.361904 183.701871 
L 559.579189 194.972496 
L 569.796475 205.712705 
L 580.01376 215.948302 
L 590.231045 225.705114 
L 600.44833 235.007958 
L 610.665615 243.880556 
L 620.8829 252.345661 
L 631.100186 260.423541 
L 641.317471 268.130195 
L 651.534756 275.47821 
L 661.752041 282.479931 
L 671.969326 289.149839 
L 682.186611 295.504182 
L 692.403896 301.559097 
L 702.621182 307.329454 
L 702.621182 307.329454 
" style="fill:none;stroke:#bcbd22;stroke-linecap:square;stroke-width:1.5;"/>
   </g>
   <g id="line2d_22">
    <path clip-path="url(#p35caa3def8)" d="M 28.280361 263.074891 
L 43.606289 257.146826 
L 58.932217 250.998166 
L 74.258145 244.627671 
L 89.584072 238.028568 
L 104.91 231.184411 
L 120.235928 224.080943 
L 135.561855 216.721602 
L 150.887783 209.112693 
L 166.213711 201.245615 
L 181.539639 193.091167 
L 196.865566 184.615586 
L 212.191494 175.815071 
L 227.517422 166.705836 
L 242.84335 157.279428 
L 258.169277 147.504267 
L 273.495205 137.355589 
L 288.821133 126.81884 
L 304.147061 115.889546 
L 319.472988 104.571887 
L 334.798916 92.859316 
L 345.016201 84.817409 
L 355.233486 76.577189 
L 370.559414 63.858393 
L 390.993984 46.757556 
L 396.102627 42.743686 
L 401.21127 39.026713 
L 406.319912 35.758054 
L 411.428555 33.115754 
L 416.537197 31.290937 
L 421.64584 30.467273 
L 426.754482 30.796519 
L 431.863125 32.375115 
L 436.971768 35.227469 
L 442.08041 39.300352 
L 447.189053 44.470035 
L 452.297695 50.560369 
L 457.406338 57.367258 
L 462.51498 64.683766 
L 472.732266 80.120377 
L 488.058193 103.448492 
L 498.275479 118.405928 
L 508.492764 132.717302 
L 518.710049 146.374315 
L 528.927334 159.400299 
L 539.144619 171.822399 
L 549.361904 183.665218 
L 559.579189 194.953002 
L 569.796475 205.712463 
L 580.01376 215.971336 
L 590.231045 225.753668 
L 600.44833 235.077526 
L 610.665615 243.958531 
L 620.8829 252.415606 
L 631.100186 260.472536 
L 641.317471 268.154183 
L 651.534756 275.481982 
L 661.752041 282.472425 
L 671.969326 289.138136 
L 682.186611 295.490059 
L 692.403896 301.540073 
L 702.621182 307.302948 
L 702.621182 307.302948 
" style="fill:none;stroke:#17becf;stroke-linecap:square;stroke-width:1.5;"/>
   </g>
   <g id="line2d_23">
    <path clip-path="url(#p35caa3def8)" d="M 28.280361 263.085975 
L 43.606289 257.155786 
L 58.932217 251.006448 
L 74.258145 244.630755 
L 89.584072 238.020705 
L 104.91 231.172881 
L 120.235928 224.087078 
L 135.561855 216.753523 
L 150.887783 209.154832 
L 166.213711 201.274865 
L 181.539639 193.098648 
L 196.865566 184.609871 
L 212.191494 175.792231 
L 227.517422 166.641958 
L 242.84335 157.170505 
L 258.169277 147.378068 
L 273.495205 137.240681 
L 288.821133 126.733658 
L 304.147061 115.83921 
L 319.472988 104.539631 
L 329.690273 96.774058 
L 339.907559 88.817094 
L 350.124844 80.665225 
L 365.450771 68.084218 
L 390.993984 46.766082 
L 396.102627 42.763104 
L 401.21127 39.052204 
L 406.319912 35.784117 
L 411.428555 33.137083 
L 416.537197 31.303135 
L 421.64584 30.467273 
L 426.754482 30.78269 
L 431.863125 32.347144 
L 436.971768 35.186163 
L 442.08041 39.247453 
L 447.189053 44.408068 
L 452.297695 50.492474 
L 457.406338 57.296912 
L 462.51498 64.614385 
L 472.732266 80.060728 
L 488.058193 103.408795 
L 498.275479 118.377814 
L 508.492764 132.703565 
L 518.710049 146.381391 
L 528.927334 159.431061 
L 539.144619 171.870648 
L 549.361904 183.717822 
L 559.579189 194.996857 
L 569.796475 205.739049 
L 580.01376 215.976572 
L 590.231045 225.737448 
L 600.44833 235.045663 
L 610.665615 243.923071 
L 620.8829 252.389469 
L 631.100186 260.462027 
L 641.317471 268.156362 
L 651.534756 275.488349 
L 661.752041 282.474603 
L 671.969326 289.131841 
L 682.186611 295.476691 
L 692.403896 301.525871 
L 702.621182 307.295452 
L 702.621182 307.295452 
" style="fill:none;stroke:#1f77b4;stroke-linecap:square;stroke-width:1.5;"/>
   </g>
   <g id="patch_3">
    <path d="M 30.103125 445.58 
L 30.103125 10.7 
" style="fill:none;stroke:#000000;stroke-linecap:square;stroke-linejoin:miter;stroke-width:0.8;"/>
   </g>
   <g id="patch_4">
    <path d="M 699.703125 445.58 
L 699.703125 10.7 
" style="fill:none;stroke:#000000;stroke-linecap:square;stroke-linejoin:miter;stroke-width:0.8;"/>
   </g>
   <g id="patch_5">
    <path d="M 30.103125 445.58 
L 699.703125 445.58 
" style="fill:none;stroke:#000000;stroke-linecap:square;stroke-linejoin:miter;stroke-width:0.8;"/>
   </g>
   <g id="patch_6">
    <path d="M 30.103125 10.7 
L 699.703125 10.7 
" style="fill:none;stroke:#000000;stroke-linecap:square;stroke-linejoin:miter;stroke-width:0.8;"/>
   </g>
   <g id="legend_1">
    <g id="patch_7">
     <path d="M 555.725 180.159375 
L 692.703125 180.159375 
Q 694.703125 180.159375 694.703125 178.159375 
L 694.703125 17.7 
Q 694.703125 15.7 692.703125 15.7 
L 555.725 15.7 
Q 553.725 15.7 553.725 17.7 
L 553.725 178.159375 
Q 553.725 180.159375 555.725 180.159375 
z
" style="fill:#ffffff;opacity:0.8;stroke:#cccccc;stroke-linejoin:miter;"/>
    </g>
    <g id="line2d_24">
     <path d="M 557.725 23.798437 
L 577.725 23.798437 
" style="fill:none;stroke:#1f77b4;stroke-linecap:square;stroke-width:1.5;"/>
    </g>
    <g id="line2d_25"/>
    <g id="text_13">
     <!-- 1.00411e-07 -->
     <defs>
      <path d="M 56.203125 29.59375 
L 56.203125 25.203125 
L 14.890625 25.203125 
Q 15.484375 15.921875 20.484375 11.0625 
Q 25.484375 6.203125 34.421875 6.203125 
Q 39.59375 6.203125 44.453125 7.46875 
Q 49.3125 8.734375 54.109375 11.28125 
L 54.109375 2.78125 
Q 49.265625 0.734375 44.1875 -0.34375 
Q 39.109375 -1.421875 33.890625 -1.421875 
Q 20.796875 -1.421875 13.15625 6.1875 
Q 5.515625 13.8125 5.515625 26.8125 
Q 5.515625 40.234375 12.765625 48.109375 
Q 20.015625 56 32.328125 56 
Q 43.359375 56 49.78125 48.890625 
Q 56.203125 41.796875 56.203125 29.59375 
z
M 47.21875 32.234375 
Q 47.125 39.59375 43.09375 43.984375 
Q 39.0625 48.390625 32.421875 48.390625 
Q 24.90625 48.390625 20.390625 44.140625 
Q 15.875 39.890625 15.1875 32.171875 
z
" id="DejaVuSans-65"/>
      <path d="M 4.890625 31.390625 
L 31.203125 31.390625 
L 31.203125 23.390625 
L 4.890625 23.390625 
z
" id="DejaVuSans-2d"/>
      <path d="M 8.203125 72.90625 
L 55.078125 72.90625 
L 55.078125 68.703125 
L 28.609375 0 
L 18.3125 0 
L 43.21875 64.59375 
L 8.203125 64.59375 
z
" id="DejaVuSans-37"/>
     </defs>
     <g transform="translate(585.725 27.298437)scale(0.1 -0.1)">
      <use xlink:href="#DejaVuSans-31"/>
      <use x="63.623047" xlink:href="#DejaVuSans-2e"/>
      <use x="95.410156" xlink:href="#DejaVuSans-30"/>
      <use x="159.033203" xlink:href="#DejaVuSans-30"/>
      <use x="222.65625" xlink:href="#DejaVuSans-34"/>
      <use x="286.279297" xlink:href="#DejaVuSans-31"/>
      <use x="349.902344" xlink:href="#DejaVuSans-31"/>
      <use x="413.525391" xlink:href="#DejaVuSans-65"/>
      <use x="475.048828" xlink:href="#DejaVuSans-2d"/>
      <use x="511.132812" xlink:href="#DejaVuSans-30"/>
      <use x="574.755859" xlink:href="#DejaVuSans-37"/>
     </g>
    </g>
    <g id="line2d_26">
     <path d="M 557.725 38.476562 
L 577.725 38.476562 
" style="fill:none;stroke:#ff7f0e;stroke-linecap:square;stroke-width:1.5;"/>
    </g>
    <g id="line2d_27"/>
    <g id="text_14">
     <!-- 3.01034e-07 -->
     <g transform="translate(585.725 41.976562)scale(0.1 -0.1)">
      <use xlink:href="#DejaVuSans-33"/>
      <use x="63.623047" xlink:href="#DejaVuSans-2e"/>
      <use x="95.410156" xlink:href="#DejaVuSans-30"/>
      <use x="159.033203" xlink:href="#DejaVuSans-31"/>
      <use x="222.65625" xlink:href="#DejaVuSans-30"/>
      <use x="286.279297" xlink:href="#DejaVuSans-33"/>
      <use x="349.902344" xlink:href="#DejaVuSans-34"/>
      <use x="413.525391" xlink:href="#DejaVuSans-65"/>
      <use x="475.048828" xlink:href="#DejaVuSans-2d"/>
      <use x="511.132812" xlink:href="#DejaVuSans-30"/>
      <use x="574.755859" xlink:href="#DejaVuSans-37"/>
     </g>
    </g>
    <g id="line2d_28">
     <path d="M 557.725 53.154688 
L 577.725 53.154688 
" style="fill:none;stroke:#2ca02c;stroke-linecap:square;stroke-width:1.5;"/>
    </g>
    <g id="line2d_29"/>
    <g id="text_15">
     <!-- 1.08049e-06 -->
     <defs>
      <path d="M 10.984375 1.515625 
L 10.984375 10.5 
Q 14.703125 8.734375 18.5 7.8125 
Q 22.3125 6.890625 25.984375 6.890625 
Q 35.75 6.890625 40.890625 13.453125 
Q 46.046875 20.015625 46.78125 33.40625 
Q 43.953125 29.203125 39.59375 26.953125 
Q 35.25 24.703125 29.984375 24.703125 
Q 19.046875 24.703125 12.671875 31.3125 
Q 6.296875 37.9375 6.296875 49.421875 
Q 6.296875 60.640625 12.9375 67.421875 
Q 19.578125 74.21875 30.609375 74.21875 
Q 43.265625 74.21875 49.921875 64.515625 
Q 56.59375 54.828125 56.59375 36.375 
Q 56.59375 19.140625 48.40625 8.859375 
Q 40.234375 -1.421875 26.421875 -1.421875 
Q 22.703125 -1.421875 18.890625 -0.6875 
Q 15.09375 0.046875 10.984375 1.515625 
z
M 30.609375 32.421875 
Q 37.25 32.421875 41.125 36.953125 
Q 45.015625 41.5 45.015625 49.421875 
Q 45.015625 57.28125 41.125 61.84375 
Q 37.25 66.40625 30.609375 66.40625 
Q 23.96875 66.40625 20.09375 61.84375 
Q 16.21875 57.28125 16.21875 49.421875 
Q 16.21875 41.5 20.09375 36.953125 
Q 23.96875 32.421875 30.609375 32.421875 
z
" id="DejaVuSans-39"/>
     </defs>
     <g transform="translate(585.725 56.654688)scale(0.1 -0.1)">
      <use xlink:href="#DejaVuSans-31"/>
      <use x="63.623047" xlink:href="#DejaVuSans-2e"/>
      <use x="95.410156" xlink:href="#DejaVuSans-30"/>
      <use x="159.033203" xlink:href="#DejaVuSans-38"/>
      <use x="222.65625" xlink:href="#DejaVuSans-30"/>
      <use x="286.279297" xlink:href="#DejaVuSans-34"/>
      <use x="349.902344" xlink:href="#DejaVuSans-39"/>
      <use x="413.525391" xlink:href="#DejaVuSans-65"/>
      <use x="475.048828" xlink:href="#DejaVuSans-2d"/>
      <use x="511.132812" xlink:href="#DejaVuSans-30"/>
      <use x="574.755859" xlink:href="#DejaVuSans-36"/>
     </g>
    </g>
    <g id="line2d_30">
     <path d="M 557.725 67.832812 
L 577.725 67.832812 
" style="fill:none;stroke:#d62728;stroke-linecap:square;stroke-width:1.5;"/>
    </g>
    <g id="line2d_31"/>
    <g id="text_16">
     <!-- 4.87227e-06 -->
     <g transform="translate(585.725 71.332812)scale(0.1 -0.1)">
      <use xlink:href="#DejaVuSans-34"/>
      <use x="63.623047" xlink:href="#DejaVuSans-2e"/>
      <use x="95.410156" xlink:href="#DejaVuSans-38"/>
      <use x="159.033203" xlink:href="#DejaVuSans-37"/>
      <use x="222.65625" xlink:href="#DejaVuSans-32"/>
      <use x="286.279297" xlink:href="#DejaVuSans-32"/>
      <use x="349.902344" xlink:href="#DejaVuSans-37"/>
      <use x="413.525391" xlink:href="#DejaVuSans-65"/>
      <use x="475.048828" xlink:href="#DejaVuSans-2d"/>
      <use x="511.132812" xlink:href="#DejaVuSans-30"/>
      <use x="574.755859" xlink:href="#DejaVuSans-36"/>
     </g>
    </g>
    <g id="line2d_32">
     <path d="M 557.725 82.510938 
L 577.725 82.510938 
" style="fill:none;stroke:#9467bd;stroke-linecap:square;stroke-width:1.5;"/>
    </g>
    <g id="line2d_33"/>
    <g id="text_17">
     <!-- 2.95189e-05 -->
     <defs>
      <path d="M 10.796875 72.90625 
L 49.515625 72.90625 
L 49.515625 64.59375 
L 19.828125 64.59375 
L 19.828125 46.734375 
Q 21.96875 47.46875 24.109375 47.828125 
Q 26.265625 48.1875 28.421875 48.1875 
Q 40.625 48.1875 47.75 41.5 
Q 54.890625 34.8125 54.890625 23.390625 
Q 54.890625 11.625 47.5625 5.09375 
Q 40.234375 -1.421875 26.90625 -1.421875 
Q 22.3125 -1.421875 17.546875 -0.640625 
Q 12.796875 0.140625 7.71875 1.703125 
L 7.71875 11.625 
Q 12.109375 9.234375 16.796875 8.0625 
Q 21.484375 6.890625 26.703125 6.890625 
Q 35.15625 6.890625 40.078125 11.328125 
Q 45.015625 15.765625 45.015625 23.390625 
Q 45.015625 31 40.078125 35.4375 
Q 35.15625 39.890625 26.703125 39.890625 
Q 22.75 39.890625 18.8125 39.015625 
Q 14.890625 38.140625 10.796875 36.28125 
z
" id="DejaVuSans-35"/>
     </defs>
     <g transform="translate(585.725 86.010938)scale(0.1 -0.1)">
      <use xlink:href="#DejaVuSans-32"/>
      <use x="63.623047" xlink:href="#DejaVuSans-2e"/>
      <use x="95.410156" xlink:href="#DejaVuSans-39"/>
      <use x="159.033203" xlink:href="#DejaVuSans-35"/>
      <use x="222.65625" xlink:href="#DejaVuSans-31"/>
      <use x="286.279297" xlink:href="#DejaVuSans-38"/>
      <use x="349.902344" xlink:href="#DejaVuSans-39"/>
      <use x="413.525391" xlink:href="#DejaVuSans-65"/>
      <use x="475.048828" xlink:href="#DejaVuSans-2d"/>
      <use x="511.132812" xlink:href="#DejaVuSans-30"/>
      <use x="574.755859" xlink:href="#DejaVuSans-35"/>
     </g>
    </g>
    <g id="line2d_34">
     <path d="M 557.725 97.189062 
L 577.725 97.189062 
" style="fill:none;stroke:#8c564b;stroke-linecap:square;stroke-width:1.5;"/>
    </g>
    <g id="line2d_35"/>
    <g id="text_18">
     <!-- 0.000264575 -->
     <g transform="translate(585.725 100.689062)scale(0.1 -0.1)">
      <use xlink:href="#DejaVuSans-30"/>
      <use x="63.623047" xlink:href="#DejaVuSans-2e"/>
      <use x="95.410156" xlink:href="#DejaVuSans-30"/>
      <use x="159.033203" xlink:href="#DejaVuSans-30"/>
      <use x="222.65625" xlink:href="#DejaVuSans-30"/>
      <use x="286.279297" xlink:href="#DejaVuSans-32"/>
      <use x="349.902344" xlink:href="#DejaVuSans-36"/>
      <use x="413.525391" xlink:href="#DejaVuSans-34"/>
      <use x="477.148438" xlink:href="#DejaVuSans-35"/>
      <use x="540.771484" xlink:href="#DejaVuSans-37"/>
      <use x="604.394531" xlink:href="#DejaVuSans-35"/>
     </g>
    </g>
    <g id="line2d_36">
     <path d="M 557.725 111.867188 
L 577.725 111.867188 
" style="fill:none;stroke:#e377c2;stroke-linecap:square;stroke-width:1.5;"/>
    </g>
    <g id="line2d_37"/>
    <g id="text_19">
     <!-- 0.00404858 -->
     <g transform="translate(585.725 115.367188)scale(0.1 -0.1)">
      <use xlink:href="#DejaVuSans-30"/>
      <use x="63.623047" xlink:href="#DejaVuSans-2e"/>
      <use x="95.410156" xlink:href="#DejaVuSans-30"/>
      <use x="159.033203" xlink:href="#DejaVuSans-30"/>
      <use x="222.65625" xlink:href="#DejaVuSans-34"/>
      <use x="286.279297" xlink:href="#DejaVuSans-30"/>
      <use x="349.902344" xlink:href="#DejaVuSans-34"/>
      <use x="413.525391" xlink:href="#DejaVuSans-38"/>
      <use x="477.148438" xlink:href="#DejaVuSans-35"/>
      <use x="540.771484" xlink:href="#DejaVuSans-38"/>
     </g>
    </g>
    <g id="line2d_38">
     <path d="M 557.725 126.545312 
L 577.725 126.545312 
" style="fill:none;stroke:#7f7f7f;stroke-linecap:square;stroke-width:1.5;"/>
    </g>
    <g id="line2d_39"/>
    <g id="text_20">
     <!-- 0.132176 -->
     <g transform="translate(585.725 130.045312)scale(0.1 -0.1)">
      <use xlink:href="#DejaVuSans-30"/>
      <use x="63.623047" xlink:href="#DejaVuSans-2e"/>
      <use x="95.410156" xlink:href="#DejaVuSans-31"/>
      <use x="159.033203" xlink:href="#DejaVuSans-33"/>
      <use x="222.65625" xlink:href="#DejaVuSans-32"/>
      <use x="286.279297" xlink:href="#DejaVuSans-31"/>
      <use x="349.902344" xlink:href="#DejaVuSans-37"/>
      <use x="413.525391" xlink:href="#DejaVuSans-36"/>
     </g>
    </g>
    <g id="line2d_40">
     <path d="M 557.725 141.223437 
L 577.725 141.223437 
" style="fill:none;stroke:#bcbd22;stroke-linecap:square;stroke-width:1.5;"/>
    </g>
    <g id="line2d_41"/>
    <g id="text_21">
     <!-- 13.2845 -->
     <g transform="translate(585.725 144.723437)scale(0.1 -0.1)">
      <use xlink:href="#DejaVuSans-31"/>
      <use x="63.623047" xlink:href="#DejaVuSans-33"/>
      <use x="127.246094" xlink:href="#DejaVuSans-2e"/>
      <use x="159.033203" xlink:href="#DejaVuSans-32"/>
      <use x="222.65625" xlink:href="#DejaVuSans-38"/>
      <use x="286.279297" xlink:href="#DejaVuSans-34"/>
      <use x="349.902344" xlink:href="#DejaVuSans-35"/>
     </g>
    </g>
    <g id="line2d_42">
     <path d="M 557.725 155.901562 
L 577.725 155.901562 
" style="fill:none;stroke:#17becf;stroke-linecap:square;stroke-width:1.5;"/>
    </g>
    <g id="line2d_43"/>
    <g id="text_22">
     <!-- 7863.38 -->
     <g transform="translate(585.725 159.401562)scale(0.1 -0.1)">
      <use xlink:href="#DejaVuSans-37"/>
      <use x="63.623047" xlink:href="#DejaVuSans-38"/>
      <use x="127.246094" xlink:href="#DejaVuSans-36"/>
      <use x="190.869141" xlink:href="#DejaVuSans-33"/>
      <use x="254.492188" xlink:href="#DejaVuSans-2e"/>
      <use x="286.279297" xlink:href="#DejaVuSans-33"/>
      <use x="349.902344" xlink:href="#DejaVuSans-38"/>
     </g>
    </g>
    <g id="line2d_44">
     <path d="M 557.725 170.579687 
L 577.725 170.579687 
" style="fill:none;stroke:#1f77b4;stroke-linecap:square;stroke-width:1.5;"/>
    </g>
    <g id="line2d_45"/>
    <g id="text_23">
     <!-- 434644000000000.0 -->
     <g transform="translate(585.725 174.079687)scale(0.1 -0.1)">
      <use xlink:href="#DejaVuSans-34"/>
      <use x="63.623047" xlink:href="#DejaVuSans-33"/>
      <use x="127.246094" xlink:href="#DejaVuSans-34"/>
      <use x="190.869141" xlink:href="#DejaVuSans-36"/>
      <use x="254.492188" xlink:href="#DejaVuSans-34"/>
      <use x="318.115234" xlink:href="#DejaVuSans-34"/>
      <use x="381.738281" xlink:href="#DejaVuSans-30"/>
      <use x="445.361328" xlink:href="#DejaVuSans-30"/>
      <use x="508.984375" xlink:href="#DejaVuSans-30"/>
      <use x="572.607422" xlink:href="#DejaVuSans-30"/>
      <use x="636.230469" xlink:href="#DejaVuSans-30"/>
      <use x="699.853516" xlink:href="#DejaVuSans-30"/>
      <use x="763.476562" xlink:href="#DejaVuSans-30"/>
      <use x="827.099609" xlink:href="#DejaVuSans-30"/>
      <use x="890.722656" xlink:href="#DejaVuSans-30"/>
      <use x="954.345703" xlink:href="#DejaVuSans-2e"/>
      <use x="986.132812" xlink:href="#DejaVuSans-30"/>
     </g>
    </g>
   </g>
  </g>
 </g>
 <defs>
  <clipPath id="p35caa3def8">
   <rect height="434.88" width="669.6" x="30.103125" y="10.7"/>
  </clipPath>
 </defs>
</svg>
