<?xml version="1.0" encoding="utf-8" standalone="no"?>
<!DOCTYPE svg PUBLIC "-//W3C//DTD SVG 1.1//EN"
  "http://www.w3.org/Graphics/SVG/1.1/DTD/svg11.dtd">
<!-- Created with matplotlib (http://matplotlib.org/) -->
<svg height="469pt" version="1.1" viewBox="0 0 719 469" width="719pt" xmlns="http://www.w3.org/2000/svg" xmlns:xlink="http://www.w3.org/1999/xlink">
 <defs>
  <style type="text/css">
*{stroke-linecap:butt;stroke-linejoin:round;}
  </style>
 </defs>
 <g id="figure_1">
  <g id="patch_1">
   <path d="M 0 469.458125 
L 719.628125 469.458125 
L 719.628125 0 
L 0 0 
z
" style="fill:#ffffff;"/>
  </g>
  <g id="axes_1">
   <g id="patch_2">
    <path d="M 30.103125 445.58 
L 699.703125 445.58 
L 699.703125 10.7 
L 30.103125 10.7 
z
" style="fill:#ffffff;"/>
   </g>
   <g id="matplotlib.axis_1">
    <g id="xtick_1">
     <g id="line2d_1">
      <defs>
       <path d="M 0 0 
L 0 3.5 
" id="m3d942d5cd0" style="stroke:#000000;stroke-width:0.8;"/>
      </defs>
      <g>
       <use style="stroke:#000000;stroke-width:0.8;" x="30.103125" xlink:href="#m3d942d5cd0" y="445.58"/>
      </g>
     </g>
     <g id="text_1">
      <!-- −1000 -->
      <defs>
       <path d="M 10.59375 35.5 
L 73.1875 35.5 
L 73.1875 27.203125 
L 10.59375 27.203125 
z
" id="DejaVuSans-2212"/>
       <path d="M 12.40625 8.296875 
L 28.515625 8.296875 
L 28.515625 63.921875 
L 10.984375 60.40625 
L 10.984375 69.390625 
L 28.421875 72.90625 
L 38.28125 72.90625 
L 38.28125 8.296875 
L 54.390625 8.296875 
L 54.390625 0 
L 12.40625 0 
z
" id="DejaVuSans-31"/>
       <path d="M 31.78125 66.40625 
Q 24.171875 66.40625 20.328125 58.90625 
Q 16.5 51.421875 16.5 36.375 
Q 16.5 21.390625 20.328125 13.890625 
Q 24.171875 6.390625 31.78125 6.390625 
Q 39.453125 6.390625 43.28125 13.890625 
Q 47.125 21.390625 47.125 36.375 
Q 47.125 51.421875 43.28125 58.90625 
Q 39.453125 66.40625 31.78125 66.40625 
z
M 31.78125 74.21875 
Q 44.046875 74.21875 50.515625 64.515625 
Q 56.984375 54.828125 56.984375 36.375 
Q 56.984375 17.96875 50.515625 8.265625 
Q 44.046875 -1.421875 31.78125 -1.421875 
Q 19.53125 -1.421875 13.0625 8.265625 
Q 6.59375 17.96875 6.59375 36.375 
Q 6.59375 54.828125 13.0625 64.515625 
Q 19.53125 74.21875 31.78125 74.21875 
z
" id="DejaVuSans-30"/>
      </defs>
      <g transform="translate(13.188281 460.178437)scale(0.1 -0.1)">
       <use xlink:href="#DejaVuSans-2212"/>
       <use x="83.789062" xlink:href="#DejaVuSans-31"/>
       <use x="147.412109" xlink:href="#DejaVuSans-30"/>
       <use x="211.035156" xlink:href="#DejaVuSans-30"/>
       <use x="274.658203" xlink:href="#DejaVuSans-30"/>
      </g>
     </g>
    </g>
    <g id="xtick_2">
     <g id="line2d_2">
      <g>
       <use style="stroke:#000000;stroke-width:0.8;" x="113.803125" xlink:href="#m3d942d5cd0" y="445.58"/>
      </g>
     </g>
     <g id="text_2">
      <!-- −750 -->
      <defs>
       <path d="M 8.203125 72.90625 
L 55.078125 72.90625 
L 55.078125 68.703125 
L 28.609375 0 
L 18.3125 0 
L 43.21875 64.59375 
L 8.203125 64.59375 
z
" id="DejaVuSans-37"/>
       <path d="M 10.796875 72.90625 
L 49.515625 72.90625 
L 49.515625 64.59375 
L 19.828125 64.59375 
L 19.828125 46.734375 
Q 21.96875 47.46875 24.109375 47.828125 
Q 26.265625 48.1875 28.421875 48.1875 
Q 40.625 48.1875 47.75 41.5 
Q 54.890625 34.8125 54.890625 23.390625 
Q 54.890625 11.625 47.5625 5.09375 
Q 40.234375 -1.421875 26.90625 -1.421875 
Q 22.3125 -1.421875 17.546875 -0.640625 
Q 12.796875 0.140625 7.71875 1.703125 
L 7.71875 11.625 
Q 12.109375 9.234375 16.796875 8.0625 
Q 21.484375 6.890625 26.703125 6.890625 
Q 35.15625 6.890625 40.078125 11.328125 
Q 45.015625 15.765625 45.015625 23.390625 
Q 45.015625 31 40.078125 35.4375 
Q 35.15625 39.890625 26.703125 39.890625 
Q 22.75 39.890625 18.8125 39.015625 
Q 14.890625 38.140625 10.796875 36.28125 
z
" id="DejaVuSans-35"/>
      </defs>
      <g transform="translate(100.069531 460.178437)scale(0.1 -0.1)">
       <use xlink:href="#DejaVuSans-2212"/>
       <use x="83.789062" xlink:href="#DejaVuSans-37"/>
       <use x="147.412109" xlink:href="#DejaVuSans-35"/>
       <use x="211.035156" xlink:href="#DejaVuSans-30"/>
      </g>
     </g>
    </g>
    <g id="xtick_3">
     <g id="line2d_3">
      <g>
       <use style="stroke:#000000;stroke-width:0.8;" x="197.503125" xlink:href="#m3d942d5cd0" y="445.58"/>
      </g>
     </g>
     <g id="text_3">
      <!-- −500 -->
      <g transform="translate(183.769531 460.178437)scale(0.1 -0.1)">
       <use xlink:href="#DejaVuSans-2212"/>
       <use x="83.789062" xlink:href="#DejaVuSans-35"/>
       <use x="147.412109" xlink:href="#DejaVuSans-30"/>
       <use x="211.035156" xlink:href="#DejaVuSans-30"/>
      </g>
     </g>
    </g>
    <g id="xtick_4">
     <g id="line2d_4">
      <g>
       <use style="stroke:#000000;stroke-width:0.8;" x="281.203125" xlink:href="#m3d942d5cd0" y="445.58"/>
      </g>
     </g>
     <g id="text_4">
      <!-- −250 -->
      <defs>
       <path d="M 19.1875 8.296875 
L 53.609375 8.296875 
L 53.609375 0 
L 7.328125 0 
L 7.328125 8.296875 
Q 12.9375 14.109375 22.625 23.890625 
Q 32.328125 33.6875 34.8125 36.53125 
Q 39.546875 41.84375 41.421875 45.53125 
Q 43.3125 49.21875 43.3125 52.78125 
Q 43.3125 58.59375 39.234375 62.25 
Q 35.15625 65.921875 28.609375 65.921875 
Q 23.96875 65.921875 18.8125 64.3125 
Q 13.671875 62.703125 7.8125 59.421875 
L 7.8125 69.390625 
Q 13.765625 71.78125 18.9375 73 
Q 24.125 74.21875 28.421875 74.21875 
Q 39.75 74.21875 46.484375 68.546875 
Q 53.21875 62.890625 53.21875 53.421875 
Q 53.21875 48.921875 51.53125 44.890625 
Q 49.859375 40.875 45.40625 35.40625 
Q 44.1875 33.984375 37.640625 27.21875 
Q 31.109375 20.453125 19.1875 8.296875 
z
" id="DejaVuSans-32"/>
      </defs>
      <g transform="translate(267.469531 460.178437)scale(0.1 -0.1)">
       <use xlink:href="#DejaVuSans-2212"/>
       <use x="83.789062" xlink:href="#DejaVuSans-32"/>
       <use x="147.412109" xlink:href="#DejaVuSans-35"/>
       <use x="211.035156" xlink:href="#DejaVuSans-30"/>
      </g>
     </g>
    </g>
    <g id="xtick_5">
     <g id="line2d_5">
      <g>
       <use style="stroke:#000000;stroke-width:0.8;" x="364.903125" xlink:href="#m3d942d5cd0" y="445.58"/>
      </g>
     </g>
     <g id="text_5">
      <!-- 0 -->
      <g transform="translate(361.721875 460.178437)scale(0.1 -0.1)">
       <use xlink:href="#DejaVuSans-30"/>
      </g>
     </g>
    </g>
    <g id="xtick_6">
     <g id="line2d_6">
      <g>
       <use style="stroke:#000000;stroke-width:0.8;" x="448.603125" xlink:href="#m3d942d5cd0" y="445.58"/>
      </g>
     </g>
     <g id="text_6">
      <!-- 250 -->
      <g transform="translate(439.059375 460.178437)scale(0.1 -0.1)">
       <use xlink:href="#DejaVuSans-32"/>
       <use x="63.623047" xlink:href="#DejaVuSans-35"/>
       <use x="127.246094" xlink:href="#DejaVuSans-30"/>
      </g>
     </g>
    </g>
    <g id="xtick_7">
     <g id="line2d_7">
      <g>
       <use style="stroke:#000000;stroke-width:0.8;" x="532.303125" xlink:href="#m3d942d5cd0" y="445.58"/>
      </g>
     </g>
     <g id="text_7">
      <!-- 500 -->
      <g transform="translate(522.759375 460.178437)scale(0.1 -0.1)">
       <use xlink:href="#DejaVuSans-35"/>
       <use x="63.623047" xlink:href="#DejaVuSans-30"/>
       <use x="127.246094" xlink:href="#DejaVuSans-30"/>
      </g>
     </g>
    </g>
    <g id="xtick_8">
     <g id="line2d_8">
      <g>
       <use style="stroke:#000000;stroke-width:0.8;" x="616.003125" xlink:href="#m3d942d5cd0" y="445.58"/>
      </g>
     </g>
     <g id="text_8">
      <!-- 750 -->
      <g transform="translate(606.459375 460.178437)scale(0.1 -0.1)">
       <use xlink:href="#DejaVuSans-37"/>
       <use x="63.623047" xlink:href="#DejaVuSans-35"/>
       <use x="127.246094" xlink:href="#DejaVuSans-30"/>
      </g>
     </g>
    </g>
    <g id="xtick_9">
     <g id="line2d_9">
      <g>
       <use style="stroke:#000000;stroke-width:0.8;" x="699.703125" xlink:href="#m3d942d5cd0" y="445.58"/>
      </g>
     </g>
     <g id="text_9">
      <!-- 1000 -->
      <g transform="translate(686.978125 460.178437)scale(0.1 -0.1)">
       <use xlink:href="#DejaVuSans-31"/>
       <use x="63.623047" xlink:href="#DejaVuSans-30"/>
       <use x="127.246094" xlink:href="#DejaVuSans-30"/>
       <use x="190.869141" xlink:href="#DejaVuSans-30"/>
      </g>
     </g>
    </g>
   </g>
   <g id="matplotlib.axis_2">
    <g id="ytick_1">
     <g id="line2d_10">
      <defs>
       <path d="M 0 0 
L -3.5 0 
" id="m1236ad190e" style="stroke:#000000;stroke-width:0.8;"/>
      </defs>
      <g>
       <use style="stroke:#000000;stroke-width:0.8;" x="30.103125" xlink:href="#m1236ad190e" y="424.832311"/>
      </g>
     </g>
     <g id="text_10">
      <!-- 0.0 -->
      <defs>
       <path d="M 10.6875 12.40625 
L 21 12.40625 
L 21 0 
L 10.6875 0 
z
" id="DejaVuSans-2e"/>
      </defs>
      <g transform="translate(7.2 428.63153)scale(0.1 -0.1)">
       <use xlink:href="#DejaVuSans-30"/>
       <use x="63.623047" xlink:href="#DejaVuSans-2e"/>
       <use x="95.410156" xlink:href="#DejaVuSans-30"/>
      </g>
     </g>
    </g>
    <g id="ytick_2">
     <g id="line2d_11">
      <g>
       <use style="stroke:#000000;stroke-width:0.8;" x="30.103125" xlink:href="#m1236ad190e" y="345.959303"/>
      </g>
     </g>
     <g id="text_11">
      <!-- 0.2 -->
      <g transform="translate(7.2 349.758522)scale(0.1 -0.1)">
       <use xlink:href="#DejaVuSans-30"/>
       <use x="63.623047" xlink:href="#DejaVuSans-2e"/>
       <use x="95.410156" xlink:href="#DejaVuSans-32"/>
      </g>
     </g>
    </g>
    <g id="ytick_3">
     <g id="line2d_12">
      <g>
       <use style="stroke:#000000;stroke-width:0.8;" x="30.103125" xlink:href="#m1236ad190e" y="267.086296"/>
      </g>
     </g>
     <g id="text_12">
      <!-- 0.4 -->
      <defs>
       <path d="M 37.796875 64.3125 
L 12.890625 25.390625 
L 37.796875 25.390625 
z
M 35.203125 72.90625 
L 47.609375 72.90625 
L 47.609375 25.390625 
L 58.015625 25.390625 
L 58.015625 17.1875 
L 47.609375 17.1875 
L 47.609375 0 
L 37.796875 0 
L 37.796875 17.1875 
L 4.890625 17.1875 
L 4.890625 26.703125 
z
" id="DejaVuSans-34"/>
      </defs>
      <g transform="translate(7.2 270.885514)scale(0.1 -0.1)">
       <use xlink:href="#DejaVuSans-30"/>
       <use x="63.623047" xlink:href="#DejaVuSans-2e"/>
       <use x="95.410156" xlink:href="#DejaVuSans-34"/>
      </g>
     </g>
    </g>
    <g id="ytick_4">
     <g id="line2d_13">
      <g>
       <use style="stroke:#000000;stroke-width:0.8;" x="30.103125" xlink:href="#m1236ad190e" y="188.213288"/>
      </g>
     </g>
     <g id="text_13">
      <!-- 0.6 -->
      <defs>
       <path d="M 33.015625 40.375 
Q 26.375 40.375 22.484375 35.828125 
Q 18.609375 31.296875 18.609375 23.390625 
Q 18.609375 15.53125 22.484375 10.953125 
Q 26.375 6.390625 33.015625 6.390625 
Q 39.65625 6.390625 43.53125 10.953125 
Q 47.40625 15.53125 47.40625 23.390625 
Q 47.40625 31.296875 43.53125 35.828125 
Q 39.65625 40.375 33.015625 40.375 
z
M 52.59375 71.296875 
L 52.59375 62.3125 
Q 48.875 64.0625 45.09375 64.984375 
Q 41.3125 65.921875 37.59375 65.921875 
Q 27.828125 65.921875 22.671875 59.328125 
Q 17.53125 52.734375 16.796875 39.40625 
Q 19.671875 43.65625 24.015625 45.921875 
Q 28.375 48.1875 33.59375 48.1875 
Q 44.578125 48.1875 50.953125 41.515625 
Q 57.328125 34.859375 57.328125 23.390625 
Q 57.328125 12.15625 50.6875 5.359375 
Q 44.046875 -1.421875 33.015625 -1.421875 
Q 20.359375 -1.421875 13.671875 8.265625 
Q 6.984375 17.96875 6.984375 36.375 
Q 6.984375 53.65625 15.1875 63.9375 
Q 23.390625 74.21875 37.203125 74.21875 
Q 40.921875 74.21875 44.703125 73.484375 
Q 48.484375 72.75 52.59375 71.296875 
z
" id="DejaVuSans-36"/>
      </defs>
      <g transform="translate(7.2 192.012507)scale(0.1 -0.1)">
       <use xlink:href="#DejaVuSans-30"/>
       <use x="63.623047" xlink:href="#DejaVuSans-2e"/>
       <use x="95.410156" xlink:href="#DejaVuSans-36"/>
      </g>
     </g>
    </g>
    <g id="ytick_5">
     <g id="line2d_14">
      <g>
       <use style="stroke:#000000;stroke-width:0.8;" x="30.103125" xlink:href="#m1236ad190e" y="109.34028"/>
      </g>
     </g>
     <g id="text_14">
      <!-- 0.8 -->
      <defs>
       <path d="M 31.78125 34.625 
Q 24.75 34.625 20.71875 30.859375 
Q 16.703125 27.09375 16.703125 20.515625 
Q 16.703125 13.921875 20.71875 10.15625 
Q 24.75 6.390625 31.78125 6.390625 
Q 38.8125 6.390625 42.859375 10.171875 
Q 46.921875 13.96875 46.921875 20.515625 
Q 46.921875 27.09375 42.890625 30.859375 
Q 38.875 34.625 31.78125 34.625 
z
M 21.921875 38.8125 
Q 15.578125 40.375 12.03125 44.71875 
Q 8.5 49.078125 8.5 55.328125 
Q 8.5 64.0625 14.71875 69.140625 
Q 20.953125 74.21875 31.78125 74.21875 
Q 42.671875 74.21875 48.875 69.140625 
Q 55.078125 64.0625 55.078125 55.328125 
Q 55.078125 49.078125 51.53125 44.71875 
Q 48 40.375 41.703125 38.8125 
Q 48.828125 37.15625 52.796875 32.3125 
Q 56.78125 27.484375 56.78125 20.515625 
Q 56.78125 9.90625 50.3125 4.234375 
Q 43.84375 -1.421875 31.78125 -1.421875 
Q 19.734375 -1.421875 13.25 4.234375 
Q 6.78125 9.90625 6.78125 20.515625 
Q 6.78125 27.484375 10.78125 32.3125 
Q 14.796875 37.15625 21.921875 38.8125 
z
M 18.3125 54.390625 
Q 18.3125 48.734375 21.84375 45.5625 
Q 25.390625 42.390625 31.78125 42.390625 
Q 38.140625 42.390625 41.71875 45.5625 
Q 45.3125 48.734375 45.3125 54.390625 
Q 45.3125 60.0625 41.71875 63.234375 
Q 38.140625 66.40625 31.78125 66.40625 
Q 25.390625 66.40625 21.84375 63.234375 
Q 18.3125 60.0625 18.3125 54.390625 
z
" id="DejaVuSans-38"/>
      </defs>
      <g transform="translate(7.2 113.139499)scale(0.1 -0.1)">
       <use xlink:href="#DejaVuSans-30"/>
       <use x="63.623047" xlink:href="#DejaVuSans-2e"/>
       <use x="95.410156" xlink:href="#DejaVuSans-38"/>
      </g>
     </g>
    </g>
    <g id="ytick_6">
     <g id="line2d_15">
      <g>
       <use style="stroke:#000000;stroke-width:0.8;" x="30.103125" xlink:href="#m1236ad190e" y="30.467273"/>
      </g>
     </g>
     <g id="text_15">
      <!-- 1.0 -->
      <g transform="translate(7.2 34.266491)scale(0.1 -0.1)">
       <use xlink:href="#DejaVuSans-31"/>
       <use x="63.623047" xlink:href="#DejaVuSans-2e"/>
       <use x="95.410156" xlink:href="#DejaVuSans-30"/>
      </g>
     </g>
    </g>
   </g>
   <g id="line2d_16">
    <path clip-path="url(#pab3a174895)" d="M 29.009875 424.741125 
L 218.029651 424.550613 
L 253.790149 424.374604 
L 274.224719 424.100457 
L 283.164844 423.816332 
L 288.273486 423.473289 
L 290.827808 423.054602 
L 292.104968 422.596073 
L 293.382129 421.730247 
L 294.65929 420.078472 
L 295.93645 416.998138 
L 297.213611 411.488594 
L 298.490771 402.136684 
L 299.767932 387.167774 
L 301.045093 364.675897 
L 302.322253 333.078128 
L 303.599414 291.761038 
L 304.876575 241.77293 
L 307.430896 130.712367 
L 308.708057 81.792496 
L 309.985217 46.531175 
L 311.262378 30.467273 
L 312.539539 36.281972 
L 313.816699 63.075633 
L 315.09386 106.604301 
L 320.202502 317.375571 
L 321.479663 354.072733 
L 322.756824 381.037026 
L 324.033984 399.479209 
L 325.311145 411.251235 
L 326.588306 418.274173 
L 327.865466 422.189836 
L 329.142627 424.225103 
L 330.419788 425.203274 
L 331.696948 425.627785 
L 332.974109 425.781772 
L 335.52843 425.792294 
L 350.854358 425.426374 
L 376.397571 425.200867 
L 424.929675 425.049398 
L 496.450671 424.978543 
L 700.796375 424.895286 
L 700.796375 424.895286 
" style="fill:none;stroke:#1f77b4;stroke-linecap:square;stroke-width:1.5;"/>
   </g>
   <g id="line2d_17">
    <path clip-path="url(#pab3a174895)" d="M 29.009875 424.739966 
L 188.654956 424.61579 
L 253.790149 424.320006 
L 272.947559 424.042493 
L 281.887683 423.753117 
L 286.996326 423.412593 
L 289.550647 423.085571 
L 290.827808 422.786627 
L 292.104968 422.269817 
L 293.382129 421.323263 
L 294.65929 419.563261 
L 295.93645 416.344297 
L 297.213611 410.66734 
L 298.490771 401.128288 
L 299.767932 385.971486 
L 301.045093 363.32037 
L 302.322253 331.628458 
L 303.599414 290.317465 
L 304.876575 240.457241 
L 307.430896 129.96676 
L 308.708057 81.384976 
L 309.985217 46.395158 
L 311.262378 30.467273 
L 312.539539 36.247411 
L 313.816699 62.846967 
L 315.09386 106.075306 
L 320.202502 315.992379 
L 321.479663 352.737936 
L 322.756824 379.828324 
L 324.033984 398.436156 
L 325.311145 410.380188 
L 326.588306 417.559308 
L 327.865466 421.604955 
L 329.142627 423.742773 
L 330.419788 424.800086 
L 331.696948 425.286149 
L 332.974109 425.489478 
L 335.52843 425.576223 
L 430.038318 425.03948 
L 501.559314 424.96282 
L 681.638965 424.902329 
L 700.796375 424.894737 
L 700.796375 424.894737 
" style="fill:none;stroke:#ff7f0e;stroke-linecap:square;stroke-width:1.5;"/>
   </g>
   <g id="line2d_18">
    <path clip-path="url(#pab3a174895)" d="M 29.009875 424.731769 
L 211.643848 424.507176 
L 244.850024 424.292087 
L 265.284595 423.995372 
L 274.224719 423.679115 
L 281.887683 423.223124 
L 285.719165 422.827015 
L 288.273486 422.396222 
L 289.550647 422.070881 
L 290.827808 421.597274 
L 292.104968 420.85167 
L 293.382129 419.604681 
L 294.65929 417.454096 
L 295.93645 413.740795 
L 297.213611 407.466964 
L 298.490771 397.257204 
L 299.767932 381.423319 
L 301.045093 358.197894 
L 302.322253 326.172313 
L 303.599414 284.902083 
L 304.876575 235.538762 
L 307.430896 127.211309 
L 308.708057 79.897326 
L 309.985217 45.912467 
L 311.262378 30.467273 
L 312.539539 36.077482 
L 313.816699 61.898593 
L 315.09386 103.943215 
L 320.202502 310.441075 
L 321.479663 347.346767 
L 322.756824 374.913722 
L 324.033984 394.173364 
L 325.311145 406.817195 
L 326.588306 414.653729 
L 327.865466 419.265383 
L 329.142627 421.862455 
L 330.419788 423.278363 
L 331.696948 424.038621 
L 332.974109 424.450353 
L 335.52843 424.820391 
L 339.359912 425.019819 
L 347.022876 425.15301 
L 367.457446 425.143159 
L 613.949451 424.912897 
L 700.796375 424.896876 
L 700.796375 424.896876 
" style="fill:none;stroke:#2ca02c;stroke-linecap:square;stroke-width:1.5;"/>
   </g>
   <g id="line2d_19">
    <path clip-path="url(#pab3a174895)" d="M 29.009875 424.693793 
L 154.171619 424.524979 
L 212.921008 424.267069 
L 237.187061 423.959188 
L 251.235828 423.594666 
L 261.453113 423.129584 
L 269.116077 422.575965 
L 274.224719 421.997098 
L 278.056201 421.358609 
L 280.610522 420.783399 
L 283.164844 420.026997 
L 285.719165 418.987766 
L 286.996326 418.305328 
L 288.273486 417.460432 
L 289.550647 416.38302 
L 290.827808 414.959432 
L 292.104968 413.004355 
L 293.382129 410.22006 
L 294.65929 406.143693 
L 295.93645 400.090543 
L 297.213611 391.112863 
L 298.490771 378.007567 
L 299.767932 359.415807 
L 301.045093 334.052701 
L 302.322253 301.076465 
L 303.599414 260.550432 
L 306.153735 164.067352 
L 307.430896 115.578077 
L 308.708057 73.792417 
L 309.985217 44.038338 
L 311.262378 30.467273 
L 312.539539 35.088675 
L 313.816699 57.27771 
L 315.09386 93.923757 
L 316.371021 140.169803 
L 318.925342 239.815108 
L 320.202502 284.268825 
L 321.479663 321.597157 
L 322.756824 351.067578 
L 324.033984 373.115456 
L 325.311145 388.870086 
L 326.588306 399.71887 
L 327.865466 406.995543 
L 329.142627 411.811309 
L 330.419788 415.002708 
L 331.696948 417.152556 
L 332.974109 418.643416 
L 334.25127 419.71587 
L 335.52843 420.517471 
L 336.805591 421.138193 
L 339.359912 422.038893 
L 341.914233 422.663405 
L 345.745715 423.301389 
L 349.577197 423.71138 
L 355.963 424.109961 
L 366.180286 424.456941 
L 380.229053 424.685492 
L 405.772266 424.844549 
L 451.750049 424.913799 
L 700.796375 424.89033 
L 700.796375 424.89033 
" style="fill:none;stroke:#d62728;stroke-linecap:square;stroke-width:1.5;"/>
   </g>
   <g id="line2d_20">
    <path clip-path="url(#pab3a174895)" d="M 29.009875 424.240719 
L 118.411121 423.696174 
L 156.72594 423.135728 
L 188.654956 422.306364 
L 206.535205 421.506078 
L 216.75249 420.801844 
L 225.692615 420.000194 
L 233.355579 419.097353 
L 239.741382 418.119011 
L 244.850024 417.118778 
L 249.958667 415.870847 
L 253.790149 414.722876 
L 257.621631 413.324273 
L 260.175952 412.213328 
L 262.730273 410.929988 
L 265.284595 409.438765 
L 267.838916 407.685003 
L 270.393237 405.593358 
L 272.947559 403.070434 
L 275.50188 399.999039 
L 276.779041 398.209616 
L 278.056201 396.21708 
L 279.333362 393.988697 
L 280.610522 391.484357 
L 281.887683 388.655043 
L 283.164844 385.440999 
L 284.442004 381.769451 
L 285.719165 377.551775 
L 286.996326 372.680051 
L 288.273486 367.023054 
L 289.550647 360.421967 
L 290.827808 352.686431 
L 292.104968 343.592148 
L 293.382129 332.881971 
L 294.65929 320.273222 
L 295.93645 305.47459 
L 297.213611 288.215947 
L 298.490771 268.293317 
L 299.767932 245.628687 
L 301.045093 220.340151 
L 303.599414 163.753403 
L 306.153735 105.571746 
L 307.430896 79.421111 
L 308.708057 57.444489 
L 309.985217 41.209464 
L 311.262378 31.965779 
L 312.539539 30.467273 
L 313.816699 36.858484 
L 315.09386 50.651303 
L 316.371021 70.79715 
L 317.648181 95.838547 
L 320.202502 153.928428 
L 322.756824 212.490717 
L 324.033984 239.139787 
L 325.311145 263.213452 
L 326.588306 284.483115 
L 327.865466 302.95438 
L 329.142627 318.794018 
L 330.419788 332.26317 
L 331.696948 343.663797 
L 332.974109 353.300555 
L 334.25127 361.457012 
L 335.52843 368.383349 
L 336.805591 374.292276 
L 338.082751 379.36015 
L 339.359912 383.730897 
L 340.637073 387.521081 
L 341.914233 390.825004 
L 343.191394 393.719262 
L 344.468555 396.266499 
L 345.745715 398.518343 
L 347.022876 400.51764 
L 349.577197 403.895876 
L 352.131519 406.624205 
L 354.68584 408.862218 
L 357.240161 410.725036 
L 359.794482 412.294199 
L 362.348804 413.626056 
L 364.903125 414.761111 
L 368.734607 416.165409 
L 372.566089 417.293743 
L 377.674731 418.492939 
L 382.783374 419.450984 
L 389.169177 420.397534 
L 395.55498 421.118047 
L 404.495105 421.892309 
L 414.71239 422.534398 
L 426.206836 423.027258 
L 447.918567 423.620513 
L 467.075977 423.946655 
L 504.113635 424.321846 
L 573.08031 424.603923 
L 693.133411 424.785183 
L 700.796375 424.794632 
L 700.796375 424.794632 
" style="fill:none;stroke:#9467bd;stroke-linecap:square;stroke-width:1.5;"/>
   </g>
   <g id="line2d_21">
    <path clip-path="url(#pab3a174895)" d="M 29.009875 415.986784 
L 53.275928 414.242748 
L 66.047534 413.060938 
L 89.036426 410.603262 
L 99.253711 409.294379 
L 110.748157 407.519506 
L 119.688281 405.961045 
L 133.737048 403.240684 
L 140.122852 401.822278 
L 147.785815 399.892821 
L 155.448779 397.779892 
L 161.834583 395.789279 
L 169.497546 393.113521 
L 175.88335 390.648459 
L 182.269153 387.886282 
L 187.377795 385.457089 
L 192.486438 382.759762 
L 197.595081 379.788027 
L 202.703723 376.534284 
L 207.812366 372.937932 
L 212.921008 369.030168 
L 216.75249 365.807825 
L 220.583972 362.233693 
L 224.415454 358.285113 
L 228.246936 353.956449 
L 232.078418 349.240471 
L 235.9099 344.13842 
L 239.741382 338.638667 
L 243.572864 332.678408 
L 246.127185 328.376182 
L 248.681506 323.744056 
L 251.235828 318.739497 
L 253.790149 313.347799 
L 256.34447 307.573406 
L 258.898792 301.42043 
L 261.453113 294.878973 
L 264.007434 287.91997 
L 266.561755 280.493922 
L 269.116077 272.539063 
L 271.670398 264.004572 
L 274.224719 254.871879 
L 276.779041 245.148947 
L 280.610522 229.466062 
L 284.442004 212.404404 
L 288.273486 193.885255 
L 292.104968 173.967577 
L 297.213611 145.772719 
L 307.430896 88.465623 
L 309.985217 75.292472 
L 312.539539 63.206364 
L 315.09386 52.545993 
L 316.371021 47.854438 
L 317.648181 43.642539 
L 318.925342 39.949366 
L 320.202502 36.812389 
L 321.479663 34.266697 
L 322.756824 32.343865 
L 324.033984 31.070582 
L 325.311145 30.467273 
L 326.588306 30.546932 
L 327.865466 31.31437 
L 329.142627 32.765919 
L 330.419788 34.889564 
L 331.696948 37.665423 
L 332.974109 41.066519 
L 334.25127 45.059817 
L 335.52843 49.607507 
L 336.805591 54.66844 
L 339.359912 66.157341 
L 341.914233 79.180182 
L 344.468555 93.400529 
L 348.300037 116.270898 
L 361.071643 194.374518 
L 364.903125 215.574828 
L 368.734607 235.10014 
L 371.288928 247.161824 
L 373.84325 258.454482 
L 376.397571 268.995597 
L 378.951892 278.831978 
L 381.506213 288.018787 
L 384.060535 296.591572 
L 386.614856 304.563108 
L 389.169177 311.943725 
L 391.723499 318.761829 
L 394.27782 325.069326 
L 396.832141 330.929901 
L 399.386462 336.397604 
L 401.940784 341.503017 
L 404.495105 346.259385 
L 407.049426 350.679375 
L 409.603748 354.783673 
L 412.158069 358.59672 
L 414.71239 362.140026 
L 418.543872 366.993815 
L 422.375354 371.374821 
L 426.206836 375.364689 
L 430.038318 378.982007 
L 433.8698 382.238437 
L 437.701282 385.193505 
L 441.532764 387.907547 
L 446.641406 391.201719 
L 451.750049 394.169901 
L 456.858691 396.85369 
L 461.967334 399.236754 
L 465.798816 400.796976 
L 470.907458 402.635318 
L 478.570422 405.132546 
L 484.956226 407.040946 
L 491.342029 408.708689 
L 497.727832 410.138343 
L 506.667957 411.888773 
L 514.33092 413.194021 
L 527.102527 415.088115 
L 534.765491 416.023432 
L 552.64574 417.847488 
L 561.585864 418.592676 
L 580.743274 419.863806 
L 602.455005 421.014039 
L 620.335254 421.745625 
L 652.26427 422.685484 
L 699.519214 423.557636 
L 700.796375 423.574931 
L 700.796375 423.574931 
" style="fill:none;stroke:#8c564b;stroke-linecap:square;stroke-width:1.5;"/>
   </g>
   <g id="line2d_22">
    <path clip-path="url(#pab3a174895)" d="M 29.009875 405.109864 
L 41.781482 402.873635 
L 51.998767 400.846598 
L 62.216052 398.602404 
L 73.710498 395.848653 
L 83.927783 393.138038 
L 95.422229 389.800505 
L 101.808032 387.749532 
L 112.025317 384.164617 
L 119.688281 381.295389 
L 128.628406 377.661635 
L 135.014209 374.875007 
L 142.677173 371.243886 
L 150.340137 367.370729 
L 156.72594 363.871319 
L 163.111743 360.129874 
L 169.497546 356.132208 
L 177.16051 351.089115 
L 182.269153 347.462728 
L 188.654956 342.627208 
L 195.040759 337.548483 
L 200.149402 333.236462 
L 205.258044 328.691272 
L 210.366687 323.879983 
L 215.47533 318.78529 
L 220.583972 313.387932 
L 225.692615 307.653487 
L 230.801257 301.580556 
L 235.9099 295.159788 
L 241.018542 288.409404 
L 246.127185 281.322817 
L 251.235828 273.836971 
L 256.34447 265.912225 
L 261.453113 257.568163 
L 266.561755 248.772911 
L 271.670398 239.463591 
L 275.50188 232.057867 
L 280.610522 221.617237 
L 285.719165 210.640999 
L 290.827808 199.14519 
L 295.93645 187.026143 
L 301.045093 174.155462 
L 306.153735 160.554029 
L 312.539539 142.757145 
L 318.925342 124.205094 
L 325.311145 104.947339 
L 336.805591 69.775693 
L 340.637073 58.83109 
L 343.191394 51.992362 
L 345.745715 45.699743 
L 348.300037 40.162523 
L 349.577197 37.751904 
L 350.854358 35.623496 
L 352.131519 33.812249 
L 353.408679 32.354572 
L 354.68584 31.287454 
L 355.963 30.647098 
L 357.240161 30.467273 
L 358.517322 30.777671 
L 359.794482 31.602527 
L 361.071643 32.959586 
L 362.348804 34.859371 
L 363.625964 37.304624 
L 364.903125 40.289839 
L 366.180286 43.800965 
L 367.457446 47.815467 
L 368.734607 52.302926 
L 371.288928 62.543367 
L 373.84325 74.17645 
L 376.397571 86.829062 
L 381.506213 113.76509 
L 387.892017 147.632788 
L 393.000659 173.378038 
L 396.832141 191.529847 
L 400.663623 208.553666 
L 404.495105 224.413934 
L 408.326587 239.145429 
L 412.158069 252.775039 
L 415.989551 265.327317 
L 419.821033 276.895017 
L 423.652515 287.591273 
L 427.483997 297.47884 
L 431.315479 306.587267 
L 435.14696 314.959022 
L 438.978442 322.679029 
L 442.809924 329.845571 
L 446.641406 336.522159 
L 450.472888 342.750117 
L 454.30437 348.555235 
L 458.135852 353.923026 
L 461.967334 358.836113 
L 465.798816 363.337978 
L 469.630298 367.510702 
L 473.46178 371.408441 
L 477.293262 375.056692 
L 481.124744 378.46991 
L 484.956226 381.64473 
L 488.787708 384.586167 
L 493.89635 388.199348 
L 499.004993 391.486614 
L 504.113635 394.431009 
L 509.222278 397.079655 
L 514.33092 399.488723 
L 520.716724 402.237813 
L 527.102527 404.739436 
L 533.48833 406.963049 
L 539.874133 408.914666 
L 546.259937 410.635999 
L 553.9229 412.443514 
L 561.585864 414.05774 
L 569.248828 415.458658 
L 578.188953 416.859938 
L 588.406238 418.22187 
L 598.623523 419.368301 
L 608.840808 420.301989 
L 621.612415 421.233907 
L 638.215503 422.223214 
L 653.541431 422.890252 
L 672.69884 423.522347 
L 694.410571 424.024935 
L 700.796375 424.139931 
L 700.796375 424.139931 
" style="fill:none;stroke:#e377c2;stroke-linecap:square;stroke-width:1.5;"/>
   </g>
   <g id="line2d_23">
    <path clip-path="url(#pab3a174895)" d="M 29.009875 405.270728 
L 40.504321 403.216097 
L 57.10741 399.920285 
L 64.770374 398.326324 
L 71.156177 396.726915 
L 89.036426 391.814794 
L 105.639514 386.649851 
L 110.748157 384.793558 
L 122.242603 380.269619 
L 133.737048 375.522455 
L 141.400012 372.104536 
L 146.508655 369.649412 
L 151.617297 366.896346 
L 166.943225 358.054953 
L 173.329028 353.929303 
L 188.654956 343.601232 
L 192.486438 340.825274 
L 196.31792 337.823972 
L 205.258044 330.400834 
L 210.366687 326.020631 
L 214.198169 322.506504 
L 219.306812 317.472314 
L 225.692615 310.777383 
L 235.9099 299.813666 
L 239.741382 295.355377 
L 243.572864 290.597977 
L 248.681506 283.872942 
L 255.06731 275.018903 
L 261.453113 265.826106 
L 267.838916 256.220328 
L 272.947559 248.216256 
L 278.056201 239.813905 
L 281.887683 233.122289 
L 285.719165 225.95627 
L 290.827808 215.780208 
L 306.153735 184.458301 
L 309.985217 175.692678 
L 313.816699 166.288278 
L 324.033984 140.206295 
L 327.865466 129.956274 
L 331.696948 119.096213 
L 336.805591 103.788935 
L 343.191394 83.815256 
L 348.300037 67.145494 
L 354.68584 46.008792 
L 357.240161 38.542282 
L 358.517322 35.427391 
L 359.794482 32.931279 
L 361.071643 31.22363 
L 362.348804 30.467273 
L 363.625964 30.798334 
L 364.903125 32.3067 
L 366.180286 35.021143 
L 367.457446 38.902894 
L 368.734607 43.849519 
L 370.011768 49.708411 
L 372.566089 63.423851 
L 376.397571 86.376386 
L 381.506213 116.927469 
L 385.337695 138.530335 
L 389.169177 158.813581 
L 393.000659 177.665042 
L 396.832141 195.046738 
L 400.663623 211.090432 
L 404.495105 225.980558 
L 408.326587 239.831109 
L 412.158069 252.710267 
L 415.989551 264.7324 
L 419.821033 275.950022 
L 423.652515 286.27877 
L 427.483997 295.756808 
L 431.315479 304.623015 
L 435.14696 312.994725 
L 438.978442 320.781859 
L 442.809924 327.95305 
L 446.641406 334.618216 
L 450.472888 340.871993 
L 454.30437 346.705905 
L 458.135852 352.093094 
L 461.967334 357.113213 
L 467.075977 363.409046 
L 470.907458 367.797378 
L 474.73894 371.829034 
L 478.570422 375.507817 
L 482.401904 378.875733 
L 486.233386 381.991199 
L 491.342029 385.836775 
L 496.450671 389.386798 
L 501.559314 392.686322 
L 505.390796 394.960607 
L 509.222278 397.028865 
L 514.33092 399.512834 
L 520.716724 402.332732 
L 527.102527 404.881371 
L 533.48833 407.197491 
L 538.596973 408.837091 
L 544.982776 410.618859 
L 553.9229 412.855135 
L 560.308704 414.225172 
L 570.525989 416.112843 
L 578.188953 417.333646 
L 584.574756 418.128287 
L 610.117969 420.782755 
L 619.058093 421.430962 
L 639.492664 422.584911 
L 659.927234 423.397499 
L 685.470447 424.035823 
L 700.796375 424.321764 
L 700.796375 424.321764 
" style="fill:none;stroke:#7f7f7f;stroke-linecap:square;stroke-width:1.5;"/>
   </g>
   <g id="line2d_24">
    <path clip-path="url(#pab3a174895)" d="M 29.009875 406.944998 
L 40.504321 404.931017 
L 51.998767 402.681442 
L 62.216052 400.440383 
L 72.433337 397.995869 
L 81.373462 395.645215 
L 90.313586 393.078758 
L 99.253711 390.2983 
L 108.193835 387.274157 
L 117.13396 384.003772 
L 124.796924 380.970513 
L 132.459888 377.700316 
L 140.122852 374.182682 
L 147.785815 370.422335 
L 154.171619 367.068829 
L 160.557422 363.483179 
L 168.220386 358.913617 
L 174.606189 354.874793 
L 180.991992 350.571597 
L 187.377795 345.977859 
L 193.763599 341.084639 
L 200.149402 335.921245 
L 206.535205 330.486259 
L 211.643848 325.879611 
L 216.75249 321.015335 
L 221.861133 315.901504 
L 226.969775 310.525477 
L 233.355579 303.451118 
L 238.464221 297.50287 
L 243.572864 291.25202 
L 248.681506 284.694332 
L 253.790149 277.834086 
L 258.898792 270.63446 
L 264.007434 263.065106 
L 269.116077 255.115197 
L 274.224719 246.76577 
L 279.333362 238.00321 
L 284.442004 228.834111 
L 289.550647 219.232454 
L 294.65929 209.136566 
L 299.767932 198.550775 
L 304.876575 187.461039 
L 309.985217 175.794843 
L 315.09386 163.548625 
L 320.202502 150.731716 
L 325.311145 137.289096 
L 330.419788 123.163603 
L 335.52843 108.362788 
L 340.637073 92.839141 
L 345.745715 76.525692 
L 352.131519 55.210636 
L 355.963 42.745243 
L 357.240161 39.031265 
L 358.517322 35.763425 
L 359.794482 33.120325 
L 361.071643 31.2936 
L 362.348804 30.467273 
L 363.625964 30.793284 
L 364.903125 32.368184 
L 366.180286 35.216553 
L 367.457446 39.285503 
L 368.734607 44.451811 
L 370.011768 50.53991 
L 372.566089 64.664009 
L 384.060535 132.768983 
L 387.892017 153.029491 
L 391.723499 171.874888 
L 395.55498 189.405086 
L 399.386462 205.712705 
L 403.217944 220.884974 
L 407.049426 235.007958 
L 410.880908 248.162692 
L 414.71239 260.423541 
L 418.543872 271.848295 
L 422.375354 282.479931 
L 426.206836 292.365424 
L 430.038318 301.559097 
L 433.8698 310.112191 
L 437.701282 318.068944 
L 441.532764 325.467742 
L 445.364246 332.348754 
L 449.195728 338.755225 
L 453.027209 344.723312 
L 456.858691 350.283504 
L 460.690173 355.465116 
L 464.521655 360.290351 
L 468.353137 364.777027 
L 472.184619 368.945945 
L 476.016101 372.818162 
L 479.847583 376.416908 
L 483.679065 379.769676 
L 487.510547 382.896835 
L 492.619189 386.733363 
L 497.727832 390.215993 
L 502.836475 393.380538 
L 507.945117 396.255407 
L 513.05376 398.869347 
L 518.162402 401.246386 
L 523.271045 403.403269 
L 529.656848 405.82237 
L 536.042651 407.969459 
L 542.428455 409.874408 
L 548.814258 411.563675 
L 556.477222 413.340076 
L 564.140186 414.871824 
L 573.08031 416.407361 
L 582.020435 417.722925 
L 590.960559 418.826132 
L 601.177844 419.862532 
L 613.949451 420.921872 
L 626.721057 421.757692 
L 642.046985 422.525466 
L 658.650073 423.143724 
L 680.361804 423.709946 
L 700.796375 424.069591 
L 700.796375 424.069591 
" style="fill:none;stroke:#bcbd22;stroke-linecap:square;stroke-width:1.5;"/>
   </g>
   <g id="line2d_25">
    <path clip-path="url(#pab3a174895)" d="M 29.009875 406.99548 
L 40.504321 404.96213 
L 51.998767 402.708184 
L 62.216052 400.469472 
L 72.433337 398.026582 
L 81.373462 395.685758 
L 90.313586 393.134884 
L 99.253711 390.361143 
L 108.193835 387.327067 
L 117.13396 384.050283 
L 124.796924 381.0364 
L 132.459888 377.766941 
L 140.122852 374.255389 
L 147.785815 370.478294 
L 155.448779 366.419279 
L 161.834583 362.809766 
L 168.220386 358.974825 
L 174.606189 354.904818 
L 180.991992 350.584732 
L 187.377795 346.006185 
L 193.763599 341.132452 
L 200.149402 335.974363 
L 206.535205 330.49166 
L 212.921008 324.662749 
L 219.306812 318.494586 
L 224.415454 313.278841 
L 229.524097 307.791658 
L 235.9099 300.56563 
L 241.018542 294.460704 
L 246.127185 288.039175 
L 251.235828 281.314832 
L 256.34447 274.280304 
L 261.453113 266.904291 
L 266.561755 259.147401 
L 271.670398 250.998166 
L 276.779041 242.453979 
L 281.887683 233.494233 
L 286.996326 224.080943 
L 292.104968 214.213061 
L 297.213611 203.898053 
L 302.322253 193.091167 
L 307.430896 181.717333 
L 312.539539 169.776286 
L 317.648181 157.279428 
L 322.756824 144.163745 
L 327.865466 130.374755 
L 332.974109 115.889546 
L 338.082751 100.712621 
L 343.191394 84.817409 
L 348.300037 68.140601 
L 355.963 42.743686 
L 357.240161 39.026713 
L 358.517322 35.758054 
L 359.794482 33.115754 
L 361.071643 31.290937 
L 362.348804 30.467273 
L 363.625964 30.796519 
L 364.903125 32.375115 
L 366.180286 35.227469 
L 367.457446 39.300352 
L 368.734607 44.470035 
L 370.011768 50.560369 
L 372.566089 64.683766 
L 382.783374 125.644199 
L 386.614856 146.374315 
L 390.446338 165.685242 
L 394.27782 183.665218 
L 398.109302 200.397013 
L 401.940784 215.971336 
L 405.772266 230.471947 
L 409.603748 243.958531 
L 413.435229 256.492497 
L 417.266711 268.154183 
L 421.098193 279.018516 
L 424.929675 289.138136 
L 428.761157 298.551961 
L 432.592639 307.302948 
L 436.424121 315.447475 
L 440.255603 323.042328 
L 444.087085 330.123209 
L 447.918567 336.707462 
L 451.750049 342.82054 
L 455.581531 348.503551 
L 459.413013 353.795784 
L 463.244495 358.725263 
L 467.075977 363.315998 
L 470.907458 367.591241 
L 474.73894 371.566584 
L 478.570422 375.256738 
L 482.401904 378.68703 
L 486.233386 381.884217 
L 491.342029 385.812973 
L 496.450671 389.384957 
L 501.559314 392.629422 
L 506.667957 395.573877 
L 511.776599 398.250625 
L 516.885242 400.683132 
L 521.993884 402.887136 
L 528.379688 405.357701 
L 534.765491 407.554967 
L 541.151294 409.503606 
L 547.537097 411.23341 
L 555.200061 413.056051 
L 562.863025 414.638715 
L 570.525989 416.003608 
L 579.466113 417.361811 
L 588.406238 418.511127 
L 598.623523 419.612015 
L 610.117969 420.628908 
L 622.889575 421.526519 
L 638.215503 422.354111 
L 654.818591 423.014455 
L 675.253162 423.596812 
L 700.796375 424.066937 
L 700.796375 424.066937 
" style="fill:none;stroke:#17becf;stroke-linecap:square;stroke-width:1.5;"/>
   </g>
   <g id="line2d_26">
    <path clip-path="url(#pab3a174895)" d="M 29.009875 406.987373 
L 40.504321 404.954012 
L 51.998767 402.698784 
L 62.216052 400.462693 
L 72.433337 398.023958 
L 81.373462 395.686144 
L 90.313586 393.133032 
L 99.253711 390.362743 
L 106.916675 387.795225 
L 114.579639 385.020451 
L 123.519763 381.530086 
L 131.182727 378.316596 
L 138.845691 374.859928 
L 146.508655 371.115045 
L 154.171619 367.096665 
L 161.834583 362.808812 
L 168.220386 358.986608 
L 174.606189 354.903029 
L 180.991992 350.582661 
L 187.377795 346.028186 
L 193.763599 341.174974 
L 200.149402 335.974538 
L 206.535205 330.46219 
L 212.921008 324.62803 
L 219.306812 318.432358 
L 225.692615 311.888286 
L 230.801257 306.374391 
L 235.9099 300.576323 
L 241.018542 294.471297 
L 246.127185 288.048607 
L 251.235828 281.327259 
L 256.34447 274.299196 
L 261.453113 266.918992 
L 266.561755 259.156629 
L 271.670398 251.006448 
L 276.779041 242.453767 
L 281.887683 233.48184 
L 286.996326 224.087078 
L 292.104968 214.250933 
L 297.213611 203.933697 
L 302.322253 193.098648 
L 307.430896 181.707794 
L 312.539539 169.728407 
L 317.648181 157.170505 
L 322.756824 144.038716 
L 327.865466 130.278175 
L 332.974109 115.83921 
L 338.082751 100.680464 
L 343.191394 84.765565 
L 348.300037 68.084218 
L 355.963 42.763104 
L 357.240161 39.052204 
L 358.517322 35.784117 
L 359.794482 33.137083 
L 361.071643 31.303135 
L 362.348804 30.467273 
L 363.625964 30.78269 
L 364.903125 32.347144 
L 366.180286 35.186163 
L 367.457446 39.247453 
L 368.734607 44.408068 
L 370.011768 50.492474 
L 372.566089 64.614385 
L 382.783374 125.622574 
L 386.614856 146.381391 
L 390.446338 165.726097 
L 394.27782 183.717822 
L 398.109302 200.432985 
L 401.940784 215.976572 
L 405.772266 230.446734 
L 409.603748 243.923071 
L 413.435229 256.47399 
L 417.266711 268.156362 
L 421.098193 279.023643 
L 424.929675 289.131841 
L 428.761157 298.537203 
L 432.592639 307.295452 
L 436.424121 315.455479 
L 440.255603 323.054755 
L 444.087085 330.125419 
L 447.918567 336.700851 
L 451.750049 342.817353 
L 455.581531 348.507892 
L 459.413013 353.796785 
L 463.244495 358.71085 
L 467.075977 363.28497 
L 470.907458 367.548846 
L 474.73894 371.524463 
L 478.570422 375.231311 
L 482.401904 378.681494 
L 486.233386 381.883978 
L 490.064868 384.857817 
L 495.173511 388.509255 
L 500.282153 391.838117 
L 505.390796 394.863407 
L 510.499438 397.60364 
L 515.608081 400.089576 
L 520.716724 402.34779 
L 525.825366 404.400505 
L 532.211169 406.700473 
L 538.596973 408.749871 
L 544.982776 410.571648 
L 551.368579 412.176966 
L 559.031543 413.865026 
L 566.694507 415.33739 
L 575.634631 416.804561 
L 584.574756 418.04356 
L 594.792041 419.228745 
L 606.286487 420.317431 
L 617.780933 421.19531 
L 631.8297 422.038131 
L 647.155627 422.733772 
L 666.313037 423.367237 
L 689.301929 423.880388 
L 700.796375 424.066168 
L 700.796375 424.066168 
" style="fill:none;stroke:#1f77b4;stroke-linecap:square;stroke-width:1.5;"/>
   </g>
   <g id="patch_3">
    <path d="M 30.103125 445.58 
L 30.103125 10.7 
" style="fill:none;stroke:#000000;stroke-linecap:square;stroke-linejoin:miter;stroke-width:0.8;"/>
   </g>
   <g id="patch_4">
    <path d="M 699.703125 445.58 
L 699.703125 10.7 
" style="fill:none;stroke:#000000;stroke-linecap:square;stroke-linejoin:miter;stroke-width:0.8;"/>
   </g>
   <g id="patch_5">
    <path d="M 30.103125 445.58 
L 699.703125 445.58 
" style="fill:none;stroke:#000000;stroke-linecap:square;stroke-linejoin:miter;stroke-width:0.8;"/>
   </g>
   <g id="patch_6">
    <path d="M 30.103125 10.7 
L 699.703125 10.7 
" style="fill:none;stroke:#000000;stroke-linecap:square;stroke-linejoin:miter;stroke-width:0.8;"/>
   </g>
   <g id="legend_1">
    <g id="patch_7">
     <path d="M 555.725 180.159375 
L 692.703125 180.159375 
Q 694.703125 180.159375 694.703125 178.159375 
L 694.703125 17.7 
Q 694.703125 15.7 692.703125 15.7 
L 555.725 15.7 
Q 553.725 15.7 553.725 17.7 
L 553.725 178.159375 
Q 553.725 180.159375 555.725 180.159375 
z
" style="fill:#ffffff;opacity:0.8;stroke:#cccccc;stroke-linejoin:miter;"/>
    </g>
    <g id="line2d_27">
     <path d="M 557.725 23.798437 
L 577.725 23.798437 
" style="fill:none;stroke:#1f77b4;stroke-linecap:square;stroke-width:1.5;"/>
    </g>
    <g id="line2d_28"/>
    <g id="text_16">
     <!-- 1.00411e-07 -->
     <defs>
      <path d="M 56.203125 29.59375 
L 56.203125 25.203125 
L 14.890625 25.203125 
Q 15.484375 15.921875 20.484375 11.0625 
Q 25.484375 6.203125 34.421875 6.203125 
Q 39.59375 6.203125 44.453125 7.46875 
Q 49.3125 8.734375 54.109375 11.28125 
L 54.109375 2.78125 
Q 49.265625 0.734375 44.1875 -0.34375 
Q 39.109375 -1.421875 33.890625 -1.421875 
Q 20.796875 -1.421875 13.15625 6.1875 
Q 5.515625 13.8125 5.515625 26.8125 
Q 5.515625 40.234375 12.765625 48.109375 
Q 20.015625 56 32.328125 56 
Q 43.359375 56 49.78125 48.890625 
Q 56.203125 41.796875 56.203125 29.59375 
z
M 47.21875 32.234375 
Q 47.125 39.59375 43.09375 43.984375 
Q 39.0625 48.390625 32.421875 48.390625 
Q 24.90625 48.390625 20.390625 44.140625 
Q 15.875 39.890625 15.1875 32.171875 
z
" id="DejaVuSans-65"/>
      <path d="M 4.890625 31.390625 
L 31.203125 31.390625 
L 31.203125 23.390625 
L 4.890625 23.390625 
z
" id="DejaVuSans-2d"/>
     </defs>
     <g transform="translate(585.725 27.298437)scale(0.1 -0.1)">
      <use xlink:href="#DejaVuSans-31"/>
      <use x="63.623047" xlink:href="#DejaVuSans-2e"/>
      <use x="95.410156" xlink:href="#DejaVuSans-30"/>
      <use x="159.033203" xlink:href="#DejaVuSans-30"/>
      <use x="222.65625" xlink:href="#DejaVuSans-34"/>
      <use x="286.279297" xlink:href="#DejaVuSans-31"/>
      <use x="349.902344" xlink:href="#DejaVuSans-31"/>
      <use x="413.525391" xlink:href="#DejaVuSans-65"/>
      <use x="475.048828" xlink:href="#DejaVuSans-2d"/>
      <use x="511.132812" xlink:href="#DejaVuSans-30"/>
      <use x="574.755859" xlink:href="#DejaVuSans-37"/>
     </g>
    </g>
    <g id="line2d_29">
     <path d="M 557.725 38.476562 
L 577.725 38.476562 
" style="fill:none;stroke:#ff7f0e;stroke-linecap:square;stroke-width:1.5;"/>
    </g>
    <g id="line2d_30"/>
    <g id="text_17">
     <!-- 3.01034e-07 -->
     <defs>
      <path d="M 40.578125 39.3125 
Q 47.65625 37.796875 51.625 33 
Q 55.609375 28.21875 55.609375 21.1875 
Q 55.609375 10.40625 48.1875 4.484375 
Q 40.765625 -1.421875 27.09375 -1.421875 
Q 22.515625 -1.421875 17.65625 -0.515625 
Q 12.796875 0.390625 7.625 2.203125 
L 7.625 11.71875 
Q 11.71875 9.328125 16.59375 8.109375 
Q 21.484375 6.890625 26.8125 6.890625 
Q 36.078125 6.890625 40.9375 10.546875 
Q 45.796875 14.203125 45.796875 21.1875 
Q 45.796875 27.640625 41.28125 31.265625 
Q 36.765625 34.90625 28.71875 34.90625 
L 20.21875 34.90625 
L 20.21875 43.015625 
L 29.109375 43.015625 
Q 36.375 43.015625 40.234375 45.921875 
Q 44.09375 48.828125 44.09375 54.296875 
Q 44.09375 59.90625 40.109375 62.90625 
Q 36.140625 65.921875 28.71875 65.921875 
Q 24.65625 65.921875 20.015625 65.03125 
Q 15.375 64.15625 9.8125 62.3125 
L 9.8125 71.09375 
Q 15.4375 72.65625 20.34375 73.4375 
Q 25.25 74.21875 29.59375 74.21875 
Q 40.828125 74.21875 47.359375 69.109375 
Q 53.90625 64.015625 53.90625 55.328125 
Q 53.90625 49.265625 50.4375 45.09375 
Q 46.96875 40.921875 40.578125 39.3125 
z
" id="DejaVuSans-33"/>
     </defs>
     <g transform="translate(585.725 41.976562)scale(0.1 -0.1)">
      <use xlink:href="#DejaVuSans-33"/>
      <use x="63.623047" xlink:href="#DejaVuSans-2e"/>
      <use x="95.410156" xlink:href="#DejaVuSans-30"/>
      <use x="159.033203" xlink:href="#DejaVuSans-31"/>
      <use x="222.65625" xlink:href="#DejaVuSans-30"/>
      <use x="286.279297" xlink:href="#DejaVuSans-33"/>
      <use x="349.902344" xlink:href="#DejaVuSans-34"/>
      <use x="413.525391" xlink:href="#DejaVuSans-65"/>
      <use x="475.048828" xlink:href="#DejaVuSans-2d"/>
      <use x="511.132812" xlink:href="#DejaVuSans-30"/>
      <use x="574.755859" xlink:href="#DejaVuSans-37"/>
     </g>
    </g>
    <g id="line2d_31">
     <path d="M 557.725 53.154688 
L 577.725 53.154688 
" style="fill:none;stroke:#2ca02c;stroke-linecap:square;stroke-width:1.5;"/>
    </g>
    <g id="line2d_32"/>
    <g id="text_18">
     <!-- 1.08049e-06 -->
     <defs>
      <path d="M 10.984375 1.515625 
L 10.984375 10.5 
Q 14.703125 8.734375 18.5 7.8125 
Q 22.3125 6.890625 25.984375 6.890625 
Q 35.75 6.890625 40.890625 13.453125 
Q 46.046875 20.015625 46.78125 33.40625 
Q 43.953125 29.203125 39.59375 26.953125 
Q 35.25 24.703125 29.984375 24.703125 
Q 19.046875 24.703125 12.671875 31.3125 
Q 6.296875 37.9375 6.296875 49.421875 
Q 6.296875 60.640625 12.9375 67.421875 
Q 19.578125 74.21875 30.609375 74.21875 
Q 43.265625 74.21875 49.921875 64.515625 
Q 56.59375 54.828125 56.59375 36.375 
Q 56.59375 19.140625 48.40625 8.859375 
Q 40.234375 -1.421875 26.421875 -1.421875 
Q 22.703125 -1.421875 18.890625 -0.6875 
Q 15.09375 0.046875 10.984375 1.515625 
z
M 30.609375 32.421875 
Q 37.25 32.421875 41.125 36.953125 
Q 45.015625 41.5 45.015625 49.421875 
Q 45.015625 57.28125 41.125 61.84375 
Q 37.25 66.40625 30.609375 66.40625 
Q 23.96875 66.40625 20.09375 61.84375 
Q 16.21875 57.28125 16.21875 49.421875 
Q 16.21875 41.5 20.09375 36.953125 
Q 23.96875 32.421875 30.609375 32.421875 
z
" id="DejaVuSans-39"/>
     </defs>
     <g transform="translate(585.725 56.654688)scale(0.1 -0.1)">
      <use xlink:href="#DejaVuSans-31"/>
      <use x="63.623047" xlink:href="#DejaVuSans-2e"/>
      <use x="95.410156" xlink:href="#DejaVuSans-30"/>
      <use x="159.033203" xlink:href="#DejaVuSans-38"/>
      <use x="222.65625" xlink:href="#DejaVuSans-30"/>
      <use x="286.279297" xlink:href="#DejaVuSans-34"/>
      <use x="349.902344" xlink:href="#DejaVuSans-39"/>
      <use x="413.525391" xlink:href="#DejaVuSans-65"/>
      <use x="475.048828" xlink:href="#DejaVuSans-2d"/>
      <use x="511.132812" xlink:href="#DejaVuSans-30"/>
      <use x="574.755859" xlink:href="#DejaVuSans-36"/>
     </g>
    </g>
    <g id="line2d_33">
     <path d="M 557.725 67.832812 
L 577.725 67.832812 
" style="fill:none;stroke:#d62728;stroke-linecap:square;stroke-width:1.5;"/>
    </g>
    <g id="line2d_34"/>
    <g id="text_19">
     <!-- 4.87227e-06 -->
     <g transform="translate(585.725 71.332812)scale(0.1 -0.1)">
      <use xlink:href="#DejaVuSans-34"/>
      <use x="63.623047" xlink:href="#DejaVuSans-2e"/>
      <use x="95.410156" xlink:href="#DejaVuSans-38"/>
      <use x="159.033203" xlink:href="#DejaVuSans-37"/>
      <use x="222.65625" xlink:href="#DejaVuSans-32"/>
      <use x="286.279297" xlink:href="#DejaVuSans-32"/>
      <use x="349.902344" xlink:href="#DejaVuSans-37"/>
      <use x="413.525391" xlink:href="#DejaVuSans-65"/>
      <use x="475.048828" xlink:href="#DejaVuSans-2d"/>
      <use x="511.132812" xlink:href="#DejaVuSans-30"/>
      <use x="574.755859" xlink:href="#DejaVuSans-36"/>
     </g>
    </g>
    <g id="line2d_35">
     <path d="M 557.725 82.510938 
L 577.725 82.510938 
" style="fill:none;stroke:#9467bd;stroke-linecap:square;stroke-width:1.5;"/>
    </g>
    <g id="line2d_36"/>
    <g id="text_20">
     <!-- 2.95189e-05 -->
     <g transform="translate(585.725 86.010938)scale(0.1 -0.1)">
      <use xlink:href="#DejaVuSans-32"/>
      <use x="63.623047" xlink:href="#DejaVuSans-2e"/>
      <use x="95.410156" xlink:href="#DejaVuSans-39"/>
      <use x="159.033203" xlink:href="#DejaVuSans-35"/>
      <use x="222.65625" xlink:href="#DejaVuSans-31"/>
      <use x="286.279297" xlink:href="#DejaVuSans-38"/>
      <use x="349.902344" xlink:href="#DejaVuSans-39"/>
      <use x="413.525391" xlink:href="#DejaVuSans-65"/>
      <use x="475.048828" xlink:href="#DejaVuSans-2d"/>
      <use x="511.132812" xlink:href="#DejaVuSans-30"/>
      <use x="574.755859" xlink:href="#DejaVuSans-35"/>
     </g>
    </g>
    <g id="line2d_37">
     <path d="M 557.725 97.189062 
L 577.725 97.189062 
" style="fill:none;stroke:#8c564b;stroke-linecap:square;stroke-width:1.5;"/>
    </g>
    <g id="line2d_38"/>
    <g id="text_21">
     <!-- 0.000264575 -->
     <g transform="translate(585.725 100.689062)scale(0.1 -0.1)">
      <use xlink:href="#DejaVuSans-30"/>
      <use x="63.623047" xlink:href="#DejaVuSans-2e"/>
      <use x="95.410156" xlink:href="#DejaVuSans-30"/>
      <use x="159.033203" xlink:href="#DejaVuSans-30"/>
      <use x="222.65625" xlink:href="#DejaVuSans-30"/>
      <use x="286.279297" xlink:href="#DejaVuSans-32"/>
      <use x="349.902344" xlink:href="#DejaVuSans-36"/>
      <use x="413.525391" xlink:href="#DejaVuSans-34"/>
      <use x="477.148438" xlink:href="#DejaVuSans-35"/>
      <use x="540.771484" xlink:href="#DejaVuSans-37"/>
      <use x="604.394531" xlink:href="#DejaVuSans-35"/>
     </g>
    </g>
    <g id="line2d_39">
     <path d="M 557.725 111.867188 
L 577.725 111.867188 
" style="fill:none;stroke:#e377c2;stroke-linecap:square;stroke-width:1.5;"/>
    </g>
    <g id="line2d_40"/>
    <g id="text_22">
     <!-- 0.00404858 -->
     <g transform="translate(585.725 115.367188)scale(0.1 -0.1)">
      <use xlink:href="#DejaVuSans-30"/>
      <use x="63.623047" xlink:href="#DejaVuSans-2e"/>
      <use x="95.410156" xlink:href="#DejaVuSans-30"/>
      <use x="159.033203" xlink:href="#DejaVuSans-30"/>
      <use x="222.65625" xlink:href="#DejaVuSans-34"/>
      <use x="286.279297" xlink:href="#DejaVuSans-30"/>
      <use x="349.902344" xlink:href="#DejaVuSans-34"/>
      <use x="413.525391" xlink:href="#DejaVuSans-38"/>
      <use x="477.148438" xlink:href="#DejaVuSans-35"/>
      <use x="540.771484" xlink:href="#DejaVuSans-38"/>
     </g>
    </g>
    <g id="line2d_41">
     <path d="M 557.725 126.545312 
L 577.725 126.545312 
" style="fill:none;stroke:#7f7f7f;stroke-linecap:square;stroke-width:1.5;"/>
    </g>
    <g id="line2d_42"/>
    <g id="text_23">
     <!-- 0.132176 -->
     <g transform="translate(585.725 130.045312)scale(0.1 -0.1)">
      <use xlink:href="#DejaVuSans-30"/>
      <use x="63.623047" xlink:href="#DejaVuSans-2e"/>
      <use x="95.410156" xlink:href="#DejaVuSans-31"/>
      <use x="159.033203" xlink:href="#DejaVuSans-33"/>
      <use x="222.65625" xlink:href="#DejaVuSans-32"/>
      <use x="286.279297" xlink:href="#DejaVuSans-31"/>
      <use x="349.902344" xlink:href="#DejaVuSans-37"/>
      <use x="413.525391" xlink:href="#DejaVuSans-36"/>
     </g>
    </g>
    <g id="line2d_43">
     <path d="M 557.725 141.223437 
L 577.725 141.223437 
" style="fill:none;stroke:#bcbd22;stroke-linecap:square;stroke-width:1.5;"/>
    </g>
    <g id="line2d_44"/>
    <g id="text_24">
     <!-- 13.2845 -->
     <g transform="translate(585.725 144.723437)scale(0.1 -0.1)">
      <use xlink:href="#DejaVuSans-31"/>
      <use x="63.623047" xlink:href="#DejaVuSans-33"/>
      <use x="127.246094" xlink:href="#DejaVuSans-2e"/>
      <use x="159.033203" xlink:href="#DejaVuSans-32"/>
      <use x="222.65625" xlink:href="#DejaVuSans-38"/>
      <use x="286.279297" xlink:href="#DejaVuSans-34"/>
      <use x="349.902344" xlink:href="#DejaVuSans-35"/>
     </g>
    </g>
    <g id="line2d_45">
     <path d="M 557.725 155.901562 
L 577.725 155.901562 
" style="fill:none;stroke:#17becf;stroke-linecap:square;stroke-width:1.5;"/>
    </g>
    <g id="line2d_46"/>
    <g id="text_25">
     <!-- 7863.38 -->
     <g transform="translate(585.725 159.401562)scale(0.1 -0.1)">
      <use xlink:href="#DejaVuSans-37"/>
      <use x="63.623047" xlink:href="#DejaVuSans-38"/>
      <use x="127.246094" xlink:href="#DejaVuSans-36"/>
      <use x="190.869141" xlink:href="#DejaVuSans-33"/>
      <use x="254.492188" xlink:href="#DejaVuSans-2e"/>
      <use x="286.279297" xlink:href="#DejaVuSans-33"/>
      <use x="349.902344" xlink:href="#DejaVuSans-38"/>
     </g>
    </g>
    <g id="line2d_47">
     <path d="M 557.725 170.579687 
L 577.725 170.579687 
" style="fill:none;stroke:#1f77b4;stroke-linecap:square;stroke-width:1.5;"/>
    </g>
    <g id="line2d_48"/>
    <g id="text_26">
     <!-- 434644000000000.0 -->
     <g transform="translate(585.725 174.079687)scale(0.1 -0.1)">
      <use xlink:href="#DejaVuSans-34"/>
      <use x="63.623047" xlink:href="#DejaVuSans-33"/>
      <use x="127.246094" xlink:href="#DejaVuSans-34"/>
      <use x="190.869141" xlink:href="#DejaVuSans-36"/>
      <use x="254.492188" xlink:href="#DejaVuSans-34"/>
      <use x="318.115234" xlink:href="#DejaVuSans-34"/>
      <use x="381.738281" xlink:href="#DejaVuSans-30"/>
      <use x="445.361328" xlink:href="#DejaVuSans-30"/>
      <use x="508.984375" xlink:href="#DejaVuSans-30"/>
      <use x="572.607422" xlink:href="#DejaVuSans-30"/>
      <use x="636.230469" xlink:href="#DejaVuSans-30"/>
      <use x="699.853516" xlink:href="#DejaVuSans-30"/>
      <use x="763.476562" xlink:href="#DejaVuSans-30"/>
      <use x="827.099609" xlink:href="#DejaVuSans-30"/>
      <use x="890.722656" xlink:href="#DejaVuSans-30"/>
      <use x="954.345703" xlink:href="#DejaVuSans-2e"/>
      <use x="986.132812" xlink:href="#DejaVuSans-30"/>
     </g>
    </g>
   </g>
  </g>
 </g>
 <defs>
  <clipPath id="pab3a174895">
   <rect height="434.88" width="669.6" x="30.103125" y="10.7"/>
  </clipPath>
 </defs>
</svg>
