<?xml version="1.0" encoding="utf-8" standalone="no"?>
<!DOCTYPE svg PUBLIC "-//W3C//DTD SVG 1.1//EN"
  "http://www.w3.org/Graphics/SVG/1.1/DTD/svg11.dtd">
<!-- Created with matplotlib (http://matplotlib.org/) -->
<svg height="495.77625pt" version="1.1" viewBox="0 0 738.823438 495.77625" width="738.823438pt" xmlns="http://www.w3.org/2000/svg" xmlns:xlink="http://www.w3.org/1999/xlink">
 <defs>
  <style type="text/css">
*{stroke-linecap:butt;stroke-linejoin:round;}
  </style>
 </defs>
 <g id="figure_1">
  <g id="patch_1">
   <path d="M 0 495.77625 
L 738.823438 495.77625 
L 738.823438 0 
L 0 0 
z
" style="fill:#ffffff;"/>
  </g>
  <g id="axes_1">
   <g id="patch_2">
    <path d="M 58.523438 457.198125 
L 728.123438 457.198125 
L 728.123438 22.318125 
L 58.523438 22.318125 
z
" style="fill:#ffffff;"/>
   </g>
   <g id="PathCollection_1">
    <defs>
     <path d="M 0 3 
C 0.795609 3 1.55874 2.683901 2.12132 2.12132 
C 2.683901 1.55874 3 0.795609 3 0 
C 3 -0.795609 2.683901 -1.55874 2.12132 -2.12132 
C 1.55874 -2.683901 0.795609 -3 0 -3 
C -0.795609 -3 -1.55874 -2.683901 -2.12132 -2.12132 
C -2.683901 -1.55874 -3 -0.795609 -3 0 
C -3 0.795609 -2.683901 1.55874 -2.12132 2.12132 
C -1.55874 2.683901 -0.795609 3 0 3 
z
" id="m200e6d4f61" style="stroke:#1f77b4;"/>
    </defs>
    <g clip-path="url(#pc633389191)">
     <use style="fill:#1f77b4;stroke:#1f77b4;" x="91.959801" xlink:href="#m200e6d4f61" y="45.085398"/>
     <use style="fill:#1f77b4;stroke:#1f77b4;" x="119.193518" xlink:href="#m200e6d4f61" y="48.617981"/>
     <use style="fill:#1f77b4;stroke:#1f77b4;" x="146.427234" xlink:href="#m200e6d4f61" y="58.565992"/>
     <use style="fill:#1f77b4;stroke:#1f77b4;" x="173.66095" xlink:href="#m200e6d4f61" y="68.681999"/>
     <use style="fill:#1f77b4;stroke:#1f77b4;" x="200.894667" xlink:href="#m200e6d4f61" y="82.700499"/>
     <use style="fill:#1f77b4;stroke:#1f77b4;" x="228.128383" xlink:href="#m200e6d4f61" y="99.487832"/>
     <use style="fill:#1f77b4;stroke:#1f77b4;" x="255.3621" xlink:href="#m200e6d4f61" y="122.619072"/>
     <use style="fill:#1f77b4;stroke:#1f77b4;" x="282.595816" xlink:href="#m200e6d4f61" y="146.30859"/>
     <use style="fill:#1f77b4;stroke:#1f77b4;" x="309.829532" xlink:href="#m200e6d4f61" y="180.114426"/>
     <use style="fill:#1f77b4;stroke:#1f77b4;" x="337.063249" xlink:href="#m200e6d4f61" y="219.476401"/>
     <use style="fill:#1f77b4;stroke:#1f77b4;" x="364.296965" xlink:href="#m200e6d4f61" y="268.610682"/>
     <use style="fill:#1f77b4;stroke:#1f77b4;" x="391.530682" xlink:href="#m200e6d4f61" y="319.09437"/>
     <use style="fill:#1f77b4;stroke:#1f77b4;" x="418.764398" xlink:href="#m200e6d4f61" y="371.18309"/>
     <use style="fill:#1f77b4;stroke:#1f77b4;" x="445.998115" xlink:href="#m200e6d4f61" y="409.890932"/>
     <use style="fill:#1f77b4;stroke:#1f77b4;" x="473.231831" xlink:href="#m200e6d4f61" y="427.98983"/>
     <use style="fill:#1f77b4;stroke:#1f77b4;" x="500.465547" xlink:href="#m200e6d4f61" y="434.430852"/>
     <use style="fill:#1f77b4;stroke:#1f77b4;" x="527.699264" xlink:href="#m200e6d4f61" y="433.213235"/>
     <use style="fill:#1f77b4;stroke:#1f77b4;" x="554.93298" xlink:href="#m200e6d4f61" y="433.000311"/>
     <use style="fill:#1f77b4;stroke:#1f77b4;" x="582.166697" xlink:href="#m200e6d4f61" y="432.527986"/>
     <use style="fill:#1f77b4;stroke:#1f77b4;" x="609.400413" xlink:href="#m200e6d4f61" y="433.963247"/>
     <use style="fill:#1f77b4;stroke:#1f77b4;" x="636.634129" xlink:href="#m200e6d4f61" y="432.985278"/>
     <use style="fill:#1f77b4;stroke:#1f77b4;" x="663.867846" xlink:href="#m200e6d4f61" y="433.605021"/>
     <use style="fill:#1f77b4;stroke:#1f77b4;" x="691.101562" xlink:href="#m200e6d4f61" y="432.693359"/>
    </g>
   </g>
   <g id="PathCollection_2">
    <defs>
     <path d="M 0 3 
C 0.795609 3 1.55874 2.683901 2.12132 2.12132 
C 2.683901 1.55874 3 0.795609 3 0 
C 3 -0.795609 2.683901 -1.55874 2.12132 -2.12132 
C 1.55874 -2.683901 0.795609 -3 0 -3 
C -0.795609 -3 -1.55874 -2.683901 -2.12132 -2.12132 
C -2.683901 -1.55874 -3 -0.795609 -3 0 
C -3 0.795609 -2.683901 1.55874 -2.12132 2.12132 
C -1.55874 2.683901 -0.795609 3 0 3 
z
" id="m811852cd19" style="stroke:#ff7f0e;"/>
    </defs>
    <g clip-path="url(#pc633389191)">
     <use style="fill:#ff7f0e;stroke:#ff7f0e;" x="91.959801" xlink:href="#m811852cd19" y="45.085398"/>
     <use style="fill:#ff7f0e;stroke:#ff7f0e;" x="119.193518" xlink:href="#m811852cd19" y="50.568359"/>
     <use style="fill:#ff7f0e;stroke:#ff7f0e;" x="146.427234" xlink:href="#m811852cd19" y="58.111349"/>
     <use style="fill:#ff7f0e;stroke:#ff7f0e;" x="173.66095" xlink:href="#m811852cd19" y="68.392757"/>
     <use style="fill:#ff7f0e;stroke:#ff7f0e;" x="200.894667" xlink:href="#m811852cd19" y="83.526425"/>
     <use style="fill:#ff7f0e;stroke:#ff7f0e;" x="228.128383" xlink:href="#m811852cd19" y="99.503584"/>
     <use style="fill:#ff7f0e;stroke:#ff7f0e;" x="255.3621" xlink:href="#m811852cd19" y="123.257017"/>
     <use style="fill:#ff7f0e;stroke:#ff7f0e;" x="282.595816" xlink:href="#m811852cd19" y="147.62374"/>
     <use style="fill:#ff7f0e;stroke:#ff7f0e;" x="309.829532" xlink:href="#m811852cd19" y="181.114881"/>
     <use style="fill:#ff7f0e;stroke:#ff7f0e;" x="337.063249" xlink:href="#m811852cd19" y="222.397684"/>
     <use style="fill:#ff7f0e;stroke:#ff7f0e;" x="364.296965" xlink:href="#m811852cd19" y="271.49284"/>
     <use style="fill:#ff7f0e;stroke:#ff7f0e;" x="391.530682" xlink:href="#m811852cd19" y="325.162502"/>
     <use style="fill:#ff7f0e;stroke:#ff7f0e;" x="418.764398" xlink:href="#m811852cd19" y="374.240239"/>
     <use style="fill:#ff7f0e;stroke:#ff7f0e;" x="445.998115" xlink:href="#m811852cd19" y="409.769708"/>
     <use style="fill:#ff7f0e;stroke:#ff7f0e;" x="473.231831" xlink:href="#m811852cd19" y="428.130153"/>
     <use style="fill:#ff7f0e;stroke:#ff7f0e;" x="500.465547" xlink:href="#m811852cd19" y="431.730428"/>
     <use style="fill:#ff7f0e;stroke:#ff7f0e;" x="527.699264" xlink:href="#m811852cd19" y="434.430852"/>
     <use style="fill:#ff7f0e;stroke:#ff7f0e;" x="554.93298" xlink:href="#m811852cd19" y="432.937011"/>
     <use style="fill:#ff7f0e;stroke:#ff7f0e;" x="582.166697" xlink:href="#m811852cd19" y="433.191345"/>
     <use style="fill:#ff7f0e;stroke:#ff7f0e;" x="609.400413" xlink:href="#m811852cd19" y="433.862394"/>
     <use style="fill:#ff7f0e;stroke:#ff7f0e;" x="636.634129" xlink:href="#m811852cd19" y="432.158263"/>
     <use style="fill:#ff7f0e;stroke:#ff7f0e;" x="663.867846" xlink:href="#m811852cd19" y="431.798214"/>
     <use style="fill:#ff7f0e;stroke:#ff7f0e;" x="691.101562" xlink:href="#m811852cd19" y="432.101244"/>
    </g>
   </g>
   <g id="PathCollection_3">
    <defs>
     <path d="M 0 3 
C 0.795609 3 1.55874 2.683901 2.12132 2.12132 
C 2.683901 1.55874 3 0.795609 3 0 
C 3 -0.795609 2.683901 -1.55874 2.12132 -2.12132 
C 1.55874 -2.683901 0.795609 -3 0 -3 
C -0.795609 -3 -1.55874 -2.683901 -2.12132 -2.12132 
C -2.683901 -1.55874 -3 -0.795609 -3 0 
C -3 0.795609 -2.683901 1.55874 -2.12132 2.12132 
C -1.55874 2.683901 -0.795609 3 0 3 
z
" id="m13da45fc4a" style="stroke:#2ca02c;"/>
    </defs>
    <g clip-path="url(#pc633389191)">
     <use style="fill:#2ca02c;stroke:#2ca02c;" x="91.959801" xlink:href="#m13da45fc4a" y="45.085398"/>
     <use style="fill:#2ca02c;stroke:#2ca02c;" x="119.193518" xlink:href="#m13da45fc4a" y="48.650096"/>
     <use style="fill:#2ca02c;stroke:#2ca02c;" x="146.427234" xlink:href="#m13da45fc4a" y="57.574215"/>
     <use style="fill:#2ca02c;stroke:#2ca02c;" x="173.66095" xlink:href="#m13da45fc4a" y="67.906875"/>
     <use style="fill:#2ca02c;stroke:#2ca02c;" x="200.894667" xlink:href="#m13da45fc4a" y="83.881824"/>
     <use style="fill:#2ca02c;stroke:#2ca02c;" x="228.128383" xlink:href="#m13da45fc4a" y="101.294247"/>
     <use style="fill:#2ca02c;stroke:#2ca02c;" x="255.3621" xlink:href="#m13da45fc4a" y="125.498153"/>
     <use style="fill:#2ca02c;stroke:#2ca02c;" x="282.595816" xlink:href="#m13da45fc4a" y="149.885507"/>
     <use style="fill:#2ca02c;stroke:#2ca02c;" x="309.829532" xlink:href="#m13da45fc4a" y="187.162506"/>
     <use style="fill:#2ca02c;stroke:#2ca02c;" x="337.063249" xlink:href="#m13da45fc4a" y="226.907065"/>
     <use style="fill:#2ca02c;stroke:#2ca02c;" x="364.296965" xlink:href="#m13da45fc4a" y="279.240141"/>
     <use style="fill:#2ca02c;stroke:#2ca02c;" x="391.530682" xlink:href="#m13da45fc4a" y="333.343766"/>
     <use style="fill:#2ca02c;stroke:#2ca02c;" x="418.764398" xlink:href="#m13da45fc4a" y="381.265231"/>
     <use style="fill:#2ca02c;stroke:#2ca02c;" x="445.998115" xlink:href="#m13da45fc4a" y="415.71993"/>
     <use style="fill:#2ca02c;stroke:#2ca02c;" x="473.231831" xlink:href="#m13da45fc4a" y="429.282942"/>
     <use style="fill:#2ca02c;stroke:#2ca02c;" x="500.465547" xlink:href="#m13da45fc4a" y="434.430852"/>
     <use style="fill:#2ca02c;stroke:#2ca02c;" x="527.699264" xlink:href="#m13da45fc4a" y="433.402141"/>
     <use style="fill:#2ca02c;stroke:#2ca02c;" x="554.93298" xlink:href="#m13da45fc4a" y="433.37619"/>
     <use style="fill:#2ca02c;stroke:#2ca02c;" x="582.166697" xlink:href="#m13da45fc4a" y="433.999803"/>
     <use style="fill:#2ca02c;stroke:#2ca02c;" x="609.400413" xlink:href="#m13da45fc4a" y="431.670146"/>
     <use style="fill:#2ca02c;stroke:#2ca02c;" x="636.634129" xlink:href="#m13da45fc4a" y="433.044354"/>
     <use style="fill:#2ca02c;stroke:#2ca02c;" x="663.867846" xlink:href="#m13da45fc4a" y="432.995952"/>
     <use style="fill:#2ca02c;stroke:#2ca02c;" x="691.101562" xlink:href="#m13da45fc4a" y="433.248322"/>
    </g>
   </g>
   <g id="PathCollection_4">
    <defs>
     <path d="M 0 3 
C 0.795609 3 1.55874 2.683901 2.12132 2.12132 
C 2.683901 1.55874 3 0.795609 3 0 
C 3 -0.795609 2.683901 -1.55874 2.12132 -2.12132 
C 1.55874 -2.683901 0.795609 -3 0 -3 
C -0.795609 -3 -1.55874 -2.683901 -2.12132 -2.12132 
C -2.683901 -1.55874 -3 -0.795609 -3 0 
C -3 0.795609 -2.683901 1.55874 -2.12132 2.12132 
C -1.55874 2.683901 -0.795609 3 0 3 
z
" id="m98350bb0d1" style="stroke:#d62728;"/>
    </defs>
    <g clip-path="url(#pc633389191)">
     <use style="fill:#d62728;stroke:#d62728;" x="91.959801" xlink:href="#m98350bb0d1" y="45.085398"/>
     <use style="fill:#d62728;stroke:#d62728;" x="119.193518" xlink:href="#m98350bb0d1" y="49.877139"/>
     <use style="fill:#d62728;stroke:#d62728;" x="146.427234" xlink:href="#m98350bb0d1" y="60.490146"/>
     <use style="fill:#d62728;stroke:#d62728;" x="173.66095" xlink:href="#m98350bb0d1" y="71.388443"/>
     <use style="fill:#d62728;stroke:#d62728;" x="200.894667" xlink:href="#m98350bb0d1" y="87.62276"/>
     <use style="fill:#d62728;stroke:#d62728;" x="228.128383" xlink:href="#m98350bb0d1" y="108.079594"/>
     <use style="fill:#d62728;stroke:#d62728;" x="255.3621" xlink:href="#m98350bb0d1" y="133.820422"/>
     <use style="fill:#d62728;stroke:#d62728;" x="282.595816" xlink:href="#m98350bb0d1" y="160.775155"/>
     <use style="fill:#d62728;stroke:#d62728;" x="309.829532" xlink:href="#m98350bb0d1" y="196.806532"/>
     <use style="fill:#d62728;stroke:#d62728;" x="337.063249" xlink:href="#m98350bb0d1" y="242.27268"/>
     <use style="fill:#d62728;stroke:#d62728;" x="364.296965" xlink:href="#m98350bb0d1" y="291.676439"/>
     <use style="fill:#d62728;stroke:#d62728;" x="391.530682" xlink:href="#m98350bb0d1" y="343.606505"/>
     <use style="fill:#d62728;stroke:#d62728;" x="418.764398" xlink:href="#m98350bb0d1" y="387.274232"/>
     <use style="fill:#d62728;stroke:#d62728;" x="445.998115" xlink:href="#m98350bb0d1" y="416.245949"/>
     <use style="fill:#d62728;stroke:#d62728;" x="473.231831" xlink:href="#m98350bb0d1" y="428.437851"/>
     <use style="fill:#d62728;stroke:#d62728;" x="500.465547" xlink:href="#m98350bb0d1" y="431.679341"/>
     <use style="fill:#d62728;stroke:#d62728;" x="527.699264" xlink:href="#m98350bb0d1" y="431.860594"/>
     <use style="fill:#d62728;stroke:#d62728;" x="554.93298" xlink:href="#m98350bb0d1" y="431.534731"/>
     <use style="fill:#d62728;stroke:#d62728;" x="582.166697" xlink:href="#m98350bb0d1" y="431.885592"/>
     <use style="fill:#d62728;stroke:#d62728;" x="609.400413" xlink:href="#m98350bb0d1" y="434.430852"/>
     <use style="fill:#d62728;stroke:#d62728;" x="636.634129" xlink:href="#m98350bb0d1" y="433.600149"/>
     <use style="fill:#d62728;stroke:#d62728;" x="663.867846" xlink:href="#m98350bb0d1" y="432.087044"/>
     <use style="fill:#d62728;stroke:#d62728;" x="691.101562" xlink:href="#m98350bb0d1" y="430.577244"/>
    </g>
   </g>
   <g id="PathCollection_5">
    <defs>
     <path d="M 0 3 
C 0.795609 3 1.55874 2.683901 2.12132 2.12132 
C 2.683901 1.55874 3 0.795609 3 0 
C 3 -0.795609 2.683901 -1.55874 2.12132 -2.12132 
C 1.55874 -2.683901 0.795609 -3 0 -3 
C -0.795609 -3 -1.55874 -2.683901 -2.12132 -2.12132 
C -2.683901 -1.55874 -3 -0.795609 -3 0 
C -3 0.795609 -2.683901 1.55874 -2.12132 2.12132 
C -1.55874 2.683901 -0.795609 3 0 3 
z
" id="maecccc0db6" style="stroke:#9467bd;"/>
    </defs>
    <g clip-path="url(#pc633389191)">
     <use style="fill:#9467bd;stroke:#9467bd;" x="91.959801" xlink:href="#maecccc0db6" y="45.085398"/>
     <use style="fill:#9467bd;stroke:#9467bd;" x="119.193518" xlink:href="#maecccc0db6" y="51.377566"/>
     <use style="fill:#9467bd;stroke:#9467bd;" x="146.427234" xlink:href="#maecccc0db6" y="61.182612"/>
     <use style="fill:#9467bd;stroke:#9467bd;" x="173.66095" xlink:href="#maecccc0db6" y="75.761205"/>
     <use style="fill:#9467bd;stroke:#9467bd;" x="200.894667" xlink:href="#maecccc0db6" y="92.827935"/>
     <use style="fill:#9467bd;stroke:#9467bd;" x="228.128383" xlink:href="#maecccc0db6" y="116.614549"/>
     <use style="fill:#9467bd;stroke:#9467bd;" x="255.3621" xlink:href="#maecccc0db6" y="143.506946"/>
     <use style="fill:#9467bd;stroke:#9467bd;" x="282.595816" xlink:href="#maecccc0db6" y="177.623169"/>
     <use style="fill:#9467bd;stroke:#9467bd;" x="309.829532" xlink:href="#maecccc0db6" y="220.068385"/>
     <use style="fill:#9467bd;stroke:#9467bd;" x="337.063249" xlink:href="#maecccc0db6" y="271.101113"/>
     <use style="fill:#9467bd;stroke:#9467bd;" x="364.296965" xlink:href="#maecccc0db6" y="321.264989"/>
     <use style="fill:#9467bd;stroke:#9467bd;" x="391.530682" xlink:href="#maecccc0db6" y="370.555901"/>
     <use style="fill:#9467bd;stroke:#9467bd;" x="418.764398" xlink:href="#maecccc0db6" y="405.681205"/>
     <use style="fill:#9467bd;stroke:#9467bd;" x="445.998115" xlink:href="#maecccc0db6" y="425.700189"/>
     <use style="fill:#9467bd;stroke:#9467bd;" x="473.231831" xlink:href="#maecccc0db6" y="433.232203"/>
     <use style="fill:#9467bd;stroke:#9467bd;" x="500.465547" xlink:href="#maecccc0db6" y="433.249187"/>
     <use style="fill:#9467bd;stroke:#9467bd;" x="527.699264" xlink:href="#maecccc0db6" y="433.854904"/>
     <use style="fill:#9467bd;stroke:#9467bd;" x="554.93298" xlink:href="#maecccc0db6" y="433.5312"/>
     <use style="fill:#9467bd;stroke:#9467bd;" x="582.166697" xlink:href="#maecccc0db6" y="434.239014"/>
     <use style="fill:#9467bd;stroke:#9467bd;" x="609.400413" xlink:href="#maecccc0db6" y="433.297948"/>
     <use style="fill:#9467bd;stroke:#9467bd;" x="636.634129" xlink:href="#maecccc0db6" y="433.342325"/>
     <use style="fill:#9467bd;stroke:#9467bd;" x="663.867846" xlink:href="#maecccc0db6" y="434.430852"/>
     <use style="fill:#9467bd;stroke:#9467bd;" x="691.101562" xlink:href="#maecccc0db6" y="433.06125"/>
    </g>
   </g>
   <g id="PathCollection_6">
    <defs>
     <path d="M 0 3 
C 0.795609 3 1.55874 2.683901 2.12132 2.12132 
C 2.683901 1.55874 3 0.795609 3 0 
C 3 -0.795609 2.683901 -1.55874 2.12132 -2.12132 
C 1.55874 -2.683901 0.795609 -3 0 -3 
C -0.795609 -3 -1.55874 -2.683901 -2.12132 -2.12132 
C -2.683901 -1.55874 -3 -0.795609 -3 0 
C -3 0.795609 -2.683901 1.55874 -2.12132 2.12132 
C -1.55874 2.683901 -0.795609 3 0 3 
z
" id="m35fc1d4f8a" style="stroke:#8c564b;"/>
    </defs>
    <g clip-path="url(#pc633389191)">
     <use style="fill:#8c564b;stroke:#8c564b;" x="91.959801" xlink:href="#m35fc1d4f8a" y="45.085398"/>
     <use style="fill:#8c564b;stroke:#8c564b;" x="119.193518" xlink:href="#m35fc1d4f8a" y="56.042165"/>
     <use style="fill:#8c564b;stroke:#8c564b;" x="146.427234" xlink:href="#m35fc1d4f8a" y="71.672605"/>
     <use style="fill:#8c564b;stroke:#8c564b;" x="173.66095" xlink:href="#m35fc1d4f8a" y="93.420873"/>
     <use style="fill:#8c564b;stroke:#8c564b;" x="200.894667" xlink:href="#m35fc1d4f8a" y="118.953252"/>
     <use style="fill:#8c564b;stroke:#8c564b;" x="228.128383" xlink:href="#m35fc1d4f8a" y="152.025528"/>
     <use style="fill:#8c564b;stroke:#8c564b;" x="255.3621" xlink:href="#m35fc1d4f8a" y="192.423117"/>
     <use style="fill:#8c564b;stroke:#8c564b;" x="282.595816" xlink:href="#m35fc1d4f8a" y="238.371891"/>
     <use style="fill:#8c564b;stroke:#8c564b;" x="309.829532" xlink:href="#m35fc1d4f8a" y="289.445889"/>
     <use style="fill:#8c564b;stroke:#8c564b;" x="337.063249" xlink:href="#m35fc1d4f8a" y="338.787259"/>
     <use style="fill:#8c564b;stroke:#8c564b;" x="364.296965" xlink:href="#m35fc1d4f8a" y="383.171671"/>
     <use style="fill:#8c564b;stroke:#8c564b;" x="391.530682" xlink:href="#m35fc1d4f8a" y="411.353358"/>
     <use style="fill:#8c564b;stroke:#8c564b;" x="418.764398" xlink:href="#m35fc1d4f8a" y="426.810461"/>
     <use style="fill:#8c564b;stroke:#8c564b;" x="445.998115" xlink:href="#m35fc1d4f8a" y="433.354336"/>
     <use style="fill:#8c564b;stroke:#8c564b;" x="473.231831" xlink:href="#m35fc1d4f8a" y="432.411054"/>
     <use style="fill:#8c564b;stroke:#8c564b;" x="500.465547" xlink:href="#m35fc1d4f8a" y="433.495264"/>
     <use style="fill:#8c564b;stroke:#8c564b;" x="527.699264" xlink:href="#m35fc1d4f8a" y="431.967275"/>
     <use style="fill:#8c564b;stroke:#8c564b;" x="554.93298" xlink:href="#m35fc1d4f8a" y="430.777627"/>
     <use style="fill:#8c564b;stroke:#8c564b;" x="582.166697" xlink:href="#m35fc1d4f8a" y="434.430852"/>
     <use style="fill:#8c564b;stroke:#8c564b;" x="609.400413" xlink:href="#m35fc1d4f8a" y="433.348951"/>
     <use style="fill:#8c564b;stroke:#8c564b;" x="636.634129" xlink:href="#m35fc1d4f8a" y="432.060935"/>
     <use style="fill:#8c564b;stroke:#8c564b;" x="663.867846" xlink:href="#m35fc1d4f8a" y="432.785089"/>
     <use style="fill:#8c564b;stroke:#8c564b;" x="691.101562" xlink:href="#m35fc1d4f8a" y="433.778685"/>
    </g>
   </g>
   <g id="PathCollection_7">
    <defs>
     <path d="M 0 3 
C 0.795609 3 1.55874 2.683901 2.12132 2.12132 
C 2.683901 1.55874 3 0.795609 3 0 
C 3 -0.795609 2.683901 -1.55874 2.12132 -2.12132 
C 1.55874 -2.683901 0.795609 -3 0 -3 
C -0.795609 -3 -1.55874 -2.683901 -2.12132 -2.12132 
C -2.683901 -1.55874 -3 -0.795609 -3 0 
C -3 0.795609 -2.683901 1.55874 -2.12132 2.12132 
C -1.55874 2.683901 -0.795609 3 0 3 
z
" id="mf879ed3805" style="stroke:#e377c2;"/>
    </defs>
    <g clip-path="url(#pc633389191)">
     <use style="fill:#e377c2;stroke:#e377c2;" x="91.959801" xlink:href="#mf879ed3805" y="45.085398"/>
     <use style="fill:#e377c2;stroke:#e377c2;" x="119.193518" xlink:href="#mf879ed3805" y="62.43304"/>
     <use style="fill:#e377c2;stroke:#e377c2;" x="146.427234" xlink:href="#mf879ed3805" y="88.57092"/>
     <use style="fill:#e377c2;stroke:#e377c2;" x="173.66095" xlink:href="#mf879ed3805" y="121.310452"/>
     <use style="fill:#e377c2;stroke:#e377c2;" x="200.894667" xlink:href="#mf879ed3805" y="162.725096"/>
     <use style="fill:#e377c2;stroke:#e377c2;" x="228.128383" xlink:href="#mf879ed3805" y="209.894743"/>
     <use style="fill:#e377c2;stroke:#e377c2;" x="255.3621" xlink:href="#mf879ed3805" y="262.745309"/>
     <use style="fill:#e377c2;stroke:#e377c2;" x="282.595816" xlink:href="#mf879ed3805" y="314.197335"/>
     <use style="fill:#e377c2;stroke:#e377c2;" x="309.829532" xlink:href="#mf879ed3805" y="361.219757"/>
     <use style="fill:#e377c2;stroke:#e377c2;" x="337.063249" xlink:href="#mf879ed3805" y="397.267518"/>
     <use style="fill:#e377c2;stroke:#e377c2;" x="364.296965" xlink:href="#mf879ed3805" y="417.881952"/>
     <use style="fill:#e377c2;stroke:#e377c2;" x="391.530682" xlink:href="#mf879ed3805" y="426.10375"/>
     <use style="fill:#e377c2;stroke:#e377c2;" x="418.764398" xlink:href="#mf879ed3805" y="432.896563"/>
     <use style="fill:#e377c2;stroke:#e377c2;" x="445.998115" xlink:href="#mf879ed3805" y="434.430852"/>
     <use style="fill:#e377c2;stroke:#e377c2;" x="473.231831" xlink:href="#mf879ed3805" y="431.236075"/>
     <use style="fill:#e377c2;stroke:#e377c2;" x="500.465547" xlink:href="#mf879ed3805" y="431.872572"/>
     <use style="fill:#e377c2;stroke:#e377c2;" x="527.699264" xlink:href="#mf879ed3805" y="432.562836"/>
     <use style="fill:#e377c2;stroke:#e377c2;" x="554.93298" xlink:href="#mf879ed3805" y="430.513363"/>
     <use style="fill:#e377c2;stroke:#e377c2;" x="582.166697" xlink:href="#mf879ed3805" y="429.850187"/>
     <use style="fill:#e377c2;stroke:#e377c2;" x="609.400413" xlink:href="#mf879ed3805" y="432.973419"/>
     <use style="fill:#e377c2;stroke:#e377c2;" x="636.634129" xlink:href="#mf879ed3805" y="432.288024"/>
     <use style="fill:#e377c2;stroke:#e377c2;" x="663.867846" xlink:href="#mf879ed3805" y="433.104883"/>
     <use style="fill:#e377c2;stroke:#e377c2;" x="691.101562" xlink:href="#mf879ed3805" y="431.002419"/>
    </g>
   </g>
   <g id="PathCollection_8">
    <defs>
     <path d="M 0 3 
C 0.795609 3 1.55874 2.683901 2.12132 2.12132 
C 2.683901 1.55874 3 0.795609 3 0 
C 3 -0.795609 2.683901 -1.55874 2.12132 -2.12132 
C 1.55874 -2.683901 0.795609 -3 0 -3 
C -0.795609 -3 -1.55874 -2.683901 -2.12132 -2.12132 
C -2.683901 -1.55874 -3 -0.795609 -3 0 
C -3 0.795609 -2.683901 1.55874 -2.12132 2.12132 
C -1.55874 2.683901 -0.795609 3 0 3 
z
" id="mf38b5bb668" style="stroke:#7f7f7f;"/>
    </defs>
    <g clip-path="url(#pc633389191)">
     <use style="fill:#7f7f7f;stroke:#7f7f7f;" x="91.959801" xlink:href="#mf38b5bb668" y="45.085398"/>
     <use style="fill:#7f7f7f;stroke:#7f7f7f;" x="119.193518" xlink:href="#mf38b5bb668" y="80.670867"/>
     <use style="fill:#7f7f7f;stroke:#7f7f7f;" x="146.427234" xlink:href="#mf38b5bb668" y="126.17337"/>
     <use style="fill:#7f7f7f;stroke:#7f7f7f;" x="173.66095" xlink:href="#mf38b5bb668" y="177.207697"/>
     <use style="fill:#7f7f7f;stroke:#7f7f7f;" x="200.894667" xlink:href="#mf38b5bb668" y="236.063532"/>
     <use style="fill:#7f7f7f;stroke:#7f7f7f;" x="228.128383" xlink:href="#mf38b5bb668" y="294.513929"/>
     <use style="fill:#7f7f7f;stroke:#7f7f7f;" x="255.3621" xlink:href="#mf38b5bb668" y="347.677535"/>
     <use style="fill:#7f7f7f;stroke:#7f7f7f;" x="282.595816" xlink:href="#mf38b5bb668" y="388.473716"/>
     <use style="fill:#7f7f7f;stroke:#7f7f7f;" x="309.829532" xlink:href="#mf38b5bb668" y="412.026092"/>
     <use style="fill:#7f7f7f;stroke:#7f7f7f;" x="337.063249" xlink:href="#mf38b5bb668" y="428.322598"/>
     <use style="fill:#7f7f7f;stroke:#7f7f7f;" x="364.296965" xlink:href="#mf38b5bb668" y="430.615658"/>
     <use style="fill:#7f7f7f;stroke:#7f7f7f;" x="391.530682" xlink:href="#mf38b5bb668" y="433.178323"/>
     <use style="fill:#7f7f7f;stroke:#7f7f7f;" x="418.764398" xlink:href="#mf38b5bb668" y="430.014883"/>
     <use style="fill:#7f7f7f;stroke:#7f7f7f;" x="445.998115" xlink:href="#mf38b5bb668" y="431.842859"/>
     <use style="fill:#7f7f7f;stroke:#7f7f7f;" x="473.231831" xlink:href="#mf38b5bb668" y="434.430852"/>
     <use style="fill:#7f7f7f;stroke:#7f7f7f;" x="500.465547" xlink:href="#mf38b5bb668" y="432.942438"/>
     <use style="fill:#7f7f7f;stroke:#7f7f7f;" x="527.699264" xlink:href="#mf38b5bb668" y="430.432943"/>
     <use style="fill:#7f7f7f;stroke:#7f7f7f;" x="554.93298" xlink:href="#mf38b5bb668" y="432.17753"/>
     <use style="fill:#7f7f7f;stroke:#7f7f7f;" x="582.166697" xlink:href="#mf38b5bb668" y="430.8568"/>
     <use style="fill:#7f7f7f;stroke:#7f7f7f;" x="609.400413" xlink:href="#mf38b5bb668" y="433.043761"/>
     <use style="fill:#7f7f7f;stroke:#7f7f7f;" x="636.634129" xlink:href="#mf38b5bb668" y="432.907588"/>
     <use style="fill:#7f7f7f;stroke:#7f7f7f;" x="663.867846" xlink:href="#mf38b5bb668" y="432.341065"/>
     <use style="fill:#7f7f7f;stroke:#7f7f7f;" x="691.101562" xlink:href="#mf38b5bb668" y="432.972568"/>
    </g>
   </g>
   <g id="PathCollection_9">
    <defs>
     <path d="M 0 3 
C 0.795609 3 1.55874 2.683901 2.12132 2.12132 
C 2.683901 1.55874 3 0.795609 3 0 
C 3 -0.795609 2.683901 -1.55874 2.12132 -2.12132 
C 1.55874 -2.683901 0.795609 -3 0 -3 
C -0.795609 -3 -1.55874 -2.683901 -2.12132 -2.12132 
C -2.683901 -1.55874 -3 -0.795609 -3 0 
C -3 0.795609 -2.683901 1.55874 -2.12132 2.12132 
C -1.55874 2.683901 -0.795609 3 0 3 
z
" id="md9d9187d79" style="stroke:#bcbd22;"/>
    </defs>
    <g clip-path="url(#pc633389191)">
     <use style="fill:#bcbd22;stroke:#bcbd22;" x="91.959801" xlink:href="#md9d9187d79" y="45.085398"/>
     <use style="fill:#bcbd22;stroke:#bcbd22;" x="119.193518" xlink:href="#md9d9187d79" y="115.358109"/>
     <use style="fill:#bcbd22;stroke:#bcbd22;" x="146.427234" xlink:href="#md9d9187d79" y="183.596973"/>
     <use style="fill:#bcbd22;stroke:#bcbd22;" x="173.66095" xlink:href="#md9d9187d79" y="258.16463"/>
     <use style="fill:#bcbd22;stroke:#bcbd22;" x="200.894667" xlink:href="#md9d9187d79" y="322.911255"/>
     <use style="fill:#bcbd22;stroke:#bcbd22;" x="228.128383" xlink:href="#md9d9187d79" y="375.576501"/>
     <use style="fill:#bcbd22;stroke:#bcbd22;" x="255.3621" xlink:href="#md9d9187d79" y="404.245303"/>
     <use style="fill:#bcbd22;stroke:#bcbd22;" x="282.595816" xlink:href="#md9d9187d79" y="420.289067"/>
     <use style="fill:#bcbd22;stroke:#bcbd22;" x="309.829532" xlink:href="#md9d9187d79" y="428.432915"/>
     <use style="fill:#bcbd22;stroke:#bcbd22;" x="337.063249" xlink:href="#md9d9187d79" y="427.192518"/>
     <use style="fill:#bcbd22;stroke:#bcbd22;" x="364.296965" xlink:href="#md9d9187d79" y="432.352512"/>
     <use style="fill:#bcbd22;stroke:#bcbd22;" x="391.530682" xlink:href="#md9d9187d79" y="434.430852"/>
     <use style="fill:#bcbd22;stroke:#bcbd22;" x="418.764398" xlink:href="#md9d9187d79" y="430.301158"/>
     <use style="fill:#bcbd22;stroke:#bcbd22;" x="445.998115" xlink:href="#md9d9187d79" y="430.076436"/>
     <use style="fill:#bcbd22;stroke:#bcbd22;" x="473.231831" xlink:href="#md9d9187d79" y="431.578108"/>
     <use style="fill:#bcbd22;stroke:#bcbd22;" x="500.465547" xlink:href="#md9d9187d79" y="431.794654"/>
     <use style="fill:#bcbd22;stroke:#bcbd22;" x="527.699264" xlink:href="#md9d9187d79" y="430.536197"/>
     <use style="fill:#bcbd22;stroke:#bcbd22;" x="554.93298" xlink:href="#md9d9187d79" y="430.765213"/>
     <use style="fill:#bcbd22;stroke:#bcbd22;" x="582.166697" xlink:href="#md9d9187d79" y="432.19247"/>
     <use style="fill:#bcbd22;stroke:#bcbd22;" x="609.400413" xlink:href="#md9d9187d79" y="432.729615"/>
     <use style="fill:#bcbd22;stroke:#bcbd22;" x="636.634129" xlink:href="#md9d9187d79" y="430.516899"/>
     <use style="fill:#bcbd22;stroke:#bcbd22;" x="663.867846" xlink:href="#md9d9187d79" y="431.948497"/>
     <use style="fill:#bcbd22;stroke:#bcbd22;" x="691.101562" xlink:href="#md9d9187d79" y="428.867664"/>
    </g>
   </g>
   <g id="matplotlib.axis_1">
    <g id="xtick_1">
     <g id="line2d_1">
      <defs>
       <path d="M 0 0 
L 0 3.5 
" id="mf7bb6918e9" style="stroke:#000000;stroke-width:0.8;"/>
      </defs>
      <g>
       <use style="stroke:#000000;stroke-width:0.8;" x="214.192691" xlink:href="#mf7bb6918e9" y="457.198125"/>
      </g>
     </g>
     <g id="text_1">
      <!-- $\mathdefault{10^{-4}}$ -->
      <defs>
       <path d="M 12.40625 8.296875 
L 28.515625 8.296875 
L 28.515625 63.921875 
L 10.984375 60.40625 
L 10.984375 69.390625 
L 28.421875 72.90625 
L 38.28125 72.90625 
L 38.28125 8.296875 
L 54.390625 8.296875 
L 54.390625 0 
L 12.40625 0 
z
" id="DejaVuSans-31"/>
       <path d="M 31.78125 66.40625 
Q 24.171875 66.40625 20.328125 58.90625 
Q 16.5 51.421875 16.5 36.375 
Q 16.5 21.390625 20.328125 13.890625 
Q 24.171875 6.390625 31.78125 6.390625 
Q 39.453125 6.390625 43.28125 13.890625 
Q 47.125 21.390625 47.125 36.375 
Q 47.125 51.421875 43.28125 58.90625 
Q 39.453125 66.40625 31.78125 66.40625 
z
M 31.78125 74.21875 
Q 44.046875 74.21875 50.515625 64.515625 
Q 56.984375 54.828125 56.984375 36.375 
Q 56.984375 17.96875 50.515625 8.265625 
Q 44.046875 -1.421875 31.78125 -1.421875 
Q 19.53125 -1.421875 13.0625 8.265625 
Q 6.59375 17.96875 6.59375 36.375 
Q 6.59375 54.828125 13.0625 64.515625 
Q 19.53125 74.21875 31.78125 74.21875 
z
" id="DejaVuSans-30"/>
       <path d="M 10.59375 35.5 
L 73.1875 35.5 
L 73.1875 27.203125 
L 10.59375 27.203125 
z
" id="DejaVuSans-2212"/>
       <path d="M 37.796875 64.3125 
L 12.890625 25.390625 
L 37.796875 25.390625 
z
M 35.203125 72.90625 
L 47.609375 72.90625 
L 47.609375 25.390625 
L 58.015625 25.390625 
L 58.015625 17.1875 
L 47.609375 17.1875 
L 47.609375 0 
L 37.796875 0 
L 37.796875 17.1875 
L 4.890625 17.1875 
L 4.890625 26.703125 
z
" id="DejaVuSans-34"/>
      </defs>
      <g transform="translate(202.442691 471.796562)scale(0.1 -0.1)">
       <use transform="translate(0 0.684375)" xlink:href="#DejaVuSans-31"/>
       <use transform="translate(63.623047 0.684375)" xlink:href="#DejaVuSans-30"/>
       <use transform="translate(128.203125 38.965625)scale(0.7)" xlink:href="#DejaVuSans-2212"/>
       <use transform="translate(186.855469 38.965625)scale(0.7)" xlink:href="#DejaVuSans-34"/>
      </g>
     </g>
    </g>
    <g id="xtick_2">
     <g id="line2d_2">
      <g>
       <use style="stroke:#000000;stroke-width:0.8;" x="390.893014" xlink:href="#mf7bb6918e9" y="457.198125"/>
      </g>
     </g>
     <g id="text_2">
      <!-- $\mathdefault{10^{-3}}$ -->
      <defs>
       <path d="M 40.578125 39.3125 
Q 47.65625 37.796875 51.625 33 
Q 55.609375 28.21875 55.609375 21.1875 
Q 55.609375 10.40625 48.1875 4.484375 
Q 40.765625 -1.421875 27.09375 -1.421875 
Q 22.515625 -1.421875 17.65625 -0.515625 
Q 12.796875 0.390625 7.625 2.203125 
L 7.625 11.71875 
Q 11.71875 9.328125 16.59375 8.109375 
Q 21.484375 6.890625 26.8125 6.890625 
Q 36.078125 6.890625 40.9375 10.546875 
Q 45.796875 14.203125 45.796875 21.1875 
Q 45.796875 27.640625 41.28125 31.265625 
Q 36.765625 34.90625 28.71875 34.90625 
L 20.21875 34.90625 
L 20.21875 43.015625 
L 29.109375 43.015625 
Q 36.375 43.015625 40.234375 45.921875 
Q 44.09375 48.828125 44.09375 54.296875 
Q 44.09375 59.90625 40.109375 62.90625 
Q 36.140625 65.921875 28.71875 65.921875 
Q 24.65625 65.921875 20.015625 65.03125 
Q 15.375 64.15625 9.8125 62.3125 
L 9.8125 71.09375 
Q 15.4375 72.65625 20.34375 73.4375 
Q 25.25 74.21875 29.59375 74.21875 
Q 40.828125 74.21875 47.359375 69.109375 
Q 53.90625 64.015625 53.90625 55.328125 
Q 53.90625 49.265625 50.4375 45.09375 
Q 46.96875 40.921875 40.578125 39.3125 
z
" id="DejaVuSans-33"/>
      </defs>
      <g transform="translate(379.143014 471.796562)scale(0.1 -0.1)">
       <use transform="translate(0 0.765625)" xlink:href="#DejaVuSans-31"/>
       <use transform="translate(63.623047 0.765625)" xlink:href="#DejaVuSans-30"/>
       <use transform="translate(128.203125 39.046875)scale(0.7)" xlink:href="#DejaVuSans-2212"/>
       <use transform="translate(186.855469 39.046875)scale(0.7)" xlink:href="#DejaVuSans-33"/>
      </g>
     </g>
    </g>
    <g id="xtick_3">
     <g id="line2d_3">
      <g>
       <use style="stroke:#000000;stroke-width:0.8;" x="567.593337" xlink:href="#mf7bb6918e9" y="457.198125"/>
      </g>
     </g>
     <g id="text_3">
      <!-- $\mathdefault{10^{-2}}$ -->
      <defs>
       <path d="M 19.1875 8.296875 
L 53.609375 8.296875 
L 53.609375 0 
L 7.328125 0 
L 7.328125 8.296875 
Q 12.9375 14.109375 22.625 23.890625 
Q 32.328125 33.6875 34.8125 36.53125 
Q 39.546875 41.84375 41.421875 45.53125 
Q 43.3125 49.21875 43.3125 52.78125 
Q 43.3125 58.59375 39.234375 62.25 
Q 35.15625 65.921875 28.609375 65.921875 
Q 23.96875 65.921875 18.8125 64.3125 
Q 13.671875 62.703125 7.8125 59.421875 
L 7.8125 69.390625 
Q 13.765625 71.78125 18.9375 73 
Q 24.125 74.21875 28.421875 74.21875 
Q 39.75 74.21875 46.484375 68.546875 
Q 53.21875 62.890625 53.21875 53.421875 
Q 53.21875 48.921875 51.53125 44.890625 
Q 49.859375 40.875 45.40625 35.40625 
Q 44.1875 33.984375 37.640625 27.21875 
Q 31.109375 20.453125 19.1875 8.296875 
z
" id="DejaVuSans-32"/>
      </defs>
      <g transform="translate(555.843337 471.796562)scale(0.1 -0.1)">
       <use transform="translate(0 0.765625)" xlink:href="#DejaVuSans-31"/>
       <use transform="translate(63.623047 0.765625)" xlink:href="#DejaVuSans-30"/>
       <use transform="translate(128.203125 39.046875)scale(0.7)" xlink:href="#DejaVuSans-2212"/>
       <use transform="translate(186.855469 39.046875)scale(0.7)" xlink:href="#DejaVuSans-32"/>
      </g>
     </g>
    </g>
    <g id="xtick_4">
     <g id="line2d_4">
      <defs>
       <path d="M 0 0 
L 0 2 
" id="ma7acbbd791" style="stroke:#000000;stroke-width:0.6;"/>
      </defs>
      <g>
       <use style="stroke:#000000;stroke-width:0.6;" x="90.684466" xlink:href="#ma7acbbd791" y="457.198125"/>
      </g>
     </g>
    </g>
    <g id="xtick_5">
     <g id="line2d_5">
      <g>
       <use style="stroke:#000000;stroke-width:0.6;" x="121.799848" xlink:href="#ma7acbbd791" y="457.198125"/>
      </g>
     </g>
    </g>
    <g id="xtick_6">
     <g id="line2d_6">
      <g>
       <use style="stroke:#000000;stroke-width:0.6;" x="143.876563" xlink:href="#ma7acbbd791" y="457.198125"/>
      </g>
     </g>
    </g>
    <g id="xtick_7">
     <g id="line2d_7">
      <g>
       <use style="stroke:#000000;stroke-width:0.6;" x="161.000594" xlink:href="#ma7acbbd791" y="457.198125"/>
      </g>
     </g>
    </g>
    <g id="xtick_8">
     <g id="line2d_8">
      <g>
       <use style="stroke:#000000;stroke-width:0.6;" x="174.991945" xlink:href="#ma7acbbd791" y="457.198125"/>
      </g>
     </g>
    </g>
    <g id="xtick_9">
     <g id="line2d_9">
      <g>
       <use style="stroke:#000000;stroke-width:0.6;" x="186.821465" xlink:href="#ma7acbbd791" y="457.198125"/>
      </g>
     </g>
    </g>
    <g id="xtick_10">
     <g id="line2d_10">
      <g>
       <use style="stroke:#000000;stroke-width:0.6;" x="197.068661" xlink:href="#ma7acbbd791" y="457.198125"/>
      </g>
     </g>
    </g>
    <g id="xtick_11">
     <g id="line2d_11">
      <g>
       <use style="stroke:#000000;stroke-width:0.6;" x="206.107328" xlink:href="#ma7acbbd791" y="457.198125"/>
      </g>
     </g>
    </g>
    <g id="xtick_12">
     <g id="line2d_12">
      <g>
       <use style="stroke:#000000;stroke-width:0.6;" x="267.384789" xlink:href="#ma7acbbd791" y="457.198125"/>
      </g>
     </g>
    </g>
    <g id="xtick_13">
     <g id="line2d_13">
      <g>
       <use style="stroke:#000000;stroke-width:0.6;" x="298.500171" xlink:href="#ma7acbbd791" y="457.198125"/>
      </g>
     </g>
    </g>
    <g id="xtick_14">
     <g id="line2d_14">
      <g>
       <use style="stroke:#000000;stroke-width:0.6;" x="320.576886" xlink:href="#ma7acbbd791" y="457.198125"/>
      </g>
     </g>
    </g>
    <g id="xtick_15">
     <g id="line2d_15">
      <g>
       <use style="stroke:#000000;stroke-width:0.6;" x="337.700917" xlink:href="#ma7acbbd791" y="457.198125"/>
      </g>
     </g>
    </g>
    <g id="xtick_16">
     <g id="line2d_16">
      <g>
       <use style="stroke:#000000;stroke-width:0.6;" x="351.692268" xlink:href="#ma7acbbd791" y="457.198125"/>
      </g>
     </g>
    </g>
    <g id="xtick_17">
     <g id="line2d_17">
      <g>
       <use style="stroke:#000000;stroke-width:0.6;" x="363.521788" xlink:href="#ma7acbbd791" y="457.198125"/>
      </g>
     </g>
    </g>
    <g id="xtick_18">
     <g id="line2d_18">
      <g>
       <use style="stroke:#000000;stroke-width:0.6;" x="373.768983" xlink:href="#ma7acbbd791" y="457.198125"/>
      </g>
     </g>
    </g>
    <g id="xtick_19">
     <g id="line2d_19">
      <g>
       <use style="stroke:#000000;stroke-width:0.6;" x="382.807651" xlink:href="#ma7acbbd791" y="457.198125"/>
      </g>
     </g>
    </g>
    <g id="xtick_20">
     <g id="line2d_20">
      <g>
       <use style="stroke:#000000;stroke-width:0.6;" x="444.085111" xlink:href="#ma7acbbd791" y="457.198125"/>
      </g>
     </g>
    </g>
    <g id="xtick_21">
     <g id="line2d_21">
      <g>
       <use style="stroke:#000000;stroke-width:0.6;" x="475.200494" xlink:href="#ma7acbbd791" y="457.198125"/>
      </g>
     </g>
    </g>
    <g id="xtick_22">
     <g id="line2d_22">
      <g>
       <use style="stroke:#000000;stroke-width:0.6;" x="497.277209" xlink:href="#ma7acbbd791" y="457.198125"/>
      </g>
     </g>
    </g>
    <g id="xtick_23">
     <g id="line2d_23">
      <g>
       <use style="stroke:#000000;stroke-width:0.6;" x="514.401239" xlink:href="#ma7acbbd791" y="457.198125"/>
      </g>
     </g>
    </g>
    <g id="xtick_24">
     <g id="line2d_24">
      <g>
       <use style="stroke:#000000;stroke-width:0.6;" x="528.392591" xlink:href="#ma7acbbd791" y="457.198125"/>
      </g>
     </g>
    </g>
    <g id="xtick_25">
     <g id="line2d_25">
      <g>
       <use style="stroke:#000000;stroke-width:0.6;" x="540.222111" xlink:href="#ma7acbbd791" y="457.198125"/>
      </g>
     </g>
    </g>
    <g id="xtick_26">
     <g id="line2d_26">
      <g>
       <use style="stroke:#000000;stroke-width:0.6;" x="550.469306" xlink:href="#ma7acbbd791" y="457.198125"/>
      </g>
     </g>
    </g>
    <g id="xtick_27">
     <g id="line2d_27">
      <g>
       <use style="stroke:#000000;stroke-width:0.6;" x="559.507974" xlink:href="#ma7acbbd791" y="457.198125"/>
      </g>
     </g>
    </g>
    <g id="xtick_28">
     <g id="line2d_28">
      <g>
       <use style="stroke:#000000;stroke-width:0.6;" x="620.785434" xlink:href="#ma7acbbd791" y="457.198125"/>
      </g>
     </g>
    </g>
    <g id="xtick_29">
     <g id="line2d_29">
      <g>
       <use style="stroke:#000000;stroke-width:0.6;" x="651.900817" xlink:href="#ma7acbbd791" y="457.198125"/>
      </g>
     </g>
    </g>
    <g id="xtick_30">
     <g id="line2d_30">
      <g>
       <use style="stroke:#000000;stroke-width:0.6;" x="673.977532" xlink:href="#ma7acbbd791" y="457.198125"/>
      </g>
     </g>
    </g>
    <g id="xtick_31">
     <g id="line2d_31">
      <g>
       <use style="stroke:#000000;stroke-width:0.6;" x="691.101562" xlink:href="#ma7acbbd791" y="457.198125"/>
      </g>
     </g>
    </g>
    <g id="xtick_32">
     <g id="line2d_32">
      <g>
       <use style="stroke:#000000;stroke-width:0.6;" x="705.092914" xlink:href="#ma7acbbd791" y="457.198125"/>
      </g>
     </g>
    </g>
    <g id="xtick_33">
     <g id="line2d_33">
      <g>
       <use style="stroke:#000000;stroke-width:0.6;" x="716.922433" xlink:href="#ma7acbbd791" y="457.198125"/>
      </g>
     </g>
    </g>
    <g id="xtick_34">
     <g id="line2d_34">
      <g>
       <use style="stroke:#000000;stroke-width:0.6;" x="727.169629" xlink:href="#ma7acbbd791" y="457.198125"/>
      </g>
     </g>
    </g>
    <g id="text_4">
     <!-- $t_p$ [s] -->
     <defs>
      <path d="M 42.28125 54.6875 
L 40.921875 47.703125 
L 23 47.703125 
L 17.1875 18.015625 
Q 16.890625 16.359375 16.75 15.234375 
Q 16.609375 14.109375 16.609375 13.484375 
Q 16.609375 10.359375 18.484375 8.9375 
Q 20.359375 7.515625 24.515625 7.515625 
L 33.59375 7.515625 
L 32.078125 0 
L 23.484375 0 
Q 15.484375 0 11.546875 3.125 
Q 7.625 6.25 7.625 12.59375 
Q 7.625 13.71875 7.765625 15.0625 
Q 7.90625 16.40625 8.203125 18.015625 
L 14.015625 47.703125 
L 6.390625 47.703125 
L 7.8125 54.6875 
L 15.28125 54.6875 
L 18.3125 70.21875 
L 27.296875 70.21875 
L 24.3125 54.6875 
z
" id="DejaVuSans-Oblique-74"/>
      <path d="M 49.609375 33.6875 
Q 49.609375 40.875 46.484375 44.671875 
Q 43.359375 48.484375 37.5 48.484375 
Q 33.5 48.484375 29.859375 46.4375 
Q 26.21875 44.390625 23.390625 40.484375 
Q 20.609375 36.625 18.9375 31.15625 
Q 17.28125 25.6875 17.28125 20.3125 
Q 17.28125 13.484375 20.40625 9.796875 
Q 23.53125 6.109375 29.296875 6.109375 
Q 33.546875 6.109375 37.1875 8.109375 
Q 40.828125 10.109375 43.40625 13.921875 
Q 46.1875 17.921875 47.890625 23.34375 
Q 49.609375 28.765625 49.609375 33.6875 
z
M 21.78125 46.390625 
Q 25.390625 51.125 30.296875 53.5625 
Q 35.203125 56 41.21875 56 
Q 49.609375 56 54.25 50.5 
Q 58.890625 45.015625 58.890625 35.109375 
Q 58.890625 27 56 19.65625 
Q 53.125 12.3125 47.703125 6.5 
Q 44.09375 2.640625 39.546875 0.609375 
Q 35.015625 -1.421875 29.984375 -1.421875 
Q 24.171875 -1.421875 20.21875 1 
Q 16.265625 3.421875 14.3125 8.203125 
L 8.6875 -20.796875 
L -0.296875 -20.796875 
L 14.40625 54.6875 
L 23.390625 54.6875 
z
" id="DejaVuSans-Oblique-70"/>
      <path id="DejaVuSans-20"/>
      <path d="M 8.59375 75.984375 
L 29.296875 75.984375 
L 29.296875 69 
L 17.578125 69 
L 17.578125 -6.203125 
L 29.296875 -6.203125 
L 29.296875 -13.1875 
L 8.59375 -13.1875 
z
" id="DejaVuSans-5b"/>
      <path d="M 44.28125 53.078125 
L 44.28125 44.578125 
Q 40.484375 46.53125 36.375 47.5 
Q 32.28125 48.484375 27.875 48.484375 
Q 21.1875 48.484375 17.84375 46.4375 
Q 14.5 44.390625 14.5 40.28125 
Q 14.5 37.15625 16.890625 35.375 
Q 19.28125 33.59375 26.515625 31.984375 
L 29.59375 31.296875 
Q 39.15625 29.25 43.1875 25.515625 
Q 47.21875 21.78125 47.21875 15.09375 
Q 47.21875 7.46875 41.1875 3.015625 
Q 35.15625 -1.421875 24.609375 -1.421875 
Q 20.21875 -1.421875 15.453125 -0.5625 
Q 10.6875 0.296875 5.421875 2 
L 5.421875 11.28125 
Q 10.40625 8.6875 15.234375 7.390625 
Q 20.0625 6.109375 24.8125 6.109375 
Q 31.15625 6.109375 34.5625 8.28125 
Q 37.984375 10.453125 37.984375 14.40625 
Q 37.984375 18.0625 35.515625 20.015625 
Q 33.0625 21.96875 24.703125 23.78125 
L 21.578125 24.515625 
Q 13.234375 26.265625 9.515625 29.90625 
Q 5.8125 33.546875 5.8125 39.890625 
Q 5.8125 47.609375 11.28125 51.796875 
Q 16.75 56 26.8125 56 
Q 31.78125 56 36.171875 55.265625 
Q 40.578125 54.546875 44.28125 53.078125 
z
" id="DejaVuSans-73"/>
      <path d="M 30.421875 75.984375 
L 30.421875 -13.1875 
L 9.71875 -13.1875 
L 9.71875 -6.203125 
L 21.390625 -6.203125 
L 21.390625 69 
L 9.71875 69 
L 9.71875 75.984375 
z
" id="DejaVuSans-5d"/>
     </defs>
     <g transform="translate(380.873438 485.47625)scale(0.1 -0.1)">
      <use transform="translate(0 0.015625)" xlink:href="#DejaVuSans-Oblique-74"/>
      <use transform="translate(39.208984 -16.390625)scale(0.7)" xlink:href="#DejaVuSans-Oblique-70"/>
      <use transform="translate(86.376953 0.015625)" xlink:href="#DejaVuSans-20"/>
      <use transform="translate(118.164062 0.015625)" xlink:href="#DejaVuSans-5b"/>
      <use transform="translate(157.177734 0.015625)" xlink:href="#DejaVuSans-73"/>
      <use transform="translate(209.277344 0.015625)" xlink:href="#DejaVuSans-5d"/>
     </g>
    </g>
   </g>
   <g id="matplotlib.axis_2">
    <g id="ytick_1">
     <g id="line2d_35">
      <defs>
       <path d="M 0 0 
L -3.5 0 
" id="ma06c331fb1" style="stroke:#000000;stroke-width:0.8;"/>
      </defs>
      <g>
       <use style="stroke:#000000;stroke-width:0.8;" x="58.523438" xlink:href="#ma06c331fb1" y="434.430852"/>
      </g>
     </g>
     <g id="text_5">
      <!-- −1.00 -->
      <defs>
       <path d="M 10.6875 12.40625 
L 21 12.40625 
L 21 0 
L 10.6875 0 
z
" id="DejaVuSans-2e"/>
      </defs>
      <g transform="translate(20.878125 438.230071)scale(0.1 -0.1)">
       <use xlink:href="#DejaVuSans-2212"/>
       <use x="83.789062" xlink:href="#DejaVuSans-31"/>
       <use x="147.412109" xlink:href="#DejaVuSans-2e"/>
       <use x="179.199219" xlink:href="#DejaVuSans-30"/>
       <use x="242.822266" xlink:href="#DejaVuSans-30"/>
      </g>
     </g>
    </g>
    <g id="ytick_2">
     <g id="line2d_36">
      <g>
       <use style="stroke:#000000;stroke-width:0.8;" x="58.523438" xlink:href="#ma06c331fb1" y="385.76267"/>
      </g>
     </g>
     <g id="text_6">
      <!-- −0.75 -->
      <defs>
       <path d="M 8.203125 72.90625 
L 55.078125 72.90625 
L 55.078125 68.703125 
L 28.609375 0 
L 18.3125 0 
L 43.21875 64.59375 
L 8.203125 64.59375 
z
" id="DejaVuSans-37"/>
       <path d="M 10.796875 72.90625 
L 49.515625 72.90625 
L 49.515625 64.59375 
L 19.828125 64.59375 
L 19.828125 46.734375 
Q 21.96875 47.46875 24.109375 47.828125 
Q 26.265625 48.1875 28.421875 48.1875 
Q 40.625 48.1875 47.75 41.5 
Q 54.890625 34.8125 54.890625 23.390625 
Q 54.890625 11.625 47.5625 5.09375 
Q 40.234375 -1.421875 26.90625 -1.421875 
Q 22.3125 -1.421875 17.546875 -0.640625 
Q 12.796875 0.140625 7.71875 1.703125 
L 7.71875 11.625 
Q 12.109375 9.234375 16.796875 8.0625 
Q 21.484375 6.890625 26.703125 6.890625 
Q 35.15625 6.890625 40.078125 11.328125 
Q 45.015625 15.765625 45.015625 23.390625 
Q 45.015625 31 40.078125 35.4375 
Q 35.15625 39.890625 26.703125 39.890625 
Q 22.75 39.890625 18.8125 39.015625 
Q 14.890625 38.140625 10.796875 36.28125 
z
" id="DejaVuSans-35"/>
      </defs>
      <g transform="translate(20.878125 389.561889)scale(0.1 -0.1)">
       <use xlink:href="#DejaVuSans-2212"/>
       <use x="83.789062" xlink:href="#DejaVuSans-30"/>
       <use x="147.412109" xlink:href="#DejaVuSans-2e"/>
       <use x="179.199219" xlink:href="#DejaVuSans-37"/>
       <use x="242.822266" xlink:href="#DejaVuSans-35"/>
      </g>
     </g>
    </g>
    <g id="ytick_3">
     <g id="line2d_37">
      <g>
       <use style="stroke:#000000;stroke-width:0.8;" x="58.523438" xlink:href="#ma06c331fb1" y="337.094489"/>
      </g>
     </g>
     <g id="text_7">
      <!-- −0.50 -->
      <g transform="translate(20.878125 340.893707)scale(0.1 -0.1)">
       <use xlink:href="#DejaVuSans-2212"/>
       <use x="83.789062" xlink:href="#DejaVuSans-30"/>
       <use x="147.412109" xlink:href="#DejaVuSans-2e"/>
       <use x="179.199219" xlink:href="#DejaVuSans-35"/>
       <use x="242.822266" xlink:href="#DejaVuSans-30"/>
      </g>
     </g>
    </g>
    <g id="ytick_4">
     <g id="line2d_38">
      <g>
       <use style="stroke:#000000;stroke-width:0.8;" x="58.523438" xlink:href="#ma06c331fb1" y="288.426307"/>
      </g>
     </g>
     <g id="text_8">
      <!-- −0.25 -->
      <g transform="translate(20.878125 292.225526)scale(0.1 -0.1)">
       <use xlink:href="#DejaVuSans-2212"/>
       <use x="83.789062" xlink:href="#DejaVuSans-30"/>
       <use x="147.412109" xlink:href="#DejaVuSans-2e"/>
       <use x="179.199219" xlink:href="#DejaVuSans-32"/>
       <use x="242.822266" xlink:href="#DejaVuSans-35"/>
      </g>
     </g>
    </g>
    <g id="ytick_5">
     <g id="line2d_39">
      <g>
       <use style="stroke:#000000;stroke-width:0.8;" x="58.523438" xlink:href="#ma06c331fb1" y="239.758125"/>
      </g>
     </g>
     <g id="text_9">
      <!-- 0.00 -->
      <g transform="translate(29.257813 243.557344)scale(0.1 -0.1)">
       <use xlink:href="#DejaVuSans-30"/>
       <use x="63.623047" xlink:href="#DejaVuSans-2e"/>
       <use x="95.410156" xlink:href="#DejaVuSans-30"/>
       <use x="159.033203" xlink:href="#DejaVuSans-30"/>
      </g>
     </g>
    </g>
    <g id="ytick_6">
     <g id="line2d_40">
      <g>
       <use style="stroke:#000000;stroke-width:0.8;" x="58.523438" xlink:href="#ma06c331fb1" y="191.089943"/>
      </g>
     </g>
     <g id="text_10">
      <!-- 0.25 -->
      <g transform="translate(29.257813 194.889162)scale(0.1 -0.1)">
       <use xlink:href="#DejaVuSans-30"/>
       <use x="63.623047" xlink:href="#DejaVuSans-2e"/>
       <use x="95.410156" xlink:href="#DejaVuSans-32"/>
       <use x="159.033203" xlink:href="#DejaVuSans-35"/>
      </g>
     </g>
    </g>
    <g id="ytick_7">
     <g id="line2d_41">
      <g>
       <use style="stroke:#000000;stroke-width:0.8;" x="58.523438" xlink:href="#ma06c331fb1" y="142.421761"/>
      </g>
     </g>
     <g id="text_11">
      <!-- 0.50 -->
      <g transform="translate(29.257813 146.22098)scale(0.1 -0.1)">
       <use xlink:href="#DejaVuSans-30"/>
       <use x="63.623047" xlink:href="#DejaVuSans-2e"/>
       <use x="95.410156" xlink:href="#DejaVuSans-35"/>
       <use x="159.033203" xlink:href="#DejaVuSans-30"/>
      </g>
     </g>
    </g>
    <g id="ytick_8">
     <g id="line2d_42">
      <g>
       <use style="stroke:#000000;stroke-width:0.8;" x="58.523438" xlink:href="#ma06c331fb1" y="93.75358"/>
      </g>
     </g>
     <g id="text_12">
      <!-- 0.75 -->
      <g transform="translate(29.257813 97.552798)scale(0.1 -0.1)">
       <use xlink:href="#DejaVuSans-30"/>
       <use x="63.623047" xlink:href="#DejaVuSans-2e"/>
       <use x="95.410156" xlink:href="#DejaVuSans-37"/>
       <use x="159.033203" xlink:href="#DejaVuSans-35"/>
      </g>
     </g>
    </g>
    <g id="ytick_9">
     <g id="line2d_43">
      <g>
       <use style="stroke:#000000;stroke-width:0.8;" x="58.523438" xlink:href="#ma06c331fb1" y="45.085398"/>
      </g>
     </g>
     <g id="text_13">
      <!-- 1.00 -->
      <g transform="translate(29.257813 48.884616)scale(0.1 -0.1)">
       <use xlink:href="#DejaVuSans-31"/>
       <use x="63.623047" xlink:href="#DejaVuSans-2e"/>
       <use x="95.410156" xlink:href="#DejaVuSans-30"/>
       <use x="159.033203" xlink:href="#DejaVuSans-30"/>
      </g>
     </g>
    </g>
    <g id="text_14">
     <!-- Magnetisierung (normiert) -->
     <defs>
      <path d="M 9.8125 72.90625 
L 24.515625 72.90625 
L 43.109375 23.296875 
L 61.8125 72.90625 
L 76.515625 72.90625 
L 76.515625 0 
L 66.890625 0 
L 66.890625 64.015625 
L 48.09375 14.015625 
L 38.1875 14.015625 
L 19.390625 64.015625 
L 19.390625 0 
L 9.8125 0 
z
" id="DejaVuSans-4d"/>
      <path d="M 34.28125 27.484375 
Q 23.390625 27.484375 19.1875 25 
Q 14.984375 22.515625 14.984375 16.5 
Q 14.984375 11.71875 18.140625 8.90625 
Q 21.296875 6.109375 26.703125 6.109375 
Q 34.1875 6.109375 38.703125 11.40625 
Q 43.21875 16.703125 43.21875 25.484375 
L 43.21875 27.484375 
z
M 52.203125 31.203125 
L 52.203125 0 
L 43.21875 0 
L 43.21875 8.296875 
Q 40.140625 3.328125 35.546875 0.953125 
Q 30.953125 -1.421875 24.3125 -1.421875 
Q 15.921875 -1.421875 10.953125 3.296875 
Q 6 8.015625 6 15.921875 
Q 6 25.140625 12.171875 29.828125 
Q 18.359375 34.515625 30.609375 34.515625 
L 43.21875 34.515625 
L 43.21875 35.40625 
Q 43.21875 41.609375 39.140625 45 
Q 35.0625 48.390625 27.6875 48.390625 
Q 23 48.390625 18.546875 47.265625 
Q 14.109375 46.140625 10.015625 43.890625 
L 10.015625 52.203125 
Q 14.9375 54.109375 19.578125 55.046875 
Q 24.21875 56 28.609375 56 
Q 40.484375 56 46.34375 49.84375 
Q 52.203125 43.703125 52.203125 31.203125 
z
" id="DejaVuSans-61"/>
      <path d="M 45.40625 27.984375 
Q 45.40625 37.75 41.375 43.109375 
Q 37.359375 48.484375 30.078125 48.484375 
Q 22.859375 48.484375 18.828125 43.109375 
Q 14.796875 37.75 14.796875 27.984375 
Q 14.796875 18.265625 18.828125 12.890625 
Q 22.859375 7.515625 30.078125 7.515625 
Q 37.359375 7.515625 41.375 12.890625 
Q 45.40625 18.265625 45.40625 27.984375 
z
M 54.390625 6.78125 
Q 54.390625 -7.171875 48.1875 -13.984375 
Q 42 -20.796875 29.203125 -20.796875 
Q 24.46875 -20.796875 20.265625 -20.09375 
Q 16.0625 -19.390625 12.109375 -17.921875 
L 12.109375 -9.1875 
Q 16.0625 -11.328125 19.921875 -12.34375 
Q 23.78125 -13.375 27.78125 -13.375 
Q 36.625 -13.375 41.015625 -8.765625 
Q 45.40625 -4.15625 45.40625 5.171875 
L 45.40625 9.625 
Q 42.625 4.78125 38.28125 2.390625 
Q 33.9375 0 27.875 0 
Q 17.828125 0 11.671875 7.65625 
Q 5.515625 15.328125 5.515625 27.984375 
Q 5.515625 40.671875 11.671875 48.328125 
Q 17.828125 56 27.875 56 
Q 33.9375 56 38.28125 53.609375 
Q 42.625 51.21875 45.40625 46.390625 
L 45.40625 54.6875 
L 54.390625 54.6875 
z
" id="DejaVuSans-67"/>
      <path d="M 54.890625 33.015625 
L 54.890625 0 
L 45.90625 0 
L 45.90625 32.71875 
Q 45.90625 40.484375 42.875 44.328125 
Q 39.84375 48.1875 33.796875 48.1875 
Q 26.515625 48.1875 22.3125 43.546875 
Q 18.109375 38.921875 18.109375 30.90625 
L 18.109375 0 
L 9.078125 0 
L 9.078125 54.6875 
L 18.109375 54.6875 
L 18.109375 46.1875 
Q 21.34375 51.125 25.703125 53.5625 
Q 30.078125 56 35.796875 56 
Q 45.21875 56 50.046875 50.171875 
Q 54.890625 44.34375 54.890625 33.015625 
z
" id="DejaVuSans-6e"/>
      <path d="M 56.203125 29.59375 
L 56.203125 25.203125 
L 14.890625 25.203125 
Q 15.484375 15.921875 20.484375 11.0625 
Q 25.484375 6.203125 34.421875 6.203125 
Q 39.59375 6.203125 44.453125 7.46875 
Q 49.3125 8.734375 54.109375 11.28125 
L 54.109375 2.78125 
Q 49.265625 0.734375 44.1875 -0.34375 
Q 39.109375 -1.421875 33.890625 -1.421875 
Q 20.796875 -1.421875 13.15625 6.1875 
Q 5.515625 13.8125 5.515625 26.8125 
Q 5.515625 40.234375 12.765625 48.109375 
Q 20.015625 56 32.328125 56 
Q 43.359375 56 49.78125 48.890625 
Q 56.203125 41.796875 56.203125 29.59375 
z
M 47.21875 32.234375 
Q 47.125 39.59375 43.09375 43.984375 
Q 39.0625 48.390625 32.421875 48.390625 
Q 24.90625 48.390625 20.390625 44.140625 
Q 15.875 39.890625 15.1875 32.171875 
z
" id="DejaVuSans-65"/>
      <path d="M 18.3125 70.21875 
L 18.3125 54.6875 
L 36.8125 54.6875 
L 36.8125 47.703125 
L 18.3125 47.703125 
L 18.3125 18.015625 
Q 18.3125 11.328125 20.140625 9.421875 
Q 21.96875 7.515625 27.59375 7.515625 
L 36.8125 7.515625 
L 36.8125 0 
L 27.59375 0 
Q 17.1875 0 13.234375 3.875 
Q 9.28125 7.765625 9.28125 18.015625 
L 9.28125 47.703125 
L 2.6875 47.703125 
L 2.6875 54.6875 
L 9.28125 54.6875 
L 9.28125 70.21875 
z
" id="DejaVuSans-74"/>
      <path d="M 9.421875 54.6875 
L 18.40625 54.6875 
L 18.40625 0 
L 9.421875 0 
z
M 9.421875 75.984375 
L 18.40625 75.984375 
L 18.40625 64.59375 
L 9.421875 64.59375 
z
" id="DejaVuSans-69"/>
      <path d="M 41.109375 46.296875 
Q 39.59375 47.171875 37.8125 47.578125 
Q 36.03125 48 33.890625 48 
Q 26.265625 48 22.1875 43.046875 
Q 18.109375 38.09375 18.109375 28.8125 
L 18.109375 0 
L 9.078125 0 
L 9.078125 54.6875 
L 18.109375 54.6875 
L 18.109375 46.1875 
Q 20.953125 51.171875 25.484375 53.578125 
Q 30.03125 56 36.53125 56 
Q 37.453125 56 38.578125 55.875 
Q 39.703125 55.765625 41.0625 55.515625 
z
" id="DejaVuSans-72"/>
      <path d="M 8.5 21.578125 
L 8.5 54.6875 
L 17.484375 54.6875 
L 17.484375 21.921875 
Q 17.484375 14.15625 20.5 10.265625 
Q 23.53125 6.390625 29.59375 6.390625 
Q 36.859375 6.390625 41.078125 11.03125 
Q 45.3125 15.671875 45.3125 23.6875 
L 45.3125 54.6875 
L 54.296875 54.6875 
L 54.296875 0 
L 45.3125 0 
L 45.3125 8.40625 
Q 42.046875 3.421875 37.71875 1 
Q 33.40625 -1.421875 27.6875 -1.421875 
Q 18.265625 -1.421875 13.375 4.4375 
Q 8.5 10.296875 8.5 21.578125 
z
M 31.109375 56 
z
" id="DejaVuSans-75"/>
      <path d="M 31 75.875 
Q 24.46875 64.65625 21.28125 53.65625 
Q 18.109375 42.671875 18.109375 31.390625 
Q 18.109375 20.125 21.3125 9.0625 
Q 24.515625 -2 31 -13.1875 
L 23.1875 -13.1875 
Q 15.875 -1.703125 12.234375 9.375 
Q 8.59375 20.453125 8.59375 31.390625 
Q 8.59375 42.28125 12.203125 53.3125 
Q 15.828125 64.359375 23.1875 75.875 
z
" id="DejaVuSans-28"/>
      <path d="M 30.609375 48.390625 
Q 23.390625 48.390625 19.1875 42.75 
Q 14.984375 37.109375 14.984375 27.296875 
Q 14.984375 17.484375 19.15625 11.84375 
Q 23.34375 6.203125 30.609375 6.203125 
Q 37.796875 6.203125 41.984375 11.859375 
Q 46.1875 17.53125 46.1875 27.296875 
Q 46.1875 37.015625 41.984375 42.703125 
Q 37.796875 48.390625 30.609375 48.390625 
z
M 30.609375 56 
Q 42.328125 56 49.015625 48.375 
Q 55.71875 40.765625 55.71875 27.296875 
Q 55.71875 13.875 49.015625 6.21875 
Q 42.328125 -1.421875 30.609375 -1.421875 
Q 18.84375 -1.421875 12.171875 6.21875 
Q 5.515625 13.875 5.515625 27.296875 
Q 5.515625 40.765625 12.171875 48.375 
Q 18.84375 56 30.609375 56 
z
" id="DejaVuSans-6f"/>
      <path d="M 52 44.1875 
Q 55.375 50.25 60.0625 53.125 
Q 64.75 56 71.09375 56 
Q 79.640625 56 84.28125 50.015625 
Q 88.921875 44.046875 88.921875 33.015625 
L 88.921875 0 
L 79.890625 0 
L 79.890625 32.71875 
Q 79.890625 40.578125 77.09375 44.375 
Q 74.3125 48.1875 68.609375 48.1875 
Q 61.625 48.1875 57.5625 43.546875 
Q 53.515625 38.921875 53.515625 30.90625 
L 53.515625 0 
L 44.484375 0 
L 44.484375 32.71875 
Q 44.484375 40.625 41.703125 44.40625 
Q 38.921875 48.1875 33.109375 48.1875 
Q 26.21875 48.1875 22.15625 43.53125 
Q 18.109375 38.875 18.109375 30.90625 
L 18.109375 0 
L 9.078125 0 
L 9.078125 54.6875 
L 18.109375 54.6875 
L 18.109375 46.1875 
Q 21.1875 51.21875 25.484375 53.609375 
Q 29.78125 56 35.6875 56 
Q 41.65625 56 45.828125 52.96875 
Q 50 49.953125 52 44.1875 
z
" id="DejaVuSans-6d"/>
      <path d="M 8.015625 75.875 
L 15.828125 75.875 
Q 23.140625 64.359375 26.78125 53.3125 
Q 30.421875 42.28125 30.421875 31.390625 
Q 30.421875 20.453125 26.78125 9.375 
Q 23.140625 -1.703125 15.828125 -13.1875 
L 8.015625 -13.1875 
Q 14.5 -2 17.703125 9.0625 
Q 20.90625 20.125 20.90625 31.390625 
Q 20.90625 42.671875 17.703125 53.65625 
Q 14.5 64.65625 8.015625 75.875 
z
" id="DejaVuSans-29"/>
     </defs>
     <g transform="translate(14.798438 305.6675)rotate(-90)scale(0.1 -0.1)">
      <use xlink:href="#DejaVuSans-4d"/>
      <use x="86.279297" xlink:href="#DejaVuSans-61"/>
      <use x="147.558594" xlink:href="#DejaVuSans-67"/>
      <use x="211.035156" xlink:href="#DejaVuSans-6e"/>
      <use x="274.414062" xlink:href="#DejaVuSans-65"/>
      <use x="335.9375" xlink:href="#DejaVuSans-74"/>
      <use x="375.146484" xlink:href="#DejaVuSans-69"/>
      <use x="402.929688" xlink:href="#DejaVuSans-73"/>
      <use x="455.029297" xlink:href="#DejaVuSans-69"/>
      <use x="482.8125" xlink:href="#DejaVuSans-65"/>
      <use x="544.335938" xlink:href="#DejaVuSans-72"/>
      <use x="585.449219" xlink:href="#DejaVuSans-75"/>
      <use x="648.828125" xlink:href="#DejaVuSans-6e"/>
      <use x="712.207031" xlink:href="#DejaVuSans-67"/>
      <use x="775.683594" xlink:href="#DejaVuSans-20"/>
      <use x="807.470703" xlink:href="#DejaVuSans-28"/>
      <use x="846.484375" xlink:href="#DejaVuSans-6e"/>
      <use x="909.863281" xlink:href="#DejaVuSans-6f"/>
      <use x="971.044922" xlink:href="#DejaVuSans-72"/>
      <use x="1012.142578" xlink:href="#DejaVuSans-6d"/>
      <use x="1109.554688" xlink:href="#DejaVuSans-69"/>
      <use x="1137.337891" xlink:href="#DejaVuSans-65"/>
      <use x="1198.861328" xlink:href="#DejaVuSans-72"/>
      <use x="1239.974609" xlink:href="#DejaVuSans-74"/>
      <use x="1279.183594" xlink:href="#DejaVuSans-29"/>
     </g>
    </g>
   </g>
   <g id="line2d_44">
    <path clip-path="url(#pc633389191)" d="M 91.959801 48.741839 
L 119.193518 53.102239 
L 146.427234 59.203404 
L 173.66095 67.691351 
L 200.894667 79.403921 
L 228.128383 95.380451 
L 255.3621 116.819138 
L 282.595816 144.927333 
L 309.829532 180.588076 
L 337.063249 223.773896 
L 364.296965 272.742912 
L 391.530682 323.344136 
L 418.764398 369.216656 
L 445.998115 403.814814 
L 473.231831 423.984557 
L 500.465547 432.197824 
L 527.699264 434.232462 
L 554.93298 434.486592 
L 582.166697 434.498964 
L 609.400413 434.499128 
L 636.634129 434.499128 
L 663.867846 434.499128 
L 691.101562 434.499128 
" style="fill:none;stroke:#1f77b4;stroke-linecap:square;stroke-width:1.5;"/>
   </g>
   <g id="line2d_45">
    <path clip-path="url(#pc633389191)" d="M 91.959801 48.391763 
L 119.193518 52.868695 
L 146.427234 59.128842 
L 173.66095 67.830987 
L 200.894667 79.826968 
L 228.128383 96.168654 
L 255.3621 118.059511 
L 282.595816 146.694356 
L 309.829532 182.909981 
L 337.063249 226.581367 
L 364.296965 275.812514 
L 391.530682 326.277206 
L 418.764398 371.521802 
L 445.998115 405.129477 
L 473.231831 424.31518 
L 500.465547 431.906709 
L 527.699264 433.715243 
L 554.93298 433.929462 
L 582.166697 433.939165 
L 609.400413 433.939281 
L 636.634129 433.939281 
L 663.867846 433.939281 
L 691.101562 433.939281 
" style="fill:none;stroke:#ff7f0e;stroke-linecap:square;stroke-width:1.5;"/>
   </g>
   <g id="line2d_46">
    <path clip-path="url(#pc633389191)" d="M 91.959801 47.385981 
L 119.193518 52.038191 
L 146.427234 58.560769 
L 173.66095 67.649245 
L 200.894667 80.202027 
L 228.128383 97.323979 
L 255.3621 120.266448 
L 282.595816 150.240683 
L 309.829532 188.020873 
L 337.063249 233.274534 
L 364.296965 283.703246 
L 391.530682 334.438348 
L 418.764398 378.620177 
L 445.998115 410.018532 
L 473.231831 426.799083 
L 500.465547 432.82619 
L 527.699264 434.074032 
L 554.93298 434.194843 
L 582.166697 434.198939 
L 609.400413 434.198971 
L 636.634129 434.198971 
L 663.867846 434.198971 
L 691.101562 434.198971 
" style="fill:none;stroke:#2ca02c;stroke-linecap:square;stroke-width:1.5;"/>
   </g>
   <g id="line2d_47">
    <path clip-path="url(#pc633389191)" d="M 91.959801 47.386962 
L 119.193518 52.890206 
L 146.427234 60.488732 
L 173.66095 70.907225 
L 200.894667 85.052751 
L 228.128383 103.995835 
L 255.3621 128.877873 
L 282.595816 160.686249 
L 309.829532 199.831537 
L 337.063249 245.506046 
L 364.296965 294.968402 
L 391.530682 343.230092 
L 418.764398 383.948158 
L 445.998115 412.012582 
L 473.231831 426.629759 
L 500.465547 431.803853 
L 527.699264 432.882269 
L 554.93298 432.991324 
L 582.166697 432.995431 
L 609.400413 432.995471 
L 636.634129 432.995471 
L 663.867846 432.995471 
L 691.101562 432.995471 
" style="fill:none;stroke:#d62728;stroke-linecap:square;stroke-width:1.5;"/>
   </g>
   <g id="line2d_48">
    <path clip-path="url(#pc633389191)" d="M 91.959801 46.596479 
L 119.193518 52.982779 
L 146.427234 61.841978 
L 173.66095 74.029781 
L 200.894667 90.600616 
L 228.128383 112.758792 
L 255.3621 141.699135 
L 282.595816 178.261358 
L 309.829532 222.334173 
L 337.063249 272.055714 
L 364.296965 323.152946 
L 391.530682 369.208061 
L 418.764398 403.744094 
L 445.998115 423.773423 
L 473.231831 431.9 
L 500.465547 433.91221 
L 527.699264 434.164838 
L 554.93298 434.177319 
L 582.166697 434.177489 
L 609.400413 434.17749 
L 636.634129 434.17749 
L 663.867846 434.17749 
L 691.101562 434.17749 
" style="fill:none;stroke:#9467bd;stroke-linecap:square;stroke-width:1.5;"/>
   </g>
   <g id="line2d_49">
    <path clip-path="url(#pc633389191)" d="M 91.959801 45.623102 
L 119.193518 56.79824 
L 146.427234 71.879999 
L 173.66095 91.952558 
L 200.894667 118.152924 
L 228.128383 151.435872 
L 255.3621 192.144502 
L 282.595816 239.374409 
L 309.829532 290.2847 
L 337.063249 339.826155 
L 364.296965 381.654084 
L 391.530682 410.667495 
L 418.764398 426.013129 
L 445.998115 431.606882 
L 473.231831 432.83316 
L 500.465547 432.967778 
L 527.699264 432.973549 
L 554.93298 432.973618 
L 582.166697 432.973618 
L 609.400413 432.973618 
L 636.634129 432.973618 
L 663.867846 432.973618 
L 691.101562 432.973618 
" style="fill:none;stroke:#8c564b;stroke-linecap:square;stroke-width:1.5;"/>
   </g>
   <g id="line2d_50">
    <path clip-path="url(#pc633389191)" d="M 91.959801 43.537035 
L 119.193518 63.463071 
L 146.427234 89.350092 
L 173.66095 122.185334 
L 200.894667 162.478496 
L 228.128383 209.716652 
L 255.3621 261.717194 
L 282.595816 314.204258 
L 309.829532 361.224622 
L 337.063249 396.985931 
L 364.296965 418.724609 
L 391.530682 428.460712 
L 418.764398 431.341229 
L 445.998115 431.827935 
L 473.231831 431.866597 
L 500.465547 431.867706 
L 527.699264 431.867714 
L 554.93298 431.867714 
L 582.166697 431.867714 
L 609.400413 431.867714 
L 636.634129 431.867714 
L 663.867846 431.867714 
L 691.101562 431.867714 
" style="fill:none;stroke:#e377c2;stroke-linecap:square;stroke-width:1.5;"/>
   </g>
   <g id="line2d_51">
    <path clip-path="url(#pc633389191)" d="M 91.959801 44.760821 
L 119.193518 81.343352 
L 146.427234 126.004586 
L 173.66095 178.20426 
L 200.894667 235.682316 
L 228.128383 294.01471 
L 255.3621 346.972945 
L 282.595816 388.277916 
L 309.829532 414.483502 
L 337.063249 427.051258 
L 364.296965 431.182667 
L 391.530682 432.000222 
L 418.764398 432.0822 
L 445.998115 432.085507 
L 473.231831 432.085546 
L 500.465547 432.085546 
L 527.699264 432.085546 
L 554.93298 432.085546 
L 582.166697 432.085546 
L 609.400413 432.085546 
L 636.634129 432.085546 
L 663.867846 432.085546 
L 691.101562 432.085546 
" style="fill:none;stroke:#7f7f7f;stroke-linecap:square;stroke-width:1.5;"/>
   </g>
   <g id="line2d_52">
    <path clip-path="url(#pc633389191)" d="M 91.959801 45.463906 
L 119.193518 113.343494 
L 146.427234 186.015781 
L 173.66095 258.09157 
L 200.894667 322.635664 
L 228.128383 373.075584 
L 255.3621 405.958202 
L 282.595816 422.809763 
L 309.829532 429.090067 
L 337.063249 430.627733 
L 364.296965 430.844422 
L 391.530682 430.859207 
L 418.764398 430.859596 
L 445.998115 430.859599 
L 473.231831 430.859599 
L 500.465547 430.859599 
L 527.699264 430.859599 
L 554.93298 430.859599 
L 582.166697 430.859599 
L 609.400413 430.859599 
L 636.634129 430.859599 
L 663.867846 430.859599 
L 691.101562 430.859599 
" style="fill:none;stroke:#bcbd22;stroke-linecap:square;stroke-width:1.5;"/>
   </g>
   <g id="patch_3">
    <path d="M 58.523438 457.198125 
L 58.523438 22.318125 
" style="fill:none;stroke:#000000;stroke-linecap:square;stroke-linejoin:miter;stroke-width:0.8;"/>
   </g>
   <g id="patch_4">
    <path d="M 728.123438 457.198125 
L 728.123438 22.318125 
" style="fill:none;stroke:#000000;stroke-linecap:square;stroke-linejoin:miter;stroke-width:0.8;"/>
   </g>
   <g id="patch_5">
    <path d="M 58.523438 457.198125 
L 728.123438 457.198125 
" style="fill:none;stroke:#000000;stroke-linecap:square;stroke-linejoin:miter;stroke-width:0.8;"/>
   </g>
   <g id="patch_6">
    <path d="M 58.523438 22.318125 
L 728.123438 22.318125 
" style="fill:none;stroke:#000000;stroke-linecap:square;stroke-linejoin:miter;stroke-width:0.8;"/>
   </g>
   <g id="text_15">
    <!-- CRN $T_2$ -->
    <defs>
     <path d="M 64.40625 67.28125 
L 64.40625 56.890625 
Q 59.421875 61.53125 53.78125 63.8125 
Q 48.140625 66.109375 41.796875 66.109375 
Q 29.296875 66.109375 22.65625 58.46875 
Q 16.015625 50.828125 16.015625 36.375 
Q 16.015625 21.96875 22.65625 14.328125 
Q 29.296875 6.6875 41.796875 6.6875 
Q 48.140625 6.6875 53.78125 8.984375 
Q 59.421875 11.28125 64.40625 15.921875 
L 64.40625 5.609375 
Q 59.234375 2.09375 53.4375 0.328125 
Q 47.65625 -1.421875 41.21875 -1.421875 
Q 24.65625 -1.421875 15.125 8.703125 
Q 5.609375 18.84375 5.609375 36.375 
Q 5.609375 53.953125 15.125 64.078125 
Q 24.65625 74.21875 41.21875 74.21875 
Q 47.75 74.21875 53.53125 72.484375 
Q 59.328125 70.75 64.40625 67.28125 
z
" id="DejaVuSans-43"/>
     <path d="M 44.390625 34.1875 
Q 47.5625 33.109375 50.5625 29.59375 
Q 53.5625 26.078125 56.59375 19.921875 
L 66.609375 0 
L 56 0 
L 46.6875 18.703125 
Q 43.0625 26.03125 39.671875 28.421875 
Q 36.28125 30.8125 30.421875 30.8125 
L 19.671875 30.8125 
L 19.671875 0 
L 9.8125 0 
L 9.8125 72.90625 
L 32.078125 72.90625 
Q 44.578125 72.90625 50.734375 67.671875 
Q 56.890625 62.453125 56.890625 51.90625 
Q 56.890625 45.015625 53.6875 40.46875 
Q 50.484375 35.9375 44.390625 34.1875 
z
M 19.671875 64.796875 
L 19.671875 38.921875 
L 32.078125 38.921875 
Q 39.203125 38.921875 42.84375 42.21875 
Q 46.484375 45.515625 46.484375 51.90625 
Q 46.484375 58.296875 42.84375 61.546875 
Q 39.203125 64.796875 32.078125 64.796875 
z
" id="DejaVuSans-52"/>
     <path d="M 9.8125 72.90625 
L 23.09375 72.90625 
L 55.421875 11.921875 
L 55.421875 72.90625 
L 64.984375 72.90625 
L 64.984375 0 
L 51.703125 0 
L 19.390625 60.984375 
L 19.390625 0 
L 9.8125 0 
z
" id="DejaVuSans-4e"/>
     <path d="M 5.90625 72.90625 
L 67.578125 72.90625 
L 66.015625 64.59375 
L 39.984375 64.59375 
L 27.484375 0 
L 17.578125 0 
L 30.078125 64.59375 
L 4.296875 64.59375 
z
" id="DejaVuSans-Oblique-54"/>
    </defs>
    <g transform="translate(372.023438 16.318125)scale(0.12 -0.12)">
     <use transform="translate(0 0.78125)" xlink:href="#DejaVuSans-43"/>
     <use transform="translate(69.824219 0.78125)" xlink:href="#DejaVuSans-52"/>
     <use transform="translate(139.306641 0.78125)" xlink:href="#DejaVuSans-4e"/>
     <use transform="translate(214.111328 0.78125)" xlink:href="#DejaVuSans-20"/>
     <use transform="translate(245.898438 0.78125)" xlink:href="#DejaVuSans-Oblique-54"/>
     <use transform="translate(306.982422 -15.625)scale(0.7)" xlink:href="#DejaVuSans-32"/>
    </g>
   </g>
   <g id="legend_1">
    <g id="patch_7">
     <path d="M 654.132812 162.42125 
L 721.123438 162.42125 
Q 723.123438 162.42125 723.123438 160.42125 
L 723.123438 29.318125 
Q 723.123438 27.318125 721.123438 27.318125 
L 654.132812 27.318125 
Q 652.132812 27.318125 652.132812 29.318125 
L 652.132812 160.42125 
Q 652.132812 162.42125 654.132812 162.42125 
z
" style="fill:#ffffff;opacity:0.8;stroke:#cccccc;stroke-linejoin:miter;"/>
    </g>
    <g id="PathCollection_10">
     <g>
      <use style="fill:#1f77b4;stroke:#1f77b4;" x="666.132812" xlink:href="#m200e6d4f61" y="36.291562"/>
     </g>
    </g>
    <g id="text_16">
     <!-- 305.58 -->
     <defs>
      <path d="M 31.78125 34.625 
Q 24.75 34.625 20.71875 30.859375 
Q 16.703125 27.09375 16.703125 20.515625 
Q 16.703125 13.921875 20.71875 10.15625 
Q 24.75 6.390625 31.78125 6.390625 
Q 38.8125 6.390625 42.859375 10.171875 
Q 46.921875 13.96875 46.921875 20.515625 
Q 46.921875 27.09375 42.890625 30.859375 
Q 38.875 34.625 31.78125 34.625 
z
M 21.921875 38.8125 
Q 15.578125 40.375 12.03125 44.71875 
Q 8.5 49.078125 8.5 55.328125 
Q 8.5 64.0625 14.71875 69.140625 
Q 20.953125 74.21875 31.78125 74.21875 
Q 42.671875 74.21875 48.875 69.140625 
Q 55.078125 64.0625 55.078125 55.328125 
Q 55.078125 49.078125 51.53125 44.71875 
Q 48 40.375 41.703125 38.8125 
Q 48.828125 37.15625 52.796875 32.3125 
Q 56.78125 27.484375 56.78125 20.515625 
Q 56.78125 9.90625 50.3125 4.234375 
Q 43.84375 -1.421875 31.78125 -1.421875 
Q 19.734375 -1.421875 13.25 4.234375 
Q 6.78125 9.90625 6.78125 20.515625 
Q 6.78125 27.484375 10.78125 32.3125 
Q 14.796875 37.15625 21.921875 38.8125 
z
M 18.3125 54.390625 
Q 18.3125 48.734375 21.84375 45.5625 
Q 25.390625 42.390625 31.78125 42.390625 
Q 38.140625 42.390625 41.71875 45.5625 
Q 45.3125 48.734375 45.3125 54.390625 
Q 45.3125 60.0625 41.71875 63.234375 
Q 38.140625 66.40625 31.78125 66.40625 
Q 25.390625 66.40625 21.84375 63.234375 
Q 18.3125 60.0625 18.3125 54.390625 
z
" id="DejaVuSans-38"/>
     </defs>
     <g transform="translate(684.132812 38.916562)scale(0.1 -0.1)">
      <use xlink:href="#DejaVuSans-33"/>
      <use x="63.623047" xlink:href="#DejaVuSans-30"/>
      <use x="127.246094" xlink:href="#DejaVuSans-35"/>
      <use x="190.869141" xlink:href="#DejaVuSans-2e"/>
      <use x="222.65625" xlink:href="#DejaVuSans-35"/>
      <use x="286.279297" xlink:href="#DejaVuSans-38"/>
     </g>
    </g>
    <g id="PathCollection_11">
     <g>
      <use style="fill:#ff7f0e;stroke:#ff7f0e;" x="666.132812" xlink:href="#m811852cd19" y="50.969687"/>
     </g>
    </g>
    <g id="text_17">
     <!-- 310.23 -->
     <g transform="translate(684.132812 53.594687)scale(0.1 -0.1)">
      <use xlink:href="#DejaVuSans-33"/>
      <use x="63.623047" xlink:href="#DejaVuSans-31"/>
      <use x="127.246094" xlink:href="#DejaVuSans-30"/>
      <use x="190.869141" xlink:href="#DejaVuSans-2e"/>
      <use x="222.65625" xlink:href="#DejaVuSans-32"/>
      <use x="286.279297" xlink:href="#DejaVuSans-33"/>
     </g>
    </g>
    <g id="PathCollection_12">
     <g>
      <use style="fill:#2ca02c;stroke:#2ca02c;" x="666.132812" xlink:href="#m13da45fc4a" y="65.647812"/>
     </g>
    </g>
    <g id="text_18">
     <!-- 314.98 -->
     <defs>
      <path d="M 10.984375 1.515625 
L 10.984375 10.5 
Q 14.703125 8.734375 18.5 7.8125 
Q 22.3125 6.890625 25.984375 6.890625 
Q 35.75 6.890625 40.890625 13.453125 
Q 46.046875 20.015625 46.78125 33.40625 
Q 43.953125 29.203125 39.59375 26.953125 
Q 35.25 24.703125 29.984375 24.703125 
Q 19.046875 24.703125 12.671875 31.3125 
Q 6.296875 37.9375 6.296875 49.421875 
Q 6.296875 60.640625 12.9375 67.421875 
Q 19.578125 74.21875 30.609375 74.21875 
Q 43.265625 74.21875 49.921875 64.515625 
Q 56.59375 54.828125 56.59375 36.375 
Q 56.59375 19.140625 48.40625 8.859375 
Q 40.234375 -1.421875 26.421875 -1.421875 
Q 22.703125 -1.421875 18.890625 -0.6875 
Q 15.09375 0.046875 10.984375 1.515625 
z
M 30.609375 32.421875 
Q 37.25 32.421875 41.125 36.953125 
Q 45.015625 41.5 45.015625 49.421875 
Q 45.015625 57.28125 41.125 61.84375 
Q 37.25 66.40625 30.609375 66.40625 
Q 23.96875 66.40625 20.09375 61.84375 
Q 16.21875 57.28125 16.21875 49.421875 
Q 16.21875 41.5 20.09375 36.953125 
Q 23.96875 32.421875 30.609375 32.421875 
z
" id="DejaVuSans-39"/>
     </defs>
     <g transform="translate(684.132812 68.272812)scale(0.1 -0.1)">
      <use xlink:href="#DejaVuSans-33"/>
      <use x="63.623047" xlink:href="#DejaVuSans-31"/>
      <use x="127.246094" xlink:href="#DejaVuSans-34"/>
      <use x="190.869141" xlink:href="#DejaVuSans-2e"/>
      <use x="222.65625" xlink:href="#DejaVuSans-39"/>
      <use x="286.279297" xlink:href="#DejaVuSans-38"/>
     </g>
    </g>
    <g id="PathCollection_13">
     <g>
      <use style="fill:#d62728;stroke:#d62728;" x="666.132812" xlink:href="#m98350bb0d1" y="80.325937"/>
     </g>
    </g>
    <g id="text_19">
     <!-- 319.82 -->
     <g transform="translate(684.132812 82.950937)scale(0.1 -0.1)">
      <use xlink:href="#DejaVuSans-33"/>
      <use x="63.623047" xlink:href="#DejaVuSans-31"/>
      <use x="127.246094" xlink:href="#DejaVuSans-39"/>
      <use x="190.869141" xlink:href="#DejaVuSans-2e"/>
      <use x="222.65625" xlink:href="#DejaVuSans-38"/>
      <use x="286.279297" xlink:href="#DejaVuSans-32"/>
     </g>
    </g>
    <g id="PathCollection_14">
     <g>
      <use style="fill:#9467bd;stroke:#9467bd;" x="666.132812" xlink:href="#maecccc0db6" y="95.004062"/>
     </g>
    </g>
    <g id="text_20">
     <!-- 324.62 -->
     <defs>
      <path d="M 33.015625 40.375 
Q 26.375 40.375 22.484375 35.828125 
Q 18.609375 31.296875 18.609375 23.390625 
Q 18.609375 15.53125 22.484375 10.953125 
Q 26.375 6.390625 33.015625 6.390625 
Q 39.65625 6.390625 43.53125 10.953125 
Q 47.40625 15.53125 47.40625 23.390625 
Q 47.40625 31.296875 43.53125 35.828125 
Q 39.65625 40.375 33.015625 40.375 
z
M 52.59375 71.296875 
L 52.59375 62.3125 
Q 48.875 64.0625 45.09375 64.984375 
Q 41.3125 65.921875 37.59375 65.921875 
Q 27.828125 65.921875 22.671875 59.328125 
Q 17.53125 52.734375 16.796875 39.40625 
Q 19.671875 43.65625 24.015625 45.921875 
Q 28.375 48.1875 33.59375 48.1875 
Q 44.578125 48.1875 50.953125 41.515625 
Q 57.328125 34.859375 57.328125 23.390625 
Q 57.328125 12.15625 50.6875 5.359375 
Q 44.046875 -1.421875 33.015625 -1.421875 
Q 20.359375 -1.421875 13.671875 8.265625 
Q 6.984375 17.96875 6.984375 36.375 
Q 6.984375 53.65625 15.1875 63.9375 
Q 23.390625 74.21875 37.203125 74.21875 
Q 40.921875 74.21875 44.703125 73.484375 
Q 48.484375 72.75 52.59375 71.296875 
z
" id="DejaVuSans-36"/>
     </defs>
     <g transform="translate(684.132812 97.629062)scale(0.1 -0.1)">
      <use xlink:href="#DejaVuSans-33"/>
      <use x="63.623047" xlink:href="#DejaVuSans-32"/>
      <use x="127.246094" xlink:href="#DejaVuSans-34"/>
      <use x="190.869141" xlink:href="#DejaVuSans-2e"/>
      <use x="222.65625" xlink:href="#DejaVuSans-36"/>
      <use x="286.279297" xlink:href="#DejaVuSans-32"/>
     </g>
    </g>
    <g id="PathCollection_15">
     <g>
      <use style="fill:#8c564b;stroke:#8c564b;" x="666.132812" xlink:href="#m35fc1d4f8a" y="109.682187"/>
     </g>
    </g>
    <g id="text_21">
     <!-- 329.41 -->
     <g transform="translate(684.132812 112.307187)scale(0.1 -0.1)">
      <use xlink:href="#DejaVuSans-33"/>
      <use x="63.623047" xlink:href="#DejaVuSans-32"/>
      <use x="127.246094" xlink:href="#DejaVuSans-39"/>
      <use x="190.869141" xlink:href="#DejaVuSans-2e"/>
      <use x="222.65625" xlink:href="#DejaVuSans-34"/>
      <use x="286.279297" xlink:href="#DejaVuSans-31"/>
     </g>
    </g>
    <g id="PathCollection_16">
     <g>
      <use style="fill:#e377c2;stroke:#e377c2;" x="666.132812" xlink:href="#mf879ed3805" y="124.360312"/>
     </g>
    </g>
    <g id="text_22">
     <!-- 334.22 -->
     <g transform="translate(684.132812 126.985312)scale(0.1 -0.1)">
      <use xlink:href="#DejaVuSans-33"/>
      <use x="63.623047" xlink:href="#DejaVuSans-33"/>
      <use x="127.246094" xlink:href="#DejaVuSans-34"/>
      <use x="190.869141" xlink:href="#DejaVuSans-2e"/>
      <use x="222.65625" xlink:href="#DejaVuSans-32"/>
      <use x="286.279297" xlink:href="#DejaVuSans-32"/>
     </g>
    </g>
    <g id="PathCollection_17">
     <g>
      <use style="fill:#7f7f7f;stroke:#7f7f7f;" x="666.132812" xlink:href="#mf38b5bb668" y="139.038437"/>
     </g>
    </g>
    <g id="text_23">
     <!-- 339.02 -->
     <g transform="translate(684.132812 141.663437)scale(0.1 -0.1)">
      <use xlink:href="#DejaVuSans-33"/>
      <use x="63.623047" xlink:href="#DejaVuSans-33"/>
      <use x="127.246094" xlink:href="#DejaVuSans-39"/>
      <use x="190.869141" xlink:href="#DejaVuSans-2e"/>
      <use x="222.65625" xlink:href="#DejaVuSans-30"/>
      <use x="286.279297" xlink:href="#DejaVuSans-32"/>
     </g>
    </g>
    <g id="PathCollection_18">
     <g>
      <use style="fill:#bcbd22;stroke:#bcbd22;" x="666.132812" xlink:href="#md9d9187d79" y="153.716562"/>
     </g>
    </g>
    <g id="text_24">
     <!-- 343.78 -->
     <g transform="translate(684.132812 156.341562)scale(0.1 -0.1)">
      <use xlink:href="#DejaVuSans-33"/>
      <use x="63.623047" xlink:href="#DejaVuSans-34"/>
      <use x="127.246094" xlink:href="#DejaVuSans-33"/>
      <use x="190.869141" xlink:href="#DejaVuSans-2e"/>
      <use x="222.65625" xlink:href="#DejaVuSans-37"/>
      <use x="286.279297" xlink:href="#DejaVuSans-38"/>
     </g>
    </g>
   </g>
  </g>
 </g>
 <defs>
  <clipPath id="pc633389191">
   <rect height="434.88" width="669.6" x="58.523438" y="22.318125"/>
  </clipPath>
 </defs>
</svg>
