<?xml version="1.0" encoding="utf-8" standalone="no"?>
<!DOCTYPE svg PUBLIC "-//W3C//DTD SVG 1.1//EN"
  "http://www.w3.org/Graphics/SVG/1.1/DTD/svg11.dtd">
<!-- Created with matplotlib (http://matplotlib.org/) -->
<svg height="494.87625pt" version="1.1" viewBox="0 0 724.08125 494.87625" width="724.08125pt" xmlns="http://www.w3.org/2000/svg" xmlns:xlink="http://www.w3.org/1999/xlink">
 <defs>
  <style type="text/css">
*{stroke-linecap:butt;stroke-linejoin:round;}
  </style>
 </defs>
 <g id="figure_1">
  <g id="patch_1">
   <path d="M 0 494.87625 
L 724.08125 494.87625 
L 724.08125 0 
L 0 0 
z
" style="fill:#ffffff;"/>
  </g>
  <g id="axes_1">
   <g id="patch_2">
    <path d="M 43.78125 457.32 
L 713.38125 457.32 
L 713.38125 22.44 
L 43.78125 22.44 
z
" style="fill:#ffffff;"/>
   </g>
   <g id="matplotlib.axis_1">
    <g id="xtick_1">
     <g id="line2d_1">
      <path clip-path="url(#pca9b9136b2)" d="M 99.544192 457.32 
L 99.544192 22.44 
" style="fill:none;stroke:#b0b0b0;stroke-linecap:square;stroke-width:0.8;"/>
     </g>
     <g id="line2d_2">
      <defs>
       <path d="M 0 0 
L 0 3.5 
" id="m399a78af55" style="stroke:#000000;stroke-width:0.8;"/>
      </defs>
      <g>
       <use style="stroke:#000000;stroke-width:0.8;" x="99.544192" xlink:href="#m399a78af55" y="457.32"/>
      </g>
     </g>
     <g id="text_1">
      <!-- 240 -->
      <defs>
       <path d="M 19.1875 8.296875 
L 53.609375 8.296875 
L 53.609375 0 
L 7.328125 0 
L 7.328125 8.296875 
Q 12.9375 14.109375 22.625 23.890625 
Q 32.328125 33.6875 34.8125 36.53125 
Q 39.546875 41.84375 41.421875 45.53125 
Q 43.3125 49.21875 43.3125 52.78125 
Q 43.3125 58.59375 39.234375 62.25 
Q 35.15625 65.921875 28.609375 65.921875 
Q 23.96875 65.921875 18.8125 64.3125 
Q 13.671875 62.703125 7.8125 59.421875 
L 7.8125 69.390625 
Q 13.765625 71.78125 18.9375 73 
Q 24.125 74.21875 28.421875 74.21875 
Q 39.75 74.21875 46.484375 68.546875 
Q 53.21875 62.890625 53.21875 53.421875 
Q 53.21875 48.921875 51.53125 44.890625 
Q 49.859375 40.875 45.40625 35.40625 
Q 44.1875 33.984375 37.640625 27.21875 
Q 31.109375 20.453125 19.1875 8.296875 
z
" id="DejaVuSans-32"/>
       <path d="M 37.796875 64.3125 
L 12.890625 25.390625 
L 37.796875 25.390625 
z
M 35.203125 72.90625 
L 47.609375 72.90625 
L 47.609375 25.390625 
L 58.015625 25.390625 
L 58.015625 17.1875 
L 47.609375 17.1875 
L 47.609375 0 
L 37.796875 0 
L 37.796875 17.1875 
L 4.890625 17.1875 
L 4.890625 26.703125 
z
" id="DejaVuSans-34"/>
       <path d="M 31.78125 66.40625 
Q 24.171875 66.40625 20.328125 58.90625 
Q 16.5 51.421875 16.5 36.375 
Q 16.5 21.390625 20.328125 13.890625 
Q 24.171875 6.390625 31.78125 6.390625 
Q 39.453125 6.390625 43.28125 13.890625 
Q 47.125 21.390625 47.125 36.375 
Q 47.125 51.421875 43.28125 58.90625 
Q 39.453125 66.40625 31.78125 66.40625 
z
M 31.78125 74.21875 
Q 44.046875 74.21875 50.515625 64.515625 
Q 56.984375 54.828125 56.984375 36.375 
Q 56.984375 17.96875 50.515625 8.265625 
Q 44.046875 -1.421875 31.78125 -1.421875 
Q 19.53125 -1.421875 13.0625 8.265625 
Q 6.59375 17.96875 6.59375 36.375 
Q 6.59375 54.828125 13.0625 64.515625 
Q 19.53125 74.21875 31.78125 74.21875 
z
" id="DejaVuSans-30"/>
      </defs>
      <g transform="translate(90.000442 471.918437)scale(0.1 -0.1)">
       <use xlink:href="#DejaVuSans-32"/>
       <use x="63.623047" xlink:href="#DejaVuSans-34"/>
       <use x="127.246094" xlink:href="#DejaVuSans-30"/>
      </g>
     </g>
    </g>
    <g id="xtick_2">
     <g id="line2d_3">
      <path clip-path="url(#pca9b9136b2)" d="M 184.248467 457.32 
L 184.248467 22.44 
" style="fill:none;stroke:#b0b0b0;stroke-linecap:square;stroke-width:0.8;"/>
     </g>
     <g id="line2d_4">
      <g>
       <use style="stroke:#000000;stroke-width:0.8;" x="184.248467" xlink:href="#m399a78af55" y="457.32"/>
      </g>
     </g>
     <g id="text_2">
      <!-- 260 -->
      <defs>
       <path d="M 33.015625 40.375 
Q 26.375 40.375 22.484375 35.828125 
Q 18.609375 31.296875 18.609375 23.390625 
Q 18.609375 15.53125 22.484375 10.953125 
Q 26.375 6.390625 33.015625 6.390625 
Q 39.65625 6.390625 43.53125 10.953125 
Q 47.40625 15.53125 47.40625 23.390625 
Q 47.40625 31.296875 43.53125 35.828125 
Q 39.65625 40.375 33.015625 40.375 
z
M 52.59375 71.296875 
L 52.59375 62.3125 
Q 48.875 64.0625 45.09375 64.984375 
Q 41.3125 65.921875 37.59375 65.921875 
Q 27.828125 65.921875 22.671875 59.328125 
Q 17.53125 52.734375 16.796875 39.40625 
Q 19.671875 43.65625 24.015625 45.921875 
Q 28.375 48.1875 33.59375 48.1875 
Q 44.578125 48.1875 50.953125 41.515625 
Q 57.328125 34.859375 57.328125 23.390625 
Q 57.328125 12.15625 50.6875 5.359375 
Q 44.046875 -1.421875 33.015625 -1.421875 
Q 20.359375 -1.421875 13.671875 8.265625 
Q 6.984375 17.96875 6.984375 36.375 
Q 6.984375 53.65625 15.1875 63.9375 
Q 23.390625 74.21875 37.203125 74.21875 
Q 40.921875 74.21875 44.703125 73.484375 
Q 48.484375 72.75 52.59375 71.296875 
z
" id="DejaVuSans-36"/>
      </defs>
      <g transform="translate(174.704717 471.918437)scale(0.1 -0.1)">
       <use xlink:href="#DejaVuSans-32"/>
       <use x="63.623047" xlink:href="#DejaVuSans-36"/>
       <use x="127.246094" xlink:href="#DejaVuSans-30"/>
      </g>
     </g>
    </g>
    <g id="xtick_3">
     <g id="line2d_5">
      <path clip-path="url(#pca9b9136b2)" d="M 268.952742 457.32 
L 268.952742 22.44 
" style="fill:none;stroke:#b0b0b0;stroke-linecap:square;stroke-width:0.8;"/>
     </g>
     <g id="line2d_6">
      <g>
       <use style="stroke:#000000;stroke-width:0.8;" x="268.952742" xlink:href="#m399a78af55" y="457.32"/>
      </g>
     </g>
     <g id="text_3">
      <!-- 280 -->
      <defs>
       <path d="M 31.78125 34.625 
Q 24.75 34.625 20.71875 30.859375 
Q 16.703125 27.09375 16.703125 20.515625 
Q 16.703125 13.921875 20.71875 10.15625 
Q 24.75 6.390625 31.78125 6.390625 
Q 38.8125 6.390625 42.859375 10.171875 
Q 46.921875 13.96875 46.921875 20.515625 
Q 46.921875 27.09375 42.890625 30.859375 
Q 38.875 34.625 31.78125 34.625 
z
M 21.921875 38.8125 
Q 15.578125 40.375 12.03125 44.71875 
Q 8.5 49.078125 8.5 55.328125 
Q 8.5 64.0625 14.71875 69.140625 
Q 20.953125 74.21875 31.78125 74.21875 
Q 42.671875 74.21875 48.875 69.140625 
Q 55.078125 64.0625 55.078125 55.328125 
Q 55.078125 49.078125 51.53125 44.71875 
Q 48 40.375 41.703125 38.8125 
Q 48.828125 37.15625 52.796875 32.3125 
Q 56.78125 27.484375 56.78125 20.515625 
Q 56.78125 9.90625 50.3125 4.234375 
Q 43.84375 -1.421875 31.78125 -1.421875 
Q 19.734375 -1.421875 13.25 4.234375 
Q 6.78125 9.90625 6.78125 20.515625 
Q 6.78125 27.484375 10.78125 32.3125 
Q 14.796875 37.15625 21.921875 38.8125 
z
M 18.3125 54.390625 
Q 18.3125 48.734375 21.84375 45.5625 
Q 25.390625 42.390625 31.78125 42.390625 
Q 38.140625 42.390625 41.71875 45.5625 
Q 45.3125 48.734375 45.3125 54.390625 
Q 45.3125 60.0625 41.71875 63.234375 
Q 38.140625 66.40625 31.78125 66.40625 
Q 25.390625 66.40625 21.84375 63.234375 
Q 18.3125 60.0625 18.3125 54.390625 
z
" id="DejaVuSans-38"/>
      </defs>
      <g transform="translate(259.408992 471.918437)scale(0.1 -0.1)">
       <use xlink:href="#DejaVuSans-32"/>
       <use x="63.623047" xlink:href="#DejaVuSans-38"/>
       <use x="127.246094" xlink:href="#DejaVuSans-30"/>
      </g>
     </g>
    </g>
    <g id="xtick_4">
     <g id="line2d_7">
      <path clip-path="url(#pca9b9136b2)" d="M 353.657017 457.32 
L 353.657017 22.44 
" style="fill:none;stroke:#b0b0b0;stroke-linecap:square;stroke-width:0.8;"/>
     </g>
     <g id="line2d_8">
      <g>
       <use style="stroke:#000000;stroke-width:0.8;" x="353.657017" xlink:href="#m399a78af55" y="457.32"/>
      </g>
     </g>
     <g id="text_4">
      <!-- 300 -->
      <defs>
       <path d="M 40.578125 39.3125 
Q 47.65625 37.796875 51.625 33 
Q 55.609375 28.21875 55.609375 21.1875 
Q 55.609375 10.40625 48.1875 4.484375 
Q 40.765625 -1.421875 27.09375 -1.421875 
Q 22.515625 -1.421875 17.65625 -0.515625 
Q 12.796875 0.390625 7.625 2.203125 
L 7.625 11.71875 
Q 11.71875 9.328125 16.59375 8.109375 
Q 21.484375 6.890625 26.8125 6.890625 
Q 36.078125 6.890625 40.9375 10.546875 
Q 45.796875 14.203125 45.796875 21.1875 
Q 45.796875 27.640625 41.28125 31.265625 
Q 36.765625 34.90625 28.71875 34.90625 
L 20.21875 34.90625 
L 20.21875 43.015625 
L 29.109375 43.015625 
Q 36.375 43.015625 40.234375 45.921875 
Q 44.09375 48.828125 44.09375 54.296875 
Q 44.09375 59.90625 40.109375 62.90625 
Q 36.140625 65.921875 28.71875 65.921875 
Q 24.65625 65.921875 20.015625 65.03125 
Q 15.375 64.15625 9.8125 62.3125 
L 9.8125 71.09375 
Q 15.4375 72.65625 20.34375 73.4375 
Q 25.25 74.21875 29.59375 74.21875 
Q 40.828125 74.21875 47.359375 69.109375 
Q 53.90625 64.015625 53.90625 55.328125 
Q 53.90625 49.265625 50.4375 45.09375 
Q 46.96875 40.921875 40.578125 39.3125 
z
" id="DejaVuSans-33"/>
      </defs>
      <g transform="translate(344.113267 471.918437)scale(0.1 -0.1)">
       <use xlink:href="#DejaVuSans-33"/>
       <use x="63.623047" xlink:href="#DejaVuSans-30"/>
       <use x="127.246094" xlink:href="#DejaVuSans-30"/>
      </g>
     </g>
    </g>
    <g id="xtick_5">
     <g id="line2d_9">
      <path clip-path="url(#pca9b9136b2)" d="M 438.361292 457.32 
L 438.361292 22.44 
" style="fill:none;stroke:#b0b0b0;stroke-linecap:square;stroke-width:0.8;"/>
     </g>
     <g id="line2d_10">
      <g>
       <use style="stroke:#000000;stroke-width:0.8;" x="438.361292" xlink:href="#m399a78af55" y="457.32"/>
      </g>
     </g>
     <g id="text_5">
      <!-- 320 -->
      <g transform="translate(428.817542 471.918437)scale(0.1 -0.1)">
       <use xlink:href="#DejaVuSans-33"/>
       <use x="63.623047" xlink:href="#DejaVuSans-32"/>
       <use x="127.246094" xlink:href="#DejaVuSans-30"/>
      </g>
     </g>
    </g>
    <g id="xtick_6">
     <g id="line2d_11">
      <path clip-path="url(#pca9b9136b2)" d="M 523.065567 457.32 
L 523.065567 22.44 
" style="fill:none;stroke:#b0b0b0;stroke-linecap:square;stroke-width:0.8;"/>
     </g>
     <g id="line2d_12">
      <g>
       <use style="stroke:#000000;stroke-width:0.8;" x="523.065567" xlink:href="#m399a78af55" y="457.32"/>
      </g>
     </g>
     <g id="text_6">
      <!-- 340 -->
      <g transform="translate(513.521817 471.918437)scale(0.1 -0.1)">
       <use xlink:href="#DejaVuSans-33"/>
       <use x="63.623047" xlink:href="#DejaVuSans-34"/>
       <use x="127.246094" xlink:href="#DejaVuSans-30"/>
      </g>
     </g>
    </g>
    <g id="xtick_7">
     <g id="line2d_13">
      <path clip-path="url(#pca9b9136b2)" d="M 607.769842 457.32 
L 607.769842 22.44 
" style="fill:none;stroke:#b0b0b0;stroke-linecap:square;stroke-width:0.8;"/>
     </g>
     <g id="line2d_14">
      <g>
       <use style="stroke:#000000;stroke-width:0.8;" x="607.769842" xlink:href="#m399a78af55" y="457.32"/>
      </g>
     </g>
     <g id="text_7">
      <!-- 360 -->
      <g transform="translate(598.226092 471.918437)scale(0.1 -0.1)">
       <use xlink:href="#DejaVuSans-33"/>
       <use x="63.623047" xlink:href="#DejaVuSans-36"/>
       <use x="127.246094" xlink:href="#DejaVuSans-30"/>
      </g>
     </g>
    </g>
    <g id="xtick_8">
     <g id="line2d_15">
      <path clip-path="url(#pca9b9136b2)" d="M 692.474117 457.32 
L 692.474117 22.44 
" style="fill:none;stroke:#b0b0b0;stroke-linecap:square;stroke-width:0.8;"/>
     </g>
     <g id="line2d_16">
      <g>
       <use style="stroke:#000000;stroke-width:0.8;" x="692.474117" xlink:href="#m399a78af55" y="457.32"/>
      </g>
     </g>
     <g id="text_8">
      <!-- 380 -->
      <g transform="translate(682.930367 471.918437)scale(0.1 -0.1)">
       <use xlink:href="#DejaVuSans-33"/>
       <use x="63.623047" xlink:href="#DejaVuSans-38"/>
       <use x="127.246094" xlink:href="#DejaVuSans-30"/>
      </g>
     </g>
    </g>
    <g id="text_9">
     <!-- Temperatur [K] -->
     <defs>
      <path d="M -0.296875 72.90625 
L 61.375 72.90625 
L 61.375 64.59375 
L 35.5 64.59375 
L 35.5 0 
L 25.59375 0 
L 25.59375 64.59375 
L -0.296875 64.59375 
z
" id="DejaVuSans-54"/>
      <path d="M 56.203125 29.59375 
L 56.203125 25.203125 
L 14.890625 25.203125 
Q 15.484375 15.921875 20.484375 11.0625 
Q 25.484375 6.203125 34.421875 6.203125 
Q 39.59375 6.203125 44.453125 7.46875 
Q 49.3125 8.734375 54.109375 11.28125 
L 54.109375 2.78125 
Q 49.265625 0.734375 44.1875 -0.34375 
Q 39.109375 -1.421875 33.890625 -1.421875 
Q 20.796875 -1.421875 13.15625 6.1875 
Q 5.515625 13.8125 5.515625 26.8125 
Q 5.515625 40.234375 12.765625 48.109375 
Q 20.015625 56 32.328125 56 
Q 43.359375 56 49.78125 48.890625 
Q 56.203125 41.796875 56.203125 29.59375 
z
M 47.21875 32.234375 
Q 47.125 39.59375 43.09375 43.984375 
Q 39.0625 48.390625 32.421875 48.390625 
Q 24.90625 48.390625 20.390625 44.140625 
Q 15.875 39.890625 15.1875 32.171875 
z
" id="DejaVuSans-65"/>
      <path d="M 52 44.1875 
Q 55.375 50.25 60.0625 53.125 
Q 64.75 56 71.09375 56 
Q 79.640625 56 84.28125 50.015625 
Q 88.921875 44.046875 88.921875 33.015625 
L 88.921875 0 
L 79.890625 0 
L 79.890625 32.71875 
Q 79.890625 40.578125 77.09375 44.375 
Q 74.3125 48.1875 68.609375 48.1875 
Q 61.625 48.1875 57.5625 43.546875 
Q 53.515625 38.921875 53.515625 30.90625 
L 53.515625 0 
L 44.484375 0 
L 44.484375 32.71875 
Q 44.484375 40.625 41.703125 44.40625 
Q 38.921875 48.1875 33.109375 48.1875 
Q 26.21875 48.1875 22.15625 43.53125 
Q 18.109375 38.875 18.109375 30.90625 
L 18.109375 0 
L 9.078125 0 
L 9.078125 54.6875 
L 18.109375 54.6875 
L 18.109375 46.1875 
Q 21.1875 51.21875 25.484375 53.609375 
Q 29.78125 56 35.6875 56 
Q 41.65625 56 45.828125 52.96875 
Q 50 49.953125 52 44.1875 
z
" id="DejaVuSans-6d"/>
      <path d="M 18.109375 8.203125 
L 18.109375 -20.796875 
L 9.078125 -20.796875 
L 9.078125 54.6875 
L 18.109375 54.6875 
L 18.109375 46.390625 
Q 20.953125 51.265625 25.265625 53.625 
Q 29.59375 56 35.59375 56 
Q 45.5625 56 51.78125 48.09375 
Q 58.015625 40.1875 58.015625 27.296875 
Q 58.015625 14.40625 51.78125 6.484375 
Q 45.5625 -1.421875 35.59375 -1.421875 
Q 29.59375 -1.421875 25.265625 0.953125 
Q 20.953125 3.328125 18.109375 8.203125 
z
M 48.6875 27.296875 
Q 48.6875 37.203125 44.609375 42.84375 
Q 40.53125 48.484375 33.40625 48.484375 
Q 26.265625 48.484375 22.1875 42.84375 
Q 18.109375 37.203125 18.109375 27.296875 
Q 18.109375 17.390625 22.1875 11.75 
Q 26.265625 6.109375 33.40625 6.109375 
Q 40.53125 6.109375 44.609375 11.75 
Q 48.6875 17.390625 48.6875 27.296875 
z
" id="DejaVuSans-70"/>
      <path d="M 41.109375 46.296875 
Q 39.59375 47.171875 37.8125 47.578125 
Q 36.03125 48 33.890625 48 
Q 26.265625 48 22.1875 43.046875 
Q 18.109375 38.09375 18.109375 28.8125 
L 18.109375 0 
L 9.078125 0 
L 9.078125 54.6875 
L 18.109375 54.6875 
L 18.109375 46.1875 
Q 20.953125 51.171875 25.484375 53.578125 
Q 30.03125 56 36.53125 56 
Q 37.453125 56 38.578125 55.875 
Q 39.703125 55.765625 41.0625 55.515625 
z
" id="DejaVuSans-72"/>
      <path d="M 34.28125 27.484375 
Q 23.390625 27.484375 19.1875 25 
Q 14.984375 22.515625 14.984375 16.5 
Q 14.984375 11.71875 18.140625 8.90625 
Q 21.296875 6.109375 26.703125 6.109375 
Q 34.1875 6.109375 38.703125 11.40625 
Q 43.21875 16.703125 43.21875 25.484375 
L 43.21875 27.484375 
z
M 52.203125 31.203125 
L 52.203125 0 
L 43.21875 0 
L 43.21875 8.296875 
Q 40.140625 3.328125 35.546875 0.953125 
Q 30.953125 -1.421875 24.3125 -1.421875 
Q 15.921875 -1.421875 10.953125 3.296875 
Q 6 8.015625 6 15.921875 
Q 6 25.140625 12.171875 29.828125 
Q 18.359375 34.515625 30.609375 34.515625 
L 43.21875 34.515625 
L 43.21875 35.40625 
Q 43.21875 41.609375 39.140625 45 
Q 35.0625 48.390625 27.6875 48.390625 
Q 23 48.390625 18.546875 47.265625 
Q 14.109375 46.140625 10.015625 43.890625 
L 10.015625 52.203125 
Q 14.9375 54.109375 19.578125 55.046875 
Q 24.21875 56 28.609375 56 
Q 40.484375 56 46.34375 49.84375 
Q 52.203125 43.703125 52.203125 31.203125 
z
" id="DejaVuSans-61"/>
      <path d="M 18.3125 70.21875 
L 18.3125 54.6875 
L 36.8125 54.6875 
L 36.8125 47.703125 
L 18.3125 47.703125 
L 18.3125 18.015625 
Q 18.3125 11.328125 20.140625 9.421875 
Q 21.96875 7.515625 27.59375 7.515625 
L 36.8125 7.515625 
L 36.8125 0 
L 27.59375 0 
Q 17.1875 0 13.234375 3.875 
Q 9.28125 7.765625 9.28125 18.015625 
L 9.28125 47.703125 
L 2.6875 47.703125 
L 2.6875 54.6875 
L 9.28125 54.6875 
L 9.28125 70.21875 
z
" id="DejaVuSans-74"/>
      <path d="M 8.5 21.578125 
L 8.5 54.6875 
L 17.484375 54.6875 
L 17.484375 21.921875 
Q 17.484375 14.15625 20.5 10.265625 
Q 23.53125 6.390625 29.59375 6.390625 
Q 36.859375 6.390625 41.078125 11.03125 
Q 45.3125 15.671875 45.3125 23.6875 
L 45.3125 54.6875 
L 54.296875 54.6875 
L 54.296875 0 
L 45.3125 0 
L 45.3125 8.40625 
Q 42.046875 3.421875 37.71875 1 
Q 33.40625 -1.421875 27.6875 -1.421875 
Q 18.265625 -1.421875 13.375 4.4375 
Q 8.5 10.296875 8.5 21.578125 
z
M 31.109375 56 
z
" id="DejaVuSans-75"/>
      <path id="DejaVuSans-20"/>
      <path d="M 8.59375 75.984375 
L 29.296875 75.984375 
L 29.296875 69 
L 17.578125 69 
L 17.578125 -6.203125 
L 29.296875 -6.203125 
L 29.296875 -13.1875 
L 8.59375 -13.1875 
z
" id="DejaVuSans-5b"/>
      <path d="M 9.8125 72.90625 
L 19.671875 72.90625 
L 19.671875 42.09375 
L 52.390625 72.90625 
L 65.09375 72.90625 
L 28.90625 38.921875 
L 67.671875 0 
L 54.6875 0 
L 19.671875 35.109375 
L 19.671875 0 
L 9.8125 0 
z
" id="DejaVuSans-4b"/>
      <path d="M 30.421875 75.984375 
L 30.421875 -13.1875 
L 9.71875 -13.1875 
L 9.71875 -6.203125 
L 21.390625 -6.203125 
L 21.390625 69 
L 9.71875 69 
L 9.71875 75.984375 
z
" id="DejaVuSans-5d"/>
     </defs>
     <g transform="translate(340.269531 485.596562)scale(0.1 -0.1)">
      <use xlink:href="#DejaVuSans-54"/>
      <use x="60.818359" xlink:href="#DejaVuSans-65"/>
      <use x="122.341797" xlink:href="#DejaVuSans-6d"/>
      <use x="219.753906" xlink:href="#DejaVuSans-70"/>
      <use x="283.230469" xlink:href="#DejaVuSans-65"/>
      <use x="344.753906" xlink:href="#DejaVuSans-72"/>
      <use x="385.867188" xlink:href="#DejaVuSans-61"/>
      <use x="447.146484" xlink:href="#DejaVuSans-74"/>
      <use x="486.355469" xlink:href="#DejaVuSans-75"/>
      <use x="549.734375" xlink:href="#DejaVuSans-72"/>
      <use x="590.847656" xlink:href="#DejaVuSans-20"/>
      <use x="622.634766" xlink:href="#DejaVuSans-5b"/>
      <use x="661.648438" xlink:href="#DejaVuSans-4b"/>
      <use x="727.224609" xlink:href="#DejaVuSans-5d"/>
     </g>
    </g>
   </g>
   <g id="matplotlib.axis_2">
    <g id="ytick_1">
     <g id="line2d_17">
      <path clip-path="url(#pca9b9136b2)" d="M 43.78125 413.242213 
L 713.38125 413.242213 
" style="fill:none;stroke:#b0b0b0;stroke-linecap:square;stroke-width:0.8;"/>
     </g>
     <g id="line2d_18">
      <defs>
       <path d="M 0 0 
L -3.5 0 
" id="maf2dfd13fe" style="stroke:#000000;stroke-width:0.8;"/>
      </defs>
      <g>
       <use style="stroke:#000000;stroke-width:0.8;" x="43.78125" xlink:href="#maf2dfd13fe" y="413.242213"/>
      </g>
     </g>
     <g id="text_10">
      <!-- 0.6 -->
      <defs>
       <path d="M 10.6875 12.40625 
L 21 12.40625 
L 21 0 
L 10.6875 0 
z
" id="DejaVuSans-2e"/>
      </defs>
      <g transform="translate(20.878125 417.041431)scale(0.1 -0.1)">
       <use xlink:href="#DejaVuSans-30"/>
       <use x="63.623047" xlink:href="#DejaVuSans-2e"/>
       <use x="95.410156" xlink:href="#DejaVuSans-36"/>
      </g>
     </g>
    </g>
    <g id="ytick_2">
     <g id="line2d_19">
      <path clip-path="url(#pca9b9136b2)" d="M 43.78125 327.036836 
L 713.38125 327.036836 
" style="fill:none;stroke:#b0b0b0;stroke-linecap:square;stroke-width:0.8;"/>
     </g>
     <g id="line2d_20">
      <g>
       <use style="stroke:#000000;stroke-width:0.8;" x="43.78125" xlink:href="#maf2dfd13fe" y="327.036836"/>
      </g>
     </g>
     <g id="text_11">
      <!-- 0.7 -->
      <defs>
       <path d="M 8.203125 72.90625 
L 55.078125 72.90625 
L 55.078125 68.703125 
L 28.609375 0 
L 18.3125 0 
L 43.21875 64.59375 
L 8.203125 64.59375 
z
" id="DejaVuSans-37"/>
      </defs>
      <g transform="translate(20.878125 330.836055)scale(0.1 -0.1)">
       <use xlink:href="#DejaVuSans-30"/>
       <use x="63.623047" xlink:href="#DejaVuSans-2e"/>
       <use x="95.410156" xlink:href="#DejaVuSans-37"/>
      </g>
     </g>
    </g>
    <g id="ytick_3">
     <g id="line2d_21">
      <path clip-path="url(#pca9b9136b2)" d="M 43.78125 240.831459 
L 713.38125 240.831459 
" style="fill:none;stroke:#b0b0b0;stroke-linecap:square;stroke-width:0.8;"/>
     </g>
     <g id="line2d_22">
      <g>
       <use style="stroke:#000000;stroke-width:0.8;" x="43.78125" xlink:href="#maf2dfd13fe" y="240.831459"/>
      </g>
     </g>
     <g id="text_12">
      <!-- 0.8 -->
      <g transform="translate(20.878125 244.630678)scale(0.1 -0.1)">
       <use xlink:href="#DejaVuSans-30"/>
       <use x="63.623047" xlink:href="#DejaVuSans-2e"/>
       <use x="95.410156" xlink:href="#DejaVuSans-38"/>
      </g>
     </g>
    </g>
    <g id="ytick_4">
     <g id="line2d_23">
      <path clip-path="url(#pca9b9136b2)" d="M 43.78125 154.626083 
L 713.38125 154.626083 
" style="fill:none;stroke:#b0b0b0;stroke-linecap:square;stroke-width:0.8;"/>
     </g>
     <g id="line2d_24">
      <g>
       <use style="stroke:#000000;stroke-width:0.8;" x="43.78125" xlink:href="#maf2dfd13fe" y="154.626083"/>
      </g>
     </g>
     <g id="text_13">
      <!-- 0.9 -->
      <defs>
       <path d="M 10.984375 1.515625 
L 10.984375 10.5 
Q 14.703125 8.734375 18.5 7.8125 
Q 22.3125 6.890625 25.984375 6.890625 
Q 35.75 6.890625 40.890625 13.453125 
Q 46.046875 20.015625 46.78125 33.40625 
Q 43.953125 29.203125 39.59375 26.953125 
Q 35.25 24.703125 29.984375 24.703125 
Q 19.046875 24.703125 12.671875 31.3125 
Q 6.296875 37.9375 6.296875 49.421875 
Q 6.296875 60.640625 12.9375 67.421875 
Q 19.578125 74.21875 30.609375 74.21875 
Q 43.265625 74.21875 49.921875 64.515625 
Q 56.59375 54.828125 56.59375 36.375 
Q 56.59375 19.140625 48.40625 8.859375 
Q 40.234375 -1.421875 26.421875 -1.421875 
Q 22.703125 -1.421875 18.890625 -0.6875 
Q 15.09375 0.046875 10.984375 1.515625 
z
M 30.609375 32.421875 
Q 37.25 32.421875 41.125 36.953125 
Q 45.015625 41.5 45.015625 49.421875 
Q 45.015625 57.28125 41.125 61.84375 
Q 37.25 66.40625 30.609375 66.40625 
Q 23.96875 66.40625 20.09375 61.84375 
Q 16.21875 57.28125 16.21875 49.421875 
Q 16.21875 41.5 20.09375 36.953125 
Q 23.96875 32.421875 30.609375 32.421875 
z
" id="DejaVuSans-39"/>
      </defs>
      <g transform="translate(20.878125 158.425302)scale(0.1 -0.1)">
       <use xlink:href="#DejaVuSans-30"/>
       <use x="63.623047" xlink:href="#DejaVuSans-2e"/>
       <use x="95.410156" xlink:href="#DejaVuSans-39"/>
      </g>
     </g>
    </g>
    <g id="ytick_5">
     <g id="line2d_25">
      <path clip-path="url(#pca9b9136b2)" d="M 43.78125 68.420706 
L 713.38125 68.420706 
" style="fill:none;stroke:#b0b0b0;stroke-linecap:square;stroke-width:0.8;"/>
     </g>
     <g id="line2d_26">
      <g>
       <use style="stroke:#000000;stroke-width:0.8;" x="43.78125" xlink:href="#maf2dfd13fe" y="68.420706"/>
      </g>
     </g>
     <g id="text_14">
      <!-- 1.0 -->
      <defs>
       <path d="M 12.40625 8.296875 
L 28.515625 8.296875 
L 28.515625 63.921875 
L 10.984375 60.40625 
L 10.984375 69.390625 
L 28.421875 72.90625 
L 38.28125 72.90625 
L 38.28125 8.296875 
L 54.390625 8.296875 
L 54.390625 0 
L 12.40625 0 
z
" id="DejaVuSans-31"/>
      </defs>
      <g transform="translate(20.878125 72.219925)scale(0.1 -0.1)">
       <use xlink:href="#DejaVuSans-31"/>
       <use x="63.623047" xlink:href="#DejaVuSans-2e"/>
       <use x="95.410156" xlink:href="#DejaVuSans-30"/>
      </g>
     </g>
    </g>
    <g id="text_15">
     <!-- beta -->
     <defs>
      <path d="M 48.6875 27.296875 
Q 48.6875 37.203125 44.609375 42.84375 
Q 40.53125 48.484375 33.40625 48.484375 
Q 26.265625 48.484375 22.1875 42.84375 
Q 18.109375 37.203125 18.109375 27.296875 
Q 18.109375 17.390625 22.1875 11.75 
Q 26.265625 6.109375 33.40625 6.109375 
Q 40.53125 6.109375 44.609375 11.75 
Q 48.6875 17.390625 48.6875 27.296875 
z
M 18.109375 46.390625 
Q 20.953125 51.265625 25.265625 53.625 
Q 29.59375 56 35.59375 56 
Q 45.5625 56 51.78125 48.09375 
Q 58.015625 40.1875 58.015625 27.296875 
Q 58.015625 14.40625 51.78125 6.484375 
Q 45.5625 -1.421875 35.59375 -1.421875 
Q 29.59375 -1.421875 25.265625 0.953125 
Q 20.953125 3.328125 18.109375 8.203125 
L 18.109375 0 
L 9.078125 0 
L 9.078125 75.984375 
L 18.109375 75.984375 
z
" id="DejaVuSans-62"/>
     </defs>
     <g transform="translate(14.798438 251.155)rotate(-90)scale(0.1 -0.1)">
      <use xlink:href="#DejaVuSans-62"/>
      <use x="63.476562" xlink:href="#DejaVuSans-65"/>
      <use x="125" xlink:href="#DejaVuSans-74"/>
      <use x="164.208984" xlink:href="#DejaVuSans-61"/>
     </g>
    </g>
   </g>
   <g id="LineCollection_1">
    <path clip-path="url(#pca9b9136b2)" d="M 74.768191 422.646034 
L 74.768191 382.068889 
" style="fill:none;stroke:#1f77b4;stroke-width:1.5;"/>
    <path clip-path="url(#pca9b9136b2)" d="M 74.217614 436.558495 
L 74.217614 392.624793 
" style="fill:none;stroke:#1f77b4;stroke-width:1.5;"/>
    <path clip-path="url(#pca9b9136b2)" d="M 113.054524 437.552727 
L 113.054524 395.824907 
" style="fill:none;stroke:#1f77b4;stroke-width:1.5;"/>
    <path clip-path="url(#pca9b9136b2)" d="M 113.647454 427.051734 
L 113.647454 374.291053 
" style="fill:none;stroke:#1f77b4;stroke-width:1.5;"/>
    <path clip-path="url(#pca9b9136b2)" d="M 153.331407 419.712092 
L 153.331407 371.358429 
" style="fill:none;stroke:#1f77b4;stroke-width:1.5;"/>
    <path clip-path="url(#pca9b9136b2)" d="M 154.009041 425.880839 
L 154.009041 377.100765 
" style="fill:none;stroke:#1f77b4;stroke-width:1.5;"/>
    <path clip-path="url(#pca9b9136b2)" d="M 193.608289 412.912421 
L 193.608289 364.521864 
" style="fill:none;stroke:#1f77b4;stroke-width:1.5;"/>
    <path clip-path="url(#pca9b9136b2)" d="M 194.243571 407.702604 
L 194.243571 356.622261 
" style="fill:none;stroke:#1f77b4;stroke-width:1.5;"/>
    <path clip-path="url(#pca9b9136b2)" d="M 234.012229 405.155403 
L 234.012229 356.297526 
" style="fill:none;stroke:#1f77b4;stroke-width:1.5;"/>
    <path clip-path="url(#pca9b9136b2)" d="M 234.562806 413.555278 
L 234.562806 364.916363 
" style="fill:none;stroke:#1f77b4;stroke-width:1.5;"/>
    <path clip-path="url(#pca9b9136b2)" d="M 274.373816 414.577827 
L 274.373816 364.662705 
" style="fill:none;stroke:#1f77b4;stroke-width:1.5;"/>
    <path clip-path="url(#pca9b9136b2)" d="M 275.26321 410.219924 
L 275.26321 360.05991 
" style="fill:none;stroke:#1f77b4;stroke-width:1.5;"/>
   </g>
   <g id="LineCollection_2">
    <path clip-path="url(#pca9b9136b2)" d="M 275.686732 411.692545 
L 275.686732 359.786021 
" style="fill:none;stroke:#ff7f0e;stroke-width:1.5;"/>
    <path clip-path="url(#pca9b9136b2)" d="M 315.413037 417.914949 
L 315.413037 366.404553 
" style="fill:none;stroke:#ff7f0e;stroke-width:1.5;"/>
   </g>
   <g id="LineCollection_3">
    <path clip-path="url(#pca9b9136b2)" d="M 356.579315 386.898263 
L 356.579315 330.431489 
" style="fill:none;stroke:#2ca02c;stroke-width:1.5;"/>
    <path clip-path="url(#pca9b9136b2)" d="M 357.002836 399.978162 
L 357.002836 341.441959 
" style="fill:none;stroke:#2ca02c;stroke-width:1.5;"/>
    <path clip-path="url(#pca9b9136b2)" d="M 396.136211 408.775441 
L 396.136211 352.506401 
" style="fill:none;stroke:#2ca02c;stroke-width:1.5;"/>
    <path clip-path="url(#pca9b9136b2)" d="M 397.533832 405.382293 
L 397.533832 349.380234 
" style="fill:none;stroke:#2ca02c;stroke-width:1.5;"/>
   </g>
   <g id="LineCollection_4">
    <path clip-path="url(#pca9b9136b2)" d="M 581.087996 237.577403 
L 581.087996 180.021537 
" style="fill:none;stroke:#d62728;stroke-width:1.5;"/>
    <path clip-path="url(#pca9b9136b2)" d="M 560.886026 253.595011 
L 560.886026 227.879875 
" style="fill:none;stroke:#d62728;stroke-width:1.5;"/>
    <path clip-path="url(#pca9b9136b2)" d="M 540.429944 307.614554 
L 540.429944 291.304732 
" style="fill:none;stroke:#d62728;stroke-width:1.5;"/>
    <path clip-path="url(#pca9b9136b2)" d="M 520.227974 334.838655 
L 520.227974 320.024034 
" style="fill:none;stroke:#d62728;stroke-width:1.5;"/>
    <path clip-path="url(#pca9b9136b2)" d="M 500.322469 345.124969 
L 500.322469 329.183147 
" style="fill:none;stroke:#d62728;stroke-width:1.5;"/>
    <path clip-path="url(#pca9b9136b2)" d="M 479.696978 338.66449 
L 479.696978 320.933913 
" style="fill:none;stroke:#d62728;stroke-width:1.5;"/>
    <path clip-path="url(#pca9b9136b2)" d="M 459.410304 330.293423 
L 459.410304 310.190619 
" style="fill:none;stroke:#d62728;stroke-width:1.5;"/>
    <path clip-path="url(#pca9b9136b2)" d="M 439.038926 322.760584 
L 439.038926 300.299926 
" style="fill:none;stroke:#d62728;stroke-width:1.5;"/>
    <path clip-path="url(#pca9b9136b2)" d="M 418.455787 324.934866 
L 418.455787 302.068436 
" style="fill:none;stroke:#d62728;stroke-width:1.5;"/>
    <path clip-path="url(#pca9b9136b2)" d="M 398.211466 331.909426 
L 398.211466 309.567883 
" style="fill:none;stroke:#d62728;stroke-width:1.5;"/>
   </g>
   <g id="LineCollection_5">
    <path clip-path="url(#pca9b9136b2)" d="M 681.928435 194.632943 
L 681.928435 159.294242 
" style="fill:none;stroke:#9467bd;stroke-width:1.5;"/>
    <path clip-path="url(#pca9b9136b2)" d="M 682.140196 246.29528 
L 682.140196 189.660501 
" style="fill:none;stroke:#9467bd;stroke-width:1.5;"/>
    <path clip-path="url(#pca9b9136b2)" d="M 666.342848 206.337412 
L 666.342848 175.974267 
" style="fill:none;stroke:#9467bd;stroke-width:1.5;"/>
    <path clip-path="url(#pca9b9136b2)" d="M 665.792271 217.219683 
L 665.792271 175.678063 
" style="fill:none;stroke:#9467bd;stroke-width:1.5;"/>
    <path clip-path="url(#pca9b9136b2)" d="M 654.018376 197.627176 
L 654.018376 168.376309 
" style="fill:none;stroke:#9467bd;stroke-width:1.5;"/>
    <path clip-path="url(#pca9b9136b2)" d="M 653.594855 177.234015 
L 653.594855 137.354065 
" style="fill:none;stroke:#9467bd;stroke-width:1.5;"/>
    <path clip-path="url(#pca9b9136b2)" d="M 641.820961 186.047342 
L 641.820961 152.333821 
" style="fill:none;stroke:#9467bd;stroke-width:1.5;"/>
    <path clip-path="url(#pca9b9136b2)" d="M 641.397439 203.620871 
L 641.397439 158.13688 
" style="fill:none;stroke:#9467bd;stroke-width:1.5;"/>
    <path clip-path="url(#pca9b9136b2)" d="M 633.47759 168.557099 
L 633.47759 128.972431 
" style="fill:none;stroke:#9467bd;stroke-width:1.5;"/>
    <path clip-path="url(#pca9b9136b2)" d="M 633.265829 146.060662 
L 633.265829 84.747179 
" style="fill:none;stroke:#9467bd;stroke-width:1.5;"/>
    <path clip-path="url(#pca9b9136b2)" d="M 625.388331 160.108146 
L 625.388331 111.326651 
" style="fill:none;stroke:#9467bd;stroke-width:1.5;"/>
    <path clip-path="url(#pca9b9136b2)" d="M 625.176571 213.054857 
L 625.176571 136.107597 
" style="fill:none;stroke:#9467bd;stroke-width:1.5;"/>
    <path clip-path="url(#pca9b9136b2)" d="M 617.214369 169.322189 
L 617.214369 116.477207 
" style="fill:none;stroke:#9467bd;stroke-width:1.5;"/>
    <path clip-path="url(#pca9b9136b2)" d="M 616.960256 189.974078 
L 616.960256 97.219933 
" style="fill:none;stroke:#9467bd;stroke-width:1.5;"/>
    <path clip-path="url(#pca9b9136b2)" d="M 608.998054 296.453579 
L 608.998054 230.343912 
" style="fill:none;stroke:#9467bd;stroke-width:1.5;"/>
    <path clip-path="url(#pca9b9136b2)" d="M 608.786294 268.60379 
L 608.786294 151.726949 
" style="fill:none;stroke:#9467bd;stroke-width:1.5;"/>
    <path clip-path="url(#pca9b9136b2)" d="M 600.824092 247.914726 
L 600.824092 176.062456 
" style="fill:none;stroke:#9467bd;stroke-width:1.5;"/>
    <path clip-path="url(#pca9b9136b2)" d="M 600.612331 177.274493 
L 600.612331 42.207273 
" style="fill:none;stroke:#9467bd;stroke-width:1.5;"/>
    <path clip-path="url(#pca9b9136b2)" d="M 588.838437 228.106025 
L 588.838437 156.156106 
" style="fill:none;stroke:#9467bd;stroke-width:1.5;"/>
    <path clip-path="url(#pca9b9136b2)" d="M 588.414915 228.108641 
L 588.414915 133.307372 
" style="fill:none;stroke:#9467bd;stroke-width:1.5;"/>
    <path clip-path="url(#pca9b9136b2)" d="M 576.725725 235.907957 
L 576.725725 170.320284 
" style="fill:none;stroke:#9467bd;stroke-width:1.5;"/>
    <path clip-path="url(#pca9b9136b2)" d="M 576.302204 231.797299 
L 576.302204 174.427733 
" style="fill:none;stroke:#9467bd;stroke-width:1.5;"/>
    <path clip-path="url(#pca9b9136b2)" d="M 564.613014 225.657637 
L 564.613014 165.869564 
" style="fill:none;stroke:#9467bd;stroke-width:1.5;"/>
    <path clip-path="url(#pca9b9136b2)" d="M 564.147141 258.191456 
L 564.147141 219.593081 
" style="fill:none;stroke:#9467bd;stroke-width:1.5;"/>
    <path clip-path="url(#pca9b9136b2)" d="M 552.457951 256.581162 
L 552.457951 199.937317 
" style="fill:none;stroke:#9467bd;stroke-width:1.5;"/>
    <path clip-path="url(#pca9b9136b2)" d="M 551.949725 272.131156 
L 551.949725 239.673186 
" style="fill:none;stroke:#9467bd;stroke-width:1.5;"/>
    <path clip-path="url(#pca9b9136b2)" d="M 540.387591 202.643283 
L 540.387591 134.516371 
" style="fill:none;stroke:#9467bd;stroke-width:1.5;"/>
    <path clip-path="url(#pca9b9136b2)" d="M 539.794662 279.121453 
L 539.794662 247.639385 
" style="fill:none;stroke:#9467bd;stroke-width:1.5;"/>
    <path clip-path="url(#pca9b9136b2)" d="M 528.063119 254.90344 
L 528.063119 137.638109 
" style="fill:none;stroke:#9467bd;stroke-width:1.5;"/>
    <path clip-path="url(#pca9b9136b2)" d="M 563.130689 278.735318 
L 563.130689 250.535961 
" style="fill:none;stroke:#9467bd;stroke-width:1.5;"/>
    <path clip-path="url(#pca9b9136b2)" d="M 564.020084 295.306492 
L 564.020084 249.996676 
" style="fill:none;stroke:#9467bd;stroke-width:1.5;"/>
    <path clip-path="url(#pca9b9136b2)" d="M 552.373246 293.147846 
L 552.373246 273.217862 
" style="fill:none;stroke:#9467bd;stroke-width:1.5;"/>
    <path clip-path="url(#pca9b9136b2)" d="M 551.907373 312.569426 
L 551.907373 281.567226 
" style="fill:none;stroke:#9467bd;stroke-width:1.5;"/>
    <path clip-path="url(#pca9b9136b2)" d="M 540.387591 340.26064 
L 540.387591 324.397269 
" style="fill:none;stroke:#9467bd;stroke-width:1.5;"/>
    <path clip-path="url(#pca9b9136b2)" d="M 539.752309 343.466156 
L 539.752309 319.99241 
" style="fill:none;stroke:#9467bd;stroke-width:1.5;"/>
    <path clip-path="url(#pca9b9136b2)" d="M 528.232528 349.163507 
L 528.232528 334.222199 
" style="fill:none;stroke:#9467bd;stroke-width:1.5;"/>
    <path clip-path="url(#pca9b9136b2)" d="M 527.639598 357.443158 
L 527.639598 338.546085 
" style="fill:none;stroke:#9467bd;stroke-width:1.5;"/>
   </g>
   <g id="LineCollection_6">
    <path clip-path="url(#pca9b9136b2)" d="M 682.944886 342.824216 
L 682.944886 211.416088 
" style="fill:none;stroke:#8c564b;stroke-width:1.5;"/>
    <path clip-path="url(#pca9b9136b2)" d="M 681.843731 286.621398 
L 681.843731 167.865783 
" style="fill:none;stroke:#8c564b;stroke-width:1.5;"/>
    <path clip-path="url(#pca9b9136b2)" d="M 662.234691 241.874834 
L 662.234691 162.510284 
" style="fill:none;stroke:#8c564b;stroke-width:1.5;"/>
    <path clip-path="url(#pca9b9136b2)" d="M 641.948017 220.489669 
L 641.948017 128.808547 
" style="fill:none;stroke:#8c564b;stroke-width:1.5;"/>
    <path clip-path="url(#pca9b9136b2)" d="M 621.830752 288.114518 
L 621.830752 140.119213 
" style="fill:none;stroke:#8c564b;stroke-width:1.5;"/>
    <path clip-path="url(#pca9b9136b2)" d="M 601.289965 285.308268 
L 601.289965 135.270838 
" style="fill:none;stroke:#8c564b;stroke-width:1.5;"/>
   </g>
   <g id="LineCollection_7">
    <path clip-path="url(#pca9b9136b2)" d="M 235.791018 403.751997 
L 235.791018 394.482598 
" style="fill:none;stroke:#e377c2;stroke-width:1.5;"/>
    <path clip-path="url(#pca9b9136b2)" d="M 235.240441 399.075534 
L 235.240441 389.630725 
" style="fill:none;stroke:#e377c2;stroke-width:1.5;"/>
    <path clip-path="url(#pca9b9136b2)" d="M 274.627928 392.437877 
L 274.627928 382.531364 
" style="fill:none;stroke:#e377c2;stroke-width:1.5;"/>
    <path clip-path="url(#pca9b9136b2)" d="M 275.64438 393.164856 
L 275.64438 384.035738 
" style="fill:none;stroke:#e377c2;stroke-width:1.5;"/>
    <path clip-path="url(#pca9b9136b2)" d="M 315.201276 390.092904 
L 315.201276 380.513819 
" style="fill:none;stroke:#e377c2;stroke-width:1.5;"/>
    <path clip-path="url(#pca9b9136b2)" d="M 316.26008 386.185043 
L 316.26008 375.972388 
" style="fill:none;stroke:#e377c2;stroke-width:1.5;"/>
    <path clip-path="url(#pca9b9136b2)" d="M 355.68992 382.505654 
L 355.68992 371.256139 
" style="fill:none;stroke:#e377c2;stroke-width:1.5;"/>
    <path clip-path="url(#pca9b9136b2)" d="M 356.748723 379.943067 
L 356.748723 371.852878 
" style="fill:none;stroke:#e377c2;stroke-width:1.5;"/>
    <path clip-path="url(#pca9b9136b2)" d="M 396.51738 372.141773 
L 396.51738 364.879733 
" style="fill:none;stroke:#e377c2;stroke-width:1.5;"/>
    <path clip-path="url(#pca9b9136b2)" d="M 397.322071 375.424854 
L 397.322071 368.281082 
" style="fill:none;stroke:#e377c2;stroke-width:1.5;"/>
    <path clip-path="url(#pca9b9136b2)" d="M 436.794263 380.208142 
L 436.794263 373.015389 
" style="fill:none;stroke:#e377c2;stroke-width:1.5;"/>
    <path clip-path="url(#pca9b9136b2)" d="M 437.895419 376.758238 
L 437.895419 369.2082 
" style="fill:none;stroke:#e377c2;stroke-width:1.5;"/>
    <path clip-path="url(#pca9b9136b2)" d="M 477.664076 393.280463 
L 477.664076 385.250221 
" style="fill:none;stroke:#e377c2;stroke-width:1.5;"/>
    <path clip-path="url(#pca9b9136b2)" d="M 478.553471 395.619879 
L 478.553471 387.770898 
" style="fill:none;stroke:#e377c2;stroke-width:1.5;"/>
   </g>
   <g id="LineCollection_8">
    <path clip-path="url(#pca9b9136b2)" d="M 377.840088 380.098095 
L 377.840088 372.621926 
" style="fill:none;stroke:#7f7f7f;stroke-width:1.5;"/>
    <path clip-path="url(#pca9b9136b2)" d="M 377.162453 378.926868 
L 377.162453 371.583347 
" style="fill:none;stroke:#7f7f7f;stroke-width:1.5;"/>
    <path clip-path="url(#pca9b9136b2)" d="M 396.390324 372.107232 
L 396.390324 364.553888 
" style="fill:none;stroke:#7f7f7f;stroke-width:1.5;"/>
    <path clip-path="url(#pca9b9136b2)" d="M 397.364423 378.851994 
L 397.364423 371.271456 
" style="fill:none;stroke:#7f7f7f;stroke-width:1.5;"/>
    <path clip-path="url(#pca9b9136b2)" d="M 416.380533 372.136103 
L 416.380533 364.806013 
" style="fill:none;stroke:#7f7f7f;stroke-width:1.5;"/>
    <path clip-path="url(#pca9b9136b2)" d="M 417.481688 375.602851 
L 417.481688 367.99296 
" style="fill:none;stroke:#7f7f7f;stroke-width:1.5;"/>
    <path clip-path="url(#pca9b9136b2)" d="M 437.006024 375.434831 
L 437.006024 367.593813 
" style="fill:none;stroke:#7f7f7f;stroke-width:1.5;"/>
    <path clip-path="url(#pca9b9136b2)" d="M 437.937771 375.467505 
L 437.937771 367.660484 
" style="fill:none;stroke:#7f7f7f;stroke-width:1.5;"/>
    <path clip-path="url(#pca9b9136b2)" d="M 457.250345 380.246035 
L 457.250345 372.23671 
" style="fill:none;stroke:#7f7f7f;stroke-width:1.5;"/>
    <path clip-path="url(#pca9b9136b2)" d="M 458.266797 379.225306 
L 458.266797 370.844336 
" style="fill:none;stroke:#7f7f7f;stroke-width:1.5;"/>
    <path clip-path="url(#pca9b9136b2)" d="M 477.537019 387.600427 
L 477.537019 379.494009 
" style="fill:none;stroke:#7f7f7f;stroke-width:1.5;"/>
    <path clip-path="url(#pca9b9136b2)" d="M 478.595823 386.564227 
L 478.595823 377.90017 
" style="fill:none;stroke:#7f7f7f;stroke-width:1.5;"/>
    <path clip-path="url(#pca9b9136b2)" d="M 497.908397 398.571884 
L 497.908397 389.517551 
" style="fill:none;stroke:#7f7f7f;stroke-width:1.5;"/>
    <path clip-path="url(#pca9b9136b2)" d="M 498.924849 402.897997 
L 498.924849 393.347441 
" style="fill:none;stroke:#7f7f7f;stroke-width:1.5;"/>
    <path clip-path="url(#pca9b9136b2)" d="M 518.195071 387.810828 
L 518.195071 376.428416 
" style="fill:none;stroke:#7f7f7f;stroke-width:1.5;"/>
    <path clip-path="url(#pca9b9136b2)" d="M 519.253875 390.056283 
L 519.253875 378.994321 
" style="fill:none;stroke:#7f7f7f;stroke-width:1.5;"/>
    <path clip-path="url(#pca9b9136b2)" d="M 538.439393 370.805765 
L 538.439393 355.650548 
" style="fill:none;stroke:#7f7f7f;stroke-width:1.5;"/>
    <path clip-path="url(#pca9b9136b2)" d="M 539.413492 370.410519 
L 539.413492 355.952466 
" style="fill:none;stroke:#7f7f7f;stroke-width:1.5;"/>
   </g>
   <g id="LineCollection_9">
    <path clip-path="url(#pca9b9136b2)" d="M 377.924792 380.509814 
L 377.924792 373.785506 
" style="fill:none;stroke:#bcbd22;stroke-width:1.5;"/>
    <path clip-path="url(#pca9b9136b2)" d="M 377.077749 375.932021 
L 377.077749 368.889848 
" style="fill:none;stroke:#bcbd22;stroke-width:1.5;"/>
    <path clip-path="url(#pca9b9136b2)" d="M 396.390324 378.921851 
L 396.390324 371.545614 
" style="fill:none;stroke:#bcbd22;stroke-width:1.5;"/>
    <path clip-path="url(#pca9b9136b2)" d="M 397.364423 376.445121 
L 397.364423 368.419234 
" style="fill:none;stroke:#bcbd22;stroke-width:1.5;"/>
    <path clip-path="url(#pca9b9136b2)" d="M 416.549941 373.822033 
L 416.549941 366.131327 
" style="fill:none;stroke:#bcbd22;stroke-width:1.5;"/>
    <path clip-path="url(#pca9b9136b2)" d="M 417.396984 376.978955 
L 417.396984 369.633218 
" style="fill:none;stroke:#bcbd22;stroke-width:1.5;"/>
    <path clip-path="url(#pca9b9136b2)" d="M 436.963672 372.623335 
L 436.963672 364.762526 
" style="fill:none;stroke:#bcbd22;stroke-width:1.5;"/>
    <path clip-path="url(#pca9b9136b2)" d="M 437.853066 370.308247 
L 437.853066 363.097958 
" style="fill:none;stroke:#bcbd22;stroke-width:1.5;"/>
    <path clip-path="url(#pca9b9136b2)" d="M 457.207993 376.111156 
L 457.207993 368.595041 
" style="fill:none;stroke:#bcbd22;stroke-width:1.5;"/>
    <path clip-path="url(#pca9b9136b2)" d="M 458.224445 382.898611 
L 458.224445 375.752663 
" style="fill:none;stroke:#bcbd22;stroke-width:1.5;"/>
   </g>
   <g id="line2d_27">
    <defs>
     <path d="M -3 3 
L 3 -3 
M -3 -3 
L 3 3 
" id="mb4f084a5f9" style="stroke:#1f77b4;"/>
    </defs>
    <g clip-path="url(#pca9b9136b2)">
     <use style="fill:#1f77b4;stroke:#1f77b4;" x="74.768191" xlink:href="#mb4f084a5f9" y="402.357461"/>
     <use style="fill:#1f77b4;stroke:#1f77b4;" x="74.217614" xlink:href="#mb4f084a5f9" y="414.591644"/>
     <use style="fill:#1f77b4;stroke:#1f77b4;" x="113.054524" xlink:href="#mb4f084a5f9" y="416.688817"/>
     <use style="fill:#1f77b4;stroke:#1f77b4;" x="113.647454" xlink:href="#mb4f084a5f9" y="400.671393"/>
     <use style="fill:#1f77b4;stroke:#1f77b4;" x="153.331407" xlink:href="#mb4f084a5f9" y="395.53526"/>
     <use style="fill:#1f77b4;stroke:#1f77b4;" x="154.009041" xlink:href="#mb4f084a5f9" y="401.490802"/>
     <use style="fill:#1f77b4;stroke:#1f77b4;" x="193.608289" xlink:href="#mb4f084a5f9" y="388.717142"/>
     <use style="fill:#1f77b4;stroke:#1f77b4;" x="194.243571" xlink:href="#mb4f084a5f9" y="382.162432"/>
     <use style="fill:#1f77b4;stroke:#1f77b4;" x="234.012229" xlink:href="#mb4f084a5f9" y="380.726464"/>
     <use style="fill:#1f77b4;stroke:#1f77b4;" x="234.562806" xlink:href="#mb4f084a5f9" y="389.235821"/>
     <use style="fill:#1f77b4;stroke:#1f77b4;" x="274.373816" xlink:href="#mb4f084a5f9" y="389.620266"/>
     <use style="fill:#1f77b4;stroke:#1f77b4;" x="275.26321" xlink:href="#mb4f084a5f9" y="385.139917"/>
    </g>
   </g>
   <g id="line2d_28">
    <defs>
     <path d="M -3 3 
L 3 -3 
M -3 -3 
L 3 3 
" id="m143173cb16" style="stroke:#ff7f0e;"/>
    </defs>
    <g clip-path="url(#pca9b9136b2)">
     <use style="fill:#ff7f0e;stroke:#ff7f0e;" x="275.686732" xlink:href="#m143173cb16" y="385.739283"/>
     <use style="fill:#ff7f0e;stroke:#ff7f0e;" x="315.413037" xlink:href="#m143173cb16" y="392.159751"/>
    </g>
   </g>
   <g id="line2d_29">
    <defs>
     <path d="M -3 3 
L 3 -3 
M -3 -3 
L 3 3 
" id="m5f43eff589" style="stroke:#2ca02c;"/>
    </defs>
    <g clip-path="url(#pca9b9136b2)">
     <use style="fill:#2ca02c;stroke:#2ca02c;" x="356.579315" xlink:href="#m5f43eff589" y="358.664876"/>
     <use style="fill:#2ca02c;stroke:#2ca02c;" x="357.002836" xlink:href="#m5f43eff589" y="370.71006"/>
     <use style="fill:#2ca02c;stroke:#2ca02c;" x="396.136211" xlink:href="#m5f43eff589" y="380.640921"/>
     <use style="fill:#2ca02c;stroke:#2ca02c;" x="397.533832" xlink:href="#m5f43eff589" y="377.381264"/>
    </g>
   </g>
   <g id="line2d_30">
    <defs>
     <path d="M -3 3 
L 3 -3 
M -3 -3 
L 3 3 
" id="mc6f786002c" style="stroke:#d62728;"/>
    </defs>
    <g clip-path="url(#pca9b9136b2)">
     <use style="fill:#d62728;stroke:#d62728;" x="581.087996" xlink:href="#mc6f786002c" y="208.79947"/>
     <use style="fill:#d62728;stroke:#d62728;" x="560.886026" xlink:href="#mc6f786002c" y="240.737443"/>
     <use style="fill:#d62728;stroke:#d62728;" x="540.429944" xlink:href="#mc6f786002c" y="299.459643"/>
     <use style="fill:#d62728;stroke:#d62728;" x="520.227974" xlink:href="#mc6f786002c" y="327.431345"/>
     <use style="fill:#d62728;stroke:#d62728;" x="500.322469" xlink:href="#mc6f786002c" y="337.154058"/>
     <use style="fill:#d62728;stroke:#d62728;" x="479.696978" xlink:href="#mc6f786002c" y="329.799202"/>
     <use style="fill:#d62728;stroke:#d62728;" x="459.410304" xlink:href="#mc6f786002c" y="320.242021"/>
     <use style="fill:#d62728;stroke:#d62728;" x="439.038926" xlink:href="#mc6f786002c" y="311.530255"/>
     <use style="fill:#d62728;stroke:#d62728;" x="418.455787" xlink:href="#mc6f786002c" y="313.501651"/>
     <use style="fill:#d62728;stroke:#d62728;" x="398.211466" xlink:href="#mc6f786002c" y="320.738655"/>
    </g>
   </g>
   <g id="line2d_31">
    <defs>
     <path d="M -3 3 
L 3 -3 
M -3 -3 
L 3 3 
" id="mb8a37cbea7" style="stroke:#9467bd;"/>
    </defs>
    <g clip-path="url(#pca9b9136b2)">
     <use style="fill:#9467bd;stroke:#9467bd;" x="681.928435" xlink:href="#mb8a37cbea7" y="176.963593"/>
     <use style="fill:#9467bd;stroke:#9467bd;" x="682.140196" xlink:href="#mb8a37cbea7" y="217.97789"/>
     <use style="fill:#9467bd;stroke:#9467bd;" x="666.342848" xlink:href="#mb8a37cbea7" y="191.155839"/>
     <use style="fill:#9467bd;stroke:#9467bd;" x="665.792271" xlink:href="#mb8a37cbea7" y="196.448873"/>
     <use style="fill:#9467bd;stroke:#9467bd;" x="654.018376" xlink:href="#mb8a37cbea7" y="183.001743"/>
     <use style="fill:#9467bd;stroke:#9467bd;" x="653.594855" xlink:href="#mb8a37cbea7" y="157.29404"/>
     <use style="fill:#9467bd;stroke:#9467bd;" x="641.820961" xlink:href="#mb8a37cbea7" y="169.190581"/>
     <use style="fill:#9467bd;stroke:#9467bd;" x="641.397439" xlink:href="#mb8a37cbea7" y="180.878875"/>
     <use style="fill:#9467bd;stroke:#9467bd;" x="633.47759" xlink:href="#mb8a37cbea7" y="148.764765"/>
     <use style="fill:#9467bd;stroke:#9467bd;" x="633.265829" xlink:href="#mb8a37cbea7" y="115.403921"/>
     <use style="fill:#9467bd;stroke:#9467bd;" x="625.388331" xlink:href="#mb8a37cbea7" y="135.717399"/>
     <use style="fill:#9467bd;stroke:#9467bd;" x="625.176571" xlink:href="#mb8a37cbea7" y="174.581227"/>
     <use style="fill:#9467bd;stroke:#9467bd;" x="617.214369" xlink:href="#mb8a37cbea7" y="142.899698"/>
     <use style="fill:#9467bd;stroke:#9467bd;" x="616.960256" xlink:href="#mb8a37cbea7" y="143.597005"/>
     <use style="fill:#9467bd;stroke:#9467bd;" x="608.998054" xlink:href="#mb8a37cbea7" y="263.398745"/>
     <use style="fill:#9467bd;stroke:#9467bd;" x="608.786294" xlink:href="#mb8a37cbea7" y="210.165369"/>
     <use style="fill:#9467bd;stroke:#9467bd;" x="600.824092" xlink:href="#mb8a37cbea7" y="211.988591"/>
     <use style="fill:#9467bd;stroke:#9467bd;" x="600.612331" xlink:href="#mb8a37cbea7" y="109.740883"/>
     <use style="fill:#9467bd;stroke:#9467bd;" x="588.838437" xlink:href="#mb8a37cbea7" y="192.131066"/>
     <use style="fill:#9467bd;stroke:#9467bd;" x="588.414915" xlink:href="#mb8a37cbea7" y="180.708006"/>
     <use style="fill:#9467bd;stroke:#9467bd;" x="576.725725" xlink:href="#mb8a37cbea7" y="203.114121"/>
     <use style="fill:#9467bd;stroke:#9467bd;" x="576.302204" xlink:href="#mb8a37cbea7" y="203.112516"/>
     <use style="fill:#9467bd;stroke:#9467bd;" x="564.613014" xlink:href="#mb8a37cbea7" y="195.763601"/>
     <use style="fill:#9467bd;stroke:#9467bd;" x="564.147141" xlink:href="#mb8a37cbea7" y="238.892269"/>
     <use style="fill:#9467bd;stroke:#9467bd;" x="552.457951" xlink:href="#mb8a37cbea7" y="228.259239"/>
     <use style="fill:#9467bd;stroke:#9467bd;" x="551.949725" xlink:href="#mb8a37cbea7" y="255.902171"/>
     <use style="fill:#9467bd;stroke:#9467bd;" x="540.387591" xlink:href="#mb8a37cbea7" y="168.579827"/>
     <use style="fill:#9467bd;stroke:#9467bd;" x="539.794662" xlink:href="#mb8a37cbea7" y="263.380419"/>
     <use style="fill:#9467bd;stroke:#9467bd;" x="528.063119" xlink:href="#mb8a37cbea7" y="196.270774"/>
     <use style="fill:#9467bd;stroke:#9467bd;" x="563.130689" xlink:href="#mb8a37cbea7" y="264.635639"/>
     <use style="fill:#9467bd;stroke:#9467bd;" x="564.020084" xlink:href="#mb8a37cbea7" y="272.651584"/>
     <use style="fill:#9467bd;stroke:#9467bd;" x="552.373246" xlink:href="#mb8a37cbea7" y="283.182854"/>
     <use style="fill:#9467bd;stroke:#9467bd;" x="551.907373" xlink:href="#mb8a37cbea7" y="297.068326"/>
     <use style="fill:#9467bd;stroke:#9467bd;" x="540.387591" xlink:href="#mb8a37cbea7" y="332.328954"/>
     <use style="fill:#9467bd;stroke:#9467bd;" x="539.752309" xlink:href="#mb8a37cbea7" y="331.729283"/>
     <use style="fill:#9467bd;stroke:#9467bd;" x="528.232528" xlink:href="#mb8a37cbea7" y="341.692853"/>
     <use style="fill:#9467bd;stroke:#9467bd;" x="527.639598" xlink:href="#mb8a37cbea7" y="347.994621"/>
    </g>
   </g>
   <g id="line2d_32">
    <defs>
     <path d="M -3 3 
L 3 -3 
M -3 -3 
L 3 3 
" id="m6ac1ee45d3" style="stroke:#8c564b;"/>
    </defs>
    <g clip-path="url(#pca9b9136b2)">
     <use style="fill:#8c564b;stroke:#8c564b;" x="682.944886" xlink:href="#m6ac1ee45d3" y="277.120152"/>
     <use style="fill:#8c564b;stroke:#8c564b;" x="681.843731" xlink:href="#m6ac1ee45d3" y="227.24359"/>
     <use style="fill:#8c564b;stroke:#8c564b;" x="662.234691" xlink:href="#m6ac1ee45d3" y="202.192559"/>
     <use style="fill:#8c564b;stroke:#8c564b;" x="641.948017" xlink:href="#m6ac1ee45d3" y="174.649108"/>
     <use style="fill:#8c564b;stroke:#8c564b;" x="621.830752" xlink:href="#m6ac1ee45d3" y="214.116865"/>
     <use style="fill:#8c564b;stroke:#8c564b;" x="601.289965" xlink:href="#m6ac1ee45d3" y="210.289553"/>
    </g>
   </g>
   <g id="line2d_33">
    <defs>
     <path d="M -3 3 
L 3 -3 
M -3 -3 
L 3 3 
" id="mb6e3370965" style="stroke:#e377c2;"/>
    </defs>
    <g clip-path="url(#pca9b9136b2)">
     <use style="fill:#e377c2;stroke:#e377c2;" x="235.791018" xlink:href="#mb6e3370965" y="399.117297"/>
     <use style="fill:#e377c2;stroke:#e377c2;" x="235.240441" xlink:href="#mb6e3370965" y="394.353129"/>
     <use style="fill:#e377c2;stroke:#e377c2;" x="274.627928" xlink:href="#mb6e3370965" y="387.48462"/>
     <use style="fill:#e377c2;stroke:#e377c2;" x="275.64438" xlink:href="#mb6e3370965" y="388.600297"/>
     <use style="fill:#e377c2;stroke:#e377c2;" x="315.201276" xlink:href="#mb6e3370965" y="385.303362"/>
     <use style="fill:#e377c2;stroke:#e377c2;" x="316.26008" xlink:href="#mb6e3370965" y="381.078715"/>
     <use style="fill:#e377c2;stroke:#e377c2;" x="355.68992" xlink:href="#mb6e3370965" y="376.880896"/>
     <use style="fill:#e377c2;stroke:#e377c2;" x="356.748723" xlink:href="#mb6e3370965" y="375.897973"/>
     <use style="fill:#e377c2;stroke:#e377c2;" x="396.51738" xlink:href="#mb6e3370965" y="368.510753"/>
     <use style="fill:#e377c2;stroke:#e377c2;" x="397.322071" xlink:href="#mb6e3370965" y="371.852968"/>
     <use style="fill:#e377c2;stroke:#e377c2;" x="436.794263" xlink:href="#mb6e3370965" y="376.611765"/>
     <use style="fill:#e377c2;stroke:#e377c2;" x="437.895419" xlink:href="#mb6e3370965" y="372.983219"/>
     <use style="fill:#e377c2;stroke:#e377c2;" x="477.664076" xlink:href="#mb6e3370965" y="389.265342"/>
     <use style="fill:#e377c2;stroke:#e377c2;" x="478.553471" xlink:href="#mb6e3370965" y="391.695388"/>
    </g>
   </g>
   <g id="line2d_34">
    <defs>
     <path d="M -3 3 
L 3 -3 
M -3 -3 
L 3 3 
" id="md47ac5cdf7" style="stroke:#7f7f7f;"/>
    </defs>
    <g clip-path="url(#pca9b9136b2)">
     <use style="fill:#7f7f7f;stroke:#7f7f7f;" x="377.840088" xlink:href="#md47ac5cdf7" y="376.360011"/>
     <use style="fill:#7f7f7f;stroke:#7f7f7f;" x="377.162453" xlink:href="#md47ac5cdf7" y="375.255107"/>
     <use style="fill:#7f7f7f;stroke:#7f7f7f;" x="396.390324" xlink:href="#md47ac5cdf7" y="368.33056"/>
     <use style="fill:#7f7f7f;stroke:#7f7f7f;" x="397.364423" xlink:href="#md47ac5cdf7" y="375.061725"/>
     <use style="fill:#7f7f7f;stroke:#7f7f7f;" x="416.380533" xlink:href="#md47ac5cdf7" y="368.471058"/>
     <use style="fill:#7f7f7f;stroke:#7f7f7f;" x="417.481688" xlink:href="#md47ac5cdf7" y="371.797905"/>
     <use style="fill:#7f7f7f;stroke:#7f7f7f;" x="437.006024" xlink:href="#md47ac5cdf7" y="371.514322"/>
     <use style="fill:#7f7f7f;stroke:#7f7f7f;" x="437.937771" xlink:href="#md47ac5cdf7" y="371.563994"/>
     <use style="fill:#7f7f7f;stroke:#7f7f7f;" x="457.250345" xlink:href="#md47ac5cdf7" y="376.241372"/>
     <use style="fill:#7f7f7f;stroke:#7f7f7f;" x="458.266797" xlink:href="#md47ac5cdf7" y="375.034821"/>
     <use style="fill:#7f7f7f;stroke:#7f7f7f;" x="477.537019" xlink:href="#md47ac5cdf7" y="383.547218"/>
     <use style="fill:#7f7f7f;stroke:#7f7f7f;" x="478.595823" xlink:href="#md47ac5cdf7" y="382.232199"/>
     <use style="fill:#7f7f7f;stroke:#7f7f7f;" x="497.908397" xlink:href="#md47ac5cdf7" y="394.044717"/>
     <use style="fill:#7f7f7f;stroke:#7f7f7f;" x="498.924849" xlink:href="#md47ac5cdf7" y="398.122719"/>
     <use style="fill:#7f7f7f;stroke:#7f7f7f;" x="518.195071" xlink:href="#md47ac5cdf7" y="382.119622"/>
     <use style="fill:#7f7f7f;stroke:#7f7f7f;" x="519.253875" xlink:href="#md47ac5cdf7" y="384.525302"/>
     <use style="fill:#7f7f7f;stroke:#7f7f7f;" x="538.439393" xlink:href="#md47ac5cdf7" y="363.228156"/>
     <use style="fill:#7f7f7f;stroke:#7f7f7f;" x="539.413492" xlink:href="#md47ac5cdf7" y="363.181493"/>
    </g>
   </g>
   <g id="line2d_35">
    <defs>
     <path d="M -3 3 
L 3 -3 
M -3 -3 
L 3 3 
" id="mf5df7fdf90" style="stroke:#bcbd22;"/>
    </defs>
    <g clip-path="url(#pca9b9136b2)">
     <use style="fill:#bcbd22;stroke:#bcbd22;" x="377.924792" xlink:href="#mf5df7fdf90" y="377.14766"/>
     <use style="fill:#bcbd22;stroke:#bcbd22;" x="377.077749" xlink:href="#mf5df7fdf90" y="372.410935"/>
     <use style="fill:#bcbd22;stroke:#bcbd22;" x="396.390324" xlink:href="#mf5df7fdf90" y="375.233733"/>
     <use style="fill:#bcbd22;stroke:#bcbd22;" x="397.364423" xlink:href="#mf5df7fdf90" y="372.432178"/>
     <use style="fill:#bcbd22;stroke:#bcbd22;" x="416.549941" xlink:href="#mf5df7fdf90" y="369.97668"/>
     <use style="fill:#bcbd22;stroke:#bcbd22;" x="417.396984" xlink:href="#mf5df7fdf90" y="373.306087"/>
     <use style="fill:#bcbd22;stroke:#bcbd22;" x="436.963672" xlink:href="#mf5df7fdf90" y="368.69293"/>
     <use style="fill:#bcbd22;stroke:#bcbd22;" x="437.853066" xlink:href="#mf5df7fdf90" y="366.703102"/>
     <use style="fill:#bcbd22;stroke:#bcbd22;" x="457.207993" xlink:href="#mf5df7fdf90" y="372.353098"/>
     <use style="fill:#bcbd22;stroke:#bcbd22;" x="458.224445" xlink:href="#mf5df7fdf90" y="379.325637"/>
    </g>
   </g>
   <g id="patch_3">
    <path d="M 43.78125 457.32 
L 43.78125 22.44 
" style="fill:none;stroke:#000000;stroke-linecap:square;stroke-linejoin:miter;stroke-width:0.8;"/>
   </g>
   <g id="patch_4">
    <path d="M 713.38125 457.32 
L 713.38125 22.44 
" style="fill:none;stroke:#000000;stroke-linecap:square;stroke-linejoin:miter;stroke-width:0.8;"/>
   </g>
   <g id="patch_5">
    <path d="M 43.78125 457.32 
L 713.38125 457.32 
" style="fill:none;stroke:#000000;stroke-linecap:square;stroke-linejoin:miter;stroke-width:0.8;"/>
   </g>
   <g id="patch_6">
    <path d="M 43.78125 22.44 
L 713.38125 22.44 
" style="fill:none;stroke:#000000;stroke-linecap:square;stroke-linejoin:miter;stroke-width:0.8;"/>
   </g>
   <g id="text_16">
    <!-- CRN $\beta_{T_1}$ -->
    <defs>
     <path d="M 64.40625 67.28125 
L 64.40625 56.890625 
Q 59.421875 61.53125 53.78125 63.8125 
Q 48.140625 66.109375 41.796875 66.109375 
Q 29.296875 66.109375 22.65625 58.46875 
Q 16.015625 50.828125 16.015625 36.375 
Q 16.015625 21.96875 22.65625 14.328125 
Q 29.296875 6.6875 41.796875 6.6875 
Q 48.140625 6.6875 53.78125 8.984375 
Q 59.421875 11.28125 64.40625 15.921875 
L 64.40625 5.609375 
Q 59.234375 2.09375 53.4375 0.328125 
Q 47.65625 -1.421875 41.21875 -1.421875 
Q 24.65625 -1.421875 15.125 8.703125 
Q 5.609375 18.84375 5.609375 36.375 
Q 5.609375 53.953125 15.125 64.078125 
Q 24.65625 74.21875 41.21875 74.21875 
Q 47.75 74.21875 53.53125 72.484375 
Q 59.328125 70.75 64.40625 67.28125 
z
" id="DejaVuSans-43"/>
     <path d="M 44.390625 34.1875 
Q 47.5625 33.109375 50.5625 29.59375 
Q 53.5625 26.078125 56.59375 19.921875 
L 66.609375 0 
L 56 0 
L 46.6875 18.703125 
Q 43.0625 26.03125 39.671875 28.421875 
Q 36.28125 30.8125 30.421875 30.8125 
L 19.671875 30.8125 
L 19.671875 0 
L 9.8125 0 
L 9.8125 72.90625 
L 32.078125 72.90625 
Q 44.578125 72.90625 50.734375 67.671875 
Q 56.890625 62.453125 56.890625 51.90625 
Q 56.890625 45.015625 53.6875 40.46875 
Q 50.484375 35.9375 44.390625 34.1875 
z
M 19.671875 64.796875 
L 19.671875 38.921875 
L 32.078125 38.921875 
Q 39.203125 38.921875 42.84375 42.21875 
Q 46.484375 45.515625 46.484375 51.90625 
Q 46.484375 58.296875 42.84375 61.546875 
Q 39.203125 64.796875 32.078125 64.796875 
z
" id="DejaVuSans-52"/>
     <path d="M 9.8125 72.90625 
L 23.09375 72.90625 
L 55.421875 11.921875 
L 55.421875 72.90625 
L 64.984375 72.90625 
L 64.984375 0 
L 51.703125 0 
L 19.390625 60.984375 
L 19.390625 0 
L 9.8125 0 
z
" id="DejaVuSans-4e"/>
     <path d="M 13.625 3.375 
L 8.9375 -20.796875 
L -0.09375 -20.796875 
L 14.5 54.34375 
Q 18.84375 76.609375 39.65625 76.609375 
Q 60.75 76.609375 57.171875 57.8125 
Q 54.734375 44.4375 45.21875 39.546875 
Q 58.015625 35.15625 55.515625 22.125 
Q 51.125 -1.078125 27.484375 -1.03125 
Q 17.140625 -0.984375 13.625 3.375 
z
M 15.921875 15.09375 
Q 19.671875 6.59375 29.296875 6.640625 
Q 43.359375 6.640625 46.34375 21.96875 
Q 49.03125 35.75 26.171875 34.671875 
L 27.78125 42.96875 
Q 45.453125 42.671875 48.53125 58.59375 
Q 50.640625 69.34375 39.203125 69.28125 
Q 26.421875 69.28125 23.484375 54.046875 
z
" id="DejaVuSans-Oblique-3b2"/>
     <path d="M 5.90625 72.90625 
L 67.578125 72.90625 
L 66.015625 64.59375 
L 39.984375 64.59375 
L 27.484375 0 
L 17.578125 0 
L 30.078125 64.59375 
L 4.296875 64.59375 
z
" id="DejaVuSans-Oblique-54"/>
    </defs>
    <g transform="translate(355.24125 16.44)scale(0.12 -0.12)">
     <use transform="translate(0 0.390625)" xlink:href="#DejaVuSans-43"/>
     <use transform="translate(69.824219 0.390625)" xlink:href="#DejaVuSans-52"/>
     <use transform="translate(139.306641 0.390625)" xlink:href="#DejaVuSans-4e"/>
     <use transform="translate(214.111328 0.390625)" xlink:href="#DejaVuSans-20"/>
     <use transform="translate(245.898438 0.390625)" xlink:href="#DejaVuSans-Oblique-3b2"/>
     <use transform="translate(309.716797 -16.015625)scale(0.7)" xlink:href="#DejaVuSans-Oblique-54"/>
     <use transform="translate(352.475586 -27.5)scale(0.49)" xlink:href="#DejaVuSans-31"/>
    </g>
   </g>
  </g>
 </g>
 <defs>
  <clipPath id="pca9b9136b2">
   <rect height="434.88" width="669.6" x="43.78125" y="22.44"/>
  </clipPath>
 </defs>
</svg>
