<?xml version="1.0" encoding="utf-8" standalone="no"?>
<!DOCTYPE svg PUBLIC "-//W3C//DTD SVG 1.1//EN"
  "http://www.w3.org/Graphics/SVG/1.1/DTD/svg11.dtd">
<!-- Created with matplotlib (http://matplotlib.org/) -->
<svg height="265.69625pt" version="1.1" viewBox="0 0 404.023437 265.69625" width="404.023437pt" xmlns="http://www.w3.org/2000/svg" xmlns:xlink="http://www.w3.org/1999/xlink">
 <defs>
  <style type="text/css">
*{stroke-linecap:butt;stroke-linejoin:round;}
  </style>
 </defs>
 <g id="figure_1">
  <g id="patch_1">
   <path d="M 0 265.69625 
L 404.023437 265.69625 
L 404.023437 0 
L 0 0 
z
" style="fill:#ffffff;"/>
  </g>
  <g id="axes_1">
   <g id="patch_2">
    <path d="M 58.523438 228.14 
L 393.323438 228.14 
L 393.323438 10.7 
L 58.523438 10.7 
z
" style="fill:#ffffff;"/>
   </g>
   <g id="PathCollection_1">
    <defs>
     <path d="M 0 3 
C 0.795609 3 1.55874 2.683901 2.12132 2.12132 
C 2.683901 1.55874 3 0.795609 3 0 
C 3 -0.795609 2.683901 -1.55874 2.12132 -2.12132 
C 1.55874 -2.683901 0.795609 -3 0 -3 
C -0.795609 -3 -1.55874 -2.683901 -2.12132 -2.12132 
C -2.683901 -1.55874 -3 -0.795609 -3 0 
C -3 0.795609 -2.683901 1.55874 -2.12132 2.12132 
C -1.55874 2.683901 -0.795609 3 0 3 
z
" id="m5da26de2fe" style="stroke:#1f77b4;"/>
    </defs>
    <g clip-path="url(#p2725133881)">
     <use style="fill:#1f77b4;stroke:#1f77b4;" x="76.741619" xlink:href="#m5da26de2fe" y="214.526158"/>
     <use style="fill:#1f77b4;stroke:#1f77b4;" x="89.173438" xlink:href="#m5da26de2fe" y="213.075683"/>
     <use style="fill:#1f77b4;stroke:#1f77b4;" x="101.605256" xlink:href="#m5da26de2fe" y="211.828853"/>
     <use style="fill:#1f77b4;stroke:#1f77b4;" x="114.037074" xlink:href="#m5da26de2fe" y="209.985188"/>
     <use style="fill:#1f77b4;stroke:#1f77b4;" x="126.468892" xlink:href="#m5da26de2fe" y="206.49311"/>
     <use style="fill:#1f77b4;stroke:#1f77b4;" x="138.90071" xlink:href="#m5da26de2fe" y="203.557898"/>
     <use style="fill:#1f77b4;stroke:#1f77b4;" x="151.332528" xlink:href="#m5da26de2fe" y="199.1779"/>
     <use style="fill:#1f77b4;stroke:#1f77b4;" x="163.764347" xlink:href="#m5da26de2fe" y="191.77275"/>
     <use style="fill:#1f77b4;stroke:#1f77b4;" x="176.196165" xlink:href="#m5da26de2fe" y="183.711314"/>
     <use style="fill:#1f77b4;stroke:#1f77b4;" x="188.627983" xlink:href="#m5da26de2fe" y="173.407706"/>
     <use style="fill:#1f77b4;stroke:#1f77b4;" x="201.059801" xlink:href="#m5da26de2fe" y="161.122883"/>
     <use style="fill:#1f77b4;stroke:#1f77b4;" x="213.491619" xlink:href="#m5da26de2fe" y="146.00391"/>
     <use style="fill:#1f77b4;stroke:#1f77b4;" x="225.923438" xlink:href="#m5da26de2fe" y="128.397158"/>
     <use style="fill:#1f77b4;stroke:#1f77b4;" x="238.355256" xlink:href="#m5da26de2fe" y="110.66624"/>
     <use style="fill:#1f77b4;stroke:#1f77b4;" x="250.787074" xlink:href="#m5da26de2fe" y="91.392254"/>
     <use style="fill:#1f77b4;stroke:#1f77b4;" x="263.218892" xlink:href="#m5da26de2fe" y="73.262907"/>
     <use style="fill:#1f77b4;stroke:#1f77b4;" x="275.65071" xlink:href="#m5da26de2fe" y="56.834923"/>
     <use style="fill:#1f77b4;stroke:#1f77b4;" x="288.082528" xlink:href="#m5da26de2fe" y="43.840735"/>
     <use style="fill:#1f77b4;stroke:#1f77b4;" x="300.514347" xlink:href="#m5da26de2fe" y="34.80306"/>
     <use style="fill:#1f77b4;stroke:#1f77b4;" x="312.946165" xlink:href="#m5da26de2fe" y="28.986229"/>
     <use style="fill:#1f77b4;stroke:#1f77b4;" x="325.377983" xlink:href="#m5da26de2fe" y="26.56623"/>
     <use style="fill:#1f77b4;stroke:#1f77b4;" x="337.809801" xlink:href="#m5da26de2fe" y="25.632341"/>
     <use style="fill:#1f77b4;stroke:#1f77b4;" x="350.241619" xlink:href="#m5da26de2fe" y="25.95448"/>
     <use style="fill:#1f77b4;stroke:#1f77b4;" x="362.673438" xlink:href="#m5da26de2fe" y="25.162821"/>
     <use style="fill:#1f77b4;stroke:#1f77b4;" x="375.105256" xlink:href="#m5da26de2fe" y="25.697627"/>
    </g>
   </g>
   <g id="PathCollection_2">
    <defs>
     <path d="M 0 3 
C 0.795609 3 1.55874 2.683901 2.12132 2.12132 
C 2.683901 1.55874 3 0.795609 3 0 
C 3 -0.795609 2.683901 -1.55874 2.12132 -2.12132 
C 1.55874 -2.683901 0.795609 -3 0 -3 
C -0.795609 -3 -1.55874 -2.683901 -2.12132 -2.12132 
C -2.683901 -1.55874 -3 -0.795609 -3 0 
C -3 0.795609 -2.683901 1.55874 -2.12132 2.12132 
C -1.55874 2.683901 -0.795609 3 0 3 
z
" id="m623f0c6851" style="stroke:#ff7f0e;"/>
    </defs>
    <g clip-path="url(#p2725133881)">
     <use style="fill:#ff7f0e;stroke:#ff7f0e;" x="76.741619" xlink:href="#m623f0c6851" y="215.341818"/>
     <use style="fill:#ff7f0e;stroke:#ff7f0e;" x="89.173438" xlink:href="#m623f0c6851" y="213.413012"/>
     <use style="fill:#ff7f0e;stroke:#ff7f0e;" x="101.605256" xlink:href="#m623f0c6851" y="212.673789"/>
     <use style="fill:#ff7f0e;stroke:#ff7f0e;" x="114.037074" xlink:href="#m623f0c6851" y="209.170636"/>
     <use style="fill:#ff7f0e;stroke:#ff7f0e;" x="126.468892" xlink:href="#m623f0c6851" y="207.51975"/>
     <use style="fill:#ff7f0e;stroke:#ff7f0e;" x="138.90071" xlink:href="#m623f0c6851" y="203.625208"/>
     <use style="fill:#ff7f0e;stroke:#ff7f0e;" x="151.332528" xlink:href="#m623f0c6851" y="198.992602"/>
     <use style="fill:#ff7f0e;stroke:#ff7f0e;" x="163.764347" xlink:href="#m623f0c6851" y="192.831947"/>
     <use style="fill:#ff7f0e;stroke:#ff7f0e;" x="176.196165" xlink:href="#m623f0c6851" y="184.966714"/>
     <use style="fill:#ff7f0e;stroke:#ff7f0e;" x="188.627983" xlink:href="#m623f0c6851" y="174.07493"/>
     <use style="fill:#ff7f0e;stroke:#ff7f0e;" x="201.059801" xlink:href="#m623f0c6851" y="161.910079"/>
     <use style="fill:#ff7f0e;stroke:#ff7f0e;" x="213.491619" xlink:href="#m623f0c6851" y="146.34949"/>
     <use style="fill:#ff7f0e;stroke:#ff7f0e;" x="225.923438" xlink:href="#m623f0c6851" y="129.937666"/>
     <use style="fill:#ff7f0e;stroke:#ff7f0e;" x="238.355256" xlink:href="#m623f0c6851" y="110.852322"/>
     <use style="fill:#ff7f0e;stroke:#ff7f0e;" x="250.787074" xlink:href="#m623f0c6851" y="91.707406"/>
     <use style="fill:#ff7f0e;stroke:#ff7f0e;" x="263.218892" xlink:href="#m623f0c6851" y="73.292454"/>
     <use style="fill:#ff7f0e;stroke:#ff7f0e;" x="275.65071" xlink:href="#m623f0c6851" y="56.54983"/>
     <use style="fill:#ff7f0e;stroke:#ff7f0e;" x="288.082528" xlink:href="#m623f0c6851" y="43.416024"/>
     <use style="fill:#ff7f0e;stroke:#ff7f0e;" x="300.514347" xlink:href="#m623f0c6851" y="34.435152"/>
     <use style="fill:#ff7f0e;stroke:#ff7f0e;" x="312.946165" xlink:href="#m623f0c6851" y="29.546187"/>
     <use style="fill:#ff7f0e;stroke:#ff7f0e;" x="325.377983" xlink:href="#m623f0c6851" y="26.907409"/>
     <use style="fill:#ff7f0e;stroke:#ff7f0e;" x="337.809801" xlink:href="#m623f0c6851" y="25.011712"/>
     <use style="fill:#ff7f0e;stroke:#ff7f0e;" x="350.241619" xlink:href="#m623f0c6851" y="25.494283"/>
     <use style="fill:#ff7f0e;stroke:#ff7f0e;" x="362.673438" xlink:href="#m623f0c6851" y="25.416778"/>
     <use style="fill:#ff7f0e;stroke:#ff7f0e;" x="375.105256" xlink:href="#m623f0c6851" y="25.110024"/>
    </g>
   </g>
   <g id="PathCollection_3">
    <defs>
     <path d="M 0 3 
C 0.795609 3 1.55874 2.683901 2.12132 2.12132 
C 2.683901 1.55874 3 0.795609 3 0 
C 3 -0.795609 2.683901 -1.55874 2.12132 -2.12132 
C 1.55874 -2.683901 0.795609 -3 0 -3 
C -0.795609 -3 -1.55874 -2.683901 -2.12132 -2.12132 
C -2.683901 -1.55874 -3 -0.795609 -3 0 
C -3 0.795609 -2.683901 1.55874 -2.12132 2.12132 
C -1.55874 2.683901 -0.795609 3 0 3 
z
" id="m895a55bf73" style="stroke:#2ca02c;"/>
    </defs>
    <g clip-path="url(#p2725133881)">
     <use style="fill:#2ca02c;stroke:#2ca02c;" x="76.741619" xlink:href="#m895a55bf73" y="215.184968"/>
     <use style="fill:#2ca02c;stroke:#2ca02c;" x="89.173438" xlink:href="#m895a55bf73" y="213.910121"/>
     <use style="fill:#2ca02c;stroke:#2ca02c;" x="101.605256" xlink:href="#m895a55bf73" y="212.043676"/>
     <use style="fill:#2ca02c;stroke:#2ca02c;" x="114.037074" xlink:href="#m895a55bf73" y="210.046388"/>
     <use style="fill:#2ca02c;stroke:#2ca02c;" x="126.468892" xlink:href="#m895a55bf73" y="206.844179"/>
     <use style="fill:#2ca02c;stroke:#2ca02c;" x="138.90071" xlink:href="#m895a55bf73" y="203.985913"/>
     <use style="fill:#2ca02c;stroke:#2ca02c;" x="151.332528" xlink:href="#m895a55bf73" y="199.836623"/>
     <use style="fill:#2ca02c;stroke:#2ca02c;" x="163.764347" xlink:href="#m895a55bf73" y="192.889652"/>
     <use style="fill:#2ca02c;stroke:#2ca02c;" x="176.196165" xlink:href="#m895a55bf73" y="184.80333"/>
     <use style="fill:#2ca02c;stroke:#2ca02c;" x="188.627983" xlink:href="#m895a55bf73" y="174.829945"/>
     <use style="fill:#2ca02c;stroke:#2ca02c;" x="201.059801" xlink:href="#m895a55bf73" y="162.043499"/>
     <use style="fill:#2ca02c;stroke:#2ca02c;" x="213.491619" xlink:href="#m895a55bf73" y="147.613717"/>
     <use style="fill:#2ca02c;stroke:#2ca02c;" x="225.923438" xlink:href="#m895a55bf73" y="130.41307"/>
     <use style="fill:#2ca02c;stroke:#2ca02c;" x="238.355256" xlink:href="#m895a55bf73" y="111.972497"/>
     <use style="fill:#2ca02c;stroke:#2ca02c;" x="250.787074" xlink:href="#m895a55bf73" y="92.236491"/>
     <use style="fill:#2ca02c;stroke:#2ca02c;" x="263.218892" xlink:href="#m895a55bf73" y="73.786937"/>
     <use style="fill:#2ca02c;stroke:#2ca02c;" x="275.65071" xlink:href="#m895a55bf73" y="56.801433"/>
     <use style="fill:#2ca02c;stroke:#2ca02c;" x="288.082528" xlink:href="#m895a55bf73" y="43.572177"/>
     <use style="fill:#2ca02c;stroke:#2ca02c;" x="300.514347" xlink:href="#m895a55bf73" y="35.333943"/>
     <use style="fill:#2ca02c;stroke:#2ca02c;" x="312.946165" xlink:href="#m895a55bf73" y="29.13565"/>
     <use style="fill:#2ca02c;stroke:#2ca02c;" x="325.377983" xlink:href="#m895a55bf73" y="26.992308"/>
     <use style="fill:#2ca02c;stroke:#2ca02c;" x="337.809801" xlink:href="#m895a55bf73" y="25.742993"/>
     <use style="fill:#2ca02c;stroke:#2ca02c;" x="350.241619" xlink:href="#m895a55bf73" y="25.51058"/>
     <use style="fill:#2ca02c;stroke:#2ca02c;" x="362.673438" xlink:href="#m895a55bf73" y="25.535916"/>
     <use style="fill:#2ca02c;stroke:#2ca02c;" x="375.105256" xlink:href="#m895a55bf73" y="25.242715"/>
    </g>
   </g>
   <g id="PathCollection_4">
    <defs>
     <path d="M 0 3 
C 0.795609 3 1.55874 2.683901 2.12132 2.12132 
C 2.683901 1.55874 3 0.795609 3 0 
C 3 -0.795609 2.683901 -1.55874 2.12132 -2.12132 
C 1.55874 -2.683901 0.795609 -3 0 -3 
C -0.795609 -3 -1.55874 -2.683901 -2.12132 -2.12132 
C -2.683901 -1.55874 -3 -0.795609 -3 0 
C -3 0.795609 -2.683901 1.55874 -2.12132 2.12132 
C -1.55874 2.683901 -0.795609 3 0 3 
z
" id="m5548c1e9e4" style="stroke:#d62728;"/>
    </defs>
    <g clip-path="url(#p2725133881)">
     <use style="fill:#d62728;stroke:#d62728;" x="76.741619" xlink:href="#m5548c1e9e4" y="214.693682"/>
     <use style="fill:#d62728;stroke:#d62728;" x="89.173438" xlink:href="#m5548c1e9e4" y="213.665156"/>
     <use style="fill:#d62728;stroke:#d62728;" x="101.605256" xlink:href="#m5548c1e9e4" y="212.128904"/>
     <use style="fill:#d62728;stroke:#d62728;" x="114.037074" xlink:href="#m5548c1e9e4" y="209.276919"/>
     <use style="fill:#d62728;stroke:#d62728;" x="126.468892" xlink:href="#m5548c1e9e4" y="206.316409"/>
     <use style="fill:#d62728;stroke:#d62728;" x="138.90071" xlink:href="#m5548c1e9e4" y="203.581628"/>
     <use style="fill:#d62728;stroke:#d62728;" x="151.332528" xlink:href="#m5548c1e9e4" y="199.181815"/>
     <use style="fill:#d62728;stroke:#d62728;" x="163.764347" xlink:href="#m5548c1e9e4" y="193.079024"/>
     <use style="fill:#d62728;stroke:#d62728;" x="176.196165" xlink:href="#m5548c1e9e4" y="184.531098"/>
     <use style="fill:#d62728;stroke:#d62728;" x="188.627983" xlink:href="#m5548c1e9e4" y="173.635475"/>
     <use style="fill:#d62728;stroke:#d62728;" x="201.059801" xlink:href="#m5548c1e9e4" y="161.241277"/>
     <use style="fill:#d62728;stroke:#d62728;" x="213.491619" xlink:href="#m5548c1e9e4" y="146.449276"/>
     <use style="fill:#d62728;stroke:#d62728;" x="225.923438" xlink:href="#m5548c1e9e4" y="129.471776"/>
     <use style="fill:#d62728;stroke:#d62728;" x="238.355256" xlink:href="#m5548c1e9e4" y="110.161701"/>
     <use style="fill:#d62728;stroke:#d62728;" x="250.787074" xlink:href="#m5548c1e9e4" y="91.038611"/>
     <use style="fill:#d62728;stroke:#d62728;" x="263.218892" xlink:href="#m5548c1e9e4" y="73.114086"/>
     <use style="fill:#d62728;stroke:#d62728;" x="275.65071" xlink:href="#m5548c1e9e4" y="56.369161"/>
     <use style="fill:#d62728;stroke:#d62728;" x="288.082528" xlink:href="#m5548c1e9e4" y="43.762423"/>
     <use style="fill:#d62728;stroke:#d62728;" x="300.514347" xlink:href="#m5548c1e9e4" y="34.037014"/>
     <use style="fill:#d62728;stroke:#d62728;" x="312.946165" xlink:href="#m5548c1e9e4" y="29.207493"/>
     <use style="fill:#d62728;stroke:#d62728;" x="325.377983" xlink:href="#m5548c1e9e4" y="26.555087"/>
     <use style="fill:#d62728;stroke:#d62728;" x="337.809801" xlink:href="#m5548c1e9e4" y="25.620532"/>
     <use style="fill:#d62728;stroke:#d62728;" x="350.241619" xlink:href="#m5548c1e9e4" y="25.331409"/>
     <use style="fill:#d62728;stroke:#d62728;" x="362.673438" xlink:href="#m5548c1e9e4" y="25.72852"/>
     <use style="fill:#d62728;stroke:#d62728;" x="375.105256" xlink:href="#m5548c1e9e4" y="25.633283"/>
    </g>
   </g>
   <g id="PathCollection_5">
    <defs>
     <path d="M 0 3 
C 0.795609 3 1.55874 2.683901 2.12132 2.12132 
C 2.683901 1.55874 3 0.795609 3 0 
C 3 -0.795609 2.683901 -1.55874 2.12132 -2.12132 
C 1.55874 -2.683901 0.795609 -3 0 -3 
C -0.795609 -3 -1.55874 -2.683901 -2.12132 -2.12132 
C -2.683901 -1.55874 -3 -0.795609 -3 0 
C -3 0.795609 -2.683901 1.55874 -2.12132 2.12132 
C -1.55874 2.683901 -0.795609 3 0 3 
z
" id="m036a98d0af" style="stroke:#9467bd;"/>
    </defs>
    <g clip-path="url(#p2725133881)">
     <use style="fill:#9467bd;stroke:#9467bd;" x="76.741619" xlink:href="#m036a98d0af" y="214.440455"/>
     <use style="fill:#9467bd;stroke:#9467bd;" x="89.173438" xlink:href="#m036a98d0af" y="212.971653"/>
     <use style="fill:#9467bd;stroke:#9467bd;" x="101.605256" xlink:href="#m036a98d0af" y="211.545445"/>
     <use style="fill:#9467bd;stroke:#9467bd;" x="114.037074" xlink:href="#m036a98d0af" y="209.364481"/>
     <use style="fill:#9467bd;stroke:#9467bd;" x="126.468892" xlink:href="#m036a98d0af" y="205.617282"/>
     <use style="fill:#9467bd;stroke:#9467bd;" x="138.90071" xlink:href="#m036a98d0af" y="201.344825"/>
     <use style="fill:#9467bd;stroke:#9467bd;" x="151.332528" xlink:href="#m036a98d0af" y="198.201009"/>
     <use style="fill:#9467bd;stroke:#9467bd;" x="163.764347" xlink:href="#m036a98d0af" y="191.758106"/>
     <use style="fill:#9467bd;stroke:#9467bd;" x="176.196165" xlink:href="#m036a98d0af" y="182.635723"/>
     <use style="fill:#9467bd;stroke:#9467bd;" x="188.627983" xlink:href="#m036a98d0af" y="171.382197"/>
     <use style="fill:#9467bd;stroke:#9467bd;" x="201.059801" xlink:href="#m036a98d0af" y="158.512302"/>
     <use style="fill:#9467bd;stroke:#9467bd;" x="213.491619" xlink:href="#m036a98d0af" y="142.911675"/>
     <use style="fill:#9467bd;stroke:#9467bd;" x="225.923438" xlink:href="#m036a98d0af" y="126.357531"/>
     <use style="fill:#9467bd;stroke:#9467bd;" x="238.355256" xlink:href="#m036a98d0af" y="106.539574"/>
     <use style="fill:#9467bd;stroke:#9467bd;" x="250.787074" xlink:href="#m036a98d0af" y="88.176006"/>
     <use style="fill:#9467bd;stroke:#9467bd;" x="263.218892" xlink:href="#m036a98d0af" y="69.534405"/>
     <use style="fill:#9467bd;stroke:#9467bd;" x="275.65071" xlink:href="#m036a98d0af" y="54.825361"/>
     <use style="fill:#9467bd;stroke:#9467bd;" x="288.082528" xlink:href="#m036a98d0af" y="41.795654"/>
     <use style="fill:#9467bd;stroke:#9467bd;" x="300.514347" xlink:href="#m036a98d0af" y="33.994295"/>
     <use style="fill:#9467bd;stroke:#9467bd;" x="312.946165" xlink:href="#m036a98d0af" y="29.528513"/>
     <use style="fill:#9467bd;stroke:#9467bd;" x="325.377983" xlink:href="#m036a98d0af" y="26.189551"/>
     <use style="fill:#9467bd;stroke:#9467bd;" x="337.809801" xlink:href="#m036a98d0af" y="25.699758"/>
     <use style="fill:#9467bd;stroke:#9467bd;" x="350.241619" xlink:href="#m036a98d0af" y="25.403265"/>
     <use style="fill:#9467bd;stroke:#9467bd;" x="362.673438" xlink:href="#m036a98d0af" y="25.068392"/>
     <use style="fill:#9467bd;stroke:#9467bd;" x="375.105256" xlink:href="#m036a98d0af" y="25.108679"/>
    </g>
   </g>
   <g id="PathCollection_6">
    <defs>
     <path d="M 0 3 
C 0.795609 3 1.55874 2.683901 2.12132 2.12132 
C 2.683901 1.55874 3 0.795609 3 0 
C 3 -0.795609 2.683901 -1.55874 2.12132 -2.12132 
C 1.55874 -2.683901 0.795609 -3 0 -3 
C -0.795609 -3 -1.55874 -2.683901 -2.12132 -2.12132 
C -2.683901 -1.55874 -3 -0.795609 -3 0 
C -3 0.795609 -2.683901 1.55874 -2.12132 2.12132 
C -1.55874 2.683901 -0.795609 3 0 3 
z
" id="md34fc3a566" style="stroke:#8c564b;"/>
    </defs>
    <g clip-path="url(#p2725133881)">
     <use style="fill:#8c564b;stroke:#8c564b;" x="76.741619" xlink:href="#md34fc3a566" y="212.56088"/>
     <use style="fill:#8c564b;stroke:#8c564b;" x="89.173438" xlink:href="#md34fc3a566" y="211.082012"/>
     <use style="fill:#8c564b;stroke:#8c564b;" x="101.605256" xlink:href="#md34fc3a566" y="209.336203"/>
     <use style="fill:#8c564b;stroke:#8c564b;" x="114.037074" xlink:href="#md34fc3a566" y="205.798084"/>
     <use style="fill:#8c564b;stroke:#8c564b;" x="126.468892" xlink:href="#md34fc3a566" y="201.697432"/>
     <use style="fill:#8c564b;stroke:#8c564b;" x="138.90071" xlink:href="#md34fc3a566" y="198.119884"/>
     <use style="fill:#8c564b;stroke:#8c564b;" x="151.332528" xlink:href="#md34fc3a566" y="192.330642"/>
     <use style="fill:#8c564b;stroke:#8c564b;" x="163.764347" xlink:href="#md34fc3a566" y="183.073269"/>
     <use style="fill:#8c564b;stroke:#8c564b;" x="176.196165" xlink:href="#md34fc3a566" y="173.176402"/>
     <use style="fill:#8c564b;stroke:#8c564b;" x="188.627983" xlink:href="#md34fc3a566" y="160.024989"/>
     <use style="fill:#8c564b;stroke:#8c564b;" x="201.059801" xlink:href="#md34fc3a566" y="146.10766"/>
     <use style="fill:#8c564b;stroke:#8c564b;" x="213.491619" xlink:href="#md34fc3a566" y="128.402873"/>
     <use style="fill:#8c564b;stroke:#8c564b;" x="225.923438" xlink:href="#md34fc3a566" y="111.263125"/>
     <use style="fill:#8c564b;stroke:#8c564b;" x="238.355256" xlink:href="#md34fc3a566" y="90.667377"/>
     <use style="fill:#8c564b;stroke:#8c564b;" x="250.787074" xlink:href="#md34fc3a566" y="73.628647"/>
     <use style="fill:#8c564b;stroke:#8c564b;" x="263.218892" xlink:href="#md34fc3a566" y="57.404732"/>
     <use style="fill:#8c564b;stroke:#8c564b;" x="275.65071" xlink:href="#md34fc3a566" y="44.766454"/>
     <use style="fill:#8c564b;stroke:#8c564b;" x="288.082528" xlink:href="#md34fc3a566" y="35.183592"/>
     <use style="fill:#8c564b;stroke:#8c564b;" x="300.514347" xlink:href="#md34fc3a566" y="30.054411"/>
     <use style="fill:#8c564b;stroke:#8c564b;" x="312.946165" xlink:href="#md34fc3a566" y="27.369464"/>
     <use style="fill:#8c564b;stroke:#8c564b;" x="325.377983" xlink:href="#md34fc3a566" y="25.829035"/>
     <use style="fill:#8c564b;stroke:#8c564b;" x="337.809801" xlink:href="#md34fc3a566" y="25.031689"/>
     <use style="fill:#8c564b;stroke:#8c564b;" x="350.241619" xlink:href="#md34fc3a566" y="25.279485"/>
     <use style="fill:#8c564b;stroke:#8c564b;" x="362.673438" xlink:href="#md34fc3a566" y="25.48936"/>
     <use style="fill:#8c564b;stroke:#8c564b;" x="375.105256" xlink:href="#md34fc3a566" y="25.607035"/>
    </g>
   </g>
   <g id="PathCollection_7">
    <defs>
     <path d="M 0 3 
C 0.795609 3 1.55874 2.683901 2.12132 2.12132 
C 2.683901 1.55874 3 0.795609 3 0 
C 3 -0.795609 2.683901 -1.55874 2.12132 -2.12132 
C 1.55874 -2.683901 0.795609 -3 0 -3 
C -0.795609 -3 -1.55874 -2.683901 -2.12132 -2.12132 
C -2.683901 -1.55874 -3 -0.795609 -3 0 
C -3 0.795609 -2.683901 1.55874 -2.12132 2.12132 
C -1.55874 2.683901 -0.795609 3 0 3 
z
" id="mdfd16b430b" style="stroke:#e377c2;"/>
    </defs>
    <g clip-path="url(#p2725133881)">
     <use style="fill:#e377c2;stroke:#e377c2;" x="76.741619" xlink:href="#mdfd16b430b" y="209.839695"/>
     <use style="fill:#e377c2;stroke:#e377c2;" x="89.173438" xlink:href="#mdfd16b430b" y="207.777667"/>
     <use style="fill:#e377c2;stroke:#e377c2;" x="101.605256" xlink:href="#mdfd16b430b" y="206.194733"/>
     <use style="fill:#e377c2;stroke:#e377c2;" x="114.037074" xlink:href="#mdfd16b430b" y="201.057751"/>
     <use style="fill:#e377c2;stroke:#e377c2;" x="126.468892" xlink:href="#mdfd16b430b" y="196.659999"/>
     <use style="fill:#e377c2;stroke:#e377c2;" x="138.90071" xlink:href="#mdfd16b430b" y="190.158269"/>
     <use style="fill:#e377c2;stroke:#e377c2;" x="151.332528" xlink:href="#mdfd16b430b" y="183.418601"/>
     <use style="fill:#e377c2;stroke:#e377c2;" x="163.764347" xlink:href="#mdfd16b430b" y="172.438082"/>
     <use style="fill:#e377c2;stroke:#e377c2;" x="176.196165" xlink:href="#mdfd16b430b" y="160.136535"/>
     <use style="fill:#e377c2;stroke:#e377c2;" x="188.627983" xlink:href="#mdfd16b430b" y="144.94226"/>
     <use style="fill:#e377c2;stroke:#e377c2;" x="201.059801" xlink:href="#mdfd16b430b" y="128.47563"/>
     <use style="fill:#e377c2;stroke:#e377c2;" x="213.491619" xlink:href="#mdfd16b430b" y="109.139256"/>
     <use style="fill:#e377c2;stroke:#e377c2;" x="225.923438" xlink:href="#mdfd16b430b" y="90.922652"/>
     <use style="fill:#e377c2;stroke:#e377c2;" x="238.355256" xlink:href="#mdfd16b430b" y="73.520836"/>
     <use style="fill:#e377c2;stroke:#e377c2;" x="250.787074" xlink:href="#mdfd16b430b" y="57.826577"/>
     <use style="fill:#e377c2;stroke:#e377c2;" x="263.218892" xlink:href="#mdfd16b430b" y="44.980063"/>
     <use style="fill:#e377c2;stroke:#e377c2;" x="275.65071" xlink:href="#mdfd16b430b" y="36.695122"/>
     <use style="fill:#e377c2;stroke:#e377c2;" x="288.082528" xlink:href="#mdfd16b430b" y="30.486897"/>
     <use style="fill:#e377c2;stroke:#e377c2;" x="300.514347" xlink:href="#mdfd16b430b" y="27.016746"/>
     <use style="fill:#e377c2;stroke:#e377c2;" x="312.946165" xlink:href="#mdfd16b430b" y="25.860004"/>
     <use style="fill:#e377c2;stroke:#e377c2;" x="325.377983" xlink:href="#mdfd16b430b" y="25.678679"/>
     <use style="fill:#e377c2;stroke:#e377c2;" x="337.809801" xlink:href="#mdfd16b430b" y="24.937584"/>
     <use style="fill:#e377c2;stroke:#e377c2;" x="350.241619" xlink:href="#mdfd16b430b" y="26.257065"/>
     <use style="fill:#e377c2;stroke:#e377c2;" x="362.673438" xlink:href="#mdfd16b430b" y="24.823125"/>
     <use style="fill:#e377c2;stroke:#e377c2;" x="375.105256" xlink:href="#mdfd16b430b" y="25.735114"/>
    </g>
   </g>
   <g id="PathCollection_8">
    <defs>
     <path d="M 0 3 
C 0.795609 3 1.55874 2.683901 2.12132 2.12132 
C 2.683901 1.55874 3 0.795609 3 0 
C 3 -0.795609 2.683901 -1.55874 2.12132 -2.12132 
C 1.55874 -2.683901 0.795609 -3 0 -3 
C -0.795609 -3 -1.55874 -2.683901 -2.12132 -2.12132 
C -2.683901 -1.55874 -3 -0.795609 -3 0 
C -3 0.795609 -2.683901 1.55874 -2.12132 2.12132 
C -1.55874 2.683901 -0.795609 3 0 3 
z
" id="m5878f369af" style="stroke:#7f7f7f;"/>
    </defs>
    <g clip-path="url(#p2725133881)">
     <use style="fill:#7f7f7f;stroke:#7f7f7f;" x="76.741619" xlink:href="#m5878f369af" y="208.304456"/>
     <use style="fill:#7f7f7f;stroke:#7f7f7f;" x="89.173438" xlink:href="#m5878f369af" y="205.017685"/>
     <use style="fill:#7f7f7f;stroke:#7f7f7f;" x="101.605256" xlink:href="#m5878f369af" y="201.715811"/>
     <use style="fill:#7f7f7f;stroke:#7f7f7f;" x="114.037074" xlink:href="#m5878f369af" y="195.835198"/>
     <use style="fill:#7f7f7f;stroke:#7f7f7f;" x="126.468892" xlink:href="#m5878f369af" y="190.060749"/>
     <use style="fill:#7f7f7f;stroke:#7f7f7f;" x="138.90071" xlink:href="#m5878f369af" y="182.75427"/>
     <use style="fill:#7f7f7f;stroke:#7f7f7f;" x="151.332528" xlink:href="#m5878f369af" y="171.948408"/>
     <use style="fill:#7f7f7f;stroke:#7f7f7f;" x="163.764347" xlink:href="#m5878f369af" y="159.189829"/>
     <use style="fill:#7f7f7f;stroke:#7f7f7f;" x="176.196165" xlink:href="#m5878f369af" y="143.737336"/>
     <use style="fill:#7f7f7f;stroke:#7f7f7f;" x="188.627983" xlink:href="#m5878f369af" y="126.462596"/>
     <use style="fill:#7f7f7f;stroke:#7f7f7f;" x="201.059801" xlink:href="#m5878f369af" y="107.483439"/>
     <use style="fill:#7f7f7f;stroke:#7f7f7f;" x="213.491619" xlink:href="#m5878f369af" y="88.992386"/>
     <use style="fill:#7f7f7f;stroke:#7f7f7f;" x="225.923438" xlink:href="#m5878f369af" y="70.387199"/>
     <use style="fill:#7f7f7f;stroke:#7f7f7f;" x="238.355256" xlink:href="#m5878f369af" y="55.732042"/>
     <use style="fill:#7f7f7f;stroke:#7f7f7f;" x="250.787074" xlink:href="#m5878f369af" y="43.063961"/>
     <use style="fill:#7f7f7f;stroke:#7f7f7f;" x="263.218892" xlink:href="#m5878f369af" y="35.604195"/>
     <use style="fill:#7f7f7f;stroke:#7f7f7f;" x="275.65071" xlink:href="#m5878f369af" y="29.412402"/>
     <use style="fill:#7f7f7f;stroke:#7f7f7f;" x="288.082528" xlink:href="#m5878f369af" y="27.38371"/>
     <use style="fill:#7f7f7f;stroke:#7f7f7f;" x="300.514347" xlink:href="#m5878f369af" y="25.986198"/>
     <use style="fill:#7f7f7f;stroke:#7f7f7f;" x="312.946165" xlink:href="#m5878f369af" y="26.200433"/>
     <use style="fill:#7f7f7f;stroke:#7f7f7f;" x="325.377983" xlink:href="#m5878f369af" y="26.402982"/>
     <use style="fill:#7f7f7f;stroke:#7f7f7f;" x="337.809801" xlink:href="#m5878f369af" y="26.103504"/>
     <use style="fill:#7f7f7f;stroke:#7f7f7f;" x="350.241619" xlink:href="#m5878f369af" y="24.781426"/>
     <use style="fill:#7f7f7f;stroke:#7f7f7f;" x="362.673438" xlink:href="#m5878f369af" y="24.292739"/>
     <use style="fill:#7f7f7f;stroke:#7f7f7f;" x="375.105256" xlink:href="#m5878f369af" y="24.823759"/>
    </g>
   </g>
   <g id="PathCollection_9">
    <defs>
     <path d="M 0 3 
C 0.795609 3 1.55874 2.683901 2.12132 2.12132 
C 2.683901 1.55874 3 0.795609 3 0 
C 3 -0.795609 2.683901 -1.55874 2.12132 -2.12132 
C 1.55874 -2.683901 0.795609 -3 0 -3 
C -0.795609 -3 -1.55874 -2.683901 -2.12132 -2.12132 
C -2.683901 -1.55874 -3 -0.795609 -3 0 
C -3 0.795609 -2.683901 1.55874 -2.12132 2.12132 
C -1.55874 2.683901 -0.795609 3 0 3 
z
" id="mede9221e87" style="stroke:#bcbd22;"/>
    </defs>
    <g clip-path="url(#p2725133881)">
     <use style="fill:#bcbd22;stroke:#bcbd22;" x="76.741619" xlink:href="#mede9221e87" y="203.540499"/>
     <use style="fill:#bcbd22;stroke:#bcbd22;" x="89.173438" xlink:href="#mede9221e87" y="200.894512"/>
     <use style="fill:#bcbd22;stroke:#bcbd22;" x="101.605256" xlink:href="#mede9221e87" y="196.870965"/>
     <use style="fill:#bcbd22;stroke:#bcbd22;" x="114.037074" xlink:href="#mede9221e87" y="189.399005"/>
     <use style="fill:#bcbd22;stroke:#bcbd22;" x="126.468892" xlink:href="#mede9221e87" y="180.701307"/>
     <use style="fill:#bcbd22;stroke:#bcbd22;" x="138.90071" xlink:href="#mede9221e87" y="170.600877"/>
     <use style="fill:#bcbd22;stroke:#bcbd22;" x="151.332528" xlink:href="#mede9221e87" y="155.99362"/>
     <use style="fill:#bcbd22;stroke:#bcbd22;" x="163.764347" xlink:href="#mede9221e87" y="139.820166"/>
     <use style="fill:#bcbd22;stroke:#bcbd22;" x="176.196165" xlink:href="#mede9221e87" y="121.415949"/>
     <use style="fill:#bcbd22;stroke:#bcbd22;" x="188.627983" xlink:href="#mede9221e87" y="101.187064"/>
     <use style="fill:#bcbd22;stroke:#bcbd22;" x="201.059801" xlink:href="#mede9221e87" y="82.630002"/>
     <use style="fill:#bcbd22;stroke:#bcbd22;" x="213.491619" xlink:href="#mede9221e87" y="63.384974"/>
     <use style="fill:#bcbd22;stroke:#bcbd22;" x="225.923438" xlink:href="#mede9221e87" y="48.733676"/>
     <use style="fill:#bcbd22;stroke:#bcbd22;" x="238.355256" xlink:href="#mede9221e87" y="38.876735"/>
     <use style="fill:#bcbd22;stroke:#bcbd22;" x="250.787074" xlink:href="#mede9221e87" y="32.822555"/>
     <use style="fill:#bcbd22;stroke:#bcbd22;" x="263.218892" xlink:href="#mede9221e87" y="29.037727"/>
     <use style="fill:#bcbd22;stroke:#bcbd22;" x="275.65071" xlink:href="#mede9221e87" y="27.313425"/>
     <use style="fill:#bcbd22;stroke:#bcbd22;" x="288.082528" xlink:href="#mede9221e87" y="27.535656"/>
     <use style="fill:#bcbd22;stroke:#bcbd22;" x="300.514347" xlink:href="#mede9221e87" y="26.30335"/>
     <use style="fill:#bcbd22;stroke:#bcbd22;" x="312.946165" xlink:href="#mede9221e87" y="25.928027"/>
     <use style="fill:#bcbd22;stroke:#bcbd22;" x="325.377983" xlink:href="#mede9221e87" y="25.740176"/>
     <use style="fill:#bcbd22;stroke:#bcbd22;" x="337.809801" xlink:href="#mede9221e87" y="25.553674"/>
     <use style="fill:#bcbd22;stroke:#bcbd22;" x="350.241619" xlink:href="#mede9221e87" y="24.55703"/>
     <use style="fill:#bcbd22;stroke:#bcbd22;" x="362.673438" xlink:href="#mede9221e87" y="24.132394"/>
     <use style="fill:#bcbd22;stroke:#bcbd22;" x="375.105256" xlink:href="#mede9221e87" y="23.572584"/>
    </g>
   </g>
   <g id="matplotlib.axis_1">
    <g id="xtick_1">
     <g id="line2d_1">
      <defs>
       <path d="M 0 0 
L 0 3.5 
" id="m5610d1f9bc" style="stroke:#000000;stroke-width:0.8;"/>
      </defs>
      <g>
       <use style="stroke:#000000;stroke-width:0.8;" x="124.160918" xlink:href="#m5610d1f9bc" y="228.14"/>
      </g>
     </g>
     <g id="text_1">
      <!-- $\mathdefault{10^{-4}}$ -->
      <defs>
       <path d="M 12.40625 8.296875 
L 28.515625 8.296875 
L 28.515625 63.921875 
L 10.984375 60.40625 
L 10.984375 69.390625 
L 28.421875 72.90625 
L 38.28125 72.90625 
L 38.28125 8.296875 
L 54.390625 8.296875 
L 54.390625 0 
L 12.40625 0 
z
" id="DejaVuSans-31"/>
       <path d="M 31.78125 66.40625 
Q 24.171875 66.40625 20.328125 58.90625 
Q 16.5 51.421875 16.5 36.375 
Q 16.5 21.390625 20.328125 13.890625 
Q 24.171875 6.390625 31.78125 6.390625 
Q 39.453125 6.390625 43.28125 13.890625 
Q 47.125 21.390625 47.125 36.375 
Q 47.125 51.421875 43.28125 58.90625 
Q 39.453125 66.40625 31.78125 66.40625 
z
M 31.78125 74.21875 
Q 44.046875 74.21875 50.515625 64.515625 
Q 56.984375 54.828125 56.984375 36.375 
Q 56.984375 17.96875 50.515625 8.265625 
Q 44.046875 -1.421875 31.78125 -1.421875 
Q 19.53125 -1.421875 13.0625 8.265625 
Q 6.59375 17.96875 6.59375 36.375 
Q 6.59375 54.828125 13.0625 64.515625 
Q 19.53125 74.21875 31.78125 74.21875 
z
" id="DejaVuSans-30"/>
       <path d="M 10.59375 35.5 
L 73.1875 35.5 
L 73.1875 27.203125 
L 10.59375 27.203125 
z
" id="DejaVuSans-2212"/>
       <path d="M 37.796875 64.3125 
L 12.890625 25.390625 
L 37.796875 25.390625 
z
M 35.203125 72.90625 
L 47.609375 72.90625 
L 47.609375 25.390625 
L 58.015625 25.390625 
L 58.015625 17.1875 
L 47.609375 17.1875 
L 47.609375 0 
L 37.796875 0 
L 37.796875 17.1875 
L 4.890625 17.1875 
L 4.890625 26.703125 
z
" id="DejaVuSans-34"/>
      </defs>
      <g transform="translate(112.410918 242.738437)scale(0.1 -0.1)">
       <use transform="translate(0 0.684375)" xlink:href="#DejaVuSans-31"/>
       <use transform="translate(63.623047 0.684375)" xlink:href="#DejaVuSans-30"/>
       <use transform="translate(128.203125 38.965625)scale(0.7)" xlink:href="#DejaVuSans-2212"/>
       <use transform="translate(186.855469 38.965625)scale(0.7)" xlink:href="#DejaVuSans-34"/>
      </g>
     </g>
    </g>
    <g id="xtick_2">
     <g id="line2d_2">
      <g>
       <use style="stroke:#000000;stroke-width:0.8;" x="192.002598" xlink:href="#m5610d1f9bc" y="228.14"/>
      </g>
     </g>
     <g id="text_2">
      <!-- $\mathdefault{10^{-3}}$ -->
      <defs>
       <path d="M 40.578125 39.3125 
Q 47.65625 37.796875 51.625 33 
Q 55.609375 28.21875 55.609375 21.1875 
Q 55.609375 10.40625 48.1875 4.484375 
Q 40.765625 -1.421875 27.09375 -1.421875 
Q 22.515625 -1.421875 17.65625 -0.515625 
Q 12.796875 0.390625 7.625 2.203125 
L 7.625 11.71875 
Q 11.71875 9.328125 16.59375 8.109375 
Q 21.484375 6.890625 26.8125 6.890625 
Q 36.078125 6.890625 40.9375 10.546875 
Q 45.796875 14.203125 45.796875 21.1875 
Q 45.796875 27.640625 41.28125 31.265625 
Q 36.765625 34.90625 28.71875 34.90625 
L 20.21875 34.90625 
L 20.21875 43.015625 
L 29.109375 43.015625 
Q 36.375 43.015625 40.234375 45.921875 
Q 44.09375 48.828125 44.09375 54.296875 
Q 44.09375 59.90625 40.109375 62.90625 
Q 36.140625 65.921875 28.71875 65.921875 
Q 24.65625 65.921875 20.015625 65.03125 
Q 15.375 64.15625 9.8125 62.3125 
L 9.8125 71.09375 
Q 15.4375 72.65625 20.34375 73.4375 
Q 25.25 74.21875 29.59375 74.21875 
Q 40.828125 74.21875 47.359375 69.109375 
Q 53.90625 64.015625 53.90625 55.328125 
Q 53.90625 49.265625 50.4375 45.09375 
Q 46.96875 40.921875 40.578125 39.3125 
z
" id="DejaVuSans-33"/>
      </defs>
      <g transform="translate(180.252598 242.738437)scale(0.1 -0.1)">
       <use transform="translate(0 0.765625)" xlink:href="#DejaVuSans-31"/>
       <use transform="translate(63.623047 0.765625)" xlink:href="#DejaVuSans-30"/>
       <use transform="translate(128.203125 39.046875)scale(0.7)" xlink:href="#DejaVuSans-2212"/>
       <use transform="translate(186.855469 39.046875)scale(0.7)" xlink:href="#DejaVuSans-33"/>
      </g>
     </g>
    </g>
    <g id="xtick_3">
     <g id="line2d_3">
      <g>
       <use style="stroke:#000000;stroke-width:0.8;" x="259.844277" xlink:href="#m5610d1f9bc" y="228.14"/>
      </g>
     </g>
     <g id="text_3">
      <!-- $\mathdefault{10^{-2}}$ -->
      <defs>
       <path d="M 19.1875 8.296875 
L 53.609375 8.296875 
L 53.609375 0 
L 7.328125 0 
L 7.328125 8.296875 
Q 12.9375 14.109375 22.625 23.890625 
Q 32.328125 33.6875 34.8125 36.53125 
Q 39.546875 41.84375 41.421875 45.53125 
Q 43.3125 49.21875 43.3125 52.78125 
Q 43.3125 58.59375 39.234375 62.25 
Q 35.15625 65.921875 28.609375 65.921875 
Q 23.96875 65.921875 18.8125 64.3125 
Q 13.671875 62.703125 7.8125 59.421875 
L 7.8125 69.390625 
Q 13.765625 71.78125 18.9375 73 
Q 24.125 74.21875 28.421875 74.21875 
Q 39.75 74.21875 46.484375 68.546875 
Q 53.21875 62.890625 53.21875 53.421875 
Q 53.21875 48.921875 51.53125 44.890625 
Q 49.859375 40.875 45.40625 35.40625 
Q 44.1875 33.984375 37.640625 27.21875 
Q 31.109375 20.453125 19.1875 8.296875 
z
" id="DejaVuSans-32"/>
      </defs>
      <g transform="translate(248.094277 242.738437)scale(0.1 -0.1)">
       <use transform="translate(0 0.765625)" xlink:href="#DejaVuSans-31"/>
       <use transform="translate(63.623047 0.765625)" xlink:href="#DejaVuSans-30"/>
       <use transform="translate(128.203125 39.046875)scale(0.7)" xlink:href="#DejaVuSans-2212"/>
       <use transform="translate(186.855469 39.046875)scale(0.7)" xlink:href="#DejaVuSans-32"/>
      </g>
     </g>
    </g>
    <g id="xtick_4">
     <g id="line2d_4">
      <g>
       <use style="stroke:#000000;stroke-width:0.8;" x="327.685957" xlink:href="#m5610d1f9bc" y="228.14"/>
      </g>
     </g>
     <g id="text_4">
      <!-- $\mathdefault{10^{-1}}$ -->
      <g transform="translate(315.935957 242.738437)scale(0.1 -0.1)">
       <use transform="translate(0 0.684375)" xlink:href="#DejaVuSans-31"/>
       <use transform="translate(63.623047 0.684375)" xlink:href="#DejaVuSans-30"/>
       <use transform="translate(128.203125 38.965625)scale(0.7)" xlink:href="#DejaVuSans-2212"/>
       <use transform="translate(186.855469 38.965625)scale(0.7)" xlink:href="#DejaVuSans-31"/>
      </g>
     </g>
    </g>
    <g id="xtick_5">
     <g id="line2d_5">
      <defs>
       <path d="M 0 0 
L 0 2 
" id="mbd5ae4a3ea" style="stroke:#000000;stroke-width:0.6;"/>
      </defs>
      <g>
       <use style="stroke:#000000;stroke-width:0.6;" x="76.741619" xlink:href="#mbd5ae4a3ea" y="228.14"/>
      </g>
     </g>
    </g>
    <g id="xtick_6">
     <g id="line2d_6">
      <g>
       <use style="stroke:#000000;stroke-width:0.6;" x="88.687946" xlink:href="#mbd5ae4a3ea" y="228.14"/>
      </g>
     </g>
    </g>
    <g id="xtick_7">
     <g id="line2d_7">
      <g>
       <use style="stroke:#000000;stroke-width:0.6;" x="97.164" xlink:href="#mbd5ae4a3ea" y="228.14"/>
      </g>
     </g>
    </g>
    <g id="xtick_8">
     <g id="line2d_8">
      <g>
       <use style="stroke:#000000;stroke-width:0.6;" x="103.738538" xlink:href="#mbd5ae4a3ea" y="228.14"/>
      </g>
     </g>
    </g>
    <g id="xtick_9">
     <g id="line2d_9">
      <g>
       <use style="stroke:#000000;stroke-width:0.6;" x="109.110327" xlink:href="#mbd5ae4a3ea" y="228.14"/>
      </g>
     </g>
    </g>
    <g id="xtick_10">
     <g id="line2d_10">
      <g>
       <use style="stroke:#000000;stroke-width:0.6;" x="113.652109" xlink:href="#mbd5ae4a3ea" y="228.14"/>
      </g>
     </g>
    </g>
    <g id="xtick_11">
     <g id="line2d_11">
      <g>
       <use style="stroke:#000000;stroke-width:0.6;" x="117.58638" xlink:href="#mbd5ae4a3ea" y="228.14"/>
      </g>
     </g>
    </g>
    <g id="xtick_12">
     <g id="line2d_12">
      <g>
       <use style="stroke:#000000;stroke-width:0.6;" x="121.056653" xlink:href="#mbd5ae4a3ea" y="228.14"/>
      </g>
     </g>
    </g>
    <g id="xtick_13">
     <g id="line2d_13">
      <g>
       <use style="stroke:#000000;stroke-width:0.6;" x="144.583299" xlink:href="#mbd5ae4a3ea" y="228.14"/>
      </g>
     </g>
    </g>
    <g id="xtick_14">
     <g id="line2d_14">
      <g>
       <use style="stroke:#000000;stroke-width:0.6;" x="156.529626" xlink:href="#mbd5ae4a3ea" y="228.14"/>
      </g>
     </g>
    </g>
    <g id="xtick_15">
     <g id="line2d_15">
      <g>
       <use style="stroke:#000000;stroke-width:0.6;" x="165.005679" xlink:href="#mbd5ae4a3ea" y="228.14"/>
      </g>
     </g>
    </g>
    <g id="xtick_16">
     <g id="line2d_16">
      <g>
       <use style="stroke:#000000;stroke-width:0.6;" x="171.580217" xlink:href="#mbd5ae4a3ea" y="228.14"/>
      </g>
     </g>
    </g>
    <g id="xtick_17">
     <g id="line2d_17">
      <g>
       <use style="stroke:#000000;stroke-width:0.6;" x="176.952006" xlink:href="#mbd5ae4a3ea" y="228.14"/>
      </g>
     </g>
    </g>
    <g id="xtick_18">
     <g id="line2d_18">
      <g>
       <use style="stroke:#000000;stroke-width:0.6;" x="181.493789" xlink:href="#mbd5ae4a3ea" y="228.14"/>
      </g>
     </g>
    </g>
    <g id="xtick_19">
     <g id="line2d_19">
      <g>
       <use style="stroke:#000000;stroke-width:0.6;" x="185.42806" xlink:href="#mbd5ae4a3ea" y="228.14"/>
      </g>
     </g>
    </g>
    <g id="xtick_20">
     <g id="line2d_20">
      <g>
       <use style="stroke:#000000;stroke-width:0.6;" x="188.898333" xlink:href="#mbd5ae4a3ea" y="228.14"/>
      </g>
     </g>
    </g>
    <g id="xtick_21">
     <g id="line2d_21">
      <g>
       <use style="stroke:#000000;stroke-width:0.6;" x="212.424978" xlink:href="#mbd5ae4a3ea" y="228.14"/>
      </g>
     </g>
    </g>
    <g id="xtick_22">
     <g id="line2d_22">
      <g>
       <use style="stroke:#000000;stroke-width:0.6;" x="224.371305" xlink:href="#mbd5ae4a3ea" y="228.14"/>
      </g>
     </g>
    </g>
    <g id="xtick_23">
     <g id="line2d_23">
      <g>
       <use style="stroke:#000000;stroke-width:0.6;" x="232.847359" xlink:href="#mbd5ae4a3ea" y="228.14"/>
      </g>
     </g>
    </g>
    <g id="xtick_24">
     <g id="line2d_24">
      <g>
       <use style="stroke:#000000;stroke-width:0.6;" x="239.421897" xlink:href="#mbd5ae4a3ea" y="228.14"/>
      </g>
     </g>
    </g>
    <g id="xtick_25">
     <g id="line2d_25">
      <g>
       <use style="stroke:#000000;stroke-width:0.6;" x="244.793685" xlink:href="#mbd5ae4a3ea" y="228.14"/>
      </g>
     </g>
    </g>
    <g id="xtick_26">
     <g id="line2d_26">
      <g>
       <use style="stroke:#000000;stroke-width:0.6;" x="249.335468" xlink:href="#mbd5ae4a3ea" y="228.14"/>
      </g>
     </g>
    </g>
    <g id="xtick_27">
     <g id="line2d_27">
      <g>
       <use style="stroke:#000000;stroke-width:0.6;" x="253.269739" xlink:href="#mbd5ae4a3ea" y="228.14"/>
      </g>
     </g>
    </g>
    <g id="xtick_28">
     <g id="line2d_28">
      <g>
       <use style="stroke:#000000;stroke-width:0.6;" x="256.740012" xlink:href="#mbd5ae4a3ea" y="228.14"/>
      </g>
     </g>
    </g>
    <g id="xtick_29">
     <g id="line2d_29">
      <g>
       <use style="stroke:#000000;stroke-width:0.6;" x="280.266658" xlink:href="#mbd5ae4a3ea" y="228.14"/>
      </g>
     </g>
    </g>
    <g id="xtick_30">
     <g id="line2d_30">
      <g>
       <use style="stroke:#000000;stroke-width:0.6;" x="292.212984" xlink:href="#mbd5ae4a3ea" y="228.14"/>
      </g>
     </g>
    </g>
    <g id="xtick_31">
     <g id="line2d_31">
      <g>
       <use style="stroke:#000000;stroke-width:0.6;" x="300.689038" xlink:href="#mbd5ae4a3ea" y="228.14"/>
      </g>
     </g>
    </g>
    <g id="xtick_32">
     <g id="line2d_32">
      <g>
       <use style="stroke:#000000;stroke-width:0.6;" x="307.263576" xlink:href="#mbd5ae4a3ea" y="228.14"/>
      </g>
     </g>
    </g>
    <g id="xtick_33">
     <g id="line2d_33">
      <g>
       <use style="stroke:#000000;stroke-width:0.6;" x="312.635365" xlink:href="#mbd5ae4a3ea" y="228.14"/>
      </g>
     </g>
    </g>
    <g id="xtick_34">
     <g id="line2d_34">
      <g>
       <use style="stroke:#000000;stroke-width:0.6;" x="317.177148" xlink:href="#mbd5ae4a3ea" y="228.14"/>
      </g>
     </g>
    </g>
    <g id="xtick_35">
     <g id="line2d_35">
      <g>
       <use style="stroke:#000000;stroke-width:0.6;" x="321.111419" xlink:href="#mbd5ae4a3ea" y="228.14"/>
      </g>
     </g>
    </g>
    <g id="xtick_36">
     <g id="line2d_36">
      <g>
       <use style="stroke:#000000;stroke-width:0.6;" x="324.581692" xlink:href="#mbd5ae4a3ea" y="228.14"/>
      </g>
     </g>
    </g>
    <g id="xtick_37">
     <g id="line2d_37">
      <g>
       <use style="stroke:#000000;stroke-width:0.6;" x="348.108337" xlink:href="#mbd5ae4a3ea" y="228.14"/>
      </g>
     </g>
    </g>
    <g id="xtick_38">
     <g id="line2d_38">
      <g>
       <use style="stroke:#000000;stroke-width:0.6;" x="360.054664" xlink:href="#mbd5ae4a3ea" y="228.14"/>
      </g>
     </g>
    </g>
    <g id="xtick_39">
     <g id="line2d_39">
      <g>
       <use style="stroke:#000000;stroke-width:0.6;" x="368.530718" xlink:href="#mbd5ae4a3ea" y="228.14"/>
      </g>
     </g>
    </g>
    <g id="xtick_40">
     <g id="line2d_40">
      <g>
       <use style="stroke:#000000;stroke-width:0.6;" x="375.105256" xlink:href="#mbd5ae4a3ea" y="228.14"/>
      </g>
     </g>
    </g>
    <g id="xtick_41">
     <g id="line2d_41">
      <g>
       <use style="stroke:#000000;stroke-width:0.6;" x="380.477044" xlink:href="#mbd5ae4a3ea" y="228.14"/>
      </g>
     </g>
    </g>
    <g id="xtick_42">
     <g id="line2d_42">
      <g>
       <use style="stroke:#000000;stroke-width:0.6;" x="385.018827" xlink:href="#mbd5ae4a3ea" y="228.14"/>
      </g>
     </g>
    </g>
    <g id="xtick_43">
     <g id="line2d_43">
      <g>
       <use style="stroke:#000000;stroke-width:0.6;" x="388.953098" xlink:href="#mbd5ae4a3ea" y="228.14"/>
      </g>
     </g>
    </g>
    <g id="xtick_44">
     <g id="line2d_44">
      <g>
       <use style="stroke:#000000;stroke-width:0.6;" x="392.423371" xlink:href="#mbd5ae4a3ea" y="228.14"/>
      </g>
     </g>
    </g>
    <g id="text_5">
     <!-- $t_w$ [s] -->
     <defs>
      <path d="M 42.28125 54.6875 
L 40.921875 47.703125 
L 23 47.703125 
L 17.1875 18.015625 
Q 16.890625 16.359375 16.75 15.234375 
Q 16.609375 14.109375 16.609375 13.484375 
Q 16.609375 10.359375 18.484375 8.9375 
Q 20.359375 7.515625 24.515625 7.515625 
L 33.59375 7.515625 
L 32.078125 0 
L 23.484375 0 
Q 15.484375 0 11.546875 3.125 
Q 7.625 6.25 7.625 12.59375 
Q 7.625 13.71875 7.765625 15.0625 
Q 7.90625 16.40625 8.203125 18.015625 
L 14.015625 47.703125 
L 6.390625 47.703125 
L 7.8125 54.6875 
L 15.28125 54.6875 
L 18.3125 70.21875 
L 27.296875 70.21875 
L 24.3125 54.6875 
z
" id="DejaVuSans-Oblique-74"/>
      <path d="M 8.5 54.6875 
L 17.390625 54.6875 
L 19.671875 10.6875 
L 40.09375 54.6875 
L 50.484375 54.6875 
L 53.515625 10.6875 
L 72.90625 54.6875 
L 81.890625 54.6875 
L 56.890625 0 
L 46.390625 0 
L 43.703125 45.3125 
L 22.796875 0 
L 12.203125 0 
z
" id="DejaVuSans-Oblique-77"/>
      <path id="DejaVuSans-20"/>
      <path d="M 8.59375 75.984375 
L 29.296875 75.984375 
L 29.296875 69 
L 17.578125 69 
L 17.578125 -6.203125 
L 29.296875 -6.203125 
L 29.296875 -13.1875 
L 8.59375 -13.1875 
z
" id="DejaVuSans-5b"/>
      <path d="M 44.28125 53.078125 
L 44.28125 44.578125 
Q 40.484375 46.53125 36.375 47.5 
Q 32.28125 48.484375 27.875 48.484375 
Q 21.1875 48.484375 17.84375 46.4375 
Q 14.5 44.390625 14.5 40.28125 
Q 14.5 37.15625 16.890625 35.375 
Q 19.28125 33.59375 26.515625 31.984375 
L 29.59375 31.296875 
Q 39.15625 29.25 43.1875 25.515625 
Q 47.21875 21.78125 47.21875 15.09375 
Q 47.21875 7.46875 41.1875 3.015625 
Q 35.15625 -1.421875 24.609375 -1.421875 
Q 20.21875 -1.421875 15.453125 -0.5625 
Q 10.6875 0.296875 5.421875 2 
L 5.421875 11.28125 
Q 10.40625 8.6875 15.234375 7.390625 
Q 20.0625 6.109375 24.8125 6.109375 
Q 31.15625 6.109375 34.5625 8.28125 
Q 37.984375 10.453125 37.984375 14.40625 
Q 37.984375 18.0625 35.515625 20.015625 
Q 33.0625 21.96875 24.703125 23.78125 
L 21.578125 24.515625 
Q 13.234375 26.265625 9.515625 29.90625 
Q 5.8125 33.546875 5.8125 39.890625 
Q 5.8125 47.609375 11.28125 51.796875 
Q 16.75 56 26.8125 56 
Q 31.78125 56 36.171875 55.265625 
Q 40.578125 54.546875 44.28125 53.078125 
z
" id="DejaVuSans-73"/>
      <path d="M 30.421875 75.984375 
L 30.421875 -13.1875 
L 9.71875 -13.1875 
L 9.71875 -6.203125 
L 21.390625 -6.203125 
L 21.390625 69 
L 9.71875 69 
L 9.71875 75.984375 
z
" id="DejaVuSans-5d"/>
     </defs>
     <g transform="translate(212.823438 256.416562)scale(0.1 -0.1)">
      <use transform="translate(0 0.015625)" xlink:href="#DejaVuSans-Oblique-74"/>
      <use transform="translate(39.208984 -16.390625)scale(0.7)" xlink:href="#DejaVuSans-Oblique-77"/>
      <use transform="translate(99.194336 0.015625)" xlink:href="#DejaVuSans-20"/>
      <use transform="translate(130.981445 0.015625)" xlink:href="#DejaVuSans-5b"/>
      <use transform="translate(169.995117 0.015625)" xlink:href="#DejaVuSans-73"/>
      <use transform="translate(222.094727 0.015625)" xlink:href="#DejaVuSans-5d"/>
     </g>
    </g>
   </g>
   <g id="matplotlib.axis_2">
    <g id="ytick_1">
     <g id="line2d_45">
      <defs>
       <path d="M 0 0 
L -3.5 0 
" id="m8ee5df3dc8" style="stroke:#000000;stroke-width:0.8;"/>
      </defs>
      <g>
       <use style="stroke:#000000;stroke-width:0.8;" x="58.523438" xlink:href="#m8ee5df3dc8" y="220.049323"/>
      </g>
     </g>
     <g id="text_6">
      <!-- −1.00 -->
      <defs>
       <path d="M 10.6875 12.40625 
L 21 12.40625 
L 21 0 
L 10.6875 0 
z
" id="DejaVuSans-2e"/>
      </defs>
      <g transform="translate(20.878125 223.848542)scale(0.1 -0.1)">
       <use xlink:href="#DejaVuSans-2212"/>
       <use x="83.789062" xlink:href="#DejaVuSans-31"/>
       <use x="147.412109" xlink:href="#DejaVuSans-2e"/>
       <use x="179.199219" xlink:href="#DejaVuSans-30"/>
       <use x="242.822266" xlink:href="#DejaVuSans-30"/>
      </g>
     </g>
    </g>
    <g id="ytick_2">
     <g id="line2d_46">
      <g>
       <use style="stroke:#000000;stroke-width:0.8;" x="58.523438" xlink:href="#m8ee5df3dc8" y="195.780127"/>
      </g>
     </g>
     <g id="text_7">
      <!-- −0.75 -->
      <defs>
       <path d="M 8.203125 72.90625 
L 55.078125 72.90625 
L 55.078125 68.703125 
L 28.609375 0 
L 18.3125 0 
L 43.21875 64.59375 
L 8.203125 64.59375 
z
" id="DejaVuSans-37"/>
       <path d="M 10.796875 72.90625 
L 49.515625 72.90625 
L 49.515625 64.59375 
L 19.828125 64.59375 
L 19.828125 46.734375 
Q 21.96875 47.46875 24.109375 47.828125 
Q 26.265625 48.1875 28.421875 48.1875 
Q 40.625 48.1875 47.75 41.5 
Q 54.890625 34.8125 54.890625 23.390625 
Q 54.890625 11.625 47.5625 5.09375 
Q 40.234375 -1.421875 26.90625 -1.421875 
Q 22.3125 -1.421875 17.546875 -0.640625 
Q 12.796875 0.140625 7.71875 1.703125 
L 7.71875 11.625 
Q 12.109375 9.234375 16.796875 8.0625 
Q 21.484375 6.890625 26.703125 6.890625 
Q 35.15625 6.890625 40.078125 11.328125 
Q 45.015625 15.765625 45.015625 23.390625 
Q 45.015625 31 40.078125 35.4375 
Q 35.15625 39.890625 26.703125 39.890625 
Q 22.75 39.890625 18.8125 39.015625 
Q 14.890625 38.140625 10.796875 36.28125 
z
" id="DejaVuSans-35"/>
      </defs>
      <g transform="translate(20.878125 199.579346)scale(0.1 -0.1)">
       <use xlink:href="#DejaVuSans-2212"/>
       <use x="83.789062" xlink:href="#DejaVuSans-30"/>
       <use x="147.412109" xlink:href="#DejaVuSans-2e"/>
       <use x="179.199219" xlink:href="#DejaVuSans-37"/>
       <use x="242.822266" xlink:href="#DejaVuSans-35"/>
      </g>
     </g>
    </g>
    <g id="ytick_3">
     <g id="line2d_47">
      <g>
       <use style="stroke:#000000;stroke-width:0.8;" x="58.523438" xlink:href="#m8ee5df3dc8" y="171.510931"/>
      </g>
     </g>
     <g id="text_8">
      <!-- −0.50 -->
      <g transform="translate(20.878125 175.310149)scale(0.1 -0.1)">
       <use xlink:href="#DejaVuSans-2212"/>
       <use x="83.789062" xlink:href="#DejaVuSans-30"/>
       <use x="147.412109" xlink:href="#DejaVuSans-2e"/>
       <use x="179.199219" xlink:href="#DejaVuSans-35"/>
       <use x="242.822266" xlink:href="#DejaVuSans-30"/>
      </g>
     </g>
    </g>
    <g id="ytick_4">
     <g id="line2d_48">
      <g>
       <use style="stroke:#000000;stroke-width:0.8;" x="58.523438" xlink:href="#m8ee5df3dc8" y="147.241735"/>
      </g>
     </g>
     <g id="text_9">
      <!-- −0.25 -->
      <g transform="translate(20.878125 151.040953)scale(0.1 -0.1)">
       <use xlink:href="#DejaVuSans-2212"/>
       <use x="83.789062" xlink:href="#DejaVuSans-30"/>
       <use x="147.412109" xlink:href="#DejaVuSans-2e"/>
       <use x="179.199219" xlink:href="#DejaVuSans-32"/>
       <use x="242.822266" xlink:href="#DejaVuSans-35"/>
      </g>
     </g>
    </g>
    <g id="ytick_5">
     <g id="line2d_49">
      <g>
       <use style="stroke:#000000;stroke-width:0.8;" x="58.523438" xlink:href="#m8ee5df3dc8" y="122.972538"/>
      </g>
     </g>
     <g id="text_10">
      <!-- 0.00 -->
      <g transform="translate(29.257813 126.771757)scale(0.1 -0.1)">
       <use xlink:href="#DejaVuSans-30"/>
       <use x="63.623047" xlink:href="#DejaVuSans-2e"/>
       <use x="95.410156" xlink:href="#DejaVuSans-30"/>
       <use x="159.033203" xlink:href="#DejaVuSans-30"/>
      </g>
     </g>
    </g>
    <g id="ytick_6">
     <g id="line2d_50">
      <g>
       <use style="stroke:#000000;stroke-width:0.8;" x="58.523438" xlink:href="#m8ee5df3dc8" y="98.703342"/>
      </g>
     </g>
     <g id="text_11">
      <!-- 0.25 -->
      <g transform="translate(29.257813 102.502561)scale(0.1 -0.1)">
       <use xlink:href="#DejaVuSans-30"/>
       <use x="63.623047" xlink:href="#DejaVuSans-2e"/>
       <use x="95.410156" xlink:href="#DejaVuSans-32"/>
       <use x="159.033203" xlink:href="#DejaVuSans-35"/>
      </g>
     </g>
    </g>
    <g id="ytick_7">
     <g id="line2d_51">
      <g>
       <use style="stroke:#000000;stroke-width:0.8;" x="58.523438" xlink:href="#m8ee5df3dc8" y="74.434146"/>
      </g>
     </g>
     <g id="text_12">
      <!-- 0.50 -->
      <g transform="translate(29.257813 78.233365)scale(0.1 -0.1)">
       <use xlink:href="#DejaVuSans-30"/>
       <use x="63.623047" xlink:href="#DejaVuSans-2e"/>
       <use x="95.410156" xlink:href="#DejaVuSans-35"/>
       <use x="159.033203" xlink:href="#DejaVuSans-30"/>
      </g>
     </g>
    </g>
    <g id="ytick_8">
     <g id="line2d_52">
      <g>
       <use style="stroke:#000000;stroke-width:0.8;" x="58.523438" xlink:href="#m8ee5df3dc8" y="50.16495"/>
      </g>
     </g>
     <g id="text_13">
      <!-- 0.75 -->
      <g transform="translate(29.257813 53.964169)scale(0.1 -0.1)">
       <use xlink:href="#DejaVuSans-30"/>
       <use x="63.623047" xlink:href="#DejaVuSans-2e"/>
       <use x="95.410156" xlink:href="#DejaVuSans-37"/>
       <use x="159.033203" xlink:href="#DejaVuSans-35"/>
      </g>
     </g>
    </g>
    <g id="ytick_9">
     <g id="line2d_53">
      <g>
       <use style="stroke:#000000;stroke-width:0.8;" x="58.523438" xlink:href="#m8ee5df3dc8" y="25.895754"/>
      </g>
     </g>
     <g id="text_14">
      <!-- 1.00 -->
      <g transform="translate(29.257813 29.694972)scale(0.1 -0.1)">
       <use xlink:href="#DejaVuSans-31"/>
       <use x="63.623047" xlink:href="#DejaVuSans-2e"/>
       <use x="95.410156" xlink:href="#DejaVuSans-30"/>
       <use x="159.033203" xlink:href="#DejaVuSans-30"/>
      </g>
     </g>
    </g>
    <g id="text_15">
     <!-- Magnetisierung (normiert) -->
     <defs>
      <path d="M 9.8125 72.90625 
L 24.515625 72.90625 
L 43.109375 23.296875 
L 61.8125 72.90625 
L 76.515625 72.90625 
L 76.515625 0 
L 66.890625 0 
L 66.890625 64.015625 
L 48.09375 14.015625 
L 38.1875 14.015625 
L 19.390625 64.015625 
L 19.390625 0 
L 9.8125 0 
z
" id="DejaVuSans-4d"/>
      <path d="M 34.28125 27.484375 
Q 23.390625 27.484375 19.1875 25 
Q 14.984375 22.515625 14.984375 16.5 
Q 14.984375 11.71875 18.140625 8.90625 
Q 21.296875 6.109375 26.703125 6.109375 
Q 34.1875 6.109375 38.703125 11.40625 
Q 43.21875 16.703125 43.21875 25.484375 
L 43.21875 27.484375 
z
M 52.203125 31.203125 
L 52.203125 0 
L 43.21875 0 
L 43.21875 8.296875 
Q 40.140625 3.328125 35.546875 0.953125 
Q 30.953125 -1.421875 24.3125 -1.421875 
Q 15.921875 -1.421875 10.953125 3.296875 
Q 6 8.015625 6 15.921875 
Q 6 25.140625 12.171875 29.828125 
Q 18.359375 34.515625 30.609375 34.515625 
L 43.21875 34.515625 
L 43.21875 35.40625 
Q 43.21875 41.609375 39.140625 45 
Q 35.0625 48.390625 27.6875 48.390625 
Q 23 48.390625 18.546875 47.265625 
Q 14.109375 46.140625 10.015625 43.890625 
L 10.015625 52.203125 
Q 14.9375 54.109375 19.578125 55.046875 
Q 24.21875 56 28.609375 56 
Q 40.484375 56 46.34375 49.84375 
Q 52.203125 43.703125 52.203125 31.203125 
z
" id="DejaVuSans-61"/>
      <path d="M 45.40625 27.984375 
Q 45.40625 37.75 41.375 43.109375 
Q 37.359375 48.484375 30.078125 48.484375 
Q 22.859375 48.484375 18.828125 43.109375 
Q 14.796875 37.75 14.796875 27.984375 
Q 14.796875 18.265625 18.828125 12.890625 
Q 22.859375 7.515625 30.078125 7.515625 
Q 37.359375 7.515625 41.375 12.890625 
Q 45.40625 18.265625 45.40625 27.984375 
z
M 54.390625 6.78125 
Q 54.390625 -7.171875 48.1875 -13.984375 
Q 42 -20.796875 29.203125 -20.796875 
Q 24.46875 -20.796875 20.265625 -20.09375 
Q 16.0625 -19.390625 12.109375 -17.921875 
L 12.109375 -9.1875 
Q 16.0625 -11.328125 19.921875 -12.34375 
Q 23.78125 -13.375 27.78125 -13.375 
Q 36.625 -13.375 41.015625 -8.765625 
Q 45.40625 -4.15625 45.40625 5.171875 
L 45.40625 9.625 
Q 42.625 4.78125 38.28125 2.390625 
Q 33.9375 0 27.875 0 
Q 17.828125 0 11.671875 7.65625 
Q 5.515625 15.328125 5.515625 27.984375 
Q 5.515625 40.671875 11.671875 48.328125 
Q 17.828125 56 27.875 56 
Q 33.9375 56 38.28125 53.609375 
Q 42.625 51.21875 45.40625 46.390625 
L 45.40625 54.6875 
L 54.390625 54.6875 
z
" id="DejaVuSans-67"/>
      <path d="M 54.890625 33.015625 
L 54.890625 0 
L 45.90625 0 
L 45.90625 32.71875 
Q 45.90625 40.484375 42.875 44.328125 
Q 39.84375 48.1875 33.796875 48.1875 
Q 26.515625 48.1875 22.3125 43.546875 
Q 18.109375 38.921875 18.109375 30.90625 
L 18.109375 0 
L 9.078125 0 
L 9.078125 54.6875 
L 18.109375 54.6875 
L 18.109375 46.1875 
Q 21.34375 51.125 25.703125 53.5625 
Q 30.078125 56 35.796875 56 
Q 45.21875 56 50.046875 50.171875 
Q 54.890625 44.34375 54.890625 33.015625 
z
" id="DejaVuSans-6e"/>
      <path d="M 56.203125 29.59375 
L 56.203125 25.203125 
L 14.890625 25.203125 
Q 15.484375 15.921875 20.484375 11.0625 
Q 25.484375 6.203125 34.421875 6.203125 
Q 39.59375 6.203125 44.453125 7.46875 
Q 49.3125 8.734375 54.109375 11.28125 
L 54.109375 2.78125 
Q 49.265625 0.734375 44.1875 -0.34375 
Q 39.109375 -1.421875 33.890625 -1.421875 
Q 20.796875 -1.421875 13.15625 6.1875 
Q 5.515625 13.8125 5.515625 26.8125 
Q 5.515625 40.234375 12.765625 48.109375 
Q 20.015625 56 32.328125 56 
Q 43.359375 56 49.78125 48.890625 
Q 56.203125 41.796875 56.203125 29.59375 
z
M 47.21875 32.234375 
Q 47.125 39.59375 43.09375 43.984375 
Q 39.0625 48.390625 32.421875 48.390625 
Q 24.90625 48.390625 20.390625 44.140625 
Q 15.875 39.890625 15.1875 32.171875 
z
" id="DejaVuSans-65"/>
      <path d="M 18.3125 70.21875 
L 18.3125 54.6875 
L 36.8125 54.6875 
L 36.8125 47.703125 
L 18.3125 47.703125 
L 18.3125 18.015625 
Q 18.3125 11.328125 20.140625 9.421875 
Q 21.96875 7.515625 27.59375 7.515625 
L 36.8125 7.515625 
L 36.8125 0 
L 27.59375 0 
Q 17.1875 0 13.234375 3.875 
Q 9.28125 7.765625 9.28125 18.015625 
L 9.28125 47.703125 
L 2.6875 47.703125 
L 2.6875 54.6875 
L 9.28125 54.6875 
L 9.28125 70.21875 
z
" id="DejaVuSans-74"/>
      <path d="M 9.421875 54.6875 
L 18.40625 54.6875 
L 18.40625 0 
L 9.421875 0 
z
M 9.421875 75.984375 
L 18.40625 75.984375 
L 18.40625 64.59375 
L 9.421875 64.59375 
z
" id="DejaVuSans-69"/>
      <path d="M 41.109375 46.296875 
Q 39.59375 47.171875 37.8125 47.578125 
Q 36.03125 48 33.890625 48 
Q 26.265625 48 22.1875 43.046875 
Q 18.109375 38.09375 18.109375 28.8125 
L 18.109375 0 
L 9.078125 0 
L 9.078125 54.6875 
L 18.109375 54.6875 
L 18.109375 46.1875 
Q 20.953125 51.171875 25.484375 53.578125 
Q 30.03125 56 36.53125 56 
Q 37.453125 56 38.578125 55.875 
Q 39.703125 55.765625 41.0625 55.515625 
z
" id="DejaVuSans-72"/>
      <path d="M 8.5 21.578125 
L 8.5 54.6875 
L 17.484375 54.6875 
L 17.484375 21.921875 
Q 17.484375 14.15625 20.5 10.265625 
Q 23.53125 6.390625 29.59375 6.390625 
Q 36.859375 6.390625 41.078125 11.03125 
Q 45.3125 15.671875 45.3125 23.6875 
L 45.3125 54.6875 
L 54.296875 54.6875 
L 54.296875 0 
L 45.3125 0 
L 45.3125 8.40625 
Q 42.046875 3.421875 37.71875 1 
Q 33.40625 -1.421875 27.6875 -1.421875 
Q 18.265625 -1.421875 13.375 4.4375 
Q 8.5 10.296875 8.5 21.578125 
z
M 31.109375 56 
z
" id="DejaVuSans-75"/>
      <path d="M 31 75.875 
Q 24.46875 64.65625 21.28125 53.65625 
Q 18.109375 42.671875 18.109375 31.390625 
Q 18.109375 20.125 21.3125 9.0625 
Q 24.515625 -2 31 -13.1875 
L 23.1875 -13.1875 
Q 15.875 -1.703125 12.234375 9.375 
Q 8.59375 20.453125 8.59375 31.390625 
Q 8.59375 42.28125 12.203125 53.3125 
Q 15.828125 64.359375 23.1875 75.875 
z
" id="DejaVuSans-28"/>
      <path d="M 30.609375 48.390625 
Q 23.390625 48.390625 19.1875 42.75 
Q 14.984375 37.109375 14.984375 27.296875 
Q 14.984375 17.484375 19.15625 11.84375 
Q 23.34375 6.203125 30.609375 6.203125 
Q 37.796875 6.203125 41.984375 11.859375 
Q 46.1875 17.53125 46.1875 27.296875 
Q 46.1875 37.015625 41.984375 42.703125 
Q 37.796875 48.390625 30.609375 48.390625 
z
M 30.609375 56 
Q 42.328125 56 49.015625 48.375 
Q 55.71875 40.765625 55.71875 27.296875 
Q 55.71875 13.875 49.015625 6.21875 
Q 42.328125 -1.421875 30.609375 -1.421875 
Q 18.84375 -1.421875 12.171875 6.21875 
Q 5.515625 13.875 5.515625 27.296875 
Q 5.515625 40.765625 12.171875 48.375 
Q 18.84375 56 30.609375 56 
z
" id="DejaVuSans-6f"/>
      <path d="M 52 44.1875 
Q 55.375 50.25 60.0625 53.125 
Q 64.75 56 71.09375 56 
Q 79.640625 56 84.28125 50.015625 
Q 88.921875 44.046875 88.921875 33.015625 
L 88.921875 0 
L 79.890625 0 
L 79.890625 32.71875 
Q 79.890625 40.578125 77.09375 44.375 
Q 74.3125 48.1875 68.609375 48.1875 
Q 61.625 48.1875 57.5625 43.546875 
Q 53.515625 38.921875 53.515625 30.90625 
L 53.515625 0 
L 44.484375 0 
L 44.484375 32.71875 
Q 44.484375 40.625 41.703125 44.40625 
Q 38.921875 48.1875 33.109375 48.1875 
Q 26.21875 48.1875 22.15625 43.53125 
Q 18.109375 38.875 18.109375 30.90625 
L 18.109375 0 
L 9.078125 0 
L 9.078125 54.6875 
L 18.109375 54.6875 
L 18.109375 46.1875 
Q 21.1875 51.21875 25.484375 53.609375 
Q 29.78125 56 35.6875 56 
Q 41.65625 56 45.828125 52.96875 
Q 50 49.953125 52 44.1875 
z
" id="DejaVuSans-6d"/>
      <path d="M 8.015625 75.875 
L 15.828125 75.875 
Q 23.140625 64.359375 26.78125 53.3125 
Q 30.421875 42.28125 30.421875 31.390625 
Q 30.421875 20.453125 26.78125 9.375 
Q 23.140625 -1.703125 15.828125 -13.1875 
L 8.015625 -13.1875 
Q 14.5 -2 17.703125 9.0625 
Q 20.90625 20.125 20.90625 31.390625 
Q 20.90625 42.671875 17.703125 53.65625 
Q 14.5 64.65625 8.015625 75.875 
z
" id="DejaVuSans-29"/>
     </defs>
     <g transform="translate(14.798438 185.329375)rotate(-90)scale(0.1 -0.1)">
      <use xlink:href="#DejaVuSans-4d"/>
      <use x="86.279297" xlink:href="#DejaVuSans-61"/>
      <use x="147.558594" xlink:href="#DejaVuSans-67"/>
      <use x="211.035156" xlink:href="#DejaVuSans-6e"/>
      <use x="274.414062" xlink:href="#DejaVuSans-65"/>
      <use x="335.9375" xlink:href="#DejaVuSans-74"/>
      <use x="375.146484" xlink:href="#DejaVuSans-69"/>
      <use x="402.929688" xlink:href="#DejaVuSans-73"/>
      <use x="455.029297" xlink:href="#DejaVuSans-69"/>
      <use x="482.8125" xlink:href="#DejaVuSans-65"/>
      <use x="544.335938" xlink:href="#DejaVuSans-72"/>
      <use x="585.449219" xlink:href="#DejaVuSans-75"/>
      <use x="648.828125" xlink:href="#DejaVuSans-6e"/>
      <use x="712.207031" xlink:href="#DejaVuSans-67"/>
      <use x="775.683594" xlink:href="#DejaVuSans-20"/>
      <use x="807.470703" xlink:href="#DejaVuSans-28"/>
      <use x="846.484375" xlink:href="#DejaVuSans-6e"/>
      <use x="909.863281" xlink:href="#DejaVuSans-6f"/>
      <use x="971.044922" xlink:href="#DejaVuSans-72"/>
      <use x="1012.142578" xlink:href="#DejaVuSans-6d"/>
      <use x="1109.554688" xlink:href="#DejaVuSans-69"/>
      <use x="1137.337891" xlink:href="#DejaVuSans-65"/>
      <use x="1198.861328" xlink:href="#DejaVuSans-72"/>
      <use x="1239.974609" xlink:href="#DejaVuSans-74"/>
      <use x="1279.183594" xlink:href="#DejaVuSans-29"/>
     </g>
    </g>
   </g>
   <g id="line2d_54">
    <path clip-path="url(#p2725133881)" d="M 76.741619 215.410571 
L 89.173438 213.988085 
L 101.605256 212.13858 
L 114.037074 209.740381 
L 126.468892 206.641745 
L 138.90071 202.656724 
L 151.332528 197.563004 
L 163.764347 191.104118 
L 176.196165 182.999821 
L 188.627983 172.970089 
L 201.059801 160.779606 
L 213.491619 146.309346 
L 225.923438 129.657182 
L 238.355256 111.256299 
L 250.787074 91.974934 
L 263.218892 73.126937 
L 275.65071 56.301538 
L 288.082528 42.960132 
L 300.514347 33.895287 
L 312.946165 28.857359 
L 325.377983 26.700278 
L 337.809801 26.04137 
L 350.241619 25.911228 
L 362.673438 25.896571 
L 375.105256 25.895771 
" style="fill:none;stroke:#1f77b4;stroke-linecap:square;stroke-width:1.5;"/>
   </g>
   <g id="line2d_55">
    <path clip-path="url(#p2725133881)" d="M 76.741619 215.676101 
L 89.173438 214.311635 
L 101.605256 212.529958 
L 114.037074 210.20965 
L 126.468892 207.19838 
L 138.90071 203.308271 
L 151.332528 198.313084 
L 163.764347 191.949667 
L 176.196165 183.927597 
L 188.627983 173.952794 
L 201.059801 161.772536 
L 213.491619 147.249362 
L 225.923438 130.466751 
L 238.355256 111.855709 
L 250.787074 92.304145 
L 263.218892 73.173117 
L 275.65071 56.119228 
L 288.082528 42.664201 
L 300.514347 33.615562 
L 312.946165 28.675592 
L 325.377983 26.620085 
L 337.809801 26.019024 
L 350.241619 25.907726 
L 362.673438 25.896309 
L 375.105256 25.895763 
" style="fill:none;stroke:#ff7f0e;stroke-linecap:square;stroke-width:1.5;"/>
   </g>
   <g id="line2d_56">
    <path clip-path="url(#p2725133881)" d="M 76.741619 215.711789 
L 89.173438 214.358675 
L 101.605256 212.591816 
L 114.037074 210.290745 
L 126.468892 207.304269 
L 138.90071 203.44581 
L 151.332528 198.490503 
L 163.764347 192.176464 
L 176.196165 184.214081 
L 188.627983 174.309046 
L 201.059801 162.206509 
L 213.491619 147.763866 
L 225.923438 131.055344 
L 238.355256 112.498162 
L 250.787074 92.963343 
L 263.218892 73.796625 
L 275.65071 56.649056 
L 288.082528 43.055192 
L 300.514347 33.855194 
L 312.946165 28.790603 
L 325.377983 26.660091 
L 337.809801 26.028133 
L 350.241619 25.908913 
L 362.673438 25.896383 
L 375.105256 25.895765 
" style="fill:none;stroke:#2ca02c;stroke-linecap:square;stroke-width:1.5;"/>
   </g>
   <g id="line2d_57">
    <path clip-path="url(#p2725133881)" d="M 76.741619 215.55751 
L 89.173438 214.165655 
L 101.605256 212.351348 
L 114.037074 209.992697 
L 126.468892 206.937173 
L 138.90071 202.997178 
L 151.332528 197.947526 
L 163.764347 191.527283 
L 176.196165 183.44983 
L 188.627983 173.426862 
L 201.059801 161.213521 
L 213.491619 146.681766 
L 225.923438 129.924398 
L 238.355256 111.378448 
L 250.787074 91.930054 
L 263.218892 72.926633 
L 275.65071 55.9993 
L 288.082528 42.640515 
L 300.514347 33.640018 
L 312.946165 28.705693 
L 325.377983 26.636837 
L 337.809801 26.024251 
L 350.241619 25.90859 
L 362.673438 25.896375 
L 375.105256 25.895765 
" style="fill:none;stroke:#d62728;stroke-linecap:square;stroke-width:1.5;"/>
   </g>
   <g id="line2d_58">
    <path clip-path="url(#p2725133881)" d="M 76.741619 215.193787 
L 89.173438 213.705582 
L 101.605256 211.771319 
L 114.037074 209.264436 
L 126.468892 206.027499 
L 138.90071 201.868277 
L 151.332528 196.558127 
L 163.764347 189.835296 
L 176.196165 181.41721 
L 188.627983 171.027517 
L 201.059801 158.444867 
L 213.491619 143.579678 
L 225.923438 126.579268 
L 238.355256 107.946667 
L 250.787074 88.631015 
L 263.218892 70.013355 
L 275.65071 53.696905 
L 288.082528 41.066783 
L 300.514347 32.750506 
L 312.946165 28.313698 
L 325.377983 26.512165 
L 337.809801 25.998393 
L 350.241619 25.905529 
L 362.673438 25.896201 
L 375.105256 25.895761 
" style="fill:none;stroke:#9467bd;stroke-linecap:square;stroke-width:1.5;"/>
   </g>
   <g id="line2d_59">
    <path clip-path="url(#p2725133881)" d="M 76.741619 213.74462 
L 89.173438 211.850736 
L 101.605256 209.404269 
L 114.037074 206.255303 
L 126.468892 202.221062 
L 138.90071 197.084212 
L 151.332528 190.595507 
L 163.764347 182.484387 
L 176.196165 172.482651 
L 188.627983 160.367539 
L 201.059801 146.030161 
L 213.491619 129.570733 
L 225.923438 111.409782 
L 238.355256 92.381426 
L 250.787074 73.743962 
L 263.218892 57.023731 
L 275.65071 43.642674 
L 288.082528 34.410847 
L 300.514347 29.156803 
L 312.946165 26.825954 
L 325.377983 26.076293 
L 337.809801 25.916938 
L 350.241619 25.897041 
L 362.673438 25.895787 
L 375.105256 25.895754 
" style="fill:none;stroke:#8c564b;stroke-linecap:square;stroke-width:1.5;"/>
   </g>
   <g id="line2d_60">
    <path clip-path="url(#p2725133881)" d="M 76.741619 211.340997 
L 89.173438 208.803317 
L 101.605256 205.555541 
L 114.037074 201.418683 
L 126.468892 196.181825 
L 138.90071 189.60552 
L 151.332528 181.432958 
L 163.764347 171.413572 
L 176.196165 159.34471 
L 188.627983 145.136371 
L 201.059801 128.899584 
L 213.491619 111.047767 
L 225.923438 92.379833 
L 238.355256 74.087155 
L 250.787074 57.610486 
L 263.218892 44.303187 
L 275.65071 34.96945 
L 288.082528 29.512629 
L 300.514347 26.989571 
L 312.946165 26.12675 
L 325.377983 25.926337 
L 337.809801 25.89796 
L 350.241619 25.895826 
L 362.673438 25.895754 
L 375.105256 25.895754 
" style="fill:none;stroke:#e377c2;stroke-linecap:square;stroke-width:1.5;"/>
   </g>
   <g id="line2d_61">
    <path clip-path="url(#p2725133881)" d="M 76.741619 209.09228 
L 89.173438 205.845098 
L 101.605256 201.684915 
L 114.037074 196.388746 
L 126.468892 189.702112 
L 138.90071 181.351048 
L 151.332528 171.068094 
L 163.764347 158.638826 
L 176.196165 143.974671 
L 188.627983 127.212433 
L 201.059801 108.827132 
L 213.491619 89.719734 
L 225.923438 71.209858 
L 238.355256 54.848332 
L 250.787074 42.011348 
L 263.218892 33.385566 
L 275.65071 28.645194 
L 288.082528 26.637106 
L 300.514347 26.029278 
L 312.946165 25.909941 
L 325.377983 25.896509 
L 337.809801 25.89577 
L 350.241619 25.895754 
L 362.673438 25.895754 
L 375.105256 25.895754 
" style="fill:none;stroke:#7f7f7f;stroke-linecap:square;stroke-width:1.5;"/>
   </g>
   <g id="line2d_62">
    <path clip-path="url(#p2725133881)" d="M 76.741619 205.771673 
L 89.173438 201.428147 
L 101.605256 195.854802 
L 114.037074 188.767929 
L 126.468892 179.86359 
L 138.90071 168.850727 
L 151.332528 155.51041 
L 163.764347 139.78789 
L 176.196165 121.915606 
L 188.627983 102.544405 
L 201.059801 82.82457 
L 213.491619 64.339199 
L 225.923438 48.791048 
L 238.355256 37.447343 
L 250.787074 30.578045 
L 263.218892 27.317327 
L 275.65071 26.190474 
L 288.082528 25.932682 
L 300.514347 25.898134 
L 312.946165 25.895817 
L 325.377983 25.895754 
L 337.809801 25.895754 
L 350.241619 25.895754 
L 362.673438 25.895754 
L 375.105256 25.895754 
" style="fill:none;stroke:#bcbd22;stroke-linecap:square;stroke-width:1.5;"/>
   </g>
   <g id="patch_3">
    <path d="M 58.523438 228.14 
L 58.523438 10.7 
" style="fill:none;stroke:#000000;stroke-linecap:square;stroke-linejoin:miter;stroke-width:0.8;"/>
   </g>
   <g id="patch_4">
    <path d="M 393.323438 228.14 
L 393.323438 10.7 
" style="fill:none;stroke:#000000;stroke-linecap:square;stroke-linejoin:miter;stroke-width:0.8;"/>
   </g>
   <g id="patch_5">
    <path d="M 58.523438 228.14 
L 393.323438 228.14 
" style="fill:none;stroke:#000000;stroke-linecap:square;stroke-linejoin:miter;stroke-width:0.8;"/>
   </g>
   <g id="patch_6">
    <path d="M 58.523438 10.7 
L 393.323438 10.7 
" style="fill:none;stroke:#000000;stroke-linecap:square;stroke-linejoin:miter;stroke-width:0.8;"/>
   </g>
   <g id="legend_1">
    <g id="patch_7">
     <path d="M 304.851562 223.14 
L 386.323438 223.14 
Q 388.323438 223.14 388.323438 221.14 
L 388.323438 90.036875 
Q 388.323438 88.036875 386.323438 88.036875 
L 304.851562 88.036875 
Q 302.851562 88.036875 302.851562 90.036875 
L 302.851562 221.14 
Q 302.851562 223.14 304.851562 223.14 
z
" style="fill:#ffffff;opacity:0.8;stroke:#cccccc;stroke-linejoin:miter;"/>
    </g>
    <g id="PathCollection_10">
     <g>
      <use style="fill:#1f77b4;stroke:#1f77b4;" x="316.851562" xlink:href="#m5da26de2fe" y="97.010312"/>
     </g>
    </g>
    <g id="text_16">
     <!-- T = 305.7 -->
     <defs>
      <path d="M -0.296875 72.90625 
L 61.375 72.90625 
L 61.375 64.59375 
L 35.5 64.59375 
L 35.5 0 
L 25.59375 0 
L 25.59375 64.59375 
L -0.296875 64.59375 
z
" id="DejaVuSans-54"/>
      <path d="M 10.59375 45.40625 
L 73.1875 45.40625 
L 73.1875 37.203125 
L 10.59375 37.203125 
z
M 10.59375 25.484375 
L 73.1875 25.484375 
L 73.1875 17.1875 
L 10.59375 17.1875 
z
" id="DejaVuSans-3d"/>
     </defs>
     <g transform="translate(334.851562 99.635312)scale(0.1 -0.1)">
      <use xlink:href="#DejaVuSans-54"/>
      <use x="61.083984" xlink:href="#DejaVuSans-20"/>
      <use x="92.871094" xlink:href="#DejaVuSans-3d"/>
      <use x="176.660156" xlink:href="#DejaVuSans-20"/>
      <use x="208.447266" xlink:href="#DejaVuSans-33"/>
      <use x="272.070312" xlink:href="#DejaVuSans-30"/>
      <use x="335.693359" xlink:href="#DejaVuSans-35"/>
      <use x="399.316406" xlink:href="#DejaVuSans-2e"/>
      <use x="431.103516" xlink:href="#DejaVuSans-37"/>
     </g>
    </g>
    <g id="PathCollection_11">
     <g>
      <use style="fill:#ff7f0e;stroke:#ff7f0e;" x="316.851562" xlink:href="#m623f0c6851" y="111.688438"/>
     </g>
    </g>
    <g id="text_17">
     <!-- T = 310.1 -->
     <g transform="translate(334.851562 114.313438)scale(0.1 -0.1)">
      <use xlink:href="#DejaVuSans-54"/>
      <use x="61.083984" xlink:href="#DejaVuSans-20"/>
      <use x="92.871094" xlink:href="#DejaVuSans-3d"/>
      <use x="176.660156" xlink:href="#DejaVuSans-20"/>
      <use x="208.447266" xlink:href="#DejaVuSans-33"/>
      <use x="272.070312" xlink:href="#DejaVuSans-31"/>
      <use x="335.693359" xlink:href="#DejaVuSans-30"/>
      <use x="399.316406" xlink:href="#DejaVuSans-2e"/>
      <use x="431.103516" xlink:href="#DejaVuSans-31"/>
     </g>
    </g>
    <g id="PathCollection_12">
     <g>
      <use style="fill:#2ca02c;stroke:#2ca02c;" x="316.851562" xlink:href="#m895a55bf73" y="126.366562"/>
     </g>
    </g>
    <g id="text_18">
     <!-- T = 314.8 -->
     <defs>
      <path d="M 31.78125 34.625 
Q 24.75 34.625 20.71875 30.859375 
Q 16.703125 27.09375 16.703125 20.515625 
Q 16.703125 13.921875 20.71875 10.15625 
Q 24.75 6.390625 31.78125 6.390625 
Q 38.8125 6.390625 42.859375 10.171875 
Q 46.921875 13.96875 46.921875 20.515625 
Q 46.921875 27.09375 42.890625 30.859375 
Q 38.875 34.625 31.78125 34.625 
z
M 21.921875 38.8125 
Q 15.578125 40.375 12.03125 44.71875 
Q 8.5 49.078125 8.5 55.328125 
Q 8.5 64.0625 14.71875 69.140625 
Q 20.953125 74.21875 31.78125 74.21875 
Q 42.671875 74.21875 48.875 69.140625 
Q 55.078125 64.0625 55.078125 55.328125 
Q 55.078125 49.078125 51.53125 44.71875 
Q 48 40.375 41.703125 38.8125 
Q 48.828125 37.15625 52.796875 32.3125 
Q 56.78125 27.484375 56.78125 20.515625 
Q 56.78125 9.90625 50.3125 4.234375 
Q 43.84375 -1.421875 31.78125 -1.421875 
Q 19.734375 -1.421875 13.25 4.234375 
Q 6.78125 9.90625 6.78125 20.515625 
Q 6.78125 27.484375 10.78125 32.3125 
Q 14.796875 37.15625 21.921875 38.8125 
z
M 18.3125 54.390625 
Q 18.3125 48.734375 21.84375 45.5625 
Q 25.390625 42.390625 31.78125 42.390625 
Q 38.140625 42.390625 41.71875 45.5625 
Q 45.3125 48.734375 45.3125 54.390625 
Q 45.3125 60.0625 41.71875 63.234375 
Q 38.140625 66.40625 31.78125 66.40625 
Q 25.390625 66.40625 21.84375 63.234375 
Q 18.3125 60.0625 18.3125 54.390625 
z
" id="DejaVuSans-38"/>
     </defs>
     <g transform="translate(334.851562 128.991562)scale(0.1 -0.1)">
      <use xlink:href="#DejaVuSans-54"/>
      <use x="61.083984" xlink:href="#DejaVuSans-20"/>
      <use x="92.871094" xlink:href="#DejaVuSans-3d"/>
      <use x="176.660156" xlink:href="#DejaVuSans-20"/>
      <use x="208.447266" xlink:href="#DejaVuSans-33"/>
      <use x="272.070312" xlink:href="#DejaVuSans-31"/>
      <use x="335.693359" xlink:href="#DejaVuSans-34"/>
      <use x="399.316406" xlink:href="#DejaVuSans-2e"/>
      <use x="431.103516" xlink:href="#DejaVuSans-38"/>
     </g>
    </g>
    <g id="PathCollection_13">
     <g>
      <use style="fill:#d62728;stroke:#d62728;" x="316.851562" xlink:href="#m5548c1e9e4" y="141.044688"/>
     </g>
    </g>
    <g id="text_19">
     <!-- T = 319.7 -->
     <defs>
      <path d="M 10.984375 1.515625 
L 10.984375 10.5 
Q 14.703125 8.734375 18.5 7.8125 
Q 22.3125 6.890625 25.984375 6.890625 
Q 35.75 6.890625 40.890625 13.453125 
Q 46.046875 20.015625 46.78125 33.40625 
Q 43.953125 29.203125 39.59375 26.953125 
Q 35.25 24.703125 29.984375 24.703125 
Q 19.046875 24.703125 12.671875 31.3125 
Q 6.296875 37.9375 6.296875 49.421875 
Q 6.296875 60.640625 12.9375 67.421875 
Q 19.578125 74.21875 30.609375 74.21875 
Q 43.265625 74.21875 49.921875 64.515625 
Q 56.59375 54.828125 56.59375 36.375 
Q 56.59375 19.140625 48.40625 8.859375 
Q 40.234375 -1.421875 26.421875 -1.421875 
Q 22.703125 -1.421875 18.890625 -0.6875 
Q 15.09375 0.046875 10.984375 1.515625 
z
M 30.609375 32.421875 
Q 37.25 32.421875 41.125 36.953125 
Q 45.015625 41.5 45.015625 49.421875 
Q 45.015625 57.28125 41.125 61.84375 
Q 37.25 66.40625 30.609375 66.40625 
Q 23.96875 66.40625 20.09375 61.84375 
Q 16.21875 57.28125 16.21875 49.421875 
Q 16.21875 41.5 20.09375 36.953125 
Q 23.96875 32.421875 30.609375 32.421875 
z
" id="DejaVuSans-39"/>
     </defs>
     <g transform="translate(334.851562 143.669688)scale(0.1 -0.1)">
      <use xlink:href="#DejaVuSans-54"/>
      <use x="61.083984" xlink:href="#DejaVuSans-20"/>
      <use x="92.871094" xlink:href="#DejaVuSans-3d"/>
      <use x="176.660156" xlink:href="#DejaVuSans-20"/>
      <use x="208.447266" xlink:href="#DejaVuSans-33"/>
      <use x="272.070312" xlink:href="#DejaVuSans-31"/>
      <use x="335.693359" xlink:href="#DejaVuSans-39"/>
      <use x="399.316406" xlink:href="#DejaVuSans-2e"/>
      <use x="431.103516" xlink:href="#DejaVuSans-37"/>
     </g>
    </g>
    <g id="PathCollection_14">
     <g>
      <use style="fill:#9467bd;stroke:#9467bd;" x="316.851562" xlink:href="#m036a98d0af" y="155.722813"/>
     </g>
    </g>
    <g id="text_20">
     <!-- T = 324.5 -->
     <g transform="translate(334.851562 158.347813)scale(0.1 -0.1)">
      <use xlink:href="#DejaVuSans-54"/>
      <use x="61.083984" xlink:href="#DejaVuSans-20"/>
      <use x="92.871094" xlink:href="#DejaVuSans-3d"/>
      <use x="176.660156" xlink:href="#DejaVuSans-20"/>
      <use x="208.447266" xlink:href="#DejaVuSans-33"/>
      <use x="272.070312" xlink:href="#DejaVuSans-32"/>
      <use x="335.693359" xlink:href="#DejaVuSans-34"/>
      <use x="399.316406" xlink:href="#DejaVuSans-2e"/>
      <use x="431.103516" xlink:href="#DejaVuSans-35"/>
     </g>
    </g>
    <g id="PathCollection_15">
     <g>
      <use style="fill:#8c564b;stroke:#8c564b;" x="316.851562" xlink:href="#md34fc3a566" y="170.400937"/>
     </g>
    </g>
    <g id="text_21">
     <!-- T = 329.2 -->
     <g transform="translate(334.851562 173.025937)scale(0.1 -0.1)">
      <use xlink:href="#DejaVuSans-54"/>
      <use x="61.083984" xlink:href="#DejaVuSans-20"/>
      <use x="92.871094" xlink:href="#DejaVuSans-3d"/>
      <use x="176.660156" xlink:href="#DejaVuSans-20"/>
      <use x="208.447266" xlink:href="#DejaVuSans-33"/>
      <use x="272.070312" xlink:href="#DejaVuSans-32"/>
      <use x="335.693359" xlink:href="#DejaVuSans-39"/>
      <use x="399.316406" xlink:href="#DejaVuSans-2e"/>
      <use x="431.103516" xlink:href="#DejaVuSans-32"/>
     </g>
    </g>
    <g id="PathCollection_16">
     <g>
      <use style="fill:#e377c2;stroke:#e377c2;" x="316.851562" xlink:href="#mdfd16b430b" y="185.079062"/>
     </g>
    </g>
    <g id="text_22">
     <!-- T = 334.1 -->
     <g transform="translate(334.851562 187.704062)scale(0.1 -0.1)">
      <use xlink:href="#DejaVuSans-54"/>
      <use x="61.083984" xlink:href="#DejaVuSans-20"/>
      <use x="92.871094" xlink:href="#DejaVuSans-3d"/>
      <use x="176.660156" xlink:href="#DejaVuSans-20"/>
      <use x="208.447266" xlink:href="#DejaVuSans-33"/>
      <use x="272.070312" xlink:href="#DejaVuSans-33"/>
      <use x="335.693359" xlink:href="#DejaVuSans-34"/>
      <use x="399.316406" xlink:href="#DejaVuSans-2e"/>
      <use x="431.103516" xlink:href="#DejaVuSans-31"/>
     </g>
    </g>
    <g id="PathCollection_17">
     <g>
      <use style="fill:#7f7f7f;stroke:#7f7f7f;" x="316.851562" xlink:href="#m5878f369af" y="199.757187"/>
     </g>
    </g>
    <g id="text_23">
     <!-- T = 338.8 -->
     <g transform="translate(334.851562 202.382187)scale(0.1 -0.1)">
      <use xlink:href="#DejaVuSans-54"/>
      <use x="61.083984" xlink:href="#DejaVuSans-20"/>
      <use x="92.871094" xlink:href="#DejaVuSans-3d"/>
      <use x="176.660156" xlink:href="#DejaVuSans-20"/>
      <use x="208.447266" xlink:href="#DejaVuSans-33"/>
      <use x="272.070312" xlink:href="#DejaVuSans-33"/>
      <use x="335.693359" xlink:href="#DejaVuSans-38"/>
      <use x="399.316406" xlink:href="#DejaVuSans-2e"/>
      <use x="431.103516" xlink:href="#DejaVuSans-38"/>
     </g>
    </g>
    <g id="PathCollection_18">
     <g>
      <use style="fill:#bcbd22;stroke:#bcbd22;" x="316.851562" xlink:href="#mede9221e87" y="214.435312"/>
     </g>
    </g>
    <g id="text_24">
     <!-- T = 343.6 -->
     <defs>
      <path d="M 33.015625 40.375 
Q 26.375 40.375 22.484375 35.828125 
Q 18.609375 31.296875 18.609375 23.390625 
Q 18.609375 15.53125 22.484375 10.953125 
Q 26.375 6.390625 33.015625 6.390625 
Q 39.65625 6.390625 43.53125 10.953125 
Q 47.40625 15.53125 47.40625 23.390625 
Q 47.40625 31.296875 43.53125 35.828125 
Q 39.65625 40.375 33.015625 40.375 
z
M 52.59375 71.296875 
L 52.59375 62.3125 
Q 48.875 64.0625 45.09375 64.984375 
Q 41.3125 65.921875 37.59375 65.921875 
Q 27.828125 65.921875 22.671875 59.328125 
Q 17.53125 52.734375 16.796875 39.40625 
Q 19.671875 43.65625 24.015625 45.921875 
Q 28.375 48.1875 33.59375 48.1875 
Q 44.578125 48.1875 50.953125 41.515625 
Q 57.328125 34.859375 57.328125 23.390625 
Q 57.328125 12.15625 50.6875 5.359375 
Q 44.046875 -1.421875 33.015625 -1.421875 
Q 20.359375 -1.421875 13.671875 8.265625 
Q 6.984375 17.96875 6.984375 36.375 
Q 6.984375 53.65625 15.1875 63.9375 
Q 23.390625 74.21875 37.203125 74.21875 
Q 40.921875 74.21875 44.703125 73.484375 
Q 48.484375 72.75 52.59375 71.296875 
z
" id="DejaVuSans-36"/>
     </defs>
     <g transform="translate(334.851562 217.060312)scale(0.1 -0.1)">
      <use xlink:href="#DejaVuSans-54"/>
      <use x="61.083984" xlink:href="#DejaVuSans-20"/>
      <use x="92.871094" xlink:href="#DejaVuSans-3d"/>
      <use x="176.660156" xlink:href="#DejaVuSans-20"/>
      <use x="208.447266" xlink:href="#DejaVuSans-33"/>
      <use x="272.070312" xlink:href="#DejaVuSans-34"/>
      <use x="335.693359" xlink:href="#DejaVuSans-33"/>
      <use x="399.316406" xlink:href="#DejaVuSans-2e"/>
      <use x="431.103516" xlink:href="#DejaVuSans-36"/>
     </g>
    </g>
   </g>
  </g>
 </g>
 <defs>
  <clipPath id="p2725133881">
   <rect height="217.44" width="334.8" x="58.523438" y="10.7"/>
  </clipPath>
 </defs>
</svg>
