<?xml version="1.0" encoding="utf-8" standalone="no"?>
<!DOCTYPE svg PUBLIC "-//W3C//DTD SVG 1.1//EN"
  "http://www.w3.org/Graphics/SVG/1.1/DTD/svg11.dtd">
<!-- Created with matplotlib (http://matplotlib.org/) -->
<svg height="494.754375pt" version="1.1" viewBox="0 0 738.823438 494.754375" width="738.823438pt" xmlns="http://www.w3.org/2000/svg" xmlns:xlink="http://www.w3.org/1999/xlink">
 <defs>
  <style type="text/css">
*{stroke-linecap:butt;stroke-linejoin:round;}
  </style>
 </defs>
 <g id="figure_1">
  <g id="patch_1">
   <path d="M 0 494.754375 
L 738.823438 494.754375 
L 738.823438 0 
L 0 0 
z
" style="fill:#ffffff;"/>
  </g>
  <g id="axes_1">
   <g id="patch_2">
    <path d="M 58.523438 457.198125 
L 728.123438 457.198125 
L 728.123438 22.318125 
L 58.523438 22.318125 
z
" style="fill:#ffffff;"/>
   </g>
   <g id="PathCollection_1">
    <defs>
     <path d="M 0 3 
C 0.795609 3 1.55874 2.683901 2.12132 2.12132 
C 2.683901 1.55874 3 0.795609 3 0 
C 3 -0.795609 2.683901 -1.55874 2.12132 -2.12132 
C 1.55874 -2.683901 0.795609 -3 0 -3 
C -0.795609 -3 -1.55874 -2.683901 -2.12132 -2.12132 
C -2.683901 -1.55874 -3 -0.795609 -3 0 
C -3 0.795609 -2.683901 1.55874 -2.12132 2.12132 
C -1.55874 2.683901 -0.795609 3 0 3 
z
" id="m90c6b555e2" style="stroke:#1f77b4;"/>
    </defs>
    <g clip-path="url(#pe8b91de6c0)">
     <use style="fill:#1f77b4;stroke:#1f77b4;" x="91.959801" xlink:href="#m90c6b555e2" y="432.626114"/>
     <use style="fill:#1f77b4;stroke:#1f77b4;" x="117.073438" xlink:href="#m90c6b555e2" y="429.657554"/>
     <use style="fill:#1f77b4;stroke:#1f77b4;" x="142.187074" xlink:href="#m90c6b555e2" y="427.105777"/>
     <use style="fill:#1f77b4;stroke:#1f77b4;" x="167.30071" xlink:href="#m90c6b555e2" y="423.332508"/>
     <use style="fill:#1f77b4;stroke:#1f77b4;" x="192.414347" xlink:href="#m90c6b555e2" y="416.18558"/>
     <use style="fill:#1f77b4;stroke:#1f77b4;" x="217.527983" xlink:href="#m90c6b555e2" y="410.178339"/>
     <use style="fill:#1f77b4;stroke:#1f77b4;" x="242.641619" xlink:href="#m90c6b555e2" y="401.214181"/>
     <use style="fill:#1f77b4;stroke:#1f77b4;" x="267.755256" xlink:href="#m90c6b555e2" y="386.058712"/>
     <use style="fill:#1f77b4;stroke:#1f77b4;" x="292.868892" xlink:href="#m90c6b555e2" y="369.560079"/>
     <use style="fill:#1f77b4;stroke:#1f77b4;" x="317.982528" xlink:href="#m90c6b555e2" y="348.472588"/>
     <use style="fill:#1f77b4;stroke:#1f77b4;" x="343.096165" xlink:href="#m90c6b555e2" y="323.330319"/>
     <use style="fill:#1f77b4;stroke:#1f77b4;" x="368.209801" xlink:href="#m90c6b555e2" y="292.387646"/>
     <use style="fill:#1f77b4;stroke:#1f77b4;" x="393.323438" xlink:href="#m90c6b555e2" y="256.353454"/>
     <use style="fill:#1f77b4;stroke:#1f77b4;" x="418.437074" xlink:href="#m90c6b555e2" y="220.065141"/>
     <use style="fill:#1f77b4;stroke:#1f77b4;" x="443.55071" xlink:href="#m90c6b555e2" y="180.618766"/>
     <use style="fill:#1f77b4;stroke:#1f77b4;" x="468.664347" xlink:href="#m90c6b555e2" y="143.515024"/>
     <use style="fill:#1f77b4;stroke:#1f77b4;" x="493.777983" xlink:href="#m90c6b555e2" y="109.893311"/>
     <use style="fill:#1f77b4;stroke:#1f77b4;" x="518.891619" xlink:href="#m90c6b555e2" y="83.299249"/>
     <use style="fill:#1f77b4;stroke:#1f77b4;" x="544.005256" xlink:href="#m90c6b555e2" y="64.802632"/>
     <use style="fill:#1f77b4;stroke:#1f77b4;" x="569.118892" xlink:href="#m90c6b555e2" y="52.897835"/>
     <use style="fill:#1f77b4;stroke:#1f77b4;" x="594.232528" xlink:href="#m90c6b555e2" y="47.945035"/>
     <use style="fill:#1f77b4;stroke:#1f77b4;" x="619.346165" xlink:href="#m90c6b555e2" y="46.033728"/>
     <use style="fill:#1f77b4;stroke:#1f77b4;" x="644.459801" xlink:href="#m90c6b555e2" y="46.693021"/>
     <use style="fill:#1f77b4;stroke:#1f77b4;" x="669.573438" xlink:href="#m90c6b555e2" y="45.072801"/>
     <use style="fill:#1f77b4;stroke:#1f77b4;" x="694.687074" xlink:href="#m90c6b555e2" y="46.167342"/>
    </g>
   </g>
   <g id="PathCollection_2">
    <defs>
     <path d="M 0 3 
C 0.795609 3 1.55874 2.683901 2.12132 2.12132 
C 2.683901 1.55874 3 0.795609 3 0 
C 3 -0.795609 2.683901 -1.55874 2.12132 -2.12132 
C 1.55874 -2.683901 0.795609 -3 0 -3 
C -0.795609 -3 -1.55874 -2.683901 -2.12132 -2.12132 
C -2.683901 -1.55874 -3 -0.795609 -3 0 
C -3 0.795609 -2.683901 1.55874 -2.12132 2.12132 
C -1.55874 2.683901 -0.795609 3 0 3 
z
" id="mfef7257eb7" style="stroke:#ff7f0e;"/>
    </defs>
    <g clip-path="url(#pe8b91de6c0)">
     <use style="fill:#ff7f0e;stroke:#ff7f0e;" x="91.959801" xlink:href="#mfef7257eb7" y="432.626114"/>
     <use style="fill:#ff7f0e;stroke:#ff7f0e;" x="117.073438" xlink:href="#mfef7257eb7" y="428.698646"/>
     <use style="fill:#ff7f0e;stroke:#ff7f0e;" x="142.187074" xlink:href="#mfef7257eb7" y="427.193429"/>
     <use style="fill:#ff7f0e;stroke:#ff7f0e;" x="167.30071" xlink:href="#mfef7257eb7" y="420.06025"/>
     <use style="fill:#ff7f0e;stroke:#ff7f0e;" x="192.414347" xlink:href="#mfef7257eb7" y="416.69869"/>
     <use style="fill:#ff7f0e;stroke:#ff7f0e;" x="217.527983" xlink:href="#mfef7257eb7" y="408.768559"/>
     <use style="fill:#ff7f0e;stroke:#ff7f0e;" x="242.641619" xlink:href="#mfef7257eb7" y="399.33557"/>
     <use style="fill:#ff7f0e;stroke:#ff7f0e;" x="267.755256" xlink:href="#mfef7257eb7" y="386.791142"/>
     <use style="fill:#ff7f0e;stroke:#ff7f0e;" x="292.868892" xlink:href="#mfef7257eb7" y="370.775825"/>
     <use style="fill:#ff7f0e;stroke:#ff7f0e;" x="317.982528" xlink:href="#mfef7257eb7" y="348.597794"/>
     <use style="fill:#ff7f0e;stroke:#ff7f0e;" x="343.096165" xlink:href="#mfef7257eb7" y="323.827523"/>
     <use style="fill:#ff7f0e;stroke:#ff7f0e;" x="368.209801" xlink:href="#mfef7257eb7" y="292.142793"/>
     <use style="fill:#ff7f0e;stroke:#ff7f0e;" x="393.323438" xlink:href="#mfef7257eb7" y="258.724765"/>
     <use style="fill:#ff7f0e;stroke:#ff7f0e;" x="418.437074" xlink:href="#mfef7257eb7" y="219.862873"/>
     <use style="fill:#ff7f0e;stroke:#ff7f0e;" x="443.55071" xlink:href="#mfef7257eb7" y="180.879678"/>
     <use style="fill:#ff7f0e;stroke:#ff7f0e;" x="468.664347" xlink:href="#mfef7257eb7" y="143.382848"/>
     <use style="fill:#ff7f0e;stroke:#ff7f0e;" x="493.777983" xlink:href="#mfef7257eb7" y="109.29124"/>
     <use style="fill:#ff7f0e;stroke:#ff7f0e;" x="518.891619" xlink:href="#mfef7257eb7" y="82.547967"/>
     <use style="fill:#ff7f0e;stroke:#ff7f0e;" x="544.005256" xlink:href="#mfef7257eb7" y="64.260967"/>
     <use style="fill:#ff7f0e;stroke:#ff7f0e;" x="569.118892" xlink:href="#mfef7257eb7" y="54.305974"/>
     <use style="fill:#ff7f0e;stroke:#ff7f0e;" x="594.232528" xlink:href="#mfef7257eb7" y="48.932851"/>
     <use style="fill:#ff7f0e;stroke:#ff7f0e;" x="619.346165" xlink:href="#mfef7257eb7" y="45.072801"/>
     <use style="fill:#ff7f0e;stroke:#ff7f0e;" x="644.459801" xlink:href="#mfef7257eb7" y="46.055422"/>
     <use style="fill:#ff7f0e;stroke:#ff7f0e;" x="669.573438" xlink:href="#mfef7257eb7" y="45.897604"/>
     <use style="fill:#ff7f0e;stroke:#ff7f0e;" x="694.687074" xlink:href="#mfef7257eb7" y="45.272986"/>
    </g>
   </g>
   <g id="PathCollection_3">
    <defs>
     <path d="M 0 3 
C 0.795609 3 1.55874 2.683901 2.12132 2.12132 
C 2.683901 1.55874 3 0.795609 3 0 
C 3 -0.795609 2.683901 -1.55874 2.12132 -2.12132 
C 1.55874 -2.683901 0.795609 -3 0 -3 
C -0.795609 -3 -1.55874 -2.683901 -2.12132 -2.12132 
C -2.683901 -1.55874 -3 -0.795609 -3 0 
C -3 0.795609 -2.683901 1.55874 -2.12132 2.12132 
C -1.55874 2.683901 -0.795609 3 0 3 
z
" id="m5d3f6f5313" style="stroke:#2ca02c;"/>
    </defs>
    <g clip-path="url(#pe8b91de6c0)">
     <use style="fill:#2ca02c;stroke:#2ca02c;" x="91.959801" xlink:href="#m5d3f6f5313" y="432.626114"/>
     <use style="fill:#2ca02c;stroke:#2ca02c;" x="117.073438" xlink:href="#m5d3f6f5313" y="430.024948"/>
     <use style="fill:#2ca02c;stroke:#2ca02c;" x="142.187074" xlink:href="#m5d3f6f5313" y="426.216701"/>
     <use style="fill:#2ca02c;stroke:#2ca02c;" x="167.30071" xlink:href="#m5d3f6f5313" y="422.141486"/>
     <use style="fill:#2ca02c;stroke:#2ca02c;" x="192.414347" xlink:href="#m5d3f6f5313" y="415.60778"/>
     <use style="fill:#2ca02c;stroke:#2ca02c;" x="217.527983" xlink:href="#m5d3f6f5313" y="409.775849"/>
     <use style="fill:#2ca02c;stroke:#2ca02c;" x="242.641619" xlink:href="#m5d3f6f5313" y="401.309742"/>
     <use style="fill:#2ca02c;stroke:#2ca02c;" x="267.755256" xlink:href="#m5d3f6f5313" y="387.135322"/>
     <use style="fill:#2ca02c;stroke:#2ca02c;" x="292.868892" xlink:href="#m5d3f6f5313" y="370.636197"/>
     <use style="fill:#2ca02c;stroke:#2ca02c;" x="317.982528" xlink:href="#m5d3f6f5313" y="350.286757"/>
     <use style="fill:#2ca02c;stroke:#2ca02c;" x="343.096165" xlink:href="#m5d3f6f5313" y="324.19762"/>
     <use style="fill:#2ca02c;stroke:#2ca02c;" x="368.209801" xlink:href="#m5d3f6f5313" y="294.755463"/>
     <use style="fill:#2ca02c;stroke:#2ca02c;" x="393.323438" xlink:href="#m5d3f6f5313" y="259.659703"/>
     <use style="fill:#2ca02c;stroke:#2ca02c;" x="418.437074" xlink:href="#m5d3f6f5313" y="222.034029"/>
     <use style="fill:#2ca02c;stroke:#2ca02c;" x="443.55071" xlink:href="#m5d3f6f5313" y="181.765187"/>
     <use style="fill:#2ca02c;stroke:#2ca02c;" x="468.664347" xlink:href="#m5d3f6f5313" y="144.121189"/>
     <use style="fill:#2ca02c;stroke:#2ca02c;" x="493.777983" xlink:href="#m5d3f6f5313" y="109.464402"/>
     <use style="fill:#2ca02c;stroke:#2ca02c;" x="518.891619" xlink:href="#m5d3f6f5313" y="82.471767"/>
     <use style="fill:#2ca02c;stroke:#2ca02c;" x="544.005256" xlink:href="#m5d3f6f5313" y="65.662685"/>
     <use style="fill:#2ca02c;stroke:#2ca02c;" x="569.118892" xlink:href="#m5d3f6f5313" y="53.015847"/>
     <use style="fill:#2ca02c;stroke:#2ca02c;" x="594.232528" xlink:href="#m5d3f6f5313" y="48.642626"/>
     <use style="fill:#2ca02c;stroke:#2ca02c;" x="619.346165" xlink:href="#m5d3f6f5313" y="46.093556"/>
     <use style="fill:#2ca02c;stroke:#2ca02c;" x="644.459801" xlink:href="#m5d3f6f5313" y="45.619347"/>
     <use style="fill:#2ca02c;stroke:#2ca02c;" x="669.573438" xlink:href="#m5d3f6f5313" y="45.671041"/>
     <use style="fill:#2ca02c;stroke:#2ca02c;" x="694.687074" xlink:href="#m5d3f6f5313" y="45.072801"/>
    </g>
   </g>
   <g id="PathCollection_4">
    <defs>
     <path d="M 0 3 
C 0.795609 3 1.55874 2.683901 2.12132 2.12132 
C 2.683901 1.55874 3 0.795609 3 0 
C 3 -0.795609 2.683901 -1.55874 2.12132 -2.12132 
C 1.55874 -2.683901 0.795609 -3 0 -3 
C -0.795609 -3 -1.55874 -2.683901 -2.12132 -2.12132 
C -2.683901 -1.55874 -3 -0.795609 -3 0 
C -3 0.795609 -2.683901 1.55874 -2.12132 2.12132 
C -1.55874 2.683901 -0.795609 3 0 3 
z
" id="ma01c4bb4d3" style="stroke:#d62728;"/>
    </defs>
    <g clip-path="url(#pe8b91de6c0)">
     <use style="fill:#d62728;stroke:#d62728;" x="91.959801" xlink:href="#ma01c4bb4d3" y="432.626114"/>
     <use style="fill:#d62728;stroke:#d62728;" x="117.073438" xlink:href="#ma01c4bb4d3" y="430.521106"/>
     <use style="fill:#d62728;stroke:#d62728;" x="142.187074" xlink:href="#ma01c4bb4d3" y="427.376977"/>
     <use style="fill:#d62728;stroke:#d62728;" x="167.30071" xlink:href="#ma01c4bb4d3" y="421.540037"/>
     <use style="fill:#d62728;stroke:#d62728;" x="192.414347" xlink:href="#ma01c4bb4d3" y="415.480987"/>
     <use style="fill:#d62728;stroke:#d62728;" x="217.527983" xlink:href="#ma01c4bb4d3" y="409.883919"/>
     <use style="fill:#d62728;stroke:#d62728;" x="242.641619" xlink:href="#ma01c4bb4d3" y="400.879159"/>
     <use style="fill:#d62728;stroke:#d62728;" x="267.755256" xlink:href="#ma01c4bb4d3" y="388.389041"/>
     <use style="fill:#d62728;stroke:#d62728;" x="292.868892" xlink:href="#ma01c4bb4d3" y="370.894653"/>
     <use style="fill:#d62728;stroke:#d62728;" x="317.982528" xlink:href="#ma01c4bb4d3" y="348.595414"/>
     <use style="fill:#d62728;stroke:#d62728;" x="343.096165" xlink:href="#ma01c4bb4d3" y="323.229155"/>
     <use style="fill:#d62728;stroke:#d62728;" x="368.209801" xlink:href="#ma01c4bb4d3" y="292.955496"/>
     <use style="fill:#d62728;stroke:#d62728;" x="393.323438" xlink:href="#ma01c4bb4d3" y="258.208942"/>
     <use style="fill:#d62728;stroke:#d62728;" x="418.437074" xlink:href="#ma01c4bb4d3" y="218.688486"/>
     <use style="fill:#d62728;stroke:#d62728;" x="443.55071" xlink:href="#ma01c4bb4d3" y="179.550717"/>
     <use style="fill:#d62728;stroke:#d62728;" x="468.664347" xlink:href="#ma01c4bb4d3" y="142.86596"/>
     <use style="fill:#d62728;stroke:#d62728;" x="493.777983" xlink:href="#ma01c4bb4d3" y="108.5954"/>
     <use style="fill:#d62728;stroke:#d62728;" x="518.891619" xlink:href="#ma01c4bb4d3" y="82.794151"/>
     <use style="fill:#d62728;stroke:#d62728;" x="544.005256" xlink:href="#ma01c4bb4d3" y="62.889897"/>
     <use style="fill:#d62728;stroke:#d62728;" x="569.118892" xlink:href="#ma01c4bb4d3" y="53.005686"/>
     <use style="fill:#d62728;stroke:#d62728;" x="594.232528" xlink:href="#ma01c4bb4d3" y="47.57721"/>
     <use style="fill:#d62728;stroke:#d62728;" x="619.346165" xlink:href="#ma01c4bb4d3" y="45.664526"/>
     <use style="fill:#d62728;stroke:#d62728;" x="644.459801" xlink:href="#ma01c4bb4d3" y="45.072801"/>
     <use style="fill:#d62728;stroke:#d62728;" x="669.573438" xlink:href="#ma01c4bb4d3" y="45.885537"/>
     <use style="fill:#d62728;stroke:#d62728;" x="694.687074" xlink:href="#ma01c4bb4d3" y="45.690623"/>
    </g>
   </g>
   <g id="PathCollection_5">
    <defs>
     <path d="M 0 3 
C 0.795609 3 1.55874 2.683901 2.12132 2.12132 
C 2.683901 1.55874 3 0.795609 3 0 
C 3 -0.795609 2.683901 -1.55874 2.12132 -2.12132 
C 1.55874 -2.683901 0.795609 -3 0 -3 
C -0.795609 -3 -1.55874 -2.683901 -2.12132 -2.12132 
C -2.683901 -1.55874 -3 -0.795609 -3 0 
C -3 0.795609 -2.683901 1.55874 -2.12132 2.12132 
C -1.55874 2.683901 -0.795609 3 0 3 
z
" id="m49cb80e0da" style="stroke:#9467bd;"/>
    </defs>
    <g clip-path="url(#pe8b91de6c0)">
     <use style="fill:#9467bd;stroke:#9467bd;" x="91.959801" xlink:href="#m49cb80e0da" y="432.626114"/>
     <use style="fill:#9467bd;stroke:#9467bd;" x="117.073438" xlink:href="#m49cb80e0da" y="429.620182"/>
     <use style="fill:#9467bd;stroke:#9467bd;" x="142.187074" xlink:href="#m49cb80e0da" y="426.701423"/>
     <use style="fill:#9467bd;stroke:#9467bd;" x="167.30071" xlink:href="#m49cb80e0da" y="422.238041"/>
     <use style="fill:#9467bd;stroke:#9467bd;" x="192.414347" xlink:href="#m49cb80e0da" y="414.569332"/>
     <use style="fill:#9467bd;stroke:#9467bd;" x="217.527983" xlink:href="#m49cb80e0da" y="405.825672"/>
     <use style="fill:#9467bd;stroke:#9467bd;" x="242.641619" xlink:href="#m49cb80e0da" y="399.391795"/>
     <use style="fill:#9467bd;stroke:#9467bd;" x="267.755256" xlink:href="#m49cb80e0da" y="386.20628"/>
     <use style="fill:#9467bd;stroke:#9467bd;" x="292.868892" xlink:href="#m49cb80e0da" y="367.537161"/>
     <use style="fill:#9467bd;stroke:#9467bd;" x="317.982528" xlink:href="#m49cb80e0da" y="344.506617"/>
     <use style="fill:#9467bd;stroke:#9467bd;" x="343.096165" xlink:href="#m49cb80e0da" y="318.168148"/>
     <use style="fill:#9467bd;stroke:#9467bd;" x="368.209801" xlink:href="#m49cb80e0da" y="286.241186"/>
     <use style="fill:#9467bd;stroke:#9467bd;" x="393.323438" xlink:href="#m49cb80e0da" y="252.362835"/>
     <use style="fill:#9467bd;stroke:#9467bd;" x="418.437074" xlink:href="#m49cb80e0da" y="211.805031"/>
     <use style="fill:#9467bd;stroke:#9467bd;" x="443.55071" xlink:href="#m49cb80e0da" y="174.223662"/>
     <use style="fill:#9467bd;stroke:#9467bd;" x="468.664347" xlink:href="#m49cb80e0da" y="136.073292"/>
     <use style="fill:#9467bd;stroke:#9467bd;" x="493.777983" xlink:href="#m49cb80e0da" y="105.97097"/>
     <use style="fill:#9467bd;stroke:#9467bd;" x="518.891619" xlink:href="#m49cb80e0da" y="79.305442"/>
     <use style="fill:#9467bd;stroke:#9467bd;" x="544.005256" xlink:href="#m49cb80e0da" y="63.339821"/>
     <use style="fill:#9467bd;stroke:#9467bd;" x="569.118892" xlink:href="#m49cb80e0da" y="54.200518"/>
     <use style="fill:#9467bd;stroke:#9467bd;" x="594.232528" xlink:href="#m49cb80e0da" y="47.367275"/>
     <use style="fill:#9467bd;stroke:#9467bd;" x="619.346165" xlink:href="#m49cb80e0da" y="46.364904"/>
     <use style="fill:#9467bd;stroke:#9467bd;" x="644.459801" xlink:href="#m49cb80e0da" y="45.758124"/>
     <use style="fill:#9467bd;stroke:#9467bd;" x="669.573438" xlink:href="#m49cb80e0da" y="45.072801"/>
     <use style="fill:#9467bd;stroke:#9467bd;" x="694.687074" xlink:href="#m49cb80e0da" y="45.155251"/>
    </g>
   </g>
   <g id="PathCollection_6">
    <defs>
     <path d="M 0 3 
C 0.795609 3 1.55874 2.683901 2.12132 2.12132 
C 2.683901 1.55874 3 0.795609 3 0 
C 3 -0.795609 2.683901 -1.55874 2.12132 -2.12132 
C 1.55874 -2.683901 0.795609 -3 0 -3 
C -0.795609 -3 -1.55874 -2.683901 -2.12132 -2.12132 
C -2.683901 -1.55874 -3 -0.795609 -3 0 
C -3 0.795609 -2.683901 1.55874 -2.12132 2.12132 
C -1.55874 2.683901 -0.795609 3 0 3 
z
" id="m5eebb8e1e8" style="stroke:#8c564b;"/>
    </defs>
    <g clip-path="url(#pe8b91de6c0)">
     <use style="fill:#8c564b;stroke:#8c564b;" x="91.959801" xlink:href="#m5eebb8e1e8" y="432.626114"/>
     <use style="fill:#8c564b;stroke:#8c564b;" x="117.073438" xlink:href="#m5eebb8e1e8" y="429.569841"/>
     <use style="fill:#8c564b;stroke:#8c564b;" x="142.187074" xlink:href="#m5eebb8e1e8" y="425.961902"/>
     <use style="fill:#8c564b;stroke:#8c564b;" x="167.30071" xlink:href="#m5eebb8e1e8" y="418.649922"/>
     <use style="fill:#8c564b;stroke:#8c564b;" x="192.414347" xlink:href="#m5eebb8e1e8" y="410.175394"/>
     <use style="fill:#8c564b;stroke:#8c564b;" x="217.527983" xlink:href="#m5eebb8e1e8" y="402.781929"/>
     <use style="fill:#8c564b;stroke:#8c564b;" x="242.641619" xlink:href="#m5eebb8e1e8" y="390.817712"/>
     <use style="fill:#8c564b;stroke:#8c564b;" x="267.755256" xlink:href="#m5eebb8e1e8" y="371.686155"/>
     <use style="fill:#8c564b;stroke:#8c564b;" x="292.868892" xlink:href="#m5eebb8e1e8" y="351.232999"/>
     <use style="fill:#8c564b;stroke:#8c564b;" x="317.982528" xlink:href="#m5eebb8e1e8" y="324.053904"/>
     <use style="fill:#8c564b;stroke:#8c564b;" x="343.096165" xlink:href="#m5eebb8e1e8" y="295.291945"/>
     <use style="fill:#8c564b;stroke:#8c564b;" x="368.209801" xlink:href="#m5eebb8e1e8" y="258.702715"/>
     <use style="fill:#8c564b;stroke:#8c564b;" x="393.323438" xlink:href="#m5eebb8e1e8" y="223.281209"/>
     <use style="fill:#8c564b;stroke:#8c564b;" x="418.437074" xlink:href="#m5eebb8e1e8" y="180.717433"/>
     <use style="fill:#8c564b;stroke:#8c564b;" x="443.55071" xlink:href="#m5eebb8e1e8" y="145.504697"/>
     <use style="fill:#8c564b;stroke:#8c564b;" x="468.664347" xlink:href="#m5eebb8e1e8" y="111.975878"/>
     <use style="fill:#8c564b;stroke:#8c564b;" x="493.777983" xlink:href="#m5eebb8e1e8" y="85.857244"/>
     <use style="fill:#8c564b;stroke:#8c564b;" x="518.891619" xlink:href="#m5eebb8e1e8" y="66.05302"/>
     <use style="fill:#8c564b;stroke:#8c564b;" x="544.005256" xlink:href="#m5eebb8e1e8" y="55.452905"/>
     <use style="fill:#8c564b;stroke:#8c564b;" x="569.118892" xlink:href="#m5eebb8e1e8" y="49.904115"/>
     <use style="fill:#8c564b;stroke:#8c564b;" x="594.232528" xlink:href="#m5eebb8e1e8" y="46.72062"/>
     <use style="fill:#8c564b;stroke:#8c564b;" x="619.346165" xlink:href="#m5eebb8e1e8" y="45.072801"/>
     <use style="fill:#8c564b;stroke:#8c564b;" x="644.459801" xlink:href="#m5eebb8e1e8" y="45.584904"/>
     <use style="fill:#8c564b;stroke:#8c564b;" x="669.573438" xlink:href="#m5eebb8e1e8" y="46.018637"/>
     <use style="fill:#8c564b;stroke:#8c564b;" x="694.687074" xlink:href="#m5eebb8e1e8" y="46.261828"/>
    </g>
   </g>
   <g id="PathCollection_7">
    <defs>
     <path d="M 0 3 
C 0.795609 3 1.55874 2.683901 2.12132 2.12132 
C 2.683901 1.55874 3 0.795609 3 0 
C 3 -0.795609 2.683901 -1.55874 2.12132 -2.12132 
C 1.55874 -2.683901 0.795609 -3 0 -3 
C -0.795609 -3 -1.55874 -2.683901 -2.12132 -2.12132 
C -2.683901 -1.55874 -3 -0.795609 -3 0 
C -3 0.795609 -2.683901 1.55874 -2.12132 2.12132 
C -1.55874 2.683901 -0.795609 3 0 3 
z
" id="md9391caf11" style="stroke:#e377c2;"/>
    </defs>
    <g clip-path="url(#pe8b91de6c0)">
     <use style="fill:#e377c2;stroke:#e377c2;" x="91.959801" xlink:href="#md9391caf11" y="432.626114"/>
     <use style="fill:#e377c2;stroke:#e377c2;" x="117.073438" xlink:href="#md9391caf11" y="428.306794"/>
     <use style="fill:#e377c2;stroke:#e377c2;" x="142.187074" xlink:href="#md9391caf11" y="424.99103"/>
     <use style="fill:#e377c2;stroke:#e377c2;" x="167.30071" xlink:href="#md9391caf11" y="414.230619"/>
     <use style="fill:#e377c2;stroke:#e377c2;" x="192.414347" xlink:href="#md9391caf11" y="405.01867"/>
     <use style="fill:#e377c2;stroke:#e377c2;" x="217.527983" xlink:href="#md9391caf11" y="391.399527"/>
     <use style="fill:#e377c2;stroke:#e377c2;" x="242.641619" xlink:href="#md9391caf11" y="377.281978"/>
     <use style="fill:#e377c2;stroke:#e377c2;" x="267.755256" xlink:href="#md9391caf11" y="354.281137"/>
     <use style="fill:#e377c2;stroke:#e377c2;" x="292.868892" xlink:href="#md9391caf11" y="328.513147"/>
     <use style="fill:#e377c2;stroke:#e377c2;" x="317.982528" xlink:href="#md9391caf11" y="296.685773"/>
     <use style="fill:#e377c2;stroke:#e377c2;" x="343.096165" xlink:href="#md9391caf11" y="262.193203"/>
     <use style="fill:#e377c2;stroke:#e377c2;" x="368.209801" xlink:href="#md9391caf11" y="221.689392"/>
     <use style="fill:#e377c2;stroke:#e377c2;" x="393.323438" xlink:href="#md9391caf11" y="183.531161"/>
     <use style="fill:#e377c2;stroke:#e377c2;" x="418.437074" xlink:href="#md9391caf11" y="147.079662"/>
     <use style="fill:#e377c2;stroke:#e377c2;" x="443.55071" xlink:href="#md9391caf11" y="114.204973"/>
     <use style="fill:#e377c2;stroke:#e377c2;" x="468.664347" xlink:href="#md9391caf11" y="87.295442"/>
     <use style="fill:#e377c2;stroke:#e377c2;" x="493.777983" xlink:href="#md9391caf11" y="69.941016"/>
     <use style="fill:#e377c2;stroke:#e377c2;" x="518.891619" xlink:href="#md9391caf11" y="56.936677"/>
     <use style="fill:#e377c2;stroke:#e377c2;" x="544.005256" xlink:href="#md9391caf11" y="49.66777"/>
     <use style="fill:#e377c2;stroke:#e377c2;" x="569.118892" xlink:href="#md9391caf11" y="47.244747"/>
     <use style="fill:#e377c2;stroke:#e377c2;" x="594.232528" xlink:href="#md9391caf11" y="46.864926"/>
     <use style="fill:#e377c2;stroke:#e377c2;" x="619.346165" xlink:href="#md9391caf11" y="45.312558"/>
     <use style="fill:#e377c2;stroke:#e377c2;" x="644.459801" xlink:href="#md9391caf11" y="48.07647"/>
     <use style="fill:#e377c2;stroke:#e377c2;" x="669.573438" xlink:href="#md9391caf11" y="45.072801"/>
     <use style="fill:#e377c2;stroke:#e377c2;" x="694.687074" xlink:href="#md9391caf11" y="46.983141"/>
    </g>
   </g>
   <g id="PathCollection_8">
    <defs>
     <path d="M 0 3 
C 0.795609 3 1.55874 2.683901 2.12132 2.12132 
C 2.683901 1.55874 3 0.795609 3 0 
C 3 -0.795609 2.683901 -1.55874 2.12132 -2.12132 
C 1.55874 -2.683901 0.795609 -3 0 -3 
C -0.795609 -3 -1.55874 -2.683901 -2.12132 -2.12132 
C -2.683901 -1.55874 -3 -0.795609 -3 0 
C -3 0.795609 -2.683901 1.55874 -2.12132 2.12132 
C -1.55874 2.683901 -0.795609 3 0 3 
z
" id="m1e7800d48a" style="stroke:#7f7f7f;"/>
    </defs>
    <g clip-path="url(#pe8b91de6c0)">
     <use style="fill:#7f7f7f;stroke:#7f7f7f;" x="91.959801" xlink:href="#m1e7800d48a" y="432.626114"/>
     <use style="fill:#7f7f7f;stroke:#7f7f7f;" x="117.073438" xlink:href="#m1e7800d48a" y="425.703734"/>
     <use style="fill:#7f7f7f;stroke:#7f7f7f;" x="142.187074" xlink:href="#m1e7800d48a" y="418.749545"/>
     <use style="fill:#7f7f7f;stroke:#7f7f7f;" x="167.30071" xlink:href="#m1e7800d48a" y="406.364187"/>
     <use style="fill:#7f7f7f;stroke:#7f7f7f;" x="192.414347" xlink:href="#m1e7800d48a" y="394.202426"/>
     <use style="fill:#7f7f7f;stroke:#7f7f7f;" x="217.527983" xlink:href="#m1e7800d48a" y="378.814001"/>
     <use style="fill:#7f7f7f;stroke:#7f7f7f;" x="242.641619" xlink:href="#m1e7800d48a" y="356.055409"/>
     <use style="fill:#7f7f7f;stroke:#7f7f7f;" x="267.755256" xlink:href="#m1e7800d48a" y="329.184135"/>
     <use style="fill:#7f7f7f;stroke:#7f7f7f;" x="292.868892" xlink:href="#m1e7800d48a" y="296.639114"/>
     <use style="fill:#7f7f7f;stroke:#7f7f7f;" x="317.982528" xlink:href="#m1e7800d48a" y="260.256199"/>
     <use style="fill:#7f7f7f;stroke:#7f7f7f;" x="343.096165" xlink:href="#m1e7800d48a" y="220.283554"/>
     <use style="fill:#7f7f7f;stroke:#7f7f7f;" x="368.209801" xlink:href="#m1e7800d48a" y="181.338919"/>
     <use style="fill:#7f7f7f;stroke:#7f7f7f;" x="393.323438" xlink:href="#m1e7800d48a" y="142.153904"/>
     <use style="fill:#7f7f7f;stroke:#7f7f7f;" x="418.437074" xlink:href="#m1e7800d48a" y="111.288182"/>
     <use style="fill:#7f7f7f;stroke:#7f7f7f;" x="443.55071" xlink:href="#m1e7800d48a" y="84.607508"/>
     <use style="fill:#7f7f7f;stroke:#7f7f7f;" x="468.664347" xlink:href="#m1e7800d48a" y="68.896242"/>
     <use style="fill:#7f7f7f;stroke:#7f7f7f;" x="493.777983" xlink:href="#m1e7800d48a" y="55.855496"/>
     <use style="fill:#7f7f7f;stroke:#7f7f7f;" x="518.891619" xlink:href="#m1e7800d48a" y="51.5828"/>
     <use style="fill:#7f7f7f;stroke:#7f7f7f;" x="544.005256" xlink:href="#m1e7800d48a" y="48.639451"/>
     <use style="fill:#7f7f7f;stroke:#7f7f7f;" x="569.118892" xlink:href="#m1e7800d48a" y="49.09066"/>
     <use style="fill:#7f7f7f;stroke:#7f7f7f;" x="594.232528" xlink:href="#m1e7800d48a" y="49.517254"/>
     <use style="fill:#7f7f7f;stroke:#7f7f7f;" x="619.346165" xlink:href="#m1e7800d48a" y="48.886515"/>
     <use style="fill:#7f7f7f;stroke:#7f7f7f;" x="644.459801" xlink:href="#m1e7800d48a" y="46.10204"/>
     <use style="fill:#7f7f7f;stroke:#7f7f7f;" x="669.573438" xlink:href="#m1e7800d48a" y="45.072801"/>
     <use style="fill:#7f7f7f;stroke:#7f7f7f;" x="694.687074" xlink:href="#m1e7800d48a" y="46.1912"/>
    </g>
   </g>
   <g id="PathCollection_9">
    <defs>
     <path d="M 0 3 
C 0.795609 3 1.55874 2.683901 2.12132 2.12132 
C 2.683901 1.55874 3 0.795609 3 0 
C 3 -0.795609 2.683901 -1.55874 2.12132 -2.12132 
C 1.55874 -2.683901 0.795609 -3 0 -3 
C -0.795609 -3 -1.55874 -2.683901 -2.12132 -2.12132 
C -2.683901 -1.55874 -3 -0.795609 -3 0 
C -3 0.795609 -2.683901 1.55874 -2.12132 2.12132 
C -1.55874 2.683901 -0.795609 3 0 3 
z
" id="mebd02787fa" style="stroke:#bcbd22;"/>
    </defs>
    <g clip-path="url(#pe8b91de6c0)">
     <use style="fill:#bcbd22;stroke:#bcbd22;" x="91.959801" xlink:href="#mebd02787fa" y="432.626114"/>
     <use style="fill:#bcbd22;stroke:#bcbd22;" x="117.073438" xlink:href="#mebd02787fa" y="426.928092"/>
     <use style="fill:#bcbd22;stroke:#bcbd22;" x="142.187074" xlink:href="#mebd02787fa" y="418.263553"/>
     <use style="fill:#bcbd22;stroke:#bcbd22;" x="167.30071" xlink:href="#mebd02787fa" y="402.173002"/>
     <use style="fill:#bcbd22;stroke:#bcbd22;" x="192.414347" xlink:href="#mebd02787fa" y="383.442877"/>
     <use style="fill:#bcbd22;stroke:#bcbd22;" x="217.527983" xlink:href="#mebd02787fa" y="361.692027"/>
     <use style="fill:#bcbd22;stroke:#bcbd22;" x="242.641619" xlink:href="#mebd02787fa" y="330.235915"/>
     <use style="fill:#bcbd22;stroke:#bcbd22;" x="267.755256" xlink:href="#mebd02787fa" y="295.407066"/>
     <use style="fill:#bcbd22;stroke:#bcbd22;" x="292.868892" xlink:href="#mebd02787fa" y="255.774361"/>
     <use style="fill:#bcbd22;stroke:#bcbd22;" x="317.982528" xlink:href="#mebd02787fa" y="212.21231"/>
     <use style="fill:#bcbd22;stroke:#bcbd22;" x="343.096165" xlink:href="#mebd02787fa" y="172.25046"/>
     <use style="fill:#bcbd22;stroke:#bcbd22;" x="368.209801" xlink:href="#mebd02787fa" y="130.807105"/>
     <use style="fill:#bcbd22;stroke:#bcbd22;" x="393.323438" xlink:href="#mebd02787fa" y="99.256151"/>
     <use style="fill:#bcbd22;stroke:#bcbd22;" x="418.437074" xlink:href="#mebd02787fa" y="78.029644"/>
     <use style="fill:#bcbd22;stroke:#bcbd22;" x="443.55071" xlink:href="#mebd02787fa" y="64.992223"/>
     <use style="fill:#bcbd22;stroke:#bcbd22;" x="468.664347" xlink:href="#mebd02787fa" y="56.841756"/>
     <use style="fill:#bcbd22;stroke:#bcbd22;" x="493.777983" xlink:href="#mebd02787fa" y="53.128546"/>
     <use style="fill:#bcbd22;stroke:#bcbd22;" x="518.891619" xlink:href="#mebd02787fa" y="53.607109"/>
     <use style="fill:#bcbd22;stroke:#bcbd22;" x="544.005256" xlink:href="#mebd02787fa" y="50.953391"/>
     <use style="fill:#bcbd22;stroke:#bcbd22;" x="569.118892" xlink:href="#mebd02787fa" y="50.145148"/>
     <use style="fill:#bcbd22;stroke:#bcbd22;" x="594.232528" xlink:href="#mebd02787fa" y="49.740619"/>
     <use style="fill:#bcbd22;stroke:#bcbd22;" x="619.346165" xlink:href="#mebd02787fa" y="49.338995"/>
     <use style="fill:#bcbd22;stroke:#bcbd22;" x="644.459801" xlink:href="#mebd02787fa" y="47.192764"/>
     <use style="fill:#bcbd22;stroke:#bcbd22;" x="669.573438" xlink:href="#mebd02787fa" y="46.278328"/>
     <use style="fill:#bcbd22;stroke:#bcbd22;" x="694.687074" xlink:href="#mebd02787fa" y="45.072801"/>
    </g>
   </g>
   <g id="matplotlib.axis_1">
    <g id="xtick_1">
     <g id="line2d_1">
      <defs>
       <path d="M 0 0 
L 0 3.5 
" id="mc48d79248b" style="stroke:#000000;stroke-width:0.8;"/>
      </defs>
      <g>
       <use style="stroke:#000000;stroke-width:0.8;" x="187.751986" xlink:href="#mc48d79248b" y="457.198125"/>
      </g>
     </g>
     <g id="text_1">
      <!-- $\mathdefault{10^{-4}}$ -->
      <defs>
       <path d="M 12.40625 8.296875 
L 28.515625 8.296875 
L 28.515625 63.921875 
L 10.984375 60.40625 
L 10.984375 69.390625 
L 28.421875 72.90625 
L 38.28125 72.90625 
L 38.28125 8.296875 
L 54.390625 8.296875 
L 54.390625 0 
L 12.40625 0 
z
" id="DejaVuSans-31"/>
       <path d="M 31.78125 66.40625 
Q 24.171875 66.40625 20.328125 58.90625 
Q 16.5 51.421875 16.5 36.375 
Q 16.5 21.390625 20.328125 13.890625 
Q 24.171875 6.390625 31.78125 6.390625 
Q 39.453125 6.390625 43.28125 13.890625 
Q 47.125 21.390625 47.125 36.375 
Q 47.125 51.421875 43.28125 58.90625 
Q 39.453125 66.40625 31.78125 66.40625 
z
M 31.78125 74.21875 
Q 44.046875 74.21875 50.515625 64.515625 
Q 56.984375 54.828125 56.984375 36.375 
Q 56.984375 17.96875 50.515625 8.265625 
Q 44.046875 -1.421875 31.78125 -1.421875 
Q 19.53125 -1.421875 13.0625 8.265625 
Q 6.59375 17.96875 6.59375 36.375 
Q 6.59375 54.828125 13.0625 64.515625 
Q 19.53125 74.21875 31.78125 74.21875 
z
" id="DejaVuSans-30"/>
       <path d="M 10.59375 35.5 
L 73.1875 35.5 
L 73.1875 27.203125 
L 10.59375 27.203125 
z
" id="DejaVuSans-2212"/>
       <path d="M 37.796875 64.3125 
L 12.890625 25.390625 
L 37.796875 25.390625 
z
M 35.203125 72.90625 
L 47.609375 72.90625 
L 47.609375 25.390625 
L 58.015625 25.390625 
L 58.015625 17.1875 
L 47.609375 17.1875 
L 47.609375 0 
L 37.796875 0 
L 37.796875 17.1875 
L 4.890625 17.1875 
L 4.890625 26.703125 
z
" id="DejaVuSans-34"/>
      </defs>
      <g transform="translate(176.001986 471.796562)scale(0.1 -0.1)">
       <use transform="translate(0 0.684375)" xlink:href="#DejaVuSans-31"/>
       <use transform="translate(63.623047 0.684375)" xlink:href="#DejaVuSans-30"/>
       <use transform="translate(128.203125 38.965625)scale(0.7)" xlink:href="#DejaVuSans-2212"/>
       <use transform="translate(186.855469 38.965625)scale(0.7)" xlink:href="#DejaVuSans-34"/>
      </g>
     </g>
    </g>
    <g id="xtick_2">
     <g id="line2d_2">
      <g>
       <use style="stroke:#000000;stroke-width:0.8;" x="324.79962" xlink:href="#mc48d79248b" y="457.198125"/>
      </g>
     </g>
     <g id="text_2">
      <!-- $\mathdefault{10^{-3}}$ -->
      <defs>
       <path d="M 40.578125 39.3125 
Q 47.65625 37.796875 51.625 33 
Q 55.609375 28.21875 55.609375 21.1875 
Q 55.609375 10.40625 48.1875 4.484375 
Q 40.765625 -1.421875 27.09375 -1.421875 
Q 22.515625 -1.421875 17.65625 -0.515625 
Q 12.796875 0.390625 7.625 2.203125 
L 7.625 11.71875 
Q 11.71875 9.328125 16.59375 8.109375 
Q 21.484375 6.890625 26.8125 6.890625 
Q 36.078125 6.890625 40.9375 10.546875 
Q 45.796875 14.203125 45.796875 21.1875 
Q 45.796875 27.640625 41.28125 31.265625 
Q 36.765625 34.90625 28.71875 34.90625 
L 20.21875 34.90625 
L 20.21875 43.015625 
L 29.109375 43.015625 
Q 36.375 43.015625 40.234375 45.921875 
Q 44.09375 48.828125 44.09375 54.296875 
Q 44.09375 59.90625 40.109375 62.90625 
Q 36.140625 65.921875 28.71875 65.921875 
Q 24.65625 65.921875 20.015625 65.03125 
Q 15.375 64.15625 9.8125 62.3125 
L 9.8125 71.09375 
Q 15.4375 72.65625 20.34375 73.4375 
Q 25.25 74.21875 29.59375 74.21875 
Q 40.828125 74.21875 47.359375 69.109375 
Q 53.90625 64.015625 53.90625 55.328125 
Q 53.90625 49.265625 50.4375 45.09375 
Q 46.96875 40.921875 40.578125 39.3125 
z
" id="DejaVuSans-33"/>
      </defs>
      <g transform="translate(313.04962 471.796562)scale(0.1 -0.1)">
       <use transform="translate(0 0.765625)" xlink:href="#DejaVuSans-31"/>
       <use transform="translate(63.623047 0.765625)" xlink:href="#DejaVuSans-30"/>
       <use transform="translate(128.203125 39.046875)scale(0.7)" xlink:href="#DejaVuSans-2212"/>
       <use transform="translate(186.855469 39.046875)scale(0.7)" xlink:href="#DejaVuSans-33"/>
      </g>
     </g>
    </g>
    <g id="xtick_3">
     <g id="line2d_3">
      <g>
       <use style="stroke:#000000;stroke-width:0.8;" x="461.847255" xlink:href="#mc48d79248b" y="457.198125"/>
      </g>
     </g>
     <g id="text_3">
      <!-- $\mathdefault{10^{-2}}$ -->
      <defs>
       <path d="M 19.1875 8.296875 
L 53.609375 8.296875 
L 53.609375 0 
L 7.328125 0 
L 7.328125 8.296875 
Q 12.9375 14.109375 22.625 23.890625 
Q 32.328125 33.6875 34.8125 36.53125 
Q 39.546875 41.84375 41.421875 45.53125 
Q 43.3125 49.21875 43.3125 52.78125 
Q 43.3125 58.59375 39.234375 62.25 
Q 35.15625 65.921875 28.609375 65.921875 
Q 23.96875 65.921875 18.8125 64.3125 
Q 13.671875 62.703125 7.8125 59.421875 
L 7.8125 69.390625 
Q 13.765625 71.78125 18.9375 73 
Q 24.125 74.21875 28.421875 74.21875 
Q 39.75 74.21875 46.484375 68.546875 
Q 53.21875 62.890625 53.21875 53.421875 
Q 53.21875 48.921875 51.53125 44.890625 
Q 49.859375 40.875 45.40625 35.40625 
Q 44.1875 33.984375 37.640625 27.21875 
Q 31.109375 20.453125 19.1875 8.296875 
z
" id="DejaVuSans-32"/>
      </defs>
      <g transform="translate(450.097255 471.796562)scale(0.1 -0.1)">
       <use transform="translate(0 0.765625)" xlink:href="#DejaVuSans-31"/>
       <use transform="translate(63.623047 0.765625)" xlink:href="#DejaVuSans-30"/>
       <use transform="translate(128.203125 39.046875)scale(0.7)" xlink:href="#DejaVuSans-2212"/>
       <use transform="translate(186.855469 39.046875)scale(0.7)" xlink:href="#DejaVuSans-32"/>
      </g>
     </g>
    </g>
    <g id="xtick_4">
     <g id="line2d_4">
      <g>
       <use style="stroke:#000000;stroke-width:0.8;" x="598.894889" xlink:href="#mc48d79248b" y="457.198125"/>
      </g>
     </g>
     <g id="text_4">
      <!-- $\mathdefault{10^{-1}}$ -->
      <g transform="translate(587.144889 471.796562)scale(0.1 -0.1)">
       <use transform="translate(0 0.684375)" xlink:href="#DejaVuSans-31"/>
       <use transform="translate(63.623047 0.684375)" xlink:href="#DejaVuSans-30"/>
       <use transform="translate(128.203125 38.965625)scale(0.7)" xlink:href="#DejaVuSans-2212"/>
       <use transform="translate(186.855469 38.965625)scale(0.7)" xlink:href="#DejaVuSans-31"/>
      </g>
     </g>
    </g>
    <g id="xtick_5">
     <g id="line2d_5">
      <defs>
       <path d="M 0 0 
L 0 2 
" id="mc8f9b474a0" style="stroke:#000000;stroke-width:0.6;"/>
      </defs>
      <g>
       <use style="stroke:#000000;stroke-width:0.6;" x="91.959801" xlink:href="#mc8f9b474a0" y="457.198125"/>
      </g>
     </g>
    </g>
    <g id="xtick_6">
     <g id="line2d_6">
      <g>
       <use style="stroke:#000000;stroke-width:0.6;" x="116.092692" xlink:href="#mc8f9b474a0" y="457.198125"/>
      </g>
     </g>
    </g>
    <g id="xtick_7">
     <g id="line2d_7">
      <g>
       <use style="stroke:#000000;stroke-width:0.6;" x="133.21525" xlink:href="#mc8f9b474a0" y="457.198125"/>
      </g>
     </g>
    </g>
    <g id="xtick_8">
     <g id="line2d_8">
      <g>
       <use style="stroke:#000000;stroke-width:0.6;" x="146.496538" xlink:href="#mc8f9b474a0" y="457.198125"/>
      </g>
     </g>
    </g>
    <g id="xtick_9">
     <g id="line2d_9">
      <g>
       <use style="stroke:#000000;stroke-width:0.6;" x="157.34814" xlink:href="#mc8f9b474a0" y="457.198125"/>
      </g>
     </g>
    </g>
    <g id="xtick_10">
     <g id="line2d_10">
      <g>
       <use style="stroke:#000000;stroke-width:0.6;" x="166.523039" xlink:href="#mc8f9b474a0" y="457.198125"/>
      </g>
     </g>
    </g>
    <g id="xtick_11">
     <g id="line2d_11">
      <g>
       <use style="stroke:#000000;stroke-width:0.6;" x="174.470698" xlink:href="#mc8f9b474a0" y="457.198125"/>
      </g>
     </g>
    </g>
    <g id="xtick_12">
     <g id="line2d_12">
      <g>
       <use style="stroke:#000000;stroke-width:0.6;" x="181.481031" xlink:href="#mc8f9b474a0" y="457.198125"/>
      </g>
     </g>
    </g>
    <g id="xtick_13">
     <g id="line2d_13">
      <g>
       <use style="stroke:#000000;stroke-width:0.6;" x="229.007435" xlink:href="#mc8f9b474a0" y="457.198125"/>
      </g>
     </g>
    </g>
    <g id="xtick_14">
     <g id="line2d_14">
      <g>
       <use style="stroke:#000000;stroke-width:0.6;" x="253.140326" xlink:href="#mc8f9b474a0" y="457.198125"/>
      </g>
     </g>
    </g>
    <g id="xtick_15">
     <g id="line2d_15">
      <g>
       <use style="stroke:#000000;stroke-width:0.6;" x="270.262884" xlink:href="#mc8f9b474a0" y="457.198125"/>
      </g>
     </g>
    </g>
    <g id="xtick_16">
     <g id="line2d_16">
      <g>
       <use style="stroke:#000000;stroke-width:0.6;" x="283.544172" xlink:href="#mc8f9b474a0" y="457.198125"/>
      </g>
     </g>
    </g>
    <g id="xtick_17">
     <g id="line2d_17">
      <g>
       <use style="stroke:#000000;stroke-width:0.6;" x="294.395774" xlink:href="#mc8f9b474a0" y="457.198125"/>
      </g>
     </g>
    </g>
    <g id="xtick_18">
     <g id="line2d_18">
      <g>
       <use style="stroke:#000000;stroke-width:0.6;" x="303.570673" xlink:href="#mc8f9b474a0" y="457.198125"/>
      </g>
     </g>
    </g>
    <g id="xtick_19">
     <g id="line2d_19">
      <g>
       <use style="stroke:#000000;stroke-width:0.6;" x="311.518332" xlink:href="#mc8f9b474a0" y="457.198125"/>
      </g>
     </g>
    </g>
    <g id="xtick_20">
     <g id="line2d_20">
      <g>
       <use style="stroke:#000000;stroke-width:0.6;" x="318.528665" xlink:href="#mc8f9b474a0" y="457.198125"/>
      </g>
     </g>
    </g>
    <g id="xtick_21">
     <g id="line2d_21">
      <g>
       <use style="stroke:#000000;stroke-width:0.6;" x="366.055069" xlink:href="#mc8f9b474a0" y="457.198125"/>
      </g>
     </g>
    </g>
    <g id="xtick_22">
     <g id="line2d_22">
      <g>
       <use style="stroke:#000000;stroke-width:0.6;" x="390.18796" xlink:href="#mc8f9b474a0" y="457.198125"/>
      </g>
     </g>
    </g>
    <g id="xtick_23">
     <g id="line2d_23">
      <g>
       <use style="stroke:#000000;stroke-width:0.6;" x="407.310518" xlink:href="#mc8f9b474a0" y="457.198125"/>
      </g>
     </g>
    </g>
    <g id="xtick_24">
     <g id="line2d_24">
      <g>
       <use style="stroke:#000000;stroke-width:0.6;" x="420.591806" xlink:href="#mc8f9b474a0" y="457.198125"/>
      </g>
     </g>
    </g>
    <g id="xtick_25">
     <g id="line2d_25">
      <g>
       <use style="stroke:#000000;stroke-width:0.6;" x="431.443408" xlink:href="#mc8f9b474a0" y="457.198125"/>
      </g>
     </g>
    </g>
    <g id="xtick_26">
     <g id="line2d_26">
      <g>
       <use style="stroke:#000000;stroke-width:0.6;" x="440.618307" xlink:href="#mc8f9b474a0" y="457.198125"/>
      </g>
     </g>
    </g>
    <g id="xtick_27">
     <g id="line2d_27">
      <g>
       <use style="stroke:#000000;stroke-width:0.6;" x="448.565967" xlink:href="#mc8f9b474a0" y="457.198125"/>
      </g>
     </g>
    </g>
    <g id="xtick_28">
     <g id="line2d_28">
      <g>
       <use style="stroke:#000000;stroke-width:0.6;" x="455.576299" xlink:href="#mc8f9b474a0" y="457.198125"/>
      </g>
     </g>
    </g>
    <g id="xtick_29">
     <g id="line2d_29">
      <g>
       <use style="stroke:#000000;stroke-width:0.6;" x="503.102703" xlink:href="#mc8f9b474a0" y="457.198125"/>
      </g>
     </g>
    </g>
    <g id="xtick_30">
     <g id="line2d_30">
      <g>
       <use style="stroke:#000000;stroke-width:0.6;" x="527.235594" xlink:href="#mc8f9b474a0" y="457.198125"/>
      </g>
     </g>
    </g>
    <g id="xtick_31">
     <g id="line2d_31">
      <g>
       <use style="stroke:#000000;stroke-width:0.6;" x="544.358152" xlink:href="#mc8f9b474a0" y="457.198125"/>
      </g>
     </g>
    </g>
    <g id="xtick_32">
     <g id="line2d_32">
      <g>
       <use style="stroke:#000000;stroke-width:0.6;" x="557.63944" xlink:href="#mc8f9b474a0" y="457.198125"/>
      </g>
     </g>
    </g>
    <g id="xtick_33">
     <g id="line2d_33">
      <g>
       <use style="stroke:#000000;stroke-width:0.6;" x="568.491042" xlink:href="#mc8f9b474a0" y="457.198125"/>
      </g>
     </g>
    </g>
    <g id="xtick_34">
     <g id="line2d_34">
      <g>
       <use style="stroke:#000000;stroke-width:0.6;" x="577.665941" xlink:href="#mc8f9b474a0" y="457.198125"/>
      </g>
     </g>
    </g>
    <g id="xtick_35">
     <g id="line2d_35">
      <g>
       <use style="stroke:#000000;stroke-width:0.6;" x="585.613601" xlink:href="#mc8f9b474a0" y="457.198125"/>
      </g>
     </g>
    </g>
    <g id="xtick_36">
     <g id="line2d_36">
      <g>
       <use style="stroke:#000000;stroke-width:0.6;" x="592.623933" xlink:href="#mc8f9b474a0" y="457.198125"/>
      </g>
     </g>
    </g>
    <g id="xtick_37">
     <g id="line2d_37">
      <g>
       <use style="stroke:#000000;stroke-width:0.6;" x="640.150337" xlink:href="#mc8f9b474a0" y="457.198125"/>
      </g>
     </g>
    </g>
    <g id="xtick_38">
     <g id="line2d_38">
      <g>
       <use style="stroke:#000000;stroke-width:0.6;" x="664.283228" xlink:href="#mc8f9b474a0" y="457.198125"/>
      </g>
     </g>
    </g>
    <g id="xtick_39">
     <g id="line2d_39">
      <g>
       <use style="stroke:#000000;stroke-width:0.6;" x="681.405786" xlink:href="#mc8f9b474a0" y="457.198125"/>
      </g>
     </g>
    </g>
    <g id="xtick_40">
     <g id="line2d_40">
      <g>
       <use style="stroke:#000000;stroke-width:0.6;" x="694.687074" xlink:href="#mc8f9b474a0" y="457.198125"/>
      </g>
     </g>
    </g>
    <g id="xtick_41">
     <g id="line2d_41">
      <g>
       <use style="stroke:#000000;stroke-width:0.6;" x="705.538676" xlink:href="#mc8f9b474a0" y="457.198125"/>
      </g>
     </g>
    </g>
    <g id="xtick_42">
     <g id="line2d_42">
      <g>
       <use style="stroke:#000000;stroke-width:0.6;" x="714.713575" xlink:href="#mc8f9b474a0" y="457.198125"/>
      </g>
     </g>
    </g>
    <g id="xtick_43">
     <g id="line2d_43">
      <g>
       <use style="stroke:#000000;stroke-width:0.6;" x="722.661235" xlink:href="#mc8f9b474a0" y="457.198125"/>
      </g>
     </g>
    </g>
    <g id="text_5">
     <!-- $t_w$ [s] -->
     <defs>
      <path d="M 42.28125 54.6875 
L 40.921875 47.703125 
L 23 47.703125 
L 17.1875 18.015625 
Q 16.890625 16.359375 16.75 15.234375 
Q 16.609375 14.109375 16.609375 13.484375 
Q 16.609375 10.359375 18.484375 8.9375 
Q 20.359375 7.515625 24.515625 7.515625 
L 33.59375 7.515625 
L 32.078125 0 
L 23.484375 0 
Q 15.484375 0 11.546875 3.125 
Q 7.625 6.25 7.625 12.59375 
Q 7.625 13.71875 7.765625 15.0625 
Q 7.90625 16.40625 8.203125 18.015625 
L 14.015625 47.703125 
L 6.390625 47.703125 
L 7.8125 54.6875 
L 15.28125 54.6875 
L 18.3125 70.21875 
L 27.296875 70.21875 
L 24.3125 54.6875 
z
" id="DejaVuSans-Oblique-74"/>
      <path d="M 8.5 54.6875 
L 17.390625 54.6875 
L 19.671875 10.6875 
L 40.09375 54.6875 
L 50.484375 54.6875 
L 53.515625 10.6875 
L 72.90625 54.6875 
L 81.890625 54.6875 
L 56.890625 0 
L 46.390625 0 
L 43.703125 45.3125 
L 22.796875 0 
L 12.203125 0 
z
" id="DejaVuSans-Oblique-77"/>
      <path id="DejaVuSans-20"/>
      <path d="M 8.59375 75.984375 
L 29.296875 75.984375 
L 29.296875 69 
L 17.578125 69 
L 17.578125 -6.203125 
L 29.296875 -6.203125 
L 29.296875 -13.1875 
L 8.59375 -13.1875 
z
" id="DejaVuSans-5b"/>
      <path d="M 44.28125 53.078125 
L 44.28125 44.578125 
Q 40.484375 46.53125 36.375 47.5 
Q 32.28125 48.484375 27.875 48.484375 
Q 21.1875 48.484375 17.84375 46.4375 
Q 14.5 44.390625 14.5 40.28125 
Q 14.5 37.15625 16.890625 35.375 
Q 19.28125 33.59375 26.515625 31.984375 
L 29.59375 31.296875 
Q 39.15625 29.25 43.1875 25.515625 
Q 47.21875 21.78125 47.21875 15.09375 
Q 47.21875 7.46875 41.1875 3.015625 
Q 35.15625 -1.421875 24.609375 -1.421875 
Q 20.21875 -1.421875 15.453125 -0.5625 
Q 10.6875 0.296875 5.421875 2 
L 5.421875 11.28125 
Q 10.40625 8.6875 15.234375 7.390625 
Q 20.0625 6.109375 24.8125 6.109375 
Q 31.15625 6.109375 34.5625 8.28125 
Q 37.984375 10.453125 37.984375 14.40625 
Q 37.984375 18.0625 35.515625 20.015625 
Q 33.0625 21.96875 24.703125 23.78125 
L 21.578125 24.515625 
Q 13.234375 26.265625 9.515625 29.90625 
Q 5.8125 33.546875 5.8125 39.890625 
Q 5.8125 47.609375 11.28125 51.796875 
Q 16.75 56 26.8125 56 
Q 31.78125 56 36.171875 55.265625 
Q 40.578125 54.546875 44.28125 53.078125 
z
" id="DejaVuSans-73"/>
      <path d="M 30.421875 75.984375 
L 30.421875 -13.1875 
L 9.71875 -13.1875 
L 9.71875 -6.203125 
L 21.390625 -6.203125 
L 21.390625 69 
L 9.71875 69 
L 9.71875 75.984375 
z
" id="DejaVuSans-5d"/>
     </defs>
     <g transform="translate(380.223437 485.474687)scale(0.1 -0.1)">
      <use transform="translate(0 0.015625)" xlink:href="#DejaVuSans-Oblique-74"/>
      <use transform="translate(39.208984 -16.390625)scale(0.7)" xlink:href="#DejaVuSans-Oblique-77"/>
      <use transform="translate(99.194336 0.015625)" xlink:href="#DejaVuSans-20"/>
      <use transform="translate(130.981445 0.015625)" xlink:href="#DejaVuSans-5b"/>
      <use transform="translate(169.995117 0.015625)" xlink:href="#DejaVuSans-73"/>
      <use transform="translate(222.094727 0.015625)" xlink:href="#DejaVuSans-5d"/>
     </g>
    </g>
   </g>
   <g id="matplotlib.axis_2">
    <g id="ytick_1">
     <g id="line2d_44">
      <defs>
       <path d="M 0 0 
L -3.5 0 
" id="m3c845aee7a" style="stroke:#000000;stroke-width:0.8;"/>
      </defs>
      <g>
       <use style="stroke:#000000;stroke-width:0.8;" x="58.523438" xlink:href="#m3c845aee7a" y="432.626114"/>
      </g>
     </g>
     <g id="text_6">
      <!-- −1.00 -->
      <defs>
       <path d="M 10.6875 12.40625 
L 21 12.40625 
L 21 0 
L 10.6875 0 
z
" id="DejaVuSans-2e"/>
      </defs>
      <g transform="translate(20.878125 436.425332)scale(0.1 -0.1)">
       <use xlink:href="#DejaVuSans-2212"/>
       <use x="83.789062" xlink:href="#DejaVuSans-31"/>
       <use x="147.412109" xlink:href="#DejaVuSans-2e"/>
       <use x="179.199219" xlink:href="#DejaVuSans-30"/>
       <use x="242.822266" xlink:href="#DejaVuSans-30"/>
      </g>
     </g>
    </g>
    <g id="ytick_2">
     <g id="line2d_45">
      <g>
       <use style="stroke:#000000;stroke-width:0.8;" x="58.523438" xlink:href="#m3c845aee7a" y="384.18195"/>
      </g>
     </g>
     <g id="text_7">
      <!-- −0.75 -->
      <defs>
       <path d="M 8.203125 72.90625 
L 55.078125 72.90625 
L 55.078125 68.703125 
L 28.609375 0 
L 18.3125 0 
L 43.21875 64.59375 
L 8.203125 64.59375 
z
" id="DejaVuSans-37"/>
       <path d="M 10.796875 72.90625 
L 49.515625 72.90625 
L 49.515625 64.59375 
L 19.828125 64.59375 
L 19.828125 46.734375 
Q 21.96875 47.46875 24.109375 47.828125 
Q 26.265625 48.1875 28.421875 48.1875 
Q 40.625 48.1875 47.75 41.5 
Q 54.890625 34.8125 54.890625 23.390625 
Q 54.890625 11.625 47.5625 5.09375 
Q 40.234375 -1.421875 26.90625 -1.421875 
Q 22.3125 -1.421875 17.546875 -0.640625 
Q 12.796875 0.140625 7.71875 1.703125 
L 7.71875 11.625 
Q 12.109375 9.234375 16.796875 8.0625 
Q 21.484375 6.890625 26.703125 6.890625 
Q 35.15625 6.890625 40.078125 11.328125 
Q 45.015625 15.765625 45.015625 23.390625 
Q 45.015625 31 40.078125 35.4375 
Q 35.15625 39.890625 26.703125 39.890625 
Q 22.75 39.890625 18.8125 39.015625 
Q 14.890625 38.140625 10.796875 36.28125 
z
" id="DejaVuSans-35"/>
      </defs>
      <g transform="translate(20.878125 387.981168)scale(0.1 -0.1)">
       <use xlink:href="#DejaVuSans-2212"/>
       <use x="83.789062" xlink:href="#DejaVuSans-30"/>
       <use x="147.412109" xlink:href="#DejaVuSans-2e"/>
       <use x="179.199219" xlink:href="#DejaVuSans-37"/>
       <use x="242.822266" xlink:href="#DejaVuSans-35"/>
      </g>
     </g>
    </g>
    <g id="ytick_3">
     <g id="line2d_46">
      <g>
       <use style="stroke:#000000;stroke-width:0.8;" x="58.523438" xlink:href="#m3c845aee7a" y="335.737785"/>
      </g>
     </g>
     <g id="text_8">
      <!-- −0.50 -->
      <g transform="translate(20.878125 339.537004)scale(0.1 -0.1)">
       <use xlink:href="#DejaVuSans-2212"/>
       <use x="83.789062" xlink:href="#DejaVuSans-30"/>
       <use x="147.412109" xlink:href="#DejaVuSans-2e"/>
       <use x="179.199219" xlink:href="#DejaVuSans-35"/>
       <use x="242.822266" xlink:href="#DejaVuSans-30"/>
      </g>
     </g>
    </g>
    <g id="ytick_4">
     <g id="line2d_47">
      <g>
       <use style="stroke:#000000;stroke-width:0.8;" x="58.523438" xlink:href="#m3c845aee7a" y="287.293621"/>
      </g>
     </g>
     <g id="text_9">
      <!-- −0.25 -->
      <g transform="translate(20.878125 291.09284)scale(0.1 -0.1)">
       <use xlink:href="#DejaVuSans-2212"/>
       <use x="83.789062" xlink:href="#DejaVuSans-30"/>
       <use x="147.412109" xlink:href="#DejaVuSans-2e"/>
       <use x="179.199219" xlink:href="#DejaVuSans-32"/>
       <use x="242.822266" xlink:href="#DejaVuSans-35"/>
      </g>
     </g>
    </g>
    <g id="ytick_5">
     <g id="line2d_48">
      <g>
       <use style="stroke:#000000;stroke-width:0.8;" x="58.523438" xlink:href="#m3c845aee7a" y="238.849457"/>
      </g>
     </g>
     <g id="text_10">
      <!-- 0.00 -->
      <g transform="translate(29.257813 242.648676)scale(0.1 -0.1)">
       <use xlink:href="#DejaVuSans-30"/>
       <use x="63.623047" xlink:href="#DejaVuSans-2e"/>
       <use x="95.410156" xlink:href="#DejaVuSans-30"/>
       <use x="159.033203" xlink:href="#DejaVuSans-30"/>
      </g>
     </g>
    </g>
    <g id="ytick_6">
     <g id="line2d_49">
      <g>
       <use style="stroke:#000000;stroke-width:0.8;" x="58.523438" xlink:href="#m3c845aee7a" y="190.405293"/>
      </g>
     </g>
     <g id="text_11">
      <!-- 0.25 -->
      <g transform="translate(29.257813 194.204512)scale(0.1 -0.1)">
       <use xlink:href="#DejaVuSans-30"/>
       <use x="63.623047" xlink:href="#DejaVuSans-2e"/>
       <use x="95.410156" xlink:href="#DejaVuSans-32"/>
       <use x="159.033203" xlink:href="#DejaVuSans-35"/>
      </g>
     </g>
    </g>
    <g id="ytick_7">
     <g id="line2d_50">
      <g>
       <use style="stroke:#000000;stroke-width:0.8;" x="58.523438" xlink:href="#m3c845aee7a" y="141.961129"/>
      </g>
     </g>
     <g id="text_12">
      <!-- 0.50 -->
      <g transform="translate(29.257813 145.760348)scale(0.1 -0.1)">
       <use xlink:href="#DejaVuSans-30"/>
       <use x="63.623047" xlink:href="#DejaVuSans-2e"/>
       <use x="95.410156" xlink:href="#DejaVuSans-35"/>
       <use x="159.033203" xlink:href="#DejaVuSans-30"/>
      </g>
     </g>
    </g>
    <g id="ytick_8">
     <g id="line2d_51">
      <g>
       <use style="stroke:#000000;stroke-width:0.8;" x="58.523438" xlink:href="#m3c845aee7a" y="93.516965"/>
      </g>
     </g>
     <g id="text_13">
      <!-- 0.75 -->
      <g transform="translate(29.257813 97.316184)scale(0.1 -0.1)">
       <use xlink:href="#DejaVuSans-30"/>
       <use x="63.623047" xlink:href="#DejaVuSans-2e"/>
       <use x="95.410156" xlink:href="#DejaVuSans-37"/>
       <use x="159.033203" xlink:href="#DejaVuSans-35"/>
      </g>
     </g>
    </g>
    <g id="ytick_9">
     <g id="line2d_52">
      <g>
       <use style="stroke:#000000;stroke-width:0.8;" x="58.523438" xlink:href="#m3c845aee7a" y="45.072801"/>
      </g>
     </g>
     <g id="text_14">
      <!-- 1.00 -->
      <g transform="translate(29.257813 48.87202)scale(0.1 -0.1)">
       <use xlink:href="#DejaVuSans-31"/>
       <use x="63.623047" xlink:href="#DejaVuSans-2e"/>
       <use x="95.410156" xlink:href="#DejaVuSans-30"/>
       <use x="159.033203" xlink:href="#DejaVuSans-30"/>
      </g>
     </g>
    </g>
    <g id="text_15">
     <!-- Magnetisierung (normiert) -->
     <defs>
      <path d="M 9.8125 72.90625 
L 24.515625 72.90625 
L 43.109375 23.296875 
L 61.8125 72.90625 
L 76.515625 72.90625 
L 76.515625 0 
L 66.890625 0 
L 66.890625 64.015625 
L 48.09375 14.015625 
L 38.1875 14.015625 
L 19.390625 64.015625 
L 19.390625 0 
L 9.8125 0 
z
" id="DejaVuSans-4d"/>
      <path d="M 34.28125 27.484375 
Q 23.390625 27.484375 19.1875 25 
Q 14.984375 22.515625 14.984375 16.5 
Q 14.984375 11.71875 18.140625 8.90625 
Q 21.296875 6.109375 26.703125 6.109375 
Q 34.1875 6.109375 38.703125 11.40625 
Q 43.21875 16.703125 43.21875 25.484375 
L 43.21875 27.484375 
z
M 52.203125 31.203125 
L 52.203125 0 
L 43.21875 0 
L 43.21875 8.296875 
Q 40.140625 3.328125 35.546875 0.953125 
Q 30.953125 -1.421875 24.3125 -1.421875 
Q 15.921875 -1.421875 10.953125 3.296875 
Q 6 8.015625 6 15.921875 
Q 6 25.140625 12.171875 29.828125 
Q 18.359375 34.515625 30.609375 34.515625 
L 43.21875 34.515625 
L 43.21875 35.40625 
Q 43.21875 41.609375 39.140625 45 
Q 35.0625 48.390625 27.6875 48.390625 
Q 23 48.390625 18.546875 47.265625 
Q 14.109375 46.140625 10.015625 43.890625 
L 10.015625 52.203125 
Q 14.9375 54.109375 19.578125 55.046875 
Q 24.21875 56 28.609375 56 
Q 40.484375 56 46.34375 49.84375 
Q 52.203125 43.703125 52.203125 31.203125 
z
" id="DejaVuSans-61"/>
      <path d="M 45.40625 27.984375 
Q 45.40625 37.75 41.375 43.109375 
Q 37.359375 48.484375 30.078125 48.484375 
Q 22.859375 48.484375 18.828125 43.109375 
Q 14.796875 37.75 14.796875 27.984375 
Q 14.796875 18.265625 18.828125 12.890625 
Q 22.859375 7.515625 30.078125 7.515625 
Q 37.359375 7.515625 41.375 12.890625 
Q 45.40625 18.265625 45.40625 27.984375 
z
M 54.390625 6.78125 
Q 54.390625 -7.171875 48.1875 -13.984375 
Q 42 -20.796875 29.203125 -20.796875 
Q 24.46875 -20.796875 20.265625 -20.09375 
Q 16.0625 -19.390625 12.109375 -17.921875 
L 12.109375 -9.1875 
Q 16.0625 -11.328125 19.921875 -12.34375 
Q 23.78125 -13.375 27.78125 -13.375 
Q 36.625 -13.375 41.015625 -8.765625 
Q 45.40625 -4.15625 45.40625 5.171875 
L 45.40625 9.625 
Q 42.625 4.78125 38.28125 2.390625 
Q 33.9375 0 27.875 0 
Q 17.828125 0 11.671875 7.65625 
Q 5.515625 15.328125 5.515625 27.984375 
Q 5.515625 40.671875 11.671875 48.328125 
Q 17.828125 56 27.875 56 
Q 33.9375 56 38.28125 53.609375 
Q 42.625 51.21875 45.40625 46.390625 
L 45.40625 54.6875 
L 54.390625 54.6875 
z
" id="DejaVuSans-67"/>
      <path d="M 54.890625 33.015625 
L 54.890625 0 
L 45.90625 0 
L 45.90625 32.71875 
Q 45.90625 40.484375 42.875 44.328125 
Q 39.84375 48.1875 33.796875 48.1875 
Q 26.515625 48.1875 22.3125 43.546875 
Q 18.109375 38.921875 18.109375 30.90625 
L 18.109375 0 
L 9.078125 0 
L 9.078125 54.6875 
L 18.109375 54.6875 
L 18.109375 46.1875 
Q 21.34375 51.125 25.703125 53.5625 
Q 30.078125 56 35.796875 56 
Q 45.21875 56 50.046875 50.171875 
Q 54.890625 44.34375 54.890625 33.015625 
z
" id="DejaVuSans-6e"/>
      <path d="M 56.203125 29.59375 
L 56.203125 25.203125 
L 14.890625 25.203125 
Q 15.484375 15.921875 20.484375 11.0625 
Q 25.484375 6.203125 34.421875 6.203125 
Q 39.59375 6.203125 44.453125 7.46875 
Q 49.3125 8.734375 54.109375 11.28125 
L 54.109375 2.78125 
Q 49.265625 0.734375 44.1875 -0.34375 
Q 39.109375 -1.421875 33.890625 -1.421875 
Q 20.796875 -1.421875 13.15625 6.1875 
Q 5.515625 13.8125 5.515625 26.8125 
Q 5.515625 40.234375 12.765625 48.109375 
Q 20.015625 56 32.328125 56 
Q 43.359375 56 49.78125 48.890625 
Q 56.203125 41.796875 56.203125 29.59375 
z
M 47.21875 32.234375 
Q 47.125 39.59375 43.09375 43.984375 
Q 39.0625 48.390625 32.421875 48.390625 
Q 24.90625 48.390625 20.390625 44.140625 
Q 15.875 39.890625 15.1875 32.171875 
z
" id="DejaVuSans-65"/>
      <path d="M 18.3125 70.21875 
L 18.3125 54.6875 
L 36.8125 54.6875 
L 36.8125 47.703125 
L 18.3125 47.703125 
L 18.3125 18.015625 
Q 18.3125 11.328125 20.140625 9.421875 
Q 21.96875 7.515625 27.59375 7.515625 
L 36.8125 7.515625 
L 36.8125 0 
L 27.59375 0 
Q 17.1875 0 13.234375 3.875 
Q 9.28125 7.765625 9.28125 18.015625 
L 9.28125 47.703125 
L 2.6875 47.703125 
L 2.6875 54.6875 
L 9.28125 54.6875 
L 9.28125 70.21875 
z
" id="DejaVuSans-74"/>
      <path d="M 9.421875 54.6875 
L 18.40625 54.6875 
L 18.40625 0 
L 9.421875 0 
z
M 9.421875 75.984375 
L 18.40625 75.984375 
L 18.40625 64.59375 
L 9.421875 64.59375 
z
" id="DejaVuSans-69"/>
      <path d="M 41.109375 46.296875 
Q 39.59375 47.171875 37.8125 47.578125 
Q 36.03125 48 33.890625 48 
Q 26.265625 48 22.1875 43.046875 
Q 18.109375 38.09375 18.109375 28.8125 
L 18.109375 0 
L 9.078125 0 
L 9.078125 54.6875 
L 18.109375 54.6875 
L 18.109375 46.1875 
Q 20.953125 51.171875 25.484375 53.578125 
Q 30.03125 56 36.53125 56 
Q 37.453125 56 38.578125 55.875 
Q 39.703125 55.765625 41.0625 55.515625 
z
" id="DejaVuSans-72"/>
      <path d="M 8.5 21.578125 
L 8.5 54.6875 
L 17.484375 54.6875 
L 17.484375 21.921875 
Q 17.484375 14.15625 20.5 10.265625 
Q 23.53125 6.390625 29.59375 6.390625 
Q 36.859375 6.390625 41.078125 11.03125 
Q 45.3125 15.671875 45.3125 23.6875 
L 45.3125 54.6875 
L 54.296875 54.6875 
L 54.296875 0 
L 45.3125 0 
L 45.3125 8.40625 
Q 42.046875 3.421875 37.71875 1 
Q 33.40625 -1.421875 27.6875 -1.421875 
Q 18.265625 -1.421875 13.375 4.4375 
Q 8.5 10.296875 8.5 21.578125 
z
M 31.109375 56 
z
" id="DejaVuSans-75"/>
      <path d="M 31 75.875 
Q 24.46875 64.65625 21.28125 53.65625 
Q 18.109375 42.671875 18.109375 31.390625 
Q 18.109375 20.125 21.3125 9.0625 
Q 24.515625 -2 31 -13.1875 
L 23.1875 -13.1875 
Q 15.875 -1.703125 12.234375 9.375 
Q 8.59375 20.453125 8.59375 31.390625 
Q 8.59375 42.28125 12.203125 53.3125 
Q 15.828125 64.359375 23.1875 75.875 
z
" id="DejaVuSans-28"/>
      <path d="M 30.609375 48.390625 
Q 23.390625 48.390625 19.1875 42.75 
Q 14.984375 37.109375 14.984375 27.296875 
Q 14.984375 17.484375 19.15625 11.84375 
Q 23.34375 6.203125 30.609375 6.203125 
Q 37.796875 6.203125 41.984375 11.859375 
Q 46.1875 17.53125 46.1875 27.296875 
Q 46.1875 37.015625 41.984375 42.703125 
Q 37.796875 48.390625 30.609375 48.390625 
z
M 30.609375 56 
Q 42.328125 56 49.015625 48.375 
Q 55.71875 40.765625 55.71875 27.296875 
Q 55.71875 13.875 49.015625 6.21875 
Q 42.328125 -1.421875 30.609375 -1.421875 
Q 18.84375 -1.421875 12.171875 6.21875 
Q 5.515625 13.875 5.515625 27.296875 
Q 5.515625 40.765625 12.171875 48.375 
Q 18.84375 56 30.609375 56 
z
" id="DejaVuSans-6f"/>
      <path d="M 52 44.1875 
Q 55.375 50.25 60.0625 53.125 
Q 64.75 56 71.09375 56 
Q 79.640625 56 84.28125 50.015625 
Q 88.921875 44.046875 88.921875 33.015625 
L 88.921875 0 
L 79.890625 0 
L 79.890625 32.71875 
Q 79.890625 40.578125 77.09375 44.375 
Q 74.3125 48.1875 68.609375 48.1875 
Q 61.625 48.1875 57.5625 43.546875 
Q 53.515625 38.921875 53.515625 30.90625 
L 53.515625 0 
L 44.484375 0 
L 44.484375 32.71875 
Q 44.484375 40.625 41.703125 44.40625 
Q 38.921875 48.1875 33.109375 48.1875 
Q 26.21875 48.1875 22.15625 43.53125 
Q 18.109375 38.875 18.109375 30.90625 
L 18.109375 0 
L 9.078125 0 
L 9.078125 54.6875 
L 18.109375 54.6875 
L 18.109375 46.1875 
Q 21.1875 51.21875 25.484375 53.609375 
Q 29.78125 56 35.6875 56 
Q 41.65625 56 45.828125 52.96875 
Q 50 49.953125 52 44.1875 
z
" id="DejaVuSans-6d"/>
      <path d="M 8.015625 75.875 
L 15.828125 75.875 
Q 23.140625 64.359375 26.78125 53.3125 
Q 30.421875 42.28125 30.421875 31.390625 
Q 30.421875 20.453125 26.78125 9.375 
Q 23.140625 -1.703125 15.828125 -13.1875 
L 8.015625 -13.1875 
Q 14.5 -2 17.703125 9.0625 
Q 20.90625 20.125 20.90625 31.390625 
Q 20.90625 42.671875 17.703125 53.65625 
Q 14.5 64.65625 8.015625 75.875 
z
" id="DejaVuSans-29"/>
     </defs>
     <g transform="translate(14.798438 305.6675)rotate(-90)scale(0.1 -0.1)">
      <use xlink:href="#DejaVuSans-4d"/>
      <use x="86.279297" xlink:href="#DejaVuSans-61"/>
      <use x="147.558594" xlink:href="#DejaVuSans-67"/>
      <use x="211.035156" xlink:href="#DejaVuSans-6e"/>
      <use x="274.414062" xlink:href="#DejaVuSans-65"/>
      <use x="335.9375" xlink:href="#DejaVuSans-74"/>
      <use x="375.146484" xlink:href="#DejaVuSans-69"/>
      <use x="402.929688" xlink:href="#DejaVuSans-73"/>
      <use x="455.029297" xlink:href="#DejaVuSans-69"/>
      <use x="482.8125" xlink:href="#DejaVuSans-65"/>
      <use x="544.335938" xlink:href="#DejaVuSans-72"/>
      <use x="585.449219" xlink:href="#DejaVuSans-75"/>
      <use x="648.828125" xlink:href="#DejaVuSans-6e"/>
      <use x="712.207031" xlink:href="#DejaVuSans-67"/>
      <use x="775.683594" xlink:href="#DejaVuSans-20"/>
      <use x="807.470703" xlink:href="#DejaVuSans-28"/>
      <use x="846.484375" xlink:href="#DejaVuSans-6e"/>
      <use x="909.863281" xlink:href="#DejaVuSans-6f"/>
      <use x="971.044922" xlink:href="#DejaVuSans-72"/>
      <use x="1012.142578" xlink:href="#DejaVuSans-6d"/>
      <use x="1109.554688" xlink:href="#DejaVuSans-69"/>
      <use x="1137.337891" xlink:href="#DejaVuSans-65"/>
      <use x="1198.861328" xlink:href="#DejaVuSans-72"/>
      <use x="1239.974609" xlink:href="#DejaVuSans-74"/>
      <use x="1279.183594" xlink:href="#DejaVuSans-29"/>
     </g>
    </g>
   </g>
   <g id="line2d_53">
    <path clip-path="url(#pe8b91de6c0)" d="M 91.959801 434.436163 
L 117.073438 431.524886 
L 142.187074 427.739667 
L 167.30071 422.831484 
L 192.414347 416.489778 
L 217.527983 408.333985 
L 242.641619 397.909115 
L 267.755256 384.690281 
L 292.868892 368.103928 
L 317.982528 347.576956 
L 343.096165 322.627766 
L 368.209801 293.012756 
L 393.323438 258.932234 
L 418.437074 221.272763 
L 443.55071 181.811286 
L 468.664347 143.236746 
L 493.777983 108.80168 
L 518.891619 81.496995 
L 544.005256 62.944774 
L 569.118892 52.634088 
L 594.232528 48.219381 
L 619.346165 46.870852 
L 644.459801 46.6045 
L 669.573438 46.574505 
L 694.687074 46.572866 
" style="fill:none;stroke:#1f77b4;stroke-linecap:square;stroke-width:1.5;"/>
   </g>
   <g id="line2d_54">
    <path clip-path="url(#pe8b91de6c0)" d="M 91.959801 433.306786 
L 117.073438 430.528437 
L 142.187074 426.900558 
L 167.30071 422.175907 
L 192.414347 416.04431 
L 217.527983 408.123207 
L 242.641619 397.951924 
L 267.755256 384.994628 
L 292.868892 368.659958 
L 317.982528 348.349098 
L 343.096165 323.547455 
L 368.209801 293.975128 
L 393.323438 259.802097 
L 418.437074 221.905985 
L 443.55071 182.094768 
L 468.664347 143.139852 
L 493.777983 108.41444 
L 518.891619 81.017093 
L 544.005256 62.592104 
L 569.118892 52.533255 
L 594.232528 48.347797 
L 619.346165 47.123908 
L 644.459801 46.897281 
L 669.573438 46.874034 
L 694.687074 46.872922 
" style="fill:none;stroke:#ff7f0e;stroke-linecap:square;stroke-width:1.5;"/>
   </g>
   <g id="line2d_55">
    <path clip-path="url(#pe8b91de6c0)" d="M 91.959801 433.701025 
L 117.073438 430.940166 
L 142.187074 427.335113 
L 167.30071 422.640065 
L 192.414347 416.546537 
L 217.527983 408.673835 
L 242.641619 398.563154 
L 267.755256 385.680151 
L 292.868892 369.433909 
L 317.982528 349.223928 
L 343.096165 324.530221 
L 368.209801 295.061822 
L 393.323438 260.970181 
L 418.437074 223.106583 
L 443.55071 183.248237 
L 468.664347 144.140957 
L 493.777983 109.153496 
L 518.891619 81.416924 
L 544.005256 62.645484 
L 569.118892 52.311821 
L 594.232528 47.964779 
L 619.346165 46.675349 
L 644.459801 46.432096 
L 669.573438 46.40653 
L 694.687074 46.405268 
" style="fill:none;stroke:#2ca02c;stroke-linecap:square;stroke-width:1.5;"/>
   </g>
   <g id="line2d_56">
    <path clip-path="url(#pe8b91de6c0)" d="M 91.959801 434.394043 
L 117.073438 431.545441 
L 142.187074 427.832236 
L 167.30071 423.004966 
L 192.414347 416.751458 
L 217.527983 408.68777 
L 242.641619 398.353034 
L 267.755256 385.213212 
L 292.868892 368.681705 
L 317.982528 348.168462 
L 343.096165 323.172348 
L 368.209801 293.431315 
L 393.323438 259.135289 
L 418.437074 221.178709 
L 443.55071 181.375164 
L 468.664347 142.482313 
L 493.777983 107.838434 
L 518.891619 80.498027 
L 544.005256 62.077397 
L 569.118892 51.97869 
L 594.232528 47.744521 
L 619.346165 46.490787 
L 644.459801 46.254074 
L 669.573438 46.229073 
L 694.687074 46.227826 
" style="fill:none;stroke:#d62728;stroke-linecap:square;stroke-width:1.5;"/>
   </g>
   <g id="line2d_57">
    <path clip-path="url(#pe8b91de6c0)" d="M 91.959801 434.16782 
L 117.073438 431.122182 
L 142.187074 427.163678 
L 167.30071 422.033297 
L 192.414347 415.408847 
L 217.527983 406.896925 
L 242.641619 396.029609 
L 267.755256 382.271215 
L 292.868892 365.043452 
L 317.982528 343.780758 
L 343.096165 318.030141 
L 368.209801 287.608266 
L 393.323438 252.816623 
L 418.437074 214.684672 
L 443.55071 175.154845 
L 468.664347 137.053473 
L 493.777983 103.661565 
L 518.891619 77.813795 
L 544.005256 60.794386 
L 569.118892 51.714379 
L 594.232528 48.02751 
L 619.346165 46.976066 
L 644.459801 46.786017 
L 669.573438 46.766928 
L 694.687074 46.766028 
" style="fill:none;stroke:#9467bd;stroke-linecap:square;stroke-width:1.5;"/>
   </g>
   <g id="line2d_58">
    <path clip-path="url(#pe8b91de6c0)" d="M 91.959801 435.072465 
L 117.073438 431.158509 
L 142.187074 426.102569 
L 167.30071 419.594823 
L 192.414347 411.257542 
L 217.527983 400.641578 
L 242.641619 387.231831 
L 267.755256 370.469154 
L 292.868892 349.799274 
L 317.982528 324.761827 
L 343.096165 295.131784 
L 368.209801 261.116249 
L 393.323438 223.584296 
L 418.437074 184.259738 
L 443.55071 145.743009 
L 468.664347 111.188491 
L 493.777983 83.534807 
L 518.891619 64.456043 
L 544.005256 53.597882 
L 569.118892 48.780882 
L 594.232528 47.23161 
L 619.346165 46.902282 
L 644.459801 46.861163 
L 669.573438 46.858571 
L 694.687074 46.858503 
" style="fill:none;stroke:#8c564b;stroke-linecap:square;stroke-width:1.5;"/>
   </g>
   <g id="line2d_59">
    <path clip-path="url(#pe8b91de6c0)" d="M 91.959801 435.770884 
L 117.073438 430.455218 
L 142.187074 423.652117 
L 167.30071 414.986662 
L 192.414347 404.017041 
L 217.527983 390.241686 
L 242.641619 373.12266 
L 267.755256 352.1351 
L 292.868892 326.854514 
L 317.982528 297.092375 
L 343.096165 263.081256 
L 368.209801 225.687142 
L 393.323438 186.58351 
L 418.437074 148.265927 
L 443.55071 113.752328 
L 468.664347 85.877593 
L 493.777983 66.326261 
L 518.891619 54.895883 
L 544.005256 49.610846 
L 569.118892 47.803499 
L 594.232528 47.383696 
L 619.346165 47.324254 
L 644.459801 47.319783 
L 669.573438 47.319634 
L 694.687074 47.319632 
" style="fill:none;stroke:#e377c2;stroke-linecap:square;stroke-width:1.5;"/>
   </g>
   <g id="line2d_60">
    <path clip-path="url(#pe8b91de6c0)" d="M 91.959801 434.285377 
L 117.073438 427.446377 
L 142.187074 418.684475 
L 167.30071 407.530033 
L 192.414347 393.447088 
L 217.527983 375.858627 
L 242.641619 354.20135 
L 267.755256 328.023648 
L 292.868892 297.138973 
L 317.982528 261.835456 
L 343.096165 223.11355 
L 368.209801 182.870813 
L 393.323438 143.886535 
L 418.437074 109.42697 
L 443.55071 82.390564 
L 468.664347 64.223512 
L 493.777983 54.239653 
L 518.891619 50.010352 
L 544.005256 48.730184 
L 569.118892 48.478844 
L 594.232528 48.450556 
L 619.346165 48.448998 
L 644.459801 48.448964 
L 669.573438 48.448964 
L 694.687074 48.448964 
" style="fill:none;stroke:#7f7f7f;stroke-linecap:square;stroke-width:1.5;"/>
   </g>
   <g id="line2d_61">
    <path clip-path="url(#pe8b91de6c0)" d="M 91.959801 437.430852 
L 117.073438 428.077253 
L 142.187074 416.075289 
L 167.30071 400.814008 
L 192.414347 381.638889 
L 217.527983 357.923153 
L 242.641619 329.195343 
L 267.755256 295.33756 
L 292.868892 256.850349 
L 317.982528 215.135287 
L 343.096165 172.669455 
L 368.209801 132.861988 
L 393.323438 99.379699 
L 418.437074 74.951509 
L 443.55071 60.158766 
L 468.664347 53.136948 
L 493.777983 50.710318 
L 518.891619 50.155174 
L 544.005256 50.080775 
L 569.118892 50.075786 
L 594.232528 50.07565 
L 619.346165 50.075649 
L 644.459801 50.075649 
L 669.573438 50.075649 
L 694.687074 50.075649 
" style="fill:none;stroke:#bcbd22;stroke-linecap:square;stroke-width:1.5;"/>
   </g>
   <g id="patch_3">
    <path d="M 58.523438 457.198125 
L 58.523438 22.318125 
" style="fill:none;stroke:#000000;stroke-linecap:square;stroke-linejoin:miter;stroke-width:0.8;"/>
   </g>
   <g id="patch_4">
    <path d="M 728.123438 457.198125 
L 728.123438 22.318125 
" style="fill:none;stroke:#000000;stroke-linecap:square;stroke-linejoin:miter;stroke-width:0.8;"/>
   </g>
   <g id="patch_5">
    <path d="M 58.523437 457.198125 
L 728.123438 457.198125 
" style="fill:none;stroke:#000000;stroke-linecap:square;stroke-linejoin:miter;stroke-width:0.8;"/>
   </g>
   <g id="patch_6">
    <path d="M 58.523437 22.318125 
L 728.123438 22.318125 
" style="fill:none;stroke:#000000;stroke-linecap:square;stroke-linejoin:miter;stroke-width:0.8;"/>
   </g>
   <g id="text_16">
    <!-- CRN $T_1$ -->
    <defs>
     <path d="M 64.40625 67.28125 
L 64.40625 56.890625 
Q 59.421875 61.53125 53.78125 63.8125 
Q 48.140625 66.109375 41.796875 66.109375 
Q 29.296875 66.109375 22.65625 58.46875 
Q 16.015625 50.828125 16.015625 36.375 
Q 16.015625 21.96875 22.65625 14.328125 
Q 29.296875 6.6875 41.796875 6.6875 
Q 48.140625 6.6875 53.78125 8.984375 
Q 59.421875 11.28125 64.40625 15.921875 
L 64.40625 5.609375 
Q 59.234375 2.09375 53.4375 0.328125 
Q 47.65625 -1.421875 41.21875 -1.421875 
Q 24.65625 -1.421875 15.125 8.703125 
Q 5.609375 18.84375 5.609375 36.375 
Q 5.609375 53.953125 15.125 64.078125 
Q 24.65625 74.21875 41.21875 74.21875 
Q 47.75 74.21875 53.53125 72.484375 
Q 59.328125 70.75 64.40625 67.28125 
z
" id="DejaVuSans-43"/>
     <path d="M 44.390625 34.1875 
Q 47.5625 33.109375 50.5625 29.59375 
Q 53.5625 26.078125 56.59375 19.921875 
L 66.609375 0 
L 56 0 
L 46.6875 18.703125 
Q 43.0625 26.03125 39.671875 28.421875 
Q 36.28125 30.8125 30.421875 30.8125 
L 19.671875 30.8125 
L 19.671875 0 
L 9.8125 0 
L 9.8125 72.90625 
L 32.078125 72.90625 
Q 44.578125 72.90625 50.734375 67.671875 
Q 56.890625 62.453125 56.890625 51.90625 
Q 56.890625 45.015625 53.6875 40.46875 
Q 50.484375 35.9375 44.390625 34.1875 
z
M 19.671875 64.796875 
L 19.671875 38.921875 
L 32.078125 38.921875 
Q 39.203125 38.921875 42.84375 42.21875 
Q 46.484375 45.515625 46.484375 51.90625 
Q 46.484375 58.296875 42.84375 61.546875 
Q 39.203125 64.796875 32.078125 64.796875 
z
" id="DejaVuSans-52"/>
     <path d="M 9.8125 72.90625 
L 23.09375 72.90625 
L 55.421875 11.921875 
L 55.421875 72.90625 
L 64.984375 72.90625 
L 64.984375 0 
L 51.703125 0 
L 19.390625 60.984375 
L 19.390625 0 
L 9.8125 0 
z
" id="DejaVuSans-4e"/>
     <path d="M 5.90625 72.90625 
L 67.578125 72.90625 
L 66.015625 64.59375 
L 39.984375 64.59375 
L 27.484375 0 
L 17.578125 0 
L 30.078125 64.59375 
L 4.296875 64.59375 
z
" id="DejaVuSans-Oblique-54"/>
    </defs>
    <g transform="translate(372.023438 16.318125)scale(0.12 -0.12)">
     <use transform="translate(0 0.78125)" xlink:href="#DejaVuSans-43"/>
     <use transform="translate(69.824219 0.78125)" xlink:href="#DejaVuSans-52"/>
     <use transform="translate(139.306641 0.78125)" xlink:href="#DejaVuSans-4e"/>
     <use transform="translate(214.111328 0.78125)" xlink:href="#DejaVuSans-20"/>
     <use transform="translate(245.898438 0.78125)" xlink:href="#DejaVuSans-Oblique-54"/>
     <use transform="translate(306.982422 -15.625)scale(0.7)" xlink:href="#DejaVuSans-31"/>
    </g>
   </g>
   <g id="legend_1">
    <g id="patch_7">
     <path d="M 65.523438 162.42125 
L 132.514063 162.42125 
Q 134.514063 162.42125 134.514063 160.42125 
L 134.514063 29.318125 
Q 134.514063 27.318125 132.514063 27.318125 
L 65.523438 27.318125 
Q 63.523438 27.318125 63.523438 29.318125 
L 63.523438 160.42125 
Q 63.523438 162.42125 65.523438 162.42125 
z
" style="fill:#ffffff;opacity:0.8;stroke:#cccccc;stroke-linejoin:miter;"/>
    </g>
    <g id="PathCollection_10">
     <g>
      <use style="fill:#1f77b4;stroke:#1f77b4;" x="77.523438" xlink:href="#m90c6b555e2" y="36.291562"/>
     </g>
    </g>
    <g id="text_17">
     <!-- 305.71 -->
     <g transform="translate(95.523438 38.916562)scale(0.1 -0.1)">
      <use xlink:href="#DejaVuSans-33"/>
      <use x="63.623047" xlink:href="#DejaVuSans-30"/>
      <use x="127.246094" xlink:href="#DejaVuSans-35"/>
      <use x="190.869141" xlink:href="#DejaVuSans-2e"/>
      <use x="222.65625" xlink:href="#DejaVuSans-37"/>
      <use x="286.279297" xlink:href="#DejaVuSans-31"/>
     </g>
    </g>
    <g id="PathCollection_11">
     <g>
      <use style="fill:#ff7f0e;stroke:#ff7f0e;" x="77.523438" xlink:href="#mfef7257eb7" y="50.969687"/>
     </g>
    </g>
    <g id="text_18">
     <!-- 310.09 -->
     <defs>
      <path d="M 10.984375 1.515625 
L 10.984375 10.5 
Q 14.703125 8.734375 18.5 7.8125 
Q 22.3125 6.890625 25.984375 6.890625 
Q 35.75 6.890625 40.890625 13.453125 
Q 46.046875 20.015625 46.78125 33.40625 
Q 43.953125 29.203125 39.59375 26.953125 
Q 35.25 24.703125 29.984375 24.703125 
Q 19.046875 24.703125 12.671875 31.3125 
Q 6.296875 37.9375 6.296875 49.421875 
Q 6.296875 60.640625 12.9375 67.421875 
Q 19.578125 74.21875 30.609375 74.21875 
Q 43.265625 74.21875 49.921875 64.515625 
Q 56.59375 54.828125 56.59375 36.375 
Q 56.59375 19.140625 48.40625 8.859375 
Q 40.234375 -1.421875 26.421875 -1.421875 
Q 22.703125 -1.421875 18.890625 -0.6875 
Q 15.09375 0.046875 10.984375 1.515625 
z
M 30.609375 32.421875 
Q 37.25 32.421875 41.125 36.953125 
Q 45.015625 41.5 45.015625 49.421875 
Q 45.015625 57.28125 41.125 61.84375 
Q 37.25 66.40625 30.609375 66.40625 
Q 23.96875 66.40625 20.09375 61.84375 
Q 16.21875 57.28125 16.21875 49.421875 
Q 16.21875 41.5 20.09375 36.953125 
Q 23.96875 32.421875 30.609375 32.421875 
z
" id="DejaVuSans-39"/>
     </defs>
     <g transform="translate(95.523438 53.594687)scale(0.1 -0.1)">
      <use xlink:href="#DejaVuSans-33"/>
      <use x="63.623047" xlink:href="#DejaVuSans-31"/>
      <use x="127.246094" xlink:href="#DejaVuSans-30"/>
      <use x="190.869141" xlink:href="#DejaVuSans-2e"/>
      <use x="222.65625" xlink:href="#DejaVuSans-30"/>
      <use x="286.279297" xlink:href="#DejaVuSans-39"/>
     </g>
    </g>
    <g id="PathCollection_12">
     <g>
      <use style="fill:#2ca02c;stroke:#2ca02c;" x="77.523438" xlink:href="#m5d3f6f5313" y="65.647812"/>
     </g>
    </g>
    <g id="text_19">
     <!-- 314.81 -->
     <defs>
      <path d="M 31.78125 34.625 
Q 24.75 34.625 20.71875 30.859375 
Q 16.703125 27.09375 16.703125 20.515625 
Q 16.703125 13.921875 20.71875 10.15625 
Q 24.75 6.390625 31.78125 6.390625 
Q 38.8125 6.390625 42.859375 10.171875 
Q 46.921875 13.96875 46.921875 20.515625 
Q 46.921875 27.09375 42.890625 30.859375 
Q 38.875 34.625 31.78125 34.625 
z
M 21.921875 38.8125 
Q 15.578125 40.375 12.03125 44.71875 
Q 8.5 49.078125 8.5 55.328125 
Q 8.5 64.0625 14.71875 69.140625 
Q 20.953125 74.21875 31.78125 74.21875 
Q 42.671875 74.21875 48.875 69.140625 
Q 55.078125 64.0625 55.078125 55.328125 
Q 55.078125 49.078125 51.53125 44.71875 
Q 48 40.375 41.703125 38.8125 
Q 48.828125 37.15625 52.796875 32.3125 
Q 56.78125 27.484375 56.78125 20.515625 
Q 56.78125 9.90625 50.3125 4.234375 
Q 43.84375 -1.421875 31.78125 -1.421875 
Q 19.734375 -1.421875 13.25 4.234375 
Q 6.78125 9.90625 6.78125 20.515625 
Q 6.78125 27.484375 10.78125 32.3125 
Q 14.796875 37.15625 21.921875 38.8125 
z
M 18.3125 54.390625 
Q 18.3125 48.734375 21.84375 45.5625 
Q 25.390625 42.390625 31.78125 42.390625 
Q 38.140625 42.390625 41.71875 45.5625 
Q 45.3125 48.734375 45.3125 54.390625 
Q 45.3125 60.0625 41.71875 63.234375 
Q 38.140625 66.40625 31.78125 66.40625 
Q 25.390625 66.40625 21.84375 63.234375 
Q 18.3125 60.0625 18.3125 54.390625 
z
" id="DejaVuSans-38"/>
     </defs>
     <g transform="translate(95.523438 68.272812)scale(0.1 -0.1)">
      <use xlink:href="#DejaVuSans-33"/>
      <use x="63.623047" xlink:href="#DejaVuSans-31"/>
      <use x="127.246094" xlink:href="#DejaVuSans-34"/>
      <use x="190.869141" xlink:href="#DejaVuSans-2e"/>
      <use x="222.65625" xlink:href="#DejaVuSans-38"/>
      <use x="286.279297" xlink:href="#DejaVuSans-31"/>
     </g>
    </g>
    <g id="PathCollection_13">
     <g>
      <use style="fill:#d62728;stroke:#d62728;" x="77.523438" xlink:href="#ma01c4bb4d3" y="80.325937"/>
     </g>
    </g>
    <g id="text_20">
     <!-- 319.68 -->
     <defs>
      <path d="M 33.015625 40.375 
Q 26.375 40.375 22.484375 35.828125 
Q 18.609375 31.296875 18.609375 23.390625 
Q 18.609375 15.53125 22.484375 10.953125 
Q 26.375 6.390625 33.015625 6.390625 
Q 39.65625 6.390625 43.53125 10.953125 
Q 47.40625 15.53125 47.40625 23.390625 
Q 47.40625 31.296875 43.53125 35.828125 
Q 39.65625 40.375 33.015625 40.375 
z
M 52.59375 71.296875 
L 52.59375 62.3125 
Q 48.875 64.0625 45.09375 64.984375 
Q 41.3125 65.921875 37.59375 65.921875 
Q 27.828125 65.921875 22.671875 59.328125 
Q 17.53125 52.734375 16.796875 39.40625 
Q 19.671875 43.65625 24.015625 45.921875 
Q 28.375 48.1875 33.59375 48.1875 
Q 44.578125 48.1875 50.953125 41.515625 
Q 57.328125 34.859375 57.328125 23.390625 
Q 57.328125 12.15625 50.6875 5.359375 
Q 44.046875 -1.421875 33.015625 -1.421875 
Q 20.359375 -1.421875 13.671875 8.265625 
Q 6.984375 17.96875 6.984375 36.375 
Q 6.984375 53.65625 15.1875 63.9375 
Q 23.390625 74.21875 37.203125 74.21875 
Q 40.921875 74.21875 44.703125 73.484375 
Q 48.484375 72.75 52.59375 71.296875 
z
" id="DejaVuSans-36"/>
     </defs>
     <g transform="translate(95.523438 82.950937)scale(0.1 -0.1)">
      <use xlink:href="#DejaVuSans-33"/>
      <use x="63.623047" xlink:href="#DejaVuSans-31"/>
      <use x="127.246094" xlink:href="#DejaVuSans-39"/>
      <use x="190.869141" xlink:href="#DejaVuSans-2e"/>
      <use x="222.65625" xlink:href="#DejaVuSans-36"/>
      <use x="286.279297" xlink:href="#DejaVuSans-38"/>
     </g>
    </g>
    <g id="PathCollection_14">
     <g>
      <use style="fill:#9467bd;stroke:#9467bd;" x="77.523438" xlink:href="#m49cb80e0da" y="95.004062"/>
     </g>
    </g>
    <g id="text_21">
     <!-- 324.46 -->
     <g transform="translate(95.523438 97.629062)scale(0.1 -0.1)">
      <use xlink:href="#DejaVuSans-33"/>
      <use x="63.623047" xlink:href="#DejaVuSans-32"/>
      <use x="127.246094" xlink:href="#DejaVuSans-34"/>
      <use x="190.869141" xlink:href="#DejaVuSans-2e"/>
      <use x="222.65625" xlink:href="#DejaVuSans-34"/>
      <use x="286.279297" xlink:href="#DejaVuSans-36"/>
     </g>
    </g>
    <g id="PathCollection_15">
     <g>
      <use style="fill:#8c564b;stroke:#8c564b;" x="77.523438" xlink:href="#m5eebb8e1e8" y="109.682187"/>
     </g>
    </g>
    <g id="text_22">
     <!-- 329.25 -->
     <g transform="translate(95.523438 112.307187)scale(0.1 -0.1)">
      <use xlink:href="#DejaVuSans-33"/>
      <use x="63.623047" xlink:href="#DejaVuSans-32"/>
      <use x="127.246094" xlink:href="#DejaVuSans-39"/>
      <use x="190.869141" xlink:href="#DejaVuSans-2e"/>
      <use x="222.65625" xlink:href="#DejaVuSans-32"/>
      <use x="286.279297" xlink:href="#DejaVuSans-35"/>
     </g>
    </g>
    <g id="PathCollection_16">
     <g>
      <use style="fill:#e377c2;stroke:#e377c2;" x="77.523438" xlink:href="#md9391caf11" y="124.360312"/>
     </g>
    </g>
    <g id="text_23">
     <!-- 334.06 -->
     <g transform="translate(95.523438 126.985312)scale(0.1 -0.1)">
      <use xlink:href="#DejaVuSans-33"/>
      <use x="63.623047" xlink:href="#DejaVuSans-33"/>
      <use x="127.246094" xlink:href="#DejaVuSans-34"/>
      <use x="190.869141" xlink:href="#DejaVuSans-2e"/>
      <use x="222.65625" xlink:href="#DejaVuSans-30"/>
      <use x="286.279297" xlink:href="#DejaVuSans-36"/>
     </g>
    </g>
    <g id="PathCollection_17">
     <g>
      <use style="fill:#7f7f7f;stroke:#7f7f7f;" x="77.523438" xlink:href="#m1e7800d48a" y="139.038437"/>
     </g>
    </g>
    <g id="text_24">
     <!-- 338.85 -->
     <g transform="translate(95.523438 141.663437)scale(0.1 -0.1)">
      <use xlink:href="#DejaVuSans-33"/>
      <use x="63.623047" xlink:href="#DejaVuSans-33"/>
      <use x="127.246094" xlink:href="#DejaVuSans-38"/>
      <use x="190.869141" xlink:href="#DejaVuSans-2e"/>
      <use x="222.65625" xlink:href="#DejaVuSans-38"/>
      <use x="286.279297" xlink:href="#DejaVuSans-35"/>
     </g>
    </g>
    <g id="PathCollection_18">
     <g>
      <use style="fill:#bcbd22;stroke:#bcbd22;" x="77.523438" xlink:href="#mebd02787fa" y="153.716562"/>
     </g>
    </g>
    <g id="text_25">
     <!-- 343.63 -->
     <g transform="translate(95.523438 156.341562)scale(0.1 -0.1)">
      <use xlink:href="#DejaVuSans-33"/>
      <use x="63.623047" xlink:href="#DejaVuSans-34"/>
      <use x="127.246094" xlink:href="#DejaVuSans-33"/>
      <use x="190.869141" xlink:href="#DejaVuSans-2e"/>
      <use x="222.65625" xlink:href="#DejaVuSans-36"/>
      <use x="286.279297" xlink:href="#DejaVuSans-33"/>
     </g>
    </g>
   </g>
  </g>
 </g>
 <defs>
  <clipPath id="pe8b91de6c0">
   <rect height="434.88" width="669.6" x="58.523438" y="22.318125"/>
  </clipPath>
 </defs>
</svg>
