<?xml version="1.0" encoding="utf-8" standalone="no"?>
<!DOCTYPE svg PUBLIC "-//W3C//DTD SVG 1.1//EN"
  "http://www.w3.org/Graphics/SVG/1.1/DTD/svg11.dtd">
<!-- Created with matplotlib (http://matplotlib.org/) -->
<svg height="258.69625pt" version="1.1" viewBox="0 0 397.023438 258.69625" width="397.023438pt" xmlns="http://www.w3.org/2000/svg" xmlns:xlink="http://www.w3.org/1999/xlink">
 <defs>
  <style type="text/css">
*{stroke-linecap:butt;stroke-linejoin:round;}
  </style>
 </defs>
 <g id="figure_1">
  <g id="patch_1">
   <path d="M 0 258.69625 
L 397.023438 258.69625 
L 397.023438 0 
L 0 0 
z
" style="fill:#ffffff;"/>
  </g>
  <g id="axes_1">
   <g id="patch_2">
    <path d="M 55.023438 224.64 
L 389.823438 224.64 
L 389.823438 7.2 
L 55.023438 7.2 
z
" style="fill:#ffffff;"/>
   </g>
   <g id="PathCollection_1">
    <defs>
     <path d="M 0 3 
C 0.795609 3 1.55874 2.683901 2.12132 2.12132 
C 2.683901 1.55874 3 0.795609 3 0 
C 3 -0.795609 2.683901 -1.55874 2.12132 -2.12132 
C 1.55874 -2.683901 0.795609 -3 0 -3 
C -0.795609 -3 -1.55874 -2.683901 -2.12132 -2.12132 
C -2.683901 -1.55874 -3 -0.795609 -3 0 
C -3 0.795609 -2.683901 1.55874 -2.12132 2.12132 
C -1.55874 2.683901 -0.795609 3 0 3 
z
" id="mb609906722" style="stroke:#1f77b4;"/>
    </defs>
    <g clip-path="url(#p9ddf7643c7)">
     <use style="fill:#1f77b4;stroke:#1f77b4;" x="73.241619" xlink:href="#mb609906722" y="211.026158"/>
     <use style="fill:#1f77b4;stroke:#1f77b4;" x="85.673438" xlink:href="#mb609906722" y="209.575683"/>
     <use style="fill:#1f77b4;stroke:#1f77b4;" x="98.105256" xlink:href="#mb609906722" y="208.328853"/>
     <use style="fill:#1f77b4;stroke:#1f77b4;" x="110.537074" xlink:href="#mb609906722" y="206.485188"/>
     <use style="fill:#1f77b4;stroke:#1f77b4;" x="122.968892" xlink:href="#mb609906722" y="202.99311"/>
     <use style="fill:#1f77b4;stroke:#1f77b4;" x="135.40071" xlink:href="#mb609906722" y="200.057898"/>
     <use style="fill:#1f77b4;stroke:#1f77b4;" x="147.832528" xlink:href="#mb609906722" y="195.6779"/>
     <use style="fill:#1f77b4;stroke:#1f77b4;" x="160.264347" xlink:href="#mb609906722" y="188.27275"/>
     <use style="fill:#1f77b4;stroke:#1f77b4;" x="172.696165" xlink:href="#mb609906722" y="180.211314"/>
     <use style="fill:#1f77b4;stroke:#1f77b4;" x="185.127983" xlink:href="#mb609906722" y="169.907706"/>
     <use style="fill:#1f77b4;stroke:#1f77b4;" x="197.559801" xlink:href="#mb609906722" y="157.622883"/>
     <use style="fill:#1f77b4;stroke:#1f77b4;" x="209.991619" xlink:href="#mb609906722" y="142.50391"/>
     <use style="fill:#1f77b4;stroke:#1f77b4;" x="222.423438" xlink:href="#mb609906722" y="124.897158"/>
     <use style="fill:#1f77b4;stroke:#1f77b4;" x="234.855256" xlink:href="#mb609906722" y="107.16624"/>
     <use style="fill:#1f77b4;stroke:#1f77b4;" x="247.287074" xlink:href="#mb609906722" y="87.892254"/>
     <use style="fill:#1f77b4;stroke:#1f77b4;" x="259.718892" xlink:href="#mb609906722" y="69.762907"/>
     <use style="fill:#1f77b4;stroke:#1f77b4;" x="272.15071" xlink:href="#mb609906722" y="53.334923"/>
     <use style="fill:#1f77b4;stroke:#1f77b4;" x="284.582528" xlink:href="#mb609906722" y="40.340735"/>
     <use style="fill:#1f77b4;stroke:#1f77b4;" x="297.014347" xlink:href="#mb609906722" y="31.30306"/>
     <use style="fill:#1f77b4;stroke:#1f77b4;" x="309.446165" xlink:href="#mb609906722" y="25.486229"/>
     <use style="fill:#1f77b4;stroke:#1f77b4;" x="321.877983" xlink:href="#mb609906722" y="23.06623"/>
     <use style="fill:#1f77b4;stroke:#1f77b4;" x="334.309801" xlink:href="#mb609906722" y="22.132341"/>
     <use style="fill:#1f77b4;stroke:#1f77b4;" x="346.741619" xlink:href="#mb609906722" y="22.45448"/>
     <use style="fill:#1f77b4;stroke:#1f77b4;" x="359.173438" xlink:href="#mb609906722" y="21.662821"/>
     <use style="fill:#1f77b4;stroke:#1f77b4;" x="371.605256" xlink:href="#mb609906722" y="22.197627"/>
    </g>
   </g>
   <g id="PathCollection_2">
    <defs>
     <path d="M 0 3 
C 0.795609 3 1.55874 2.683901 2.12132 2.12132 
C 2.683901 1.55874 3 0.795609 3 0 
C 3 -0.795609 2.683901 -1.55874 2.12132 -2.12132 
C 1.55874 -2.683901 0.795609 -3 0 -3 
C -0.795609 -3 -1.55874 -2.683901 -2.12132 -2.12132 
C -2.683901 -1.55874 -3 -0.795609 -3 0 
C -3 0.795609 -2.683901 1.55874 -2.12132 2.12132 
C -1.55874 2.683901 -0.795609 3 0 3 
z
" id="m03d8530bd5" style="stroke:#ff7f0e;"/>
    </defs>
    <g clip-path="url(#p9ddf7643c7)">
     <use style="fill:#ff7f0e;stroke:#ff7f0e;" x="73.241619" xlink:href="#m03d8530bd5" y="211.841818"/>
     <use style="fill:#ff7f0e;stroke:#ff7f0e;" x="85.673438" xlink:href="#m03d8530bd5" y="209.913012"/>
     <use style="fill:#ff7f0e;stroke:#ff7f0e;" x="98.105256" xlink:href="#m03d8530bd5" y="209.173789"/>
     <use style="fill:#ff7f0e;stroke:#ff7f0e;" x="110.537074" xlink:href="#m03d8530bd5" y="205.670636"/>
     <use style="fill:#ff7f0e;stroke:#ff7f0e;" x="122.968892" xlink:href="#m03d8530bd5" y="204.01975"/>
     <use style="fill:#ff7f0e;stroke:#ff7f0e;" x="135.40071" xlink:href="#m03d8530bd5" y="200.125208"/>
     <use style="fill:#ff7f0e;stroke:#ff7f0e;" x="147.832528" xlink:href="#m03d8530bd5" y="195.492602"/>
     <use style="fill:#ff7f0e;stroke:#ff7f0e;" x="160.264347" xlink:href="#m03d8530bd5" y="189.331947"/>
     <use style="fill:#ff7f0e;stroke:#ff7f0e;" x="172.696165" xlink:href="#m03d8530bd5" y="181.466714"/>
     <use style="fill:#ff7f0e;stroke:#ff7f0e;" x="185.127983" xlink:href="#m03d8530bd5" y="170.57493"/>
     <use style="fill:#ff7f0e;stroke:#ff7f0e;" x="197.559801" xlink:href="#m03d8530bd5" y="158.410079"/>
     <use style="fill:#ff7f0e;stroke:#ff7f0e;" x="209.991619" xlink:href="#m03d8530bd5" y="142.84949"/>
     <use style="fill:#ff7f0e;stroke:#ff7f0e;" x="222.423438" xlink:href="#m03d8530bd5" y="126.437666"/>
     <use style="fill:#ff7f0e;stroke:#ff7f0e;" x="234.855256" xlink:href="#m03d8530bd5" y="107.352322"/>
     <use style="fill:#ff7f0e;stroke:#ff7f0e;" x="247.287074" xlink:href="#m03d8530bd5" y="88.207406"/>
     <use style="fill:#ff7f0e;stroke:#ff7f0e;" x="259.718892" xlink:href="#m03d8530bd5" y="69.792454"/>
     <use style="fill:#ff7f0e;stroke:#ff7f0e;" x="272.15071" xlink:href="#m03d8530bd5" y="53.04983"/>
     <use style="fill:#ff7f0e;stroke:#ff7f0e;" x="284.582528" xlink:href="#m03d8530bd5" y="39.916024"/>
     <use style="fill:#ff7f0e;stroke:#ff7f0e;" x="297.014347" xlink:href="#m03d8530bd5" y="30.935152"/>
     <use style="fill:#ff7f0e;stroke:#ff7f0e;" x="309.446165" xlink:href="#m03d8530bd5" y="26.046187"/>
     <use style="fill:#ff7f0e;stroke:#ff7f0e;" x="321.877983" xlink:href="#m03d8530bd5" y="23.407409"/>
     <use style="fill:#ff7f0e;stroke:#ff7f0e;" x="334.309801" xlink:href="#m03d8530bd5" y="21.511712"/>
     <use style="fill:#ff7f0e;stroke:#ff7f0e;" x="346.741619" xlink:href="#m03d8530bd5" y="21.994283"/>
     <use style="fill:#ff7f0e;stroke:#ff7f0e;" x="359.173438" xlink:href="#m03d8530bd5" y="21.916778"/>
     <use style="fill:#ff7f0e;stroke:#ff7f0e;" x="371.605256" xlink:href="#m03d8530bd5" y="21.610024"/>
    </g>
   </g>
   <g id="PathCollection_3">
    <defs>
     <path d="M 0 3 
C 0.795609 3 1.55874 2.683901 2.12132 2.12132 
C 2.683901 1.55874 3 0.795609 3 0 
C 3 -0.795609 2.683901 -1.55874 2.12132 -2.12132 
C 1.55874 -2.683901 0.795609 -3 0 -3 
C -0.795609 -3 -1.55874 -2.683901 -2.12132 -2.12132 
C -2.683901 -1.55874 -3 -0.795609 -3 0 
C -3 0.795609 -2.683901 1.55874 -2.12132 2.12132 
C -1.55874 2.683901 -0.795609 3 0 3 
z
" id="m6f8581dc5d" style="stroke:#2ca02c;"/>
    </defs>
    <g clip-path="url(#p9ddf7643c7)">
     <use style="fill:#2ca02c;stroke:#2ca02c;" x="73.241619" xlink:href="#m6f8581dc5d" y="211.684968"/>
     <use style="fill:#2ca02c;stroke:#2ca02c;" x="85.673438" xlink:href="#m6f8581dc5d" y="210.410121"/>
     <use style="fill:#2ca02c;stroke:#2ca02c;" x="98.105256" xlink:href="#m6f8581dc5d" y="208.543676"/>
     <use style="fill:#2ca02c;stroke:#2ca02c;" x="110.537074" xlink:href="#m6f8581dc5d" y="206.546388"/>
     <use style="fill:#2ca02c;stroke:#2ca02c;" x="122.968892" xlink:href="#m6f8581dc5d" y="203.344179"/>
     <use style="fill:#2ca02c;stroke:#2ca02c;" x="135.40071" xlink:href="#m6f8581dc5d" y="200.485913"/>
     <use style="fill:#2ca02c;stroke:#2ca02c;" x="147.832528" xlink:href="#m6f8581dc5d" y="196.336623"/>
     <use style="fill:#2ca02c;stroke:#2ca02c;" x="160.264347" xlink:href="#m6f8581dc5d" y="189.389652"/>
     <use style="fill:#2ca02c;stroke:#2ca02c;" x="172.696165" xlink:href="#m6f8581dc5d" y="181.30333"/>
     <use style="fill:#2ca02c;stroke:#2ca02c;" x="185.127983" xlink:href="#m6f8581dc5d" y="171.329945"/>
     <use style="fill:#2ca02c;stroke:#2ca02c;" x="197.559801" xlink:href="#m6f8581dc5d" y="158.543499"/>
     <use style="fill:#2ca02c;stroke:#2ca02c;" x="209.991619" xlink:href="#m6f8581dc5d" y="144.113717"/>
     <use style="fill:#2ca02c;stroke:#2ca02c;" x="222.423438" xlink:href="#m6f8581dc5d" y="126.91307"/>
     <use style="fill:#2ca02c;stroke:#2ca02c;" x="234.855256" xlink:href="#m6f8581dc5d" y="108.472497"/>
     <use style="fill:#2ca02c;stroke:#2ca02c;" x="247.287074" xlink:href="#m6f8581dc5d" y="88.736491"/>
     <use style="fill:#2ca02c;stroke:#2ca02c;" x="259.718892" xlink:href="#m6f8581dc5d" y="70.286937"/>
     <use style="fill:#2ca02c;stroke:#2ca02c;" x="272.15071" xlink:href="#m6f8581dc5d" y="53.301433"/>
     <use style="fill:#2ca02c;stroke:#2ca02c;" x="284.582528" xlink:href="#m6f8581dc5d" y="40.072177"/>
     <use style="fill:#2ca02c;stroke:#2ca02c;" x="297.014347" xlink:href="#m6f8581dc5d" y="31.833943"/>
     <use style="fill:#2ca02c;stroke:#2ca02c;" x="309.446165" xlink:href="#m6f8581dc5d" y="25.63565"/>
     <use style="fill:#2ca02c;stroke:#2ca02c;" x="321.877983" xlink:href="#m6f8581dc5d" y="23.492308"/>
     <use style="fill:#2ca02c;stroke:#2ca02c;" x="334.309801" xlink:href="#m6f8581dc5d" y="22.242993"/>
     <use style="fill:#2ca02c;stroke:#2ca02c;" x="346.741619" xlink:href="#m6f8581dc5d" y="22.01058"/>
     <use style="fill:#2ca02c;stroke:#2ca02c;" x="359.173438" xlink:href="#m6f8581dc5d" y="22.035916"/>
     <use style="fill:#2ca02c;stroke:#2ca02c;" x="371.605256" xlink:href="#m6f8581dc5d" y="21.742715"/>
    </g>
   </g>
   <g id="PathCollection_4">
    <defs>
     <path d="M 0 3 
C 0.795609 3 1.55874 2.683901 2.12132 2.12132 
C 2.683901 1.55874 3 0.795609 3 0 
C 3 -0.795609 2.683901 -1.55874 2.12132 -2.12132 
C 1.55874 -2.683901 0.795609 -3 0 -3 
C -0.795609 -3 -1.55874 -2.683901 -2.12132 -2.12132 
C -2.683901 -1.55874 -3 -0.795609 -3 0 
C -3 0.795609 -2.683901 1.55874 -2.12132 2.12132 
C -1.55874 2.683901 -0.795609 3 0 3 
z
" id="mb37699a46e" style="stroke:#d62728;"/>
    </defs>
    <g clip-path="url(#p9ddf7643c7)">
     <use style="fill:#d62728;stroke:#d62728;" x="73.241619" xlink:href="#mb37699a46e" y="211.193682"/>
     <use style="fill:#d62728;stroke:#d62728;" x="85.673438" xlink:href="#mb37699a46e" y="210.165156"/>
     <use style="fill:#d62728;stroke:#d62728;" x="98.105256" xlink:href="#mb37699a46e" y="208.628904"/>
     <use style="fill:#d62728;stroke:#d62728;" x="110.537074" xlink:href="#mb37699a46e" y="205.776919"/>
     <use style="fill:#d62728;stroke:#d62728;" x="122.968892" xlink:href="#mb37699a46e" y="202.816409"/>
     <use style="fill:#d62728;stroke:#d62728;" x="135.40071" xlink:href="#mb37699a46e" y="200.081628"/>
     <use style="fill:#d62728;stroke:#d62728;" x="147.832528" xlink:href="#mb37699a46e" y="195.681815"/>
     <use style="fill:#d62728;stroke:#d62728;" x="160.264347" xlink:href="#mb37699a46e" y="189.579024"/>
     <use style="fill:#d62728;stroke:#d62728;" x="172.696165" xlink:href="#mb37699a46e" y="181.031098"/>
     <use style="fill:#d62728;stroke:#d62728;" x="185.127983" xlink:href="#mb37699a46e" y="170.135475"/>
     <use style="fill:#d62728;stroke:#d62728;" x="197.559801" xlink:href="#mb37699a46e" y="157.741277"/>
     <use style="fill:#d62728;stroke:#d62728;" x="209.991619" xlink:href="#mb37699a46e" y="142.949276"/>
     <use style="fill:#d62728;stroke:#d62728;" x="222.423438" xlink:href="#mb37699a46e" y="125.971776"/>
     <use style="fill:#d62728;stroke:#d62728;" x="234.855256" xlink:href="#mb37699a46e" y="106.661701"/>
     <use style="fill:#d62728;stroke:#d62728;" x="247.287074" xlink:href="#mb37699a46e" y="87.538611"/>
     <use style="fill:#d62728;stroke:#d62728;" x="259.718892" xlink:href="#mb37699a46e" y="69.614086"/>
     <use style="fill:#d62728;stroke:#d62728;" x="272.15071" xlink:href="#mb37699a46e" y="52.869161"/>
     <use style="fill:#d62728;stroke:#d62728;" x="284.582528" xlink:href="#mb37699a46e" y="40.262423"/>
     <use style="fill:#d62728;stroke:#d62728;" x="297.014347" xlink:href="#mb37699a46e" y="30.537014"/>
     <use style="fill:#d62728;stroke:#d62728;" x="309.446165" xlink:href="#mb37699a46e" y="25.707493"/>
     <use style="fill:#d62728;stroke:#d62728;" x="321.877983" xlink:href="#mb37699a46e" y="23.055087"/>
     <use style="fill:#d62728;stroke:#d62728;" x="334.309801" xlink:href="#mb37699a46e" y="22.120532"/>
     <use style="fill:#d62728;stroke:#d62728;" x="346.741619" xlink:href="#mb37699a46e" y="21.831409"/>
     <use style="fill:#d62728;stroke:#d62728;" x="359.173438" xlink:href="#mb37699a46e" y="22.22852"/>
     <use style="fill:#d62728;stroke:#d62728;" x="371.605256" xlink:href="#mb37699a46e" y="22.133283"/>
    </g>
   </g>
   <g id="PathCollection_5">
    <defs>
     <path d="M 0 3 
C 0.795609 3 1.55874 2.683901 2.12132 2.12132 
C 2.683901 1.55874 3 0.795609 3 0 
C 3 -0.795609 2.683901 -1.55874 2.12132 -2.12132 
C 1.55874 -2.683901 0.795609 -3 0 -3 
C -0.795609 -3 -1.55874 -2.683901 -2.12132 -2.12132 
C -2.683901 -1.55874 -3 -0.795609 -3 0 
C -3 0.795609 -2.683901 1.55874 -2.12132 2.12132 
C -1.55874 2.683901 -0.795609 3 0 3 
z
" id="m33c1c1fe06" style="stroke:#9467bd;"/>
    </defs>
    <g clip-path="url(#p9ddf7643c7)">
     <use style="fill:#9467bd;stroke:#9467bd;" x="73.241619" xlink:href="#m33c1c1fe06" y="210.940455"/>
     <use style="fill:#9467bd;stroke:#9467bd;" x="85.673438" xlink:href="#m33c1c1fe06" y="209.471653"/>
     <use style="fill:#9467bd;stroke:#9467bd;" x="98.105256" xlink:href="#m33c1c1fe06" y="208.045445"/>
     <use style="fill:#9467bd;stroke:#9467bd;" x="110.537074" xlink:href="#m33c1c1fe06" y="205.864481"/>
     <use style="fill:#9467bd;stroke:#9467bd;" x="122.968892" xlink:href="#m33c1c1fe06" y="202.117282"/>
     <use style="fill:#9467bd;stroke:#9467bd;" x="135.40071" xlink:href="#m33c1c1fe06" y="197.844825"/>
     <use style="fill:#9467bd;stroke:#9467bd;" x="147.832528" xlink:href="#m33c1c1fe06" y="194.701009"/>
     <use style="fill:#9467bd;stroke:#9467bd;" x="160.264347" xlink:href="#m33c1c1fe06" y="188.258106"/>
     <use style="fill:#9467bd;stroke:#9467bd;" x="172.696165" xlink:href="#m33c1c1fe06" y="179.135723"/>
     <use style="fill:#9467bd;stroke:#9467bd;" x="185.127983" xlink:href="#m33c1c1fe06" y="167.882197"/>
     <use style="fill:#9467bd;stroke:#9467bd;" x="197.559801" xlink:href="#m33c1c1fe06" y="155.012302"/>
     <use style="fill:#9467bd;stroke:#9467bd;" x="209.991619" xlink:href="#m33c1c1fe06" y="139.411675"/>
     <use style="fill:#9467bd;stroke:#9467bd;" x="222.423438" xlink:href="#m33c1c1fe06" y="122.857531"/>
     <use style="fill:#9467bd;stroke:#9467bd;" x="234.855256" xlink:href="#m33c1c1fe06" y="103.039574"/>
     <use style="fill:#9467bd;stroke:#9467bd;" x="247.287074" xlink:href="#m33c1c1fe06" y="84.676006"/>
     <use style="fill:#9467bd;stroke:#9467bd;" x="259.718892" xlink:href="#m33c1c1fe06" y="66.034405"/>
     <use style="fill:#9467bd;stroke:#9467bd;" x="272.15071" xlink:href="#m33c1c1fe06" y="51.325361"/>
     <use style="fill:#9467bd;stroke:#9467bd;" x="284.582528" xlink:href="#m33c1c1fe06" y="38.295654"/>
     <use style="fill:#9467bd;stroke:#9467bd;" x="297.014347" xlink:href="#m33c1c1fe06" y="30.494295"/>
     <use style="fill:#9467bd;stroke:#9467bd;" x="309.446165" xlink:href="#m33c1c1fe06" y="26.028513"/>
     <use style="fill:#9467bd;stroke:#9467bd;" x="321.877983" xlink:href="#m33c1c1fe06" y="22.689551"/>
     <use style="fill:#9467bd;stroke:#9467bd;" x="334.309801" xlink:href="#m33c1c1fe06" y="22.199758"/>
     <use style="fill:#9467bd;stroke:#9467bd;" x="346.741619" xlink:href="#m33c1c1fe06" y="21.903265"/>
     <use style="fill:#9467bd;stroke:#9467bd;" x="359.173438" xlink:href="#m33c1c1fe06" y="21.568392"/>
     <use style="fill:#9467bd;stroke:#9467bd;" x="371.605256" xlink:href="#m33c1c1fe06" y="21.608679"/>
    </g>
   </g>
   <g id="PathCollection_6">
    <defs>
     <path d="M 0 3 
C 0.795609 3 1.55874 2.683901 2.12132 2.12132 
C 2.683901 1.55874 3 0.795609 3 0 
C 3 -0.795609 2.683901 -1.55874 2.12132 -2.12132 
C 1.55874 -2.683901 0.795609 -3 0 -3 
C -0.795609 -3 -1.55874 -2.683901 -2.12132 -2.12132 
C -2.683901 -1.55874 -3 -0.795609 -3 0 
C -3 0.795609 -2.683901 1.55874 -2.12132 2.12132 
C -1.55874 2.683901 -0.795609 3 0 3 
z
" id="me6861a0eb2" style="stroke:#8c564b;"/>
    </defs>
    <g clip-path="url(#p9ddf7643c7)">
     <use style="fill:#8c564b;stroke:#8c564b;" x="73.241619" xlink:href="#me6861a0eb2" y="209.06088"/>
     <use style="fill:#8c564b;stroke:#8c564b;" x="85.673438" xlink:href="#me6861a0eb2" y="207.582012"/>
     <use style="fill:#8c564b;stroke:#8c564b;" x="98.105256" xlink:href="#me6861a0eb2" y="205.836203"/>
     <use style="fill:#8c564b;stroke:#8c564b;" x="110.537074" xlink:href="#me6861a0eb2" y="202.298084"/>
     <use style="fill:#8c564b;stroke:#8c564b;" x="122.968892" xlink:href="#me6861a0eb2" y="198.197432"/>
     <use style="fill:#8c564b;stroke:#8c564b;" x="135.40071" xlink:href="#me6861a0eb2" y="194.619884"/>
     <use style="fill:#8c564b;stroke:#8c564b;" x="147.832528" xlink:href="#me6861a0eb2" y="188.830642"/>
     <use style="fill:#8c564b;stroke:#8c564b;" x="160.264347" xlink:href="#me6861a0eb2" y="179.573269"/>
     <use style="fill:#8c564b;stroke:#8c564b;" x="172.696165" xlink:href="#me6861a0eb2" y="169.676402"/>
     <use style="fill:#8c564b;stroke:#8c564b;" x="185.127983" xlink:href="#me6861a0eb2" y="156.524989"/>
     <use style="fill:#8c564b;stroke:#8c564b;" x="197.559801" xlink:href="#me6861a0eb2" y="142.60766"/>
     <use style="fill:#8c564b;stroke:#8c564b;" x="209.991619" xlink:href="#me6861a0eb2" y="124.902873"/>
     <use style="fill:#8c564b;stroke:#8c564b;" x="222.423438" xlink:href="#me6861a0eb2" y="107.763125"/>
     <use style="fill:#8c564b;stroke:#8c564b;" x="234.855256" xlink:href="#me6861a0eb2" y="87.167377"/>
     <use style="fill:#8c564b;stroke:#8c564b;" x="247.287074" xlink:href="#me6861a0eb2" y="70.128647"/>
     <use style="fill:#8c564b;stroke:#8c564b;" x="259.718892" xlink:href="#me6861a0eb2" y="53.904732"/>
     <use style="fill:#8c564b;stroke:#8c564b;" x="272.15071" xlink:href="#me6861a0eb2" y="41.266454"/>
     <use style="fill:#8c564b;stroke:#8c564b;" x="284.582528" xlink:href="#me6861a0eb2" y="31.683592"/>
     <use style="fill:#8c564b;stroke:#8c564b;" x="297.014347" xlink:href="#me6861a0eb2" y="26.554411"/>
     <use style="fill:#8c564b;stroke:#8c564b;" x="309.446165" xlink:href="#me6861a0eb2" y="23.869464"/>
     <use style="fill:#8c564b;stroke:#8c564b;" x="321.877983" xlink:href="#me6861a0eb2" y="22.329035"/>
     <use style="fill:#8c564b;stroke:#8c564b;" x="334.309801" xlink:href="#me6861a0eb2" y="21.531689"/>
     <use style="fill:#8c564b;stroke:#8c564b;" x="346.741619" xlink:href="#me6861a0eb2" y="21.779485"/>
     <use style="fill:#8c564b;stroke:#8c564b;" x="359.173438" xlink:href="#me6861a0eb2" y="21.98936"/>
     <use style="fill:#8c564b;stroke:#8c564b;" x="371.605256" xlink:href="#me6861a0eb2" y="22.107035"/>
    </g>
   </g>
   <g id="PathCollection_7">
    <defs>
     <path d="M 0 3 
C 0.795609 3 1.55874 2.683901 2.12132 2.12132 
C 2.683901 1.55874 3 0.795609 3 0 
C 3 -0.795609 2.683901 -1.55874 2.12132 -2.12132 
C 1.55874 -2.683901 0.795609 -3 0 -3 
C -0.795609 -3 -1.55874 -2.683901 -2.12132 -2.12132 
C -2.683901 -1.55874 -3 -0.795609 -3 0 
C -3 0.795609 -2.683901 1.55874 -2.12132 2.12132 
C -1.55874 2.683901 -0.795609 3 0 3 
z
" id="m53e023e651" style="stroke:#e377c2;"/>
    </defs>
    <g clip-path="url(#p9ddf7643c7)">
     <use style="fill:#e377c2;stroke:#e377c2;" x="73.241619" xlink:href="#m53e023e651" y="206.339695"/>
     <use style="fill:#e377c2;stroke:#e377c2;" x="85.673438" xlink:href="#m53e023e651" y="204.277667"/>
     <use style="fill:#e377c2;stroke:#e377c2;" x="98.105256" xlink:href="#m53e023e651" y="202.694733"/>
     <use style="fill:#e377c2;stroke:#e377c2;" x="110.537074" xlink:href="#m53e023e651" y="197.557751"/>
     <use style="fill:#e377c2;stroke:#e377c2;" x="122.968892" xlink:href="#m53e023e651" y="193.159999"/>
     <use style="fill:#e377c2;stroke:#e377c2;" x="135.40071" xlink:href="#m53e023e651" y="186.658269"/>
     <use style="fill:#e377c2;stroke:#e377c2;" x="147.832528" xlink:href="#m53e023e651" y="179.918601"/>
     <use style="fill:#e377c2;stroke:#e377c2;" x="160.264347" xlink:href="#m53e023e651" y="168.938082"/>
     <use style="fill:#e377c2;stroke:#e377c2;" x="172.696165" xlink:href="#m53e023e651" y="156.636535"/>
     <use style="fill:#e377c2;stroke:#e377c2;" x="185.127983" xlink:href="#m53e023e651" y="141.44226"/>
     <use style="fill:#e377c2;stroke:#e377c2;" x="197.559801" xlink:href="#m53e023e651" y="124.97563"/>
     <use style="fill:#e377c2;stroke:#e377c2;" x="209.991619" xlink:href="#m53e023e651" y="105.639256"/>
     <use style="fill:#e377c2;stroke:#e377c2;" x="222.423438" xlink:href="#m53e023e651" y="87.422652"/>
     <use style="fill:#e377c2;stroke:#e377c2;" x="234.855256" xlink:href="#m53e023e651" y="70.020836"/>
     <use style="fill:#e377c2;stroke:#e377c2;" x="247.287074" xlink:href="#m53e023e651" y="54.326577"/>
     <use style="fill:#e377c2;stroke:#e377c2;" x="259.718892" xlink:href="#m53e023e651" y="41.480063"/>
     <use style="fill:#e377c2;stroke:#e377c2;" x="272.15071" xlink:href="#m53e023e651" y="33.195122"/>
     <use style="fill:#e377c2;stroke:#e377c2;" x="284.582528" xlink:href="#m53e023e651" y="26.986897"/>
     <use style="fill:#e377c2;stroke:#e377c2;" x="297.014347" xlink:href="#m53e023e651" y="23.516746"/>
     <use style="fill:#e377c2;stroke:#e377c2;" x="309.446165" xlink:href="#m53e023e651" y="22.360004"/>
     <use style="fill:#e377c2;stroke:#e377c2;" x="321.877983" xlink:href="#m53e023e651" y="22.178679"/>
     <use style="fill:#e377c2;stroke:#e377c2;" x="334.309801" xlink:href="#m53e023e651" y="21.437584"/>
     <use style="fill:#e377c2;stroke:#e377c2;" x="346.741619" xlink:href="#m53e023e651" y="22.757065"/>
     <use style="fill:#e377c2;stroke:#e377c2;" x="359.173438" xlink:href="#m53e023e651" y="21.323125"/>
     <use style="fill:#e377c2;stroke:#e377c2;" x="371.605256" xlink:href="#m53e023e651" y="22.235114"/>
    </g>
   </g>
   <g id="PathCollection_8">
    <defs>
     <path d="M 0 3 
C 0.795609 3 1.55874 2.683901 2.12132 2.12132 
C 2.683901 1.55874 3 0.795609 3 0 
C 3 -0.795609 2.683901 -1.55874 2.12132 -2.12132 
C 1.55874 -2.683901 0.795609 -3 0 -3 
C -0.795609 -3 -1.55874 -2.683901 -2.12132 -2.12132 
C -2.683901 -1.55874 -3 -0.795609 -3 0 
C -3 0.795609 -2.683901 1.55874 -2.12132 2.12132 
C -1.55874 2.683901 -0.795609 3 0 3 
z
" id="m64674d09e3" style="stroke:#7f7f7f;"/>
    </defs>
    <g clip-path="url(#p9ddf7643c7)">
     <use style="fill:#7f7f7f;stroke:#7f7f7f;" x="73.241619" xlink:href="#m64674d09e3" y="204.804456"/>
     <use style="fill:#7f7f7f;stroke:#7f7f7f;" x="85.673438" xlink:href="#m64674d09e3" y="201.517685"/>
     <use style="fill:#7f7f7f;stroke:#7f7f7f;" x="98.105256" xlink:href="#m64674d09e3" y="198.215811"/>
     <use style="fill:#7f7f7f;stroke:#7f7f7f;" x="110.537074" xlink:href="#m64674d09e3" y="192.335198"/>
     <use style="fill:#7f7f7f;stroke:#7f7f7f;" x="122.968892" xlink:href="#m64674d09e3" y="186.560749"/>
     <use style="fill:#7f7f7f;stroke:#7f7f7f;" x="135.40071" xlink:href="#m64674d09e3" y="179.25427"/>
     <use style="fill:#7f7f7f;stroke:#7f7f7f;" x="147.832528" xlink:href="#m64674d09e3" y="168.448408"/>
     <use style="fill:#7f7f7f;stroke:#7f7f7f;" x="160.264347" xlink:href="#m64674d09e3" y="155.689829"/>
     <use style="fill:#7f7f7f;stroke:#7f7f7f;" x="172.696165" xlink:href="#m64674d09e3" y="140.237336"/>
     <use style="fill:#7f7f7f;stroke:#7f7f7f;" x="185.127983" xlink:href="#m64674d09e3" y="122.962596"/>
     <use style="fill:#7f7f7f;stroke:#7f7f7f;" x="197.559801" xlink:href="#m64674d09e3" y="103.983439"/>
     <use style="fill:#7f7f7f;stroke:#7f7f7f;" x="209.991619" xlink:href="#m64674d09e3" y="85.492386"/>
     <use style="fill:#7f7f7f;stroke:#7f7f7f;" x="222.423438" xlink:href="#m64674d09e3" y="66.887199"/>
     <use style="fill:#7f7f7f;stroke:#7f7f7f;" x="234.855256" xlink:href="#m64674d09e3" y="52.232042"/>
     <use style="fill:#7f7f7f;stroke:#7f7f7f;" x="247.287074" xlink:href="#m64674d09e3" y="39.563961"/>
     <use style="fill:#7f7f7f;stroke:#7f7f7f;" x="259.718892" xlink:href="#m64674d09e3" y="32.104195"/>
     <use style="fill:#7f7f7f;stroke:#7f7f7f;" x="272.15071" xlink:href="#m64674d09e3" y="25.912402"/>
     <use style="fill:#7f7f7f;stroke:#7f7f7f;" x="284.582528" xlink:href="#m64674d09e3" y="23.88371"/>
     <use style="fill:#7f7f7f;stroke:#7f7f7f;" x="297.014347" xlink:href="#m64674d09e3" y="22.486198"/>
     <use style="fill:#7f7f7f;stroke:#7f7f7f;" x="309.446165" xlink:href="#m64674d09e3" y="22.700433"/>
     <use style="fill:#7f7f7f;stroke:#7f7f7f;" x="321.877983" xlink:href="#m64674d09e3" y="22.902982"/>
     <use style="fill:#7f7f7f;stroke:#7f7f7f;" x="334.309801" xlink:href="#m64674d09e3" y="22.603504"/>
     <use style="fill:#7f7f7f;stroke:#7f7f7f;" x="346.741619" xlink:href="#m64674d09e3" y="21.281426"/>
     <use style="fill:#7f7f7f;stroke:#7f7f7f;" x="359.173438" xlink:href="#m64674d09e3" y="20.792739"/>
     <use style="fill:#7f7f7f;stroke:#7f7f7f;" x="371.605256" xlink:href="#m64674d09e3" y="21.323759"/>
    </g>
   </g>
   <g id="PathCollection_9">
    <defs>
     <path d="M 0 3 
C 0.795609 3 1.55874 2.683901 2.12132 2.12132 
C 2.683901 1.55874 3 0.795609 3 0 
C 3 -0.795609 2.683901 -1.55874 2.12132 -2.12132 
C 1.55874 -2.683901 0.795609 -3 0 -3 
C -0.795609 -3 -1.55874 -2.683901 -2.12132 -2.12132 
C -2.683901 -1.55874 -3 -0.795609 -3 0 
C -3 0.795609 -2.683901 1.55874 -2.12132 2.12132 
C -1.55874 2.683901 -0.795609 3 0 3 
z
" id="m0234242f0b" style="stroke:#bcbd22;"/>
    </defs>
    <g clip-path="url(#p9ddf7643c7)">
     <use style="fill:#bcbd22;stroke:#bcbd22;" x="73.241619" xlink:href="#m0234242f0b" y="200.040499"/>
     <use style="fill:#bcbd22;stroke:#bcbd22;" x="85.673438" xlink:href="#m0234242f0b" y="197.394512"/>
     <use style="fill:#bcbd22;stroke:#bcbd22;" x="98.105256" xlink:href="#m0234242f0b" y="193.370965"/>
     <use style="fill:#bcbd22;stroke:#bcbd22;" x="110.537074" xlink:href="#m0234242f0b" y="185.899005"/>
     <use style="fill:#bcbd22;stroke:#bcbd22;" x="122.968892" xlink:href="#m0234242f0b" y="177.201307"/>
     <use style="fill:#bcbd22;stroke:#bcbd22;" x="135.40071" xlink:href="#m0234242f0b" y="167.100877"/>
     <use style="fill:#bcbd22;stroke:#bcbd22;" x="147.832528" xlink:href="#m0234242f0b" y="152.49362"/>
     <use style="fill:#bcbd22;stroke:#bcbd22;" x="160.264347" xlink:href="#m0234242f0b" y="136.320166"/>
     <use style="fill:#bcbd22;stroke:#bcbd22;" x="172.696165" xlink:href="#m0234242f0b" y="117.915949"/>
     <use style="fill:#bcbd22;stroke:#bcbd22;" x="185.127983" xlink:href="#m0234242f0b" y="97.687064"/>
     <use style="fill:#bcbd22;stroke:#bcbd22;" x="197.559801" xlink:href="#m0234242f0b" y="79.130002"/>
     <use style="fill:#bcbd22;stroke:#bcbd22;" x="209.991619" xlink:href="#m0234242f0b" y="59.884974"/>
     <use style="fill:#bcbd22;stroke:#bcbd22;" x="222.423438" xlink:href="#m0234242f0b" y="45.233676"/>
     <use style="fill:#bcbd22;stroke:#bcbd22;" x="234.855256" xlink:href="#m0234242f0b" y="35.376735"/>
     <use style="fill:#bcbd22;stroke:#bcbd22;" x="247.287074" xlink:href="#m0234242f0b" y="29.322555"/>
     <use style="fill:#bcbd22;stroke:#bcbd22;" x="259.718892" xlink:href="#m0234242f0b" y="25.537727"/>
     <use style="fill:#bcbd22;stroke:#bcbd22;" x="272.15071" xlink:href="#m0234242f0b" y="23.813425"/>
     <use style="fill:#bcbd22;stroke:#bcbd22;" x="284.582528" xlink:href="#m0234242f0b" y="24.035656"/>
     <use style="fill:#bcbd22;stroke:#bcbd22;" x="297.014347" xlink:href="#m0234242f0b" y="22.80335"/>
     <use style="fill:#bcbd22;stroke:#bcbd22;" x="309.446165" xlink:href="#m0234242f0b" y="22.428027"/>
     <use style="fill:#bcbd22;stroke:#bcbd22;" x="321.877983" xlink:href="#m0234242f0b" y="22.240176"/>
     <use style="fill:#bcbd22;stroke:#bcbd22;" x="334.309801" xlink:href="#m0234242f0b" y="22.053674"/>
     <use style="fill:#bcbd22;stroke:#bcbd22;" x="346.741619" xlink:href="#m0234242f0b" y="21.05703"/>
     <use style="fill:#bcbd22;stroke:#bcbd22;" x="359.173438" xlink:href="#m0234242f0b" y="20.632394"/>
     <use style="fill:#bcbd22;stroke:#bcbd22;" x="371.605256" xlink:href="#m0234242f0b" y="20.072584"/>
    </g>
   </g>
   <g id="matplotlib.axis_1">
    <g id="xtick_1">
     <g id="line2d_1">
      <defs>
       <path d="M 0 0 
L 0 -3.5 
" id="m5dbfb358a9" style="stroke:#000000;stroke-width:0.8;"/>
      </defs>
      <g>
       <use style="stroke:#000000;stroke-width:0.8;" x="120.660918" xlink:href="#m5dbfb358a9" y="224.64"/>
      </g>
     </g>
     <g id="line2d_2">
      <defs>
       <path d="M 0 0 
L 0 3.5 
" id="m9e18083ffa" style="stroke:#000000;stroke-width:0.8;"/>
      </defs>
      <g>
       <use style="stroke:#000000;stroke-width:0.8;" x="120.660918" xlink:href="#m9e18083ffa" y="7.2"/>
      </g>
     </g>
     <g id="text_1">
      <!-- $\mathdefault{10^{-4}}$ -->
      <defs>
       <path d="M 12.40625 8.296875 
L 28.515625 8.296875 
L 28.515625 63.921875 
L 10.984375 60.40625 
L 10.984375 69.390625 
L 28.421875 72.90625 
L 38.28125 72.90625 
L 38.28125 8.296875 
L 54.390625 8.296875 
L 54.390625 0 
L 12.40625 0 
z
" id="DejaVuSans-31"/>
       <path d="M 31.78125 66.40625 
Q 24.171875 66.40625 20.328125 58.90625 
Q 16.5 51.421875 16.5 36.375 
Q 16.5 21.390625 20.328125 13.890625 
Q 24.171875 6.390625 31.78125 6.390625 
Q 39.453125 6.390625 43.28125 13.890625 
Q 47.125 21.390625 47.125 36.375 
Q 47.125 51.421875 43.28125 58.90625 
Q 39.453125 66.40625 31.78125 66.40625 
z
M 31.78125 74.21875 
Q 44.046875 74.21875 50.515625 64.515625 
Q 56.984375 54.828125 56.984375 36.375 
Q 56.984375 17.96875 50.515625 8.265625 
Q 44.046875 -1.421875 31.78125 -1.421875 
Q 19.53125 -1.421875 13.0625 8.265625 
Q 6.59375 17.96875 6.59375 36.375 
Q 6.59375 54.828125 13.0625 64.515625 
Q 19.53125 74.21875 31.78125 74.21875 
z
" id="DejaVuSans-30"/>
       <path d="M 10.59375 35.5 
L 73.1875 35.5 
L 73.1875 27.203125 
L 10.59375 27.203125 
z
" id="DejaVuSans-2212"/>
       <path d="M 37.796875 64.3125 
L 12.890625 25.390625 
L 37.796875 25.390625 
z
M 35.203125 72.90625 
L 47.609375 72.90625 
L 47.609375 25.390625 
L 58.015625 25.390625 
L 58.015625 17.1875 
L 47.609375 17.1875 
L 47.609375 0 
L 37.796875 0 
L 37.796875 17.1875 
L 4.890625 17.1875 
L 4.890625 26.703125 
z
" id="DejaVuSans-34"/>
      </defs>
      <g transform="translate(108.910918 235.738438)scale(0.1 -0.1)">
       <use transform="translate(0 0.684375)" xlink:href="#DejaVuSans-31"/>
       <use transform="translate(63.623047 0.684375)" xlink:href="#DejaVuSans-30"/>
       <use transform="translate(128.203125 38.965625)scale(0.7)" xlink:href="#DejaVuSans-2212"/>
       <use transform="translate(186.855469 38.965625)scale(0.7)" xlink:href="#DejaVuSans-34"/>
      </g>
     </g>
    </g>
    <g id="xtick_2">
     <g id="line2d_3">
      <g>
       <use style="stroke:#000000;stroke-width:0.8;" x="188.502598" xlink:href="#m5dbfb358a9" y="224.64"/>
      </g>
     </g>
     <g id="line2d_4">
      <g>
       <use style="stroke:#000000;stroke-width:0.8;" x="188.502598" xlink:href="#m9e18083ffa" y="7.2"/>
      </g>
     </g>
     <g id="text_2">
      <!-- $\mathdefault{10^{-3}}$ -->
      <defs>
       <path d="M 40.578125 39.3125 
Q 47.65625 37.796875 51.625 33 
Q 55.609375 28.21875 55.609375 21.1875 
Q 55.609375 10.40625 48.1875 4.484375 
Q 40.765625 -1.421875 27.09375 -1.421875 
Q 22.515625 -1.421875 17.65625 -0.515625 
Q 12.796875 0.390625 7.625 2.203125 
L 7.625 11.71875 
Q 11.71875 9.328125 16.59375 8.109375 
Q 21.484375 6.890625 26.8125 6.890625 
Q 36.078125 6.890625 40.9375 10.546875 
Q 45.796875 14.203125 45.796875 21.1875 
Q 45.796875 27.640625 41.28125 31.265625 
Q 36.765625 34.90625 28.71875 34.90625 
L 20.21875 34.90625 
L 20.21875 43.015625 
L 29.109375 43.015625 
Q 36.375 43.015625 40.234375 45.921875 
Q 44.09375 48.828125 44.09375 54.296875 
Q 44.09375 59.90625 40.109375 62.90625 
Q 36.140625 65.921875 28.71875 65.921875 
Q 24.65625 65.921875 20.015625 65.03125 
Q 15.375 64.15625 9.8125 62.3125 
L 9.8125 71.09375 
Q 15.4375 72.65625 20.34375 73.4375 
Q 25.25 74.21875 29.59375 74.21875 
Q 40.828125 74.21875 47.359375 69.109375 
Q 53.90625 64.015625 53.90625 55.328125 
Q 53.90625 49.265625 50.4375 45.09375 
Q 46.96875 40.921875 40.578125 39.3125 
z
" id="DejaVuSans-33"/>
      </defs>
      <g transform="translate(176.752598 235.738438)scale(0.1 -0.1)">
       <use transform="translate(0 0.765625)" xlink:href="#DejaVuSans-31"/>
       <use transform="translate(63.623047 0.765625)" xlink:href="#DejaVuSans-30"/>
       <use transform="translate(128.203125 39.046875)scale(0.7)" xlink:href="#DejaVuSans-2212"/>
       <use transform="translate(186.855469 39.046875)scale(0.7)" xlink:href="#DejaVuSans-33"/>
      </g>
     </g>
    </g>
    <g id="xtick_3">
     <g id="line2d_5">
      <g>
       <use style="stroke:#000000;stroke-width:0.8;" x="256.344277" xlink:href="#m5dbfb358a9" y="224.64"/>
      </g>
     </g>
     <g id="line2d_6">
      <g>
       <use style="stroke:#000000;stroke-width:0.8;" x="256.344277" xlink:href="#m9e18083ffa" y="7.2"/>
      </g>
     </g>
     <g id="text_3">
      <!-- $\mathdefault{10^{-2}}$ -->
      <defs>
       <path d="M 19.1875 8.296875 
L 53.609375 8.296875 
L 53.609375 0 
L 7.328125 0 
L 7.328125 8.296875 
Q 12.9375 14.109375 22.625 23.890625 
Q 32.328125 33.6875 34.8125 36.53125 
Q 39.546875 41.84375 41.421875 45.53125 
Q 43.3125 49.21875 43.3125 52.78125 
Q 43.3125 58.59375 39.234375 62.25 
Q 35.15625 65.921875 28.609375 65.921875 
Q 23.96875 65.921875 18.8125 64.3125 
Q 13.671875 62.703125 7.8125 59.421875 
L 7.8125 69.390625 
Q 13.765625 71.78125 18.9375 73 
Q 24.125 74.21875 28.421875 74.21875 
Q 39.75 74.21875 46.484375 68.546875 
Q 53.21875 62.890625 53.21875 53.421875 
Q 53.21875 48.921875 51.53125 44.890625 
Q 49.859375 40.875 45.40625 35.40625 
Q 44.1875 33.984375 37.640625 27.21875 
Q 31.109375 20.453125 19.1875 8.296875 
z
" id="DejaVuSans-32"/>
      </defs>
      <g transform="translate(244.594277 235.738438)scale(0.1 -0.1)">
       <use transform="translate(0 0.765625)" xlink:href="#DejaVuSans-31"/>
       <use transform="translate(63.623047 0.765625)" xlink:href="#DejaVuSans-30"/>
       <use transform="translate(128.203125 39.046875)scale(0.7)" xlink:href="#DejaVuSans-2212"/>
       <use transform="translate(186.855469 39.046875)scale(0.7)" xlink:href="#DejaVuSans-32"/>
      </g>
     </g>
    </g>
    <g id="xtick_4">
     <g id="line2d_7">
      <g>
       <use style="stroke:#000000;stroke-width:0.8;" x="324.185957" xlink:href="#m5dbfb358a9" y="224.64"/>
      </g>
     </g>
     <g id="line2d_8">
      <g>
       <use style="stroke:#000000;stroke-width:0.8;" x="324.185957" xlink:href="#m9e18083ffa" y="7.2"/>
      </g>
     </g>
     <g id="text_4">
      <!-- $\mathdefault{10^{-1}}$ -->
      <g transform="translate(312.435957 235.738438)scale(0.1 -0.1)">
       <use transform="translate(0 0.684375)" xlink:href="#DejaVuSans-31"/>
       <use transform="translate(63.623047 0.684375)" xlink:href="#DejaVuSans-30"/>
       <use transform="translate(128.203125 38.965625)scale(0.7)" xlink:href="#DejaVuSans-2212"/>
       <use transform="translate(186.855469 38.965625)scale(0.7)" xlink:href="#DejaVuSans-31"/>
      </g>
     </g>
    </g>
    <g id="xtick_5">
     <g id="line2d_9">
      <defs>
       <path d="M 0 0 
L 0 -2 
" id="m1688ad7bea" style="stroke:#000000;stroke-width:0.6;"/>
      </defs>
      <g>
       <use style="stroke:#000000;stroke-width:0.6;" x="73.241619" xlink:href="#m1688ad7bea" y="224.64"/>
      </g>
     </g>
     <g id="line2d_10">
      <defs>
       <path d="M 0 0 
L 0 2 
" id="m9b05a4835a" style="stroke:#000000;stroke-width:0.6;"/>
      </defs>
      <g>
       <use style="stroke:#000000;stroke-width:0.6;" x="73.241619" xlink:href="#m9b05a4835a" y="7.2"/>
      </g>
     </g>
    </g>
    <g id="xtick_6">
     <g id="line2d_11">
      <g>
       <use style="stroke:#000000;stroke-width:0.6;" x="85.187946" xlink:href="#m1688ad7bea" y="224.64"/>
      </g>
     </g>
     <g id="line2d_12">
      <g>
       <use style="stroke:#000000;stroke-width:0.6;" x="85.187946" xlink:href="#m9b05a4835a" y="7.2"/>
      </g>
     </g>
    </g>
    <g id="xtick_7">
     <g id="line2d_13">
      <g>
       <use style="stroke:#000000;stroke-width:0.6;" x="93.664" xlink:href="#m1688ad7bea" y="224.64"/>
      </g>
     </g>
     <g id="line2d_14">
      <g>
       <use style="stroke:#000000;stroke-width:0.6;" x="93.664" xlink:href="#m9b05a4835a" y="7.2"/>
      </g>
     </g>
    </g>
    <g id="xtick_8">
     <g id="line2d_15">
      <g>
       <use style="stroke:#000000;stroke-width:0.6;" x="100.238538" xlink:href="#m1688ad7bea" y="224.64"/>
      </g>
     </g>
     <g id="line2d_16">
      <g>
       <use style="stroke:#000000;stroke-width:0.6;" x="100.238538" xlink:href="#m9b05a4835a" y="7.2"/>
      </g>
     </g>
    </g>
    <g id="xtick_9">
     <g id="line2d_17">
      <g>
       <use style="stroke:#000000;stroke-width:0.6;" x="105.610327" xlink:href="#m1688ad7bea" y="224.64"/>
      </g>
     </g>
     <g id="line2d_18">
      <g>
       <use style="stroke:#000000;stroke-width:0.6;" x="105.610327" xlink:href="#m9b05a4835a" y="7.2"/>
      </g>
     </g>
    </g>
    <g id="xtick_10">
     <g id="line2d_19">
      <g>
       <use style="stroke:#000000;stroke-width:0.6;" x="110.152109" xlink:href="#m1688ad7bea" y="224.64"/>
      </g>
     </g>
     <g id="line2d_20">
      <g>
       <use style="stroke:#000000;stroke-width:0.6;" x="110.152109" xlink:href="#m9b05a4835a" y="7.2"/>
      </g>
     </g>
    </g>
    <g id="xtick_11">
     <g id="line2d_21">
      <g>
       <use style="stroke:#000000;stroke-width:0.6;" x="114.08638" xlink:href="#m1688ad7bea" y="224.64"/>
      </g>
     </g>
     <g id="line2d_22">
      <g>
       <use style="stroke:#000000;stroke-width:0.6;" x="114.08638" xlink:href="#m9b05a4835a" y="7.2"/>
      </g>
     </g>
    </g>
    <g id="xtick_12">
     <g id="line2d_23">
      <g>
       <use style="stroke:#000000;stroke-width:0.6;" x="117.556653" xlink:href="#m1688ad7bea" y="224.64"/>
      </g>
     </g>
     <g id="line2d_24">
      <g>
       <use style="stroke:#000000;stroke-width:0.6;" x="117.556653" xlink:href="#m9b05a4835a" y="7.2"/>
      </g>
     </g>
    </g>
    <g id="xtick_13">
     <g id="line2d_25">
      <g>
       <use style="stroke:#000000;stroke-width:0.6;" x="141.083299" xlink:href="#m1688ad7bea" y="224.64"/>
      </g>
     </g>
     <g id="line2d_26">
      <g>
       <use style="stroke:#000000;stroke-width:0.6;" x="141.083299" xlink:href="#m9b05a4835a" y="7.2"/>
      </g>
     </g>
    </g>
    <g id="xtick_14">
     <g id="line2d_27">
      <g>
       <use style="stroke:#000000;stroke-width:0.6;" x="153.029626" xlink:href="#m1688ad7bea" y="224.64"/>
      </g>
     </g>
     <g id="line2d_28">
      <g>
       <use style="stroke:#000000;stroke-width:0.6;" x="153.029626" xlink:href="#m9b05a4835a" y="7.2"/>
      </g>
     </g>
    </g>
    <g id="xtick_15">
     <g id="line2d_29">
      <g>
       <use style="stroke:#000000;stroke-width:0.6;" x="161.505679" xlink:href="#m1688ad7bea" y="224.64"/>
      </g>
     </g>
     <g id="line2d_30">
      <g>
       <use style="stroke:#000000;stroke-width:0.6;" x="161.505679" xlink:href="#m9b05a4835a" y="7.2"/>
      </g>
     </g>
    </g>
    <g id="xtick_16">
     <g id="line2d_31">
      <g>
       <use style="stroke:#000000;stroke-width:0.6;" x="168.080217" xlink:href="#m1688ad7bea" y="224.64"/>
      </g>
     </g>
     <g id="line2d_32">
      <g>
       <use style="stroke:#000000;stroke-width:0.6;" x="168.080217" xlink:href="#m9b05a4835a" y="7.2"/>
      </g>
     </g>
    </g>
    <g id="xtick_17">
     <g id="line2d_33">
      <g>
       <use style="stroke:#000000;stroke-width:0.6;" x="173.452006" xlink:href="#m1688ad7bea" y="224.64"/>
      </g>
     </g>
     <g id="line2d_34">
      <g>
       <use style="stroke:#000000;stroke-width:0.6;" x="173.452006" xlink:href="#m9b05a4835a" y="7.2"/>
      </g>
     </g>
    </g>
    <g id="xtick_18">
     <g id="line2d_35">
      <g>
       <use style="stroke:#000000;stroke-width:0.6;" x="177.993789" xlink:href="#m1688ad7bea" y="224.64"/>
      </g>
     </g>
     <g id="line2d_36">
      <g>
       <use style="stroke:#000000;stroke-width:0.6;" x="177.993789" xlink:href="#m9b05a4835a" y="7.2"/>
      </g>
     </g>
    </g>
    <g id="xtick_19">
     <g id="line2d_37">
      <g>
       <use style="stroke:#000000;stroke-width:0.6;" x="181.92806" xlink:href="#m1688ad7bea" y="224.64"/>
      </g>
     </g>
     <g id="line2d_38">
      <g>
       <use style="stroke:#000000;stroke-width:0.6;" x="181.92806" xlink:href="#m9b05a4835a" y="7.2"/>
      </g>
     </g>
    </g>
    <g id="xtick_20">
     <g id="line2d_39">
      <g>
       <use style="stroke:#000000;stroke-width:0.6;" x="185.398333" xlink:href="#m1688ad7bea" y="224.64"/>
      </g>
     </g>
     <g id="line2d_40">
      <g>
       <use style="stroke:#000000;stroke-width:0.6;" x="185.398333" xlink:href="#m9b05a4835a" y="7.2"/>
      </g>
     </g>
    </g>
    <g id="xtick_21">
     <g id="line2d_41">
      <g>
       <use style="stroke:#000000;stroke-width:0.6;" x="208.924978" xlink:href="#m1688ad7bea" y="224.64"/>
      </g>
     </g>
     <g id="line2d_42">
      <g>
       <use style="stroke:#000000;stroke-width:0.6;" x="208.924978" xlink:href="#m9b05a4835a" y="7.2"/>
      </g>
     </g>
    </g>
    <g id="xtick_22">
     <g id="line2d_43">
      <g>
       <use style="stroke:#000000;stroke-width:0.6;" x="220.871305" xlink:href="#m1688ad7bea" y="224.64"/>
      </g>
     </g>
     <g id="line2d_44">
      <g>
       <use style="stroke:#000000;stroke-width:0.6;" x="220.871305" xlink:href="#m9b05a4835a" y="7.2"/>
      </g>
     </g>
    </g>
    <g id="xtick_23">
     <g id="line2d_45">
      <g>
       <use style="stroke:#000000;stroke-width:0.6;" x="229.347359" xlink:href="#m1688ad7bea" y="224.64"/>
      </g>
     </g>
     <g id="line2d_46">
      <g>
       <use style="stroke:#000000;stroke-width:0.6;" x="229.347359" xlink:href="#m9b05a4835a" y="7.2"/>
      </g>
     </g>
    </g>
    <g id="xtick_24">
     <g id="line2d_47">
      <g>
       <use style="stroke:#000000;stroke-width:0.6;" x="235.921897" xlink:href="#m1688ad7bea" y="224.64"/>
      </g>
     </g>
     <g id="line2d_48">
      <g>
       <use style="stroke:#000000;stroke-width:0.6;" x="235.921897" xlink:href="#m9b05a4835a" y="7.2"/>
      </g>
     </g>
    </g>
    <g id="xtick_25">
     <g id="line2d_49">
      <g>
       <use style="stroke:#000000;stroke-width:0.6;" x="241.293685" xlink:href="#m1688ad7bea" y="224.64"/>
      </g>
     </g>
     <g id="line2d_50">
      <g>
       <use style="stroke:#000000;stroke-width:0.6;" x="241.293685" xlink:href="#m9b05a4835a" y="7.2"/>
      </g>
     </g>
    </g>
    <g id="xtick_26">
     <g id="line2d_51">
      <g>
       <use style="stroke:#000000;stroke-width:0.6;" x="245.835468" xlink:href="#m1688ad7bea" y="224.64"/>
      </g>
     </g>
     <g id="line2d_52">
      <g>
       <use style="stroke:#000000;stroke-width:0.6;" x="245.835468" xlink:href="#m9b05a4835a" y="7.2"/>
      </g>
     </g>
    </g>
    <g id="xtick_27">
     <g id="line2d_53">
      <g>
       <use style="stroke:#000000;stroke-width:0.6;" x="249.769739" xlink:href="#m1688ad7bea" y="224.64"/>
      </g>
     </g>
     <g id="line2d_54">
      <g>
       <use style="stroke:#000000;stroke-width:0.6;" x="249.769739" xlink:href="#m9b05a4835a" y="7.2"/>
      </g>
     </g>
    </g>
    <g id="xtick_28">
     <g id="line2d_55">
      <g>
       <use style="stroke:#000000;stroke-width:0.6;" x="253.240012" xlink:href="#m1688ad7bea" y="224.64"/>
      </g>
     </g>
     <g id="line2d_56">
      <g>
       <use style="stroke:#000000;stroke-width:0.6;" x="253.240012" xlink:href="#m9b05a4835a" y="7.2"/>
      </g>
     </g>
    </g>
    <g id="xtick_29">
     <g id="line2d_57">
      <g>
       <use style="stroke:#000000;stroke-width:0.6;" x="276.766658" xlink:href="#m1688ad7bea" y="224.64"/>
      </g>
     </g>
     <g id="line2d_58">
      <g>
       <use style="stroke:#000000;stroke-width:0.6;" x="276.766658" xlink:href="#m9b05a4835a" y="7.2"/>
      </g>
     </g>
    </g>
    <g id="xtick_30">
     <g id="line2d_59">
      <g>
       <use style="stroke:#000000;stroke-width:0.6;" x="288.712984" xlink:href="#m1688ad7bea" y="224.64"/>
      </g>
     </g>
     <g id="line2d_60">
      <g>
       <use style="stroke:#000000;stroke-width:0.6;" x="288.712984" xlink:href="#m9b05a4835a" y="7.2"/>
      </g>
     </g>
    </g>
    <g id="xtick_31">
     <g id="line2d_61">
      <g>
       <use style="stroke:#000000;stroke-width:0.6;" x="297.189038" xlink:href="#m1688ad7bea" y="224.64"/>
      </g>
     </g>
     <g id="line2d_62">
      <g>
       <use style="stroke:#000000;stroke-width:0.6;" x="297.189038" xlink:href="#m9b05a4835a" y="7.2"/>
      </g>
     </g>
    </g>
    <g id="xtick_32">
     <g id="line2d_63">
      <g>
       <use style="stroke:#000000;stroke-width:0.6;" x="303.763576" xlink:href="#m1688ad7bea" y="224.64"/>
      </g>
     </g>
     <g id="line2d_64">
      <g>
       <use style="stroke:#000000;stroke-width:0.6;" x="303.763576" xlink:href="#m9b05a4835a" y="7.2"/>
      </g>
     </g>
    </g>
    <g id="xtick_33">
     <g id="line2d_65">
      <g>
       <use style="stroke:#000000;stroke-width:0.6;" x="309.135365" xlink:href="#m1688ad7bea" y="224.64"/>
      </g>
     </g>
     <g id="line2d_66">
      <g>
       <use style="stroke:#000000;stroke-width:0.6;" x="309.135365" xlink:href="#m9b05a4835a" y="7.2"/>
      </g>
     </g>
    </g>
    <g id="xtick_34">
     <g id="line2d_67">
      <g>
       <use style="stroke:#000000;stroke-width:0.6;" x="313.677148" xlink:href="#m1688ad7bea" y="224.64"/>
      </g>
     </g>
     <g id="line2d_68">
      <g>
       <use style="stroke:#000000;stroke-width:0.6;" x="313.677148" xlink:href="#m9b05a4835a" y="7.2"/>
      </g>
     </g>
    </g>
    <g id="xtick_35">
     <g id="line2d_69">
      <g>
       <use style="stroke:#000000;stroke-width:0.6;" x="317.611419" xlink:href="#m1688ad7bea" y="224.64"/>
      </g>
     </g>
     <g id="line2d_70">
      <g>
       <use style="stroke:#000000;stroke-width:0.6;" x="317.611419" xlink:href="#m9b05a4835a" y="7.2"/>
      </g>
     </g>
    </g>
    <g id="xtick_36">
     <g id="line2d_71">
      <g>
       <use style="stroke:#000000;stroke-width:0.6;" x="321.081692" xlink:href="#m1688ad7bea" y="224.64"/>
      </g>
     </g>
     <g id="line2d_72">
      <g>
       <use style="stroke:#000000;stroke-width:0.6;" x="321.081692" xlink:href="#m9b05a4835a" y="7.2"/>
      </g>
     </g>
    </g>
    <g id="xtick_37">
     <g id="line2d_73">
      <g>
       <use style="stroke:#000000;stroke-width:0.6;" x="344.608337" xlink:href="#m1688ad7bea" y="224.64"/>
      </g>
     </g>
     <g id="line2d_74">
      <g>
       <use style="stroke:#000000;stroke-width:0.6;" x="344.608337" xlink:href="#m9b05a4835a" y="7.2"/>
      </g>
     </g>
    </g>
    <g id="xtick_38">
     <g id="line2d_75">
      <g>
       <use style="stroke:#000000;stroke-width:0.6;" x="356.554664" xlink:href="#m1688ad7bea" y="224.64"/>
      </g>
     </g>
     <g id="line2d_76">
      <g>
       <use style="stroke:#000000;stroke-width:0.6;" x="356.554664" xlink:href="#m9b05a4835a" y="7.2"/>
      </g>
     </g>
    </g>
    <g id="xtick_39">
     <g id="line2d_77">
      <g>
       <use style="stroke:#000000;stroke-width:0.6;" x="365.030718" xlink:href="#m1688ad7bea" y="224.64"/>
      </g>
     </g>
     <g id="line2d_78">
      <g>
       <use style="stroke:#000000;stroke-width:0.6;" x="365.030718" xlink:href="#m9b05a4835a" y="7.2"/>
      </g>
     </g>
    </g>
    <g id="xtick_40">
     <g id="line2d_79">
      <g>
       <use style="stroke:#000000;stroke-width:0.6;" x="371.605256" xlink:href="#m1688ad7bea" y="224.64"/>
      </g>
     </g>
     <g id="line2d_80">
      <g>
       <use style="stroke:#000000;stroke-width:0.6;" x="371.605256" xlink:href="#m9b05a4835a" y="7.2"/>
      </g>
     </g>
    </g>
    <g id="xtick_41">
     <g id="line2d_81">
      <g>
       <use style="stroke:#000000;stroke-width:0.6;" x="376.977044" xlink:href="#m1688ad7bea" y="224.64"/>
      </g>
     </g>
     <g id="line2d_82">
      <g>
       <use style="stroke:#000000;stroke-width:0.6;" x="376.977044" xlink:href="#m9b05a4835a" y="7.2"/>
      </g>
     </g>
    </g>
    <g id="xtick_42">
     <g id="line2d_83">
      <g>
       <use style="stroke:#000000;stroke-width:0.6;" x="381.518827" xlink:href="#m1688ad7bea" y="224.64"/>
      </g>
     </g>
     <g id="line2d_84">
      <g>
       <use style="stroke:#000000;stroke-width:0.6;" x="381.518827" xlink:href="#m9b05a4835a" y="7.2"/>
      </g>
     </g>
    </g>
    <g id="xtick_43">
     <g id="line2d_85">
      <g>
       <use style="stroke:#000000;stroke-width:0.6;" x="385.453098" xlink:href="#m1688ad7bea" y="224.64"/>
      </g>
     </g>
     <g id="line2d_86">
      <g>
       <use style="stroke:#000000;stroke-width:0.6;" x="385.453098" xlink:href="#m9b05a4835a" y="7.2"/>
      </g>
     </g>
    </g>
    <g id="xtick_44">
     <g id="line2d_87">
      <g>
       <use style="stroke:#000000;stroke-width:0.6;" x="388.923371" xlink:href="#m1688ad7bea" y="224.64"/>
      </g>
     </g>
     <g id="line2d_88">
      <g>
       <use style="stroke:#000000;stroke-width:0.6;" x="388.923371" xlink:href="#m9b05a4835a" y="7.2"/>
      </g>
     </g>
    </g>
    <g id="text_5">
     <!-- $t_w$ [s] -->
     <defs>
      <path d="M 42.28125 54.6875 
L 40.921875 47.703125 
L 23 47.703125 
L 17.1875 18.015625 
Q 16.890625 16.359375 16.75 15.234375 
Q 16.609375 14.109375 16.609375 13.484375 
Q 16.609375 10.359375 18.484375 8.9375 
Q 20.359375 7.515625 24.515625 7.515625 
L 33.59375 7.515625 
L 32.078125 0 
L 23.484375 0 
Q 15.484375 0 11.546875 3.125 
Q 7.625 6.25 7.625 12.59375 
Q 7.625 13.71875 7.765625 15.0625 
Q 7.90625 16.40625 8.203125 18.015625 
L 14.015625 47.703125 
L 6.390625 47.703125 
L 7.8125 54.6875 
L 15.28125 54.6875 
L 18.3125 70.21875 
L 27.296875 70.21875 
L 24.3125 54.6875 
z
" id="DejaVuSans-Oblique-74"/>
      <path d="M 8.5 54.6875 
L 17.390625 54.6875 
L 19.671875 10.6875 
L 40.09375 54.6875 
L 50.484375 54.6875 
L 53.515625 10.6875 
L 72.90625 54.6875 
L 81.890625 54.6875 
L 56.890625 0 
L 46.390625 0 
L 43.703125 45.3125 
L 22.796875 0 
L 12.203125 0 
z
" id="DejaVuSans-Oblique-77"/>
      <path id="DejaVuSans-20"/>
      <path d="M 8.59375 75.984375 
L 29.296875 75.984375 
L 29.296875 69 
L 17.578125 69 
L 17.578125 -6.203125 
L 29.296875 -6.203125 
L 29.296875 -13.1875 
L 8.59375 -13.1875 
z
" id="DejaVuSans-5b"/>
      <path d="M 44.28125 53.078125 
L 44.28125 44.578125 
Q 40.484375 46.53125 36.375 47.5 
Q 32.28125 48.484375 27.875 48.484375 
Q 21.1875 48.484375 17.84375 46.4375 
Q 14.5 44.390625 14.5 40.28125 
Q 14.5 37.15625 16.890625 35.375 
Q 19.28125 33.59375 26.515625 31.984375 
L 29.59375 31.296875 
Q 39.15625 29.25 43.1875 25.515625 
Q 47.21875 21.78125 47.21875 15.09375 
Q 47.21875 7.46875 41.1875 3.015625 
Q 35.15625 -1.421875 24.609375 -1.421875 
Q 20.21875 -1.421875 15.453125 -0.5625 
Q 10.6875 0.296875 5.421875 2 
L 5.421875 11.28125 
Q 10.40625 8.6875 15.234375 7.390625 
Q 20.0625 6.109375 24.8125 6.109375 
Q 31.15625 6.109375 34.5625 8.28125 
Q 37.984375 10.453125 37.984375 14.40625 
Q 37.984375 18.0625 35.515625 20.015625 
Q 33.0625 21.96875 24.703125 23.78125 
L 21.578125 24.515625 
Q 13.234375 26.265625 9.515625 29.90625 
Q 5.8125 33.546875 5.8125 39.890625 
Q 5.8125 47.609375 11.28125 51.796875 
Q 16.75 56 26.8125 56 
Q 31.78125 56 36.171875 55.265625 
Q 40.578125 54.546875 44.28125 53.078125 
z
" id="DejaVuSans-73"/>
      <path d="M 30.421875 75.984375 
L 30.421875 -13.1875 
L 9.71875 -13.1875 
L 9.71875 -6.203125 
L 21.390625 -6.203125 
L 21.390625 69 
L 9.71875 69 
L 9.71875 75.984375 
z
" id="DejaVuSans-5d"/>
     </defs>
     <g transform="translate(209.323438 249.416563)scale(0.1 -0.1)">
      <use transform="translate(0 0.015625)" xlink:href="#DejaVuSans-Oblique-74"/>
      <use transform="translate(39.208984 -16.390625)scale(0.7)" xlink:href="#DejaVuSans-Oblique-77"/>
      <use transform="translate(99.194336 0.015625)" xlink:href="#DejaVuSans-20"/>
      <use transform="translate(130.981445 0.015625)" xlink:href="#DejaVuSans-5b"/>
      <use transform="translate(169.995117 0.015625)" xlink:href="#DejaVuSans-73"/>
      <use transform="translate(222.094727 0.015625)" xlink:href="#DejaVuSans-5d"/>
     </g>
    </g>
   </g>
   <g id="matplotlib.axis_2">
    <g id="ytick_1">
     <g id="line2d_89">
      <defs>
       <path d="M 0 0 
L 3.5 0 
" id="mbc2e21c861" style="stroke:#000000;stroke-width:0.8;"/>
      </defs>
      <g>
       <use style="stroke:#000000;stroke-width:0.8;" x="55.023438" xlink:href="#mbc2e21c861" y="216.549323"/>
      </g>
     </g>
     <g id="line2d_90">
      <defs>
       <path d="M 0 0 
L -3.5 0 
" id="m9b9ba2b5a3" style="stroke:#000000;stroke-width:0.8;"/>
      </defs>
      <g>
       <use style="stroke:#000000;stroke-width:0.8;" x="389.823438" xlink:href="#m9b9ba2b5a3" y="216.549323"/>
      </g>
     </g>
     <g id="text_6">
      <!-- 1.00 -->
      <defs>
       <path d="M 10.6875 12.40625 
L 21 12.40625 
L 21 0 
L 10.6875 0 
z
" id="DejaVuSans-2e"/>
      </defs>
      <g transform="translate(20.878125 220.348542)scale(0.1 -0.1)">
       <use xlink:href="#DejaVuSans-2212"/>
       <use x="83.789062" xlink:href="#DejaVuSans-31"/>
       <use x="147.412109" xlink:href="#DejaVuSans-2e"/>
       <use x="179.199219" xlink:href="#DejaVuSans-30"/>
       <use x="242.822266" xlink:href="#DejaVuSans-30"/>
      </g>
     </g>
    </g>
    <g id="ytick_2">
     <g id="line2d_91">
      <g>
       <use style="stroke:#000000;stroke-width:0.8;" x="55.023438" xlink:href="#mbc2e21c861" y="192.280127"/>
      </g>
     </g>
     <g id="line2d_92">
      <g>
       <use style="stroke:#000000;stroke-width:0.8;" x="389.823438" xlink:href="#m9b9ba2b5a3" y="192.280127"/>
      </g>
     </g>
     <g id="text_7">
      <!-- 0.75 -->
      <defs>
       <path d="M 8.203125 72.90625 
L 55.078125 72.90625 
L 55.078125 68.703125 
L 28.609375 0 
L 18.3125 0 
L 43.21875 64.59375 
L 8.203125 64.59375 
z
" id="DejaVuSans-37"/>
       <path d="M 10.796875 72.90625 
L 49.515625 72.90625 
L 49.515625 64.59375 
L 19.828125 64.59375 
L 19.828125 46.734375 
Q 21.96875 47.46875 24.109375 47.828125 
Q 26.265625 48.1875 28.421875 48.1875 
Q 40.625 48.1875 47.75 41.5 
Q 54.890625 34.8125 54.890625 23.390625 
Q 54.890625 11.625 47.5625 5.09375 
Q 40.234375 -1.421875 26.90625 -1.421875 
Q 22.3125 -1.421875 17.546875 -0.640625 
Q 12.796875 0.140625 7.71875 1.703125 
L 7.71875 11.625 
Q 12.109375 9.234375 16.796875 8.0625 
Q 21.484375 6.890625 26.703125 6.890625 
Q 35.15625 6.890625 40.078125 11.328125 
Q 45.015625 15.765625 45.015625 23.390625 
Q 45.015625 31 40.078125 35.4375 
Q 35.15625 39.890625 26.703125 39.890625 
Q 22.75 39.890625 18.8125 39.015625 
Q 14.890625 38.140625 10.796875 36.28125 
z
" id="DejaVuSans-35"/>
      </defs>
      <g transform="translate(20.878125 196.079346)scale(0.1 -0.1)">
       <use xlink:href="#DejaVuSans-2212"/>
       <use x="83.789062" xlink:href="#DejaVuSans-30"/>
       <use x="147.412109" xlink:href="#DejaVuSans-2e"/>
       <use x="179.199219" xlink:href="#DejaVuSans-37"/>
       <use x="242.822266" xlink:href="#DejaVuSans-35"/>
      </g>
     </g>
    </g>
    <g id="ytick_3">
     <g id="line2d_93">
      <g>
       <use style="stroke:#000000;stroke-width:0.8;" x="55.023438" xlink:href="#mbc2e21c861" y="168.010931"/>
      </g>
     </g>
     <g id="line2d_94">
      <g>
       <use style="stroke:#000000;stroke-width:0.8;" x="389.823438" xlink:href="#m9b9ba2b5a3" y="168.010931"/>
      </g>
     </g>
     <g id="text_8">
      <!-- 0.50 -->
      <g transform="translate(20.878125 171.810149)scale(0.1 -0.1)">
       <use xlink:href="#DejaVuSans-2212"/>
       <use x="83.789062" xlink:href="#DejaVuSans-30"/>
       <use x="147.412109" xlink:href="#DejaVuSans-2e"/>
       <use x="179.199219" xlink:href="#DejaVuSans-35"/>
       <use x="242.822266" xlink:href="#DejaVuSans-30"/>
      </g>
     </g>
    </g>
    <g id="ytick_4">
     <g id="line2d_95">
      <g>
       <use style="stroke:#000000;stroke-width:0.8;" x="55.023438" xlink:href="#mbc2e21c861" y="143.741735"/>
      </g>
     </g>
     <g id="line2d_96">
      <g>
       <use style="stroke:#000000;stroke-width:0.8;" x="389.823438" xlink:href="#m9b9ba2b5a3" y="143.741735"/>
      </g>
     </g>
     <g id="text_9">
      <!-- 0.25 -->
      <g transform="translate(20.878125 147.540953)scale(0.1 -0.1)">
       <use xlink:href="#DejaVuSans-2212"/>
       <use x="83.789062" xlink:href="#DejaVuSans-30"/>
       <use x="147.412109" xlink:href="#DejaVuSans-2e"/>
       <use x="179.199219" xlink:href="#DejaVuSans-32"/>
       <use x="242.822266" xlink:href="#DejaVuSans-35"/>
      </g>
     </g>
    </g>
    <g id="ytick_5">
     <g id="line2d_97">
      <g>
       <use style="stroke:#000000;stroke-width:0.8;" x="55.023438" xlink:href="#mbc2e21c861" y="119.472538"/>
      </g>
     </g>
     <g id="line2d_98">
      <g>
       <use style="stroke:#000000;stroke-width:0.8;" x="389.823438" xlink:href="#m9b9ba2b5a3" y="119.472538"/>
      </g>
     </g>
     <g id="text_10">
      <!-- 0.00 -->
      <g transform="translate(29.257813 123.271757)scale(0.1 -0.1)">
       <use xlink:href="#DejaVuSans-30"/>
       <use x="63.623047" xlink:href="#DejaVuSans-2e"/>
       <use x="95.410156" xlink:href="#DejaVuSans-30"/>
       <use x="159.033203" xlink:href="#DejaVuSans-30"/>
      </g>
     </g>
    </g>
    <g id="ytick_6">
     <g id="line2d_99">
      <g>
       <use style="stroke:#000000;stroke-width:0.8;" x="55.023438" xlink:href="#mbc2e21c861" y="95.203342"/>
      </g>
     </g>
     <g id="line2d_100">
      <g>
       <use style="stroke:#000000;stroke-width:0.8;" x="389.823438" xlink:href="#m9b9ba2b5a3" y="95.203342"/>
      </g>
     </g>
     <g id="text_11">
      <!-- 0.25 -->
      <g transform="translate(29.257813 99.002561)scale(0.1 -0.1)">
       <use xlink:href="#DejaVuSans-30"/>
       <use x="63.623047" xlink:href="#DejaVuSans-2e"/>
       <use x="95.410156" xlink:href="#DejaVuSans-32"/>
       <use x="159.033203" xlink:href="#DejaVuSans-35"/>
      </g>
     </g>
    </g>
    <g id="ytick_7">
     <g id="line2d_101">
      <g>
       <use style="stroke:#000000;stroke-width:0.8;" x="55.023438" xlink:href="#mbc2e21c861" y="70.934146"/>
      </g>
     </g>
     <g id="line2d_102">
      <g>
       <use style="stroke:#000000;stroke-width:0.8;" x="389.823438" xlink:href="#m9b9ba2b5a3" y="70.934146"/>
      </g>
     </g>
     <g id="text_12">
      <!-- 0.50 -->
      <g transform="translate(29.257813 74.733365)scale(0.1 -0.1)">
       <use xlink:href="#DejaVuSans-30"/>
       <use x="63.623047" xlink:href="#DejaVuSans-2e"/>
       <use x="95.410156" xlink:href="#DejaVuSans-35"/>
       <use x="159.033203" xlink:href="#DejaVuSans-30"/>
      </g>
     </g>
    </g>
    <g id="ytick_8">
     <g id="line2d_103">
      <g>
       <use style="stroke:#000000;stroke-width:0.8;" x="55.023438" xlink:href="#mbc2e21c861" y="46.66495"/>
      </g>
     </g>
     <g id="line2d_104">
      <g>
       <use style="stroke:#000000;stroke-width:0.8;" x="389.823438" xlink:href="#m9b9ba2b5a3" y="46.66495"/>
      </g>
     </g>
     <g id="text_13">
      <!-- 0.75 -->
      <g transform="translate(29.257813 50.464169)scale(0.1 -0.1)">
       <use xlink:href="#DejaVuSans-30"/>
       <use x="63.623047" xlink:href="#DejaVuSans-2e"/>
       <use x="95.410156" xlink:href="#DejaVuSans-37"/>
       <use x="159.033203" xlink:href="#DejaVuSans-35"/>
      </g>
     </g>
    </g>
    <g id="ytick_9">
     <g id="line2d_105">
      <g>
       <use style="stroke:#000000;stroke-width:0.8;" x="55.023438" xlink:href="#mbc2e21c861" y="22.395754"/>
      </g>
     </g>
     <g id="line2d_106">
      <g>
       <use style="stroke:#000000;stroke-width:0.8;" x="389.823438" xlink:href="#m9b9ba2b5a3" y="22.395754"/>
      </g>
     </g>
     <g id="text_14">
      <!-- 1.00 -->
      <g transform="translate(29.257813 26.194972)scale(0.1 -0.1)">
       <use xlink:href="#DejaVuSans-31"/>
       <use x="63.623047" xlink:href="#DejaVuSans-2e"/>
       <use x="95.410156" xlink:href="#DejaVuSans-30"/>
       <use x="159.033203" xlink:href="#DejaVuSans-30"/>
      </g>
     </g>
    </g>
    <g id="text_15">
     <!-- Magnetisierung (normiert) -->
     <defs>
      <path d="M 9.8125 72.90625 
L 24.515625 72.90625 
L 43.109375 23.296875 
L 61.8125 72.90625 
L 76.515625 72.90625 
L 76.515625 0 
L 66.890625 0 
L 66.890625 64.015625 
L 48.09375 14.015625 
L 38.1875 14.015625 
L 19.390625 64.015625 
L 19.390625 0 
L 9.8125 0 
z
" id="DejaVuSans-4d"/>
      <path d="M 34.28125 27.484375 
Q 23.390625 27.484375 19.1875 25 
Q 14.984375 22.515625 14.984375 16.5 
Q 14.984375 11.71875 18.140625 8.90625 
Q 21.296875 6.109375 26.703125 6.109375 
Q 34.1875 6.109375 38.703125 11.40625 
Q 43.21875 16.703125 43.21875 25.484375 
L 43.21875 27.484375 
z
M 52.203125 31.203125 
L 52.203125 0 
L 43.21875 0 
L 43.21875 8.296875 
Q 40.140625 3.328125 35.546875 0.953125 
Q 30.953125 -1.421875 24.3125 -1.421875 
Q 15.921875 -1.421875 10.953125 3.296875 
Q 6 8.015625 6 15.921875 
Q 6 25.140625 12.171875 29.828125 
Q 18.359375 34.515625 30.609375 34.515625 
L 43.21875 34.515625 
L 43.21875 35.40625 
Q 43.21875 41.609375 39.140625 45 
Q 35.0625 48.390625 27.6875 48.390625 
Q 23 48.390625 18.546875 47.265625 
Q 14.109375 46.140625 10.015625 43.890625 
L 10.015625 52.203125 
Q 14.9375 54.109375 19.578125 55.046875 
Q 24.21875 56 28.609375 56 
Q 40.484375 56 46.34375 49.84375 
Q 52.203125 43.703125 52.203125 31.203125 
z
" id="DejaVuSans-61"/>
      <path d="M 45.40625 27.984375 
Q 45.40625 37.75 41.375 43.109375 
Q 37.359375 48.484375 30.078125 48.484375 
Q 22.859375 48.484375 18.828125 43.109375 
Q 14.796875 37.75 14.796875 27.984375 
Q 14.796875 18.265625 18.828125 12.890625 
Q 22.859375 7.515625 30.078125 7.515625 
Q 37.359375 7.515625 41.375 12.890625 
Q 45.40625 18.265625 45.40625 27.984375 
z
M 54.390625 6.78125 
Q 54.390625 -7.171875 48.1875 -13.984375 
Q 42 -20.796875 29.203125 -20.796875 
Q 24.46875 -20.796875 20.265625 -20.09375 
Q 16.0625 -19.390625 12.109375 -17.921875 
L 12.109375 -9.1875 
Q 16.0625 -11.328125 19.921875 -12.34375 
Q 23.78125 -13.375 27.78125 -13.375 
Q 36.625 -13.375 41.015625 -8.765625 
Q 45.40625 -4.15625 45.40625 5.171875 
L 45.40625 9.625 
Q 42.625 4.78125 38.28125 2.390625 
Q 33.9375 0 27.875 0 
Q 17.828125 0 11.671875 7.65625 
Q 5.515625 15.328125 5.515625 27.984375 
Q 5.515625 40.671875 11.671875 48.328125 
Q 17.828125 56 27.875 56 
Q 33.9375 56 38.28125 53.609375 
Q 42.625 51.21875 45.40625 46.390625 
L 45.40625 54.6875 
L 54.390625 54.6875 
z
" id="DejaVuSans-67"/>
      <path d="M 54.890625 33.015625 
L 54.890625 0 
L 45.90625 0 
L 45.90625 32.71875 
Q 45.90625 40.484375 42.875 44.328125 
Q 39.84375 48.1875 33.796875 48.1875 
Q 26.515625 48.1875 22.3125 43.546875 
Q 18.109375 38.921875 18.109375 30.90625 
L 18.109375 0 
L 9.078125 0 
L 9.078125 54.6875 
L 18.109375 54.6875 
L 18.109375 46.1875 
Q 21.34375 51.125 25.703125 53.5625 
Q 30.078125 56 35.796875 56 
Q 45.21875 56 50.046875 50.171875 
Q 54.890625 44.34375 54.890625 33.015625 
z
" id="DejaVuSans-6e"/>
      <path d="M 56.203125 29.59375 
L 56.203125 25.203125 
L 14.890625 25.203125 
Q 15.484375 15.921875 20.484375 11.0625 
Q 25.484375 6.203125 34.421875 6.203125 
Q 39.59375 6.203125 44.453125 7.46875 
Q 49.3125 8.734375 54.109375 11.28125 
L 54.109375 2.78125 
Q 49.265625 0.734375 44.1875 -0.34375 
Q 39.109375 -1.421875 33.890625 -1.421875 
Q 20.796875 -1.421875 13.15625 6.1875 
Q 5.515625 13.8125 5.515625 26.8125 
Q 5.515625 40.234375 12.765625 48.109375 
Q 20.015625 56 32.328125 56 
Q 43.359375 56 49.78125 48.890625 
Q 56.203125 41.796875 56.203125 29.59375 
z
M 47.21875 32.234375 
Q 47.125 39.59375 43.09375 43.984375 
Q 39.0625 48.390625 32.421875 48.390625 
Q 24.90625 48.390625 20.390625 44.140625 
Q 15.875 39.890625 15.1875 32.171875 
z
" id="DejaVuSans-65"/>
      <path d="M 18.3125 70.21875 
L 18.3125 54.6875 
L 36.8125 54.6875 
L 36.8125 47.703125 
L 18.3125 47.703125 
L 18.3125 18.015625 
Q 18.3125 11.328125 20.140625 9.421875 
Q 21.96875 7.515625 27.59375 7.515625 
L 36.8125 7.515625 
L 36.8125 0 
L 27.59375 0 
Q 17.1875 0 13.234375 3.875 
Q 9.28125 7.765625 9.28125 18.015625 
L 9.28125 47.703125 
L 2.6875 47.703125 
L 2.6875 54.6875 
L 9.28125 54.6875 
L 9.28125 70.21875 
z
" id="DejaVuSans-74"/>
      <path d="M 9.421875 54.6875 
L 18.40625 54.6875 
L 18.40625 0 
L 9.421875 0 
z
M 9.421875 75.984375 
L 18.40625 75.984375 
L 18.40625 64.59375 
L 9.421875 64.59375 
z
" id="DejaVuSans-69"/>
      <path d="M 41.109375 46.296875 
Q 39.59375 47.171875 37.8125 47.578125 
Q 36.03125 48 33.890625 48 
Q 26.265625 48 22.1875 43.046875 
Q 18.109375 38.09375 18.109375 28.8125 
L 18.109375 0 
L 9.078125 0 
L 9.078125 54.6875 
L 18.109375 54.6875 
L 18.109375 46.1875 
Q 20.953125 51.171875 25.484375 53.578125 
Q 30.03125 56 36.53125 56 
Q 37.453125 56 38.578125 55.875 
Q 39.703125 55.765625 41.0625 55.515625 
z
" id="DejaVuSans-72"/>
      <path d="M 8.5 21.578125 
L 8.5 54.6875 
L 17.484375 54.6875 
L 17.484375 21.921875 
Q 17.484375 14.15625 20.5 10.265625 
Q 23.53125 6.390625 29.59375 6.390625 
Q 36.859375 6.390625 41.078125 11.03125 
Q 45.3125 15.671875 45.3125 23.6875 
L 45.3125 54.6875 
L 54.296875 54.6875 
L 54.296875 0 
L 45.3125 0 
L 45.3125 8.40625 
Q 42.046875 3.421875 37.71875 1 
Q 33.40625 -1.421875 27.6875 -1.421875 
Q 18.265625 -1.421875 13.375 4.4375 
Q 8.5 10.296875 8.5 21.578125 
z
M 31.109375 56 
z
" id="DejaVuSans-75"/>
      <path d="M 31 75.875 
Q 24.46875 64.65625 21.28125 53.65625 
Q 18.109375 42.671875 18.109375 31.390625 
Q 18.109375 20.125 21.3125 9.0625 
Q 24.515625 -2 31 -13.1875 
L 23.1875 -13.1875 
Q 15.875 -1.703125 12.234375 9.375 
Q 8.59375 20.453125 8.59375 31.390625 
Q 8.59375 42.28125 12.203125 53.3125 
Q 15.828125 64.359375 23.1875 75.875 
z
" id="DejaVuSans-28"/>
      <path d="M 30.609375 48.390625 
Q 23.390625 48.390625 19.1875 42.75 
Q 14.984375 37.109375 14.984375 27.296875 
Q 14.984375 17.484375 19.15625 11.84375 
Q 23.34375 6.203125 30.609375 6.203125 
Q 37.796875 6.203125 41.984375 11.859375 
Q 46.1875 17.53125 46.1875 27.296875 
Q 46.1875 37.015625 41.984375 42.703125 
Q 37.796875 48.390625 30.609375 48.390625 
z
M 30.609375 56 
Q 42.328125 56 49.015625 48.375 
Q 55.71875 40.765625 55.71875 27.296875 
Q 55.71875 13.875 49.015625 6.21875 
Q 42.328125 -1.421875 30.609375 -1.421875 
Q 18.84375 -1.421875 12.171875 6.21875 
Q 5.515625 13.875 5.515625 27.296875 
Q 5.515625 40.765625 12.171875 48.375 
Q 18.84375 56 30.609375 56 
z
" id="DejaVuSans-6f"/>
      <path d="M 52 44.1875 
Q 55.375 50.25 60.0625 53.125 
Q 64.75 56 71.09375 56 
Q 79.640625 56 84.28125 50.015625 
Q 88.921875 44.046875 88.921875 33.015625 
L 88.921875 0 
L 79.890625 0 
L 79.890625 32.71875 
Q 79.890625 40.578125 77.09375 44.375 
Q 74.3125 48.1875 68.609375 48.1875 
Q 61.625 48.1875 57.5625 43.546875 
Q 53.515625 38.921875 53.515625 30.90625 
L 53.515625 0 
L 44.484375 0 
L 44.484375 32.71875 
Q 44.484375 40.625 41.703125 44.40625 
Q 38.921875 48.1875 33.109375 48.1875 
Q 26.21875 48.1875 22.15625 43.53125 
Q 18.109375 38.875 18.109375 30.90625 
L 18.109375 0 
L 9.078125 0 
L 9.078125 54.6875 
L 18.109375 54.6875 
L 18.109375 46.1875 
Q 21.1875 51.21875 25.484375 53.609375 
Q 29.78125 56 35.6875 56 
Q 41.65625 56 45.828125 52.96875 
Q 50 49.953125 52 44.1875 
z
" id="DejaVuSans-6d"/>
      <path d="M 8.015625 75.875 
L 15.828125 75.875 
Q 23.140625 64.359375 26.78125 53.3125 
Q 30.421875 42.28125 30.421875 31.390625 
Q 30.421875 20.453125 26.78125 9.375 
Q 23.140625 -1.703125 15.828125 -13.1875 
L 8.015625 -13.1875 
Q 14.5 -2 17.703125 9.0625 
Q 20.90625 20.125 20.90625 31.390625 
Q 20.90625 42.671875 17.703125 53.65625 
Q 14.5 64.65625 8.015625 75.875 
z
" id="DejaVuSans-29"/>
     </defs>
     <g transform="translate(14.798438 181.829375)rotate(-90)scale(0.1 -0.1)">
      <use xlink:href="#DejaVuSans-4d"/>
      <use x="86.279297" xlink:href="#DejaVuSans-61"/>
      <use x="147.558594" xlink:href="#DejaVuSans-67"/>
      <use x="211.035156" xlink:href="#DejaVuSans-6e"/>
      <use x="274.414062" xlink:href="#DejaVuSans-65"/>
      <use x="335.9375" xlink:href="#DejaVuSans-74"/>
      <use x="375.146484" xlink:href="#DejaVuSans-69"/>
      <use x="402.929688" xlink:href="#DejaVuSans-73"/>
      <use x="455.029297" xlink:href="#DejaVuSans-69"/>
      <use x="482.8125" xlink:href="#DejaVuSans-65"/>
      <use x="544.335938" xlink:href="#DejaVuSans-72"/>
      <use x="585.449219" xlink:href="#DejaVuSans-75"/>
      <use x="648.828125" xlink:href="#DejaVuSans-6e"/>
      <use x="712.207031" xlink:href="#DejaVuSans-67"/>
      <use x="775.683594" xlink:href="#DejaVuSans-20"/>
      <use x="807.470703" xlink:href="#DejaVuSans-28"/>
      <use x="846.484375" xlink:href="#DejaVuSans-6e"/>
      <use x="909.863281" xlink:href="#DejaVuSans-6f"/>
      <use x="971.044922" xlink:href="#DejaVuSans-72"/>
      <use x="1012.142578" xlink:href="#DejaVuSans-6d"/>
      <use x="1109.554688" xlink:href="#DejaVuSans-69"/>
      <use x="1137.337891" xlink:href="#DejaVuSans-65"/>
      <use x="1198.861328" xlink:href="#DejaVuSans-72"/>
      <use x="1239.974609" xlink:href="#DejaVuSans-74"/>
      <use x="1279.183594" xlink:href="#DejaVuSans-29"/>
     </g>
    </g>
   </g>
   <g id="line2d_107">
    <path clip-path="url(#p9ddf7643c7)" d="M 73.241619 211.910571 
L 85.673438 210.488085 
L 98.105256 208.63858 
L 110.537074 206.240381 
L 122.968892 203.141745 
L 135.40071 199.156724 
L 147.832528 194.063004 
L 160.264347 187.604118 
L 172.696165 179.499821 
L 185.127983 169.470089 
L 197.559801 157.279606 
L 209.991619 142.809346 
L 222.423438 126.157182 
L 234.855256 107.756299 
L 247.287074 88.474934 
L 259.718892 69.626937 
L 272.15071 52.801538 
L 284.582528 39.460132 
L 297.014347 30.395287 
L 309.446165 25.357359 
L 321.877983 23.200278 
L 334.309801 22.54137 
L 346.741619 22.411228 
L 359.173438 22.396571 
L 371.605256 22.395771 
" style="fill:none;stroke:#1f77b4;stroke-linecap:square;stroke-width:1.5;"/>
   </g>
   <g id="line2d_108">
    <path clip-path="url(#p9ddf7643c7)" d="M 73.241619 212.176101 
L 85.673438 210.811635 
L 98.105256 209.029958 
L 110.537074 206.70965 
L 122.968892 203.69838 
L 135.40071 199.808271 
L 147.832528 194.813084 
L 160.264347 188.449667 
L 172.696165 180.427597 
L 185.127983 170.452794 
L 197.559801 158.272536 
L 209.991619 143.749362 
L 222.423438 126.966751 
L 234.855256 108.355709 
L 247.287074 88.804145 
L 259.718892 69.673117 
L 272.15071 52.619228 
L 284.582528 39.164201 
L 297.014347 30.115562 
L 309.446165 25.175592 
L 321.877983 23.120085 
L 334.309801 22.519024 
L 346.741619 22.407726 
L 359.173438 22.396309 
L 371.605256 22.395763 
" style="fill:none;stroke:#ff7f0e;stroke-linecap:square;stroke-width:1.5;"/>
   </g>
   <g id="line2d_109">
    <path clip-path="url(#p9ddf7643c7)" d="M 73.241619 212.211789 
L 85.673438 210.858675 
L 98.105256 209.091816 
L 110.537074 206.790745 
L 122.968892 203.804269 
L 135.40071 199.94581 
L 147.832528 194.990503 
L 160.264347 188.676464 
L 172.696165 180.714081 
L 185.127983 170.809046 
L 197.559801 158.706509 
L 209.991619 144.263866 
L 222.423438 127.555344 
L 234.855256 108.998162 
L 247.287074 89.463343 
L 259.718892 70.296625 
L 272.15071 53.149056 
L 284.582528 39.555192 
L 297.014347 30.355194 
L 309.446165 25.290603 
L 321.877983 23.160091 
L 334.309801 22.528133 
L 346.741619 22.408913 
L 359.173438 22.396383 
L 371.605256 22.395765 
" style="fill:none;stroke:#2ca02c;stroke-linecap:square;stroke-width:1.5;"/>
   </g>
   <g id="line2d_110">
    <path clip-path="url(#p9ddf7643c7)" d="M 73.241619 212.05751 
L 85.673438 210.665655 
L 98.105256 208.851348 
L 110.537074 206.492697 
L 122.968892 203.437173 
L 135.40071 199.497178 
L 147.832528 194.447526 
L 160.264347 188.027283 
L 172.696165 179.94983 
L 185.127983 169.926862 
L 197.559801 157.713521 
L 209.991619 143.181766 
L 222.423438 126.424398 
L 234.855256 107.878448 
L 247.287074 88.430054 
L 259.718892 69.426633 
L 272.15071 52.4993 
L 284.582528 39.140515 
L 297.014347 30.140018 
L 309.446165 25.205693 
L 321.877983 23.136837 
L 334.309801 22.524251 
L 346.741619 22.40859 
L 359.173438 22.396375 
L 371.605256 22.395765 
" style="fill:none;stroke:#d62728;stroke-linecap:square;stroke-width:1.5;"/>
   </g>
   <g id="line2d_111">
    <path clip-path="url(#p9ddf7643c7)" d="M 73.241619 211.693787 
L 85.673438 210.205582 
L 98.105256 208.271319 
L 110.537074 205.764436 
L 122.968892 202.527499 
L 135.40071 198.368277 
L 147.832528 193.058127 
L 160.264347 186.335296 
L 172.696165 177.91721 
L 185.127983 167.527517 
L 197.559801 154.944867 
L 209.991619 140.079678 
L 222.423438 123.079268 
L 234.855256 104.446667 
L 247.287074 85.131015 
L 259.718892 66.513355 
L 272.15071 50.196905 
L 284.582528 37.566783 
L 297.014347 29.250506 
L 309.446165 24.813698 
L 321.877983 23.012165 
L 334.309801 22.498393 
L 346.741619 22.405529 
L 359.173438 22.396201 
L 371.605256 22.395761 
" style="fill:none;stroke:#9467bd;stroke-linecap:square;stroke-width:1.5;"/>
   </g>
   <g id="line2d_112">
    <path clip-path="url(#p9ddf7643c7)" d="M 73.241619 210.24462 
L 85.673438 208.350736 
L 98.105256 205.904269 
L 110.537074 202.755303 
L 122.968892 198.721062 
L 135.40071 193.584212 
L 147.832528 187.095507 
L 160.264347 178.984387 
L 172.696165 168.982651 
L 185.127983 156.867539 
L 197.559801 142.530161 
L 209.991619 126.070733 
L 222.423438 107.909782 
L 234.855256 88.881426 
L 247.287074 70.243962 
L 259.718892 53.523731 
L 272.15071 40.142674 
L 284.582528 30.910847 
L 297.014347 25.656803 
L 309.446165 23.325954 
L 321.877983 22.576293 
L 334.309801 22.416938 
L 346.741619 22.397041 
L 359.173438 22.395787 
L 371.605256 22.395754 
" style="fill:none;stroke:#8c564b;stroke-linecap:square;stroke-width:1.5;"/>
   </g>
   <g id="line2d_113">
    <path clip-path="url(#p9ddf7643c7)" d="M 73.241619 207.840997 
L 85.673438 205.303317 
L 98.105256 202.055541 
L 110.537074 197.918683 
L 122.968892 192.681825 
L 135.40071 186.10552 
L 147.832528 177.932958 
L 160.264347 167.913572 
L 172.696165 155.84471 
L 185.127983 141.636371 
L 197.559801 125.399584 
L 209.991619 107.547767 
L 222.423438 88.879833 
L 234.855256 70.587155 
L 247.287074 54.110486 
L 259.718892 40.803187 
L 272.15071 31.46945 
L 284.582528 26.012629 
L 297.014347 23.489571 
L 309.446165 22.62675 
L 321.877983 22.426337 
L 334.309801 22.39796 
L 346.741619 22.395826 
L 359.173438 22.395754 
L 371.605256 22.395754 
" style="fill:none;stroke:#e377c2;stroke-linecap:square;stroke-width:1.5;"/>
   </g>
   <g id="line2d_114">
    <path clip-path="url(#p9ddf7643c7)" d="M 73.241619 205.59228 
L 85.673438 202.345098 
L 98.105256 198.184915 
L 110.537074 192.888746 
L 122.968892 186.202112 
L 135.40071 177.851048 
L 147.832528 167.568094 
L 160.264347 155.138826 
L 172.696165 140.474671 
L 185.127983 123.712433 
L 197.559801 105.327132 
L 209.991619 86.219734 
L 222.423438 67.709858 
L 234.855256 51.348332 
L 247.287074 38.511348 
L 259.718892 29.885566 
L 272.15071 25.145194 
L 284.582528 23.137106 
L 297.014347 22.529278 
L 309.446165 22.409941 
L 321.877983 22.396509 
L 334.309801 22.39577 
L 346.741619 22.395754 
L 359.173438 22.395754 
L 371.605256 22.395754 
" style="fill:none;stroke:#7f7f7f;stroke-linecap:square;stroke-width:1.5;"/>
   </g>
   <g id="line2d_115">
    <path clip-path="url(#p9ddf7643c7)" d="M 73.241619 202.271673 
L 85.673438 197.928147 
L 98.105256 192.354802 
L 110.537074 185.267929 
L 122.968892 176.36359 
L 135.40071 165.350727 
L 147.832528 152.01041 
L 160.264347 136.28789 
L 172.696165 118.415606 
L 185.127983 99.044405 
L 197.559801 79.32457 
L 209.991619 60.839199 
L 222.423438 45.291048 
L 234.855256 33.947343 
L 247.287074 27.078045 
L 259.718892 23.817327 
L 272.15071 22.690474 
L 284.582528 22.432682 
L 297.014347 22.398134 
L 309.446165 22.395817 
L 321.877983 22.395754 
L 334.309801 22.395754 
L 346.741619 22.395754 
L 359.173438 22.395754 
L 371.605256 22.395754 
" style="fill:none;stroke:#bcbd22;stroke-linecap:square;stroke-width:1.5;"/>
   </g>
   <g id="patch_3">
    <path d="M 55.023438 224.64 
L 55.023438 7.2 
" style="fill:none;stroke:#000000;stroke-linecap:square;stroke-linejoin:miter;stroke-width:0.8;"/>
   </g>
   <g id="patch_4">
    <path d="M 389.823438 224.64 
L 389.823438 7.2 
" style="fill:none;stroke:#000000;stroke-linecap:square;stroke-linejoin:miter;stroke-width:0.8;"/>
   </g>
   <g id="patch_5">
    <path d="M 55.023438 224.64 
L 389.823438 224.64 
" style="fill:none;stroke:#000000;stroke-linecap:square;stroke-linejoin:miter;stroke-width:0.8;"/>
   </g>
   <g id="patch_6">
    <path d="M 55.023438 7.2 
L 389.823438 7.2 
" style="fill:none;stroke:#000000;stroke-linecap:square;stroke-linejoin:miter;stroke-width:0.8;"/>
   </g>
   <g id="legend_1">
    <g id="patch_7">
     <path d="M 301.351562 219.64 
L 382.823438 219.64 
Q 384.823438 219.64 384.823438 217.64 
L 384.823438 86.536875 
Q 384.823438 84.536875 382.823438 84.536875 
L 301.351562 84.536875 
Q 299.351562 84.536875 299.351562 86.536875 
L 299.351562 217.64 
Q 299.351562 219.64 301.351562 219.64 
z
" style="fill:#ffffff;opacity:0.8;stroke:#cccccc;stroke-linejoin:miter;"/>
    </g>
    <g id="PathCollection_10">
     <g>
      <use style="fill:#1f77b4;stroke:#1f77b4;" x="313.351562" xlink:href="#mb609906722" y="93.510313"/>
     </g>
    </g>
    <g id="text_16">
     <!-- T = 305.7 -->
     <defs>
      <path d="M -0.296875 72.90625 
L 61.375 72.90625 
L 61.375 64.59375 
L 35.5 64.59375 
L 35.5 0 
L 25.59375 0 
L 25.59375 64.59375 
L -0.296875 64.59375 
z
" id="DejaVuSans-54"/>
      <path d="M 10.59375 45.40625 
L 73.1875 45.40625 
L 73.1875 37.203125 
L 10.59375 37.203125 
z
M 10.59375 25.484375 
L 73.1875 25.484375 
L 73.1875 17.1875 
L 10.59375 17.1875 
z
" id="DejaVuSans-3d"/>
     </defs>
     <g transform="translate(331.351562 96.135313)scale(0.1 -0.1)">
      <use xlink:href="#DejaVuSans-54"/>
      <use x="61.083984" xlink:href="#DejaVuSans-20"/>
      <use x="92.871094" xlink:href="#DejaVuSans-3d"/>
      <use x="176.660156" xlink:href="#DejaVuSans-20"/>
      <use x="208.447266" xlink:href="#DejaVuSans-33"/>
      <use x="272.070312" xlink:href="#DejaVuSans-30"/>
      <use x="335.693359" xlink:href="#DejaVuSans-35"/>
      <use x="399.316406" xlink:href="#DejaVuSans-2e"/>
      <use x="431.103516" xlink:href="#DejaVuSans-37"/>
     </g>
    </g>
    <g id="PathCollection_11">
     <g>
      <use style="fill:#ff7f0e;stroke:#ff7f0e;" x="313.351562" xlink:href="#m03d8530bd5" y="108.188438"/>
     </g>
    </g>
    <g id="text_17">
     <!-- T = 310.1 -->
     <g transform="translate(331.351562 110.813438)scale(0.1 -0.1)">
      <use xlink:href="#DejaVuSans-54"/>
      <use x="61.083984" xlink:href="#DejaVuSans-20"/>
      <use x="92.871094" xlink:href="#DejaVuSans-3d"/>
      <use x="176.660156" xlink:href="#DejaVuSans-20"/>
      <use x="208.447266" xlink:href="#DejaVuSans-33"/>
      <use x="272.070312" xlink:href="#DejaVuSans-31"/>
      <use x="335.693359" xlink:href="#DejaVuSans-30"/>
      <use x="399.316406" xlink:href="#DejaVuSans-2e"/>
      <use x="431.103516" xlink:href="#DejaVuSans-31"/>
     </g>
    </g>
    <g id="PathCollection_12">
     <g>
      <use style="fill:#2ca02c;stroke:#2ca02c;" x="313.351562" xlink:href="#m6f8581dc5d" y="122.866563"/>
     </g>
    </g>
    <g id="text_18">
     <!-- T = 314.8 -->
     <defs>
      <path d="M 31.78125 34.625 
Q 24.75 34.625 20.71875 30.859375 
Q 16.703125 27.09375 16.703125 20.515625 
Q 16.703125 13.921875 20.71875 10.15625 
Q 24.75 6.390625 31.78125 6.390625 
Q 38.8125 6.390625 42.859375 10.171875 
Q 46.921875 13.96875 46.921875 20.515625 
Q 46.921875 27.09375 42.890625 30.859375 
Q 38.875 34.625 31.78125 34.625 
z
M 21.921875 38.8125 
Q 15.578125 40.375 12.03125 44.71875 
Q 8.5 49.078125 8.5 55.328125 
Q 8.5 64.0625 14.71875 69.140625 
Q 20.953125 74.21875 31.78125 74.21875 
Q 42.671875 74.21875 48.875 69.140625 
Q 55.078125 64.0625 55.078125 55.328125 
Q 55.078125 49.078125 51.53125 44.71875 
Q 48 40.375 41.703125 38.8125 
Q 48.828125 37.15625 52.796875 32.3125 
Q 56.78125 27.484375 56.78125 20.515625 
Q 56.78125 9.90625 50.3125 4.234375 
Q 43.84375 -1.421875 31.78125 -1.421875 
Q 19.734375 -1.421875 13.25 4.234375 
Q 6.78125 9.90625 6.78125 20.515625 
Q 6.78125 27.484375 10.78125 32.3125 
Q 14.796875 37.15625 21.921875 38.8125 
z
M 18.3125 54.390625 
Q 18.3125 48.734375 21.84375 45.5625 
Q 25.390625 42.390625 31.78125 42.390625 
Q 38.140625 42.390625 41.71875 45.5625 
Q 45.3125 48.734375 45.3125 54.390625 
Q 45.3125 60.0625 41.71875 63.234375 
Q 38.140625 66.40625 31.78125 66.40625 
Q 25.390625 66.40625 21.84375 63.234375 
Q 18.3125 60.0625 18.3125 54.390625 
z
" id="DejaVuSans-38"/>
     </defs>
     <g transform="translate(331.351562 125.491563)scale(0.1 -0.1)">
      <use xlink:href="#DejaVuSans-54"/>
      <use x="61.083984" xlink:href="#DejaVuSans-20"/>
      <use x="92.871094" xlink:href="#DejaVuSans-3d"/>
      <use x="176.660156" xlink:href="#DejaVuSans-20"/>
      <use x="208.447266" xlink:href="#DejaVuSans-33"/>
      <use x="272.070312" xlink:href="#DejaVuSans-31"/>
      <use x="335.693359" xlink:href="#DejaVuSans-34"/>
      <use x="399.316406" xlink:href="#DejaVuSans-2e"/>
      <use x="431.103516" xlink:href="#DejaVuSans-38"/>
     </g>
    </g>
    <g id="PathCollection_13">
     <g>
      <use style="fill:#d62728;stroke:#d62728;" x="313.351562" xlink:href="#mb37699a46e" y="137.544688"/>
     </g>
    </g>
    <g id="text_19">
     <!-- T = 319.7 -->
     <defs>
      <path d="M 10.984375 1.515625 
L 10.984375 10.5 
Q 14.703125 8.734375 18.5 7.8125 
Q 22.3125 6.890625 25.984375 6.890625 
Q 35.75 6.890625 40.890625 13.453125 
Q 46.046875 20.015625 46.78125 33.40625 
Q 43.953125 29.203125 39.59375 26.953125 
Q 35.25 24.703125 29.984375 24.703125 
Q 19.046875 24.703125 12.671875 31.3125 
Q 6.296875 37.9375 6.296875 49.421875 
Q 6.296875 60.640625 12.9375 67.421875 
Q 19.578125 74.21875 30.609375 74.21875 
Q 43.265625 74.21875 49.921875 64.515625 
Q 56.59375 54.828125 56.59375 36.375 
Q 56.59375 19.140625 48.40625 8.859375 
Q 40.234375 -1.421875 26.421875 -1.421875 
Q 22.703125 -1.421875 18.890625 -0.6875 
Q 15.09375 0.046875 10.984375 1.515625 
z
M 30.609375 32.421875 
Q 37.25 32.421875 41.125 36.953125 
Q 45.015625 41.5 45.015625 49.421875 
Q 45.015625 57.28125 41.125 61.84375 
Q 37.25 66.40625 30.609375 66.40625 
Q 23.96875 66.40625 20.09375 61.84375 
Q 16.21875 57.28125 16.21875 49.421875 
Q 16.21875 41.5 20.09375 36.953125 
Q 23.96875 32.421875 30.609375 32.421875 
z
" id="DejaVuSans-39"/>
     </defs>
     <g transform="translate(331.351562 140.169688)scale(0.1 -0.1)">
      <use xlink:href="#DejaVuSans-54"/>
      <use x="61.083984" xlink:href="#DejaVuSans-20"/>
      <use x="92.871094" xlink:href="#DejaVuSans-3d"/>
      <use x="176.660156" xlink:href="#DejaVuSans-20"/>
      <use x="208.447266" xlink:href="#DejaVuSans-33"/>
      <use x="272.070312" xlink:href="#DejaVuSans-31"/>
      <use x="335.693359" xlink:href="#DejaVuSans-39"/>
      <use x="399.316406" xlink:href="#DejaVuSans-2e"/>
      <use x="431.103516" xlink:href="#DejaVuSans-37"/>
     </g>
    </g>
    <g id="PathCollection_14">
     <g>
      <use style="fill:#9467bd;stroke:#9467bd;" x="313.351562" xlink:href="#m33c1c1fe06" y="152.222813"/>
     </g>
    </g>
    <g id="text_20">
     <!-- T = 324.5 -->
     <g transform="translate(331.351562 154.847813)scale(0.1 -0.1)">
      <use xlink:href="#DejaVuSans-54"/>
      <use x="61.083984" xlink:href="#DejaVuSans-20"/>
      <use x="92.871094" xlink:href="#DejaVuSans-3d"/>
      <use x="176.660156" xlink:href="#DejaVuSans-20"/>
      <use x="208.447266" xlink:href="#DejaVuSans-33"/>
      <use x="272.070312" xlink:href="#DejaVuSans-32"/>
      <use x="335.693359" xlink:href="#DejaVuSans-34"/>
      <use x="399.316406" xlink:href="#DejaVuSans-2e"/>
      <use x="431.103516" xlink:href="#DejaVuSans-35"/>
     </g>
    </g>
    <g id="PathCollection_15">
     <g>
      <use style="fill:#8c564b;stroke:#8c564b;" x="313.351562" xlink:href="#me6861a0eb2" y="166.900938"/>
     </g>
    </g>
    <g id="text_21">
     <!-- T = 329.2 -->
     <g transform="translate(331.351562 169.525938)scale(0.1 -0.1)">
      <use xlink:href="#DejaVuSans-54"/>
      <use x="61.083984" xlink:href="#DejaVuSans-20"/>
      <use x="92.871094" xlink:href="#DejaVuSans-3d"/>
      <use x="176.660156" xlink:href="#DejaVuSans-20"/>
      <use x="208.447266" xlink:href="#DejaVuSans-33"/>
      <use x="272.070312" xlink:href="#DejaVuSans-32"/>
      <use x="335.693359" xlink:href="#DejaVuSans-39"/>
      <use x="399.316406" xlink:href="#DejaVuSans-2e"/>
      <use x="431.103516" xlink:href="#DejaVuSans-32"/>
     </g>
    </g>
    <g id="PathCollection_16">
     <g>
      <use style="fill:#e377c2;stroke:#e377c2;" x="313.351562" xlink:href="#m53e023e651" y="181.579063"/>
     </g>
    </g>
    <g id="text_22">
     <!-- T = 334.1 -->
     <g transform="translate(331.351562 184.204063)scale(0.1 -0.1)">
      <use xlink:href="#DejaVuSans-54"/>
      <use x="61.083984" xlink:href="#DejaVuSans-20"/>
      <use x="92.871094" xlink:href="#DejaVuSans-3d"/>
      <use x="176.660156" xlink:href="#DejaVuSans-20"/>
      <use x="208.447266" xlink:href="#DejaVuSans-33"/>
      <use x="272.070312" xlink:href="#DejaVuSans-33"/>
      <use x="335.693359" xlink:href="#DejaVuSans-34"/>
      <use x="399.316406" xlink:href="#DejaVuSans-2e"/>
      <use x="431.103516" xlink:href="#DejaVuSans-31"/>
     </g>
    </g>
    <g id="PathCollection_17">
     <g>
      <use style="fill:#7f7f7f;stroke:#7f7f7f;" x="313.351562" xlink:href="#m64674d09e3" y="196.257188"/>
     </g>
    </g>
    <g id="text_23">
     <!-- T = 338.8 -->
     <g transform="translate(331.351562 198.882188)scale(0.1 -0.1)">
      <use xlink:href="#DejaVuSans-54"/>
      <use x="61.083984" xlink:href="#DejaVuSans-20"/>
      <use x="92.871094" xlink:href="#DejaVuSans-3d"/>
      <use x="176.660156" xlink:href="#DejaVuSans-20"/>
      <use x="208.447266" xlink:href="#DejaVuSans-33"/>
      <use x="272.070312" xlink:href="#DejaVuSans-33"/>
      <use x="335.693359" xlink:href="#DejaVuSans-38"/>
      <use x="399.316406" xlink:href="#DejaVuSans-2e"/>
      <use x="431.103516" xlink:href="#DejaVuSans-38"/>
     </g>
    </g>
    <g id="PathCollection_18">
     <g>
      <use style="fill:#bcbd22;stroke:#bcbd22;" x="313.351562" xlink:href="#m0234242f0b" y="210.935313"/>
     </g>
    </g>
    <g id="text_24">
     <!-- T = 343.6 -->
     <defs>
      <path d="M 33.015625 40.375 
Q 26.375 40.375 22.484375 35.828125 
Q 18.609375 31.296875 18.609375 23.390625 
Q 18.609375 15.53125 22.484375 10.953125 
Q 26.375 6.390625 33.015625 6.390625 
Q 39.65625 6.390625 43.53125 10.953125 
Q 47.40625 15.53125 47.40625 23.390625 
Q 47.40625 31.296875 43.53125 35.828125 
Q 39.65625 40.375 33.015625 40.375 
z
M 52.59375 71.296875 
L 52.59375 62.3125 
Q 48.875 64.0625 45.09375 64.984375 
Q 41.3125 65.921875 37.59375 65.921875 
Q 27.828125 65.921875 22.671875 59.328125 
Q 17.53125 52.734375 16.796875 39.40625 
Q 19.671875 43.65625 24.015625 45.921875 
Q 28.375 48.1875 33.59375 48.1875 
Q 44.578125 48.1875 50.953125 41.515625 
Q 57.328125 34.859375 57.328125 23.390625 
Q 57.328125 12.15625 50.6875 5.359375 
Q 44.046875 -1.421875 33.015625 -1.421875 
Q 20.359375 -1.421875 13.671875 8.265625 
Q 6.984375 17.96875 6.984375 36.375 
Q 6.984375 53.65625 15.1875 63.9375 
Q 23.390625 74.21875 37.203125 74.21875 
Q 40.921875 74.21875 44.703125 73.484375 
Q 48.484375 72.75 52.59375 71.296875 
z
" id="DejaVuSans-36"/>
     </defs>
     <g transform="translate(331.351562 213.560313)scale(0.1 -0.1)">
      <use xlink:href="#DejaVuSans-54"/>
      <use x="61.083984" xlink:href="#DejaVuSans-20"/>
      <use x="92.871094" xlink:href="#DejaVuSans-3d"/>
      <use x="176.660156" xlink:href="#DejaVuSans-20"/>
      <use x="208.447266" xlink:href="#DejaVuSans-33"/>
      <use x="272.070312" xlink:href="#DejaVuSans-34"/>
      <use x="335.693359" xlink:href="#DejaVuSans-33"/>
      <use x="399.316406" xlink:href="#DejaVuSans-2e"/>
      <use x="431.103516" xlink:href="#DejaVuSans-36"/>
     </g>
    </g>
   </g>
  </g>
 </g>
 <defs>
  <clipPath id="p9ddf7643c7">
   <rect height="217.44" width="334.8" x="55.023438" y="7.2"/>
  </clipPath>
 </defs>
</svg>
