<?xml version="1.0" encoding="utf-8" standalone="no"?>
<!DOCTYPE svg PUBLIC "-//W3C//DTD SVG 1.1//EN"
  "http://www.w3.org/Graphics/SVG/1.1/DTD/svg11.dtd">
<!-- Created with matplotlib (http://matplotlib.org/) -->
<svg height="277.43625pt" version="1.1" viewBox="0 0 390.103125 277.43625" width="390.103125pt" xmlns="http://www.w3.org/2000/svg" xmlns:xlink="http://www.w3.org/1999/xlink">
 <defs>
  <style type="text/css">
*{stroke-linecap:butt;stroke-linejoin:round;}
  </style>
 </defs>
 <g id="figure_1">
  <g id="patch_1">
   <path d="M 0 277.43625 
L 390.103125 277.43625 
L 390.103125 0 
L 0 0 
z
" style="fill:#ffffff;"/>
  </g>
  <g id="axes_1">
   <g id="patch_2">
    <path d="M 44.603125 239.88 
L 379.403125 239.88 
L 379.403125 22.44 
L 44.603125 22.44 
z
" style="fill:#ffffff;"/>
   </g>
   <g id="matplotlib.axis_1">
    <g id="xtick_1">
     <g id="line2d_1">
      <path clip-path="url(#p201eba1d3c)" d="M 45.956257 239.88 
L 45.956257 22.44 
" style="fill:none;stroke:#b0b0b0;stroke-linecap:square;stroke-width:0.8;"/>
     </g>
     <g id="line2d_2">
      <defs>
       <path d="M 0 0 
L 0 3.5 
" id="meafbf75f17" style="stroke:#000000;stroke-width:0.8;"/>
      </defs>
      <g>
       <use style="stroke:#000000;stroke-width:0.8;" x="45.956257" xlink:href="#meafbf75f17" y="239.88"/>
      </g>
     </g>
     <g id="text_1">
      <!-- 225 -->
      <defs>
       <path d="M 19.1875 8.296875 
L 53.609375 8.296875 
L 53.609375 0 
L 7.328125 0 
L 7.328125 8.296875 
Q 12.9375 14.109375 22.625 23.890625 
Q 32.328125 33.6875 34.8125 36.53125 
Q 39.546875 41.84375 41.421875 45.53125 
Q 43.3125 49.21875 43.3125 52.78125 
Q 43.3125 58.59375 39.234375 62.25 
Q 35.15625 65.921875 28.609375 65.921875 
Q 23.96875 65.921875 18.8125 64.3125 
Q 13.671875 62.703125 7.8125 59.421875 
L 7.8125 69.390625 
Q 13.765625 71.78125 18.9375 73 
Q 24.125 74.21875 28.421875 74.21875 
Q 39.75 74.21875 46.484375 68.546875 
Q 53.21875 62.890625 53.21875 53.421875 
Q 53.21875 48.921875 51.53125 44.890625 
Q 49.859375 40.875 45.40625 35.40625 
Q 44.1875 33.984375 37.640625 27.21875 
Q 31.109375 20.453125 19.1875 8.296875 
z
" id="DejaVuSans-32"/>
       <path d="M 10.796875 72.90625 
L 49.515625 72.90625 
L 49.515625 64.59375 
L 19.828125 64.59375 
L 19.828125 46.734375 
Q 21.96875 47.46875 24.109375 47.828125 
Q 26.265625 48.1875 28.421875 48.1875 
Q 40.625 48.1875 47.75 41.5 
Q 54.890625 34.8125 54.890625 23.390625 
Q 54.890625 11.625 47.5625 5.09375 
Q 40.234375 -1.421875 26.90625 -1.421875 
Q 22.3125 -1.421875 17.546875 -0.640625 
Q 12.796875 0.140625 7.71875 1.703125 
L 7.71875 11.625 
Q 12.109375 9.234375 16.796875 8.0625 
Q 21.484375 6.890625 26.703125 6.890625 
Q 35.15625 6.890625 40.078125 11.328125 
Q 45.015625 15.765625 45.015625 23.390625 
Q 45.015625 31 40.078125 35.4375 
Q 35.15625 39.890625 26.703125 39.890625 
Q 22.75 39.890625 18.8125 39.015625 
Q 14.890625 38.140625 10.796875 36.28125 
z
" id="DejaVuSans-35"/>
      </defs>
      <g transform="translate(36.412507 254.478437)scale(0.1 -0.1)">
       <use xlink:href="#DejaVuSans-32"/>
       <use x="63.623047" xlink:href="#DejaVuSans-32"/>
       <use x="127.246094" xlink:href="#DejaVuSans-35"/>
      </g>
     </g>
    </g>
    <g id="xtick_2">
     <g id="line2d_3">
      <path clip-path="url(#p201eba1d3c)" d="M 83.880354 239.88 
L 83.880354 22.44 
" style="fill:none;stroke:#b0b0b0;stroke-linecap:square;stroke-width:0.8;"/>
     </g>
     <g id="line2d_4">
      <g>
       <use style="stroke:#000000;stroke-width:0.8;" x="83.880354" xlink:href="#meafbf75f17" y="239.88"/>
      </g>
     </g>
     <g id="text_2">
      <!-- 250 -->
      <defs>
       <path d="M 31.78125 66.40625 
Q 24.171875 66.40625 20.328125 58.90625 
Q 16.5 51.421875 16.5 36.375 
Q 16.5 21.390625 20.328125 13.890625 
Q 24.171875 6.390625 31.78125 6.390625 
Q 39.453125 6.390625 43.28125 13.890625 
Q 47.125 21.390625 47.125 36.375 
Q 47.125 51.421875 43.28125 58.90625 
Q 39.453125 66.40625 31.78125 66.40625 
z
M 31.78125 74.21875 
Q 44.046875 74.21875 50.515625 64.515625 
Q 56.984375 54.828125 56.984375 36.375 
Q 56.984375 17.96875 50.515625 8.265625 
Q 44.046875 -1.421875 31.78125 -1.421875 
Q 19.53125 -1.421875 13.0625 8.265625 
Q 6.59375 17.96875 6.59375 36.375 
Q 6.59375 54.828125 13.0625 64.515625 
Q 19.53125 74.21875 31.78125 74.21875 
z
" id="DejaVuSans-30"/>
      </defs>
      <g transform="translate(74.336604 254.478437)scale(0.1 -0.1)">
       <use xlink:href="#DejaVuSans-32"/>
       <use x="63.623047" xlink:href="#DejaVuSans-35"/>
       <use x="127.246094" xlink:href="#DejaVuSans-30"/>
      </g>
     </g>
    </g>
    <g id="xtick_3">
     <g id="line2d_5">
      <path clip-path="url(#p201eba1d3c)" d="M 121.804452 239.88 
L 121.804452 22.44 
" style="fill:none;stroke:#b0b0b0;stroke-linecap:square;stroke-width:0.8;"/>
     </g>
     <g id="line2d_6">
      <g>
       <use style="stroke:#000000;stroke-width:0.8;" x="121.804452" xlink:href="#meafbf75f17" y="239.88"/>
      </g>
     </g>
     <g id="text_3">
      <!-- 275 -->
      <defs>
       <path d="M 8.203125 72.90625 
L 55.078125 72.90625 
L 55.078125 68.703125 
L 28.609375 0 
L 18.3125 0 
L 43.21875 64.59375 
L 8.203125 64.59375 
z
" id="DejaVuSans-37"/>
      </defs>
      <g transform="translate(112.260702 254.478437)scale(0.1 -0.1)">
       <use xlink:href="#DejaVuSans-32"/>
       <use x="63.623047" xlink:href="#DejaVuSans-37"/>
       <use x="127.246094" xlink:href="#DejaVuSans-35"/>
      </g>
     </g>
    </g>
    <g id="xtick_4">
     <g id="line2d_7">
      <path clip-path="url(#p201eba1d3c)" d="M 159.728549 239.88 
L 159.728549 22.44 
" style="fill:none;stroke:#b0b0b0;stroke-linecap:square;stroke-width:0.8;"/>
     </g>
     <g id="line2d_8">
      <g>
       <use style="stroke:#000000;stroke-width:0.8;" x="159.728549" xlink:href="#meafbf75f17" y="239.88"/>
      </g>
     </g>
     <g id="text_4">
      <!-- 300 -->
      <defs>
       <path d="M 40.578125 39.3125 
Q 47.65625 37.796875 51.625 33 
Q 55.609375 28.21875 55.609375 21.1875 
Q 55.609375 10.40625 48.1875 4.484375 
Q 40.765625 -1.421875 27.09375 -1.421875 
Q 22.515625 -1.421875 17.65625 -0.515625 
Q 12.796875 0.390625 7.625 2.203125 
L 7.625 11.71875 
Q 11.71875 9.328125 16.59375 8.109375 
Q 21.484375 6.890625 26.8125 6.890625 
Q 36.078125 6.890625 40.9375 10.546875 
Q 45.796875 14.203125 45.796875 21.1875 
Q 45.796875 27.640625 41.28125 31.265625 
Q 36.765625 34.90625 28.71875 34.90625 
L 20.21875 34.90625 
L 20.21875 43.015625 
L 29.109375 43.015625 
Q 36.375 43.015625 40.234375 45.921875 
Q 44.09375 48.828125 44.09375 54.296875 
Q 44.09375 59.90625 40.109375 62.90625 
Q 36.140625 65.921875 28.71875 65.921875 
Q 24.65625 65.921875 20.015625 65.03125 
Q 15.375 64.15625 9.8125 62.3125 
L 9.8125 71.09375 
Q 15.4375 72.65625 20.34375 73.4375 
Q 25.25 74.21875 29.59375 74.21875 
Q 40.828125 74.21875 47.359375 69.109375 
Q 53.90625 64.015625 53.90625 55.328125 
Q 53.90625 49.265625 50.4375 45.09375 
Q 46.96875 40.921875 40.578125 39.3125 
z
" id="DejaVuSans-33"/>
      </defs>
      <g transform="translate(150.184799 254.478437)scale(0.1 -0.1)">
       <use xlink:href="#DejaVuSans-33"/>
       <use x="63.623047" xlink:href="#DejaVuSans-30"/>
       <use x="127.246094" xlink:href="#DejaVuSans-30"/>
      </g>
     </g>
    </g>
    <g id="xtick_5">
     <g id="line2d_9">
      <path clip-path="url(#p201eba1d3c)" d="M 197.652647 239.88 
L 197.652647 22.44 
" style="fill:none;stroke:#b0b0b0;stroke-linecap:square;stroke-width:0.8;"/>
     </g>
     <g id="line2d_10">
      <g>
       <use style="stroke:#000000;stroke-width:0.8;" x="197.652647" xlink:href="#meafbf75f17" y="239.88"/>
      </g>
     </g>
     <g id="text_5">
      <!-- 325 -->
      <g transform="translate(188.108897 254.478437)scale(0.1 -0.1)">
       <use xlink:href="#DejaVuSans-33"/>
       <use x="63.623047" xlink:href="#DejaVuSans-32"/>
       <use x="127.246094" xlink:href="#DejaVuSans-35"/>
      </g>
     </g>
    </g>
    <g id="xtick_6">
     <g id="line2d_11">
      <path clip-path="url(#p201eba1d3c)" d="M 235.576744 239.88 
L 235.576744 22.44 
" style="fill:none;stroke:#b0b0b0;stroke-linecap:square;stroke-width:0.8;"/>
     </g>
     <g id="line2d_12">
      <g>
       <use style="stroke:#000000;stroke-width:0.8;" x="235.576744" xlink:href="#meafbf75f17" y="239.88"/>
      </g>
     </g>
     <g id="text_6">
      <!-- 350 -->
      <g transform="translate(226.032994 254.478437)scale(0.1 -0.1)">
       <use xlink:href="#DejaVuSans-33"/>
       <use x="63.623047" xlink:href="#DejaVuSans-35"/>
       <use x="127.246094" xlink:href="#DejaVuSans-30"/>
      </g>
     </g>
    </g>
    <g id="xtick_7">
     <g id="line2d_13">
      <path clip-path="url(#p201eba1d3c)" d="M 273.500841 239.88 
L 273.500841 22.44 
" style="fill:none;stroke:#b0b0b0;stroke-linecap:square;stroke-width:0.8;"/>
     </g>
     <g id="line2d_14">
      <g>
       <use style="stroke:#000000;stroke-width:0.8;" x="273.500841" xlink:href="#meafbf75f17" y="239.88"/>
      </g>
     </g>
     <g id="text_7">
      <!-- 375 -->
      <g transform="translate(263.957091 254.478437)scale(0.1 -0.1)">
       <use xlink:href="#DejaVuSans-33"/>
       <use x="63.623047" xlink:href="#DejaVuSans-37"/>
       <use x="127.246094" xlink:href="#DejaVuSans-35"/>
      </g>
     </g>
    </g>
    <g id="xtick_8">
     <g id="line2d_15">
      <path clip-path="url(#p201eba1d3c)" d="M 311.424939 239.88 
L 311.424939 22.44 
" style="fill:none;stroke:#b0b0b0;stroke-linecap:square;stroke-width:0.8;"/>
     </g>
     <g id="line2d_16">
      <g>
       <use style="stroke:#000000;stroke-width:0.8;" x="311.424939" xlink:href="#meafbf75f17" y="239.88"/>
      </g>
     </g>
     <g id="text_8">
      <!-- 400 -->
      <defs>
       <path d="M 37.796875 64.3125 
L 12.890625 25.390625 
L 37.796875 25.390625 
z
M 35.203125 72.90625 
L 47.609375 72.90625 
L 47.609375 25.390625 
L 58.015625 25.390625 
L 58.015625 17.1875 
L 47.609375 17.1875 
L 47.609375 0 
L 37.796875 0 
L 37.796875 17.1875 
L 4.890625 17.1875 
L 4.890625 26.703125 
z
" id="DejaVuSans-34"/>
      </defs>
      <g transform="translate(301.881189 254.478437)scale(0.1 -0.1)">
       <use xlink:href="#DejaVuSans-34"/>
       <use x="63.623047" xlink:href="#DejaVuSans-30"/>
       <use x="127.246094" xlink:href="#DejaVuSans-30"/>
      </g>
     </g>
    </g>
    <g id="xtick_9">
     <g id="line2d_17">
      <path clip-path="url(#p201eba1d3c)" d="M 349.349036 239.88 
L 349.349036 22.44 
" style="fill:none;stroke:#b0b0b0;stroke-linecap:square;stroke-width:0.8;"/>
     </g>
     <g id="line2d_18">
      <g>
       <use style="stroke:#000000;stroke-width:0.8;" x="349.349036" xlink:href="#meafbf75f17" y="239.88"/>
      </g>
     </g>
     <g id="text_9">
      <!-- 425 -->
      <g transform="translate(339.805286 254.478437)scale(0.1 -0.1)">
       <use xlink:href="#DejaVuSans-34"/>
       <use x="63.623047" xlink:href="#DejaVuSans-32"/>
       <use x="127.246094" xlink:href="#DejaVuSans-35"/>
      </g>
     </g>
    </g>
    <g id="text_10">
     <!-- Temperatur [K] -->
     <defs>
      <path d="M -0.296875 72.90625 
L 61.375 72.90625 
L 61.375 64.59375 
L 35.5 64.59375 
L 35.5 0 
L 25.59375 0 
L 25.59375 64.59375 
L -0.296875 64.59375 
z
" id="DejaVuSans-54"/>
      <path d="M 56.203125 29.59375 
L 56.203125 25.203125 
L 14.890625 25.203125 
Q 15.484375 15.921875 20.484375 11.0625 
Q 25.484375 6.203125 34.421875 6.203125 
Q 39.59375 6.203125 44.453125 7.46875 
Q 49.3125 8.734375 54.109375 11.28125 
L 54.109375 2.78125 
Q 49.265625 0.734375 44.1875 -0.34375 
Q 39.109375 -1.421875 33.890625 -1.421875 
Q 20.796875 -1.421875 13.15625 6.1875 
Q 5.515625 13.8125 5.515625 26.8125 
Q 5.515625 40.234375 12.765625 48.109375 
Q 20.015625 56 32.328125 56 
Q 43.359375 56 49.78125 48.890625 
Q 56.203125 41.796875 56.203125 29.59375 
z
M 47.21875 32.234375 
Q 47.125 39.59375 43.09375 43.984375 
Q 39.0625 48.390625 32.421875 48.390625 
Q 24.90625 48.390625 20.390625 44.140625 
Q 15.875 39.890625 15.1875 32.171875 
z
" id="DejaVuSans-65"/>
      <path d="M 52 44.1875 
Q 55.375 50.25 60.0625 53.125 
Q 64.75 56 71.09375 56 
Q 79.640625 56 84.28125 50.015625 
Q 88.921875 44.046875 88.921875 33.015625 
L 88.921875 0 
L 79.890625 0 
L 79.890625 32.71875 
Q 79.890625 40.578125 77.09375 44.375 
Q 74.3125 48.1875 68.609375 48.1875 
Q 61.625 48.1875 57.5625 43.546875 
Q 53.515625 38.921875 53.515625 30.90625 
L 53.515625 0 
L 44.484375 0 
L 44.484375 32.71875 
Q 44.484375 40.625 41.703125 44.40625 
Q 38.921875 48.1875 33.109375 48.1875 
Q 26.21875 48.1875 22.15625 43.53125 
Q 18.109375 38.875 18.109375 30.90625 
L 18.109375 0 
L 9.078125 0 
L 9.078125 54.6875 
L 18.109375 54.6875 
L 18.109375 46.1875 
Q 21.1875 51.21875 25.484375 53.609375 
Q 29.78125 56 35.6875 56 
Q 41.65625 56 45.828125 52.96875 
Q 50 49.953125 52 44.1875 
z
" id="DejaVuSans-6d"/>
      <path d="M 18.109375 8.203125 
L 18.109375 -20.796875 
L 9.078125 -20.796875 
L 9.078125 54.6875 
L 18.109375 54.6875 
L 18.109375 46.390625 
Q 20.953125 51.265625 25.265625 53.625 
Q 29.59375 56 35.59375 56 
Q 45.5625 56 51.78125 48.09375 
Q 58.015625 40.1875 58.015625 27.296875 
Q 58.015625 14.40625 51.78125 6.484375 
Q 45.5625 -1.421875 35.59375 -1.421875 
Q 29.59375 -1.421875 25.265625 0.953125 
Q 20.953125 3.328125 18.109375 8.203125 
z
M 48.6875 27.296875 
Q 48.6875 37.203125 44.609375 42.84375 
Q 40.53125 48.484375 33.40625 48.484375 
Q 26.265625 48.484375 22.1875 42.84375 
Q 18.109375 37.203125 18.109375 27.296875 
Q 18.109375 17.390625 22.1875 11.75 
Q 26.265625 6.109375 33.40625 6.109375 
Q 40.53125 6.109375 44.609375 11.75 
Q 48.6875 17.390625 48.6875 27.296875 
z
" id="DejaVuSans-70"/>
      <path d="M 41.109375 46.296875 
Q 39.59375 47.171875 37.8125 47.578125 
Q 36.03125 48 33.890625 48 
Q 26.265625 48 22.1875 43.046875 
Q 18.109375 38.09375 18.109375 28.8125 
L 18.109375 0 
L 9.078125 0 
L 9.078125 54.6875 
L 18.109375 54.6875 
L 18.109375 46.1875 
Q 20.953125 51.171875 25.484375 53.578125 
Q 30.03125 56 36.53125 56 
Q 37.453125 56 38.578125 55.875 
Q 39.703125 55.765625 41.0625 55.515625 
z
" id="DejaVuSans-72"/>
      <path d="M 34.28125 27.484375 
Q 23.390625 27.484375 19.1875 25 
Q 14.984375 22.515625 14.984375 16.5 
Q 14.984375 11.71875 18.140625 8.90625 
Q 21.296875 6.109375 26.703125 6.109375 
Q 34.1875 6.109375 38.703125 11.40625 
Q 43.21875 16.703125 43.21875 25.484375 
L 43.21875 27.484375 
z
M 52.203125 31.203125 
L 52.203125 0 
L 43.21875 0 
L 43.21875 8.296875 
Q 40.140625 3.328125 35.546875 0.953125 
Q 30.953125 -1.421875 24.3125 -1.421875 
Q 15.921875 -1.421875 10.953125 3.296875 
Q 6 8.015625 6 15.921875 
Q 6 25.140625 12.171875 29.828125 
Q 18.359375 34.515625 30.609375 34.515625 
L 43.21875 34.515625 
L 43.21875 35.40625 
Q 43.21875 41.609375 39.140625 45 
Q 35.0625 48.390625 27.6875 48.390625 
Q 23 48.390625 18.546875 47.265625 
Q 14.109375 46.140625 10.015625 43.890625 
L 10.015625 52.203125 
Q 14.9375 54.109375 19.578125 55.046875 
Q 24.21875 56 28.609375 56 
Q 40.484375 56 46.34375 49.84375 
Q 52.203125 43.703125 52.203125 31.203125 
z
" id="DejaVuSans-61"/>
      <path d="M 18.3125 70.21875 
L 18.3125 54.6875 
L 36.8125 54.6875 
L 36.8125 47.703125 
L 18.3125 47.703125 
L 18.3125 18.015625 
Q 18.3125 11.328125 20.140625 9.421875 
Q 21.96875 7.515625 27.59375 7.515625 
L 36.8125 7.515625 
L 36.8125 0 
L 27.59375 0 
Q 17.1875 0 13.234375 3.875 
Q 9.28125 7.765625 9.28125 18.015625 
L 9.28125 47.703125 
L 2.6875 47.703125 
L 2.6875 54.6875 
L 9.28125 54.6875 
L 9.28125 70.21875 
z
" id="DejaVuSans-74"/>
      <path d="M 8.5 21.578125 
L 8.5 54.6875 
L 17.484375 54.6875 
L 17.484375 21.921875 
Q 17.484375 14.15625 20.5 10.265625 
Q 23.53125 6.390625 29.59375 6.390625 
Q 36.859375 6.390625 41.078125 11.03125 
Q 45.3125 15.671875 45.3125 23.6875 
L 45.3125 54.6875 
L 54.296875 54.6875 
L 54.296875 0 
L 45.3125 0 
L 45.3125 8.40625 
Q 42.046875 3.421875 37.71875 1 
Q 33.40625 -1.421875 27.6875 -1.421875 
Q 18.265625 -1.421875 13.375 4.4375 
Q 8.5 10.296875 8.5 21.578125 
z
M 31.109375 56 
z
" id="DejaVuSans-75"/>
      <path id="DejaVuSans-20"/>
      <path d="M 8.59375 75.984375 
L 29.296875 75.984375 
L 29.296875 69 
L 17.578125 69 
L 17.578125 -6.203125 
L 29.296875 -6.203125 
L 29.296875 -13.1875 
L 8.59375 -13.1875 
z
" id="DejaVuSans-5b"/>
      <path d="M 9.8125 72.90625 
L 19.671875 72.90625 
L 19.671875 42.09375 
L 52.390625 72.90625 
L 65.09375 72.90625 
L 28.90625 38.921875 
L 67.671875 0 
L 54.6875 0 
L 19.671875 35.109375 
L 19.671875 0 
L 9.8125 0 
z
" id="DejaVuSans-4b"/>
      <path d="M 30.421875 75.984375 
L 30.421875 -13.1875 
L 9.71875 -13.1875 
L 9.71875 -6.203125 
L 21.390625 -6.203125 
L 21.390625 69 
L 9.71875 69 
L 9.71875 75.984375 
z
" id="DejaVuSans-5d"/>
     </defs>
     <g transform="translate(173.691406 268.156562)scale(0.1 -0.1)">
      <use xlink:href="#DejaVuSans-54"/>
      <use x="60.818359" xlink:href="#DejaVuSans-65"/>
      <use x="122.341797" xlink:href="#DejaVuSans-6d"/>
      <use x="219.753906" xlink:href="#DejaVuSans-70"/>
      <use x="283.230469" xlink:href="#DejaVuSans-65"/>
      <use x="344.753906" xlink:href="#DejaVuSans-72"/>
      <use x="385.867188" xlink:href="#DejaVuSans-61"/>
      <use x="447.146484" xlink:href="#DejaVuSans-74"/>
      <use x="486.355469" xlink:href="#DejaVuSans-75"/>
      <use x="549.734375" xlink:href="#DejaVuSans-72"/>
      <use x="590.847656" xlink:href="#DejaVuSans-20"/>
      <use x="622.634766" xlink:href="#DejaVuSans-5b"/>
      <use x="661.648438" xlink:href="#DejaVuSans-4b"/>
      <use x="727.224609" xlink:href="#DejaVuSans-5d"/>
     </g>
    </g>
   </g>
   <g id="matplotlib.axis_2">
    <g id="ytick_1">
     <g id="line2d_19">
      <path clip-path="url(#p201eba1d3c)" d="M 44.603125 225.874952 
L 379.403125 225.874952 
" style="fill:none;stroke:#b0b0b0;stroke-linecap:square;stroke-width:0.8;"/>
     </g>
     <g id="line2d_20">
      <defs>
       <path d="M 0 0 
L -3.5 0 
" id="m6c2e261f29" style="stroke:#000000;stroke-width:0.8;"/>
      </defs>
      <g>
       <use style="stroke:#000000;stroke-width:0.8;" x="44.603125" xlink:href="#m6c2e261f29" y="225.874952"/>
      </g>
     </g>
     <g id="text_11">
      <!-- 0.4 -->
      <defs>
       <path d="M 10.6875 12.40625 
L 21 12.40625 
L 21 0 
L 10.6875 0 
z
" id="DejaVuSans-2e"/>
      </defs>
      <g transform="translate(21.7 229.67417)scale(0.1 -0.1)">
       <use xlink:href="#DejaVuSans-30"/>
       <use x="63.623047" xlink:href="#DejaVuSans-2e"/>
       <use x="95.410156" xlink:href="#DejaVuSans-34"/>
      </g>
     </g>
    </g>
    <g id="ytick_2">
     <g id="line2d_21">
      <path clip-path="url(#p201eba1d3c)" d="M 44.603125 201.327766 
L 379.403125 201.327766 
" style="fill:none;stroke:#b0b0b0;stroke-linecap:square;stroke-width:0.8;"/>
     </g>
     <g id="line2d_22">
      <g>
       <use style="stroke:#000000;stroke-width:0.8;" x="44.603125" xlink:href="#m6c2e261f29" y="201.327766"/>
      </g>
     </g>
     <g id="text_12">
      <!-- 0.6 -->
      <defs>
       <path d="M 33.015625 40.375 
Q 26.375 40.375 22.484375 35.828125 
Q 18.609375 31.296875 18.609375 23.390625 
Q 18.609375 15.53125 22.484375 10.953125 
Q 26.375 6.390625 33.015625 6.390625 
Q 39.65625 6.390625 43.53125 10.953125 
Q 47.40625 15.53125 47.40625 23.390625 
Q 47.40625 31.296875 43.53125 35.828125 
Q 39.65625 40.375 33.015625 40.375 
z
M 52.59375 71.296875 
L 52.59375 62.3125 
Q 48.875 64.0625 45.09375 64.984375 
Q 41.3125 65.921875 37.59375 65.921875 
Q 27.828125 65.921875 22.671875 59.328125 
Q 17.53125 52.734375 16.796875 39.40625 
Q 19.671875 43.65625 24.015625 45.921875 
Q 28.375 48.1875 33.59375 48.1875 
Q 44.578125 48.1875 50.953125 41.515625 
Q 57.328125 34.859375 57.328125 23.390625 
Q 57.328125 12.15625 50.6875 5.359375 
Q 44.046875 -1.421875 33.015625 -1.421875 
Q 20.359375 -1.421875 13.671875 8.265625 
Q 6.984375 17.96875 6.984375 36.375 
Q 6.984375 53.65625 15.1875 63.9375 
Q 23.390625 74.21875 37.203125 74.21875 
Q 40.921875 74.21875 44.703125 73.484375 
Q 48.484375 72.75 52.59375 71.296875 
z
" id="DejaVuSans-36"/>
      </defs>
      <g transform="translate(21.7 205.126984)scale(0.1 -0.1)">
       <use xlink:href="#DejaVuSans-30"/>
       <use x="63.623047" xlink:href="#DejaVuSans-2e"/>
       <use x="95.410156" xlink:href="#DejaVuSans-36"/>
      </g>
     </g>
    </g>
    <g id="ytick_3">
     <g id="line2d_23">
      <path clip-path="url(#p201eba1d3c)" d="M 44.603125 176.78058 
L 379.403125 176.78058 
" style="fill:none;stroke:#b0b0b0;stroke-linecap:square;stroke-width:0.8;"/>
     </g>
     <g id="line2d_24">
      <g>
       <use style="stroke:#000000;stroke-width:0.8;" x="44.603125" xlink:href="#m6c2e261f29" y="176.78058"/>
      </g>
     </g>
     <g id="text_13">
      <!-- 0.8 -->
      <defs>
       <path d="M 31.78125 34.625 
Q 24.75 34.625 20.71875 30.859375 
Q 16.703125 27.09375 16.703125 20.515625 
Q 16.703125 13.921875 20.71875 10.15625 
Q 24.75 6.390625 31.78125 6.390625 
Q 38.8125 6.390625 42.859375 10.171875 
Q 46.921875 13.96875 46.921875 20.515625 
Q 46.921875 27.09375 42.890625 30.859375 
Q 38.875 34.625 31.78125 34.625 
z
M 21.921875 38.8125 
Q 15.578125 40.375 12.03125 44.71875 
Q 8.5 49.078125 8.5 55.328125 
Q 8.5 64.0625 14.71875 69.140625 
Q 20.953125 74.21875 31.78125 74.21875 
Q 42.671875 74.21875 48.875 69.140625 
Q 55.078125 64.0625 55.078125 55.328125 
Q 55.078125 49.078125 51.53125 44.71875 
Q 48 40.375 41.703125 38.8125 
Q 48.828125 37.15625 52.796875 32.3125 
Q 56.78125 27.484375 56.78125 20.515625 
Q 56.78125 9.90625 50.3125 4.234375 
Q 43.84375 -1.421875 31.78125 -1.421875 
Q 19.734375 -1.421875 13.25 4.234375 
Q 6.78125 9.90625 6.78125 20.515625 
Q 6.78125 27.484375 10.78125 32.3125 
Q 14.796875 37.15625 21.921875 38.8125 
z
M 18.3125 54.390625 
Q 18.3125 48.734375 21.84375 45.5625 
Q 25.390625 42.390625 31.78125 42.390625 
Q 38.140625 42.390625 41.71875 45.5625 
Q 45.3125 48.734375 45.3125 54.390625 
Q 45.3125 60.0625 41.71875 63.234375 
Q 38.140625 66.40625 31.78125 66.40625 
Q 25.390625 66.40625 21.84375 63.234375 
Q 18.3125 60.0625 18.3125 54.390625 
z
" id="DejaVuSans-38"/>
      </defs>
      <g transform="translate(21.7 180.579799)scale(0.1 -0.1)">
       <use xlink:href="#DejaVuSans-30"/>
       <use x="63.623047" xlink:href="#DejaVuSans-2e"/>
       <use x="95.410156" xlink:href="#DejaVuSans-38"/>
      </g>
     </g>
    </g>
    <g id="ytick_4">
     <g id="line2d_25">
      <path clip-path="url(#p201eba1d3c)" d="M 44.603125 152.233394 
L 379.403125 152.233394 
" style="fill:none;stroke:#b0b0b0;stroke-linecap:square;stroke-width:0.8;"/>
     </g>
     <g id="line2d_26">
      <g>
       <use style="stroke:#000000;stroke-width:0.8;" x="44.603125" xlink:href="#m6c2e261f29" y="152.233394"/>
      </g>
     </g>
     <g id="text_14">
      <!-- 1.0 -->
      <defs>
       <path d="M 12.40625 8.296875 
L 28.515625 8.296875 
L 28.515625 63.921875 
L 10.984375 60.40625 
L 10.984375 69.390625 
L 28.421875 72.90625 
L 38.28125 72.90625 
L 38.28125 8.296875 
L 54.390625 8.296875 
L 54.390625 0 
L 12.40625 0 
z
" id="DejaVuSans-31"/>
      </defs>
      <g transform="translate(21.7 156.032613)scale(0.1 -0.1)">
       <use xlink:href="#DejaVuSans-31"/>
       <use x="63.623047" xlink:href="#DejaVuSans-2e"/>
       <use x="95.410156" xlink:href="#DejaVuSans-30"/>
      </g>
     </g>
    </g>
    <g id="ytick_5">
     <g id="line2d_27">
      <path clip-path="url(#p201eba1d3c)" d="M 44.603125 127.686208 
L 379.403125 127.686208 
" style="fill:none;stroke:#b0b0b0;stroke-linecap:square;stroke-width:0.8;"/>
     </g>
     <g id="line2d_28">
      <g>
       <use style="stroke:#000000;stroke-width:0.8;" x="44.603125" xlink:href="#m6c2e261f29" y="127.686208"/>
      </g>
     </g>
     <g id="text_15">
      <!-- 1.2 -->
      <g transform="translate(21.7 131.485427)scale(0.1 -0.1)">
       <use xlink:href="#DejaVuSans-31"/>
       <use x="63.623047" xlink:href="#DejaVuSans-2e"/>
       <use x="95.410156" xlink:href="#DejaVuSans-32"/>
      </g>
     </g>
    </g>
    <g id="ytick_6">
     <g id="line2d_29">
      <path clip-path="url(#p201eba1d3c)" d="M 44.603125 103.139022 
L 379.403125 103.139022 
" style="fill:none;stroke:#b0b0b0;stroke-linecap:square;stroke-width:0.8;"/>
     </g>
     <g id="line2d_30">
      <g>
       <use style="stroke:#000000;stroke-width:0.8;" x="44.603125" xlink:href="#m6c2e261f29" y="103.139022"/>
      </g>
     </g>
     <g id="text_16">
      <!-- 1.4 -->
      <g transform="translate(21.7 106.938241)scale(0.1 -0.1)">
       <use xlink:href="#DejaVuSans-31"/>
       <use x="63.623047" xlink:href="#DejaVuSans-2e"/>
       <use x="95.410156" xlink:href="#DejaVuSans-34"/>
      </g>
     </g>
    </g>
    <g id="ytick_7">
     <g id="line2d_31">
      <path clip-path="url(#p201eba1d3c)" d="M 44.603125 78.591836 
L 379.403125 78.591836 
" style="fill:none;stroke:#b0b0b0;stroke-linecap:square;stroke-width:0.8;"/>
     </g>
     <g id="line2d_32">
      <g>
       <use style="stroke:#000000;stroke-width:0.8;" x="44.603125" xlink:href="#m6c2e261f29" y="78.591836"/>
      </g>
     </g>
     <g id="text_17">
      <!-- 1.6 -->
      <g transform="translate(21.7 82.391055)scale(0.1 -0.1)">
       <use xlink:href="#DejaVuSans-31"/>
       <use x="63.623047" xlink:href="#DejaVuSans-2e"/>
       <use x="95.410156" xlink:href="#DejaVuSans-36"/>
      </g>
     </g>
    </g>
    <g id="ytick_8">
     <g id="line2d_33">
      <path clip-path="url(#p201eba1d3c)" d="M 44.603125 54.044651 
L 379.403125 54.044651 
" style="fill:none;stroke:#b0b0b0;stroke-linecap:square;stroke-width:0.8;"/>
     </g>
     <g id="line2d_34">
      <g>
       <use style="stroke:#000000;stroke-width:0.8;" x="44.603125" xlink:href="#m6c2e261f29" y="54.044651"/>
      </g>
     </g>
     <g id="text_18">
      <!-- 1.8 -->
      <g transform="translate(21.7 57.843869)scale(0.1 -0.1)">
       <use xlink:href="#DejaVuSans-31"/>
       <use x="63.623047" xlink:href="#DejaVuSans-2e"/>
       <use x="95.410156" xlink:href="#DejaVuSans-38"/>
      </g>
     </g>
    </g>
    <g id="ytick_9">
     <g id="line2d_35">
      <path clip-path="url(#p201eba1d3c)" d="M 44.603125 29.497465 
L 379.403125 29.497465 
" style="fill:none;stroke:#b0b0b0;stroke-linecap:square;stroke-width:0.8;"/>
     </g>
     <g id="line2d_36">
      <g>
       <use style="stroke:#000000;stroke-width:0.8;" x="44.603125" xlink:href="#m6c2e261f29" y="29.497465"/>
      </g>
     </g>
     <g id="text_19">
      <!-- 2.0 -->
      <g transform="translate(21.7 33.296683)scale(0.1 -0.1)">
       <use xlink:href="#DejaVuSans-32"/>
       <use x="63.623047" xlink:href="#DejaVuSans-2e"/>
       <use x="95.410156" xlink:href="#DejaVuSans-30"/>
      </g>
     </g>
    </g>
    <g id="text_20">
     <!-- $\beta_{T_2}$ [s] -->
     <defs>
      <path d="M 13.625 3.375 
L 8.9375 -20.796875 
L -0.09375 -20.796875 
L 14.5 54.34375 
Q 18.84375 76.609375 39.65625 76.609375 
Q 60.75 76.609375 57.171875 57.8125 
Q 54.734375 44.4375 45.21875 39.546875 
Q 58.015625 35.15625 55.515625 22.125 
Q 51.125 -1.078125 27.484375 -1.03125 
Q 17.140625 -0.984375 13.625 3.375 
z
M 15.921875 15.09375 
Q 19.671875 6.59375 29.296875 6.640625 
Q 43.359375 6.640625 46.34375 21.96875 
Q 49.03125 35.75 26.171875 34.671875 
L 27.78125 42.96875 
Q 45.453125 42.671875 48.53125 58.59375 
Q 50.640625 69.34375 39.203125 69.28125 
Q 26.421875 69.28125 23.484375 54.046875 
z
" id="DejaVuSans-Oblique-3b2"/>
      <path d="M 5.90625 72.90625 
L 67.578125 72.90625 
L 66.015625 64.59375 
L 39.984375 64.59375 
L 27.484375 0 
L 17.578125 0 
L 30.078125 64.59375 
L 4.296875 64.59375 
z
" id="DejaVuSans-Oblique-54"/>
      <path d="M 44.28125 53.078125 
L 44.28125 44.578125 
Q 40.484375 46.53125 36.375 47.5 
Q 32.28125 48.484375 27.875 48.484375 
Q 21.1875 48.484375 17.84375 46.4375 
Q 14.5 44.390625 14.5 40.28125 
Q 14.5 37.15625 16.890625 35.375 
Q 19.28125 33.59375 26.515625 31.984375 
L 29.59375 31.296875 
Q 39.15625 29.25 43.1875 25.515625 
Q 47.21875 21.78125 47.21875 15.09375 
Q 47.21875 7.46875 41.1875 3.015625 
Q 35.15625 -1.421875 24.609375 -1.421875 
Q 20.21875 -1.421875 15.453125 -0.5625 
Q 10.6875 0.296875 5.421875 2 
L 5.421875 11.28125 
Q 10.40625 8.6875 15.234375 7.390625 
Q 20.0625 6.109375 24.8125 6.109375 
Q 31.15625 6.109375 34.5625 8.28125 
Q 37.984375 10.453125 37.984375 14.40625 
Q 37.984375 18.0625 35.515625 20.015625 
Q 33.0625 21.96875 24.703125 23.78125 
L 21.578125 24.515625 
Q 13.234375 26.265625 9.515625 29.90625 
Q 5.8125 33.546875 5.8125 39.890625 
Q 5.8125 47.609375 11.28125 51.796875 
Q 16.75 56 26.8125 56 
Q 31.78125 56 36.171875 55.265625 
Q 40.578125 54.546875 44.28125 53.078125 
z
" id="DejaVuSans-73"/>
     </defs>
     <g transform="translate(14.9 146.41)rotate(-90)scale(0.1 -0.1)">
      <use transform="translate(0 0.390625)" xlink:href="#DejaVuSans-Oblique-3b2"/>
      <use transform="translate(63.818359 -16.015625)scale(0.7)" xlink:href="#DejaVuSans-Oblique-54"/>
      <use transform="translate(106.577148 -27.5)scale(0.49)" xlink:href="#DejaVuSans-32"/>
      <use transform="translate(142.400879 0.390625)" xlink:href="#DejaVuSans-20"/>
      <use transform="translate(174.187988 0.390625)" xlink:href="#DejaVuSans-5b"/>
      <use transform="translate(213.20166 0.390625)" xlink:href="#DejaVuSans-73"/>
      <use transform="translate(265.30127 0.390625)" xlink:href="#DejaVuSans-5d"/>
     </g>
    </g>
   </g>
   <g id="LineCollection_1">
    <path clip-path="url(#p201eba1d3c)" d="M 277.460117 139.40424 
L 277.460117 118.810433 
" style="fill:none;stroke:#1f77b4;stroke-width:1.5;"/>
    <path clip-path="url(#p201eba1d3c)" d="M 271.680485 129.42726 
L 271.680485 107.66151 
" style="fill:none;stroke:#1f77b4;stroke-width:1.5;"/>
    <path clip-path="url(#p201eba1d3c)" d="M 267.296459 130.917704 
L 267.296459 107.403049 
" style="fill:none;stroke:#1f77b4;stroke-width:1.5;"/>
    <path clip-path="url(#p201eba1d3c)" d="M 262.927603 137.59022 
L 262.927603 109.611933 
" style="fill:none;stroke:#1f77b4;stroke-width:1.5;"/>
    <path clip-path="url(#p201eba1d3c)" d="M 259.984693 151.488922 
L 259.984693 118.855591 
" style="fill:none;stroke:#1f77b4;stroke-width:1.5;"/>
    <path clip-path="url(#p201eba1d3c)" d="M 257.072122 147.652653 
L 257.072122 110.74524 
" style="fill:none;stroke:#1f77b4;stroke-width:1.5;"/>
    <path clip-path="url(#p201eba1d3c)" d="M 254.159552 176.367918 
L 254.159552 127.6126 
" style="fill:none;stroke:#1f77b4;stroke-width:1.5;"/>
    <path clip-path="url(#p201eba1d3c)" d="M 251.216642 164.677987 
L 251.216642 103.38748 
" style="fill:none;stroke:#1f77b4;stroke-width:1.5;"/>
    <path clip-path="url(#p201eba1d3c)" d="M 248.273732 159.898724 
L 248.273732 106.835702 
" style="fill:none;stroke:#1f77b4;stroke-width:1.5;"/>
    <path clip-path="url(#p201eba1d3c)" d="M 243.965554 175.384961 
L 243.965554 143.167645 
" style="fill:none;stroke:#1f77b4;stroke-width:1.5;"/>
    <path clip-path="url(#p201eba1d3c)" d="M 239.611868 184.549277 
L 239.611868 155.305518 
" style="fill:none;stroke:#1f77b4;stroke-width:1.5;"/>
    <path clip-path="url(#p201eba1d3c)" d="M 235.258182 171.842506 
L 235.258182 144.930027 
" style="fill:none;stroke:#1f77b4;stroke-width:1.5;"/>
    <path clip-path="url(#p201eba1d3c)" d="M 230.904495 184.257753 
L 230.904495 154.223909 
" style="fill:none;stroke:#1f77b4;stroke-width:1.5;"/>
    <path clip-path="url(#p201eba1d3c)" d="M 226.565978 179.651797 
L 226.565978 138.696244 
" style="fill:none;stroke:#1f77b4;stroke-width:1.5;"/>
    <path clip-path="url(#p201eba1d3c)" d="M 235.000298 209.012298 
L 235.000298 173.098019 
" style="fill:none;stroke:#1f77b4;stroke-width:1.5;"/>
    <path clip-path="url(#p201eba1d3c)" d="M 230.874156 178.248818 
L 230.874156 169.132402 
" style="fill:none;stroke:#1f77b4;stroke-width:1.5;"/>
    <path clip-path="url(#p201eba1d3c)" d="M 226.550809 178.317594 
L 226.550809 170.799117 
" style="fill:none;stroke:#1f77b4;stroke-width:1.5;"/>
    <path clip-path="url(#p201eba1d3c)" d="M 222.212292 176.689225 
L 222.212292 169.712608 
" style="fill:none;stroke:#1f77b4;stroke-width:1.5;"/>
   </g>
   <g id="LineCollection_2">
    <path clip-path="url(#p201eba1d3c)" d="M 364.184943 77.926308 
L 364.184943 55.78334 
" style="fill:none;stroke:#ff7f0e;stroke-width:1.5;"/>
    <path clip-path="url(#p201eba1d3c)" d="M 357.206909 81.098639 
L 357.206909 50.537207 
" style="fill:none;stroke:#ff7f0e;stroke-width:1.5;"/>
    <path clip-path="url(#p201eba1d3c)" d="M 349.986161 92.471243 
L 349.986161 67.867973 
" style="fill:none;stroke:#ff7f0e;stroke-width:1.5;"/>
    <path clip-path="url(#p201eba1d3c)" d="M 342.750243 106.67616 
L 342.750243 61.491283 
" style="fill:none;stroke:#ff7f0e;stroke-width:1.5;"/>
    <path clip-path="url(#p201eba1d3c)" d="M 335.453647 160.524471 
L 335.453647 58.641868 
" style="fill:none;stroke:#ff7f0e;stroke-width:1.5;"/>
    <path clip-path="url(#p201eba1d3c)" d="M 328.18739 165.88666 
L 328.18739 32.323636 
" style="fill:none;stroke:#ff7f0e;stroke-width:1.5;"/>
    <path clip-path="url(#p201eba1d3c)" d="M 320.905963 218.817711 
L 320.905963 77.699614 
" style="fill:none;stroke:#ff7f0e;stroke-width:1.5;"/>
    <path clip-path="url(#p201eba1d3c)" d="M 313.563858 229.996364 
L 313.563858 138.14015 
" style="fill:none;stroke:#ff7f0e;stroke-width:1.5;"/>
    <path clip-path="url(#p201eba1d3c)" d="M 306.358279 166.249341 
L 306.358279 97.226499 
" style="fill:none;stroke:#ff7f0e;stroke-width:1.5;"/>
    <path clip-path="url(#p201eba1d3c)" d="M 299.137531 124.712017 
L 299.137531 80.380447 
" style="fill:none;stroke:#ff7f0e;stroke-width:1.5;"/>
    <path clip-path="url(#p201eba1d3c)" d="M 291.901613 92.742592 
L 291.901613 64.869306 
" style="fill:none;stroke:#ff7f0e;stroke-width:1.5;"/>
    <path clip-path="url(#p201eba1d3c)" d="M 284.665696 89.842496 
L 284.665696 70.970526 
" style="fill:none;stroke:#ff7f0e;stroke-width:1.5;"/>
    <path clip-path="url(#p201eba1d3c)" d="M 277.520796 115.768422 
L 277.520796 90.014564 
" style="fill:none;stroke:#ff7f0e;stroke-width:1.5;"/>
    <path clip-path="url(#p201eba1d3c)" d="M 277.32359 113.676875 
L 277.32359 89.335709 
" style="fill:none;stroke:#ff7f0e;stroke-width:1.5;"/>
    <path clip-path="url(#p201eba1d3c)" d="M 270.148351 122.439181 
L 270.148351 98.42685 
" style="fill:none;stroke:#ff7f0e;stroke-width:1.5;"/>
    <path clip-path="url(#p201eba1d3c)" d="M 262.882094 115.800249 
L 262.882094 92.944254 
" style="fill:none;stroke:#ff7f0e;stroke-width:1.5;"/>
    <path clip-path="url(#p201eba1d3c)" d="M 255.631007 90.979599 
L 255.631007 67.275994 
" style="fill:none;stroke:#ff7f0e;stroke-width:1.5;"/>
    <path clip-path="url(#p201eba1d3c)" d="M 248.304071 70.277163 
L 248.304071 40.100225 
" style="fill:none;stroke:#ff7f0e;stroke-width:1.5;"/>
   </g>
   <g id="LineCollection_3">
    <path clip-path="url(#p201eba1d3c)" d="M 117.435596 150.471365 
L 117.435596 144.662673 
" style="fill:none;stroke:#2ca02c;stroke-width:1.5;"/>
    <path clip-path="url(#p201eba1d3c)" d="M 131.664717 148.676423 
L 131.664717 142.464507 
" style="fill:none;stroke:#2ca02c;stroke-width:1.5;"/>
    <path clip-path="url(#p201eba1d3c)" d="M 146.22757 149.046644 
L 146.22757 142.530251 
" style="fill:none;stroke:#2ca02c;stroke-width:1.5;"/>
    <path clip-path="url(#p201eba1d3c)" d="M 160.729745 148.394969 
L 160.729745 142.975347 
" style="fill:none;stroke:#2ca02c;stroke-width:1.5;"/>
    <path clip-path="url(#p201eba1d3c)" d="M 175.277429 154.865485 
L 175.277429 149.172766 
" style="fill:none;stroke:#2ca02c;stroke-width:1.5;"/>
    <path clip-path="url(#p201eba1d3c)" d="M 189.764434 155.461708 
L 189.764434 151.525081 
" style="fill:none;stroke:#2ca02c;stroke-width:1.5;"/>
    <path clip-path="url(#p201eba1d3c)" d="M 204.357627 160.243018 
L 204.357627 158.104308 
" style="fill:none;stroke:#2ca02c;stroke-width:1.5;"/>
   </g>
   <g id="LineCollection_4">
    <path clip-path="url(#p201eba1d3c)" d="M 168.193208 156.913272 
L 168.193208 151.55909 
" style="fill:none;stroke:#d62728;stroke-width:1.5;"/>
    <path clip-path="url(#p201eba1d3c)" d="M 175.24709 155.667712 
L 175.24709 151.031102 
" style="fill:none;stroke:#d62728;stroke-width:1.5;"/>
    <path clip-path="url(#p201eba1d3c)" d="M 182.452668 154.774321 
L 182.452668 149.711061 
" style="fill:none;stroke:#d62728;stroke-width:1.5;"/>
    <path clip-path="url(#p201eba1d3c)" d="M 189.794774 159.215488 
L 189.794774 154.99737 
" style="fill:none;stroke:#d62728;stroke-width:1.5;"/>
    <path clip-path="url(#p201eba1d3c)" d="M 197.0762 156.570884 
L 197.0762 153.791387 
" style="fill:none;stroke:#d62728;stroke-width:1.5;"/>
    <path clip-path="url(#p201eba1d3c)" d="M 204.342457 160.16489 
L 204.342457 158.207673 
" style="fill:none;stroke:#d62728;stroke-width:1.5;"/>
    <path clip-path="url(#p201eba1d3c)" d="M 211.639054 164.098216 
L 211.639054 161.47582 
" style="fill:none;stroke:#d62728;stroke-width:1.5;"/>
    <path clip-path="url(#p201eba1d3c)" d="M 218.92048 167.215941 
L 218.92048 164.114912 
" style="fill:none;stroke:#d62728;stroke-width:1.5;"/>
    <path clip-path="url(#p201eba1d3c)" d="M 226.141229 177.206757 
L 226.141229 171.015414 
" style="fill:none;stroke:#d62728;stroke-width:1.5;"/>
   </g>
   <g id="LineCollection_5">
    <path clip-path="url(#p201eba1d3c)" d="M 168.193208 156.080678 
L 168.193208 150.159588 
" style="fill:none;stroke:#9467bd;stroke-width:1.5;"/>
    <path clip-path="url(#p201eba1d3c)" d="M 175.21675 155.467853 
L 175.21675 150.569736 
" style="fill:none;stroke:#9467bd;stroke-width:1.5;"/>
    <path clip-path="url(#p201eba1d3c)" d="M 182.467838 154.055924 
L 182.467838 148.855082 
" style="fill:none;stroke:#9467bd;stroke-width:1.5;"/>
    <path clip-path="url(#p201eba1d3c)" d="M 189.794774 154.800866 
L 189.794774 150.195662 
" style="fill:none;stroke:#9467bd;stroke-width:1.5;"/>
    <path clip-path="url(#p201eba1d3c)" d="M 197.0762 156.390199 
L 197.0762 153.001689 
" style="fill:none;stroke:#9467bd;stroke-width:1.5;"/>
   </g>
   <g id="LineCollection_6">
    <path clip-path="url(#p201eba1d3c)" d="M 160.805593 150.425218 
L 160.805593 136.434329 
" style="fill:none;stroke:#8c564b;stroke-width:1.5;"/>
    <path clip-path="url(#p201eba1d3c)" d="M 174.928527 150.188665 
L 174.928527 134.077082 
" style="fill:none;stroke:#8c564b;stroke-width:1.5;"/>
   </g>
   <g id="LineCollection_7">
    <path clip-path="url(#p201eba1d3c)" d="M 59.821307 157.926484 
L 59.821307 146.709483 
" style="fill:none;stroke:#e377c2;stroke-width:1.5;"/>
    <path clip-path="url(#p201eba1d3c)" d="M 73.610509 160.706253 
L 73.610509 149.392801 
" style="fill:none;stroke:#e377c2;stroke-width:1.5;"/>
    <path clip-path="url(#p201eba1d3c)" d="M 88.052005 155.082057 
L 88.052005 143.066268 
" style="fill:none;stroke:#e377c2;stroke-width:1.5;"/>
    <path clip-path="url(#p201eba1d3c)" d="M 102.463162 151.620987 
L 102.463162 139.003053 
" style="fill:none;stroke:#e377c2;stroke-width:1.5;"/>
    <path clip-path="url(#p201eba1d3c)" d="M 116.934998 148.722568 
L 116.934998 135.151658 
" style="fill:none;stroke:#e377c2;stroke-width:1.5;"/>
    <path clip-path="url(#p201eba1d3c)" d="M 131.422003 153.831454 
L 131.422003 140.248402 
" style="fill:none;stroke:#e377c2;stroke-width:1.5;"/>
   </g>
   <g id="LineCollection_8">
    <path clip-path="url(#p201eba1d3c)" d="M 241.037814 125.61247 
L 241.037814 62.968135 
" style="fill:none;stroke:#7f7f7f;stroke-width:1.5;"/>
    <path clip-path="url(#p201eba1d3c)" d="M 233.786727 185.015997 
L 233.786727 163.720428 
" style="fill:none;stroke:#7f7f7f;stroke-width:1.5;"/>
    <path clip-path="url(#p201eba1d3c)" d="M 226.5053 169.270508 
L 226.5053 165.189743 
" style="fill:none;stroke:#7f7f7f;stroke-width:1.5;"/>
    <path clip-path="url(#p201eba1d3c)" d="M 219.269382 167.409532 
L 219.269382 164.408375 
" style="fill:none;stroke:#7f7f7f;stroke-width:1.5;"/>
    <path clip-path="url(#p201eba1d3c)" d="M 212.124482 162.28324 
L 212.124482 155.16718 
" style="fill:none;stroke:#7f7f7f;stroke-width:1.5;"/>
    <path clip-path="url(#p201eba1d3c)" d="M 204.736868 175.5937 
L 204.736868 166.228426 
" style="fill:none;stroke:#7f7f7f;stroke-width:1.5;"/>
    <path clip-path="url(#p201eba1d3c)" d="M 197.455441 178.614715 
L 197.455441 166.721989 
" style="fill:none;stroke:#7f7f7f;stroke-width:1.5;"/>
    <path clip-path="url(#p201eba1d3c)" d="M 190.158845 183.147151 
L 190.158845 166.143872 
" style="fill:none;stroke:#7f7f7f;stroke-width:1.5;"/>
    <path clip-path="url(#p201eba1d3c)" d="M 182.81674 191.155142 
L 182.81674 167.155082 
" style="fill:none;stroke:#7f7f7f;stroke-width:1.5;"/>
    <path clip-path="url(#p201eba1d3c)" d="M 175.580822 200.309093 
L 175.580822 168.134945 
" style="fill:none;stroke:#7f7f7f;stroke-width:1.5;"/>
   </g>
   <g id="line2d_37">
    <defs>
     <path d="M -3 3 
L 3 -3 
M -3 -3 
L 3 3 
" id="m4d573621c0" style="stroke:#1f77b4;"/>
    </defs>
    <g clip-path="url(#p201eba1d3c)">
     <use style="fill:#1f77b4;stroke:#1f77b4;" x="277.460117" xlink:href="#m4d573621c0" y="129.107337"/>
     <use style="fill:#1f77b4;stroke:#1f77b4;" x="271.680485" xlink:href="#m4d573621c0" y="118.544385"/>
     <use style="fill:#1f77b4;stroke:#1f77b4;" x="267.296459" xlink:href="#m4d573621c0" y="119.160376"/>
     <use style="fill:#1f77b4;stroke:#1f77b4;" x="262.927603" xlink:href="#m4d573621c0" y="123.601077"/>
     <use style="fill:#1f77b4;stroke:#1f77b4;" x="259.984693" xlink:href="#m4d573621c0" y="135.172256"/>
     <use style="fill:#1f77b4;stroke:#1f77b4;" x="257.072122" xlink:href="#m4d573621c0" y="129.198947"/>
     <use style="fill:#1f77b4;stroke:#1f77b4;" x="254.159552" xlink:href="#m4d573621c0" y="151.990259"/>
     <use style="fill:#1f77b4;stroke:#1f77b4;" x="251.216642" xlink:href="#m4d573621c0" y="134.032734"/>
     <use style="fill:#1f77b4;stroke:#1f77b4;" x="248.273732" xlink:href="#m4d573621c0" y="133.367213"/>
     <use style="fill:#1f77b4;stroke:#1f77b4;" x="243.965554" xlink:href="#m4d573621c0" y="159.276303"/>
     <use style="fill:#1f77b4;stroke:#1f77b4;" x="239.611868" xlink:href="#m4d573621c0" y="169.927397"/>
     <use style="fill:#1f77b4;stroke:#1f77b4;" x="235.258182" xlink:href="#m4d573621c0" y="158.386267"/>
     <use style="fill:#1f77b4;stroke:#1f77b4;" x="230.904495" xlink:href="#m4d573621c0" y="169.240831"/>
     <use style="fill:#1f77b4;stroke:#1f77b4;" x="226.565978" xlink:href="#m4d573621c0" y="159.174021"/>
     <use style="fill:#1f77b4;stroke:#1f77b4;" x="235.000298" xlink:href="#m4d573621c0" y="191.055159"/>
     <use style="fill:#1f77b4;stroke:#1f77b4;" x="230.874156" xlink:href="#m4d573621c0" y="173.69061"/>
     <use style="fill:#1f77b4;stroke:#1f77b4;" x="226.550809" xlink:href="#m4d573621c0" y="174.558356"/>
     <use style="fill:#1f77b4;stroke:#1f77b4;" x="222.212292" xlink:href="#m4d573621c0" y="173.200917"/>
    </g>
   </g>
   <g id="line2d_38">
    <defs>
     <path d="M -3 3 
L 3 -3 
M -3 -3 
L 3 3 
" id="mff66911243" style="stroke:#ff7f0e;"/>
    </defs>
    <g clip-path="url(#p201eba1d3c)">
     <use style="fill:#ff7f0e;stroke:#ff7f0e;" x="364.184943" xlink:href="#mff66911243" y="66.854824"/>
     <use style="fill:#ff7f0e;stroke:#ff7f0e;" x="357.206909" xlink:href="#mff66911243" y="65.817923"/>
     <use style="fill:#ff7f0e;stroke:#ff7f0e;" x="349.986161" xlink:href="#mff66911243" y="80.169608"/>
     <use style="fill:#ff7f0e;stroke:#ff7f0e;" x="342.750243" xlink:href="#mff66911243" y="84.083722"/>
     <use style="fill:#ff7f0e;stroke:#ff7f0e;" x="335.453647" xlink:href="#mff66911243" y="109.583169"/>
     <use style="fill:#ff7f0e;stroke:#ff7f0e;" x="328.18739" xlink:href="#mff66911243" y="99.105148"/>
     <use style="fill:#ff7f0e;stroke:#ff7f0e;" x="320.905963" xlink:href="#mff66911243" y="148.258662"/>
     <use style="fill:#ff7f0e;stroke:#ff7f0e;" x="313.563858" xlink:href="#mff66911243" y="184.068257"/>
     <use style="fill:#ff7f0e;stroke:#ff7f0e;" x="306.358279" xlink:href="#mff66911243" y="131.73792"/>
     <use style="fill:#ff7f0e;stroke:#ff7f0e;" x="299.137531" xlink:href="#mff66911243" y="102.546232"/>
     <use style="fill:#ff7f0e;stroke:#ff7f0e;" x="291.901613" xlink:href="#mff66911243" y="78.805949"/>
     <use style="fill:#ff7f0e;stroke:#ff7f0e;" x="284.665696" xlink:href="#mff66911243" y="80.406511"/>
     <use style="fill:#ff7f0e;stroke:#ff7f0e;" x="277.520796" xlink:href="#mff66911243" y="102.891493"/>
     <use style="fill:#ff7f0e;stroke:#ff7f0e;" x="277.32359" xlink:href="#mff66911243" y="101.506292"/>
     <use style="fill:#ff7f0e;stroke:#ff7f0e;" x="270.148351" xlink:href="#mff66911243" y="110.433016"/>
     <use style="fill:#ff7f0e;stroke:#ff7f0e;" x="262.882094" xlink:href="#mff66911243" y="104.372251"/>
     <use style="fill:#ff7f0e;stroke:#ff7f0e;" x="255.631007" xlink:href="#mff66911243" y="79.127796"/>
     <use style="fill:#ff7f0e;stroke:#ff7f0e;" x="248.304071" xlink:href="#mff66911243" y="55.188694"/>
    </g>
   </g>
   <g id="line2d_39">
    <defs>
     <path d="M -3 3 
L 3 -3 
M -3 -3 
L 3 3 
" id="m104a9eb6d7" style="stroke:#2ca02c;"/>
    </defs>
    <g clip-path="url(#p201eba1d3c)">
     <use style="fill:#2ca02c;stroke:#2ca02c;" x="117.435596" xlink:href="#m104a9eb6d7" y="147.567019"/>
     <use style="fill:#2ca02c;stroke:#2ca02c;" x="131.664717" xlink:href="#m104a9eb6d7" y="145.570465"/>
     <use style="fill:#2ca02c;stroke:#2ca02c;" x="146.22757" xlink:href="#m104a9eb6d7" y="145.788447"/>
     <use style="fill:#2ca02c;stroke:#2ca02c;" x="160.729745" xlink:href="#m104a9eb6d7" y="145.685158"/>
     <use style="fill:#2ca02c;stroke:#2ca02c;" x="175.277429" xlink:href="#m104a9eb6d7" y="152.019125"/>
     <use style="fill:#2ca02c;stroke:#2ca02c;" x="189.764434" xlink:href="#m104a9eb6d7" y="153.493395"/>
     <use style="fill:#2ca02c;stroke:#2ca02c;" x="204.357627" xlink:href="#m104a9eb6d7" y="159.173663"/>
    </g>
   </g>
   <g id="line2d_40">
    <defs>
     <path d="M -3 3 
L 3 -3 
M -3 -3 
L 3 3 
" id="m0c0e231f7a" style="stroke:#d62728;"/>
    </defs>
    <g clip-path="url(#p201eba1d3c)">
     <use style="fill:#d62728;stroke:#d62728;" x="168.193208" xlink:href="#m0c0e231f7a" y="154.236181"/>
     <use style="fill:#d62728;stroke:#d62728;" x="175.24709" xlink:href="#m0c0e231f7a" y="153.349407"/>
     <use style="fill:#d62728;stroke:#d62728;" x="182.452668" xlink:href="#m0c0e231f7a" y="152.242691"/>
     <use style="fill:#d62728;stroke:#d62728;" x="189.794774" xlink:href="#m0c0e231f7a" y="157.106429"/>
     <use style="fill:#d62728;stroke:#d62728;" x="197.0762" xlink:href="#m0c0e231f7a" y="155.181135"/>
     <use style="fill:#d62728;stroke:#d62728;" x="204.342457" xlink:href="#m0c0e231f7a" y="159.186281"/>
     <use style="fill:#d62728;stroke:#d62728;" x="211.639054" xlink:href="#m0c0e231f7a" y="162.787018"/>
     <use style="fill:#d62728;stroke:#d62728;" x="218.92048" xlink:href="#m0c0e231f7a" y="165.665427"/>
     <use style="fill:#d62728;stroke:#d62728;" x="226.141229" xlink:href="#m0c0e231f7a" y="174.111086"/>
    </g>
   </g>
   <g id="line2d_41">
    <defs>
     <path d="M -3 3 
L 3 -3 
M -3 -3 
L 3 3 
" id="m7f1de364f5" style="stroke:#9467bd;"/>
    </defs>
    <g clip-path="url(#p201eba1d3c)">
     <use style="fill:#9467bd;stroke:#9467bd;" x="168.193208" xlink:href="#m7f1de364f5" y="153.120133"/>
     <use style="fill:#9467bd;stroke:#9467bd;" x="175.21675" xlink:href="#m7f1de364f5" y="153.018795"/>
     <use style="fill:#9467bd;stroke:#9467bd;" x="182.467838" xlink:href="#m7f1de364f5" y="151.455503"/>
     <use style="fill:#9467bd;stroke:#9467bd;" x="189.794774" xlink:href="#m7f1de364f5" y="152.498264"/>
     <use style="fill:#9467bd;stroke:#9467bd;" x="197.0762" xlink:href="#m7f1de364f5" y="154.695944"/>
    </g>
   </g>
   <g id="line2d_42">
    <defs>
     <path d="M -3 3 
L 3 -3 
M -3 -3 
L 3 3 
" id="m81f2158bc5" style="stroke:#8c564b;"/>
    </defs>
    <g clip-path="url(#p201eba1d3c)">
     <use style="fill:#8c564b;stroke:#8c564b;" x="160.805593" xlink:href="#m81f2158bc5" y="143.429773"/>
     <use style="fill:#8c564b;stroke:#8c564b;" x="174.928527" xlink:href="#m81f2158bc5" y="142.132873"/>
    </g>
   </g>
   <g id="line2d_43">
    <defs>
     <path d="M -3 3 
L 3 -3 
M -3 -3 
L 3 3 
" id="m4e4ce0a6d9" style="stroke:#e377c2;"/>
    </defs>
    <g clip-path="url(#p201eba1d3c)">
     <use style="fill:#e377c2;stroke:#e377c2;" x="59.821307" xlink:href="#m4e4ce0a6d9" y="152.317984"/>
     <use style="fill:#e377c2;stroke:#e377c2;" x="73.610509" xlink:href="#m4e4ce0a6d9" y="155.049527"/>
     <use style="fill:#e377c2;stroke:#e377c2;" x="88.052005" xlink:href="#m4e4ce0a6d9" y="149.074162"/>
     <use style="fill:#e377c2;stroke:#e377c2;" x="102.463162" xlink:href="#m4e4ce0a6d9" y="145.31202"/>
     <use style="fill:#e377c2;stroke:#e377c2;" x="116.934998" xlink:href="#m4e4ce0a6d9" y="141.937113"/>
     <use style="fill:#e377c2;stroke:#e377c2;" x="131.422003" xlink:href="#m4e4ce0a6d9" y="147.039928"/>
    </g>
   </g>
   <g id="line2d_44">
    <defs>
     <path d="M -3 3 
L 3 -3 
M -3 -3 
L 3 3 
" id="m55228d4f5c" style="stroke:#7f7f7f;"/>
    </defs>
    <g clip-path="url(#p201eba1d3c)">
     <use style="fill:#7f7f7f;stroke:#7f7f7f;" x="241.037814" xlink:href="#m55228d4f5c" y="94.290303"/>
     <use style="fill:#7f7f7f;stroke:#7f7f7f;" x="233.786727" xlink:href="#m55228d4f5c" y="174.368212"/>
     <use style="fill:#7f7f7f;stroke:#7f7f7f;" x="226.5053" xlink:href="#m55228d4f5c" y="167.230126"/>
     <use style="fill:#7f7f7f;stroke:#7f7f7f;" x="219.269382" xlink:href="#m55228d4f5c" y="165.908954"/>
     <use style="fill:#7f7f7f;stroke:#7f7f7f;" x="212.124482" xlink:href="#m55228d4f5c" y="158.72521"/>
     <use style="fill:#7f7f7f;stroke:#7f7f7f;" x="204.736868" xlink:href="#m55228d4f5c" y="170.911063"/>
     <use style="fill:#7f7f7f;stroke:#7f7f7f;" x="197.455441" xlink:href="#m55228d4f5c" y="172.668352"/>
     <use style="fill:#7f7f7f;stroke:#7f7f7f;" x="190.158845" xlink:href="#m55228d4f5c" y="174.645511"/>
     <use style="fill:#7f7f7f;stroke:#7f7f7f;" x="182.81674" xlink:href="#m55228d4f5c" y="179.155112"/>
     <use style="fill:#7f7f7f;stroke:#7f7f7f;" x="175.580822" xlink:href="#m55228d4f5c" y="184.222019"/>
    </g>
   </g>
   <g id="patch_3">
    <path d="M 44.603125 239.88 
L 44.603125 22.44 
" style="fill:none;stroke:#000000;stroke-linecap:square;stroke-linejoin:miter;stroke-width:0.8;"/>
   </g>
   <g id="patch_4">
    <path d="M 379.403125 239.88 
L 379.403125 22.44 
" style="fill:none;stroke:#000000;stroke-linecap:square;stroke-linejoin:miter;stroke-width:0.8;"/>
   </g>
   <g id="patch_5">
    <path d="M 44.603125 239.88 
L 379.403125 239.88 
" style="fill:none;stroke:#000000;stroke-linecap:square;stroke-linejoin:miter;stroke-width:0.8;"/>
   </g>
   <g id="patch_6">
    <path d="M 44.603125 22.44 
L 379.403125 22.44 
" style="fill:none;stroke:#000000;stroke-linecap:square;stroke-linejoin:miter;stroke-width:0.8;"/>
   </g>
   <g id="text_21">
    <!-- CRN $\beta_{T_2}$ -->
    <defs>
     <path d="M 64.40625 67.28125 
L 64.40625 56.890625 
Q 59.421875 61.53125 53.78125 63.8125 
Q 48.140625 66.109375 41.796875 66.109375 
Q 29.296875 66.109375 22.65625 58.46875 
Q 16.015625 50.828125 16.015625 36.375 
Q 16.015625 21.96875 22.65625 14.328125 
Q 29.296875 6.6875 41.796875 6.6875 
Q 48.140625 6.6875 53.78125 8.984375 
Q 59.421875 11.28125 64.40625 15.921875 
L 64.40625 5.609375 
Q 59.234375 2.09375 53.4375 0.328125 
Q 47.65625 -1.421875 41.21875 -1.421875 
Q 24.65625 -1.421875 15.125 8.703125 
Q 5.609375 18.84375 5.609375 36.375 
Q 5.609375 53.953125 15.125 64.078125 
Q 24.65625 74.21875 41.21875 74.21875 
Q 47.75 74.21875 53.53125 72.484375 
Q 59.328125 70.75 64.40625 67.28125 
z
" id="DejaVuSans-43"/>
     <path d="M 44.390625 34.1875 
Q 47.5625 33.109375 50.5625 29.59375 
Q 53.5625 26.078125 56.59375 19.921875 
L 66.609375 0 
L 56 0 
L 46.6875 18.703125 
Q 43.0625 26.03125 39.671875 28.421875 
Q 36.28125 30.8125 30.421875 30.8125 
L 19.671875 30.8125 
L 19.671875 0 
L 9.8125 0 
L 9.8125 72.90625 
L 32.078125 72.90625 
Q 44.578125 72.90625 50.734375 67.671875 
Q 56.890625 62.453125 56.890625 51.90625 
Q 56.890625 45.015625 53.6875 40.46875 
Q 50.484375 35.9375 44.390625 34.1875 
z
M 19.671875 64.796875 
L 19.671875 38.921875 
L 32.078125 38.921875 
Q 39.203125 38.921875 42.84375 42.21875 
Q 46.484375 45.515625 46.484375 51.90625 
Q 46.484375 58.296875 42.84375 61.546875 
Q 39.203125 64.796875 32.078125 64.796875 
z
" id="DejaVuSans-52"/>
     <path d="M 9.8125 72.90625 
L 23.09375 72.90625 
L 55.421875 11.921875 
L 55.421875 72.90625 
L 64.984375 72.90625 
L 64.984375 0 
L 51.703125 0 
L 19.390625 60.984375 
L 19.390625 0 
L 9.8125 0 
z
" id="DejaVuSans-4e"/>
    </defs>
    <g transform="translate(188.663125 16.44)scale(0.12 -0.12)">
     <use transform="translate(0 0.390625)" xlink:href="#DejaVuSans-43"/>
     <use transform="translate(69.824219 0.390625)" xlink:href="#DejaVuSans-52"/>
     <use transform="translate(139.306641 0.390625)" xlink:href="#DejaVuSans-4e"/>
     <use transform="translate(214.111328 0.390625)" xlink:href="#DejaVuSans-20"/>
     <use transform="translate(245.898438 0.390625)" xlink:href="#DejaVuSans-Oblique-3b2"/>
     <use transform="translate(309.716797 -16.015625)scale(0.7)" xlink:href="#DejaVuSans-Oblique-54"/>
     <use transform="translate(352.475586 -27.5)scale(0.49)" xlink:href="#DejaVuSans-32"/>
    </g>
   </g>
   <g id="legend_1">
    <g id="patch_7">
     <path d="M 368.403125 35.44 
L 372.403125 35.44 
Q 374.403125 35.44 374.403125 33.44 
L 374.403125 29.44 
Q 374.403125 27.44 372.403125 27.44 
L 368.403125 27.44 
Q 366.403125 27.44 366.403125 29.44 
L 366.403125 33.44 
Q 366.403125 35.44 368.403125 35.44 
z
" style="fill:#ffffff;opacity:0.8;stroke:#cccccc;stroke-linejoin:miter;"/>
    </g>
   </g>
  </g>
 </g>
 <defs>
  <clipPath id="p201eba1d3c">
   <rect height="217.44" width="334.8" x="44.603125" y="22.44"/>
  </clipPath>
 </defs>
</svg>
