<?xml version="1.0" encoding="utf-8" standalone="no"?>
<!DOCTYPE svg PUBLIC "-//W3C//DTD SVG 1.1//EN"
  "http://www.w3.org/Graphics/SVG/1.1/DTD/svg11.dtd">
<!-- Created with matplotlib (http://matplotlib.org/) -->
<svg height="325pt" version="1.1" viewBox="0 0 397 325" width="397pt" xmlns="http://www.w3.org/2000/svg" xmlns:xlink="http://www.w3.org/1999/xlink">
 <defs>
  <style type="text/css">
*{stroke-linecap:butt;stroke-linejoin:round;}
  </style>
 </defs>
 <g id="figure_1">
  <g id="patch_1">
   <path d="M 0 325.986375 
L 397.923125 325.986375 
L 397.923125 0 
L 0 0 
z
" style="fill:#ffffff;"/>
  </g>
  <g id="axes_1">
   <g id="patch_2">
    <path d="M 30.103125 288.430125 
L 387.223125 288.430125 
L 387.223125 22.318125 
L 30.103125 22.318125 
z
" style="fill:#ffffff;"/>
   </g>
   <g id="matplotlib.axis_1">
    <g id="xtick_1">
     <g id="line2d_1">
      <path clip-path="url(#paf3c4a86e0)" d="M 31.546466 288.430125 
L 31.546466 22.318125 
" style="fill:none;stroke:#b0b0b0;stroke-linecap:square;stroke-width:0.8;"/>
     </g>
     <g id="line2d_2">
      <defs>
       <path d="M 0 0 
L 0 3.5 
" id="m0f10484aac" style="stroke:#000000;stroke-width:0.8;"/>
      </defs>
      <g>
       <use style="stroke:#000000;stroke-width:0.8;" x="31.546466" xlink:href="#m0f10484aac" y="288.430125"/>
      </g>
     </g>
     <g id="text_1">
      <!-- 225 -->
      <defs>
       <path d="M 19.1875 8.296875 
L 53.609375 8.296875 
L 53.609375 0 
L 7.328125 0 
L 7.328125 8.296875 
Q 12.9375 14.109375 22.625 23.890625 
Q 32.328125 33.6875 34.8125 36.53125 
Q 39.546875 41.84375 41.421875 45.53125 
Q 43.3125 49.21875 43.3125 52.78125 
Q 43.3125 58.59375 39.234375 62.25 
Q 35.15625 65.921875 28.609375 65.921875 
Q 23.96875 65.921875 18.8125 64.3125 
Q 13.671875 62.703125 7.8125 59.421875 
L 7.8125 69.390625 
Q 13.765625 71.78125 18.9375 73 
Q 24.125 74.21875 28.421875 74.21875 
Q 39.75 74.21875 46.484375 68.546875 
Q 53.21875 62.890625 53.21875 53.421875 
Q 53.21875 48.921875 51.53125 44.890625 
Q 49.859375 40.875 45.40625 35.40625 
Q 44.1875 33.984375 37.640625 27.21875 
Q 31.109375 20.453125 19.1875 8.296875 
z
" id="DejaVuSans-32"/>
       <path d="M 10.796875 72.90625 
L 49.515625 72.90625 
L 49.515625 64.59375 
L 19.828125 64.59375 
L 19.828125 46.734375 
Q 21.96875 47.46875 24.109375 47.828125 
Q 26.265625 48.1875 28.421875 48.1875 
Q 40.625 48.1875 47.75 41.5 
Q 54.890625 34.8125 54.890625 23.390625 
Q 54.890625 11.625 47.5625 5.09375 
Q 40.234375 -1.421875 26.90625 -1.421875 
Q 22.3125 -1.421875 17.546875 -0.640625 
Q 12.796875 0.140625 7.71875 1.703125 
L 7.71875 11.625 
Q 12.109375 9.234375 16.796875 8.0625 
Q 21.484375 6.890625 26.703125 6.890625 
Q 35.15625 6.890625 40.078125 11.328125 
Q 45.015625 15.765625 45.015625 23.390625 
Q 45.015625 31 40.078125 35.4375 
Q 35.15625 39.890625 26.703125 39.890625 
Q 22.75 39.890625 18.8125 39.015625 
Q 14.890625 38.140625 10.796875 36.28125 
z
" id="DejaVuSans-35"/>
      </defs>
      <g transform="translate(22.002716 303.028562)scale(0.1 -0.1)">
       <use xlink:href="#DejaVuSans-32"/>
       <use x="63.623047" xlink:href="#DejaVuSans-32"/>
       <use x="127.246094" xlink:href="#DejaVuSans-35"/>
      </g>
     </g>
    </g>
    <g id="xtick_2">
     <g id="line2d_3">
      <path clip-path="url(#paf3c4a86e0)" d="M 71.998836 288.430125 
L 71.998836 22.318125 
" style="fill:none;stroke:#b0b0b0;stroke-linecap:square;stroke-width:0.8;"/>
     </g>
     <g id="line2d_4">
      <g>
       <use style="stroke:#000000;stroke-width:0.8;" x="71.998836" xlink:href="#m0f10484aac" y="288.430125"/>
      </g>
     </g>
     <g id="text_2">
      <!-- 250 -->
      <defs>
       <path d="M 31.78125 66.40625 
Q 24.171875 66.40625 20.328125 58.90625 
Q 16.5 51.421875 16.5 36.375 
Q 16.5 21.390625 20.328125 13.890625 
Q 24.171875 6.390625 31.78125 6.390625 
Q 39.453125 6.390625 43.28125 13.890625 
Q 47.125 21.390625 47.125 36.375 
Q 47.125 51.421875 43.28125 58.90625 
Q 39.453125 66.40625 31.78125 66.40625 
z
M 31.78125 74.21875 
Q 44.046875 74.21875 50.515625 64.515625 
Q 56.984375 54.828125 56.984375 36.375 
Q 56.984375 17.96875 50.515625 8.265625 
Q 44.046875 -1.421875 31.78125 -1.421875 
Q 19.53125 -1.421875 13.0625 8.265625 
Q 6.59375 17.96875 6.59375 36.375 
Q 6.59375 54.828125 13.0625 64.515625 
Q 19.53125 74.21875 31.78125 74.21875 
z
" id="DejaVuSans-30"/>
      </defs>
      <g transform="translate(62.455086 303.028562)scale(0.1 -0.1)">
       <use xlink:href="#DejaVuSans-32"/>
       <use x="63.623047" xlink:href="#DejaVuSans-35"/>
       <use x="127.246094" xlink:href="#DejaVuSans-30"/>
      </g>
     </g>
    </g>
    <g id="xtick_3">
     <g id="line2d_5">
      <path clip-path="url(#paf3c4a86e0)" d="M 112.451207 288.430125 
L 112.451207 22.318125 
" style="fill:none;stroke:#b0b0b0;stroke-linecap:square;stroke-width:0.8;"/>
     </g>
     <g id="line2d_6">
      <g>
       <use style="stroke:#000000;stroke-width:0.8;" x="112.451207" xlink:href="#m0f10484aac" y="288.430125"/>
      </g>
     </g>
     <g id="text_3">
      <!-- 275 -->
      <defs>
       <path d="M 8.203125 72.90625 
L 55.078125 72.90625 
L 55.078125 68.703125 
L 28.609375 0 
L 18.3125 0 
L 43.21875 64.59375 
L 8.203125 64.59375 
z
" id="DejaVuSans-37"/>
      </defs>
      <g transform="translate(102.907457 303.028562)scale(0.1 -0.1)">
       <use xlink:href="#DejaVuSans-32"/>
       <use x="63.623047" xlink:href="#DejaVuSans-37"/>
       <use x="127.246094" xlink:href="#DejaVuSans-35"/>
      </g>
     </g>
    </g>
    <g id="xtick_4">
     <g id="line2d_7">
      <path clip-path="url(#paf3c4a86e0)" d="M 152.903577 288.430125 
L 152.903577 22.318125 
" style="fill:none;stroke:#b0b0b0;stroke-linecap:square;stroke-width:0.8;"/>
     </g>
     <g id="line2d_8">
      <g>
       <use style="stroke:#000000;stroke-width:0.8;" x="152.903577" xlink:href="#m0f10484aac" y="288.430125"/>
      </g>
     </g>
     <g id="text_4">
      <!-- 300 -->
      <defs>
       <path d="M 40.578125 39.3125 
Q 47.65625 37.796875 51.625 33 
Q 55.609375 28.21875 55.609375 21.1875 
Q 55.609375 10.40625 48.1875 4.484375 
Q 40.765625 -1.421875 27.09375 -1.421875 
Q 22.515625 -1.421875 17.65625 -0.515625 
Q 12.796875 0.390625 7.625 2.203125 
L 7.625 11.71875 
Q 11.71875 9.328125 16.59375 8.109375 
Q 21.484375 6.890625 26.8125 6.890625 
Q 36.078125 6.890625 40.9375 10.546875 
Q 45.796875 14.203125 45.796875 21.1875 
Q 45.796875 27.640625 41.28125 31.265625 
Q 36.765625 34.90625 28.71875 34.90625 
L 20.21875 34.90625 
L 20.21875 43.015625 
L 29.109375 43.015625 
Q 36.375 43.015625 40.234375 45.921875 
Q 44.09375 48.828125 44.09375 54.296875 
Q 44.09375 59.90625 40.109375 62.90625 
Q 36.140625 65.921875 28.71875 65.921875 
Q 24.65625 65.921875 20.015625 65.03125 
Q 15.375 64.15625 9.8125 62.3125 
L 9.8125 71.09375 
Q 15.4375 72.65625 20.34375 73.4375 
Q 25.25 74.21875 29.59375 74.21875 
Q 40.828125 74.21875 47.359375 69.109375 
Q 53.90625 64.015625 53.90625 55.328125 
Q 53.90625 49.265625 50.4375 45.09375 
Q 46.96875 40.921875 40.578125 39.3125 
z
" id="DejaVuSans-33"/>
      </defs>
      <g transform="translate(143.359827 303.028562)scale(0.1 -0.1)">
       <use xlink:href="#DejaVuSans-33"/>
       <use x="63.623047" xlink:href="#DejaVuSans-30"/>
       <use x="127.246094" xlink:href="#DejaVuSans-30"/>
      </g>
     </g>
    </g>
    <g id="xtick_5">
     <g id="line2d_9">
      <path clip-path="url(#paf3c4a86e0)" d="M 193.355948 288.430125 
L 193.355948 22.318125 
" style="fill:none;stroke:#b0b0b0;stroke-linecap:square;stroke-width:0.8;"/>
     </g>
     <g id="line2d_10">
      <g>
       <use style="stroke:#000000;stroke-width:0.8;" x="193.355948" xlink:href="#m0f10484aac" y="288.430125"/>
      </g>
     </g>
     <g id="text_5">
      <!-- 325 -->
      <g transform="translate(183.812198 303.028562)scale(0.1 -0.1)">
       <use xlink:href="#DejaVuSans-33"/>
       <use x="63.623047" xlink:href="#DejaVuSans-32"/>
       <use x="127.246094" xlink:href="#DejaVuSans-35"/>
      </g>
     </g>
    </g>
    <g id="xtick_6">
     <g id="line2d_11">
      <path clip-path="url(#paf3c4a86e0)" d="M 233.808319 288.430125 
L 233.808319 22.318125 
" style="fill:none;stroke:#b0b0b0;stroke-linecap:square;stroke-width:0.8;"/>
     </g>
     <g id="line2d_12">
      <g>
       <use style="stroke:#000000;stroke-width:0.8;" x="233.808319" xlink:href="#m0f10484aac" y="288.430125"/>
      </g>
     </g>
     <g id="text_6">
      <!-- 350 -->
      <g transform="translate(224.264569 303.028562)scale(0.1 -0.1)">
       <use xlink:href="#DejaVuSans-33"/>
       <use x="63.623047" xlink:href="#DejaVuSans-35"/>
       <use x="127.246094" xlink:href="#DejaVuSans-30"/>
      </g>
     </g>
    </g>
    <g id="xtick_7">
     <g id="line2d_13">
      <path clip-path="url(#paf3c4a86e0)" d="M 274.260689 288.430125 
L 274.260689 22.318125 
" style="fill:none;stroke:#b0b0b0;stroke-linecap:square;stroke-width:0.8;"/>
     </g>
     <g id="line2d_14">
      <g>
       <use style="stroke:#000000;stroke-width:0.8;" x="274.260689" xlink:href="#m0f10484aac" y="288.430125"/>
      </g>
     </g>
     <g id="text_7">
      <!-- 375 -->
      <g transform="translate(264.716939 303.028562)scale(0.1 -0.1)">
       <use xlink:href="#DejaVuSans-33"/>
       <use x="63.623047" xlink:href="#DejaVuSans-37"/>
       <use x="127.246094" xlink:href="#DejaVuSans-35"/>
      </g>
     </g>
    </g>
    <g id="xtick_8">
     <g id="line2d_15">
      <path clip-path="url(#paf3c4a86e0)" d="M 314.71306 288.430125 
L 314.71306 22.318125 
" style="fill:none;stroke:#b0b0b0;stroke-linecap:square;stroke-width:0.8;"/>
     </g>
     <g id="line2d_16">
      <g>
       <use style="stroke:#000000;stroke-width:0.8;" x="314.71306" xlink:href="#m0f10484aac" y="288.430125"/>
      </g>
     </g>
     <g id="text_8">
      <!-- 400 -->
      <defs>
       <path d="M 37.796875 64.3125 
L 12.890625 25.390625 
L 37.796875 25.390625 
z
M 35.203125 72.90625 
L 47.609375 72.90625 
L 47.609375 25.390625 
L 58.015625 25.390625 
L 58.015625 17.1875 
L 47.609375 17.1875 
L 47.609375 0 
L 37.796875 0 
L 37.796875 17.1875 
L 4.890625 17.1875 
L 4.890625 26.703125 
z
" id="DejaVuSans-34"/>
      </defs>
      <g transform="translate(305.16931 303.028562)scale(0.1 -0.1)">
       <use xlink:href="#DejaVuSans-34"/>
       <use x="63.623047" xlink:href="#DejaVuSans-30"/>
       <use x="127.246094" xlink:href="#DejaVuSans-30"/>
      </g>
     </g>
    </g>
    <g id="xtick_9">
     <g id="line2d_17">
      <path clip-path="url(#paf3c4a86e0)" d="M 355.16543 288.430125 
L 355.16543 22.318125 
" style="fill:none;stroke:#b0b0b0;stroke-linecap:square;stroke-width:0.8;"/>
     </g>
     <g id="line2d_18">
      <g>
       <use style="stroke:#000000;stroke-width:0.8;" x="355.16543" xlink:href="#m0f10484aac" y="288.430125"/>
      </g>
     </g>
     <g id="text_9">
      <!-- 425 -->
      <g transform="translate(345.62168 303.028562)scale(0.1 -0.1)">
       <use xlink:href="#DejaVuSans-34"/>
       <use x="63.623047" xlink:href="#DejaVuSans-32"/>
       <use x="127.246094" xlink:href="#DejaVuSans-35"/>
      </g>
     </g>
    </g>
    <g id="text_10">
     <!-- Temperatur [K] -->
     <defs>
      <path d="M -0.296875 72.90625 
L 61.375 72.90625 
L 61.375 64.59375 
L 35.5 64.59375 
L 35.5 0 
L 25.59375 0 
L 25.59375 64.59375 
L -0.296875 64.59375 
z
" id="DejaVuSans-54"/>
      <path d="M 56.203125 29.59375 
L 56.203125 25.203125 
L 14.890625 25.203125 
Q 15.484375 15.921875 20.484375 11.0625 
Q 25.484375 6.203125 34.421875 6.203125 
Q 39.59375 6.203125 44.453125 7.46875 
Q 49.3125 8.734375 54.109375 11.28125 
L 54.109375 2.78125 
Q 49.265625 0.734375 44.1875 -0.34375 
Q 39.109375 -1.421875 33.890625 -1.421875 
Q 20.796875 -1.421875 13.15625 6.1875 
Q 5.515625 13.8125 5.515625 26.8125 
Q 5.515625 40.234375 12.765625 48.109375 
Q 20.015625 56 32.328125 56 
Q 43.359375 56 49.78125 48.890625 
Q 56.203125 41.796875 56.203125 29.59375 
z
M 47.21875 32.234375 
Q 47.125 39.59375 43.09375 43.984375 
Q 39.0625 48.390625 32.421875 48.390625 
Q 24.90625 48.390625 20.390625 44.140625 
Q 15.875 39.890625 15.1875 32.171875 
z
" id="DejaVuSans-65"/>
      <path d="M 52 44.1875 
Q 55.375 50.25 60.0625 53.125 
Q 64.75 56 71.09375 56 
Q 79.640625 56 84.28125 50.015625 
Q 88.921875 44.046875 88.921875 33.015625 
L 88.921875 0 
L 79.890625 0 
L 79.890625 32.71875 
Q 79.890625 40.578125 77.09375 44.375 
Q 74.3125 48.1875 68.609375 48.1875 
Q 61.625 48.1875 57.5625 43.546875 
Q 53.515625 38.921875 53.515625 30.90625 
L 53.515625 0 
L 44.484375 0 
L 44.484375 32.71875 
Q 44.484375 40.625 41.703125 44.40625 
Q 38.921875 48.1875 33.109375 48.1875 
Q 26.21875 48.1875 22.15625 43.53125 
Q 18.109375 38.875 18.109375 30.90625 
L 18.109375 0 
L 9.078125 0 
L 9.078125 54.6875 
L 18.109375 54.6875 
L 18.109375 46.1875 
Q 21.1875 51.21875 25.484375 53.609375 
Q 29.78125 56 35.6875 56 
Q 41.65625 56 45.828125 52.96875 
Q 50 49.953125 52 44.1875 
z
" id="DejaVuSans-6d"/>
      <path d="M 18.109375 8.203125 
L 18.109375 -20.796875 
L 9.078125 -20.796875 
L 9.078125 54.6875 
L 18.109375 54.6875 
L 18.109375 46.390625 
Q 20.953125 51.265625 25.265625 53.625 
Q 29.59375 56 35.59375 56 
Q 45.5625 56 51.78125 48.09375 
Q 58.015625 40.1875 58.015625 27.296875 
Q 58.015625 14.40625 51.78125 6.484375 
Q 45.5625 -1.421875 35.59375 -1.421875 
Q 29.59375 -1.421875 25.265625 0.953125 
Q 20.953125 3.328125 18.109375 8.203125 
z
M 48.6875 27.296875 
Q 48.6875 37.203125 44.609375 42.84375 
Q 40.53125 48.484375 33.40625 48.484375 
Q 26.265625 48.484375 22.1875 42.84375 
Q 18.109375 37.203125 18.109375 27.296875 
Q 18.109375 17.390625 22.1875 11.75 
Q 26.265625 6.109375 33.40625 6.109375 
Q 40.53125 6.109375 44.609375 11.75 
Q 48.6875 17.390625 48.6875 27.296875 
z
" id="DejaVuSans-70"/>
      <path d="M 41.109375 46.296875 
Q 39.59375 47.171875 37.8125 47.578125 
Q 36.03125 48 33.890625 48 
Q 26.265625 48 22.1875 43.046875 
Q 18.109375 38.09375 18.109375 28.8125 
L 18.109375 0 
L 9.078125 0 
L 9.078125 54.6875 
L 18.109375 54.6875 
L 18.109375 46.1875 
Q 20.953125 51.171875 25.484375 53.578125 
Q 30.03125 56 36.53125 56 
Q 37.453125 56 38.578125 55.875 
Q 39.703125 55.765625 41.0625 55.515625 
z
" id="DejaVuSans-72"/>
      <path d="M 34.28125 27.484375 
Q 23.390625 27.484375 19.1875 25 
Q 14.984375 22.515625 14.984375 16.5 
Q 14.984375 11.71875 18.140625 8.90625 
Q 21.296875 6.109375 26.703125 6.109375 
Q 34.1875 6.109375 38.703125 11.40625 
Q 43.21875 16.703125 43.21875 25.484375 
L 43.21875 27.484375 
z
M 52.203125 31.203125 
L 52.203125 0 
L 43.21875 0 
L 43.21875 8.296875 
Q 40.140625 3.328125 35.546875 0.953125 
Q 30.953125 -1.421875 24.3125 -1.421875 
Q 15.921875 -1.421875 10.953125 3.296875 
Q 6 8.015625 6 15.921875 
Q 6 25.140625 12.171875 29.828125 
Q 18.359375 34.515625 30.609375 34.515625 
L 43.21875 34.515625 
L 43.21875 35.40625 
Q 43.21875 41.609375 39.140625 45 
Q 35.0625 48.390625 27.6875 48.390625 
Q 23 48.390625 18.546875 47.265625 
Q 14.109375 46.140625 10.015625 43.890625 
L 10.015625 52.203125 
Q 14.9375 54.109375 19.578125 55.046875 
Q 24.21875 56 28.609375 56 
Q 40.484375 56 46.34375 49.84375 
Q 52.203125 43.703125 52.203125 31.203125 
z
" id="DejaVuSans-61"/>
      <path d="M 18.3125 70.21875 
L 18.3125 54.6875 
L 36.8125 54.6875 
L 36.8125 47.703125 
L 18.3125 47.703125 
L 18.3125 18.015625 
Q 18.3125 11.328125 20.140625 9.421875 
Q 21.96875 7.515625 27.59375 7.515625 
L 36.8125 7.515625 
L 36.8125 0 
L 27.59375 0 
Q 17.1875 0 13.234375 3.875 
Q 9.28125 7.765625 9.28125 18.015625 
L 9.28125 47.703125 
L 2.6875 47.703125 
L 2.6875 54.6875 
L 9.28125 54.6875 
L 9.28125 70.21875 
z
" id="DejaVuSans-74"/>
      <path d="M 8.5 21.578125 
L 8.5 54.6875 
L 17.484375 54.6875 
L 17.484375 21.921875 
Q 17.484375 14.15625 20.5 10.265625 
Q 23.53125 6.390625 29.59375 6.390625 
Q 36.859375 6.390625 41.078125 11.03125 
Q 45.3125 15.671875 45.3125 23.6875 
L 45.3125 54.6875 
L 54.296875 54.6875 
L 54.296875 0 
L 45.3125 0 
L 45.3125 8.40625 
Q 42.046875 3.421875 37.71875 1 
Q 33.40625 -1.421875 27.6875 -1.421875 
Q 18.265625 -1.421875 13.375 4.4375 
Q 8.5 10.296875 8.5 21.578125 
z
M 31.109375 56 
z
" id="DejaVuSans-75"/>
      <path id="DejaVuSans-20"/>
      <path d="M 8.59375 75.984375 
L 29.296875 75.984375 
L 29.296875 69 
L 17.578125 69 
L 17.578125 -6.203125 
L 29.296875 -6.203125 
L 29.296875 -13.1875 
L 8.59375 -13.1875 
z
" id="DejaVuSans-5b"/>
      <path d="M 9.8125 72.90625 
L 19.671875 72.90625 
L 19.671875 42.09375 
L 52.390625 72.90625 
L 65.09375 72.90625 
L 28.90625 38.921875 
L 67.671875 0 
L 54.6875 0 
L 19.671875 35.109375 
L 19.671875 0 
L 9.8125 0 
z
" id="DejaVuSans-4b"/>
      <path d="M 30.421875 75.984375 
L 30.421875 -13.1875 
L 9.71875 -13.1875 
L 9.71875 -6.203125 
L 21.390625 -6.203125 
L 21.390625 69 
L 9.71875 69 
L 9.71875 75.984375 
z
" id="DejaVuSans-5d"/>
     </defs>
     <g transform="translate(170.351406 316.706687)scale(0.1 -0.1)">
      <use xlink:href="#DejaVuSans-54"/>
      <use x="60.818359" xlink:href="#DejaVuSans-65"/>
      <use x="122.341797" xlink:href="#DejaVuSans-6d"/>
      <use x="219.753906" xlink:href="#DejaVuSans-70"/>
      <use x="283.230469" xlink:href="#DejaVuSans-65"/>
      <use x="344.753906" xlink:href="#DejaVuSans-72"/>
      <use x="385.867188" xlink:href="#DejaVuSans-61"/>
      <use x="447.146484" xlink:href="#DejaVuSans-74"/>
      <use x="486.355469" xlink:href="#DejaVuSans-75"/>
      <use x="549.734375" xlink:href="#DejaVuSans-72"/>
      <use x="590.847656" xlink:href="#DejaVuSans-20"/>
      <use x="622.634766" xlink:href="#DejaVuSans-5b"/>
      <use x="661.648438" xlink:href="#DejaVuSans-4b"/>
      <use x="727.224609" xlink:href="#DejaVuSans-5d"/>
     </g>
    </g>
   </g>
   <g id="matplotlib.axis_2">
    <g id="ytick_1">
     <g id="line2d_19">
      <path clip-path="url(#paf3c4a86e0)" d="M 30.103125 265.922544 
L 387.223125 265.922544 
" style="fill:none;stroke:#b0b0b0;stroke-linecap:square;stroke-width:0.8;"/>
     </g>
     <g id="line2d_20">
      <defs>
       <path d="M 0 0 
L -3.5 0 
" id="m2531407c38" style="stroke:#000000;stroke-width:0.8;"/>
      </defs>
      <g>
       <use style="stroke:#000000;stroke-width:0.8;" x="30.103125" xlink:href="#m2531407c38" y="265.922544"/>
      </g>
     </g>
     <g id="text_11">
      <!-- 0.0 -->
      <defs>
       <path d="M 10.6875 12.40625 
L 21 12.40625 
L 21 0 
L 10.6875 0 
z
" id="DejaVuSans-2e"/>
      </defs>
      <g transform="translate(7.2 269.721763)scale(0.1 -0.1)">
       <use xlink:href="#DejaVuSans-30"/>
       <use x="63.623047" xlink:href="#DejaVuSans-2e"/>
       <use x="95.410156" xlink:href="#DejaVuSans-30"/>
      </g>
     </g>
    </g>
    <g id="ytick_2">
     <g id="line2d_21">
      <path clip-path="url(#paf3c4a86e0)" d="M 30.103125 222.393931 
L 387.223125 222.393931 
" style="fill:none;stroke:#b0b0b0;stroke-linecap:square;stroke-width:0.8;"/>
     </g>
     <g id="line2d_22">
      <g>
       <use style="stroke:#000000;stroke-width:0.8;" x="30.103125" xlink:href="#m2531407c38" y="222.393931"/>
      </g>
     </g>
     <g id="text_12">
      <!-- 0.5 -->
      <g transform="translate(7.2 226.193149)scale(0.1 -0.1)">
       <use xlink:href="#DejaVuSans-30"/>
       <use x="63.623047" xlink:href="#DejaVuSans-2e"/>
       <use x="95.410156" xlink:href="#DejaVuSans-35"/>
      </g>
     </g>
    </g>
    <g id="ytick_3">
     <g id="line2d_23">
      <path clip-path="url(#paf3c4a86e0)" d="M 30.103125 178.865317 
L 387.223125 178.865317 
" style="fill:none;stroke:#b0b0b0;stroke-linecap:square;stroke-width:0.8;"/>
     </g>
     <g id="line2d_24">
      <g>
       <use style="stroke:#000000;stroke-width:0.8;" x="30.103125" xlink:href="#m2531407c38" y="178.865317"/>
      </g>
     </g>
     <g id="text_13">
      <!-- 1.0 -->
      <defs>
       <path d="M 12.40625 8.296875 
L 28.515625 8.296875 
L 28.515625 63.921875 
L 10.984375 60.40625 
L 10.984375 69.390625 
L 28.421875 72.90625 
L 38.28125 72.90625 
L 38.28125 8.296875 
L 54.390625 8.296875 
L 54.390625 0 
L 12.40625 0 
z
" id="DejaVuSans-31"/>
      </defs>
      <g transform="translate(7.2 182.664536)scale(0.1 -0.1)">
       <use xlink:href="#DejaVuSans-31"/>
       <use x="63.623047" xlink:href="#DejaVuSans-2e"/>
       <use x="95.410156" xlink:href="#DejaVuSans-30"/>
      </g>
     </g>
    </g>
    <g id="ytick_4">
     <g id="line2d_25">
      <path clip-path="url(#paf3c4a86e0)" d="M 30.103125 135.336704 
L 387.223125 135.336704 
" style="fill:none;stroke:#b0b0b0;stroke-linecap:square;stroke-width:0.8;"/>
     </g>
     <g id="line2d_26">
      <g>
       <use style="stroke:#000000;stroke-width:0.8;" x="30.103125" xlink:href="#m2531407c38" y="135.336704"/>
      </g>
     </g>
     <g id="text_14">
      <!-- 1.5 -->
      <g transform="translate(7.2 139.135923)scale(0.1 -0.1)">
       <use xlink:href="#DejaVuSans-31"/>
       <use x="63.623047" xlink:href="#DejaVuSans-2e"/>
       <use x="95.410156" xlink:href="#DejaVuSans-35"/>
      </g>
     </g>
    </g>
    <g id="ytick_5">
     <g id="line2d_27">
      <path clip-path="url(#paf3c4a86e0)" d="M 30.103125 91.808091 
L 387.223125 91.808091 
" style="fill:none;stroke:#b0b0b0;stroke-linecap:square;stroke-width:0.8;"/>
     </g>
     <g id="line2d_28">
      <g>
       <use style="stroke:#000000;stroke-width:0.8;" x="30.103125" xlink:href="#m2531407c38" y="91.808091"/>
      </g>
     </g>
     <g id="text_15">
      <!-- 2.0 -->
      <g transform="translate(7.2 95.607309)scale(0.1 -0.1)">
       <use xlink:href="#DejaVuSans-32"/>
       <use x="63.623047" xlink:href="#DejaVuSans-2e"/>
       <use x="95.410156" xlink:href="#DejaVuSans-30"/>
      </g>
     </g>
    </g>
    <g id="ytick_6">
     <g id="line2d_29">
      <path clip-path="url(#paf3c4a86e0)" d="M 30.103125 48.279477 
L 387.223125 48.279477 
" style="fill:none;stroke:#b0b0b0;stroke-linecap:square;stroke-width:0.8;"/>
     </g>
     <g id="line2d_30">
      <g>
       <use style="stroke:#000000;stroke-width:0.8;" x="30.103125" xlink:href="#m2531407c38" y="48.279477"/>
      </g>
     </g>
     <g id="text_16">
      <!-- 2.5 -->
      <g transform="translate(7.2 52.078696)scale(0.1 -0.1)">
       <use xlink:href="#DejaVuSans-32"/>
       <use x="63.623047" xlink:href="#DejaVuSans-2e"/>
       <use x="95.410156" xlink:href="#DejaVuSans-35"/>
      </g>
     </g>
    </g>
   </g>
   <g id="LineCollection_1">
    <path clip-path="url(#paf3c4a86e0)" d="M 46.335852 185.144826 
L 46.335852 173.861307 
" style="fill:none;stroke:#1f77b4;stroke-width:1.5;"/>
    <path clip-path="url(#paf3c4a86e0)" d="M 61.044334 186.620139 
L 61.044334 178.244736 
" style="fill:none;stroke:#1f77b4;stroke-width:1.5;"/>
    <path clip-path="url(#paf3c4a86e0)" d="M 76.448597 184.046417 
L 76.448597 173.308654 
" style="fill:none;stroke:#1f77b4;stroke-width:1.5;"/>
    <path clip-path="url(#paf3c4a86e0)" d="M 91.820498 181.058356 
L 91.820498 167.733011 
" style="fill:none;stroke:#1f77b4;stroke-width:1.5;"/>
    <path clip-path="url(#paf3c4a86e0)" d="M 107.257122 179.208816 
L 107.257122 166.519851 
" style="fill:none;stroke:#1f77b4;stroke-width:1.5;"/>
    <path clip-path="url(#paf3c4a86e0)" d="M 122.709928 180.566427 
L 122.709928 168.027648 
" style="fill:none;stroke:#1f77b4;stroke-width:1.5;"/>
   </g>
   <g id="LineCollection_2">
    <path clip-path="url(#paf3c4a86e0)" d="M 154.052425 181.403755 
L 154.052425 168.652599 
" style="fill:none;stroke:#ff7f0e;stroke-width:1.5;"/>
    <path clip-path="url(#paf3c4a86e0)" d="M 169.116888 175.062578 
L 169.116888 162.306969 
" style="fill:none;stroke:#ff7f0e;stroke-width:1.5;"/>
   </g>
   <g id="LineCollection_3">
    <path clip-path="url(#paf3c4a86e0)" d="M 370.990398 124.320528 
L 370.990398 97.671352 
" style="fill:none;stroke:#2ca02c;stroke-width:1.5;"/>
    <path clip-path="url(#paf3c4a86e0)" d="M 363.547162 129.71642 
L 363.547162 92.155875 
" style="fill:none;stroke:#2ca02c;stroke-width:1.5;"/>
    <path clip-path="url(#paf3c4a86e0)" d="M 355.84503 151.637471 
L 355.84503 92.516417 
" style="fill:none;stroke:#2ca02c;stroke-width:1.5;"/>
    <path clip-path="url(#paf3c4a86e0)" d="M 348.126718 173.070469 
L 348.126718 88.52738 
" style="fill:none;stroke:#2ca02c;stroke-width:1.5;"/>
    <path clip-path="url(#paf3c4a86e0)" d="M 340.343682 197.123224 
L 340.343682 34.414125 
" style="fill:none;stroke:#2ca02c;stroke-width:1.5;"/>
    <path clip-path="url(#paf3c4a86e0)" d="M 332.593008 245.075839 
L 332.593008 51.154047 
" style="fill:none;stroke:#2ca02c;stroke-width:1.5;"/>
    <path clip-path="url(#paf3c4a86e0)" d="M 324.826152 276.334125 
L 324.826152 82.970859 
" style="fill:none;stroke:#2ca02c;stroke-width:1.5;"/>
    <path clip-path="url(#paf3c4a86e0)" d="M 316.994573 271.524252 
L 316.994573 129.640767 
" style="fill:none;stroke:#2ca02c;stroke-width:1.5;"/>
    <path clip-path="url(#paf3c4a86e0)" d="M 309.308623 199.446275 
L 309.308623 99.177555 
" style="fill:none;stroke:#2ca02c;stroke-width:1.5;"/>
    <path clip-path="url(#paf3c4a86e0)" d="M 301.606492 176.107447 
L 301.606492 104.740112 
" style="fill:none;stroke:#2ca02c;stroke-width:1.5;"/>
    <path clip-path="url(#paf3c4a86e0)" d="M 293.888179 143.035286 
L 293.888179 102.671817 
" style="fill:none;stroke:#2ca02c;stroke-width:1.5;"/>
    <path clip-path="url(#paf3c4a86e0)" d="M 286.169867 132.257753 
L 286.169867 105.154413 
" style="fill:none;stroke:#2ca02c;stroke-width:1.5;"/>
    <path clip-path="url(#paf3c4a86e0)" d="M 278.54864 145.050811 
L 278.54864 128.965236 
" style="fill:none;stroke:#2ca02c;stroke-width:1.5;"/>
    <path clip-path="url(#paf3c4a86e0)" d="M 278.338288 148.555807 
L 278.338288 136.785935 
" style="fill:none;stroke:#2ca02c;stroke-width:1.5;"/>
    <path clip-path="url(#paf3c4a86e0)" d="M 270.6847 150.897739 
L 270.6847 140.839048 
" style="fill:none;stroke:#2ca02c;stroke-width:1.5;"/>
    <path clip-path="url(#paf3c4a86e0)" d="M 262.934025 147.714691 
L 262.934025 134.111983 
" style="fill:none;stroke:#2ca02c;stroke-width:1.5;"/>
    <path clip-path="url(#paf3c4a86e0)" d="M 255.199532 135.149424 
L 255.199532 111.504089 
" style="fill:none;stroke:#2ca02c;stroke-width:1.5;"/>
    <path clip-path="url(#paf3c4a86e0)" d="M 247.384134 117.368047 
L 247.384134 83.935788 
" style="fill:none;stroke:#2ca02c;stroke-width:1.5;"/>
   </g>
   <g id="LineCollection_4">
    <path clip-path="url(#paf3c4a86e0)" d="M 278.483917 162.904191 
L 278.483917 150.956899 
" style="fill:none;stroke:#d62728;stroke-width:1.5;"/>
    <path clip-path="url(#paf3c4a86e0)" d="M 272.318975 156.332448 
L 272.318975 145.677741 
" style="fill:none;stroke:#d62728;stroke-width:1.5;"/>
    <path clip-path="url(#paf3c4a86e0)" d="M 267.642681 159.045604 
L 267.642681 147.987586 
" style="fill:none;stroke:#d62728;stroke-width:1.5;"/>
    <path clip-path="url(#paf3c4a86e0)" d="M 262.982568 161.999673 
L 262.982568 149.315952 
" style="fill:none;stroke:#d62728;stroke-width:1.5;"/>
    <path clip-path="url(#paf3c4a86e0)" d="M 259.843464 161.958731 
L 259.843464 145.042299 
" style="fill:none;stroke:#d62728;stroke-width:1.5;"/>
    <path clip-path="url(#paf3c4a86e0)" d="M 256.736722 171.510997 
L 256.736722 151.302546 
" style="fill:none;stroke:#d62728;stroke-width:1.5;"/>
    <path clip-path="url(#paf3c4a86e0)" d="M 253.62998 184.15974 
L 253.62998 160.155364 
" style="fill:none;stroke:#d62728;stroke-width:1.5;"/>
    <path clip-path="url(#paf3c4a86e0)" d="M 250.490876 156.816643 
L 250.490876 123.288675 
" style="fill:none;stroke:#d62728;stroke-width:1.5;"/>
    <path clip-path="url(#paf3c4a86e0)" d="M 247.351772 165.58286 
L 247.351772 134.223632 
" style="fill:none;stroke:#d62728;stroke-width:1.5;"/>
    <path clip-path="url(#paf3c4a86e0)" d="M 242.756383 176.630326 
L 242.756383 149.426036 
" style="fill:none;stroke:#d62728;stroke-width:1.5;"/>
    <path clip-path="url(#paf3c4a86e0)" d="M 238.112451 197.632677 
L 238.112451 178.952002 
" style="fill:none;stroke:#d62728;stroke-width:1.5;"/>
    <path clip-path="url(#paf3c4a86e0)" d="M 233.468519 193.684021 
L 233.468519 176.121692 
" style="fill:none;stroke:#d62728;stroke-width:1.5;"/>
    <path clip-path="url(#paf3c4a86e0)" d="M 228.824587 197.761627 
L 228.824587 180.745697 
" style="fill:none;stroke:#d62728;stroke-width:1.5;"/>
    <path clip-path="url(#paf3c4a86e0)" d="M 224.196835 206.127257 
L 224.196835 182.332892 
" style="fill:none;stroke:#d62728;stroke-width:1.5;"/>
    <path clip-path="url(#paf3c4a86e0)" d="M 228.792225 195.638783 
L 228.792225 187.262582 
" style="fill:none;stroke:#d62728;stroke-width:1.5;"/>
    <path clip-path="url(#paf3c4a86e0)" d="M 219.552903 193.824677 
L 219.552903 188.575797 
" style="fill:none;stroke:#d62728;stroke-width:1.5;"/>
   </g>
   <g id="LineCollection_5">
    <path clip-path="url(#paf3c4a86e0)" d="M 107.791094 175.532898 
L 107.791094 173.259829 
" style="fill:none;stroke:#9467bd;stroke-width:1.5;"/>
    <path clip-path="url(#paf3c4a86e0)" d="M 122.968823 174.914782 
L 122.968823 172.576347 
" style="fill:none;stroke:#9467bd;stroke-width:1.5;"/>
    <path clip-path="url(#paf3c4a86e0)" d="M 138.502533 174.119982 
L 138.502533 171.526798 
" style="fill:none;stroke:#9467bd;stroke-width:1.5;"/>
    <path clip-path="url(#paf3c4a86e0)" d="M 153.97152 175.173789 
L 153.97152 172.593032 
" style="fill:none;stroke:#9467bd;stroke-width:1.5;"/>
    <path clip-path="url(#paf3c4a86e0)" d="M 169.489049 179.826775 
L 169.489049 178.044048 
" style="fill:none;stroke:#9467bd;stroke-width:1.5;"/>
    <path clip-path="url(#paf3c4a86e0)" d="M 184.941855 180.431335 
L 184.941855 178.543221 
" style="fill:none;stroke:#9467bd;stroke-width:1.5;"/>
    <path clip-path="url(#paf3c4a86e0)" d="M 200.507927 184.433341 
L 200.507927 182.133352 
" style="fill:none;stroke:#9467bd;stroke-width:1.5;"/>
   </g>
   <g id="LineCollection_6">
    <path clip-path="url(#paf3c4a86e0)" d="M 161.932546 180.555597 
L 161.932546 178.459068 
" style="fill:none;stroke:#8c564b;stroke-width:1.5;"/>
    <path clip-path="url(#paf3c4a86e0)" d="M 169.456687 180.855492 
L 169.456687 178.709626 
" style="fill:none;stroke:#8c564b;stroke-width:1.5;"/>
    <path clip-path="url(#paf3c4a86e0)" d="M 177.142638 179.830236 
L 177.142638 177.681753 
" style="fill:none;stroke:#8c564b;stroke-width:1.5;"/>
    <path clip-path="url(#paf3c4a86e0)" d="M 184.974217 182.886874 
L 184.974217 180.657605 
" style="fill:none;stroke:#8c564b;stroke-width:1.5;"/>
    <path clip-path="url(#paf3c4a86e0)" d="M 192.741072 181.694507 
L 192.741072 179.492677 
" style="fill:none;stroke:#8c564b;stroke-width:1.5;"/>
    <path clip-path="url(#paf3c4a86e0)" d="M 200.491746 184.049237 
L 200.491746 181.609061 
" style="fill:none;stroke:#8c564b;stroke-width:1.5;"/>
    <path clip-path="url(#paf3c4a86e0)" d="M 208.274782 185.110952 
L 208.274782 182.428088 
" style="fill:none;stroke:#8c564b;stroke-width:1.5;"/>
    <path clip-path="url(#paf3c4a86e0)" d="M 216.041637 187.216779 
L 216.041637 182.896878 
" style="fill:none;stroke:#8c564b;stroke-width:1.5;"/>
    <path clip-path="url(#paf3c4a86e0)" d="M 223.743769 193.88304 
L 223.743769 188.221359 
" style="fill:none;stroke:#8c564b;stroke-width:1.5;"/>
   </g>
   <g id="LineCollection_7">
    <path clip-path="url(#paf3c4a86e0)" d="M 161.932546 179.83346 
L 161.932546 177.91529 
" style="fill:none;stroke:#e377c2;stroke-width:1.5;"/>
    <path clip-path="url(#paf3c4a86e0)" d="M 169.424326 180.986941 
L 169.424326 179.105116 
" style="fill:none;stroke:#e377c2;stroke-width:1.5;"/>
    <path clip-path="url(#paf3c4a86e0)" d="M 177.158819 179.304107 
L 177.158819 177.107243 
" style="fill:none;stroke:#e377c2;stroke-width:1.5;"/>
    <path clip-path="url(#paf3c4a86e0)" d="M 184.974217 179.193229 
L 184.974217 176.906851 
" style="fill:none;stroke:#e377c2;stroke-width:1.5;"/>
    <path clip-path="url(#paf3c4a86e0)" d="M 192.741072 180.836616 
L 192.741072 178.728 
" style="fill:none;stroke:#e377c2;stroke-width:1.5;"/>
   </g>
   <g id="line2d_31">
    <defs>
     <path d="M -3 3 
L 3 -3 
M -3 -3 
L 3 3 
" id="m04e3f46b3e" style="stroke:#1f77b4;"/>
    </defs>
    <g clip-path="url(#paf3c4a86e0)">
     <use style="fill:#1f77b4;stroke:#1f77b4;" x="46.335852" xlink:href="#m04e3f46b3e" y="179.503067"/>
     <use style="fill:#1f77b4;stroke:#1f77b4;" x="61.044334" xlink:href="#m04e3f46b3e" y="182.432437"/>
     <use style="fill:#1f77b4;stroke:#1f77b4;" x="76.448597" xlink:href="#m04e3f46b3e" y="178.677535"/>
     <use style="fill:#1f77b4;stroke:#1f77b4;" x="91.820498" xlink:href="#m04e3f46b3e" y="174.395683"/>
     <use style="fill:#1f77b4;stroke:#1f77b4;" x="107.257122" xlink:href="#m04e3f46b3e" y="172.864333"/>
     <use style="fill:#1f77b4;stroke:#1f77b4;" x="122.709928" xlink:href="#m04e3f46b3e" y="174.297038"/>
    </g>
   </g>
   <g id="line2d_32">
    <defs>
     <path d="M -3 3 
L 3 -3 
M -3 -3 
L 3 3 
" id="ma9890457c2" style="stroke:#ff7f0e;"/>
    </defs>
    <g clip-path="url(#paf3c4a86e0)">
     <use style="fill:#ff7f0e;stroke:#ff7f0e;" x="154.052425" xlink:href="#ma9890457c2" y="175.028177"/>
     <use style="fill:#ff7f0e;stroke:#ff7f0e;" x="169.116888" xlink:href="#ma9890457c2" y="168.684773"/>
    </g>
   </g>
   <g id="line2d_33">
    <defs>
     <path d="M -3 3 
L 3 -3 
M -3 -3 
L 3 3 
" id="m3b25d8c056" style="stroke:#2ca02c;"/>
    </defs>
    <g clip-path="url(#paf3c4a86e0)">
     <use style="fill:#2ca02c;stroke:#2ca02c;" x="370.990398" xlink:href="#m3b25d8c056" y="110.99594"/>
     <use style="fill:#2ca02c;stroke:#2ca02c;" x="363.547162" xlink:href="#m3b25d8c056" y="110.936147"/>
     <use style="fill:#2ca02c;stroke:#2ca02c;" x="355.84503" xlink:href="#m3b25d8c056" y="122.076944"/>
     <use style="fill:#2ca02c;stroke:#2ca02c;" x="348.126718" xlink:href="#m3b25d8c056" y="130.798924"/>
     <use style="fill:#2ca02c;stroke:#2ca02c;" x="340.343682" xlink:href="#m3b25d8c056" y="115.768674"/>
     <use style="fill:#2ca02c;stroke:#2ca02c;" x="332.593008" xlink:href="#m3b25d8c056" y="148.114943"/>
     <use style="fill:#2ca02c;stroke:#2ca02c;" x="324.826152" xlink:href="#m3b25d8c056" y="179.652492"/>
     <use style="fill:#2ca02c;stroke:#2ca02c;" x="316.994573" xlink:href="#m3b25d8c056" y="200.58251"/>
     <use style="fill:#2ca02c;stroke:#2ca02c;" x="309.308623" xlink:href="#m3b25d8c056" y="149.311915"/>
     <use style="fill:#2ca02c;stroke:#2ca02c;" x="301.606492" xlink:href="#m3b25d8c056" y="140.42378"/>
     <use style="fill:#2ca02c;stroke:#2ca02c;" x="293.888179" xlink:href="#m3b25d8c056" y="122.853552"/>
     <use style="fill:#2ca02c;stroke:#2ca02c;" x="286.169867" xlink:href="#m3b25d8c056" y="118.706083"/>
     <use style="fill:#2ca02c;stroke:#2ca02c;" x="278.54864" xlink:href="#m3b25d8c056" y="137.008023"/>
     <use style="fill:#2ca02c;stroke:#2ca02c;" x="278.338288" xlink:href="#m3b25d8c056" y="142.670871"/>
     <use style="fill:#2ca02c;stroke:#2ca02c;" x="270.6847" xlink:href="#m3b25d8c056" y="145.868394"/>
     <use style="fill:#2ca02c;stroke:#2ca02c;" x="262.934025" xlink:href="#m3b25d8c056" y="140.913337"/>
     <use style="fill:#2ca02c;stroke:#2ca02c;" x="255.199532" xlink:href="#m3b25d8c056" y="123.326757"/>
     <use style="fill:#2ca02c;stroke:#2ca02c;" x="247.384134" xlink:href="#m3b25d8c056" y="100.651917"/>
    </g>
   </g>
   <g id="line2d_34">
    <defs>
     <path d="M -3 3 
L 3 -3 
M -3 -3 
L 3 3 
" id="ma50e74f7f7" style="stroke:#d62728;"/>
    </defs>
    <g clip-path="url(#paf3c4a86e0)">
     <use style="fill:#d62728;stroke:#d62728;" x="278.483917" xlink:href="#ma50e74f7f7" y="156.930545"/>
     <use style="fill:#d62728;stroke:#d62728;" x="272.318975" xlink:href="#ma50e74f7f7" y="151.005094"/>
     <use style="fill:#d62728;stroke:#d62728;" x="267.642681" xlink:href="#ma50e74f7f7" y="153.516595"/>
     <use style="fill:#d62728;stroke:#d62728;" x="262.982568" xlink:href="#ma50e74f7f7" y="155.657812"/>
     <use style="fill:#d62728;stroke:#d62728;" x="259.843464" xlink:href="#ma50e74f7f7" y="153.500515"/>
     <use style="fill:#d62728;stroke:#d62728;" x="256.736722" xlink:href="#ma50e74f7f7" y="161.406771"/>
     <use style="fill:#d62728;stroke:#d62728;" x="253.62998" xlink:href="#ma50e74f7f7" y="172.157552"/>
     <use style="fill:#d62728;stroke:#d62728;" x="250.490876" xlink:href="#ma50e74f7f7" y="140.052659"/>
     <use style="fill:#d62728;stroke:#d62728;" x="247.351772" xlink:href="#ma50e74f7f7" y="149.903246"/>
     <use style="fill:#d62728;stroke:#d62728;" x="242.756383" xlink:href="#ma50e74f7f7" y="163.028181"/>
     <use style="fill:#d62728;stroke:#d62728;" x="238.112451" xlink:href="#ma50e74f7f7" y="188.292339"/>
     <use style="fill:#d62728;stroke:#d62728;" x="233.468519" xlink:href="#ma50e74f7f7" y="184.902856"/>
     <use style="fill:#d62728;stroke:#d62728;" x="228.824587" xlink:href="#ma50e74f7f7" y="189.253662"/>
     <use style="fill:#d62728;stroke:#d62728;" x="224.196835" xlink:href="#ma50e74f7f7" y="194.230074"/>
     <use style="fill:#d62728;stroke:#d62728;" x="228.792225" xlink:href="#ma50e74f7f7" y="191.450682"/>
     <use style="fill:#d62728;stroke:#d62728;" x="219.552903" xlink:href="#ma50e74f7f7" y="191.200237"/>
    </g>
   </g>
   <g id="line2d_35">
    <defs>
     <path d="M -3 3 
L 3 -3 
M -3 -3 
L 3 3 
" id="ma3c983f7cf" style="stroke:#9467bd;"/>
    </defs>
    <g clip-path="url(#paf3c4a86e0)">
     <use style="fill:#9467bd;stroke:#9467bd;" x="107.791094" xlink:href="#ma3c983f7cf" y="174.396364"/>
     <use style="fill:#9467bd;stroke:#9467bd;" x="122.968823" xlink:href="#ma3c983f7cf" y="173.745565"/>
     <use style="fill:#9467bd;stroke:#9467bd;" x="138.502533" xlink:href="#ma3c983f7cf" y="172.82339"/>
     <use style="fill:#9467bd;stroke:#9467bd;" x="153.97152" xlink:href="#ma3c983f7cf" y="173.88341"/>
     <use style="fill:#9467bd;stroke:#9467bd;" x="169.489049" xlink:href="#ma3c983f7cf" y="178.935411"/>
     <use style="fill:#9467bd;stroke:#9467bd;" x="184.941855" xlink:href="#ma3c983f7cf" y="179.487278"/>
     <use style="fill:#9467bd;stroke:#9467bd;" x="200.507927" xlink:href="#ma3c983f7cf" y="183.283347"/>
    </g>
   </g>
   <g id="line2d_36">
    <defs>
     <path d="M -3 3 
L 3 -3 
M -3 -3 
L 3 3 
" id="m181d81e2ab" style="stroke:#8c564b;"/>
    </defs>
    <g clip-path="url(#paf3c4a86e0)">
     <use style="fill:#8c564b;stroke:#8c564b;" x="161.932546" xlink:href="#m181d81e2ab" y="179.507333"/>
     <use style="fill:#8c564b;stroke:#8c564b;" x="169.456687" xlink:href="#m181d81e2ab" y="179.782559"/>
     <use style="fill:#8c564b;stroke:#8c564b;" x="177.142638" xlink:href="#m181d81e2ab" y="178.755994"/>
     <use style="fill:#8c564b;stroke:#8c564b;" x="184.974217" xlink:href="#m181d81e2ab" y="181.77224"/>
     <use style="fill:#8c564b;stroke:#8c564b;" x="192.741072" xlink:href="#m181d81e2ab" y="180.593592"/>
     <use style="fill:#8c564b;stroke:#8c564b;" x="200.491746" xlink:href="#m181d81e2ab" y="182.829149"/>
     <use style="fill:#8c564b;stroke:#8c564b;" x="208.274782" xlink:href="#m181d81e2ab" y="183.76952"/>
     <use style="fill:#8c564b;stroke:#8c564b;" x="216.041637" xlink:href="#m181d81e2ab" y="185.056829"/>
     <use style="fill:#8c564b;stroke:#8c564b;" x="223.743769" xlink:href="#m181d81e2ab" y="191.052199"/>
    </g>
   </g>
   <g id="line2d_37">
    <defs>
     <path d="M -3 3 
L 3 -3 
M -3 -3 
L 3 3 
" id="mf54357e25a" style="stroke:#e377c2;"/>
    </defs>
    <g clip-path="url(#paf3c4a86e0)">
     <use style="fill:#e377c2;stroke:#e377c2;" x="161.932546" xlink:href="#mf54357e25a" y="178.874375"/>
     <use style="fill:#e377c2;stroke:#e377c2;" x="169.424326" xlink:href="#mf54357e25a" y="180.046028"/>
     <use style="fill:#e377c2;stroke:#e377c2;" x="177.158819" xlink:href="#mf54357e25a" y="178.205675"/>
     <use style="fill:#e377c2;stroke:#e377c2;" x="184.974217" xlink:href="#mf54357e25a" y="178.05004"/>
     <use style="fill:#e377c2;stroke:#e377c2;" x="192.741072" xlink:href="#mf54357e25a" y="179.782308"/>
    </g>
   </g>
   <g id="patch_3">
    <path d="M 30.103125 288.430125 
L 30.103125 22.318125 
" style="fill:none;stroke:#000000;stroke-linecap:square;stroke-linejoin:miter;stroke-width:0.8;"/>
   </g>
   <g id="patch_4">
    <path d="M 387.223125 288.430125 
L 387.223125 22.318125 
" style="fill:none;stroke:#000000;stroke-linecap:square;stroke-linejoin:miter;stroke-width:0.8;"/>
   </g>
   <g id="patch_5">
    <path d="M 30.103125 288.430125 
L 387.223125 288.430125 
" style="fill:none;stroke:#000000;stroke-linecap:square;stroke-linejoin:miter;stroke-width:0.8;"/>
   </g>
   <g id="patch_6">
    <path d="M 30.103125 22.318125 
L 387.223125 22.318125 
" style="fill:none;stroke:#000000;stroke-linecap:square;stroke-linejoin:miter;stroke-width:0.8;"/>
   </g>
   <g id="text_17">
    <!-- CRN $T_2$ -->
    <defs>
     <path d="M 64.40625 67.28125 
L 64.40625 56.890625 
Q 59.421875 61.53125 53.78125 63.8125 
Q 48.140625 66.109375 41.796875 66.109375 
Q 29.296875 66.109375 22.65625 58.46875 
Q 16.015625 50.828125 16.015625 36.375 
Q 16.015625 21.96875 22.65625 14.328125 
Q 29.296875 6.6875 41.796875 6.6875 
Q 48.140625 6.6875 53.78125 8.984375 
Q 59.421875 11.28125 64.40625 15.921875 
L 64.40625 5.609375 
Q 59.234375 2.09375 53.4375 0.328125 
Q 47.65625 -1.421875 41.21875 -1.421875 
Q 24.65625 -1.421875 15.125 8.703125 
Q 5.609375 18.84375 5.609375 36.375 
Q 5.609375 53.953125 15.125 64.078125 
Q 24.65625 74.21875 41.21875 74.21875 
Q 47.75 74.21875 53.53125 72.484375 
Q 59.328125 70.75 64.40625 67.28125 
z
" id="DejaVuSans-43"/>
     <path d="M 44.390625 34.1875 
Q 47.5625 33.109375 50.5625 29.59375 
Q 53.5625 26.078125 56.59375 19.921875 
L 66.609375 0 
L 56 0 
L 46.6875 18.703125 
Q 43.0625 26.03125 39.671875 28.421875 
Q 36.28125 30.8125 30.421875 30.8125 
L 19.671875 30.8125 
L 19.671875 0 
L 9.8125 0 
L 9.8125 72.90625 
L 32.078125 72.90625 
Q 44.578125 72.90625 50.734375 67.671875 
Q 56.890625 62.453125 56.890625 51.90625 
Q 56.890625 45.015625 53.6875 40.46875 
Q 50.484375 35.9375 44.390625 34.1875 
z
M 19.671875 64.796875 
L 19.671875 38.921875 
L 32.078125 38.921875 
Q 39.203125 38.921875 42.84375 42.21875 
Q 46.484375 45.515625 46.484375 51.90625 
Q 46.484375 58.296875 42.84375 61.546875 
Q 39.203125 64.796875 32.078125 64.796875 
z
" id="DejaVuSans-52"/>
     <path d="M 9.8125 72.90625 
L 23.09375 72.90625 
L 55.421875 11.921875 
L 55.421875 72.90625 
L 64.984375 72.90625 
L 64.984375 0 
L 51.703125 0 
L 19.390625 60.984375 
L 19.390625 0 
L 9.8125 0 
z
" id="DejaVuSans-4e"/>
     <path d="M 5.90625 72.90625 
L 67.578125 72.90625 
L 66.015625 64.59375 
L 39.984375 64.59375 
L 27.484375 0 
L 17.578125 0 
L 30.078125 64.59375 
L 4.296875 64.59375 
z
" id="DejaVuSans-Oblique-54"/>
    </defs>
    <g transform="translate(187.363125 16.318125)scale(0.12 -0.12)">
     <use transform="translate(0 0.78125)" xlink:href="#DejaVuSans-43"/>
     <use transform="translate(69.824219 0.78125)" xlink:href="#DejaVuSans-52"/>
     <use transform="translate(139.306641 0.78125)" xlink:href="#DejaVuSans-4e"/>
     <use transform="translate(214.111328 0.78125)" xlink:href="#DejaVuSans-20"/>
     <use transform="translate(245.898438 0.78125)" xlink:href="#DejaVuSans-Oblique-54"/>
     <use transform="translate(306.982422 -15.625)scale(0.7)" xlink:href="#DejaVuSans-32"/>
    </g>
   </g>
  </g>
 </g>
 <defs>
  <clipPath id="paf3c4a86e0">
   <rect height="266.112" width="357.12" x="30.103125" y="22.318125"/>
  </clipPath>
 </defs>
</svg>
