<?xml version="1.0" encoding="utf-8" standalone="no"?>
<!DOCTYPE svg PUBLIC "-//W3C//DTD SVG 1.1//EN"
  "http://www.w3.org/Graphics/SVG/1.1/DTD/svg11.dtd">
<!-- Created with matplotlib (http://matplotlib.org/) -->
<svg height="469.458125pt" version="1.1" viewBox="0 0 741.9 469.458125" width="741.9pt" xmlns="http://www.w3.org/2000/svg" xmlns:xlink="http://www.w3.org/1999/xlink">
 <defs>
  <style type="text/css">
*{stroke-linecap:butt;stroke-linejoin:round;}
  </style>
 </defs>
 <g id="figure_1">
  <g id="patch_1">
   <path d="M 0 469.458125 
L 741.9 469.458125 
L 741.9 0 
L 0 0 
z
" style="fill:#ffffff;"/>
  </g>
  <g id="axes_1">
   <g id="patch_2">
    <path d="M 46.0125 445.58 
L 715.6125 445.58 
L 715.6125 10.7 
L 46.0125 10.7 
z
" style="fill:#ffffff;"/>
   </g>
   <g id="matplotlib.axis_1">
    <g id="xtick_1">
     <g id="line2d_1">
      <defs>
       <path d="M 0 0 
L 0 3.5 
" id="m00f9bee124" style="stroke:#000000;stroke-width:0.8;"/>
      </defs>
      <g>
       <use style="stroke:#000000;stroke-width:0.8;" x="46.0125" xlink:href="#m00f9bee124" y="445.58"/>
      </g>
     </g>
     <g id="text_1">
      <!-- −200000 -->
      <defs>
       <path d="M 10.59375 35.5 
L 73.1875 35.5 
L 73.1875 27.203125 
L 10.59375 27.203125 
z
" id="DejaVuSans-2212"/>
       <path d="M 19.1875 8.296875 
L 53.609375 8.296875 
L 53.609375 0 
L 7.328125 0 
L 7.328125 8.296875 
Q 12.9375 14.109375 22.625 23.890625 
Q 32.328125 33.6875 34.8125 36.53125 
Q 39.546875 41.84375 41.421875 45.53125 
Q 43.3125 49.21875 43.3125 52.78125 
Q 43.3125 58.59375 39.234375 62.25 
Q 35.15625 65.921875 28.609375 65.921875 
Q 23.96875 65.921875 18.8125 64.3125 
Q 13.671875 62.703125 7.8125 59.421875 
L 7.8125 69.390625 
Q 13.765625 71.78125 18.9375 73 
Q 24.125 74.21875 28.421875 74.21875 
Q 39.75 74.21875 46.484375 68.546875 
Q 53.21875 62.890625 53.21875 53.421875 
Q 53.21875 48.921875 51.53125 44.890625 
Q 49.859375 40.875 45.40625 35.40625 
Q 44.1875 33.984375 37.640625 27.21875 
Q 31.109375 20.453125 19.1875 8.296875 
z
" id="DejaVuSans-32"/>
       <path d="M 31.78125 66.40625 
Q 24.171875 66.40625 20.328125 58.90625 
Q 16.5 51.421875 16.5 36.375 
Q 16.5 21.390625 20.328125 13.890625 
Q 24.171875 6.390625 31.78125 6.390625 
Q 39.453125 6.390625 43.28125 13.890625 
Q 47.125 21.390625 47.125 36.375 
Q 47.125 51.421875 43.28125 58.90625 
Q 39.453125 66.40625 31.78125 66.40625 
z
M 31.78125 74.21875 
Q 44.046875 74.21875 50.515625 64.515625 
Q 56.984375 54.828125 56.984375 36.375 
Q 56.984375 17.96875 50.515625 8.265625 
Q 44.046875 -1.421875 31.78125 -1.421875 
Q 19.53125 -1.421875 13.0625 8.265625 
Q 6.59375 17.96875 6.59375 36.375 
Q 6.59375 54.828125 13.0625 64.515625 
Q 19.53125 74.21875 31.78125 74.21875 
z
" id="DejaVuSans-30"/>
      </defs>
      <g transform="translate(22.735156 460.178437)scale(0.1 -0.1)">
       <use xlink:href="#DejaVuSans-2212"/>
       <use x="83.789062" xlink:href="#DejaVuSans-32"/>
       <use x="147.412109" xlink:href="#DejaVuSans-30"/>
       <use x="211.035156" xlink:href="#DejaVuSans-30"/>
       <use x="274.658203" xlink:href="#DejaVuSans-30"/>
       <use x="338.28125" xlink:href="#DejaVuSans-30"/>
       <use x="401.904297" xlink:href="#DejaVuSans-30"/>
      </g>
     </g>
    </g>
    <g id="xtick_2">
     <g id="line2d_2">
      <g>
       <use style="stroke:#000000;stroke-width:0.8;" x="129.7125" xlink:href="#m00f9bee124" y="445.58"/>
      </g>
     </g>
     <g id="text_2">
      <!-- −150000 -->
      <defs>
       <path d="M 12.40625 8.296875 
L 28.515625 8.296875 
L 28.515625 63.921875 
L 10.984375 60.40625 
L 10.984375 69.390625 
L 28.421875 72.90625 
L 38.28125 72.90625 
L 38.28125 8.296875 
L 54.390625 8.296875 
L 54.390625 0 
L 12.40625 0 
z
" id="DejaVuSans-31"/>
       <path d="M 10.796875 72.90625 
L 49.515625 72.90625 
L 49.515625 64.59375 
L 19.828125 64.59375 
L 19.828125 46.734375 
Q 21.96875 47.46875 24.109375 47.828125 
Q 26.265625 48.1875 28.421875 48.1875 
Q 40.625 48.1875 47.75 41.5 
Q 54.890625 34.8125 54.890625 23.390625 
Q 54.890625 11.625 47.5625 5.09375 
Q 40.234375 -1.421875 26.90625 -1.421875 
Q 22.3125 -1.421875 17.546875 -0.640625 
Q 12.796875 0.140625 7.71875 1.703125 
L 7.71875 11.625 
Q 12.109375 9.234375 16.796875 8.0625 
Q 21.484375 6.890625 26.703125 6.890625 
Q 35.15625 6.890625 40.078125 11.328125 
Q 45.015625 15.765625 45.015625 23.390625 
Q 45.015625 31 40.078125 35.4375 
Q 35.15625 39.890625 26.703125 39.890625 
Q 22.75 39.890625 18.8125 39.015625 
Q 14.890625 38.140625 10.796875 36.28125 
z
" id="DejaVuSans-35"/>
      </defs>
      <g transform="translate(106.435156 460.178437)scale(0.1 -0.1)">
       <use xlink:href="#DejaVuSans-2212"/>
       <use x="83.789062" xlink:href="#DejaVuSans-31"/>
       <use x="147.412109" xlink:href="#DejaVuSans-35"/>
       <use x="211.035156" xlink:href="#DejaVuSans-30"/>
       <use x="274.658203" xlink:href="#DejaVuSans-30"/>
       <use x="338.28125" xlink:href="#DejaVuSans-30"/>
       <use x="401.904297" xlink:href="#DejaVuSans-30"/>
      </g>
     </g>
    </g>
    <g id="xtick_3">
     <g id="line2d_3">
      <g>
       <use style="stroke:#000000;stroke-width:0.8;" x="213.4125" xlink:href="#m00f9bee124" y="445.58"/>
      </g>
     </g>
     <g id="text_3">
      <!-- −100000 -->
      <g transform="translate(190.135156 460.178437)scale(0.1 -0.1)">
       <use xlink:href="#DejaVuSans-2212"/>
       <use x="83.789062" xlink:href="#DejaVuSans-31"/>
       <use x="147.412109" xlink:href="#DejaVuSans-30"/>
       <use x="211.035156" xlink:href="#DejaVuSans-30"/>
       <use x="274.658203" xlink:href="#DejaVuSans-30"/>
       <use x="338.28125" xlink:href="#DejaVuSans-30"/>
       <use x="401.904297" xlink:href="#DejaVuSans-30"/>
      </g>
     </g>
    </g>
    <g id="xtick_4">
     <g id="line2d_4">
      <g>
       <use style="stroke:#000000;stroke-width:0.8;" x="297.1125" xlink:href="#m00f9bee124" y="445.58"/>
      </g>
     </g>
     <g id="text_4">
      <!-- −50000 -->
      <g transform="translate(277.016406 460.178437)scale(0.1 -0.1)">
       <use xlink:href="#DejaVuSans-2212"/>
       <use x="83.789062" xlink:href="#DejaVuSans-35"/>
       <use x="147.412109" xlink:href="#DejaVuSans-30"/>
       <use x="211.035156" xlink:href="#DejaVuSans-30"/>
       <use x="274.658203" xlink:href="#DejaVuSans-30"/>
       <use x="338.28125" xlink:href="#DejaVuSans-30"/>
      </g>
     </g>
    </g>
    <g id="xtick_5">
     <g id="line2d_5">
      <g>
       <use style="stroke:#000000;stroke-width:0.8;" x="380.8125" xlink:href="#m00f9bee124" y="445.58"/>
      </g>
     </g>
     <g id="text_5">
      <!-- 0 -->
      <g transform="translate(377.63125 460.178437)scale(0.1 -0.1)">
       <use xlink:href="#DejaVuSans-30"/>
      </g>
     </g>
    </g>
    <g id="xtick_6">
     <g id="line2d_6">
      <g>
       <use style="stroke:#000000;stroke-width:0.8;" x="464.5125" xlink:href="#m00f9bee124" y="445.58"/>
      </g>
     </g>
     <g id="text_6">
      <!-- 50000 -->
      <g transform="translate(448.60625 460.178437)scale(0.1 -0.1)">
       <use xlink:href="#DejaVuSans-35"/>
       <use x="63.623047" xlink:href="#DejaVuSans-30"/>
       <use x="127.246094" xlink:href="#DejaVuSans-30"/>
       <use x="190.869141" xlink:href="#DejaVuSans-30"/>
       <use x="254.492188" xlink:href="#DejaVuSans-30"/>
      </g>
     </g>
    </g>
    <g id="xtick_7">
     <g id="line2d_7">
      <g>
       <use style="stroke:#000000;stroke-width:0.8;" x="548.2125" xlink:href="#m00f9bee124" y="445.58"/>
      </g>
     </g>
     <g id="text_7">
      <!-- 100000 -->
      <g transform="translate(529.125 460.178437)scale(0.1 -0.1)">
       <use xlink:href="#DejaVuSans-31"/>
       <use x="63.623047" xlink:href="#DejaVuSans-30"/>
       <use x="127.246094" xlink:href="#DejaVuSans-30"/>
       <use x="190.869141" xlink:href="#DejaVuSans-30"/>
       <use x="254.492188" xlink:href="#DejaVuSans-30"/>
       <use x="318.115234" xlink:href="#DejaVuSans-30"/>
      </g>
     </g>
    </g>
    <g id="xtick_8">
     <g id="line2d_8">
      <g>
       <use style="stroke:#000000;stroke-width:0.8;" x="631.9125" xlink:href="#m00f9bee124" y="445.58"/>
      </g>
     </g>
     <g id="text_8">
      <!-- 150000 -->
      <g transform="translate(612.825 460.178437)scale(0.1 -0.1)">
       <use xlink:href="#DejaVuSans-31"/>
       <use x="63.623047" xlink:href="#DejaVuSans-35"/>
       <use x="127.246094" xlink:href="#DejaVuSans-30"/>
       <use x="190.869141" xlink:href="#DejaVuSans-30"/>
       <use x="254.492188" xlink:href="#DejaVuSans-30"/>
       <use x="318.115234" xlink:href="#DejaVuSans-30"/>
      </g>
     </g>
    </g>
    <g id="xtick_9">
     <g id="line2d_9">
      <g>
       <use style="stroke:#000000;stroke-width:0.8;" x="715.6125" xlink:href="#m00f9bee124" y="445.58"/>
      </g>
     </g>
     <g id="text_9">
      <!-- 200000 -->
      <g transform="translate(696.525 460.178437)scale(0.1 -0.1)">
       <use xlink:href="#DejaVuSans-32"/>
       <use x="63.623047" xlink:href="#DejaVuSans-30"/>
       <use x="127.246094" xlink:href="#DejaVuSans-30"/>
       <use x="190.869141" xlink:href="#DejaVuSans-30"/>
       <use x="254.492188" xlink:href="#DejaVuSans-30"/>
       <use x="318.115234" xlink:href="#DejaVuSans-30"/>
      </g>
     </g>
    </g>
   </g>
   <g id="matplotlib.axis_2">
    <g id="ytick_1">
     <g id="line2d_10">
      <defs>
       <path d="M 0 0 
L -3.5 0 
" id="m011f15dddd" style="stroke:#000000;stroke-width:0.8;"/>
      </defs>
      <g>
       <use style="stroke:#000000;stroke-width:0.8;" x="46.0125" xlink:href="#m011f15dddd" y="383.479103"/>
      </g>
     </g>
     <g id="text_10">
      <!-- 0 -->
      <g transform="translate(32.65 387.278322)scale(0.1 -0.1)">
       <use xlink:href="#DejaVuSans-30"/>
      </g>
     </g>
    </g>
    <g id="ytick_2">
     <g id="line2d_11">
      <g>
       <use style="stroke:#000000;stroke-width:0.8;" x="46.0125" xlink:href="#m011f15dddd" y="315.907946"/>
      </g>
     </g>
     <g id="text_11">
      <!-- 5000 -->
      <g transform="translate(13.5625 319.707165)scale(0.1 -0.1)">
       <use xlink:href="#DejaVuSans-35"/>
       <use x="63.623047" xlink:href="#DejaVuSans-30"/>
       <use x="127.246094" xlink:href="#DejaVuSans-30"/>
       <use x="190.869141" xlink:href="#DejaVuSans-30"/>
      </g>
     </g>
    </g>
    <g id="ytick_3">
     <g id="line2d_12">
      <g>
       <use style="stroke:#000000;stroke-width:0.8;" x="46.0125" xlink:href="#m011f15dddd" y="248.336789"/>
      </g>
     </g>
     <g id="text_12">
      <!-- 10000 -->
      <g transform="translate(7.2 252.136008)scale(0.1 -0.1)">
       <use xlink:href="#DejaVuSans-31"/>
       <use x="63.623047" xlink:href="#DejaVuSans-30"/>
       <use x="127.246094" xlink:href="#DejaVuSans-30"/>
       <use x="190.869141" xlink:href="#DejaVuSans-30"/>
       <use x="254.492188" xlink:href="#DejaVuSans-30"/>
      </g>
     </g>
    </g>
    <g id="ytick_4">
     <g id="line2d_13">
      <g>
       <use style="stroke:#000000;stroke-width:0.8;" x="46.0125" xlink:href="#m011f15dddd" y="180.765632"/>
      </g>
     </g>
     <g id="text_13">
      <!-- 15000 -->
      <g transform="translate(7.2 184.56485)scale(0.1 -0.1)">
       <use xlink:href="#DejaVuSans-31"/>
       <use x="63.623047" xlink:href="#DejaVuSans-35"/>
       <use x="127.246094" xlink:href="#DejaVuSans-30"/>
       <use x="190.869141" xlink:href="#DejaVuSans-30"/>
       <use x="254.492188" xlink:href="#DejaVuSans-30"/>
      </g>
     </g>
    </g>
    <g id="ytick_5">
     <g id="line2d_14">
      <g>
       <use style="stroke:#000000;stroke-width:0.8;" x="46.0125" xlink:href="#m011f15dddd" y="113.194474"/>
      </g>
     </g>
     <g id="text_14">
      <!-- 20000 -->
      <g transform="translate(7.2 116.993693)scale(0.1 -0.1)">
       <use xlink:href="#DejaVuSans-32"/>
       <use x="63.623047" xlink:href="#DejaVuSans-30"/>
       <use x="127.246094" xlink:href="#DejaVuSans-30"/>
       <use x="190.869141" xlink:href="#DejaVuSans-30"/>
       <use x="254.492188" xlink:href="#DejaVuSans-30"/>
      </g>
     </g>
    </g>
    <g id="ytick_6">
     <g id="line2d_15">
      <g>
       <use style="stroke:#000000;stroke-width:0.8;" x="46.0125" xlink:href="#m011f15dddd" y="45.623317"/>
      </g>
     </g>
     <g id="text_15">
      <!-- 25000 -->
      <g transform="translate(7.2 49.422536)scale(0.1 -0.1)">
       <use xlink:href="#DejaVuSans-32"/>
       <use x="63.623047" xlink:href="#DejaVuSans-35"/>
       <use x="127.246094" xlink:href="#DejaVuSans-30"/>
       <use x="190.869141" xlink:href="#DejaVuSans-30"/>
       <use x="254.492188" xlink:href="#DejaVuSans-30"/>
      </g>
     </g>
    </g>
   </g>
   <g id="line2d_16">
    <path clip-path="url(#p451d5b539e)" d="M 45.685547 382.707424 
L 48.137695 382.673054 
L 53.041992 382.569868 
L 57.128906 382.525873 
L 57.946289 382.496849 
L 58.763672 382.605523 
L 59.581055 382.443462 
L 61.21582 382.431007 
L 74.293945 382.271683 
L 75.111328 382.152001 
L 75.928711 382.249998 
L 79.198242 382.051047 
L 82.467773 382.031338 
L 100.450195 381.533476 
L 101.267578 381.41025 
L 102.084961 381.49683 
L 104.537109 381.349029 
L 106.171875 381.371929 
L 106.989258 381.196078 
L 107.806641 381.249073 
L 109.441406 381.119135 
L 111.893555 381.109018 
L 112.710938 380.966747 
L 115.163086 381.052814 
L 115.980469 380.806996 
L 119.25 380.740815 
L 121.702148 380.558547 
L 122.519531 380.636308 
L 124.154297 380.531507 
L 132.328125 379.983034 
L 133.145508 380.062816 
L 133.962891 379.89276 
L 134.780273 379.907161 
L 135.597656 379.775761 
L 137.232422 379.718227 
L 138.867187 379.631789 
L 140.501953 379.509455 
L 142.136719 379.232807 
L 142.954102 379.345541 
L 143.771484 379.195709 
L 145.40625 379.175186 
L 147.858398 378.918786 
L 148.675781 378.984863 
L 149.493164 378.795078 
L 151.12793 378.727686 
L 152.762695 378.555897 
L 153.580078 378.392492 
L 154.397461 378.474978 
L 155.214844 378.255571 
L 156.849609 378.289425 
L 157.666992 378.065128 
L 158.484375 378.073356 
L 159.301758 377.962436 
L 160.119141 377.730009 
L 161.753906 377.672425 
L 162.571289 377.634143 
L 163.388672 377.482391 
L 165.84082 377.399313 
L 167.475586 377.061706 
L 169.110352 376.950567 
L 171.5625 376.576917 
L 183.823242 375.015388 
L 185.458008 374.733586 
L 192.814453 373.617784 
L 193.631836 373.299015 
L 199.353516 372.172915 
L 200.170898 372.233898 
L 200.988281 371.974273 
L 202.623047 371.672084 
L 203.44043 371.286978 
L 204.257812 371.367686 
L 205.075195 371.021667 
L 205.892578 370.974329 
L 211.614258 369.49354 
L 212.431641 369.351703 
L 214.066406 368.787207 
L 215.701172 368.459826 
L 216.518555 367.862005 
L 218.15332 367.694426 
L 218.970703 367.497919 
L 219.788086 367.135615 
L 220.605469 366.910372 
L 221.422852 366.847614 
L 223.057617 366.233902 
L 223.875 366.09653 
L 224.692383 365.696455 
L 226.327148 365.358222 
L 227.144531 364.879672 
L 230.414062 363.808654 
L 232.048828 362.990084 
L 232.866211 362.88621 
L 234.500977 362.390551 
L 235.318359 361.841698 
L 236.135742 361.730207 
L 236.953125 361.078115 
L 237.770508 360.946438 
L 238.587891 360.492117 
L 239.405273 360.2474 
L 241.040039 359.492349 
L 241.857422 359.290209 
L 242.674805 358.781531 
L 243.492188 358.486022 
L 244.30957 358.004027 
L 245.126953 357.699515 
L 245.944336 357.040435 
L 246.761719 356.984893 
L 247.579102 356.536123 
L 248.396484 355.752756 
L 249.213867 355.360211 
L 250.03125 355.237658 
L 250.848633 354.466399 
L 252.483398 353.828095 
L 254.118164 352.758372 
L 254.935547 352.45566 
L 258.205078 350.100895 
L 259.022461 349.841548 
L 260.657227 348.70208 
L 261.474609 348.166417 
L 262.291992 347.487137 
L 263.109375 346.959185 
L 263.926758 346.58826 
L 264.744141 345.806608 
L 265.561523 345.439236 
L 266.378906 344.5785 
L 268.013672 343.364818 
L 268.831055 343.051932 
L 269.648438 341.967483 
L 270.46582 341.254701 
L 271.283203 340.875668 
L 272.917969 339.235632 
L 273.735352 338.302808 
L 275.370117 337.232319 
L 276.1875 336.287605 
L 277.004883 335.809209 
L 277.822266 334.728589 
L 278.639648 333.861603 
L 279.457031 333.745738 
L 280.274414 332.414939 
L 281.091797 331.596072 
L 281.90918 330.567021 
L 284.361328 328.293991 
L 285.996094 326.104532 
L 286.813477 325.362486 
L 287.630859 323.992035 
L 288.448242 323.155698 
L 290.083008 320.89946 
L 290.900391 320.417508 
L 291.717773 319.057215 
L 292.535156 318.091389 
L 293.352539 316.333745 
L 294.169922 315.92117 
L 294.987305 314.353662 
L 296.62207 312.040659 
L 297.439453 310.830343 
L 298.256836 309.257015 
L 299.891602 306.644535 
L 300.708984 305.882624 
L 302.34375 302.988363 
L 303.161133 301.23817 
L 304.795898 298.494995 
L 305.613281 296.69763 
L 306.430664 295.339042 
L 307.248047 293.192463 
L 308.882812 290.17293 
L 312.969727 281.323611 
L 313.787109 278.592354 
L 314.604492 277.514872 
L 317.056641 271.305112 
L 317.874023 269.407412 
L 319.508789 264.406142 
L 321.143555 260.643536 
L 321.960938 258.116897 
L 322.77832 256.048945 
L 323.595703 252.791247 
L 324.413086 251.195263 
L 325.230469 247.021804 
L 326.047852 245.249949 
L 326.865234 242.596013 
L 327.682617 239.483021 
L 330.134766 231.520606 
L 331.769531 223.915437 
L 332.586914 221.939613 
L 334.22168 215.362847 
L 335.039062 211.106845 
L 335.856445 208.06704 
L 336.673828 204.257635 
L 337.491211 201.199639 
L 339.943359 189.523393 
L 341.578125 182.2047 
L 343.212891 172.666758 
L 344.030273 169.601475 
L 344.847656 165.183477 
L 346.482422 154.744481 
L 347.299805 150.099428 
L 348.117188 146.687454 
L 349.751953 137.13853 
L 350.569336 131.47401 
L 352.204102 121.950665 
L 357.108398 92.015082 
L 357.925781 87.794344 
L 359.560547 76.505851 
L 361.195312 67.450705 
L 362.012695 62.178322 
L 362.830078 59.088687 
L 365.282227 45.811345 
L 366.099609 43.284561 
L 366.916992 40.007608 
L 367.734375 37.756771 
L 368.551758 34.428253 
L 369.369141 33.082468 
L 370.186523 31.405933 
L 371.003906 30.644156 
L 371.821289 30.882815 
L 372.638672 30.484847 
L 373.456055 30.467273 
L 375.09082 32.63005 
L 376.725586 37.926182 
L 377.542969 41.650567 
L 378.360352 46.507605 
L 379.177734 49.053013 
L 380.8125 60.451122 
L 381.629883 65.543347 
L 384.082031 84.637408 
L 387.351562 113.458957 
L 388.986328 127.569567 
L 389.803711 136.879561 
L 390.621094 142.954089 
L 394.708008 178.894373 
L 396.342773 191.240244 
L 397.160156 198.387405 
L 401.24707 227.65023 
L 402.064453 231.642082 
L 402.881836 237.169524 
L 403.699219 241.735228 
L 404.516602 246.981317 
L 405.333984 251.000174 
L 406.151367 255.823273 
L 409.420898 271.779187 
L 411.055664 279.041138 
L 413.507812 288.838561 
L 417.594727 303.189483 
L 418.412109 305.367545 
L 419.229492 308.230047 
L 420.046875 310.481875 
L 421.681641 314.357525 
L 423.316406 319.007245 
L 424.133789 320.436368 
L 424.951172 322.75541 
L 429.038086 331.327077 
L 429.855469 332.64124 
L 430.672852 334.333541 
L 431.490234 335.517058 
L 432.307617 337.177446 
L 433.942383 339.968262 
L 434.759766 340.984942 
L 437.211914 344.949888 
L 438.84668 346.791505 
L 440.481445 349.040729 
L 443.750977 352.772394 
L 444.568359 353.588917 
L 445.385742 354.230958 
L 447.837891 356.751845 
L 448.655273 357.740884 
L 449.472656 358.364806 
L 450.290039 358.810859 
L 451.107422 359.543107 
L 451.924805 359.994589 
L 452.742188 360.691763 
L 453.55957 361.61101 
L 454.376953 362.092607 
L 455.194336 362.834268 
L 456.011719 363.114789 
L 456.829102 363.811157 
L 460.098633 365.793928 
L 467.455078 369.698346 
L 468.272461 369.944225 
L 469.089844 370.513144 
L 469.907227 370.910463 
L 470.724609 371.020366 
L 473.176758 372.136126 
L 473.994141 372.255047 
L 474.811523 372.721464 
L 476.446289 373.09126 
L 479.71582 374.241072 
L 480.533203 374.255999 
L 482.167969 374.992005 
L 487.072266 376.002808 
L 487.889648 376.391647 
L 489.524414 376.62069 
L 491.15918 377.075326 
L 491.976562 377.131916 
L 494.428711 377.638842 
L 495.246094 377.705804 
L 496.063477 377.995436 
L 496.880859 378.02613 
L 497.698242 378.223344 
L 499.333008 378.357513 
L 500.150391 378.608843 
L 501.785156 378.807989 
L 505.054688 379.246369 
L 509.141602 379.773956 
L 509.958984 379.825483 
L 511.59375 380.121149 
L 513.228516 380.19775 
L 515.680664 380.496634 
L 517.31543 380.633338 
L 518.132812 380.747956 
L 519.767578 380.801151 
L 521.402344 380.898521 
L 522.219727 381.059376 
L 523.037109 381.036294 
L 524.671875 381.175442 
L 529.576172 381.432113 
L 533.663086 381.715535 
L 559.819336 382.653219 
L 561.454102 382.682777 
L 567.993164 382.81275 
L 572.080078 382.858156 
L 576.984375 382.942012 
L 653.000977 383.384441 
L 672.618164 383.396137 
L 677.522461 383.401977 
L 698.774414 383.425884 
L 706.130859 383.437481 
L 715.939453 383.441082 
L 715.939453 383.441082 
" style="fill:none;stroke:#1f77b4;stroke-linecap:square;stroke-width:1.5;"/>
   </g>
   <g id="line2d_17">
    <path clip-path="url(#p451d5b539e)" d="M 45.685547 381.814162 
L 46.50293 382.435115 
L 46.911621 382.50888 
L 47.320312 382.317347 
L 47.729004 381.832868 
L 48.546387 380.227946 
L 49.36377 378.725721 
L 49.772461 378.522676 
L 50.181152 378.899301 
L 50.589844 379.790182 
L 51.815918 383.096515 
L 52.224609 383.532734 
L 52.633301 383.451292 
L 53.450684 382.640667 
L 53.859375 382.430753 
L 54.676758 382.39709 
L 55.085449 382.251299 
L 55.902832 381.593298 
L 56.720215 380.774989 
L 57.128906 380.7716 
L 57.537598 381.323783 
L 58.35498 383.009845 
L 58.763672 383.292883 
L 59.172363 383.071909 
L 59.581055 382.664166 
L 59.989746 382.470784 
L 60.398438 382.671296 
L 60.807129 383.073346 
L 61.21582 383.312089 
L 61.624512 383.213639 
L 62.441895 382.661695 
L 63.259277 382.458439 
L 63.667969 382.176783 
L 64.485352 380.852514 
L 64.894043 380.178229 
L 65.302734 379.84533 
L 65.711426 379.995049 
L 66.120117 380.595858 
L 67.754883 383.90747 
L 68.163574 384.375614 
L 68.572266 384.634963 
L 69.389648 384.705687 
L 70.207031 384.430386 
L 71.024414 383.91202 
L 72.250488 383.453236 
L 73.067871 382.725903 
L 73.476562 382.629334 
L 74.293945 383.090877 
L 75.111328 383.613208 
L 75.52002 384.097179 
L 76.337402 385.35883 
L 76.746094 385.678577 
L 77.154785 385.619147 
L 77.563477 385.153217 
L 78.789551 382.385044 
L 79.198242 382.060397 
L 80.015625 382.503878 
L 80.424316 382.390061 
L 81.650391 380.91085 
L 82.059082 381.035693 
L 83.693848 382.800848 
L 85.737305 383.980536 
L 86.145996 383.798528 
L 86.554688 383.284255 
L 87.37207 381.819977 
L 87.780762 381.341696 
L 88.189453 381.152344 
L 89.824219 381.201285 
L 90.23291 381.256635 
L 90.641602 381.502848 
L 91.867676 382.84051 
L 92.276367 382.665805 
L 93.502441 381.057835 
L 93.911133 381.137037 
L 95.137207 382.226159 
L 95.95459 382.18277 
L 97.180664 382.78496 
L 97.589355 382.634064 
L 97.998047 382.352394 
L 98.406738 382.228724 
L 98.81543 382.399967 
L 99.632812 382.956647 
L 100.858887 383.019103 
L 102.084961 383.718417 
L 102.493652 383.451623 
L 103.311035 382.363851 
L 103.719727 382.117798 
L 104.128418 382.245312 
L 104.945801 382.861175 
L 105.354492 382.932521 
L 106.171875 382.907502 
L 106.580566 383.157633 
L 107.397949 384.25187 
L 108.215332 385.458471 
L 108.624023 385.637291 
L 109.032715 385.424827 
L 110.258789 384.336053 
L 111.893555 383.021504 
L 112.302246 383.063842 
L 113.119629 383.538971 
L 113.52832 383.936101 
L 114.345703 385.171217 
L 115.163086 386.300981 
L 115.571777 386.555976 
L 115.980469 386.571563 
L 116.38916 386.371304 
L 116.797852 385.963921 
L 118.023926 384.135001 
L 118.432617 383.845618 
L 118.841309 383.839521 
L 119.658691 384.289878 
L 121.293457 385.29443 
L 122.928223 385.426538 
L 123.336914 385.21806 
L 124.154297 384.579762 
L 124.562988 384.663547 
L 125.789062 385.993843 
L 126.197754 385.873219 
L 127.015137 385.111588 
L 127.423828 384.993507 
L 128.241211 385.191418 
L 128.649902 385.001046 
L 130.284668 383.011892 
L 131.102051 382.508704 
L 131.510742 382.161139 
L 131.919434 381.973513 
L 132.328125 382.14512 
L 133.145508 383.346384 
L 134.780273 385.837805 
L 135.597656 387.192744 
L 136.006348 387.414156 
L 136.82373 387.477264 
L 137.232422 387.598142 
L 137.641113 387.533532 
L 138.049805 386.917786 
L 138.458496 385.599379 
L 139.68457 380.530089 
L 140.093262 379.586063 
L 140.501953 379.097391 
L 140.910645 379.024749 
L 142.136719 379.825866 
L 142.54541 379.224539 
L 143.362793 376.446405 
L 143.771484 374.986431 
L 144.180176 374.055683 
L 144.588867 374.091051 
L 144.997559 375.247059 
L 145.814941 378.973435 
L 146.223633 380.067345 
L 146.632324 380.27786 
L 148.675781 378.6675 
L 149.084473 378.086748 
L 149.901855 376.46158 
L 150.310547 376.144011 
L 150.719238 376.477939 
L 152.354004 379.366178 
L 152.762695 379.609125 
L 153.171387 379.562689 
L 153.98877 379.234301 
L 154.806152 379.371842 
L 156.032227 379.731237 
L 156.440918 379.580982 
L 156.849609 379.162935 
L 157.666992 378.04926 
L 158.075684 377.71528 
L 158.484375 377.610993 
L 159.301758 377.819727 
L 160.119141 378.310253 
L 160.936523 378.829245 
L 161.345215 378.891484 
L 162.162598 378.658566 
L 162.97998 378.366733 
L 163.797363 378.340266 
L 164.614746 378.27949 
L 166.249512 377.854602 
L 167.066895 377.412128 
L 167.475586 377.424582 
L 168.292969 377.978128 
L 169.110352 378.855897 
L 169.927734 379.910678 
L 170.336426 379.966475 
L 171.5625 378.881571 
L 171.971191 379.13868 
L 172.788574 380.058699 
L 173.197266 380.23173 
L 173.605957 380.072766 
L 174.014648 379.543568 
L 174.832031 378.119784 
L 175.240723 377.845086 
L 176.058105 377.711507 
L 176.875488 377.008296 
L 177.28418 377.11738 
L 178.101562 378.426963 
L 178.510254 378.684984 
L 178.918945 378.203769 
L 180.14502 375.102649 
L 180.553711 375.199056 
L 180.962402 376.187498 
L 181.779785 379.06573 
L 182.188477 379.906262 
L 182.597168 380.07793 
L 183.823242 379.439959 
L 184.231934 379.408458 
L 184.640625 379.205774 
L 185.049316 378.69743 
L 185.866699 377.410373 
L 186.275391 377.184195 
L 186.684082 377.384641 
L 188.318848 379.227847 
L 189.13623 379.64558 
L 189.544922 379.61772 
L 189.953613 379.338035 
L 191.99707 377.175542 
L 192.405762 377.14227 
L 193.223145 377.630011 
L 193.631836 377.873233 
L 194.040527 377.901331 
L 194.449219 377.634454 
L 195.266602 376.417868 
L 196.083984 375.115895 
L 196.492676 374.997362 
L 196.901367 375.58896 
L 197.71875 377.933337 
L 198.127441 378.630144 
L 198.536133 378.690848 
L 199.353516 377.937124 
L 199.762207 377.864669 
L 200.170898 378.223352 
L 200.988281 379.231877 
L 201.396973 379.258083 
L 201.805664 378.819272 
L 203.44043 375.609367 
L 203.849121 375.437169 
L 205.075195 376.001506 
L 205.892578 376.010497 
L 206.709961 376.441848 
L 207.118652 376.466352 
L 207.527344 376.16301 
L 208.344727 375.068204 
L 208.753418 374.79944 
L 209.162109 374.957669 
L 209.979492 375.732157 
L 210.388184 375.578475 
L 211.205566 374.295478 
L 211.614258 374.179159 
L 212.022949 374.767245 
L 212.840332 376.544346 
L 213.249023 376.781584 
L 213.657715 376.319042 
L 214.475098 374.487063 
L 214.883789 374.066601 
L 215.29248 374.276558 
L 216.518555 376.031733 
L 216.927246 376.10292 
L 217.744629 375.840941 
L 218.970703 375.874588 
L 220.605469 374.987255 
L 221.831543 375.203891 
L 222.648926 375.211244 
L 223.057617 375.377464 
L 223.875 376.014058 
L 224.283691 376.135406 
L 224.692383 375.786635 
L 225.101074 374.91523 
L 225.918457 372.74729 
L 226.327148 372.261213 
L 226.73584 372.449534 
L 227.553223 373.767764 
L 227.961914 374.13806 
L 228.370605 374.16071 
L 228.779297 373.973843 
L 229.187988 373.660201 
L 229.59668 373.135345 
L 231.231445 370.028098 
L 231.640137 369.902216 
L 232.45752 369.977221 
L 232.866211 369.861424 
L 233.683594 369.40704 
L 234.092285 369.347188 
L 235.318359 369.650743 
L 236.135742 369.397537 
L 236.544434 369.510631 
L 236.953125 370.115133 
L 238.587891 374.165985 
L 238.996582 374.036073 
L 239.405273 373.278742 
L 241.040039 368.855728 
L 241.44873 368.355857 
L 241.857422 368.248495 
L 242.674805 368.717504 
L 243.083496 368.582014 
L 244.30957 366.828321 
L 244.718262 367.089359 
L 245.126953 367.676507 
L 245.535645 368.024229 
L 245.944336 367.66892 
L 247.17041 364.633109 
L 247.579102 364.80514 
L 248.396484 366.187842 
L 248.805176 366.383542 
L 249.622559 366.023752 
L 250.439941 366.031056 
L 250.848633 365.856864 
L 251.666016 365.112156 
L 252.074707 365.087025 
L 252.89209 365.717719 
L 253.300781 365.758826 
L 254.526855 364.925805 
L 255.344238 364.972591 
L 255.75293 364.657201 
L 256.570312 363.472578 
L 256.979004 363.218189 
L 257.387695 363.376053 
L 259.431152 365.486076 
L 259.839844 365.564004 
L 260.248535 365.214853 
L 261.065918 363.459498 
L 261.474609 362.567397 
L 261.883301 361.983198 
L 263.109375 361.265147 
L 264.335449 358.749454 
L 264.744141 358.448675 
L 265.152832 358.516318 
L 266.378906 359.114542 
L 267.60498 360.440804 
L 268.013672 360.440701 
L 268.422363 360.129177 
L 268.831055 359.576342 
L 269.648438 357.710462 
L 270.057129 356.696104 
L 270.46582 356.027273 
L 270.874512 355.812628 
L 271.691895 356.057185 
L 272.100586 355.944733 
L 272.509277 355.358127 
L 273.735352 352.586348 
L 274.144043 352.386646 
L 274.961426 352.423122 
L 275.778809 351.789117 
L 276.1875 351.483684 
L 276.596191 351.363894 
L 277.004883 351.452796 
L 277.413574 351.718959 
L 278.639648 352.940138 
L 279.04834 352.51513 
L 279.457031 350.670632 
L 280.683105 340.738434 
L 281.091797 339.19399 
L 282.317871 337.152992 
L 282.726562 336.643301 
L 283.135254 336.74871 
L 284.361328 339.102746 
L 284.77002 339.267455 
L 285.178711 338.918482 
L 285.996094 337.374214 
L 286.813477 335.853963 
L 287.630859 334.867083 
L 288.448242 334.169245 
L 288.856934 333.535725 
L 290.083008 331.234368 
L 290.491699 330.858257 
L 290.900391 330.672151 
L 291.309082 330.629859 
L 292.535156 330.773145 
L 292.943848 330.298909 
L 293.352539 329.340932 
L 294.169922 326.902308 
L 294.987305 325.37167 
L 296.62207 322.964496 
L 297.439453 323.16573 
L 297.848145 323.014733 
L 298.256836 322.480521 
L 299.48291 320.290896 
L 299.891602 320.071939 
L 300.300293 320.341167 
L 301.117676 321.336655 
L 301.526367 321.127957 
L 301.935059 320.07023 
L 303.569824 313.357128 
L 303.978516 312.838626 
L 304.795898 312.478833 
L 305.20459 311.945068 
L 306.021973 310.17326 
L 306.839355 307.807994 
L 309.291504 299.082782 
L 310.108887 297.280646 
L 310.517578 296.804137 
L 310.92627 296.857331 
L 311.743652 297.92525 
L 312.152344 298.027087 
L 312.561035 297.349089 
L 312.969727 295.863883 
L 314.195801 289.92225 
L 314.604492 288.703766 
L 316.239258 285.51394 
L 317.465332 281.683071 
L 317.874023 280.839113 
L 318.282715 280.481666 
L 319.100098 280.385145 
L 319.508789 279.938028 
L 319.91748 279.056306 
L 320.734863 276.449284 
L 322.77832 268.721911 
L 323.595703 265.814232 
L 324.821777 261.221289 
L 325.63916 259.587838 
L 326.047852 258.856171 
L 326.456543 257.740062 
L 327.273926 253.946757 
L 328.091309 250.159697 
L 328.5 249.206193 
L 329.726074 247.972452 
L 330.134766 246.75761 
L 331.36084 242.231983 
L 332.178223 239.313495 
L 334.22168 228.821975 
L 335.039062 226.275388 
L 335.447754 225.389417 
L 336.673828 223.894096 
L 337.08252 222.865978 
L 337.899902 219.381518 
L 339.125977 213.757344 
L 339.943359 209.967655 
L 341.578125 200.541192 
L 342.804199 195.737392 
L 344.030273 189.299193 
L 344.438965 187.806917 
L 344.847656 186.848993 
L 345.665039 185.413347 
L 346.07373 183.957883 
L 346.482422 181.531598 
L 348.117188 169.393166 
L 348.93457 166.243988 
L 349.751953 163.444242 
L 350.569336 159.781861 
L 351.79541 153.478072 
L 353.430176 146.106818 
L 354.247559 140.815071 
L 355.473633 131.926021 
L 356.291016 127.557465 
L 357.108398 123.515941 
L 359.151855 110.976855 
L 360.37793 104.874329 
L 361.195312 99.495434 
L 363.23877 84.85912 
L 365.690918 72.236083 
L 366.508301 68.812351 
L 367.325684 64.024889 
L 368.143066 57.198863 
L 368.960449 49.916388 
L 369.777832 44.408272 
L 370.595215 39.716148 
L 371.003906 37.86111 
L 371.412598 36.559598 
L 372.22998 35.087372 
L 373.047363 33.750515 
L 374.273438 31.29009 
L 374.682129 30.810946 
L 375.09082 30.559126 
L 375.499512 30.467273 
L 375.908203 30.527265 
L 376.316895 30.783531 
L 376.725586 31.272414 
L 377.542969 32.938538 
L 379.177734 37.203193 
L 379.586426 37.492726 
L 379.995117 38.322787 
L 380.403809 41.257789 
L 380.8125 47.323582 
L 382.038574 73.065019 
L 382.447266 78.76202 
L 382.855957 82.566082 
L 384.899414 96.662652 
L 387.760254 126.104115 
L 388.577637 133.420458 
L 389.803711 142.461 
L 391.029785 154.491135 
L 392.255859 166.377364 
L 393.073242 171.57428 
L 393.890625 174.26349 
L 394.299316 175.455535 
L 394.708008 177.085635 
L 395.116699 179.41198 
L 399.203613 208.397354 
L 400.838379 216.504424 
L 401.655762 220.348713 
L 402.473145 225.608675 
L 403.290527 231.209988 
L 404.10791 234.271454 
L 404.516602 235.834169 
L 405.333984 241.139324 
L 406.151367 246.378924 
L 406.96875 249.251024 
L 407.377441 250.669354 
L 408.194824 254.700055 
L 409.420898 260.916804 
L 410.646973 265.984493 
L 411.464355 268.145073 
L 412.281738 270.039102 
L 413.099121 273.530681 
L 414.325195 279.757217 
L 415.142578 282.453663 
L 416.777344 286.113021 
L 417.594727 290.27028 
L 418.003418 292.421724 
L 418.412109 293.866583 
L 418.820801 294.440081 
L 419.229492 294.493469 
L 419.638184 294.679042 
L 420.046875 295.505951 
L 421.272949 299.897482 
L 422.499023 302.937064 
L 423.316406 304.948279 
L 423.725098 305.36262 
L 424.133789 305.583218 
L 424.54248 305.950771 
L 425.359863 307.424447 
L 426.177246 309.337554 
L 426.994629 312.202913 
L 428.629395 319.635827 
L 429.038086 320.846557 
L 429.446777 321.606546 
L 429.855469 321.998102 
L 430.672852 322.384898 
L 431.081543 322.868749 
L 431.490234 323.774992 
L 433.125 328.892307 
L 433.942383 329.874182 
L 434.351074 330.427701 
L 435.168457 332.081589 
L 435.577148 332.576694 
L 435.98584 332.57947 
L 436.394531 332.314015 
L 436.803223 332.28077 
L 437.211914 332.975472 
L 437.620605 334.543735 
L 438.437988 338.423271 
L 438.84668 339.487428 
L 439.255371 339.815449 
L 439.664062 339.907715 
L 440.072754 340.272435 
L 440.890137 341.766481 
L 441.298828 342.226518 
L 441.70752 342.321192 
L 442.933594 342.061053 
L 443.342285 342.198739 
L 443.750977 342.695596 
L 444.159668 343.652192 
L 445.385742 347.338194 
L 445.794434 347.901181 
L 446.203125 348.104688 
L 446.611816 348.138021 
L 447.837891 347.90004 
L 448.246582 348.453667 
L 449.063965 351.097332 
L 449.472656 352.372604 
L 449.881348 353.222719 
L 450.290039 353.694751 
L 451.107422 354.068848 
L 451.924805 354.013676 
L 452.742188 353.969515 
L 453.55957 354.236281 
L 454.376953 354.807373 
L 455.194336 355.798178 
L 455.603027 356.543065 
L 456.42041 358.893054 
L 456.829102 360.133135 
L 457.237793 360.912749 
L 457.646484 360.966461 
L 458.055176 360.305796 
L 458.872559 358.226615 
L 459.28125 357.790457 
L 459.689941 358.170693 
L 460.916016 361.284634 
L 461.324707 361.726219 
L 461.733398 361.834881 
L 462.550781 361.629085 
L 463.776855 360.901742 
L 464.185547 360.995164 
L 464.594238 361.422291 
L 465.411621 363.089588 
L 466.637695 366.270676 
L 467.046387 366.694882 
L 467.455078 366.419297 
L 468.272461 364.838064 
L 468.681152 364.441375 
L 469.089844 364.595657 
L 469.498535 365.228413 
L 471.133301 369.107831 
L 471.541992 369.436337 
L 471.950684 369.352012 
L 473.585449 367.894049 
L 474.811523 367.638988 
L 475.220215 367.514156 
L 475.628906 367.568999 
L 476.037598 367.861846 
L 477.263672 369.007631 
L 478.081055 369.459884 
L 478.489746 369.884995 
L 478.898438 370.576058 
L 480.124512 373.547457 
L 480.533203 373.782763 
L 480.941895 373.089891 
L 482.167969 368.976263 
L 482.57666 368.430064 
L 482.985352 368.461761 
L 483.394043 368.909427 
L 484.211426 370.133581 
L 484.620117 370.486975 
L 486.254883 371.205844 
L 487.072266 371.609936 
L 488.29834 372.543013 
L 488.707031 372.512175 
L 489.524414 371.745194 
L 489.933105 371.380561 
L 490.341797 371.302784 
L 490.750488 371.619953 
L 491.567871 372.744625 
L 491.976562 372.87762 
L 492.385254 372.572956 
L 493.202637 371.638712 
L 493.611328 371.506275 
L 494.02002 371.81222 
L 494.428711 372.633791 
L 495.654785 376.051739 
L 496.063477 376.426565 
L 496.472168 376.304577 
L 497.698242 375.178896 
L 498.106934 375.140656 
L 498.515625 375.356964 
L 499.333008 376.466489 
L 499.741699 376.965495 
L 500.150391 377.009951 
L 501.376465 375.70892 
L 501.785156 376.072153 
L 502.602539 377.437764 
L 503.01123 377.64765 
L 503.419922 377.57943 
L 503.828613 377.649278 
L 504.237305 378.13107 
L 505.054688 379.542366 
L 505.463379 379.779379 
L 506.280762 379.573383 
L 506.689453 379.783692 
L 507.915527 381.23682 
L 508.324219 380.992517 
L 509.141602 379.626766 
L 509.550293 379.418441 
L 509.958984 379.773207 
L 510.776367 380.760058 
L 511.59375 380.924351 
L 512.002441 381.23276 
L 512.819824 382.254716 
L 513.228516 382.228313 
L 513.637207 381.640335 
L 514.045898 380.827207 
L 514.45459 380.289417 
L 514.863281 380.327458 
L 515.680664 381.570289 
L 516.089355 382.171951 
L 516.498047 382.559444 
L 516.906738 382.699841 
L 517.31543 382.507753 
L 517.724121 381.90072 
L 518.950195 379.153436 
L 519.358887 378.650944 
L 519.767578 378.514781 
L 520.17627 378.797193 
L 520.993652 379.998242 
L 521.402344 380.262968 
L 522.219727 380.16451 
L 522.628418 380.526495 
L 523.445801 381.815501 
L 523.854492 381.821925 
L 525.080566 380.215085 
L 525.489258 380.234574 
L 526.306641 380.827429 
L 527.124023 381.512511 
L 527.532715 381.56269 
L 527.941406 381.250589 
L 528.350098 380.780833 
L 528.758789 380.55775 
L 529.16748 380.825391 
L 530.393555 382.602477 
L 530.802246 382.699066 
L 531.210938 382.507044 
L 532.02832 381.941814 
L 532.437012 381.976615 
L 532.845703 382.414546 
L 533.663086 383.825218 
L 534.071777 384.112696 
L 534.480469 383.908244 
L 535.706543 382.248768 
L 536.115234 381.984579 
L 537.341309 381.904512 
L 538.567383 380.723337 
L 538.976074 380.744381 
L 539.793457 381.21569 
L 540.202148 381.139814 
L 541.019531 380.531554 
L 541.428223 380.582437 
L 541.836914 381.087825 
L 543.062988 383.523148 
L 544.289062 385.113774 
L 544.697754 385.415204 
L 545.106445 385.33311 
L 546.33252 384.133695 
L 546.741211 383.959403 
L 547.149902 383.583488 
L 548.375977 381.098567 
L 548.784668 380.893469 
L 549.193359 381.292309 
L 550.419434 383.657326 
L 550.828125 384.096319 
L 551.236816 384.155447 
L 551.645508 383.863816 
L 552.462891 382.979358 
L 552.871582 382.773059 
L 553.688965 382.686597 
L 554.915039 381.91615 
L 555.32373 382.226839 
L 555.732422 383.179533 
L 556.549805 385.734687 
L 556.958496 386.183281 
L 557.367188 385.697617 
L 558.593262 382.558257 
L 559.001953 382.034957 
L 559.410645 381.767703 
L 559.819336 381.747319 
L 560.228027 382.080566 
L 561.454102 384.213943 
L 561.862793 384.517973 
L 562.271484 384.49888 
L 562.680176 384.125417 
L 563.088867 383.364104 
L 563.90625 381.429202 
L 564.314941 381.00929 
L 564.723633 381.315073 
L 565.541016 383.169111 
L 565.949707 383.663106 
L 566.358398 383.433576 
L 567.175781 381.862779 
L 567.584473 381.42951 
L 567.993164 381.573948 
L 569.219238 383.483888 
L 569.62793 383.609714 
L 570.445312 383.407937 
L 571.262695 383.605823 
L 571.671387 383.405474 
L 572.48877 382.522011 
L 572.897461 382.525411 
L 573.306152 383.005984 
L 574.123535 384.228018 
L 574.532227 384.331764 
L 575.758301 383.431388 
L 576.166992 383.467771 
L 577.393066 383.983775 
L 578.210449 384.656598 
L 578.619141 384.797024 
L 579.027832 384.570149 
L 579.845215 383.383963 
L 580.662598 381.970567 
L 581.888672 379.327156 
L 582.297363 378.80563 
L 582.706055 378.728746 
L 583.114746 379.123749 
L 584.34082 381.579269 
L 585.158203 383.286501 
L 585.975586 385.001028 
L 586.384277 385.197109 
L 586.792969 384.851087 
L 587.610352 383.896712 
L 588.019043 383.86921 
L 588.836426 384.353482 
L 589.245117 384.368499 
L 589.653809 384.077645 
L 590.471191 383.161836 
L 590.879883 383.066537 
L 591.288574 383.373028 
L 592.105957 384.373846 
L 592.92334 384.878087 
L 593.740723 385.367073 
L 594.149414 385.433262 
L 594.558105 385.154576 
L 595.78418 383.554338 
L 597.418945 382.35338 
L 597.827637 382.236753 
L 599.871094 382.716271 
L 600.688477 383.309485 
L 601.097168 383.415488 
L 601.505859 383.180057 
L 602.323242 381.966182 
L 602.731934 381.363585 
L 603.140625 381.089379 
L 603.549316 381.301758 
L 604.366699 382.423685 
L 604.775391 382.623118 
L 605.592773 382.29367 
L 606.001465 382.413499 
L 607.227539 383.97018 
L 607.63623 384.131823 
L 608.044922 383.964494 
L 608.453613 383.479086 
L 609.270996 381.973842 
L 609.679688 381.517558 
L 610.088379 381.664571 
L 610.49707 382.441457 
L 611.314453 384.500606 
L 611.723145 384.903593 
L 612.131836 384.729254 
L 614.583984 382.090669 
L 614.992676 382.037074 
L 615.401367 382.487843 
L 616.21875 384.02847 
L 616.627441 384.317718 
L 617.036133 383.923916 
L 617.444824 382.8905 
L 618.262207 379.672672 
L 619.07959 376.780624 
L 619.488281 376.432057 
L 619.896973 377.02669 
L 620.714355 379.202489 
L 621.123047 379.459154 
L 621.531738 378.642337 
L 622.349121 374.66062 
L 622.757812 372.619519 
L 623.166504 371.270391 
L 623.575195 370.913405 
L 623.983887 371.641807 
L 625.209961 376.750675 
L 625.618652 377.566286 
L 626.027344 377.765978 
L 626.436035 377.774359 
L 626.844727 378.007413 
L 627.253418 378.698661 
L 628.479492 381.914144 
L 628.888184 382.231496 
L 629.296875 382.055213 
L 630.114258 381.34349 
L 630.931641 380.920626 
L 631.340332 380.822173 
L 631.749023 380.862792 
L 632.975098 381.592888 
L 633.383789 381.5488 
L 635.018555 380.367687 
L 636.244629 380.366844 
L 636.65332 380.097507 
L 638.288086 378.222139 
L 638.696777 378.018635 
L 639.105469 378.059485 
L 639.922852 378.540843 
L 640.331543 378.612188 
L 641.148926 378.553082 
L 641.557617 378.765215 
L 642.375 379.696594 
L 643.192383 380.667968 
L 643.601074 380.824858 
L 644.009766 380.567448 
L 644.827148 379.036774 
L 645.23584 378.327103 
L 645.644531 378.181098 
L 646.053223 378.809838 
L 647.279297 382.520828 
L 647.687988 383.15703 
L 648.505371 383.954549 
L 649.322754 384.968345 
L 649.731445 385.055324 
L 650.140137 384.694381 
L 650.95752 383.529387 
L 651.774902 382.790533 
L 653.000977 382.128093 
L 654.635742 381.164294 
L 655.044434 381.235004 
L 655.861816 381.807254 
L 657.087891 383.107187 
L 657.496582 383.231119 
L 657.905273 382.934387 
L 659.540039 380.525034 
L 660.357422 379.636531 
L 660.766113 379.634246 
L 661.174805 380.340711 
L 662.400879 384.112804 
L 662.80957 384.118438 
L 663.218262 383.293927 
L 664.035645 381.37011 
L 664.444336 381.185886 
L 665.67041 382.223726 
L 666.487793 382.21922 
L 666.896484 382.617056 
L 667.713867 384.268184 
L 668.122559 384.392923 
L 668.53125 383.620786 
L 669.348633 381.468615 
L 669.757324 381.22399 
L 670.574707 381.764881 
L 670.983398 381.728655 
L 671.800781 381.217416 
L 672.209473 381.393769 
L 672.618164 382.046753 
L 673.435547 383.666926 
L 673.844238 384.002677 
L 674.661621 384.117834 
L 676.296387 385.018517 
L 676.705078 384.762239 
L 677.522461 383.992384 
L 677.931152 383.875391 
L 678.339844 384.034097 
L 679.157227 384.690852 
L 679.565918 384.864951 
L 679.974609 384.803103 
L 680.383301 384.512367 
L 681.200684 383.454846 
L 682.018066 382.150159 
L 682.426758 381.721158 
L 682.835449 381.61168 
L 683.652832 382.066709 
L 684.470215 382.476081 
L 685.696289 382.687557 
L 686.10498 382.533349 
L 686.922363 381.636281 
L 687.331055 381.13339 
L 687.739746 380.844706 
L 688.148438 380.934532 
L 688.557129 381.444308 
L 689.783203 383.60763 
L 690.191895 383.850404 
L 690.600586 383.7955 
L 691.009277 383.624037 
L 691.417969 383.58301 
L 691.82666 383.833478 
L 692.644043 384.812805 
L 693.052734 385.067763 
L 693.870117 385.001315 
L 694.278809 385.170854 
L 695.096191 386.20099 
L 695.504883 386.264452 
L 695.913574 385.476067 
L 697.139648 381.351063 
L 697.54834 381.119968 
L 697.957031 381.491308 
L 698.774414 382.582897 
L 700.000488 383.403796 
L 700.40918 383.67789 
L 700.817871 383.71504 
L 701.226562 383.351983 
L 702.452637 381.407743 
L 702.861328 381.385001 
L 703.27002 381.840998 
L 703.678711 382.478858 
L 704.087402 382.871006 
L 704.496094 382.782206 
L 706.130859 381.02504 
L 706.948242 380.717979 
L 707.356934 380.75798 
L 707.765625 380.993712 
L 708.583008 381.973903 
L 709.809082 383.827489 
L 710.626465 384.456765 
L 711.443848 384.94484 
L 711.852539 384.956211 
L 712.26123 384.583981 
L 713.487305 382.785251 
L 713.895996 382.570819 
L 714.713379 382.484588 
L 715.12207 382.54118 
L 715.530762 382.880672 
L 715.939453 383.645022 
L 715.939453 383.645022 
" style="fill:none;stroke:#ff7f0e;stroke-linecap:square;stroke-width:1.5;"/>
   </g>
   <g id="patch_3">
    <path d="M 46.0125 445.58 
L 46.0125 10.7 
" style="fill:none;stroke:#000000;stroke-linecap:square;stroke-linejoin:miter;stroke-width:0.8;"/>
   </g>
   <g id="patch_4">
    <path d="M 715.6125 445.58 
L 715.6125 10.7 
" style="fill:none;stroke:#000000;stroke-linecap:square;stroke-linejoin:miter;stroke-width:0.8;"/>
   </g>
   <g id="patch_5">
    <path d="M 46.0125 445.58 
L 715.6125 445.58 
" style="fill:none;stroke:#000000;stroke-linecap:square;stroke-linejoin:miter;stroke-width:0.8;"/>
   </g>
   <g id="patch_6">
    <path d="M 46.0125 10.7 
L 715.6125 10.7 
" style="fill:none;stroke:#000000;stroke-linecap:square;stroke-linejoin:miter;stroke-width:0.8;"/>
   </g>
  </g>
 </g>
 <defs>
  <clipPath id="p451d5b539e">
   <rect height="434.88" width="669.6" x="46.0125" y="10.7"/>
  </clipPath>
 </defs>
</svg>
