<?xml version="1.0" encoding="utf-8" standalone="no"?>
<!DOCTYPE svg PUBLIC "-//W3C//DTD SVG 1.1//EN"
  "http://www.w3.org/Graphics/SVG/1.1/DTD/svg11.dtd">
<!-- Created with matplotlib (http://matplotlib.org/) -->
<svg height="494.754375pt" version="1.1" viewBox="0 0 729.282812 494.754375" width="729.282812pt" xmlns="http://www.w3.org/2000/svg" xmlns:xlink="http://www.w3.org/1999/xlink">
 <defs>
  <style type="text/css">
*{stroke-linecap:butt;stroke-linejoin:round;}
  </style>
 </defs>
 <g id="figure_1">
  <g id="patch_1">
   <path d="M 0 494.754375 
L 729.282812 494.754375 
L 729.282812 0 
L 0 0 
z
" style="fill:#ffffff;"/>
  </g>
  <g id="axes_1">
   <g id="patch_2">
    <path d="M 48.982813 457.198125 
L 718.582813 457.198125 
L 718.582813 22.318125 
L 48.982813 22.318125 
z
" style="fill:#ffffff;"/>
   </g>
   <g id="PathCollection_1">
    <defs>
     <path d="M 0 -3 
L -3 3 
L 3 3 
z
" id="mf2091f8a16" style="stroke:#ff0000;"/>
    </defs>
    <g clip-path="url(#p676f8a19e7)">
     <use style="fill:#ff0000;stroke:#ff0000;" x="581.402577" xlink:href="#mf2091f8a16" y="1293.995671"/>
     <use style="fill:#ff0000;stroke:#ff0000;" x="548.609568" xlink:href="#mf2091f8a16" y="1016.274055"/>
     <use style="fill:#ff0000;stroke:#ff0000;" x="517.987119" xlink:href="#mf2091f8a16" y="547.953232"/>
     <use style="fill:#ff0000;stroke:#ff0000;" x="489.32681" xlink:href="#mf2091f8a16" y="338.288887"/>
     <use style="fill:#ff0000;stroke:#ff0000;" x="462.445755" xlink:href="#mf2091f8a16" y="331.494611"/>
     <use style="fill:#ff0000;stroke:#ff0000;" x="459.849156" xlink:href="#mf2091f8a16" y="320.034074"/>
     <use style="fill:#ff0000;stroke:#ff0000;" x="457.268574" xlink:href="#mf2091f8a16" y="318.327895"/>
     <use style="fill:#ff0000;stroke:#ff0000;" x="452.154883" xlink:href="#mf2091f8a16" y="314.229875"/>
     <use style="fill:#ff0000;stroke:#ff0000;" x="449.621483" xlink:href="#mf2091f8a16" y="311.353869"/>
     <use style="fill:#ff0000;stroke:#ff0000;" x="447.103525" xlink:href="#mf2091f8a16" y="307.773357"/>
     <use style="fill:#ff0000;stroke:#ff0000;" x="442.113367" xlink:href="#mf2091f8a16" y="299.652698"/>
     <use style="fill:#ff0000;stroke:#ff0000;" x="437.183306" xlink:href="#mf2091f8a16" y="295.012528"/>
     <use style="fill:#ff0000;stroke:#ff0000;" x="432.312257" xlink:href="#mf2091f8a16" y="282.7924"/>
     <use style="fill:#ff0000;stroke:#ff0000;" x="429.898534" xlink:href="#mf2091f8a16" y="279.207539"/>
     <use style="fill:#ff0000;stroke:#ff0000;" x="427.499172" xlink:href="#mf2091f8a16" y="276.099597"/>
     <use style="fill:#ff0000;stroke:#ff0000;" x="425.114043" xlink:href="#mf2091f8a16" y="273.474371"/>
     <use style="fill:#ff0000;stroke:#ff0000;" x="422.743021" xlink:href="#mf2091f8a16" y="271.524659"/>
     <use style="fill:#ff0000;stroke:#ff0000;" x="420.385981" xlink:href="#mf2091f8a16" y="269.585095"/>
     <use style="fill:#ff0000;stroke:#ff0000;" x="418.0428" xlink:href="#mf2091f8a16" y="268.168835"/>
     <use style="fill:#ff0000;stroke:#ff0000;" x="415.713355" xlink:href="#mf2091f8a16" y="267.055543"/>
     <use style="fill:#ff0000;stroke:#ff0000;" x="413.397522" xlink:href="#mf2091f8a16" y="270.644752"/>
     <use style="fill:#ff0000;stroke:#ff0000;" x="408.806246" xlink:href="#mf2091f8a16" y="264.984064"/>
     <use style="fill:#ff0000;stroke:#ff0000;" x="390.96265" xlink:href="#mf2091f8a16" y="267.506368"/>
     <use style="fill:#ff0000;stroke:#ff0000;" x="369.766709" xlink:href="#mf2091f8a16" y="264.160691"/>
     <use style="fill:#ff0000;stroke:#ff0000;" x="349.709889" xlink:href="#mf2091f8a16" y="264.133149"/>
     <use style="fill:#ff0000;stroke:#ff0000;" x="312.664974" xlink:href="#mf2091f8a16" y="264.063568"/>
    </g>
   </g>
   <g id="PathCollection_2">
    <defs>
     <path d="M 0 3 
C 0.795609 3 1.55874 2.683901 2.12132 2.12132 
C 2.683901 1.55874 3 0.795609 3 0 
C 3 -0.795609 2.683901 -1.55874 2.12132 -2.12132 
C 1.55874 -2.683901 0.795609 -3 0 -3 
C -0.795609 -3 -1.55874 -2.683901 -2.12132 -2.12132 
C -2.683901 -1.55874 -3 -0.795609 -3 0 
C -3 0.795609 -2.683901 1.55874 -2.12132 2.12132 
C -1.55874 2.683901 -0.795609 3 0 3 
z
" id="m4673eaa884" style="stroke:#1f77b4;"/>
    </defs>
    <g clip-path="url(#p676f8a19e7)">
     <use style="fill:#1f77b4;stroke:#1f77b4;" x="222.705146" xlink:href="#m4673eaa884" y="210.418221"/>
     <use style="fill:#1f77b4;stroke:#1f77b4;" x="165.307538" xlink:href="#m4673eaa884" y="226.178272"/>
     <use style="fill:#1f77b4;stroke:#1f77b4;" x="136.75899" xlink:href="#m4673eaa884" y="205.802695"/>
     <use style="fill:#1f77b4;stroke:#1f77b4;" x="108.150339" xlink:href="#m4673eaa884" y="212.469405"/>
     <use style="fill:#1f77b4;stroke:#1f77b4;" x="80.743733" xlink:href="#m4673eaa884" y="223.821223"/>
     <use style="fill:#1f77b4;stroke:#1f77b4;" x="193.976291" xlink:href="#m4673eaa884" y="216.638455"/>
    </g>
   </g>
   <g id="PathCollection_3">
    <defs>
     <path d="M 0 3 
C 0.795609 3 1.55874 2.683901 2.12132 2.12132 
C 2.683901 1.55874 3 0.795609 3 0 
C 3 -0.795609 2.683901 -1.55874 2.12132 -2.12132 
C 1.55874 -2.683901 0.795609 -3 0 -3 
C -0.795609 -3 -1.55874 -2.683901 -2.12132 -2.12132 
C -2.683901 -1.55874 -3 -0.795609 -3 0 
C -3 0.795609 -2.683901 1.55874 -2.12132 2.12132 
C -1.55874 2.683901 -0.795609 3 0 3 
z
" id="m2472550c13" style="stroke:#ff7f0e;"/>
    </defs>
    <g clip-path="url(#p676f8a19e7)">
     <use style="fill:#ff7f0e;stroke:#ff7f0e;" x="280.854032" xlink:href="#m2472550c13" y="232.204259"/>
     <use style="fill:#ff7f0e;stroke:#ff7f0e;" x="308.891712" xlink:href="#m2472550c13" y="227.849661"/>
    </g>
   </g>
   <g id="PathCollection_4">
    <defs>
     <path d="M 0 3 
C 0.795609 3 1.55874 2.683901 2.12132 2.12132 
C 2.683901 1.55874 3 0.795609 3 0 
C 3 -0.795609 2.683901 -1.55874 2.12132 -2.12132 
C 1.55874 -2.683901 0.795609 -3 0 -3 
C -0.795609 -3 -1.55874 -2.683901 -2.12132 -2.12132 
C -2.683901 -1.55874 -3 -0.795609 -3 0 
C -3 0.795609 -2.683901 1.55874 -2.12132 2.12132 
C -1.55874 2.683901 -0.795609 3 0 3 
z
" id="m43b39a2635" style="stroke:#2ca02c;"/>
    </defs>
    <g clip-path="url(#p676f8a19e7)">
     <use style="fill:#2ca02c;stroke:#2ca02c;" x="685.67245" xlink:href="#m43b39a2635" y="97.130531"/>
     <use style="fill:#2ca02c;stroke:#2ca02c;" x="542.208481" xlink:href="#m43b39a2635" y="283.850608"/>
     <use style="fill:#2ca02c;stroke:#2ca02c;" x="672.0593" xlink:href="#m43b39a2635" y="117.487264"/>
     <use style="fill:#2ca02c;stroke:#2ca02c;" x="484.480311" xlink:href="#m43b39a2635" y="321.557603"/>
     <use style="fill:#2ca02c;stroke:#2ca02c;" x="455.420893" xlink:href="#m43b39a2635" y="264.827507"/>
     <use style="fill:#2ca02c;stroke:#2ca02c;" x="527.814002" xlink:href="#m43b39a2635" y="294.334115"/>
     <use style="fill:#2ca02c;stroke:#2ca02c;" x="469.995679" xlink:href="#m43b39a2635" y="292.761299"/>
     <use style="fill:#2ca02c;stroke:#2ca02c;" x="556.60296" xlink:href="#m43b39a2635" y="199.636096"/>
     <use style="fill:#2ca02c;stroke:#2ca02c;" x="657.785026" xlink:href="#m43b39a2635" y="95.593955"/>
     <use style="fill:#2ca02c;stroke:#2ca02c;" x="599.876549" xlink:href="#m43b39a2635" y="65.633623"/>
     <use style="fill:#2ca02c;stroke:#2ca02c;" x="570.877234" xlink:href="#m43b39a2635" y="99.475984"/>
     <use style="fill:#2ca02c;stroke:#2ca02c;" x="498.874789" xlink:href="#m43b39a2635" y="318.535187"/>
     <use style="fill:#2ca02c;stroke:#2ca02c;" x="628.815762" xlink:href="#m43b39a2635" y="94.828567"/>
     <use style="fill:#2ca02c;stroke:#2ca02c;" x="513.629881" xlink:href="#m43b39a2635" y="319.61369"/>
     <use style="fill:#2ca02c;stroke:#2ca02c;" x="643.390547" xlink:href="#m43b39a2635" y="53.059792"/>
     <use style="fill:#2ca02c;stroke:#2ca02c;" x="614.361181" xlink:href="#m43b39a2635" y="82.67657"/>
     <use style="fill:#2ca02c;stroke:#2ca02c;" x="585.331815" xlink:href="#m43b39a2635" y="106.039773"/>
    </g>
   </g>
   <g id="PathCollection_5">
    <defs>
     <path d="M 0 3 
C 0.795609 3 1.55874 2.683901 2.12132 2.12132 
C 2.683901 1.55874 3 0.795609 3 0 
C 3 -0.795609 2.683901 -1.55874 2.12132 -2.12132 
C 1.55874 -2.683901 0.795609 -3 0 -3 
C -0.795609 -3 -1.55874 -2.683901 -2.12132 -2.12132 
C -2.683901 -1.55874 -3 -0.795609 -3 0 
C -3 0.795609 -2.683901 1.55874 -2.12132 2.12132 
C -1.55874 2.683901 -0.795609 3 0 3 
z
" id="m3c487fdce0" style="stroke:#d62728;"/>
    </defs>
    <g clip-path="url(#p676f8a19e7)">
     <use style="fill:#d62728;stroke:#d62728;" x="511.616457" xlink:href="#m3c487fdce0" y="385.680659"/>
     <use style="fill:#d62728;stroke:#d62728;" x="468.493124" xlink:href="#m3c487fdce0" y="297.762419"/>
     <use style="fill:#d62728;stroke:#d62728;" x="569.014065" xlink:href="#m3c487fdce0" y="187.153591"/>
     <use style="fill:#d62728;stroke:#d62728;" x="683.839333" xlink:href="#m3c487fdce0" y="122.615949"/>
     <use style="fill:#d62728;stroke:#d62728;" x="669.745365" xlink:href="#m3c487fdce0" y="114.134339"/>
     <use style="fill:#d62728;stroke:#d62728;" x="612.287655" xlink:href="#m3c487fdce0" y="109.304272"/>
     <use style="fill:#d62728;stroke:#d62728;" x="597.833074" xlink:href="#m3c487fdce0" y="183.394778"/>
     <use style="fill:#d62728;stroke:#d62728;" x="453.97844" xlink:href="#m3c487fdce0" y="279.868557"/>
     <use style="fill:#d62728;stroke:#d62728;" x="540.375364" xlink:href="#m3c487fdce0" y="254.146855"/>
     <use style="fill:#d62728;stroke:#d62728;" x="641.106663" xlink:href="#m3c487fdce0" y="125.131005"/>
     <use style="fill:#d62728;stroke:#d62728;" x="626.652082" xlink:href="#m3c487fdce0" y="99.212157"/>
     <use style="fill:#d62728;stroke:#d62728;" x="482.887602" xlink:href="#m3c487fdce0" y="329.133213"/>
     <use style="fill:#d62728;stroke:#d62728;" x="583.318391" xlink:href="#m3c487fdce0" y="154.162144"/>
     <use style="fill:#d62728;stroke:#d62728;" x="497.25203" xlink:href="#m3c487fdce0" y="343.437866"/>
     <use style="fill:#d62728;stroke:#d62728;" x="526.040987" xlink:href="#m3c487fdce0" y="302.404039"/>
     <use style="fill:#d62728;stroke:#d62728;" x="554.70974" xlink:href="#m3c487fdce0" y="168.289946"/>
     <use style="fill:#d62728;stroke:#d62728;" x="453.97844" xlink:href="#m3c487fdce0" y="238.902861"/>
     <use style="fill:#d62728;stroke:#d62728;" x="655.44104" xlink:href="#m3c487fdce0" y="105.348314"/>
    </g>
   </g>
   <g id="PathCollection_6">
    <defs>
     <path d="M 0 3 
C 0.795609 3 1.55874 2.683901 2.12132 2.12132 
C 2.683901 1.55874 3 0.795609 3 0 
C 3 -0.795609 2.683901 -1.55874 2.12132 -2.12132 
C 1.55874 -2.683901 0.795609 -3 0 -3 
C -0.795609 -3 -1.55874 -2.683901 -2.12132 -2.12132 
C -2.683901 -1.55874 -3 -0.795609 -3 0 
C -3 0.795609 -2.683901 1.55874 -2.12132 2.12132 
C -1.55874 2.683901 -0.795609 3 0 3 
z
" id="m788f2042f3" style="stroke:#9467bd;"/>
    </defs>
    <g clip-path="url(#p676f8a19e7)">
     <use style="fill:#9467bd;stroke:#9467bd;" x="324.217775" xlink:href="#m788f2042f3" y="216.616711"/>
     <use style="fill:#9467bd;stroke:#9467bd;" x="338.762509" xlink:href="#m788f2042f3" y="229.486259"/>
     <use style="fill:#9467bd;stroke:#9467bd;" x="309.913449" xlink:href="#m788f2042f3" y="222.010672"/>
     <use style="fill:#9467bd;stroke:#9467bd;" x="439.553911" xlink:href="#m788f2042f3" y="203.82689"/>
     <use style="fill:#9467bd;stroke:#9467bd;" x="396.460628" xlink:href="#m788f2042f3" y="218.925923"/>
     <use style="fill:#9467bd;stroke:#9467bd;" x="367.64162" xlink:href="#m788f2042f3" y="223.493613"/>
     <use style="fill:#9467bd;stroke:#9467bd;" x="353.21709" xlink:href="#m788f2042f3" y="219.691312"/>
     <use style="fill:#9467bd;stroke:#9467bd;" x="425.189483" xlink:href="#m788f2042f3" y="200.473965"/>
     <use style="fill:#9467bd;stroke:#9467bd;" x="410.795004" xlink:href="#m788f2042f3" y="215.207699"/>
     <use style="fill:#9467bd;stroke:#9467bd;" x="382.156303" xlink:href="#m788f2042f3" y="230.527072"/>
    </g>
   </g>
   <g id="PathCollection_7">
    <defs>
     <path d="M 0 3 
C 0.795609 3 1.55874 2.683901 2.12132 2.12132 
C 2.683901 1.55874 3 0.795609 3 0 
C 3 -0.795609 2.683901 -1.55874 2.12132 -2.12132 
C 1.55874 -2.683901 0.795609 -3 0 -3 
C -0.795609 -3 -1.55874 -2.683901 -2.12132 -2.12132 
C -2.683901 -1.55874 -3 -0.795609 -3 0 
C -3 0.795609 -2.683901 1.55874 -2.12132 2.12132 
C -1.55874 2.683901 -0.795609 3 0 3 
z
" id="m9970285ee2" style="stroke:#8c564b;"/>
    </defs>
    <g clip-path="url(#p676f8a19e7)">
     <use style="fill:#8c564b;stroke:#8c564b;" x="500.25714" xlink:href="#m9970285ee2" y="327.809728"/>
     <use style="fill:#8c564b;stroke:#8c564b;" x="491.602422" xlink:href="#m9970285ee2" y="367.725914"/>
     <use style="fill:#8c564b;stroke:#8c564b;" x="410.855107" xlink:href="#m9970285ee2" y="226.456595"/>
     <use style="fill:#8c564b;stroke:#8c564b;" x="511.766713" xlink:href="#m9970285ee2" y="426.397024"/>
     <use style="fill:#8c564b;stroke:#8c564b;" x="453.948389" xlink:href="#m9970285ee2" y="260.938231"/>
     <use style="fill:#8c564b;stroke:#8c564b;" x="465.578166" xlink:href="#m9970285ee2" y="230.166122"/>
     <use style="fill:#8c564b;stroke:#8c564b;" x="445.353774" xlink:href="#m9970285ee2" y="203.378963"/>
     <use style="fill:#8c564b;stroke:#8c564b;" x="402.260491" xlink:href="#m9970285ee2" y="233.271165"/>
     <use style="fill:#8c564b;stroke:#8c564b;" x="428.10444" xlink:href="#m9970285ee2" y="215.396147"/>
     <use style="fill:#8c564b;stroke:#8c564b;" x="477.147841" xlink:href="#m9970285ee2" y="303.12449"/>
     <use style="fill:#8c564b;stroke:#8c564b;" x="459.748252" xlink:href="#m9970285ee2" y="212.734682"/>
     <use style="fill:#8c564b;stroke:#8c564b;" x="419.479773" xlink:href="#m9970285ee2" y="218.231565"/>
     <use style="fill:#8c564b;stroke:#8c564b;" x="471.378029" xlink:href="#m9970285ee2" y="377.812231"/>
     <use style="fill:#8c564b;stroke:#8c564b;" x="419.479773" xlink:href="#m9970285ee2" y="222.503536"/>
     <use style="fill:#8c564b;stroke:#8c564b;" x="436.729107" xlink:href="#m9970285ee2" y="230.950355"/>
     <use style="fill:#8c564b;stroke:#8c564b;" x="482.947704" xlink:href="#m9970285ee2" y="339.18329"/>
     <use style="fill:#8c564b;stroke:#8c564b;" x="410.885158" xlink:href="#m9970285ee2" y="226.458045"/>
     <use style="fill:#8c564b;stroke:#8c564b;" x="427.864031" xlink:href="#m9970285ee2" y="212.466506"/>
    </g>
   </g>
   <g id="PathCollection_8">
    <defs>
     <path d="M 0 3 
C 0.795609 3 1.55874 2.683901 2.12132 2.12132 
C 2.683901 1.55874 3 0.795609 3 0 
C 3 -0.795609 2.683901 -1.55874 2.12132 -2.12132 
C 1.55874 -2.683901 0.795609 -3 0 -3 
C -0.795609 -3 -1.55874 -2.683901 -2.12132 -2.12132 
C -2.683901 -1.55874 -3 -0.795609 -3 0 
C -3 0.795609 -2.683901 1.55874 -2.12132 2.12132 
C -1.55874 2.683901 -0.795609 3 0 3 
z
" id="m602f6dd8ff" style="stroke:#e377c2;"/>
    </defs>
    <g clip-path="url(#p676f8a19e7)">
     <use style="fill:#e377c2;stroke:#e377c2;" x="280.79393" xlink:href="#m602f6dd8ff" y="216.096304"/>
     <use style="fill:#e377c2;stroke:#e377c2;" x="367.220904" xlink:href="#m602f6dd8ff" y="224.775059"/>
     <use style="fill:#e377c2;stroke:#e377c2;" x="309.612938" xlink:href="#m602f6dd8ff" y="212.549133"/>
     <use style="fill:#e377c2;stroke:#e377c2;" x="252.035024" xlink:href="#m602f6dd8ff" y="216.897933"/>
     <use style="fill:#e377c2;stroke:#e377c2;" x="194.75762" xlink:href="#m602f6dd8ff" y="214.171235"/>
     <use style="fill:#e377c2;stroke:#e377c2;" x="338.371845" xlink:href="#m602f6dd8ff" y="223.328359"/>
     <use style="fill:#e377c2;stroke:#e377c2;" x="223.246066" xlink:href="#m602f6dd8ff" y="219.092627"/>
    </g>
   </g>
   <g id="PathCollection_9">
    <defs>
     <path d="M 0 3 
C 0.795609 3 1.55874 2.683901 2.12132 2.12132 
C 2.683901 1.55874 3 0.795609 3 0 
C 3 -0.795609 2.683901 -1.55874 2.12132 -2.12132 
C 1.55874 -2.683901 0.795609 -3 0 -3 
C -0.795609 -3 -1.55874 -2.683901 -2.12132 -2.12132 
C -2.683901 -1.55874 -3 -0.795609 -3 0 
C -3 0.795609 -2.683901 1.55874 -2.12132 2.12132 
C -1.55874 2.683901 -0.795609 3 0 3 
z
" id="m42a616629d" style="stroke:#7f7f7f;"/>
    </defs>
    <g clip-path="url(#p676f8a19e7)">
     <use style="fill:#7f7f7f;stroke:#7f7f7f;" x="338.371845" xlink:href="#m42a616629d" y="212.708589"/>
     <use style="fill:#7f7f7f;stroke:#7f7f7f;" x="352.796374" xlink:href="#m42a616629d" y="214.739479"/>
     <use style="fill:#7f7f7f;stroke:#7f7f7f;" x="323.857161" xlink:href="#m42a616629d" y="224.054608"/>
     <use style="fill:#7f7f7f;stroke:#7f7f7f;" x="367.220904" xlink:href="#m42a616629d" y="217.411091"/>
     <use style="fill:#7f7f7f;stroke:#7f7f7f;" x="396.069964" xlink:href="#m42a616629d" y="205.866477"/>
     <use style="fill:#7f7f7f;stroke:#7f7f7f;" x="410.374289" xlink:href="#m42a616629d" y="208.184387"/>
     <use style="fill:#7f7f7f;stroke:#7f7f7f;" x="309.552836" xlink:href="#m42a616629d" y="211.388003"/>
     <use style="fill:#7f7f7f;stroke:#7f7f7f;" x="295.428817" xlink:href="#m42a616629d" y="211.470631"/>
     <use style="fill:#7f7f7f;stroke:#7f7f7f;" x="381.675485" xlink:href="#m42a616629d" y="220.187075"/>
    </g>
   </g>
   <g id="matplotlib.axis_1">
    <g id="xtick_1">
     <g id="line2d_1">
      <defs>
       <path d="M 0 0 
L 0 3.5 
" id="m8334607bb3" style="stroke:#000000;stroke-width:0.8;"/>
      </defs>
      <g>
       <use style="stroke:#000000;stroke-width:0.8;" x="53.307075" xlink:href="#m8334607bb3" y="457.198125"/>
      </g>
     </g>
     <g id="text_1">
      <!-- 225 -->
      <defs>
       <path d="M 19.1875 8.296875 
L 53.609375 8.296875 
L 53.609375 0 
L 7.328125 0 
L 7.328125 8.296875 
Q 12.9375 14.109375 22.625 23.890625 
Q 32.328125 33.6875 34.8125 36.53125 
Q 39.546875 41.84375 41.421875 45.53125 
Q 43.3125 49.21875 43.3125 52.78125 
Q 43.3125 58.59375 39.234375 62.25 
Q 35.15625 65.921875 28.609375 65.921875 
Q 23.96875 65.921875 18.8125 64.3125 
Q 13.671875 62.703125 7.8125 59.421875 
L 7.8125 69.390625 
Q 13.765625 71.78125 18.9375 73 
Q 24.125 74.21875 28.421875 74.21875 
Q 39.75 74.21875 46.484375 68.546875 
Q 53.21875 62.890625 53.21875 53.421875 
Q 53.21875 48.921875 51.53125 44.890625 
Q 49.859375 40.875 45.40625 35.40625 
Q 44.1875 33.984375 37.640625 27.21875 
Q 31.109375 20.453125 19.1875 8.296875 
z
" id="DejaVuSans-32"/>
       <path d="M 10.796875 72.90625 
L 49.515625 72.90625 
L 49.515625 64.59375 
L 19.828125 64.59375 
L 19.828125 46.734375 
Q 21.96875 47.46875 24.109375 47.828125 
Q 26.265625 48.1875 28.421875 48.1875 
Q 40.625 48.1875 47.75 41.5 
Q 54.890625 34.8125 54.890625 23.390625 
Q 54.890625 11.625 47.5625 5.09375 
Q 40.234375 -1.421875 26.90625 -1.421875 
Q 22.3125 -1.421875 17.546875 -0.640625 
Q 12.796875 0.140625 7.71875 1.703125 
L 7.71875 11.625 
Q 12.109375 9.234375 16.796875 8.0625 
Q 21.484375 6.890625 26.703125 6.890625 
Q 35.15625 6.890625 40.078125 11.328125 
Q 45.015625 15.765625 45.015625 23.390625 
Q 45.015625 31 40.078125 35.4375 
Q 35.15625 39.890625 26.703125 39.890625 
Q 22.75 39.890625 18.8125 39.015625 
Q 14.890625 38.140625 10.796875 36.28125 
z
" id="DejaVuSans-35"/>
      </defs>
      <g transform="translate(43.763325 471.796562)scale(0.1 -0.1)">
       <use xlink:href="#DejaVuSans-32"/>
       <use x="63.623047" xlink:href="#DejaVuSans-32"/>
       <use x="127.246094" xlink:href="#DejaVuSans-35"/>
      </g>
     </g>
    </g>
    <g id="xtick_2">
     <g id="line2d_2">
      <g>
       <use style="stroke:#000000;stroke-width:0.8;" x="128.434834" xlink:href="#m8334607bb3" y="457.198125"/>
      </g>
     </g>
     <g id="text_2">
      <!-- 250 -->
      <defs>
       <path d="M 31.78125 66.40625 
Q 24.171875 66.40625 20.328125 58.90625 
Q 16.5 51.421875 16.5 36.375 
Q 16.5 21.390625 20.328125 13.890625 
Q 24.171875 6.390625 31.78125 6.390625 
Q 39.453125 6.390625 43.28125 13.890625 
Q 47.125 21.390625 47.125 36.375 
Q 47.125 51.421875 43.28125 58.90625 
Q 39.453125 66.40625 31.78125 66.40625 
z
M 31.78125 74.21875 
Q 44.046875 74.21875 50.515625 64.515625 
Q 56.984375 54.828125 56.984375 36.375 
Q 56.984375 17.96875 50.515625 8.265625 
Q 44.046875 -1.421875 31.78125 -1.421875 
Q 19.53125 -1.421875 13.0625 8.265625 
Q 6.59375 17.96875 6.59375 36.375 
Q 6.59375 54.828125 13.0625 64.515625 
Q 19.53125 74.21875 31.78125 74.21875 
z
" id="DejaVuSans-30"/>
      </defs>
      <g transform="translate(118.891084 471.796562)scale(0.1 -0.1)">
       <use xlink:href="#DejaVuSans-32"/>
       <use x="63.623047" xlink:href="#DejaVuSans-35"/>
       <use x="127.246094" xlink:href="#DejaVuSans-30"/>
      </g>
     </g>
    </g>
    <g id="xtick_3">
     <g id="line2d_3">
      <g>
       <use style="stroke:#000000;stroke-width:0.8;" x="203.562593" xlink:href="#m8334607bb3" y="457.198125"/>
      </g>
     </g>
     <g id="text_3">
      <!-- 275 -->
      <defs>
       <path d="M 8.203125 72.90625 
L 55.078125 72.90625 
L 55.078125 68.703125 
L 28.609375 0 
L 18.3125 0 
L 43.21875 64.59375 
L 8.203125 64.59375 
z
" id="DejaVuSans-37"/>
      </defs>
      <g transform="translate(194.018843 471.796562)scale(0.1 -0.1)">
       <use xlink:href="#DejaVuSans-32"/>
       <use x="63.623047" xlink:href="#DejaVuSans-37"/>
       <use x="127.246094" xlink:href="#DejaVuSans-35"/>
      </g>
     </g>
    </g>
    <g id="xtick_4">
     <g id="line2d_4">
      <g>
       <use style="stroke:#000000;stroke-width:0.8;" x="278.690353" xlink:href="#m8334607bb3" y="457.198125"/>
      </g>
     </g>
     <g id="text_4">
      <!-- 300 -->
      <defs>
       <path d="M 40.578125 39.3125 
Q 47.65625 37.796875 51.625 33 
Q 55.609375 28.21875 55.609375 21.1875 
Q 55.609375 10.40625 48.1875 4.484375 
Q 40.765625 -1.421875 27.09375 -1.421875 
Q 22.515625 -1.421875 17.65625 -0.515625 
Q 12.796875 0.390625 7.625 2.203125 
L 7.625 11.71875 
Q 11.71875 9.328125 16.59375 8.109375 
Q 21.484375 6.890625 26.8125 6.890625 
Q 36.078125 6.890625 40.9375 10.546875 
Q 45.796875 14.203125 45.796875 21.1875 
Q 45.796875 27.640625 41.28125 31.265625 
Q 36.765625 34.90625 28.71875 34.90625 
L 20.21875 34.90625 
L 20.21875 43.015625 
L 29.109375 43.015625 
Q 36.375 43.015625 40.234375 45.921875 
Q 44.09375 48.828125 44.09375 54.296875 
Q 44.09375 59.90625 40.109375 62.90625 
Q 36.140625 65.921875 28.71875 65.921875 
Q 24.65625 65.921875 20.015625 65.03125 
Q 15.375 64.15625 9.8125 62.3125 
L 9.8125 71.09375 
Q 15.4375 72.65625 20.34375 73.4375 
Q 25.25 74.21875 29.59375 74.21875 
Q 40.828125 74.21875 47.359375 69.109375 
Q 53.90625 64.015625 53.90625 55.328125 
Q 53.90625 49.265625 50.4375 45.09375 
Q 46.96875 40.921875 40.578125 39.3125 
z
" id="DejaVuSans-33"/>
      </defs>
      <g transform="translate(269.146603 471.796562)scale(0.1 -0.1)">
       <use xlink:href="#DejaVuSans-33"/>
       <use x="63.623047" xlink:href="#DejaVuSans-30"/>
       <use x="127.246094" xlink:href="#DejaVuSans-30"/>
      </g>
     </g>
    </g>
    <g id="xtick_5">
     <g id="line2d_5">
      <g>
       <use style="stroke:#000000;stroke-width:0.8;" x="353.818112" xlink:href="#m8334607bb3" y="457.198125"/>
      </g>
     </g>
     <g id="text_5">
      <!-- 325 -->
      <g transform="translate(344.274362 471.796562)scale(0.1 -0.1)">
       <use xlink:href="#DejaVuSans-33"/>
       <use x="63.623047" xlink:href="#DejaVuSans-32"/>
       <use x="127.246094" xlink:href="#DejaVuSans-35"/>
      </g>
     </g>
    </g>
    <g id="xtick_6">
     <g id="line2d_6">
      <g>
       <use style="stroke:#000000;stroke-width:0.8;" x="428.945871" xlink:href="#m8334607bb3" y="457.198125"/>
      </g>
     </g>
     <g id="text_6">
      <!-- 350 -->
      <g transform="translate(419.402121 471.796562)scale(0.1 -0.1)">
       <use xlink:href="#DejaVuSans-33"/>
       <use x="63.623047" xlink:href="#DejaVuSans-35"/>
       <use x="127.246094" xlink:href="#DejaVuSans-30"/>
      </g>
     </g>
    </g>
    <g id="xtick_7">
     <g id="line2d_7">
      <g>
       <use style="stroke:#000000;stroke-width:0.8;" x="504.07363" xlink:href="#m8334607bb3" y="457.198125"/>
      </g>
     </g>
     <g id="text_7">
      <!-- 375 -->
      <g transform="translate(494.52988 471.796562)scale(0.1 -0.1)">
       <use xlink:href="#DejaVuSans-33"/>
       <use x="63.623047" xlink:href="#DejaVuSans-37"/>
       <use x="127.246094" xlink:href="#DejaVuSans-35"/>
      </g>
     </g>
    </g>
    <g id="xtick_8">
     <g id="line2d_8">
      <g>
       <use style="stroke:#000000;stroke-width:0.8;" x="579.20139" xlink:href="#m8334607bb3" y="457.198125"/>
      </g>
     </g>
     <g id="text_8">
      <!-- 400 -->
      <defs>
       <path d="M 37.796875 64.3125 
L 12.890625 25.390625 
L 37.796875 25.390625 
z
M 35.203125 72.90625 
L 47.609375 72.90625 
L 47.609375 25.390625 
L 58.015625 25.390625 
L 58.015625 17.1875 
L 47.609375 17.1875 
L 47.609375 0 
L 37.796875 0 
L 37.796875 17.1875 
L 4.890625 17.1875 
L 4.890625 26.703125 
z
" id="DejaVuSans-34"/>
      </defs>
      <g transform="translate(569.65764 471.796562)scale(0.1 -0.1)">
       <use xlink:href="#DejaVuSans-34"/>
       <use x="63.623047" xlink:href="#DejaVuSans-30"/>
       <use x="127.246094" xlink:href="#DejaVuSans-30"/>
      </g>
     </g>
    </g>
    <g id="xtick_9">
     <g id="line2d_9">
      <g>
       <use style="stroke:#000000;stroke-width:0.8;" x="654.329149" xlink:href="#m8334607bb3" y="457.198125"/>
      </g>
     </g>
     <g id="text_9">
      <!-- 425 -->
      <g transform="translate(644.785399 471.796562)scale(0.1 -0.1)">
       <use xlink:href="#DejaVuSans-34"/>
       <use x="63.623047" xlink:href="#DejaVuSans-32"/>
       <use x="127.246094" xlink:href="#DejaVuSans-35"/>
      </g>
     </g>
    </g>
    <g id="text_10">
     <!-- Temperatur [K] -->
     <defs>
      <path d="M -0.296875 72.90625 
L 61.375 72.90625 
L 61.375 64.59375 
L 35.5 64.59375 
L 35.5 0 
L 25.59375 0 
L 25.59375 64.59375 
L -0.296875 64.59375 
z
" id="DejaVuSans-54"/>
      <path d="M 56.203125 29.59375 
L 56.203125 25.203125 
L 14.890625 25.203125 
Q 15.484375 15.921875 20.484375 11.0625 
Q 25.484375 6.203125 34.421875 6.203125 
Q 39.59375 6.203125 44.453125 7.46875 
Q 49.3125 8.734375 54.109375 11.28125 
L 54.109375 2.78125 
Q 49.265625 0.734375 44.1875 -0.34375 
Q 39.109375 -1.421875 33.890625 -1.421875 
Q 20.796875 -1.421875 13.15625 6.1875 
Q 5.515625 13.8125 5.515625 26.8125 
Q 5.515625 40.234375 12.765625 48.109375 
Q 20.015625 56 32.328125 56 
Q 43.359375 56 49.78125 48.890625 
Q 56.203125 41.796875 56.203125 29.59375 
z
M 47.21875 32.234375 
Q 47.125 39.59375 43.09375 43.984375 
Q 39.0625 48.390625 32.421875 48.390625 
Q 24.90625 48.390625 20.390625 44.140625 
Q 15.875 39.890625 15.1875 32.171875 
z
" id="DejaVuSans-65"/>
      <path d="M 52 44.1875 
Q 55.375 50.25 60.0625 53.125 
Q 64.75 56 71.09375 56 
Q 79.640625 56 84.28125 50.015625 
Q 88.921875 44.046875 88.921875 33.015625 
L 88.921875 0 
L 79.890625 0 
L 79.890625 32.71875 
Q 79.890625 40.578125 77.09375 44.375 
Q 74.3125 48.1875 68.609375 48.1875 
Q 61.625 48.1875 57.5625 43.546875 
Q 53.515625 38.921875 53.515625 30.90625 
L 53.515625 0 
L 44.484375 0 
L 44.484375 32.71875 
Q 44.484375 40.625 41.703125 44.40625 
Q 38.921875 48.1875 33.109375 48.1875 
Q 26.21875 48.1875 22.15625 43.53125 
Q 18.109375 38.875 18.109375 30.90625 
L 18.109375 0 
L 9.078125 0 
L 9.078125 54.6875 
L 18.109375 54.6875 
L 18.109375 46.1875 
Q 21.1875 51.21875 25.484375 53.609375 
Q 29.78125 56 35.6875 56 
Q 41.65625 56 45.828125 52.96875 
Q 50 49.953125 52 44.1875 
z
" id="DejaVuSans-6d"/>
      <path d="M 18.109375 8.203125 
L 18.109375 -20.796875 
L 9.078125 -20.796875 
L 9.078125 54.6875 
L 18.109375 54.6875 
L 18.109375 46.390625 
Q 20.953125 51.265625 25.265625 53.625 
Q 29.59375 56 35.59375 56 
Q 45.5625 56 51.78125 48.09375 
Q 58.015625 40.1875 58.015625 27.296875 
Q 58.015625 14.40625 51.78125 6.484375 
Q 45.5625 -1.421875 35.59375 -1.421875 
Q 29.59375 -1.421875 25.265625 0.953125 
Q 20.953125 3.328125 18.109375 8.203125 
z
M 48.6875 27.296875 
Q 48.6875 37.203125 44.609375 42.84375 
Q 40.53125 48.484375 33.40625 48.484375 
Q 26.265625 48.484375 22.1875 42.84375 
Q 18.109375 37.203125 18.109375 27.296875 
Q 18.109375 17.390625 22.1875 11.75 
Q 26.265625 6.109375 33.40625 6.109375 
Q 40.53125 6.109375 44.609375 11.75 
Q 48.6875 17.390625 48.6875 27.296875 
z
" id="DejaVuSans-70"/>
      <path d="M 41.109375 46.296875 
Q 39.59375 47.171875 37.8125 47.578125 
Q 36.03125 48 33.890625 48 
Q 26.265625 48 22.1875 43.046875 
Q 18.109375 38.09375 18.109375 28.8125 
L 18.109375 0 
L 9.078125 0 
L 9.078125 54.6875 
L 18.109375 54.6875 
L 18.109375 46.1875 
Q 20.953125 51.171875 25.484375 53.578125 
Q 30.03125 56 36.53125 56 
Q 37.453125 56 38.578125 55.875 
Q 39.703125 55.765625 41.0625 55.515625 
z
" id="DejaVuSans-72"/>
      <path d="M 34.28125 27.484375 
Q 23.390625 27.484375 19.1875 25 
Q 14.984375 22.515625 14.984375 16.5 
Q 14.984375 11.71875 18.140625 8.90625 
Q 21.296875 6.109375 26.703125 6.109375 
Q 34.1875 6.109375 38.703125 11.40625 
Q 43.21875 16.703125 43.21875 25.484375 
L 43.21875 27.484375 
z
M 52.203125 31.203125 
L 52.203125 0 
L 43.21875 0 
L 43.21875 8.296875 
Q 40.140625 3.328125 35.546875 0.953125 
Q 30.953125 -1.421875 24.3125 -1.421875 
Q 15.921875 -1.421875 10.953125 3.296875 
Q 6 8.015625 6 15.921875 
Q 6 25.140625 12.171875 29.828125 
Q 18.359375 34.515625 30.609375 34.515625 
L 43.21875 34.515625 
L 43.21875 35.40625 
Q 43.21875 41.609375 39.140625 45 
Q 35.0625 48.390625 27.6875 48.390625 
Q 23 48.390625 18.546875 47.265625 
Q 14.109375 46.140625 10.015625 43.890625 
L 10.015625 52.203125 
Q 14.9375 54.109375 19.578125 55.046875 
Q 24.21875 56 28.609375 56 
Q 40.484375 56 46.34375 49.84375 
Q 52.203125 43.703125 52.203125 31.203125 
z
" id="DejaVuSans-61"/>
      <path d="M 18.3125 70.21875 
L 18.3125 54.6875 
L 36.8125 54.6875 
L 36.8125 47.703125 
L 18.3125 47.703125 
L 18.3125 18.015625 
Q 18.3125 11.328125 20.140625 9.421875 
Q 21.96875 7.515625 27.59375 7.515625 
L 36.8125 7.515625 
L 36.8125 0 
L 27.59375 0 
Q 17.1875 0 13.234375 3.875 
Q 9.28125 7.765625 9.28125 18.015625 
L 9.28125 47.703125 
L 2.6875 47.703125 
L 2.6875 54.6875 
L 9.28125 54.6875 
L 9.28125 70.21875 
z
" id="DejaVuSans-74"/>
      <path d="M 8.5 21.578125 
L 8.5 54.6875 
L 17.484375 54.6875 
L 17.484375 21.921875 
Q 17.484375 14.15625 20.5 10.265625 
Q 23.53125 6.390625 29.59375 6.390625 
Q 36.859375 6.390625 41.078125 11.03125 
Q 45.3125 15.671875 45.3125 23.6875 
L 45.3125 54.6875 
L 54.296875 54.6875 
L 54.296875 0 
L 45.3125 0 
L 45.3125 8.40625 
Q 42.046875 3.421875 37.71875 1 
Q 33.40625 -1.421875 27.6875 -1.421875 
Q 18.265625 -1.421875 13.375 4.4375 
Q 8.5 10.296875 8.5 21.578125 
z
M 31.109375 56 
z
" id="DejaVuSans-75"/>
      <path id="DejaVuSans-20"/>
      <path d="M 8.59375 75.984375 
L 29.296875 75.984375 
L 29.296875 69 
L 17.578125 69 
L 17.578125 -6.203125 
L 29.296875 -6.203125 
L 29.296875 -13.1875 
L 8.59375 -13.1875 
z
" id="DejaVuSans-5b"/>
      <path d="M 9.8125 72.90625 
L 19.671875 72.90625 
L 19.671875 42.09375 
L 52.390625 72.90625 
L 65.09375 72.90625 
L 28.90625 38.921875 
L 67.671875 0 
L 54.6875 0 
L 19.671875 35.109375 
L 19.671875 0 
L 9.8125 0 
z
" id="DejaVuSans-4b"/>
      <path d="M 30.421875 75.984375 
L 30.421875 -13.1875 
L 9.71875 -13.1875 
L 9.71875 -6.203125 
L 21.390625 -6.203125 
L 21.390625 69 
L 9.71875 69 
L 9.71875 75.984375 
z
" id="DejaVuSans-5d"/>
     </defs>
     <g transform="translate(345.471094 485.474687)scale(0.1 -0.1)">
      <use xlink:href="#DejaVuSans-54"/>
      <use x="60.818359" xlink:href="#DejaVuSans-65"/>
      <use x="122.341797" xlink:href="#DejaVuSans-6d"/>
      <use x="219.753906" xlink:href="#DejaVuSans-70"/>
      <use x="283.230469" xlink:href="#DejaVuSans-65"/>
      <use x="344.753906" xlink:href="#DejaVuSans-72"/>
      <use x="385.867188" xlink:href="#DejaVuSans-61"/>
      <use x="447.146484" xlink:href="#DejaVuSans-74"/>
      <use x="486.355469" xlink:href="#DejaVuSans-75"/>
      <use x="549.734375" xlink:href="#DejaVuSans-72"/>
      <use x="590.847656" xlink:href="#DejaVuSans-20"/>
      <use x="622.634766" xlink:href="#DejaVuSans-5b"/>
      <use x="661.648438" xlink:href="#DejaVuSans-4b"/>
      <use x="727.224609" xlink:href="#DejaVuSans-5d"/>
     </g>
    </g>
   </g>
   <g id="matplotlib.axis_2">
    <g id="ytick_1">
     <g id="line2d_10">
      <defs>
       <path d="M 0 0 
L -3.5 0 
" id="mf25f72520b" style="stroke:#000000;stroke-width:0.8;"/>
      </defs>
      <g>
       <use style="stroke:#000000;stroke-width:0.8;" x="48.982813" xlink:href="#mf25f72520b" y="457.198125"/>
      </g>
     </g>
     <g id="text_11">
      <!-- −25 -->
      <defs>
       <path d="M 10.59375 35.5 
L 73.1875 35.5 
L 73.1875 27.203125 
L 10.59375 27.203125 
z
" id="DejaVuSans-2212"/>
      </defs>
      <g transform="translate(20.878125 460.997344)scale(0.1 -0.1)">
       <use xlink:href="#DejaVuSans-2212"/>
       <use x="83.789062" xlink:href="#DejaVuSans-32"/>
       <use x="147.412109" xlink:href="#DejaVuSans-35"/>
      </g>
     </g>
    </g>
    <g id="ytick_2">
     <g id="line2d_11">
      <g>
       <use style="stroke:#000000;stroke-width:0.8;" x="48.982813" xlink:href="#mf25f72520b" y="384.718125"/>
      </g>
     </g>
     <g id="text_12">
      <!-- −20 -->
      <g transform="translate(20.878125 388.517344)scale(0.1 -0.1)">
       <use xlink:href="#DejaVuSans-2212"/>
       <use x="83.789062" xlink:href="#DejaVuSans-32"/>
       <use x="147.412109" xlink:href="#DejaVuSans-30"/>
      </g>
     </g>
    </g>
    <g id="ytick_3">
     <g id="line2d_12">
      <g>
       <use style="stroke:#000000;stroke-width:0.8;" x="48.982813" xlink:href="#mf25f72520b" y="312.238125"/>
      </g>
     </g>
     <g id="text_13">
      <!-- −15 -->
      <defs>
       <path d="M 12.40625 8.296875 
L 28.515625 8.296875 
L 28.515625 63.921875 
L 10.984375 60.40625 
L 10.984375 69.390625 
L 28.421875 72.90625 
L 38.28125 72.90625 
L 38.28125 8.296875 
L 54.390625 8.296875 
L 54.390625 0 
L 12.40625 0 
z
" id="DejaVuSans-31"/>
      </defs>
      <g transform="translate(20.878125 316.037344)scale(0.1 -0.1)">
       <use xlink:href="#DejaVuSans-2212"/>
       <use x="83.789062" xlink:href="#DejaVuSans-31"/>
       <use x="147.412109" xlink:href="#DejaVuSans-35"/>
      </g>
     </g>
    </g>
    <g id="ytick_4">
     <g id="line2d_13">
      <g>
       <use style="stroke:#000000;stroke-width:0.8;" x="48.982813" xlink:href="#mf25f72520b" y="239.758125"/>
      </g>
     </g>
     <g id="text_14">
      <!-- −10 -->
      <g transform="translate(20.878125 243.557344)scale(0.1 -0.1)">
       <use xlink:href="#DejaVuSans-2212"/>
       <use x="83.789062" xlink:href="#DejaVuSans-31"/>
       <use x="147.412109" xlink:href="#DejaVuSans-30"/>
      </g>
     </g>
    </g>
    <g id="ytick_5">
     <g id="line2d_14">
      <g>
       <use style="stroke:#000000;stroke-width:0.8;" x="48.982813" xlink:href="#mf25f72520b" y="167.278125"/>
      </g>
     </g>
     <g id="text_15">
      <!-- −5 -->
      <g transform="translate(27.240625 171.077344)scale(0.1 -0.1)">
       <use xlink:href="#DejaVuSans-2212"/>
       <use x="83.789062" xlink:href="#DejaVuSans-35"/>
      </g>
     </g>
    </g>
    <g id="ytick_6">
     <g id="line2d_15">
      <g>
       <use style="stroke:#000000;stroke-width:0.8;" x="48.982813" xlink:href="#mf25f72520b" y="94.798125"/>
      </g>
     </g>
     <g id="text_16">
      <!-- 0 -->
      <g transform="translate(35.620312 98.597344)scale(0.1 -0.1)">
       <use xlink:href="#DejaVuSans-30"/>
      </g>
     </g>
    </g>
    <g id="ytick_7">
     <g id="line2d_16">
      <g>
       <use style="stroke:#000000;stroke-width:0.8;" x="48.982813" xlink:href="#mf25f72520b" y="22.318125"/>
      </g>
     </g>
     <g id="text_17">
      <!-- 5 -->
      <g transform="translate(35.620312 26.117344)scale(0.1 -0.1)">
       <use xlink:href="#DejaVuSans-35"/>
      </g>
     </g>
    </g>
    <g id="text_18">
     <!-- Schwerpunkt [kHz] -->
     <defs>
      <path d="M 53.515625 70.515625 
L 53.515625 60.890625 
Q 47.90625 63.578125 42.921875 64.890625 
Q 37.9375 66.21875 33.296875 66.21875 
Q 25.25 66.21875 20.875 63.09375 
Q 16.5 59.96875 16.5 54.203125 
Q 16.5 49.359375 19.40625 46.890625 
Q 22.3125 44.4375 30.421875 42.921875 
L 36.375 41.703125 
Q 47.40625 39.59375 52.65625 34.296875 
Q 57.90625 29 57.90625 20.125 
Q 57.90625 9.515625 50.796875 4.046875 
Q 43.703125 -1.421875 29.984375 -1.421875 
Q 24.8125 -1.421875 18.96875 -0.25 
Q 13.140625 0.921875 6.890625 3.21875 
L 6.890625 13.375 
Q 12.890625 10.015625 18.65625 8.296875 
Q 24.421875 6.59375 29.984375 6.59375 
Q 38.421875 6.59375 43.015625 9.90625 
Q 47.609375 13.234375 47.609375 19.390625 
Q 47.609375 24.75 44.3125 27.78125 
Q 41.015625 30.8125 33.5 32.328125 
L 27.484375 33.5 
Q 16.453125 35.6875 11.515625 40.375 
Q 6.59375 45.0625 6.59375 53.421875 
Q 6.59375 63.09375 13.40625 68.65625 
Q 20.21875 74.21875 32.171875 74.21875 
Q 37.3125 74.21875 42.625 73.28125 
Q 47.953125 72.359375 53.515625 70.515625 
z
" id="DejaVuSans-53"/>
      <path d="M 48.78125 52.59375 
L 48.78125 44.1875 
Q 44.96875 46.296875 41.140625 47.34375 
Q 37.3125 48.390625 33.40625 48.390625 
Q 24.65625 48.390625 19.8125 42.84375 
Q 14.984375 37.3125 14.984375 27.296875 
Q 14.984375 17.28125 19.8125 11.734375 
Q 24.65625 6.203125 33.40625 6.203125 
Q 37.3125 6.203125 41.140625 7.25 
Q 44.96875 8.296875 48.78125 10.40625 
L 48.78125 2.09375 
Q 45.015625 0.34375 40.984375 -0.53125 
Q 36.96875 -1.421875 32.421875 -1.421875 
Q 20.0625 -1.421875 12.78125 6.34375 
Q 5.515625 14.109375 5.515625 27.296875 
Q 5.515625 40.671875 12.859375 48.328125 
Q 20.21875 56 33.015625 56 
Q 37.15625 56 41.109375 55.140625 
Q 45.0625 54.296875 48.78125 52.59375 
z
" id="DejaVuSans-63"/>
      <path d="M 54.890625 33.015625 
L 54.890625 0 
L 45.90625 0 
L 45.90625 32.71875 
Q 45.90625 40.484375 42.875 44.328125 
Q 39.84375 48.1875 33.796875 48.1875 
Q 26.515625 48.1875 22.3125 43.546875 
Q 18.109375 38.921875 18.109375 30.90625 
L 18.109375 0 
L 9.078125 0 
L 9.078125 75.984375 
L 18.109375 75.984375 
L 18.109375 46.1875 
Q 21.34375 51.125 25.703125 53.5625 
Q 30.078125 56 35.796875 56 
Q 45.21875 56 50.046875 50.171875 
Q 54.890625 44.34375 54.890625 33.015625 
z
" id="DejaVuSans-68"/>
      <path d="M 4.203125 54.6875 
L 13.1875 54.6875 
L 24.421875 12.015625 
L 35.59375 54.6875 
L 46.1875 54.6875 
L 57.421875 12.015625 
L 68.609375 54.6875 
L 77.59375 54.6875 
L 63.28125 0 
L 52.6875 0 
L 40.921875 44.828125 
L 29.109375 0 
L 18.5 0 
z
" id="DejaVuSans-77"/>
      <path d="M 54.890625 33.015625 
L 54.890625 0 
L 45.90625 0 
L 45.90625 32.71875 
Q 45.90625 40.484375 42.875 44.328125 
Q 39.84375 48.1875 33.796875 48.1875 
Q 26.515625 48.1875 22.3125 43.546875 
Q 18.109375 38.921875 18.109375 30.90625 
L 18.109375 0 
L 9.078125 0 
L 9.078125 54.6875 
L 18.109375 54.6875 
L 18.109375 46.1875 
Q 21.34375 51.125 25.703125 53.5625 
Q 30.078125 56 35.796875 56 
Q 45.21875 56 50.046875 50.171875 
Q 54.890625 44.34375 54.890625 33.015625 
z
" id="DejaVuSans-6e"/>
      <path d="M 9.078125 75.984375 
L 18.109375 75.984375 
L 18.109375 31.109375 
L 44.921875 54.6875 
L 56.390625 54.6875 
L 27.390625 29.109375 
L 57.625 0 
L 45.90625 0 
L 18.109375 26.703125 
L 18.109375 0 
L 9.078125 0 
z
" id="DejaVuSans-6b"/>
      <path d="M 9.8125 72.90625 
L 19.671875 72.90625 
L 19.671875 43.015625 
L 55.515625 43.015625 
L 55.515625 72.90625 
L 65.375 72.90625 
L 65.375 0 
L 55.515625 0 
L 55.515625 34.71875 
L 19.671875 34.71875 
L 19.671875 0 
L 9.8125 0 
z
" id="DejaVuSans-48"/>
      <path d="M 5.515625 54.6875 
L 48.1875 54.6875 
L 48.1875 46.484375 
L 14.40625 7.171875 
L 48.1875 7.171875 
L 48.1875 0 
L 4.296875 0 
L 4.296875 8.203125 
L 38.09375 47.515625 
L 5.515625 47.515625 
z
" id="DejaVuSans-7a"/>
     </defs>
     <g transform="translate(14.798437 287.208906)rotate(-90)scale(0.1 -0.1)">
      <use xlink:href="#DejaVuSans-53"/>
      <use x="63.476562" xlink:href="#DejaVuSans-63"/>
      <use x="118.457031" xlink:href="#DejaVuSans-68"/>
      <use x="181.835938" xlink:href="#DejaVuSans-77"/>
      <use x="263.623047" xlink:href="#DejaVuSans-65"/>
      <use x="325.146484" xlink:href="#DejaVuSans-72"/>
      <use x="366.259766" xlink:href="#DejaVuSans-70"/>
      <use x="429.736328" xlink:href="#DejaVuSans-75"/>
      <use x="493.115234" xlink:href="#DejaVuSans-6e"/>
      <use x="556.494141" xlink:href="#DejaVuSans-6b"/>
      <use x="614.404297" xlink:href="#DejaVuSans-74"/>
      <use x="653.613281" xlink:href="#DejaVuSans-20"/>
      <use x="685.400391" xlink:href="#DejaVuSans-5b"/>
      <use x="724.414062" xlink:href="#DejaVuSans-6b"/>
      <use x="782.324219" xlink:href="#DejaVuSans-48"/>
      <use x="857.519531" xlink:href="#DejaVuSans-7a"/>
      <use x="910.009766" xlink:href="#DejaVuSans-5d"/>
     </g>
    </g>
   </g>
   <g id="patch_3">
    <path d="M 48.982813 457.198125 
L 48.982813 22.318125 
" style="fill:none;stroke:#000000;stroke-linecap:square;stroke-linejoin:miter;stroke-width:0.8;"/>
   </g>
   <g id="patch_4">
    <path d="M 718.582813 457.198125 
L 718.582813 22.318125 
" style="fill:none;stroke:#000000;stroke-linecap:square;stroke-linejoin:miter;stroke-width:0.8;"/>
   </g>
   <g id="patch_5">
    <path d="M 48.982813 457.198125 
L 718.582812 457.198125 
" style="fill:none;stroke:#000000;stroke-linecap:square;stroke-linejoin:miter;stroke-width:0.8;"/>
   </g>
   <g id="patch_6">
    <path d="M 48.982813 22.318125 
L 718.582812 22.318125 
" style="fill:none;stroke:#000000;stroke-linecap:square;stroke-linejoin:miter;stroke-width:0.8;"/>
   </g>
   <g id="text_19">
    <!-- CRN Schwerpunkt -->
    <defs>
     <path d="M 64.40625 67.28125 
L 64.40625 56.890625 
Q 59.421875 61.53125 53.78125 63.8125 
Q 48.140625 66.109375 41.796875 66.109375 
Q 29.296875 66.109375 22.65625 58.46875 
Q 16.015625 50.828125 16.015625 36.375 
Q 16.015625 21.96875 22.65625 14.328125 
Q 29.296875 6.6875 41.796875 6.6875 
Q 48.140625 6.6875 53.78125 8.984375 
Q 59.421875 11.28125 64.40625 15.921875 
L 64.40625 5.609375 
Q 59.234375 2.09375 53.4375 0.328125 
Q 47.65625 -1.421875 41.21875 -1.421875 
Q 24.65625 -1.421875 15.125 8.703125 
Q 5.609375 18.84375 5.609375 36.375 
Q 5.609375 53.953125 15.125 64.078125 
Q 24.65625 74.21875 41.21875 74.21875 
Q 47.75 74.21875 53.53125 72.484375 
Q 59.328125 70.75 64.40625 67.28125 
z
" id="DejaVuSans-43"/>
     <path d="M 44.390625 34.1875 
Q 47.5625 33.109375 50.5625 29.59375 
Q 53.5625 26.078125 56.59375 19.921875 
L 66.609375 0 
L 56 0 
L 46.6875 18.703125 
Q 43.0625 26.03125 39.671875 28.421875 
Q 36.28125 30.8125 30.421875 30.8125 
L 19.671875 30.8125 
L 19.671875 0 
L 9.8125 0 
L 9.8125 72.90625 
L 32.078125 72.90625 
Q 44.578125 72.90625 50.734375 67.671875 
Q 56.890625 62.453125 56.890625 51.90625 
Q 56.890625 45.015625 53.6875 40.46875 
Q 50.484375 35.9375 44.390625 34.1875 
z
M 19.671875 64.796875 
L 19.671875 38.921875 
L 32.078125 38.921875 
Q 39.203125 38.921875 42.84375 42.21875 
Q 46.484375 45.515625 46.484375 51.90625 
Q 46.484375 58.296875 42.84375 61.546875 
Q 39.203125 64.796875 32.078125 64.796875 
z
" id="DejaVuSans-52"/>
     <path d="M 9.8125 72.90625 
L 23.09375 72.90625 
L 55.421875 11.921875 
L 55.421875 72.90625 
L 64.984375 72.90625 
L 64.984375 0 
L 51.703125 0 
L 19.390625 60.984375 
L 19.390625 0 
L 9.8125 0 
z
" id="DejaVuSans-4e"/>
    </defs>
    <g transform="translate(329.811875 16.318125)scale(0.12 -0.12)">
     <use xlink:href="#DejaVuSans-43"/>
     <use x="69.824219" xlink:href="#DejaVuSans-52"/>
     <use x="139.306641" xlink:href="#DejaVuSans-4e"/>
     <use x="214.111328" xlink:href="#DejaVuSans-20"/>
     <use x="245.898438" xlink:href="#DejaVuSans-53"/>
     <use x="309.375" xlink:href="#DejaVuSans-63"/>
     <use x="364.355469" xlink:href="#DejaVuSans-68"/>
     <use x="427.734375" xlink:href="#DejaVuSans-77"/>
     <use x="509.521484" xlink:href="#DejaVuSans-65"/>
     <use x="571.044922" xlink:href="#DejaVuSans-72"/>
     <use x="612.158203" xlink:href="#DejaVuSans-70"/>
     <use x="675.634766" xlink:href="#DejaVuSans-75"/>
     <use x="739.013672" xlink:href="#DejaVuSans-6e"/>
     <use x="802.392578" xlink:href="#DejaVuSans-6b"/>
     <use x="860.302734" xlink:href="#DejaVuSans-74"/>
    </g>
   </g>
  </g>
 </g>
 <defs>
  <clipPath id="p676f8a19e7">
   <rect height="434.88" width="669.6" x="48.982813" y="22.318125"/>
  </clipPath>
 </defs>
</svg>
