<?xml version="1.0" encoding="utf-8" standalone="no"?>
<!DOCTYPE svg PUBLIC "-//W3C//DTD SVG 1.1//EN"
  "http://www.w3.org/Graphics/SVG/1.1/DTD/svg11.dtd">
<!-- Created with matplotlib (http://matplotlib.org/) -->
<svg height="469.458125pt" version="1.1" viewBox="0 0 741.9 469.458125" width="741.9pt" xmlns="http://www.w3.org/2000/svg" xmlns:xlink="http://www.w3.org/1999/xlink">
 <defs>
  <style type="text/css">
*{stroke-linecap:butt;stroke-linejoin:round;}
  </style>
 </defs>
 <g id="figure_1">
  <g id="patch_1">
   <path d="M 0 469.458125 
L 741.9 469.458125 
L 741.9 0 
L 0 0 
z
" style="fill:#ffffff;"/>
  </g>
  <g id="axes_1">
   <g id="patch_2">
    <path d="M 46.0125 445.58 
L 715.6125 445.58 
L 715.6125 10.7 
L 46.0125 10.7 
z
" style="fill:#ffffff;"/>
   </g>
   <g id="matplotlib.axis_1">
    <g id="xtick_1">
     <g id="line2d_1">
      <defs>
       <path d="M 0 0 
L 0 3.5 
" id="m9a90e34e3e" style="stroke:#000000;stroke-width:0.8;"/>
      </defs>
      <g>
       <use style="stroke:#000000;stroke-width:0.8;" x="46.0125" xlink:href="#m9a90e34e3e" y="445.58"/>
      </g>
     </g>
     <g id="text_1">
      <!-- −200000 -->
      <defs>
       <path d="M 10.59375 35.5 
L 73.1875 35.5 
L 73.1875 27.203125 
L 10.59375 27.203125 
z
" id="DejaVuSans-2212"/>
       <path d="M 19.1875 8.296875 
L 53.609375 8.296875 
L 53.609375 0 
L 7.328125 0 
L 7.328125 8.296875 
Q 12.9375 14.109375 22.625 23.890625 
Q 32.328125 33.6875 34.8125 36.53125 
Q 39.546875 41.84375 41.421875 45.53125 
Q 43.3125 49.21875 43.3125 52.78125 
Q 43.3125 58.59375 39.234375 62.25 
Q 35.15625 65.921875 28.609375 65.921875 
Q 23.96875 65.921875 18.8125 64.3125 
Q 13.671875 62.703125 7.8125 59.421875 
L 7.8125 69.390625 
Q 13.765625 71.78125 18.9375 73 
Q 24.125 74.21875 28.421875 74.21875 
Q 39.75 74.21875 46.484375 68.546875 
Q 53.21875 62.890625 53.21875 53.421875 
Q 53.21875 48.921875 51.53125 44.890625 
Q 49.859375 40.875 45.40625 35.40625 
Q 44.1875 33.984375 37.640625 27.21875 
Q 31.109375 20.453125 19.1875 8.296875 
z
" id="DejaVuSans-32"/>
       <path d="M 31.78125 66.40625 
Q 24.171875 66.40625 20.328125 58.90625 
Q 16.5 51.421875 16.5 36.375 
Q 16.5 21.390625 20.328125 13.890625 
Q 24.171875 6.390625 31.78125 6.390625 
Q 39.453125 6.390625 43.28125 13.890625 
Q 47.125 21.390625 47.125 36.375 
Q 47.125 51.421875 43.28125 58.90625 
Q 39.453125 66.40625 31.78125 66.40625 
z
M 31.78125 74.21875 
Q 44.046875 74.21875 50.515625 64.515625 
Q 56.984375 54.828125 56.984375 36.375 
Q 56.984375 17.96875 50.515625 8.265625 
Q 44.046875 -1.421875 31.78125 -1.421875 
Q 19.53125 -1.421875 13.0625 8.265625 
Q 6.59375 17.96875 6.59375 36.375 
Q 6.59375 54.828125 13.0625 64.515625 
Q 19.53125 74.21875 31.78125 74.21875 
z
" id="DejaVuSans-30"/>
      </defs>
      <g transform="translate(22.735156 460.178437)scale(0.1 -0.1)">
       <use xlink:href="#DejaVuSans-2212"/>
       <use x="83.789062" xlink:href="#DejaVuSans-32"/>
       <use x="147.412109" xlink:href="#DejaVuSans-30"/>
       <use x="211.035156" xlink:href="#DejaVuSans-30"/>
       <use x="274.658203" xlink:href="#DejaVuSans-30"/>
       <use x="338.28125" xlink:href="#DejaVuSans-30"/>
       <use x="401.904297" xlink:href="#DejaVuSans-30"/>
      </g>
     </g>
    </g>
    <g id="xtick_2">
     <g id="line2d_2">
      <g>
       <use style="stroke:#000000;stroke-width:0.8;" x="129.7125" xlink:href="#m9a90e34e3e" y="445.58"/>
      </g>
     </g>
     <g id="text_2">
      <!-- −150000 -->
      <defs>
       <path d="M 12.40625 8.296875 
L 28.515625 8.296875 
L 28.515625 63.921875 
L 10.984375 60.40625 
L 10.984375 69.390625 
L 28.421875 72.90625 
L 38.28125 72.90625 
L 38.28125 8.296875 
L 54.390625 8.296875 
L 54.390625 0 
L 12.40625 0 
z
" id="DejaVuSans-31"/>
       <path d="M 10.796875 72.90625 
L 49.515625 72.90625 
L 49.515625 64.59375 
L 19.828125 64.59375 
L 19.828125 46.734375 
Q 21.96875 47.46875 24.109375 47.828125 
Q 26.265625 48.1875 28.421875 48.1875 
Q 40.625 48.1875 47.75 41.5 
Q 54.890625 34.8125 54.890625 23.390625 
Q 54.890625 11.625 47.5625 5.09375 
Q 40.234375 -1.421875 26.90625 -1.421875 
Q 22.3125 -1.421875 17.546875 -0.640625 
Q 12.796875 0.140625 7.71875 1.703125 
L 7.71875 11.625 
Q 12.109375 9.234375 16.796875 8.0625 
Q 21.484375 6.890625 26.703125 6.890625 
Q 35.15625 6.890625 40.078125 11.328125 
Q 45.015625 15.765625 45.015625 23.390625 
Q 45.015625 31 40.078125 35.4375 
Q 35.15625 39.890625 26.703125 39.890625 
Q 22.75 39.890625 18.8125 39.015625 
Q 14.890625 38.140625 10.796875 36.28125 
z
" id="DejaVuSans-35"/>
      </defs>
      <g transform="translate(106.435156 460.178437)scale(0.1 -0.1)">
       <use xlink:href="#DejaVuSans-2212"/>
       <use x="83.789062" xlink:href="#DejaVuSans-31"/>
       <use x="147.412109" xlink:href="#DejaVuSans-35"/>
       <use x="211.035156" xlink:href="#DejaVuSans-30"/>
       <use x="274.658203" xlink:href="#DejaVuSans-30"/>
       <use x="338.28125" xlink:href="#DejaVuSans-30"/>
       <use x="401.904297" xlink:href="#DejaVuSans-30"/>
      </g>
     </g>
    </g>
    <g id="xtick_3">
     <g id="line2d_3">
      <g>
       <use style="stroke:#000000;stroke-width:0.8;" x="213.4125" xlink:href="#m9a90e34e3e" y="445.58"/>
      </g>
     </g>
     <g id="text_3">
      <!-- −100000 -->
      <g transform="translate(190.135156 460.178437)scale(0.1 -0.1)">
       <use xlink:href="#DejaVuSans-2212"/>
       <use x="83.789062" xlink:href="#DejaVuSans-31"/>
       <use x="147.412109" xlink:href="#DejaVuSans-30"/>
       <use x="211.035156" xlink:href="#DejaVuSans-30"/>
       <use x="274.658203" xlink:href="#DejaVuSans-30"/>
       <use x="338.28125" xlink:href="#DejaVuSans-30"/>
       <use x="401.904297" xlink:href="#DejaVuSans-30"/>
      </g>
     </g>
    </g>
    <g id="xtick_4">
     <g id="line2d_4">
      <g>
       <use style="stroke:#000000;stroke-width:0.8;" x="297.1125" xlink:href="#m9a90e34e3e" y="445.58"/>
      </g>
     </g>
     <g id="text_4">
      <!-- −50000 -->
      <g transform="translate(277.016406 460.178437)scale(0.1 -0.1)">
       <use xlink:href="#DejaVuSans-2212"/>
       <use x="83.789062" xlink:href="#DejaVuSans-35"/>
       <use x="147.412109" xlink:href="#DejaVuSans-30"/>
       <use x="211.035156" xlink:href="#DejaVuSans-30"/>
       <use x="274.658203" xlink:href="#DejaVuSans-30"/>
       <use x="338.28125" xlink:href="#DejaVuSans-30"/>
      </g>
     </g>
    </g>
    <g id="xtick_5">
     <g id="line2d_5">
      <g>
       <use style="stroke:#000000;stroke-width:0.8;" x="380.8125" xlink:href="#m9a90e34e3e" y="445.58"/>
      </g>
     </g>
     <g id="text_5">
      <!-- 0 -->
      <g transform="translate(377.63125 460.178437)scale(0.1 -0.1)">
       <use xlink:href="#DejaVuSans-30"/>
      </g>
     </g>
    </g>
    <g id="xtick_6">
     <g id="line2d_6">
      <g>
       <use style="stroke:#000000;stroke-width:0.8;" x="464.5125" xlink:href="#m9a90e34e3e" y="445.58"/>
      </g>
     </g>
     <g id="text_6">
      <!-- 50000 -->
      <g transform="translate(448.60625 460.178437)scale(0.1 -0.1)">
       <use xlink:href="#DejaVuSans-35"/>
       <use x="63.623047" xlink:href="#DejaVuSans-30"/>
       <use x="127.246094" xlink:href="#DejaVuSans-30"/>
       <use x="190.869141" xlink:href="#DejaVuSans-30"/>
       <use x="254.492188" xlink:href="#DejaVuSans-30"/>
      </g>
     </g>
    </g>
    <g id="xtick_7">
     <g id="line2d_7">
      <g>
       <use style="stroke:#000000;stroke-width:0.8;" x="548.2125" xlink:href="#m9a90e34e3e" y="445.58"/>
      </g>
     </g>
     <g id="text_7">
      <!-- 100000 -->
      <g transform="translate(529.125 460.178437)scale(0.1 -0.1)">
       <use xlink:href="#DejaVuSans-31"/>
       <use x="63.623047" xlink:href="#DejaVuSans-30"/>
       <use x="127.246094" xlink:href="#DejaVuSans-30"/>
       <use x="190.869141" xlink:href="#DejaVuSans-30"/>
       <use x="254.492188" xlink:href="#DejaVuSans-30"/>
       <use x="318.115234" xlink:href="#DejaVuSans-30"/>
      </g>
     </g>
    </g>
    <g id="xtick_8">
     <g id="line2d_8">
      <g>
       <use style="stroke:#000000;stroke-width:0.8;" x="631.9125" xlink:href="#m9a90e34e3e" y="445.58"/>
      </g>
     </g>
     <g id="text_8">
      <!-- 150000 -->
      <g transform="translate(612.825 460.178437)scale(0.1 -0.1)">
       <use xlink:href="#DejaVuSans-31"/>
       <use x="63.623047" xlink:href="#DejaVuSans-35"/>
       <use x="127.246094" xlink:href="#DejaVuSans-30"/>
       <use x="190.869141" xlink:href="#DejaVuSans-30"/>
       <use x="254.492188" xlink:href="#DejaVuSans-30"/>
       <use x="318.115234" xlink:href="#DejaVuSans-30"/>
      </g>
     </g>
    </g>
    <g id="xtick_9">
     <g id="line2d_9">
      <g>
       <use style="stroke:#000000;stroke-width:0.8;" x="715.6125" xlink:href="#m9a90e34e3e" y="445.58"/>
      </g>
     </g>
     <g id="text_9">
      <!-- 200000 -->
      <g transform="translate(696.525 460.178437)scale(0.1 -0.1)">
       <use xlink:href="#DejaVuSans-32"/>
       <use x="63.623047" xlink:href="#DejaVuSans-30"/>
       <use x="127.246094" xlink:href="#DejaVuSans-30"/>
       <use x="190.869141" xlink:href="#DejaVuSans-30"/>
       <use x="254.492188" xlink:href="#DejaVuSans-30"/>
       <use x="318.115234" xlink:href="#DejaVuSans-30"/>
      </g>
     </g>
    </g>
   </g>
   <g id="matplotlib.axis_2">
    <g id="ytick_1">
     <g id="line2d_10">
      <defs>
       <path d="M 0 0 
L -3.5 0 
" id="mb49d0066ab" style="stroke:#000000;stroke-width:0.8;"/>
      </defs>
      <g>
       <use style="stroke:#000000;stroke-width:0.8;" x="46.0125" xlink:href="#mb49d0066ab" y="421.780102"/>
      </g>
     </g>
     <g id="text_10">
      <!-- 0 -->
      <g transform="translate(32.65 425.579321)scale(0.1 -0.1)">
       <use xlink:href="#DejaVuSans-30"/>
      </g>
     </g>
    </g>
    <g id="ytick_2">
     <g id="line2d_11">
      <g>
       <use style="stroke:#000000;stroke-width:0.8;" x="46.0125" xlink:href="#mb49d0066ab" y="368.860287"/>
      </g>
     </g>
     <g id="text_11">
      <!-- 5000 -->
      <g transform="translate(13.5625 372.659506)scale(0.1 -0.1)">
       <use xlink:href="#DejaVuSans-35"/>
       <use x="63.623047" xlink:href="#DejaVuSans-30"/>
       <use x="127.246094" xlink:href="#DejaVuSans-30"/>
       <use x="190.869141" xlink:href="#DejaVuSans-30"/>
      </g>
     </g>
    </g>
    <g id="ytick_3">
     <g id="line2d_12">
      <g>
       <use style="stroke:#000000;stroke-width:0.8;" x="46.0125" xlink:href="#mb49d0066ab" y="315.940472"/>
      </g>
     </g>
     <g id="text_12">
      <!-- 10000 -->
      <g transform="translate(7.2 319.739691)scale(0.1 -0.1)">
       <use xlink:href="#DejaVuSans-31"/>
       <use x="63.623047" xlink:href="#DejaVuSans-30"/>
       <use x="127.246094" xlink:href="#DejaVuSans-30"/>
       <use x="190.869141" xlink:href="#DejaVuSans-30"/>
       <use x="254.492188" xlink:href="#DejaVuSans-30"/>
      </g>
     </g>
    </g>
    <g id="ytick_4">
     <g id="line2d_13">
      <g>
       <use style="stroke:#000000;stroke-width:0.8;" x="46.0125" xlink:href="#mb49d0066ab" y="263.020657"/>
      </g>
     </g>
     <g id="text_13">
      <!-- 15000 -->
      <g transform="translate(7.2 266.819876)scale(0.1 -0.1)">
       <use xlink:href="#DejaVuSans-31"/>
       <use x="63.623047" xlink:href="#DejaVuSans-35"/>
       <use x="127.246094" xlink:href="#DejaVuSans-30"/>
       <use x="190.869141" xlink:href="#DejaVuSans-30"/>
       <use x="254.492188" xlink:href="#DejaVuSans-30"/>
      </g>
     </g>
    </g>
    <g id="ytick_5">
     <g id="line2d_14">
      <g>
       <use style="stroke:#000000;stroke-width:0.8;" x="46.0125" xlink:href="#mb49d0066ab" y="210.100842"/>
      </g>
     </g>
     <g id="text_14">
      <!-- 20000 -->
      <g transform="translate(7.2 213.900061)scale(0.1 -0.1)">
       <use xlink:href="#DejaVuSans-32"/>
       <use x="63.623047" xlink:href="#DejaVuSans-30"/>
       <use x="127.246094" xlink:href="#DejaVuSans-30"/>
       <use x="190.869141" xlink:href="#DejaVuSans-30"/>
       <use x="254.492188" xlink:href="#DejaVuSans-30"/>
      </g>
     </g>
    </g>
    <g id="ytick_6">
     <g id="line2d_15">
      <g>
       <use style="stroke:#000000;stroke-width:0.8;" x="46.0125" xlink:href="#mb49d0066ab" y="157.181027"/>
      </g>
     </g>
     <g id="text_15">
      <!-- 25000 -->
      <g transform="translate(7.2 160.980246)scale(0.1 -0.1)">
       <use xlink:href="#DejaVuSans-32"/>
       <use x="63.623047" xlink:href="#DejaVuSans-35"/>
       <use x="127.246094" xlink:href="#DejaVuSans-30"/>
       <use x="190.869141" xlink:href="#DejaVuSans-30"/>
       <use x="254.492188" xlink:href="#DejaVuSans-30"/>
      </g>
     </g>
    </g>
    <g id="ytick_7">
     <g id="line2d_16">
      <g>
       <use style="stroke:#000000;stroke-width:0.8;" x="46.0125" xlink:href="#mb49d0066ab" y="104.261212"/>
      </g>
     </g>
     <g id="text_16">
      <!-- 30000 -->
      <defs>
       <path d="M 40.578125 39.3125 
Q 47.65625 37.796875 51.625 33 
Q 55.609375 28.21875 55.609375 21.1875 
Q 55.609375 10.40625 48.1875 4.484375 
Q 40.765625 -1.421875 27.09375 -1.421875 
Q 22.515625 -1.421875 17.65625 -0.515625 
Q 12.796875 0.390625 7.625 2.203125 
L 7.625 11.71875 
Q 11.71875 9.328125 16.59375 8.109375 
Q 21.484375 6.890625 26.8125 6.890625 
Q 36.078125 6.890625 40.9375 10.546875 
Q 45.796875 14.203125 45.796875 21.1875 
Q 45.796875 27.640625 41.28125 31.265625 
Q 36.765625 34.90625 28.71875 34.90625 
L 20.21875 34.90625 
L 20.21875 43.015625 
L 29.109375 43.015625 
Q 36.375 43.015625 40.234375 45.921875 
Q 44.09375 48.828125 44.09375 54.296875 
Q 44.09375 59.90625 40.109375 62.90625 
Q 36.140625 65.921875 28.71875 65.921875 
Q 24.65625 65.921875 20.015625 65.03125 
Q 15.375 64.15625 9.8125 62.3125 
L 9.8125 71.09375 
Q 15.4375 72.65625 20.34375 73.4375 
Q 25.25 74.21875 29.59375 74.21875 
Q 40.828125 74.21875 47.359375 69.109375 
Q 53.90625 64.015625 53.90625 55.328125 
Q 53.90625 49.265625 50.4375 45.09375 
Q 46.96875 40.921875 40.578125 39.3125 
z
" id="DejaVuSans-33"/>
      </defs>
      <g transform="translate(7.2 108.060431)scale(0.1 -0.1)">
       <use xlink:href="#DejaVuSans-33"/>
       <use x="63.623047" xlink:href="#DejaVuSans-30"/>
       <use x="127.246094" xlink:href="#DejaVuSans-30"/>
       <use x="190.869141" xlink:href="#DejaVuSans-30"/>
       <use x="254.492188" xlink:href="#DejaVuSans-30"/>
      </g>
     </g>
    </g>
    <g id="ytick_8">
     <g id="line2d_17">
      <g>
       <use style="stroke:#000000;stroke-width:0.8;" x="46.0125" xlink:href="#mb49d0066ab" y="51.341397"/>
      </g>
     </g>
     <g id="text_17">
      <!-- 35000 -->
      <g transform="translate(7.2 55.140616)scale(0.1 -0.1)">
       <use xlink:href="#DejaVuSans-33"/>
       <use x="63.623047" xlink:href="#DejaVuSans-35"/>
       <use x="127.246094" xlink:href="#DejaVuSans-30"/>
       <use x="190.869141" xlink:href="#DejaVuSans-30"/>
       <use x="254.492188" xlink:href="#DejaVuSans-30"/>
      </g>
     </g>
    </g>
   </g>
   <g id="line2d_18">
    <path clip-path="url(#p5b953ad0b0)" d="M 45.557831 421.070641 
L 71.739624 420.617992 
L 73.655365 420.541856 
L 76.848267 420.47399 
L 84.51123 420.28797 
L 94.089935 419.968096 
L 96.005676 419.917729 
L 106.222961 419.552823 
L 108.138702 419.437072 
L 129.850433 418.270545 
L 138.151978 417.631122 
L 138.790558 417.652383 
L 140.067719 417.48542 
L 146.453522 416.959726 
L 149.007843 416.702541 
L 150.923584 416.546821 
L 154.755066 416.159221 
L 159.863708 415.581132 
L 175.189636 413.541102 
L 184.129761 412.014847 
L 198.817108 408.968143 
L 200.094269 408.556534 
L 203.28717 407.74931 
L 205.841492 407.048187 
L 206.480072 406.938101 
L 207.118652 406.65029 
L 210.950134 405.604768 
L 214.781616 404.40411 
L 215.420197 404.137128 
L 216.058777 404.015749 
L 217.335938 403.50029 
L 219.890259 402.621451 
L 223.721741 401.301711 
L 224.360321 400.892941 
L 224.998901 400.754222 
L 232.023285 397.764968 
L 232.661865 397.408438 
L 233.300446 397.204518 
L 235.216187 396.248619 
L 235.854767 396.052657 
L 239.686249 394.009595 
L 240.324829 393.750054 
L 241.60199 393.039944 
L 244.156311 391.661418 
L 246.072052 390.470812 
L 247.349213 389.80438 
L 247.987793 389.297195 
L 249.264954 388.605466 
L 252.457855 386.612083 
L 253.735016 385.690638 
L 256.289337 383.782035 
L 258.205078 382.581416 
L 259.482239 381.419855 
L 260.120819 381.144368 
L 261.39798 380.098173 
L 262.03656 379.66776 
L 262.67514 378.966311 
L 263.313721 378.578486 
L 267.145203 375.403592 
L 268.422363 374.245194 
L 270.976685 371.979257 
L 271.615265 371.208814 
L 274.169586 368.897866 
L 274.808167 368.076049 
L 275.446747 367.503504 
L 277.362488 365.417199 
L 279.916809 362.859672 
L 281.83255 360.713276 
L 283.748291 358.381991 
L 291.411255 348.587364 
L 295.881317 342.279643 
L 298.435638 338.186898 
L 299.074219 337.253414 
L 300.351379 335.057858 
L 300.98996 334.309917 
L 302.26712 331.861948 
L 302.905701 330.944756 
L 307.375763 322.955019 
L 308.652924 320.518674 
L 309.291504 319.426961 
L 309.930084 317.921828 
L 311.845825 314.259677 
L 313.761566 310.441946 
L 319.508789 297.877502 
L 320.78595 294.820988 
L 321.42453 293.338914 
L 322.06311 291.507847 
L 322.701691 290.14776 
L 323.340271 288.282097 
L 325.256012 283.673691 
L 329.726074 271.52745 
L 336.111877 252.339237 
L 336.750458 250.105298 
L 337.389038 248.367906 
L 340.58194 237.337163 
L 341.22052 235.374477 
L 342.497681 230.693675 
L 343.774841 226.037886 
L 346.967743 214.117835 
L 347.606323 211.386686 
L 348.244904 209.236534 
L 348.883484 206.223974 
L 350.160645 201.326803 
L 351.437805 195.958392 
L 356.546448 173.130166 
L 361.01651 151.269875 
L 362.932251 141.314578 
L 365.486572 127.836032 
L 372.510956 86.374468 
L 373.788116 78.049279 
L 377.619598 52.618407 
L 380.8125 30.467273 
L 385.282562 90.164865 
L 387.198303 113.568064 
L 391.668365 160.703629 
L 393.584106 179.165688 
L 395.499847 195.866697 
L 398.692749 221.47871 
L 401.24707 239.702752 
L 403.801392 256.350336 
L 408.271454 281.892998 
L 410.187195 291.571831 
L 414.657257 311.681768 
L 415.934418 316.939122 
L 416.572998 319.599827 
L 417.211578 321.602663 
L 419.127319 328.965778 
L 419.7659 330.716371 
L 421.681641 337.309977 
L 428.067444 355.358915 
L 429.344604 358.314607 
L 432.537506 365.51316 
L 437.646149 375.379274 
L 440.20047 379.710284 
L 441.477631 381.584906 
L 444.670532 386.16159 
L 448.502014 390.908177 
L 450.417755 393.051778 
L 451.056335 393.628327 
L 451.694916 394.472599 
L 452.333496 395.006446 
L 453.610657 396.320558 
L 455.526398 397.995947 
L 456.164978 398.669497 
L 463.189362 404.021636 
L 465.743683 405.544197 
L 467.020844 406.307361 
L 468.936584 407.425131 
L 470.852325 408.427573 
L 471.490906 408.80564 
L 472.129486 408.981239 
L 473.406647 409.607858 
L 479.15387 412.003646 
L 484.901093 413.921592 
L 490.009735 415.249005 
L 496.395538 416.637051 
L 502.142761 417.670711 
L 518.107269 419.52528 
L 524.493073 419.967455 
L 528.324554 420.245825 
L 535.348938 420.590596 
L 537.903259 420.698775 
L 543.011902 420.906399 
L 545.566223 420.962556 
L 560.253571 421.31271 
L 589.628265 421.632029 
L 597.291229 421.665061 
L 631.135986 421.750999 
L 716.067169 421.779047 
L 716.067169 421.779047 
" style="fill:none;stroke:#1f77b4;stroke-linecap:square;stroke-width:1.5;"/>
   </g>
   <g id="line2d_19">
    <path clip-path="url(#p5b953ad0b0)" d="M 45.685547 422.114603 
L 46.50293 422.067057 
L 48.137695 422.308308 
L 53.041992 421.601108 
L 53.859375 421.579161 
L 54.676758 421.227352 
L 55.494141 420.906324 
L 56.311523 420.946409 
L 57.128906 420.993838 
L 57.946289 420.930674 
L 58.763672 421.088618 
L 59.989746 421.308171 
L 62.033203 421.742132 
L 62.850586 421.562897 
L 63.667969 421.290326 
L 64.485352 421.280823 
L 65.711426 421.549805 
L 66.528809 421.463773 
L 68.572266 421.053898 
L 69.389648 420.993006 
L 70.207031 421.215311 
L 71.841797 422.002893 
L 72.65918 422.14309 
L 73.476562 421.88675 
L 74.702637 421.225526 
L 75.52002 420.988763 
L 76.337402 420.98714 
L 77.972168 421.496735 
L 78.789551 421.320479 
L 80.424316 420.633003 
L 81.241699 420.657218 
L 82.467773 421.191494 
L 83.285156 421.516986 
L 84.102539 421.60235 
L 84.919922 421.51879 
L 86.554688 421.109556 
L 87.37207 421.049002 
L 89.006836 420.648617 
L 90.23291 420.899023 
L 91.050293 421.319918 
L 91.867676 421.745343 
L 92.276367 421.807845 
L 93.09375 421.628956 
L 93.911133 421.429567 
L 98.406738 421.464862 
L 99.632812 420.98514 
L 100.858887 420.915148 
L 102.902344 420.710707 
L 104.945801 421.187198 
L 105.763184 420.902682 
L 106.580566 420.660696 
L 107.397949 420.945133 
L 107.806641 421.077771 
L 108.215332 421.069661 
L 109.850098 420.591278 
L 110.66748 420.646505 
L 112.302246 420.935279 
L 113.52832 420.631295 
L 114.754395 420.712055 
L 115.571777 420.532627 
L 116.38916 420.685589 
L 118.841309 421.832066 
L 119.658691 421.776204 
L 122.11084 421.157854 
L 122.928223 420.684121 
L 123.745605 420.545479 
L 125.380371 420.744148 
L 127.423828 420.677019 
L 128.649902 420.900987 
L 130.693359 420.806875 
L 131.510742 421.048365 
L 131.919434 421.047475 
L 133.554199 420.681877 
L 134.371582 420.737378 
L 135.597656 420.614984 
L 137.641113 420.784613 
L 138.867187 420.690363 
L 140.910645 421.198574 
L 142.954102 420.99838 
L 143.771484 420.900253 
L 144.588867 421.078889 
L 147.449707 422.003675 
L 147.858398 421.901779 
L 148.675781 421.329135 
L 149.493164 420.723533 
L 150.310547 420.48737 
L 151.12793 420.660904 
L 151.945312 420.876317 
L 153.171387 420.881656 
L 154.397461 420.979131 
L 155.214844 420.976474 
L 156.849609 420.714844 
L 160.119141 421.07535 
L 161.345215 421.231028 
L 164.614746 421.17333 
L 165.84082 421.501347 
L 167.475586 421.574114 
L 168.292969 421.544167 
L 169.927734 421.042178 
L 170.745117 420.983858 
L 171.5625 421.138003 
L 172.379883 421.372591 
L 172.788574 421.375102 
L 173.605957 420.992157 
L 174.42334 420.601906 
L 175.240723 420.673538 
L 176.058105 421.052982 
L 177.692871 422.259135 
L 178.101562 422.298216 
L 178.918945 421.963802 
L 180.962402 420.573328 
L 181.779785 420.60438 
L 183.005859 420.767806 
L 184.640625 420.622571 
L 185.458008 420.311209 
L 186.275391 419.923007 
L 186.684082 419.901938 
L 187.501465 420.294848 
L 188.318848 420.721659 
L 189.13623 420.751734 
L 190.362305 420.643849 
L 192.405762 420.739479 
L 193.631836 420.600147 
L 195.266602 420.712823 
L 196.083984 421.132221 
L 196.901367 421.476135 
L 197.310059 421.418978 
L 200.988281 419.742335 
L 202.214355 419.4514 
L 203.44043 419.415157 
L 204.666504 419.455487 
L 205.075195 419.298061 
L 206.709961 418.134051 
L 207.118652 418.159823 
L 208.753418 418.870789 
L 209.979492 418.762806 
L 211.205566 418.522714 
L 212.431641 418.225265 
L 213.657715 418.006113 
L 214.475098 417.458906 
L 215.29248 416.835101 
L 216.109863 416.608005 
L 219.379395 416.363466 
L 220.605469 415.669932 
L 221.422852 415.275006 
L 222.240234 415.116168 
L 223.466309 415.071415 
L 224.283691 414.6959 
L 225.101074 414.373556 
L 225.918457 414.449667 
L 226.73584 414.525673 
L 227.553223 414.250784 
L 228.370605 413.93798 
L 230.414062 413.537718 
L 232.048828 412.79328 
L 233.274902 411.916319 
L 234.092285 411.410605 
L 234.909668 411.353834 
L 235.727051 411.338405 
L 238.587891 410.324867 
L 240.222656 409.479231 
L 244.30957 406.473844 
L 245.126953 406.258803 
L 246.353027 406.149204 
L 246.761719 405.959438 
L 247.579102 405.138211 
L 248.396484 404.305576 
L 249.213867 403.866403 
L 250.439941 403.440246 
L 251.257324 402.86422 
L 254.118164 400.263913 
L 255.75293 398.875662 
L 257.796387 396.783541 
L 259.431152 395.596263 
L 261.065918 394.057121 
L 262.291992 392.35643 
L 263.109375 391.37884 
L 263.926758 390.889562 
L 264.744141 390.429718 
L 265.561523 389.418916 
L 266.787598 387.757294 
L 269.648438 384.412388 
L 271.283203 381.555082 
L 272.100586 380.846445 
L 273.32666 380.235032 
L 273.735352 379.852199 
L 274.552734 378.601845 
L 275.778809 376.709062 
L 277.413574 374.286197 
L 278.230957 372.719275 
L 279.457031 370.020494 
L 280.274414 369.059954 
L 281.091797 368.276083 
L 282.726562 366.040741 
L 285.178711 361.660051 
L 286.404785 359.829605 
L 290.491699 352.454944 
L 295.804688 341.096506 
L 297.439453 338.285311 
L 299.48291 333.487285 
L 302.34375 325.826268 
L 306.839355 315.569499 
L 308.06543 312.101686 
L 310.517578 304.488888 
L 312.152344 300.565917 
L 313.378418 297.305249 
L 316.239258 288.646735 
L 317.465332 284.583301 
L 319.100098 279.467106 
L 321.143555 272.854134 
L 325.230469 259.645219 
L 327.682617 250.848006 
L 330.952148 238.269333 
L 331.769531 235.32155 
L 339.534668 202.867492 
L 340.760742 197.49482 
L 342.395508 191.141348 
L 345.256348 178.113732 
L 346.891113 169.992292 
L 348.525879 163.174421 
L 350.978027 150.653966 
L 352.612793 142.580288 
L 354.247559 135.090269 
L 362.012695 94.7294 
L 364.464844 81.538892 
L 365.690918 75.194155 
L 368.551758 58.404418 
L 370.595215 47.624967 
L 371.821289 41.733079 
L 373.047363 36.708666 
L 373.864746 33.847429 
L 374.682129 31.737698 
L 375.09082 31.066742 
L 375.499512 30.641839 
L 375.908203 30.467273 
L 376.316895 30.58535 
L 376.725586 31.051864 
L 377.134277 31.89771 
L 377.95166 34.597219 
L 378.769043 38.174466 
L 379.586426 42.573864 
L 380.8125 51.108085 
L 382.447266 64.489571 
L 385.308105 89.706937 
L 387.760254 111.162897 
L 391.438477 141.432807 
L 393.890625 159.763762 
L 396.342773 178.201974 
L 397.977539 189.468151 
L 402.473145 218.162401 
L 404.10791 227.666397 
L 406.151367 239.950119 
L 408.194824 250.713776 
L 410.646973 262.457401 
L 413.099121 273.992834 
L 416.368652 288.523719 
L 418.412109 296.720722 
L 421.681641 309.749487 
L 424.133789 318.221323 
L 426.585938 326.536132 
L 430.672852 338.238981 
L 432.307617 342.757789 
L 433.533691 346.568055 
L 434.759766 349.34457 
L 438.029297 356.328926 
L 440.481445 362.504053 
L 442.116211 366.004831 
L 444.159668 369.453468 
L 446.203125 372.28605 
L 448.246582 376.00861 
L 449.063965 377.286417 
L 451.924805 382.491917 
L 453.968262 384.763455 
L 457.237793 389.520985 
L 459.689941 392.339551 
L 461.324707 393.648953 
L 463.368164 395.679227 
L 465.411621 397.065856 
L 469.498535 401.851583 
L 470.315918 402.319835 
L 473.994141 404.103983 
L 474.811523 405.062174 
L 476.037598 406.570875 
L 476.85498 407.089883 
L 479.71582 408.088424 
L 480.533203 408.114292 
L 481.350586 408.428281 
L 482.167969 408.707569 
L 483.394043 408.72219 
L 484.211426 409.244119 
L 485.846191 410.569773 
L 486.663574 410.918902 
L 488.29834 411.29632 
L 490.341797 412.543982 
L 491.15918 412.856446 
L 493.202637 413.174882 
L 495.246094 414.234267 
L 497.289551 414.767533 
L 498.106934 414.980501 
L 499.333008 414.875531 
L 500.559082 414.877134 
L 501.376465 415.053485 
L 503.828613 415.908242 
L 505.054688 416.136026 
L 505.87207 416.483723 
L 507.098145 417.121317 
L 507.915527 417.157288 
L 509.958984 416.833975 
L 510.776367 416.962353 
L 511.59375 417.165862 
L 512.411133 417.09502 
L 513.228516 417.038687 
L 514.045898 417.330306 
L 515.680664 418.38218 
L 516.498047 418.369874 
L 517.31543 418.273201 
L 518.950195 418.346281 
L 520.584961 418.286451 
L 522.219727 418.337611 
L 524.263184 418.79247 
L 525.489258 419.02456 
L 527.124023 419.23101 
L 528.350098 419.466209 
L 529.16748 419.431198 
L 530.393555 419.109794 
L 531.210938 419.317803 
L 532.02832 419.566283 
L 532.845703 419.750509 
L 534.480469 420.419856 
L 535.297852 420.454165 
L 536.115234 420.16546 
L 536.932617 419.875727 
L 537.75 419.845836 
L 540.202148 419.987542 
L 541.428223 419.944563 
L 542.245605 420.152735 
L 543.47168 420.760083 
L 544.289062 421.097591 
L 544.697754 421.078432 
L 545.923828 420.572698 
L 546.741211 420.351117 
L 547.149902 420.413397 
L 548.784668 421.172309 
L 549.193359 420.988493 
L 550.010742 420.349596 
L 550.419434 420.206381 
L 550.828125 420.258835 
L 552.462891 420.980713 
L 552.871582 420.934288 
L 554.506348 420.34508 
L 555.32373 420.502429 
L 556.958496 421.166497 
L 559.410645 421.371964 
L 560.636719 421.890232 
L 561.04541 421.822214 
L 562.271484 421.351826 
L 563.497559 421.156356 
L 564.723633 420.893319 
L 565.541016 420.925705 
L 567.584473 421.254939 
L 570.445312 421.285445 
L 572.080078 421.16444 
L 573.714844 421.531161 
L 576.984375 421.664117 
L 579.027832 421.188466 
L 579.845215 421.326239 
L 580.662598 421.510275 
L 583.114746 421.769226 
L 585.158203 422.317547 
L 585.975586 421.998705 
L 586.792969 421.61432 
L 587.20166 421.592336 
L 587.610352 421.712353 
L 588.427734 422.314171 
L 589.245117 422.913425 
L 589.653809 422.963744 
L 590.471191 422.590215 
L 591.288574 422.21205 
L 592.105957 422.151287 
L 593.332031 422.193624 
L 594.149414 422.154638 
L 594.966797 422.557122 
L 595.78418 422.94805 
L 596.601562 422.850782 
L 597.827637 422.525403 
L 599.462402 422.426997 
L 600.279785 422.232987 
L 600.688477 422.304261 
L 601.914551 422.857225 
L 602.731934 422.853079 
L 603.958008 422.628047 
L 605.592773 422.771323 
L 606.410156 422.66691 
L 607.227539 422.20662 
L 608.044922 421.585519 
L 608.453613 421.456921 
L 608.862305 421.511958 
L 610.088379 421.960569 
L 611.723145 422.153446 
L 612.949219 422.557561 
L 613.35791 422.550107 
L 613.766602 422.336556 
L 614.583984 421.589416 
L 614.992676 421.43157 
L 615.401367 421.53863 
L 616.21875 422.036887 
L 617.036133 422.204589 
L 617.853516 422.065917 
L 618.670898 421.852737 
L 619.488281 421.959742 
L 620.714355 422.481127 
L 621.531738 422.466847 
L 622.349121 422.362696 
L 624.392578 422.424203 
L 626.027344 422.079732 
L 627.662109 422.026423 
L 628.888184 422.315516 
L 630.931641 422.28784 
L 632.157715 422.627992 
L 632.975098 422.529984 
L 635.018555 422.08198 
L 636.65332 421.877049 
L 637.470703 422.261134 
L 637.879395 422.518064 
L 638.288086 422.636786 
L 638.696777 422.533235 
L 639.51416 422.018974 
L 639.922852 421.900773 
L 644.009766 422.051498 
L 644.827148 422.283417 
L 645.644531 422.244567 
L 647.687988 421.812935 
L 649.731445 421.773981 
L 650.548828 422.074585 
L 651.366211 422.411091 
L 651.774902 422.425512 
L 652.592285 422.056771 
L 653.409668 421.726172 
L 654.227051 421.811934 
L 655.861816 422.177187 
L 656.270508 422.143258 
L 657.087891 421.75058 
L 657.905273 421.344469 
L 658.313965 421.327789 
L 659.131348 421.649735 
L 659.94873 421.910856 
L 660.766113 421.748487 
L 661.583496 421.526334 
L 662.80957 421.396386 
L 663.626953 421.148934 
L 664.035645 421.157206 
L 664.853027 421.490311 
L 665.67041 421.829409 
L 666.896484 421.892316 
L 668.939941 421.909942 
L 669.757324 421.938222 
L 670.574707 421.985564 
L 672.209473 421.479408 
L 674.25293 421.723559 
L 676.296387 422.096541 
L 680.791992 421.578988 
L 682.426758 422.028036 
L 685.287598 421.817656 
L 686.922363 421.328812 
L 688.148438 421.413857 
L 689.374512 421.393871 
L 690.191895 421.396517 
L 691.009277 421.648967 
L 691.82666 421.937675 
L 692.644043 421.864613 
L 694.278809 421.195986 
L 695.504883 420.471643 
L 695.913574 420.529643 
L 697.139648 421.305547 
L 697.957031 421.225193 
L 698.774414 421.126551 
L 700.000488 421.171497 
L 702.043945 420.88046 
L 702.861328 421.0239 
L 703.678711 421.367788 
L 704.496094 421.372769 
L 705.313477 421.339071 
L 707.356934 421.959226 
L 708.174316 421.938458 
L 708.991699 421.695197 
L 709.809082 421.247062 
L 710.217773 421.134128 
L 710.626465 421.165263 
L 712.26123 421.739568 
L 713.078613 421.702963 
L 713.895996 421.398791 
L 714.713379 421.088751 
L 715.530762 421.213434 
L 715.939453 421.365285 
L 715.939453 421.365285 
" style="fill:none;stroke:#ff7f0e;stroke-linecap:square;stroke-width:1.5;"/>
   </g>
   <g id="patch_3">
    <path d="M 46.0125 445.58 
L 46.0125 10.7 
" style="fill:none;stroke:#000000;stroke-linecap:square;stroke-linejoin:miter;stroke-width:0.8;"/>
   </g>
   <g id="patch_4">
    <path d="M 715.6125 445.58 
L 715.6125 10.7 
" style="fill:none;stroke:#000000;stroke-linecap:square;stroke-linejoin:miter;stroke-width:0.8;"/>
   </g>
   <g id="patch_5">
    <path d="M 46.0125 445.58 
L 715.6125 445.58 
" style="fill:none;stroke:#000000;stroke-linecap:square;stroke-linejoin:miter;stroke-width:0.8;"/>
   </g>
   <g id="patch_6">
    <path d="M 46.0125 10.7 
L 715.6125 10.7 
" style="fill:none;stroke:#000000;stroke-linecap:square;stroke-linejoin:miter;stroke-width:0.8;"/>
   </g>
  </g>
 </g>
 <defs>
  <clipPath id="p5b953ad0b0">
   <rect height="434.88" width="669.6" x="46.0125" y="10.7"/>
  </clipPath>
 </defs>
</svg>
