<?xml version="1.0" encoding="utf-8" standalone="no"?>
<!DOCTYPE svg PUBLIC "-//W3C//DTD SVG 1.1//EN"
  "http://www.w3.org/Graphics/SVG/1.1/DTD/svg11.dtd">
<!-- Created with matplotlib (http://matplotlib.org/) -->
<svg height="494.754375pt" version="1.1" viewBox="0 0 720.903125 494.754375" width="720.903125pt" xmlns="http://www.w3.org/2000/svg" xmlns:xlink="http://www.w3.org/1999/xlink">
 <defs>
  <style type="text/css">
*{stroke-linecap:butt;stroke-linejoin:round;}
  </style>
 </defs>
 <g id="figure_1">
  <g id="patch_1">
   <path d="M 0 494.754375 
L 720.903125 494.754375 
L 720.903125 0 
L 0 0 
z
" style="fill:#ffffff;"/>
  </g>
  <g id="axes_1">
   <g id="patch_2">
    <path d="M 40.603125 457.198125 
L 710.203125 457.198125 
L 710.203125 22.318125 
L 40.603125 22.318125 
z
" style="fill:#ffffff;"/>
   </g>
   <g id="PathCollection_1">
    <defs>
     <path d="M 0 3 
C 0.795609 3 1.55874 2.683901 2.12132 2.12132 
C 2.683901 1.55874 3 0.795609 3 0 
C 3 -0.795609 2.683901 -1.55874 2.12132 -2.12132 
C 1.55874 -2.683901 0.795609 -3 0 -3 
C -0.795609 -3 -1.55874 -2.683901 -2.12132 -2.12132 
C -2.683901 -1.55874 -3 -0.795609 -3 0 
C -3 0.795609 -2.683901 1.55874 -2.12132 2.12132 
C -1.55874 2.683901 -0.795609 3 0 3 
z
" id="mec398736d9" style="stroke:#ff0000;"/>
    </defs>
    <g clip-path="url(#p8cc0a1dbf1)">
     <use style="fill:#ff0000;stroke:#ff0000;" x="574.842142" xlink:href="#mec398736d9" y="453.066765"/>
     <use style="fill:#ff0000;stroke:#ff0000;" x="541.843214" xlink:href="#mec398736d9" y="452.958045"/>
     <use style="fill:#ff0000;stroke:#ff0000;" x="511.028477" xlink:href="#mec398736d9" y="452.631885"/>
     <use style="fill:#ff0000;stroke:#ff0000;" x="482.188199" xlink:href="#mec398736d9" y="447.413325"/>
     <use style="fill:#ff0000;stroke:#ff0000;" x="455.138349" xlink:href="#mec398736d9" y="406.969485"/>
     <use style="fill:#ff0000;stroke:#ff0000;" x="429.717269" xlink:href="#mec398736d9" y="183.549885"/>
     <use style="fill:#ff0000;stroke:#ff0000;" x="405.782126" xlink:href="#mec398736d9" y="50.259165"/>
     <use style="fill:#ff0000;stroke:#ff0000;" x="383.206377" xlink:href="#mec398736d9" y="91.898925"/>
     <use style="fill:#ff0000;stroke:#ff0000;" x="361.877339" xlink:href="#mec398736d9" y="96.682605"/>
     <use style="fill:#ff0000;stroke:#ff0000;" x="341.694576" xlink:href="#mec398736d9" y="96.139005"/>
     <use style="fill:#ff0000;stroke:#ff0000;" x="304.417044" xlink:href="#mec398736d9" y="96.356445"/>
    </g>
   </g>
   <g id="matplotlib.axis_1">
    <g id="xtick_1">
     <g id="line2d_1">
      <defs>
       <path d="M 0 0 
L 0 3.5 
" id="mfa49e74181" style="stroke:#000000;stroke-width:0.8;"/>
      </defs>
      <g>
       <use style="stroke:#000000;stroke-width:0.8;" x="43.430547" xlink:href="#mfa49e74181" y="457.198125"/>
      </g>
     </g>
     <g id="text_1">
      <!-- 225 -->
      <defs>
       <path d="M 19.1875 8.296875 
L 53.609375 8.296875 
L 53.609375 0 
L 7.328125 0 
L 7.328125 8.296875 
Q 12.9375 14.109375 22.625 23.890625 
Q 32.328125 33.6875 34.8125 36.53125 
Q 39.546875 41.84375 41.421875 45.53125 
Q 43.3125 49.21875 43.3125 52.78125 
Q 43.3125 58.59375 39.234375 62.25 
Q 35.15625 65.921875 28.609375 65.921875 
Q 23.96875 65.921875 18.8125 64.3125 
Q 13.671875 62.703125 7.8125 59.421875 
L 7.8125 69.390625 
Q 13.765625 71.78125 18.9375 73 
Q 24.125 74.21875 28.421875 74.21875 
Q 39.75 74.21875 46.484375 68.546875 
Q 53.21875 62.890625 53.21875 53.421875 
Q 53.21875 48.921875 51.53125 44.890625 
Q 49.859375 40.875 45.40625 35.40625 
Q 44.1875 33.984375 37.640625 27.21875 
Q 31.109375 20.453125 19.1875 8.296875 
z
" id="DejaVuSans-32"/>
       <path d="M 10.796875 72.90625 
L 49.515625 72.90625 
L 49.515625 64.59375 
L 19.828125 64.59375 
L 19.828125 46.734375 
Q 21.96875 47.46875 24.109375 47.828125 
Q 26.265625 48.1875 28.421875 48.1875 
Q 40.625 48.1875 47.75 41.5 
Q 54.890625 34.8125 54.890625 23.390625 
Q 54.890625 11.625 47.5625 5.09375 
Q 40.234375 -1.421875 26.90625 -1.421875 
Q 22.3125 -1.421875 17.546875 -0.640625 
Q 12.796875 0.140625 7.71875 1.703125 
L 7.71875 11.625 
Q 12.109375 9.234375 16.796875 8.0625 
Q 21.484375 6.890625 26.703125 6.890625 
Q 35.15625 6.890625 40.078125 11.328125 
Q 45.015625 15.765625 45.015625 23.390625 
Q 45.015625 31 40.078125 35.4375 
Q 35.15625 39.890625 26.703125 39.890625 
Q 22.75 39.890625 18.8125 39.015625 
Q 14.890625 38.140625 10.796875 36.28125 
z
" id="DejaVuSans-35"/>
      </defs>
      <g transform="translate(33.886797 471.796562)scale(0.1 -0.1)">
       <use xlink:href="#DejaVuSans-32"/>
       <use x="63.623047" xlink:href="#DejaVuSans-32"/>
       <use x="127.246094" xlink:href="#DejaVuSans-35"/>
      </g>
     </g>
    </g>
    <g id="xtick_2">
     <g id="line2d_2">
      <g>
       <use style="stroke:#000000;stroke-width:0.8;" x="119.030059" xlink:href="#mfa49e74181" y="457.198125"/>
      </g>
     </g>
     <g id="text_2">
      <!-- 250 -->
      <defs>
       <path d="M 31.78125 66.40625 
Q 24.171875 66.40625 20.328125 58.90625 
Q 16.5 51.421875 16.5 36.375 
Q 16.5 21.390625 20.328125 13.890625 
Q 24.171875 6.390625 31.78125 6.390625 
Q 39.453125 6.390625 43.28125 13.890625 
Q 47.125 21.390625 47.125 36.375 
Q 47.125 51.421875 43.28125 58.90625 
Q 39.453125 66.40625 31.78125 66.40625 
z
M 31.78125 74.21875 
Q 44.046875 74.21875 50.515625 64.515625 
Q 56.984375 54.828125 56.984375 36.375 
Q 56.984375 17.96875 50.515625 8.265625 
Q 44.046875 -1.421875 31.78125 -1.421875 
Q 19.53125 -1.421875 13.0625 8.265625 
Q 6.59375 17.96875 6.59375 36.375 
Q 6.59375 54.828125 13.0625 64.515625 
Q 19.53125 74.21875 31.78125 74.21875 
z
" id="DejaVuSans-30"/>
      </defs>
      <g transform="translate(109.486309 471.796562)scale(0.1 -0.1)">
       <use xlink:href="#DejaVuSans-32"/>
       <use x="63.623047" xlink:href="#DejaVuSans-35"/>
       <use x="127.246094" xlink:href="#DejaVuSans-30"/>
      </g>
     </g>
    </g>
    <g id="xtick_3">
     <g id="line2d_3">
      <g>
       <use style="stroke:#000000;stroke-width:0.8;" x="194.629571" xlink:href="#mfa49e74181" y="457.198125"/>
      </g>
     </g>
     <g id="text_3">
      <!-- 275 -->
      <defs>
       <path d="M 8.203125 72.90625 
L 55.078125 72.90625 
L 55.078125 68.703125 
L 28.609375 0 
L 18.3125 0 
L 43.21875 64.59375 
L 8.203125 64.59375 
z
" id="DejaVuSans-37"/>
      </defs>
      <g transform="translate(185.085821 471.796562)scale(0.1 -0.1)">
       <use xlink:href="#DejaVuSans-32"/>
       <use x="63.623047" xlink:href="#DejaVuSans-37"/>
       <use x="127.246094" xlink:href="#DejaVuSans-35"/>
      </g>
     </g>
    </g>
    <g id="xtick_4">
     <g id="line2d_4">
      <g>
       <use style="stroke:#000000;stroke-width:0.8;" x="270.229084" xlink:href="#mfa49e74181" y="457.198125"/>
      </g>
     </g>
     <g id="text_4">
      <!-- 300 -->
      <defs>
       <path d="M 40.578125 39.3125 
Q 47.65625 37.796875 51.625 33 
Q 55.609375 28.21875 55.609375 21.1875 
Q 55.609375 10.40625 48.1875 4.484375 
Q 40.765625 -1.421875 27.09375 -1.421875 
Q 22.515625 -1.421875 17.65625 -0.515625 
Q 12.796875 0.390625 7.625 2.203125 
L 7.625 11.71875 
Q 11.71875 9.328125 16.59375 8.109375 
Q 21.484375 6.890625 26.8125 6.890625 
Q 36.078125 6.890625 40.9375 10.546875 
Q 45.796875 14.203125 45.796875 21.1875 
Q 45.796875 27.640625 41.28125 31.265625 
Q 36.765625 34.90625 28.71875 34.90625 
L 20.21875 34.90625 
L 20.21875 43.015625 
L 29.109375 43.015625 
Q 36.375 43.015625 40.234375 45.921875 
Q 44.09375 48.828125 44.09375 54.296875 
Q 44.09375 59.90625 40.109375 62.90625 
Q 36.140625 65.921875 28.71875 65.921875 
Q 24.65625 65.921875 20.015625 65.03125 
Q 15.375 64.15625 9.8125 62.3125 
L 9.8125 71.09375 
Q 15.4375 72.65625 20.34375 73.4375 
Q 25.25 74.21875 29.59375 74.21875 
Q 40.828125 74.21875 47.359375 69.109375 
Q 53.90625 64.015625 53.90625 55.328125 
Q 53.90625 49.265625 50.4375 45.09375 
Q 46.96875 40.921875 40.578125 39.3125 
z
" id="DejaVuSans-33"/>
      </defs>
      <g transform="translate(260.685334 471.796562)scale(0.1 -0.1)">
       <use xlink:href="#DejaVuSans-33"/>
       <use x="63.623047" xlink:href="#DejaVuSans-30"/>
       <use x="127.246094" xlink:href="#DejaVuSans-30"/>
      </g>
     </g>
    </g>
    <g id="xtick_5">
     <g id="line2d_5">
      <g>
       <use style="stroke:#000000;stroke-width:0.8;" x="345.828596" xlink:href="#mfa49e74181" y="457.198125"/>
      </g>
     </g>
     <g id="text_5">
      <!-- 325 -->
      <g transform="translate(336.284846 471.796562)scale(0.1 -0.1)">
       <use xlink:href="#DejaVuSans-33"/>
       <use x="63.623047" xlink:href="#DejaVuSans-32"/>
       <use x="127.246094" xlink:href="#DejaVuSans-35"/>
      </g>
     </g>
    </g>
    <g id="xtick_6">
     <g id="line2d_6">
      <g>
       <use style="stroke:#000000;stroke-width:0.8;" x="421.428108" xlink:href="#mfa49e74181" y="457.198125"/>
      </g>
     </g>
     <g id="text_6">
      <!-- 350 -->
      <g transform="translate(411.884358 471.796562)scale(0.1 -0.1)">
       <use xlink:href="#DejaVuSans-33"/>
       <use x="63.623047" xlink:href="#DejaVuSans-35"/>
       <use x="127.246094" xlink:href="#DejaVuSans-30"/>
      </g>
     </g>
    </g>
    <g id="xtick_7">
     <g id="line2d_7">
      <g>
       <use style="stroke:#000000;stroke-width:0.8;" x="497.02762" xlink:href="#mfa49e74181" y="457.198125"/>
      </g>
     </g>
     <g id="text_7">
      <!-- 375 -->
      <g transform="translate(487.48387 471.796562)scale(0.1 -0.1)">
       <use xlink:href="#DejaVuSans-33"/>
       <use x="63.623047" xlink:href="#DejaVuSans-37"/>
       <use x="127.246094" xlink:href="#DejaVuSans-35"/>
      </g>
     </g>
    </g>
    <g id="xtick_8">
     <g id="line2d_8">
      <g>
       <use style="stroke:#000000;stroke-width:0.8;" x="572.627133" xlink:href="#mfa49e74181" y="457.198125"/>
      </g>
     </g>
     <g id="text_8">
      <!-- 400 -->
      <defs>
       <path d="M 37.796875 64.3125 
L 12.890625 25.390625 
L 37.796875 25.390625 
z
M 35.203125 72.90625 
L 47.609375 72.90625 
L 47.609375 25.390625 
L 58.015625 25.390625 
L 58.015625 17.1875 
L 47.609375 17.1875 
L 47.609375 0 
L 37.796875 0 
L 37.796875 17.1875 
L 4.890625 17.1875 
L 4.890625 26.703125 
z
" id="DejaVuSans-34"/>
      </defs>
      <g transform="translate(563.083383 471.796562)scale(0.1 -0.1)">
       <use xlink:href="#DejaVuSans-34"/>
       <use x="63.623047" xlink:href="#DejaVuSans-30"/>
       <use x="127.246094" xlink:href="#DejaVuSans-30"/>
      </g>
     </g>
    </g>
    <g id="xtick_9">
     <g id="line2d_9">
      <g>
       <use style="stroke:#000000;stroke-width:0.8;" x="648.226645" xlink:href="#mfa49e74181" y="457.198125"/>
      </g>
     </g>
     <g id="text_9">
      <!-- 425 -->
      <g transform="translate(638.682895 471.796562)scale(0.1 -0.1)">
       <use xlink:href="#DejaVuSans-34"/>
       <use x="63.623047" xlink:href="#DejaVuSans-32"/>
       <use x="127.246094" xlink:href="#DejaVuSans-35"/>
      </g>
     </g>
    </g>
    <g id="text_10">
     <!-- Temperatur [K] -->
     <defs>
      <path d="M -0.296875 72.90625 
L 61.375 72.90625 
L 61.375 64.59375 
L 35.5 64.59375 
L 35.5 0 
L 25.59375 0 
L 25.59375 64.59375 
L -0.296875 64.59375 
z
" id="DejaVuSans-54"/>
      <path d="M 56.203125 29.59375 
L 56.203125 25.203125 
L 14.890625 25.203125 
Q 15.484375 15.921875 20.484375 11.0625 
Q 25.484375 6.203125 34.421875 6.203125 
Q 39.59375 6.203125 44.453125 7.46875 
Q 49.3125 8.734375 54.109375 11.28125 
L 54.109375 2.78125 
Q 49.265625 0.734375 44.1875 -0.34375 
Q 39.109375 -1.421875 33.890625 -1.421875 
Q 20.796875 -1.421875 13.15625 6.1875 
Q 5.515625 13.8125 5.515625 26.8125 
Q 5.515625 40.234375 12.765625 48.109375 
Q 20.015625 56 32.328125 56 
Q 43.359375 56 49.78125 48.890625 
Q 56.203125 41.796875 56.203125 29.59375 
z
M 47.21875 32.234375 
Q 47.125 39.59375 43.09375 43.984375 
Q 39.0625 48.390625 32.421875 48.390625 
Q 24.90625 48.390625 20.390625 44.140625 
Q 15.875 39.890625 15.1875 32.171875 
z
" id="DejaVuSans-65"/>
      <path d="M 52 44.1875 
Q 55.375 50.25 60.0625 53.125 
Q 64.75 56 71.09375 56 
Q 79.640625 56 84.28125 50.015625 
Q 88.921875 44.046875 88.921875 33.015625 
L 88.921875 0 
L 79.890625 0 
L 79.890625 32.71875 
Q 79.890625 40.578125 77.09375 44.375 
Q 74.3125 48.1875 68.609375 48.1875 
Q 61.625 48.1875 57.5625 43.546875 
Q 53.515625 38.921875 53.515625 30.90625 
L 53.515625 0 
L 44.484375 0 
L 44.484375 32.71875 
Q 44.484375 40.625 41.703125 44.40625 
Q 38.921875 48.1875 33.109375 48.1875 
Q 26.21875 48.1875 22.15625 43.53125 
Q 18.109375 38.875 18.109375 30.90625 
L 18.109375 0 
L 9.078125 0 
L 9.078125 54.6875 
L 18.109375 54.6875 
L 18.109375 46.1875 
Q 21.1875 51.21875 25.484375 53.609375 
Q 29.78125 56 35.6875 56 
Q 41.65625 56 45.828125 52.96875 
Q 50 49.953125 52 44.1875 
z
" id="DejaVuSans-6d"/>
      <path d="M 18.109375 8.203125 
L 18.109375 -20.796875 
L 9.078125 -20.796875 
L 9.078125 54.6875 
L 18.109375 54.6875 
L 18.109375 46.390625 
Q 20.953125 51.265625 25.265625 53.625 
Q 29.59375 56 35.59375 56 
Q 45.5625 56 51.78125 48.09375 
Q 58.015625 40.1875 58.015625 27.296875 
Q 58.015625 14.40625 51.78125 6.484375 
Q 45.5625 -1.421875 35.59375 -1.421875 
Q 29.59375 -1.421875 25.265625 0.953125 
Q 20.953125 3.328125 18.109375 8.203125 
z
M 48.6875 27.296875 
Q 48.6875 37.203125 44.609375 42.84375 
Q 40.53125 48.484375 33.40625 48.484375 
Q 26.265625 48.484375 22.1875 42.84375 
Q 18.109375 37.203125 18.109375 27.296875 
Q 18.109375 17.390625 22.1875 11.75 
Q 26.265625 6.109375 33.40625 6.109375 
Q 40.53125 6.109375 44.609375 11.75 
Q 48.6875 17.390625 48.6875 27.296875 
z
" id="DejaVuSans-70"/>
      <path d="M 41.109375 46.296875 
Q 39.59375 47.171875 37.8125 47.578125 
Q 36.03125 48 33.890625 48 
Q 26.265625 48 22.1875 43.046875 
Q 18.109375 38.09375 18.109375 28.8125 
L 18.109375 0 
L 9.078125 0 
L 9.078125 54.6875 
L 18.109375 54.6875 
L 18.109375 46.1875 
Q 20.953125 51.171875 25.484375 53.578125 
Q 30.03125 56 36.53125 56 
Q 37.453125 56 38.578125 55.875 
Q 39.703125 55.765625 41.0625 55.515625 
z
" id="DejaVuSans-72"/>
      <path d="M 34.28125 27.484375 
Q 23.390625 27.484375 19.1875 25 
Q 14.984375 22.515625 14.984375 16.5 
Q 14.984375 11.71875 18.140625 8.90625 
Q 21.296875 6.109375 26.703125 6.109375 
Q 34.1875 6.109375 38.703125 11.40625 
Q 43.21875 16.703125 43.21875 25.484375 
L 43.21875 27.484375 
z
M 52.203125 31.203125 
L 52.203125 0 
L 43.21875 0 
L 43.21875 8.296875 
Q 40.140625 3.328125 35.546875 0.953125 
Q 30.953125 -1.421875 24.3125 -1.421875 
Q 15.921875 -1.421875 10.953125 3.296875 
Q 6 8.015625 6 15.921875 
Q 6 25.140625 12.171875 29.828125 
Q 18.359375 34.515625 30.609375 34.515625 
L 43.21875 34.515625 
L 43.21875 35.40625 
Q 43.21875 41.609375 39.140625 45 
Q 35.0625 48.390625 27.6875 48.390625 
Q 23 48.390625 18.546875 47.265625 
Q 14.109375 46.140625 10.015625 43.890625 
L 10.015625 52.203125 
Q 14.9375 54.109375 19.578125 55.046875 
Q 24.21875 56 28.609375 56 
Q 40.484375 56 46.34375 49.84375 
Q 52.203125 43.703125 52.203125 31.203125 
z
" id="DejaVuSans-61"/>
      <path d="M 18.3125 70.21875 
L 18.3125 54.6875 
L 36.8125 54.6875 
L 36.8125 47.703125 
L 18.3125 47.703125 
L 18.3125 18.015625 
Q 18.3125 11.328125 20.140625 9.421875 
Q 21.96875 7.515625 27.59375 7.515625 
L 36.8125 7.515625 
L 36.8125 0 
L 27.59375 0 
Q 17.1875 0 13.234375 3.875 
Q 9.28125 7.765625 9.28125 18.015625 
L 9.28125 47.703125 
L 2.6875 47.703125 
L 2.6875 54.6875 
L 9.28125 54.6875 
L 9.28125 70.21875 
z
" id="DejaVuSans-74"/>
      <path d="M 8.5 21.578125 
L 8.5 54.6875 
L 17.484375 54.6875 
L 17.484375 21.921875 
Q 17.484375 14.15625 20.5 10.265625 
Q 23.53125 6.390625 29.59375 6.390625 
Q 36.859375 6.390625 41.078125 11.03125 
Q 45.3125 15.671875 45.3125 23.6875 
L 45.3125 54.6875 
L 54.296875 54.6875 
L 54.296875 0 
L 45.3125 0 
L 45.3125 8.40625 
Q 42.046875 3.421875 37.71875 1 
Q 33.40625 -1.421875 27.6875 -1.421875 
Q 18.265625 -1.421875 13.375 4.4375 
Q 8.5 10.296875 8.5 21.578125 
z
M 31.109375 56 
z
" id="DejaVuSans-75"/>
      <path id="DejaVuSans-20"/>
      <path d="M 8.59375 75.984375 
L 29.296875 75.984375 
L 29.296875 69 
L 17.578125 69 
L 17.578125 -6.203125 
L 29.296875 -6.203125 
L 29.296875 -13.1875 
L 8.59375 -13.1875 
z
" id="DejaVuSans-5b"/>
      <path d="M 9.8125 72.90625 
L 19.671875 72.90625 
L 19.671875 42.09375 
L 52.390625 72.90625 
L 65.09375 72.90625 
L 28.90625 38.921875 
L 67.671875 0 
L 54.6875 0 
L 19.671875 35.109375 
L 19.671875 0 
L 9.8125 0 
z
" id="DejaVuSans-4b"/>
      <path d="M 30.421875 75.984375 
L 30.421875 -13.1875 
L 9.71875 -13.1875 
L 9.71875 -6.203125 
L 21.390625 -6.203125 
L 21.390625 69 
L 9.71875 69 
L 9.71875 75.984375 
z
" id="DejaVuSans-5d"/>
     </defs>
     <g transform="translate(337.091406 485.474687)scale(0.1 -0.1)">
      <use xlink:href="#DejaVuSans-54"/>
      <use x="60.818359" xlink:href="#DejaVuSans-65"/>
      <use x="122.341797" xlink:href="#DejaVuSans-6d"/>
      <use x="219.753906" xlink:href="#DejaVuSans-70"/>
      <use x="283.230469" xlink:href="#DejaVuSans-65"/>
      <use x="344.753906" xlink:href="#DejaVuSans-72"/>
      <use x="385.867188" xlink:href="#DejaVuSans-61"/>
      <use x="447.146484" xlink:href="#DejaVuSans-74"/>
      <use x="486.355469" xlink:href="#DejaVuSans-75"/>
      <use x="549.734375" xlink:href="#DejaVuSans-72"/>
      <use x="590.847656" xlink:href="#DejaVuSans-20"/>
      <use x="622.634766" xlink:href="#DejaVuSans-5b"/>
      <use x="661.648438" xlink:href="#DejaVuSans-4b"/>
      <use x="727.224609" xlink:href="#DejaVuSans-5d"/>
     </g>
    </g>
   </g>
   <g id="matplotlib.axis_2">
    <g id="ytick_1">
     <g id="line2d_10">
      <defs>
       <path d="M 0 0 
L -3.5 0 
" id="mc1ce78bdd9" style="stroke:#000000;stroke-width:0.8;"/>
      </defs>
      <g>
       <use style="stroke:#000000;stroke-width:0.8;" x="40.603125" xlink:href="#mc1ce78bdd9" y="457.198125"/>
      </g>
     </g>
     <g id="text_11">
      <!-- 0 -->
      <g transform="translate(27.240625 460.997344)scale(0.1 -0.1)">
       <use xlink:href="#DejaVuSans-30"/>
      </g>
     </g>
    </g>
    <g id="ytick_2">
     <g id="line2d_11">
      <g>
       <use style="stroke:#000000;stroke-width:0.8;" x="40.603125" xlink:href="#mc1ce78bdd9" y="370.222125"/>
      </g>
     </g>
     <g id="text_12">
      <!-- 10 -->
      <defs>
       <path d="M 12.40625 8.296875 
L 28.515625 8.296875 
L 28.515625 63.921875 
L 10.984375 60.40625 
L 10.984375 69.390625 
L 28.421875 72.90625 
L 38.28125 72.90625 
L 38.28125 8.296875 
L 54.390625 8.296875 
L 54.390625 0 
L 12.40625 0 
z
" id="DejaVuSans-31"/>
      </defs>
      <g transform="translate(20.878125 374.021344)scale(0.1 -0.1)">
       <use xlink:href="#DejaVuSans-31"/>
       <use x="63.623047" xlink:href="#DejaVuSans-30"/>
      </g>
     </g>
    </g>
    <g id="ytick_3">
     <g id="line2d_12">
      <g>
       <use style="stroke:#000000;stroke-width:0.8;" x="40.603125" xlink:href="#mc1ce78bdd9" y="283.246125"/>
      </g>
     </g>
     <g id="text_13">
      <!-- 20 -->
      <g transform="translate(20.878125 287.045344)scale(0.1 -0.1)">
       <use xlink:href="#DejaVuSans-32"/>
       <use x="63.623047" xlink:href="#DejaVuSans-30"/>
      </g>
     </g>
    </g>
    <g id="ytick_4">
     <g id="line2d_13">
      <g>
       <use style="stroke:#000000;stroke-width:0.8;" x="40.603125" xlink:href="#mc1ce78bdd9" y="196.270125"/>
      </g>
     </g>
     <g id="text_14">
      <!-- 30 -->
      <g transform="translate(20.878125 200.069344)scale(0.1 -0.1)">
       <use xlink:href="#DejaVuSans-33"/>
       <use x="63.623047" xlink:href="#DejaVuSans-30"/>
      </g>
     </g>
    </g>
    <g id="ytick_5">
     <g id="line2d_14">
      <g>
       <use style="stroke:#000000;stroke-width:0.8;" x="40.603125" xlink:href="#mc1ce78bdd9" y="109.294125"/>
      </g>
     </g>
     <g id="text_15">
      <!-- 40 -->
      <g transform="translate(20.878125 113.093344)scale(0.1 -0.1)">
       <use xlink:href="#DejaVuSans-34"/>
       <use x="63.623047" xlink:href="#DejaVuSans-30"/>
      </g>
     </g>
    </g>
    <g id="ytick_6">
     <g id="line2d_15">
      <g>
       <use style="stroke:#000000;stroke-width:0.8;" x="40.603125" xlink:href="#mc1ce78bdd9" y="22.318125"/>
      </g>
     </g>
     <g id="text_16">
      <!-- 50 -->
      <g transform="translate(20.878125 26.117344)scale(0.1 -0.1)">
       <use xlink:href="#DejaVuSans-35"/>
       <use x="63.623047" xlink:href="#DejaVuSans-30"/>
      </g>
     </g>
    </g>
    <g id="text_17">
     <!-- FWHM [kHz] -->
     <defs>
      <path d="M 9.8125 72.90625 
L 51.703125 72.90625 
L 51.703125 64.59375 
L 19.671875 64.59375 
L 19.671875 43.109375 
L 48.578125 43.109375 
L 48.578125 34.8125 
L 19.671875 34.8125 
L 19.671875 0 
L 9.8125 0 
z
" id="DejaVuSans-46"/>
      <path d="M 3.328125 72.90625 
L 13.28125 72.90625 
L 28.609375 11.28125 
L 43.890625 72.90625 
L 54.984375 72.90625 
L 70.3125 11.28125 
L 85.59375 72.90625 
L 95.609375 72.90625 
L 77.296875 0 
L 64.890625 0 
L 49.515625 63.28125 
L 33.984375 0 
L 21.578125 0 
z
" id="DejaVuSans-57"/>
      <path d="M 9.8125 72.90625 
L 19.671875 72.90625 
L 19.671875 43.015625 
L 55.515625 43.015625 
L 55.515625 72.90625 
L 65.375 72.90625 
L 65.375 0 
L 55.515625 0 
L 55.515625 34.71875 
L 19.671875 34.71875 
L 19.671875 0 
L 9.8125 0 
z
" id="DejaVuSans-48"/>
      <path d="M 9.8125 72.90625 
L 24.515625 72.90625 
L 43.109375 23.296875 
L 61.8125 72.90625 
L 76.515625 72.90625 
L 76.515625 0 
L 66.890625 0 
L 66.890625 64.015625 
L 48.09375 14.015625 
L 38.1875 14.015625 
L 19.390625 64.015625 
L 19.390625 0 
L 9.8125 0 
z
" id="DejaVuSans-4d"/>
      <path d="M 9.078125 75.984375 
L 18.109375 75.984375 
L 18.109375 31.109375 
L 44.921875 54.6875 
L 56.390625 54.6875 
L 27.390625 29.109375 
L 57.625 0 
L 45.90625 0 
L 18.109375 26.703125 
L 18.109375 0 
L 9.078125 0 
z
" id="DejaVuSans-6b"/>
      <path d="M 5.515625 54.6875 
L 48.1875 54.6875 
L 48.1875 46.484375 
L 14.40625 7.171875 
L 48.1875 7.171875 
L 48.1875 0 
L 4.296875 0 
L 4.296875 8.203125 
L 38.09375 47.515625 
L 5.515625 47.515625 
z
" id="DejaVuSans-7a"/>
     </defs>
     <g transform="translate(14.798438 270.422187)rotate(-90)scale(0.1 -0.1)">
      <use xlink:href="#DejaVuSans-46"/>
      <use x="57.519531" xlink:href="#DejaVuSans-57"/>
      <use x="156.396484" xlink:href="#DejaVuSans-48"/>
      <use x="231.591797" xlink:href="#DejaVuSans-4d"/>
      <use x="317.871094" xlink:href="#DejaVuSans-20"/>
      <use x="349.658203" xlink:href="#DejaVuSans-5b"/>
      <use x="388.671875" xlink:href="#DejaVuSans-6b"/>
      <use x="446.582031" xlink:href="#DejaVuSans-48"/>
      <use x="521.777344" xlink:href="#DejaVuSans-7a"/>
      <use x="574.267578" xlink:href="#DejaVuSans-5d"/>
     </g>
    </g>
   </g>
   <g id="LineCollection_1">
    <path clip-path="url(#p8cc0a1dbf1)" d="M 71.039489 55.578617 
L 71.039489 55.578617 
" style="fill:none;stroke:#1f77b4;stroke-width:1.5;"/>
    <path clip-path="url(#p8cc0a1dbf1)" d="M 98.618191 64.957239 
L 98.618191 64.957239 
" style="fill:none;stroke:#1f77b4;stroke-width:1.5;"/>
    <path clip-path="url(#p8cc0a1dbf1)" d="M 127.406485 62.63585 
L 127.406485 62.63585 
" style="fill:none;stroke:#1f77b4;stroke-width:1.5;"/>
    <path clip-path="url(#p8cc0a1dbf1)" d="M 156.1343 72.96251 
L 156.1343 72.96251 
" style="fill:none;stroke:#1f77b4;stroke-width:1.5;"/>
    <path clip-path="url(#p8cc0a1dbf1)" d="M 184.983074 80.225006 
L 184.983074 80.225006 
" style="fill:none;stroke:#1f77b4;stroke-width:1.5;"/>
    <path clip-path="url(#p8cc0a1dbf1)" d="M 213.892327 83.602284 
L 213.892327 83.602284 
" style="fill:none;stroke:#1f77b4;stroke-width:1.5;"/>
   </g>
   <g id="LineCollection_2">
    <path clip-path="url(#p8cc0a1dbf1)" d="M 185.769308 86.648184 
L 185.769308 86.648184 
" style="fill:none;stroke:#1f77b4;stroke-width:1.5;"/>
    <path clip-path="url(#p8cc0a1dbf1)" d="M 214.436643 86.225481 
L 214.436643 86.225481 
" style="fill:none;stroke:#1f77b4;stroke-width:1.5;"/>
    <path clip-path="url(#p8cc0a1dbf1)" d="M 243.406377 93.354033 
L 243.406377 93.354033 
" style="fill:none;stroke:#1f77b4;stroke-width:1.5;"/>
    <path clip-path="url(#p8cc0a1dbf1)" d="M 272.34587 96.245116 
L 272.34587 96.245116 
" style="fill:none;stroke:#1f77b4;stroke-width:1.5;"/>
    <path clip-path="url(#p8cc0a1dbf1)" d="M 301.345843 103.835511 
L 301.345843 103.835511 
" style="fill:none;stroke:#1f77b4;stroke-width:1.5;"/>
    <path clip-path="url(#p8cc0a1dbf1)" d="M 330.285336 102.782232 
L 330.285336 102.782232 
" style="fill:none;stroke:#1f77b4;stroke-width:1.5;"/>
    <path clip-path="url(#p8cc0a1dbf1)" d="M 359.315549 113.641185 
L 359.315549 113.641185 
" style="fill:none;stroke:#1f77b4;stroke-width:1.5;"/>
   </g>
   <g id="LineCollection_3">
    <path clip-path="url(#p8cc0a1dbf1)" d="M 272.406349 93.450577 
L 272.406349 93.450577 
" style="fill:none;stroke:#1f77b4;stroke-width:1.5;"/>
    <path clip-path="url(#p8cc0a1dbf1)" d="M 300.620087 99.790257 
L 300.620087 99.790257 
" style="fill:none;stroke:#1f77b4;stroke-width:1.5;"/>
   </g>
   <g id="LineCollection_4">
    <path clip-path="url(#p8cc0a1dbf1)" d="M 432.102759 173.692895 
L 432.102759 173.692895 
" style="fill:none;stroke:#1f77b4;stroke-width:1.5;"/>
    <path clip-path="url(#p8cc0a1dbf1)" d="M 417.648132 161.133561 
L 417.648132 161.133561 
" style="fill:none;stroke:#1f77b4;stroke-width:1.5;"/>
    <path clip-path="url(#p8cc0a1dbf1)" d="M 403.163266 141.650067 
L 403.163266 141.650067 
" style="fill:none;stroke:#1f77b4;stroke-width:1.5;"/>
    <path clip-path="url(#p8cc0a1dbf1)" d="M 388.738879 127.092024 
L 388.738879 127.092024 
" style="fill:none;stroke:#1f77b4;stroke-width:1.5;"/>
    <path clip-path="url(#p8cc0a1dbf1)" d="M 374.344732 114.631842 
L 374.344732 114.631842 
" style="fill:none;stroke:#1f77b4;stroke-width:1.5;"/>
    <path clip-path="url(#p8cc0a1dbf1)" d="M 359.738906 108.375658 
L 359.738906 108.375658 
" style="fill:none;stroke:#1f77b4;stroke-width:1.5;"/>
    <path clip-path="url(#p8cc0a1dbf1)" d="M 345.2238 102.843115 
L 345.2238 102.843115 
" style="fill:none;stroke:#1f77b4;stroke-width:1.5;"/>
    <path clip-path="url(#p8cc0a1dbf1)" d="M 330.678454 99.546725 
L 330.678454 99.546725 
" style="fill:none;stroke:#1f77b4;stroke-width:1.5;"/>
    <path clip-path="url(#p8cc0a1dbf1)" d="M 316.042388 98.182071 
L 316.042388 98.182071 
" style="fill:none;stroke:#1f77b4;stroke-width:1.5;"/>
    <path clip-path="url(#p8cc0a1dbf1)" d="M 301.648241 94.182915 
L 301.648241 94.182915 
" style="fill:none;stroke:#1f77b4;stroke-width:1.5;"/>
   </g>
   <g id="LineCollection_5">
    <path clip-path="url(#p8cc0a1dbf1)" d="M 504.76901 360.878047 
L 504.76901 360.876177 
" style="fill:none;stroke:#1f77b4;stroke-width:1.5;"/>
    <path clip-path="url(#p8cc0a1dbf1)" d="M 493.187165 363.119808 
L 493.187165 363.11832 
" style="fill:none;stroke:#1f77b4;stroke-width:1.5;"/>
    <path clip-path="url(#p8cc0a1dbf1)" d="M 484.478101 359.348306 
L 484.478101 359.346663 
" style="fill:none;stroke:#1f77b4;stroke-width:1.5;"/>
    <path clip-path="url(#p8cc0a1dbf1)" d="M 475.769037 342.68128 
L 475.769037 342.678755 
" style="fill:none;stroke:#1f77b4;stroke-width:1.5;"/>
    <path clip-path="url(#p8cc0a1dbf1)" d="M 469.932755 323.887446 
L 469.932755 323.883656 
" style="fill:none;stroke:#1f77b4;stroke-width:1.5;"/>
    <path clip-path="url(#p8cc0a1dbf1)" d="M 464.126713 299.497149 
L 464.126713 299.490816 
" style="fill:none;stroke:#1f77b4;stroke-width:1.5;"/>
    <path clip-path="url(#p8cc0a1dbf1)" d="M 458.29043 274.780763 
L 458.29043 274.770945 
" style="fill:none;stroke:#1f77b4;stroke-width:1.5;"/>
    <path clip-path="url(#p8cc0a1dbf1)" d="M 452.423908 237.293669 
L 452.423908 237.278558 
" style="fill:none;stroke:#1f77b4;stroke-width:1.5;"/>
    <path clip-path="url(#p8cc0a1dbf1)" d="M 446.587626 193.5548 
L 446.587626 193.535701 
" style="fill:none;stroke:#1f77b4;stroke-width:1.5;"/>
    <path clip-path="url(#p8cc0a1dbf1)" d="M 437.939042 175.63042 
L 437.939042 175.615551 
" style="fill:none;stroke:#1f77b4;stroke-width:1.5;"/>
    <path clip-path="url(#p8cc0a1dbf1)" d="M 429.260218 180.256529 
L 429.260218 180.247893 
" style="fill:none;stroke:#1f77b4;stroke-width:1.5;"/>
    <path clip-path="url(#p8cc0a1dbf1)" d="M 420.581394 157.271053 
L 420.581394 157.265007 
" style="fill:none;stroke:#1f77b4;stroke-width:1.5;"/>
    <path clip-path="url(#p8cc0a1dbf1)" d="M 411.90257 144.308421 
L 411.90257 144.303784 
" style="fill:none;stroke:#1f77b4;stroke-width:1.5;"/>
    <path clip-path="url(#p8cc0a1dbf1)" d="M 403.253985 137.573017 
L 403.253985 137.569155 
" style="fill:none;stroke:#1f77b4;stroke-width:1.5;"/>
    <path clip-path="url(#p8cc0a1dbf1)" d="M 420.339475 157.032169 
L 420.339475 157.025978 
" style="fill:none;stroke:#1f77b4;stroke-width:1.5;"/>
    <path clip-path="url(#p8cc0a1dbf1)" d="M 411.90257 147.574909 
L 411.90257 147.570315 
" style="fill:none;stroke:#1f77b4;stroke-width:1.5;"/>
    <path clip-path="url(#p8cc0a1dbf1)" d="M 403.223746 136.11449 
L 403.223746 136.110621 
" style="fill:none;stroke:#1f77b4;stroke-width:1.5;"/>
    <path clip-path="url(#p8cc0a1dbf1)" d="M 394.575161 126.659942 
L 394.575161 126.656473 
" style="fill:none;stroke:#1f77b4;stroke-width:1.5;"/>
   </g>
   <g id="LineCollection_6">
    <path clip-path="url(#p8cc0a1dbf1)" d="M 679.766761 323.453782 
L 679.766761 323.450086 
" style="fill:none;stroke:#1f77b4;stroke-width:1.5;"/>
    <path clip-path="url(#p8cc0a1dbf1)" d="M 666.06813 295.948499 
L 666.06813 295.941238 
" style="fill:none;stroke:#1f77b4;stroke-width:1.5;"/>
    <path clip-path="url(#p8cc0a1dbf1)" d="M 651.704222 264.219868 
L 651.704222 264.204124 
" style="fill:none;stroke:#1f77b4;stroke-width:1.5;"/>
    <path clip-path="url(#p8cc0a1dbf1)" d="M 637.219356 246.670635 
L 637.219356 246.638313 
" style="fill:none;stroke:#1f77b4;stroke-width:1.5;"/>
    <path clip-path="url(#p8cc0a1dbf1)" d="M 622.55305 218.489625 
L 622.55305 218.428503 
" style="fill:none;stroke:#1f77b4;stroke-width:1.5;"/>
    <path clip-path="url(#p8cc0a1dbf1)" d="M 608.007704 225.699084 
L 608.007704 225.622394 
" style="fill:none;stroke:#1f77b4;stroke-width:1.5;"/>
    <path clip-path="url(#p8cc0a1dbf1)" d="M 593.432118 209.002094 
L 593.432118 208.918593 
" style="fill:none;stroke:#1f77b4;stroke-width:1.5;"/>
    <path clip-path="url(#p8cc0a1dbf1)" d="M 578.796053 185.362728 
L 578.796053 185.285236 
" style="fill:none;stroke:#1f77b4;stroke-width:1.5;"/>
    <path clip-path="url(#p8cc0a1dbf1)" d="M 564.250707 226.356914 
L 564.250707 226.312262 
" style="fill:none;stroke:#1f77b4;stroke-width:1.5;"/>
    <path clip-path="url(#p8cc0a1dbf1)" d="M 549.886799 258.31644 
L 549.886799 258.294678 
" style="fill:none;stroke:#1f77b4;stroke-width:1.5;"/>
    <path clip-path="url(#p8cc0a1dbf1)" d="M 535.401933 297.737318 
L 535.401933 297.728052 
" style="fill:none;stroke:#1f77b4;stroke-width:1.5;"/>
    <path clip-path="url(#p8cc0a1dbf1)" d="M 520.917066 329.083894 
L 520.917066 329.079811 
" style="fill:none;stroke:#1f77b4;stroke-width:1.5;"/>
    <path clip-path="url(#p8cc0a1dbf1)" d="M 506.643878 354.00981 
L 506.643878 354.007787 
" style="fill:none;stroke:#1f77b4;stroke-width:1.5;"/>
    <path clip-path="url(#p8cc0a1dbf1)" d="M 491.796134 362.26043 
L 491.796134 362.258893 
" style="fill:none;stroke:#1f77b4;stroke-width:1.5;"/>
    <path clip-path="url(#p8cc0a1dbf1)" d="M 477.311268 342.760861 
L 477.311268 342.758306 
" style="fill:none;stroke:#1f77b4;stroke-width:1.5;"/>
    <path clip-path="url(#p8cc0a1dbf1)" d="M 462.735682 288.756861 
L 462.735682 288.748781 
" style="fill:none;stroke:#1f77b4;stroke-width:1.5;"/>
    <path clip-path="url(#p8cc0a1dbf1)" d="M 448.069376 196.369046 
L 448.069376 196.348945 
" style="fill:none;stroke:#1f77b4;stroke-width:1.5;"/>
   </g>
   <g id="LineCollection_7">
    <path clip-path="url(#p8cc0a1dbf1)" d="M 287.072655 99.705891 
L 287.072655 99.705891 
" style="fill:none;stroke:#1f77b4;stroke-width:1.5;"/>
    <path clip-path="url(#p8cc0a1dbf1)" d="M 301.285363 100.93921 
L 301.285363 100.93921 
" style="fill:none;stroke:#1f77b4;stroke-width:1.5;"/>
    <path clip-path="url(#p8cc0a1dbf1)" d="M 315.67951 100.384304 
L 315.67951 100.384304 
" style="fill:none;stroke:#1f77b4;stroke-width:1.5;"/>
    <path clip-path="url(#p8cc0a1dbf1)" d="M 330.285336 104.284307 
L 330.285336 104.284307 
" style="fill:none;stroke:#1f77b4;stroke-width:1.5;"/>
    <path clip-path="url(#p8cc0a1dbf1)" d="M 344.800442 107.598093 
L 344.800442 107.598093 
" style="fill:none;stroke:#1f77b4;stroke-width:1.5;"/>
    <path clip-path="url(#p8cc0a1dbf1)" d="M 359.315549 112.590515 
L 359.315549 112.590515 
" style="fill:none;stroke:#1f77b4;stroke-width:1.5;"/>
    <path clip-path="url(#p8cc0a1dbf1)" d="M 373.860895 117.825601 
L 373.860895 117.825601 
" style="fill:none;stroke:#1f77b4;stroke-width:1.5;"/>
    <path clip-path="url(#p8cc0a1dbf1)" d="M 388.345761 132.695018 
L 388.345761 132.695018 
" style="fill:none;stroke:#1f77b4;stroke-width:1.5;"/>
    <path clip-path="url(#p8cc0a1dbf1)" d="M 402.739909 147.324381 
L 402.739909 147.324381 
" style="fill:none;stroke:#1f77b4;stroke-width:1.5;"/>
   </g>
   <g id="line2d_16">
    <defs>
     <path d="M -3 3 
L 3 -3 
M -3 -3 
L 3 3 
" id="mdaed6e0c65" style="stroke:#1f77b4;"/>
    </defs>
    <g clip-path="url(#p8cc0a1dbf1)">
     <use style="fill:#1f77b4;stroke:#1f77b4;" x="71.039489" xlink:href="#mdaed6e0c65" y="55.578617"/>
     <use style="fill:#1f77b4;stroke:#1f77b4;" x="98.618191" xlink:href="#mdaed6e0c65" y="64.957239"/>
     <use style="fill:#1f77b4;stroke:#1f77b4;" x="127.406485" xlink:href="#mdaed6e0c65" y="62.63585"/>
     <use style="fill:#1f77b4;stroke:#1f77b4;" x="156.1343" xlink:href="#mdaed6e0c65" y="72.96251"/>
     <use style="fill:#1f77b4;stroke:#1f77b4;" x="184.983074" xlink:href="#mdaed6e0c65" y="80.225006"/>
     <use style="fill:#1f77b4;stroke:#1f77b4;" x="213.892327" xlink:href="#mdaed6e0c65" y="83.602284"/>
    </g>
   </g>
   <g id="line2d_17">
    <g clip-path="url(#p8cc0a1dbf1)">
     <use style="fill:#1f77b4;stroke:#1f77b4;" x="185.769308" xlink:href="#mdaed6e0c65" y="86.648184"/>
     <use style="fill:#1f77b4;stroke:#1f77b4;" x="214.436643" xlink:href="#mdaed6e0c65" y="86.225481"/>
     <use style="fill:#1f77b4;stroke:#1f77b4;" x="243.406377" xlink:href="#mdaed6e0c65" y="93.354033"/>
     <use style="fill:#1f77b4;stroke:#1f77b4;" x="272.34587" xlink:href="#mdaed6e0c65" y="96.245116"/>
     <use style="fill:#1f77b4;stroke:#1f77b4;" x="301.345843" xlink:href="#mdaed6e0c65" y="103.835511"/>
     <use style="fill:#1f77b4;stroke:#1f77b4;" x="330.285336" xlink:href="#mdaed6e0c65" y="102.782232"/>
     <use style="fill:#1f77b4;stroke:#1f77b4;" x="359.315549" xlink:href="#mdaed6e0c65" y="113.641185"/>
    </g>
   </g>
   <g id="line2d_18">
    <g clip-path="url(#p8cc0a1dbf1)">
     <use style="fill:#1f77b4;stroke:#1f77b4;" x="272.406349" xlink:href="#mdaed6e0c65" y="93.450577"/>
     <use style="fill:#1f77b4;stroke:#1f77b4;" x="300.620087" xlink:href="#mdaed6e0c65" y="99.790257"/>
    </g>
   </g>
   <g id="line2d_19">
    <g clip-path="url(#p8cc0a1dbf1)">
     <use style="fill:#1f77b4;stroke:#1f77b4;" x="432.102759" xlink:href="#mdaed6e0c65" y="173.692895"/>
     <use style="fill:#1f77b4;stroke:#1f77b4;" x="417.648132" xlink:href="#mdaed6e0c65" y="161.133561"/>
     <use style="fill:#1f77b4;stroke:#1f77b4;" x="403.163266" xlink:href="#mdaed6e0c65" y="141.650067"/>
     <use style="fill:#1f77b4;stroke:#1f77b4;" x="388.738879" xlink:href="#mdaed6e0c65" y="127.092024"/>
     <use style="fill:#1f77b4;stroke:#1f77b4;" x="374.344732" xlink:href="#mdaed6e0c65" y="114.631842"/>
     <use style="fill:#1f77b4;stroke:#1f77b4;" x="359.738906" xlink:href="#mdaed6e0c65" y="108.375658"/>
     <use style="fill:#1f77b4;stroke:#1f77b4;" x="345.2238" xlink:href="#mdaed6e0c65" y="102.843115"/>
     <use style="fill:#1f77b4;stroke:#1f77b4;" x="330.678454" xlink:href="#mdaed6e0c65" y="99.546725"/>
     <use style="fill:#1f77b4;stroke:#1f77b4;" x="316.042388" xlink:href="#mdaed6e0c65" y="98.182071"/>
     <use style="fill:#1f77b4;stroke:#1f77b4;" x="301.648241" xlink:href="#mdaed6e0c65" y="94.182915"/>
    </g>
   </g>
   <g id="line2d_20">
    <g clip-path="url(#p8cc0a1dbf1)">
     <use style="fill:#1f77b4;stroke:#1f77b4;" x="504.76901" xlink:href="#mdaed6e0c65" y="360.877112"/>
     <use style="fill:#1f77b4;stroke:#1f77b4;" x="493.187165" xlink:href="#mdaed6e0c65" y="363.119064"/>
     <use style="fill:#1f77b4;stroke:#1f77b4;" x="484.478101" xlink:href="#mdaed6e0c65" y="359.347485"/>
     <use style="fill:#1f77b4;stroke:#1f77b4;" x="475.769037" xlink:href="#mdaed6e0c65" y="342.680017"/>
     <use style="fill:#1f77b4;stroke:#1f77b4;" x="469.932755" xlink:href="#mdaed6e0c65" y="323.885551"/>
     <use style="fill:#1f77b4;stroke:#1f77b4;" x="464.126713" xlink:href="#mdaed6e0c65" y="299.493982"/>
     <use style="fill:#1f77b4;stroke:#1f77b4;" x="458.29043" xlink:href="#mdaed6e0c65" y="274.775854"/>
     <use style="fill:#1f77b4;stroke:#1f77b4;" x="452.423908" xlink:href="#mdaed6e0c65" y="237.286114"/>
     <use style="fill:#1f77b4;stroke:#1f77b4;" x="446.587626" xlink:href="#mdaed6e0c65" y="193.545251"/>
     <use style="fill:#1f77b4;stroke:#1f77b4;" x="437.939042" xlink:href="#mdaed6e0c65" y="175.622986"/>
     <use style="fill:#1f77b4;stroke:#1f77b4;" x="429.260218" xlink:href="#mdaed6e0c65" y="180.252211"/>
     <use style="fill:#1f77b4;stroke:#1f77b4;" x="420.581394" xlink:href="#mdaed6e0c65" y="157.26803"/>
     <use style="fill:#1f77b4;stroke:#1f77b4;" x="411.90257" xlink:href="#mdaed6e0c65" y="144.306102"/>
     <use style="fill:#1f77b4;stroke:#1f77b4;" x="403.253985" xlink:href="#mdaed6e0c65" y="137.571086"/>
     <use style="fill:#1f77b4;stroke:#1f77b4;" x="420.339475" xlink:href="#mdaed6e0c65" y="157.029074"/>
     <use style="fill:#1f77b4;stroke:#1f77b4;" x="411.90257" xlink:href="#mdaed6e0c65" y="147.572612"/>
     <use style="fill:#1f77b4;stroke:#1f77b4;" x="403.223746" xlink:href="#mdaed6e0c65" y="136.112555"/>
     <use style="fill:#1f77b4;stroke:#1f77b4;" x="394.575161" xlink:href="#mdaed6e0c65" y="126.658207"/>
    </g>
   </g>
   <g id="line2d_21">
    <g clip-path="url(#p8cc0a1dbf1)">
     <use style="fill:#1f77b4;stroke:#1f77b4;" x="679.766761" xlink:href="#mdaed6e0c65" y="323.451934"/>
     <use style="fill:#1f77b4;stroke:#1f77b4;" x="666.06813" xlink:href="#mdaed6e0c65" y="295.944868"/>
     <use style="fill:#1f77b4;stroke:#1f77b4;" x="651.704222" xlink:href="#mdaed6e0c65" y="264.211996"/>
     <use style="fill:#1f77b4;stroke:#1f77b4;" x="637.219356" xlink:href="#mdaed6e0c65" y="246.654474"/>
     <use style="fill:#1f77b4;stroke:#1f77b4;" x="622.55305" xlink:href="#mdaed6e0c65" y="218.459064"/>
     <use style="fill:#1f77b4;stroke:#1f77b4;" x="608.007704" xlink:href="#mdaed6e0c65" y="225.660739"/>
     <use style="fill:#1f77b4;stroke:#1f77b4;" x="593.432118" xlink:href="#mdaed6e0c65" y="208.960344"/>
     <use style="fill:#1f77b4;stroke:#1f77b4;" x="578.796053" xlink:href="#mdaed6e0c65" y="185.323982"/>
     <use style="fill:#1f77b4;stroke:#1f77b4;" x="564.250707" xlink:href="#mdaed6e0c65" y="226.334588"/>
     <use style="fill:#1f77b4;stroke:#1f77b4;" x="549.886799" xlink:href="#mdaed6e0c65" y="258.305559"/>
     <use style="fill:#1f77b4;stroke:#1f77b4;" x="535.401933" xlink:href="#mdaed6e0c65" y="297.732685"/>
     <use style="fill:#1f77b4;stroke:#1f77b4;" x="520.917066" xlink:href="#mdaed6e0c65" y="329.081852"/>
     <use style="fill:#1f77b4;stroke:#1f77b4;" x="506.643878" xlink:href="#mdaed6e0c65" y="354.008799"/>
     <use style="fill:#1f77b4;stroke:#1f77b4;" x="491.796134" xlink:href="#mdaed6e0c65" y="362.259662"/>
     <use style="fill:#1f77b4;stroke:#1f77b4;" x="477.311268" xlink:href="#mdaed6e0c65" y="342.759583"/>
     <use style="fill:#1f77b4;stroke:#1f77b4;" x="462.735682" xlink:href="#mdaed6e0c65" y="288.752821"/>
     <use style="fill:#1f77b4;stroke:#1f77b4;" x="448.069376" xlink:href="#mdaed6e0c65" y="196.358996"/>
    </g>
   </g>
   <g id="line2d_22">
    <g clip-path="url(#p8cc0a1dbf1)">
     <use style="fill:#1f77b4;stroke:#1f77b4;" x="287.072655" xlink:href="#mdaed6e0c65" y="99.705891"/>
     <use style="fill:#1f77b4;stroke:#1f77b4;" x="301.285363" xlink:href="#mdaed6e0c65" y="100.93921"/>
     <use style="fill:#1f77b4;stroke:#1f77b4;" x="315.67951" xlink:href="#mdaed6e0c65" y="100.384304"/>
     <use style="fill:#1f77b4;stroke:#1f77b4;" x="330.285336" xlink:href="#mdaed6e0c65" y="104.284307"/>
     <use style="fill:#1f77b4;stroke:#1f77b4;" x="344.800442" xlink:href="#mdaed6e0c65" y="107.598093"/>
     <use style="fill:#1f77b4;stroke:#1f77b4;" x="359.315549" xlink:href="#mdaed6e0c65" y="112.590515"/>
     <use style="fill:#1f77b4;stroke:#1f77b4;" x="373.860895" xlink:href="#mdaed6e0c65" y="117.825601"/>
     <use style="fill:#1f77b4;stroke:#1f77b4;" x="388.345761" xlink:href="#mdaed6e0c65" y="132.695018"/>
     <use style="fill:#1f77b4;stroke:#1f77b4;" x="402.739909" xlink:href="#mdaed6e0c65" y="147.324381"/>
    </g>
   </g>
   <g id="patch_3">
    <path d="M 40.603125 457.198125 
L 40.603125 22.318125 
" style="fill:none;stroke:#000000;stroke-linecap:square;stroke-linejoin:miter;stroke-width:0.8;"/>
   </g>
   <g id="patch_4">
    <path d="M 710.203125 457.198125 
L 710.203125 22.318125 
" style="fill:none;stroke:#000000;stroke-linecap:square;stroke-linejoin:miter;stroke-width:0.8;"/>
   </g>
   <g id="patch_5">
    <path d="M 40.603125 457.198125 
L 710.203125 457.198125 
" style="fill:none;stroke:#000000;stroke-linecap:square;stroke-linejoin:miter;stroke-width:0.8;"/>
   </g>
   <g id="patch_6">
    <path d="M 40.603125 22.318125 
L 710.203125 22.318125 
" style="fill:none;stroke:#000000;stroke-linecap:square;stroke-linejoin:miter;stroke-width:0.8;"/>
   </g>
   <g id="text_18">
    <!-- CRN FWHM Vergleich Simulation -->
    <defs>
     <path d="M 64.40625 67.28125 
L 64.40625 56.890625 
Q 59.421875 61.53125 53.78125 63.8125 
Q 48.140625 66.109375 41.796875 66.109375 
Q 29.296875 66.109375 22.65625 58.46875 
Q 16.015625 50.828125 16.015625 36.375 
Q 16.015625 21.96875 22.65625 14.328125 
Q 29.296875 6.6875 41.796875 6.6875 
Q 48.140625 6.6875 53.78125 8.984375 
Q 59.421875 11.28125 64.40625 15.921875 
L 64.40625 5.609375 
Q 59.234375 2.09375 53.4375 0.328125 
Q 47.65625 -1.421875 41.21875 -1.421875 
Q 24.65625 -1.421875 15.125 8.703125 
Q 5.609375 18.84375 5.609375 36.375 
Q 5.609375 53.953125 15.125 64.078125 
Q 24.65625 74.21875 41.21875 74.21875 
Q 47.75 74.21875 53.53125 72.484375 
Q 59.328125 70.75 64.40625 67.28125 
z
" id="DejaVuSans-43"/>
     <path d="M 44.390625 34.1875 
Q 47.5625 33.109375 50.5625 29.59375 
Q 53.5625 26.078125 56.59375 19.921875 
L 66.609375 0 
L 56 0 
L 46.6875 18.703125 
Q 43.0625 26.03125 39.671875 28.421875 
Q 36.28125 30.8125 30.421875 30.8125 
L 19.671875 30.8125 
L 19.671875 0 
L 9.8125 0 
L 9.8125 72.90625 
L 32.078125 72.90625 
Q 44.578125 72.90625 50.734375 67.671875 
Q 56.890625 62.453125 56.890625 51.90625 
Q 56.890625 45.015625 53.6875 40.46875 
Q 50.484375 35.9375 44.390625 34.1875 
z
M 19.671875 64.796875 
L 19.671875 38.921875 
L 32.078125 38.921875 
Q 39.203125 38.921875 42.84375 42.21875 
Q 46.484375 45.515625 46.484375 51.90625 
Q 46.484375 58.296875 42.84375 61.546875 
Q 39.203125 64.796875 32.078125 64.796875 
z
" id="DejaVuSans-52"/>
     <path d="M 9.8125 72.90625 
L 23.09375 72.90625 
L 55.421875 11.921875 
L 55.421875 72.90625 
L 64.984375 72.90625 
L 64.984375 0 
L 51.703125 0 
L 19.390625 60.984375 
L 19.390625 0 
L 9.8125 0 
z
" id="DejaVuSans-4e"/>
     <path d="M 28.609375 0 
L 0.78125 72.90625 
L 11.078125 72.90625 
L 34.1875 11.53125 
L 57.328125 72.90625 
L 67.578125 72.90625 
L 39.796875 0 
z
" id="DejaVuSans-56"/>
     <path d="M 45.40625 27.984375 
Q 45.40625 37.75 41.375 43.109375 
Q 37.359375 48.484375 30.078125 48.484375 
Q 22.859375 48.484375 18.828125 43.109375 
Q 14.796875 37.75 14.796875 27.984375 
Q 14.796875 18.265625 18.828125 12.890625 
Q 22.859375 7.515625 30.078125 7.515625 
Q 37.359375 7.515625 41.375 12.890625 
Q 45.40625 18.265625 45.40625 27.984375 
z
M 54.390625 6.78125 
Q 54.390625 -7.171875 48.1875 -13.984375 
Q 42 -20.796875 29.203125 -20.796875 
Q 24.46875 -20.796875 20.265625 -20.09375 
Q 16.0625 -19.390625 12.109375 -17.921875 
L 12.109375 -9.1875 
Q 16.0625 -11.328125 19.921875 -12.34375 
Q 23.78125 -13.375 27.78125 -13.375 
Q 36.625 -13.375 41.015625 -8.765625 
Q 45.40625 -4.15625 45.40625 5.171875 
L 45.40625 9.625 
Q 42.625 4.78125 38.28125 2.390625 
Q 33.9375 0 27.875 0 
Q 17.828125 0 11.671875 7.65625 
Q 5.515625 15.328125 5.515625 27.984375 
Q 5.515625 40.671875 11.671875 48.328125 
Q 17.828125 56 27.875 56 
Q 33.9375 56 38.28125 53.609375 
Q 42.625 51.21875 45.40625 46.390625 
L 45.40625 54.6875 
L 54.390625 54.6875 
z
" id="DejaVuSans-67"/>
     <path d="M 9.421875 75.984375 
L 18.40625 75.984375 
L 18.40625 0 
L 9.421875 0 
z
" id="DejaVuSans-6c"/>
     <path d="M 9.421875 54.6875 
L 18.40625 54.6875 
L 18.40625 0 
L 9.421875 0 
z
M 9.421875 75.984375 
L 18.40625 75.984375 
L 18.40625 64.59375 
L 9.421875 64.59375 
z
" id="DejaVuSans-69"/>
     <path d="M 48.78125 52.59375 
L 48.78125 44.1875 
Q 44.96875 46.296875 41.140625 47.34375 
Q 37.3125 48.390625 33.40625 48.390625 
Q 24.65625 48.390625 19.8125 42.84375 
Q 14.984375 37.3125 14.984375 27.296875 
Q 14.984375 17.28125 19.8125 11.734375 
Q 24.65625 6.203125 33.40625 6.203125 
Q 37.3125 6.203125 41.140625 7.25 
Q 44.96875 8.296875 48.78125 10.40625 
L 48.78125 2.09375 
Q 45.015625 0.34375 40.984375 -0.53125 
Q 36.96875 -1.421875 32.421875 -1.421875 
Q 20.0625 -1.421875 12.78125 6.34375 
Q 5.515625 14.109375 5.515625 27.296875 
Q 5.515625 40.671875 12.859375 48.328125 
Q 20.21875 56 33.015625 56 
Q 37.15625 56 41.109375 55.140625 
Q 45.0625 54.296875 48.78125 52.59375 
z
" id="DejaVuSans-63"/>
     <path d="M 54.890625 33.015625 
L 54.890625 0 
L 45.90625 0 
L 45.90625 32.71875 
Q 45.90625 40.484375 42.875 44.328125 
Q 39.84375 48.1875 33.796875 48.1875 
Q 26.515625 48.1875 22.3125 43.546875 
Q 18.109375 38.921875 18.109375 30.90625 
L 18.109375 0 
L 9.078125 0 
L 9.078125 75.984375 
L 18.109375 75.984375 
L 18.109375 46.1875 
Q 21.34375 51.125 25.703125 53.5625 
Q 30.078125 56 35.796875 56 
Q 45.21875 56 50.046875 50.171875 
Q 54.890625 44.34375 54.890625 33.015625 
z
" id="DejaVuSans-68"/>
     <path d="M 53.515625 70.515625 
L 53.515625 60.890625 
Q 47.90625 63.578125 42.921875 64.890625 
Q 37.9375 66.21875 33.296875 66.21875 
Q 25.25 66.21875 20.875 63.09375 
Q 16.5 59.96875 16.5 54.203125 
Q 16.5 49.359375 19.40625 46.890625 
Q 22.3125 44.4375 30.421875 42.921875 
L 36.375 41.703125 
Q 47.40625 39.59375 52.65625 34.296875 
Q 57.90625 29 57.90625 20.125 
Q 57.90625 9.515625 50.796875 4.046875 
Q 43.703125 -1.421875 29.984375 -1.421875 
Q 24.8125 -1.421875 18.96875 -0.25 
Q 13.140625 0.921875 6.890625 3.21875 
L 6.890625 13.375 
Q 12.890625 10.015625 18.65625 8.296875 
Q 24.421875 6.59375 29.984375 6.59375 
Q 38.421875 6.59375 43.015625 9.90625 
Q 47.609375 13.234375 47.609375 19.390625 
Q 47.609375 24.75 44.3125 27.78125 
Q 41.015625 30.8125 33.5 32.328125 
L 27.484375 33.5 
Q 16.453125 35.6875 11.515625 40.375 
Q 6.59375 45.0625 6.59375 53.421875 
Q 6.59375 63.09375 13.40625 68.65625 
Q 20.21875 74.21875 32.171875 74.21875 
Q 37.3125 74.21875 42.625 73.28125 
Q 47.953125 72.359375 53.515625 70.515625 
z
" id="DejaVuSans-53"/>
     <path d="M 30.609375 48.390625 
Q 23.390625 48.390625 19.1875 42.75 
Q 14.984375 37.109375 14.984375 27.296875 
Q 14.984375 17.484375 19.15625 11.84375 
Q 23.34375 6.203125 30.609375 6.203125 
Q 37.796875 6.203125 41.984375 11.859375 
Q 46.1875 17.53125 46.1875 27.296875 
Q 46.1875 37.015625 41.984375 42.703125 
Q 37.796875 48.390625 30.609375 48.390625 
z
M 30.609375 56 
Q 42.328125 56 49.015625 48.375 
Q 55.71875 40.765625 55.71875 27.296875 
Q 55.71875 13.875 49.015625 6.21875 
Q 42.328125 -1.421875 30.609375 -1.421875 
Q 18.84375 -1.421875 12.171875 6.21875 
Q 5.515625 13.875 5.515625 27.296875 
Q 5.515625 40.765625 12.171875 48.375 
Q 18.84375 56 30.609375 56 
z
" id="DejaVuSans-6f"/>
     <path d="M 54.890625 33.015625 
L 54.890625 0 
L 45.90625 0 
L 45.90625 32.71875 
Q 45.90625 40.484375 42.875 44.328125 
Q 39.84375 48.1875 33.796875 48.1875 
Q 26.515625 48.1875 22.3125 43.546875 
Q 18.109375 38.921875 18.109375 30.90625 
L 18.109375 0 
L 9.078125 0 
L 9.078125 54.6875 
L 18.109375 54.6875 
L 18.109375 46.1875 
Q 21.34375 51.125 25.703125 53.5625 
Q 30.078125 56 35.796875 56 
Q 45.21875 56 50.046875 50.171875 
Q 54.890625 44.34375 54.890625 33.015625 
z
" id="DejaVuSans-6e"/>
    </defs>
    <g transform="translate(277.611563 16.318125)scale(0.12 -0.12)">
     <use xlink:href="#DejaVuSans-43"/>
     <use x="69.824219" xlink:href="#DejaVuSans-52"/>
     <use x="139.306641" xlink:href="#DejaVuSans-4e"/>
     <use x="214.111328" xlink:href="#DejaVuSans-20"/>
     <use x="245.898438" xlink:href="#DejaVuSans-46"/>
     <use x="303.417969" xlink:href="#DejaVuSans-57"/>
     <use x="402.294922" xlink:href="#DejaVuSans-48"/>
     <use x="477.490234" xlink:href="#DejaVuSans-4d"/>
     <use x="563.769531" xlink:href="#DejaVuSans-20"/>
     <use x="595.556641" xlink:href="#DejaVuSans-56"/>
     <use x="663.855469" xlink:href="#DejaVuSans-65"/>
     <use x="725.378906" xlink:href="#DejaVuSans-72"/>
     <use x="766.476562" xlink:href="#DejaVuSans-67"/>
     <use x="829.953125" xlink:href="#DejaVuSans-6c"/>
     <use x="857.736328" xlink:href="#DejaVuSans-65"/>
     <use x="919.259766" xlink:href="#DejaVuSans-69"/>
     <use x="947.042969" xlink:href="#DejaVuSans-63"/>
     <use x="1002.023438" xlink:href="#DejaVuSans-68"/>
     <use x="1065.402344" xlink:href="#DejaVuSans-20"/>
     <use x="1097.189453" xlink:href="#DejaVuSans-53"/>
     <use x="1160.666016" xlink:href="#DejaVuSans-69"/>
     <use x="1188.449219" xlink:href="#DejaVuSans-6d"/>
     <use x="1285.861328" xlink:href="#DejaVuSans-75"/>
     <use x="1349.240234" xlink:href="#DejaVuSans-6c"/>
     <use x="1377.023438" xlink:href="#DejaVuSans-61"/>
     <use x="1438.302734" xlink:href="#DejaVuSans-74"/>
     <use x="1477.511719" xlink:href="#DejaVuSans-69"/>
     <use x="1505.294922" xlink:href="#DejaVuSans-6f"/>
     <use x="1566.476562" xlink:href="#DejaVuSans-6e"/>
    </g>
   </g>
  </g>
 </g>
 <defs>
  <clipPath id="p8cc0a1dbf1">
   <rect height="434.88" width="669.6" x="40.603125" y="22.318125"/>
  </clipPath>
 </defs>
</svg>
