<?xml version="1.0" encoding="utf-8" standalone="no"?>
<!DOCTYPE svg PUBLIC "-//W3C//DTD SVG 1.1//EN"
  "http://www.w3.org/Graphics/SVG/1.1/DTD/svg11.dtd">
<!-- Created with matplotlib (http://matplotlib.org/) -->
<svg height="262.495469pt" version="1.1" viewBox="0 0 381.103125 262.495469" width="381.103125pt" xmlns="http://www.w3.org/2000/svg" xmlns:xlink="http://www.w3.org/1999/xlink">
 <defs>
  <style type="text/css">
*{stroke-linecap:butt;stroke-linejoin:round;}
  </style>
 </defs>
 <g id="figure_1">
  <g id="patch_1">
   <path d="M 0 262.495469 
L 381.103125 262.495469 
L 381.103125 0 
L 0 0 
z
" style="fill:#ffffff;"/>
  </g>
  <g id="axes_1">
   <g id="patch_2">
    <path d="M 37.103125 228.439219 
L 371.903125 228.439219 
L 371.903125 10.999219 
L 37.103125 10.999219 
z
" style="fill:#ffffff;"/>
   </g>
   <g id="PathCollection_1">
    <defs>
     <path d="M 0 3 
C 0.795609 3 1.55874 2.683901 2.12132 2.12132 
C 2.683901 1.55874 3 0.795609 3 0 
C 3 -0.795609 2.683901 -1.55874 2.12132 -2.12132 
C 1.55874 -2.683901 0.795609 -3 0 -3 
C -0.795609 -3 -1.55874 -2.683901 -2.12132 -2.12132 
C -2.683901 -1.55874 -3 -0.795609 -3 0 
C -3 0.795609 -2.683901 1.55874 -2.12132 2.12132 
C -1.55874 2.683901 -0.795609 3 0 3 
z
" id="m5a95ed58d3" style="stroke:#1f77b4;"/>
    </defs>
    <g clip-path="url(#p560ba96261)">
     <use style="fill:#1f77b4;stroke:#1f77b4;" x="-1" xlink:href="#m5a95ed58d3" y="47.914495"/>
     <use style="fill:#1f77b4;stroke:#1f77b4;" x="20.713868" xlink:href="#m5a95ed58d3" y="47.573813"/>
     <use style="fill:#1f77b4;stroke:#1f77b4;" x="51.324154" xlink:href="#m5a95ed58d3" y="52.509701"/>
     <use style="fill:#1f77b4;stroke:#1f77b4;" x="-1" xlink:href="#m5a95ed58d3" y="47.269523"/>
     <use style="fill:#1f77b4;stroke:#1f77b4;" x="-1" xlink:href="#m5a95ed58d3" y="48.531661"/>
     <use style="fill:#1f77b4;stroke:#1f77b4;" x="128.073068" xlink:href="#m5a95ed58d3" y="79.805932"/>
     <use style="fill:#1f77b4;stroke:#1f77b4;" x="112.831696" xlink:href="#m5a95ed58d3" y="74.097144"/>
     <use style="fill:#1f77b4;stroke:#1f77b4;" x="97.558439" xlink:href="#m5a95ed58d3" y="65.24101"/>
     <use style="fill:#1f77b4;stroke:#1f77b4;" x="82.348954" xlink:href="#m5a95ed58d3" y="58.623718"/>
     <use style="fill:#1f77b4;stroke:#1f77b4;" x="67.171354" xlink:href="#m5a95ed58d3" y="52.959999"/>
     <use style="fill:#1f77b4;stroke:#1f77b4;" x="51.770554" xlink:href="#m5a95ed58d3" y="50.116279"/>
     <use style="fill:#1f77b4;stroke:#1f77b4;" x="36.465411" xlink:href="#m5a95ed58d3" y="47.601487"/>
     <use style="fill:#1f77b4;stroke:#1f77b4;" x="21.128382" xlink:href="#m5a95ed58d3" y="46.103128"/>
     <use style="fill:#1f77b4;stroke:#1f77b4;" x="5.695696" xlink:href="#m5a95ed58d3" y="45.482831"/>
     <use style="fill:#1f77b4;stroke:#1f77b4;" x="-1" xlink:href="#m5a95ed58d3" y="44.680897"/>
     <use style="fill:#1f77b4;stroke:#1f77b4;" x="-1" xlink:href="#m5a95ed58d3" y="48.465822"/>
     <use style="fill:#1f77b4;stroke:#1f77b4;" x="204.694439" xlink:href="#m5a95ed58d3" y="164.889667"/>
     <use style="fill:#1f77b4;stroke:#1f77b4;" x="192.482211" xlink:href="#m5a95ed58d3" y="165.908736"/>
     <use style="fill:#1f77b4;stroke:#1f77b4;" x="183.299125" xlink:href="#m5a95ed58d3" y="164.194382"/>
     <use style="fill:#1f77b4;stroke:#1f77b4;" x="174.116039" xlink:href="#m5a95ed58d3" y="156.618261"/>
     <use style="fill:#1f77b4;stroke:#1f77b4;" x="167.962096" xlink:href="#m5a95ed58d3" y="148.075321"/>
     <use style="fill:#1f77b4;stroke:#1f77b4;" x="161.840039" xlink:href="#m5a95ed58d3" y="136.988245"/>
     <use style="fill:#1f77b4;stroke:#1f77b4;" x="155.686096" xlink:href="#m5a95ed58d3" y="125.752732"/>
     <use style="fill:#1f77b4;stroke:#1f77b4;" x="149.500268" xlink:href="#m5a95ed58d3" y="108.711941"/>
     <use style="fill:#1f77b4;stroke:#1f77b4;" x="143.346325" xlink:href="#m5a95ed58d3" y="88.829731"/>
     <use style="fill:#1f77b4;stroke:#1f77b4;" x="134.227011" xlink:href="#m5a95ed58d3" y="80.683246"/>
     <use style="fill:#1f77b4;stroke:#1f77b4;" x="125.075811" xlink:href="#m5a95ed58d3" y="82.78744"/>
     <use style="fill:#1f77b4;stroke:#1f77b4;" x="115.924611" xlink:href="#m5a95ed58d3" y="72.340085"/>
     <use style="fill:#1f77b4;stroke:#1f77b4;" x="106.773411" xlink:href="#m5a95ed58d3" y="66.448299"/>
     <use style="fill:#1f77b4;stroke:#1f77b4;" x="97.654096" xlink:href="#m5a95ed58d3" y="63.386928"/>
     <use style="fill:#1f77b4;stroke:#1f77b4;" x="115.669525" xlink:href="#m5a95ed58d3" y="72.231468"/>
     <use style="fill:#1f77b4;stroke:#1f77b4;" x="106.773411" xlink:href="#m5a95ed58d3" y="67.933076"/>
     <use style="fill:#1f77b4;stroke:#1f77b4;" x="97.622211" xlink:href="#m5a95ed58d3" y="62.72396"/>
     <use style="fill:#1f77b4;stroke:#1f77b4;" x="88.502896" xlink:href="#m5a95ed58d3" y="58.426529"/>
     <use style="fill:#1f77b4;stroke:#1f77b4;" x="389.217068" xlink:href="#m5a95ed58d3" y="147.878223"/>
     <use style="fill:#1f77b4;stroke:#1f77b4;" x="374.772839" xlink:href="#m5a95ed58d3" y="135.375011"/>
     <use style="fill:#1f77b4;stroke:#1f77b4;" x="359.627125" xlink:href="#m5a95ed58d3" y="120.950978"/>
     <use style="fill:#1f77b4;stroke:#1f77b4;" x="344.353868" xlink:href="#m5a95ed58d3" y="112.970287"/>
     <use style="fill:#1f77b4;stroke:#1f77b4;" x="328.889296" xlink:href="#m5a95ed58d3" y="100.154191"/>
     <use style="fill:#1f77b4;stroke:#1f77b4;" x="313.552268" xlink:href="#m5a95ed58d3" y="103.42768"/>
     <use style="fill:#1f77b4;stroke:#1f77b4;" x="298.183354" xlink:href="#m5a95ed58d3" y="95.836591"/>
     <use style="fill:#1f77b4;stroke:#1f77b4;" x="282.750668" xlink:href="#m5a95ed58d3" y="85.09279"/>
     <use style="fill:#1f77b4;stroke:#1f77b4;" x="267.413639" xlink:href="#m5a95ed58d3" y="103.733975"/>
     <use style="fill:#1f77b4;stroke:#1f77b4;" x="252.267925" xlink:href="#m5a95ed58d3" y="118.266234"/>
     <use style="fill:#1f77b4;stroke:#1f77b4;" x="236.994668" xlink:href="#m5a95ed58d3" y="136.187655"/>
     <use style="fill:#1f77b4;stroke:#1f77b4;" x="221.721411" xlink:href="#m5a95ed58d3" y="150.437277"/>
     <use style="fill:#1f77b4;stroke:#1f77b4;" x="206.671354" xlink:href="#m5a95ed58d3" y="161.767707"/>
     <use style="fill:#1f77b4;stroke:#1f77b4;" x="191.015468" xlink:href="#m5a95ed58d3" y="165.518099"/>
     <use style="fill:#1f77b4;stroke:#1f77b4;" x="175.742211" xlink:href="#m5a95ed58d3" y="156.654427"/>
     <use style="fill:#1f77b4;stroke:#1f77b4;" x="160.373296" xlink:href="#m5a95ed58d3" y="132.105899"/>
     <use style="fill:#1f77b4;stroke:#1f77b4;" x="144.908725" xlink:href="#m5a95ed58d3" y="90.108705"/>
     <use style="fill:#1f77b4;stroke:#1f77b4;" x="-1" xlink:href="#m5a95ed58d3" y="52.347992"/>
     <use style="fill:#1f77b4;stroke:#1f77b4;" x="-1" xlink:href="#m5a95ed58d3" y="46.58876"/>
     <use style="fill:#1f77b4;stroke:#1f77b4;" x="5.313068" xlink:href="#m5a95ed58d3" y="46.483845"/>
     <use style="fill:#1f77b4;stroke:#1f77b4;" x="20.713868" xlink:href="#m5a95ed58d3" y="48.256574"/>
     <use style="fill:#1f77b4;stroke:#1f77b4;" x="36.019011" xlink:href="#m5a95ed58d3" y="49.762841"/>
     <use style="fill:#1f77b4;stroke:#1f77b4;" x="51.324154" xlink:href="#m5a95ed58d3" y="52.032123"/>
     <use style="fill:#1f77b4;stroke:#1f77b4;" x="66.661182" xlink:href="#m5a95ed58d3" y="54.411708"/>
     <use style="fill:#1f77b4;stroke:#1f77b4;" x="81.934439" xlink:href="#m5a95ed58d3" y="61.170534"/>
     <use style="fill:#1f77b4;stroke:#1f77b4;" x="97.112039" xlink:href="#m5a95ed58d3" y="67.820244"/>
    </g>
   </g>
   <g id="matplotlib.axis_1">
    <g id="xtick_1">
     <g id="line2d_1">
      <defs>
       <path d="M 0 0 
L 0 -3.5 
" id="m855c9aa32d" style="stroke:#000000;stroke-width:0.8;"/>
      </defs>
      <g>
       <use style="stroke:#000000;stroke-width:0.8;" x="84.931696" xlink:href="#m855c9aa32d" y="228.439219"/>
      </g>
     </g>
     <g id="line2d_2">
      <defs>
       <path d="M 0 0 
L 0 3.5 
" id="m4601279f70" style="stroke:#000000;stroke-width:0.8;"/>
      </defs>
      <g>
       <use style="stroke:#000000;stroke-width:0.8;" x="84.931696" xlink:href="#m4601279f70" y="10.999219"/>
      </g>
     </g>
     <g id="text_1">
      <!-- 340 -->
      <defs>
       <path d="M 40.578125 39.3125 
Q 47.65625 37.796875 51.625 33 
Q 55.609375 28.21875 55.609375 21.1875 
Q 55.609375 10.40625 48.1875 4.484375 
Q 40.765625 -1.421875 27.09375 -1.421875 
Q 22.515625 -1.421875 17.65625 -0.515625 
Q 12.796875 0.390625 7.625 2.203125 
L 7.625 11.71875 
Q 11.71875 9.328125 16.59375 8.109375 
Q 21.484375 6.890625 26.8125 6.890625 
Q 36.078125 6.890625 40.9375 10.546875 
Q 45.796875 14.203125 45.796875 21.1875 
Q 45.796875 27.640625 41.28125 31.265625 
Q 36.765625 34.90625 28.71875 34.90625 
L 20.21875 34.90625 
L 20.21875 43.015625 
L 29.109375 43.015625 
Q 36.375 43.015625 40.234375 45.921875 
Q 44.09375 48.828125 44.09375 54.296875 
Q 44.09375 59.90625 40.109375 62.90625 
Q 36.140625 65.921875 28.71875 65.921875 
Q 24.65625 65.921875 20.015625 65.03125 
Q 15.375 64.15625 9.8125 62.3125 
L 9.8125 71.09375 
Q 15.4375 72.65625 20.34375 73.4375 
Q 25.25 74.21875 29.59375 74.21875 
Q 40.828125 74.21875 47.359375 69.109375 
Q 53.90625 64.015625 53.90625 55.328125 
Q 53.90625 49.265625 50.4375 45.09375 
Q 46.96875 40.921875 40.578125 39.3125 
z
" id="DejaVuSans-33"/>
       <path d="M 37.796875 64.3125 
L 12.890625 25.390625 
L 37.796875 25.390625 
z
M 35.203125 72.90625 
L 47.609375 72.90625 
L 47.609375 25.390625 
L 58.015625 25.390625 
L 58.015625 17.1875 
L 47.609375 17.1875 
L 47.609375 0 
L 37.796875 0 
L 37.796875 17.1875 
L 4.890625 17.1875 
L 4.890625 26.703125 
z
" id="DejaVuSans-34"/>
       <path d="M 31.78125 66.40625 
Q 24.171875 66.40625 20.328125 58.90625 
Q 16.5 51.421875 16.5 36.375 
Q 16.5 21.390625 20.328125 13.890625 
Q 24.171875 6.390625 31.78125 6.390625 
Q 39.453125 6.390625 43.28125 13.890625 
Q 47.125 21.390625 47.125 36.375 
Q 47.125 51.421875 43.28125 58.90625 
Q 39.453125 66.40625 31.78125 66.40625 
z
M 31.78125 74.21875 
Q 44.046875 74.21875 50.515625 64.515625 
Q 56.984375 54.828125 56.984375 36.375 
Q 56.984375 17.96875 50.515625 8.265625 
Q 44.046875 -1.421875 31.78125 -1.421875 
Q 19.53125 -1.421875 13.0625 8.265625 
Q 6.59375 17.96875 6.59375 36.375 
Q 6.59375 54.828125 13.0625 64.515625 
Q 19.53125 74.21875 31.78125 74.21875 
z
" id="DejaVuSans-30"/>
      </defs>
      <g transform="translate(75.387946 239.537656)scale(0.1 -0.1)">
       <use xlink:href="#DejaVuSans-33"/>
       <use x="63.623047" xlink:href="#DejaVuSans-34"/>
       <use x="127.246094" xlink:href="#DejaVuSans-30"/>
      </g>
     </g>
    </g>
    <g id="xtick_2">
     <g id="line2d_3">
      <g>
       <use style="stroke:#000000;stroke-width:0.8;" x="148.703125" xlink:href="#m855c9aa32d" y="228.439219"/>
      </g>
     </g>
     <g id="line2d_4">
      <g>
       <use style="stroke:#000000;stroke-width:0.8;" x="148.703125" xlink:href="#m4601279f70" y="10.999219"/>
      </g>
     </g>
     <g id="text_2">
      <!-- 360 -->
      <defs>
       <path d="M 33.015625 40.375 
Q 26.375 40.375 22.484375 35.828125 
Q 18.609375 31.296875 18.609375 23.390625 
Q 18.609375 15.53125 22.484375 10.953125 
Q 26.375 6.390625 33.015625 6.390625 
Q 39.65625 6.390625 43.53125 10.953125 
Q 47.40625 15.53125 47.40625 23.390625 
Q 47.40625 31.296875 43.53125 35.828125 
Q 39.65625 40.375 33.015625 40.375 
z
M 52.59375 71.296875 
L 52.59375 62.3125 
Q 48.875 64.0625 45.09375 64.984375 
Q 41.3125 65.921875 37.59375 65.921875 
Q 27.828125 65.921875 22.671875 59.328125 
Q 17.53125 52.734375 16.796875 39.40625 
Q 19.671875 43.65625 24.015625 45.921875 
Q 28.375 48.1875 33.59375 48.1875 
Q 44.578125 48.1875 50.953125 41.515625 
Q 57.328125 34.859375 57.328125 23.390625 
Q 57.328125 12.15625 50.6875 5.359375 
Q 44.046875 -1.421875 33.015625 -1.421875 
Q 20.359375 -1.421875 13.671875 8.265625 
Q 6.984375 17.96875 6.984375 36.375 
Q 6.984375 53.65625 15.1875 63.9375 
Q 23.390625 74.21875 37.203125 74.21875 
Q 40.921875 74.21875 44.703125 73.484375 
Q 48.484375 72.75 52.59375 71.296875 
z
" id="DejaVuSans-36"/>
      </defs>
      <g transform="translate(139.159375 239.537656)scale(0.1 -0.1)">
       <use xlink:href="#DejaVuSans-33"/>
       <use x="63.623047" xlink:href="#DejaVuSans-36"/>
       <use x="127.246094" xlink:href="#DejaVuSans-30"/>
      </g>
     </g>
    </g>
    <g id="xtick_3">
     <g id="line2d_5">
      <g>
       <use style="stroke:#000000;stroke-width:0.8;" x="212.474554" xlink:href="#m855c9aa32d" y="228.439219"/>
      </g>
     </g>
     <g id="line2d_6">
      <g>
       <use style="stroke:#000000;stroke-width:0.8;" x="212.474554" xlink:href="#m4601279f70" y="10.999219"/>
      </g>
     </g>
     <g id="text_3">
      <!-- 380 -->
      <defs>
       <path d="M 31.78125 34.625 
Q 24.75 34.625 20.71875 30.859375 
Q 16.703125 27.09375 16.703125 20.515625 
Q 16.703125 13.921875 20.71875 10.15625 
Q 24.75 6.390625 31.78125 6.390625 
Q 38.8125 6.390625 42.859375 10.171875 
Q 46.921875 13.96875 46.921875 20.515625 
Q 46.921875 27.09375 42.890625 30.859375 
Q 38.875 34.625 31.78125 34.625 
z
M 21.921875 38.8125 
Q 15.578125 40.375 12.03125 44.71875 
Q 8.5 49.078125 8.5 55.328125 
Q 8.5 64.0625 14.71875 69.140625 
Q 20.953125 74.21875 31.78125 74.21875 
Q 42.671875 74.21875 48.875 69.140625 
Q 55.078125 64.0625 55.078125 55.328125 
Q 55.078125 49.078125 51.53125 44.71875 
Q 48 40.375 41.703125 38.8125 
Q 48.828125 37.15625 52.796875 32.3125 
Q 56.78125 27.484375 56.78125 20.515625 
Q 56.78125 9.90625 50.3125 4.234375 
Q 43.84375 -1.421875 31.78125 -1.421875 
Q 19.734375 -1.421875 13.25 4.234375 
Q 6.78125 9.90625 6.78125 20.515625 
Q 6.78125 27.484375 10.78125 32.3125 
Q 14.796875 37.15625 21.921875 38.8125 
z
M 18.3125 54.390625 
Q 18.3125 48.734375 21.84375 45.5625 
Q 25.390625 42.390625 31.78125 42.390625 
Q 38.140625 42.390625 41.71875 45.5625 
Q 45.3125 48.734375 45.3125 54.390625 
Q 45.3125 60.0625 41.71875 63.234375 
Q 38.140625 66.40625 31.78125 66.40625 
Q 25.390625 66.40625 21.84375 63.234375 
Q 18.3125 60.0625 18.3125 54.390625 
z
" id="DejaVuSans-38"/>
      </defs>
      <g transform="translate(202.930804 239.537656)scale(0.1 -0.1)">
       <use xlink:href="#DejaVuSans-33"/>
       <use x="63.623047" xlink:href="#DejaVuSans-38"/>
       <use x="127.246094" xlink:href="#DejaVuSans-30"/>
      </g>
     </g>
    </g>
    <g id="xtick_4">
     <g id="line2d_7">
      <g>
       <use style="stroke:#000000;stroke-width:0.8;" x="276.245982" xlink:href="#m855c9aa32d" y="228.439219"/>
      </g>
     </g>
     <g id="line2d_8">
      <g>
       <use style="stroke:#000000;stroke-width:0.8;" x="276.245982" xlink:href="#m4601279f70" y="10.999219"/>
      </g>
     </g>
     <g id="text_4">
      <!-- 400 -->
      <g transform="translate(266.702232 239.537656)scale(0.1 -0.1)">
       <use xlink:href="#DejaVuSans-34"/>
       <use x="63.623047" xlink:href="#DejaVuSans-30"/>
       <use x="127.246094" xlink:href="#DejaVuSans-30"/>
      </g>
     </g>
    </g>
    <g id="xtick_5">
     <g id="line2d_9">
      <g>
       <use style="stroke:#000000;stroke-width:0.8;" x="340.017411" xlink:href="#m855c9aa32d" y="228.439219"/>
      </g>
     </g>
     <g id="line2d_10">
      <g>
       <use style="stroke:#000000;stroke-width:0.8;" x="340.017411" xlink:href="#m4601279f70" y="10.999219"/>
      </g>
     </g>
     <g id="text_5">
      <!-- 420 -->
      <defs>
       <path d="M 19.1875 8.296875 
L 53.609375 8.296875 
L 53.609375 0 
L 7.328125 0 
L 7.328125 8.296875 
Q 12.9375 14.109375 22.625 23.890625 
Q 32.328125 33.6875 34.8125 36.53125 
Q 39.546875 41.84375 41.421875 45.53125 
Q 43.3125 49.21875 43.3125 52.78125 
Q 43.3125 58.59375 39.234375 62.25 
Q 35.15625 65.921875 28.609375 65.921875 
Q 23.96875 65.921875 18.8125 64.3125 
Q 13.671875 62.703125 7.8125 59.421875 
L 7.8125 69.390625 
Q 13.765625 71.78125 18.9375 73 
Q 24.125 74.21875 28.421875 74.21875 
Q 39.75 74.21875 46.484375 68.546875 
Q 53.21875 62.890625 53.21875 53.421875 
Q 53.21875 48.921875 51.53125 44.890625 
Q 49.859375 40.875 45.40625 35.40625 
Q 44.1875 33.984375 37.640625 27.21875 
Q 31.109375 20.453125 19.1875 8.296875 
z
" id="DejaVuSans-32"/>
      </defs>
      <g transform="translate(330.473661 239.537656)scale(0.1 -0.1)">
       <use xlink:href="#DejaVuSans-34"/>
       <use x="63.623047" xlink:href="#DejaVuSans-32"/>
       <use x="127.246094" xlink:href="#DejaVuSans-30"/>
      </g>
     </g>
    </g>
    <g id="text_6">
     <!-- Temperatur [K] -->
     <defs>
      <path d="M -0.296875 72.90625 
L 61.375 72.90625 
L 61.375 64.59375 
L 35.5 64.59375 
L 35.5 0 
L 25.59375 0 
L 25.59375 64.59375 
L -0.296875 64.59375 
z
" id="DejaVuSans-54"/>
      <path d="M 56.203125 29.59375 
L 56.203125 25.203125 
L 14.890625 25.203125 
Q 15.484375 15.921875 20.484375 11.0625 
Q 25.484375 6.203125 34.421875 6.203125 
Q 39.59375 6.203125 44.453125 7.46875 
Q 49.3125 8.734375 54.109375 11.28125 
L 54.109375 2.78125 
Q 49.265625 0.734375 44.1875 -0.34375 
Q 39.109375 -1.421875 33.890625 -1.421875 
Q 20.796875 -1.421875 13.15625 6.1875 
Q 5.515625 13.8125 5.515625 26.8125 
Q 5.515625 40.234375 12.765625 48.109375 
Q 20.015625 56 32.328125 56 
Q 43.359375 56 49.78125 48.890625 
Q 56.203125 41.796875 56.203125 29.59375 
z
M 47.21875 32.234375 
Q 47.125 39.59375 43.09375 43.984375 
Q 39.0625 48.390625 32.421875 48.390625 
Q 24.90625 48.390625 20.390625 44.140625 
Q 15.875 39.890625 15.1875 32.171875 
z
" id="DejaVuSans-65"/>
      <path d="M 52 44.1875 
Q 55.375 50.25 60.0625 53.125 
Q 64.75 56 71.09375 56 
Q 79.640625 56 84.28125 50.015625 
Q 88.921875 44.046875 88.921875 33.015625 
L 88.921875 0 
L 79.890625 0 
L 79.890625 32.71875 
Q 79.890625 40.578125 77.09375 44.375 
Q 74.3125 48.1875 68.609375 48.1875 
Q 61.625 48.1875 57.5625 43.546875 
Q 53.515625 38.921875 53.515625 30.90625 
L 53.515625 0 
L 44.484375 0 
L 44.484375 32.71875 
Q 44.484375 40.625 41.703125 44.40625 
Q 38.921875 48.1875 33.109375 48.1875 
Q 26.21875 48.1875 22.15625 43.53125 
Q 18.109375 38.875 18.109375 30.90625 
L 18.109375 0 
L 9.078125 0 
L 9.078125 54.6875 
L 18.109375 54.6875 
L 18.109375 46.1875 
Q 21.1875 51.21875 25.484375 53.609375 
Q 29.78125 56 35.6875 56 
Q 41.65625 56 45.828125 52.96875 
Q 50 49.953125 52 44.1875 
z
" id="DejaVuSans-6d"/>
      <path d="M 18.109375 8.203125 
L 18.109375 -20.796875 
L 9.078125 -20.796875 
L 9.078125 54.6875 
L 18.109375 54.6875 
L 18.109375 46.390625 
Q 20.953125 51.265625 25.265625 53.625 
Q 29.59375 56 35.59375 56 
Q 45.5625 56 51.78125 48.09375 
Q 58.015625 40.1875 58.015625 27.296875 
Q 58.015625 14.40625 51.78125 6.484375 
Q 45.5625 -1.421875 35.59375 -1.421875 
Q 29.59375 -1.421875 25.265625 0.953125 
Q 20.953125 3.328125 18.109375 8.203125 
z
M 48.6875 27.296875 
Q 48.6875 37.203125 44.609375 42.84375 
Q 40.53125 48.484375 33.40625 48.484375 
Q 26.265625 48.484375 22.1875 42.84375 
Q 18.109375 37.203125 18.109375 27.296875 
Q 18.109375 17.390625 22.1875 11.75 
Q 26.265625 6.109375 33.40625 6.109375 
Q 40.53125 6.109375 44.609375 11.75 
Q 48.6875 17.390625 48.6875 27.296875 
z
" id="DejaVuSans-70"/>
      <path d="M 41.109375 46.296875 
Q 39.59375 47.171875 37.8125 47.578125 
Q 36.03125 48 33.890625 48 
Q 26.265625 48 22.1875 43.046875 
Q 18.109375 38.09375 18.109375 28.8125 
L 18.109375 0 
L 9.078125 0 
L 9.078125 54.6875 
L 18.109375 54.6875 
L 18.109375 46.1875 
Q 20.953125 51.171875 25.484375 53.578125 
Q 30.03125 56 36.53125 56 
Q 37.453125 56 38.578125 55.875 
Q 39.703125 55.765625 41.0625 55.515625 
z
" id="DejaVuSans-72"/>
      <path d="M 34.28125 27.484375 
Q 23.390625 27.484375 19.1875 25 
Q 14.984375 22.515625 14.984375 16.5 
Q 14.984375 11.71875 18.140625 8.90625 
Q 21.296875 6.109375 26.703125 6.109375 
Q 34.1875 6.109375 38.703125 11.40625 
Q 43.21875 16.703125 43.21875 25.484375 
L 43.21875 27.484375 
z
M 52.203125 31.203125 
L 52.203125 0 
L 43.21875 0 
L 43.21875 8.296875 
Q 40.140625 3.328125 35.546875 0.953125 
Q 30.953125 -1.421875 24.3125 -1.421875 
Q 15.921875 -1.421875 10.953125 3.296875 
Q 6 8.015625 6 15.921875 
Q 6 25.140625 12.171875 29.828125 
Q 18.359375 34.515625 30.609375 34.515625 
L 43.21875 34.515625 
L 43.21875 35.40625 
Q 43.21875 41.609375 39.140625 45 
Q 35.0625 48.390625 27.6875 48.390625 
Q 23 48.390625 18.546875 47.265625 
Q 14.109375 46.140625 10.015625 43.890625 
L 10.015625 52.203125 
Q 14.9375 54.109375 19.578125 55.046875 
Q 24.21875 56 28.609375 56 
Q 40.484375 56 46.34375 49.84375 
Q 52.203125 43.703125 52.203125 31.203125 
z
" id="DejaVuSans-61"/>
      <path d="M 18.3125 70.21875 
L 18.3125 54.6875 
L 36.8125 54.6875 
L 36.8125 47.703125 
L 18.3125 47.703125 
L 18.3125 18.015625 
Q 18.3125 11.328125 20.140625 9.421875 
Q 21.96875 7.515625 27.59375 7.515625 
L 36.8125 7.515625 
L 36.8125 0 
L 27.59375 0 
Q 17.1875 0 13.234375 3.875 
Q 9.28125 7.765625 9.28125 18.015625 
L 9.28125 47.703125 
L 2.6875 47.703125 
L 2.6875 54.6875 
L 9.28125 54.6875 
L 9.28125 70.21875 
z
" id="DejaVuSans-74"/>
      <path d="M 8.5 21.578125 
L 8.5 54.6875 
L 17.484375 54.6875 
L 17.484375 21.921875 
Q 17.484375 14.15625 20.5 10.265625 
Q 23.53125 6.390625 29.59375 6.390625 
Q 36.859375 6.390625 41.078125 11.03125 
Q 45.3125 15.671875 45.3125 23.6875 
L 45.3125 54.6875 
L 54.296875 54.6875 
L 54.296875 0 
L 45.3125 0 
L 45.3125 8.40625 
Q 42.046875 3.421875 37.71875 1 
Q 33.40625 -1.421875 27.6875 -1.421875 
Q 18.265625 -1.421875 13.375 4.4375 
Q 8.5 10.296875 8.5 21.578125 
z
M 31.109375 56 
z
" id="DejaVuSans-75"/>
      <path id="DejaVuSans-20"/>
      <path d="M 8.59375 75.984375 
L 29.296875 75.984375 
L 29.296875 69 
L 17.578125 69 
L 17.578125 -6.203125 
L 29.296875 -6.203125 
L 29.296875 -13.1875 
L 8.59375 -13.1875 
z
" id="DejaVuSans-5b"/>
      <path d="M 9.8125 72.90625 
L 19.671875 72.90625 
L 19.671875 42.09375 
L 52.390625 72.90625 
L 65.09375 72.90625 
L 28.90625 38.921875 
L 67.671875 0 
L 54.6875 0 
L 19.671875 35.109375 
L 19.671875 0 
L 9.8125 0 
z
" id="DejaVuSans-4b"/>
      <path d="M 30.421875 75.984375 
L 30.421875 -13.1875 
L 9.71875 -13.1875 
L 9.71875 -6.203125 
L 21.390625 -6.203125 
L 21.390625 69 
L 9.71875 69 
L 9.71875 75.984375 
z
" id="DejaVuSans-5d"/>
     </defs>
     <g transform="translate(166.191406 253.215781)scale(0.1 -0.1)">
      <use xlink:href="#DejaVuSans-54"/>
      <use x="60.818359" xlink:href="#DejaVuSans-65"/>
      <use x="122.341797" xlink:href="#DejaVuSans-6d"/>
      <use x="219.753906" xlink:href="#DejaVuSans-70"/>
      <use x="283.230469" xlink:href="#DejaVuSans-65"/>
      <use x="344.753906" xlink:href="#DejaVuSans-72"/>
      <use x="385.867188" xlink:href="#DejaVuSans-61"/>
      <use x="447.146484" xlink:href="#DejaVuSans-74"/>
      <use x="486.355469" xlink:href="#DejaVuSans-75"/>
      <use x="549.734375" xlink:href="#DejaVuSans-72"/>
      <use x="590.847656" xlink:href="#DejaVuSans-20"/>
      <use x="622.634766" xlink:href="#DejaVuSans-5b"/>
      <use x="661.648438" xlink:href="#DejaVuSans-4b"/>
      <use x="727.224609" xlink:href="#DejaVuSans-5d"/>
     </g>
    </g>
   </g>
   <g id="matplotlib.axis_2">
    <g id="ytick_1">
     <g id="line2d_11">
      <defs>
       <path d="M 0 0 
L 3.5 0 
" id="m62ab68e110" style="stroke:#000000;stroke-width:0.8;"/>
      </defs>
      <g>
       <use style="stroke:#000000;stroke-width:0.8;" x="37.103125" xlink:href="#m62ab68e110" y="208.671946"/>
      </g>
     </g>
     <g id="line2d_12">
      <defs>
       <path d="M 0 0 
L -3.5 0 
" id="ma8dca695b4" style="stroke:#000000;stroke-width:0.8;"/>
      </defs>
      <g>
       <use style="stroke:#000000;stroke-width:0.8;" x="371.903125" xlink:href="#ma8dca695b4" y="208.671946"/>
      </g>
     </g>
     <g id="text_7">
      <!-- 0 -->
      <g transform="translate(27.240625 212.471165)scale(0.1 -0.1)">
       <use xlink:href="#DejaVuSans-30"/>
      </g>
     </g>
    </g>
    <g id="ytick_2">
     <g id="line2d_13">
      <g>
       <use style="stroke:#000000;stroke-width:0.8;" x="37.103125" xlink:href="#m62ab68e110" y="169.137401"/>
      </g>
     </g>
     <g id="line2d_14">
      <g>
       <use style="stroke:#000000;stroke-width:0.8;" x="371.903125" xlink:href="#ma8dca695b4" y="169.137401"/>
      </g>
     </g>
     <g id="text_8">
      <!-- 10 -->
      <defs>
       <path d="M 12.40625 8.296875 
L 28.515625 8.296875 
L 28.515625 63.921875 
L 10.984375 60.40625 
L 10.984375 69.390625 
L 28.421875 72.90625 
L 38.28125 72.90625 
L 38.28125 8.296875 
L 54.390625 8.296875 
L 54.390625 0 
L 12.40625 0 
z
" id="DejaVuSans-31"/>
      </defs>
      <g transform="translate(20.878125 172.936619)scale(0.1 -0.1)">
       <use xlink:href="#DejaVuSans-31"/>
       <use x="63.623047" xlink:href="#DejaVuSans-30"/>
      </g>
     </g>
    </g>
    <g id="ytick_3">
     <g id="line2d_15">
      <g>
       <use style="stroke:#000000;stroke-width:0.8;" x="37.103125" xlink:href="#m62ab68e110" y="129.602855"/>
      </g>
     </g>
     <g id="line2d_16">
      <g>
       <use style="stroke:#000000;stroke-width:0.8;" x="371.903125" xlink:href="#ma8dca695b4" y="129.602855"/>
      </g>
     </g>
     <g id="text_9">
      <!-- 20 -->
      <g transform="translate(20.878125 133.402074)scale(0.1 -0.1)">
       <use xlink:href="#DejaVuSans-32"/>
       <use x="63.623047" xlink:href="#DejaVuSans-30"/>
      </g>
     </g>
    </g>
    <g id="ytick_4">
     <g id="line2d_17">
      <g>
       <use style="stroke:#000000;stroke-width:0.8;" x="37.103125" xlink:href="#m62ab68e110" y="90.06831"/>
      </g>
     </g>
     <g id="line2d_18">
      <g>
       <use style="stroke:#000000;stroke-width:0.8;" x="371.903125" xlink:href="#ma8dca695b4" y="90.06831"/>
      </g>
     </g>
     <g id="text_10">
      <!-- 30 -->
      <g transform="translate(20.878125 93.867528)scale(0.1 -0.1)">
       <use xlink:href="#DejaVuSans-33"/>
       <use x="63.623047" xlink:href="#DejaVuSans-30"/>
      </g>
     </g>
    </g>
    <g id="ytick_5">
     <g id="line2d_19">
      <g>
       <use style="stroke:#000000;stroke-width:0.8;" x="37.103125" xlink:href="#m62ab68e110" y="50.533764"/>
      </g>
     </g>
     <g id="line2d_20">
      <g>
       <use style="stroke:#000000;stroke-width:0.8;" x="371.903125" xlink:href="#ma8dca695b4" y="50.533764"/>
      </g>
     </g>
     <g id="text_11">
      <!-- 40 -->
      <g transform="translate(20.878125 54.332983)scale(0.1 -0.1)">
       <use xlink:href="#DejaVuSans-34"/>
       <use x="63.623047" xlink:href="#DejaVuSans-30"/>
      </g>
     </g>
    </g>
    <g id="ytick_6">
     <g id="line2d_21">
      <g>
       <use style="stroke:#000000;stroke-width:0.8;" x="37.103125" xlink:href="#m62ab68e110" y="10.999219"/>
      </g>
     </g>
     <g id="line2d_22">
      <g>
       <use style="stroke:#000000;stroke-width:0.8;" x="371.903125" xlink:href="#ma8dca695b4" y="10.999219"/>
      </g>
     </g>
     <g id="text_12">
      <!-- 50 -->
      <defs>
       <path d="M 10.796875 72.90625 
L 49.515625 72.90625 
L 49.515625 64.59375 
L 19.828125 64.59375 
L 19.828125 46.734375 
Q 21.96875 47.46875 24.109375 47.828125 
Q 26.265625 48.1875 28.421875 48.1875 
Q 40.625 48.1875 47.75 41.5 
Q 54.890625 34.8125 54.890625 23.390625 
Q 54.890625 11.625 47.5625 5.09375 
Q 40.234375 -1.421875 26.90625 -1.421875 
Q 22.3125 -1.421875 17.546875 -0.640625 
Q 12.796875 0.140625 7.71875 1.703125 
L 7.71875 11.625 
Q 12.109375 9.234375 16.796875 8.0625 
Q 21.484375 6.890625 26.703125 6.890625 
Q 35.15625 6.890625 40.078125 11.328125 
Q 45.015625 15.765625 45.015625 23.390625 
Q 45.015625 31 40.078125 35.4375 
Q 35.15625 39.890625 26.703125 39.890625 
Q 22.75 39.890625 18.8125 39.015625 
Q 14.890625 38.140625 10.796875 36.28125 
z
" id="DejaVuSans-35"/>
      </defs>
      <g transform="translate(20.878125 14.798438)scale(0.1 -0.1)">
       <use xlink:href="#DejaVuSans-35"/>
       <use x="63.623047" xlink:href="#DejaVuSans-30"/>
      </g>
     </g>
    </g>
    <g id="text_13">
     <!-- Halbwertsbreite [kHz] -->
     <defs>
      <path d="M 9.8125 72.90625 
L 19.671875 72.90625 
L 19.671875 43.015625 
L 55.515625 43.015625 
L 55.515625 72.90625 
L 65.375 72.90625 
L 65.375 0 
L 55.515625 0 
L 55.515625 34.71875 
L 19.671875 34.71875 
L 19.671875 0 
L 9.8125 0 
z
" id="DejaVuSans-48"/>
      <path d="M 9.421875 75.984375 
L 18.40625 75.984375 
L 18.40625 0 
L 9.421875 0 
z
" id="DejaVuSans-6c"/>
      <path d="M 48.6875 27.296875 
Q 48.6875 37.203125 44.609375 42.84375 
Q 40.53125 48.484375 33.40625 48.484375 
Q 26.265625 48.484375 22.1875 42.84375 
Q 18.109375 37.203125 18.109375 27.296875 
Q 18.109375 17.390625 22.1875 11.75 
Q 26.265625 6.109375 33.40625 6.109375 
Q 40.53125 6.109375 44.609375 11.75 
Q 48.6875 17.390625 48.6875 27.296875 
z
M 18.109375 46.390625 
Q 20.953125 51.265625 25.265625 53.625 
Q 29.59375 56 35.59375 56 
Q 45.5625 56 51.78125 48.09375 
Q 58.015625 40.1875 58.015625 27.296875 
Q 58.015625 14.40625 51.78125 6.484375 
Q 45.5625 -1.421875 35.59375 -1.421875 
Q 29.59375 -1.421875 25.265625 0.953125 
Q 20.953125 3.328125 18.109375 8.203125 
L 18.109375 0 
L 9.078125 0 
L 9.078125 75.984375 
L 18.109375 75.984375 
z
" id="DejaVuSans-62"/>
      <path d="M 4.203125 54.6875 
L 13.1875 54.6875 
L 24.421875 12.015625 
L 35.59375 54.6875 
L 46.1875 54.6875 
L 57.421875 12.015625 
L 68.609375 54.6875 
L 77.59375 54.6875 
L 63.28125 0 
L 52.6875 0 
L 40.921875 44.828125 
L 29.109375 0 
L 18.5 0 
z
" id="DejaVuSans-77"/>
      <path d="M 44.28125 53.078125 
L 44.28125 44.578125 
Q 40.484375 46.53125 36.375 47.5 
Q 32.28125 48.484375 27.875 48.484375 
Q 21.1875 48.484375 17.84375 46.4375 
Q 14.5 44.390625 14.5 40.28125 
Q 14.5 37.15625 16.890625 35.375 
Q 19.28125 33.59375 26.515625 31.984375 
L 29.59375 31.296875 
Q 39.15625 29.25 43.1875 25.515625 
Q 47.21875 21.78125 47.21875 15.09375 
Q 47.21875 7.46875 41.1875 3.015625 
Q 35.15625 -1.421875 24.609375 -1.421875 
Q 20.21875 -1.421875 15.453125 -0.5625 
Q 10.6875 0.296875 5.421875 2 
L 5.421875 11.28125 
Q 10.40625 8.6875 15.234375 7.390625 
Q 20.0625 6.109375 24.8125 6.109375 
Q 31.15625 6.109375 34.5625 8.28125 
Q 37.984375 10.453125 37.984375 14.40625 
Q 37.984375 18.0625 35.515625 20.015625 
Q 33.0625 21.96875 24.703125 23.78125 
L 21.578125 24.515625 
Q 13.234375 26.265625 9.515625 29.90625 
Q 5.8125 33.546875 5.8125 39.890625 
Q 5.8125 47.609375 11.28125 51.796875 
Q 16.75 56 26.8125 56 
Q 31.78125 56 36.171875 55.265625 
Q 40.578125 54.546875 44.28125 53.078125 
z
" id="DejaVuSans-73"/>
      <path d="M 9.421875 54.6875 
L 18.40625 54.6875 
L 18.40625 0 
L 9.421875 0 
z
M 9.421875 75.984375 
L 18.40625 75.984375 
L 18.40625 64.59375 
L 9.421875 64.59375 
z
" id="DejaVuSans-69"/>
      <path d="M 9.078125 75.984375 
L 18.109375 75.984375 
L 18.109375 31.109375 
L 44.921875 54.6875 
L 56.390625 54.6875 
L 27.390625 29.109375 
L 57.625 0 
L 45.90625 0 
L 18.109375 26.703125 
L 18.109375 0 
L 9.078125 0 
z
" id="DejaVuSans-6b"/>
      <path d="M 5.515625 54.6875 
L 48.1875 54.6875 
L 48.1875 46.484375 
L 14.40625 7.171875 
L 48.1875 7.171875 
L 48.1875 0 
L 4.296875 0 
L 4.296875 8.203125 
L 38.09375 47.515625 
L 5.515625 47.515625 
z
" id="DejaVuSans-7a"/>
     </defs>
     <g transform="translate(14.798438 174.393437)rotate(-90)scale(0.1 -0.1)">
      <use xlink:href="#DejaVuSans-48"/>
      <use x="75.195312" xlink:href="#DejaVuSans-61"/>
      <use x="136.474609" xlink:href="#DejaVuSans-6c"/>
      <use x="164.257812" xlink:href="#DejaVuSans-62"/>
      <use x="227.734375" xlink:href="#DejaVuSans-77"/>
      <use x="309.521484" xlink:href="#DejaVuSans-65"/>
      <use x="371.044922" xlink:href="#DejaVuSans-72"/>
      <use x="412.158203" xlink:href="#DejaVuSans-74"/>
      <use x="451.367188" xlink:href="#DejaVuSans-73"/>
      <use x="503.466797" xlink:href="#DejaVuSans-62"/>
      <use x="566.943359" xlink:href="#DejaVuSans-72"/>
      <use x="608.025391" xlink:href="#DejaVuSans-65"/>
      <use x="669.548828" xlink:href="#DejaVuSans-69"/>
      <use x="697.332031" xlink:href="#DejaVuSans-74"/>
      <use x="736.541016" xlink:href="#DejaVuSans-65"/>
      <use x="798.064453" xlink:href="#DejaVuSans-20"/>
      <use x="829.851562" xlink:href="#DejaVuSans-5b"/>
      <use x="868.865234" xlink:href="#DejaVuSans-6b"/>
      <use x="926.775391" xlink:href="#DejaVuSans-48"/>
      <use x="1001.970703" xlink:href="#DejaVuSans-7a"/>
      <use x="1054.460938" xlink:href="#DejaVuSans-5d"/>
     </g>
    </g>
   </g>
   <g id="LineCollection_1">
    <path clip-path="url(#p560ba96261)" d="M 204.694439 198.621442 
L 204.694439 200.673322 
" style="fill:none;stroke:#ff7f0e;stroke-width:1.5;"/>
    <path clip-path="url(#p560ba96261)" d="M 192.482211 192.825109 
L 192.482211 194.019049 
" style="fill:none;stroke:#ff7f0e;stroke-width:1.5;"/>
    <path clip-path="url(#p560ba96261)" d="M 183.299125 186.509522 
L 183.299125 187.383667 
" style="fill:none;stroke:#ff7f0e;stroke-width:1.5;"/>
    <path clip-path="url(#p560ba96261)" d="M 174.116039 174.50202 
L 174.116039 175.350809 
" style="fill:none;stroke:#ff7f0e;stroke-width:1.5;"/>
    <path clip-path="url(#p560ba96261)" d="M 167.962096 163.27765 
L 167.962096 164.186095 
" style="fill:none;stroke:#ff7f0e;stroke-width:1.5;"/>
    <path clip-path="url(#p560ba96261)" d="M 161.840039 151.556364 
L 161.840039 152.781315 
" style="fill:none;stroke:#ff7f0e;stroke-width:1.5;"/>
    <path clip-path="url(#p560ba96261)" d="M 155.686096 137.157957 
L 155.686096 138.290479 
" style="fill:none;stroke:#ff7f0e;stroke-width:1.5;"/>
    <path clip-path="url(#p560ba96261)" d="M 149.500268 118.354782 
L 149.500268 119.777465 
" style="fill:none;stroke:#ff7f0e;stroke-width:1.5;"/>
    <path clip-path="url(#p560ba96261)" d="M 143.346325 96.756215 
L 143.346325 97.922764 
" style="fill:none;stroke:#ff7f0e;stroke-width:1.5;"/>
    <path clip-path="url(#p560ba96261)" d="M 134.227011 86.530065 
L 134.227011 87.256192 
" style="fill:none;stroke:#ff7f0e;stroke-width:1.5;"/>
    <path clip-path="url(#p560ba96261)" d="M 125.075811 87.302398 
L 125.075811 87.671462 
" style="fill:none;stroke:#ff7f0e;stroke-width:1.5;"/>
    <path clip-path="url(#p560ba96261)" d="M 115.924611 75.473752 
L 115.924611 75.689987 
" style="fill:none;stroke:#ff7f0e;stroke-width:1.5;"/>
    <path clip-path="url(#p560ba96261)" d="M 106.773411 68.650394 
L 106.773411 68.807407 
" style="fill:none;stroke:#ff7f0e;stroke-width:1.5;"/>
    <path clip-path="url(#p560ba96261)" d="M 97.654096 64.90314 
L 97.654096 65.057253 
" style="fill:none;stroke:#ff7f0e;stroke-width:1.5;"/>
    <path clip-path="url(#p560ba96261)" d="M 115.669525 75.370371 
L 115.669525 75.503679 
" style="fill:none;stroke:#ff7f0e;stroke-width:1.5;"/>
    <path clip-path="url(#p560ba96261)" d="M 106.773411 70.135505 
L 106.773411 70.202668 
" style="fill:none;stroke:#ff7f0e;stroke-width:1.5;"/>
    <path clip-path="url(#p560ba96261)" d="M 97.622211 64.175668 
L 97.622211 64.221455 
" style="fill:none;stroke:#ff7f0e;stroke-width:1.5;"/>
    <path clip-path="url(#p560ba96261)" d="M 88.502896 59.441847 
L 88.502896 59.474201 
" style="fill:none;stroke:#ff7f0e;stroke-width:1.5;"/>
    <path clip-path="url(#p560ba96261)" style="fill:none;stroke:#ff7f0e;stroke-width:1.5;"/>
    <path clip-path="url(#p560ba96261)" d="M 374.772839 196.338254 
L 374.772839 212.186351 
" style="fill:none;stroke:#ff7f0e;stroke-width:1.5;"/>
    <path clip-path="url(#p560ba96261)" d="M 359.627125 173.808947 
L 359.627125 197.54447 
" style="fill:none;stroke:#ff7f0e;stroke-width:1.5;"/>
    <path clip-path="url(#p560ba96261)" d="M 344.353868 188.864535 
L 344.353868 252.117363 
" style="fill:none;stroke:#ff7f0e;stroke-width:1.5;"/>
    <path clip-path="url(#p560ba96261)" d="M 328.889296 135.217669 
L 328.889296 191.24221 
" style="fill:none;stroke:#ff7f0e;stroke-width:1.5;"/>
    <path clip-path="url(#p560ba96261)" style="fill:none;stroke:#ff7f0e;stroke-width:1.5;"/>
    <path clip-path="url(#p560ba96261)" d="M 298.183354 178.795465 
L 298.183354 263.495469 
" style="fill:none;stroke:#ff7f0e;stroke-width:1.5;"/>
    <path clip-path="url(#p560ba96261)" d="M 282.750668 151.82951 
L 282.750668 183.589665 
" style="fill:none;stroke:#ff7f0e;stroke-width:1.5;"/>
    <path clip-path="url(#p560ba96261)" d="M 267.413639 156.782727 
L 267.413639 172.248845 
" style="fill:none;stroke:#ff7f0e;stroke-width:1.5;"/>
    <path clip-path="url(#p560ba96261)" d="M 252.267925 168.970049 
L 252.267925 174.867888 
" style="fill:none;stroke:#ff7f0e;stroke-width:1.5;"/>
    <path clip-path="url(#p560ba96261)" d="M 236.994668 178.342251 
L 236.994668 181.131354 
" style="fill:none;stroke:#ff7f0e;stroke-width:1.5;"/>
    <path clip-path="url(#p560ba96261)" d="M 221.721411 181.92006 
L 221.721411 184.635382 
" style="fill:none;stroke:#ff7f0e;stroke-width:1.5;"/>
    <path clip-path="url(#p560ba96261)" d="M 206.671354 193.681964 
L 206.671354 195.719919 
" style="fill:none;stroke:#ff7f0e;stroke-width:1.5;"/>
    <path clip-path="url(#p560ba96261)" d="M 191.015468 189.299244 
L 191.015468 190.45447 
" style="fill:none;stroke:#ff7f0e;stroke-width:1.5;"/>
    <path clip-path="url(#p560ba96261)" d="M 175.742211 174.299763 
L 175.742211 175.170539 
" style="fill:none;stroke:#ff7f0e;stroke-width:1.5;"/>
    <path clip-path="url(#p560ba96261)" d="M 160.373296 144.345566 
L 160.373296 145.24819 
" style="fill:none;stroke:#ff7f0e;stroke-width:1.5;"/>
    <path clip-path="url(#p560ba96261)" d="M 144.908725 97.831819 
L 144.908725 98.488271 
" style="fill:none;stroke:#ff7f0e;stroke-width:1.5;"/>
   </g>
   <g id="line2d_23">
    <defs>
     <path d="M 0 3 
C 0.795609 3 1.55874 2.683901 2.12132 2.12132 
C 2.683901 1.55874 3 0.795609 3 0 
C 3 -0.795609 2.683901 -1.55874 2.12132 -2.12132 
C 1.55874 -2.683901 0.795609 -3 0 -3 
C -0.795609 -3 -1.55874 -2.683901 -2.12132 -2.12132 
C -2.683901 -1.55874 -3 -0.795609 -3 0 
C -3 0.795609 -2.683901 1.55874 -2.12132 2.12132 
C -1.55874 2.683901 -0.795609 3 0 3 
z
" id="m19eba9abb0" style="stroke:#ff7f0e;"/>
    </defs>
    <g clip-path="url(#p560ba96261)">
     <use style="fill:#ff7f0e;stroke:#ff7f0e;" x="204.694439" xlink:href="#m19eba9abb0" y="199.647382"/>
     <use style="fill:#ff7f0e;stroke:#ff7f0e;" x="192.482211" xlink:href="#m19eba9abb0" y="193.422079"/>
     <use style="fill:#ff7f0e;stroke:#ff7f0e;" x="183.299125" xlink:href="#m19eba9abb0" y="186.946595"/>
     <use style="fill:#ff7f0e;stroke:#ff7f0e;" x="174.116039" xlink:href="#m19eba9abb0" y="174.926414"/>
     <use style="fill:#ff7f0e;stroke:#ff7f0e;" x="167.962096" xlink:href="#m19eba9abb0" y="163.731873"/>
     <use style="fill:#ff7f0e;stroke:#ff7f0e;" x="161.840039" xlink:href="#m19eba9abb0" y="152.16884"/>
     <use style="fill:#ff7f0e;stroke:#ff7f0e;" x="155.686096" xlink:href="#m19eba9abb0" y="137.724218"/>
     <use style="fill:#ff7f0e;stroke:#ff7f0e;" x="149.500268" xlink:href="#m19eba9abb0" y="119.066123"/>
     <use style="fill:#ff7f0e;stroke:#ff7f0e;" x="143.346325" xlink:href="#m19eba9abb0" y="97.339489"/>
     <use style="fill:#ff7f0e;stroke:#ff7f0e;" x="134.227011" xlink:href="#m19eba9abb0" y="86.893129"/>
     <use style="fill:#ff7f0e;stroke:#ff7f0e;" x="125.075811" xlink:href="#m19eba9abb0" y="87.48693"/>
     <use style="fill:#ff7f0e;stroke:#ff7f0e;" x="115.924611" xlink:href="#m19eba9abb0" y="75.58187"/>
     <use style="fill:#ff7f0e;stroke:#ff7f0e;" x="106.773411" xlink:href="#m19eba9abb0" y="68.728901"/>
     <use style="fill:#ff7f0e;stroke:#ff7f0e;" x="97.654096" xlink:href="#m19eba9abb0" y="64.980196"/>
     <use style="fill:#ff7f0e;stroke:#ff7f0e;" x="115.669525" xlink:href="#m19eba9abb0" y="75.437025"/>
     <use style="fill:#ff7f0e;stroke:#ff7f0e;" x="106.773411" xlink:href="#m19eba9abb0" y="70.169086"/>
     <use style="fill:#ff7f0e;stroke:#ff7f0e;" x="97.622211" xlink:href="#m19eba9abb0" y="64.198561"/>
     <use style="fill:#ff7f0e;stroke:#ff7f0e;" x="88.502896" xlink:href="#m19eba9abb0" y="59.458024"/>
     <use style="fill:#ff7f0e;stroke:#ff7f0e;" x="389.217068" xlink:href="#m19eba9abb0" y="200.667918"/>
     <use style="fill:#ff7f0e;stroke:#ff7f0e;" x="374.772839" xlink:href="#m19eba9abb0" y="204.262302"/>
     <use style="fill:#ff7f0e;stroke:#ff7f0e;" x="359.627125" xlink:href="#m19eba9abb0" y="185.676708"/>
     <use style="fill:#ff7f0e;stroke:#ff7f0e;" x="344.353868" xlink:href="#m19eba9abb0" y="220.490949"/>
     <use style="fill:#ff7f0e;stroke:#ff7f0e;" x="328.889296" xlink:href="#m19eba9abb0" y="163.22994"/>
     <use style="fill:#ff7f0e;stroke:#ff7f0e;" x="313.552268" xlink:href="#m19eba9abb0" y="445.92576"/>
     <use style="fill:#ff7f0e;stroke:#ff7f0e;" x="298.183354" xlink:href="#m19eba9abb0" y="222.585094"/>
     <use style="fill:#ff7f0e;stroke:#ff7f0e;" x="282.750668" xlink:href="#m19eba9abb0" y="167.709587"/>
     <use style="fill:#ff7f0e;stroke:#ff7f0e;" x="267.413639" xlink:href="#m19eba9abb0" y="164.515786"/>
     <use style="fill:#ff7f0e;stroke:#ff7f0e;" x="252.267925" xlink:href="#m19eba9abb0" y="171.918969"/>
     <use style="fill:#ff7f0e;stroke:#ff7f0e;" x="236.994668" xlink:href="#m19eba9abb0" y="179.736803"/>
     <use style="fill:#ff7f0e;stroke:#ff7f0e;" x="221.721411" xlink:href="#m19eba9abb0" y="183.277721"/>
     <use style="fill:#ff7f0e;stroke:#ff7f0e;" x="206.671354" xlink:href="#m19eba9abb0" y="194.700942"/>
     <use style="fill:#ff7f0e;stroke:#ff7f0e;" x="191.015468" xlink:href="#m19eba9abb0" y="189.876857"/>
     <use style="fill:#ff7f0e;stroke:#ff7f0e;" x="175.742211" xlink:href="#m19eba9abb0" y="174.735151"/>
     <use style="fill:#ff7f0e;stroke:#ff7f0e;" x="160.373296" xlink:href="#m19eba9abb0" y="144.796878"/>
     <use style="fill:#ff7f0e;stroke:#ff7f0e;" x="144.908725" xlink:href="#m19eba9abb0" y="98.160045"/>
    </g>
   </g>
   <g id="patch_3">
    <path d="M 37.103125 228.439219 
L 37.103125 10.999219 
" style="fill:none;stroke:#000000;stroke-linecap:square;stroke-linejoin:miter;stroke-width:0.8;"/>
   </g>
   <g id="patch_4">
    <path d="M 371.903125 228.439219 
L 371.903125 10.999219 
" style="fill:none;stroke:#000000;stroke-linecap:square;stroke-linejoin:miter;stroke-width:0.8;"/>
   </g>
   <g id="patch_5">
    <path d="M 37.103125 228.439219 
L 371.903125 228.439219 
" style="fill:none;stroke:#000000;stroke-linecap:square;stroke-linejoin:miter;stroke-width:0.8;"/>
   </g>
   <g id="patch_6">
    <path d="M 37.103125 10.999219 
L 371.903125 10.999219 
" style="fill:none;stroke:#000000;stroke-linecap:square;stroke-linejoin:miter;stroke-width:0.8;"/>
   </g>
   <g id="legend_1">
    <g id="patch_7">
     <path d="M 168.603125 48.355469 
L 364.903125 48.355469 
Q 366.903125 48.355469 366.903125 46.355469 
L 366.903125 17.999219 
Q 366.903125 15.999219 364.903125 15.999219 
L 168.603125 15.999219 
Q 166.603125 15.999219 166.603125 17.999219 
L 166.603125 46.355469 
Q 166.603125 48.355469 168.603125 48.355469 
z
" style="fill:#ffffff;opacity:0.8;stroke:#cccccc;stroke-linejoin:miter;"/>
    </g>
    <g id="PathCollection_2">
     <g>
      <use style="fill:#1f77b4;stroke:#1f77b4;" x="180.603125" xlink:href="#m5a95ed58d3" y="24.972656"/>
     </g>
    </g>
    <g id="text_14">
     <!-- Halbwertsbreite -->
     <g transform="translate(198.603125 27.597656)scale(0.1 -0.1)">
      <use xlink:href="#DejaVuSans-48"/>
      <use x="75.195312" xlink:href="#DejaVuSans-61"/>
      <use x="136.474609" xlink:href="#DejaVuSans-6c"/>
      <use x="164.257812" xlink:href="#DejaVuSans-62"/>
      <use x="227.734375" xlink:href="#DejaVuSans-77"/>
      <use x="309.521484" xlink:href="#DejaVuSans-65"/>
      <use x="371.044922" xlink:href="#DejaVuSans-72"/>
      <use x="412.158203" xlink:href="#DejaVuSans-74"/>
      <use x="451.367188" xlink:href="#DejaVuSans-73"/>
      <use x="503.466797" xlink:href="#DejaVuSans-62"/>
      <use x="566.943359" xlink:href="#DejaVuSans-72"/>
      <use x="608.025391" xlink:href="#DejaVuSans-65"/>
      <use x="669.548828" xlink:href="#DejaVuSans-69"/>
      <use x="697.332031" xlink:href="#DejaVuSans-74"/>
      <use x="736.541016" xlink:href="#DejaVuSans-65"/>
     </g>
    </g>
    <g id="LineCollection_2">
     <path d="M 180.603125 43.775781 
L 180.603125 33.775781 
" style="fill:none;stroke:#ff7f0e;stroke-width:1.5;"/>
    </g>
    <g id="line2d_24"/>
    <g id="line2d_25">
     <g>
      <use style="fill:#ff7f0e;stroke:#ff7f0e;" x="180.603125" xlink:href="#m19eba9abb0" y="38.775781"/>
     </g>
    </g>
    <g id="text_15">
     <!-- Halbwertsbreite mit $T_1$-Korrektur -->
     <defs>
      <path d="M 5.90625 72.90625 
L 67.578125 72.90625 
L 66.015625 64.59375 
L 39.984375 64.59375 
L 27.484375 0 
L 17.578125 0 
L 30.078125 64.59375 
L 4.296875 64.59375 
z
" id="DejaVuSans-Oblique-54"/>
      <path d="M 4.890625 31.390625 
L 31.203125 31.390625 
L 31.203125 23.390625 
L 4.890625 23.390625 
z
" id="DejaVuSans-2d"/>
      <path d="M 30.609375 48.390625 
Q 23.390625 48.390625 19.1875 42.75 
Q 14.984375 37.109375 14.984375 27.296875 
Q 14.984375 17.484375 19.15625 11.84375 
Q 23.34375 6.203125 30.609375 6.203125 
Q 37.796875 6.203125 41.984375 11.859375 
Q 46.1875 17.53125 46.1875 27.296875 
Q 46.1875 37.015625 41.984375 42.703125 
Q 37.796875 48.390625 30.609375 48.390625 
z
M 30.609375 56 
Q 42.328125 56 49.015625 48.375 
Q 55.71875 40.765625 55.71875 27.296875 
Q 55.71875 13.875 49.015625 6.21875 
Q 42.328125 -1.421875 30.609375 -1.421875 
Q 18.84375 -1.421875 12.171875 6.21875 
Q 5.515625 13.875 5.515625 27.296875 
Q 5.515625 40.765625 12.171875 48.375 
Q 18.84375 56 30.609375 56 
z
" id="DejaVuSans-6f"/>
     </defs>
     <g transform="translate(198.603125 42.275781)scale(0.1 -0.1)">
      <use transform="translate(0 0.015625)" xlink:href="#DejaVuSans-48"/>
      <use transform="translate(75.195312 0.015625)" xlink:href="#DejaVuSans-61"/>
      <use transform="translate(136.474609 0.015625)" xlink:href="#DejaVuSans-6c"/>
      <use transform="translate(164.257812 0.015625)" xlink:href="#DejaVuSans-62"/>
      <use transform="translate(227.734375 0.015625)" xlink:href="#DejaVuSans-77"/>
      <use transform="translate(309.521484 0.015625)" xlink:href="#DejaVuSans-65"/>
      <use transform="translate(371.044922 0.015625)" xlink:href="#DejaVuSans-72"/>
      <use transform="translate(412.158203 0.015625)" xlink:href="#DejaVuSans-74"/>
      <use transform="translate(451.367188 0.015625)" xlink:href="#DejaVuSans-73"/>
      <use transform="translate(503.466797 0.015625)" xlink:href="#DejaVuSans-62"/>
      <use transform="translate(566.943359 0.015625)" xlink:href="#DejaVuSans-72"/>
      <use transform="translate(608.056641 0.015625)" xlink:href="#DejaVuSans-65"/>
      <use transform="translate(669.580078 0.015625)" xlink:href="#DejaVuSans-69"/>
      <use transform="translate(697.363281 0.015625)" xlink:href="#DejaVuSans-74"/>
      <use transform="translate(736.572266 0.015625)" xlink:href="#DejaVuSans-65"/>
      <use transform="translate(798.095703 0.015625)" xlink:href="#DejaVuSans-20"/>
      <use transform="translate(829.882812 0.015625)" xlink:href="#DejaVuSans-6d"/>
      <use transform="translate(927.294922 0.015625)" xlink:href="#DejaVuSans-69"/>
      <use transform="translate(955.078125 0.015625)" xlink:href="#DejaVuSans-74"/>
      <use transform="translate(994.287109 0.015625)" xlink:href="#DejaVuSans-20"/>
      <use transform="translate(1026.074219 0.015625)" xlink:href="#DejaVuSans-Oblique-54"/>
      <use transform="translate(1087.158203 -16.390625)scale(0.7)" xlink:href="#DejaVuSans-31"/>
      <use transform="translate(1134.428711 0.015625)" xlink:href="#DejaVuSans-2d"/>
      <use transform="translate(1170.512695 0.015625)" xlink:href="#DejaVuSans-4b"/>
      <use transform="translate(1236.088867 0.015625)" xlink:href="#DejaVuSans-6f"/>
      <use transform="translate(1297.270508 0.015625)" xlink:href="#DejaVuSans-72"/>
      <use transform="translate(1338.383789 0.015625)" xlink:href="#DejaVuSans-72"/>
      <use transform="translate(1379.49707 0.015625)" xlink:href="#DejaVuSans-65"/>
      <use transform="translate(1441.020508 0.015625)" xlink:href="#DejaVuSans-6b"/>
      <use transform="translate(1498.930664 0.015625)" xlink:href="#DejaVuSans-74"/>
      <use transform="translate(1538.139648 0.015625)" xlink:href="#DejaVuSans-75"/>
      <use transform="translate(1601.518555 0.015625)" xlink:href="#DejaVuSans-72"/>
     </g>
    </g>
   </g>
  </g>
 </g>
 <defs>
  <clipPath id="p560ba96261">
   <rect height="217.44" width="334.8" x="37.103125" y="10.999219"/>
  </clipPath>
 </defs>
</svg>
