<?xml version="1.0" encoding="utf-8" standalone="no"?>
<!DOCTYPE svg PUBLIC "-//W3C//DTD SVG 1.1//EN"
  "http://www.w3.org/Graphics/SVG/1.1/DTD/svg11.dtd">
<!-- Created with matplotlib (http://matplotlib.org/) -->
<svg height="316.855469pt" version="1.1" viewBox="0 0 473.182812 316.855469" width="473.182812pt" xmlns="http://www.w3.org/2000/svg" xmlns:xlink="http://www.w3.org/1999/xlink">
 <defs>
  <style type="text/css">
*{stroke-linecap:butt;stroke-linejoin:round;}
  </style>
 </defs>
 <g id="figure_1">
  <g id="patch_1">
   <path d="M 0 316.855469 
L 473.182812 316.855469 
L 473.182812 0 
L 0 0 
z
" style="fill:#ffffff;"/>
  </g>
  <g id="axes_1">
   <g id="patch_2">
    <path d="M 45.482813 282.799219 
L 463.982813 282.799219 
L 463.982813 10.999219 
L 45.482813 10.999219 
z
" style="fill:#ffffff;"/>
   </g>
   <g id="PathCollection_1">
    <defs>
     <path d="M 0 3 
C 0.795609 3 1.55874 2.683901 2.12132 2.12132 
C 2.683901 1.55874 3 0.795609 3 0 
C 3 -0.795609 2.683901 -1.55874 2.12132 -2.12132 
C 1.55874 -2.683901 0.795609 -3 0 -3 
C -0.795609 -3 -1.55874 -2.683901 -2.12132 -2.12132 
C -2.683901 -1.55874 -3 -0.795609 -3 0 
C -3 0.795609 -2.683901 1.55874 -2.12132 2.12132 
C -1.55874 2.683901 -0.795609 3 0 3 
z
" id="m708b21aa3f" style="stroke:#1f77b4;"/>
    </defs>
    <g clip-path="url(#pfe535f8103)">
     <use style="fill:#1f77b4;stroke:#1f77b4;" x="153.79755" xlink:href="#m708b21aa3f" y="128.561779"/>
     <use style="fill:#1f77b4;stroke:#1f77b4;" x="117.701996" xlink:href="#m708b21aa3f" y="138.411811"/>
     <use style="fill:#1f77b4;stroke:#1f77b4;" x="99.74871" xlink:href="#m708b21aa3f" y="125.677075"/>
     <use style="fill:#1f77b4;stroke:#1f77b4;" x="81.757628" xlink:href="#m708b21aa3f" y="129.843769"/>
     <use style="fill:#1f77b4;stroke:#1f77b4;" x="64.522474" xlink:href="#m708b21aa3f" y="136.938655"/>
     <use style="fill:#1f77b4;stroke:#1f77b4;" x="135.730875" xlink:href="#m708b21aa3f" y="132.449425"/>
     <use style="fill:#1f77b4;stroke:#1f77b4;" x="190.365558" xlink:href="#m708b21aa3f" y="142.178053"/>
     <use style="fill:#1f77b4;stroke:#1f77b4;" x="207.997575" xlink:href="#m708b21aa3f" y="139.456429"/>
     <use style="fill:#1f77b4;stroke:#1f77b4;" x="444.943151" xlink:href="#m708b21aa3f" y="57.756973"/>
     <use style="fill:#1f77b4;stroke:#1f77b4;" x="354.723165" xlink:href="#m708b21aa3f" y="174.457021"/>
     <use style="fill:#1f77b4;stroke:#1f77b4;" x="436.382269" xlink:href="#m708b21aa3f" y="70.479931"/>
     <use style="fill:#1f77b4;stroke:#1f77b4;" x="318.419732" xlink:href="#m708b21aa3f" y="198.023893"/>
     <use style="fill:#1f77b4;stroke:#1f77b4;" x="300.145177" xlink:href="#m708b21aa3f" y="162.567583"/>
     <use style="fill:#1f77b4;stroke:#1f77b4;" x="345.67093" xlink:href="#m708b21aa3f" y="181.009213"/>
     <use style="fill:#1f77b4;stroke:#1f77b4;" x="309.310801" xlink:href="#m708b21aa3f" y="180.026203"/>
     <use style="fill:#1f77b4;stroke:#1f77b4;" x="363.775401" xlink:href="#m708b21aa3f" y="121.822951"/>
     <use style="fill:#1f77b4;stroke:#1f77b4;" x="427.405626" xlink:href="#m708b21aa3f" y="56.796613"/>
     <use style="fill:#1f77b4;stroke:#1f77b4;" x="390.988803" xlink:href="#m708b21aa3f" y="38.071405"/>
     <use style="fill:#1f77b4;stroke:#1f77b4;" x="372.752044" xlink:href="#m708b21aa3f" y="59.222881"/>
     <use style="fill:#1f77b4;stroke:#1f77b4;" x="327.471967" xlink:href="#m708b21aa3f" y="196.134883"/>
     <use style="fill:#1f77b4;stroke:#1f77b4;" x="409.187765" xlink:href="#m708b21aa3f" y="56.318245"/>
     <use style="fill:#1f77b4;stroke:#1f77b4;" x="336.750981" xlink:href="#m708b21aa3f" y="196.808947"/>
     <use style="fill:#1f77b4;stroke:#1f77b4;" x="418.35339" xlink:href="#m708b21aa3f" y="30.212761"/>
     <use style="fill:#1f77b4;stroke:#1f77b4;" x="400.097733" xlink:href="#m708b21aa3f" y="48.723247"/>
     <use style="fill:#1f77b4;stroke:#1f77b4;" x="381.842076" xlink:href="#m708b21aa3f" y="63.325249"/>
     <use style="fill:#1f77b4;stroke:#1f77b4;" x="335.484802" xlink:href="#m708b21aa3f" y="238.100803"/>
     <use style="fill:#1f77b4;stroke:#1f77b4;" x="308.365892" xlink:href="#m708b21aa3f" y="183.151903"/>
     <use style="fill:#1f77b4;stroke:#1f77b4;" x="371.580356" xlink:href="#m708b21aa3f" y="114.021385"/>
     <use style="fill:#1f77b4;stroke:#1f77b4;" x="443.790361" xlink:href="#m708b21aa3f" y="73.685359"/>
     <use style="fill:#1f77b4;stroke:#1f77b4;" x="434.927108" xlink:href="#m708b21aa3f" y="68.384353"/>
     <use style="fill:#1f77b4;stroke:#1f77b4;" x="398.793758" xlink:href="#m708b21aa3f" y="65.365561"/>
     <use style="fill:#1f77b4;stroke:#1f77b4;" x="389.703726" xlink:href="#m708b21aa3f" y="111.672127"/>
     <use style="fill:#1f77b4;stroke:#1f77b4;" x="299.238063" xlink:href="#m708b21aa3f" y="171.968239"/>
     <use style="fill:#1f77b4;stroke:#1f77b4;" x="353.570376" xlink:href="#m708b21aa3f" y="155.892175"/>
     <use style="fill:#1f77b4;stroke:#1f77b4;" x="416.917127" xlink:href="#m708b21aa3f" y="75.257269"/>
     <use style="fill:#1f77b4;stroke:#1f77b4;" x="407.827095" xlink:href="#m708b21aa3f" y="59.057989"/>
     <use style="fill:#1f77b4;stroke:#1f77b4;" x="317.418127" xlink:href="#m708b21aa3f" y="202.758649"/>
     <use style="fill:#1f77b4;stroke:#1f77b4;" x="380.575897" xlink:href="#m708b21aa3f" y="93.401731"/>
     <use style="fill:#1f77b4;stroke:#1f77b4;" x="326.451465" xlink:href="#m708b21aa3f" y="211.699057"/>
     <use style="fill:#1f77b4;stroke:#1f77b4;" x="344.555936" xlink:href="#m708b21aa3f" y="186.052915"/>
     <use style="fill:#1f77b4;stroke:#1f77b4;" x="362.584815" xlink:href="#m708b21aa3f" y="102.231607"/>
     <use style="fill:#1f77b4;stroke:#1f77b4;" x="299.238063" xlink:href="#m708b21aa3f" y="146.364679"/>
     <use style="fill:#1f77b4;stroke:#1f77b4;" x="425.931567" xlink:href="#m708b21aa3f" y="62.893087"/>
     <use style="fill:#1f77b4;stroke:#1f77b4;" x="217.635655" xlink:href="#m708b21aa3f" y="132.435835"/>
     <use style="fill:#1f77b4;stroke:#1f77b4;" x="226.782381" xlink:href="#m708b21aa3f" y="140.479303"/>
     <use style="fill:#1f77b4;stroke:#1f77b4;" x="208.640113" xlink:href="#m708b21aa3f" y="135.807061"/>
     <use style="fill:#1f77b4;stroke:#1f77b4;" x="290.166929" xlink:href="#m708b21aa3f" y="124.442197"/>
     <use style="fill:#1f77b4;stroke:#1f77b4;" x="263.066917" xlink:href="#m708b21aa3f" y="133.879093"/>
     <use style="fill:#1f77b4;stroke:#1f77b4;" x="244.943547" xlink:href="#m708b21aa3f" y="136.733899"/>
     <use style="fill:#1f77b4;stroke:#1f77b4;" x="235.872413" xlink:href="#m708b21aa3f" y="134.357461"/>
     <use style="fill:#1f77b4;stroke:#1f77b4;" x="281.133592" xlink:href="#m708b21aa3f" y="122.346619"/>
     <use style="fill:#1f77b4;stroke:#1f77b4;" x="272.081356" xlink:href="#m708b21aa3f" y="131.555203"/>
     <use style="fill:#1f77b4;stroke:#1f77b4;" x="254.071376" xlink:href="#m708b21aa3f" y="141.129811"/>
     <use style="fill:#1f77b4;stroke:#1f77b4;" x="328.341284" xlink:href="#m708b21aa3f" y="201.931471"/>
     <use style="fill:#1f77b4;stroke:#1f77b4;" x="322.898604" xlink:href="#m708b21aa3f" y="226.879087"/>
     <use style="fill:#1f77b4;stroke:#1f77b4;" x="272.119152" xlink:href="#m708b21aa3f" y="138.585763"/>
     <use style="fill:#1f77b4;stroke:#1f77b4;" x="335.579293" xlink:href="#m708b21aa3f" y="263.548531"/>
     <use style="fill:#1f77b4;stroke:#1f77b4;" x="299.219165" xlink:href="#m708b21aa3f" y="160.136785"/>
     <use style="fill:#1f77b4;stroke:#1f77b4;" x="306.532767" xlink:href="#m708b21aa3f" y="140.904217"/>
     <use style="fill:#1f77b4;stroke:#1f77b4;" x="293.814281" xlink:href="#m708b21aa3f" y="124.162243"/>
     <use style="fill:#1f77b4;stroke:#1f77b4;" x="266.714269" xlink:href="#m708b21aa3f" y="142.844869"/>
     <use style="fill:#1f77b4;stroke:#1f77b4;" x="282.966717" xlink:href="#m708b21aa3f" y="131.672983"/>
     <use style="fill:#1f77b4;stroke:#1f77b4;" x="313.808572" xlink:href="#m708b21aa3f" y="186.503197"/>
     <use style="fill:#1f77b4;stroke:#1f77b4;" x="302.866517" xlink:href="#m708b21aa3f" y="130.009567"/>
     <use style="fill:#1f77b4;stroke:#1f77b4;" x="277.542935" xlink:href="#m708b21aa3f" y="133.445119"/>
     <use style="fill:#1f77b4;stroke:#1f77b4;" x="310.180118" xlink:href="#m708b21aa3f" y="233.183035"/>
     <use style="fill:#1f77b4;stroke:#1f77b4;" x="277.542935" xlink:href="#m708b21aa3f" y="136.115101"/>
     <use style="fill:#1f77b4;stroke:#1f77b4;" x="288.390499" xlink:href="#m708b21aa3f" y="141.394363"/>
     <use style="fill:#1f77b4;stroke:#1f77b4;" x="317.455924" xlink:href="#m708b21aa3f" y="209.039947"/>
     <use style="fill:#1f77b4;stroke:#1f77b4;" x="272.138051" xlink:href="#m708b21aa3f" y="138.586669"/>
     <use style="fill:#1f77b4;stroke:#1f77b4;" x="282.815531" xlink:href="#m708b21aa3f" y="129.841957"/>
     <use style="fill:#1f77b4;stroke:#1f77b4;" x="190.327762" xlink:href="#m708b21aa3f" y="132.110581"/>
     <use style="fill:#1f77b4;stroke:#1f77b4;" x="244.678972" xlink:href="#m708b21aa3f" y="137.534803"/>
     <use style="fill:#1f77b4;stroke:#1f77b4;" x="208.451131" xlink:href="#m708b21aa3f" y="129.893599"/>
     <use style="fill:#1f77b4;stroke:#1f77b4;" x="172.242189" xlink:href="#m708b21aa3f" y="132.611599"/>
     <use style="fill:#1f77b4;stroke:#1f77b4;" x="136.222228" xlink:href="#m708b21aa3f" y="130.907413"/>
     <use style="fill:#1f77b4;stroke:#1f77b4;" x="226.536705" xlink:href="#m708b21aa3f" y="136.630615"/>
     <use style="fill:#1f77b4;stroke:#1f77b4;" x="154.137717" xlink:href="#m708b21aa3f" y="133.983283"/>
     <use style="fill:#1f77b4;stroke:#1f77b4;" x="226.536705" xlink:href="#m708b21aa3f" y="129.993259"/>
     <use style="fill:#1f77b4;stroke:#1f77b4;" x="235.607839" xlink:href="#m708b21aa3f" y="131.262565"/>
     <use style="fill:#1f77b4;stroke:#1f77b4;" x="217.408876" xlink:href="#m708b21aa3f" y="137.084521"/>
     <use style="fill:#1f77b4;stroke:#1f77b4;" x="244.678972" xlink:href="#m708b21aa3f" y="132.932323"/>
     <use style="fill:#1f77b4;stroke:#1f77b4;" x="262.82124" xlink:href="#m708b21aa3f" y="125.716939"/>
     <use style="fill:#1f77b4;stroke:#1f77b4;" x="271.816781" xlink:href="#m708b21aa3f" y="127.165633"/>
     <use style="fill:#1f77b4;stroke:#1f77b4;" x="208.413335" xlink:href="#m708b21aa3f" y="129.167893"/>
     <use style="fill:#1f77b4;stroke:#1f77b4;" x="199.531183" xlink:href="#m708b21aa3f" y="129.219535"/>
     <use style="fill:#1f77b4;stroke:#1f77b4;" x="253.769005" xlink:href="#m708b21aa3f" y="134.667313"/>
    </g>
   </g>
   <g id="PathCollection_2">
    <defs>
     <path d="M -3 3 
L 3 3 
L 3 -3 
L -3 -3 
z
" id="m42900da3a6" style="stroke:#2ca02c;"/>
    </defs>
    <g clip-path="url(#pfe535f8103)">
     <use style="fill:#2ca02c;stroke:#2ca02c;" x="379.371102" xlink:href="#m42900da3a6" y="805.797685"/>
     <use style="fill:#2ca02c;stroke:#2ca02c;" x="358.748608" xlink:href="#m42900da3a6" y="632.221675"/>
     <use style="fill:#2ca02c;stroke:#2ca02c;" x="339.491111" xlink:href="#m42900da3a6" y="339.521161"/>
     <use style="fill:#2ca02c;stroke:#2ca02c;" x="321.467543" xlink:href="#m42900da3a6" y="208.480945"/>
     <use style="fill:#2ca02c;stroke:#2ca02c;" x="304.562891" xlink:href="#m42900da3a6" y="204.234523"/>
     <use style="fill:#2ca02c;stroke:#2ca02c;" x="302.929972" xlink:href="#m42900da3a6" y="197.071687"/>
     <use style="fill:#2ca02c;stroke:#2ca02c;" x="301.307125" xlink:href="#m42900da3a6" y="196.005325"/>
     <use style="fill:#2ca02c;stroke:#2ca02c;" x="298.091285" xlink:href="#m42900da3a6" y="193.444063"/>
     <use style="fill:#2ca02c;stroke:#2ca02c;" x="296.49811" xlink:href="#m42900da3a6" y="191.646559"/>
     <use style="fill:#2ca02c;stroke:#2ca02c;" x="294.914644" xlink:href="#m42900da3a6" y="189.408739"/>
     <use style="fill:#2ca02c;stroke:#2ca02c;" x="291.776491" xlink:href="#m42900da3a6" y="184.333327"/>
     <use style="fill:#2ca02c;stroke:#2ca02c;" x="288.676131" xlink:href="#m42900da3a6" y="181.433221"/>
     <use style="fill:#2ca02c;stroke:#2ca02c;" x="285.61288" xlink:href="#m42900da3a6" y="173.795641"/>
     <use style="fill:#2ca02c;stroke:#2ca02c;" x="284.094966" xlink:href="#m42900da3a6" y="171.555103"/>
     <use style="fill:#2ca02c;stroke:#2ca02c;" x="282.586083" xlink:href="#m42900da3a6" y="169.612639"/>
     <use style="fill:#2ca02c;stroke:#2ca02c;" x="281.08615" xlink:href="#m42900da3a6" y="167.971873"/>
     <use style="fill:#2ca02c;stroke:#2ca02c;" x="279.595089" xlink:href="#m42900da3a6" y="166.753303"/>
     <use style="fill:#2ca02c;stroke:#2ca02c;" x="278.11282" xlink:href="#m42900da3a6" y="165.541075"/>
     <use style="fill:#2ca02c;stroke:#2ca02c;" x="276.639267" xlink:href="#m42900da3a6" y="164.655913"/>
     <use style="fill:#2ca02c;stroke:#2ca02c;" x="275.174353" xlink:href="#m42900da3a6" y="163.960105"/>
     <use style="fill:#2ca02c;stroke:#2ca02c;" x="273.717998" xlink:href="#m42900da3a6" y="166.203361"/>
     <use style="fill:#2ca02c;stroke:#2ca02c;" x="270.830688" xlink:href="#m42900da3a6" y="162.665431"/>
     <use style="fill:#2ca02c;stroke:#2ca02c;" x="259.609411" xlink:href="#m42900da3a6" y="164.241871"/>
     <use style="fill:#2ca02c;stroke:#2ca02c;" x="246.279949" xlink:href="#m42900da3a6" y="162.150823"/>
     <use style="fill:#2ca02c;stroke:#2ca02c;" x="233.666845" xlink:href="#m42900da3a6" y="162.133609"/>
     <use style="fill:#2ca02c;stroke:#2ca02c;" x="210.370461" xlink:href="#m42900da3a6" y="162.090121"/>
    </g>
   </g>
   <g id="PathCollection_3">
    <defs>
     <path d="M -0 4.242641 
L 4.242641 0 
L 0 -4.242641 
L -4.242641 -0 
z
" id="me3ee185b63" style="stroke:#d62728;"/>
    </defs>
    <g clip-path="url(#pfe535f8103)">
     <use style="fill:#d62728;stroke:#d62728;" x="321.292257" xlink:href="#me3ee185b63" y="203.516971"/>
     <use style="fill:#d62728;stroke:#d62728;" x="340.190453" xlink:href="#me3ee185b63" y="195.242473"/>
     <use style="fill:#d62728;stroke:#d62728;" x="359.088649" xlink:href="#me3ee185b63" y="168.901429"/>
     <use style="fill:#d62728;stroke:#d62728;" x="330.741355" xlink:href="#me3ee185b63" y="201.067147"/>
     <use style="fill:#d62728;stroke:#d62728;" x="349.639551" xlink:href="#me3ee185b63" y="182.090977"/>
     <use style="fill:#d62728;stroke:#d62728;" x="311.84316" xlink:href="#me3ee185b63" y="192.670339"/>
     <use style="fill:#d62728;stroke:#d62728;" x="226.801279" xlink:href="#me3ee185b63" y="164.869729"/>
     <use style="fill:#d62728;stroke:#d62728;" x="292.944964" xlink:href="#me3ee185b63" y="157.522069"/>
     <use style="fill:#d62728;stroke:#d62728;" x="274.046768" xlink:href="#me3ee185b63" y="159.048679"/>
     <use style="fill:#d62728;stroke:#d62728;" x="264.597671" xlink:href="#me3ee185b63" y="162.244141"/>
     <use style="fill:#d62728;stroke:#d62728;" x="245.699475" xlink:href="#me3ee185b63" y="161.401561"/>
     <use style="fill:#d62728;stroke:#d62728;" x="255.148573" xlink:href="#me3ee185b63" y="160.115947"/>
     <use style="fill:#d62728;stroke:#d62728;" x="226.801279" xlink:href="#me3ee185b63" y="166.456135"/>
     <use style="fill:#d62728;stroke:#d62728;" x="283.495866" xlink:href="#me3ee185b63" y="156.269977"/>
     <use style="fill:#d62728;stroke:#d62728;" x="207.903084" xlink:href="#me3ee185b63" y="165.869953"/>
     <use style="fill:#d62728;stroke:#d62728;" x="264.597671" xlink:href="#me3ee185b63" y="164.643229"/>
     <use style="fill:#d62728;stroke:#d62728;" x="283.495866" xlink:href="#me3ee185b63" y="155.633059"/>
     <use style="fill:#d62728;stroke:#d62728;" x="302.394062" xlink:href="#me3ee185b63" y="172.541737"/>
     <use style="fill:#d62728;stroke:#d62728;" x="302.394062" xlink:href="#me3ee185b63" y="169.254769"/>
     <use style="fill:#d62728;stroke:#d62728;" x="302.394062" xlink:href="#me3ee185b63" y="172.931317"/>
    </g>
   </g>
   <g id="matplotlib.axis_1">
    <g id="xtick_1">
     <g id="line2d_1">
      <defs>
       <path d="M 0 0 
L 0 -3.5 
" id="m328a0fee59" style="stroke:#000000;stroke-width:0.8;"/>
      </defs>
      <g>
       <use style="stroke:#000000;stroke-width:0.8;" x="47.268421" xlink:href="#m328a0fee59" y="282.799219"/>
      </g>
     </g>
     <g id="line2d_2">
      <defs>
       <path d="M 0 0 
L 0 3.5 
" id="mba80f10bfd" style="stroke:#000000;stroke-width:0.8;"/>
      </defs>
      <g>
       <use style="stroke:#000000;stroke-width:0.8;" x="47.268421" xlink:href="#mba80f10bfd" y="10.999219"/>
      </g>
     </g>
     <g id="text_1">
      <!-- 225 -->
      <defs>
       <path d="M 19.1875 8.296875 
L 53.609375 8.296875 
L 53.609375 0 
L 7.328125 0 
L 7.328125 8.296875 
Q 12.9375 14.109375 22.625 23.890625 
Q 32.328125 33.6875 34.8125 36.53125 
Q 39.546875 41.84375 41.421875 45.53125 
Q 43.3125 49.21875 43.3125 52.78125 
Q 43.3125 58.59375 39.234375 62.25 
Q 35.15625 65.921875 28.609375 65.921875 
Q 23.96875 65.921875 18.8125 64.3125 
Q 13.671875 62.703125 7.8125 59.421875 
L 7.8125 69.390625 
Q 13.765625 71.78125 18.9375 73 
Q 24.125 74.21875 28.421875 74.21875 
Q 39.75 74.21875 46.484375 68.546875 
Q 53.21875 62.890625 53.21875 53.421875 
Q 53.21875 48.921875 51.53125 44.890625 
Q 49.859375 40.875 45.40625 35.40625 
Q 44.1875 33.984375 37.640625 27.21875 
Q 31.109375 20.453125 19.1875 8.296875 
z
" id="DejaVuSans-32"/>
       <path d="M 10.796875 72.90625 
L 49.515625 72.90625 
L 49.515625 64.59375 
L 19.828125 64.59375 
L 19.828125 46.734375 
Q 21.96875 47.46875 24.109375 47.828125 
Q 26.265625 48.1875 28.421875 48.1875 
Q 40.625 48.1875 47.75 41.5 
Q 54.890625 34.8125 54.890625 23.390625 
Q 54.890625 11.625 47.5625 5.09375 
Q 40.234375 -1.421875 26.90625 -1.421875 
Q 22.3125 -1.421875 17.546875 -0.640625 
Q 12.796875 0.140625 7.71875 1.703125 
L 7.71875 11.625 
Q 12.109375 9.234375 16.796875 8.0625 
Q 21.484375 6.890625 26.703125 6.890625 
Q 35.15625 6.890625 40.078125 11.328125 
Q 45.015625 15.765625 45.015625 23.390625 
Q 45.015625 31 40.078125 35.4375 
Q 35.15625 39.890625 26.703125 39.890625 
Q 22.75 39.890625 18.8125 39.015625 
Q 14.890625 38.140625 10.796875 36.28125 
z
" id="DejaVuSans-35"/>
      </defs>
      <g transform="translate(37.724671 293.897656)scale(0.1 -0.1)">
       <use xlink:href="#DejaVuSans-32"/>
       <use x="63.623047" xlink:href="#DejaVuSans-32"/>
       <use x="127.246094" xlink:href="#DejaVuSans-35"/>
      </g>
     </g>
    </g>
    <g id="xtick_2">
     <g id="line2d_3">
      <g>
       <use style="stroke:#000000;stroke-width:0.8;" x="94.51391" xlink:href="#m328a0fee59" y="282.799219"/>
      </g>
     </g>
     <g id="line2d_4">
      <g>
       <use style="stroke:#000000;stroke-width:0.8;" x="94.51391" xlink:href="#mba80f10bfd" y="10.999219"/>
      </g>
     </g>
     <g id="text_2">
      <!-- 250 -->
      <defs>
       <path d="M 31.78125 66.40625 
Q 24.171875 66.40625 20.328125 58.90625 
Q 16.5 51.421875 16.5 36.375 
Q 16.5 21.390625 20.328125 13.890625 
Q 24.171875 6.390625 31.78125 6.390625 
Q 39.453125 6.390625 43.28125 13.890625 
Q 47.125 21.390625 47.125 36.375 
Q 47.125 51.421875 43.28125 58.90625 
Q 39.453125 66.40625 31.78125 66.40625 
z
M 31.78125 74.21875 
Q 44.046875 74.21875 50.515625 64.515625 
Q 56.984375 54.828125 56.984375 36.375 
Q 56.984375 17.96875 50.515625 8.265625 
Q 44.046875 -1.421875 31.78125 -1.421875 
Q 19.53125 -1.421875 13.0625 8.265625 
Q 6.59375 17.96875 6.59375 36.375 
Q 6.59375 54.828125 13.0625 64.515625 
Q 19.53125 74.21875 31.78125 74.21875 
z
" id="DejaVuSans-30"/>
      </defs>
      <g transform="translate(84.97016 293.897656)scale(0.1 -0.1)">
       <use xlink:href="#DejaVuSans-32"/>
       <use x="63.623047" xlink:href="#DejaVuSans-35"/>
       <use x="127.246094" xlink:href="#DejaVuSans-30"/>
      </g>
     </g>
    </g>
    <g id="xtick_3">
     <g id="line2d_5">
      <g>
       <use style="stroke:#000000;stroke-width:0.8;" x="141.759399" xlink:href="#m328a0fee59" y="282.799219"/>
      </g>
     </g>
     <g id="line2d_6">
      <g>
       <use style="stroke:#000000;stroke-width:0.8;" x="141.759399" xlink:href="#mba80f10bfd" y="10.999219"/>
      </g>
     </g>
     <g id="text_3">
      <!-- 275 -->
      <defs>
       <path d="M 8.203125 72.90625 
L 55.078125 72.90625 
L 55.078125 68.703125 
L 28.609375 0 
L 18.3125 0 
L 43.21875 64.59375 
L 8.203125 64.59375 
z
" id="DejaVuSans-37"/>
      </defs>
      <g transform="translate(132.215649 293.897656)scale(0.1 -0.1)">
       <use xlink:href="#DejaVuSans-32"/>
       <use x="63.623047" xlink:href="#DejaVuSans-37"/>
       <use x="127.246094" xlink:href="#DejaVuSans-35"/>
      </g>
     </g>
    </g>
    <g id="xtick_4">
     <g id="line2d_7">
      <g>
       <use style="stroke:#000000;stroke-width:0.8;" x="189.004888" xlink:href="#m328a0fee59" y="282.799219"/>
      </g>
     </g>
     <g id="line2d_8">
      <g>
       <use style="stroke:#000000;stroke-width:0.8;" x="189.004888" xlink:href="#mba80f10bfd" y="10.999219"/>
      </g>
     </g>
     <g id="text_4">
      <!-- 300 -->
      <defs>
       <path d="M 40.578125 39.3125 
Q 47.65625 37.796875 51.625 33 
Q 55.609375 28.21875 55.609375 21.1875 
Q 55.609375 10.40625 48.1875 4.484375 
Q 40.765625 -1.421875 27.09375 -1.421875 
Q 22.515625 -1.421875 17.65625 -0.515625 
Q 12.796875 0.390625 7.625 2.203125 
L 7.625 11.71875 
Q 11.71875 9.328125 16.59375 8.109375 
Q 21.484375 6.890625 26.8125 6.890625 
Q 36.078125 6.890625 40.9375 10.546875 
Q 45.796875 14.203125 45.796875 21.1875 
Q 45.796875 27.640625 41.28125 31.265625 
Q 36.765625 34.90625 28.71875 34.90625 
L 20.21875 34.90625 
L 20.21875 43.015625 
L 29.109375 43.015625 
Q 36.375 43.015625 40.234375 45.921875 
Q 44.09375 48.828125 44.09375 54.296875 
Q 44.09375 59.90625 40.109375 62.90625 
Q 36.140625 65.921875 28.71875 65.921875 
Q 24.65625 65.921875 20.015625 65.03125 
Q 15.375 64.15625 9.8125 62.3125 
L 9.8125 71.09375 
Q 15.4375 72.65625 20.34375 73.4375 
Q 25.25 74.21875 29.59375 74.21875 
Q 40.828125 74.21875 47.359375 69.109375 
Q 53.90625 64.015625 53.90625 55.328125 
Q 53.90625 49.265625 50.4375 45.09375 
Q 46.96875 40.921875 40.578125 39.3125 
z
" id="DejaVuSans-33"/>
      </defs>
      <g transform="translate(179.461138 293.897656)scale(0.1 -0.1)">
       <use xlink:href="#DejaVuSans-33"/>
       <use x="63.623047" xlink:href="#DejaVuSans-30"/>
       <use x="127.246094" xlink:href="#DejaVuSans-30"/>
      </g>
     </g>
    </g>
    <g id="xtick_5">
     <g id="line2d_9">
      <g>
       <use style="stroke:#000000;stroke-width:0.8;" x="236.250377" xlink:href="#m328a0fee59" y="282.799219"/>
      </g>
     </g>
     <g id="line2d_10">
      <g>
       <use style="stroke:#000000;stroke-width:0.8;" x="236.250377" xlink:href="#mba80f10bfd" y="10.999219"/>
      </g>
     </g>
     <g id="text_5">
      <!-- 325 -->
      <g transform="translate(226.706627 293.897656)scale(0.1 -0.1)">
       <use xlink:href="#DejaVuSans-33"/>
       <use x="63.623047" xlink:href="#DejaVuSans-32"/>
       <use x="127.246094" xlink:href="#DejaVuSans-35"/>
      </g>
     </g>
    </g>
    <g id="xtick_6">
     <g id="line2d_11">
      <g>
       <use style="stroke:#000000;stroke-width:0.8;" x="283.495866" xlink:href="#m328a0fee59" y="282.799219"/>
      </g>
     </g>
     <g id="line2d_12">
      <g>
       <use style="stroke:#000000;stroke-width:0.8;" x="283.495866" xlink:href="#mba80f10bfd" y="10.999219"/>
      </g>
     </g>
     <g id="text_6">
      <!-- 350 -->
      <g transform="translate(273.952116 293.897656)scale(0.1 -0.1)">
       <use xlink:href="#DejaVuSans-33"/>
       <use x="63.623047" xlink:href="#DejaVuSans-35"/>
       <use x="127.246094" xlink:href="#DejaVuSans-30"/>
      </g>
     </g>
    </g>
    <g id="xtick_7">
     <g id="line2d_13">
      <g>
       <use style="stroke:#000000;stroke-width:0.8;" x="330.741355" xlink:href="#m328a0fee59" y="282.799219"/>
      </g>
     </g>
     <g id="line2d_14">
      <g>
       <use style="stroke:#000000;stroke-width:0.8;" x="330.741355" xlink:href="#mba80f10bfd" y="10.999219"/>
      </g>
     </g>
     <g id="text_7">
      <!-- 375 -->
      <g transform="translate(321.197605 293.897656)scale(0.1 -0.1)">
       <use xlink:href="#DejaVuSans-33"/>
       <use x="63.623047" xlink:href="#DejaVuSans-37"/>
       <use x="127.246094" xlink:href="#DejaVuSans-35"/>
      </g>
     </g>
    </g>
    <g id="xtick_8">
     <g id="line2d_15">
      <g>
       <use style="stroke:#000000;stroke-width:0.8;" x="377.986844" xlink:href="#m328a0fee59" y="282.799219"/>
      </g>
     </g>
     <g id="line2d_16">
      <g>
       <use style="stroke:#000000;stroke-width:0.8;" x="377.986844" xlink:href="#mba80f10bfd" y="10.999219"/>
      </g>
     </g>
     <g id="text_8">
      <!-- 400 -->
      <defs>
       <path d="M 37.796875 64.3125 
L 12.890625 25.390625 
L 37.796875 25.390625 
z
M 35.203125 72.90625 
L 47.609375 72.90625 
L 47.609375 25.390625 
L 58.015625 25.390625 
L 58.015625 17.1875 
L 47.609375 17.1875 
L 47.609375 0 
L 37.796875 0 
L 37.796875 17.1875 
L 4.890625 17.1875 
L 4.890625 26.703125 
z
" id="DejaVuSans-34"/>
      </defs>
      <g transform="translate(368.443094 293.897656)scale(0.1 -0.1)">
       <use xlink:href="#DejaVuSans-34"/>
       <use x="63.623047" xlink:href="#DejaVuSans-30"/>
       <use x="127.246094" xlink:href="#DejaVuSans-30"/>
      </g>
     </g>
    </g>
    <g id="xtick_9">
     <g id="line2d_17">
      <g>
       <use style="stroke:#000000;stroke-width:0.8;" x="425.232333" xlink:href="#m328a0fee59" y="282.799219"/>
      </g>
     </g>
     <g id="line2d_18">
      <g>
       <use style="stroke:#000000;stroke-width:0.8;" x="425.232333" xlink:href="#mba80f10bfd" y="10.999219"/>
      </g>
     </g>
     <g id="text_9">
      <!-- 425 -->
      <g transform="translate(415.688583 293.897656)scale(0.1 -0.1)">
       <use xlink:href="#DejaVuSans-34"/>
       <use x="63.623047" xlink:href="#DejaVuSans-32"/>
       <use x="127.246094" xlink:href="#DejaVuSans-35"/>
      </g>
     </g>
    </g>
    <g id="text_10">
     <!-- Temperatur [K] -->
     <defs>
      <path d="M -0.296875 72.90625 
L 61.375 72.90625 
L 61.375 64.59375 
L 35.5 64.59375 
L 35.5 0 
L 25.59375 0 
L 25.59375 64.59375 
L -0.296875 64.59375 
z
" id="DejaVuSans-54"/>
      <path d="M 56.203125 29.59375 
L 56.203125 25.203125 
L 14.890625 25.203125 
Q 15.484375 15.921875 20.484375 11.0625 
Q 25.484375 6.203125 34.421875 6.203125 
Q 39.59375 6.203125 44.453125 7.46875 
Q 49.3125 8.734375 54.109375 11.28125 
L 54.109375 2.78125 
Q 49.265625 0.734375 44.1875 -0.34375 
Q 39.109375 -1.421875 33.890625 -1.421875 
Q 20.796875 -1.421875 13.15625 6.1875 
Q 5.515625 13.8125 5.515625 26.8125 
Q 5.515625 40.234375 12.765625 48.109375 
Q 20.015625 56 32.328125 56 
Q 43.359375 56 49.78125 48.890625 
Q 56.203125 41.796875 56.203125 29.59375 
z
M 47.21875 32.234375 
Q 47.125 39.59375 43.09375 43.984375 
Q 39.0625 48.390625 32.421875 48.390625 
Q 24.90625 48.390625 20.390625 44.140625 
Q 15.875 39.890625 15.1875 32.171875 
z
" id="DejaVuSans-65"/>
      <path d="M 52 44.1875 
Q 55.375 50.25 60.0625 53.125 
Q 64.75 56 71.09375 56 
Q 79.640625 56 84.28125 50.015625 
Q 88.921875 44.046875 88.921875 33.015625 
L 88.921875 0 
L 79.890625 0 
L 79.890625 32.71875 
Q 79.890625 40.578125 77.09375 44.375 
Q 74.3125 48.1875 68.609375 48.1875 
Q 61.625 48.1875 57.5625 43.546875 
Q 53.515625 38.921875 53.515625 30.90625 
L 53.515625 0 
L 44.484375 0 
L 44.484375 32.71875 
Q 44.484375 40.625 41.703125 44.40625 
Q 38.921875 48.1875 33.109375 48.1875 
Q 26.21875 48.1875 22.15625 43.53125 
Q 18.109375 38.875 18.109375 30.90625 
L 18.109375 0 
L 9.078125 0 
L 9.078125 54.6875 
L 18.109375 54.6875 
L 18.109375 46.1875 
Q 21.1875 51.21875 25.484375 53.609375 
Q 29.78125 56 35.6875 56 
Q 41.65625 56 45.828125 52.96875 
Q 50 49.953125 52 44.1875 
z
" id="DejaVuSans-6d"/>
      <path d="M 18.109375 8.203125 
L 18.109375 -20.796875 
L 9.078125 -20.796875 
L 9.078125 54.6875 
L 18.109375 54.6875 
L 18.109375 46.390625 
Q 20.953125 51.265625 25.265625 53.625 
Q 29.59375 56 35.59375 56 
Q 45.5625 56 51.78125 48.09375 
Q 58.015625 40.1875 58.015625 27.296875 
Q 58.015625 14.40625 51.78125 6.484375 
Q 45.5625 -1.421875 35.59375 -1.421875 
Q 29.59375 -1.421875 25.265625 0.953125 
Q 20.953125 3.328125 18.109375 8.203125 
z
M 48.6875 27.296875 
Q 48.6875 37.203125 44.609375 42.84375 
Q 40.53125 48.484375 33.40625 48.484375 
Q 26.265625 48.484375 22.1875 42.84375 
Q 18.109375 37.203125 18.109375 27.296875 
Q 18.109375 17.390625 22.1875 11.75 
Q 26.265625 6.109375 33.40625 6.109375 
Q 40.53125 6.109375 44.609375 11.75 
Q 48.6875 17.390625 48.6875 27.296875 
z
" id="DejaVuSans-70"/>
      <path d="M 41.109375 46.296875 
Q 39.59375 47.171875 37.8125 47.578125 
Q 36.03125 48 33.890625 48 
Q 26.265625 48 22.1875 43.046875 
Q 18.109375 38.09375 18.109375 28.8125 
L 18.109375 0 
L 9.078125 0 
L 9.078125 54.6875 
L 18.109375 54.6875 
L 18.109375 46.1875 
Q 20.953125 51.171875 25.484375 53.578125 
Q 30.03125 56 36.53125 56 
Q 37.453125 56 38.578125 55.875 
Q 39.703125 55.765625 41.0625 55.515625 
z
" id="DejaVuSans-72"/>
      <path d="M 34.28125 27.484375 
Q 23.390625 27.484375 19.1875 25 
Q 14.984375 22.515625 14.984375 16.5 
Q 14.984375 11.71875 18.140625 8.90625 
Q 21.296875 6.109375 26.703125 6.109375 
Q 34.1875 6.109375 38.703125 11.40625 
Q 43.21875 16.703125 43.21875 25.484375 
L 43.21875 27.484375 
z
M 52.203125 31.203125 
L 52.203125 0 
L 43.21875 0 
L 43.21875 8.296875 
Q 40.140625 3.328125 35.546875 0.953125 
Q 30.953125 -1.421875 24.3125 -1.421875 
Q 15.921875 -1.421875 10.953125 3.296875 
Q 6 8.015625 6 15.921875 
Q 6 25.140625 12.171875 29.828125 
Q 18.359375 34.515625 30.609375 34.515625 
L 43.21875 34.515625 
L 43.21875 35.40625 
Q 43.21875 41.609375 39.140625 45 
Q 35.0625 48.390625 27.6875 48.390625 
Q 23 48.390625 18.546875 47.265625 
Q 14.109375 46.140625 10.015625 43.890625 
L 10.015625 52.203125 
Q 14.9375 54.109375 19.578125 55.046875 
Q 24.21875 56 28.609375 56 
Q 40.484375 56 46.34375 49.84375 
Q 52.203125 43.703125 52.203125 31.203125 
z
" id="DejaVuSans-61"/>
      <path d="M 18.3125 70.21875 
L 18.3125 54.6875 
L 36.8125 54.6875 
L 36.8125 47.703125 
L 18.3125 47.703125 
L 18.3125 18.015625 
Q 18.3125 11.328125 20.140625 9.421875 
Q 21.96875 7.515625 27.59375 7.515625 
L 36.8125 7.515625 
L 36.8125 0 
L 27.59375 0 
Q 17.1875 0 13.234375 3.875 
Q 9.28125 7.765625 9.28125 18.015625 
L 9.28125 47.703125 
L 2.6875 47.703125 
L 2.6875 54.6875 
L 9.28125 54.6875 
L 9.28125 70.21875 
z
" id="DejaVuSans-74"/>
      <path d="M 8.5 21.578125 
L 8.5 54.6875 
L 17.484375 54.6875 
L 17.484375 21.921875 
Q 17.484375 14.15625 20.5 10.265625 
Q 23.53125 6.390625 29.59375 6.390625 
Q 36.859375 6.390625 41.078125 11.03125 
Q 45.3125 15.671875 45.3125 23.6875 
L 45.3125 54.6875 
L 54.296875 54.6875 
L 54.296875 0 
L 45.3125 0 
L 45.3125 8.40625 
Q 42.046875 3.421875 37.71875 1 
Q 33.40625 -1.421875 27.6875 -1.421875 
Q 18.265625 -1.421875 13.375 4.4375 
Q 8.5 10.296875 8.5 21.578125 
z
M 31.109375 56 
z
" id="DejaVuSans-75"/>
      <path id="DejaVuSans-20"/>
      <path d="M 8.59375 75.984375 
L 29.296875 75.984375 
L 29.296875 69 
L 17.578125 69 
L 17.578125 -6.203125 
L 29.296875 -6.203125 
L 29.296875 -13.1875 
L 8.59375 -13.1875 
z
" id="DejaVuSans-5b"/>
      <path d="M 9.8125 72.90625 
L 19.671875 72.90625 
L 19.671875 42.09375 
L 52.390625 72.90625 
L 65.09375 72.90625 
L 28.90625 38.921875 
L 67.671875 0 
L 54.6875 0 
L 19.671875 35.109375 
L 19.671875 0 
L 9.8125 0 
z
" id="DejaVuSans-4b"/>
      <path d="M 30.421875 75.984375 
L 30.421875 -13.1875 
L 9.71875 -13.1875 
L 9.71875 -6.203125 
L 21.390625 -6.203125 
L 21.390625 69 
L 9.71875 69 
L 9.71875 75.984375 
z
" id="DejaVuSans-5d"/>
     </defs>
     <g transform="translate(216.421094 307.575781)scale(0.1 -0.1)">
      <use xlink:href="#DejaVuSans-54"/>
      <use x="60.818359" xlink:href="#DejaVuSans-65"/>
      <use x="122.341797" xlink:href="#DejaVuSans-6d"/>
      <use x="219.753906" xlink:href="#DejaVuSans-70"/>
      <use x="283.230469" xlink:href="#DejaVuSans-65"/>
      <use x="344.753906" xlink:href="#DejaVuSans-72"/>
      <use x="385.867188" xlink:href="#DejaVuSans-61"/>
      <use x="447.146484" xlink:href="#DejaVuSans-74"/>
      <use x="486.355469" xlink:href="#DejaVuSans-75"/>
      <use x="549.734375" xlink:href="#DejaVuSans-72"/>
      <use x="590.847656" xlink:href="#DejaVuSans-20"/>
      <use x="622.634766" xlink:href="#DejaVuSans-5b"/>
      <use x="661.648438" xlink:href="#DejaVuSans-4b"/>
      <use x="727.224609" xlink:href="#DejaVuSans-5d"/>
     </g>
    </g>
   </g>
   <g id="matplotlib.axis_2">
    <g id="ytick_1">
     <g id="line2d_19">
      <defs>
       <path d="M 0 0 
L 3.5 0 
" id="m0eb12d2f1b" style="stroke:#000000;stroke-width:0.8;"/>
      </defs>
      <g>
       <use style="stroke:#000000;stroke-width:0.8;" x="45.482813" xlink:href="#m0eb12d2f1b" y="282.799219"/>
      </g>
     </g>
     <g id="line2d_20">
      <defs>
       <path d="M 0 0 
L -3.5 0 
" id="mb0e495b370" style="stroke:#000000;stroke-width:0.8;"/>
      </defs>
      <g>
       <use style="stroke:#000000;stroke-width:0.8;" x="463.982813" xlink:href="#mb0e495b370" y="282.799219"/>
      </g>
     </g>
     <g id="text_11">
      <!-- −25 -->
      <defs>
       <path d="M 10.59375 35.5 
L 73.1875 35.5 
L 73.1875 27.203125 
L 10.59375 27.203125 
z
" id="DejaVuSans-2212"/>
      </defs>
      <g transform="translate(20.878125 286.598437)scale(0.1 -0.1)">
       <use xlink:href="#DejaVuSans-2212"/>
       <use x="83.789062" xlink:href="#DejaVuSans-32"/>
       <use x="147.412109" xlink:href="#DejaVuSans-35"/>
      </g>
     </g>
    </g>
    <g id="ytick_2">
     <g id="line2d_21">
      <g>
       <use style="stroke:#000000;stroke-width:0.8;" x="45.482813" xlink:href="#m0eb12d2f1b" y="237.499219"/>
      </g>
     </g>
     <g id="line2d_22">
      <g>
       <use style="stroke:#000000;stroke-width:0.8;" x="463.982813" xlink:href="#mb0e495b370" y="237.499219"/>
      </g>
     </g>
     <g id="text_12">
      <!-- −20 -->
      <g transform="translate(20.878125 241.298437)scale(0.1 -0.1)">
       <use xlink:href="#DejaVuSans-2212"/>
       <use x="83.789062" xlink:href="#DejaVuSans-32"/>
       <use x="147.412109" xlink:href="#DejaVuSans-30"/>
      </g>
     </g>
    </g>
    <g id="ytick_3">
     <g id="line2d_23">
      <g>
       <use style="stroke:#000000;stroke-width:0.8;" x="45.482813" xlink:href="#m0eb12d2f1b" y="192.199219"/>
      </g>
     </g>
     <g id="line2d_24">
      <g>
       <use style="stroke:#000000;stroke-width:0.8;" x="463.982813" xlink:href="#mb0e495b370" y="192.199219"/>
      </g>
     </g>
     <g id="text_13">
      <!-- −15 -->
      <defs>
       <path d="M 12.40625 8.296875 
L 28.515625 8.296875 
L 28.515625 63.921875 
L 10.984375 60.40625 
L 10.984375 69.390625 
L 28.421875 72.90625 
L 38.28125 72.90625 
L 38.28125 8.296875 
L 54.390625 8.296875 
L 54.390625 0 
L 12.40625 0 
z
" id="DejaVuSans-31"/>
      </defs>
      <g transform="translate(20.878125 195.998437)scale(0.1 -0.1)">
       <use xlink:href="#DejaVuSans-2212"/>
       <use x="83.789062" xlink:href="#DejaVuSans-31"/>
       <use x="147.412109" xlink:href="#DejaVuSans-35"/>
      </g>
     </g>
    </g>
    <g id="ytick_4">
     <g id="line2d_25">
      <g>
       <use style="stroke:#000000;stroke-width:0.8;" x="45.482813" xlink:href="#m0eb12d2f1b" y="146.899219"/>
      </g>
     </g>
     <g id="line2d_26">
      <g>
       <use style="stroke:#000000;stroke-width:0.8;" x="463.982813" xlink:href="#mb0e495b370" y="146.899219"/>
      </g>
     </g>
     <g id="text_14">
      <!-- −10 -->
      <g transform="translate(20.878125 150.698437)scale(0.1 -0.1)">
       <use xlink:href="#DejaVuSans-2212"/>
       <use x="83.789062" xlink:href="#DejaVuSans-31"/>
       <use x="147.412109" xlink:href="#DejaVuSans-30"/>
      </g>
     </g>
    </g>
    <g id="ytick_5">
     <g id="line2d_27">
      <g>
       <use style="stroke:#000000;stroke-width:0.8;" x="45.482813" xlink:href="#m0eb12d2f1b" y="101.599219"/>
      </g>
     </g>
     <g id="line2d_28">
      <g>
       <use style="stroke:#000000;stroke-width:0.8;" x="463.982813" xlink:href="#mb0e495b370" y="101.599219"/>
      </g>
     </g>
     <g id="text_15">
      <!-- −5 -->
      <g transform="translate(27.240625 105.398437)scale(0.1 -0.1)">
       <use xlink:href="#DejaVuSans-2212"/>
       <use x="83.789062" xlink:href="#DejaVuSans-35"/>
      </g>
     </g>
    </g>
    <g id="ytick_6">
     <g id="line2d_29">
      <g>
       <use style="stroke:#000000;stroke-width:0.8;" x="45.482813" xlink:href="#m0eb12d2f1b" y="56.299219"/>
      </g>
     </g>
     <g id="line2d_30">
      <g>
       <use style="stroke:#000000;stroke-width:0.8;" x="463.982813" xlink:href="#mb0e495b370" y="56.299219"/>
      </g>
     </g>
     <g id="text_16">
      <!-- 0 -->
      <g transform="translate(35.620312 60.098437)scale(0.1 -0.1)">
       <use xlink:href="#DejaVuSans-30"/>
      </g>
     </g>
    </g>
    <g id="ytick_7">
     <g id="line2d_31">
      <g>
       <use style="stroke:#000000;stroke-width:0.8;" x="45.482813" xlink:href="#m0eb12d2f1b" y="10.999219"/>
      </g>
     </g>
     <g id="line2d_32">
      <g>
       <use style="stroke:#000000;stroke-width:0.8;" x="463.982813" xlink:href="#mb0e495b370" y="10.999219"/>
      </g>
     </g>
     <g id="text_17">
      <!-- 5 -->
      <g transform="translate(35.620312 14.798437)scale(0.1 -0.1)">
       <use xlink:href="#DejaVuSans-35"/>
      </g>
     </g>
    </g>
    <g id="text_18">
     <!-- Schwerpunkt [kHz] -->
     <defs>
      <path d="M 53.515625 70.515625 
L 53.515625 60.890625 
Q 47.90625 63.578125 42.921875 64.890625 
Q 37.9375 66.21875 33.296875 66.21875 
Q 25.25 66.21875 20.875 63.09375 
Q 16.5 59.96875 16.5 54.203125 
Q 16.5 49.359375 19.40625 46.890625 
Q 22.3125 44.4375 30.421875 42.921875 
L 36.375 41.703125 
Q 47.40625 39.59375 52.65625 34.296875 
Q 57.90625 29 57.90625 20.125 
Q 57.90625 9.515625 50.796875 4.046875 
Q 43.703125 -1.421875 29.984375 -1.421875 
Q 24.8125 -1.421875 18.96875 -0.25 
Q 13.140625 0.921875 6.890625 3.21875 
L 6.890625 13.375 
Q 12.890625 10.015625 18.65625 8.296875 
Q 24.421875 6.59375 29.984375 6.59375 
Q 38.421875 6.59375 43.015625 9.90625 
Q 47.609375 13.234375 47.609375 19.390625 
Q 47.609375 24.75 44.3125 27.78125 
Q 41.015625 30.8125 33.5 32.328125 
L 27.484375 33.5 
Q 16.453125 35.6875 11.515625 40.375 
Q 6.59375 45.0625 6.59375 53.421875 
Q 6.59375 63.09375 13.40625 68.65625 
Q 20.21875 74.21875 32.171875 74.21875 
Q 37.3125 74.21875 42.625 73.28125 
Q 47.953125 72.359375 53.515625 70.515625 
z
" id="DejaVuSans-53"/>
      <path d="M 48.78125 52.59375 
L 48.78125 44.1875 
Q 44.96875 46.296875 41.140625 47.34375 
Q 37.3125 48.390625 33.40625 48.390625 
Q 24.65625 48.390625 19.8125 42.84375 
Q 14.984375 37.3125 14.984375 27.296875 
Q 14.984375 17.28125 19.8125 11.734375 
Q 24.65625 6.203125 33.40625 6.203125 
Q 37.3125 6.203125 41.140625 7.25 
Q 44.96875 8.296875 48.78125 10.40625 
L 48.78125 2.09375 
Q 45.015625 0.34375 40.984375 -0.53125 
Q 36.96875 -1.421875 32.421875 -1.421875 
Q 20.0625 -1.421875 12.78125 6.34375 
Q 5.515625 14.109375 5.515625 27.296875 
Q 5.515625 40.671875 12.859375 48.328125 
Q 20.21875 56 33.015625 56 
Q 37.15625 56 41.109375 55.140625 
Q 45.0625 54.296875 48.78125 52.59375 
z
" id="DejaVuSans-63"/>
      <path d="M 54.890625 33.015625 
L 54.890625 0 
L 45.90625 0 
L 45.90625 32.71875 
Q 45.90625 40.484375 42.875 44.328125 
Q 39.84375 48.1875 33.796875 48.1875 
Q 26.515625 48.1875 22.3125 43.546875 
Q 18.109375 38.921875 18.109375 30.90625 
L 18.109375 0 
L 9.078125 0 
L 9.078125 75.984375 
L 18.109375 75.984375 
L 18.109375 46.1875 
Q 21.34375 51.125 25.703125 53.5625 
Q 30.078125 56 35.796875 56 
Q 45.21875 56 50.046875 50.171875 
Q 54.890625 44.34375 54.890625 33.015625 
z
" id="DejaVuSans-68"/>
      <path d="M 4.203125 54.6875 
L 13.1875 54.6875 
L 24.421875 12.015625 
L 35.59375 54.6875 
L 46.1875 54.6875 
L 57.421875 12.015625 
L 68.609375 54.6875 
L 77.59375 54.6875 
L 63.28125 0 
L 52.6875 0 
L 40.921875 44.828125 
L 29.109375 0 
L 18.5 0 
z
" id="DejaVuSans-77"/>
      <path d="M 54.890625 33.015625 
L 54.890625 0 
L 45.90625 0 
L 45.90625 32.71875 
Q 45.90625 40.484375 42.875 44.328125 
Q 39.84375 48.1875 33.796875 48.1875 
Q 26.515625 48.1875 22.3125 43.546875 
Q 18.109375 38.921875 18.109375 30.90625 
L 18.109375 0 
L 9.078125 0 
L 9.078125 54.6875 
L 18.109375 54.6875 
L 18.109375 46.1875 
Q 21.34375 51.125 25.703125 53.5625 
Q 30.078125 56 35.796875 56 
Q 45.21875 56 50.046875 50.171875 
Q 54.890625 44.34375 54.890625 33.015625 
z
" id="DejaVuSans-6e"/>
      <path d="M 9.078125 75.984375 
L 18.109375 75.984375 
L 18.109375 31.109375 
L 44.921875 54.6875 
L 56.390625 54.6875 
L 27.390625 29.109375 
L 57.625 0 
L 45.90625 0 
L 18.109375 26.703125 
L 18.109375 0 
L 9.078125 0 
z
" id="DejaVuSans-6b"/>
      <path d="M 9.8125 72.90625 
L 19.671875 72.90625 
L 19.671875 43.015625 
L 55.515625 43.015625 
L 55.515625 72.90625 
L 65.375 72.90625 
L 65.375 0 
L 55.515625 0 
L 55.515625 34.71875 
L 19.671875 34.71875 
L 19.671875 0 
L 9.8125 0 
z
" id="DejaVuSans-48"/>
      <path d="M 5.515625 54.6875 
L 48.1875 54.6875 
L 48.1875 46.484375 
L 14.40625 7.171875 
L 48.1875 7.171875 
L 48.1875 0 
L 4.296875 0 
L 4.296875 8.203125 
L 38.09375 47.515625 
L 5.515625 47.515625 
z
" id="DejaVuSans-7a"/>
     </defs>
     <g transform="translate(14.798437 194.35)rotate(-90)scale(0.1 -0.1)">
      <use xlink:href="#DejaVuSans-53"/>
      <use x="63.476562" xlink:href="#DejaVuSans-63"/>
      <use x="118.457031" xlink:href="#DejaVuSans-68"/>
      <use x="181.835938" xlink:href="#DejaVuSans-77"/>
      <use x="263.623047" xlink:href="#DejaVuSans-65"/>
      <use x="325.146484" xlink:href="#DejaVuSans-72"/>
      <use x="366.259766" xlink:href="#DejaVuSans-70"/>
      <use x="429.736328" xlink:href="#DejaVuSans-75"/>
      <use x="493.115234" xlink:href="#DejaVuSans-6e"/>
      <use x="556.494141" xlink:href="#DejaVuSans-6b"/>
      <use x="614.404297" xlink:href="#DejaVuSans-74"/>
      <use x="653.613281" xlink:href="#DejaVuSans-20"/>
      <use x="685.400391" xlink:href="#DejaVuSans-5b"/>
      <use x="724.414062" xlink:href="#DejaVuSans-6b"/>
      <use x="782.324219" xlink:href="#DejaVuSans-48"/>
      <use x="857.519531" xlink:href="#DejaVuSans-7a"/>
      <use x="910.009766" xlink:href="#DejaVuSans-5d"/>
     </g>
    </g>
   </g>
   <g id="patch_3">
    <path d="M 45.482813 282.799219 
L 45.482813 10.999219 
" style="fill:none;stroke:#000000;stroke-linecap:square;stroke-linejoin:miter;stroke-width:0.8;"/>
   </g>
   <g id="patch_4">
    <path d="M 463.982813 282.799219 
L 463.982813 10.999219 
" style="fill:none;stroke:#000000;stroke-linecap:square;stroke-linejoin:miter;stroke-width:0.8;"/>
   </g>
   <g id="patch_5">
    <path d="M 45.482813 282.799219 
L 463.982812 282.799219 
" style="fill:none;stroke:#000000;stroke-linecap:square;stroke-linejoin:miter;stroke-width:0.8;"/>
   </g>
   <g id="patch_6">
    <path d="M 45.482813 10.999219 
L 463.982812 10.999219 
" style="fill:none;stroke:#000000;stroke-linecap:square;stroke-linejoin:miter;stroke-width:0.8;"/>
   </g>
   <g id="legend_1">
    <g id="patch_7">
     <path d="M 52.482813 277.799219 
L 137.748437 277.799219 
Q 139.748437 277.799219 139.748437 275.799219 
L 139.748437 232.764844 
Q 139.748437 230.764844 137.748437 230.764844 
L 52.482813 230.764844 
Q 50.482813 230.764844 50.482813 232.764844 
L 50.482813 275.799219 
Q 50.482813 277.799219 52.482813 277.799219 
z
" style="fill:#ffffff;opacity:0.8;stroke:#cccccc;stroke-linejoin:miter;"/>
    </g>
    <g id="PathCollection_4">
     <g>
      <use style="fill:#1f77b4;stroke:#1f77b4;" x="64.482812" xlink:href="#m708b21aa3f" y="239.738281"/>
     </g>
    </g>
    <g id="text_19">
     <!-- OBI -->
     <defs>
      <path d="M 39.40625 66.21875 
Q 28.65625 66.21875 22.328125 58.203125 
Q 16.015625 50.203125 16.015625 36.375 
Q 16.015625 22.609375 22.328125 14.59375 
Q 28.65625 6.59375 39.40625 6.59375 
Q 50.140625 6.59375 56.421875 14.59375 
Q 62.703125 22.609375 62.703125 36.375 
Q 62.703125 50.203125 56.421875 58.203125 
Q 50.140625 66.21875 39.40625 66.21875 
z
M 39.40625 74.21875 
Q 54.734375 74.21875 63.90625 63.9375 
Q 73.09375 53.65625 73.09375 36.375 
Q 73.09375 19.140625 63.90625 8.859375 
Q 54.734375 -1.421875 39.40625 -1.421875 
Q 24.03125 -1.421875 14.8125 8.828125 
Q 5.609375 19.09375 5.609375 36.375 
Q 5.609375 53.65625 14.8125 63.9375 
Q 24.03125 74.21875 39.40625 74.21875 
z
" id="DejaVuSans-4f"/>
      <path d="M 19.671875 34.8125 
L 19.671875 8.109375 
L 35.5 8.109375 
Q 43.453125 8.109375 47.28125 11.40625 
Q 51.125 14.703125 51.125 21.484375 
Q 51.125 28.328125 47.28125 31.5625 
Q 43.453125 34.8125 35.5 34.8125 
z
M 19.671875 64.796875 
L 19.671875 42.828125 
L 34.28125 42.828125 
Q 41.5 42.828125 45.03125 45.53125 
Q 48.578125 48.25 48.578125 53.8125 
Q 48.578125 59.328125 45.03125 62.0625 
Q 41.5 64.796875 34.28125 64.796875 
z
M 9.8125 72.90625 
L 35.015625 72.90625 
Q 46.296875 72.90625 52.390625 68.21875 
Q 58.5 63.53125 58.5 54.890625 
Q 58.5 48.1875 55.375 44.234375 
Q 52.25 40.28125 46.1875 39.3125 
Q 53.46875 37.75 57.5 32.78125 
Q 61.53125 27.828125 61.53125 20.40625 
Q 61.53125 10.640625 54.890625 5.3125 
Q 48.25 0 35.984375 0 
L 9.8125 0 
z
" id="DejaVuSans-42"/>
      <path d="M 9.8125 72.90625 
L 19.671875 72.90625 
L 19.671875 0 
L 9.8125 0 
z
" id="DejaVuSans-49"/>
     </defs>
     <g transform="translate(82.482812 242.363281)scale(0.1 -0.1)">
      <use xlink:href="#DejaVuSans-4f"/>
      <use x="78.710938" xlink:href="#DejaVuSans-42"/>
      <use x="147.314453" xlink:href="#DejaVuSans-49"/>
     </g>
    </g>
    <g id="PathCollection_5">
     <g>
      <use style="fill:#2ca02c;stroke:#2ca02c;" x="64.482812" xlink:href="#m42900da3a6" y="254.416406"/>
     </g>
    </g>
    <g id="text_20">
     <!-- Simulation -->
     <defs>
      <path d="M 9.421875 54.6875 
L 18.40625 54.6875 
L 18.40625 0 
L 9.421875 0 
z
M 9.421875 75.984375 
L 18.40625 75.984375 
L 18.40625 64.59375 
L 9.421875 64.59375 
z
" id="DejaVuSans-69"/>
      <path d="M 9.421875 75.984375 
L 18.40625 75.984375 
L 18.40625 0 
L 9.421875 0 
z
" id="DejaVuSans-6c"/>
      <path d="M 30.609375 48.390625 
Q 23.390625 48.390625 19.1875 42.75 
Q 14.984375 37.109375 14.984375 27.296875 
Q 14.984375 17.484375 19.15625 11.84375 
Q 23.34375 6.203125 30.609375 6.203125 
Q 37.796875 6.203125 41.984375 11.859375 
Q 46.1875 17.53125 46.1875 27.296875 
Q 46.1875 37.015625 41.984375 42.703125 
Q 37.796875 48.390625 30.609375 48.390625 
z
M 30.609375 56 
Q 42.328125 56 49.015625 48.375 
Q 55.71875 40.765625 55.71875 27.296875 
Q 55.71875 13.875 49.015625 6.21875 
Q 42.328125 -1.421875 30.609375 -1.421875 
Q 18.84375 -1.421875 12.171875 6.21875 
Q 5.515625 13.875 5.515625 27.296875 
Q 5.515625 40.765625 12.171875 48.375 
Q 18.84375 56 30.609375 56 
z
" id="DejaVuSans-6f"/>
     </defs>
     <g transform="translate(82.482812 257.041406)scale(0.1 -0.1)">
      <use xlink:href="#DejaVuSans-53"/>
      <use x="63.476562" xlink:href="#DejaVuSans-69"/>
      <use x="91.259766" xlink:href="#DejaVuSans-6d"/>
      <use x="188.671875" xlink:href="#DejaVuSans-75"/>
      <use x="252.050781" xlink:href="#DejaVuSans-6c"/>
      <use x="279.833984" xlink:href="#DejaVuSans-61"/>
      <use x="341.113281" xlink:href="#DejaVuSans-74"/>
      <use x="380.322266" xlink:href="#DejaVuSans-69"/>
      <use x="408.105469" xlink:href="#DejaVuSans-6f"/>
      <use x="469.287109" xlink:href="#DejaVuSans-6e"/>
     </g>
    </g>
    <g id="PathCollection_6">
     <g>
      <use style="fill:#d62728;stroke:#d62728;" x="64.482812" xlink:href="#me3ee185b63" y="269.094531"/>
     </g>
    </g>
    <g id="text_21">
     <!-- Bruker -->
     <g transform="translate(82.482812 271.719531)scale(0.1 -0.1)">
      <use xlink:href="#DejaVuSans-42"/>
      <use x="68.603516" xlink:href="#DejaVuSans-72"/>
      <use x="109.716797" xlink:href="#DejaVuSans-75"/>
      <use x="173.095703" xlink:href="#DejaVuSans-6b"/>
      <use x="230.958984" xlink:href="#DejaVuSans-65"/>
      <use x="292.482422" xlink:href="#DejaVuSans-72"/>
     </g>
    </g>
   </g>
  </g>
 </g>
 <defs>
  <clipPath id="pfe535f8103">
   <rect height="271.8" width="418.5" x="45.482813" y="10.999219"/>
  </clipPath>
 </defs>
</svg>
