<?xml version="1.0" encoding="utf-8" standalone="no"?>
<!DOCTYPE svg PUBLIC "-//W3C//DTD SVG 1.1//EN"
  "http://www.w3.org/Graphics/SVG/1.1/DTD/svg11.dtd">
<!-- Created with matplotlib (http://matplotlib.org/) -->
<svg height="258.69625pt" version="1.1" viewBox="0 0 400.204687 258.69625" width="400.204687pt" xmlns="http://www.w3.org/2000/svg" xmlns:xlink="http://www.w3.org/1999/xlink">
 <defs>
  <style type="text/css">
*{stroke-linecap:butt;stroke-linejoin:round;}
  </style>
 </defs>
 <g id="figure_1">
  <g id="patch_1">
   <path d="M 0 258.69625 
L 400.204687 258.69625 
L 400.204687 0 
L 0 0 
z
" style="fill:#ffffff;"/>
  </g>
  <g id="axes_1">
   <g id="patch_2">
    <path d="M 48.660938 224.64 
L 383.460938 224.64 
L 383.460938 7.2 
L 48.660938 7.2 
z
" style="fill:#ffffff;"/>
   </g>
   <g id="matplotlib.axis_1">
    <g id="xtick_1">
     <g id="line2d_1">
      <defs>
       <path d="M 0 0 
L 0 -3.5 
" id="mab862f56f8" style="stroke:#000000;stroke-width:0.8;"/>
      </defs>
      <g>
       <use style="stroke:#000000;stroke-width:0.8;" x="48.660938" xlink:href="#mab862f56f8" y="224.64"/>
      </g>
     </g>
     <g id="line2d_2">
      <defs>
       <path d="M 0 0 
L 0 3.5 
" id="m3bb9335593" style="stroke:#000000;stroke-width:0.8;"/>
      </defs>
      <g>
       <use style="stroke:#000000;stroke-width:0.8;" x="48.660938" xlink:href="#m3bb9335593" y="7.2"/>
      </g>
     </g>
     <g id="text_1">
      <!-- −100 -->
      <defs>
       <path d="M 10.59375 35.5 
L 73.1875 35.5 
L 73.1875 27.203125 
L 10.59375 27.203125 
z
" id="DejaVuSans-2212"/>
       <path d="M 12.40625 8.296875 
L 28.515625 8.296875 
L 28.515625 63.921875 
L 10.984375 60.40625 
L 10.984375 69.390625 
L 28.421875 72.90625 
L 38.28125 72.90625 
L 38.28125 8.296875 
L 54.390625 8.296875 
L 54.390625 0 
L 12.40625 0 
z
" id="DejaVuSans-31"/>
       <path d="M 31.78125 66.40625 
Q 24.171875 66.40625 20.328125 58.90625 
Q 16.5 51.421875 16.5 36.375 
Q 16.5 21.390625 20.328125 13.890625 
Q 24.171875 6.390625 31.78125 6.390625 
Q 39.453125 6.390625 43.28125 13.890625 
Q 47.125 21.390625 47.125 36.375 
Q 47.125 51.421875 43.28125 58.90625 
Q 39.453125 66.40625 31.78125 66.40625 
z
M 31.78125 74.21875 
Q 44.046875 74.21875 50.515625 64.515625 
Q 56.984375 54.828125 56.984375 36.375 
Q 56.984375 17.96875 50.515625 8.265625 
Q 44.046875 -1.421875 31.78125 -1.421875 
Q 19.53125 -1.421875 13.0625 8.265625 
Q 6.59375 17.96875 6.59375 36.375 
Q 6.59375 54.828125 13.0625 64.515625 
Q 19.53125 74.21875 31.78125 74.21875 
z
" id="DejaVuSans-30"/>
      </defs>
      <g transform="translate(34.927344 235.738437)scale(0.1 -0.1)">
       <use xlink:href="#DejaVuSans-2212"/>
       <use x="83.789062" xlink:href="#DejaVuSans-31"/>
       <use x="147.412109" xlink:href="#DejaVuSans-30"/>
       <use x="211.035156" xlink:href="#DejaVuSans-30"/>
      </g>
     </g>
    </g>
    <g id="xtick_2">
     <g id="line2d_3">
      <g>
       <use style="stroke:#000000;stroke-width:0.8;" x="90.510938" xlink:href="#mab862f56f8" y="224.64"/>
      </g>
     </g>
     <g id="line2d_4">
      <g>
       <use style="stroke:#000000;stroke-width:0.8;" x="90.510938" xlink:href="#m3bb9335593" y="7.2"/>
      </g>
     </g>
     <g id="text_2">
      <!-- −75 -->
      <defs>
       <path d="M 8.203125 72.90625 
L 55.078125 72.90625 
L 55.078125 68.703125 
L 28.609375 0 
L 18.3125 0 
L 43.21875 64.59375 
L 8.203125 64.59375 
z
" id="DejaVuSans-37"/>
       <path d="M 10.796875 72.90625 
L 49.515625 72.90625 
L 49.515625 64.59375 
L 19.828125 64.59375 
L 19.828125 46.734375 
Q 21.96875 47.46875 24.109375 47.828125 
Q 26.265625 48.1875 28.421875 48.1875 
Q 40.625 48.1875 47.75 41.5 
Q 54.890625 34.8125 54.890625 23.390625 
Q 54.890625 11.625 47.5625 5.09375 
Q 40.234375 -1.421875 26.90625 -1.421875 
Q 22.3125 -1.421875 17.546875 -0.640625 
Q 12.796875 0.140625 7.71875 1.703125 
L 7.71875 11.625 
Q 12.109375 9.234375 16.796875 8.0625 
Q 21.484375 6.890625 26.703125 6.890625 
Q 35.15625 6.890625 40.078125 11.328125 
Q 45.015625 15.765625 45.015625 23.390625 
Q 45.015625 31 40.078125 35.4375 
Q 35.15625 39.890625 26.703125 39.890625 
Q 22.75 39.890625 18.8125 39.015625 
Q 14.890625 38.140625 10.796875 36.28125 
z
" id="DejaVuSans-35"/>
      </defs>
      <g transform="translate(79.958594 235.738437)scale(0.1 -0.1)">
       <use xlink:href="#DejaVuSans-2212"/>
       <use x="83.789062" xlink:href="#DejaVuSans-37"/>
       <use x="147.412109" xlink:href="#DejaVuSans-35"/>
      </g>
     </g>
    </g>
    <g id="xtick_3">
     <g id="line2d_5">
      <g>
       <use style="stroke:#000000;stroke-width:0.8;" x="132.360938" xlink:href="#mab862f56f8" y="224.64"/>
      </g>
     </g>
     <g id="line2d_6">
      <g>
       <use style="stroke:#000000;stroke-width:0.8;" x="132.360938" xlink:href="#m3bb9335593" y="7.2"/>
      </g>
     </g>
     <g id="text_3">
      <!-- −50 -->
      <g transform="translate(121.808594 235.738437)scale(0.1 -0.1)">
       <use xlink:href="#DejaVuSans-2212"/>
       <use x="83.789062" xlink:href="#DejaVuSans-35"/>
       <use x="147.412109" xlink:href="#DejaVuSans-30"/>
      </g>
     </g>
    </g>
    <g id="xtick_4">
     <g id="line2d_7">
      <g>
       <use style="stroke:#000000;stroke-width:0.8;" x="174.210938" xlink:href="#mab862f56f8" y="224.64"/>
      </g>
     </g>
     <g id="line2d_8">
      <g>
       <use style="stroke:#000000;stroke-width:0.8;" x="174.210938" xlink:href="#m3bb9335593" y="7.2"/>
      </g>
     </g>
     <g id="text_4">
      <!-- −25 -->
      <defs>
       <path d="M 19.1875 8.296875 
L 53.609375 8.296875 
L 53.609375 0 
L 7.328125 0 
L 7.328125 8.296875 
Q 12.9375 14.109375 22.625 23.890625 
Q 32.328125 33.6875 34.8125 36.53125 
Q 39.546875 41.84375 41.421875 45.53125 
Q 43.3125 49.21875 43.3125 52.78125 
Q 43.3125 58.59375 39.234375 62.25 
Q 35.15625 65.921875 28.609375 65.921875 
Q 23.96875 65.921875 18.8125 64.3125 
Q 13.671875 62.703125 7.8125 59.421875 
L 7.8125 69.390625 
Q 13.765625 71.78125 18.9375 73 
Q 24.125 74.21875 28.421875 74.21875 
Q 39.75 74.21875 46.484375 68.546875 
Q 53.21875 62.890625 53.21875 53.421875 
Q 53.21875 48.921875 51.53125 44.890625 
Q 49.859375 40.875 45.40625 35.40625 
Q 44.1875 33.984375 37.640625 27.21875 
Q 31.109375 20.453125 19.1875 8.296875 
z
" id="DejaVuSans-32"/>
      </defs>
      <g transform="translate(163.658594 235.738437)scale(0.1 -0.1)">
       <use xlink:href="#DejaVuSans-2212"/>
       <use x="83.789062" xlink:href="#DejaVuSans-32"/>
       <use x="147.412109" xlink:href="#DejaVuSans-35"/>
      </g>
     </g>
    </g>
    <g id="xtick_5">
     <g id="line2d_9">
      <g>
       <use style="stroke:#000000;stroke-width:0.8;" x="216.060938" xlink:href="#mab862f56f8" y="224.64"/>
      </g>
     </g>
     <g id="line2d_10">
      <g>
       <use style="stroke:#000000;stroke-width:0.8;" x="216.060938" xlink:href="#m3bb9335593" y="7.2"/>
      </g>
     </g>
     <g id="text_5">
      <!-- 0 -->
      <g transform="translate(212.879688 235.738437)scale(0.1 -0.1)">
       <use xlink:href="#DejaVuSans-30"/>
      </g>
     </g>
    </g>
    <g id="xtick_6">
     <g id="line2d_11">
      <g>
       <use style="stroke:#000000;stroke-width:0.8;" x="257.910938" xlink:href="#mab862f56f8" y="224.64"/>
      </g>
     </g>
     <g id="line2d_12">
      <g>
       <use style="stroke:#000000;stroke-width:0.8;" x="257.910938" xlink:href="#m3bb9335593" y="7.2"/>
      </g>
     </g>
     <g id="text_6">
      <!-- 25 -->
      <g transform="translate(251.548438 235.738437)scale(0.1 -0.1)">
       <use xlink:href="#DejaVuSans-32"/>
       <use x="63.623047" xlink:href="#DejaVuSans-35"/>
      </g>
     </g>
    </g>
    <g id="xtick_7">
     <g id="line2d_13">
      <g>
       <use style="stroke:#000000;stroke-width:0.8;" x="299.760938" xlink:href="#mab862f56f8" y="224.64"/>
      </g>
     </g>
     <g id="line2d_14">
      <g>
       <use style="stroke:#000000;stroke-width:0.8;" x="299.760938" xlink:href="#m3bb9335593" y="7.2"/>
      </g>
     </g>
     <g id="text_7">
      <!-- 50 -->
      <g transform="translate(293.398438 235.738437)scale(0.1 -0.1)">
       <use xlink:href="#DejaVuSans-35"/>
       <use x="63.623047" xlink:href="#DejaVuSans-30"/>
      </g>
     </g>
    </g>
    <g id="xtick_8">
     <g id="line2d_15">
      <g>
       <use style="stroke:#000000;stroke-width:0.8;" x="341.610938" xlink:href="#mab862f56f8" y="224.64"/>
      </g>
     </g>
     <g id="line2d_16">
      <g>
       <use style="stroke:#000000;stroke-width:0.8;" x="341.610938" xlink:href="#m3bb9335593" y="7.2"/>
      </g>
     </g>
     <g id="text_8">
      <!-- 75 -->
      <g transform="translate(335.248438 235.738437)scale(0.1 -0.1)">
       <use xlink:href="#DejaVuSans-37"/>
       <use x="63.623047" xlink:href="#DejaVuSans-35"/>
      </g>
     </g>
    </g>
    <g id="xtick_9">
     <g id="line2d_17">
      <g>
       <use style="stroke:#000000;stroke-width:0.8;" x="383.460938" xlink:href="#mab862f56f8" y="224.64"/>
      </g>
     </g>
     <g id="line2d_18">
      <g>
       <use style="stroke:#000000;stroke-width:0.8;" x="383.460938" xlink:href="#m3bb9335593" y="7.2"/>
      </g>
     </g>
     <g id="text_9">
      <!-- 100 -->
      <g transform="translate(373.917188 235.738437)scale(0.1 -0.1)">
       <use xlink:href="#DejaVuSans-31"/>
       <use x="63.623047" xlink:href="#DejaVuSans-30"/>
       <use x="127.246094" xlink:href="#DejaVuSans-30"/>
      </g>
     </g>
    </g>
    <g id="text_10">
     <!-- Frequenz [kHz] -->
     <defs>
      <path d="M 9.8125 72.90625 
L 51.703125 72.90625 
L 51.703125 64.59375 
L 19.671875 64.59375 
L 19.671875 43.109375 
L 48.578125 43.109375 
L 48.578125 34.8125 
L 19.671875 34.8125 
L 19.671875 0 
L 9.8125 0 
z
" id="DejaVuSans-46"/>
      <path d="M 41.109375 46.296875 
Q 39.59375 47.171875 37.8125 47.578125 
Q 36.03125 48 33.890625 48 
Q 26.265625 48 22.1875 43.046875 
Q 18.109375 38.09375 18.109375 28.8125 
L 18.109375 0 
L 9.078125 0 
L 9.078125 54.6875 
L 18.109375 54.6875 
L 18.109375 46.1875 
Q 20.953125 51.171875 25.484375 53.578125 
Q 30.03125 56 36.53125 56 
Q 37.453125 56 38.578125 55.875 
Q 39.703125 55.765625 41.0625 55.515625 
z
" id="DejaVuSans-72"/>
      <path d="M 56.203125 29.59375 
L 56.203125 25.203125 
L 14.890625 25.203125 
Q 15.484375 15.921875 20.484375 11.0625 
Q 25.484375 6.203125 34.421875 6.203125 
Q 39.59375 6.203125 44.453125 7.46875 
Q 49.3125 8.734375 54.109375 11.28125 
L 54.109375 2.78125 
Q 49.265625 0.734375 44.1875 -0.34375 
Q 39.109375 -1.421875 33.890625 -1.421875 
Q 20.796875 -1.421875 13.15625 6.1875 
Q 5.515625 13.8125 5.515625 26.8125 
Q 5.515625 40.234375 12.765625 48.109375 
Q 20.015625 56 32.328125 56 
Q 43.359375 56 49.78125 48.890625 
Q 56.203125 41.796875 56.203125 29.59375 
z
M 47.21875 32.234375 
Q 47.125 39.59375 43.09375 43.984375 
Q 39.0625 48.390625 32.421875 48.390625 
Q 24.90625 48.390625 20.390625 44.140625 
Q 15.875 39.890625 15.1875 32.171875 
z
" id="DejaVuSans-65"/>
      <path d="M 14.796875 27.296875 
Q 14.796875 17.390625 18.875 11.75 
Q 22.953125 6.109375 30.078125 6.109375 
Q 37.203125 6.109375 41.296875 11.75 
Q 45.40625 17.390625 45.40625 27.296875 
Q 45.40625 37.203125 41.296875 42.84375 
Q 37.203125 48.484375 30.078125 48.484375 
Q 22.953125 48.484375 18.875 42.84375 
Q 14.796875 37.203125 14.796875 27.296875 
z
M 45.40625 8.203125 
Q 42.578125 3.328125 38.25 0.953125 
Q 33.9375 -1.421875 27.875 -1.421875 
Q 17.96875 -1.421875 11.734375 6.484375 
Q 5.515625 14.40625 5.515625 27.296875 
Q 5.515625 40.1875 11.734375 48.09375 
Q 17.96875 56 27.875 56 
Q 33.9375 56 38.25 53.625 
Q 42.578125 51.265625 45.40625 46.390625 
L 45.40625 54.6875 
L 54.390625 54.6875 
L 54.390625 -20.796875 
L 45.40625 -20.796875 
z
" id="DejaVuSans-71"/>
      <path d="M 8.5 21.578125 
L 8.5 54.6875 
L 17.484375 54.6875 
L 17.484375 21.921875 
Q 17.484375 14.15625 20.5 10.265625 
Q 23.53125 6.390625 29.59375 6.390625 
Q 36.859375 6.390625 41.078125 11.03125 
Q 45.3125 15.671875 45.3125 23.6875 
L 45.3125 54.6875 
L 54.296875 54.6875 
L 54.296875 0 
L 45.3125 0 
L 45.3125 8.40625 
Q 42.046875 3.421875 37.71875 1 
Q 33.40625 -1.421875 27.6875 -1.421875 
Q 18.265625 -1.421875 13.375 4.4375 
Q 8.5 10.296875 8.5 21.578125 
z
M 31.109375 56 
z
" id="DejaVuSans-75"/>
      <path d="M 54.890625 33.015625 
L 54.890625 0 
L 45.90625 0 
L 45.90625 32.71875 
Q 45.90625 40.484375 42.875 44.328125 
Q 39.84375 48.1875 33.796875 48.1875 
Q 26.515625 48.1875 22.3125 43.546875 
Q 18.109375 38.921875 18.109375 30.90625 
L 18.109375 0 
L 9.078125 0 
L 9.078125 54.6875 
L 18.109375 54.6875 
L 18.109375 46.1875 
Q 21.34375 51.125 25.703125 53.5625 
Q 30.078125 56 35.796875 56 
Q 45.21875 56 50.046875 50.171875 
Q 54.890625 44.34375 54.890625 33.015625 
z
" id="DejaVuSans-6e"/>
      <path d="M 5.515625 54.6875 
L 48.1875 54.6875 
L 48.1875 46.484375 
L 14.40625 7.171875 
L 48.1875 7.171875 
L 48.1875 0 
L 4.296875 0 
L 4.296875 8.203125 
L 38.09375 47.515625 
L 5.515625 47.515625 
z
" id="DejaVuSans-7a"/>
      <path id="DejaVuSans-20"/>
      <path d="M 8.59375 75.984375 
L 29.296875 75.984375 
L 29.296875 69 
L 17.578125 69 
L 17.578125 -6.203125 
L 29.296875 -6.203125 
L 29.296875 -13.1875 
L 8.59375 -13.1875 
z
" id="DejaVuSans-5b"/>
      <path d="M 9.078125 75.984375 
L 18.109375 75.984375 
L 18.109375 31.109375 
L 44.921875 54.6875 
L 56.390625 54.6875 
L 27.390625 29.109375 
L 57.625 0 
L 45.90625 0 
L 18.109375 26.703125 
L 18.109375 0 
L 9.078125 0 
z
" id="DejaVuSans-6b"/>
      <path d="M 9.8125 72.90625 
L 19.671875 72.90625 
L 19.671875 43.015625 
L 55.515625 43.015625 
L 55.515625 72.90625 
L 65.375 72.90625 
L 65.375 0 
L 55.515625 0 
L 55.515625 34.71875 
L 19.671875 34.71875 
L 19.671875 0 
L 9.8125 0 
z
" id="DejaVuSans-48"/>
      <path d="M 30.421875 75.984375 
L 30.421875 -13.1875 
L 9.71875 -13.1875 
L 9.71875 -6.203125 
L 21.390625 -6.203125 
L 21.390625 69 
L 9.71875 69 
L 9.71875 75.984375 
z
" id="DejaVuSans-5d"/>
     </defs>
     <g transform="translate(178.077344 249.416562)scale(0.1 -0.1)">
      <use xlink:href="#DejaVuSans-46"/>
      <use x="57.410156" xlink:href="#DejaVuSans-72"/>
      <use x="98.492188" xlink:href="#DejaVuSans-65"/>
      <use x="160.015625" xlink:href="#DejaVuSans-71"/>
      <use x="223.492188" xlink:href="#DejaVuSans-75"/>
      <use x="286.871094" xlink:href="#DejaVuSans-65"/>
      <use x="348.394531" xlink:href="#DejaVuSans-6e"/>
      <use x="411.773438" xlink:href="#DejaVuSans-7a"/>
      <use x="464.263672" xlink:href="#DejaVuSans-20"/>
      <use x="496.050781" xlink:href="#DejaVuSans-5b"/>
      <use x="535.064453" xlink:href="#DejaVuSans-6b"/>
      <use x="592.974609" xlink:href="#DejaVuSans-48"/>
      <use x="668.169922" xlink:href="#DejaVuSans-7a"/>
      <use x="720.660156" xlink:href="#DejaVuSans-5d"/>
     </g>
    </g>
   </g>
   <g id="matplotlib.axis_2">
    <g id="ytick_1">
     <g id="line2d_19">
      <defs>
       <path d="M 0 0 
L 3.5 0 
" id="mae47e39f7d" style="stroke:#000000;stroke-width:0.8;"/>
      </defs>
      <g>
       <use style="stroke:#000000;stroke-width:0.8;" x="48.660938" xlink:href="#mae47e39f7d" y="224.64"/>
      </g>
     </g>
     <g id="line2d_20">
      <defs>
       <path d="M 0 0 
L -3.5 0 
" id="m13a984ff27" style="stroke:#000000;stroke-width:0.8;"/>
      </defs>
      <g>
       <use style="stroke:#000000;stroke-width:0.8;" x="383.460938" xlink:href="#m13a984ff27" y="224.64"/>
      </g>
     </g>
     <g id="text_11">
      <!-- −0.2 -->
      <defs>
       <path d="M 10.6875 12.40625 
L 21 12.40625 
L 21 0 
L 10.6875 0 
z
" id="DejaVuSans-2e"/>
      </defs>
      <g transform="translate(20.878125 228.439219)scale(0.1 -0.1)">
       <use xlink:href="#DejaVuSans-2212"/>
       <use x="83.789062" xlink:href="#DejaVuSans-30"/>
       <use x="147.412109" xlink:href="#DejaVuSans-2e"/>
       <use x="179.199219" xlink:href="#DejaVuSans-32"/>
      </g>
     </g>
    </g>
    <g id="ytick_2">
     <g id="line2d_21">
      <g>
       <use style="stroke:#000000;stroke-width:0.8;" x="48.660938" xlink:href="#mae47e39f7d" y="191.187692"/>
      </g>
     </g>
     <g id="line2d_22">
      <g>
       <use style="stroke:#000000;stroke-width:0.8;" x="383.460938" xlink:href="#m13a984ff27" y="191.187692"/>
      </g>
     </g>
     <g id="text_12">
      <!-- 0.0 -->
      <g transform="translate(29.257813 194.986911)scale(0.1 -0.1)">
       <use xlink:href="#DejaVuSans-30"/>
       <use x="63.623047" xlink:href="#DejaVuSans-2e"/>
       <use x="95.410156" xlink:href="#DejaVuSans-30"/>
      </g>
     </g>
    </g>
    <g id="ytick_3">
     <g id="line2d_23">
      <g>
       <use style="stroke:#000000;stroke-width:0.8;" x="48.660938" xlink:href="#mae47e39f7d" y="157.735385"/>
      </g>
     </g>
     <g id="line2d_24">
      <g>
       <use style="stroke:#000000;stroke-width:0.8;" x="383.460938" xlink:href="#m13a984ff27" y="157.735385"/>
      </g>
     </g>
     <g id="text_13">
      <!-- 0.2 -->
      <g transform="translate(29.257813 161.534603)scale(0.1 -0.1)">
       <use xlink:href="#DejaVuSans-30"/>
       <use x="63.623047" xlink:href="#DejaVuSans-2e"/>
       <use x="95.410156" xlink:href="#DejaVuSans-32"/>
      </g>
     </g>
    </g>
    <g id="ytick_4">
     <g id="line2d_25">
      <g>
       <use style="stroke:#000000;stroke-width:0.8;" x="48.660938" xlink:href="#mae47e39f7d" y="124.283077"/>
      </g>
     </g>
     <g id="line2d_26">
      <g>
       <use style="stroke:#000000;stroke-width:0.8;" x="383.460938" xlink:href="#m13a984ff27" y="124.283077"/>
      </g>
     </g>
     <g id="text_14">
      <!-- 0.4 -->
      <defs>
       <path d="M 37.796875 64.3125 
L 12.890625 25.390625 
L 37.796875 25.390625 
z
M 35.203125 72.90625 
L 47.609375 72.90625 
L 47.609375 25.390625 
L 58.015625 25.390625 
L 58.015625 17.1875 
L 47.609375 17.1875 
L 47.609375 0 
L 37.796875 0 
L 37.796875 17.1875 
L 4.890625 17.1875 
L 4.890625 26.703125 
z
" id="DejaVuSans-34"/>
      </defs>
      <g transform="translate(29.257813 128.082296)scale(0.1 -0.1)">
       <use xlink:href="#DejaVuSans-30"/>
       <use x="63.623047" xlink:href="#DejaVuSans-2e"/>
       <use x="95.410156" xlink:href="#DejaVuSans-34"/>
      </g>
     </g>
    </g>
    <g id="ytick_5">
     <g id="line2d_27">
      <g>
       <use style="stroke:#000000;stroke-width:0.8;" x="48.660938" xlink:href="#mae47e39f7d" y="90.830769"/>
      </g>
     </g>
     <g id="line2d_28">
      <g>
       <use style="stroke:#000000;stroke-width:0.8;" x="383.460938" xlink:href="#m13a984ff27" y="90.830769"/>
      </g>
     </g>
     <g id="text_15">
      <!-- 0.6 -->
      <defs>
       <path d="M 33.015625 40.375 
Q 26.375 40.375 22.484375 35.828125 
Q 18.609375 31.296875 18.609375 23.390625 
Q 18.609375 15.53125 22.484375 10.953125 
Q 26.375 6.390625 33.015625 6.390625 
Q 39.65625 6.390625 43.53125 10.953125 
Q 47.40625 15.53125 47.40625 23.390625 
Q 47.40625 31.296875 43.53125 35.828125 
Q 39.65625 40.375 33.015625 40.375 
z
M 52.59375 71.296875 
L 52.59375 62.3125 
Q 48.875 64.0625 45.09375 64.984375 
Q 41.3125 65.921875 37.59375 65.921875 
Q 27.828125 65.921875 22.671875 59.328125 
Q 17.53125 52.734375 16.796875 39.40625 
Q 19.671875 43.65625 24.015625 45.921875 
Q 28.375 48.1875 33.59375 48.1875 
Q 44.578125 48.1875 50.953125 41.515625 
Q 57.328125 34.859375 57.328125 23.390625 
Q 57.328125 12.15625 50.6875 5.359375 
Q 44.046875 -1.421875 33.015625 -1.421875 
Q 20.359375 -1.421875 13.671875 8.265625 
Q 6.984375 17.96875 6.984375 36.375 
Q 6.984375 53.65625 15.1875 63.9375 
Q 23.390625 74.21875 37.203125 74.21875 
Q 40.921875 74.21875 44.703125 73.484375 
Q 48.484375 72.75 52.59375 71.296875 
z
" id="DejaVuSans-36"/>
      </defs>
      <g transform="translate(29.257813 94.629988)scale(0.1 -0.1)">
       <use xlink:href="#DejaVuSans-30"/>
       <use x="63.623047" xlink:href="#DejaVuSans-2e"/>
       <use x="95.410156" xlink:href="#DejaVuSans-36"/>
      </g>
     </g>
    </g>
    <g id="ytick_6">
     <g id="line2d_29">
      <g>
       <use style="stroke:#000000;stroke-width:0.8;" x="48.660938" xlink:href="#mae47e39f7d" y="57.378462"/>
      </g>
     </g>
     <g id="line2d_30">
      <g>
       <use style="stroke:#000000;stroke-width:0.8;" x="383.460938" xlink:href="#m13a984ff27" y="57.378462"/>
      </g>
     </g>
     <g id="text_16">
      <!-- 0.8 -->
      <defs>
       <path d="M 31.78125 34.625 
Q 24.75 34.625 20.71875 30.859375 
Q 16.703125 27.09375 16.703125 20.515625 
Q 16.703125 13.921875 20.71875 10.15625 
Q 24.75 6.390625 31.78125 6.390625 
Q 38.8125 6.390625 42.859375 10.171875 
Q 46.921875 13.96875 46.921875 20.515625 
Q 46.921875 27.09375 42.890625 30.859375 
Q 38.875 34.625 31.78125 34.625 
z
M 21.921875 38.8125 
Q 15.578125 40.375 12.03125 44.71875 
Q 8.5 49.078125 8.5 55.328125 
Q 8.5 64.0625 14.71875 69.140625 
Q 20.953125 74.21875 31.78125 74.21875 
Q 42.671875 74.21875 48.875 69.140625 
Q 55.078125 64.0625 55.078125 55.328125 
Q 55.078125 49.078125 51.53125 44.71875 
Q 48 40.375 41.703125 38.8125 
Q 48.828125 37.15625 52.796875 32.3125 
Q 56.78125 27.484375 56.78125 20.515625 
Q 56.78125 9.90625 50.3125 4.234375 
Q 43.84375 -1.421875 31.78125 -1.421875 
Q 19.734375 -1.421875 13.25 4.234375 
Q 6.78125 9.90625 6.78125 20.515625 
Q 6.78125 27.484375 10.78125 32.3125 
Q 14.796875 37.15625 21.921875 38.8125 
z
M 18.3125 54.390625 
Q 18.3125 48.734375 21.84375 45.5625 
Q 25.390625 42.390625 31.78125 42.390625 
Q 38.140625 42.390625 41.71875 45.5625 
Q 45.3125 48.734375 45.3125 54.390625 
Q 45.3125 60.0625 41.71875 63.234375 
Q 38.140625 66.40625 31.78125 66.40625 
Q 25.390625 66.40625 21.84375 63.234375 
Q 18.3125 60.0625 18.3125 54.390625 
z
" id="DejaVuSans-38"/>
      </defs>
      <g transform="translate(29.257813 61.17768)scale(0.1 -0.1)">
       <use xlink:href="#DejaVuSans-30"/>
       <use x="63.623047" xlink:href="#DejaVuSans-2e"/>
       <use x="95.410156" xlink:href="#DejaVuSans-38"/>
      </g>
     </g>
    </g>
    <g id="ytick_7">
     <g id="line2d_31">
      <g>
       <use style="stroke:#000000;stroke-width:0.8;" x="48.660938" xlink:href="#mae47e39f7d" y="23.926154"/>
      </g>
     </g>
     <g id="line2d_32">
      <g>
       <use style="stroke:#000000;stroke-width:0.8;" x="383.460938" xlink:href="#m13a984ff27" y="23.926154"/>
      </g>
     </g>
     <g id="text_17">
      <!-- 1.0 -->
      <g transform="translate(29.257813 27.725373)scale(0.1 -0.1)">
       <use xlink:href="#DejaVuSans-31"/>
       <use x="63.623047" xlink:href="#DejaVuSans-2e"/>
       <use x="95.410156" xlink:href="#DejaVuSans-30"/>
      </g>
     </g>
    </g>
    <g id="text_18">
     <!-- Amplitude [normiert] -->
     <defs>
      <path d="M 34.1875 63.1875 
L 20.796875 26.90625 
L 47.609375 26.90625 
z
M 28.609375 72.90625 
L 39.796875 72.90625 
L 67.578125 0 
L 57.328125 0 
L 50.6875 18.703125 
L 17.828125 18.703125 
L 11.1875 0 
L 0.78125 0 
z
" id="DejaVuSans-41"/>
      <path d="M 52 44.1875 
Q 55.375 50.25 60.0625 53.125 
Q 64.75 56 71.09375 56 
Q 79.640625 56 84.28125 50.015625 
Q 88.921875 44.046875 88.921875 33.015625 
L 88.921875 0 
L 79.890625 0 
L 79.890625 32.71875 
Q 79.890625 40.578125 77.09375 44.375 
Q 74.3125 48.1875 68.609375 48.1875 
Q 61.625 48.1875 57.5625 43.546875 
Q 53.515625 38.921875 53.515625 30.90625 
L 53.515625 0 
L 44.484375 0 
L 44.484375 32.71875 
Q 44.484375 40.625 41.703125 44.40625 
Q 38.921875 48.1875 33.109375 48.1875 
Q 26.21875 48.1875 22.15625 43.53125 
Q 18.109375 38.875 18.109375 30.90625 
L 18.109375 0 
L 9.078125 0 
L 9.078125 54.6875 
L 18.109375 54.6875 
L 18.109375 46.1875 
Q 21.1875 51.21875 25.484375 53.609375 
Q 29.78125 56 35.6875 56 
Q 41.65625 56 45.828125 52.96875 
Q 50 49.953125 52 44.1875 
z
" id="DejaVuSans-6d"/>
      <path d="M 18.109375 8.203125 
L 18.109375 -20.796875 
L 9.078125 -20.796875 
L 9.078125 54.6875 
L 18.109375 54.6875 
L 18.109375 46.390625 
Q 20.953125 51.265625 25.265625 53.625 
Q 29.59375 56 35.59375 56 
Q 45.5625 56 51.78125 48.09375 
Q 58.015625 40.1875 58.015625 27.296875 
Q 58.015625 14.40625 51.78125 6.484375 
Q 45.5625 -1.421875 35.59375 -1.421875 
Q 29.59375 -1.421875 25.265625 0.953125 
Q 20.953125 3.328125 18.109375 8.203125 
z
M 48.6875 27.296875 
Q 48.6875 37.203125 44.609375 42.84375 
Q 40.53125 48.484375 33.40625 48.484375 
Q 26.265625 48.484375 22.1875 42.84375 
Q 18.109375 37.203125 18.109375 27.296875 
Q 18.109375 17.390625 22.1875 11.75 
Q 26.265625 6.109375 33.40625 6.109375 
Q 40.53125 6.109375 44.609375 11.75 
Q 48.6875 17.390625 48.6875 27.296875 
z
" id="DejaVuSans-70"/>
      <path d="M 9.421875 75.984375 
L 18.40625 75.984375 
L 18.40625 0 
L 9.421875 0 
z
" id="DejaVuSans-6c"/>
      <path d="M 9.421875 54.6875 
L 18.40625 54.6875 
L 18.40625 0 
L 9.421875 0 
z
M 9.421875 75.984375 
L 18.40625 75.984375 
L 18.40625 64.59375 
L 9.421875 64.59375 
z
" id="DejaVuSans-69"/>
      <path d="M 18.3125 70.21875 
L 18.3125 54.6875 
L 36.8125 54.6875 
L 36.8125 47.703125 
L 18.3125 47.703125 
L 18.3125 18.015625 
Q 18.3125 11.328125 20.140625 9.421875 
Q 21.96875 7.515625 27.59375 7.515625 
L 36.8125 7.515625 
L 36.8125 0 
L 27.59375 0 
Q 17.1875 0 13.234375 3.875 
Q 9.28125 7.765625 9.28125 18.015625 
L 9.28125 47.703125 
L 2.6875 47.703125 
L 2.6875 54.6875 
L 9.28125 54.6875 
L 9.28125 70.21875 
z
" id="DejaVuSans-74"/>
      <path d="M 45.40625 46.390625 
L 45.40625 75.984375 
L 54.390625 75.984375 
L 54.390625 0 
L 45.40625 0 
L 45.40625 8.203125 
Q 42.578125 3.328125 38.25 0.953125 
Q 33.9375 -1.421875 27.875 -1.421875 
Q 17.96875 -1.421875 11.734375 6.484375 
Q 5.515625 14.40625 5.515625 27.296875 
Q 5.515625 40.1875 11.734375 48.09375 
Q 17.96875 56 27.875 56 
Q 33.9375 56 38.25 53.625 
Q 42.578125 51.265625 45.40625 46.390625 
z
M 14.796875 27.296875 
Q 14.796875 17.390625 18.875 11.75 
Q 22.953125 6.109375 30.078125 6.109375 
Q 37.203125 6.109375 41.296875 11.75 
Q 45.40625 17.390625 45.40625 27.296875 
Q 45.40625 37.203125 41.296875 42.84375 
Q 37.203125 48.484375 30.078125 48.484375 
Q 22.953125 48.484375 18.875 42.84375 
Q 14.796875 37.203125 14.796875 27.296875 
z
" id="DejaVuSans-64"/>
      <path d="M 30.609375 48.390625 
Q 23.390625 48.390625 19.1875 42.75 
Q 14.984375 37.109375 14.984375 27.296875 
Q 14.984375 17.484375 19.15625 11.84375 
Q 23.34375 6.203125 30.609375 6.203125 
Q 37.796875 6.203125 41.984375 11.859375 
Q 46.1875 17.53125 46.1875 27.296875 
Q 46.1875 37.015625 41.984375 42.703125 
Q 37.796875 48.390625 30.609375 48.390625 
z
M 30.609375 56 
Q 42.328125 56 49.015625 48.375 
Q 55.71875 40.765625 55.71875 27.296875 
Q 55.71875 13.875 49.015625 6.21875 
Q 42.328125 -1.421875 30.609375 -1.421875 
Q 18.84375 -1.421875 12.171875 6.21875 
Q 5.515625 13.875 5.515625 27.296875 
Q 5.515625 40.765625 12.171875 48.375 
Q 18.84375 56 30.609375 56 
z
" id="DejaVuSans-6f"/>
     </defs>
     <g transform="translate(14.798438 168.667656)rotate(-90)scale(0.1 -0.1)">
      <use xlink:href="#DejaVuSans-41"/>
      <use x="68.408203" xlink:href="#DejaVuSans-6d"/>
      <use x="165.820312" xlink:href="#DejaVuSans-70"/>
      <use x="229.296875" xlink:href="#DejaVuSans-6c"/>
      <use x="257.080078" xlink:href="#DejaVuSans-69"/>
      <use x="284.863281" xlink:href="#DejaVuSans-74"/>
      <use x="324.072266" xlink:href="#DejaVuSans-75"/>
      <use x="387.451172" xlink:href="#DejaVuSans-64"/>
      <use x="450.927734" xlink:href="#DejaVuSans-65"/>
      <use x="512.451172" xlink:href="#DejaVuSans-20"/>
      <use x="544.238281" xlink:href="#DejaVuSans-5b"/>
      <use x="583.251953" xlink:href="#DejaVuSans-6e"/>
      <use x="646.630859" xlink:href="#DejaVuSans-6f"/>
      <use x="707.8125" xlink:href="#DejaVuSans-72"/>
      <use x="748.910156" xlink:href="#DejaVuSans-6d"/>
      <use x="846.322266" xlink:href="#DejaVuSans-69"/>
      <use x="874.105469" xlink:href="#DejaVuSans-65"/>
      <use x="935.628906" xlink:href="#DejaVuSans-72"/>
      <use x="976.742188" xlink:href="#DejaVuSans-74"/>
      <use x="1015.951172" xlink:href="#DejaVuSans-5d"/>
     </g>
    </g>
   </g>
   <g id="line2d_33">
    <path clip-path="url(#p52b83aa563)" d="M 48.497461 189.874352 
L 50.132227 190.138371 
L 52.175684 189.819651 
L 53.401758 189.772097 
L 55.445215 189.347543 
L 57.488672 188.68049 
L 59.94082 188.516518 
L 61.166895 188.122641 
L 61.984277 188.02843 
L 63.619043 187.962351 
L 67.297266 187.606016 
L 69.340723 187.238252 
L 70.566797 187.027171 
L 72.610254 186.394593 
L 74.653711 186.147549 
L 76.288477 185.769123 
L 77.514551 185.680547 
L 78.740625 185.625248 
L 79.966699 185.171007 
L 80.784082 185.200627 
L 81.601465 185.257444 
L 82.418848 184.944228 
L 84.462305 183.6791 
L 85.279688 183.596398 
L 86.914453 183.611713 
L 88.140527 183.472052 
L 89.366602 183.148629 
L 92.636133 183.02285 
L 93.862207 183.21943 
L 94.67959 183.178378 
L 95.496973 182.962979 
L 96.314355 182.552124 
L 97.54043 181.585409 
L 99.175195 180.209092 
L 102.444727 178.157167 
L 106.531641 176.92185 
L 109.39248 175.052097 
L 111.027246 173.858129 
L 114.705469 171.365022 
L 116.340234 170.508544 
L 117.566309 170.01007 
L 118.383691 169.775078 
L 119.201074 169.28644 
L 122.470605 166.572713 
L 124.105371 165.164628 
L 125.331445 164.04352 
L 126.966211 162.579801 
L 129.009668 160.994962 
L 130.644434 159.559839 
L 132.279199 158.581228 
L 133.096582 157.814559 
L 136.774805 153.79257 
L 138.40957 152.370478 
L 140.044336 151.00188 
L 140.861719 149.906115 
L 142.087793 148.222055 
L 144.539941 145.774754 
L 147.400781 141.948428 
L 149.444238 139.79363 
L 150.670313 138.044914 
L 151.896387 136.335825 
L 154.348535 133.437273 
L 155.983301 130.925199 
L 157.209375 129.173963 
L 159.252832 126.532726 
L 161.70498 123.026805 
L 162.931055 121.031928 
L 164.56582 118.702243 
L 168.244043 112.172405 
L 170.2875 109.091681 
L 176.00918 98.576617 
L 182.548242 85.556684 
L 186.226465 77.732762 
L 187.452539 75.028731 
L 190.313379 68.343284 
L 193.991602 60.791224 
L 196.035059 55.506875 
L 198.078516 51.226814 
L 199.713281 46.040292 
L 202.982813 38.183801 
L 204.208887 35.474323 
L 206.661035 29.798906 
L 207.887109 27.434925 
L 208.704492 26.166026 
L 209.930566 24.722077 
L 210.747949 24.185962 
L 211.565332 23.959192 
L 211.974023 23.926154 
L 212.382715 24.016289 
L 212.791406 24.2818 
L 214.01748 25.555484 
L 214.834863 25.876113 
L 215.243555 26.313326 
L 215.652246 27.511554 
L 216.060938 29.685906 
L 217.695703 41.327227 
L 218.513086 44.735938 
L 220.556543 50.838412 
L 222.6 58.9041 
L 224.234766 65.145194 
L 227.504297 76.729195 
L 229.547754 83.055199 
L 232.408594 91.381449 
L 234.043359 96.264597 
L 235.678125 100.64954 
L 237.721582 105.753244 
L 239.356348 109.902837 
L 244.260645 121.112359 
L 246.304102 125.517226 
L 256.112695 143.172832 
L 258.564844 146.794711 
L 259.790918 148.428899 
L 261.834375 151.32862 
L 265.921289 156.483898 
L 267.147363 157.846773 
L 268.782129 159.45673 
L 272.460352 163.584767 
L 274.503809 165.170734 
L 275.321191 165.795367 
L 276.955957 167.4644 
L 278.590723 168.24385 
L 281.042871 170.634709 
L 283.49502 172.198864 
L 285.129785 173.673609 
L 285.947168 174.067171 
L 287.990625 174.610738 
L 289.216699 175.559505 
L 290.442773 176.47631 
L 292.48623 177.624322 
L 293.303613 177.801761 
L 294.120996 177.944684 
L 294.938379 178.446946 
L 295.755762 179.113356 
L 296.573145 179.474415 
L 297.390527 179.736034 
L 299.025293 180.464362 
L 299.842676 180.730457 
L 301.886133 181.685408 
L 307.199121 183.013396 
L 308.425195 183.169003 
L 312.512109 184.457746 
L 313.738184 184.742365 
L 314.964258 184.878106 
L 317.007715 185.374844 
L 318.233789 185.444665 
L 319.459863 185.86867 
L 320.685938 186.274633 
L 321.50332 186.34238 
L 323.138086 186.244238 
L 325.998926 187.05758 
L 331.311914 188.041406 
L 333.355371 187.667611 
L 334.581445 187.905445 
L 335.80752 188.464571 
L 336.624902 188.830277 
L 338.259668 189.193165 
L 339.485742 189.30311 
L 341.120508 189.228156 
L 341.937891 189.596841 
L 343.163965 190.184219 
L 343.981348 190.318344 
L 347.250879 190.345664 
L 348.068262 190.242233 
L 349.703027 189.647686 
L 350.929102 189.672055 
L 353.38125 189.940039 
L 356.24209 190.116738 
L 357.059473 190.105031 
L 358.694238 190.255836 
L 359.920313 190.392495 
L 360.737695 190.491003 
L 361.555078 190.353903 
L 363.189844 190.007553 
L 364.007227 189.910207 
L 364.824609 190.081971 
L 366.050684 190.535743 
L 366.868066 190.515269 
L 368.502832 190.144422 
L 369.320215 190.213028 
L 370.546289 190.462729 
L 372.181055 190.539491 
L 373.407129 190.870453 
L 374.224512 190.839039 
L 377.494043 190.325031 
L 378.720117 190.565752 
L 379.5375 190.628351 
L 381.172266 190.542716 
L 382.39834 190.640832 
L 383.624414 190.498029 
L 383.624414 190.498029 
" style="fill:none;stroke:#1f77b4;stroke-linecap:square;stroke-width:1.5;"/>
   </g>
   <g id="line2d_34">
    <path clip-path="url(#p52b83aa563)" d="M 48.497461 190.246442 
L 48.906152 190.604578 
L 49.314844 190.734218 
L 49.723535 190.580252 
L 50.540918 190.110656 
L 50.949609 190.146522 
L 51.766992 190.82005 
L 52.175684 191.127565 
L 52.584375 191.119839 
L 52.993066 190.710155 
L 53.810449 189.408987 
L 54.219141 189.06809 
L 54.627832 189.054151 
L 55.853906 189.399164 
L 56.262598 189.454281 
L 56.671289 189.625095 
L 57.897363 190.463194 
L 58.306055 190.399732 
L 58.714746 190.080492 
L 59.94082 188.814539 
L 60.349512 188.630195 
L 60.758203 188.612689 
L 61.166895 188.815541 
L 61.984277 189.906675 
L 62.392969 190.46691 
L 62.80166 190.757867 
L 63.210352 190.752158 
L 65.253809 189.750387 
L 66.071191 188.901218 
L 66.479883 188.705614 
L 67.705957 188.887805 
L 68.932031 188.165173 
L 69.340723 188.308179 
L 70.158105 189.03768 
L 70.566797 189.025319 
L 71.792871 187.914004 
L 72.201563 187.997023 
L 73.836328 189.435291 
L 74.24502 189.474905 
L 75.062402 189.104602 
L 75.471094 188.905856 
L 75.879785 188.866963 
L 77.105859 189.207745 
L 78.740625 188.690747 
L 79.558008 188.607607 
L 79.966699 188.435325 
L 80.784082 187.697958 
L 81.601465 186.905471 
L 82.418848 186.312311 
L 82.827539 186.150282 
L 83.23623 186.176783 
L 84.462305 186.589693 
L 86.09707 186.594037 
L 86.505762 186.383422 
L 87.323145 185.487656 
L 87.731836 185.026974 
L 88.140527 184.801262 
L 88.549219 184.943759 
L 88.95791 185.452898 
L 89.775293 186.863316 
L 90.183984 187.305189 
L 90.592676 187.401899 
L 91.001367 187.198446 
L 92.636133 185.872723 
L 93.862207 185.179349 
L 94.270898 185.056778 
L 95.088281 185.151791 
L 96.723047 185.496153 
L 97.949121 185.208836 
L 98.766504 184.886899 
L 99.992578 183.866313 
L 100.40127 183.857114 
L 100.809961 184.132825 
L 101.627344 184.987889 
L 102.036035 185.144192 
L 102.444727 184.947838 
L 103.670801 183.630823 
L 104.079492 183.488969 
L 105.305566 183.362626 
L 106.531641 182.99659 
L 107.757715 182.940725 
L 109.39248 182.248995 
L 110.209863 181.766634 
L 110.618555 181.675431 
L 111.027246 181.799208 
L 113.888086 183.85397 
L 114.296777 183.701222 
L 114.705469 182.959135 
L 115.931543 179.613731 
L 116.340234 179.181199 
L 117.157617 178.956614 
L 118.383691 178.85381 
L 118.792383 178.629725 
L 119.609766 177.609588 
L 120.018457 177.082991 
L 120.427148 176.747615 
L 120.83584 176.680118 
L 122.061914 177.190924 
L 122.470605 177.07137 
L 123.69668 176.217871 
L 124.922754 175.91959 
L 125.740137 175.875278 
L 126.966211 176.228304 
L 127.374902 176.023619 
L 127.783594 175.568236 
L 129.418359 172.840419 
L 129.827051 172.595725 
L 130.644434 172.447433 
L 131.053125 172.158891 
L 132.687891 170.206316 
L 133.505273 169.669509 
L 134.322656 168.811373 
L 134.731348 168.617175 
L 135.957422 168.765383 
L 136.774805 168.391035 
L 138.818262 168.432572 
L 139.226953 168.324209 
L 139.635645 168.055363 
L 140.453027 166.871688 
L 141.27041 165.683624 
L 142.087793 164.669536 
L 142.905176 163.335599 
L 143.313867 162.956562 
L 143.722559 162.877723 
L 144.539941 163.035952 
L 144.948633 163.00565 
L 145.357324 162.791866 
L 145.766016 162.323895 
L 146.583398 160.723865 
L 147.400781 159.066792 
L 147.809473 158.541677 
L 148.218164 158.349022 
L 148.626855 158.477937 
L 149.85293 159.345814 
L 150.261621 159.306226 
L 150.670313 159.022025 
L 151.487695 158.000028 
L 153.122461 155.381435 
L 153.531152 155.026908 
L 154.757227 154.391244 
L 155.165918 153.804027 
L 156.391992 151.297462 
L 156.800684 150.774602 
L 157.209375 150.534865 
L 158.435449 150.282051 
L 159.252832 149.575415 
L 160.887598 147.835586 
L 162.522363 146.277284 
L 163.339746 144.395095 
L 164.157129 142.549267 
L 164.974512 141.011571 
L 165.791895 139.272775 
L 166.200586 138.759863 
L 166.609277 138.658081 
L 167.42666 138.96386 
L 167.835352 138.828099 
L 168.244043 138.265746 
L 169.061426 136.010143 
L 169.878809 133.528442 
L 170.696191 131.862373 
L 171.922266 129.458757 
L 172.330957 129.014654 
L 172.739648 128.971184 
L 173.14834 129.064174 
L 173.557031 128.841896 
L 173.965723 127.996557 
L 175.191797 123.828525 
L 175.600488 122.996321 
L 176.417871 121.835504 
L 177.235254 120.054339 
L 178.052637 117.991453 
L 178.461328 117.300838 
L 179.278711 116.588076 
L 180.096094 115.846448 
L 180.913477 114.579366 
L 182.548242 111.452584 
L 183.365625 109.22574 
L 184.591699 105.705729 
L 187.452539 99.324348 
L 187.86123 98.687314 
L 188.678613 97.784422 
L 189.087305 96.940763 
L 189.904688 94.013553 
L 191.539453 87.226941 
L 192.356836 84.920322 
L 193.58291 82.72317 
L 194.400293 80.312617 
L 195.217676 77.856637 
L 196.44375 75.113973 
L 196.852441 73.45222 
L 197.669824 68.022387 
L 198.078516 65.216833 
L 198.487207 63.344801 
L 198.895898 62.566447 
L 199.713281 62.061718 
L 200.121973 61.436117 
L 200.939355 59.514116 
L 201.756738 57.024671 
L 202.574121 53.975529 
L 205.843652 40.315326 
L 207.887109 32.244893 
L 208.704492 28.954976 
L 209.521875 26.6593 
L 210.339258 25.312504 
L 211.156641 24.518096 
L 211.974023 24.009748 
L 212.382715 23.926154 
L 212.791406 24.021725 
L 213.608789 24.431407 
L 214.426172 24.569443 
L 214.834863 25.233133 
L 215.243555 27.190336 
L 215.652246 30.844124 
L 216.87832 44.333153 
L 217.287012 46.607252 
L 218.104395 49.174353 
L 219.73916 53.879207 
L 220.556543 57.064808 
L 223.008691 68.15483 
L 225.46084 77.291529 
L 226.686914 82.751867 
L 229.956445 93.58953 
L 233.225977 105.715599 
L 234.860742 110.960831 
L 235.678125 112.937845 
L 236.495508 114.275717 
L 237.312891 115.286256 
L 237.721582 116.098243 
L 238.538965 118.600918 
L 239.765039 122.701351 
L 240.991113 125.446717 
L 243.03457 131.65133 
L 243.851953 133.646888 
L 244.669336 134.864524 
L 245.486719 135.987248 
L 246.712793 138.513487 
L 248.347559 141.810979 
L 250.799707 145.707176 
L 251.61709 146.718463 
L 252.025781 147.441429 
L 252.843164 149.827631 
L 253.251855 151.080864 
L 253.660547 151.929358 
L 254.069238 152.276642 
L 254.886621 152.34941 
L 255.295313 152.551181 
L 256.112695 153.428265 
L 256.930078 154.551971 
L 257.747461 156.164842 
L 259.382227 159.888392 
L 259.790918 160.554763 
L 260.199609 161.001631 
L 261.016992 161.399803 
L 261.834375 161.6785 
L 262.243066 161.991167 
L 263.060449 163.151946 
L 263.877832 164.170955 
L 265.103906 164.907872 
L 266.738672 166.412777 
L 267.556055 167.198197 
L 268.782129 168.680378 
L 270.416895 170.12979 
L 271.234277 171.167877 
L 272.05166 172.371783 
L 272.460352 172.711173 
L 272.869043 172.725895 
L 273.277734 172.443367 
L 274.095117 171.576948 
L 274.503809 171.321605 
L 274.9125 171.331531 
L 275.321191 171.700055 
L 275.729883 172.497748 
L 277.364648 177.119967 
L 277.77334 177.296293 
L 278.182031 176.761712 
L 278.999414 175.013748 
L 279.408105 174.724662 
L 279.816797 175.03362 
L 280.63418 176.66816 
L 281.042871 177.470513 
L 281.451563 177.971005 
L 281.860254 178.108686 
L 282.677637 177.998672 
L 283.086328 178.183487 
L 283.903711 178.708204 
L 284.312402 178.70191 
L 285.129785 178.539268 
L 285.538477 178.760743 
L 286.355859 179.943141 
L 287.173242 181.149283 
L 287.581934 181.451572 
L 287.990625 181.522361 
L 289.625391 181.104277 
L 291.260156 181.498968 
L 292.077539 181.278892 
L 292.48623 181.36959 
L 293.303613 182.075137 
L 294.120996 182.742884 
L 294.938379 183.366689 
L 296.164453 184.594633 
L 296.981836 185.051589 
L 298.20791 185.643822 
L 299.025293 186.087493 
L 299.842676 186.304251 
L 301.06875 186.378561 
L 301.886133 186.023226 
L 302.703516 185.555651 
L 303.112207 185.498133 
L 303.520898 185.645619 
L 304.746973 186.608097 
L 305.155664 186.622903 
L 308.425195 185.215788 
L 308.833887 185.299544 
L 309.65127 185.918717 
L 310.877344 187.058655 
L 313.329492 188.387464 
L 314.555566 187.853874 
L 314.964258 188.153137 
L 316.190332 189.911277 
L 316.599023 190.041925 
L 317.416406 189.701717 
L 318.233789 189.169952 
L 319.051172 188.570224 
L 319.459863 188.466399 
L 320.277246 188.731769 
L 321.50332 189.454352 
L 322.320703 189.887323 
L 322.729395 189.790934 
L 323.546777 189.118014 
L 323.955469 188.987703 
L 324.36416 189.156012 
L 325.181543 189.6345 
L 326.407617 189.316593 
L 326.816309 189.533701 
L 327.633691 190.234564 
L 328.042383 190.33897 
L 328.451074 190.122416 
L 329.268457 189.155825 
L 329.677148 188.903436 
L 330.08584 189.002577 
L 331.720605 190.391055 
L 332.129297 190.450328 
L 332.94668 190.245606 
L 333.764063 189.741932 
L 335.80752 188.277794 
L 336.216211 188.080886 
L 336.624902 188.031385 
L 337.033594 188.170848 
L 338.259668 189.156588 
L 338.668359 189.210407 
L 339.485742 189.065388 
L 339.894434 189.386897 
L 341.529199 191.979399 
L 341.937891 192.150462 
L 342.346582 192.103472 
L 343.163965 191.578402 
L 343.981348 191.114473 
L 344.390039 191.11511 
L 345.616113 191.422018 
L 347.65957 191.010154 
L 348.885645 191.279255 
L 349.703027 191.54816 
L 350.111719 191.536677 
L 350.52041 191.308354 
L 351.337793 190.196547 
L 351.746484 189.588619 
L 352.155176 189.25425 
L 352.563867 189.332301 
L 352.972559 189.770363 
L 354.198633 191.508309 
L 354.607324 191.783944 
L 355.016016 191.740561 
L 355.833398 190.955499 
L 356.24209 190.587578 
L 356.650781 190.403435 
L 357.059473 190.401229 
L 357.876855 190.744557 
L 358.694238 191.177576 
L 359.511621 191.333213 
L 360.329004 191.423082 
L 361.146387 191.65021 
L 361.555078 191.563691 
L 362.781152 190.691162 
L 363.189844 190.814951 
L 364.415918 191.866568 
L 366.459375 192.704988 
L 366.868066 192.71068 
L 367.276758 192.470197 
L 368.911523 190.724126 
L 369.320215 190.792272 
L 370.546289 191.980675 
L 370.95498 192.021934 
L 372.181055 191.220351 
L 372.589746 191.213235 
L 373.407129 191.656988 
L 374.633203 192.305714 
L 375.041895 192.396315 
L 375.450586 192.358383 
L 375.859277 192.144373 
L 376.267969 191.727582 
L 377.085352 190.562738 
L 377.494043 190.199009 
L 377.902734 190.187344 
L 379.128809 190.994744 
L 379.946191 191.066047 
L 380.354883 191.101035 
L 381.580957 191.623398 
L 381.989648 191.526354 
L 382.807031 190.896595 
L 383.215723 190.79452 
L 383.624414 190.985124 
L 383.624414 190.985124 
" style="fill:none;stroke:#ff7f0e;stroke-linecap:square;stroke-width:1.5;"/>
   </g>
   <g id="line2d_35">
    <path clip-path="url(#p52b83aa563)" d="M 48.497461 189.270928 
L 48.906152 190.842815 
L 50.132227 198.724872 
L 50.540918 199.665165 
L 50.949609 199.278729 
L 51.358301 197.863778 
L 51.766992 195.625971 
L 52.584375 189.874361 
L 52.993066 188.049631 
L 53.401758 188.061732 
L 54.627832 192.965233 
L 55.036523 193.015914 
L 55.853906 191.254101 
L 57.07998 188.435647 
L 57.488672 188.312171 
L 57.897363 189.210358 
L 58.714746 192.367936 
L 59.123437 192.927036 
L 59.532129 192.285368 
L 60.758203 187.789236 
L 61.984277 182.147796 
L 62.392969 181.283206 
L 62.80166 181.154164 
L 63.210352 181.597436 
L 63.619043 182.693626 
L 64.845117 187.788751 
L 65.253809 188.336738 
L 65.6625 188.258441 
L 66.071191 188.045006 
L 66.479883 187.982619 
L 67.297266 188.082028 
L 67.705957 187.880938 
L 68.932031 186.170059 
L 69.340723 186.088444 
L 69.749414 186.364617 
L 70.158105 187.09139 
L 70.566797 188.607489 
L 71.792871 195.504565 
L 72.201563 195.999443 
L 72.610254 195.199945 
L 73.427637 192.403076 
L 73.836328 191.647563 
L 74.24502 191.503244 
L 74.653711 191.774116 
L 75.062402 192.385527 
L 75.471094 193.430215 
L 76.288477 195.941803 
L 76.697168 195.754644 
L 77.105859 193.662702 
L 77.923242 187.291937 
L 78.331934 186.345025 
L 78.740625 187.71519 
L 79.149316 190.132149 
L 79.558008 191.844841 
L 79.966699 191.888564 
L 80.375391 190.484907 
L 81.192773 186.707625 
L 82.010156 183.941437 
L 82.418848 182.956199 
L 82.827539 182.74688 
L 83.23623 183.756847 
L 84.870996 191.896165 
L 85.279688 191.778505 
L 85.688379 190.803595 
L 86.505762 187.476993 
L 86.914453 185.768169 
L 87.323145 184.838691 
L 87.731836 185.158167 
L 88.549219 188.39205 
L 88.95791 189.832883 
L 89.366602 190.551922 
L 89.775293 190.6337 
L 90.183984 190.226831 
L 90.592676 189.343205 
L 91.81875 185.09348 
L 92.227441 184.6831 
L 92.636133 185.413767 
L 93.453516 187.877495 
L 94.270898 189.367316 
L 95.088281 191.980519 
L 95.905664 195.358119 
L 97.131738 202.627748 
L 97.54043 203.383985 
L 97.949121 202.8409 
L 99.175195 198.866729 
L 99.992578 197.462972 
L 100.40127 196.307551 
L 101.627344 190.790957 
L 102.036035 190.175507 
L 102.444727 190.582435 
L 102.853418 191.938649 
L 103.670801 195.967872 
L 104.079492 197.260949 
L 104.488184 197.349124 
L 104.896875 196.014768 
L 105.305566 193.29481 
L 106.122949 186.629287 
L 106.531641 184.800825 
L 106.940332 184.246728 
L 107.757715 184.137621 
L 108.166406 184.221584 
L 108.983789 185.069142 
L 109.39248 184.80177 
L 109.801172 183.518431 
L 110.209863 181.704577 
L 110.618555 180.402687 
L 111.027246 180.47277 
L 111.435938 182.055246 
L 112.662012 189.955861 
L 113.070703 191.295643 
L 113.479395 191.226681 
L 113.888086 189.865184 
L 114.705469 185.704619 
L 115.11416 184.708991 
L 115.522852 185.249672 
L 116.748926 189.761291 
L 117.157617 190.377595 
L 117.566309 190.666576 
L 117.975 190.330229 
L 118.383691 188.86952 
L 119.201074 184.368619 
L 119.609766 183.635228 
L 120.018457 184.674799 
L 121.244531 191.844889 
L 121.653223 192.217882 
L 122.061914 190.967007 
L 122.879297 187.69862 
L 123.287988 187.146256 
L 123.69668 186.937254 
L 124.922754 185.816356 
L 125.740137 186.675663 
L 126.148828 186.526309 
L 126.55752 185.620383 
L 126.966211 184.437392 
L 127.374902 183.721244 
L 127.783594 183.958657 
L 128.600977 186.085678 
L 129.009668 186.306477 
L 129.418359 185.338384 
L 129.827051 183.800442 
L 130.235742 182.804571 
L 130.644434 183.058722 
L 131.053125 184.479719 
L 132.279199 190.681321 
L 132.687891 192.03007 
L 133.096582 192.526171 
L 133.505273 191.893559 
L 133.913965 189.960079 
L 135.140039 181.555997 
L 135.54873 180.864954 
L 135.957422 181.793983 
L 137.183496 188.344945 
L 137.592188 188.805492 
L 138.000879 187.925224 
L 138.40957 186.577954 
L 138.818262 185.66111 
L 139.226953 185.49533 
L 140.044336 186.129413 
L 140.453027 185.998992 
L 140.861719 185.31901 
L 142.905176 180.251162 
L 143.313867 179.675675 
L 143.722559 179.80537 
L 144.13125 180.678701 
L 144.948633 182.755893 
L 145.357324 183.163747 
L 145.766016 183.170648 
L 146.99209 182.436975 
L 147.400781 182.124804 
L 147.809473 181.325402 
L 148.626855 178.610065 
L 149.035547 178.139904 
L 149.444238 178.769248 
L 150.670313 182.138662 
L 151.487695 183.38403 
L 151.896387 183.389226 
L 152.305078 182.601229 
L 153.122461 179.969314 
L 153.531152 179.254449 
L 153.939844 179.057398 
L 154.348535 179.011781 
L 154.757227 178.735063 
L 155.165918 177.890765 
L 155.574609 176.189032 
L 156.391992 170.223026 
L 156.800684 166.959516 
L 157.209375 164.790739 
L 157.618066 164.769113 
L 158.026758 167.245727 
L 158.844141 174.575415 
L 159.252832 175.583753 
L 159.661523 174.024832 
L 160.478906 169.168482 
L 160.887598 168.978416 
L 161.296289 170.838192 
L 162.113672 177.056943 
L 162.522363 178.806693 
L 162.931055 178.237778 
L 163.339746 175.18317 
L 164.157129 166.365266 
L 164.56582 164.256729 
L 164.974512 164.738257 
L 165.791895 168.053423 
L 166.200586 168.286203 
L 167.017969 166.97836 
L 167.835352 165.3777 
L 169.061426 162.258305 
L 170.2875 159.834432 
L 171.104883 156.792928 
L 171.513574 156.144723 
L 171.922266 157.379357 
L 173.14834 167.535267 
L 173.557031 168.367308 
L 173.965723 167.526253 
L 174.783105 164.250682 
L 175.600488 159.073173 
L 176.00918 156.563341 
L 176.417871 155.500882 
L 176.826563 156.161294 
L 177.235254 157.666934 
L 177.643945 158.715342 
L 178.052637 158.567721 
L 178.461328 157.323264 
L 180.096094 150.004714 
L 180.504785 149.525201 
L 180.913477 149.742529 
L 181.730859 150.736069 
L 182.139551 151.538588 
L 182.548242 152.963571 
L 183.365625 156.395643 
L 183.774316 156.59209 
L 184.183008 154.910059 
L 185.000391 147.688796 
L 185.817773 140.974406 
L 186.226465 139.051007 
L 186.635156 138.494507 
L 187.043848 139.503419 
L 188.269922 146.499171 
L 188.678613 146.845254 
L 189.087305 145.053845 
L 189.495996 141.13256 
L 190.72207 126.174542 
L 191.948145 117.911179 
L 192.356836 115.550611 
L 192.765527 114.189369 
L 193.174219 114.05609 
L 193.58291 114.928412 
L 194.808984 119.677964 
L 195.217676 120.059075 
L 195.626367 119.664729 
L 196.44375 118.417087 
L 196.852441 117.192525 
L 197.261133 114.511831 
L 197.669824 109.8521 
L 198.487207 98.443497 
L 198.895898 95.546422 
L 199.30459 95.518671 
L 200.121973 98.613035 
L 200.530664 99.181519 
L 200.939355 98.577253 
L 202.16543 94.438409 
L 202.574121 94.634423 
L 202.982813 95.269948 
L 203.391504 94.896248 
L 203.800195 92.66405 
L 204.617578 85.960426 
L 205.02627 83.989768 
L 205.843652 81.969402 
L 206.252344 80.248281 
L 207.069727 75.03627 
L 207.887109 66.842679 
L 208.704492 58.39106 
L 209.113184 56.431073 
L 209.930566 54.655687 
L 210.339258 52.825549 
L 211.565332 45.677747 
L 211.974023 44.628336 
L 212.382715 44.410292 
L 212.791406 44.508857 
L 213.200098 43.914028 
L 213.608789 41.301048 
L 214.01748 35.918178 
L 214.426172 28.903423 
L 214.834863 23.926154 
L 215.243555 25.933605 
L 215.652246 37.844253 
L 216.469629 77.371794 
L 216.87832 90.767133 
L 217.287012 94.996319 
L 217.695703 92.463088 
L 218.513086 83.220654 
L 218.921777 81.214513 
L 219.330469 81.314441 
L 219.73916 82.757034 
L 221.782617 93.104963 
L 222.6 96.352787 
L 223.417383 100.174575 
L 223.826074 100.816052 
L 224.234766 100.371237 
L 224.643457 99.629143 
L 225.052148 99.459927 
L 225.46084 100.183031 
L 226.278223 103.180386 
L 227.504297 108.562381 
L 228.32168 113.415285 
L 229.547754 122.399157 
L 229.956445 123.875711 
L 230.365137 124.471252 
L 230.773828 124.853839 
L 231.18252 125.491775 
L 231.999902 127.590611 
L 232.408594 129.111842 
L 233.225977 133.745677 
L 233.634668 136.226634 
L 234.043359 137.968471 
L 234.452051 138.507226 
L 234.860742 137.777301 
L 236.086816 132.989107 
L 236.495508 133.084347 
L 236.904199 134.843384 
L 238.130273 143.726864 
L 238.538965 144.853922 
L 238.947656 144.969013 
L 239.356348 145.254458 
L 239.765039 146.693802 
L 240.991113 153.914118 
L 241.399805 154.31042 
L 242.217188 152.777832 
L 242.625879 153.094647 
L 243.443262 155.660881 
L 243.851953 155.859997 
L 244.669336 154.684821 
L 245.078027 155.271535 
L 245.486719 157.316825 
L 246.712793 166.718616 
L 247.121484 167.987434 
L 247.530176 167.70419 
L 247.938867 166.396713 
L 248.75625 163.168602 
L 249.164941 162.384789 
L 249.573633 162.680999 
L 250.391016 164.825004 
L 250.799707 165.524226 
L 251.61709 166.385792 
L 253.251855 168.547269 
L 253.660547 168.899635 
L 254.069238 168.800066 
L 254.886621 167.342762 
L 255.295313 167.368364 
L 255.704004 168.440572 
L 256.521387 171.151369 
L 256.930078 171.68242 
L 257.747461 171.953445 
L 258.156152 172.763139 
L 258.973535 175.189041 
L 259.382227 175.125289 
L 259.790918 173.894723 
L 260.608301 171.028757 
L 261.016992 170.910461 
L 261.425684 172.210296 
L 261.834375 174.858437 
L 262.651758 181.282778 
L 263.060449 182.90642 
L 263.469141 182.730512 
L 264.286523 180.294163 
L 264.695215 180.209733 
L 265.103906 181.339112 
L 265.921289 186.056968 
L 266.32998 188.57606 
L 266.738672 189.941743 
L 267.147363 189.286329 
L 267.556055 186.644997 
L 268.373438 179.940295 
L 268.782129 178.031275 
L 269.19082 177.35422 
L 269.599512 177.5494 
L 270.008203 178.276724 
L 271.234277 181.162328 
L 271.642969 181.507433 
L 272.05166 181.122125 
L 272.460352 180.496783 
L 272.869043 180.674234 
L 273.277734 182.146631 
L 273.686426 184.167462 
L 274.095117 185.369371 
L 274.503809 184.911987 
L 275.321191 181.282483 
L 275.729883 180.93431 
L 276.138574 182.67103 
L 276.955957 187.832277 
L 277.364648 188.038055 
L 278.590723 183.031894 
L 278.999414 183.010624 
L 279.816797 184.006857 
L 280.63418 184.001257 
L 281.042871 184.386079 
L 283.086328 188.795175 
L 284.312402 194.125938 
L 284.721094 194.346884 
L 285.129785 193.252334 
L 285.538477 191.11653 
L 286.764551 182.55502 
L 287.173242 181.77162 
L 287.581934 182.744446 
L 288.399316 186.297473 
L 288.808008 187.421726 
L 289.625391 188.703985 
L 290.034082 188.920591 
L 290.442773 188.430801 
L 291.668848 184.439099 
L 292.077539 183.921887 
L 292.48623 184.310481 
L 293.712305 188.143664 
L 294.120996 187.89484 
L 294.938379 185.998518 
L 295.34707 186.078661 
L 296.164453 187.535164 
L 296.573145 187.837025 
L 296.981836 187.477785 
L 298.20791 184.516244 
L 298.616602 185.221776 
L 299.433984 188.497988 
L 299.842676 189.410261 
L 300.251367 189.398539 
L 300.660059 188.535071 
L 301.477441 185.484644 
L 301.886133 184.825854 
L 302.294824 185.808857 
L 303.520898 193.510619 
L 303.92959 194.506758 
L 304.338281 194.255923 
L 304.746973 193.051121 
L 306.381738 186.331513 
L 307.199121 184.071932 
L 307.607813 183.575823 
L 308.016504 183.879261 
L 308.425195 185.273642 
L 310.059961 194.89185 
L 310.468652 195.257395 
L 310.877344 194.827371 
L 311.286035 193.766164 
L 312.512109 188.541539 
L 312.920801 187.655897 
L 313.329492 187.191957 
L 313.738184 186.544985 
L 314.146875 185.614955 
L 314.555566 185.016974 
L 314.964258 185.455559 
L 315.781641 188.529999 
L 316.190332 189.116017 
L 316.599023 188.177987 
L 318.233789 179.991442 
L 318.64248 179.095022 
L 319.051172 178.686244 
L 319.459863 178.574391 
L 319.868555 178.657683 
L 320.277246 178.990027 
L 321.50332 181.098813 
L 321.912012 181.007778 
L 322.729395 179.681233 
L 323.138086 179.899106 
L 323.546777 181.287966 
L 325.181543 190.427762 
L 325.590234 191.621626 
L 325.998926 191.967804 
L 326.407617 191.281853 
L 326.816309 189.624976 
L 327.633691 185.573674 
L 328.042383 184.596598 
L 328.451074 184.773455 
L 328.859766 185.83955 
L 330.903223 193.104074 
L 331.311914 193.773878 
L 331.720605 193.697385 
L 332.129297 192.943616 
L 332.537988 191.880823 
L 332.94668 191.159648 
L 333.355371 191.314147 
L 334.172754 192.890635 
L 334.581445 192.570017 
L 334.990137 191.068032 
L 335.398828 189.130181 
L 335.80752 187.942354 
L 336.216211 188.296264 
L 336.624902 190.008123 
L 337.442285 194.293327 
L 337.850977 195.990566 
L 338.259668 197.004326 
L 338.668359 196.748579 
L 339.894434 191.826856 
L 340.303125 191.618062 
L 340.711816 191.783573 
L 341.120508 191.636949 
L 341.937891 190.738682 
L 342.346582 190.998553 
L 343.163965 193.297088 
L 343.572656 193.626581 
L 343.981348 192.422918 
L 344.79873 188.4945 
L 345.207422 188.139546 
L 345.616113 189.080999 
L 346.433496 191.417464 
L 347.250879 192.814533 
L 347.65957 193.302204 
L 348.068262 193.253285 
L 348.476953 192.944107 
L 348.885645 193.278099 
L 349.294336 194.861595 
L 350.111719 199.303731 
L 350.52041 199.950185 
L 350.929102 199.207901 
L 351.337793 198.050282 
L 351.746484 197.475034 
L 352.155176 197.529924 
L 352.563867 197.391272 
L 352.972559 196.414934 
L 353.789941 193.51461 
L 354.198633 192.813843 
L 354.607324 192.789968 
L 355.016016 193.474026 
L 355.424707 194.949222 
L 356.24209 198.299991 
L 356.650781 198.307201 
L 357.059473 196.668459 
L 357.876855 191.975021 
L 358.285547 191.412968 
L 358.694238 192.482324 
L 359.10293 194.078601 
L 359.511621 194.947569 
L 359.920313 194.83921 
L 360.329004 194.606433 
L 360.737695 195.180437 
L 361.555078 197.859808 
L 361.96377 198.107487 
L 362.372461 197.092729 
L 363.189844 193.840431 
L 363.598535 192.812004 
L 364.007227 192.269936 
L 364.415918 192.041783 
L 365.233301 192.082029 
L 366.050684 192.226316 
L 367.276758 192.860558 
L 367.685449 192.492823 
L 368.094141 191.299371 
L 368.911523 187.593953 
L 369.320215 186.673468 
L 369.728906 187.063585 
L 370.95498 191.371371 
L 371.363672 191.540562 
L 372.181055 190.084037 
L 372.589746 189.917892 
L 372.998438 190.427309 
L 374.224512 192.750471 
L 375.041895 195.376676 
L 375.450586 195.868163 
L 375.859277 195.197617 
L 376.67666 192.82975 
L 377.085352 192.308851 
L 377.494043 191.969558 
L 378.311426 190.931992 
L 378.720117 190.967946 
L 379.946191 192.906386 
L 380.354883 192.456575 
L 381.172266 190.613574 
L 381.580957 190.464684 
L 381.989648 191.308392 
L 382.39834 192.64529 
L 382.807031 193.557114 
L 383.215723 193.622092 
L 383.624414 193.299684 
L 383.624414 193.299684 
" style="fill:none;stroke:#2ca02c;stroke-linecap:square;stroke-width:1.5;"/>
   </g>
   <g id="line2d_36">
    <path clip-path="url(#p52b83aa563)" d="M 48.497461 183.981608 
L 49.314844 196.304348 
L 49.723535 198.344256 
L 50.132227 195.643968 
L 50.949609 184.801335 
L 51.358301 182.433282 
L 51.766992 183.447018 
L 52.175684 187.341498 
L 53.810449 211.08286 
L 54.219141 211.137244 
L 54.627832 209.924196 
L 55.036523 209.371653 
L 55.445215 209.42121 
L 55.853906 208.761123 
L 56.671289 204.339412 
L 57.07998 202.306738 
L 57.897363 199.716141 
L 58.306055 199.04958 
L 59.123437 199.007233 
L 59.532129 197.413079 
L 59.94082 194.470683 
L 60.349512 192.940852 
L 60.758203 195.663172 
L 61.575586 208.588206 
L 61.984277 211.524063 
L 62.392969 210.315072 
L 63.619043 199.710661 
L 64.027734 198.587349 
L 64.436426 199.125621 
L 64.845117 200.189196 
L 65.253809 200.322306 
L 66.071191 197.718038 
L 66.479883 197.536284 
L 66.888574 198.852454 
L 68.114648 204.341985 
L 68.932031 207.403264 
L 69.340723 207.989939 
L 69.749414 207.385794 
L 70.566797 205.229861 
L 70.975488 205.129224 
L 71.38418 205.355023 
L 71.792871 204.670645 
L 72.201563 202.001563 
L 73.018945 193.253723 
L 73.427637 190.53224 
L 73.836328 189.81807 
L 74.24502 190.424147 
L 75.471094 193.814794 
L 75.879785 196.539112 
L 77.105859 209.953885 
L 77.514551 211.036222 
L 77.923242 210.017449 
L 78.331934 207.523345 
L 78.740625 203.281169 
L 79.558008 190.654898 
L 79.966699 186.656306 
L 80.375391 186.552908 
L 80.784082 188.785477 
L 81.192773 190.135207 
L 81.601465 188.389042 
L 82.418848 179.957253 
L 82.827539 179.287726 
L 83.23623 182.507334 
L 83.644922 186.732983 
L 84.053613 188.171626 
L 84.462305 185.33244 
L 85.279688 175.124395 
L 85.688379 173.46851 
L 86.09707 175.116486 
L 86.914453 180.708792 
L 87.323145 182.726797 
L 87.731836 185.42672 
L 88.549219 191.769005 
L 88.95791 192.899381 
L 89.366602 193.249611 
L 89.775293 194.561982 
L 90.592676 199.516938 
L 91.001367 200.300579 
L 91.410059 199.903966 
L 91.81875 200.114138 
L 92.227441 202.526158 
L 92.636133 207.543668 
L 93.453516 220.188465 
L 93.862207 223.059563 
L 94.270898 221.643669 
L 95.088281 213.259549 
L 95.496973 212.417104 
L 96.314355 218.402509 
L 96.723047 218.121589 
L 97.131738 211.625945 
L 98.357813 173.965559 
L 98.766504 168.365597 
L 99.175195 168.872828 
L 99.992578 176.849109 
L 100.40127 179.108011 
L 100.809961 179.661611 
L 101.218652 179.504789 
L 101.627344 179.537682 
L 102.036035 180.263057 
L 102.853418 183.652462 
L 103.262109 185.268994 
L 104.079492 187.417682 
L 104.488184 188.239625 
L 104.896875 188.161694 
L 105.305566 186.68499 
L 105.714258 184.496263 
L 106.122949 183.041358 
L 106.531641 183.474421 
L 106.940332 186.227168 
L 108.166406 200.803916 
L 108.575098 202.128224 
L 108.983789 199.615512 
L 110.209863 182.094265 
L 110.618555 180.159014 
L 111.027246 182.113515 
L 112.25332 195.539196 
L 112.662012 195.302623 
L 113.070703 191.622621 
L 113.888086 180.275214 
L 114.296777 177.495847 
L 114.705469 179.51601 
L 115.931543 197.894399 
L 116.340234 198.903672 
L 116.748926 198.168163 
L 117.157617 198.20559 
L 117.566309 200.102664 
L 118.383691 205.775392 
L 118.792383 205.573661 
L 119.201074 200.994317 
L 119.609766 191.886064 
L 120.427148 170.232089 
L 120.83584 166.283787 
L 121.244531 170.645326 
L 122.470605 204.866532 
L 122.879297 209.323687 
L 123.287988 208.800845 
L 123.69668 206.328373 
L 124.105371 204.779864 
L 124.514063 204.918245 
L 125.331445 207.029713 
L 126.148828 211.171291 
L 126.55752 211.915954 
L 126.966211 208.991187 
L 128.192285 187.736583 
L 128.600977 184.992151 
L 129.009668 186.232299 
L 130.235742 197.063618 
L 131.053125 199.892551 
L 131.461816 202.499569 
L 131.870508 206.117037 
L 132.279199 208.106324 
L 132.687891 205.627391 
L 133.505273 191.311813 
L 133.913965 187.067027 
L 134.322656 187.027485 
L 135.140039 191.052195 
L 135.957422 192.994165 
L 136.366113 193.555135 
L 136.774805 193.400199 
L 137.183496 192.430913 
L 137.592188 190.957459 
L 138.40957 186.538959 
L 138.818262 184.499372 
L 139.226953 184.366138 
L 139.635645 186.480807 
L 140.453027 192.013068 
L 141.27041 195.310168 
L 142.087793 197.831694 
L 142.496484 198.455572 
L 142.905176 198.795386 
L 143.313867 198.745388 
L 143.722559 197.561215 
L 144.13125 194.206623 
L 145.357324 174.923765 
L 145.766016 172.416486 
L 146.174707 174.039479 
L 146.99209 182.155684 
L 147.400781 184.365345 
L 147.809473 184.622221 
L 148.218164 183.556035 
L 149.444238 178.015876 
L 149.85293 179.638191 
L 150.261621 185.442221 
L 151.079004 203.558662 
L 151.487695 209.360028 
L 151.896387 210.104327 
L 152.71377 202.530287 
L 153.122461 201.224034 
L 153.531152 203.923363 
L 153.939844 208.294999 
L 154.348535 210.973173 
L 154.757227 210.4887 
L 156.391992 198.887713 
L 156.800684 195.219693 
L 157.209375 189.340392 
L 158.026758 173.698045 
L 158.435449 169.433166 
L 158.844141 170.517322 
L 159.252832 175.975599 
L 160.070215 189.683479 
L 160.478906 194.725068 
L 160.887598 197.863511 
L 161.296289 198.960415 
L 161.70498 198.325801 
L 162.931055 194.013057 
L 163.339746 190.620842 
L 163.748438 184.136082 
L 164.56582 168.922427 
L 164.974512 166.050737 
L 165.383203 167.165126 
L 165.791895 169.722771 
L 166.200586 170.399491 
L 166.609277 167.079623 
L 167.835352 146.950173 
L 168.244043 146.288566 
L 168.652734 150.386312 
L 170.2875 178.586383 
L 170.696191 179.256888 
L 171.104883 177.25148 
L 171.513574 174.436084 
L 171.922266 172.403571 
L 172.330957 171.866637 
L 172.739648 172.60877 
L 173.557031 175.475249 
L 174.374414 179.772859 
L 174.783105 181.908235 
L 175.191797 182.964936 
L 175.600488 182.855834 
L 176.00918 181.981259 
L 176.826563 179.455028 
L 177.235254 179.907504 
L 177.643945 183.233924 
L 179.278711 204.844253 
L 179.687402 208.640879 
L 180.096094 210.186792 
L 180.504785 207.90266 
L 180.913477 201.708098 
L 182.548242 165.749144 
L 182.956934 164.061286 
L 183.365625 167.777387 
L 184.183008 181.265514 
L 184.591699 185.848054 
L 185.000391 188.066174 
L 185.409082 188.674342 
L 185.817773 187.875539 
L 186.226465 184.848476 
L 187.043848 171.787789 
L 187.452539 165.68323 
L 187.86123 162.982529 
L 188.269922 163.649269 
L 188.678613 165.405281 
L 189.087305 165.501353 
L 189.495996 162.589602 
L 190.72207 147.179072 
L 191.130762 144.297828 
L 191.539453 142.597467 
L 191.948145 142.209381 
L 192.356836 144.036406 
L 193.58291 157.987724 
L 193.991602 159.229653 
L 194.400293 157.24768 
L 196.035059 140.783151 
L 196.44375 141.715726 
L 196.852441 146.516529 
L 197.669824 159.966013 
L 198.078516 160.798752 
L 198.487207 155.526343 
L 199.30459 141.315709 
L 199.713281 138.137184 
L 200.530664 135.205813 
L 200.939355 134.424354 
L 201.348047 135.089682 
L 202.16543 139.455816 
L 202.574121 140.590702 
L 202.982813 139.516723 
L 203.800195 132.480205 
L 204.617578 125.700361 
L 205.434961 121.136142 
L 205.843652 120.12833 
L 206.661035 119.37294 
L 207.069727 118.568813 
L 207.478418 116.895472 
L 207.887109 113.728383 
L 208.295801 108.369104 
L 209.521875 85.762879 
L 209.930566 83.566268 
L 210.747949 86.7352 
L 211.156641 85.758911 
L 211.565332 81.409035 
L 212.382715 71.61602 
L 213.200098 68.175911 
L 213.608789 62.505063 
L 214.01748 50.789222 
L 214.834863 23.926154 
L 215.243555 25.877097 
L 215.652246 47.965705 
L 216.87832 153.686848 
L 217.287012 160.23508 
L 218.513086 142.950896 
L 218.921777 143.535902 
L 219.330469 144.86205 
L 219.73916 144.582391 
L 220.147852 142.228823 
L 220.965234 136.39988 
L 222.191309 131.863911 
L 223.008691 128.120877 
L 223.417383 127.56106 
L 223.826074 129.202694 
L 224.234766 133.406112 
L 225.052148 143.45211 
L 225.46084 145.340863 
L 225.869531 144.904159 
L 226.278223 144.21598 
L 226.686914 145.478235 
L 227.095605 149.336061 
L 227.912988 159.26353 
L 228.32168 161.917352 
L 228.730371 162.387751 
L 229.547754 160.76768 
L 229.956445 159.494021 
L 230.365137 156.534155 
L 230.773828 150.934867 
L 231.999902 128.842944 
L 232.408594 125.286274 
L 232.817285 125.335878 
L 233.225977 129.721578 
L 233.634668 138.922693 
L 234.452051 164.96511 
L 234.860742 173.955959 
L 235.269434 176.706619 
L 235.678125 174.718255 
L 237.721582 156.021101 
L 238.130273 155.091605 
L 238.538965 157.408925 
L 239.356348 165.745765 
L 240.17373 176.676599 
L 240.582422 182.012369 
L 240.991113 183.123087 
L 241.399805 178.71828 
L 241.808496 171.866034 
L 242.217188 167.512351 
L 242.625879 168.220415 
L 243.443262 177.08045 
L 243.851953 179.337083 
L 244.260645 179.358467 
L 244.669336 179.050934 
L 245.078027 180.199639 
L 245.89541 184.702813 
L 246.304102 184.867549 
L 246.712793 183.443599 
L 247.530176 179.338708 
L 248.347559 173.457553 
L 248.75625 170.534658 
L 249.164941 169.544238 
L 249.573633 171.57432 
L 249.982324 176.351523 
L 250.799707 188.526625 
L 251.208398 192.609214 
L 251.61709 193.641931 
L 252.025781 191.584622 
L 252.843164 184.701381 
L 253.251855 184.017941 
L 253.660547 186.054753 
L 254.47793 194.39711 
L 255.295313 202.060964 
L 255.704004 202.929867 
L 256.112695 200.321623 
L 256.521387 193.982036 
L 257.33877 176.979658 
L 257.747461 171.522783 
L 258.156152 169.464344 
L 258.564844 169.807821 
L 258.973535 171.297058 
L 259.382227 173.25244 
L 259.790918 175.881968 
L 260.199609 179.950819 
L 261.016992 190.476476 
L 261.425684 192.674682 
L 261.834375 191.607551 
L 262.243066 189.501599 
L 262.651758 188.993019 
L 263.469141 192.099391 
L 263.877832 191.553262 
L 264.695215 185.911957 
L 265.103906 185.132591 
L 265.512598 186.992724 
L 266.32998 192.407502 
L 266.738672 193.003301 
L 267.147363 192.301315 
L 267.556055 191.021963 
L 267.964746 189.158283 
L 268.373438 186.185336 
L 269.599512 173.368416 
L 270.008203 170.884764 
L 270.416895 169.521744 
L 270.825586 168.736571 
L 271.234277 168.826585 
L 271.642969 170.791497 
L 272.05166 175.056332 
L 272.869043 186.134967 
L 273.686426 193.351517 
L 274.095117 197.305164 
L 275.321191 215.559194 
L 275.729883 212.804672 
L 276.547266 197.311608 
L 276.955957 194.786639 
L 277.364648 196.412975 
L 277.77334 198.571562 
L 278.182031 199.169106 
L 278.590723 198.944059 
L 278.999414 199.404171 
L 279.816797 202.396137 
L 280.225488 202.819775 
L 280.63418 201.172035 
L 281.860254 189.251593 
L 282.268945 188.610888 
L 282.677637 190.754719 
L 283.086328 194.230751 
L 283.49502 196.509502 
L 283.903711 194.77343 
L 284.312402 187.692932 
L 285.129785 166.869128 
L 285.538477 160.813631 
L 285.947168 159.749205 
L 286.355859 162.279785 
L 287.173242 171.561943 
L 287.990625 183.057499 
L 289.216699 201.417129 
L 289.625391 204.364925 
L 290.442773 207.944106 
L 290.851465 210.176863 
L 291.260156 211.104539 
L 291.668848 209.184334 
L 293.303613 192.516574 
L 293.712305 191.339401 
L 294.120996 191.601048 
L 294.529688 193.344057 
L 295.34707 198.935084 
L 295.755762 200.190668 
L 296.164453 199.78825 
L 296.981836 197.276042 
L 297.390527 194.615911 
L 297.799219 189.573832 
L 298.616602 177.092527 
L 299.025293 174.644788 
L 299.433984 176.018559 
L 300.251367 182.957121 
L 300.660059 184.482821 
L 301.06875 184.799256 
L 301.477441 185.659101 
L 302.294824 188.924826 
L 302.703516 188.581126 
L 303.112207 187.154146 
L 303.520898 186.247855 
L 303.92959 186.589399 
L 304.746973 189.415091 
L 305.155664 190.718173 
L 305.564355 191.016039 
L 305.973047 189.761136 
L 306.79043 184.731705 
L 307.199121 183.972073 
L 307.607813 185.937629 
L 308.833887 198.449549 
L 309.242578 199.272501 
L 309.65127 197.658249 
L 310.877344 187.805752 
L 311.286035 188.419684 
L 311.694727 193.16861 
L 312.512109 207.466534 
L 312.920801 211.245389 
L 313.329492 209.829686 
L 313.738184 203.374684 
L 314.555566 188.758375 
L 314.964258 186.900811 
L 315.372949 188.262544 
L 315.781641 190.342263 
L 316.190332 191.301259 
L 316.599023 190.332018 
L 317.007715 187.200001 
L 317.825098 177.108252 
L 318.233789 173.956765 
L 318.64248 174.477454 
L 319.868555 185.121135 
L 321.094629 189.167831 
L 321.50332 190.066958 
L 321.912012 190.176184 
L 322.320703 190.461883 
L 322.729395 192.021138 
L 323.546777 196.472978 
L 323.955469 196.721879 
L 324.36416 195.254787 
L 325.181543 189.261559 
L 325.590234 185.84513 
L 325.998926 183.379909 
L 326.407617 183.021917 
L 326.816309 185.257174 
L 327.633691 193.249333 
L 328.042383 194.924371 
L 328.451074 193.301802 
L 329.268457 186.532636 
L 329.677148 186.120142 
L 330.08584 187.336292 
L 330.494531 187.239577 
L 330.903223 183.994048 
L 331.720605 174.166116 
L 332.129297 172.737116 
L 332.537988 174.744449 
L 333.355371 182.850433 
L 333.764063 184.450541 
L 334.172754 182.602848 
L 334.990137 174.641394 
L 335.398828 174.698754 
L 335.80752 179.855352 
L 336.624902 197.372772 
L 337.033594 203.390139 
L 337.442285 205.515368 
L 337.850977 204.811879 
L 338.668359 200.908267 
L 339.077051 197.389042 
L 339.894434 185.290142 
L 340.711816 172.992299 
L 341.120508 168.28099 
L 341.529199 166.340618 
L 341.937891 168.689432 
L 343.163965 186.370802 
L 343.572656 188.167564 
L 343.981348 186.5974 
L 344.390039 182.280567 
L 346.024805 158.605628 
L 346.433496 159.508853 
L 346.842188 164.92616 
L 348.068262 185.61994 
L 348.476953 189.459847 
L 348.885645 190.847216 
L 349.294336 190.745927 
L 349.703027 191.534353 
L 350.111719 194.84609 
L 350.52041 199.596903 
L 350.929102 202.686862 
L 351.337793 201.755768 
L 352.155176 193.212226 
L 352.563867 193.185175 
L 352.972559 198.329514 
L 353.38125 205.048038 
L 353.789941 207.994388 
L 354.198633 204.99883 
L 355.016016 193.534013 
L 355.424707 191.690508 
L 355.833398 193.126678 
L 356.24209 197.340911 
L 357.468164 216.980609 
L 357.876855 218.385719 
L 358.285547 215.760164 
L 359.10293 207.878238 
L 359.920313 204.632254 
L 360.329004 201.388265 
L 360.737695 195.148472 
L 361.555078 180.348738 
L 361.96377 178.012307 
L 362.372461 181.609106 
L 363.189844 196.987936 
L 363.598535 198.99701 
L 364.007227 193.892451 
L 364.824609 177.233033 
L 365.233301 173.860935 
L 365.641992 173.815137 
L 366.050684 174.387507 
L 366.459375 173.946885 
L 366.868066 172.87389 
L 367.276758 172.623305 
L 367.685449 174.195774 
L 368.911523 183.786693 
L 369.320215 185.689794 
L 370.137598 187.616108 
L 370.546289 189.193419 
L 371.363672 193.413646 
L 371.772363 193.489841 
L 372.181055 191.314243 
L 372.998438 185.523106 
L 373.407129 185.013659 
L 373.81582 186.470099 
L 374.633203 191.312233 
L 376.267969 198.577431 
L 376.67666 199.927451 
L 377.085352 199.429971 
L 377.494043 196.407784 
L 378.311426 187.316439 
L 378.720117 186.160288 
L 379.128809 188.539167 
L 379.5375 191.64213 
L 379.946191 191.676348 
L 380.354883 187.532265 
L 380.763574 181.851595 
L 381.172266 178.318252 
L 381.580957 178.189804 
L 381.989648 179.645094 
L 382.39834 180.14455 
L 382.807031 178.77629 
L 383.624414 173.19423 
L 383.624414 173.19423 
" style="fill:none;stroke:#d62728;stroke-linecap:square;stroke-width:1.5;"/>
   </g>
   <g id="patch_3">
    <path d="M 48.660938 224.64 
L 48.660938 7.2 
" style="fill:none;stroke:#000000;stroke-linecap:square;stroke-linejoin:miter;stroke-width:0.8;"/>
   </g>
   <g id="patch_4">
    <path d="M 383.460938 224.64 
L 383.460938 7.2 
" style="fill:none;stroke:#000000;stroke-linecap:square;stroke-linejoin:miter;stroke-width:0.8;"/>
   </g>
   <g id="patch_5">
    <path d="M 48.660938 224.64 
L 383.460938 224.64 
" style="fill:none;stroke:#000000;stroke-linecap:square;stroke-linejoin:miter;stroke-width:0.8;"/>
   </g>
   <g id="patch_6">
    <path d="M 48.660938 7.2 
L 383.460938 7.2 
" style="fill:none;stroke:#000000;stroke-linecap:square;stroke-linejoin:miter;stroke-width:0.8;"/>
   </g>
   <g id="legend_1">
    <g id="patch_7">
     <path d="M 274.260938 77.99375 
L 376.460938 77.99375 
Q 378.460938 77.99375 378.460938 75.99375 
L 378.460938 14.2 
Q 378.460938 12.2 376.460938 12.2 
L 274.260938 12.2 
Q 272.260938 12.2 272.260938 14.2 
L 272.260938 75.99375 
Q 272.260938 77.99375 274.260938 77.99375 
z
" style="fill:#ffffff;opacity:0.8;stroke:#cccccc;stroke-linejoin:miter;"/>
    </g>
    <g id="line2d_37">
     <path d="M 276.260938 20.298437 
L 296.260938 20.298437 
" style="fill:none;stroke:#1f77b4;stroke-linecap:square;stroke-width:1.5;"/>
    </g>
    <g id="line2d_38"/>
    <g id="text_19">
     <!-- $t_p$ = 1.5e-05 s -->
     <defs>
      <path d="M 42.28125 54.6875 
L 40.921875 47.703125 
L 23 47.703125 
L 17.1875 18.015625 
Q 16.890625 16.359375 16.75 15.234375 
Q 16.609375 14.109375 16.609375 13.484375 
Q 16.609375 10.359375 18.484375 8.9375 
Q 20.359375 7.515625 24.515625 7.515625 
L 33.59375 7.515625 
L 32.078125 0 
L 23.484375 0 
Q 15.484375 0 11.546875 3.125 
Q 7.625 6.25 7.625 12.59375 
Q 7.625 13.71875 7.765625 15.0625 
Q 7.90625 16.40625 8.203125 18.015625 
L 14.015625 47.703125 
L 6.390625 47.703125 
L 7.8125 54.6875 
L 15.28125 54.6875 
L 18.3125 70.21875 
L 27.296875 70.21875 
L 24.3125 54.6875 
z
" id="DejaVuSans-Oblique-74"/>
      <path d="M 49.609375 33.6875 
Q 49.609375 40.875 46.484375 44.671875 
Q 43.359375 48.484375 37.5 48.484375 
Q 33.5 48.484375 29.859375 46.4375 
Q 26.21875 44.390625 23.390625 40.484375 
Q 20.609375 36.625 18.9375 31.15625 
Q 17.28125 25.6875 17.28125 20.3125 
Q 17.28125 13.484375 20.40625 9.796875 
Q 23.53125 6.109375 29.296875 6.109375 
Q 33.546875 6.109375 37.1875 8.109375 
Q 40.828125 10.109375 43.40625 13.921875 
Q 46.1875 17.921875 47.890625 23.34375 
Q 49.609375 28.765625 49.609375 33.6875 
z
M 21.78125 46.390625 
Q 25.390625 51.125 30.296875 53.5625 
Q 35.203125 56 41.21875 56 
Q 49.609375 56 54.25 50.5 
Q 58.890625 45.015625 58.890625 35.109375 
Q 58.890625 27 56 19.65625 
Q 53.125 12.3125 47.703125 6.5 
Q 44.09375 2.640625 39.546875 0.609375 
Q 35.015625 -1.421875 29.984375 -1.421875 
Q 24.171875 -1.421875 20.21875 1 
Q 16.265625 3.421875 14.3125 8.203125 
L 8.6875 -20.796875 
L -0.296875 -20.796875 
L 14.40625 54.6875 
L 23.390625 54.6875 
z
" id="DejaVuSans-Oblique-70"/>
      <path d="M 10.59375 45.40625 
L 73.1875 45.40625 
L 73.1875 37.203125 
L 10.59375 37.203125 
z
M 10.59375 25.484375 
L 73.1875 25.484375 
L 73.1875 17.1875 
L 10.59375 17.1875 
z
" id="DejaVuSans-3d"/>
      <path d="M 4.890625 31.390625 
L 31.203125 31.390625 
L 31.203125 23.390625 
L 4.890625 23.390625 
z
" id="DejaVuSans-2d"/>
      <path d="M 44.28125 53.078125 
L 44.28125 44.578125 
Q 40.484375 46.53125 36.375 47.5 
Q 32.28125 48.484375 27.875 48.484375 
Q 21.1875 48.484375 17.84375 46.4375 
Q 14.5 44.390625 14.5 40.28125 
Q 14.5 37.15625 16.890625 35.375 
Q 19.28125 33.59375 26.515625 31.984375 
L 29.59375 31.296875 
Q 39.15625 29.25 43.1875 25.515625 
Q 47.21875 21.78125 47.21875 15.09375 
Q 47.21875 7.46875 41.1875 3.015625 
Q 35.15625 -1.421875 24.609375 -1.421875 
Q 20.21875 -1.421875 15.453125 -0.5625 
Q 10.6875 0.296875 5.421875 2 
L 5.421875 11.28125 
Q 10.40625 8.6875 15.234375 7.390625 
Q 20.0625 6.109375 24.8125 6.109375 
Q 31.15625 6.109375 34.5625 8.28125 
Q 37.984375 10.453125 37.984375 14.40625 
Q 37.984375 18.0625 35.515625 20.015625 
Q 33.0625 21.96875 24.703125 23.78125 
L 21.578125 24.515625 
Q 13.234375 26.265625 9.515625 29.90625 
Q 5.8125 33.546875 5.8125 39.890625 
Q 5.8125 47.609375 11.28125 51.796875 
Q 16.75 56 26.8125 56 
Q 31.78125 56 36.171875 55.265625 
Q 40.578125 54.546875 44.28125 53.078125 
z
" id="DejaVuSans-73"/>
     </defs>
     <g transform="translate(304.260938 23.798437)scale(0.1 -0.1)">
      <use transform="translate(0 0.78125)" xlink:href="#DejaVuSans-Oblique-74"/>
      <use transform="translate(39.208984 -15.625)scale(0.7)" xlink:href="#DejaVuSans-Oblique-70"/>
      <use transform="translate(86.376953 0.78125)" xlink:href="#DejaVuSans-20"/>
      <use transform="translate(118.164062 0.78125)" xlink:href="#DejaVuSans-3d"/>
      <use transform="translate(201.953125 0.78125)" xlink:href="#DejaVuSans-20"/>
      <use transform="translate(233.740234 0.78125)" xlink:href="#DejaVuSans-31"/>
      <use transform="translate(297.363281 0.78125)" xlink:href="#DejaVuSans-2e"/>
      <use transform="translate(329.150391 0.78125)" xlink:href="#DejaVuSans-35"/>
      <use transform="translate(392.773438 0.78125)" xlink:href="#DejaVuSans-65"/>
      <use transform="translate(454.296875 0.78125)" xlink:href="#DejaVuSans-2d"/>
      <use transform="translate(490.380859 0.78125)" xlink:href="#DejaVuSans-30"/>
      <use transform="translate(554.003906 0.78125)" xlink:href="#DejaVuSans-35"/>
      <use transform="translate(617.626953 0.78125)" xlink:href="#DejaVuSans-20"/>
      <use transform="translate(649.414062 0.78125)" xlink:href="#DejaVuSans-73"/>
     </g>
    </g>
    <g id="line2d_39">
     <path d="M 276.260938 35.996875 
L 296.260938 35.996875 
" style="fill:none;stroke:#ff7f0e;stroke-linecap:square;stroke-width:1.5;"/>
    </g>
    <g id="line2d_40"/>
    <g id="text_20">
     <!-- $t_p$ = 9.0e-04 s -->
     <defs>
      <path d="M 10.984375 1.515625 
L 10.984375 10.5 
Q 14.703125 8.734375 18.5 7.8125 
Q 22.3125 6.890625 25.984375 6.890625 
Q 35.75 6.890625 40.890625 13.453125 
Q 46.046875 20.015625 46.78125 33.40625 
Q 43.953125 29.203125 39.59375 26.953125 
Q 35.25 24.703125 29.984375 24.703125 
Q 19.046875 24.703125 12.671875 31.3125 
Q 6.296875 37.9375 6.296875 49.421875 
Q 6.296875 60.640625 12.9375 67.421875 
Q 19.578125 74.21875 30.609375 74.21875 
Q 43.265625 74.21875 49.921875 64.515625 
Q 56.59375 54.828125 56.59375 36.375 
Q 56.59375 19.140625 48.40625 8.859375 
Q 40.234375 -1.421875 26.421875 -1.421875 
Q 22.703125 -1.421875 18.890625 -0.6875 
Q 15.09375 0.046875 10.984375 1.515625 
z
M 30.609375 32.421875 
Q 37.25 32.421875 41.125 36.953125 
Q 45.015625 41.5 45.015625 49.421875 
Q 45.015625 57.28125 41.125 61.84375 
Q 37.25 66.40625 30.609375 66.40625 
Q 23.96875 66.40625 20.09375 61.84375 
Q 16.21875 57.28125 16.21875 49.421875 
Q 16.21875 41.5 20.09375 36.953125 
Q 23.96875 32.421875 30.609375 32.421875 
z
" id="DejaVuSans-39"/>
     </defs>
     <g transform="translate(304.260938 39.496875)scale(0.1 -0.1)">
      <use transform="translate(0 0.78125)" xlink:href="#DejaVuSans-Oblique-74"/>
      <use transform="translate(39.208984 -15.625)scale(0.7)" xlink:href="#DejaVuSans-Oblique-70"/>
      <use transform="translate(86.376953 0.78125)" xlink:href="#DejaVuSans-20"/>
      <use transform="translate(118.164062 0.78125)" xlink:href="#DejaVuSans-3d"/>
      <use transform="translate(201.953125 0.78125)" xlink:href="#DejaVuSans-20"/>
      <use transform="translate(233.740234 0.78125)" xlink:href="#DejaVuSans-39"/>
      <use transform="translate(297.363281 0.78125)" xlink:href="#DejaVuSans-2e"/>
      <use transform="translate(329.150391 0.78125)" xlink:href="#DejaVuSans-30"/>
      <use transform="translate(392.773438 0.78125)" xlink:href="#DejaVuSans-65"/>
      <use transform="translate(454.296875 0.78125)" xlink:href="#DejaVuSans-2d"/>
      <use transform="translate(490.380859 0.78125)" xlink:href="#DejaVuSans-30"/>
      <use transform="translate(554.003906 0.78125)" xlink:href="#DejaVuSans-34"/>
      <use transform="translate(617.626953 0.78125)" xlink:href="#DejaVuSans-20"/>
      <use transform="translate(649.414062 0.78125)" xlink:href="#DejaVuSans-73"/>
     </g>
    </g>
    <g id="line2d_41">
     <path d="M 276.260938 51.695312 
L 296.260938 51.695312 
" style="fill:none;stroke:#2ca02c;stroke-linecap:square;stroke-width:1.5;"/>
    </g>
    <g id="line2d_42"/>
    <g id="text_21">
     <!-- $t_p$ = 2.0e-03 s -->
     <defs>
      <path d="M 40.578125 39.3125 
Q 47.65625 37.796875 51.625 33 
Q 55.609375 28.21875 55.609375 21.1875 
Q 55.609375 10.40625 48.1875 4.484375 
Q 40.765625 -1.421875 27.09375 -1.421875 
Q 22.515625 -1.421875 17.65625 -0.515625 
Q 12.796875 0.390625 7.625 2.203125 
L 7.625 11.71875 
Q 11.71875 9.328125 16.59375 8.109375 
Q 21.484375 6.890625 26.8125 6.890625 
Q 36.078125 6.890625 40.9375 10.546875 
Q 45.796875 14.203125 45.796875 21.1875 
Q 45.796875 27.640625 41.28125 31.265625 
Q 36.765625 34.90625 28.71875 34.90625 
L 20.21875 34.90625 
L 20.21875 43.015625 
L 29.109375 43.015625 
Q 36.375 43.015625 40.234375 45.921875 
Q 44.09375 48.828125 44.09375 54.296875 
Q 44.09375 59.90625 40.109375 62.90625 
Q 36.140625 65.921875 28.71875 65.921875 
Q 24.65625 65.921875 20.015625 65.03125 
Q 15.375 64.15625 9.8125 62.3125 
L 9.8125 71.09375 
Q 15.4375 72.65625 20.34375 73.4375 
Q 25.25 74.21875 29.59375 74.21875 
Q 40.828125 74.21875 47.359375 69.109375 
Q 53.90625 64.015625 53.90625 55.328125 
Q 53.90625 49.265625 50.4375 45.09375 
Q 46.96875 40.921875 40.578125 39.3125 
z
" id="DejaVuSans-33"/>
     </defs>
     <g transform="translate(304.260938 55.195312)scale(0.1 -0.1)">
      <use transform="translate(0 0.78125)" xlink:href="#DejaVuSans-Oblique-74"/>
      <use transform="translate(39.208984 -15.625)scale(0.7)" xlink:href="#DejaVuSans-Oblique-70"/>
      <use transform="translate(86.376953 0.78125)" xlink:href="#DejaVuSans-20"/>
      <use transform="translate(118.164062 0.78125)" xlink:href="#DejaVuSans-3d"/>
      <use transform="translate(201.953125 0.78125)" xlink:href="#DejaVuSans-20"/>
      <use transform="translate(233.740234 0.78125)" xlink:href="#DejaVuSans-32"/>
      <use transform="translate(297.363281 0.78125)" xlink:href="#DejaVuSans-2e"/>
      <use transform="translate(329.150391 0.78125)" xlink:href="#DejaVuSans-30"/>
      <use transform="translate(392.773438 0.78125)" xlink:href="#DejaVuSans-65"/>
      <use transform="translate(454.296875 0.78125)" xlink:href="#DejaVuSans-2d"/>
      <use transform="translate(490.380859 0.78125)" xlink:href="#DejaVuSans-30"/>
      <use transform="translate(554.003906 0.78125)" xlink:href="#DejaVuSans-33"/>
      <use transform="translate(617.626953 0.78125)" xlink:href="#DejaVuSans-20"/>
      <use transform="translate(649.414062 0.78125)" xlink:href="#DejaVuSans-73"/>
     </g>
    </g>
    <g id="line2d_43">
     <path d="M 276.260938 67.39375 
L 296.260938 67.39375 
" style="fill:none;stroke:#d62728;stroke-linecap:square;stroke-width:1.5;"/>
    </g>
    <g id="line2d_44"/>
    <g id="text_22">
     <!-- $t_p$ = 2.8e-03 s -->
     <g transform="translate(304.260938 70.89375)scale(0.1 -0.1)">
      <use transform="translate(0 0.78125)" xlink:href="#DejaVuSans-Oblique-74"/>
      <use transform="translate(39.208984 -15.625)scale(0.7)" xlink:href="#DejaVuSans-Oblique-70"/>
      <use transform="translate(86.376953 0.78125)" xlink:href="#DejaVuSans-20"/>
      <use transform="translate(118.164062 0.78125)" xlink:href="#DejaVuSans-3d"/>
      <use transform="translate(201.953125 0.78125)" xlink:href="#DejaVuSans-20"/>
      <use transform="translate(233.740234 0.78125)" xlink:href="#DejaVuSans-32"/>
      <use transform="translate(297.363281 0.78125)" xlink:href="#DejaVuSans-2e"/>
      <use transform="translate(329.119141 0.78125)" xlink:href="#DejaVuSans-38"/>
      <use transform="translate(392.742188 0.78125)" xlink:href="#DejaVuSans-65"/>
      <use transform="translate(454.265625 0.78125)" xlink:href="#DejaVuSans-2d"/>
      <use transform="translate(490.349609 0.78125)" xlink:href="#DejaVuSans-30"/>
      <use transform="translate(553.972656 0.78125)" xlink:href="#DejaVuSans-33"/>
      <use transform="translate(617.595703 0.78125)" xlink:href="#DejaVuSans-20"/>
      <use transform="translate(649.382812 0.78125)" xlink:href="#DejaVuSans-73"/>
     </g>
    </g>
   </g>
  </g>
 </g>
 <defs>
  <clipPath id="p52b83aa563">
   <rect height="217.44" width="334.8" x="48.660938" y="7.2"/>
  </clipPath>
 </defs>
</svg>
