<?xml version="1.0" encoding="utf-8" standalone="no"?>
<!DOCTYPE svg PUBLIC "-//W3C//DTD SVG 1.1//EN"
  "http://www.w3.org/Graphics/SVG/1.1/DTD/svg11.dtd">
<!-- Created with matplotlib (http://matplotlib.org/) -->
<svg height="259.718125pt" version="1.1" viewBox="0 0 379.103125 259.718125" width="379.103125pt" xmlns="http://www.w3.org/2000/svg" xmlns:xlink="http://www.w3.org/1999/xlink">
 <defs>
  <style type="text/css">
*{stroke-linecap:butt;stroke-linejoin:round;}
  </style>
 </defs>
 <g id="figure_1">
  <g id="patch_1">
   <path d="M 0 259.718125 
L 379.103125 259.718125 
L 379.103125 0 
L 0 0 
z
" style="fill:#ffffff;"/>
  </g>
  <g id="axes_1">
   <g id="patch_2">
    <path d="M 37.103125 224.64 
L 371.903125 224.64 
L 371.903125 7.2 
L 37.103125 7.2 
z
" style="fill:#ffffff;"/>
   </g>
   <g id="PathCollection_1">
    <defs>
     <path d="M 0 3 
C 0.795609 3 1.55874 2.683901 2.12132 2.12132 
C 2.683901 1.55874 3 0.795609 3 0 
C 3 -0.795609 2.683901 -1.55874 2.12132 -2.12132 
C 1.55874 -2.683901 0.795609 -3 0 -3 
C -0.795609 -3 -1.55874 -2.683901 -2.12132 -2.12132 
C -2.683901 -1.55874 -3 -0.795609 -3 0 
C -3 0.795609 -2.683901 1.55874 -2.12132 2.12132 
C -1.55874 2.683901 -0.795609 3 0 3 
z
" id="m100c28f156" style="stroke:#1f77b4;"/>
    </defs>
    <g clip-path="url(#p4f0e93dc71)">
     <use style="fill:#1f77b4;stroke:#1f77b4;" x="68.557383" xlink:href="#m100c28f156" y="20.399932"/>
     <use style="fill:#1f77b4;stroke:#1f77b4;" x="89.012421" xlink:href="#m100c28f156" y="19.765828"/>
     <use style="fill:#1f77b4;stroke:#1f77b4;" x="109.786528" xlink:href="#m100c28f156" y="18.240858"/>
     <use style="fill:#1f77b4;stroke:#1f77b4;" x="130.241566" xlink:href="#m100c28f156" y="20.199913"/>
     <use style="fill:#1f77b4;stroke:#1f77b4;" x="150.467129" xlink:href="#m100c28f156" y="20.541317"/>
     <use style="fill:#1f77b4;stroke:#1f77b4;" x="171.060009" xlink:href="#m100c28f156" y="21.439749"/>
     <use style="fill:#1f77b4;stroke:#1f77b4;" x="191.473744" xlink:href="#m100c28f156" y="26.33526"/>
     <use style="fill:#1f77b4;stroke:#1f77b4;" x="211.978339" xlink:href="#m100c28f156" y="29.465114"/>
     <use style="fill:#1f77b4;stroke:#1f77b4;" x="232.507599" xlink:href="#m100c28f156" y="39.973934"/>
     <use style="fill:#1f77b4;stroke:#1f77b4;" x="252.962637" xlink:href="#m100c28f156" y="53.558703"/>
     <use style="fill:#1f77b4;stroke:#1f77b4;" x="265.294899" xlink:href="#m100c28f156" y="79.627424"/>
    </g>
   </g>
   <g id="PathCollection_2">
    <defs>
     <path d="M 0 3 
C 0.795609 3 1.55874 2.683901 2.12132 2.12132 
C 2.683901 1.55874 3 0.795609 3 0 
C 3 -0.795609 2.683901 -1.55874 2.12132 -2.12132 
C 1.55874 -2.683901 0.795609 -3 0 -3 
C -0.795609 -3 -1.55874 -2.683901 -2.12132 -2.12132 
C -2.683901 -1.55874 -3 -0.795609 -3 0 
C -3 0.795609 -2.683901 1.55874 -2.12132 2.12132 
C -1.55874 2.683901 -0.795609 3 0 3 
z
" id="m78ed9d16cb" style="stroke:#ff7f0e;"/>
    </defs>
    <g clip-path="url(#p4f0e93dc71)">
     <use style="fill:#ff7f0e;stroke:#ff7f0e;" x="68.557383" xlink:href="#m78ed9d16cb" y="21.070447"/>
     <use style="fill:#ff7f0e;stroke:#ff7f0e;" x="89.012421" xlink:href="#m78ed9d16cb" y="20.159247"/>
     <use style="fill:#ff7f0e;stroke:#ff7f0e;" x="109.786528" xlink:href="#m78ed9d16cb" y="20.06704"/>
     <use style="fill:#ff7f0e;stroke:#ff7f0e;" x="130.241566" xlink:href="#m78ed9d16cb" y="21.356526"/>
     <use style="fill:#ff7f0e;stroke:#ff7f0e;" x="150.467129" xlink:href="#m78ed9d16cb" y="20.915822"/>
     <use style="fill:#ff7f0e;stroke:#ff7f0e;" x="171.060009" xlink:href="#m78ed9d16cb" y="23.243234"/>
     <use style="fill:#ff7f0e;stroke:#ff7f0e;" x="191.473744" xlink:href="#m78ed9d16cb" y="26.36505"/>
     <use style="fill:#ff7f0e;stroke:#ff7f0e;" x="211.978339" xlink:href="#m78ed9d16cb" y="34.443374"/>
     <use style="fill:#ff7f0e;stroke:#ff7f0e;" x="232.507599" xlink:href="#m78ed9d16cb" y="44.55452"/>
     <use style="fill:#ff7f0e;stroke:#ff7f0e;" x="252.962637" xlink:href="#m78ed9d16cb" y="62.017679"/>
     <use style="fill:#ff7f0e;stroke:#ff7f0e;" x="265.294899" xlink:href="#m78ed9d16cb" y="88.07316"/>
    </g>
   </g>
   <g id="PathCollection_3">
    <defs>
     <path d="M 0 3 
C 0.795609 3 1.55874 2.683901 2.12132 2.12132 
C 2.683901 1.55874 3 0.795609 3 0 
C 3 -0.795609 2.683901 -1.55874 2.12132 -2.12132 
C 1.55874 -2.683901 0.795609 -3 0 -3 
C -0.795609 -3 -1.55874 -2.683901 -2.12132 -2.12132 
C -2.683901 -1.55874 -3 -0.795609 -3 0 
C -3 0.795609 -2.683901 1.55874 -2.12132 2.12132 
C -1.55874 2.683901 -0.795609 3 0 3 
z
" id="m1c37a70933" style="stroke:#2ca02c;"/>
    </defs>
    <g clip-path="url(#p4f0e93dc71)">
     <use style="fill:#2ca02c;stroke:#2ca02c;" x="68.557383" xlink:href="#m1c37a70933" y="20.768762"/>
     <use style="fill:#2ca02c;stroke:#2ca02c;" x="89.012421" xlink:href="#m1c37a70933" y="20.473225"/>
     <use style="fill:#2ca02c;stroke:#2ca02c;" x="109.786528" xlink:href="#m1c37a70933" y="20.276043"/>
     <use style="fill:#2ca02c;stroke:#2ca02c;" x="130.241566" xlink:href="#m1c37a70933" y="21.694148"/>
     <use style="fill:#2ca02c;stroke:#2ca02c;" x="150.467129" xlink:href="#m1c37a70933" y="22.407219"/>
     <use style="fill:#2ca02c;stroke:#2ca02c;" x="171.060009" xlink:href="#m1c37a70933" y="25.837339"/>
     <use style="fill:#2ca02c;stroke:#2ca02c;" x="191.473744" xlink:href="#m1c37a70933" y="29.974383"/>
     <use style="fill:#2ca02c;stroke:#2ca02c;" x="211.978339" xlink:href="#m1c37a70933" y="36.736741"/>
     <use style="fill:#2ca02c;stroke:#2ca02c;" x="232.507599" xlink:href="#m1c37a70933" y="49.976795"/>
     <use style="fill:#2ca02c;stroke:#2ca02c;" x="252.962637" xlink:href="#m1c37a70933" y="78.600847"/>
     <use style="fill:#2ca02c;stroke:#2ca02c;" x="265.294899" xlink:href="#m1c37a70933" y="96.989864"/>
    </g>
   </g>
   <g id="PathCollection_4">
    <defs>
     <path d="M 0 3 
C 0.795609 3 1.55874 2.683901 2.12132 2.12132 
C 2.683901 1.55874 3 0.795609 3 0 
C 3 -0.795609 2.683901 -1.55874 2.12132 -2.12132 
C 1.55874 -2.683901 0.795609 -3 0 -3 
C -0.795609 -3 -1.55874 -2.683901 -2.12132 -2.12132 
C -2.683901 -1.55874 -3 -0.795609 -3 0 
C -3 0.795609 -2.683901 1.55874 -2.12132 2.12132 
C -1.55874 2.683901 -0.795609 3 0 3 
z
" id="m0d22f4ac32" style="stroke:#d62728;"/>
    </defs>
    <g clip-path="url(#p4f0e93dc71)">
     <use style="fill:#d62728;stroke:#d62728;" x="68.557383" xlink:href="#m0d22f4ac32" y="22.889063"/>
     <use style="fill:#d62728;stroke:#d62728;" x="89.012421" xlink:href="#m0d22f4ac32" y="22.241718"/>
     <use style="fill:#d62728;stroke:#d62728;" x="109.786528" xlink:href="#m0d22f4ac32" y="22.682423"/>
     <use style="fill:#d62728;stroke:#d62728;" x="130.241566" xlink:href="#m0d22f4ac32" y="24.652354"/>
     <use style="fill:#d62728;stroke:#d62728;" x="150.467129" xlink:href="#m0d22f4ac32" y="23.901927"/>
     <use style="fill:#d62728;stroke:#d62728;" x="171.060009" xlink:href="#m0d22f4ac32" y="27.695675"/>
     <use style="fill:#d62728;stroke:#d62728;" x="191.473744" xlink:href="#m0d22f4ac32" y="31.767938"/>
     <use style="fill:#d62728;stroke:#d62728;" x="211.978339" xlink:href="#m0d22f4ac32" y="42.164217"/>
     <use style="fill:#d62728;stroke:#d62728;" x="232.507599" xlink:href="#m0d22f4ac32" y="55.508301"/>
     <use style="fill:#d62728;stroke:#d62728;" x="252.962637" xlink:href="#m0d22f4ac32" y="76.504662"/>
     <use style="fill:#d62728;stroke:#d62728;" x="265.294899" xlink:href="#m0d22f4ac32" y="112.941765"/>
    </g>
   </g>
   <g id="PathCollection_5">
    <defs>
     <path d="M 0 3 
C 0.795609 3 1.55874 2.683901 2.12132 2.12132 
C 2.683901 1.55874 3 0.795609 3 0 
C 3 -0.795609 2.683901 -1.55874 2.12132 -2.12132 
C 1.55874 -2.683901 0.795609 -3 0 -3 
C -0.795609 -3 -1.55874 -2.683901 -2.12132 -2.12132 
C -2.683901 -1.55874 -3 -0.795609 -3 0 
C -3 0.795609 -2.683901 1.55874 -2.12132 2.12132 
C -1.55874 2.683901 -0.795609 3 0 3 
z
" id="m57cbda343e" style="stroke:#9467bd;"/>
    </defs>
    <g clip-path="url(#p4f0e93dc71)">
     <use style="fill:#9467bd;stroke:#9467bd;" x="68.557383" xlink:href="#m57cbda343e" y="24.690656"/>
     <use style="fill:#9467bd;stroke:#9467bd;" x="89.012421" xlink:href="#m57cbda343e" y="24.528465"/>
     <use style="fill:#9467bd;stroke:#9467bd;" x="109.786528" xlink:href="#m57cbda343e" y="24.827312"/>
     <use style="fill:#9467bd;stroke:#9467bd;" x="130.241566" xlink:href="#m57cbda343e" y="27.214777"/>
     <use style="fill:#9467bd;stroke:#9467bd;" x="150.467129" xlink:href="#m57cbda343e" y="27.642715"/>
     <use style="fill:#9467bd;stroke:#9467bd;" x="171.060009" xlink:href="#m57cbda343e" y="32.657858"/>
     <use style="fill:#9467bd;stroke:#9467bd;" x="191.473744" xlink:href="#m57cbda343e" y="40.486986"/>
     <use style="fill:#9467bd;stroke:#9467bd;" x="211.978339" xlink:href="#m57cbda343e" y="53.050379"/>
     <use style="fill:#9467bd;stroke:#9467bd;" x="232.507599" xlink:href="#m57cbda343e" y="73.870364"/>
     <use style="fill:#9467bd;stroke:#9467bd;" x="252.962637" xlink:href="#m57cbda343e" y="118.356001"/>
     <use style="fill:#9467bd;stroke:#9467bd;" x="265.294899" xlink:href="#m57cbda343e" y="131.522289"/>
    </g>
   </g>
   <g id="PathCollection_6">
    <defs>
     <path d="M 0 3 
C 0.795609 3 1.55874 2.683901 2.12132 2.12132 
C 2.683901 1.55874 3 0.795609 3 0 
C 3 -0.795609 2.683901 -1.55874 2.12132 -2.12132 
C 1.55874 -2.683901 0.795609 -3 0 -3 
C -0.795609 -3 -1.55874 -2.683901 -2.12132 -2.12132 
C -2.683901 -1.55874 -3 -0.795609 -3 0 
C -3 0.795609 -2.683901 1.55874 -2.12132 2.12132 
C -1.55874 2.683901 -0.795609 3 0 3 
z
" id="m5d93677222" style="stroke:#8c564b;"/>
    </defs>
    <g clip-path="url(#p4f0e93dc71)">
     <use style="fill:#8c564b;stroke:#8c564b;" x="68.557383" xlink:href="#m5d93677222" y="27.404867"/>
     <use style="fill:#8c564b;stroke:#8c564b;" x="89.012421" xlink:href="#m5d93677222" y="27.466811"/>
     <use style="fill:#8c564b;stroke:#8c564b;" x="109.786528" xlink:href="#m5d93677222" y="28.637138"/>
     <use style="fill:#8c564b;stroke:#8c564b;" x="130.241566" xlink:href="#m5d93677222" y="32.312671"/>
     <use style="fill:#8c564b;stroke:#8c564b;" x="150.467129" xlink:href="#m5d93677222" y="36.967023"/>
     <use style="fill:#8c564b;stroke:#8c564b;" x="171.060009" xlink:href="#m5d93677222" y="46.160349"/>
     <use style="fill:#8c564b;stroke:#8c564b;" x="191.473744" xlink:href="#m5d93677222" y="61.500844"/>
     <use style="fill:#8c564b;stroke:#8c564b;" x="211.978339" xlink:href="#m5d93677222" y="83.119488"/>
     <use style="fill:#8c564b;stroke:#8c564b;" x="232.507599" xlink:href="#m5d93677222" y="107.87177"/>
     <use style="fill:#8c564b;stroke:#8c564b;" x="252.962637" xlink:href="#m5d93677222" y="167.187686"/>
    </g>
   </g>
   <g id="PathCollection_7">
    <defs>
     <path d="M 0 3 
C 0.795609 3 1.55874 2.683901 2.12132 2.12132 
C 2.683901 1.55874 3 0.795609 3 0 
C 3 -0.795609 2.683901 -1.55874 2.12132 -2.12132 
C 1.55874 -2.683901 0.795609 -3 0 -3 
C -0.795609 -3 -1.55874 -2.683901 -2.12132 -2.12132 
C -2.683901 -1.55874 -3 -0.795609 -3 0 
C -3 0.795609 -2.683901 1.55874 -2.12132 2.12132 
C -1.55874 2.683901 -0.795609 3 0 3 
z
" id="mee16bd4f25" style="stroke:#e377c2;"/>
    </defs>
    <g clip-path="url(#p4f0e93dc71)">
     <use style="fill:#e377c2;stroke:#e377c2;" x="68.557383" xlink:href="#mee16bd4f25" y="30.251006"/>
     <use style="fill:#e377c2;stroke:#e377c2;" x="89.012421" xlink:href="#mee16bd4f25" y="31.746186"/>
     <use style="fill:#e377c2;stroke:#e377c2;" x="109.786528" xlink:href="#mee16bd4f25" y="34.840576"/>
     <use style="fill:#e377c2;stroke:#e377c2;" x="130.241566" xlink:href="#mee16bd4f25" y="41.315908"/>
     <use style="fill:#e377c2;stroke:#e377c2;" x="150.467129" xlink:href="#mee16bd4f25" y="51.697056"/>
     <use style="fill:#e377c2;stroke:#e377c2;" x="171.060009" xlink:href="#mee16bd4f25" y="67.650376"/>
     <use style="fill:#e377c2;stroke:#e377c2;" x="191.473744" xlink:href="#mee16bd4f25" y="93.813669"/>
     <use style="fill:#e377c2;stroke:#e377c2;" x="211.978339" xlink:href="#mee16bd4f25" y="128.393381"/>
     <use style="fill:#e377c2;stroke:#e377c2;" x="232.507599" xlink:href="#mee16bd4f25" y="176.899738"/>
     <use style="fill:#e377c2;stroke:#e377c2;" x="252.962637" xlink:href="#mee16bd4f25" y="207.817629"/>
    </g>
   </g>
   <g id="PathCollection_8">
    <defs>
     <path d="M 0 3 
C 0.795609 3 1.55874 2.683901 2.12132 2.12132 
C 2.683901 1.55874 3 0.795609 3 0 
C 3 -0.795609 2.683901 -1.55874 2.12132 -2.12132 
C 1.55874 -2.683901 0.795609 -3 0 -3 
C -0.795609 -3 -1.55874 -2.683901 -2.12132 -2.12132 
C -2.683901 -1.55874 -3 -0.795609 -3 0 
C -3 0.795609 -2.683901 1.55874 -2.12132 2.12132 
C -1.55874 2.683901 -0.795609 3 0 3 
z
" id="m7fc6ce684c" style="stroke:#7f7f7f;"/>
    </defs>
    <g clip-path="url(#p4f0e93dc71)">
     <use style="fill:#7f7f7f;stroke:#7f7f7f;" x="68.557383" xlink:href="#m7fc6ce684c" y="38.335004"/>
     <use style="fill:#7f7f7f;stroke:#7f7f7f;" x="89.012421" xlink:href="#m7fc6ce684c" y="41.178779"/>
     <use style="fill:#7f7f7f;stroke:#7f7f7f;" x="109.786528" xlink:href="#m7fc6ce684c" y="47.576089"/>
     <use style="fill:#7f7f7f;stroke:#7f7f7f;" x="130.241566" xlink:href="#m7fc6ce684c" y="59.88934"/>
     <use style="fill:#7f7f7f;stroke:#7f7f7f;" x="150.467129" xlink:href="#m7fc6ce684c" y="79.020746"/>
     <use style="fill:#7f7f7f;stroke:#7f7f7f;" x="171.060009" xlink:href="#m7fc6ce684c" y="105.730664"/>
     <use style="fill:#7f7f7f;stroke:#7f7f7f;" x="191.473744" xlink:href="#m7fc6ce684c" y="139.526375"/>
     <use style="fill:#7f7f7f;stroke:#7f7f7f;" x="211.978339" xlink:href="#m7fc6ce684c" y="185.953571"/>
     <use style="fill:#7f7f7f;stroke:#7f7f7f;" x="232.507599" xlink:href="#m7fc6ce684c" y="201.264275"/>
    </g>
   </g>
   <g id="PathCollection_9">
    <defs>
     <path d="M 0 3 
C 0.795609 3 1.55874 2.683901 2.12132 2.12132 
C 2.683901 1.55874 3 0.795609 3 0 
C 3 -0.795609 2.683901 -1.55874 2.12132 -2.12132 
C 1.55874 -2.683901 0.795609 -3 0 -3 
C -0.795609 -3 -1.55874 -2.683901 -2.12132 -2.12132 
C -2.683901 -1.55874 -3 -0.795609 -3 0 
C -3 0.795609 -2.683901 1.55874 -2.12132 2.12132 
C -1.55874 2.683901 -0.795609 3 0 3 
z
" id="m484437aa75" style="stroke:#bcbd22;"/>
    </defs>
    <g clip-path="url(#p4f0e93dc71)">
     <use style="fill:#bcbd22;stroke:#bcbd22;" x="68.557383" xlink:href="#m484437aa75" y="46.288494"/>
     <use style="fill:#bcbd22;stroke:#bcbd22;" x="89.012421" xlink:href="#m484437aa75" y="54.539885"/>
     <use style="fill:#bcbd22;stroke:#bcbd22;" x="109.786528" xlink:href="#m484437aa75" y="69.054295"/>
     <use style="fill:#bcbd22;stroke:#bcbd22;" x="130.241566" xlink:href="#m484437aa75" y="89.156953"/>
     <use style="fill:#bcbd22;stroke:#bcbd22;" x="150.467129" xlink:href="#m484437aa75" y="129.16556"/>
     <use style="fill:#bcbd22;stroke:#bcbd22;" x="171.060009" xlink:href="#m484437aa75" y="178.508878"/>
     <use style="fill:#bcbd22;stroke:#bcbd22;" x="191.473744" xlink:href="#m484437aa75" y="203.255485"/>
     <use style="fill:#bcbd22;stroke:#bcbd22;" x="211.978339" xlink:href="#m484437aa75" y="208.492872"/>
    </g>
   </g>
   <g id="matplotlib.axis_1">
    <g id="xtick_1">
     <g id="line2d_1">
      <defs>
       <path d="M 0 0 
L 0 -3.5 
" id="ma991a0d213" style="stroke:#000000;stroke-width:0.8;"/>
      </defs>
      <g>
       <use style="stroke:#000000;stroke-width:0.8;" x="52.321307" xlink:href="#ma991a0d213" y="224.64"/>
      </g>
     </g>
     <g id="line2d_2">
      <defs>
       <path d="M 0 0 
L 0 3.5 
" id="mce932131e0" style="stroke:#000000;stroke-width:0.8;"/>
      </defs>
      <g>
       <use style="stroke:#000000;stroke-width:0.8;" x="52.321307" xlink:href="#mce932131e0" y="7.2"/>
      </g>
     </g>
     <g id="text_1">
      <!-- $\mathdefault{10^{-5}}$ -->
      <defs>
       <path d="M 12.40625 8.296875 
L 28.515625 8.296875 
L 28.515625 63.921875 
L 10.984375 60.40625 
L 10.984375 69.390625 
L 28.421875 72.90625 
L 38.28125 72.90625 
L 38.28125 8.296875 
L 54.390625 8.296875 
L 54.390625 0 
L 12.40625 0 
z
" id="DejaVuSans-31"/>
       <path d="M 31.78125 66.40625 
Q 24.171875 66.40625 20.328125 58.90625 
Q 16.5 51.421875 16.5 36.375 
Q 16.5 21.390625 20.328125 13.890625 
Q 24.171875 6.390625 31.78125 6.390625 
Q 39.453125 6.390625 43.28125 13.890625 
Q 47.125 21.390625 47.125 36.375 
Q 47.125 51.421875 43.28125 58.90625 
Q 39.453125 66.40625 31.78125 66.40625 
z
M 31.78125 74.21875 
Q 44.046875 74.21875 50.515625 64.515625 
Q 56.984375 54.828125 56.984375 36.375 
Q 56.984375 17.96875 50.515625 8.265625 
Q 44.046875 -1.421875 31.78125 -1.421875 
Q 19.53125 -1.421875 13.0625 8.265625 
Q 6.59375 17.96875 6.59375 36.375 
Q 6.59375 54.828125 13.0625 64.515625 
Q 19.53125 74.21875 31.78125 74.21875 
z
" id="DejaVuSans-30"/>
       <path d="M 10.59375 35.5 
L 73.1875 35.5 
L 73.1875 27.203125 
L 10.59375 27.203125 
z
" id="DejaVuSans-2212"/>
       <path d="M 10.796875 72.90625 
L 49.515625 72.90625 
L 49.515625 64.59375 
L 19.828125 64.59375 
L 19.828125 46.734375 
Q 21.96875 47.46875 24.109375 47.828125 
Q 26.265625 48.1875 28.421875 48.1875 
Q 40.625 48.1875 47.75 41.5 
Q 54.890625 34.8125 54.890625 23.390625 
Q 54.890625 11.625 47.5625 5.09375 
Q 40.234375 -1.421875 26.90625 -1.421875 
Q 22.3125 -1.421875 17.546875 -0.640625 
Q 12.796875 0.140625 7.71875 1.703125 
L 7.71875 11.625 
Q 12.109375 9.234375 16.796875 8.0625 
Q 21.484375 6.890625 26.703125 6.890625 
Q 35.15625 6.890625 40.078125 11.328125 
Q 45.015625 15.765625 45.015625 23.390625 
Q 45.015625 31 40.078125 35.4375 
Q 35.15625 39.890625 26.703125 39.890625 
Q 22.75 39.890625 18.8125 39.015625 
Q 14.890625 38.140625 10.796875 36.28125 
z
" id="DejaVuSans-35"/>
      </defs>
      <g transform="translate(40.571307 235.738437)scale(0.1 -0.1)">
       <use transform="translate(0 0.684375)" xlink:href="#DejaVuSans-31"/>
       <use transform="translate(63.623047 0.684375)" xlink:href="#DejaVuSans-30"/>
       <use transform="translate(128.203125 38.965625)scale(0.7)" xlink:href="#DejaVuSans-2212"/>
       <use transform="translate(186.855469 38.965625)scale(0.7)" xlink:href="#DejaVuSans-35"/>
      </g>
     </g>
    </g>
    <g id="xtick_2">
     <g id="line2d_3">
      <g>
       <use style="stroke:#000000;stroke-width:0.8;" x="144.523934" xlink:href="#ma991a0d213" y="224.64"/>
      </g>
     </g>
     <g id="line2d_4">
      <g>
       <use style="stroke:#000000;stroke-width:0.8;" x="144.523934" xlink:href="#mce932131e0" y="7.2"/>
      </g>
     </g>
     <g id="text_2">
      <!-- $\mathdefault{10^{-4}}$ -->
      <defs>
       <path d="M 37.796875 64.3125 
L 12.890625 25.390625 
L 37.796875 25.390625 
z
M 35.203125 72.90625 
L 47.609375 72.90625 
L 47.609375 25.390625 
L 58.015625 25.390625 
L 58.015625 17.1875 
L 47.609375 17.1875 
L 47.609375 0 
L 37.796875 0 
L 37.796875 17.1875 
L 4.890625 17.1875 
L 4.890625 26.703125 
z
" id="DejaVuSans-34"/>
      </defs>
      <g transform="translate(132.773934 235.738437)scale(0.1 -0.1)">
       <use transform="translate(0 0.684375)" xlink:href="#DejaVuSans-31"/>
       <use transform="translate(63.623047 0.684375)" xlink:href="#DejaVuSans-30"/>
       <use transform="translate(128.203125 38.965625)scale(0.7)" xlink:href="#DejaVuSans-2212"/>
       <use transform="translate(186.855469 38.965625)scale(0.7)" xlink:href="#DejaVuSans-34"/>
      </g>
     </g>
    </g>
    <g id="xtick_3">
     <g id="line2d_5">
      <g>
       <use style="stroke:#000000;stroke-width:0.8;" x="236.72656" xlink:href="#ma991a0d213" y="224.64"/>
      </g>
     </g>
     <g id="line2d_6">
      <g>
       <use style="stroke:#000000;stroke-width:0.8;" x="236.72656" xlink:href="#mce932131e0" y="7.2"/>
      </g>
     </g>
     <g id="text_3">
      <!-- $\mathdefault{10^{-3}}$ -->
      <defs>
       <path d="M 40.578125 39.3125 
Q 47.65625 37.796875 51.625 33 
Q 55.609375 28.21875 55.609375 21.1875 
Q 55.609375 10.40625 48.1875 4.484375 
Q 40.765625 -1.421875 27.09375 -1.421875 
Q 22.515625 -1.421875 17.65625 -0.515625 
Q 12.796875 0.390625 7.625 2.203125 
L 7.625 11.71875 
Q 11.71875 9.328125 16.59375 8.109375 
Q 21.484375 6.890625 26.8125 6.890625 
Q 36.078125 6.890625 40.9375 10.546875 
Q 45.796875 14.203125 45.796875 21.1875 
Q 45.796875 27.640625 41.28125 31.265625 
Q 36.765625 34.90625 28.71875 34.90625 
L 20.21875 34.90625 
L 20.21875 43.015625 
L 29.109375 43.015625 
Q 36.375 43.015625 40.234375 45.921875 
Q 44.09375 48.828125 44.09375 54.296875 
Q 44.09375 59.90625 40.109375 62.90625 
Q 36.140625 65.921875 28.71875 65.921875 
Q 24.65625 65.921875 20.015625 65.03125 
Q 15.375 64.15625 9.8125 62.3125 
L 9.8125 71.09375 
Q 15.4375 72.65625 20.34375 73.4375 
Q 25.25 74.21875 29.59375 74.21875 
Q 40.828125 74.21875 47.359375 69.109375 
Q 53.90625 64.015625 53.90625 55.328125 
Q 53.90625 49.265625 50.4375 45.09375 
Q 46.96875 40.921875 40.578125 39.3125 
z
" id="DejaVuSans-33"/>
      </defs>
      <g transform="translate(224.97656 235.738437)scale(0.1 -0.1)">
       <use transform="translate(0 0.765625)" xlink:href="#DejaVuSans-31"/>
       <use transform="translate(63.623047 0.765625)" xlink:href="#DejaVuSans-30"/>
       <use transform="translate(128.203125 39.046875)scale(0.7)" xlink:href="#DejaVuSans-2212"/>
       <use transform="translate(186.855469 39.046875)scale(0.7)" xlink:href="#DejaVuSans-33"/>
      </g>
     </g>
    </g>
    <g id="xtick_4">
     <g id="line2d_7">
      <g>
       <use style="stroke:#000000;stroke-width:0.8;" x="328.929187" xlink:href="#ma991a0d213" y="224.64"/>
      </g>
     </g>
     <g id="line2d_8">
      <g>
       <use style="stroke:#000000;stroke-width:0.8;" x="328.929187" xlink:href="#mce932131e0" y="7.2"/>
      </g>
     </g>
     <g id="text_4">
      <!-- $\mathdefault{10^{-2}}$ -->
      <defs>
       <path d="M 19.1875 8.296875 
L 53.609375 8.296875 
L 53.609375 0 
L 7.328125 0 
L 7.328125 8.296875 
Q 12.9375 14.109375 22.625 23.890625 
Q 32.328125 33.6875 34.8125 36.53125 
Q 39.546875 41.84375 41.421875 45.53125 
Q 43.3125 49.21875 43.3125 52.78125 
Q 43.3125 58.59375 39.234375 62.25 
Q 35.15625 65.921875 28.609375 65.921875 
Q 23.96875 65.921875 18.8125 64.3125 
Q 13.671875 62.703125 7.8125 59.421875 
L 7.8125 69.390625 
Q 13.765625 71.78125 18.9375 73 
Q 24.125 74.21875 28.421875 74.21875 
Q 39.75 74.21875 46.484375 68.546875 
Q 53.21875 62.890625 53.21875 53.421875 
Q 53.21875 48.921875 51.53125 44.890625 
Q 49.859375 40.875 45.40625 35.40625 
Q 44.1875 33.984375 37.640625 27.21875 
Q 31.109375 20.453125 19.1875 8.296875 
z
" id="DejaVuSans-32"/>
      </defs>
      <g transform="translate(317.179187 235.738437)scale(0.1 -0.1)">
       <use transform="translate(0 0.765625)" xlink:href="#DejaVuSans-31"/>
       <use transform="translate(63.623047 0.765625)" xlink:href="#DejaVuSans-30"/>
       <use transform="translate(128.203125 39.046875)scale(0.7)" xlink:href="#DejaVuSans-2212"/>
       <use transform="translate(186.855469 39.046875)scale(0.7)" xlink:href="#DejaVuSans-32"/>
      </g>
     </g>
    </g>
    <g id="xtick_5">
     <g id="line2d_9">
      <defs>
       <path d="M 0 0 
L 0 -2 
" id="mdce4480e65" style="stroke:#000000;stroke-width:0.6;"/>
      </defs>
      <g>
       <use style="stroke:#000000;stroke-width:0.6;" x="38.038939" xlink:href="#mdce4480e65" y="224.64"/>
      </g>
     </g>
     <g id="line2d_10">
      <defs>
       <path d="M 0 0 
L 0 2 
" id="md5c5ab5354" style="stroke:#000000;stroke-width:0.6;"/>
      </defs>
      <g>
       <use style="stroke:#000000;stroke-width:0.6;" x="38.038939" xlink:href="#md5c5ab5354" y="7.2"/>
      </g>
     </g>
    </g>
    <g id="xtick_6">
     <g id="line2d_11">
      <g>
       <use style="stroke:#000000;stroke-width:0.6;" x="43.385949" xlink:href="#mdce4480e65" y="224.64"/>
      </g>
     </g>
     <g id="line2d_12">
      <g>
       <use style="stroke:#000000;stroke-width:0.6;" x="43.385949" xlink:href="#md5c5ab5354" y="7.2"/>
      </g>
     </g>
    </g>
    <g id="xtick_7">
     <g id="line2d_13">
      <g>
       <use style="stroke:#000000;stroke-width:0.6;" x="48.102346" xlink:href="#mdce4480e65" y="224.64"/>
      </g>
     </g>
     <g id="line2d_14">
      <g>
       <use style="stroke:#000000;stroke-width:0.6;" x="48.102346" xlink:href="#md5c5ab5354" y="7.2"/>
      </g>
     </g>
    </g>
    <g id="xtick_8">
     <g id="line2d_15">
      <g>
       <use style="stroke:#000000;stroke-width:0.6;" x="80.077063" xlink:href="#mdce4480e65" y="224.64"/>
      </g>
     </g>
     <g id="line2d_16">
      <g>
       <use style="stroke:#000000;stroke-width:0.6;" x="80.077063" xlink:href="#md5c5ab5354" y="7.2"/>
      </g>
     </g>
    </g>
    <g id="xtick_9">
     <g id="line2d_17">
      <g>
       <use style="stroke:#000000;stroke-width:0.6;" x="96.31314" xlink:href="#mdce4480e65" y="224.64"/>
      </g>
     </g>
     <g id="line2d_18">
      <g>
       <use style="stroke:#000000;stroke-width:0.6;" x="96.31314" xlink:href="#md5c5ab5354" y="7.2"/>
      </g>
     </g>
    </g>
    <g id="xtick_10">
     <g id="line2d_19">
      <g>
       <use style="stroke:#000000;stroke-width:0.6;" x="107.832819" xlink:href="#mdce4480e65" y="224.64"/>
      </g>
     </g>
     <g id="line2d_20">
      <g>
       <use style="stroke:#000000;stroke-width:0.6;" x="107.832819" xlink:href="#md5c5ab5354" y="7.2"/>
      </g>
     </g>
    </g>
    <g id="xtick_11">
     <g id="line2d_21">
      <g>
       <use style="stroke:#000000;stroke-width:0.6;" x="116.768177" xlink:href="#mdce4480e65" y="224.64"/>
      </g>
     </g>
     <g id="line2d_22">
      <g>
       <use style="stroke:#000000;stroke-width:0.6;" x="116.768177" xlink:href="#md5c5ab5354" y="7.2"/>
      </g>
     </g>
    </g>
    <g id="xtick_12">
     <g id="line2d_23">
      <g>
       <use style="stroke:#000000;stroke-width:0.6;" x="124.068896" xlink:href="#mdce4480e65" y="224.64"/>
      </g>
     </g>
     <g id="line2d_24">
      <g>
       <use style="stroke:#000000;stroke-width:0.6;" x="124.068896" xlink:href="#md5c5ab5354" y="7.2"/>
      </g>
     </g>
    </g>
    <g id="xtick_13">
     <g id="line2d_25">
      <g>
       <use style="stroke:#000000;stroke-width:0.6;" x="130.241566" xlink:href="#mdce4480e65" y="224.64"/>
      </g>
     </g>
     <g id="line2d_26">
      <g>
       <use style="stroke:#000000;stroke-width:0.6;" x="130.241566" xlink:href="#md5c5ab5354" y="7.2"/>
      </g>
     </g>
    </g>
    <g id="xtick_14">
     <g id="line2d_27">
      <g>
       <use style="stroke:#000000;stroke-width:0.6;" x="135.588576" xlink:href="#mdce4480e65" y="224.64"/>
      </g>
     </g>
     <g id="line2d_28">
      <g>
       <use style="stroke:#000000;stroke-width:0.6;" x="135.588576" xlink:href="#md5c5ab5354" y="7.2"/>
      </g>
     </g>
    </g>
    <g id="xtick_15">
     <g id="line2d_29">
      <g>
       <use style="stroke:#000000;stroke-width:0.6;" x="140.304973" xlink:href="#mdce4480e65" y="224.64"/>
      </g>
     </g>
     <g id="line2d_30">
      <g>
       <use style="stroke:#000000;stroke-width:0.6;" x="140.304973" xlink:href="#md5c5ab5354" y="7.2"/>
      </g>
     </g>
    </g>
    <g id="xtick_16">
     <g id="line2d_31">
      <g>
       <use style="stroke:#000000;stroke-width:0.6;" x="172.27969" xlink:href="#mdce4480e65" y="224.64"/>
      </g>
     </g>
     <g id="line2d_32">
      <g>
       <use style="stroke:#000000;stroke-width:0.6;" x="172.27969" xlink:href="#md5c5ab5354" y="7.2"/>
      </g>
     </g>
    </g>
    <g id="xtick_17">
     <g id="line2d_33">
      <g>
       <use style="stroke:#000000;stroke-width:0.6;" x="188.515766" xlink:href="#mdce4480e65" y="224.64"/>
      </g>
     </g>
     <g id="line2d_34">
      <g>
       <use style="stroke:#000000;stroke-width:0.6;" x="188.515766" xlink:href="#md5c5ab5354" y="7.2"/>
      </g>
     </g>
    </g>
    <g id="xtick_18">
     <g id="line2d_35">
      <g>
       <use style="stroke:#000000;stroke-width:0.6;" x="200.035446" xlink:href="#mdce4480e65" y="224.64"/>
      </g>
     </g>
     <g id="line2d_36">
      <g>
       <use style="stroke:#000000;stroke-width:0.6;" x="200.035446" xlink:href="#md5c5ab5354" y="7.2"/>
      </g>
     </g>
    </g>
    <g id="xtick_19">
     <g id="line2d_37">
      <g>
       <use style="stroke:#000000;stroke-width:0.6;" x="208.970804" xlink:href="#mdce4480e65" y="224.64"/>
      </g>
     </g>
     <g id="line2d_38">
      <g>
       <use style="stroke:#000000;stroke-width:0.6;" x="208.970804" xlink:href="#md5c5ab5354" y="7.2"/>
      </g>
     </g>
    </g>
    <g id="xtick_20">
     <g id="line2d_39">
      <g>
       <use style="stroke:#000000;stroke-width:0.6;" x="216.271523" xlink:href="#mdce4480e65" y="224.64"/>
      </g>
     </g>
     <g id="line2d_40">
      <g>
       <use style="stroke:#000000;stroke-width:0.6;" x="216.271523" xlink:href="#md5c5ab5354" y="7.2"/>
      </g>
     </g>
    </g>
    <g id="xtick_21">
     <g id="line2d_41">
      <g>
       <use style="stroke:#000000;stroke-width:0.6;" x="222.444193" xlink:href="#mdce4480e65" y="224.64"/>
      </g>
     </g>
     <g id="line2d_42">
      <g>
       <use style="stroke:#000000;stroke-width:0.6;" x="222.444193" xlink:href="#md5c5ab5354" y="7.2"/>
      </g>
     </g>
    </g>
    <g id="xtick_22">
     <g id="line2d_43">
      <g>
       <use style="stroke:#000000;stroke-width:0.6;" x="227.791202" xlink:href="#mdce4480e65" y="224.64"/>
      </g>
     </g>
     <g id="line2d_44">
      <g>
       <use style="stroke:#000000;stroke-width:0.6;" x="227.791202" xlink:href="#md5c5ab5354" y="7.2"/>
      </g>
     </g>
    </g>
    <g id="xtick_23">
     <g id="line2d_45">
      <g>
       <use style="stroke:#000000;stroke-width:0.6;" x="232.507599" xlink:href="#mdce4480e65" y="224.64"/>
      </g>
     </g>
     <g id="line2d_46">
      <g>
       <use style="stroke:#000000;stroke-width:0.6;" x="232.507599" xlink:href="#md5c5ab5354" y="7.2"/>
      </g>
     </g>
    </g>
    <g id="xtick_24">
     <g id="line2d_47">
      <g>
       <use style="stroke:#000000;stroke-width:0.6;" x="264.482316" xlink:href="#mdce4480e65" y="224.64"/>
      </g>
     </g>
     <g id="line2d_48">
      <g>
       <use style="stroke:#000000;stroke-width:0.6;" x="264.482316" xlink:href="#md5c5ab5354" y="7.2"/>
      </g>
     </g>
    </g>
    <g id="xtick_25">
     <g id="line2d_49">
      <g>
       <use style="stroke:#000000;stroke-width:0.6;" x="280.718393" xlink:href="#mdce4480e65" y="224.64"/>
      </g>
     </g>
     <g id="line2d_50">
      <g>
       <use style="stroke:#000000;stroke-width:0.6;" x="280.718393" xlink:href="#md5c5ab5354" y="7.2"/>
      </g>
     </g>
    </g>
    <g id="xtick_26">
     <g id="line2d_51">
      <g>
       <use style="stroke:#000000;stroke-width:0.6;" x="292.238073" xlink:href="#mdce4480e65" y="224.64"/>
      </g>
     </g>
     <g id="line2d_52">
      <g>
       <use style="stroke:#000000;stroke-width:0.6;" x="292.238073" xlink:href="#md5c5ab5354" y="7.2"/>
      </g>
     </g>
    </g>
    <g id="xtick_27">
     <g id="line2d_53">
      <g>
       <use style="stroke:#000000;stroke-width:0.6;" x="301.173431" xlink:href="#mdce4480e65" y="224.64"/>
      </g>
     </g>
     <g id="line2d_54">
      <g>
       <use style="stroke:#000000;stroke-width:0.6;" x="301.173431" xlink:href="#md5c5ab5354" y="7.2"/>
      </g>
     </g>
    </g>
    <g id="xtick_28">
     <g id="line2d_55">
      <g>
       <use style="stroke:#000000;stroke-width:0.6;" x="308.474149" xlink:href="#mdce4480e65" y="224.64"/>
      </g>
     </g>
     <g id="line2d_56">
      <g>
       <use style="stroke:#000000;stroke-width:0.6;" x="308.474149" xlink:href="#md5c5ab5354" y="7.2"/>
      </g>
     </g>
    </g>
    <g id="xtick_29">
     <g id="line2d_57">
      <g>
       <use style="stroke:#000000;stroke-width:0.6;" x="314.646819" xlink:href="#mdce4480e65" y="224.64"/>
      </g>
     </g>
     <g id="line2d_58">
      <g>
       <use style="stroke:#000000;stroke-width:0.6;" x="314.646819" xlink:href="#md5c5ab5354" y="7.2"/>
      </g>
     </g>
    </g>
    <g id="xtick_30">
     <g id="line2d_59">
      <g>
       <use style="stroke:#000000;stroke-width:0.6;" x="319.993829" xlink:href="#mdce4480e65" y="224.64"/>
      </g>
     </g>
     <g id="line2d_60">
      <g>
       <use style="stroke:#000000;stroke-width:0.6;" x="319.993829" xlink:href="#md5c5ab5354" y="7.2"/>
      </g>
     </g>
    </g>
    <g id="xtick_31">
     <g id="line2d_61">
      <g>
       <use style="stroke:#000000;stroke-width:0.6;" x="324.710226" xlink:href="#mdce4480e65" y="224.64"/>
      </g>
     </g>
     <g id="line2d_62">
      <g>
       <use style="stroke:#000000;stroke-width:0.6;" x="324.710226" xlink:href="#md5c5ab5354" y="7.2"/>
      </g>
     </g>
    </g>
    <g id="xtick_32">
     <g id="line2d_63">
      <g>
       <use style="stroke:#000000;stroke-width:0.6;" x="356.684943" xlink:href="#mdce4480e65" y="224.64"/>
      </g>
     </g>
     <g id="line2d_64">
      <g>
       <use style="stroke:#000000;stroke-width:0.6;" x="356.684943" xlink:href="#md5c5ab5354" y="7.2"/>
      </g>
     </g>
    </g>
    <g id="text_5">
     <!-- $t_p$ [s] -->
     <defs>
      <path d="M 42.28125 54.6875 
L 40.921875 47.703125 
L 23 47.703125 
L 17.1875 18.015625 
Q 16.890625 16.359375 16.75 15.234375 
Q 16.609375 14.109375 16.609375 13.484375 
Q 16.609375 10.359375 18.484375 8.9375 
Q 20.359375 7.515625 24.515625 7.515625 
L 33.59375 7.515625 
L 32.078125 0 
L 23.484375 0 
Q 15.484375 0 11.546875 3.125 
Q 7.625 6.25 7.625 12.59375 
Q 7.625 13.71875 7.765625 15.0625 
Q 7.90625 16.40625 8.203125 18.015625 
L 14.015625 47.703125 
L 6.390625 47.703125 
L 7.8125 54.6875 
L 15.28125 54.6875 
L 18.3125 70.21875 
L 27.296875 70.21875 
L 24.3125 54.6875 
z
" id="DejaVuSans-Oblique-74"/>
      <path d="M 49.609375 33.6875 
Q 49.609375 40.875 46.484375 44.671875 
Q 43.359375 48.484375 37.5 48.484375 
Q 33.5 48.484375 29.859375 46.4375 
Q 26.21875 44.390625 23.390625 40.484375 
Q 20.609375 36.625 18.9375 31.15625 
Q 17.28125 25.6875 17.28125 20.3125 
Q 17.28125 13.484375 20.40625 9.796875 
Q 23.53125 6.109375 29.296875 6.109375 
Q 33.546875 6.109375 37.1875 8.109375 
Q 40.828125 10.109375 43.40625 13.921875 
Q 46.1875 17.921875 47.890625 23.34375 
Q 49.609375 28.765625 49.609375 33.6875 
z
M 21.78125 46.390625 
Q 25.390625 51.125 30.296875 53.5625 
Q 35.203125 56 41.21875 56 
Q 49.609375 56 54.25 50.5 
Q 58.890625 45.015625 58.890625 35.109375 
Q 58.890625 27 56 19.65625 
Q 53.125 12.3125 47.703125 6.5 
Q 44.09375 2.640625 39.546875 0.609375 
Q 35.015625 -1.421875 29.984375 -1.421875 
Q 24.171875 -1.421875 20.21875 1 
Q 16.265625 3.421875 14.3125 8.203125 
L 8.6875 -20.796875 
L -0.296875 -20.796875 
L 14.40625 54.6875 
L 23.390625 54.6875 
z
" id="DejaVuSans-Oblique-70"/>
      <path id="DejaVuSans-20"/>
      <path d="M 8.59375 75.984375 
L 29.296875 75.984375 
L 29.296875 69 
L 17.578125 69 
L 17.578125 -6.203125 
L 29.296875 -6.203125 
L 29.296875 -13.1875 
L 8.59375 -13.1875 
z
" id="DejaVuSans-5b"/>
      <path d="M 44.28125 53.078125 
L 44.28125 44.578125 
Q 40.484375 46.53125 36.375 47.5 
Q 32.28125 48.484375 27.875 48.484375 
Q 21.1875 48.484375 17.84375 46.4375 
Q 14.5 44.390625 14.5 40.28125 
Q 14.5 37.15625 16.890625 35.375 
Q 19.28125 33.59375 26.515625 31.984375 
L 29.59375 31.296875 
Q 39.15625 29.25 43.1875 25.515625 
Q 47.21875 21.78125 47.21875 15.09375 
Q 47.21875 7.46875 41.1875 3.015625 
Q 35.15625 -1.421875 24.609375 -1.421875 
Q 20.21875 -1.421875 15.453125 -0.5625 
Q 10.6875 0.296875 5.421875 2 
L 5.421875 11.28125 
Q 10.40625 8.6875 15.234375 7.390625 
Q 20.0625 6.109375 24.8125 6.109375 
Q 31.15625 6.109375 34.5625 8.28125 
Q 37.984375 10.453125 37.984375 14.40625 
Q 37.984375 18.0625 35.515625 20.015625 
Q 33.0625 21.96875 24.703125 23.78125 
L 21.578125 24.515625 
Q 13.234375 26.265625 9.515625 29.90625 
Q 5.8125 33.546875 5.8125 39.890625 
Q 5.8125 47.609375 11.28125 51.796875 
Q 16.75 56 26.8125 56 
Q 31.78125 56 36.171875 55.265625 
Q 40.578125 54.546875 44.28125 53.078125 
z
" id="DejaVuSans-73"/>
      <path d="M 30.421875 75.984375 
L 30.421875 -13.1875 
L 9.71875 -13.1875 
L 9.71875 -6.203125 
L 21.390625 -6.203125 
L 21.390625 69 
L 9.71875 69 
L 9.71875 75.984375 
z
" id="DejaVuSans-5d"/>
     </defs>
     <g transform="translate(192.053125 249.418125)scale(0.1 -0.1)">
      <use transform="translate(0 0.015625)" xlink:href="#DejaVuSans-Oblique-74"/>
      <use transform="translate(39.208984 -16.390625)scale(0.7)" xlink:href="#DejaVuSans-Oblique-70"/>
      <use transform="translate(86.376953 0.015625)" xlink:href="#DejaVuSans-20"/>
      <use transform="translate(118.164062 0.015625)" xlink:href="#DejaVuSans-5b"/>
      <use transform="translate(157.177734 0.015625)" xlink:href="#DejaVuSans-73"/>
      <use transform="translate(209.277344 0.015625)" xlink:href="#DejaVuSans-5d"/>
     </g>
    </g>
   </g>
   <g id="matplotlib.axis_2">
    <g id="ytick_1">
     <g id="line2d_65">
      <defs>
       <path d="M 0 0 
L 3.5 0 
" id="m45f8e14aad" style="stroke:#000000;stroke-width:0.8;"/>
      </defs>
      <g>
       <use style="stroke:#000000;stroke-width:0.8;" x="37.103125" xlink:href="#m45f8e14aad" y="214.756364"/>
      </g>
     </g>
     <g id="line2d_66">
      <defs>
       <path d="M 0 0 
L -3.5 0 
" id="me4847454d7" style="stroke:#000000;stroke-width:0.8;"/>
      </defs>
      <g>
       <use style="stroke:#000000;stroke-width:0.8;" x="371.903125" xlink:href="#me4847454d7" y="214.756364"/>
      </g>
     </g>
     <g id="text_6">
      <!-- 0 -->
      <g transform="translate(27.240625 218.555582)scale(0.1 -0.1)">
       <use xlink:href="#DejaVuSans-30"/>
      </g>
     </g>
    </g>
    <g id="ytick_2">
     <g id="line2d_67">
      <g>
       <use style="stroke:#000000;stroke-width:0.8;" x="37.103125" xlink:href="#m45f8e14aad" y="167.470455"/>
      </g>
     </g>
     <g id="line2d_68">
      <g>
       <use style="stroke:#000000;stroke-width:0.8;" x="371.903125" xlink:href="#me4847454d7" y="167.470455"/>
      </g>
     </g>
     <g id="text_7">
      <!-- 10 -->
      <g transform="translate(20.878125 171.269674)scale(0.1 -0.1)">
       <use xlink:href="#DejaVuSans-31"/>
       <use x="63.623047" xlink:href="#DejaVuSans-30"/>
      </g>
     </g>
    </g>
    <g id="ytick_3">
     <g id="line2d_69">
      <g>
       <use style="stroke:#000000;stroke-width:0.8;" x="37.103125" xlink:href="#m45f8e14aad" y="120.184547"/>
      </g>
     </g>
     <g id="line2d_70">
      <g>
       <use style="stroke:#000000;stroke-width:0.8;" x="371.903125" xlink:href="#me4847454d7" y="120.184547"/>
      </g>
     </g>
     <g id="text_8">
      <!-- 20 -->
      <g transform="translate(20.878125 123.983766)scale(0.1 -0.1)">
       <use xlink:href="#DejaVuSans-32"/>
       <use x="63.623047" xlink:href="#DejaVuSans-30"/>
      </g>
     </g>
    </g>
    <g id="ytick_4">
     <g id="line2d_71">
      <g>
       <use style="stroke:#000000;stroke-width:0.8;" x="37.103125" xlink:href="#m45f8e14aad" y="72.898639"/>
      </g>
     </g>
     <g id="line2d_72">
      <g>
       <use style="stroke:#000000;stroke-width:0.8;" x="371.903125" xlink:href="#me4847454d7" y="72.898639"/>
      </g>
     </g>
     <g id="text_9">
      <!-- 30 -->
      <g transform="translate(20.878125 76.697858)scale(0.1 -0.1)">
       <use xlink:href="#DejaVuSans-33"/>
       <use x="63.623047" xlink:href="#DejaVuSans-30"/>
      </g>
     </g>
    </g>
    <g id="ytick_5">
     <g id="line2d_73">
      <g>
       <use style="stroke:#000000;stroke-width:0.8;" x="37.103125" xlink:href="#m45f8e14aad" y="25.612731"/>
      </g>
     </g>
     <g id="line2d_74">
      <g>
       <use style="stroke:#000000;stroke-width:0.8;" x="371.903125" xlink:href="#me4847454d7" y="25.612731"/>
      </g>
     </g>
     <g id="text_10">
      <!-- 40 -->
      <g transform="translate(20.878125 29.41195)scale(0.1 -0.1)">
       <use xlink:href="#DejaVuSans-34"/>
       <use x="63.623047" xlink:href="#DejaVuSans-30"/>
      </g>
     </g>
    </g>
    <g id="text_11">
     <!-- Halbwertsbreite [kHz] -->
     <defs>
      <path d="M 9.8125 72.90625 
L 19.671875 72.90625 
L 19.671875 43.015625 
L 55.515625 43.015625 
L 55.515625 72.90625 
L 65.375 72.90625 
L 65.375 0 
L 55.515625 0 
L 55.515625 34.71875 
L 19.671875 34.71875 
L 19.671875 0 
L 9.8125 0 
z
" id="DejaVuSans-48"/>
      <path d="M 34.28125 27.484375 
Q 23.390625 27.484375 19.1875 25 
Q 14.984375 22.515625 14.984375 16.5 
Q 14.984375 11.71875 18.140625 8.90625 
Q 21.296875 6.109375 26.703125 6.109375 
Q 34.1875 6.109375 38.703125 11.40625 
Q 43.21875 16.703125 43.21875 25.484375 
L 43.21875 27.484375 
z
M 52.203125 31.203125 
L 52.203125 0 
L 43.21875 0 
L 43.21875 8.296875 
Q 40.140625 3.328125 35.546875 0.953125 
Q 30.953125 -1.421875 24.3125 -1.421875 
Q 15.921875 -1.421875 10.953125 3.296875 
Q 6 8.015625 6 15.921875 
Q 6 25.140625 12.171875 29.828125 
Q 18.359375 34.515625 30.609375 34.515625 
L 43.21875 34.515625 
L 43.21875 35.40625 
Q 43.21875 41.609375 39.140625 45 
Q 35.0625 48.390625 27.6875 48.390625 
Q 23 48.390625 18.546875 47.265625 
Q 14.109375 46.140625 10.015625 43.890625 
L 10.015625 52.203125 
Q 14.9375 54.109375 19.578125 55.046875 
Q 24.21875 56 28.609375 56 
Q 40.484375 56 46.34375 49.84375 
Q 52.203125 43.703125 52.203125 31.203125 
z
" id="DejaVuSans-61"/>
      <path d="M 9.421875 75.984375 
L 18.40625 75.984375 
L 18.40625 0 
L 9.421875 0 
z
" id="DejaVuSans-6c"/>
      <path d="M 48.6875 27.296875 
Q 48.6875 37.203125 44.609375 42.84375 
Q 40.53125 48.484375 33.40625 48.484375 
Q 26.265625 48.484375 22.1875 42.84375 
Q 18.109375 37.203125 18.109375 27.296875 
Q 18.109375 17.390625 22.1875 11.75 
Q 26.265625 6.109375 33.40625 6.109375 
Q 40.53125 6.109375 44.609375 11.75 
Q 48.6875 17.390625 48.6875 27.296875 
z
M 18.109375 46.390625 
Q 20.953125 51.265625 25.265625 53.625 
Q 29.59375 56 35.59375 56 
Q 45.5625 56 51.78125 48.09375 
Q 58.015625 40.1875 58.015625 27.296875 
Q 58.015625 14.40625 51.78125 6.484375 
Q 45.5625 -1.421875 35.59375 -1.421875 
Q 29.59375 -1.421875 25.265625 0.953125 
Q 20.953125 3.328125 18.109375 8.203125 
L 18.109375 0 
L 9.078125 0 
L 9.078125 75.984375 
L 18.109375 75.984375 
z
" id="DejaVuSans-62"/>
      <path d="M 4.203125 54.6875 
L 13.1875 54.6875 
L 24.421875 12.015625 
L 35.59375 54.6875 
L 46.1875 54.6875 
L 57.421875 12.015625 
L 68.609375 54.6875 
L 77.59375 54.6875 
L 63.28125 0 
L 52.6875 0 
L 40.921875 44.828125 
L 29.109375 0 
L 18.5 0 
z
" id="DejaVuSans-77"/>
      <path d="M 56.203125 29.59375 
L 56.203125 25.203125 
L 14.890625 25.203125 
Q 15.484375 15.921875 20.484375 11.0625 
Q 25.484375 6.203125 34.421875 6.203125 
Q 39.59375 6.203125 44.453125 7.46875 
Q 49.3125 8.734375 54.109375 11.28125 
L 54.109375 2.78125 
Q 49.265625 0.734375 44.1875 -0.34375 
Q 39.109375 -1.421875 33.890625 -1.421875 
Q 20.796875 -1.421875 13.15625 6.1875 
Q 5.515625 13.8125 5.515625 26.8125 
Q 5.515625 40.234375 12.765625 48.109375 
Q 20.015625 56 32.328125 56 
Q 43.359375 56 49.78125 48.890625 
Q 56.203125 41.796875 56.203125 29.59375 
z
M 47.21875 32.234375 
Q 47.125 39.59375 43.09375 43.984375 
Q 39.0625 48.390625 32.421875 48.390625 
Q 24.90625 48.390625 20.390625 44.140625 
Q 15.875 39.890625 15.1875 32.171875 
z
" id="DejaVuSans-65"/>
      <path d="M 41.109375 46.296875 
Q 39.59375 47.171875 37.8125 47.578125 
Q 36.03125 48 33.890625 48 
Q 26.265625 48 22.1875 43.046875 
Q 18.109375 38.09375 18.109375 28.8125 
L 18.109375 0 
L 9.078125 0 
L 9.078125 54.6875 
L 18.109375 54.6875 
L 18.109375 46.1875 
Q 20.953125 51.171875 25.484375 53.578125 
Q 30.03125 56 36.53125 56 
Q 37.453125 56 38.578125 55.875 
Q 39.703125 55.765625 41.0625 55.515625 
z
" id="DejaVuSans-72"/>
      <path d="M 18.3125 70.21875 
L 18.3125 54.6875 
L 36.8125 54.6875 
L 36.8125 47.703125 
L 18.3125 47.703125 
L 18.3125 18.015625 
Q 18.3125 11.328125 20.140625 9.421875 
Q 21.96875 7.515625 27.59375 7.515625 
L 36.8125 7.515625 
L 36.8125 0 
L 27.59375 0 
Q 17.1875 0 13.234375 3.875 
Q 9.28125 7.765625 9.28125 18.015625 
L 9.28125 47.703125 
L 2.6875 47.703125 
L 2.6875 54.6875 
L 9.28125 54.6875 
L 9.28125 70.21875 
z
" id="DejaVuSans-74"/>
      <path d="M 9.421875 54.6875 
L 18.40625 54.6875 
L 18.40625 0 
L 9.421875 0 
z
M 9.421875 75.984375 
L 18.40625 75.984375 
L 18.40625 64.59375 
L 9.421875 64.59375 
z
" id="DejaVuSans-69"/>
      <path d="M 9.078125 75.984375 
L 18.109375 75.984375 
L 18.109375 31.109375 
L 44.921875 54.6875 
L 56.390625 54.6875 
L 27.390625 29.109375 
L 57.625 0 
L 45.90625 0 
L 18.109375 26.703125 
L 18.109375 0 
L 9.078125 0 
z
" id="DejaVuSans-6b"/>
      <path d="M 5.515625 54.6875 
L 48.1875 54.6875 
L 48.1875 46.484375 
L 14.40625 7.171875 
L 48.1875 7.171875 
L 48.1875 0 
L 4.296875 0 
L 4.296875 8.203125 
L 38.09375 47.515625 
L 5.515625 47.515625 
z
" id="DejaVuSans-7a"/>
     </defs>
     <g transform="translate(14.798438 170.594219)rotate(-90)scale(0.1 -0.1)">
      <use xlink:href="#DejaVuSans-48"/>
      <use x="75.195312" xlink:href="#DejaVuSans-61"/>
      <use x="136.474609" xlink:href="#DejaVuSans-6c"/>
      <use x="164.257812" xlink:href="#DejaVuSans-62"/>
      <use x="227.734375" xlink:href="#DejaVuSans-77"/>
      <use x="309.521484" xlink:href="#DejaVuSans-65"/>
      <use x="371.044922" xlink:href="#DejaVuSans-72"/>
      <use x="412.158203" xlink:href="#DejaVuSans-74"/>
      <use x="451.367188" xlink:href="#DejaVuSans-73"/>
      <use x="503.466797" xlink:href="#DejaVuSans-62"/>
      <use x="566.943359" xlink:href="#DejaVuSans-72"/>
      <use x="608.025391" xlink:href="#DejaVuSans-65"/>
      <use x="669.548828" xlink:href="#DejaVuSans-69"/>
      <use x="697.332031" xlink:href="#DejaVuSans-74"/>
      <use x="736.541016" xlink:href="#DejaVuSans-65"/>
      <use x="798.064453" xlink:href="#DejaVuSans-20"/>
      <use x="829.851562" xlink:href="#DejaVuSans-5b"/>
      <use x="868.865234" xlink:href="#DejaVuSans-6b"/>
      <use x="926.775391" xlink:href="#DejaVuSans-48"/>
      <use x="1001.970703" xlink:href="#DejaVuSans-7a"/>
      <use x="1054.460938" xlink:href="#DejaVuSans-5d"/>
     </g>
    </g>
   </g>
   <g id="line2d_75">
    <path clip-path="url(#p4f0e93dc71)" d="M 52.321307 20.016928 
L 58.53281 20.022028 
L 64.744312 20.028503 
L 70.955815 20.036724 
L 77.167318 20.047162 
L 83.378821 20.060414 
L 89.590324 20.077239 
L 95.801826 20.098599 
L 102.013329 20.125717 
L 108.224832 20.160143 
L 114.436335 20.203845 
L 120.647837 20.259319 
L 126.85934 20.329731 
L 133.070843 20.419097 
L 139.282346 20.532506 
L 145.493849 20.676405 
L 151.705351 20.858961 
L 157.916854 21.090504 
L 164.128357 21.384095 
L 170.33986 21.756227 
L 176.551362 22.227691 
L 182.762865 22.824648 
L 188.974368 23.579938 
L 195.185871 24.534648 
L 201.397374 25.739975 
L 207.608876 27.259379 
L 213.820379 29.170979 
L 220.031882 31.570078 
L 226.243385 34.571575 
L 232.454888 38.311815 
L 238.66639 42.94913 
L 244.877893 48.661926 
L 251.089396 55.642568 
L 257.300899 64.084749 
L 263.512401 74.16147 
L 269.723904 85.990723 
L 275.935407 99.587216 
L 282.14691 114.802022 
L 288.358413 131.259264 
L 294.569915 148.310269 
L 300.781418 165.038451 
L 306.992921 180.354185 
L 313.204424 193.202413 
L 319.415926 202.852087 
L 325.627429 209.154348 
L 331.838932 212.605082 
L 338.050435 214.118172 
L 344.261938 214.619946 
L 350.47344 214.737129 
L 356.684943 214.754765 
" style="fill:none;stroke:#1f77b4;stroke-linecap:square;stroke-width:1.5;"/>
   </g>
   <g id="line2d_76">
    <path clip-path="url(#p4f0e93dc71)" d="M 52.321307 20.543438 
L 58.53281 20.553446 
L 64.744312 20.565932 
L 70.955815 20.581512 
L 77.167318 20.600952 
L 83.378821 20.625205 
L 89.590324 20.655465 
L 95.801826 20.693218 
L 102.013329 20.740315 
L 108.224832 20.799068 
L 114.436335 20.872355 
L 120.647837 20.963766 
L 126.85934 21.077768 
L 133.070843 21.219928 
L 139.282346 21.397171 
L 145.493849 21.618109 
L 151.705351 21.893444 
L 157.916854 22.236462 
L 164.128357 22.663627 
L 170.33986 23.195322 
L 176.551362 23.856713 
L 182.762865 24.678805 
L 188.974368 25.69966 
L 195.185871 26.96581 
L 201.397374 28.533843 
L 207.608876 30.472107 
L 213.820379 32.862431 
L 220.031882 35.801674 
L 226.243385 39.402781 
L 232.454888 43.794833 
L 238.66639 49.121339 
L 244.877893 55.53569 
L 251.089396 63.192362 
L 257.300899 72.23216 
L 263.512401 82.759772 
L 269.723904 94.812452 
L 275.935407 108.320375 
L 282.14691 123.062596 
L 288.358413 138.628166 
L 294.569915 154.399124 
L 300.781418 169.578094 
L 306.992921 183.282146 
L 313.204424 194.707957 
L 319.415926 203.336411 
L 325.627429 209.098151 
L 331.838932 212.400691 
L 338.050435 213.967065 
L 344.261938 214.554672 
L 350.47344 214.719611 
L 356.684943 214.751972 
" style="fill:none;stroke:#ff7f0e;stroke-linecap:square;stroke-width:1.5;"/>
   </g>
   <g id="line2d_77">
    <path clip-path="url(#p4f0e93dc71)" d="M 52.321307 20.425641 
L 58.53281 20.447893 
L 64.744312 20.475101 
L 70.955815 20.508366 
L 77.167318 20.549036 
L 83.378821 20.598758 
L 89.590324 20.659543 
L 95.801826 20.733847 
L 102.013329 20.82467 
L 108.224832 20.935675 
L 114.436335 21.071329 
L 120.647837 21.237085 
L 126.85934 21.439584 
L 133.070843 21.686921 
L 139.282346 21.988944 
L 145.493849 22.357628 
L 151.705351 22.807512 
L 157.916854 23.356219 
L 164.128357 24.025069 
L 170.33986 24.839791 
L 176.551362 25.831337 
L 182.762865 27.036808 
L 188.974368 28.500458 
L 195.185871 30.274767 
L 201.397374 32.42151 
L 207.608876 35.012713 
L 213.820379 38.131347 
L 220.031882 41.871496 
L 226.243385 46.337632 
L 232.454888 51.642505 
L 238.66639 57.902959 
L 244.877893 65.232871 
L 251.089396 73.732282 
L 257.300899 83.471887 
L 263.512401 94.472433 
L 269.723904 106.679527 
L 275.935407 119.936103 
L 282.14691 133.957485 
L 288.358413 148.317361 
L 294.569915 162.456143 
L 300.781418 175.723832 
L 306.992921 187.464535 
L 313.204424 197.136125 
L 319.415926 204.437077 
L 325.627429 209.392026 
L 331.838932 212.345956 
L 338.050435 213.849947 
L 344.261938 214.482041 
L 350.47344 214.692484 
L 356.684943 214.745294 
" style="fill:none;stroke:#2ca02c;stroke-linecap:square;stroke-width:1.5;"/>
   </g>
   <g id="line2d_78">
    <path clip-path="url(#p4f0e93dc71)" d="M 52.321307 23.36525 
L 58.53281 23.376986 
L 64.744312 23.391725 
L 70.955815 23.410234 
L 77.167318 23.433477 
L 83.378821 23.462664 
L 89.590324 23.499314 
L 95.801826 23.545334 
L 102.013329 23.603115 
L 108.224832 23.675659 
L 114.436335 23.766728 
L 120.647837 23.881041 
L 126.85934 24.024513 
L 133.070843 24.204548 
L 139.282346 24.430415 
L 145.493849 24.713706 
L 151.705351 25.068898 
L 157.916854 25.514047 
L 164.128357 26.071638 
L 170.33986 26.769596 
L 176.551362 27.642516 
L 182.762865 28.733089 
L 188.974368 30.093753 
L 195.185871 31.788541 
L 201.397374 33.895032 
L 207.608876 36.506281 
L 213.820379 39.732443 
L 220.031882 43.701636 
L 226.243385 48.559334 
L 232.454888 54.465236 
L 238.66639 61.586144 
L 244.877893 70.082964 
L 251.089396 80.089716 
L 257.300899 91.682692 
L 263.512401 104.839245 
L 269.723904 119.388909 
L 275.935407 134.965333 
L 282.14691 150.97579 
L 288.358413 166.613587 
L 294.569915 180.941153 
L 300.781418 193.0578 
L 306.992921 202.327251 
L 313.204424 208.583021 
L 319.415926 212.192922 
L 325.627429 213.906313 
L 331.838932 214.54385 
L 338.050435 214.719103 
L 344.261938 214.752179 
L 350.47344 214.756095 
L 356.684943 214.756355 
" style="fill:none;stroke:#d62728;stroke-linecap:square;stroke-width:1.5;"/>
   </g>
   <g id="line2d_79">
    <path clip-path="url(#p4f0e93dc71)" d="M 52.321307 23.807062 
L 58.53281 23.859447 
L 64.744312 23.922783 
L 70.955815 23.999355 
L 77.167318 24.091922 
L 83.378821 24.203814 
L 89.590324 24.339052 
L 95.801826 24.502483 
L 102.013329 24.699952 
L 108.224832 24.938503 
L 114.436335 25.226611 
L 120.647837 25.574472 
L 126.85934 25.99433 
L 133.070843 26.50087 
L 139.282346 27.111676 
L 145.493849 27.847751 
L 151.705351 28.73412 
L 157.916854 29.8005 
L 164.128357 31.08204 
L 170.33986 32.620106 
L 176.551362 34.463079 
L 182.762865 36.667115 
L 188.974368 39.296758 
L 195.185871 42.425282 
L 201.397374 46.134554 
L 207.608876 50.514121 
L 213.820379 55.659169 
L 220.031882 61.666842 
L 226.243385 68.630366 
L 232.454888 76.63037 
L 238.66639 85.722848 
L 244.877893 95.923537 
L 251.089396 107.189102 
L 257.300899 119.396642 
L 263.512401 132.324729 
L 269.723904 145.641328 
L 275.935407 158.906003 
L 282.14691 171.594685 
L 288.358413 183.153173 
L 294.569915 193.078553 
L 300.781418 201.015436 
L 306.992921 206.839457 
L 313.204424 210.692324 
L 319.415926 212.941914 
L 325.627429 214.071978 
L 331.838932 214.545682 
L 338.050435 214.705424 
L 344.261938 214.746904 
L 350.47344 214.754776 
L 356.684943 214.755801 
" style="fill:none;stroke:#9467bd;stroke-linecap:square;stroke-width:1.5;"/>
   </g>
   <g id="line2d_80">
    <path clip-path="url(#p4f0e93dc71)" d="M 52.321307 28.110612 
L 58.53281 28.193366 
L 64.744312 28.294322 
L 70.955815 28.417468 
L 77.167318 28.567664 
L 83.378821 28.75082 
L 89.590324 28.974126 
L 95.801826 29.246317 
L 102.013329 29.577998 
L 108.224832 29.982025 
L 114.436335 30.473964 
L 120.647837 31.072622 
L 126.85934 31.800675 
L 133.070843 32.685386 
L 139.282346 33.759419 
L 145.493849 35.061741 
L 151.705351 36.63859 
L 157.916854 38.544464 
L 164.128357 40.843053 
L 170.33986 43.607986 
L 176.551362 46.923209 
L 182.762865 50.882684 
L 188.974368 55.589032 
L 195.185871 61.150558 
L 201.397374 67.675984 
L 207.608876 75.266075 
L 213.820379 84.001356 
L 220.031882 93.925304 
L 226.243385 105.023008 
L 232.454888 117.196493 
L 238.66639 130.239927 
L 244.877893 143.820696 
L 251.089396 157.475447 
L 257.300899 170.632172 
L 263.512401 182.667919 
L 269.723904 193.003661 
L 275.935407 201.221864 
L 282.14691 207.171922 
L 288.358413 211.015825 
L 294.569915 213.177879 
L 300.781418 214.20567 
L 306.992921 214.604057 
L 313.204424 214.724637 
L 319.415926 214.751688 
L 325.627429 214.755912 
L 331.838932 214.756338 
L 338.050435 214.756363 
L 344.261938 214.756364 
L 350.47344 214.756364 
L 356.684943 214.756364 
" style="fill:none;stroke:#8c564b;stroke-linecap:square;stroke-width:1.5;"/>
   </g>
   <g id="line2d_81">
    <path clip-path="url(#p4f0e93dc71)" d="M 52.321307 30.712419 
L 58.53281 30.913793 
L 64.744312 31.158907 
L 70.955815 31.457182 
L 77.167318 31.820032 
L 83.378821 32.261262 
L 89.590324 32.797545 
L 95.801826 33.448977 
L 102.013329 34.239717 
L 108.224832 35.198722 
L 114.436335 36.360565 
L 120.647837 37.76633 
L 126.85934 39.464551 
L 133.070843 41.512141 
L 139.282346 43.975205 
L 145.493849 46.92962 
L 151.705351 50.46112 
L 157.916854 54.664606 
L 164.128357 59.642223 
L 170.33986 65.499628 
L 176.551362 72.339775 
L 182.762865 80.253416 
L 188.974368 89.305613 
L 195.185871 99.517878 
L 201.397374 110.846318 
L 207.608876 123.157587 
L 213.820379 136.206627 
L 220.031882 149.623007 
L 226.243385 162.915312 
L 232.454888 175.504014 
L 238.66639 186.789858 
L 244.877893 196.25457 
L 251.089396 203.57354 
L 257.300899 208.701976 
L 263.512401 211.890123 
L 269.723904 213.604146 
L 275.935407 214.37687 
L 282.14691 214.658326 
L 288.358413 214.737526 
L 294.569915 214.75384 
L 300.781418 214.756146 
L 306.992921 214.756353 
L 313.204424 214.756363 
L 319.415926 214.756364 
L 325.627429 214.756364 
L 331.838932 214.756364 
L 338.050435 214.756364 
L 344.261938 214.756364 
L 350.47344 214.756364 
L 356.684943 214.756364 
" style="fill:none;stroke:#e377c2;stroke-linecap:square;stroke-width:1.5;"/>
   </g>
   <g id="line2d_82">
    <path clip-path="url(#p4f0e93dc71)" d="M 52.321307 36.060968 
L 58.53281 36.644125 
L 64.744312 37.339324 
L 70.955815 38.167507 
L 77.167318 39.153282 
L 83.378821 40.325452 
L 89.590324 41.717581 
L 95.801826 43.368557 
L 102.013329 45.323128 
L 108.224832 47.632345 
L 114.436335 50.353817 
L 120.647837 53.551666 
L 126.85934 57.296003 
L 133.070843 61.661695 
L 139.282346 66.726135 
L 145.493849 72.565672 
L 151.705351 79.250308 
L 157.916854 86.836297 
L 164.128357 95.356373 
L 170.33986 104.807614 
L 176.551362 115.137444 
L 182.762865 126.229066 
L 188.974368 137.888753 
L 195.185871 149.838741 
L 201.397374 161.720615 
L 207.608876 173.11444 
L 213.820379 183.577377 
L 220.031882 192.701192 
L 226.243385 200.180685 
L 232.454888 205.876249 
L 238.66639 209.847903 
L 244.877893 212.341344 
L 251.089396 213.722516 
L 257.300899 214.381534 
L 263.512401 214.644795 
L 269.723904 214.72992 
L 275.935407 214.751327 
L 282.14691 214.755321 
L 288.358413 214.755843 
L 294.569915 214.755888 
L 300.781418 214.755891 
L 306.992921 214.755891 
L 313.204424 214.755891 
L 319.415926 214.755891 
L 325.627429 214.755891 
L 331.838932 214.755891 
L 338.050435 214.755891 
L 344.261938 214.755891 
L 350.47344 214.755891 
L 356.684943 214.755891 
" style="fill:none;stroke:#7f7f7f;stroke-linecap:square;stroke-width:1.5;"/>
   </g>
   <g id="line2d_83">
    <path clip-path="url(#p4f0e93dc71)" d="M 52.321307 43.980742 
L 58.53281 44.909943 
L 64.744312 46.06082 
L 70.955815 47.484109 
L 77.167318 49.240985 
L 83.378821 51.404561 
L 89.590324 54.061222 
L 95.801826 57.311504 
L 102.013329 61.270077 
L 108.224832 66.064153 
L 114.436335 71.82939 
L 120.647837 78.70205 
L 126.85934 86.805926 
L 133.070843 96.232569 
L 139.282346 107.013797 
L 145.493849 119.087004 
L 151.705351 132.256709 
L 157.916854 146.160625 
L 164.128357 160.25468 
L 170.33986 173.836613 
L 176.551362 186.126902 
L 182.762865 196.411787 
L 188.974368 204.221766 
L 195.185871 209.478774 
L 201.397374 212.525957 
L 207.608876 213.993652 
L 213.820379 214.555849 
L 220.031882 214.718122 
L 226.243385 214.75116 
L 232.454888 214.755535 
L 238.66639 214.755877 
L 244.877893 214.755891 
L 251.089396 214.755891 
L 257.300899 214.755891 
L 263.512401 214.755891 
L 269.723904 214.755891 
L 275.935407 214.755891 
L 282.14691 214.755891 
L 288.358413 214.755891 
L 294.569915 214.755891 
L 300.781418 214.755891 
L 306.992921 214.755891 
L 313.204424 214.755891 
L 319.415926 214.755891 
L 325.627429 214.755891 
L 331.838932 214.755891 
L 338.050435 214.755891 
L 344.261938 214.755891 
L 350.47344 214.755891 
L 356.684943 214.755891 
" style="fill:none;stroke:#bcbd22;stroke-linecap:square;stroke-width:1.5;"/>
   </g>
   <g id="patch_3">
    <path d="M 37.103125 224.64 
L 37.103125 7.2 
" style="fill:none;stroke:#000000;stroke-linecap:square;stroke-linejoin:miter;stroke-width:0.8;"/>
   </g>
   <g id="patch_4">
    <path d="M 371.903125 224.64 
L 371.903125 7.2 
" style="fill:none;stroke:#000000;stroke-linecap:square;stroke-linejoin:miter;stroke-width:0.8;"/>
   </g>
   <g id="patch_5">
    <path d="M 37.103125 224.64 
L 371.903125 224.64 
" style="fill:none;stroke:#000000;stroke-linecap:square;stroke-linejoin:miter;stroke-width:0.8;"/>
   </g>
   <g id="patch_6">
    <path d="M 37.103125 7.2 
L 371.903125 7.2 
" style="fill:none;stroke:#000000;stroke-linecap:square;stroke-linejoin:miter;stroke-width:0.8;"/>
   </g>
   <g id="legend_1">
    <g id="patch_7">
     <path d="M 44.103125 219.64 
L 135.310938 219.64 
Q 137.310938 219.64 137.310938 217.64 
L 137.310938 86.536875 
Q 137.310938 84.536875 135.310938 84.536875 
L 44.103125 84.536875 
Q 42.103125 84.536875 42.103125 86.536875 
L 42.103125 217.64 
Q 42.103125 219.64 44.103125 219.64 
z
" style="fill:#ffffff;opacity:0.8;stroke:#cccccc;stroke-linejoin:miter;"/>
    </g>
    <g id="PathCollection_10">
     <g>
      <use style="fill:#1f77b4;stroke:#1f77b4;" x="56.103125" xlink:href="#m100c28f156" y="93.510312"/>
     </g>
    </g>
    <g id="text_12">
     <!-- T = 305.5 K -->
     <defs>
      <path d="M -0.296875 72.90625 
L 61.375 72.90625 
L 61.375 64.59375 
L 35.5 64.59375 
L 35.5 0 
L 25.59375 0 
L 25.59375 64.59375 
L -0.296875 64.59375 
z
" id="DejaVuSans-54"/>
      <path d="M 10.59375 45.40625 
L 73.1875 45.40625 
L 73.1875 37.203125 
L 10.59375 37.203125 
z
M 10.59375 25.484375 
L 73.1875 25.484375 
L 73.1875 17.1875 
L 10.59375 17.1875 
z
" id="DejaVuSans-3d"/>
      <path d="M 10.6875 12.40625 
L 21 12.40625 
L 21 0 
L 10.6875 0 
z
" id="DejaVuSans-2e"/>
      <path d="M 9.8125 72.90625 
L 19.671875 72.90625 
L 19.671875 42.09375 
L 52.390625 72.90625 
L 65.09375 72.90625 
L 28.90625 38.921875 
L 67.671875 0 
L 54.6875 0 
L 19.671875 35.109375 
L 19.671875 0 
L 9.8125 0 
z
" id="DejaVuSans-4b"/>
     </defs>
     <g transform="translate(74.103125 96.135312)scale(0.1 -0.1)">
      <use xlink:href="#DejaVuSans-54"/>
      <use x="61.083984" xlink:href="#DejaVuSans-20"/>
      <use x="92.871094" xlink:href="#DejaVuSans-3d"/>
      <use x="176.660156" xlink:href="#DejaVuSans-20"/>
      <use x="208.447266" xlink:href="#DejaVuSans-33"/>
      <use x="272.070312" xlink:href="#DejaVuSans-30"/>
      <use x="335.693359" xlink:href="#DejaVuSans-35"/>
      <use x="399.316406" xlink:href="#DejaVuSans-2e"/>
      <use x="431.103516" xlink:href="#DejaVuSans-35"/>
      <use x="494.726562" xlink:href="#DejaVuSans-20"/>
      <use x="526.513672" xlink:href="#DejaVuSans-4b"/>
     </g>
    </g>
    <g id="PathCollection_11">
     <g>
      <use style="fill:#ff7f0e;stroke:#ff7f0e;" x="56.103125" xlink:href="#m78ed9d16cb" y="108.188438"/>
     </g>
    </g>
    <g id="text_13">
     <!-- T = 310.3 K -->
     <g transform="translate(74.103125 110.813438)scale(0.1 -0.1)">
      <use xlink:href="#DejaVuSans-54"/>
      <use x="61.083984" xlink:href="#DejaVuSans-20"/>
      <use x="92.871094" xlink:href="#DejaVuSans-3d"/>
      <use x="176.660156" xlink:href="#DejaVuSans-20"/>
      <use x="208.447266" xlink:href="#DejaVuSans-33"/>
      <use x="272.070312" xlink:href="#DejaVuSans-31"/>
      <use x="335.693359" xlink:href="#DejaVuSans-30"/>
      <use x="399.316406" xlink:href="#DejaVuSans-2e"/>
      <use x="431.103516" xlink:href="#DejaVuSans-33"/>
      <use x="494.726562" xlink:href="#DejaVuSans-20"/>
      <use x="526.513672" xlink:href="#DejaVuSans-4b"/>
     </g>
    </g>
    <g id="PathCollection_12">
     <g>
      <use style="fill:#2ca02c;stroke:#2ca02c;" x="56.103125" xlink:href="#m1c37a70933" y="122.866562"/>
     </g>
    </g>
    <g id="text_14">
     <!-- T = 315.1 K -->
     <g transform="translate(74.103125 125.491562)scale(0.1 -0.1)">
      <use xlink:href="#DejaVuSans-54"/>
      <use x="61.083984" xlink:href="#DejaVuSans-20"/>
      <use x="92.871094" xlink:href="#DejaVuSans-3d"/>
      <use x="176.660156" xlink:href="#DejaVuSans-20"/>
      <use x="208.447266" xlink:href="#DejaVuSans-33"/>
      <use x="272.070312" xlink:href="#DejaVuSans-31"/>
      <use x="335.693359" xlink:href="#DejaVuSans-35"/>
      <use x="399.316406" xlink:href="#DejaVuSans-2e"/>
      <use x="431.103516" xlink:href="#DejaVuSans-31"/>
      <use x="494.726562" xlink:href="#DejaVuSans-20"/>
      <use x="526.513672" xlink:href="#DejaVuSans-4b"/>
     </g>
    </g>
    <g id="PathCollection_13">
     <g>
      <use style="fill:#d62728;stroke:#d62728;" x="56.103125" xlink:href="#m0d22f4ac32" y="137.544688"/>
     </g>
    </g>
    <g id="text_15">
     <!-- T = 319.9 K -->
     <defs>
      <path d="M 10.984375 1.515625 
L 10.984375 10.5 
Q 14.703125 8.734375 18.5 7.8125 
Q 22.3125 6.890625 25.984375 6.890625 
Q 35.75 6.890625 40.890625 13.453125 
Q 46.046875 20.015625 46.78125 33.40625 
Q 43.953125 29.203125 39.59375 26.953125 
Q 35.25 24.703125 29.984375 24.703125 
Q 19.046875 24.703125 12.671875 31.3125 
Q 6.296875 37.9375 6.296875 49.421875 
Q 6.296875 60.640625 12.9375 67.421875 
Q 19.578125 74.21875 30.609375 74.21875 
Q 43.265625 74.21875 49.921875 64.515625 
Q 56.59375 54.828125 56.59375 36.375 
Q 56.59375 19.140625 48.40625 8.859375 
Q 40.234375 -1.421875 26.421875 -1.421875 
Q 22.703125 -1.421875 18.890625 -0.6875 
Q 15.09375 0.046875 10.984375 1.515625 
z
M 30.609375 32.421875 
Q 37.25 32.421875 41.125 36.953125 
Q 45.015625 41.5 45.015625 49.421875 
Q 45.015625 57.28125 41.125 61.84375 
Q 37.25 66.40625 30.609375 66.40625 
Q 23.96875 66.40625 20.09375 61.84375 
Q 16.21875 57.28125 16.21875 49.421875 
Q 16.21875 41.5 20.09375 36.953125 
Q 23.96875 32.421875 30.609375 32.421875 
z
" id="DejaVuSans-39"/>
     </defs>
     <g transform="translate(74.103125 140.169688)scale(0.1 -0.1)">
      <use xlink:href="#DejaVuSans-54"/>
      <use x="61.083984" xlink:href="#DejaVuSans-20"/>
      <use x="92.871094" xlink:href="#DejaVuSans-3d"/>
      <use x="176.660156" xlink:href="#DejaVuSans-20"/>
      <use x="208.447266" xlink:href="#DejaVuSans-33"/>
      <use x="272.070312" xlink:href="#DejaVuSans-31"/>
      <use x="335.693359" xlink:href="#DejaVuSans-39"/>
      <use x="399.316406" xlink:href="#DejaVuSans-2e"/>
      <use x="431.103516" xlink:href="#DejaVuSans-39"/>
      <use x="494.726562" xlink:href="#DejaVuSans-20"/>
      <use x="526.513672" xlink:href="#DejaVuSans-4b"/>
     </g>
    </g>
    <g id="PathCollection_14">
     <g>
      <use style="fill:#9467bd;stroke:#9467bd;" x="56.103125" xlink:href="#m57cbda343e" y="152.222813"/>
     </g>
    </g>
    <g id="text_16">
     <!-- T = 324.7 K -->
     <defs>
      <path d="M 8.203125 72.90625 
L 55.078125 72.90625 
L 55.078125 68.703125 
L 28.609375 0 
L 18.3125 0 
L 43.21875 64.59375 
L 8.203125 64.59375 
z
" id="DejaVuSans-37"/>
     </defs>
     <g transform="translate(74.103125 154.847813)scale(0.1 -0.1)">
      <use xlink:href="#DejaVuSans-54"/>
      <use x="61.083984" xlink:href="#DejaVuSans-20"/>
      <use x="92.871094" xlink:href="#DejaVuSans-3d"/>
      <use x="176.660156" xlink:href="#DejaVuSans-20"/>
      <use x="208.447266" xlink:href="#DejaVuSans-33"/>
      <use x="272.070312" xlink:href="#DejaVuSans-32"/>
      <use x="335.693359" xlink:href="#DejaVuSans-34"/>
      <use x="399.316406" xlink:href="#DejaVuSans-2e"/>
      <use x="431.103516" xlink:href="#DejaVuSans-37"/>
      <use x="494.726562" xlink:href="#DejaVuSans-20"/>
      <use x="526.513672" xlink:href="#DejaVuSans-4b"/>
     </g>
    </g>
    <g id="PathCollection_15">
     <g>
      <use style="fill:#8c564b;stroke:#8c564b;" x="56.103125" xlink:href="#m5d93677222" y="166.900937"/>
     </g>
    </g>
    <g id="text_17">
     <!-- T = 329.5 K -->
     <g transform="translate(74.103125 169.525937)scale(0.1 -0.1)">
      <use xlink:href="#DejaVuSans-54"/>
      <use x="61.083984" xlink:href="#DejaVuSans-20"/>
      <use x="92.871094" xlink:href="#DejaVuSans-3d"/>
      <use x="176.660156" xlink:href="#DejaVuSans-20"/>
      <use x="208.447266" xlink:href="#DejaVuSans-33"/>
      <use x="272.070312" xlink:href="#DejaVuSans-32"/>
      <use x="335.693359" xlink:href="#DejaVuSans-39"/>
      <use x="399.316406" xlink:href="#DejaVuSans-2e"/>
      <use x="431.103516" xlink:href="#DejaVuSans-35"/>
      <use x="494.726562" xlink:href="#DejaVuSans-20"/>
      <use x="526.513672" xlink:href="#DejaVuSans-4b"/>
     </g>
    </g>
    <g id="PathCollection_16">
     <g>
      <use style="fill:#e377c2;stroke:#e377c2;" x="56.103125" xlink:href="#mee16bd4f25" y="181.579062"/>
     </g>
    </g>
    <g id="text_18">
     <!-- T = 334.3 K -->
     <g transform="translate(74.103125 184.204062)scale(0.1 -0.1)">
      <use xlink:href="#DejaVuSans-54"/>
      <use x="61.083984" xlink:href="#DejaVuSans-20"/>
      <use x="92.871094" xlink:href="#DejaVuSans-3d"/>
      <use x="176.660156" xlink:href="#DejaVuSans-20"/>
      <use x="208.447266" xlink:href="#DejaVuSans-33"/>
      <use x="272.070312" xlink:href="#DejaVuSans-33"/>
      <use x="335.693359" xlink:href="#DejaVuSans-34"/>
      <use x="399.316406" xlink:href="#DejaVuSans-2e"/>
      <use x="431.103516" xlink:href="#DejaVuSans-33"/>
      <use x="494.726562" xlink:href="#DejaVuSans-20"/>
      <use x="526.513672" xlink:href="#DejaVuSans-4b"/>
     </g>
    </g>
    <g id="PathCollection_17">
     <g>
      <use style="fill:#7f7f7f;stroke:#7f7f7f;" x="56.103125" xlink:href="#m7fc6ce684c" y="196.257187"/>
     </g>
    </g>
    <g id="text_19">
     <!-- T = 339.1 K -->
     <g transform="translate(74.103125 198.882187)scale(0.1 -0.1)">
      <use xlink:href="#DejaVuSans-54"/>
      <use x="61.083984" xlink:href="#DejaVuSans-20"/>
      <use x="92.871094" xlink:href="#DejaVuSans-3d"/>
      <use x="176.660156" xlink:href="#DejaVuSans-20"/>
      <use x="208.447266" xlink:href="#DejaVuSans-33"/>
      <use x="272.070312" xlink:href="#DejaVuSans-33"/>
      <use x="335.693359" xlink:href="#DejaVuSans-39"/>
      <use x="399.316406" xlink:href="#DejaVuSans-2e"/>
      <use x="431.103516" xlink:href="#DejaVuSans-31"/>
      <use x="494.726562" xlink:href="#DejaVuSans-20"/>
      <use x="526.513672" xlink:href="#DejaVuSans-4b"/>
     </g>
    </g>
    <g id="PathCollection_18">
     <g>
      <use style="fill:#bcbd22;stroke:#bcbd22;" x="56.103125" xlink:href="#m484437aa75" y="210.935312"/>
     </g>
    </g>
    <g id="text_20">
     <!-- T = 343.9 K -->
     <g transform="translate(74.103125 213.560312)scale(0.1 -0.1)">
      <use xlink:href="#DejaVuSans-54"/>
      <use x="61.083984" xlink:href="#DejaVuSans-20"/>
      <use x="92.871094" xlink:href="#DejaVuSans-3d"/>
      <use x="176.660156" xlink:href="#DejaVuSans-20"/>
      <use x="208.447266" xlink:href="#DejaVuSans-33"/>
      <use x="272.070312" xlink:href="#DejaVuSans-34"/>
      <use x="335.693359" xlink:href="#DejaVuSans-33"/>
      <use x="399.316406" xlink:href="#DejaVuSans-2e"/>
      <use x="431.103516" xlink:href="#DejaVuSans-39"/>
      <use x="494.726562" xlink:href="#DejaVuSans-20"/>
      <use x="526.513672" xlink:href="#DejaVuSans-4b"/>
     </g>
    </g>
   </g>
  </g>
 </g>
 <defs>
  <clipPath id="p4f0e93dc71">
   <rect height="217.44" width="334.8" x="37.103125" y="7.2"/>
  </clipPath>
 </defs>
</svg>
