<?xml version="1.0" encoding="utf-8" standalone="no"?>
<!DOCTYPE svg PUBLIC "-//W3C//DTD SVG 1.1//EN"
  "http://www.w3.org/Graphics/SVG/1.1/DTD/svg11.dtd">
<!-- Created with matplotlib (http://matplotlib.org/) -->
<svg height="266.718125pt" version="1.1" viewBox="0 0 396.951318 266.718125" width="396.951318pt" xmlns="http://www.w3.org/2000/svg" xmlns:xlink="http://www.w3.org/1999/xlink">
 <defs>
  <style type="text/css">
*{stroke-linecap:butt;stroke-linejoin:round;}
  </style>
 </defs>
 <g id="figure_1">
  <g id="patch_1">
   <path d="M 0 266.718125 
L 396.951318 266.718125 
L 396.951318 0 
L 0 0 
z
" style="fill:#ffffff;"/>
  </g>
  <g id="axes_1">
   <g id="patch_2">
    <path d="M 43.78125 228.14 
L 378.58125 228.14 
L 378.58125 10.7 
L 43.78125 10.7 
z
" style="fill:#ffffff;"/>
   </g>
   <g id="PathCollection_1">
    <defs>
     <path d="M 0 3 
C 0.795609 3 1.55874 2.683901 2.12132 2.12132 
C 2.683901 1.55874 3 0.795609 3 0 
C 3 -0.795609 2.683901 -1.55874 2.12132 -2.12132 
C 1.55874 -2.683901 0.795609 -3 0 -3 
C -0.795609 -3 -1.55874 -2.683901 -2.12132 -2.12132 
C -2.683901 -1.55874 -3 -0.795609 -3 0 
C -3 0.795609 -2.683901 1.55874 -2.12132 2.12132 
C -1.55874 2.683901 -0.795609 3 0 3 
z
" id="md0d722bc83" style="stroke:#1f77b4;"/>
    </defs>
    <g clip-path="url(#pa62fad195d)">
     <use style="fill:#1f77b4;stroke:#1f77b4;" x="142.466116" xlink:href="#md0d722bc83" y="23.718481"/>
     <use style="fill:#1f77b4;stroke:#1f77b4;" x="152.299269" xlink:href="#md0d722bc83" y="25.445969"/>
     <use style="fill:#1f77b4;stroke:#1f77b4;" x="162.132423" xlink:href="#md0d722bc83" y="30.310698"/>
     <use style="fill:#1f77b4;stroke:#1f77b4;" x="171.965576" xlink:href="#md0d722bc83" y="35.257581"/>
     <use style="fill:#1f77b4;stroke:#1f77b4;" x="181.79873" xlink:href="#md0d722bc83" y="42.112843"/>
     <use style="fill:#1f77b4;stroke:#1f77b4;" x="191.631883" xlink:href="#md0d722bc83" y="50.322106"/>
     <use style="fill:#1f77b4;stroke:#1f77b4;" x="201.465036" xlink:href="#md0d722bc83" y="61.633637"/>
     <use style="fill:#1f77b4;stroke:#1f77b4;" x="211.29819" xlink:href="#md0d722bc83" y="73.218175"/>
     <use style="fill:#1f77b4;stroke:#1f77b4;" x="221.131343" xlink:href="#md0d722bc83" y="89.749747"/>
     <use style="fill:#1f77b4;stroke:#1f77b4;" x="230.964497" xlink:href="#md0d722bc83" y="108.998356"/>
     <use style="fill:#1f77b4;stroke:#1f77b4;" x="240.79765" xlink:href="#md0d722bc83" y="133.025773"/>
     <use style="fill:#1f77b4;stroke:#1f77b4;" x="250.630804" xlink:href="#md0d722bc83" y="157.713071"/>
     <use style="fill:#1f77b4;stroke:#1f77b4;" x="260.463957" xlink:href="#md0d722bc83" y="183.185254"/>
     <use style="fill:#1f77b4;stroke:#1f77b4;" x="270.29711" xlink:href="#md0d722bc83" y="202.113982"/>
     <use style="fill:#1f77b4;stroke:#1f77b4;" x="280.130264" xlink:href="#md0d722bc83" y="210.96462"/>
     <use style="fill:#1f77b4;stroke:#1f77b4;" x="289.963417" xlink:href="#md0d722bc83" y="214.114379"/>
     <use style="fill:#1f77b4;stroke:#1f77b4;" x="299.796571" xlink:href="#md0d722bc83" y="213.518946"/>
     <use style="fill:#1f77b4;stroke:#1f77b4;" x="309.629724" xlink:href="#md0d722bc83" y="213.414822"/>
     <use style="fill:#1f77b4;stroke:#1f77b4;" x="319.462877" xlink:href="#md0d722bc83" y="213.183848"/>
     <use style="fill:#1f77b4;stroke:#1f77b4;" x="329.296031" xlink:href="#md0d722bc83" y="213.885713"/>
     <use style="fill:#1f77b4;stroke:#1f77b4;" x="339.129184" xlink:href="#md0d722bc83" y="213.407471"/>
     <use style="fill:#1f77b4;stroke:#1f77b4;" x="348.962338" xlink:href="#md0d722bc83" y="213.710535"/>
     <use style="fill:#1f77b4;stroke:#1f77b4;" x="358.795491" xlink:href="#md0d722bc83" y="213.264718"/>
    </g>
   </g>
   <g id="PathCollection_2">
    <defs>
     <path d="M 0 3 
C 0.795609 3 1.55874 2.683901 2.12132 2.12132 
C 2.683901 1.55874 3 0.795609 3 0 
C 3 -0.795609 2.683901 -1.55874 2.12132 -2.12132 
C 1.55874 -2.683901 0.795609 -3 0 -3 
C -0.795609 -3 -1.55874 -2.683901 -2.12132 -2.12132 
C -2.683901 -1.55874 -3 -0.795609 -3 0 
C -3 0.795609 -2.683901 1.55874 -2.12132 2.12132 
C -1.55874 2.683901 -0.795609 3 0 3 
z
" id="m905169fc5f" style="stroke:#ff7f0e;"/>
    </defs>
    <g clip-path="url(#pa62fad195d)">
     <use style="fill:#ff7f0e;stroke:#ff7f0e;" x="142.466116" xlink:href="#m905169fc5f" y="24.035504"/>
     <use style="fill:#ff7f0e;stroke:#ff7f0e;" x="152.299269" xlink:href="#m905169fc5f" y="26.716147"/>
     <use style="fill:#ff7f0e;stroke:#ff7f0e;" x="162.132423" xlink:href="#m905169fc5f" y="30.403945"/>
     <use style="fill:#ff7f0e;stroke:#ff7f0e;" x="171.965576" xlink:href="#m905169fc5f" y="35.430568"/>
     <use style="fill:#ff7f0e;stroke:#ff7f0e;" x="181.79873" xlink:href="#m905169fc5f" y="42.829481"/>
     <use style="fill:#ff7f0e;stroke:#ff7f0e;" x="191.631883" xlink:href="#m905169fc5f" y="50.640779"/>
     <use style="fill:#ff7f0e;stroke:#ff7f0e;" x="201.465036" xlink:href="#m905169fc5f" y="62.25393"/>
     <use style="fill:#ff7f0e;stroke:#ff7f0e;" x="211.29819" xlink:href="#m905169fc5f" y="74.166922"/>
     <use style="fill:#ff7f0e;stroke:#ff7f0e;" x="221.131343" xlink:href="#m905169fc5f" y="90.540878"/>
     <use style="fill:#ff7f0e;stroke:#ff7f0e;" x="230.964497" xlink:href="#m905169fc5f" y="110.72421"/>
     <use style="fill:#ff7f0e;stroke:#ff7f0e;" x="240.79765" xlink:href="#m905169fc5f" y="134.727034"/>
     <use style="fill:#ff7f0e;stroke:#ff7f0e;" x="250.630804" xlink:href="#m905169fc5f" y="160.966353"/>
     <use style="fill:#ff7f0e;stroke:#ff7f0e;" x="260.463957" xlink:href="#m905169fc5f" y="184.96066"/>
     <use style="fill:#ff7f0e;stroke:#ff7f0e;" x="270.29711" xlink:href="#m905169fc5f" y="202.331163"/>
     <use style="fill:#ff7f0e;stroke:#ff7f0e;" x="280.130264" xlink:href="#m905169fc5f" y="211.307661"/>
     <use style="fill:#ff7f0e;stroke:#ff7f0e;" x="289.963417" xlink:href="#m905169fc5f" y="213.06785"/>
     <use style="fill:#ff7f0e;stroke:#ff7f0e;" x="299.796571" xlink:href="#m905169fc5f" y="214.388098"/>
     <use style="fill:#ff7f0e;stroke:#ff7f0e;" x="309.629724" xlink:href="#m905169fc5f" y="213.657753"/>
     <use style="fill:#ff7f0e;stroke:#ff7f0e;" x="319.462877" xlink:href="#m905169fc5f" y="213.782098"/>
     <use style="fill:#ff7f0e;stroke:#ff7f0e;" x="329.296031" xlink:href="#m905169fc5f" y="214.110177"/>
     <use style="fill:#ff7f0e;stroke:#ff7f0e;" x="339.129184" xlink:href="#m905169fc5f" y="213.27702"/>
     <use style="fill:#ff7f0e;stroke:#ff7f0e;" x="348.962338" xlink:href="#m905169fc5f" y="213.100991"/>
     <use style="fill:#ff7f0e;stroke:#ff7f0e;" x="358.795491" xlink:href="#m905169fc5f" y="213.249143"/>
    </g>
   </g>
   <g id="PathCollection_3">
    <defs>
     <path d="M 0 3 
C 0.795609 3 1.55874 2.683901 2.12132 2.12132 
C 2.683901 1.55874 3 0.795609 3 0 
C 3 -0.795609 2.683901 -1.55874 2.12132 -2.12132 
C 1.55874 -2.683901 0.795609 -3 0 -3 
C -0.795609 -3 -1.55874 -2.683901 -2.12132 -2.12132 
C -2.683901 -1.55874 -3 -0.795609 -3 0 
C -3 0.795609 -2.683901 1.55874 -2.12132 2.12132 
C -1.55874 2.683901 -0.795609 3 0 3 
z
" id="m47c218c02c" style="stroke:#2ca02c;"/>
    </defs>
    <g clip-path="url(#pa62fad195d)">
     <use style="fill:#2ca02c;stroke:#2ca02c;" x="142.466116" xlink:href="#m47c218c02c" y="24.662427"/>
     <use style="fill:#2ca02c;stroke:#2ca02c;" x="152.299269" xlink:href="#m47c218c02c" y="26.398317"/>
     <use style="fill:#2ca02c;stroke:#2ca02c;" x="162.132423" xlink:href="#m47c218c02c" y="30.744065"/>
     <use style="fill:#2ca02c;stroke:#2ca02c;" x="171.965576" xlink:href="#m47c218c02c" y="35.775726"/>
     <use style="fill:#2ca02c;stroke:#2ca02c;" x="181.79873" xlink:href="#m47c218c02c" y="43.554994"/>
     <use style="fill:#2ca02c;stroke:#2ca02c;" x="191.631883" xlink:href="#m47c218c02c" y="52.034264"/>
     <use style="fill:#2ca02c;stroke:#2ca02c;" x="201.465036" xlink:href="#m47c218c02c" y="63.820759"/>
     <use style="fill:#2ca02c;stroke:#2ca02c;" x="211.29819" xlink:href="#m47c218c02c" y="75.696588"/>
     <use style="fill:#2ca02c;stroke:#2ca02c;" x="221.131343" xlink:href="#m47c218c02c" y="93.849243"/>
     <use style="fill:#2ca02c;stroke:#2ca02c;" x="230.964497" xlink:href="#m47c218c02c" y="113.203518"/>
     <use style="fill:#2ca02c;stroke:#2ca02c;" x="240.79765" xlink:href="#m47c218c02c" y="138.687982"/>
     <use style="fill:#2ca02c;stroke:#2ca02c;" x="250.630804" xlink:href="#m47c218c02c" y="165.034644"/>
     <use style="fill:#2ca02c;stroke:#2ca02c;" x="260.463957" xlink:href="#m47c218c02c" y="188.3708"/>
     <use style="fill:#2ca02c;stroke:#2ca02c;" x="270.29711" xlink:href="#m47c218c02c" y="205.14909"/>
     <use style="fill:#2ca02c;stroke:#2ca02c;" x="280.130264" xlink:href="#m47c218c02c" y="211.753825"/>
     <use style="fill:#2ca02c;stroke:#2ca02c;" x="289.963417" xlink:href="#m47c218c02c" y="214.260686"/>
     <use style="fill:#2ca02c;stroke:#2ca02c;" x="299.796571" xlink:href="#m47c218c02c" y="213.759737"/>
     <use style="fill:#2ca02c;stroke:#2ca02c;" x="309.629724" xlink:href="#m47c218c02c" y="213.7471"/>
     <use style="fill:#2ca02c;stroke:#2ca02c;" x="319.462877" xlink:href="#m47c218c02c" y="214.050779"/>
     <use style="fill:#2ca02c;stroke:#2ca02c;" x="329.296031" xlink:href="#m47c218c02c" y="212.916314"/>
     <use style="fill:#2ca02c;stroke:#2ca02c;" x="339.129184" xlink:href="#m47c218c02c" y="213.585507"/>
     <use style="fill:#2ca02c;stroke:#2ca02c;" x="348.962338" xlink:href="#m47c218c02c" y="213.561937"/>
     <use style="fill:#2ca02c;stroke:#2ca02c;" x="358.795491" xlink:href="#m47c218c02c" y="213.684833"/>
    </g>
   </g>
   <g id="PathCollection_4">
    <defs>
     <path d="M 0 3 
C 0.795609 3 1.55874 2.683901 2.12132 2.12132 
C 2.683901 1.55874 3 0.795609 3 0 
C 3 -0.795609 2.683901 -1.55874 2.12132 -2.12132 
C 1.55874 -2.683901 0.795609 -3 0 -3 
C -0.795609 -3 -1.55874 -2.683901 -2.12132 -2.12132 
C -2.683901 -1.55874 -3 -0.795609 -3 0 
C -3 0.795609 -2.683901 1.55874 -2.12132 2.12132 
C -1.55874 2.683901 -0.795609 3 0 3 
z
" id="m5086ef2f32" style="stroke:#d62728;"/>
    </defs>
    <g clip-path="url(#pa62fad195d)">
     <use style="fill:#d62728;stroke:#d62728;" x="142.466116" xlink:href="#m5086ef2f32" y="25.958985"/>
     <use style="fill:#d62728;stroke:#d62728;" x="152.299269" xlink:href="#m5086ef2f32" y="28.283627"/>
     <use style="fill:#d62728;stroke:#d62728;" x="162.132423" xlink:href="#m5086ef2f32" y="33.432368"/>
     <use style="fill:#d62728;stroke:#d62728;" x="171.965576" xlink:href="#m5086ef2f32" y="38.719515"/>
     <use style="fill:#d62728;stroke:#d62728;" x="181.79873" xlink:href="#m5086ef2f32" y="46.595351"/>
     <use style="fill:#d62728;stroke:#d62728;" x="191.631883" xlink:href="#m5086ef2f32" y="56.519679"/>
     <use style="fill:#d62728;stroke:#d62728;" x="201.465036" xlink:href="#m5086ef2f32" y="69.007458"/>
     <use style="fill:#d62728;stroke:#d62728;" x="211.29819" xlink:href="#m5086ef2f32" y="82.084144"/>
     <use style="fill:#d62728;stroke:#d62728;" x="221.131343" xlink:href="#m5086ef2f32" y="99.564228"/>
     <use style="fill:#d62728;stroke:#d62728;" x="230.964497" xlink:href="#m5086ef2f32" y="121.621452"/>
     <use style="fill:#d62728;stroke:#d62728;" x="240.79765" xlink:href="#m5086ef2f32" y="145.588948"/>
     <use style="fill:#d62728;stroke:#d62728;" x="250.630804" xlink:href="#m5086ef2f32" y="170.782044"/>
     <use style="fill:#d62728;stroke:#d62728;" x="260.463957" xlink:href="#m5086ef2f32" y="191.96679"/>
     <use style="fill:#d62728;stroke:#d62728;" x="270.29711" xlink:href="#m5086ef2f32" y="206.021987"/>
     <use style="fill:#d62728;stroke:#d62728;" x="280.130264" xlink:href="#m5086ef2f32" y="211.936706"/>
     <use style="fill:#d62728;stroke:#d62728;" x="289.963417" xlink:href="#m5086ef2f32" y="213.509266"/>
     <use style="fill:#d62728;stroke:#d62728;" x="299.796571" xlink:href="#m5086ef2f32" y="213.597198"/>
     <use style="fill:#d62728;stroke:#d62728;" x="309.629724" xlink:href="#m5086ef2f32" y="213.439111"/>
     <use style="fill:#d62728;stroke:#d62728;" x="319.462877" xlink:href="#m5086ef2f32" y="213.609326"/>
     <use style="fill:#d62728;stroke:#d62728;" x="329.296031" xlink:href="#m5086ef2f32" y="214.844121"/>
     <use style="fill:#d62728;stroke:#d62728;" x="339.129184" xlink:href="#m5086ef2f32" y="214.441118"/>
     <use style="fill:#d62728;stroke:#d62728;" x="348.962338" xlink:href="#m5086ef2f32" y="213.707057"/>
     <use style="fill:#d62728;stroke:#d62728;" x="358.795491" xlink:href="#m5086ef2f32" y="212.9746"/>
    </g>
   </g>
   <g id="PathCollection_5">
    <defs>
     <path d="M 0 3 
C 0.795609 3 1.55874 2.683901 2.12132 2.12132 
C 2.683901 1.55874 3 0.795609 3 0 
C 3 -0.795609 2.683901 -1.55874 2.12132 -2.12132 
C 1.55874 -2.683901 0.795609 -3 0 -3 
C -0.795609 -3 -1.55874 -2.683901 -2.12132 -2.12132 
C -2.683901 -1.55874 -3 -0.795609 -3 0 
C -3 0.795609 -2.683901 1.55874 -2.12132 2.12132 
C -1.55874 2.683901 -0.795609 3 0 3 
z
" id="m20e24fc7f5" style="stroke:#9467bd;"/>
    </defs>
    <g clip-path="url(#pa62fad195d)">
     <use style="fill:#9467bd;stroke:#9467bd;" x="142.466116" xlink:href="#m20e24fc7f5" y="27.188334"/>
     <use style="fill:#9467bd;stroke:#9467bd;" x="152.299269" xlink:href="#m20e24fc7f5" y="30.211732"/>
     <use style="fill:#9467bd;stroke:#9467bd;" x="162.132423" xlink:href="#m20e24fc7f5" y="34.923073"/>
     <use style="fill:#9467bd;stroke:#9467bd;" x="171.965576" xlink:href="#m20e24fc7f5" y="41.928113"/>
     <use style="fill:#9467bd;stroke:#9467bd;" x="181.79873" xlink:href="#m20e24fc7f5" y="50.128706"/>
     <use style="fill:#9467bd;stroke:#9467bd;" x="191.631883" xlink:href="#m20e24fc7f5" y="61.558216"/>
     <use style="fill:#9467bd;stroke:#9467bd;" x="201.465036" xlink:href="#m20e24fc7f5" y="74.48006"/>
     <use style="fill:#9467bd;stroke:#9467bd;" x="211.29819" xlink:href="#m20e24fc7f5" y="90.872965"/>
     <use style="fill:#9467bd;stroke:#9467bd;" x="221.131343" xlink:href="#m20e24fc7f5" y="111.267966"/>
     <use style="fill:#9467bd;stroke:#9467bd;" x="230.964497" xlink:href="#m20e24fc7f5" y="135.789281"/>
     <use style="fill:#9467bd;stroke:#9467bd;" x="240.79765" xlink:href="#m20e24fc7f5" y="159.893112"/>
     <use style="fill:#9467bd;stroke:#9467bd;" x="250.630804" xlink:href="#m20e24fc7f5" y="183.577482"/>
     <use style="fill:#9467bd;stroke:#9467bd;" x="260.463957" xlink:href="#m20e24fc7f5" y="200.455252"/>
     <use style="fill:#9467bd;stroke:#9467bd;" x="270.29711" xlink:href="#m20e24fc7f5" y="210.074409"/>
     <use style="fill:#9467bd;stroke:#9467bd;" x="280.130264" xlink:href="#m20e24fc7f5" y="213.693555"/>
     <use style="fill:#9467bd;stroke:#9467bd;" x="289.963417" xlink:href="#m20e24fc7f5" y="213.701716"/>
     <use style="fill:#9467bd;stroke:#9467bd;" x="299.796571" xlink:href="#m20e24fc7f5" y="213.992764"/>
     <use style="fill:#9467bd;stroke:#9467bd;" x="309.629724" xlink:href="#m20e24fc7f5" y="213.837224"/>
     <use style="fill:#9467bd;stroke:#9467bd;" x="319.462877" xlink:href="#m20e24fc7f5" y="214.177329"/>
     <use style="fill:#9467bd;stroke:#9467bd;" x="329.296031" xlink:href="#m20e24fc7f5" y="213.725146"/>
     <use style="fill:#9467bd;stroke:#9467bd;" x="339.129184" xlink:href="#m20e24fc7f5" y="213.746469"/>
     <use style="fill:#9467bd;stroke:#9467bd;" x="348.962338" xlink:href="#m20e24fc7f5" y="214.269508"/>
     <use style="fill:#9467bd;stroke:#9467bd;" x="358.795491" xlink:href="#m20e24fc7f5" y="213.611412"/>
    </g>
   </g>
   <g id="PathCollection_6">
    <defs>
     <path d="M 0 3 
C 0.795609 3 1.55874 2.683901 2.12132 2.12132 
C 2.683901 1.55874 3 0.795609 3 0 
C 3 -0.795609 2.683901 -1.55874 2.12132 -2.12132 
C 1.55874 -2.683901 0.795609 -3 0 -3 
C -0.795609 -3 -1.55874 -2.683901 -2.12132 -2.12132 
C -2.683901 -1.55874 -3 -0.795609 -3 0 
C -3 0.795609 -2.683901 1.55874 -2.12132 2.12132 
C -1.55874 2.683901 -0.795609 3 0 3 
z
" id="me537b52a5a" style="stroke:#8c564b;"/>
    </defs>
    <g clip-path="url(#pa62fad195d)">
     <use style="fill:#8c564b;stroke:#8c564b;" x="142.466116" xlink:href="#me537b52a5a" y="33.8175"/>
     <use style="fill:#8c564b;stroke:#8c564b;" x="152.299269" xlink:href="#me537b52a5a" y="38.91133"/>
     <use style="fill:#8c564b;stroke:#8c564b;" x="162.132423" xlink:href="#me537b52a5a" y="46.177964"/>
     <use style="fill:#8c564b;stroke:#8c564b;" x="171.965576" xlink:href="#me537b52a5a" y="56.288791"/>
     <use style="fill:#8c564b;stroke:#8c564b;" x="181.79873" xlink:href="#me537b52a5a" y="68.158863"/>
     <use style="fill:#8c564b;stroke:#8c564b;" x="191.631883" xlink:href="#me537b52a5a" y="83.534252"/>
     <use style="fill:#8c564b;stroke:#8c564b;" x="201.465036" xlink:href="#me537b52a5a" y="102.315198"/>
     <use style="fill:#8c564b;stroke:#8c564b;" x="211.29819" xlink:href="#me537b52a5a" y="123.676906"/>
     <use style="fill:#8c564b;stroke:#8c564b;" x="221.131343" xlink:href="#me537b52a5a" y="147.421344"/>
     <use style="fill:#8c564b;stroke:#8c564b;" x="230.964497" xlink:href="#me537b52a5a" y="170.360278"/>
     <use style="fill:#8c564b;stroke:#8c564b;" x="240.79765" xlink:href="#me537b52a5a" y="190.994709"/>
     <use style="fill:#8c564b;stroke:#8c564b;" x="250.630804" xlink:href="#me537b52a5a" y="204.096451"/>
     <use style="fill:#8c564b;stroke:#8c564b;" x="260.463957" xlink:href="#me537b52a5a" y="211.282499"/>
     <use style="fill:#8c564b;stroke:#8c564b;" x="270.29711" xlink:href="#me537b52a5a" y="214.324764"/>
     <use style="fill:#8c564b;stroke:#8c564b;" x="280.130264" xlink:href="#me537b52a5a" y="213.886229"/>
     <use style="fill:#8c564b;stroke:#8c564b;" x="289.963417" xlink:href="#me537b52a5a" y="214.390282"/>
     <use style="fill:#8c564b;stroke:#8c564b;" x="299.796571" xlink:href="#me537b52a5a" y="213.679915"/>
     <use style="fill:#8c564b;stroke:#8c564b;" x="309.629724" xlink:href="#me537b52a5a" y="213.126845"/>
     <use style="fill:#8c564b;stroke:#8c564b;" x="319.462877" xlink:href="#me537b52a5a" y="214.825239"/>
     <use style="fill:#8c564b;stroke:#8c564b;" x="329.296031" xlink:href="#me537b52a5a" y="214.32226"/>
     <use style="fill:#8c564b;stroke:#8c564b;" x="339.129184" xlink:href="#me537b52a5a" y="213.723458"/>
     <use style="fill:#8c564b;stroke:#8c564b;" x="348.962338" xlink:href="#me537b52a5a" y="214.060119"/>
     <use style="fill:#8c564b;stroke:#8c564b;" x="358.795491" xlink:href="#me537b52a5a" y="214.522045"/>
    </g>
   </g>
   <g id="PathCollection_7">
    <defs>
     <path d="M 0 3 
C 0.795609 3 1.55874 2.683901 2.12132 2.12132 
C 2.683901 1.55874 3 0.795609 3 0 
C 3 -0.795609 2.683901 -1.55874 2.12132 -2.12132 
C 1.55874 -2.683901 0.795609 -3 0 -3 
C -0.795609 -3 -1.55874 -2.683901 -2.12132 -2.12132 
C -2.683901 -1.55874 -3 -0.795609 -3 0 
C -3 0.795609 -2.683901 1.55874 -2.12132 2.12132 
C -1.55874 2.683901 -0.795609 3 0 3 
z
" id="m56f9417033" style="stroke:#e377c2;"/>
    </defs>
    <g clip-path="url(#pa62fad195d)">
     <use style="fill:#e377c2;stroke:#e377c2;" x="142.466116" xlink:href="#m56f9417033" y="45.883404"/>
     <use style="fill:#e377c2;stroke:#e377c2;" x="152.299269" xlink:href="#m56f9417033" y="53.430259"/>
     <use style="fill:#e377c2;stroke:#e377c2;" x="162.132423" xlink:href="#m56f9417033" y="64.801187"/>
     <use style="fill:#e377c2;stroke:#e377c2;" x="171.965576" xlink:href="#m56f9417033" y="79.044072"/>
     <use style="fill:#e377c2;stroke:#e377c2;" x="181.79873" xlink:href="#m56f9417033" y="97.060948"/>
     <use style="fill:#e377c2;stroke:#e377c2;" x="191.631883" xlink:href="#m56f9417033" y="117.581458"/>
     <use style="fill:#e377c2;stroke:#e377c2;" x="201.465036" xlink:href="#m56f9417033" y="140.573375"/>
     <use style="fill:#e377c2;stroke:#e377c2;" x="211.29819" xlink:href="#m56f9417033" y="162.956876"/>
     <use style="fill:#e377c2;stroke:#e377c2;" x="221.131343" xlink:href="#m56f9417033" y="183.413338"/>
     <use style="fill:#e377c2;stroke:#e377c2;" x="230.964497" xlink:href="#m56f9417033" y="199.095424"/>
     <use style="fill:#e377c2;stroke:#e377c2;" x="240.79765" xlink:href="#m56f9417033" y="208.063452"/>
     <use style="fill:#e377c2;stroke:#e377c2;" x="250.630804" xlink:href="#m56f9417033" y="211.640233"/>
     <use style="fill:#e377c2;stroke:#e377c2;" x="260.463957" xlink:href="#m56f9417033" y="214.595353"/>
     <use style="fill:#e377c2;stroke:#e377c2;" x="270.29711" xlink:href="#m56f9417033" y="215.262825"/>
     <use style="fill:#e377c2;stroke:#e377c2;" x="280.130264" xlink:href="#m56f9417033" y="213.872981"/>
     <use style="fill:#e377c2;stroke:#e377c2;" x="289.963417" xlink:href="#m56f9417033" y="214.14988"/>
     <use style="fill:#e377c2;stroke:#e377c2;" x="299.796571" xlink:href="#m56f9417033" y="214.45017"/>
     <use style="fill:#e377c2;stroke:#e377c2;" x="309.629724" xlink:href="#m56f9417033" y="213.558575"/>
     <use style="fill:#e377c2;stroke:#e377c2;" x="319.462877" xlink:href="#m56f9417033" y="213.270069"/>
     <use style="fill:#e377c2;stroke:#e377c2;" x="329.296031" xlink:href="#m56f9417033" y="214.628789"/>
     <use style="fill:#e377c2;stroke:#e377c2;" x="339.129184" xlink:href="#m56f9417033" y="214.330617"/>
     <use style="fill:#e377c2;stroke:#e377c2;" x="348.962338" xlink:href="#m56f9417033" y="214.68598"/>
     <use style="fill:#e377c2;stroke:#e377c2;" x="358.795491" xlink:href="#m56f9417033" y="213.771332"/>
    </g>
   </g>
   <g id="PathCollection_8">
    <defs>
     <path d="M 0 3 
C 0.795609 3 1.55874 2.683901 2.12132 2.12132 
C 2.683901 1.55874 3 0.795609 3 0 
C 3 -0.795609 2.683901 -1.55874 2.12132 -2.12132 
C 1.55874 -2.683901 0.795609 -3 0 -3 
C -0.795609 -3 -1.55874 -2.683901 -2.12132 -2.12132 
C -2.683901 -1.55874 -3 -0.795609 -3 0 
C -3 0.795609 -2.683901 1.55874 -2.12132 2.12132 
C -1.55874 2.683901 -0.795609 3 0 3 
z
" id="m0dd490c562" style="stroke:#7f7f7f;"/>
    </defs>
    <g clip-path="url(#pa62fad195d)">
     <use style="fill:#7f7f7f;stroke:#7f7f7f;" x="142.466116" xlink:href="#m0dd490c562" y="65.724762"/>
     <use style="fill:#7f7f7f;stroke:#7f7f7f;" x="152.299269" xlink:href="#m0dd490c562" y="79.372566"/>
     <use style="fill:#7f7f7f;stroke:#7f7f7f;" x="162.132423" xlink:href="#m0dd490c562" y="96.823769"/>
     <use style="fill:#7f7f7f;stroke:#7f7f7f;" x="171.965576" xlink:href="#m0dd490c562" y="116.396548"/>
     <use style="fill:#7f7f7f;stroke:#7f7f7f;" x="181.79873" xlink:href="#m0dd490c562" y="138.969045"/>
     <use style="fill:#7f7f7f;stroke:#7f7f7f;" x="191.631883" xlink:href="#m0dd490c562" y="161.386049"/>
     <use style="fill:#7f7f7f;stroke:#7f7f7f;" x="201.465036" xlink:href="#m0dd490c562" y="181.775452"/>
     <use style="fill:#7f7f7f;stroke:#7f7f7f;" x="211.29819" xlink:href="#m0dd490c562" y="197.421678"/>
     <use style="fill:#7f7f7f;stroke:#7f7f7f;" x="221.131343" xlink:href="#m0dd490c562" y="206.454529"/>
     <use style="fill:#7f7f7f;stroke:#7f7f7f;" x="230.964497" xlink:href="#m0dd490c562" y="212.704594"/>
     <use style="fill:#7f7f7f;stroke:#7f7f7f;" x="240.79765" xlink:href="#m0dd490c562" y="213.584033"/>
     <use style="fill:#7f7f7f;stroke:#7f7f7f;" x="250.630804" xlink:href="#m0dd490c562" y="214.566871"/>
     <use style="fill:#7f7f7f;stroke:#7f7f7f;" x="260.463957" xlink:href="#m0dd490c562" y="213.353623"/>
     <use style="fill:#7f7f7f;stroke:#7f7f7f;" x="270.29711" xlink:href="#m0dd490c562" y="214.054691"/>
     <use style="fill:#7f7f7f;stroke:#7f7f7f;" x="280.130264" xlink:href="#m0dd490c562" y="215.047243"/>
     <use style="fill:#7f7f7f;stroke:#7f7f7f;" x="289.963417" xlink:href="#m0dd490c562" y="214.476404"/>
     <use style="fill:#7f7f7f;stroke:#7f7f7f;" x="299.796571" xlink:href="#m0dd490c562" y="213.513958"/>
     <use style="fill:#7f7f7f;stroke:#7f7f7f;" x="309.629724" xlink:href="#m0dd490c562" y="214.183045"/>
     <use style="fill:#7f7f7f;stroke:#7f7f7f;" x="319.462877" xlink:href="#m0dd490c562" y="213.676516"/>
     <use style="fill:#7f7f7f;stroke:#7f7f7f;" x="329.296031" xlink:href="#m0dd490c562" y="214.515264"/>
     <use style="fill:#7f7f7f;stroke:#7f7f7f;" x="339.129184" xlink:href="#m0dd490c562" y="214.463038"/>
     <use style="fill:#7f7f7f;stroke:#7f7f7f;" x="348.962338" xlink:href="#m0dd490c562" y="214.245764"/>
     <use style="fill:#7f7f7f;stroke:#7f7f7f;" x="358.795491" xlink:href="#m0dd490c562" y="214.487959"/>
    </g>
   </g>
   <g id="PathCollection_9">
    <defs>
     <path d="M 0 3 
C 0.795609 3 1.55874 2.683901 2.12132 2.12132 
C 2.683901 1.55874 3 0.795609 3 0 
C 3 -0.795609 2.683901 -1.55874 2.12132 -2.12132 
C 1.55874 -2.683901 0.795609 -3 0 -3 
C -0.795609 -3 -1.55874 -2.683901 -2.12132 -2.12132 
C -2.683901 -1.55874 -3 -0.795609 -3 0 
C -3 0.795609 -2.683901 1.55874 -2.12132 2.12132 
C -1.55874 2.683901 -0.795609 3 0 3 
z
" id="mddae01f178" style="stroke:#bcbd22;"/>
    </defs>
    <g clip-path="url(#pa62fad195d)">
     <use style="fill:#bcbd22;stroke:#bcbd22;" x="142.466116" xlink:href="#mddae01f178" y="104.125113"/>
     <use style="fill:#bcbd22;stroke:#bcbd22;" x="152.299269" xlink:href="#mddae01f178" y="124.166863"/>
     <use style="fill:#bcbd22;stroke:#bcbd22;" x="162.132423" xlink:href="#mddae01f178" y="143.628561"/>
     <use style="fill:#bcbd22;stroke:#bcbd22;" x="171.965576" xlink:href="#mddae01f178" y="164.895228"/>
     <use style="fill:#bcbd22;stroke:#bcbd22;" x="181.79873" xlink:href="#mddae01f178" y="183.360941"/>
     <use style="fill:#bcbd22;stroke:#bcbd22;" x="191.631883" xlink:href="#mddae01f178" y="198.381049"/>
     <use style="fill:#bcbd22;stroke:#bcbd22;" x="201.465036" xlink:href="#mddae01f178" y="206.55738"/>
     <use style="fill:#bcbd22;stroke:#bcbd22;" x="211.29819" xlink:href="#mddae01f178" y="211.133056"/>
     <use style="fill:#bcbd22;stroke:#bcbd22;" x="221.131343" xlink:href="#mddae01f178" y="213.455678"/>
     <use style="fill:#bcbd22;stroke:#bcbd22;" x="230.964497" xlink:href="#mddae01f178" y="213.101917"/>
     <use style="fill:#bcbd22;stroke:#bcbd22;" x="240.79765" xlink:href="#mddae01f178" y="214.573545"/>
     <use style="fill:#bcbd22;stroke:#bcbd22;" x="250.630804" xlink:href="#mddae01f178" y="215.166287"/>
     <use style="fill:#bcbd22;stroke:#bcbd22;" x="260.463957" xlink:href="#mddae01f178" y="213.9885"/>
     <use style="fill:#bcbd22;stroke:#bcbd22;" x="270.29711" xlink:href="#mddae01f178" y="213.924409"/>
     <use style="fill:#bcbd22;stroke:#bcbd22;" x="280.130264" xlink:href="#mddae01f178" y="214.352686"/>
     <use style="fill:#bcbd22;stroke:#bcbd22;" x="289.963417" xlink:href="#mddae01f178" y="214.414444"/>
     <use style="fill:#bcbd22;stroke:#bcbd22;" x="299.796571" xlink:href="#mddae01f178" y="214.055533"/>
     <use style="fill:#bcbd22;stroke:#bcbd22;" x="309.629724" xlink:href="#mddae01f178" y="214.120848"/>
     <use style="fill:#bcbd22;stroke:#bcbd22;" x="319.462877" xlink:href="#mddae01f178" y="214.527901"/>
     <use style="fill:#bcbd22;stroke:#bcbd22;" x="329.296031" xlink:href="#mddae01f178" y="214.681095"/>
     <use style="fill:#bcbd22;stroke:#bcbd22;" x="339.129184" xlink:href="#mddae01f178" y="214.050029"/>
     <use style="fill:#bcbd22;stroke:#bcbd22;" x="348.962338" xlink:href="#mddae01f178" y="214.45832"/>
     <use style="fill:#bcbd22;stroke:#bcbd22;" x="358.795491" xlink:href="#mddae01f178" y="213.579668"/>
    </g>
   </g>
   <g id="matplotlib.axis_1">
    <g id="xtick_1">
     <g id="line2d_1">
      <defs>
       <path d="M 0 0 
L 0 3.5 
" id="m11ef065b84" style="stroke:#000000;stroke-width:0.8;"/>
      </defs>
      <g>
       <use style="stroke:#000000;stroke-width:0.8;" x="58.999432" xlink:href="#m11ef065b84" y="228.14"/>
      </g>
     </g>
     <g id="text_1">
      <!-- $\mathdefault{10^{-6}}$ -->
      <defs>
       <path d="M 12.40625 8.296875 
L 28.515625 8.296875 
L 28.515625 63.921875 
L 10.984375 60.40625 
L 10.984375 69.390625 
L 28.421875 72.90625 
L 38.28125 72.90625 
L 38.28125 8.296875 
L 54.390625 8.296875 
L 54.390625 0 
L 12.40625 0 
z
" id="DejaVuSans-31"/>
       <path d="M 31.78125 66.40625 
Q 24.171875 66.40625 20.328125 58.90625 
Q 16.5 51.421875 16.5 36.375 
Q 16.5 21.390625 20.328125 13.890625 
Q 24.171875 6.390625 31.78125 6.390625 
Q 39.453125 6.390625 43.28125 13.890625 
Q 47.125 21.390625 47.125 36.375 
Q 47.125 51.421875 43.28125 58.90625 
Q 39.453125 66.40625 31.78125 66.40625 
z
M 31.78125 74.21875 
Q 44.046875 74.21875 50.515625 64.515625 
Q 56.984375 54.828125 56.984375 36.375 
Q 56.984375 17.96875 50.515625 8.265625 
Q 44.046875 -1.421875 31.78125 -1.421875 
Q 19.53125 -1.421875 13.0625 8.265625 
Q 6.59375 17.96875 6.59375 36.375 
Q 6.59375 54.828125 13.0625 64.515625 
Q 19.53125 74.21875 31.78125 74.21875 
z
" id="DejaVuSans-30"/>
       <path d="M 10.59375 35.5 
L 73.1875 35.5 
L 73.1875 27.203125 
L 10.59375 27.203125 
z
" id="DejaVuSans-2212"/>
       <path d="M 33.015625 40.375 
Q 26.375 40.375 22.484375 35.828125 
Q 18.609375 31.296875 18.609375 23.390625 
Q 18.609375 15.53125 22.484375 10.953125 
Q 26.375 6.390625 33.015625 6.390625 
Q 39.65625 6.390625 43.53125 10.953125 
Q 47.40625 15.53125 47.40625 23.390625 
Q 47.40625 31.296875 43.53125 35.828125 
Q 39.65625 40.375 33.015625 40.375 
z
M 52.59375 71.296875 
L 52.59375 62.3125 
Q 48.875 64.0625 45.09375 64.984375 
Q 41.3125 65.921875 37.59375 65.921875 
Q 27.828125 65.921875 22.671875 59.328125 
Q 17.53125 52.734375 16.796875 39.40625 
Q 19.671875 43.65625 24.015625 45.921875 
Q 28.375 48.1875 33.59375 48.1875 
Q 44.578125 48.1875 50.953125 41.515625 
Q 57.328125 34.859375 57.328125 23.390625 
Q 57.328125 12.15625 50.6875 5.359375 
Q 44.046875 -1.421875 33.015625 -1.421875 
Q 20.359375 -1.421875 13.671875 8.265625 
Q 6.984375 17.96875 6.984375 36.375 
Q 6.984375 53.65625 15.1875 63.9375 
Q 23.390625 74.21875 37.203125 74.21875 
Q 40.921875 74.21875 44.703125 73.484375 
Q 48.484375 72.75 52.59375 71.296875 
z
" id="DejaVuSans-36"/>
      </defs>
      <g transform="translate(47.249432 242.738437)scale(0.1 -0.1)">
       <use transform="translate(0 0.765625)" xlink:href="#DejaVuSans-31"/>
       <use transform="translate(63.623047 0.765625)" xlink:href="#DejaVuSans-30"/>
       <use transform="translate(128.203125 39.046875)scale(0.7)" xlink:href="#DejaVuSans-2212"/>
       <use transform="translate(186.855469 39.046875)scale(0.7)" xlink:href="#DejaVuSans-36"/>
      </g>
     </g>
    </g>
    <g id="xtick_2">
     <g id="line2d_2">
      <g>
       <use style="stroke:#000000;stroke-width:0.8;" x="122.799809" xlink:href="#m11ef065b84" y="228.14"/>
      </g>
     </g>
     <g id="text_2">
      <!-- $\mathdefault{10^{-5}}$ -->
      <defs>
       <path d="M 10.796875 72.90625 
L 49.515625 72.90625 
L 49.515625 64.59375 
L 19.828125 64.59375 
L 19.828125 46.734375 
Q 21.96875 47.46875 24.109375 47.828125 
Q 26.265625 48.1875 28.421875 48.1875 
Q 40.625 48.1875 47.75 41.5 
Q 54.890625 34.8125 54.890625 23.390625 
Q 54.890625 11.625 47.5625 5.09375 
Q 40.234375 -1.421875 26.90625 -1.421875 
Q 22.3125 -1.421875 17.546875 -0.640625 
Q 12.796875 0.140625 7.71875 1.703125 
L 7.71875 11.625 
Q 12.109375 9.234375 16.796875 8.0625 
Q 21.484375 6.890625 26.703125 6.890625 
Q 35.15625 6.890625 40.078125 11.328125 
Q 45.015625 15.765625 45.015625 23.390625 
Q 45.015625 31 40.078125 35.4375 
Q 35.15625 39.890625 26.703125 39.890625 
Q 22.75 39.890625 18.8125 39.015625 
Q 14.890625 38.140625 10.796875 36.28125 
z
" id="DejaVuSans-35"/>
      </defs>
      <g transform="translate(111.049809 242.738437)scale(0.1 -0.1)">
       <use transform="translate(0 0.684375)" xlink:href="#DejaVuSans-31"/>
       <use transform="translate(63.623047 0.684375)" xlink:href="#DejaVuSans-30"/>
       <use transform="translate(128.203125 38.965625)scale(0.7)" xlink:href="#DejaVuSans-2212"/>
       <use transform="translate(186.855469 38.965625)scale(0.7)" xlink:href="#DejaVuSans-35"/>
      </g>
     </g>
    </g>
    <g id="xtick_3">
     <g id="line2d_3">
      <g>
       <use style="stroke:#000000;stroke-width:0.8;" x="186.600186" xlink:href="#m11ef065b84" y="228.14"/>
      </g>
     </g>
     <g id="text_3">
      <!-- $\mathdefault{10^{-4}}$ -->
      <defs>
       <path d="M 37.796875 64.3125 
L 12.890625 25.390625 
L 37.796875 25.390625 
z
M 35.203125 72.90625 
L 47.609375 72.90625 
L 47.609375 25.390625 
L 58.015625 25.390625 
L 58.015625 17.1875 
L 47.609375 17.1875 
L 47.609375 0 
L 37.796875 0 
L 37.796875 17.1875 
L 4.890625 17.1875 
L 4.890625 26.703125 
z
" id="DejaVuSans-34"/>
      </defs>
      <g transform="translate(174.850186 242.738437)scale(0.1 -0.1)">
       <use transform="translate(0 0.684375)" xlink:href="#DejaVuSans-31"/>
       <use transform="translate(63.623047 0.684375)" xlink:href="#DejaVuSans-30"/>
       <use transform="translate(128.203125 38.965625)scale(0.7)" xlink:href="#DejaVuSans-2212"/>
       <use transform="translate(186.855469 38.965625)scale(0.7)" xlink:href="#DejaVuSans-34"/>
      </g>
     </g>
    </g>
    <g id="xtick_4">
     <g id="line2d_4">
      <g>
       <use style="stroke:#000000;stroke-width:0.8;" x="250.400564" xlink:href="#m11ef065b84" y="228.14"/>
      </g>
     </g>
     <g id="text_4">
      <!-- $\mathdefault{10^{-3}}$ -->
      <defs>
       <path d="M 40.578125 39.3125 
Q 47.65625 37.796875 51.625 33 
Q 55.609375 28.21875 55.609375 21.1875 
Q 55.609375 10.40625 48.1875 4.484375 
Q 40.765625 -1.421875 27.09375 -1.421875 
Q 22.515625 -1.421875 17.65625 -0.515625 
Q 12.796875 0.390625 7.625 2.203125 
L 7.625 11.71875 
Q 11.71875 9.328125 16.59375 8.109375 
Q 21.484375 6.890625 26.8125 6.890625 
Q 36.078125 6.890625 40.9375 10.546875 
Q 45.796875 14.203125 45.796875 21.1875 
Q 45.796875 27.640625 41.28125 31.265625 
Q 36.765625 34.90625 28.71875 34.90625 
L 20.21875 34.90625 
L 20.21875 43.015625 
L 29.109375 43.015625 
Q 36.375 43.015625 40.234375 45.921875 
Q 44.09375 48.828125 44.09375 54.296875 
Q 44.09375 59.90625 40.109375 62.90625 
Q 36.140625 65.921875 28.71875 65.921875 
Q 24.65625 65.921875 20.015625 65.03125 
Q 15.375 64.15625 9.8125 62.3125 
L 9.8125 71.09375 
Q 15.4375 72.65625 20.34375 73.4375 
Q 25.25 74.21875 29.59375 74.21875 
Q 40.828125 74.21875 47.359375 69.109375 
Q 53.90625 64.015625 53.90625 55.328125 
Q 53.90625 49.265625 50.4375 45.09375 
Q 46.96875 40.921875 40.578125 39.3125 
z
" id="DejaVuSans-33"/>
      </defs>
      <g transform="translate(238.650564 242.738437)scale(0.1 -0.1)">
       <use transform="translate(0 0.765625)" xlink:href="#DejaVuSans-31"/>
       <use transform="translate(63.623047 0.765625)" xlink:href="#DejaVuSans-30"/>
       <use transform="translate(128.203125 39.046875)scale(0.7)" xlink:href="#DejaVuSans-2212"/>
       <use transform="translate(186.855469 39.046875)scale(0.7)" xlink:href="#DejaVuSans-33"/>
      </g>
     </g>
    </g>
    <g id="xtick_5">
     <g id="line2d_5">
      <g>
       <use style="stroke:#000000;stroke-width:0.8;" x="314.200941" xlink:href="#m11ef065b84" y="228.14"/>
      </g>
     </g>
     <g id="text_5">
      <!-- $\mathdefault{10^{-2}}$ -->
      <defs>
       <path d="M 19.1875 8.296875 
L 53.609375 8.296875 
L 53.609375 0 
L 7.328125 0 
L 7.328125 8.296875 
Q 12.9375 14.109375 22.625 23.890625 
Q 32.328125 33.6875 34.8125 36.53125 
Q 39.546875 41.84375 41.421875 45.53125 
Q 43.3125 49.21875 43.3125 52.78125 
Q 43.3125 58.59375 39.234375 62.25 
Q 35.15625 65.921875 28.609375 65.921875 
Q 23.96875 65.921875 18.8125 64.3125 
Q 13.671875 62.703125 7.8125 59.421875 
L 7.8125 69.390625 
Q 13.765625 71.78125 18.9375 73 
Q 24.125 74.21875 28.421875 74.21875 
Q 39.75 74.21875 46.484375 68.546875 
Q 53.21875 62.890625 53.21875 53.421875 
Q 53.21875 48.921875 51.53125 44.890625 
Q 49.859375 40.875 45.40625 35.40625 
Q 44.1875 33.984375 37.640625 27.21875 
Q 31.109375 20.453125 19.1875 8.296875 
z
" id="DejaVuSans-32"/>
      </defs>
      <g transform="translate(302.450941 242.738437)scale(0.1 -0.1)">
       <use transform="translate(0 0.765625)" xlink:href="#DejaVuSans-31"/>
       <use transform="translate(63.623047 0.765625)" xlink:href="#DejaVuSans-30"/>
       <use transform="translate(128.203125 39.046875)scale(0.7)" xlink:href="#DejaVuSans-2212"/>
       <use transform="translate(186.855469 39.046875)scale(0.7)" xlink:href="#DejaVuSans-32"/>
      </g>
     </g>
    </g>
    <g id="xtick_6">
     <g id="line2d_6">
      <g>
       <use style="stroke:#000000;stroke-width:0.8;" x="378.001318" xlink:href="#m11ef065b84" y="228.14"/>
      </g>
     </g>
     <g id="text_6">
      <!-- $\mathdefault{10^{-1}}$ -->
      <g transform="translate(366.251318 242.738437)scale(0.1 -0.1)">
       <use transform="translate(0 0.684375)" xlink:href="#DejaVuSans-31"/>
       <use transform="translate(63.623047 0.684375)" xlink:href="#DejaVuSans-30"/>
       <use transform="translate(128.203125 38.965625)scale(0.7)" xlink:href="#DejaVuSans-2212"/>
       <use transform="translate(186.855469 38.965625)scale(0.7)" xlink:href="#DejaVuSans-31"/>
      </g>
     </g>
    </g>
    <g id="xtick_7">
     <g id="line2d_7">
      <defs>
       <path d="M 0 0 
L 0 2 
" id="mb3568cfc7f" style="stroke:#000000;stroke-width:0.6;"/>
      </defs>
      <g>
       <use style="stroke:#000000;stroke-width:0.6;" x="44.845398" xlink:href="#mb3568cfc7f" y="228.14"/>
      </g>
     </g>
    </g>
    <g id="xtick_8">
     <g id="line2d_8">
      <g>
       <use style="stroke:#000000;stroke-width:0.6;" x="49.116628" xlink:href="#mb3568cfc7f" y="228.14"/>
      </g>
     </g>
    </g>
    <g id="xtick_9">
     <g id="line2d_9">
      <g>
       <use style="stroke:#000000;stroke-width:0.6;" x="52.816536" xlink:href="#mb3568cfc7f" y="228.14"/>
      </g>
     </g>
    </g>
    <g id="xtick_10">
     <g id="line2d_10">
      <g>
       <use style="stroke:#000000;stroke-width:0.6;" x="56.080087" xlink:href="#mb3568cfc7f" y="228.14"/>
      </g>
     </g>
    </g>
    <g id="xtick_11">
     <g id="line2d_11">
      <g>
       <use style="stroke:#000000;stroke-width:0.6;" x="78.205259" xlink:href="#mb3568cfc7f" y="228.14"/>
      </g>
     </g>
    </g>
    <g id="xtick_12">
     <g id="line2d_12">
      <g>
       <use style="stroke:#000000;stroke-width:0.6;" x="89.439948" xlink:href="#mb3568cfc7f" y="228.14"/>
      </g>
     </g>
    </g>
    <g id="xtick_13">
     <g id="line2d_13">
      <g>
       <use style="stroke:#000000;stroke-width:0.6;" x="97.411086" xlink:href="#mb3568cfc7f" y="228.14"/>
      </g>
     </g>
    </g>
    <g id="xtick_14">
     <g id="line2d_14">
      <g>
       <use style="stroke:#000000;stroke-width:0.6;" x="103.593982" xlink:href="#mb3568cfc7f" y="228.14"/>
      </g>
     </g>
    </g>
    <g id="xtick_15">
     <g id="line2d_15">
      <g>
       <use style="stroke:#000000;stroke-width:0.6;" x="108.645775" xlink:href="#mb3568cfc7f" y="228.14"/>
      </g>
     </g>
    </g>
    <g id="xtick_16">
     <g id="line2d_16">
      <g>
       <use style="stroke:#000000;stroke-width:0.6;" x="112.917006" xlink:href="#mb3568cfc7f" y="228.14"/>
      </g>
     </g>
    </g>
    <g id="xtick_17">
     <g id="line2d_17">
      <g>
       <use style="stroke:#000000;stroke-width:0.6;" x="116.616914" xlink:href="#mb3568cfc7f" y="228.14"/>
      </g>
     </g>
    </g>
    <g id="xtick_18">
     <g id="line2d_18">
      <g>
       <use style="stroke:#000000;stroke-width:0.6;" x="119.880464" xlink:href="#mb3568cfc7f" y="228.14"/>
      </g>
     </g>
    </g>
    <g id="xtick_19">
     <g id="line2d_19">
      <g>
       <use style="stroke:#000000;stroke-width:0.6;" x="142.005636" xlink:href="#mb3568cfc7f" y="228.14"/>
      </g>
     </g>
    </g>
    <g id="xtick_20">
     <g id="line2d_20">
      <g>
       <use style="stroke:#000000;stroke-width:0.6;" x="153.240325" xlink:href="#mb3568cfc7f" y="228.14"/>
      </g>
     </g>
    </g>
    <g id="xtick_21">
     <g id="line2d_21">
      <g>
       <use style="stroke:#000000;stroke-width:0.6;" x="161.211464" xlink:href="#mb3568cfc7f" y="228.14"/>
      </g>
     </g>
    </g>
    <g id="xtick_22">
     <g id="line2d_22">
      <g>
       <use style="stroke:#000000;stroke-width:0.6;" x="167.394359" xlink:href="#mb3568cfc7f" y="228.14"/>
      </g>
     </g>
    </g>
    <g id="xtick_23">
     <g id="line2d_23">
      <g>
       <use style="stroke:#000000;stroke-width:0.6;" x="172.446153" xlink:href="#mb3568cfc7f" y="228.14"/>
      </g>
     </g>
    </g>
    <g id="xtick_24">
     <g id="line2d_24">
      <g>
       <use style="stroke:#000000;stroke-width:0.6;" x="176.717383" xlink:href="#mb3568cfc7f" y="228.14"/>
      </g>
     </g>
    </g>
    <g id="xtick_25">
     <g id="line2d_25">
      <g>
       <use style="stroke:#000000;stroke-width:0.6;" x="180.417291" xlink:href="#mb3568cfc7f" y="228.14"/>
      </g>
     </g>
    </g>
    <g id="xtick_26">
     <g id="line2d_26">
      <g>
       <use style="stroke:#000000;stroke-width:0.6;" x="183.680841" xlink:href="#mb3568cfc7f" y="228.14"/>
      </g>
     </g>
    </g>
    <g id="xtick_27">
     <g id="line2d_27">
      <g>
       <use style="stroke:#000000;stroke-width:0.6;" x="205.806014" xlink:href="#mb3568cfc7f" y="228.14"/>
      </g>
     </g>
    </g>
    <g id="xtick_28">
     <g id="line2d_28">
      <g>
       <use style="stroke:#000000;stroke-width:0.6;" x="217.040703" xlink:href="#mb3568cfc7f" y="228.14"/>
      </g>
     </g>
    </g>
    <g id="xtick_29">
     <g id="line2d_29">
      <g>
       <use style="stroke:#000000;stroke-width:0.6;" x="225.011841" xlink:href="#mb3568cfc7f" y="228.14"/>
      </g>
     </g>
    </g>
    <g id="xtick_30">
     <g id="line2d_30">
      <g>
       <use style="stroke:#000000;stroke-width:0.6;" x="231.194736" xlink:href="#mb3568cfc7f" y="228.14"/>
      </g>
     </g>
    </g>
    <g id="xtick_31">
     <g id="line2d_31">
      <g>
       <use style="stroke:#000000;stroke-width:0.6;" x="236.24653" xlink:href="#mb3568cfc7f" y="228.14"/>
      </g>
     </g>
    </g>
    <g id="xtick_32">
     <g id="line2d_32">
      <g>
       <use style="stroke:#000000;stroke-width:0.6;" x="240.51776" xlink:href="#mb3568cfc7f" y="228.14"/>
      </g>
     </g>
    </g>
    <g id="xtick_33">
     <g id="line2d_33">
      <g>
       <use style="stroke:#000000;stroke-width:0.6;" x="244.217668" xlink:href="#mb3568cfc7f" y="228.14"/>
      </g>
     </g>
    </g>
    <g id="xtick_34">
     <g id="line2d_34">
      <g>
       <use style="stroke:#000000;stroke-width:0.6;" x="247.481219" xlink:href="#mb3568cfc7f" y="228.14"/>
      </g>
     </g>
    </g>
    <g id="xtick_35">
     <g id="line2d_35">
      <g>
       <use style="stroke:#000000;stroke-width:0.6;" x="269.606391" xlink:href="#mb3568cfc7f" y="228.14"/>
      </g>
     </g>
    </g>
    <g id="xtick_36">
     <g id="line2d_36">
      <g>
       <use style="stroke:#000000;stroke-width:0.6;" x="280.84108" xlink:href="#mb3568cfc7f" y="228.14"/>
      </g>
     </g>
    </g>
    <g id="xtick_37">
     <g id="line2d_37">
      <g>
       <use style="stroke:#000000;stroke-width:0.6;" x="288.812218" xlink:href="#mb3568cfc7f" y="228.14"/>
      </g>
     </g>
    </g>
    <g id="xtick_38">
     <g id="line2d_38">
      <g>
       <use style="stroke:#000000;stroke-width:0.6;" x="294.995114" xlink:href="#mb3568cfc7f" y="228.14"/>
      </g>
     </g>
    </g>
    <g id="xtick_39">
     <g id="line2d_39">
      <g>
       <use style="stroke:#000000;stroke-width:0.6;" x="300.046907" xlink:href="#mb3568cfc7f" y="228.14"/>
      </g>
     </g>
    </g>
    <g id="xtick_40">
     <g id="line2d_40">
      <g>
       <use style="stroke:#000000;stroke-width:0.6;" x="304.318138" xlink:href="#mb3568cfc7f" y="228.14"/>
      </g>
     </g>
    </g>
    <g id="xtick_41">
     <g id="line2d_41">
      <g>
       <use style="stroke:#000000;stroke-width:0.6;" x="308.018046" xlink:href="#mb3568cfc7f" y="228.14"/>
      </g>
     </g>
    </g>
    <g id="xtick_42">
     <g id="line2d_42">
      <g>
       <use style="stroke:#000000;stroke-width:0.6;" x="311.281596" xlink:href="#mb3568cfc7f" y="228.14"/>
      </g>
     </g>
    </g>
    <g id="xtick_43">
     <g id="line2d_43">
      <g>
       <use style="stroke:#000000;stroke-width:0.6;" x="333.406768" xlink:href="#mb3568cfc7f" y="228.14"/>
      </g>
     </g>
    </g>
    <g id="xtick_44">
     <g id="line2d_44">
      <g>
       <use style="stroke:#000000;stroke-width:0.6;" x="344.641457" xlink:href="#mb3568cfc7f" y="228.14"/>
      </g>
     </g>
    </g>
    <g id="xtick_45">
     <g id="line2d_45">
      <g>
       <use style="stroke:#000000;stroke-width:0.6;" x="352.612596" xlink:href="#mb3568cfc7f" y="228.14"/>
      </g>
     </g>
    </g>
    <g id="xtick_46">
     <g id="line2d_46">
      <g>
       <use style="stroke:#000000;stroke-width:0.6;" x="358.795491" xlink:href="#mb3568cfc7f" y="228.14"/>
      </g>
     </g>
    </g>
    <g id="xtick_47">
     <g id="line2d_47">
      <g>
       <use style="stroke:#000000;stroke-width:0.6;" x="363.847284" xlink:href="#mb3568cfc7f" y="228.14"/>
      </g>
     </g>
    </g>
    <g id="xtick_48">
     <g id="line2d_48">
      <g>
       <use style="stroke:#000000;stroke-width:0.6;" x="368.118515" xlink:href="#mb3568cfc7f" y="228.14"/>
      </g>
     </g>
    </g>
    <g id="xtick_49">
     <g id="line2d_49">
      <g>
       <use style="stroke:#000000;stroke-width:0.6;" x="371.818423" xlink:href="#mb3568cfc7f" y="228.14"/>
      </g>
     </g>
    </g>
    <g id="xtick_50">
     <g id="line2d_50">
      <g>
       <use style="stroke:#000000;stroke-width:0.6;" x="375.081973" xlink:href="#mb3568cfc7f" y="228.14"/>
      </g>
     </g>
    </g>
    <g id="text_7">
     <!-- $t_p$ [s] -->
     <defs>
      <path d="M 42.28125 54.6875 
L 40.921875 47.703125 
L 23 47.703125 
L 17.1875 18.015625 
Q 16.890625 16.359375 16.75 15.234375 
Q 16.609375 14.109375 16.609375 13.484375 
Q 16.609375 10.359375 18.484375 8.9375 
Q 20.359375 7.515625 24.515625 7.515625 
L 33.59375 7.515625 
L 32.078125 0 
L 23.484375 0 
Q 15.484375 0 11.546875 3.125 
Q 7.625 6.25 7.625 12.59375 
Q 7.625 13.71875 7.765625 15.0625 
Q 7.90625 16.40625 8.203125 18.015625 
L 14.015625 47.703125 
L 6.390625 47.703125 
L 7.8125 54.6875 
L 15.28125 54.6875 
L 18.3125 70.21875 
L 27.296875 70.21875 
L 24.3125 54.6875 
z
" id="DejaVuSans-Oblique-74"/>
      <path d="M 49.609375 33.6875 
Q 49.609375 40.875 46.484375 44.671875 
Q 43.359375 48.484375 37.5 48.484375 
Q 33.5 48.484375 29.859375 46.4375 
Q 26.21875 44.390625 23.390625 40.484375 
Q 20.609375 36.625 18.9375 31.15625 
Q 17.28125 25.6875 17.28125 20.3125 
Q 17.28125 13.484375 20.40625 9.796875 
Q 23.53125 6.109375 29.296875 6.109375 
Q 33.546875 6.109375 37.1875 8.109375 
Q 40.828125 10.109375 43.40625 13.921875 
Q 46.1875 17.921875 47.890625 23.34375 
Q 49.609375 28.765625 49.609375 33.6875 
z
M 21.78125 46.390625 
Q 25.390625 51.125 30.296875 53.5625 
Q 35.203125 56 41.21875 56 
Q 49.609375 56 54.25 50.5 
Q 58.890625 45.015625 58.890625 35.109375 
Q 58.890625 27 56 19.65625 
Q 53.125 12.3125 47.703125 6.5 
Q 44.09375 2.640625 39.546875 0.609375 
Q 35.015625 -1.421875 29.984375 -1.421875 
Q 24.171875 -1.421875 20.21875 1 
Q 16.265625 3.421875 14.3125 8.203125 
L 8.6875 -20.796875 
L -0.296875 -20.796875 
L 14.40625 54.6875 
L 23.390625 54.6875 
z
" id="DejaVuSans-Oblique-70"/>
      <path id="DejaVuSans-20"/>
      <path d="M 8.59375 75.984375 
L 29.296875 75.984375 
L 29.296875 69 
L 17.578125 69 
L 17.578125 -6.203125 
L 29.296875 -6.203125 
L 29.296875 -13.1875 
L 8.59375 -13.1875 
z
" id="DejaVuSans-5b"/>
      <path d="M 44.28125 53.078125 
L 44.28125 44.578125 
Q 40.484375 46.53125 36.375 47.5 
Q 32.28125 48.484375 27.875 48.484375 
Q 21.1875 48.484375 17.84375 46.4375 
Q 14.5 44.390625 14.5 40.28125 
Q 14.5 37.15625 16.890625 35.375 
Q 19.28125 33.59375 26.515625 31.984375 
L 29.59375 31.296875 
Q 39.15625 29.25 43.1875 25.515625 
Q 47.21875 21.78125 47.21875 15.09375 
Q 47.21875 7.46875 41.1875 3.015625 
Q 35.15625 -1.421875 24.609375 -1.421875 
Q 20.21875 -1.421875 15.453125 -0.5625 
Q 10.6875 0.296875 5.421875 2 
L 5.421875 11.28125 
Q 10.40625 8.6875 15.234375 7.390625 
Q 20.0625 6.109375 24.8125 6.109375 
Q 31.15625 6.109375 34.5625 8.28125 
Q 37.984375 10.453125 37.984375 14.40625 
Q 37.984375 18.0625 35.515625 20.015625 
Q 33.0625 21.96875 24.703125 23.78125 
L 21.578125 24.515625 
Q 13.234375 26.265625 9.515625 29.90625 
Q 5.8125 33.546875 5.8125 39.890625 
Q 5.8125 47.609375 11.28125 51.796875 
Q 16.75 56 26.8125 56 
Q 31.78125 56 36.171875 55.265625 
Q 40.578125 54.546875 44.28125 53.078125 
z
" id="DejaVuSans-73"/>
      <path d="M 30.421875 75.984375 
L 30.421875 -13.1875 
L 9.71875 -13.1875 
L 9.71875 -6.203125 
L 21.390625 -6.203125 
L 21.390625 69 
L 9.71875 69 
L 9.71875 75.984375 
z
" id="DejaVuSans-5d"/>
     </defs>
     <g transform="translate(198.73125 256.418125)scale(0.1 -0.1)">
      <use transform="translate(0 0.015625)" xlink:href="#DejaVuSans-Oblique-74"/>
      <use transform="translate(39.208984 -16.390625)scale(0.7)" xlink:href="#DejaVuSans-Oblique-70"/>
      <use transform="translate(86.376953 0.015625)" xlink:href="#DejaVuSans-20"/>
      <use transform="translate(118.164062 0.015625)" xlink:href="#DejaVuSans-5b"/>
      <use transform="translate(157.177734 0.015625)" xlink:href="#DejaVuSans-73"/>
      <use transform="translate(209.277344 0.015625)" xlink:href="#DejaVuSans-5d"/>
     </g>
    </g>
   </g>
   <g id="matplotlib.axis_2">
    <g id="ytick_1">
     <g id="line2d_51">
      <defs>
       <path d="M 0 0 
L -3.5 0 
" id="m90c2708fd3" style="stroke:#000000;stroke-width:0.8;"/>
      </defs>
      <g>
       <use style="stroke:#000000;stroke-width:0.8;" x="43.78125" xlink:href="#m90c2708fd3" y="214.147767"/>
      </g>
     </g>
     <g id="text_8">
      <!-- 0.0 -->
      <defs>
       <path d="M 10.6875 12.40625 
L 21 12.40625 
L 21 0 
L 10.6875 0 
z
" id="DejaVuSans-2e"/>
      </defs>
      <g transform="translate(20.878125 217.946986)scale(0.1 -0.1)">
       <use xlink:href="#DejaVuSans-30"/>
       <use x="63.623047" xlink:href="#DejaVuSans-2e"/>
       <use x="95.410156" xlink:href="#DejaVuSans-30"/>
      </g>
     </g>
    </g>
    <g id="ytick_2">
     <g id="line2d_52">
      <g>
       <use style="stroke:#000000;stroke-width:0.8;" x="43.78125" xlink:href="#m90c2708fd3" y="175.380857"/>
      </g>
     </g>
     <g id="text_9">
      <!-- 0.2 -->
      <g transform="translate(20.878125 179.180075)scale(0.1 -0.1)">
       <use xlink:href="#DejaVuSans-30"/>
       <use x="63.623047" xlink:href="#DejaVuSans-2e"/>
       <use x="95.410156" xlink:href="#DejaVuSans-32"/>
      </g>
     </g>
    </g>
    <g id="ytick_3">
     <g id="line2d_53">
      <g>
       <use style="stroke:#000000;stroke-width:0.8;" x="43.78125" xlink:href="#m90c2708fd3" y="136.613946"/>
      </g>
     </g>
     <g id="text_10">
      <!-- 0.4 -->
      <g transform="translate(20.878125 140.413165)scale(0.1 -0.1)">
       <use xlink:href="#DejaVuSans-30"/>
       <use x="63.623047" xlink:href="#DejaVuSans-2e"/>
       <use x="95.410156" xlink:href="#DejaVuSans-34"/>
      </g>
     </g>
    </g>
    <g id="ytick_4">
     <g id="line2d_54">
      <g>
       <use style="stroke:#000000;stroke-width:0.8;" x="43.78125" xlink:href="#m90c2708fd3" y="97.847036"/>
      </g>
     </g>
     <g id="text_11">
      <!-- 0.6 -->
      <g transform="translate(20.878125 101.646254)scale(0.1 -0.1)">
       <use xlink:href="#DejaVuSans-30"/>
       <use x="63.623047" xlink:href="#DejaVuSans-2e"/>
       <use x="95.410156" xlink:href="#DejaVuSans-36"/>
      </g>
     </g>
    </g>
    <g id="ytick_5">
     <g id="line2d_55">
      <g>
       <use style="stroke:#000000;stroke-width:0.8;" x="43.78125" xlink:href="#m90c2708fd3" y="59.080125"/>
      </g>
     </g>
     <g id="text_12">
      <!-- 0.8 -->
      <defs>
       <path d="M 31.78125 34.625 
Q 24.75 34.625 20.71875 30.859375 
Q 16.703125 27.09375 16.703125 20.515625 
Q 16.703125 13.921875 20.71875 10.15625 
Q 24.75 6.390625 31.78125 6.390625 
Q 38.8125 6.390625 42.859375 10.171875 
Q 46.921875 13.96875 46.921875 20.515625 
Q 46.921875 27.09375 42.890625 30.859375 
Q 38.875 34.625 31.78125 34.625 
z
M 21.921875 38.8125 
Q 15.578125 40.375 12.03125 44.71875 
Q 8.5 49.078125 8.5 55.328125 
Q 8.5 64.0625 14.71875 69.140625 
Q 20.953125 74.21875 31.78125 74.21875 
Q 42.671875 74.21875 48.875 69.140625 
Q 55.078125 64.0625 55.078125 55.328125 
Q 55.078125 49.078125 51.53125 44.71875 
Q 48 40.375 41.703125 38.8125 
Q 48.828125 37.15625 52.796875 32.3125 
Q 56.78125 27.484375 56.78125 20.515625 
Q 56.78125 9.90625 50.3125 4.234375 
Q 43.84375 -1.421875 31.78125 -1.421875 
Q 19.734375 -1.421875 13.25 4.234375 
Q 6.78125 9.90625 6.78125 20.515625 
Q 6.78125 27.484375 10.78125 32.3125 
Q 14.796875 37.15625 21.921875 38.8125 
z
M 18.3125 54.390625 
Q 18.3125 48.734375 21.84375 45.5625 
Q 25.390625 42.390625 31.78125 42.390625 
Q 38.140625 42.390625 41.71875 45.5625 
Q 45.3125 48.734375 45.3125 54.390625 
Q 45.3125 60.0625 41.71875 63.234375 
Q 38.140625 66.40625 31.78125 66.40625 
Q 25.390625 66.40625 21.84375 63.234375 
Q 18.3125 60.0625 18.3125 54.390625 
z
" id="DejaVuSans-38"/>
      </defs>
      <g transform="translate(20.878125 62.879344)scale(0.1 -0.1)">
       <use xlink:href="#DejaVuSans-30"/>
       <use x="63.623047" xlink:href="#DejaVuSans-2e"/>
       <use x="95.410156" xlink:href="#DejaVuSans-38"/>
      </g>
     </g>
    </g>
    <g id="ytick_6">
     <g id="line2d_56">
      <g>
       <use style="stroke:#000000;stroke-width:0.8;" x="43.78125" xlink:href="#m90c2708fd3" y="20.313215"/>
      </g>
     </g>
     <g id="text_13">
      <!-- 1.0 -->
      <g transform="translate(20.878125 24.112433)scale(0.1 -0.1)">
       <use xlink:href="#DejaVuSans-31"/>
       <use x="63.623047" xlink:href="#DejaVuSans-2e"/>
       <use x="95.410156" xlink:href="#DejaVuSans-30"/>
      </g>
     </g>
    </g>
    <g id="text_14">
     <!-- Magnetisierung (normiert) -->
     <defs>
      <path d="M 9.8125 72.90625 
L 24.515625 72.90625 
L 43.109375 23.296875 
L 61.8125 72.90625 
L 76.515625 72.90625 
L 76.515625 0 
L 66.890625 0 
L 66.890625 64.015625 
L 48.09375 14.015625 
L 38.1875 14.015625 
L 19.390625 64.015625 
L 19.390625 0 
L 9.8125 0 
z
" id="DejaVuSans-4d"/>
      <path d="M 34.28125 27.484375 
Q 23.390625 27.484375 19.1875 25 
Q 14.984375 22.515625 14.984375 16.5 
Q 14.984375 11.71875 18.140625 8.90625 
Q 21.296875 6.109375 26.703125 6.109375 
Q 34.1875 6.109375 38.703125 11.40625 
Q 43.21875 16.703125 43.21875 25.484375 
L 43.21875 27.484375 
z
M 52.203125 31.203125 
L 52.203125 0 
L 43.21875 0 
L 43.21875 8.296875 
Q 40.140625 3.328125 35.546875 0.953125 
Q 30.953125 -1.421875 24.3125 -1.421875 
Q 15.921875 -1.421875 10.953125 3.296875 
Q 6 8.015625 6 15.921875 
Q 6 25.140625 12.171875 29.828125 
Q 18.359375 34.515625 30.609375 34.515625 
L 43.21875 34.515625 
L 43.21875 35.40625 
Q 43.21875 41.609375 39.140625 45 
Q 35.0625 48.390625 27.6875 48.390625 
Q 23 48.390625 18.546875 47.265625 
Q 14.109375 46.140625 10.015625 43.890625 
L 10.015625 52.203125 
Q 14.9375 54.109375 19.578125 55.046875 
Q 24.21875 56 28.609375 56 
Q 40.484375 56 46.34375 49.84375 
Q 52.203125 43.703125 52.203125 31.203125 
z
" id="DejaVuSans-61"/>
      <path d="M 45.40625 27.984375 
Q 45.40625 37.75 41.375 43.109375 
Q 37.359375 48.484375 30.078125 48.484375 
Q 22.859375 48.484375 18.828125 43.109375 
Q 14.796875 37.75 14.796875 27.984375 
Q 14.796875 18.265625 18.828125 12.890625 
Q 22.859375 7.515625 30.078125 7.515625 
Q 37.359375 7.515625 41.375 12.890625 
Q 45.40625 18.265625 45.40625 27.984375 
z
M 54.390625 6.78125 
Q 54.390625 -7.171875 48.1875 -13.984375 
Q 42 -20.796875 29.203125 -20.796875 
Q 24.46875 -20.796875 20.265625 -20.09375 
Q 16.0625 -19.390625 12.109375 -17.921875 
L 12.109375 -9.1875 
Q 16.0625 -11.328125 19.921875 -12.34375 
Q 23.78125 -13.375 27.78125 -13.375 
Q 36.625 -13.375 41.015625 -8.765625 
Q 45.40625 -4.15625 45.40625 5.171875 
L 45.40625 9.625 
Q 42.625 4.78125 38.28125 2.390625 
Q 33.9375 0 27.875 0 
Q 17.828125 0 11.671875 7.65625 
Q 5.515625 15.328125 5.515625 27.984375 
Q 5.515625 40.671875 11.671875 48.328125 
Q 17.828125 56 27.875 56 
Q 33.9375 56 38.28125 53.609375 
Q 42.625 51.21875 45.40625 46.390625 
L 45.40625 54.6875 
L 54.390625 54.6875 
z
" id="DejaVuSans-67"/>
      <path d="M 54.890625 33.015625 
L 54.890625 0 
L 45.90625 0 
L 45.90625 32.71875 
Q 45.90625 40.484375 42.875 44.328125 
Q 39.84375 48.1875 33.796875 48.1875 
Q 26.515625 48.1875 22.3125 43.546875 
Q 18.109375 38.921875 18.109375 30.90625 
L 18.109375 0 
L 9.078125 0 
L 9.078125 54.6875 
L 18.109375 54.6875 
L 18.109375 46.1875 
Q 21.34375 51.125 25.703125 53.5625 
Q 30.078125 56 35.796875 56 
Q 45.21875 56 50.046875 50.171875 
Q 54.890625 44.34375 54.890625 33.015625 
z
" id="DejaVuSans-6e"/>
      <path d="M 56.203125 29.59375 
L 56.203125 25.203125 
L 14.890625 25.203125 
Q 15.484375 15.921875 20.484375 11.0625 
Q 25.484375 6.203125 34.421875 6.203125 
Q 39.59375 6.203125 44.453125 7.46875 
Q 49.3125 8.734375 54.109375 11.28125 
L 54.109375 2.78125 
Q 49.265625 0.734375 44.1875 -0.34375 
Q 39.109375 -1.421875 33.890625 -1.421875 
Q 20.796875 -1.421875 13.15625 6.1875 
Q 5.515625 13.8125 5.515625 26.8125 
Q 5.515625 40.234375 12.765625 48.109375 
Q 20.015625 56 32.328125 56 
Q 43.359375 56 49.78125 48.890625 
Q 56.203125 41.796875 56.203125 29.59375 
z
M 47.21875 32.234375 
Q 47.125 39.59375 43.09375 43.984375 
Q 39.0625 48.390625 32.421875 48.390625 
Q 24.90625 48.390625 20.390625 44.140625 
Q 15.875 39.890625 15.1875 32.171875 
z
" id="DejaVuSans-65"/>
      <path d="M 18.3125 70.21875 
L 18.3125 54.6875 
L 36.8125 54.6875 
L 36.8125 47.703125 
L 18.3125 47.703125 
L 18.3125 18.015625 
Q 18.3125 11.328125 20.140625 9.421875 
Q 21.96875 7.515625 27.59375 7.515625 
L 36.8125 7.515625 
L 36.8125 0 
L 27.59375 0 
Q 17.1875 0 13.234375 3.875 
Q 9.28125 7.765625 9.28125 18.015625 
L 9.28125 47.703125 
L 2.6875 47.703125 
L 2.6875 54.6875 
L 9.28125 54.6875 
L 9.28125 70.21875 
z
" id="DejaVuSans-74"/>
      <path d="M 9.421875 54.6875 
L 18.40625 54.6875 
L 18.40625 0 
L 9.421875 0 
z
M 9.421875 75.984375 
L 18.40625 75.984375 
L 18.40625 64.59375 
L 9.421875 64.59375 
z
" id="DejaVuSans-69"/>
      <path d="M 41.109375 46.296875 
Q 39.59375 47.171875 37.8125 47.578125 
Q 36.03125 48 33.890625 48 
Q 26.265625 48 22.1875 43.046875 
Q 18.109375 38.09375 18.109375 28.8125 
L 18.109375 0 
L 9.078125 0 
L 9.078125 54.6875 
L 18.109375 54.6875 
L 18.109375 46.1875 
Q 20.953125 51.171875 25.484375 53.578125 
Q 30.03125 56 36.53125 56 
Q 37.453125 56 38.578125 55.875 
Q 39.703125 55.765625 41.0625 55.515625 
z
" id="DejaVuSans-72"/>
      <path d="M 8.5 21.578125 
L 8.5 54.6875 
L 17.484375 54.6875 
L 17.484375 21.921875 
Q 17.484375 14.15625 20.5 10.265625 
Q 23.53125 6.390625 29.59375 6.390625 
Q 36.859375 6.390625 41.078125 11.03125 
Q 45.3125 15.671875 45.3125 23.6875 
L 45.3125 54.6875 
L 54.296875 54.6875 
L 54.296875 0 
L 45.3125 0 
L 45.3125 8.40625 
Q 42.046875 3.421875 37.71875 1 
Q 33.40625 -1.421875 27.6875 -1.421875 
Q 18.265625 -1.421875 13.375 4.4375 
Q 8.5 10.296875 8.5 21.578125 
z
M 31.109375 56 
z
" id="DejaVuSans-75"/>
      <path d="M 31 75.875 
Q 24.46875 64.65625 21.28125 53.65625 
Q 18.109375 42.671875 18.109375 31.390625 
Q 18.109375 20.125 21.3125 9.0625 
Q 24.515625 -2 31 -13.1875 
L 23.1875 -13.1875 
Q 15.875 -1.703125 12.234375 9.375 
Q 8.59375 20.453125 8.59375 31.390625 
Q 8.59375 42.28125 12.203125 53.3125 
Q 15.828125 64.359375 23.1875 75.875 
z
" id="DejaVuSans-28"/>
      <path d="M 30.609375 48.390625 
Q 23.390625 48.390625 19.1875 42.75 
Q 14.984375 37.109375 14.984375 27.296875 
Q 14.984375 17.484375 19.15625 11.84375 
Q 23.34375 6.203125 30.609375 6.203125 
Q 37.796875 6.203125 41.984375 11.859375 
Q 46.1875 17.53125 46.1875 27.296875 
Q 46.1875 37.015625 41.984375 42.703125 
Q 37.796875 48.390625 30.609375 48.390625 
z
M 30.609375 56 
Q 42.328125 56 49.015625 48.375 
Q 55.71875 40.765625 55.71875 27.296875 
Q 55.71875 13.875 49.015625 6.21875 
Q 42.328125 -1.421875 30.609375 -1.421875 
Q 18.84375 -1.421875 12.171875 6.21875 
Q 5.515625 13.875 5.515625 27.296875 
Q 5.515625 40.765625 12.171875 48.375 
Q 18.84375 56 30.609375 56 
z
" id="DejaVuSans-6f"/>
      <path d="M 52 44.1875 
Q 55.375 50.25 60.0625 53.125 
Q 64.75 56 71.09375 56 
Q 79.640625 56 84.28125 50.015625 
Q 88.921875 44.046875 88.921875 33.015625 
L 88.921875 0 
L 79.890625 0 
L 79.890625 32.71875 
Q 79.890625 40.578125 77.09375 44.375 
Q 74.3125 48.1875 68.609375 48.1875 
Q 61.625 48.1875 57.5625 43.546875 
Q 53.515625 38.921875 53.515625 30.90625 
L 53.515625 0 
L 44.484375 0 
L 44.484375 32.71875 
Q 44.484375 40.625 41.703125 44.40625 
Q 38.921875 48.1875 33.109375 48.1875 
Q 26.21875 48.1875 22.15625 43.53125 
Q 18.109375 38.875 18.109375 30.90625 
L 18.109375 0 
L 9.078125 0 
L 9.078125 54.6875 
L 18.109375 54.6875 
L 18.109375 46.1875 
Q 21.1875 51.21875 25.484375 53.609375 
Q 29.78125 56 35.6875 56 
Q 41.65625 56 45.828125 52.96875 
Q 50 49.953125 52 44.1875 
z
" id="DejaVuSans-6d"/>
      <path d="M 8.015625 75.875 
L 15.828125 75.875 
Q 23.140625 64.359375 26.78125 53.3125 
Q 30.421875 42.28125 30.421875 31.390625 
Q 30.421875 20.453125 26.78125 9.375 
Q 23.140625 -1.703125 15.828125 -13.1875 
L 8.015625 -13.1875 
Q 14.5 -2 17.703125 9.0625 
Q 20.90625 20.125 20.90625 31.390625 
Q 20.90625 42.671875 17.703125 53.65625 
Q 14.5 64.65625 8.015625 75.875 
z
" id="DejaVuSans-29"/>
     </defs>
     <g transform="translate(14.798438 185.329375)rotate(-90)scale(0.1 -0.1)">
      <use xlink:href="#DejaVuSans-4d"/>
      <use x="86.279297" xlink:href="#DejaVuSans-61"/>
      <use x="147.558594" xlink:href="#DejaVuSans-67"/>
      <use x="211.035156" xlink:href="#DejaVuSans-6e"/>
      <use x="274.414062" xlink:href="#DejaVuSans-65"/>
      <use x="335.9375" xlink:href="#DejaVuSans-74"/>
      <use x="375.146484" xlink:href="#DejaVuSans-69"/>
      <use x="402.929688" xlink:href="#DejaVuSans-73"/>
      <use x="455.029297" xlink:href="#DejaVuSans-69"/>
      <use x="482.8125" xlink:href="#DejaVuSans-65"/>
      <use x="544.335938" xlink:href="#DejaVuSans-72"/>
      <use x="585.449219" xlink:href="#DejaVuSans-75"/>
      <use x="648.828125" xlink:href="#DejaVuSans-6e"/>
      <use x="712.207031" xlink:href="#DejaVuSans-67"/>
      <use x="775.683594" xlink:href="#DejaVuSans-20"/>
      <use x="807.470703" xlink:href="#DejaVuSans-28"/>
      <use x="846.484375" xlink:href="#DejaVuSans-6e"/>
      <use x="909.863281" xlink:href="#DejaVuSans-6f"/>
      <use x="971.044922" xlink:href="#DejaVuSans-72"/>
      <use x="1012.142578" xlink:href="#DejaVuSans-6d"/>
      <use x="1109.554688" xlink:href="#DejaVuSans-69"/>
      <use x="1137.337891" xlink:href="#DejaVuSans-65"/>
      <use x="1198.861328" xlink:href="#DejaVuSans-72"/>
      <use x="1239.974609" xlink:href="#DejaVuSans-74"/>
      <use x="1279.183594" xlink:href="#DejaVuSans-29"/>
     </g>
    </g>
   </g>
   <g id="line2d_57">
    <path clip-path="url(#pa62fad195d)" d="M 58.999432 20.583636 
L 62.027675 20.614358 
L 65.055918 20.648566 
L 68.084161 20.686656 
L 71.112404 20.729068 
L 74.140647 20.776291 
L 77.16889 20.82887 
L 80.197133 20.887409 
L 83.225376 20.952583 
L 86.253619 21.025141 
L 89.281862 21.105916 
L 92.310105 21.195836 
L 95.338348 21.295929 
L 98.366591 21.40734 
L 101.394834 21.531343 
L 104.423077 21.66935 
L 107.45132 21.822931 
L 110.479563 21.993829 
L 113.507806 22.183978 
L 116.536049 22.395524 
L 119.564292 22.630848 
L 122.592535 22.892585 
L 125.620778 23.18366 
L 128.649021 23.507306 
L 131.677264 23.867103 
L 134.705507 24.267008 
L 137.73375 24.711389 
L 140.761993 25.20507 
L 143.790236 25.753364 
L 146.818479 26.362123 
L 149.846722 27.037779 
L 152.874966 27.78739 
L 155.903209 28.618694 
L 158.931452 29.540147 
L 161.959695 30.560977 
L 164.987938 31.691225 
L 168.016181 32.941787 
L 171.044424 34.324442 
L 174.072667 35.851882 
L 177.10091 37.537715 
L 180.129153 39.396461 
L 183.157396 41.443517 
L 186.185639 43.695098 
L 189.213882 46.168135 
L 192.242125 48.88013 
L 195.270368 51.848957 
L 198.298611 55.092591 
L 201.326854 58.62876 
L 204.355097 62.474513 
L 207.38334 66.645673 
L 210.411583 71.156192 
L 213.439826 76.017371 
L 216.468069 81.236971 
L 219.496312 86.818191 
L 222.524555 92.758548 
L 225.552798 99.048672 
L 228.581041 105.671069 
L 231.609284 112.598903 
L 234.637527 119.794904 
L 237.66577 127.210492 
L 240.694013 134.785277 
L 243.722256 142.447073 
L 246.750499 150.112608 
L 249.778742 157.689083 
L 252.806985 165.076711 
L 255.835228 172.172299 
L 258.863471 178.873832 
L 261.891714 185.085885 
L 264.919957 190.725521 
L 267.9482 195.728138 
L 270.976443 200.05262 
L 274.004686 203.685015 
L 277.032929 206.640053 
L 280.061172 208.959981 
L 283.089415 210.71056 
L 286.117659 211.974547 
L 289.145902 212.843504 
L 292.174145 213.409154 
L 295.202388 213.755672 
L 298.230631 213.954081 
L 301.258874 214.059463 
L 304.287117 214.110947 
L 307.31536 214.133868 
L 310.343603 214.14307 
L 313.371846 214.146364 
L 316.400089 214.147402 
L 319.428332 214.147685 
L 322.456575 214.147752 
L 325.484818 214.147765 
L 328.513061 214.147767 
L 331.541304 214.147767 
L 334.569547 214.147767 
L 337.59779 214.147767 
L 340.626033 214.147767 
L 343.654276 214.147767 
L 346.682519 214.147767 
L 349.710762 214.147767 
L 352.739005 214.147767 
L 355.767248 214.147767 
L 358.795491 214.147767 
" style="fill:none;stroke:#1f77b4;stroke-linecap:square;stroke-width:1.5;"/>
   </g>
   <g id="line2d_58">
    <path clip-path="url(#pa62fad195d)" d="M 58.999432 20.591963 
L 62.027675 20.623603 
L 65.055918 20.658831 
L 68.084161 20.698054 
L 71.112404 20.741722 
L 74.140647 20.79034 
L 77.16889 20.844467 
L 80.197133 20.904724 
L 83.225376 20.971804 
L 86.253619 21.046477 
L 89.281862 21.129599 
L 92.310105 21.222121 
L 95.338348 21.325101 
L 98.366591 21.439716 
L 101.394834 21.567269 
L 104.423077 21.709214 
L 107.45132 21.86716 
L 110.479563 22.042896 
L 113.507806 22.238406 
L 116.536049 22.455891 
L 119.564292 22.697793 
L 122.592535 22.966815 
L 125.620778 23.265953 
L 128.649021 23.598521 
L 131.677264 23.968187 
L 134.705507 24.379002 
L 137.73375 24.835441 
L 140.761993 25.342438 
L 143.790236 25.905432 
L 146.818479 26.530406 
L 149.846722 27.223935 
L 152.874966 27.99323 
L 155.903209 28.846191 
L 158.931452 29.791448 
L 161.959695 30.838411 
L 164.987938 31.997312 
L 168.016181 33.279241 
L 171.044424 34.696181 
L 174.072667 36.261024 
L 177.10091 37.987577 
L 180.129153 39.890549 
L 183.157396 41.985513 
L 186.185639 44.288835 
L 189.213882 46.817564 
L 192.242125 49.589273 
L 195.270368 52.621848 
L 198.298611 55.933195 
L 201.326854 59.540879 
L 204.355097 63.461661 
L 207.38334 67.710937 
L 210.411583 72.302056 
L 213.439826 77.245524 
L 216.468069 82.548078 
L 219.496312 88.211648 
L 222.524555 94.232219 
L 225.552798 100.598612 
L 228.581041 107.291256 
L 231.609284 114.280994 
L 234.637527 121.528034 
L 237.66577 128.981154 
L 240.694013 136.577306 
L 243.722256 144.241786 
L 246.750499 151.889118 
L 249.778742 159.424831 
L 252.806985 166.748226 
L 255.835228 173.756183 
L 258.863471 180.347943 
L 261.891714 186.430643 
L 264.919957 191.925235 
L 267.9482 196.772215 
L 270.976443 200.936479 
L 274.004686 204.410564 
L 277.032929 207.21558 
L 280.061172 209.399411 
L 283.089415 211.032115 
L 286.117659 212.198969 
L 289.145902 212.992093 
L 292.174145 213.501927 
L 295.202388 213.80993 
L 298.230631 213.983587 
L 301.258874 214.074259 
L 304.287117 214.117727 
L 307.31536 214.136677 
L 310.343603 214.144111 
L 313.371846 214.146705 
L 316.400089 214.147499 
L 319.428332 214.147709 
L 322.456575 214.147757 
L 325.484818 214.147766 
L 328.513061 214.147767 
L 331.541304 214.147767 
L 334.569547 214.147767 
L 337.59779 214.147767 
L 340.626033 214.147767 
L 343.654276 214.147767 
L 346.682519 214.147767 
L 349.710762 214.147767 
L 352.739005 214.147767 
L 355.767248 214.147767 
L 358.795491 214.147767 
" style="fill:none;stroke:#ff7f0e;stroke-linecap:square;stroke-width:1.5;"/>
   </g>
   <g id="line2d_59">
    <path clip-path="url(#pa62fad195d)" d="M 58.999432 20.591241 
L 62.027675 20.623104 
L 65.055918 20.658615 
L 68.084161 20.698191 
L 71.112404 20.742297 
L 74.140647 20.79145 
L 77.16889 20.846226 
L 80.197133 20.907266 
L 83.225376 20.975285 
L 86.253619 21.051076 
L 89.281862 21.135526 
L 92.310105 21.229618 
L 95.338348 21.334447 
L 98.366591 21.451233 
L 101.394834 21.581331 
L 104.423077 21.726246 
L 107.45132 21.887654 
L 110.479563 22.067415 
L 113.507806 22.267596 
L 116.536049 22.490491 
L 119.564292 22.738645 
L 122.592535 23.014883 
L 125.620778 23.322334 
L 128.649021 23.664466 
L 131.677264 24.045115 
L 134.705507 24.468527 
L 137.73375 24.93939 
L 140.761993 25.462882 
L 143.790236 26.044708 
L 146.818479 26.691154 
L 149.846722 27.409125 
L 152.874966 28.206203 
L 155.903209 29.090693 
L 158.931452 30.071672 
L 161.959695 31.159037 
L 164.987938 32.363548 
L 168.016181 33.696868 
L 171.044424 35.171591 
L 174.072667 36.801257 
L 177.10091 38.600355 
L 180.129153 40.584298 
L 183.157396 42.769374 
L 186.185639 45.172661 
L 189.213882 47.811893 
L 192.242125 50.705276 
L 195.270368 53.871236 
L 198.298611 57.328089 
L 201.326854 61.093625 
L 204.355097 65.184579 
L 207.38334 69.616001 
L 210.411583 74.400489 
L 213.439826 79.547299 
L 216.468069 85.061328 
L 219.496312 90.941976 
L 222.524555 97.181911 
L 225.552798 103.765786 
L 228.581041 110.668956 
L 231.609284 117.85629 
L 234.637527 125.281183 
L 237.66577 132.884913 
L 240.694013 140.5965 
L 243.722256 148.333246 
L 246.750499 156.002129 
L 249.778742 163.502202 
L 252.806985 170.72807 
L 255.835228 177.574459 
L 258.863471 183.94169 
L 261.891714 189.741762 
L 264.919957 194.904511 
L 267.9482 199.383163 
L 270.976443 203.158504 
L 274.004686 206.240884 
L 277.032929 208.669478 
L 280.061172 210.508561 
L 283.089415 211.841051 
L 286.117659 212.760147 
L 289.145902 213.360303 
L 292.174145 213.729001 
L 295.202388 213.940631 
L 298.230631 214.053257 
L 301.258874 214.108357 
L 304.287117 214.132902 
L 307.31536 214.142753 
L 310.343603 214.146274 
L 313.371846 214.14738 
L 316.400089 214.147681 
L 319.428332 214.147751 
L 322.456575 214.147765 
L 325.484818 214.147767 
L 328.513061 214.147767 
L 331.541304 214.147767 
L 334.569547 214.147767 
L 337.59779 214.147767 
L 340.626033 214.147767 
L 343.654276 214.147767 
L 346.682519 214.147767 
L 349.710762 214.147767 
L 352.739005 214.147767 
L 355.767248 214.147767 
L 358.795491 214.147767 
" style="fill:none;stroke:#2ca02c;stroke-linecap:square;stroke-width:1.5;"/>
   </g>
   <g id="line2d_60">
    <path clip-path="url(#pa62fad195d)" d="M 58.999432 20.69725 
L 62.027675 20.739581 
L 65.055918 20.786572 
L 68.084161 20.838736 
L 71.112404 20.896639 
L 74.140647 20.960911 
L 77.16889 21.032251 
L 80.197133 21.111432 
L 83.225376 21.199312 
L 86.253619 21.296843 
L 89.281862 21.405079 
L 92.310105 21.525187 
L 95.338348 21.658461 
L 98.366591 21.806334 
L 101.394834 21.970391 
L 104.423077 22.152388 
L 107.45132 22.354266 
L 110.479563 22.578173 
L 113.507806 22.82648 
L 116.536049 23.101812 
L 119.564292 23.407061 
L 122.592535 23.745423 
L 125.620778 24.120419 
L 128.649021 24.53593 
L 131.677264 24.996228 
L 134.705507 25.50601 
L 137.73375 26.070437 
L 140.761993 26.695168 
L 143.790236 27.386407 
L 146.818479 28.150937 
L 149.846722 28.996165 
L 152.874966 29.930164 
L 155.903209 30.961709 
L 158.931452 32.100318 
L 161.959695 33.35628 
L 164.987938 34.740687 
L 168.016181 36.265444 
L 171.044424 37.943278 
L 174.072667 39.787724 
L 177.10091 41.81309 
L 180.129153 44.034399 
L 183.157396 46.467298 
L 186.185639 49.127919 
L 189.213882 52.032704 
L 192.242125 55.19816 
L 195.270368 58.640555 
L 198.298611 62.375537 
L 201.326854 66.417661 
L 204.355097 70.779824 
L 207.38334 75.4726 
L 210.411583 80.503469 
L 213.439826 85.875943 
L 216.468069 91.588604 
L 219.496312 97.634065 
L 222.524555 103.997895 
L 225.552798 110.65756 
L 228.581041 117.581431 
L 231.609284 124.727968 
L 234.637527 132.045177 
L 237.66577 139.47046 
L 240.694013 146.931005 
L 243.722256 154.344848 
L 246.750499 161.622724 
L 249.778742 168.670784 
L 252.806985 175.394186 
L 255.835228 181.701477 
L 258.863471 187.509546 
L 261.891714 192.748793 
L 264.919957 197.368029 
L 267.9482 201.338516 
L 270.976443 204.656533 
L 274.004686 207.343926 
L 277.032929 209.446308 
L 280.061172 211.028893 
L 283.089415 212.170364 
L 286.117659 212.955553 
L 289.145902 213.467992 
L 292.174145 213.783473 
L 295.202388 213.965527 
L 298.230631 214.063309 
L 301.258874 214.11181 
L 304.287117 214.133835 
L 307.31536 214.142905 
L 310.343603 214.146257 
L 313.371846 214.147355 
L 316.400089 214.147669 
L 319.428332 214.147747 
L 322.456575 214.147764 
L 325.484818 214.147767 
L 328.513061 214.147767 
L 331.541304 214.147767 
L 334.569547 214.147767 
L 337.59779 214.147767 
L 340.626033 214.147767 
L 343.654276 214.147767 
L 346.682519 214.147767 
L 349.710762 214.147767 
L 352.739005 214.147767 
L 355.767248 214.147767 
L 358.795491 214.147767 
" style="fill:none;stroke:#d62728;stroke-linecap:square;stroke-width:1.5;"/>
   </g>
   <g id="line2d_61">
    <path clip-path="url(#pa62fad195d)" d="M 58.999432 20.719275 
L 62.027675 20.765067 
L 65.055918 20.816017 
L 68.084161 20.872703 
L 71.112404 20.935769 
L 74.140647 21.005932 
L 77.16889 21.083986 
L 80.197133 21.170816 
L 83.225376 21.267403 
L 86.253619 21.374839 
L 89.281862 21.494334 
L 92.310105 21.627233 
L 95.338348 21.775029 
L 98.366591 21.939379 
L 101.394834 22.122118 
L 104.423077 22.325286 
L 107.45132 22.551139 
L 110.479563 22.80218 
L 113.507806 23.081176 
L 116.536049 23.391194 
L 119.564292 23.735623 
L 122.592535 24.118208 
L 125.620778 24.543084 
L 128.649021 25.014813 
L 131.677264 25.538422 
L 134.705507 26.119444 
L 137.73375 26.763962 
L 140.761993 27.47865 
L 143.790236 28.270824 
L 146.818479 29.148486 
L 149.846722 30.120367 
L 152.874966 31.195975 
L 155.903209 32.385633 
L 158.931452 33.700514 
L 161.959695 35.152669 
L 164.987938 36.755041 
L 168.016181 38.521466 
L 171.044424 40.466654 
L 174.072667 42.606141 
L 177.10091 44.95621 
L 180.129153 47.533776 
L 183.157396 50.356216 
L 186.185639 53.44114 
L 189.213882 56.806098 
L 192.242125 60.468198 
L 195.270368 64.443636 
L 198.298611 68.747122 
L 201.326854 73.391195 
L 204.355097 78.385412 
L 207.38334 83.735433 
L 210.411583 89.441982 
L 213.439826 95.49972 
L 216.468069 101.896064 
L 219.496312 108.609984 
L 222.524555 115.61087 
L 225.552798 122.857546 
L 228.581041 130.297566 
L 231.609284 137.866911 
L 234.637527 145.490269 
L 237.66577 153.082032 
L 240.694013 160.54817 
L 243.722256 167.789087 
L 246.750499 174.703467 
L 249.778742 181.193046 
L 252.806985 187.168071 
L 255.835228 192.553058 
L 258.863471 197.292288 
L 261.891714 201.354375 
L 264.919957 204.735167 
L 267.9482 207.458383 
L 270.976443 209.573553 
L 274.004686 211.151297 
L 277.032929 212.276386 
L 280.061172 213.039532 
L 283.089415 213.529163 
L 286.117659 213.824468 
L 289.145902 213.990739 
L 292.174145 214.077469 
L 295.202388 214.119026 
L 298.230631 214.137145 
L 301.258874 214.144259 
L 304.287117 214.146745 
L 307.31536 214.147508 
L 310.343603 214.147711 
L 313.371846 214.147757 
L 316.400089 214.147766 
L 319.428332 214.147767 
L 322.456575 214.147767 
L 325.484818 214.147767 
L 328.513061 214.147767 
L 331.541304 214.147767 
L 334.569547 214.147767 
L 337.59779 214.147767 
L 340.626033 214.147767 
L 343.654276 214.147767 
L 346.682519 214.147767 
L 349.710762 214.147767 
L 352.739005 214.147767 
L 355.767248 214.147767 
L 358.795491 214.147767 
" style="fill:none;stroke:#9467bd;stroke-linecap:square;stroke-width:1.5;"/>
   </g>
   <g id="line2d_62">
    <path clip-path="url(#pa62fad195d)" d="M 58.999432 21.143005 
L 62.027675 21.232929 
L 65.055918 21.332573 
L 68.084161 21.442981 
L 71.112404 21.565308 
L 74.140647 21.700833 
L 77.16889 21.850968 
L 80.197133 22.017275 
L 83.225376 22.201479 
L 86.253619 22.405487 
L 89.281862 22.631402 
L 92.310105 22.881547 
L 95.338348 23.158483 
L 98.366591 23.465034 
L 101.394834 23.804309 
L 104.423077 24.179734 
L 107.45132 24.595075 
L 110.479563 25.054472 
L 113.507806 25.562471 
L 116.536049 26.124059 
L 119.564292 26.744696 
L 122.592535 27.430357 
L 125.620778 28.187569 
L 128.649021 29.023447 
L 131.677264 29.945734 
L 134.705507 30.962837 
L 137.73375 32.083863 
L 140.761993 33.318648 
L 143.790236 34.677778 
L 146.818479 36.172612 
L 149.846722 37.815278 
L 152.874966 39.618669 
L 155.903209 41.596409 
L 158.931452 43.762802 
L 161.959695 46.13275 
L 164.987938 48.721629 
L 168.016181 51.545134 
L 171.044424 54.619057 
L 174.072667 57.959019 
L 177.10091 61.580124 
L 180.129153 65.496538 
L 183.157396 69.720986 
L 186.185639 74.26415 
L 189.213882 79.13398 
L 192.242125 84.334902 
L 195.270368 89.866947 
L 198.298611 95.7248 
L 201.326854 101.896816 
L 204.355097 108.364016 
L 207.38334 115.099146 
L 210.411583 122.065853 
L 213.439826 129.218076 
L 216.468069 136.499763 
L 219.496312 143.845029 
L 222.524555 151.178882 
L 225.552798 158.418631 
L 228.581041 165.476059 
L 231.609284 172.260415 
L 234.637527 178.682163 
L 237.66577 184.657368 
L 240.694013 190.112446 
L 243.722256 194.988906 
L 246.750499 199.24758 
L 249.778742 202.871796 
L 252.806985 205.868954 
L 255.835228 208.270088 
L 258.863471 210.127232 
L 261.891714 211.508723 
L 264.919957 212.492957 
L 267.9482 213.161417 
L 270.976443 213.591987 
L 274.004686 213.853519 
L 277.032929 214.002382 
L 280.061172 214.081229 
L 283.089415 214.119794 
L 286.117659 214.137063 
L 289.145902 214.144077 
L 292.174145 214.146634 
L 295.202388 214.147461 
L 298.230631 214.147695 
L 301.258874 214.147753 
L 304.287117 214.147765 
L 307.31536 214.147767 
L 310.343603 214.147767 
L 313.371846 214.147767 
L 316.400089 214.147767 
L 319.428332 214.147767 
L 322.456575 214.147767 
L 325.484818 214.147767 
L 328.513061 214.147767 
L 331.541304 214.147767 
L 334.569547 214.147767 
L 337.59779 214.147767 
L 340.626033 214.147767 
L 343.654276 214.147767 
L 346.682519 214.147767 
L 349.710762 214.147767 
L 352.739005 214.147767 
L 355.767248 214.147767 
L 358.795491 214.147767 
" style="fill:none;stroke:#8c564b;stroke-linecap:square;stroke-width:1.5;"/>
   </g>
   <g id="line2d_63">
    <path clip-path="url(#pa62fad195d)" d="M 58.999432 22.003514 
L 62.027675 22.180231 
L 65.055918 22.375325 
L 68.084161 22.590684 
L 71.112404 22.828386 
L 74.140647 23.090717 
L 77.16889 23.38019 
L 80.197133 23.699562 
L 83.225376 24.051865 
L 86.253619 24.440421 
L 89.281862 24.868874 
L 92.310105 25.341212 
L 95.338348 25.861802 
L 98.366591 26.435413 
L 101.394834 27.067253 
L 104.423077 27.762997 
L 107.45132 28.528825 
L 110.479563 29.371448 
L 113.507806 30.298144 
L 116.536049 31.316791 
L 119.564292 32.435889 
L 122.592535 33.664589 
L 125.620778 35.01271 
L 128.649021 36.490749 
L 131.677264 38.109885 
L 134.705507 39.881962 
L 137.73375 41.819465 
L 140.761993 43.935469 
L 143.790236 46.243563 
L 146.818479 48.757751 
L 149.846722 51.492304 
L 152.874966 54.46158 
L 155.903209 57.67979 
L 158.931452 61.16071 
L 161.959695 64.91732 
L 164.987938 68.961386 
L 168.016181 73.30296 
L 171.044424 77.949796 
L 174.072667 82.9067 
L 177.10091 88.174793 
L 180.129153 93.750724 
L 183.157396 99.625826 
L 186.185639 105.785264 
L 189.213882 112.20721 
L 192.242125 118.862087 
L 195.270368 125.711968 
L 198.298611 132.710194 
L 201.326854 139.801322 
L 204.355097 146.921484 
L 207.38334 153.99926 
L 210.411583 160.957164 
L 213.439826 167.71377 
L 216.468069 174.186518 
L 219.496312 180.295112 
L 222.524555 185.965395 
L 225.552798 191.133438 
L 228.581041 195.749522 
L 231.609284 199.781605 
L 234.637527 203.217812 
L 237.66577 206.06754 
L 240.694013 208.360867 
L 243.722256 210.14613 
L 246.750499 211.485824 
L 249.778742 212.45124 
L 252.806985 213.116503 
L 255.835228 213.552836 
L 258.863471 213.823826 
L 261.891714 213.982293 
L 264.919957 214.069 
L 267.9482 214.113086 
L 270.976443 214.133758 
L 274.004686 214.142622 
L 277.032929 214.146066 
L 280.061172 214.147267 
L 283.089415 214.147638 
L 286.117659 214.147738 
L 289.145902 214.147762 
L 292.174145 214.147766 
L 295.202388 214.147767 
L 298.230631 214.147767 
L 301.258874 214.147767 
L 304.287117 214.147767 
L 307.31536 214.147767 
L 310.343603 214.147767 
L 313.371846 214.147767 
L 316.400089 214.147767 
L 319.428332 214.147767 
L 322.456575 214.147767 
L 325.484818 214.147767 
L 328.513061 214.147767 
L 331.541304 214.147767 
L 334.569547 214.147767 
L 337.59779 214.147767 
L 340.626033 214.147767 
L 343.654276 214.147767 
L 346.682519 214.147767 
L 349.710762 214.147767 
L 352.739005 214.147767 
L 355.767248 214.147767 
L 358.795491 214.147767 
" style="fill:none;stroke:#e377c2;stroke-linecap:square;stroke-width:1.5;"/>
   </g>
   <g id="line2d_64">
    <path clip-path="url(#pa62fad195d)" d="M 58.999432 23.783856 
L 62.027675 24.136092 
L 65.055918 24.523678 
L 68.084161 24.950079 
L 71.112404 25.419079 
L 74.140647 25.934806 
L 77.16889 26.501766 
L 80.197133 27.124865 
L 83.225376 27.809437 
L 86.253619 28.56128 
L 89.281862 29.386677 
L 92.310105 30.292428 
L 95.338348 31.28588 
L 98.366591 32.374948 
L 101.394834 33.568137 
L 104.423077 34.874561 
L 107.45132 36.303952 
L 110.479563 37.866659 
L 113.507806 39.573646 
L 116.536049 41.436459 
L 119.564292 43.467195 
L 122.592535 45.678433 
L 125.620778 48.08315 
L 128.649021 50.694606 
L 131.677264 53.526183 
L 134.705507 56.591199 
L 137.73375 59.902658 
L 140.761993 63.472957 
L 143.790236 67.313532 
L 146.818479 71.434433 
L 149.846722 75.843843 
L 152.874966 80.547516 
L 155.903209 85.548158 
L 158.931452 90.844746 
L 161.959695 96.431794 
L 164.987938 102.298601 
L 168.016181 108.428493 
L 171.044424 114.798112 
L 174.072667 121.376795 
L 177.10091 128.126107 
L 180.129153 134.999601 
L 183.157396 141.942892 
L 186.185639 148.894123 
L 189.213882 155.7849 
L 192.242125 162.541775 
L 195.270368 169.088304 
L 198.298611 175.347673 
L 201.326854 181.245839 
L 204.355097 186.715024 
L 207.38334 191.697373 
L 210.411583 196.148455 
L 213.439826 200.040255 
L 216.468069 203.363289 
L 219.496312 206.127475 
L 222.524555 208.361507 
L 225.552798 210.110654 
L 228.581041 211.433083 
L 231.609284 212.395096 
L 234.637527 213.065827 
L 237.66577 213.512098 
L 240.694013 213.79411 
L 243.722256 213.962486 
L 246.750499 214.056922 
L 249.778742 214.106363 
L 252.806985 214.130357 
L 255.835228 214.141068 
L 258.863471 214.14543 
L 261.891714 214.147035 
L 264.919957 214.147564 
L 267.9482 214.147717 
L 270.976443 214.147757 
L 274.004686 214.147765 
L 277.032929 214.147767 
L 280.061172 214.147767 
L 283.089415 214.147767 
L 286.117659 214.147767 
L 289.145902 214.147767 
L 292.174145 214.147767 
L 295.202388 214.147767 
L 298.230631 214.147767 
L 301.258874 214.147767 
L 304.287117 214.147767 
L 307.31536 214.147767 
L 310.343603 214.147767 
L 313.371846 214.147767 
L 316.400089 214.147767 
L 319.428332 214.147767 
L 322.456575 214.147767 
L 325.484818 214.147767 
L 328.513061 214.147767 
L 331.541304 214.147767 
L 334.569547 214.147767 
L 337.59779 214.147767 
L 340.626033 214.147767 
L 343.654276 214.147767 
L 346.682519 214.147767 
L 349.710762 214.147767 
L 352.739005 214.147767 
L 355.767248 214.147767 
L 358.795491 214.147767 
" style="fill:none;stroke:#7f7f7f;stroke-linecap:square;stroke-width:1.5;"/>
   </g>
   <g id="line2d_65">
    <path clip-path="url(#pa62fad195d)" d="M 58.999432 29.185578 
L 62.027675 30.004435 
L 65.055918 30.89668 
L 68.084161 31.868465 
L 71.112404 32.926369 
L 74.140647 34.077417 
L 77.16889 35.329088 
L 80.197133 36.689317 
L 83.225376 38.166499 
L 86.253619 39.769474 
L 89.281862 41.507514 
L 92.310105 43.390288 
L 95.338348 45.427826 
L 98.366591 47.630452 
L 101.394834 50.00871 
L 104.423077 52.573259 
L 107.45132 55.334751 
L 110.479563 58.30367 
L 113.507806 61.490145 
L 116.536049 64.903726 
L 119.564292 68.553115 
L 122.592535 72.445864 
L 125.620778 76.588023 
L 128.649021 80.983745 
L 131.677264 85.634853 
L 134.705507 90.540367 
L 137.73375 95.696001 
L 140.761993 101.093646 
L 143.790236 106.720849 
L 146.818479 112.56032 
L 149.846722 118.589483 
L 152.874966 124.780121 
L 155.903209 131.098139 
L 158.931452 137.503513 
L 161.959695 143.950456 
L 164.987938 150.387852 
L 168.016181 156.760025 
L 171.044424 163.007841 
L 174.072667 169.070196 
L 177.10091 174.885854 
L 180.129153 180.395612 
L 183.157396 185.544696 
L 186.185639 190.285262 
L 189.213882 194.578845 
L 192.242125 198.39853 
L 195.270368 201.730634 
L 198.298611 204.575681 
L 201.326854 206.94848 
L 204.355097 208.877211 
L 207.38334 210.401506 
L 210.411583 211.569667 
L 213.439826 212.435262 
L 216.468069 213.05346 
L 219.496312 213.477531 
L 222.524555 213.755886 
L 225.552798 213.929991 
L 228.581041 214.033294 
L 231.609284 214.09115 
L 234.637527 214.121571 
L 237.66577 214.1365 
L 240.694013 214.143293 
L 243.722256 214.146139 
L 246.750499 214.147229 
L 249.778742 214.147607 
L 252.806985 214.147725 
L 255.835228 214.147757 
L 258.863471 214.147765 
L 261.891714 214.147767 
L 264.919957 214.147767 
L 267.9482 214.147767 
L 270.976443 214.147767 
L 274.004686 214.147767 
L 277.032929 214.147767 
L 280.061172 214.147767 
L 283.089415 214.147767 
L 286.117659 214.147767 
L 289.145902 214.147767 
L 292.174145 214.147767 
L 295.202388 214.147767 
L 298.230631 214.147767 
L 301.258874 214.147767 
L 304.287117 214.147767 
L 307.31536 214.147767 
L 310.343603 214.147767 
L 313.371846 214.147767 
L 316.400089 214.147767 
L 319.428332 214.147767 
L 322.456575 214.147767 
L 325.484818 214.147767 
L 328.513061 214.147767 
L 331.541304 214.147767 
L 334.569547 214.147767 
L 337.59779 214.147767 
L 340.626033 214.147767 
L 343.654276 214.147767 
L 346.682519 214.147767 
L 349.710762 214.147767 
L 352.739005 214.147767 
L 355.767248 214.147767 
L 358.795491 214.147767 
" style="fill:none;stroke:#bcbd22;stroke-linecap:square;stroke-width:1.5;"/>
   </g>
   <g id="patch_3">
    <path d="M 43.78125 228.14 
L 43.78125 10.7 
" style="fill:none;stroke:#000000;stroke-linecap:square;stroke-linejoin:miter;stroke-width:0.8;"/>
   </g>
   <g id="patch_4">
    <path d="M 378.58125 228.14 
L 378.58125 10.7 
" style="fill:none;stroke:#000000;stroke-linecap:square;stroke-linejoin:miter;stroke-width:0.8;"/>
   </g>
   <g id="patch_5">
    <path d="M 43.78125 228.14 
L 378.58125 228.14 
" style="fill:none;stroke:#000000;stroke-linecap:square;stroke-linejoin:miter;stroke-width:0.8;"/>
   </g>
   <g id="patch_6">
    <path d="M 43.78125 10.7 
L 378.58125 10.7 
" style="fill:none;stroke:#000000;stroke-linecap:square;stroke-linejoin:miter;stroke-width:0.8;"/>
   </g>
   <g id="legend_1">
    <g id="patch_7">
     <path d="M 290.109375 150.803125 
L 371.58125 150.803125 
Q 373.58125 150.803125 373.58125 148.803125 
L 373.58125 17.7 
Q 373.58125 15.7 371.58125 15.7 
L 290.109375 15.7 
Q 288.109375 15.7 288.109375 17.7 
L 288.109375 148.803125 
Q 288.109375 150.803125 290.109375 150.803125 
z
" style="fill:#ffffff;opacity:0.8;stroke:#cccccc;stroke-linejoin:miter;"/>
    </g>
    <g id="PathCollection_10">
     <g>
      <use style="fill:#1f77b4;stroke:#1f77b4;" x="302.109375" xlink:href="#md0d722bc83" y="24.673437"/>
     </g>
    </g>
    <g id="text_15">
     <!-- T = 305.6 -->
     <defs>
      <path d="M -0.296875 72.90625 
L 61.375 72.90625 
L 61.375 64.59375 
L 35.5 64.59375 
L 35.5 0 
L 25.59375 0 
L 25.59375 64.59375 
L -0.296875 64.59375 
z
" id="DejaVuSans-54"/>
      <path d="M 10.59375 45.40625 
L 73.1875 45.40625 
L 73.1875 37.203125 
L 10.59375 37.203125 
z
M 10.59375 25.484375 
L 73.1875 25.484375 
L 73.1875 17.1875 
L 10.59375 17.1875 
z
" id="DejaVuSans-3d"/>
     </defs>
     <g transform="translate(320.109375 27.298437)scale(0.1 -0.1)">
      <use xlink:href="#DejaVuSans-54"/>
      <use x="61.083984" xlink:href="#DejaVuSans-20"/>
      <use x="92.871094" xlink:href="#DejaVuSans-3d"/>
      <use x="176.660156" xlink:href="#DejaVuSans-20"/>
      <use x="208.447266" xlink:href="#DejaVuSans-33"/>
      <use x="272.070312" xlink:href="#DejaVuSans-30"/>
      <use x="335.693359" xlink:href="#DejaVuSans-35"/>
      <use x="399.316406" xlink:href="#DejaVuSans-2e"/>
      <use x="431.103516" xlink:href="#DejaVuSans-36"/>
     </g>
    </g>
    <g id="PathCollection_11">
     <g>
      <use style="fill:#ff7f0e;stroke:#ff7f0e;" x="302.109375" xlink:href="#m905169fc5f" y="39.351562"/>
     </g>
    </g>
    <g id="text_16">
     <!-- T = 310.2 -->
     <g transform="translate(320.109375 41.976562)scale(0.1 -0.1)">
      <use xlink:href="#DejaVuSans-54"/>
      <use x="61.083984" xlink:href="#DejaVuSans-20"/>
      <use x="92.871094" xlink:href="#DejaVuSans-3d"/>
      <use x="176.660156" xlink:href="#DejaVuSans-20"/>
      <use x="208.447266" xlink:href="#DejaVuSans-33"/>
      <use x="272.070312" xlink:href="#DejaVuSans-31"/>
      <use x="335.693359" xlink:href="#DejaVuSans-30"/>
      <use x="399.316406" xlink:href="#DejaVuSans-2e"/>
      <use x="431.103516" xlink:href="#DejaVuSans-32"/>
     </g>
    </g>
    <g id="PathCollection_12">
     <g>
      <use style="fill:#2ca02c;stroke:#2ca02c;" x="302.109375" xlink:href="#m47c218c02c" y="54.029687"/>
     </g>
    </g>
    <g id="text_17">
     <!-- T = 315.0 -->
     <g transform="translate(320.109375 56.654687)scale(0.1 -0.1)">
      <use xlink:href="#DejaVuSans-54"/>
      <use x="61.083984" xlink:href="#DejaVuSans-20"/>
      <use x="92.871094" xlink:href="#DejaVuSans-3d"/>
      <use x="176.660156" xlink:href="#DejaVuSans-20"/>
      <use x="208.447266" xlink:href="#DejaVuSans-33"/>
      <use x="272.070312" xlink:href="#DejaVuSans-31"/>
      <use x="335.693359" xlink:href="#DejaVuSans-35"/>
      <use x="399.316406" xlink:href="#DejaVuSans-2e"/>
      <use x="431.103516" xlink:href="#DejaVuSans-30"/>
     </g>
    </g>
    <g id="PathCollection_13">
     <g>
      <use style="fill:#d62728;stroke:#d62728;" x="302.109375" xlink:href="#m5086ef2f32" y="68.707812"/>
     </g>
    </g>
    <g id="text_18">
     <!-- T = 319.8 -->
     <defs>
      <path d="M 10.984375 1.515625 
L 10.984375 10.5 
Q 14.703125 8.734375 18.5 7.8125 
Q 22.3125 6.890625 25.984375 6.890625 
Q 35.75 6.890625 40.890625 13.453125 
Q 46.046875 20.015625 46.78125 33.40625 
Q 43.953125 29.203125 39.59375 26.953125 
Q 35.25 24.703125 29.984375 24.703125 
Q 19.046875 24.703125 12.671875 31.3125 
Q 6.296875 37.9375 6.296875 49.421875 
Q 6.296875 60.640625 12.9375 67.421875 
Q 19.578125 74.21875 30.609375 74.21875 
Q 43.265625 74.21875 49.921875 64.515625 
Q 56.59375 54.828125 56.59375 36.375 
Q 56.59375 19.140625 48.40625 8.859375 
Q 40.234375 -1.421875 26.421875 -1.421875 
Q 22.703125 -1.421875 18.890625 -0.6875 
Q 15.09375 0.046875 10.984375 1.515625 
z
M 30.609375 32.421875 
Q 37.25 32.421875 41.125 36.953125 
Q 45.015625 41.5 45.015625 49.421875 
Q 45.015625 57.28125 41.125 61.84375 
Q 37.25 66.40625 30.609375 66.40625 
Q 23.96875 66.40625 20.09375 61.84375 
Q 16.21875 57.28125 16.21875 49.421875 
Q 16.21875 41.5 20.09375 36.953125 
Q 23.96875 32.421875 30.609375 32.421875 
z
" id="DejaVuSans-39"/>
     </defs>
     <g transform="translate(320.109375 71.332812)scale(0.1 -0.1)">
      <use xlink:href="#DejaVuSans-54"/>
      <use x="61.083984" xlink:href="#DejaVuSans-20"/>
      <use x="92.871094" xlink:href="#DejaVuSans-3d"/>
      <use x="176.660156" xlink:href="#DejaVuSans-20"/>
      <use x="208.447266" xlink:href="#DejaVuSans-33"/>
      <use x="272.070312" xlink:href="#DejaVuSans-31"/>
      <use x="335.693359" xlink:href="#DejaVuSans-39"/>
      <use x="399.316406" xlink:href="#DejaVuSans-2e"/>
      <use x="431.103516" xlink:href="#DejaVuSans-38"/>
     </g>
    </g>
    <g id="PathCollection_14">
     <g>
      <use style="fill:#9467bd;stroke:#9467bd;" x="302.109375" xlink:href="#m20e24fc7f5" y="83.385937"/>
     </g>
    </g>
    <g id="text_19">
     <!-- T = 324.6 -->
     <g transform="translate(320.109375 86.010937)scale(0.1 -0.1)">
      <use xlink:href="#DejaVuSans-54"/>
      <use x="61.083984" xlink:href="#DejaVuSans-20"/>
      <use x="92.871094" xlink:href="#DejaVuSans-3d"/>
      <use x="176.660156" xlink:href="#DejaVuSans-20"/>
      <use x="208.447266" xlink:href="#DejaVuSans-33"/>
      <use x="272.070312" xlink:href="#DejaVuSans-32"/>
      <use x="335.693359" xlink:href="#DejaVuSans-34"/>
      <use x="399.316406" xlink:href="#DejaVuSans-2e"/>
      <use x="431.103516" xlink:href="#DejaVuSans-36"/>
     </g>
    </g>
    <g id="PathCollection_15">
     <g>
      <use style="fill:#8c564b;stroke:#8c564b;" x="302.109375" xlink:href="#me537b52a5a" y="98.064062"/>
     </g>
    </g>
    <g id="text_20">
     <!-- T = 329.4 -->
     <g transform="translate(320.109375 100.689062)scale(0.1 -0.1)">
      <use xlink:href="#DejaVuSans-54"/>
      <use x="61.083984" xlink:href="#DejaVuSans-20"/>
      <use x="92.871094" xlink:href="#DejaVuSans-3d"/>
      <use x="176.660156" xlink:href="#DejaVuSans-20"/>
      <use x="208.447266" xlink:href="#DejaVuSans-33"/>
      <use x="272.070312" xlink:href="#DejaVuSans-32"/>
      <use x="335.693359" xlink:href="#DejaVuSans-39"/>
      <use x="399.316406" xlink:href="#DejaVuSans-2e"/>
      <use x="431.103516" xlink:href="#DejaVuSans-34"/>
     </g>
    </g>
    <g id="PathCollection_16">
     <g>
      <use style="fill:#e377c2;stroke:#e377c2;" x="302.109375" xlink:href="#m56f9417033" y="112.742187"/>
     </g>
    </g>
    <g id="text_21">
     <!-- T = 334.2 -->
     <g transform="translate(320.109375 115.367187)scale(0.1 -0.1)">
      <use xlink:href="#DejaVuSans-54"/>
      <use x="61.083984" xlink:href="#DejaVuSans-20"/>
      <use x="92.871094" xlink:href="#DejaVuSans-3d"/>
      <use x="176.660156" xlink:href="#DejaVuSans-20"/>
      <use x="208.447266" xlink:href="#DejaVuSans-33"/>
      <use x="272.070312" xlink:href="#DejaVuSans-33"/>
      <use x="335.693359" xlink:href="#DejaVuSans-34"/>
      <use x="399.316406" xlink:href="#DejaVuSans-2e"/>
      <use x="431.103516" xlink:href="#DejaVuSans-32"/>
     </g>
    </g>
    <g id="PathCollection_17">
     <g>
      <use style="fill:#7f7f7f;stroke:#7f7f7f;" x="302.109375" xlink:href="#m0dd490c562" y="127.420312"/>
     </g>
    </g>
    <g id="text_22">
     <!-- T = 339.0 -->
     <g transform="translate(320.109375 130.045312)scale(0.1 -0.1)">
      <use xlink:href="#DejaVuSans-54"/>
      <use x="61.083984" xlink:href="#DejaVuSans-20"/>
      <use x="92.871094" xlink:href="#DejaVuSans-3d"/>
      <use x="176.660156" xlink:href="#DejaVuSans-20"/>
      <use x="208.447266" xlink:href="#DejaVuSans-33"/>
      <use x="272.070312" xlink:href="#DejaVuSans-33"/>
      <use x="335.693359" xlink:href="#DejaVuSans-39"/>
      <use x="399.316406" xlink:href="#DejaVuSans-2e"/>
      <use x="431.103516" xlink:href="#DejaVuSans-30"/>
     </g>
    </g>
    <g id="PathCollection_18">
     <g>
      <use style="fill:#bcbd22;stroke:#bcbd22;" x="302.109375" xlink:href="#mddae01f178" y="142.098437"/>
     </g>
    </g>
    <g id="text_23">
     <!-- T = 343.8 -->
     <g transform="translate(320.109375 144.723437)scale(0.1 -0.1)">
      <use xlink:href="#DejaVuSans-54"/>
      <use x="61.083984" xlink:href="#DejaVuSans-20"/>
      <use x="92.871094" xlink:href="#DejaVuSans-3d"/>
      <use x="176.660156" xlink:href="#DejaVuSans-20"/>
      <use x="208.447266" xlink:href="#DejaVuSans-33"/>
      <use x="272.070312" xlink:href="#DejaVuSans-34"/>
      <use x="335.693359" xlink:href="#DejaVuSans-33"/>
      <use x="399.316406" xlink:href="#DejaVuSans-2e"/>
      <use x="431.103516" xlink:href="#DejaVuSans-38"/>
     </g>
    </g>
   </g>
  </g>
 </g>
 <defs>
  <clipPath id="pa62fad195d">
   <rect height="217.44" width="334.8" x="43.78125" y="10.7"/>
  </clipPath>
 </defs>
</svg>
