<?xml version="1.0" encoding="utf-8" standalone="no"?>
<!DOCTYPE svg PUBLIC "-//W3C//DTD SVG 1.1//EN"
  "http://www.w3.org/Graphics/SVG/1.1/DTD/svg11.dtd">
<!-- Created with matplotlib (http://matplotlib.org/) -->
<svg height="277.43625pt" version="1.1" viewBox="0 0 389.28125 277.43625" width="389.28125pt" xmlns="http://www.w3.org/2000/svg" xmlns:xlink="http://www.w3.org/1999/xlink">
 <defs>
  <style type="text/css">
*{stroke-linecap:butt;stroke-linejoin:round;}
  </style>
 </defs>
 <g id="figure_1">
  <g id="patch_1">
   <path d="M 0 277.43625 
L 389.28125 277.43625 
L 389.28125 0 
L 0 0 
z
" style="fill:#ffffff;"/>
  </g>
  <g id="axes_1">
   <g id="patch_2">
    <path d="M 43.78125 239.88 
L 378.58125 239.88 
L 378.58125 22.44 
L 43.78125 22.44 
z
" style="fill:#ffffff;"/>
   </g>
   <g id="matplotlib.axis_1">
    <g id="xtick_1">
     <g id="line2d_1">
      <path clip-path="url(#p0f4008fe2d)" d="M 70.668201 239.88 
L 70.668201 22.44 
" style="fill:none;stroke:#b0b0b0;stroke-linecap:square;stroke-width:0.8;"/>
     </g>
     <g id="line2d_2">
      <defs>
       <path d="M 0 0 
L 0 3.5 
" id="mf7f7284709" style="stroke:#000000;stroke-width:0.8;"/>
      </defs>
      <g>
       <use style="stroke:#000000;stroke-width:0.8;" x="70.668201" xlink:href="#mf7f7284709" y="239.88"/>
      </g>
     </g>
     <g id="text_1">
      <!-- 240 -->
      <defs>
       <path d="M 19.1875 8.296875 
L 53.609375 8.296875 
L 53.609375 0 
L 7.328125 0 
L 7.328125 8.296875 
Q 12.9375 14.109375 22.625 23.890625 
Q 32.328125 33.6875 34.8125 36.53125 
Q 39.546875 41.84375 41.421875 45.53125 
Q 43.3125 49.21875 43.3125 52.78125 
Q 43.3125 58.59375 39.234375 62.25 
Q 35.15625 65.921875 28.609375 65.921875 
Q 23.96875 65.921875 18.8125 64.3125 
Q 13.671875 62.703125 7.8125 59.421875 
L 7.8125 69.390625 
Q 13.765625 71.78125 18.9375 73 
Q 24.125 74.21875 28.421875 74.21875 
Q 39.75 74.21875 46.484375 68.546875 
Q 53.21875 62.890625 53.21875 53.421875 
Q 53.21875 48.921875 51.53125 44.890625 
Q 49.859375 40.875 45.40625 35.40625 
Q 44.1875 33.984375 37.640625 27.21875 
Q 31.109375 20.453125 19.1875 8.296875 
z
" id="DejaVuSans-32"/>
       <path d="M 37.796875 64.3125 
L 12.890625 25.390625 
L 37.796875 25.390625 
z
M 35.203125 72.90625 
L 47.609375 72.90625 
L 47.609375 25.390625 
L 58.015625 25.390625 
L 58.015625 17.1875 
L 47.609375 17.1875 
L 47.609375 0 
L 37.796875 0 
L 37.796875 17.1875 
L 4.890625 17.1875 
L 4.890625 26.703125 
z
" id="DejaVuSans-34"/>
       <path d="M 31.78125 66.40625 
Q 24.171875 66.40625 20.328125 58.90625 
Q 16.5 51.421875 16.5 36.375 
Q 16.5 21.390625 20.328125 13.890625 
Q 24.171875 6.390625 31.78125 6.390625 
Q 39.453125 6.390625 43.28125 13.890625 
Q 47.125 21.390625 47.125 36.375 
Q 47.125 51.421875 43.28125 58.90625 
Q 39.453125 66.40625 31.78125 66.40625 
z
M 31.78125 74.21875 
Q 44.046875 74.21875 50.515625 64.515625 
Q 56.984375 54.828125 56.984375 36.375 
Q 56.984375 17.96875 50.515625 8.265625 
Q 44.046875 -1.421875 31.78125 -1.421875 
Q 19.53125 -1.421875 13.0625 8.265625 
Q 6.59375 17.96875 6.59375 36.375 
Q 6.59375 54.828125 13.0625 64.515625 
Q 19.53125 74.21875 31.78125 74.21875 
z
" id="DejaVuSans-30"/>
      </defs>
      <g transform="translate(61.124451 254.478437)scale(0.1 -0.1)">
       <use xlink:href="#DejaVuSans-32"/>
       <use x="63.623047" xlink:href="#DejaVuSans-34"/>
       <use x="127.246094" xlink:href="#DejaVuSans-30"/>
      </g>
     </g>
    </g>
    <g id="xtick_2">
     <g id="line2d_3">
      <path clip-path="url(#p0f4008fe2d)" d="M 109.694183 239.88 
L 109.694183 22.44 
" style="fill:none;stroke:#b0b0b0;stroke-linecap:square;stroke-width:0.8;"/>
     </g>
     <g id="line2d_4">
      <g>
       <use style="stroke:#000000;stroke-width:0.8;" x="109.694183" xlink:href="#mf7f7284709" y="239.88"/>
      </g>
     </g>
     <g id="text_2">
      <!-- 260 -->
      <defs>
       <path d="M 33.015625 40.375 
Q 26.375 40.375 22.484375 35.828125 
Q 18.609375 31.296875 18.609375 23.390625 
Q 18.609375 15.53125 22.484375 10.953125 
Q 26.375 6.390625 33.015625 6.390625 
Q 39.65625 6.390625 43.53125 10.953125 
Q 47.40625 15.53125 47.40625 23.390625 
Q 47.40625 31.296875 43.53125 35.828125 
Q 39.65625 40.375 33.015625 40.375 
z
M 52.59375 71.296875 
L 52.59375 62.3125 
Q 48.875 64.0625 45.09375 64.984375 
Q 41.3125 65.921875 37.59375 65.921875 
Q 27.828125 65.921875 22.671875 59.328125 
Q 17.53125 52.734375 16.796875 39.40625 
Q 19.671875 43.65625 24.015625 45.921875 
Q 28.375 48.1875 33.59375 48.1875 
Q 44.578125 48.1875 50.953125 41.515625 
Q 57.328125 34.859375 57.328125 23.390625 
Q 57.328125 12.15625 50.6875 5.359375 
Q 44.046875 -1.421875 33.015625 -1.421875 
Q 20.359375 -1.421875 13.671875 8.265625 
Q 6.984375 17.96875 6.984375 36.375 
Q 6.984375 53.65625 15.1875 63.9375 
Q 23.390625 74.21875 37.203125 74.21875 
Q 40.921875 74.21875 44.703125 73.484375 
Q 48.484375 72.75 52.59375 71.296875 
z
" id="DejaVuSans-36"/>
      </defs>
      <g transform="translate(100.150433 254.478437)scale(0.1 -0.1)">
       <use xlink:href="#DejaVuSans-32"/>
       <use x="63.623047" xlink:href="#DejaVuSans-36"/>
       <use x="127.246094" xlink:href="#DejaVuSans-30"/>
      </g>
     </g>
    </g>
    <g id="xtick_3">
     <g id="line2d_5">
      <path clip-path="url(#p0f4008fe2d)" d="M 148.720165 239.88 
L 148.720165 22.44 
" style="fill:none;stroke:#b0b0b0;stroke-linecap:square;stroke-width:0.8;"/>
     </g>
     <g id="line2d_6">
      <g>
       <use style="stroke:#000000;stroke-width:0.8;" x="148.720165" xlink:href="#mf7f7284709" y="239.88"/>
      </g>
     </g>
     <g id="text_3">
      <!-- 280 -->
      <defs>
       <path d="M 31.78125 34.625 
Q 24.75 34.625 20.71875 30.859375 
Q 16.703125 27.09375 16.703125 20.515625 
Q 16.703125 13.921875 20.71875 10.15625 
Q 24.75 6.390625 31.78125 6.390625 
Q 38.8125 6.390625 42.859375 10.171875 
Q 46.921875 13.96875 46.921875 20.515625 
Q 46.921875 27.09375 42.890625 30.859375 
Q 38.875 34.625 31.78125 34.625 
z
M 21.921875 38.8125 
Q 15.578125 40.375 12.03125 44.71875 
Q 8.5 49.078125 8.5 55.328125 
Q 8.5 64.0625 14.71875 69.140625 
Q 20.953125 74.21875 31.78125 74.21875 
Q 42.671875 74.21875 48.875 69.140625 
Q 55.078125 64.0625 55.078125 55.328125 
Q 55.078125 49.078125 51.53125 44.71875 
Q 48 40.375 41.703125 38.8125 
Q 48.828125 37.15625 52.796875 32.3125 
Q 56.78125 27.484375 56.78125 20.515625 
Q 56.78125 9.90625 50.3125 4.234375 
Q 43.84375 -1.421875 31.78125 -1.421875 
Q 19.734375 -1.421875 13.25 4.234375 
Q 6.78125 9.90625 6.78125 20.515625 
Q 6.78125 27.484375 10.78125 32.3125 
Q 14.796875 37.15625 21.921875 38.8125 
z
M 18.3125 54.390625 
Q 18.3125 48.734375 21.84375 45.5625 
Q 25.390625 42.390625 31.78125 42.390625 
Q 38.140625 42.390625 41.71875 45.5625 
Q 45.3125 48.734375 45.3125 54.390625 
Q 45.3125 60.0625 41.71875 63.234375 
Q 38.140625 66.40625 31.78125 66.40625 
Q 25.390625 66.40625 21.84375 63.234375 
Q 18.3125 60.0625 18.3125 54.390625 
z
" id="DejaVuSans-38"/>
      </defs>
      <g transform="translate(139.176415 254.478437)scale(0.1 -0.1)">
       <use xlink:href="#DejaVuSans-32"/>
       <use x="63.623047" xlink:href="#DejaVuSans-38"/>
       <use x="127.246094" xlink:href="#DejaVuSans-30"/>
      </g>
     </g>
    </g>
    <g id="xtick_4">
     <g id="line2d_7">
      <path clip-path="url(#p0f4008fe2d)" d="M 187.746148 239.88 
L 187.746148 22.44 
" style="fill:none;stroke:#b0b0b0;stroke-linecap:square;stroke-width:0.8;"/>
     </g>
     <g id="line2d_8">
      <g>
       <use style="stroke:#000000;stroke-width:0.8;" x="187.746148" xlink:href="#mf7f7284709" y="239.88"/>
      </g>
     </g>
     <g id="text_4">
      <!-- 300 -->
      <defs>
       <path d="M 40.578125 39.3125 
Q 47.65625 37.796875 51.625 33 
Q 55.609375 28.21875 55.609375 21.1875 
Q 55.609375 10.40625 48.1875 4.484375 
Q 40.765625 -1.421875 27.09375 -1.421875 
Q 22.515625 -1.421875 17.65625 -0.515625 
Q 12.796875 0.390625 7.625 2.203125 
L 7.625 11.71875 
Q 11.71875 9.328125 16.59375 8.109375 
Q 21.484375 6.890625 26.8125 6.890625 
Q 36.078125 6.890625 40.9375 10.546875 
Q 45.796875 14.203125 45.796875 21.1875 
Q 45.796875 27.640625 41.28125 31.265625 
Q 36.765625 34.90625 28.71875 34.90625 
L 20.21875 34.90625 
L 20.21875 43.015625 
L 29.109375 43.015625 
Q 36.375 43.015625 40.234375 45.921875 
Q 44.09375 48.828125 44.09375 54.296875 
Q 44.09375 59.90625 40.109375 62.90625 
Q 36.140625 65.921875 28.71875 65.921875 
Q 24.65625 65.921875 20.015625 65.03125 
Q 15.375 64.15625 9.8125 62.3125 
L 9.8125 71.09375 
Q 15.4375 72.65625 20.34375 73.4375 
Q 25.25 74.21875 29.59375 74.21875 
Q 40.828125 74.21875 47.359375 69.109375 
Q 53.90625 64.015625 53.90625 55.328125 
Q 53.90625 49.265625 50.4375 45.09375 
Q 46.96875 40.921875 40.578125 39.3125 
z
" id="DejaVuSans-33"/>
      </defs>
      <g transform="translate(178.202398 254.478437)scale(0.1 -0.1)">
       <use xlink:href="#DejaVuSans-33"/>
       <use x="63.623047" xlink:href="#DejaVuSans-30"/>
       <use x="127.246094" xlink:href="#DejaVuSans-30"/>
      </g>
     </g>
    </g>
    <g id="xtick_5">
     <g id="line2d_9">
      <path clip-path="url(#p0f4008fe2d)" d="M 226.77213 239.88 
L 226.77213 22.44 
" style="fill:none;stroke:#b0b0b0;stroke-linecap:square;stroke-width:0.8;"/>
     </g>
     <g id="line2d_10">
      <g>
       <use style="stroke:#000000;stroke-width:0.8;" x="226.77213" xlink:href="#mf7f7284709" y="239.88"/>
      </g>
     </g>
     <g id="text_5">
      <!-- 320 -->
      <g transform="translate(217.22838 254.478437)scale(0.1 -0.1)">
       <use xlink:href="#DejaVuSans-33"/>
       <use x="63.623047" xlink:href="#DejaVuSans-32"/>
       <use x="127.246094" xlink:href="#DejaVuSans-30"/>
      </g>
     </g>
    </g>
    <g id="xtick_6">
     <g id="line2d_11">
      <path clip-path="url(#p0f4008fe2d)" d="M 265.798112 239.88 
L 265.798112 22.44 
" style="fill:none;stroke:#b0b0b0;stroke-linecap:square;stroke-width:0.8;"/>
     </g>
     <g id="line2d_12">
      <g>
       <use style="stroke:#000000;stroke-width:0.8;" x="265.798112" xlink:href="#mf7f7284709" y="239.88"/>
      </g>
     </g>
     <g id="text_6">
      <!-- 340 -->
      <g transform="translate(256.254362 254.478437)scale(0.1 -0.1)">
       <use xlink:href="#DejaVuSans-33"/>
       <use x="63.623047" xlink:href="#DejaVuSans-34"/>
       <use x="127.246094" xlink:href="#DejaVuSans-30"/>
      </g>
     </g>
    </g>
    <g id="xtick_7">
     <g id="line2d_13">
      <path clip-path="url(#p0f4008fe2d)" d="M 304.824095 239.88 
L 304.824095 22.44 
" style="fill:none;stroke:#b0b0b0;stroke-linecap:square;stroke-width:0.8;"/>
     </g>
     <g id="line2d_14">
      <g>
       <use style="stroke:#000000;stroke-width:0.8;" x="304.824095" xlink:href="#mf7f7284709" y="239.88"/>
      </g>
     </g>
     <g id="text_7">
      <!-- 360 -->
      <g transform="translate(295.280345 254.478437)scale(0.1 -0.1)">
       <use xlink:href="#DejaVuSans-33"/>
       <use x="63.623047" xlink:href="#DejaVuSans-36"/>
       <use x="127.246094" xlink:href="#DejaVuSans-30"/>
      </g>
     </g>
    </g>
    <g id="xtick_8">
     <g id="line2d_15">
      <path clip-path="url(#p0f4008fe2d)" d="M 343.850077 239.88 
L 343.850077 22.44 
" style="fill:none;stroke:#b0b0b0;stroke-linecap:square;stroke-width:0.8;"/>
     </g>
     <g id="line2d_16">
      <g>
       <use style="stroke:#000000;stroke-width:0.8;" x="343.850077" xlink:href="#mf7f7284709" y="239.88"/>
      </g>
     </g>
     <g id="text_8">
      <!-- 380 -->
      <g transform="translate(334.306327 254.478437)scale(0.1 -0.1)">
       <use xlink:href="#DejaVuSans-33"/>
       <use x="63.623047" xlink:href="#DejaVuSans-38"/>
       <use x="127.246094" xlink:href="#DejaVuSans-30"/>
      </g>
     </g>
    </g>
    <g id="text_9">
     <!-- Temperatur [K] -->
     <defs>
      <path d="M -0.296875 72.90625 
L 61.375 72.90625 
L 61.375 64.59375 
L 35.5 64.59375 
L 35.5 0 
L 25.59375 0 
L 25.59375 64.59375 
L -0.296875 64.59375 
z
" id="DejaVuSans-54"/>
      <path d="M 56.203125 29.59375 
L 56.203125 25.203125 
L 14.890625 25.203125 
Q 15.484375 15.921875 20.484375 11.0625 
Q 25.484375 6.203125 34.421875 6.203125 
Q 39.59375 6.203125 44.453125 7.46875 
Q 49.3125 8.734375 54.109375 11.28125 
L 54.109375 2.78125 
Q 49.265625 0.734375 44.1875 -0.34375 
Q 39.109375 -1.421875 33.890625 -1.421875 
Q 20.796875 -1.421875 13.15625 6.1875 
Q 5.515625 13.8125 5.515625 26.8125 
Q 5.515625 40.234375 12.765625 48.109375 
Q 20.015625 56 32.328125 56 
Q 43.359375 56 49.78125 48.890625 
Q 56.203125 41.796875 56.203125 29.59375 
z
M 47.21875 32.234375 
Q 47.125 39.59375 43.09375 43.984375 
Q 39.0625 48.390625 32.421875 48.390625 
Q 24.90625 48.390625 20.390625 44.140625 
Q 15.875 39.890625 15.1875 32.171875 
z
" id="DejaVuSans-65"/>
      <path d="M 52 44.1875 
Q 55.375 50.25 60.0625 53.125 
Q 64.75 56 71.09375 56 
Q 79.640625 56 84.28125 50.015625 
Q 88.921875 44.046875 88.921875 33.015625 
L 88.921875 0 
L 79.890625 0 
L 79.890625 32.71875 
Q 79.890625 40.578125 77.09375 44.375 
Q 74.3125 48.1875 68.609375 48.1875 
Q 61.625 48.1875 57.5625 43.546875 
Q 53.515625 38.921875 53.515625 30.90625 
L 53.515625 0 
L 44.484375 0 
L 44.484375 32.71875 
Q 44.484375 40.625 41.703125 44.40625 
Q 38.921875 48.1875 33.109375 48.1875 
Q 26.21875 48.1875 22.15625 43.53125 
Q 18.109375 38.875 18.109375 30.90625 
L 18.109375 0 
L 9.078125 0 
L 9.078125 54.6875 
L 18.109375 54.6875 
L 18.109375 46.1875 
Q 21.1875 51.21875 25.484375 53.609375 
Q 29.78125 56 35.6875 56 
Q 41.65625 56 45.828125 52.96875 
Q 50 49.953125 52 44.1875 
z
" id="DejaVuSans-6d"/>
      <path d="M 18.109375 8.203125 
L 18.109375 -20.796875 
L 9.078125 -20.796875 
L 9.078125 54.6875 
L 18.109375 54.6875 
L 18.109375 46.390625 
Q 20.953125 51.265625 25.265625 53.625 
Q 29.59375 56 35.59375 56 
Q 45.5625 56 51.78125 48.09375 
Q 58.015625 40.1875 58.015625 27.296875 
Q 58.015625 14.40625 51.78125 6.484375 
Q 45.5625 -1.421875 35.59375 -1.421875 
Q 29.59375 -1.421875 25.265625 0.953125 
Q 20.953125 3.328125 18.109375 8.203125 
z
M 48.6875 27.296875 
Q 48.6875 37.203125 44.609375 42.84375 
Q 40.53125 48.484375 33.40625 48.484375 
Q 26.265625 48.484375 22.1875 42.84375 
Q 18.109375 37.203125 18.109375 27.296875 
Q 18.109375 17.390625 22.1875 11.75 
Q 26.265625 6.109375 33.40625 6.109375 
Q 40.53125 6.109375 44.609375 11.75 
Q 48.6875 17.390625 48.6875 27.296875 
z
" id="DejaVuSans-70"/>
      <path d="M 41.109375 46.296875 
Q 39.59375 47.171875 37.8125 47.578125 
Q 36.03125 48 33.890625 48 
Q 26.265625 48 22.1875 43.046875 
Q 18.109375 38.09375 18.109375 28.8125 
L 18.109375 0 
L 9.078125 0 
L 9.078125 54.6875 
L 18.109375 54.6875 
L 18.109375 46.1875 
Q 20.953125 51.171875 25.484375 53.578125 
Q 30.03125 56 36.53125 56 
Q 37.453125 56 38.578125 55.875 
Q 39.703125 55.765625 41.0625 55.515625 
z
" id="DejaVuSans-72"/>
      <path d="M 34.28125 27.484375 
Q 23.390625 27.484375 19.1875 25 
Q 14.984375 22.515625 14.984375 16.5 
Q 14.984375 11.71875 18.140625 8.90625 
Q 21.296875 6.109375 26.703125 6.109375 
Q 34.1875 6.109375 38.703125 11.40625 
Q 43.21875 16.703125 43.21875 25.484375 
L 43.21875 27.484375 
z
M 52.203125 31.203125 
L 52.203125 0 
L 43.21875 0 
L 43.21875 8.296875 
Q 40.140625 3.328125 35.546875 0.953125 
Q 30.953125 -1.421875 24.3125 -1.421875 
Q 15.921875 -1.421875 10.953125 3.296875 
Q 6 8.015625 6 15.921875 
Q 6 25.140625 12.171875 29.828125 
Q 18.359375 34.515625 30.609375 34.515625 
L 43.21875 34.515625 
L 43.21875 35.40625 
Q 43.21875 41.609375 39.140625 45 
Q 35.0625 48.390625 27.6875 48.390625 
Q 23 48.390625 18.546875 47.265625 
Q 14.109375 46.140625 10.015625 43.890625 
L 10.015625 52.203125 
Q 14.9375 54.109375 19.578125 55.046875 
Q 24.21875 56 28.609375 56 
Q 40.484375 56 46.34375 49.84375 
Q 52.203125 43.703125 52.203125 31.203125 
z
" id="DejaVuSans-61"/>
      <path d="M 18.3125 70.21875 
L 18.3125 54.6875 
L 36.8125 54.6875 
L 36.8125 47.703125 
L 18.3125 47.703125 
L 18.3125 18.015625 
Q 18.3125 11.328125 20.140625 9.421875 
Q 21.96875 7.515625 27.59375 7.515625 
L 36.8125 7.515625 
L 36.8125 0 
L 27.59375 0 
Q 17.1875 0 13.234375 3.875 
Q 9.28125 7.765625 9.28125 18.015625 
L 9.28125 47.703125 
L 2.6875 47.703125 
L 2.6875 54.6875 
L 9.28125 54.6875 
L 9.28125 70.21875 
z
" id="DejaVuSans-74"/>
      <path d="M 8.5 21.578125 
L 8.5 54.6875 
L 17.484375 54.6875 
L 17.484375 21.921875 
Q 17.484375 14.15625 20.5 10.265625 
Q 23.53125 6.390625 29.59375 6.390625 
Q 36.859375 6.390625 41.078125 11.03125 
Q 45.3125 15.671875 45.3125 23.6875 
L 45.3125 54.6875 
L 54.296875 54.6875 
L 54.296875 0 
L 45.3125 0 
L 45.3125 8.40625 
Q 42.046875 3.421875 37.71875 1 
Q 33.40625 -1.421875 27.6875 -1.421875 
Q 18.265625 -1.421875 13.375 4.4375 
Q 8.5 10.296875 8.5 21.578125 
z
M 31.109375 56 
z
" id="DejaVuSans-75"/>
      <path id="DejaVuSans-20"/>
      <path d="M 8.59375 75.984375 
L 29.296875 75.984375 
L 29.296875 69 
L 17.578125 69 
L 17.578125 -6.203125 
L 29.296875 -6.203125 
L 29.296875 -13.1875 
L 8.59375 -13.1875 
z
" id="DejaVuSans-5b"/>
      <path d="M 9.8125 72.90625 
L 19.671875 72.90625 
L 19.671875 42.09375 
L 52.390625 72.90625 
L 65.09375 72.90625 
L 28.90625 38.921875 
L 67.671875 0 
L 54.6875 0 
L 19.671875 35.109375 
L 19.671875 0 
L 9.8125 0 
z
" id="DejaVuSans-4b"/>
      <path d="M 30.421875 75.984375 
L 30.421875 -13.1875 
L 9.71875 -13.1875 
L 9.71875 -6.203125 
L 21.390625 -6.203125 
L 21.390625 69 
L 9.71875 69 
L 9.71875 75.984375 
z
" id="DejaVuSans-5d"/>
     </defs>
     <g transform="translate(172.869531 268.156562)scale(0.1 -0.1)">
      <use xlink:href="#DejaVuSans-54"/>
      <use x="60.818359" xlink:href="#DejaVuSans-65"/>
      <use x="122.341797" xlink:href="#DejaVuSans-6d"/>
      <use x="219.753906" xlink:href="#DejaVuSans-70"/>
      <use x="283.230469" xlink:href="#DejaVuSans-65"/>
      <use x="344.753906" xlink:href="#DejaVuSans-72"/>
      <use x="385.867188" xlink:href="#DejaVuSans-61"/>
      <use x="447.146484" xlink:href="#DejaVuSans-74"/>
      <use x="486.355469" xlink:href="#DejaVuSans-75"/>
      <use x="549.734375" xlink:href="#DejaVuSans-72"/>
      <use x="590.847656" xlink:href="#DejaVuSans-20"/>
      <use x="622.634766" xlink:href="#DejaVuSans-5b"/>
      <use x="661.648438" xlink:href="#DejaVuSans-4b"/>
      <use x="727.224609" xlink:href="#DejaVuSans-5d"/>
     </g>
    </g>
   </g>
   <g id="matplotlib.axis_2">
    <g id="ytick_1">
     <g id="line2d_17">
      <path clip-path="url(#p0f4008fe2d)" d="M 43.78125 217.841106 
L 378.58125 217.841106 
" style="fill:none;stroke:#b0b0b0;stroke-linecap:square;stroke-width:0.8;"/>
     </g>
     <g id="line2d_18">
      <defs>
       <path d="M 0 0 
L -3.5 0 
" id="m5e91a27081" style="stroke:#000000;stroke-width:0.8;"/>
      </defs>
      <g>
       <use style="stroke:#000000;stroke-width:0.8;" x="43.78125" xlink:href="#m5e91a27081" y="217.841106"/>
      </g>
     </g>
     <g id="text_10">
      <!-- 0.6 -->
      <defs>
       <path d="M 10.6875 12.40625 
L 21 12.40625 
L 21 0 
L 10.6875 0 
z
" id="DejaVuSans-2e"/>
      </defs>
      <g transform="translate(20.878125 221.640325)scale(0.1 -0.1)">
       <use xlink:href="#DejaVuSans-30"/>
       <use x="63.623047" xlink:href="#DejaVuSans-2e"/>
       <use x="95.410156" xlink:href="#DejaVuSans-36"/>
      </g>
     </g>
    </g>
    <g id="ytick_2">
     <g id="line2d_19">
      <path clip-path="url(#p0f4008fe2d)" d="M 43.78125 174.738418 
L 378.58125 174.738418 
" style="fill:none;stroke:#b0b0b0;stroke-linecap:square;stroke-width:0.8;"/>
     </g>
     <g id="line2d_20">
      <g>
       <use style="stroke:#000000;stroke-width:0.8;" x="43.78125" xlink:href="#m5e91a27081" y="174.738418"/>
      </g>
     </g>
     <g id="text_11">
      <!-- 0.7 -->
      <defs>
       <path d="M 8.203125 72.90625 
L 55.078125 72.90625 
L 55.078125 68.703125 
L 28.609375 0 
L 18.3125 0 
L 43.21875 64.59375 
L 8.203125 64.59375 
z
" id="DejaVuSans-37"/>
      </defs>
      <g transform="translate(20.878125 178.537637)scale(0.1 -0.1)">
       <use xlink:href="#DejaVuSans-30"/>
       <use x="63.623047" xlink:href="#DejaVuSans-2e"/>
       <use x="95.410156" xlink:href="#DejaVuSans-37"/>
      </g>
     </g>
    </g>
    <g id="ytick_3">
     <g id="line2d_21">
      <path clip-path="url(#p0f4008fe2d)" d="M 43.78125 131.63573 
L 378.58125 131.63573 
" style="fill:none;stroke:#b0b0b0;stroke-linecap:square;stroke-width:0.8;"/>
     </g>
     <g id="line2d_22">
      <g>
       <use style="stroke:#000000;stroke-width:0.8;" x="43.78125" xlink:href="#m5e91a27081" y="131.63573"/>
      </g>
     </g>
     <g id="text_12">
      <!-- 0.8 -->
      <g transform="translate(20.878125 135.434948)scale(0.1 -0.1)">
       <use xlink:href="#DejaVuSans-30"/>
       <use x="63.623047" xlink:href="#DejaVuSans-2e"/>
       <use x="95.410156" xlink:href="#DejaVuSans-38"/>
      </g>
     </g>
    </g>
    <g id="ytick_4">
     <g id="line2d_23">
      <path clip-path="url(#p0f4008fe2d)" d="M 43.78125 88.533041 
L 378.58125 88.533041 
" style="fill:none;stroke:#b0b0b0;stroke-linecap:square;stroke-width:0.8;"/>
     </g>
     <g id="line2d_24">
      <g>
       <use style="stroke:#000000;stroke-width:0.8;" x="43.78125" xlink:href="#m5e91a27081" y="88.533041"/>
      </g>
     </g>
     <g id="text_13">
      <!-- 0.9 -->
      <defs>
       <path d="M 10.984375 1.515625 
L 10.984375 10.5 
Q 14.703125 8.734375 18.5 7.8125 
Q 22.3125 6.890625 25.984375 6.890625 
Q 35.75 6.890625 40.890625 13.453125 
Q 46.046875 20.015625 46.78125 33.40625 
Q 43.953125 29.203125 39.59375 26.953125 
Q 35.25 24.703125 29.984375 24.703125 
Q 19.046875 24.703125 12.671875 31.3125 
Q 6.296875 37.9375 6.296875 49.421875 
Q 6.296875 60.640625 12.9375 67.421875 
Q 19.578125 74.21875 30.609375 74.21875 
Q 43.265625 74.21875 49.921875 64.515625 
Q 56.59375 54.828125 56.59375 36.375 
Q 56.59375 19.140625 48.40625 8.859375 
Q 40.234375 -1.421875 26.421875 -1.421875 
Q 22.703125 -1.421875 18.890625 -0.6875 
Q 15.09375 0.046875 10.984375 1.515625 
z
M 30.609375 32.421875 
Q 37.25 32.421875 41.125 36.953125 
Q 45.015625 41.5 45.015625 49.421875 
Q 45.015625 57.28125 41.125 61.84375 
Q 37.25 66.40625 30.609375 66.40625 
Q 23.96875 66.40625 20.09375 61.84375 
Q 16.21875 57.28125 16.21875 49.421875 
Q 16.21875 41.5 20.09375 36.953125 
Q 23.96875 32.421875 30.609375 32.421875 
z
" id="DejaVuSans-39"/>
      </defs>
      <g transform="translate(20.878125 92.33226)scale(0.1 -0.1)">
       <use xlink:href="#DejaVuSans-30"/>
       <use x="63.623047" xlink:href="#DejaVuSans-2e"/>
       <use x="95.410156" xlink:href="#DejaVuSans-39"/>
      </g>
     </g>
    </g>
    <g id="ytick_5">
     <g id="line2d_25">
      <path clip-path="url(#p0f4008fe2d)" d="M 43.78125 45.430353 
L 378.58125 45.430353 
" style="fill:none;stroke:#b0b0b0;stroke-linecap:square;stroke-width:0.8;"/>
     </g>
     <g id="line2d_26">
      <g>
       <use style="stroke:#000000;stroke-width:0.8;" x="43.78125" xlink:href="#m5e91a27081" y="45.430353"/>
      </g>
     </g>
     <g id="text_14">
      <!-- 1.0 -->
      <defs>
       <path d="M 12.40625 8.296875 
L 28.515625 8.296875 
L 28.515625 63.921875 
L 10.984375 60.40625 
L 10.984375 69.390625 
L 28.421875 72.90625 
L 38.28125 72.90625 
L 38.28125 8.296875 
L 54.390625 8.296875 
L 54.390625 0 
L 12.40625 0 
z
" id="DejaVuSans-31"/>
      </defs>
      <g transform="translate(20.878125 49.229572)scale(0.1 -0.1)">
       <use xlink:href="#DejaVuSans-31"/>
       <use x="63.623047" xlink:href="#DejaVuSans-2e"/>
       <use x="95.410156" xlink:href="#DejaVuSans-30"/>
      </g>
     </g>
    </g>
    <g id="text_15">
     <!-- beta -->
     <defs>
      <path d="M 48.6875 27.296875 
Q 48.6875 37.203125 44.609375 42.84375 
Q 40.53125 48.484375 33.40625 48.484375 
Q 26.265625 48.484375 22.1875 42.84375 
Q 18.109375 37.203125 18.109375 27.296875 
Q 18.109375 17.390625 22.1875 11.75 
Q 26.265625 6.109375 33.40625 6.109375 
Q 40.53125 6.109375 44.609375 11.75 
Q 48.6875 17.390625 48.6875 27.296875 
z
M 18.109375 46.390625 
Q 20.953125 51.265625 25.265625 53.625 
Q 29.59375 56 35.59375 56 
Q 45.5625 56 51.78125 48.09375 
Q 58.015625 40.1875 58.015625 27.296875 
Q 58.015625 14.40625 51.78125 6.484375 
Q 45.5625 -1.421875 35.59375 -1.421875 
Q 29.59375 -1.421875 25.265625 0.953125 
Q 20.953125 3.328125 18.109375 8.203125 
L 18.109375 0 
L 9.078125 0 
L 9.078125 75.984375 
L 18.109375 75.984375 
z
" id="DejaVuSans-62"/>
     </defs>
     <g transform="translate(14.798438 142.435)rotate(-90)scale(0.1 -0.1)">
      <use xlink:href="#DejaVuSans-62"/>
      <use x="63.476562" xlink:href="#DejaVuSans-65"/>
      <use x="125" xlink:href="#DejaVuSans-74"/>
      <use x="164.208984" xlink:href="#DejaVuSans-61"/>
     </g>
    </g>
   </g>
   <g id="LineCollection_1">
    <path clip-path="url(#p0f4008fe2d)" d="M 59.253101 222.543017 
L 59.253101 202.254444 
" style="fill:none;stroke:#1f77b4;stroke-width:1.5;"/>
    <path clip-path="url(#p0f4008fe2d)" d="M 58.999432 229.499247 
L 58.999432 207.532397 
" style="fill:none;stroke:#1f77b4;stroke-width:1.5;"/>
    <path clip-path="url(#p0f4008fe2d)" d="M 76.892845 229.996364 
L 76.892845 209.132453 
" style="fill:none;stroke:#1f77b4;stroke-width:1.5;"/>
    <path clip-path="url(#p0f4008fe2d)" d="M 77.166027 224.745867 
L 77.166027 198.365527 
" style="fill:none;stroke:#1f77b4;stroke-width:1.5;"/>
    <path clip-path="url(#p0f4008fe2d)" d="M 95.449699 221.076046 
L 95.449699 196.899214 
" style="fill:none;stroke:#1f77b4;stroke-width:1.5;"/>
    <path clip-path="url(#p0f4008fe2d)" d="M 95.761907 224.16042 
L 95.761907 199.770383 
" style="fill:none;stroke:#1f77b4;stroke-width:1.5;"/>
    <path clip-path="url(#p0f4008fe2d)" d="M 114.006554 217.67621 
L 114.006554 193.480932 
" style="fill:none;stroke:#1f77b4;stroke-width:1.5;"/>
    <path clip-path="url(#p0f4008fe2d)" d="M 114.299249 215.071302 
L 114.299249 189.53113 
" style="fill:none;stroke:#1f77b4;stroke-width:1.5;"/>
    <path clip-path="url(#p0f4008fe2d)" d="M 132.621948 213.797701 
L 132.621948 189.368763 
" style="fill:none;stroke:#1f77b4;stroke-width:1.5;"/>
    <path clip-path="url(#p0f4008fe2d)" d="M 132.875616 217.997639 
L 132.875616 193.678182 
" style="fill:none;stroke:#1f77b4;stroke-width:1.5;"/>
    <path clip-path="url(#p0f4008fe2d)" d="M 151.217828 218.508914 
L 151.217828 193.551353 
" style="fill:none;stroke:#1f77b4;stroke-width:1.5;"/>
    <path clip-path="url(#p0f4008fe2d)" d="M 151.627601 216.329962 
L 151.627601 191.249955 
" style="fill:none;stroke:#1f77b4;stroke-width:1.5;"/>
   </g>
   <g id="LineCollection_2">
    <path clip-path="url(#p0f4008fe2d)" d="M 151.822731 217.066272 
L 151.822731 191.113011 
" style="fill:none;stroke:#1f77b4;stroke-width:1.5;"/>
    <path clip-path="url(#p0f4008fe2d)" d="M 170.125917 220.177474 
L 170.125917 194.422276 
" style="fill:none;stroke:#1f77b4;stroke-width:1.5;"/>
   </g>
   <g id="LineCollection_3">
    <path clip-path="url(#p0f4008fe2d)" d="M 189.092544 204.669132 
L 189.092544 176.435744 
" style="fill:none;stroke:#1f77b4;stroke-width:1.5;"/>
    <path clip-path="url(#p0f4008fe2d)" d="M 189.287674 211.209081 
L 189.287674 181.94098 
" style="fill:none;stroke:#1f77b4;stroke-width:1.5;"/>
    <path clip-path="url(#p0f4008fe2d)" d="M 207.317678 215.607721 
L 207.317678 187.473201 
" style="fill:none;stroke:#1f77b4;stroke-width:1.5;"/>
    <path clip-path="url(#p0f4008fe2d)" d="M 207.961606 213.911147 
L 207.961606 185.910117 
" style="fill:none;stroke:#1f77b4;stroke-width:1.5;"/>
   </g>
   <g id="LineCollection_4">
    <path clip-path="url(#p0f4008fe2d)" d="M 292.53091 130.008701 
L 292.53091 101.230769 
" style="fill:none;stroke:#1f77b4;stroke-width:1.5;"/>
    <path clip-path="url(#p0f4008fe2d)" d="M 283.223213 138.017505 
L 283.223213 125.159937 
" style="fill:none;stroke:#1f77b4;stroke-width:1.5;"/>
    <path clip-path="url(#p0f4008fe2d)" d="M 273.798439 165.027277 
L 273.798439 156.872366 
" style="fill:none;stroke:#1f77b4;stroke-width:1.5;"/>
    <path clip-path="url(#p0f4008fe2d)" d="M 264.490742 178.639328 
L 264.490742 171.232017 
" style="fill:none;stroke:#1f77b4;stroke-width:1.5;"/>
    <path clip-path="url(#p0f4008fe2d)" d="M 255.319636 183.782485 
L 255.319636 175.811574 
" style="fill:none;stroke:#1f77b4;stroke-width:1.5;"/>
    <path clip-path="url(#p0f4008fe2d)" d="M 245.816809 180.552245 
L 245.816809 171.686956 
" style="fill:none;stroke:#1f77b4;stroke-width:1.5;"/>
    <path clip-path="url(#p0f4008fe2d)" d="M 236.470087 176.366711 
L 236.470087 166.31531 
" style="fill:none;stroke:#1f77b4;stroke-width:1.5;"/>
    <path clip-path="url(#p0f4008fe2d)" d="M 227.084338 172.600292 
L 227.084338 161.369963 
" style="fill:none;stroke:#1f77b4;stroke-width:1.5;"/>
    <path clip-path="url(#p0f4008fe2d)" d="M 217.601024 173.687433 
L 217.601024 162.254218 
" style="fill:none;stroke:#1f77b4;stroke-width:1.5;"/>
    <path clip-path="url(#p0f4008fe2d)" d="M 208.273814 177.174713 
L 208.273814 166.003942 
" style="fill:none;stroke:#1f77b4;stroke-width:1.5;"/>
   </g>
   <g id="LineCollection_5">
    <path clip-path="url(#p0f4008fe2d)" d="M 338.991342 108.536472 
L 338.991342 90.867121 
" style="fill:none;stroke:#1f77b4;stroke-width:1.5;"/>
    <path clip-path="url(#p0f4008fe2d)" d="M 339.088907 134.36764 
L 339.088907 106.050251 
" style="fill:none;stroke:#1f77b4;stroke-width:1.5;"/>
    <path clip-path="url(#p0f4008fe2d)" d="M 331.810561 114.388706 
L 331.810561 99.207133 
" style="fill:none;stroke:#1f77b4;stroke-width:1.5;"/>
    <path clip-path="url(#p0f4008fe2d)" d="M 331.556893 119.829842 
L 331.556893 99.059032 
" style="fill:none;stroke:#1f77b4;stroke-width:1.5;"/>
    <path clip-path="url(#p0f4008fe2d)" d="M 326.132281 110.033588 
L 326.132281 95.408154 
" style="fill:none;stroke:#1f77b4;stroke-width:1.5;"/>
    <path clip-path="url(#p0f4008fe2d)" d="M 325.937151 99.837008 
L 325.937151 79.897032 
" style="fill:none;stroke:#1f77b4;stroke-width:1.5;"/>
    <path clip-path="url(#p0f4008fe2d)" d="M 320.51254 104.243671 
L 320.51254 87.38691 
" style="fill:none;stroke:#1f77b4;stroke-width:1.5;"/>
    <path clip-path="url(#p0f4008fe2d)" d="M 320.31741 113.030435 
L 320.31741 90.28844 
" style="fill:none;stroke:#1f77b4;stroke-width:1.5;"/>
    <path clip-path="url(#p0f4008fe2d)" d="M 316.66848 95.49855 
L 316.66848 75.706216 
" style="fill:none;stroke:#1f77b4;stroke-width:1.5;"/>
    <path clip-path="url(#p0f4008fe2d)" d="M 316.570915 84.250331 
L 316.570915 53.59359 
" style="fill:none;stroke:#1f77b4;stroke-width:1.5;"/>
    <path clip-path="url(#p0f4008fe2d)" d="M 312.941499 91.274073 
L 312.941499 66.883326 
" style="fill:none;stroke:#1f77b4;stroke-width:1.5;"/>
    <path clip-path="url(#p0f4008fe2d)" d="M 312.843934 117.747428 
L 312.843934 79.273799 
" style="fill:none;stroke:#1f77b4;stroke-width:1.5;"/>
    <path clip-path="url(#p0f4008fe2d)" d="M 309.175492 95.881094 
L 309.175492 69.458604 
" style="fill:none;stroke:#1f77b4;stroke-width:1.5;"/>
    <path clip-path="url(#p0f4008fe2d)" d="M 309.058414 106.207039 
L 309.058414 59.829966 
" style="fill:none;stroke:#1f77b4;stroke-width:1.5;"/>
    <path clip-path="url(#p0f4008fe2d)" d="M 305.389971 159.446789 
L 305.389971 126.391956 
" style="fill:none;stroke:#1f77b4;stroke-width:1.5;"/>
    <path clip-path="url(#p0f4008fe2d)" d="M 305.292406 145.521895 
L 305.292406 87.083475 
" style="fill:none;stroke:#1f77b4;stroke-width:1.5;"/>
    <path clip-path="url(#p0f4008fe2d)" d="M 301.623964 135.177363 
L 301.623964 99.251228 
" style="fill:none;stroke:#1f77b4;stroke-width:1.5;"/>
    <path clip-path="url(#p0f4008fe2d)" d="M 301.526399 99.857246 
L 301.526399 32.323636 
" style="fill:none;stroke:#1f77b4;stroke-width:1.5;"/>
    <path clip-path="url(#p0f4008fe2d)" d="M 296.101788 125.273013 
L 296.101788 89.298053 
" style="fill:none;stroke:#1f77b4;stroke-width:1.5;"/>
    <path clip-path="url(#p0f4008fe2d)" d="M 295.906658 125.27432 
L 295.906658 77.873686 
" style="fill:none;stroke:#1f77b4;stroke-width:1.5;"/>
    <path clip-path="url(#p0f4008fe2d)" d="M 290.521072 129.173979 
L 290.521072 96.380142 
" style="fill:none;stroke:#1f77b4;stroke-width:1.5;"/>
    <path clip-path="url(#p0f4008fe2d)" d="M 290.325942 127.11865 
L 290.325942 98.433866 
" style="fill:none;stroke:#1f77b4;stroke-width:1.5;"/>
    <path clip-path="url(#p0f4008fe2d)" d="M 284.940357 124.048819 
L 284.940357 94.154782 
" style="fill:none;stroke:#1f77b4;stroke-width:1.5;"/>
    <path clip-path="url(#p0f4008fe2d)" d="M 284.725714 140.315728 
L 284.725714 121.016541 
" style="fill:none;stroke:#1f77b4;stroke-width:1.5;"/>
    <path clip-path="url(#p0f4008fe2d)" d="M 279.340128 139.510581 
L 279.340128 111.188658 
" style="fill:none;stroke:#1f77b4;stroke-width:1.5;"/>
    <path clip-path="url(#p0f4008fe2d)" d="M 279.105972 147.285578 
L 279.105972 131.056593 
" style="fill:none;stroke:#1f77b4;stroke-width:1.5;"/>
    <path clip-path="url(#p0f4008fe2d)" d="M 273.778926 112.541641 
L 273.778926 78.478186 
" style="fill:none;stroke:#1f77b4;stroke-width:1.5;"/>
    <path clip-path="url(#p0f4008fe2d)" d="M 273.505744 150.780727 
L 273.505744 135.039692 
" style="fill:none;stroke:#1f77b4;stroke-width:1.5;"/>
    <path clip-path="url(#p0f4008fe2d)" d="M 268.100645 138.67172 
L 268.100645 80.039055 
" style="fill:none;stroke:#1f77b4;stroke-width:1.5;"/>
    <path clip-path="url(#p0f4008fe2d)" d="M 284.257402 150.587659 
L 284.257402 136.48798 
" style="fill:none;stroke:#1f77b4;stroke-width:1.5;"/>
    <path clip-path="url(#p0f4008fe2d)" d="M 284.667175 158.873246 
L 284.667175 136.218338 
" style="fill:none;stroke:#1f77b4;stroke-width:1.5;"/>
    <path clip-path="url(#p0f4008fe2d)" d="M 279.301102 157.793923 
L 279.301102 147.828931 
" style="fill:none;stroke:#1f77b4;stroke-width:1.5;"/>
    <path clip-path="url(#p0f4008fe2d)" d="M 279.086459 167.504713 
L 279.086459 152.003613 
" style="fill:none;stroke:#1f77b4;stroke-width:1.5;"/>
    <path clip-path="url(#p0f4008fe2d)" d="M 273.778926 181.35032 
L 273.778926 173.418634 
" style="fill:none;stroke:#1f77b4;stroke-width:1.5;"/>
    <path clip-path="url(#p0f4008fe2d)" d="M 273.486231 182.953078 
L 273.486231 171.216205 
" style="fill:none;stroke:#1f77b4;stroke-width:1.5;"/>
    <path clip-path="url(#p0f4008fe2d)" d="M 268.178697 185.801754 
L 268.178697 178.3311 
" style="fill:none;stroke:#1f77b4;stroke-width:1.5;"/>
    <path clip-path="url(#p0f4008fe2d)" d="M 267.905515 189.941579 
L 267.905515 180.493042 
" style="fill:none;stroke:#1f77b4;stroke-width:1.5;"/>
   </g>
   <g id="LineCollection_6">
    <path clip-path="url(#p0f4008fe2d)" d="M 339.459654 182.632108 
L 339.459654 116.928044 
" style="fill:none;stroke:#1f77b4;stroke-width:1.5;"/>
    <path clip-path="url(#p0f4008fe2d)" d="M 338.952316 154.530699 
L 338.952316 95.152892 
" style="fill:none;stroke:#1f77b4;stroke-width:1.5;"/>
    <path clip-path="url(#p0f4008fe2d)" d="M 329.917801 132.157417 
L 329.917801 92.475142 
" style="fill:none;stroke:#1f77b4;stroke-width:1.5;"/>
    <path clip-path="url(#p0f4008fe2d)" d="M 320.571079 121.464835 
L 320.571079 75.624273 
" style="fill:none;stroke:#1f77b4;stroke-width:1.5;"/>
    <path clip-path="url(#p0f4008fe2d)" d="M 311.302408 155.277259 
L 311.302408 81.279606 
" style="fill:none;stroke:#1f77b4;stroke-width:1.5;"/>
    <path clip-path="url(#p0f4008fe2d)" d="M 301.838607 153.874134 
L 301.838607 78.855419 
" style="fill:none;stroke:#1f77b4;stroke-width:1.5;"/>
   </g>
   <g id="LineCollection_7">
    <path clip-path="url(#p0f4008fe2d)" d="M 133.441493 213.095998 
L 133.441493 208.461299 
" style="fill:none;stroke:#1f77b4;stroke-width:1.5;"/>
    <path clip-path="url(#p0f4008fe2d)" d="M 133.187824 210.757767 
L 133.187824 206.035362 
" style="fill:none;stroke:#1f77b4;stroke-width:1.5;"/>
    <path clip-path="url(#p0f4008fe2d)" d="M 151.334906 207.438938 
L 151.334906 202.485682 
" style="fill:none;stroke:#1f77b4;stroke-width:1.5;"/>
    <path clip-path="url(#p0f4008fe2d)" d="M 151.803218 207.802428 
L 151.803218 203.237869 
" style="fill:none;stroke:#1f77b4;stroke-width:1.5;"/>
    <path clip-path="url(#p0f4008fe2d)" d="M 170.028352 206.266452 
L 170.028352 201.47691 
" style="fill:none;stroke:#1f77b4;stroke-width:1.5;"/>
    <path clip-path="url(#p0f4008fe2d)" d="M 170.516176 204.312521 
L 170.516176 199.206194 
" style="fill:none;stroke:#1f77b4;stroke-width:1.5;"/>
    <path clip-path="url(#p0f4008fe2d)" d="M 188.682771 202.472827 
L 188.682771 196.84807 
" style="fill:none;stroke:#1f77b4;stroke-width:1.5;"/>
    <path clip-path="url(#p0f4008fe2d)" d="M 189.170596 201.191534 
L 189.170596 197.146439 
" style="fill:none;stroke:#1f77b4;stroke-width:1.5;"/>
    <path clip-path="url(#p0f4008fe2d)" d="M 207.493295 197.290887 
L 207.493295 193.659866 
" style="fill:none;stroke:#1f77b4;stroke-width:1.5;"/>
    <path clip-path="url(#p0f4008fe2d)" d="M 207.864042 198.932427 
L 207.864042 195.360541 
" style="fill:none;stroke:#1f77b4;stroke-width:1.5;"/>
    <path clip-path="url(#p0f4008fe2d)" d="M 226.050149 201.324071 
L 226.050149 197.727694 
" style="fill:none;stroke:#1f77b4;stroke-width:1.5;"/>
    <path clip-path="url(#p0f4008fe2d)" d="M 226.557487 199.599119 
L 226.557487 195.8241 
" style="fill:none;stroke:#1f77b4;stroke-width:1.5;"/>
    <path clip-path="url(#p0f4008fe2d)" d="M 244.880186 207.860232 
L 244.880186 203.845111 
" style="fill:none;stroke:#1f77b4;stroke-width:1.5;"/>
    <path clip-path="url(#p0f4008fe2d)" d="M 245.289959 209.029939 
L 245.289959 205.105449 
" style="fill:none;stroke:#1f77b4;stroke-width:1.5;"/>
   </g>
   <g id="LineCollection_8">
    <path clip-path="url(#p0f4008fe2d)" d="M 198.888066 201.269048 
L 198.888066 197.530963 
" style="fill:none;stroke:#1f77b4;stroke-width:1.5;"/>
    <path clip-path="url(#p0f4008fe2d)" d="M 198.575858 200.683434 
L 198.575858 197.011673 
" style="fill:none;stroke:#1f77b4;stroke-width:1.5;"/>
    <path clip-path="url(#p0f4008fe2d)" d="M 207.434756 197.273616 
L 207.434756 193.496944 
" style="fill:none;stroke:#1f77b4;stroke-width:1.5;"/>
    <path clip-path="url(#p0f4008fe2d)" d="M 207.883554 200.645997 
L 207.883554 196.855728 
" style="fill:none;stroke:#1f77b4;stroke-width:1.5;"/>
    <path clip-path="url(#p0f4008fe2d)" d="M 216.644888 197.288052 
L 216.644888 193.623007 
" style="fill:none;stroke:#1f77b4;stroke-width:1.5;"/>
    <path clip-path="url(#p0f4008fe2d)" d="M 217.152225 199.021425 
L 217.152225 195.21648 
" style="fill:none;stroke:#1f77b4;stroke-width:1.5;"/>
    <path clip-path="url(#p0f4008fe2d)" d="M 226.147714 198.937416 
L 226.147714 195.016907 
" style="fill:none;stroke:#1f77b4;stroke-width:1.5;"/>
    <path clip-path="url(#p0f4008fe2d)" d="M 226.577 198.953752 
L 226.577 195.050242 
" style="fill:none;stroke:#1f77b4;stroke-width:1.5;"/>
    <path clip-path="url(#p0f4008fe2d)" d="M 235.474924 201.343018 
L 235.474924 197.338355 
" style="fill:none;stroke:#1f77b4;stroke-width:1.5;"/>
    <path clip-path="url(#p0f4008fe2d)" d="M 235.943236 200.832653 
L 235.943236 196.642168 
" style="fill:none;stroke:#1f77b4;stroke-width:1.5;"/>
    <path clip-path="url(#p0f4008fe2d)" d="M 244.821647 205.020213 
L 244.821647 200.967005 
" style="fill:none;stroke:#1f77b4;stroke-width:1.5;"/>
    <path clip-path="url(#p0f4008fe2d)" d="M 245.309472 204.502114 
L 245.309472 200.170085 
" style="fill:none;stroke:#1f77b4;stroke-width:1.5;"/>
    <path clip-path="url(#p0f4008fe2d)" d="M 254.207396 210.505942 
L 254.207396 205.978775 
" style="fill:none;stroke:#1f77b4;stroke-width:1.5;"/>
    <path clip-path="url(#p0f4008fe2d)" d="M 254.675707 212.668998 
L 254.675707 207.893721 
" style="fill:none;stroke:#1f77b4;stroke-width:1.5;"/>
    <path clip-path="url(#p0f4008fe2d)" d="M 263.554118 205.125414 
L 263.554118 199.434208 
" style="fill:none;stroke:#1f77b4;stroke-width:1.5;"/>
    <path clip-path="url(#p0f4008fe2d)" d="M 264.041943 206.248141 
L 264.041943 200.71716 
" style="fill:none;stroke:#1f77b4;stroke-width:1.5;"/>
    <path clip-path="url(#p0f4008fe2d)" d="M 272.881328 196.622883 
L 272.881328 189.045274 
" style="fill:none;stroke:#1f77b4;stroke-width:1.5;"/>
    <path clip-path="url(#p0f4008fe2d)" d="M 273.330127 196.42526 
L 273.330127 189.196233 
" style="fill:none;stroke:#1f77b4;stroke-width:1.5;"/>
   </g>
   <g id="LineCollection_9">
    <path clip-path="url(#p0f4008fe2d)" d="M 198.927092 201.474907 
L 198.927092 198.112753 
" style="fill:none;stroke:#1f77b4;stroke-width:1.5;"/>
    <path clip-path="url(#p0f4008fe2d)" d="M 198.536832 199.18601 
L 198.536832 195.664924 
" style="fill:none;stroke:#1f77b4;stroke-width:1.5;"/>
    <path clip-path="url(#p0f4008fe2d)" d="M 207.434756 200.680926 
L 207.434756 196.992807 
" style="fill:none;stroke:#1f77b4;stroke-width:1.5;"/>
    <path clip-path="url(#p0f4008fe2d)" d="M 207.883554 199.442561 
L 207.883554 195.429617 
" style="fill:none;stroke:#1f77b4;stroke-width:1.5;"/>
    <path clip-path="url(#p0f4008fe2d)" d="M 216.722939 198.131017 
L 216.722939 194.285664 
" style="fill:none;stroke:#1f77b4;stroke-width:1.5;"/>
    <path clip-path="url(#p0f4008fe2d)" d="M 217.113199 199.709478 
L 217.113199 196.036609 
" style="fill:none;stroke:#1f77b4;stroke-width:1.5;"/>
    <path clip-path="url(#p0f4008fe2d)" d="M 226.128201 197.531667 
L 226.128201 193.601263 
" style="fill:none;stroke:#1f77b4;stroke-width:1.5;"/>
    <path clip-path="url(#p0f4008fe2d)" d="M 226.537974 196.374124 
L 226.537974 192.768979 
" style="fill:none;stroke:#1f77b4;stroke-width:1.5;"/>
    <path clip-path="url(#p0f4008fe2d)" d="M 235.455411 199.275578 
L 235.455411 195.51752 
" style="fill:none;stroke:#1f77b4;stroke-width:1.5;"/>
    <path clip-path="url(#p0f4008fe2d)" d="M 235.923723 202.669305 
L 235.923723 199.096331 
" style="fill:none;stroke:#1f77b4;stroke-width:1.5;"/>
   </g>
   <g id="LineCollection_10">
    <path clip-path="url(#p0f4008fe2d)" d="M 343.850077 107.072743 
L 343.850077 91.538788 
" style="fill:none;stroke:#ff0000;stroke-width:1.5;"/>
    <path clip-path="url(#p0f4008fe2d)" d="M 363.363068 91.854872 
L 363.363068 67.784495 
" style="fill:none;stroke:#ff0000;stroke-width:1.5;"/>
    <path clip-path="url(#p0f4008fe2d)" d="M 334.093581 105.562056 
L 334.093581 98.084242 
" style="fill:none;stroke:#ff0000;stroke-width:1.5;"/>
    <path clip-path="url(#p0f4008fe2d)" d="M 353.606573 103.802401 
L 353.606573 95.253709 
" style="fill:none;stroke:#ff0000;stroke-width:1.5;"/>
    <path clip-path="url(#p0f4008fe2d)" d="M 324.337086 97.39253 
L 324.337086 90.160823 
" style="fill:none;stroke:#ff0000;stroke-width:1.5;"/>
    <path clip-path="url(#p0f4008fe2d)" d="M 314.58059 91.939378 
L 314.58059 86.730262 
" style="fill:none;stroke:#ff0000;stroke-width:1.5;"/>
    <path clip-path="url(#p0f4008fe2d)" d="M 304.824095 90.974216 
L 304.824095 85.246701 
" style="fill:none;stroke:#ff0000;stroke-width:1.5;"/>
    <path clip-path="url(#p0f4008fe2d)" d="M 295.067599 84.243492 
L 295.067599 76.987809 
" style="fill:none;stroke:#ff0000;stroke-width:1.5;"/>
    <path clip-path="url(#p0f4008fe2d)" d="M 285.311103 116.37387 
L 285.311103 109.119664 
" style="fill:none;stroke:#ff0000;stroke-width:1.5;"/>
    <path clip-path="url(#p0f4008fe2d)" d="M 275.554608 156.136901 
L 275.554608 146.134052 
" style="fill:none;stroke:#ff0000;stroke-width:1.5;"/>
    <path clip-path="url(#p0f4008fe2d)" d="M 265.798112 184.585018 
L 265.798112 175.776372 
" style="fill:none;stroke:#ff0000;stroke-width:1.5;"/>
    <path clip-path="url(#p0f4008fe2d)" d="M 246.285121 193.213504 
L 246.285121 187.046486 
" style="fill:none;stroke:#ff0000;stroke-width:1.5;"/>
    <path clip-path="url(#p0f4008fe2d)" d="M 256.041617 192.720875 
L 256.041617 185.168647 
" style="fill:none;stroke:#ff0000;stroke-width:1.5;"/>
    <path clip-path="url(#p0f4008fe2d)" d="M 226.77213 191.075435 
L 226.77213 185.406189 
" style="fill:none;stroke:#ff0000;stroke-width:1.5;"/>
    <path clip-path="url(#p0f4008fe2d)" d="M 207.259139 188.422268 
L 207.259139 182.9671 
" style="fill:none;stroke:#ff0000;stroke-width:1.5;"/>
    <path clip-path="url(#p0f4008fe2d)" d="M 265.798112 183.469621 
L 265.798112 174.592315 
" style="fill:none;stroke:#ff0000;stroke-width:1.5;"/>
   </g>
   <g id="line2d_27">
    <defs>
     <path d="M -3 3 
L 3 -3 
M -3 -3 
L 3 3 
" id="mbb8f984506" style="stroke:#1f77b4;"/>
    </defs>
    <g clip-path="url(#p0f4008fe2d)">
     <use style="fill:#1f77b4;stroke:#1f77b4;" x="59.253101" xlink:href="#mbb8f984506" y="212.398731"/>
     <use style="fill:#1f77b4;stroke:#1f77b4;" x="58.999432" xlink:href="#mbb8f984506" y="218.515822"/>
     <use style="fill:#1f77b4;stroke:#1f77b4;" x="76.892845" xlink:href="#mbb8f984506" y="219.564408"/>
     <use style="fill:#1f77b4;stroke:#1f77b4;" x="77.166027" xlink:href="#mbb8f984506" y="211.555697"/>
     <use style="fill:#1f77b4;stroke:#1f77b4;" x="95.449699" xlink:href="#mbb8f984506" y="208.98763"/>
     <use style="fill:#1f77b4;stroke:#1f77b4;" x="95.761907" xlink:href="#mbb8f984506" y="211.965401"/>
     <use style="fill:#1f77b4;stroke:#1f77b4;" x="114.006554" xlink:href="#mbb8f984506" y="205.578571"/>
     <use style="fill:#1f77b4;stroke:#1f77b4;" x="114.299249" xlink:href="#mbb8f984506" y="202.301216"/>
     <use style="fill:#1f77b4;stroke:#1f77b4;" x="132.621948" xlink:href="#mbb8f984506" y="201.583232"/>
     <use style="fill:#1f77b4;stroke:#1f77b4;" x="132.875616" xlink:href="#mbb8f984506" y="205.83791"/>
     <use style="fill:#1f77b4;stroke:#1f77b4;" x="151.217828" xlink:href="#mbb8f984506" y="206.030133"/>
     <use style="fill:#1f77b4;stroke:#1f77b4;" x="151.627601" xlink:href="#mbb8f984506" y="203.789958"/>
    </g>
   </g>
   <g id="line2d_28">
    <g clip-path="url(#p0f4008fe2d)">
     <use style="fill:#1f77b4;stroke:#1f77b4;" x="151.822731" xlink:href="#mbb8f984506" y="204.089641"/>
     <use style="fill:#1f77b4;stroke:#1f77b4;" x="170.125917" xlink:href="#mbb8f984506" y="207.299875"/>
    </g>
   </g>
   <g id="line2d_29">
    <g clip-path="url(#p0f4008fe2d)">
     <use style="fill:#1f77b4;stroke:#1f77b4;" x="189.092544" xlink:href="#mbb8f984506" y="190.552438"/>
     <use style="fill:#1f77b4;stroke:#1f77b4;" x="189.287674" xlink:href="#mbb8f984506" y="196.57503"/>
     <use style="fill:#1f77b4;stroke:#1f77b4;" x="207.317678" xlink:href="#mbb8f984506" y="201.540461"/>
     <use style="fill:#1f77b4;stroke:#1f77b4;" x="207.961606" xlink:href="#mbb8f984506" y="199.910632"/>
    </g>
   </g>
   <g id="line2d_30">
    <g clip-path="url(#p0f4008fe2d)">
     <use style="fill:#1f77b4;stroke:#1f77b4;" x="292.53091" xlink:href="#mbb8f984506" y="115.619735"/>
     <use style="fill:#1f77b4;stroke:#1f77b4;" x="283.223213" xlink:href="#mbb8f984506" y="131.588721"/>
     <use style="fill:#1f77b4;stroke:#1f77b4;" x="273.798439" xlink:href="#mbb8f984506" y="160.949821"/>
     <use style="fill:#1f77b4;stroke:#1f77b4;" x="264.490742" xlink:href="#mbb8f984506" y="174.935672"/>
     <use style="fill:#1f77b4;stroke:#1f77b4;" x="255.319636" xlink:href="#mbb8f984506" y="179.797029"/>
     <use style="fill:#1f77b4;stroke:#1f77b4;" x="245.816809" xlink:href="#mbb8f984506" y="176.119601"/>
     <use style="fill:#1f77b4;stroke:#1f77b4;" x="236.470087" xlink:href="#mbb8f984506" y="171.341011"/>
     <use style="fill:#1f77b4;stroke:#1f77b4;" x="227.084338" xlink:href="#mbb8f984506" y="166.985127"/>
     <use style="fill:#1f77b4;stroke:#1f77b4;" x="217.601024" xlink:href="#mbb8f984506" y="167.970826"/>
     <use style="fill:#1f77b4;stroke:#1f77b4;" x="208.273814" xlink:href="#mbb8f984506" y="171.589327"/>
    </g>
   </g>
   <g id="line2d_31">
    <g clip-path="url(#p0f4008fe2d)">
     <use style="fill:#1f77b4;stroke:#1f77b4;" x="338.991342" xlink:href="#mbb8f984506" y="99.701796"/>
     <use style="fill:#1f77b4;stroke:#1f77b4;" x="339.088907" xlink:href="#mbb8f984506" y="120.208945"/>
     <use style="fill:#1f77b4;stroke:#1f77b4;" x="331.810561" xlink:href="#mbb8f984506" y="106.79792"/>
     <use style="fill:#1f77b4;stroke:#1f77b4;" x="331.556893" xlink:href="#mbb8f984506" y="109.444437"/>
     <use style="fill:#1f77b4;stroke:#1f77b4;" x="326.132281" xlink:href="#mbb8f984506" y="102.720871"/>
     <use style="fill:#1f77b4;stroke:#1f77b4;" x="325.937151" xlink:href="#mbb8f984506" y="89.86702"/>
     <use style="fill:#1f77b4;stroke:#1f77b4;" x="320.51254" xlink:href="#mbb8f984506" y="95.815291"/>
     <use style="fill:#1f77b4;stroke:#1f77b4;" x="320.31741" xlink:href="#mbb8f984506" y="101.659438"/>
     <use style="fill:#1f77b4;stroke:#1f77b4;" x="316.66848" xlink:href="#mbb8f984506" y="85.602383"/>
     <use style="fill:#1f77b4;stroke:#1f77b4;" x="316.570915" xlink:href="#mbb8f984506" y="68.92196"/>
     <use style="fill:#1f77b4;stroke:#1f77b4;" x="312.941499" xlink:href="#mbb8f984506" y="79.078699"/>
     <use style="fill:#1f77b4;stroke:#1f77b4;" x="312.843934" xlink:href="#mbb8f984506" y="98.510613"/>
     <use style="fill:#1f77b4;stroke:#1f77b4;" x="309.175492" xlink:href="#mbb8f984506" y="82.669849"/>
     <use style="fill:#1f77b4;stroke:#1f77b4;" x="309.058414" xlink:href="#mbb8f984506" y="83.018503"/>
     <use style="fill:#1f77b4;stroke:#1f77b4;" x="305.389971" xlink:href="#mbb8f984506" y="142.919373"/>
     <use style="fill:#1f77b4;stroke:#1f77b4;" x="305.292406" xlink:href="#mbb8f984506" y="116.302685"/>
     <use style="fill:#1f77b4;stroke:#1f77b4;" x="301.623964" xlink:href="#mbb8f984506" y="117.214296"/>
     <use style="fill:#1f77b4;stroke:#1f77b4;" x="301.526399" xlink:href="#mbb8f984506" y="66.090441"/>
     <use style="fill:#1f77b4;stroke:#1f77b4;" x="296.101788" xlink:href="#mbb8f984506" y="107.285533"/>
     <use style="fill:#1f77b4;stroke:#1f77b4;" x="295.906658" xlink:href="#mbb8f984506" y="101.574003"/>
     <use style="fill:#1f77b4;stroke:#1f77b4;" x="290.521072" xlink:href="#mbb8f984506" y="112.77706"/>
     <use style="fill:#1f77b4;stroke:#1f77b4;" x="290.325942" xlink:href="#mbb8f984506" y="112.776258"/>
     <use style="fill:#1f77b4;stroke:#1f77b4;" x="284.940357" xlink:href="#mbb8f984506" y="109.1018"/>
     <use style="fill:#1f77b4;stroke:#1f77b4;" x="284.725714" xlink:href="#mbb8f984506" y="130.666134"/>
     <use style="fill:#1f77b4;stroke:#1f77b4;" x="279.340128" xlink:href="#mbb8f984506" y="125.34962"/>
     <use style="fill:#1f77b4;stroke:#1f77b4;" x="279.105972" xlink:href="#mbb8f984506" y="139.171086"/>
     <use style="fill:#1f77b4;stroke:#1f77b4;" x="273.778926" xlink:href="#mbb8f984506" y="95.509913"/>
     <use style="fill:#1f77b4;stroke:#1f77b4;" x="273.505744" xlink:href="#mbb8f984506" y="142.91021"/>
     <use style="fill:#1f77b4;stroke:#1f77b4;" x="268.100645" xlink:href="#mbb8f984506" y="109.355387"/>
     <use style="fill:#1f77b4;stroke:#1f77b4;" x="284.257402" xlink:href="#mbb8f984506" y="143.53782"/>
     <use style="fill:#1f77b4;stroke:#1f77b4;" x="284.667175" xlink:href="#mbb8f984506" y="147.545792"/>
     <use style="fill:#1f77b4;stroke:#1f77b4;" x="279.301102" xlink:href="#mbb8f984506" y="152.811427"/>
     <use style="fill:#1f77b4;stroke:#1f77b4;" x="279.086459" xlink:href="#mbb8f984506" y="159.754163"/>
     <use style="fill:#1f77b4;stroke:#1f77b4;" x="273.778926" xlink:href="#mbb8f984506" y="177.384477"/>
     <use style="fill:#1f77b4;stroke:#1f77b4;" x="273.486231" xlink:href="#mbb8f984506" y="177.084642"/>
     <use style="fill:#1f77b4;stroke:#1f77b4;" x="268.178697" xlink:href="#mbb8f984506" y="182.066427"/>
     <use style="fill:#1f77b4;stroke:#1f77b4;" x="267.905515" xlink:href="#mbb8f984506" y="185.217311"/>
    </g>
   </g>
   <g id="line2d_32">
    <g clip-path="url(#p0f4008fe2d)">
     <use style="fill:#1f77b4;stroke:#1f77b4;" x="339.459654" xlink:href="#mbb8f984506" y="149.780076"/>
     <use style="fill:#1f77b4;stroke:#1f77b4;" x="338.952316" xlink:href="#mbb8f984506" y="124.841795"/>
     <use style="fill:#1f77b4;stroke:#1f77b4;" x="329.917801" xlink:href="#mbb8f984506" y="112.316279"/>
     <use style="fill:#1f77b4;stroke:#1f77b4;" x="320.571079" xlink:href="#mbb8f984506" y="98.544554"/>
     <use style="fill:#1f77b4;stroke:#1f77b4;" x="311.302408" xlink:href="#mbb8f984506" y="118.278433"/>
     <use style="fill:#1f77b4;stroke:#1f77b4;" x="301.838607" xlink:href="#mbb8f984506" y="116.364777"/>
    </g>
   </g>
   <g id="line2d_33">
    <g clip-path="url(#p0f4008fe2d)">
     <use style="fill:#1f77b4;stroke:#1f77b4;" x="133.441493" xlink:href="#mbb8f984506" y="210.778649"/>
     <use style="fill:#1f77b4;stroke:#1f77b4;" x="133.187824" xlink:href="#mbb8f984506" y="208.396565"/>
     <use style="fill:#1f77b4;stroke:#1f77b4;" x="151.334906" xlink:href="#mbb8f984506" y="204.96231"/>
     <use style="fill:#1f77b4;stroke:#1f77b4;" x="151.803218" xlink:href="#mbb8f984506" y="205.520148"/>
     <use style="fill:#1f77b4;stroke:#1f77b4;" x="170.028352" xlink:href="#mbb8f984506" y="203.871681"/>
     <use style="fill:#1f77b4;stroke:#1f77b4;" x="170.516176" xlink:href="#mbb8f984506" y="201.759358"/>
     <use style="fill:#1f77b4;stroke:#1f77b4;" x="188.682771" xlink:href="#mbb8f984506" y="199.660448"/>
     <use style="fill:#1f77b4;stroke:#1f77b4;" x="189.170596" xlink:href="#mbb8f984506" y="199.168986"/>
     <use style="fill:#1f77b4;stroke:#1f77b4;" x="207.493295" xlink:href="#mbb8f984506" y="195.475377"/>
     <use style="fill:#1f77b4;stroke:#1f77b4;" x="207.864042" xlink:href="#mbb8f984506" y="197.146484"/>
     <use style="fill:#1f77b4;stroke:#1f77b4;" x="226.050149" xlink:href="#mbb8f984506" y="199.525883"/>
     <use style="fill:#1f77b4;stroke:#1f77b4;" x="226.557487" xlink:href="#mbb8f984506" y="197.71161"/>
     <use style="fill:#1f77b4;stroke:#1f77b4;" x="244.880186" xlink:href="#mbb8f984506" y="205.852671"/>
     <use style="fill:#1f77b4;stroke:#1f77b4;" x="245.289959" xlink:href="#mbb8f984506" y="207.067694"/>
    </g>
   </g>
   <g id="line2d_34">
    <g clip-path="url(#p0f4008fe2d)">
     <use style="fill:#1f77b4;stroke:#1f77b4;" x="198.888066" xlink:href="#mbb8f984506" y="199.400005"/>
     <use style="fill:#1f77b4;stroke:#1f77b4;" x="198.575858" xlink:href="#mbb8f984506" y="198.847554"/>
     <use style="fill:#1f77b4;stroke:#1f77b4;" x="207.434756" xlink:href="#mbb8f984506" y="195.38528"/>
     <use style="fill:#1f77b4;stroke:#1f77b4;" x="207.883554" xlink:href="#mbb8f984506" y="198.750862"/>
     <use style="fill:#1f77b4;stroke:#1f77b4;" x="216.644888" xlink:href="#mbb8f984506" y="195.455529"/>
     <use style="fill:#1f77b4;stroke:#1f77b4;" x="217.152225" xlink:href="#mbb8f984506" y="197.118953"/>
     <use style="fill:#1f77b4;stroke:#1f77b4;" x="226.147714" xlink:href="#mbb8f984506" y="196.977161"/>
     <use style="fill:#1f77b4;stroke:#1f77b4;" x="226.577" xlink:href="#mbb8f984506" y="197.001997"/>
     <use style="fill:#1f77b4;stroke:#1f77b4;" x="235.474924" xlink:href="#mbb8f984506" y="199.340686"/>
     <use style="fill:#1f77b4;stroke:#1f77b4;" x="235.943236" xlink:href="#mbb8f984506" y="198.73741"/>
     <use style="fill:#1f77b4;stroke:#1f77b4;" x="244.821647" xlink:href="#mbb8f984506" y="202.993609"/>
     <use style="fill:#1f77b4;stroke:#1f77b4;" x="245.309472" xlink:href="#mbb8f984506" y="202.336099"/>
     <use style="fill:#1f77b4;stroke:#1f77b4;" x="254.207396" xlink:href="#mbb8f984506" y="208.242359"/>
     <use style="fill:#1f77b4;stroke:#1f77b4;" x="254.675707" xlink:href="#mbb8f984506" y="210.28136"/>
     <use style="fill:#1f77b4;stroke:#1f77b4;" x="263.554118" xlink:href="#mbb8f984506" y="202.279811"/>
     <use style="fill:#1f77b4;stroke:#1f77b4;" x="264.041943" xlink:href="#mbb8f984506" y="203.482651"/>
     <use style="fill:#1f77b4;stroke:#1f77b4;" x="272.881328" xlink:href="#mbb8f984506" y="192.834078"/>
     <use style="fill:#1f77b4;stroke:#1f77b4;" x="273.330127" xlink:href="#mbb8f984506" y="192.810746"/>
    </g>
   </g>
   <g id="line2d_35">
    <g clip-path="url(#p0f4008fe2d)">
     <use style="fill:#1f77b4;stroke:#1f77b4;" x="198.927092" xlink:href="#mbb8f984506" y="199.79383"/>
     <use style="fill:#1f77b4;stroke:#1f77b4;" x="198.536832" xlink:href="#mbb8f984506" y="197.425467"/>
     <use style="fill:#1f77b4;stroke:#1f77b4;" x="207.434756" xlink:href="#mbb8f984506" y="198.836866"/>
     <use style="fill:#1f77b4;stroke:#1f77b4;" x="207.883554" xlink:href="#mbb8f984506" y="197.436089"/>
     <use style="fill:#1f77b4;stroke:#1f77b4;" x="216.722939" xlink:href="#mbb8f984506" y="196.20834"/>
     <use style="fill:#1f77b4;stroke:#1f77b4;" x="217.113199" xlink:href="#mbb8f984506" y="197.873043"/>
     <use style="fill:#1f77b4;stroke:#1f77b4;" x="226.128201" xlink:href="#mbb8f984506" y="195.566465"/>
     <use style="fill:#1f77b4;stroke:#1f77b4;" x="226.537974" xlink:href="#mbb8f984506" y="194.571551"/>
     <use style="fill:#1f77b4;stroke:#1f77b4;" x="235.455411" xlink:href="#mbb8f984506" y="197.396549"/>
     <use style="fill:#1f77b4;stroke:#1f77b4;" x="235.923723" xlink:href="#mbb8f984506" y="200.882818"/>
    </g>
   </g>
   <g id="line2d_36">
    <defs>
     <path d="M -3 3 
L 3 3 
L 3 -3 
L -3 -3 
z
" id="m3f6d9fb0c0" style="stroke:#ff0000;stroke-linejoin:miter;"/>
    </defs>
    <g clip-path="url(#p0f4008fe2d)">
     <use style="fill:#ff0000;stroke:#ff0000;stroke-linejoin:miter;" x="343.850077" xlink:href="#m3f6d9fb0c0" y="99.305766"/>
     <use style="fill:#ff0000;stroke:#ff0000;stroke-linejoin:miter;" x="363.363068" xlink:href="#m3f6d9fb0c0" y="79.819684"/>
     <use style="fill:#ff0000;stroke:#ff0000;stroke-linejoin:miter;" x="334.093581" xlink:href="#m3f6d9fb0c0" y="101.823149"/>
     <use style="fill:#ff0000;stroke:#ff0000;stroke-linejoin:miter;" x="353.606573" xlink:href="#m3f6d9fb0c0" y="99.528055"/>
     <use style="fill:#ff0000;stroke:#ff0000;stroke-linejoin:miter;" x="324.337086" xlink:href="#m3f6d9fb0c0" y="93.776676"/>
     <use style="fill:#ff0000;stroke:#ff0000;stroke-linejoin:miter;" x="314.58059" xlink:href="#m3f6d9fb0c0" y="89.33482"/>
     <use style="fill:#ff0000;stroke:#ff0000;stroke-linejoin:miter;" x="304.824095" xlink:href="#m3f6d9fb0c0" y="88.110459"/>
     <use style="fill:#ff0000;stroke:#ff0000;stroke-linejoin:miter;" x="295.067599" xlink:href="#m3f6d9fb0c0" y="80.615651"/>
     <use style="fill:#ff0000;stroke:#ff0000;stroke-linejoin:miter;" x="285.311103" xlink:href="#m3f6d9fb0c0" y="112.746767"/>
     <use style="fill:#ff0000;stroke:#ff0000;stroke-linejoin:miter;" x="275.554608" xlink:href="#m3f6d9fb0c0" y="151.135477"/>
     <use style="fill:#ff0000;stroke:#ff0000;stroke-linejoin:miter;" x="265.798112" xlink:href="#m3f6d9fb0c0" y="180.180695"/>
     <use style="fill:#ff0000;stroke:#ff0000;stroke-linejoin:miter;" x="246.285121" xlink:href="#m3f6d9fb0c0" y="190.129995"/>
     <use style="fill:#ff0000;stroke:#ff0000;stroke-linejoin:miter;" x="256.041617" xlink:href="#m3f6d9fb0c0" y="188.944761"/>
     <use style="fill:#ff0000;stroke:#ff0000;stroke-linejoin:miter;" x="226.77213" xlink:href="#m3f6d9fb0c0" y="188.240812"/>
     <use style="fill:#ff0000;stroke:#ff0000;stroke-linejoin:miter;" x="207.259139" xlink:href="#m3f6d9fb0c0" y="185.694684"/>
     <use style="fill:#ff0000;stroke:#ff0000;stroke-linejoin:miter;" x="265.798112" xlink:href="#m3f6d9fb0c0" y="179.030968"/>
    </g>
   </g>
   <g id="patch_3">
    <path d="M 43.78125 239.88 
L 43.78125 22.44 
" style="fill:none;stroke:#000000;stroke-linecap:square;stroke-linejoin:miter;stroke-width:0.8;"/>
   </g>
   <g id="patch_4">
    <path d="M 378.58125 239.88 
L 378.58125 22.44 
" style="fill:none;stroke:#000000;stroke-linecap:square;stroke-linejoin:miter;stroke-width:0.8;"/>
   </g>
   <g id="patch_5">
    <path d="M 43.78125 239.88 
L 378.58125 239.88 
" style="fill:none;stroke:#000000;stroke-linecap:square;stroke-linejoin:miter;stroke-width:0.8;"/>
   </g>
   <g id="patch_6">
    <path d="M 43.78125 22.44 
L 378.58125 22.44 
" style="fill:none;stroke:#000000;stroke-linecap:square;stroke-linejoin:miter;stroke-width:0.8;"/>
   </g>
   <g id="text_16">
    <!-- CRN Bruker $\beta_{T_1}$ -->
    <defs>
     <path d="M 64.40625 67.28125 
L 64.40625 56.890625 
Q 59.421875 61.53125 53.78125 63.8125 
Q 48.140625 66.109375 41.796875 66.109375 
Q 29.296875 66.109375 22.65625 58.46875 
Q 16.015625 50.828125 16.015625 36.375 
Q 16.015625 21.96875 22.65625 14.328125 
Q 29.296875 6.6875 41.796875 6.6875 
Q 48.140625 6.6875 53.78125 8.984375 
Q 59.421875 11.28125 64.40625 15.921875 
L 64.40625 5.609375 
Q 59.234375 2.09375 53.4375 0.328125 
Q 47.65625 -1.421875 41.21875 -1.421875 
Q 24.65625 -1.421875 15.125 8.703125 
Q 5.609375 18.84375 5.609375 36.375 
Q 5.609375 53.953125 15.125 64.078125 
Q 24.65625 74.21875 41.21875 74.21875 
Q 47.75 74.21875 53.53125 72.484375 
Q 59.328125 70.75 64.40625 67.28125 
z
" id="DejaVuSans-43"/>
     <path d="M 44.390625 34.1875 
Q 47.5625 33.109375 50.5625 29.59375 
Q 53.5625 26.078125 56.59375 19.921875 
L 66.609375 0 
L 56 0 
L 46.6875 18.703125 
Q 43.0625 26.03125 39.671875 28.421875 
Q 36.28125 30.8125 30.421875 30.8125 
L 19.671875 30.8125 
L 19.671875 0 
L 9.8125 0 
L 9.8125 72.90625 
L 32.078125 72.90625 
Q 44.578125 72.90625 50.734375 67.671875 
Q 56.890625 62.453125 56.890625 51.90625 
Q 56.890625 45.015625 53.6875 40.46875 
Q 50.484375 35.9375 44.390625 34.1875 
z
M 19.671875 64.796875 
L 19.671875 38.921875 
L 32.078125 38.921875 
Q 39.203125 38.921875 42.84375 42.21875 
Q 46.484375 45.515625 46.484375 51.90625 
Q 46.484375 58.296875 42.84375 61.546875 
Q 39.203125 64.796875 32.078125 64.796875 
z
" id="DejaVuSans-52"/>
     <path d="M 9.8125 72.90625 
L 23.09375 72.90625 
L 55.421875 11.921875 
L 55.421875 72.90625 
L 64.984375 72.90625 
L 64.984375 0 
L 51.703125 0 
L 19.390625 60.984375 
L 19.390625 0 
L 9.8125 0 
z
" id="DejaVuSans-4e"/>
     <path d="M 19.671875 34.8125 
L 19.671875 8.109375 
L 35.5 8.109375 
Q 43.453125 8.109375 47.28125 11.40625 
Q 51.125 14.703125 51.125 21.484375 
Q 51.125 28.328125 47.28125 31.5625 
Q 43.453125 34.8125 35.5 34.8125 
z
M 19.671875 64.796875 
L 19.671875 42.828125 
L 34.28125 42.828125 
Q 41.5 42.828125 45.03125 45.53125 
Q 48.578125 48.25 48.578125 53.8125 
Q 48.578125 59.328125 45.03125 62.0625 
Q 41.5 64.796875 34.28125 64.796875 
z
M 9.8125 72.90625 
L 35.015625 72.90625 
Q 46.296875 72.90625 52.390625 68.21875 
Q 58.5 63.53125 58.5 54.890625 
Q 58.5 48.1875 55.375 44.234375 
Q 52.25 40.28125 46.1875 39.3125 
Q 53.46875 37.75 57.5 32.78125 
Q 61.53125 27.828125 61.53125 20.40625 
Q 61.53125 10.640625 54.890625 5.3125 
Q 48.25 0 35.984375 0 
L 9.8125 0 
z
" id="DejaVuSans-42"/>
     <path d="M 9.078125 75.984375 
L 18.109375 75.984375 
L 18.109375 31.109375 
L 44.921875 54.6875 
L 56.390625 54.6875 
L 27.390625 29.109375 
L 57.625 0 
L 45.90625 0 
L 18.109375 26.703125 
L 18.109375 0 
L 9.078125 0 
z
" id="DejaVuSans-6b"/>
     <path d="M 13.625 3.375 
L 8.9375 -20.796875 
L -0.09375 -20.796875 
L 14.5 54.34375 
Q 18.84375 76.609375 39.65625 76.609375 
Q 60.75 76.609375 57.171875 57.8125 
Q 54.734375 44.4375 45.21875 39.546875 
Q 58.015625 35.15625 55.515625 22.125 
Q 51.125 -1.078125 27.484375 -1.03125 
Q 17.140625 -0.984375 13.625 3.375 
z
M 15.921875 15.09375 
Q 19.671875 6.59375 29.296875 6.640625 
Q 43.359375 6.640625 46.34375 21.96875 
Q 49.03125 35.75 26.171875 34.671875 
L 27.78125 42.96875 
Q 45.453125 42.671875 48.53125 58.59375 
Q 50.640625 69.34375 39.203125 69.28125 
Q 26.421875 69.28125 23.484375 54.046875 
z
" id="DejaVuSans-Oblique-3b2"/>
     <path d="M 5.90625 72.90625 
L 67.578125 72.90625 
L 66.015625 64.59375 
L 39.984375 64.59375 
L 27.484375 0 
L 17.578125 0 
L 30.078125 64.59375 
L 4.296875 64.59375 
z
" id="DejaVuSans-Oblique-54"/>
    </defs>
    <g transform="translate(165.94125 16.44)scale(0.12 -0.12)">
     <use transform="translate(0 0.390625)" xlink:href="#DejaVuSans-43"/>
     <use transform="translate(69.824219 0.390625)" xlink:href="#DejaVuSans-52"/>
     <use transform="translate(139.306641 0.390625)" xlink:href="#DejaVuSans-4e"/>
     <use transform="translate(214.111328 0.390625)" xlink:href="#DejaVuSans-20"/>
     <use transform="translate(245.898438 0.390625)" xlink:href="#DejaVuSans-42"/>
     <use transform="translate(314.501953 0.390625)" xlink:href="#DejaVuSans-72"/>
     <use transform="translate(355.615234 0.390625)" xlink:href="#DejaVuSans-75"/>
     <use transform="translate(418.994141 0.390625)" xlink:href="#DejaVuSans-6b"/>
     <use transform="translate(476.904297 0.390625)" xlink:href="#DejaVuSans-65"/>
     <use transform="translate(538.427734 0.390625)" xlink:href="#DejaVuSans-72"/>
     <use transform="translate(579.541016 0.390625)" xlink:href="#DejaVuSans-20"/>
     <use transform="translate(611.328125 0.390625)" xlink:href="#DejaVuSans-Oblique-3b2"/>
     <use transform="translate(675.146484 -16.015625)scale(0.7)" xlink:href="#DejaVuSans-Oblique-54"/>
     <use transform="translate(717.905273 -27.5)scale(0.49)" xlink:href="#DejaVuSans-31"/>
    </g>
   </g>
   <g id="legend_1">
    <g id="patch_7">
     <path d="M 50.78125 234.88 
L 116.140625 234.88 
Q 118.140625 234.88 118.140625 232.88 
L 118.140625 219.201875 
Q 118.140625 217.201875 116.140625 217.201875 
L 50.78125 217.201875 
Q 48.78125 217.201875 48.78125 219.201875 
L 48.78125 232.88 
Q 48.78125 234.88 50.78125 234.88 
z
" style="fill:#ffffff;opacity:0.8;stroke:#cccccc;stroke-linejoin:miter;"/>
    </g>
    <g id="LineCollection_11">
     <path d="M 62.78125 230.300312 
L 62.78125 220.300312 
" style="fill:none;stroke:#ff0000;stroke-width:1.5;"/>
    </g>
    <g id="line2d_37"/>
    <g id="line2d_38">
     <g>
      <use style="fill:#ff0000;stroke:#ff0000;stroke-linejoin:miter;" x="62.78125" xlink:href="#m3f6d9fb0c0" y="225.300312"/>
     </g>
    </g>
    <g id="text_17">
     <!-- Bruker -->
     <g transform="translate(80.78125 228.800312)scale(0.1 -0.1)">
      <use xlink:href="#DejaVuSans-42"/>
      <use x="68.603516" xlink:href="#DejaVuSans-72"/>
      <use x="109.716797" xlink:href="#DejaVuSans-75"/>
      <use x="173.095703" xlink:href="#DejaVuSans-6b"/>
      <use x="230.958984" xlink:href="#DejaVuSans-65"/>
      <use x="292.482422" xlink:href="#DejaVuSans-72"/>
     </g>
    </g>
   </g>
  </g>
 </g>
 <defs>
  <clipPath id="p0f4008fe2d">
   <rect height="217.44" width="334.8" x="43.78125" y="22.44"/>
  </clipPath>
 </defs>
</svg>
