<?xml version="1.0" encoding="utf-8" standalone="no"?>
<!DOCTYPE svg PUBLIC "-//W3C//DTD SVG 1.1//EN"
  "http://www.w3.org/Graphics/SVG/1.1/DTD/svg11.dtd">
<!-- Created with matplotlib (http://matplotlib.org/) -->
<svg height="277.314375pt" version="1.1" viewBox="0 0 396.878125 277.314375" width="396.878125pt" xmlns="http://www.w3.org/2000/svg" xmlns:xlink="http://www.w3.org/1999/xlink">
 <defs>
  <style type="text/css">
*{stroke-linecap:butt;stroke-linejoin:round;}
  </style>
 </defs>
 <g id="figure_1">
  <g id="patch_1">
   <path d="M 0 277.314375 
L 396.878125 277.314375 
L 396.878125 0 
L 0 0 
z
" style="fill:#ffffff;"/>
  </g>
  <g id="axes_1">
   <g id="patch_2">
    <path d="M 51.378125 239.758125 
L 386.178125 239.758125 
L 386.178125 22.318125 
L 51.378125 22.318125 
z
" style="fill:#ffffff;"/>
   </g>
   <g id="matplotlib.axis_1">
    <g id="xtick_1">
     <g id="line2d_1">
      <path clip-path="url(#p1267f0b2ec)" d="M 52.731257 239.758125 
L 52.731257 22.318125 
" style="fill:none;stroke:#b0b0b0;stroke-linecap:square;stroke-width:0.8;"/>
     </g>
     <g id="line2d_2">
      <defs>
       <path d="M 0 0 
L 0 3.5 
" id="m9e2658a8b4" style="stroke:#000000;stroke-width:0.8;"/>
      </defs>
      <g>
       <use style="stroke:#000000;stroke-width:0.8;" x="52.731257" xlink:href="#m9e2658a8b4" y="239.758125"/>
      </g>
     </g>
     <g id="text_1">
      <!-- 225 -->
      <defs>
       <path d="M 19.1875 8.296875 
L 53.609375 8.296875 
L 53.609375 0 
L 7.328125 0 
L 7.328125 8.296875 
Q 12.9375 14.109375 22.625 23.890625 
Q 32.328125 33.6875 34.8125 36.53125 
Q 39.546875 41.84375 41.421875 45.53125 
Q 43.3125 49.21875 43.3125 52.78125 
Q 43.3125 58.59375 39.234375 62.25 
Q 35.15625 65.921875 28.609375 65.921875 
Q 23.96875 65.921875 18.8125 64.3125 
Q 13.671875 62.703125 7.8125 59.421875 
L 7.8125 69.390625 
Q 13.765625 71.78125 18.9375 73 
Q 24.125 74.21875 28.421875 74.21875 
Q 39.75 74.21875 46.484375 68.546875 
Q 53.21875 62.890625 53.21875 53.421875 
Q 53.21875 48.921875 51.53125 44.890625 
Q 49.859375 40.875 45.40625 35.40625 
Q 44.1875 33.984375 37.640625 27.21875 
Q 31.109375 20.453125 19.1875 8.296875 
z
" id="DejaVuSans-32"/>
       <path d="M 10.796875 72.90625 
L 49.515625 72.90625 
L 49.515625 64.59375 
L 19.828125 64.59375 
L 19.828125 46.734375 
Q 21.96875 47.46875 24.109375 47.828125 
Q 26.265625 48.1875 28.421875 48.1875 
Q 40.625 48.1875 47.75 41.5 
Q 54.890625 34.8125 54.890625 23.390625 
Q 54.890625 11.625 47.5625 5.09375 
Q 40.234375 -1.421875 26.90625 -1.421875 
Q 22.3125 -1.421875 17.546875 -0.640625 
Q 12.796875 0.140625 7.71875 1.703125 
L 7.71875 11.625 
Q 12.109375 9.234375 16.796875 8.0625 
Q 21.484375 6.890625 26.703125 6.890625 
Q 35.15625 6.890625 40.078125 11.328125 
Q 45.015625 15.765625 45.015625 23.390625 
Q 45.015625 31 40.078125 35.4375 
Q 35.15625 39.890625 26.703125 39.890625 
Q 22.75 39.890625 18.8125 39.015625 
Q 14.890625 38.140625 10.796875 36.28125 
z
" id="DejaVuSans-35"/>
      </defs>
      <g transform="translate(43.187507 254.356562)scale(0.1 -0.1)">
       <use xlink:href="#DejaVuSans-32"/>
       <use x="63.623047" xlink:href="#DejaVuSans-32"/>
       <use x="127.246094" xlink:href="#DejaVuSans-35"/>
      </g>
     </g>
    </g>
    <g id="xtick_2">
     <g id="line2d_3">
      <path clip-path="url(#p1267f0b2ec)" d="M 90.655354 239.758125 
L 90.655354 22.318125 
" style="fill:none;stroke:#b0b0b0;stroke-linecap:square;stroke-width:0.8;"/>
     </g>
     <g id="line2d_4">
      <g>
       <use style="stroke:#000000;stroke-width:0.8;" x="90.655354" xlink:href="#m9e2658a8b4" y="239.758125"/>
      </g>
     </g>
     <g id="text_2">
      <!-- 250 -->
      <defs>
       <path d="M 31.78125 66.40625 
Q 24.171875 66.40625 20.328125 58.90625 
Q 16.5 51.421875 16.5 36.375 
Q 16.5 21.390625 20.328125 13.890625 
Q 24.171875 6.390625 31.78125 6.390625 
Q 39.453125 6.390625 43.28125 13.890625 
Q 47.125 21.390625 47.125 36.375 
Q 47.125 51.421875 43.28125 58.90625 
Q 39.453125 66.40625 31.78125 66.40625 
z
M 31.78125 74.21875 
Q 44.046875 74.21875 50.515625 64.515625 
Q 56.984375 54.828125 56.984375 36.375 
Q 56.984375 17.96875 50.515625 8.265625 
Q 44.046875 -1.421875 31.78125 -1.421875 
Q 19.53125 -1.421875 13.0625 8.265625 
Q 6.59375 17.96875 6.59375 36.375 
Q 6.59375 54.828125 13.0625 64.515625 
Q 19.53125 74.21875 31.78125 74.21875 
z
" id="DejaVuSans-30"/>
      </defs>
      <g transform="translate(81.111604 254.356562)scale(0.1 -0.1)">
       <use xlink:href="#DejaVuSans-32"/>
       <use x="63.623047" xlink:href="#DejaVuSans-35"/>
       <use x="127.246094" xlink:href="#DejaVuSans-30"/>
      </g>
     </g>
    </g>
    <g id="xtick_3">
     <g id="line2d_5">
      <path clip-path="url(#p1267f0b2ec)" d="M 128.579452 239.758125 
L 128.579452 22.318125 
" style="fill:none;stroke:#b0b0b0;stroke-linecap:square;stroke-width:0.8;"/>
     </g>
     <g id="line2d_6">
      <g>
       <use style="stroke:#000000;stroke-width:0.8;" x="128.579452" xlink:href="#m9e2658a8b4" y="239.758125"/>
      </g>
     </g>
     <g id="text_3">
      <!-- 275 -->
      <defs>
       <path d="M 8.203125 72.90625 
L 55.078125 72.90625 
L 55.078125 68.703125 
L 28.609375 0 
L 18.3125 0 
L 43.21875 64.59375 
L 8.203125 64.59375 
z
" id="DejaVuSans-37"/>
      </defs>
      <g transform="translate(119.035702 254.356562)scale(0.1 -0.1)">
       <use xlink:href="#DejaVuSans-32"/>
       <use x="63.623047" xlink:href="#DejaVuSans-37"/>
       <use x="127.246094" xlink:href="#DejaVuSans-35"/>
      </g>
     </g>
    </g>
    <g id="xtick_4">
     <g id="line2d_7">
      <path clip-path="url(#p1267f0b2ec)" d="M 166.503549 239.758125 
L 166.503549 22.318125 
" style="fill:none;stroke:#b0b0b0;stroke-linecap:square;stroke-width:0.8;"/>
     </g>
     <g id="line2d_8">
      <g>
       <use style="stroke:#000000;stroke-width:0.8;" x="166.503549" xlink:href="#m9e2658a8b4" y="239.758125"/>
      </g>
     </g>
     <g id="text_4">
      <!-- 300 -->
      <defs>
       <path d="M 40.578125 39.3125 
Q 47.65625 37.796875 51.625 33 
Q 55.609375 28.21875 55.609375 21.1875 
Q 55.609375 10.40625 48.1875 4.484375 
Q 40.765625 -1.421875 27.09375 -1.421875 
Q 22.515625 -1.421875 17.65625 -0.515625 
Q 12.796875 0.390625 7.625 2.203125 
L 7.625 11.71875 
Q 11.71875 9.328125 16.59375 8.109375 
Q 21.484375 6.890625 26.8125 6.890625 
Q 36.078125 6.890625 40.9375 10.546875 
Q 45.796875 14.203125 45.796875 21.1875 
Q 45.796875 27.640625 41.28125 31.265625 
Q 36.765625 34.90625 28.71875 34.90625 
L 20.21875 34.90625 
L 20.21875 43.015625 
L 29.109375 43.015625 
Q 36.375 43.015625 40.234375 45.921875 
Q 44.09375 48.828125 44.09375 54.296875 
Q 44.09375 59.90625 40.109375 62.90625 
Q 36.140625 65.921875 28.71875 65.921875 
Q 24.65625 65.921875 20.015625 65.03125 
Q 15.375 64.15625 9.8125 62.3125 
L 9.8125 71.09375 
Q 15.4375 72.65625 20.34375 73.4375 
Q 25.25 74.21875 29.59375 74.21875 
Q 40.828125 74.21875 47.359375 69.109375 
Q 53.90625 64.015625 53.90625 55.328125 
Q 53.90625 49.265625 50.4375 45.09375 
Q 46.96875 40.921875 40.578125 39.3125 
z
" id="DejaVuSans-33"/>
      </defs>
      <g transform="translate(156.959799 254.356562)scale(0.1 -0.1)">
       <use xlink:href="#DejaVuSans-33"/>
       <use x="63.623047" xlink:href="#DejaVuSans-30"/>
       <use x="127.246094" xlink:href="#DejaVuSans-30"/>
      </g>
     </g>
    </g>
    <g id="xtick_5">
     <g id="line2d_9">
      <path clip-path="url(#p1267f0b2ec)" d="M 204.427647 239.758125 
L 204.427647 22.318125 
" style="fill:none;stroke:#b0b0b0;stroke-linecap:square;stroke-width:0.8;"/>
     </g>
     <g id="line2d_10">
      <g>
       <use style="stroke:#000000;stroke-width:0.8;" x="204.427647" xlink:href="#m9e2658a8b4" y="239.758125"/>
      </g>
     </g>
     <g id="text_5">
      <!-- 325 -->
      <g transform="translate(194.883897 254.356562)scale(0.1 -0.1)">
       <use xlink:href="#DejaVuSans-33"/>
       <use x="63.623047" xlink:href="#DejaVuSans-32"/>
       <use x="127.246094" xlink:href="#DejaVuSans-35"/>
      </g>
     </g>
    </g>
    <g id="xtick_6">
     <g id="line2d_11">
      <path clip-path="url(#p1267f0b2ec)" d="M 242.351744 239.758125 
L 242.351744 22.318125 
" style="fill:none;stroke:#b0b0b0;stroke-linecap:square;stroke-width:0.8;"/>
     </g>
     <g id="line2d_12">
      <g>
       <use style="stroke:#000000;stroke-width:0.8;" x="242.351744" xlink:href="#m9e2658a8b4" y="239.758125"/>
      </g>
     </g>
     <g id="text_6">
      <!-- 350 -->
      <g transform="translate(232.807994 254.356562)scale(0.1 -0.1)">
       <use xlink:href="#DejaVuSans-33"/>
       <use x="63.623047" xlink:href="#DejaVuSans-35"/>
       <use x="127.246094" xlink:href="#DejaVuSans-30"/>
      </g>
     </g>
    </g>
    <g id="xtick_7">
     <g id="line2d_13">
      <path clip-path="url(#p1267f0b2ec)" d="M 280.275841 239.758125 
L 280.275841 22.318125 
" style="fill:none;stroke:#b0b0b0;stroke-linecap:square;stroke-width:0.8;"/>
     </g>
     <g id="line2d_14">
      <g>
       <use style="stroke:#000000;stroke-width:0.8;" x="280.275841" xlink:href="#m9e2658a8b4" y="239.758125"/>
      </g>
     </g>
     <g id="text_7">
      <!-- 375 -->
      <g transform="translate(270.732091 254.356562)scale(0.1 -0.1)">
       <use xlink:href="#DejaVuSans-33"/>
       <use x="63.623047" xlink:href="#DejaVuSans-37"/>
       <use x="127.246094" xlink:href="#DejaVuSans-35"/>
      </g>
     </g>
    </g>
    <g id="xtick_8">
     <g id="line2d_15">
      <path clip-path="url(#p1267f0b2ec)" d="M 318.199939 239.758125 
L 318.199939 22.318125 
" style="fill:none;stroke:#b0b0b0;stroke-linecap:square;stroke-width:0.8;"/>
     </g>
     <g id="line2d_16">
      <g>
       <use style="stroke:#000000;stroke-width:0.8;" x="318.199939" xlink:href="#m9e2658a8b4" y="239.758125"/>
      </g>
     </g>
     <g id="text_8">
      <!-- 400 -->
      <defs>
       <path d="M 37.796875 64.3125 
L 12.890625 25.390625 
L 37.796875 25.390625 
z
M 35.203125 72.90625 
L 47.609375 72.90625 
L 47.609375 25.390625 
L 58.015625 25.390625 
L 58.015625 17.1875 
L 47.609375 17.1875 
L 47.609375 0 
L 37.796875 0 
L 37.796875 17.1875 
L 4.890625 17.1875 
L 4.890625 26.703125 
z
" id="DejaVuSans-34"/>
      </defs>
      <g transform="translate(308.656189 254.356562)scale(0.1 -0.1)">
       <use xlink:href="#DejaVuSans-34"/>
       <use x="63.623047" xlink:href="#DejaVuSans-30"/>
       <use x="127.246094" xlink:href="#DejaVuSans-30"/>
      </g>
     </g>
    </g>
    <g id="xtick_9">
     <g id="line2d_17">
      <path clip-path="url(#p1267f0b2ec)" d="M 356.124036 239.758125 
L 356.124036 22.318125 
" style="fill:none;stroke:#b0b0b0;stroke-linecap:square;stroke-width:0.8;"/>
     </g>
     <g id="line2d_18">
      <g>
       <use style="stroke:#000000;stroke-width:0.8;" x="356.124036" xlink:href="#m9e2658a8b4" y="239.758125"/>
      </g>
     </g>
     <g id="text_9">
      <!-- 425 -->
      <g transform="translate(346.580286 254.356562)scale(0.1 -0.1)">
       <use xlink:href="#DejaVuSans-34"/>
       <use x="63.623047" xlink:href="#DejaVuSans-32"/>
       <use x="127.246094" xlink:href="#DejaVuSans-35"/>
      </g>
     </g>
    </g>
    <g id="text_10">
     <!-- Temperatur [K] -->
     <defs>
      <path d="M -0.296875 72.90625 
L 61.375 72.90625 
L 61.375 64.59375 
L 35.5 64.59375 
L 35.5 0 
L 25.59375 0 
L 25.59375 64.59375 
L -0.296875 64.59375 
z
" id="DejaVuSans-54"/>
      <path d="M 56.203125 29.59375 
L 56.203125 25.203125 
L 14.890625 25.203125 
Q 15.484375 15.921875 20.484375 11.0625 
Q 25.484375 6.203125 34.421875 6.203125 
Q 39.59375 6.203125 44.453125 7.46875 
Q 49.3125 8.734375 54.109375 11.28125 
L 54.109375 2.78125 
Q 49.265625 0.734375 44.1875 -0.34375 
Q 39.109375 -1.421875 33.890625 -1.421875 
Q 20.796875 -1.421875 13.15625 6.1875 
Q 5.515625 13.8125 5.515625 26.8125 
Q 5.515625 40.234375 12.765625 48.109375 
Q 20.015625 56 32.328125 56 
Q 43.359375 56 49.78125 48.890625 
Q 56.203125 41.796875 56.203125 29.59375 
z
M 47.21875 32.234375 
Q 47.125 39.59375 43.09375 43.984375 
Q 39.0625 48.390625 32.421875 48.390625 
Q 24.90625 48.390625 20.390625 44.140625 
Q 15.875 39.890625 15.1875 32.171875 
z
" id="DejaVuSans-65"/>
      <path d="M 52 44.1875 
Q 55.375 50.25 60.0625 53.125 
Q 64.75 56 71.09375 56 
Q 79.640625 56 84.28125 50.015625 
Q 88.921875 44.046875 88.921875 33.015625 
L 88.921875 0 
L 79.890625 0 
L 79.890625 32.71875 
Q 79.890625 40.578125 77.09375 44.375 
Q 74.3125 48.1875 68.609375 48.1875 
Q 61.625 48.1875 57.5625 43.546875 
Q 53.515625 38.921875 53.515625 30.90625 
L 53.515625 0 
L 44.484375 0 
L 44.484375 32.71875 
Q 44.484375 40.625 41.703125 44.40625 
Q 38.921875 48.1875 33.109375 48.1875 
Q 26.21875 48.1875 22.15625 43.53125 
Q 18.109375 38.875 18.109375 30.90625 
L 18.109375 0 
L 9.078125 0 
L 9.078125 54.6875 
L 18.109375 54.6875 
L 18.109375 46.1875 
Q 21.1875 51.21875 25.484375 53.609375 
Q 29.78125 56 35.6875 56 
Q 41.65625 56 45.828125 52.96875 
Q 50 49.953125 52 44.1875 
z
" id="DejaVuSans-6d"/>
      <path d="M 18.109375 8.203125 
L 18.109375 -20.796875 
L 9.078125 -20.796875 
L 9.078125 54.6875 
L 18.109375 54.6875 
L 18.109375 46.390625 
Q 20.953125 51.265625 25.265625 53.625 
Q 29.59375 56 35.59375 56 
Q 45.5625 56 51.78125 48.09375 
Q 58.015625 40.1875 58.015625 27.296875 
Q 58.015625 14.40625 51.78125 6.484375 
Q 45.5625 -1.421875 35.59375 -1.421875 
Q 29.59375 -1.421875 25.265625 0.953125 
Q 20.953125 3.328125 18.109375 8.203125 
z
M 48.6875 27.296875 
Q 48.6875 37.203125 44.609375 42.84375 
Q 40.53125 48.484375 33.40625 48.484375 
Q 26.265625 48.484375 22.1875 42.84375 
Q 18.109375 37.203125 18.109375 27.296875 
Q 18.109375 17.390625 22.1875 11.75 
Q 26.265625 6.109375 33.40625 6.109375 
Q 40.53125 6.109375 44.609375 11.75 
Q 48.6875 17.390625 48.6875 27.296875 
z
" id="DejaVuSans-70"/>
      <path d="M 41.109375 46.296875 
Q 39.59375 47.171875 37.8125 47.578125 
Q 36.03125 48 33.890625 48 
Q 26.265625 48 22.1875 43.046875 
Q 18.109375 38.09375 18.109375 28.8125 
L 18.109375 0 
L 9.078125 0 
L 9.078125 54.6875 
L 18.109375 54.6875 
L 18.109375 46.1875 
Q 20.953125 51.171875 25.484375 53.578125 
Q 30.03125 56 36.53125 56 
Q 37.453125 56 38.578125 55.875 
Q 39.703125 55.765625 41.0625 55.515625 
z
" id="DejaVuSans-72"/>
      <path d="M 34.28125 27.484375 
Q 23.390625 27.484375 19.1875 25 
Q 14.984375 22.515625 14.984375 16.5 
Q 14.984375 11.71875 18.140625 8.90625 
Q 21.296875 6.109375 26.703125 6.109375 
Q 34.1875 6.109375 38.703125 11.40625 
Q 43.21875 16.703125 43.21875 25.484375 
L 43.21875 27.484375 
z
M 52.203125 31.203125 
L 52.203125 0 
L 43.21875 0 
L 43.21875 8.296875 
Q 40.140625 3.328125 35.546875 0.953125 
Q 30.953125 -1.421875 24.3125 -1.421875 
Q 15.921875 -1.421875 10.953125 3.296875 
Q 6 8.015625 6 15.921875 
Q 6 25.140625 12.171875 29.828125 
Q 18.359375 34.515625 30.609375 34.515625 
L 43.21875 34.515625 
L 43.21875 35.40625 
Q 43.21875 41.609375 39.140625 45 
Q 35.0625 48.390625 27.6875 48.390625 
Q 23 48.390625 18.546875 47.265625 
Q 14.109375 46.140625 10.015625 43.890625 
L 10.015625 52.203125 
Q 14.9375 54.109375 19.578125 55.046875 
Q 24.21875 56 28.609375 56 
Q 40.484375 56 46.34375 49.84375 
Q 52.203125 43.703125 52.203125 31.203125 
z
" id="DejaVuSans-61"/>
      <path d="M 18.3125 70.21875 
L 18.3125 54.6875 
L 36.8125 54.6875 
L 36.8125 47.703125 
L 18.3125 47.703125 
L 18.3125 18.015625 
Q 18.3125 11.328125 20.140625 9.421875 
Q 21.96875 7.515625 27.59375 7.515625 
L 36.8125 7.515625 
L 36.8125 0 
L 27.59375 0 
Q 17.1875 0 13.234375 3.875 
Q 9.28125 7.765625 9.28125 18.015625 
L 9.28125 47.703125 
L 2.6875 47.703125 
L 2.6875 54.6875 
L 9.28125 54.6875 
L 9.28125 70.21875 
z
" id="DejaVuSans-74"/>
      <path d="M 8.5 21.578125 
L 8.5 54.6875 
L 17.484375 54.6875 
L 17.484375 21.921875 
Q 17.484375 14.15625 20.5 10.265625 
Q 23.53125 6.390625 29.59375 6.390625 
Q 36.859375 6.390625 41.078125 11.03125 
Q 45.3125 15.671875 45.3125 23.6875 
L 45.3125 54.6875 
L 54.296875 54.6875 
L 54.296875 0 
L 45.3125 0 
L 45.3125 8.40625 
Q 42.046875 3.421875 37.71875 1 
Q 33.40625 -1.421875 27.6875 -1.421875 
Q 18.265625 -1.421875 13.375 4.4375 
Q 8.5 10.296875 8.5 21.578125 
z
M 31.109375 56 
z
" id="DejaVuSans-75"/>
      <path id="DejaVuSans-20"/>
      <path d="M 8.59375 75.984375 
L 29.296875 75.984375 
L 29.296875 69 
L 17.578125 69 
L 17.578125 -6.203125 
L 29.296875 -6.203125 
L 29.296875 -13.1875 
L 8.59375 -13.1875 
z
" id="DejaVuSans-5b"/>
      <path d="M 9.8125 72.90625 
L 19.671875 72.90625 
L 19.671875 42.09375 
L 52.390625 72.90625 
L 65.09375 72.90625 
L 28.90625 38.921875 
L 67.671875 0 
L 54.6875 0 
L 19.671875 35.109375 
L 19.671875 0 
L 9.8125 0 
z
" id="DejaVuSans-4b"/>
      <path d="M 30.421875 75.984375 
L 30.421875 -13.1875 
L 9.71875 -13.1875 
L 9.71875 -6.203125 
L 21.390625 -6.203125 
L 21.390625 69 
L 9.71875 69 
L 9.71875 75.984375 
z
" id="DejaVuSans-5d"/>
     </defs>
     <g transform="translate(180.466406 268.034687)scale(0.1 -0.1)">
      <use xlink:href="#DejaVuSans-54"/>
      <use x="60.818359" xlink:href="#DejaVuSans-65"/>
      <use x="122.341797" xlink:href="#DejaVuSans-6d"/>
      <use x="219.753906" xlink:href="#DejaVuSans-70"/>
      <use x="283.230469" xlink:href="#DejaVuSans-65"/>
      <use x="344.753906" xlink:href="#DejaVuSans-72"/>
      <use x="385.867188" xlink:href="#DejaVuSans-61"/>
      <use x="447.146484" xlink:href="#DejaVuSans-74"/>
      <use x="486.355469" xlink:href="#DejaVuSans-75"/>
      <use x="549.734375" xlink:href="#DejaVuSans-72"/>
      <use x="590.847656" xlink:href="#DejaVuSans-20"/>
      <use x="622.634766" xlink:href="#DejaVuSans-5b"/>
      <use x="661.648438" xlink:href="#DejaVuSans-4b"/>
      <use x="727.224609" xlink:href="#DejaVuSans-5d"/>
     </g>
    </g>
   </g>
   <g id="matplotlib.axis_2">
    <g id="ytick_1">
     <g id="line2d_19">
      <path clip-path="url(#p1267f0b2ec)" d="M 51.378125 221.29436 
L 386.178125 221.29436 
" style="fill:none;stroke:#b0b0b0;stroke-linecap:square;stroke-width:0.8;"/>
     </g>
     <g id="line2d_20">
      <defs>
       <path d="M 0 0 
L -3.5 0 
" id="mc3472f85f9" style="stroke:#000000;stroke-width:0.8;"/>
      </defs>
      <g>
       <use style="stroke:#000000;stroke-width:0.8;" x="51.378125" xlink:href="#mc3472f85f9" y="221.29436"/>
      </g>
     </g>
     <g id="text_11">
      <!-- $\mathdefault{10^{-5}}$ -->
      <defs>
       <path d="M 12.40625 8.296875 
L 28.515625 8.296875 
L 28.515625 63.921875 
L 10.984375 60.40625 
L 10.984375 69.390625 
L 28.421875 72.90625 
L 38.28125 72.90625 
L 38.28125 8.296875 
L 54.390625 8.296875 
L 54.390625 0 
L 12.40625 0 
z
" id="DejaVuSans-31"/>
       <path d="M 10.59375 35.5 
L 73.1875 35.5 
L 73.1875 27.203125 
L 10.59375 27.203125 
z
" id="DejaVuSans-2212"/>
      </defs>
      <g transform="translate(20.878125 225.093579)scale(0.1 -0.1)">
       <use transform="translate(0 0.684375)" xlink:href="#DejaVuSans-31"/>
       <use transform="translate(63.623047 0.684375)" xlink:href="#DejaVuSans-30"/>
       <use transform="translate(128.203125 38.965625)scale(0.7)" xlink:href="#DejaVuSans-2212"/>
       <use transform="translate(186.855469 38.965625)scale(0.7)" xlink:href="#DejaVuSans-35"/>
      </g>
     </g>
    </g>
    <g id="ytick_2">
     <g id="line2d_21">
      <path clip-path="url(#p1267f0b2ec)" d="M 51.378125 139.361914 
L 386.178125 139.361914 
" style="fill:none;stroke:#b0b0b0;stroke-linecap:square;stroke-width:0.8;"/>
     </g>
     <g id="line2d_22">
      <g>
       <use style="stroke:#000000;stroke-width:0.8;" x="51.378125" xlink:href="#mc3472f85f9" y="139.361914"/>
      </g>
     </g>
     <g id="text_12">
      <!-- $\mathdefault{10^{-4}}$ -->
      <g transform="translate(20.878125 143.161133)scale(0.1 -0.1)">
       <use transform="translate(0 0.684375)" xlink:href="#DejaVuSans-31"/>
       <use transform="translate(63.623047 0.684375)" xlink:href="#DejaVuSans-30"/>
       <use transform="translate(128.203125 38.965625)scale(0.7)" xlink:href="#DejaVuSans-2212"/>
       <use transform="translate(186.855469 38.965625)scale(0.7)" xlink:href="#DejaVuSans-34"/>
      </g>
     </g>
    </g>
    <g id="ytick_3">
     <g id="line2d_23">
      <path clip-path="url(#p1267f0b2ec)" d="M 51.378125 57.429468 
L 386.178125 57.429468 
" style="fill:none;stroke:#b0b0b0;stroke-linecap:square;stroke-width:0.8;"/>
     </g>
     <g id="line2d_24">
      <g>
       <use style="stroke:#000000;stroke-width:0.8;" x="51.378125" xlink:href="#mc3472f85f9" y="57.429468"/>
      </g>
     </g>
     <g id="text_13">
      <!-- $\mathdefault{10^{-3}}$ -->
      <g transform="translate(20.878125 61.228687)scale(0.1 -0.1)">
       <use transform="translate(0 0.765625)" xlink:href="#DejaVuSans-31"/>
       <use transform="translate(63.623047 0.765625)" xlink:href="#DejaVuSans-30"/>
       <use transform="translate(128.203125 39.046875)scale(0.7)" xlink:href="#DejaVuSans-2212"/>
       <use transform="translate(186.855469 39.046875)scale(0.7)" xlink:href="#DejaVuSans-33"/>
      </g>
     </g>
    </g>
    <g id="ytick_4">
     <g id="line2d_25">
      <defs>
       <path d="M 0 0 
L -2 0 
" id="ma9617188b4" style="stroke:#000000;stroke-width:0.6;"/>
      </defs>
      <g>
       <use style="stroke:#000000;stroke-width:0.6;" x="51.378125" xlink:href="#ma9617188b4" y="239.47097"/>
      </g>
     </g>
    </g>
    <g id="ytick_5">
     <g id="line2d_26">
      <g>
       <use style="stroke:#000000;stroke-width:0.6;" x="51.378125" xlink:href="#ma9617188b4" y="233.985856"/>
      </g>
     </g>
    </g>
    <g id="ytick_6">
     <g id="line2d_27">
      <g>
       <use style="stroke:#000000;stroke-width:0.6;" x="51.378125" xlink:href="#ma9617188b4" y="229.234434"/>
      </g>
     </g>
    </g>
    <g id="ytick_7">
     <g id="line2d_28">
      <g>
       <use style="stroke:#000000;stroke-width:0.6;" x="51.378125" xlink:href="#ma9617188b4" y="225.043383"/>
      </g>
     </g>
    </g>
    <g id="ytick_8">
     <g id="line2d_29">
      <g>
       <use style="stroke:#000000;stroke-width:0.6;" x="51.378125" xlink:href="#ma9617188b4" y="196.630236"/>
      </g>
     </g>
    </g>
    <g id="ytick_9">
     <g id="line2d_30">
      <g>
       <use style="stroke:#000000;stroke-width:0.6;" x="51.378125" xlink:href="#ma9617188b4" y="182.202648"/>
      </g>
     </g>
    </g>
    <g id="ytick_10">
     <g id="line2d_31">
      <g>
       <use style="stroke:#000000;stroke-width:0.6;" x="51.378125" xlink:href="#ma9617188b4" y="171.966112"/>
      </g>
     </g>
    </g>
    <g id="ytick_11">
     <g id="line2d_32">
      <g>
       <use style="stroke:#000000;stroke-width:0.6;" x="51.378125" xlink:href="#ma9617188b4" y="164.026038"/>
      </g>
     </g>
    </g>
    <g id="ytick_12">
     <g id="line2d_33">
      <g>
       <use style="stroke:#000000;stroke-width:0.6;" x="51.378125" xlink:href="#ma9617188b4" y="157.538525"/>
      </g>
     </g>
    </g>
    <g id="ytick_13">
     <g id="line2d_34">
      <g>
       <use style="stroke:#000000;stroke-width:0.6;" x="51.378125" xlink:href="#ma9617188b4" y="152.05341"/>
      </g>
     </g>
    </g>
    <g id="ytick_14">
     <g id="line2d_35">
      <g>
       <use style="stroke:#000000;stroke-width:0.6;" x="51.378125" xlink:href="#ma9617188b4" y="147.301988"/>
      </g>
     </g>
    </g>
    <g id="ytick_15">
     <g id="line2d_36">
      <g>
       <use style="stroke:#000000;stroke-width:0.6;" x="51.378125" xlink:href="#ma9617188b4" y="143.110937"/>
      </g>
     </g>
    </g>
    <g id="ytick_16">
     <g id="line2d_37">
      <g>
       <use style="stroke:#000000;stroke-width:0.6;" x="51.378125" xlink:href="#ma9617188b4" y="114.69779"/>
      </g>
     </g>
    </g>
    <g id="ytick_17">
     <g id="line2d_38">
      <g>
       <use style="stroke:#000000;stroke-width:0.6;" x="51.378125" xlink:href="#ma9617188b4" y="100.270203"/>
      </g>
     </g>
    </g>
    <g id="ytick_18">
     <g id="line2d_39">
      <g>
       <use style="stroke:#000000;stroke-width:0.6;" x="51.378125" xlink:href="#ma9617188b4" y="90.033666"/>
      </g>
     </g>
    </g>
    <g id="ytick_19">
     <g id="line2d_40">
      <g>
       <use style="stroke:#000000;stroke-width:0.6;" x="51.378125" xlink:href="#ma9617188b4" y="82.093592"/>
      </g>
     </g>
    </g>
    <g id="ytick_20">
     <g id="line2d_41">
      <g>
       <use style="stroke:#000000;stroke-width:0.6;" x="51.378125" xlink:href="#ma9617188b4" y="75.606079"/>
      </g>
     </g>
    </g>
    <g id="ytick_21">
     <g id="line2d_42">
      <g>
       <use style="stroke:#000000;stroke-width:0.6;" x="51.378125" xlink:href="#ma9617188b4" y="70.120964"/>
      </g>
     </g>
    </g>
    <g id="ytick_22">
     <g id="line2d_43">
      <g>
       <use style="stroke:#000000;stroke-width:0.6;" x="51.378125" xlink:href="#ma9617188b4" y="65.369542"/>
      </g>
     </g>
    </g>
    <g id="ytick_23">
     <g id="line2d_44">
      <g>
       <use style="stroke:#000000;stroke-width:0.6;" x="51.378125" xlink:href="#ma9617188b4" y="61.178491"/>
      </g>
     </g>
    </g>
    <g id="ytick_24">
     <g id="line2d_45">
      <g>
       <use style="stroke:#000000;stroke-width:0.6;" x="51.378125" xlink:href="#ma9617188b4" y="32.765344"/>
      </g>
     </g>
    </g>
    <g id="text_14">
     <!-- $T_2$ [s] -->
     <defs>
      <path d="M 5.90625 72.90625 
L 67.578125 72.90625 
L 66.015625 64.59375 
L 39.984375 64.59375 
L 27.484375 0 
L 17.578125 0 
L 30.078125 64.59375 
L 4.296875 64.59375 
z
" id="DejaVuSans-Oblique-54"/>
      <path d="M 44.28125 53.078125 
L 44.28125 44.578125 
Q 40.484375 46.53125 36.375 47.5 
Q 32.28125 48.484375 27.875 48.484375 
Q 21.1875 48.484375 17.84375 46.4375 
Q 14.5 44.390625 14.5 40.28125 
Q 14.5 37.15625 16.890625 35.375 
Q 19.28125 33.59375 26.515625 31.984375 
L 29.59375 31.296875 
Q 39.15625 29.25 43.1875 25.515625 
Q 47.21875 21.78125 47.21875 15.09375 
Q 47.21875 7.46875 41.1875 3.015625 
Q 35.15625 -1.421875 24.609375 -1.421875 
Q 20.21875 -1.421875 15.453125 -0.5625 
Q 10.6875 0.296875 5.421875 2 
L 5.421875 11.28125 
Q 10.40625 8.6875 15.234375 7.390625 
Q 20.0625 6.109375 24.8125 6.109375 
Q 31.15625 6.109375 34.5625 8.28125 
Q 37.984375 10.453125 37.984375 14.40625 
Q 37.984375 18.0625 35.515625 20.015625 
Q 33.0625 21.96875 24.703125 23.78125 
L 21.578125 24.515625 
Q 13.234375 26.265625 9.515625 29.90625 
Q 5.8125 33.546875 5.8125 39.890625 
Q 5.8125 47.609375 11.28125 51.796875 
Q 16.75 56 26.8125 56 
Q 31.78125 56 36.171875 55.265625 
Q 40.578125 54.546875 44.28125 53.078125 
z
" id="DejaVuSans-73"/>
     </defs>
     <g transform="translate(14.798438 144.588125)rotate(-90)scale(0.1 -0.1)">
      <use transform="translate(0 0.015625)" xlink:href="#DejaVuSans-Oblique-54"/>
      <use transform="translate(61.083984 -16.390625)scale(0.7)" xlink:href="#DejaVuSans-32"/>
      <use transform="translate(108.354492 0.015625)" xlink:href="#DejaVuSans-20"/>
      <use transform="translate(140.141602 0.015625)" xlink:href="#DejaVuSans-5b"/>
      <use transform="translate(179.155273 0.015625)" xlink:href="#DejaVuSans-73"/>
      <use transform="translate(231.254883 0.015625)" xlink:href="#DejaVuSans-5d"/>
     </g>
    </g>
   </g>
   <g id="LineCollection_1">
    <path clip-path="url(#p1267f0b2ec)" d="M 66.596307 38.352134 
L 66.596307 34.631804 
" style="fill:none;stroke:#0000ff;stroke-width:1.5;"/>
    <path clip-path="url(#p1267f0b2ec)" d="M 80.385509 37.046554 
L 80.385509 33.975395 
" style="fill:none;stroke:#0000ff;stroke-width:1.5;"/>
    <path clip-path="url(#p1267f0b2ec)" d="M 94.827005 36.557849 
L 94.827005 33.141832 
" style="fill:none;stroke:#0000ff;stroke-width:1.5;"/>
    <path clip-path="url(#p1267f0b2ec)" d="M 109.238162 36.744998 
L 109.238162 32.548606 
" style="fill:none;stroke:#0000ff;stroke-width:1.5;"/>
    <path clip-path="url(#p1267f0b2ec)" d="M 123.709998 36.383552 
L 123.709998 32.574363 
" style="fill:none;stroke:#0000ff;stroke-width:1.5;"/>
    <path clip-path="url(#p1267f0b2ec)" d="M 138.197003 37.688497 
L 138.197003 33.603897 
" style="fill:none;stroke:#0000ff;stroke-width:1.5;"/>
   </g>
   <g id="LineCollection_2">
    <path clip-path="url(#p1267f0b2ec)" d="M 167.580593 36.907899 
L 167.580593 33.540252 
" style="fill:none;stroke:#0000ff;stroke-width:1.5;"/>
    <path clip-path="url(#p1267f0b2ec)" d="M 181.703527 40.898349 
L 181.703527 37.300839 
" style="fill:none;stroke:#0000ff;stroke-width:1.5;"/>
   </g>
   <g id="LineCollection_3">
    <path clip-path="url(#p1267f0b2ec)" d="M 370.959943 174.049304 
L 370.959943 171.644434 
" style="fill:none;stroke:#0000ff;stroke-width:1.5;"/>
    <path clip-path="url(#p1267f0b2ec)" d="M 363.981909 178.825582 
L 363.981909 175.571935 
" style="fill:none;stroke:#0000ff;stroke-width:1.5;"/>
    <path clip-path="url(#p1267f0b2ec)" d="M 356.761161 187.811462 
L 356.761161 181.693244 
" style="fill:none;stroke:#0000ff;stroke-width:1.5;"/>
    <path clip-path="url(#p1267f0b2ec)" d="M 349.525243 197.711812 
L 349.525243 185.049877 
" style="fill:none;stroke:#0000ff;stroke-width:1.5;"/>
    <path clip-path="url(#p1267f0b2ec)" d="M 342.228647 199.801714 
L 342.228647 181.735208 
" style="fill:none;stroke:#0000ff;stroke-width:1.5;"/>
    <path clip-path="url(#p1267f0b2ec)" d="M 334.96239 237.038206 
L 334.96239 182.940585 
" style="fill:none;stroke:#0000ff;stroke-width:1.5;"/>
    <path clip-path="url(#p1267f0b2ec)" d="M 327.680963 278.314375 
L 327.680963 177.650865 
" style="fill:none;stroke:#0000ff;stroke-width:1.5;"/>
    <path clip-path="url(#p1267f0b2ec)" d="M 320.338858 278.314375 
L 320.338858 187.251859 
" style="fill:none;stroke:#0000ff;stroke-width:1.5;"/>
    <path clip-path="url(#p1267f0b2ec)" d="M 313.133279 207.579208 
L 313.133279 185.522066 
" style="fill:none;stroke:#0000ff;stroke-width:1.5;"/>
    <path clip-path="url(#p1267f0b2ec)" d="M 305.912531 193.863924 
L 305.912531 181.697275 
" style="fill:none;stroke:#0000ff;stroke-width:1.5;"/>
    <path clip-path="url(#p1267f0b2ec)" d="M 298.676613 182.627175 
L 298.676613 178.461851 
" style="fill:none;stroke:#0000ff;stroke-width:1.5;"/>
    <path clip-path="url(#p1267f0b2ec)" d="M 291.440696 174.378167 
L 291.440696 172.025107 
" style="fill:none;stroke:#0000ff;stroke-width:1.5;"/>
    <path clip-path="url(#p1267f0b2ec)" d="M 284.295796 171.030073 
L 284.295796 168.87591 
" style="fill:none;stroke:#0000ff;stroke-width:1.5;"/>
    <path clip-path="url(#p1267f0b2ec)" d="M 284.09859 171.210934 
L 284.09859 169.577464 
" style="fill:none;stroke:#0000ff;stroke-width:1.5;"/>
    <path clip-path="url(#p1267f0b2ec)" d="M 276.923351 169.653058 
L 276.923351 168.12391 
" style="fill:none;stroke:#0000ff;stroke-width:1.5;"/>
    <path clip-path="url(#p1267f0b2ec)" d="M 269.657094 175.551523 
L 269.657094 173.565073 
" style="fill:none;stroke:#0000ff;stroke-width:1.5;"/>
    <path clip-path="url(#p1267f0b2ec)" d="M 262.406007 183.381506 
L 262.406007 180.83054 
" style="fill:none;stroke:#0000ff;stroke-width:1.5;"/>
    <path clip-path="url(#p1267f0b2ec)" d="M 255.079071 183.526381 
L 255.079071 180.812876 
" style="fill:none;stroke:#0000ff;stroke-width:1.5;"/>
   </g>
   <g id="LineCollection_4">
    <path clip-path="url(#p1267f0b2ec)" d="M 284.235117 176.950879 
L 284.235117 173.442989 
" style="fill:none;stroke:#0000ff;stroke-width:1.5;"/>
    <path clip-path="url(#p1267f0b2ec)" d="M 278.455485 171.774179 
L 278.455485 169.312709 
" style="fill:none;stroke:#0000ff;stroke-width:1.5;"/>
    <path clip-path="url(#p1267f0b2ec)" d="M 274.071459 174.509131 
L 274.071459 171.669191 
" style="fill:none;stroke:#0000ff;stroke-width:1.5;"/>
    <path clip-path="url(#p1267f0b2ec)" d="M 269.702603 180.537784 
L 269.702603 176.678449 
" style="fill:none;stroke:#0000ff;stroke-width:1.5;"/>
    <path clip-path="url(#p1267f0b2ec)" d="M 266.759693 184.945404 
L 266.759693 179.525411 
" style="fill:none;stroke:#0000ff;stroke-width:1.5;"/>
    <path clip-path="url(#p1267f0b2ec)" d="M 263.847122 194.041324 
L 263.847122 185.658593 
" style="fill:none;stroke:#0000ff;stroke-width:1.5;"/>
    <path clip-path="url(#p1267f0b2ec)" d="M 260.934552 207.697712 
L 260.934552 193.297969 
" style="fill:none;stroke:#0000ff;stroke-width:1.5;"/>
    <path clip-path="url(#p1267f0b2ec)" d="M 257.991642 195.981179 
L 257.991642 185.980921 
" style="fill:none;stroke:#0000ff;stroke-width:1.5;"/>
    <path clip-path="url(#p1267f0b2ec)" d="M 255.048732 200.152282 
L 255.048732 188.661841 
" style="fill:none;stroke:#0000ff;stroke-width:1.5;"/>
    <path clip-path="url(#p1267f0b2ec)" d="M 250.740554 199.133307 
L 250.740554 186.848657 
" style="fill:none;stroke:#0000ff;stroke-width:1.5;"/>
    <path clip-path="url(#p1267f0b2ec)" d="M 246.386868 203.258719 
L 246.386868 188.617122 
" style="fill:none;stroke:#0000ff;stroke-width:1.5;"/>
    <path clip-path="url(#p1267f0b2ec)" d="M 242.033182 179.988991 
L 242.033182 171.272422 
" style="fill:none;stroke:#0000ff;stroke-width:1.5;"/>
    <path clip-path="url(#p1267f0b2ec)" d="M 237.679495 163.640903 
L 237.679495 158.476242 
" style="fill:none;stroke:#0000ff;stroke-width:1.5;"/>
    <path clip-path="url(#p1267f0b2ec)" d="M 233.340978 147.795037 
L 233.340978 143.175726 
" style="fill:none;stroke:#0000ff;stroke-width:1.5;"/>
    <path clip-path="url(#p1267f0b2ec)" d="M 237.649156 164.42471 
L 237.649156 159.233236 
" style="fill:none;stroke:#0000ff;stroke-width:1.5;"/>
    <path clip-path="url(#p1267f0b2ec)" d="M 228.987292 128.074735 
L 228.987292 125.842999 
" style="fill:none;stroke:#0000ff;stroke-width:1.5;"/>
   </g>
   <g id="LineCollection_5">
    <path clip-path="url(#p1267f0b2ec)" d="M 124.210596 32.743826 
L 124.210596 32.201761 
" style="fill:none;stroke:#0000ff;stroke-width:1.5;"/>
    <path clip-path="url(#p1267f0b2ec)" d="M 138.439717 33.279532 
L 138.439717 32.700558 
" style="fill:none;stroke:#0000ff;stroke-width:1.5;"/>
    <path clip-path="url(#p1267f0b2ec)" d="M 153.00257 34.018353 
L 153.00257 33.392071 
" style="fill:none;stroke:#0000ff;stroke-width:1.5;"/>
    <path clip-path="url(#p1267f0b2ec)" d="M 167.504745 36.235719 
L 167.504745 35.615086 
" style="fill:none;stroke:#0000ff;stroke-width:1.5;"/>
    <path clip-path="url(#p1267f0b2ec)" d="M 182.052429 41.184038 
L 182.052429 40.687435 
" style="fill:none;stroke:#0000ff;stroke-width:1.5;"/>
    <path clip-path="url(#p1267f0b2ec)" d="M 196.539434 48.874978 
L 196.539434 48.355562 
" style="fill:none;stroke:#0000ff;stroke-width:1.5;"/>
    <path clip-path="url(#p1267f0b2ec)" d="M 211.132627 73.297351 
L 211.132627 72.653134 
" style="fill:none;stroke:#0000ff;stroke-width:1.5;"/>
   </g>
   <g id="LineCollection_6">
    <path clip-path="url(#p1267f0b2ec)" d="M 174.968208 41.509201 
L 174.968208 40.926505 
" style="fill:none;stroke:#0000ff;stroke-width:1.5;"/>
    <path clip-path="url(#p1267f0b2ec)" d="M 182.02209 42.68377 
L 182.02209 42.078276 
" style="fill:none;stroke:#0000ff;stroke-width:1.5;"/>
    <path clip-path="url(#p1267f0b2ec)" d="M 189.227668 44.377944 
L 189.227668 43.76919 
" style="fill:none;stroke:#0000ff;stroke-width:1.5;"/>
    <path clip-path="url(#p1267f0b2ec)" d="M 196.569774 47.791818 
L 196.569774 47.176459 
" style="fill:none;stroke:#0000ff;stroke-width:1.5;"/>
    <path clip-path="url(#p1267f0b2ec)" d="M 203.8512 54.806448 
L 203.8512 54.18466 
" style="fill:none;stroke:#0000ff;stroke-width:1.5;"/>
    <path clip-path="url(#p1267f0b2ec)" d="M 211.117457 73.358987 
L 211.117457 72.661598 
" style="fill:none;stroke:#0000ff;stroke-width:1.5;"/>
    <path clip-path="url(#p1267f0b2ec)" d="M 218.414054 94.217731 
L 218.414054 93.375278 
" style="fill:none;stroke:#0000ff;stroke-width:1.5;"/>
    <path clip-path="url(#p1267f0b2ec)" d="M 225.69548 118.191419 
L 225.69548 116.732653 
" style="fill:none;stroke:#0000ff;stroke-width:1.5;"/>
    <path clip-path="url(#p1267f0b2ec)" d="M 232.916229 147.24626 
L 232.916229 144.051565 
" style="fill:none;stroke:#0000ff;stroke-width:1.5;"/>
   </g>
   <g id="LineCollection_7">
    <path clip-path="url(#p1267f0b2ec)" d="M 174.968208 41.469097 
L 174.968208 40.943682 
" style="fill:none;stroke:#0000ff;stroke-width:1.5;"/>
    <path clip-path="url(#p1267f0b2ec)" d="M 181.99175 43.015453 
L 181.99175 42.479542 
" style="fill:none;stroke:#0000ff;stroke-width:1.5;"/>
    <path clip-path="url(#p1267f0b2ec)" d="M 189.242838 44.420043 
L 189.242838 43.829728 
" style="fill:none;stroke:#0000ff;stroke-width:1.5;"/>
    <path clip-path="url(#p1267f0b2ec)" d="M 196.569774 47.681253 
L 196.569774 47.084239 
" style="fill:none;stroke:#0000ff;stroke-width:1.5;"/>
    <path clip-path="url(#p1267f0b2ec)" d="M 203.8512 54.771916 
L 203.8512 54.203299 
" style="fill:none;stroke:#0000ff;stroke-width:1.5;"/>
   </g>
   <g id="LineCollection_8">
    <path clip-path="url(#p1267f0b2ec)" d="M 287.860661 173.867414 
L 287.860661 172.094042 
" style="fill:none;stroke:#ff0000;stroke-width:1.5;"/>
    <path clip-path="url(#p1267f0b2ec)" d="M 303.0303 191.728455 
L 303.0303 189.462503 
" style="fill:none;stroke:#ff0000;stroke-width:1.5;"/>
    <path clip-path="url(#p1267f0b2ec)" d="M 280.275841 168.910347 
L 280.275841 165.866038 
" style="fill:none;stroke:#ff0000;stroke-width:1.5;"/>
    <path clip-path="url(#p1267f0b2ec)" d="M 295.44548 183.872773 
L 295.44548 182.575207 
" style="fill:none;stroke:#ff0000;stroke-width:1.5;"/>
    <path clip-path="url(#p1267f0b2ec)" d="M 272.691022 170.432375 
L 272.691022 169.756674 
" style="fill:none;stroke:#ff0000;stroke-width:1.5;"/>
    <path clip-path="url(#p1267f0b2ec)" d="M 265.106202 186.321829 
L 265.106202 185.201839 
" style="fill:none;stroke:#ff0000;stroke-width:1.5;"/>
    <path clip-path="url(#p1267f0b2ec)" d="M 257.521383 198.71721 
L 257.521383 196.572973 
" style="fill:none;stroke:#ff0000;stroke-width:1.5;"/>
    <path clip-path="url(#p1267f0b2ec)" d="M 249.936563 194.455845 
L 249.936563 191.795768 
" style="fill:none;stroke:#ff0000;stroke-width:1.5;"/>
    <path clip-path="url(#p1267f0b2ec)" d="M 242.351744 174.570721 
L 242.351744 172.874125 
" style="fill:none;stroke:#ff0000;stroke-width:1.5;"/>
    <path clip-path="url(#p1267f0b2ec)" d="M 234.766924 144.918115 
L 234.766924 144.332081 
" style="fill:none;stroke:#ff0000;stroke-width:1.5;"/>
    <path clip-path="url(#p1267f0b2ec)" d="M 227.182105 118.137888 
L 227.182105 117.718782 
" style="fill:none;stroke:#ff0000;stroke-width:1.5;"/>
    <path clip-path="url(#p1267f0b2ec)" d="M 212.012466 76.509648 
L 212.012466 76.359825 
" style="fill:none;stroke:#ff0000;stroke-width:1.5;"/>
    <path clip-path="url(#p1267f0b2ec)" d="M 219.597286 95.428759 
L 219.597286 95.040401 
" style="fill:none;stroke:#ff0000;stroke-width:1.5;"/>
    <path clip-path="url(#p1267f0b2ec)" d="M 196.842827 57.339948 
L 196.842827 57.095025 
" style="fill:none;stroke:#ff0000;stroke-width:1.5;"/>
    <path clip-path="url(#p1267f0b2ec)" d="M 181.673188 48.19766 
L 181.673188 47.702777 
" style="fill:none;stroke:#ff0000;stroke-width:1.5;"/>
    <path clip-path="url(#p1267f0b2ec)" d="M 227.182105 116.216884 
L 227.182105 115.792479 
" style="fill:none;stroke:#ff0000;stroke-width:1.5;"/>
   </g>
   <g id="line2d_46">
    <defs>
     <path d="M 0 1.5 
C 0.397805 1.5 0.77937 1.341951 1.06066 1.06066 
C 1.341951 0.77937 1.5 0.397805 1.5 0 
C 1.5 -0.397805 1.341951 -0.77937 1.06066 -1.06066 
C 0.77937 -1.341951 0.397805 -1.5 0 -1.5 
C -0.397805 -1.5 -0.77937 -1.341951 -1.06066 -1.06066 
C -1.341951 -0.77937 -1.5 -0.397805 -1.5 0 
C -1.5 0.397805 -1.341951 0.77937 -1.06066 1.06066 
C -0.77937 1.341951 -0.397805 1.5 0 1.5 
z
" id="m2d224e7600" style="stroke:#0000ff;"/>
    </defs>
    <g clip-path="url(#p1267f0b2ec)">
     <use style="fill:#0000ff;stroke:#0000ff;" x="66.596307" xlink:href="#m2d224e7600" y="36.443369"/>
     <use style="fill:#0000ff;stroke:#0000ff;" x="80.385509" xlink:href="#m2d224e7600" y="35.477851"/>
     <use style="fill:#0000ff;stroke:#0000ff;" x="94.827005" xlink:href="#m2d224e7600" y="34.808863"/>
     <use style="fill:#0000ff;stroke:#0000ff;" x="109.238162" xlink:href="#m2d224e7600" y="34.584976"/>
     <use style="fill:#0000ff;stroke:#0000ff;" x="123.709998" xlink:href="#m2d224e7600" y="34.428009"/>
     <use style="fill:#0000ff;stroke:#0000ff;" x="138.197003" xlink:href="#m2d224e7600" y="35.58762"/>
    </g>
   </g>
   <g id="line2d_47">
    <g clip-path="url(#p1267f0b2ec)">
     <use style="fill:#0000ff;stroke:#0000ff;" x="167.580593" xlink:href="#m2d224e7600" y="35.18425"/>
     <use style="fill:#0000ff;stroke:#0000ff;" x="181.703527" xlink:href="#m2d224e7600" y="39.054149"/>
    </g>
   </g>
   <g id="line2d_48">
    <g clip-path="url(#p1267f0b2ec)">
     <use style="fill:#0000ff;stroke:#0000ff;" x="370.959943" xlink:href="#m2d224e7600" y="172.826557"/>
     <use style="fill:#0000ff;stroke:#0000ff;" x="363.981909" xlink:href="#m2d224e7600" y="177.161583"/>
     <use style="fill:#0000ff;stroke:#0000ff;" x="356.761161" xlink:href="#m2d224e7600" y="184.621016"/>
     <use style="fill:#0000ff;stroke:#0000ff;" x="349.525243" xlink:href="#m2d224e7600" y="190.820582"/>
     <use style="fill:#0000ff;stroke:#0000ff;" x="342.228647" xlink:href="#m2d224e7600" y="189.633954"/>
     <use style="fill:#0000ff;stroke:#0000ff;" x="334.96239" xlink:href="#m2d224e7600" y="200.568734"/>
     <use style="fill:#0000ff;stroke:#0000ff;" x="327.680963" xlink:href="#m2d224e7600" y="209.760541"/>
     <use style="fill:#0000ff;stroke:#0000ff;" x="320.338858" xlink:href="#m2d224e7600" y="229.874489"/>
     <use style="fill:#0000ff;stroke:#0000ff;" x="313.133279" xlink:href="#m2d224e7600" y="194.868216"/>
     <use style="fill:#0000ff;stroke:#0000ff;" x="305.912531" xlink:href="#m2d224e7600" y="187.263103"/>
     <use style="fill:#0000ff;stroke:#0000ff;" x="298.676613" xlink:href="#m2d224e7600" y="180.483599"/>
     <use style="fill:#0000ff;stroke:#0000ff;" x="291.440696" xlink:href="#m2d224e7600" y="173.18219"/>
     <use style="fill:#0000ff;stroke:#0000ff;" x="284.295796" xlink:href="#m2d224e7600" y="169.936692"/>
     <use style="fill:#0000ff;stroke:#0000ff;" x="284.09859" xlink:href="#m2d224e7600" y="170.384826"/>
     <use style="fill:#0000ff;stroke:#0000ff;" x="276.923351" xlink:href="#m2d224e7600" y="168.88027"/>
     <use style="fill:#0000ff;stroke:#0000ff;" x="269.657094" xlink:href="#m2d224e7600" y="174.544438"/>
     <use style="fill:#0000ff;stroke:#0000ff;" x="262.406007" xlink:href="#m2d224e7600" y="182.083168"/>
     <use style="fill:#0000ff;stroke:#0000ff;" x="255.079071" xlink:href="#m2d224e7600" y="182.143769"/>
    </g>
   </g>
   <g id="line2d_49">
    <g clip-path="url(#p1267f0b2ec)">
     <use style="fill:#0000ff;stroke:#0000ff;" x="284.235117" xlink:href="#m2d224e7600" y="175.153724"/>
     <use style="fill:#0000ff;stroke:#0000ff;" x="278.455485" xlink:href="#m2d224e7600" y="170.522164"/>
     <use style="fill:#0000ff;stroke:#0000ff;" x="274.071459" xlink:href="#m2d224e7600" y="173.060836"/>
     <use style="fill:#0000ff;stroke:#0000ff;" x="269.702603" xlink:href="#m2d224e7600" y="178.555819"/>
     <use style="fill:#0000ff;stroke:#0000ff;" x="266.759693" xlink:href="#m2d224e7600" y="182.13231"/>
     <use style="fill:#0000ff;stroke:#0000ff;" x="263.847122" xlink:href="#m2d224e7600" y="189.603673"/>
     <use style="fill:#0000ff;stroke:#0000ff;" x="260.934552" xlink:href="#m2d224e7600" y="199.774342"/>
     <use style="fill:#0000ff;stroke:#0000ff;" x="257.991642" xlink:href="#m2d224e7600" y="190.630889"/>
     <use style="fill:#0000ff;stroke:#0000ff;" x="255.048732" xlink:href="#m2d224e7600" y="193.94525"/>
     <use style="fill:#0000ff;stroke:#0000ff;" x="250.740554" xlink:href="#m2d224e7600" y="192.463448"/>
     <use style="fill:#0000ff;stroke:#0000ff;" x="246.386868" xlink:href="#m2d224e7600" y="195.190085"/>
     <use style="fill:#0000ff;stroke:#0000ff;" x="242.033182" xlink:href="#m2d224e7600" y="175.364463"/>
     <use style="fill:#0000ff;stroke:#0000ff;" x="237.679495" xlink:href="#m2d224e7600" y="160.964952"/>
     <use style="fill:#0000ff;stroke:#0000ff;" x="233.340978" xlink:href="#m2d224e7600" y="145.410475"/>
     <use style="fill:#0000ff;stroke:#0000ff;" x="237.649156" xlink:href="#m2d224e7600" y="161.734378"/>
     <use style="fill:#0000ff;stroke:#0000ff;" x="228.987292" xlink:href="#m2d224e7600" y="126.941373"/>
    </g>
   </g>
   <g id="line2d_50">
    <g clip-path="url(#p1267f0b2ec)">
     <use style="fill:#0000ff;stroke:#0000ff;" x="124.210596" xlink:href="#m2d224e7600" y="32.471761"/>
     <use style="fill:#0000ff;stroke:#0000ff;" x="138.439717" xlink:href="#m2d224e7600" y="32.988867"/>
     <use style="fill:#0000ff;stroke:#0000ff;" x="153.00257" xlink:href="#m2d224e7600" y="33.703834"/>
     <use style="fill:#0000ff;stroke:#0000ff;" x="167.504745" xlink:href="#m2d224e7600" y="35.924049"/>
     <use style="fill:#0000ff;stroke:#0000ff;" x="182.052429" xlink:href="#m2d224e7600" y="40.93487"/>
     <use style="fill:#0000ff;stroke:#0000ff;" x="196.539434" xlink:href="#m2d224e7600" y="48.614322"/>
     <use style="fill:#0000ff;stroke:#0000ff;" x="211.132627" xlink:href="#m2d224e7600" y="72.973785"/>
    </g>
   </g>
   <g id="line2d_51">
    <g clip-path="url(#p1267f0b2ec)">
     <use style="fill:#0000ff;stroke:#0000ff;" x="174.968208" xlink:href="#m2d224e7600" y="41.21666"/>
     <use style="fill:#0000ff;stroke:#0000ff;" x="182.02209" xlink:href="#m2d224e7600" y="42.379735"/>
     <use style="fill:#0000ff;stroke:#0000ff;" x="189.227668" xlink:href="#m2d224e7600" y="44.072266"/>
     <use style="fill:#0000ff;stroke:#0000ff;" x="196.569774" xlink:href="#m2d224e7600" y="47.482808"/>
     <use style="fill:#0000ff;stroke:#0000ff;" x="203.8512" xlink:href="#m2d224e7600" y="54.494196"/>
     <use style="fill:#0000ff;stroke:#0000ff;" x="211.117457" xlink:href="#m2d224e7600" y="73.008584"/>
     <use style="fill:#0000ff;stroke:#0000ff;" x="218.414054" xlink:href="#m2d224e7600" y="93.794011"/>
     <use style="fill:#0000ff;stroke:#0000ff;" x="225.69548" xlink:href="#m2d224e7600" y="117.454561"/>
     <use style="fill:#0000ff;stroke:#0000ff;" x="232.916229" xlink:href="#m2d224e7600" y="145.613071"/>
    </g>
   </g>
   <g id="line2d_52">
    <g clip-path="url(#p1267f0b2ec)">
     <use style="fill:#0000ff;stroke:#0000ff;" x="174.968208" xlink:href="#m2d224e7600" y="41.20542"/>
     <use style="fill:#0000ff;stroke:#0000ff;" x="181.99175" xlink:href="#m2d224e7600" y="42.746489"/>
     <use style="fill:#0000ff;stroke:#0000ff;" x="189.242838" xlink:href="#m2d224e7600" y="44.123661"/>
     <use style="fill:#0000ff;stroke:#0000ff;" x="196.569774" xlink:href="#m2d224e7600" y="47.381494"/>
     <use style="fill:#0000ff;stroke:#0000ff;" x="203.8512" xlink:href="#m2d224e7600" y="54.486472"/>
    </g>
   </g>
   <g id="line2d_53">
    <defs>
     <path d="M -3 3 
L 3 3 
L 3 -3 
L -3 -3 
z
" id="m3a1be21949" style="stroke:#ff0000;stroke-linejoin:miter;"/>
    </defs>
    <g clip-path="url(#p1267f0b2ec)">
     <use style="fill:#ff0000;stroke:#ff0000;stroke-linejoin:miter;" x="287.860661" xlink:href="#m3a1be21949" y="172.969682"/>
     <use style="fill:#ff0000;stroke:#ff0000;stroke-linejoin:miter;" x="303.0303" xlink:href="#m3a1be21949" y="190.577445"/>
     <use style="fill:#ff0000;stroke:#ff0000;stroke-linejoin:miter;" x="280.275841" xlink:href="#m3a1be21949" y="167.355645"/>
     <use style="fill:#ff0000;stroke:#ff0000;stroke-linejoin:miter;" x="295.44548" xlink:href="#m3a1be21949" y="183.218076"/>
     <use style="fill:#ff0000;stroke:#ff0000;stroke-linejoin:miter;" x="272.691022" xlink:href="#m3a1be21949" y="170.09292"/>
     <use style="fill:#ff0000;stroke:#ff0000;stroke-linejoin:miter;" x="265.106202" xlink:href="#m3a1be21949" y="185.757427"/>
     <use style="fill:#ff0000;stroke:#ff0000;stroke-linejoin:miter;" x="257.521383" xlink:href="#m3a1be21949" y="197.628942"/>
     <use style="fill:#ff0000;stroke:#ff0000;stroke-linejoin:miter;" x="249.936563" xlink:href="#m3a1be21949" y="193.100955"/>
     <use style="fill:#ff0000;stroke:#ff0000;stroke-linejoin:miter;" x="242.351744" xlink:href="#m3a1be21949" y="173.712312"/>
     <use style="fill:#ff0000;stroke:#ff0000;stroke-linejoin:miter;" x="234.766924" xlink:href="#m3a1be21949" y="144.623892"/>
     <use style="fill:#ff0000;stroke:#ff0000;stroke-linejoin:miter;" x="227.182105" xlink:href="#m3a1be21949" y="117.927718"/>
     <use style="fill:#ff0000;stroke:#ff0000;stroke-linejoin:miter;" x="212.012466" xlink:href="#m3a1be21949" y="76.434657"/>
     <use style="fill:#ff0000;stroke:#ff0000;stroke-linejoin:miter;" x="219.597286" xlink:href="#m3a1be21949" y="95.23405"/>
     <use style="fill:#ff0000;stroke:#ff0000;stroke-linejoin:miter;" x="196.842827" xlink:href="#m3a1be21949" y="57.217276"/>
     <use style="fill:#ff0000;stroke:#ff0000;stroke-linejoin:miter;" x="181.673188" xlink:href="#m3a1be21949" y="47.949358"/>
     <use style="fill:#ff0000;stroke:#ff0000;stroke-linejoin:miter;" x="227.182105" xlink:href="#m3a1be21949" y="116.004049"/>
    </g>
   </g>
   <g id="patch_3">
    <path d="M 51.378125 239.758125 
L 51.378125 22.318125 
" style="fill:none;stroke:#000000;stroke-linecap:square;stroke-linejoin:miter;stroke-width:0.8;"/>
   </g>
   <g id="patch_4">
    <path d="M 386.178125 239.758125 
L 386.178125 22.318125 
" style="fill:none;stroke:#000000;stroke-linecap:square;stroke-linejoin:miter;stroke-width:0.8;"/>
   </g>
   <g id="patch_5">
    <path d="M 51.378125 239.758125 
L 386.178125 239.758125 
" style="fill:none;stroke:#000000;stroke-linecap:square;stroke-linejoin:miter;stroke-width:0.8;"/>
   </g>
   <g id="patch_6">
    <path d="M 51.378125 22.318125 
L 386.178125 22.318125 
" style="fill:none;stroke:#000000;stroke-linecap:square;stroke-linejoin:miter;stroke-width:0.8;"/>
   </g>
   <g id="text_15">
    <!-- CRN $T_2$ Bruker -->
    <defs>
     <path d="M 64.40625 67.28125 
L 64.40625 56.890625 
Q 59.421875 61.53125 53.78125 63.8125 
Q 48.140625 66.109375 41.796875 66.109375 
Q 29.296875 66.109375 22.65625 58.46875 
Q 16.015625 50.828125 16.015625 36.375 
Q 16.015625 21.96875 22.65625 14.328125 
Q 29.296875 6.6875 41.796875 6.6875 
Q 48.140625 6.6875 53.78125 8.984375 
Q 59.421875 11.28125 64.40625 15.921875 
L 64.40625 5.609375 
Q 59.234375 2.09375 53.4375 0.328125 
Q 47.65625 -1.421875 41.21875 -1.421875 
Q 24.65625 -1.421875 15.125 8.703125 
Q 5.609375 18.84375 5.609375 36.375 
Q 5.609375 53.953125 15.125 64.078125 
Q 24.65625 74.21875 41.21875 74.21875 
Q 47.75 74.21875 53.53125 72.484375 
Q 59.328125 70.75 64.40625 67.28125 
z
" id="DejaVuSans-43"/>
     <path d="M 44.390625 34.1875 
Q 47.5625 33.109375 50.5625 29.59375 
Q 53.5625 26.078125 56.59375 19.921875 
L 66.609375 0 
L 56 0 
L 46.6875 18.703125 
Q 43.0625 26.03125 39.671875 28.421875 
Q 36.28125 30.8125 30.421875 30.8125 
L 19.671875 30.8125 
L 19.671875 0 
L 9.8125 0 
L 9.8125 72.90625 
L 32.078125 72.90625 
Q 44.578125 72.90625 50.734375 67.671875 
Q 56.890625 62.453125 56.890625 51.90625 
Q 56.890625 45.015625 53.6875 40.46875 
Q 50.484375 35.9375 44.390625 34.1875 
z
M 19.671875 64.796875 
L 19.671875 38.921875 
L 32.078125 38.921875 
Q 39.203125 38.921875 42.84375 42.21875 
Q 46.484375 45.515625 46.484375 51.90625 
Q 46.484375 58.296875 42.84375 61.546875 
Q 39.203125 64.796875 32.078125 64.796875 
z
" id="DejaVuSans-52"/>
     <path d="M 9.8125 72.90625 
L 23.09375 72.90625 
L 55.421875 11.921875 
L 55.421875 72.90625 
L 64.984375 72.90625 
L 64.984375 0 
L 51.703125 0 
L 19.390625 60.984375 
L 19.390625 0 
L 9.8125 0 
z
" id="DejaVuSans-4e"/>
     <path d="M 19.671875 34.8125 
L 19.671875 8.109375 
L 35.5 8.109375 
Q 43.453125 8.109375 47.28125 11.40625 
Q 51.125 14.703125 51.125 21.484375 
Q 51.125 28.328125 47.28125 31.5625 
Q 43.453125 34.8125 35.5 34.8125 
z
M 19.671875 64.796875 
L 19.671875 42.828125 
L 34.28125 42.828125 
Q 41.5 42.828125 45.03125 45.53125 
Q 48.578125 48.25 48.578125 53.8125 
Q 48.578125 59.328125 45.03125 62.0625 
Q 41.5 64.796875 34.28125 64.796875 
z
M 9.8125 72.90625 
L 35.015625 72.90625 
Q 46.296875 72.90625 52.390625 68.21875 
Q 58.5 63.53125 58.5 54.890625 
Q 58.5 48.1875 55.375 44.234375 
Q 52.25 40.28125 46.1875 39.3125 
Q 53.46875 37.75 57.5 32.78125 
Q 61.53125 27.828125 61.53125 20.40625 
Q 61.53125 10.640625 54.890625 5.3125 
Q 48.25 0 35.984375 0 
L 9.8125 0 
z
" id="DejaVuSans-42"/>
     <path d="M 9.078125 75.984375 
L 18.109375 75.984375 
L 18.109375 31.109375 
L 44.921875 54.6875 
L 56.390625 54.6875 
L 27.390625 29.109375 
L 57.625 0 
L 45.90625 0 
L 18.109375 26.703125 
L 18.109375 0 
L 9.078125 0 
z
" id="DejaVuSans-6b"/>
    </defs>
    <g transform="translate(175.578125 16.318125)scale(0.12 -0.12)">
     <use transform="translate(0 0.015625)" xlink:href="#DejaVuSans-43"/>
     <use transform="translate(69.824219 0.015625)" xlink:href="#DejaVuSans-52"/>
     <use transform="translate(139.306641 0.015625)" xlink:href="#DejaVuSans-4e"/>
     <use transform="translate(214.111328 0.015625)" xlink:href="#DejaVuSans-20"/>
     <use transform="translate(245.898438 0.015625)" xlink:href="#DejaVuSans-Oblique-54"/>
     <use transform="translate(306.982422 -16.390625)scale(0.7)" xlink:href="#DejaVuSans-32"/>
     <use transform="translate(354.25293 0.015625)" xlink:href="#DejaVuSans-20"/>
     <use transform="translate(386.040039 0.015625)" xlink:href="#DejaVuSans-42"/>
     <use transform="translate(454.643555 0.015625)" xlink:href="#DejaVuSans-72"/>
     <use transform="translate(495.756836 0.015625)" xlink:href="#DejaVuSans-75"/>
     <use transform="translate(559.135742 0.015625)" xlink:href="#DejaVuSans-6b"/>
     <use transform="translate(617.045898 0.015625)" xlink:href="#DejaVuSans-65"/>
     <use transform="translate(678.569336 0.015625)" xlink:href="#DejaVuSans-72"/>
    </g>
   </g>
   <g id="legend_1">
    <g id="patch_7">
     <path d="M 58.378125 234.758125 
L 123.7375 234.758125 
Q 125.7375 234.758125 125.7375 232.758125 
L 125.7375 219.08 
Q 125.7375 217.08 123.7375 217.08 
L 58.378125 217.08 
Q 56.378125 217.08 56.378125 219.08 
L 56.378125 232.758125 
Q 56.378125 234.758125 58.378125 234.758125 
z
" style="fill:#ffffff;opacity:0.8;stroke:#cccccc;stroke-linejoin:miter;"/>
    </g>
    <g id="LineCollection_9">
     <path d="M 70.378125 230.178437 
L 70.378125 220.178437 
" style="fill:none;stroke:#ff0000;stroke-width:1.5;"/>
    </g>
    <g id="line2d_54"/>
    <g id="line2d_55">
     <g>
      <use style="fill:#ff0000;stroke:#ff0000;stroke-linejoin:miter;" x="70.378125" xlink:href="#m3a1be21949" y="225.178437"/>
     </g>
    </g>
    <g id="text_16">
     <!-- Bruker -->
     <g transform="translate(88.378125 228.678437)scale(0.1 -0.1)">
      <use xlink:href="#DejaVuSans-42"/>
      <use x="68.603516" xlink:href="#DejaVuSans-72"/>
      <use x="109.716797" xlink:href="#DejaVuSans-75"/>
      <use x="173.095703" xlink:href="#DejaVuSans-6b"/>
      <use x="230.958984" xlink:href="#DejaVuSans-65"/>
      <use x="292.482422" xlink:href="#DejaVuSans-72"/>
     </g>
    </g>
   </g>
  </g>
 </g>
 <defs>
  <clipPath id="p1267f0b2ec">
   <rect height="217.44" width="334.8" x="51.378125" y="22.318125"/>
  </clipPath>
 </defs>
</svg>
