<?xml version="1.0" encoding="utf-8" standalone="no"?>
<!DOCTYPE svg PUBLIC "-//W3C//DTD SVG 1.1//EN"
  "http://www.w3.org/Graphics/SVG/1.1/DTD/svg11.dtd">
<!-- Created with matplotlib (http://matplotlib.org/) -->
<svg height="494.754375pt" version="1.1" viewBox="0 0 729.282812 494.754375" width="729.282812pt" xmlns="http://www.w3.org/2000/svg" xmlns:xlink="http://www.w3.org/1999/xlink">
 <defs>
  <style type="text/css">
*{stroke-linecap:butt;stroke-linejoin:round;}
  </style>
 </defs>
 <g id="figure_1">
  <g id="patch_1">
   <path d="M 0 494.754375 
L 729.282812 494.754375 
L 729.282812 0 
L 0 0 
z
" style="fill:#ffffff;"/>
  </g>
  <g id="axes_1">
   <g id="patch_2">
    <path d="M 48.982813 457.198125 
L 718.582813 457.198125 
L 718.582813 22.318125 
L 48.982813 22.318125 
z
" style="fill:#ffffff;"/>
   </g>
   <g id="PathCollection_1">
    <defs>
     <path d="M 0 3 
C 0.795609 3 1.55874 2.683901 2.12132 2.12132 
C 2.683901 1.55874 3 0.795609 3 0 
C 3 -0.795609 2.683901 -1.55874 2.12132 -2.12132 
C 1.55874 -2.683901 0.795609 -3 0 -3 
C -0.795609 -3 -1.55874 -2.683901 -2.12132 -2.12132 
C -2.683901 -1.55874 -3 -0.795609 -3 0 
C -3 0.795609 -2.683901 1.55874 -2.12132 2.12132 
C -1.55874 2.683901 -0.795609 3 0 3 
z
" id="m5a9db1345f" style="stroke:#0000ff;"/>
    </defs>
    <g clip-path="url(#pcb2b12eb75)">
     <use style="fill:#0000ff;stroke:#0000ff;" x="222.010423" xlink:href="#m5a9db1345f" y="207.717229"/>
     <use style="fill:#0000ff;stroke:#0000ff;" x="164.363629" xlink:href="#m5a9db1345f" y="224.284596"/>
     <use style="fill:#0000ff;stroke:#0000ff;" x="135.69114" xlink:href="#m5a9db1345f" y="202.86527"/>
     <use style="fill:#0000ff;stroke:#0000ff;" x="106.958288" xlink:href="#m5a9db1345f" y="209.873486"/>
     <use style="fill:#0000ff;stroke:#0000ff;" x="79.432698" xlink:href="#m5a9db1345f" y="221.806805"/>
     <use style="fill:#0000ff;stroke:#0000ff;" x="193.156845" xlink:href="#m5a9db1345f" y="214.256097"/>
    </g>
   </g>
   <g id="PathCollection_2">
    <g clip-path="url(#pcb2b12eb75)">
     <use style="fill:#0000ff;stroke:#0000ff;" x="280.411756" xlink:href="#m5a9db1345f" y="230.619267"/>
     <use style="fill:#0000ff;stroke:#0000ff;" x="308.571159" xlink:href="#m5a9db1345f" y="226.041602"/>
    </g>
   </g>
   <g id="PathCollection_3">
    <g clip-path="url(#pcb2b12eb75)">
     <use style="fill:#0000ff;stroke:#0000ff;" x="686.987653" xlink:href="#m5a9db1345f" y="88.626328"/>
     <use style="fill:#0000ff;stroke:#0000ff;" x="542.900849" xlink:href="#m5a9db1345f" y="284.911222"/>
     <use style="fill:#0000ff;stroke:#0000ff;" x="673.315403" xlink:href="#m5a9db1345f" y="110.025844"/>
     <use style="fill:#0000ff;stroke:#0000ff;" x="484.922058" xlink:href="#m5a9db1345f" y="324.549774"/>
     <use style="fill:#0000ff;stroke:#0000ff;" x="455.736482" xlink:href="#m5a9db1345f" y="264.913655"/>
     <use style="fill:#0000ff;stroke:#0000ff;" x="528.443878" xlink:href="#m5a9db1345f" y="295.931752"/>
     <use style="fill:#0000ff;stroke:#0000ff;" x="470.374542" xlink:href="#m5a9db1345f" y="294.278367"/>
     <use style="fill:#0000ff;stroke:#0000ff;" x="557.35782" xlink:href="#m5a9db1345f" y="196.382785"/>
     <use style="fill:#0000ff;stroke:#0000ff;" x="658.979158" xlink:href="#m5a9db1345f" y="87.011041"/>
     <use style="fill:#0000ff;stroke:#0000ff;" x="600.819277" xlink:href="#m5a9db1345f" y="55.515977"/>
     <use style="fill:#0000ff;stroke:#0000ff;" x="571.694065" xlink:href="#m5a9db1345f" y="91.091928"/>
     <use style="fill:#0000ff;stroke:#0000ff;" x="499.379029" xlink:href="#m5a9db1345f" y="321.372534"/>
     <use style="fill:#0000ff;stroke:#0000ff;" x="629.884127" xlink:href="#m5a9db1345f" y="86.206445"/>
     <use style="fill:#0000ff;stroke:#0000ff;" x="514.198179" xlink:href="#m5a9db1345f" y="322.506283"/>
     <use style="fill:#0000ff;stroke:#0000ff;" x="644.522187" xlink:href="#m5a9db1345f" y="42.298047"/>
     <use style="fill:#0000ff;stroke:#0000ff;" x="615.366793" xlink:href="#m5a9db1345f" y="73.431956"/>
     <use style="fill:#0000ff;stroke:#0000ff;" x="586.211399" xlink:href="#m5a9db1345f" y="97.99195"/>
    </g>
   </g>
   <g id="PathCollection_4">
    <g clip-path="url(#pcb2b12eb75)">
     <use style="fill:#0000ff;stroke:#0000ff;" x="512.176014" xlink:href="#m5a9db1345f" y="391.957562"/>
     <use style="fill:#0000ff;stroke:#0000ff;" x="468.865464" xlink:href="#m5a9db1345f" y="299.535672"/>
     <use style="fill:#0000ff;stroke:#0000ff;" x="569.822807" xlink:href="#m5a9db1345f" y="183.260858"/>
     <use style="fill:#0000ff;stroke:#0000ff;" x="685.146577" xlink:href="#m5a9db1345f" y="115.417248"/>
     <use style="fill:#0000ff;stroke:#0000ff;" x="670.991422" xlink:href="#m5a9db1345f" y="106.501164"/>
     <use style="fill:#0000ff;stroke:#0000ff;" x="613.284265" xlink:href="#m5a9db1345f" y="101.423674"/>
     <use style="fill:#0000ff;stroke:#0000ff;" x="598.766931" xlink:href="#m5a9db1345f" y="179.309498"/>
     <use style="fill:#0000ff;stroke:#0000ff;" x="454.287767" xlink:href="#m5a9db1345f" y="280.725189"/>
     <use style="fill:#0000ff;stroke:#0000ff;" x="541.059774" xlink:href="#m5a9db1345f" y="253.685881"/>
     <use style="fill:#0000ff;stroke:#0000ff;" x="642.228388" xlink:href="#m5a9db1345f" y="118.061138"/>
     <use style="fill:#0000ff;stroke:#0000ff;" x="627.711054" xlink:href="#m5a9db1345f" y="90.814586"/>
     <use style="fill:#0000ff;stroke:#0000ff;" x="483.322435" xlink:href="#m5a9db1345f" y="332.513448"/>
     <use style="fill:#0000ff;stroke:#0000ff;" x="584.189234" xlink:href="#m5a9db1345f" y="148.57941"/>
     <use style="fill:#0000ff;stroke:#0000ff;" x="497.749224" xlink:href="#m5a9db1345f" y="347.550863"/>
     <use style="fill:#0000ff;stroke:#0000ff;" x="526.663166" xlink:href="#m5a9db1345f" y="304.41506"/>
     <use style="fill:#0000ff;stroke:#0000ff;" x="555.456381" xlink:href="#m5a9db1345f" y="163.430915"/>
     <use style="fill:#0000ff;stroke:#0000ff;" x="454.287767" xlink:href="#m5a9db1345f" y="237.661007"/>
     <use style="fill:#0000ff;stroke:#0000ff;" x="656.624996" xlink:href="#m5a9db1345f" y="97.26507"/>
    </g>
   </g>
   <g id="PathCollection_5">
    <g clip-path="url(#pcb2b12eb75)">
     <use style="fill:#0000ff;stroke:#0000ff;" x="323.963758" xlink:href="#m5a9db1345f" y="214.233239"/>
     <use style="fill:#0000ff;stroke:#0000ff;" x="338.571637" xlink:href="#m5a9db1345f" y="227.762036"/>
     <use style="fill:#0000ff;stroke:#0000ff;" x="309.597332" xlink:href="#m5a9db1345f" y="219.903509"/>
     <use style="fill:#0000ff;stroke:#0000ff;" x="439.800615" xlink:href="#m5a9db1345f" y="200.788254"/>
     <use style="fill:#0000ff;stroke:#0000ff;" x="396.520247" xlink:href="#m5a9db1345f" y="216.660742"/>
     <use style="fill:#0000ff;stroke:#0000ff;" x="367.576124" xlink:href="#m5a9db1345f" y="221.462414"/>
     <use style="fill:#0000ff;stroke:#0000ff;" x="353.088971" xlink:href="#m5a9db1345f" y="217.465338"/>
     <use style="fill:#0000ff;stroke:#0000ff;" x="425.373825" xlink:href="#m5a9db1345f" y="197.263574"/>
     <use style="fill:#0000ff;stroke:#0000ff;" x="410.916854" xlink:href="#m5a9db1345f" y="212.752051"/>
     <use style="fill:#0000ff;stroke:#0000ff;" x="382.153821" xlink:href="#m5a9db1345f" y="228.856165"/>
    </g>
   </g>
   <g id="PathCollection_6">
    <g clip-path="url(#pcb2b12eb75)">
     <use style="fill:#0000ff;stroke:#0000ff;" x="500.767381" xlink:href="#m5a9db1345f" y="331.122167"/>
     <use style="fill:#0000ff;stroke:#0000ff;" x="492.07509" xlink:href="#m5a9db1345f" y="373.083077"/>
     <use style="fill:#0000ff;stroke:#0000ff;" x="410.977218" xlink:href="#m5a9db1345f" y="224.577176"/>
     <use style="fill:#0000ff;stroke:#0000ff;" x="512.326921" xlink:href="#m5a9db1345f" y="434.75964"/>
     <use style="fill:#0000ff;stroke:#0000ff;" x="454.257585" xlink:href="#m5a9db1345f" y="260.825148"/>
     <use style="fill:#0000ff;stroke:#0000ff;" x="465.937852" xlink:href="#m5a9db1345f" y="228.476725"/>
     <use style="fill:#0000ff;stroke:#0000ff;" x="445.625657" xlink:href="#m5a9db1345f" y="200.317382"/>
     <use style="fill:#0000ff;stroke:#0000ff;" x="402.345289" xlink:href="#m5a9db1345f" y="231.740825"/>
     <use style="fill:#0000ff;stroke:#0000ff;" x="428.301437" xlink:href="#m5a9db1345f" y="212.950152"/>
     <use style="fill:#0000ff;stroke:#0000ff;" x="477.557756" xlink:href="#m5a9db1345f" y="305.172417"/>
     <use style="fill:#0000ff;stroke:#0000ff;" x="460.082628" xlink:href="#m5a9db1345f" y="210.152352"/>
     <use style="fill:#0000ff;stroke:#0000ff;" x="419.639327" xlink:href="#m5a9db1345f" y="215.930815"/>
     <use style="fill:#0000ff;stroke:#0000ff;" x="471.762895" xlink:href="#m5a9db1345f" y="383.686069"/>
     <use style="fill:#0000ff;stroke:#0000ff;" x="419.639327" xlink:href="#m5a9db1345f" y="220.42162"/>
     <use style="fill:#0000ff;stroke:#0000ff;" x="436.963547" xlink:href="#m5a9db1345f" y="229.301131"/>
     <use style="fill:#0000ff;stroke:#0000ff;" x="483.382798" xlink:href="#m5a9db1345f" y="343.078344"/>
     <use style="fill:#0000ff;stroke:#0000ff;" x="411.007399" xlink:href="#m5a9db1345f" y="224.5787"/>
     <use style="fill:#0000ff;stroke:#0000ff;" x="428.059985" xlink:href="#m5a9db1345f" y="209.870438"/>
    </g>
   </g>
   <g id="PathCollection_7">
    <g clip-path="url(#pcb2b12eb75)">
     <use style="fill:#0000ff;stroke:#0000ff;" x="280.351393" xlink:href="#m5a9db1345f" y="213.686175"/>
     <use style="fill:#0000ff;stroke:#0000ff;" x="367.153582" xlink:href="#m5a9db1345f" y="222.809503"/>
     <use style="fill:#0000ff;stroke:#0000ff;" x="309.295517" xlink:href="#m5a9db1345f" y="209.957298"/>
     <use style="fill:#0000ff;stroke:#0000ff;" x="251.467633" xlink:href="#m5a9db1345f" y="214.528867"/>
     <use style="fill:#0000ff;stroke:#0000ff;" x="193.941566" xlink:href="#m5a9db1345f" y="211.662493"/>
     <use style="fill:#0000ff;stroke:#0000ff;" x="338.179277" xlink:href="#m5a9db1345f" y="221.288694"/>
     <use style="fill:#0000ff;stroke:#0000ff;" x="222.553692" xlink:href="#m5a9db1345f" y="216.835986"/>
    </g>
   </g>
   <g id="PathCollection_8">
    <g clip-path="url(#pcb2b12eb75)">
     <use style="fill:#0000ff;stroke:#0000ff;" x="338.179277" xlink:href="#m5a9db1345f" y="210.124922"/>
     <use style="fill:#0000ff;stroke:#0000ff;" x="352.666429" xlink:href="#m5a9db1345f" y="212.259845"/>
     <use style="fill:#0000ff;stroke:#0000ff;" x="323.60158" xlink:href="#m5a9db1345f" y="222.052146"/>
     <use style="fill:#0000ff;stroke:#0000ff;" x="367.153582" xlink:href="#m5a9db1345f" y="215.068312"/>
     <use style="fill:#0000ff;stroke:#0000ff;" x="396.127886" xlink:href="#m5a9db1345f" y="202.93232"/>
     <use style="fill:#0000ff;stroke:#0000ff;" x="410.494313" xlink:href="#m5a9db1345f" y="205.368966"/>
     <use style="fill:#0000ff;stroke:#0000ff;" x="309.235153" xlink:href="#m5a9db1345f" y="208.736689"/>
     <use style="fill:#0000ff;stroke:#0000ff;" x="295.049817" xlink:href="#m5a9db1345f" y="208.823549"/>
     <use style="fill:#0000ff;stroke:#0000ff;" x="381.670916" xlink:href="#m5a9db1345f" y="217.986497"/>
    </g>
   </g>
   <g id="matplotlib.axis_1">
    <g id="xtick_1">
     <g id="line2d_1">
      <defs>
       <path d="M 0 0 
L 0 3.5 
" id="m2e1339f2e1" style="stroke:#000000;stroke-width:0.8;"/>
      </defs>
      <g>
       <use style="stroke:#000000;stroke-width:0.8;" x="51.876927" xlink:href="#m2e1339f2e1" y="457.198125"/>
      </g>
     </g>
     <g id="text_1">
      <!-- 225 -->
      <defs>
       <path d="M 19.1875 8.296875 
L 53.609375 8.296875 
L 53.609375 0 
L 7.328125 0 
L 7.328125 8.296875 
Q 12.9375 14.109375 22.625 23.890625 
Q 32.328125 33.6875 34.8125 36.53125 
Q 39.546875 41.84375 41.421875 45.53125 
Q 43.3125 49.21875 43.3125 52.78125 
Q 43.3125 58.59375 39.234375 62.25 
Q 35.15625 65.921875 28.609375 65.921875 
Q 23.96875 65.921875 18.8125 64.3125 
Q 13.671875 62.703125 7.8125 59.421875 
L 7.8125 69.390625 
Q 13.765625 71.78125 18.9375 73 
Q 24.125 74.21875 28.421875 74.21875 
Q 39.75 74.21875 46.484375 68.546875 
Q 53.21875 62.890625 53.21875 53.421875 
Q 53.21875 48.921875 51.53125 44.890625 
Q 49.859375 40.875 45.40625 35.40625 
Q 44.1875 33.984375 37.640625 27.21875 
Q 31.109375 20.453125 19.1875 8.296875 
z
" id="DejaVuSans-32"/>
       <path d="M 10.796875 72.90625 
L 49.515625 72.90625 
L 49.515625 64.59375 
L 19.828125 64.59375 
L 19.828125 46.734375 
Q 21.96875 47.46875 24.109375 47.828125 
Q 26.265625 48.1875 28.421875 48.1875 
Q 40.625 48.1875 47.75 41.5 
Q 54.890625 34.8125 54.890625 23.390625 
Q 54.890625 11.625 47.5625 5.09375 
Q 40.234375 -1.421875 26.90625 -1.421875 
Q 22.3125 -1.421875 17.546875 -0.640625 
Q 12.796875 0.140625 7.71875 1.703125 
L 7.71875 11.625 
Q 12.109375 9.234375 16.796875 8.0625 
Q 21.484375 6.890625 26.703125 6.890625 
Q 35.15625 6.890625 40.078125 11.328125 
Q 45.015625 15.765625 45.015625 23.390625 
Q 45.015625 31 40.078125 35.4375 
Q 35.15625 39.890625 26.703125 39.890625 
Q 22.75 39.890625 18.8125 39.015625 
Q 14.890625 38.140625 10.796875 36.28125 
z
" id="DejaVuSans-35"/>
      </defs>
      <g transform="translate(42.333177 471.796562)scale(0.1 -0.1)">
       <use xlink:href="#DejaVuSans-32"/>
       <use x="63.623047" xlink:href="#DejaVuSans-32"/>
       <use x="127.246094" xlink:href="#DejaVuSans-35"/>
      </g>
     </g>
    </g>
    <g id="xtick_2">
     <g id="line2d_2">
      <g>
       <use style="stroke:#000000;stroke-width:0.8;" x="127.330846" xlink:href="#m2e1339f2e1" y="457.198125"/>
      </g>
     </g>
     <g id="text_2">
      <!-- 250 -->
      <defs>
       <path d="M 31.78125 66.40625 
Q 24.171875 66.40625 20.328125 58.90625 
Q 16.5 51.421875 16.5 36.375 
Q 16.5 21.390625 20.328125 13.890625 
Q 24.171875 6.390625 31.78125 6.390625 
Q 39.453125 6.390625 43.28125 13.890625 
Q 47.125 21.390625 47.125 36.375 
Q 47.125 51.421875 43.28125 58.90625 
Q 39.453125 66.40625 31.78125 66.40625 
z
M 31.78125 74.21875 
Q 44.046875 74.21875 50.515625 64.515625 
Q 56.984375 54.828125 56.984375 36.375 
Q 56.984375 17.96875 50.515625 8.265625 
Q 44.046875 -1.421875 31.78125 -1.421875 
Q 19.53125 -1.421875 13.0625 8.265625 
Q 6.59375 17.96875 6.59375 36.375 
Q 6.59375 54.828125 13.0625 64.515625 
Q 19.53125 74.21875 31.78125 74.21875 
z
" id="DejaVuSans-30"/>
      </defs>
      <g transform="translate(117.787096 471.796562)scale(0.1 -0.1)">
       <use xlink:href="#DejaVuSans-32"/>
       <use x="63.623047" xlink:href="#DejaVuSans-35"/>
       <use x="127.246094" xlink:href="#DejaVuSans-30"/>
      </g>
     </g>
    </g>
    <g id="xtick_3">
     <g id="line2d_3">
      <g>
       <use style="stroke:#000000;stroke-width:0.8;" x="202.784765" xlink:href="#m2e1339f2e1" y="457.198125"/>
      </g>
     </g>
     <g id="text_3">
      <!-- 275 -->
      <defs>
       <path d="M 8.203125 72.90625 
L 55.078125 72.90625 
L 55.078125 68.703125 
L 28.609375 0 
L 18.3125 0 
L 43.21875 64.59375 
L 8.203125 64.59375 
z
" id="DejaVuSans-37"/>
      </defs>
      <g transform="translate(193.241015 471.796562)scale(0.1 -0.1)">
       <use xlink:href="#DejaVuSans-32"/>
       <use x="63.623047" xlink:href="#DejaVuSans-37"/>
       <use x="127.246094" xlink:href="#DejaVuSans-35"/>
      </g>
     </g>
    </g>
    <g id="xtick_4">
     <g id="line2d_4">
      <g>
       <use style="stroke:#000000;stroke-width:0.8;" x="278.238684" xlink:href="#m2e1339f2e1" y="457.198125"/>
      </g>
     </g>
     <g id="text_4">
      <!-- 300 -->
      <defs>
       <path d="M 40.578125 39.3125 
Q 47.65625 37.796875 51.625 33 
Q 55.609375 28.21875 55.609375 21.1875 
Q 55.609375 10.40625 48.1875 4.484375 
Q 40.765625 -1.421875 27.09375 -1.421875 
Q 22.515625 -1.421875 17.65625 -0.515625 
Q 12.796875 0.390625 7.625 2.203125 
L 7.625 11.71875 
Q 11.71875 9.328125 16.59375 8.109375 
Q 21.484375 6.890625 26.8125 6.890625 
Q 36.078125 6.890625 40.9375 10.546875 
Q 45.796875 14.203125 45.796875 21.1875 
Q 45.796875 27.640625 41.28125 31.265625 
Q 36.765625 34.90625 28.71875 34.90625 
L 20.21875 34.90625 
L 20.21875 43.015625 
L 29.109375 43.015625 
Q 36.375 43.015625 40.234375 45.921875 
Q 44.09375 48.828125 44.09375 54.296875 
Q 44.09375 59.90625 40.109375 62.90625 
Q 36.140625 65.921875 28.71875 65.921875 
Q 24.65625 65.921875 20.015625 65.03125 
Q 15.375 64.15625 9.8125 62.3125 
L 9.8125 71.09375 
Q 15.4375 72.65625 20.34375 73.4375 
Q 25.25 74.21875 29.59375 74.21875 
Q 40.828125 74.21875 47.359375 69.109375 
Q 53.90625 64.015625 53.90625 55.328125 
Q 53.90625 49.265625 50.4375 45.09375 
Q 46.96875 40.921875 40.578125 39.3125 
z
" id="DejaVuSans-33"/>
      </defs>
      <g transform="translate(268.694934 471.796562)scale(0.1 -0.1)">
       <use xlink:href="#DejaVuSans-33"/>
       <use x="63.623047" xlink:href="#DejaVuSans-30"/>
       <use x="127.246094" xlink:href="#DejaVuSans-30"/>
      </g>
     </g>
    </g>
    <g id="xtick_5">
     <g id="line2d_5">
      <g>
       <use style="stroke:#000000;stroke-width:0.8;" x="353.692602" xlink:href="#m2e1339f2e1" y="457.198125"/>
      </g>
     </g>
     <g id="text_5">
      <!-- 325 -->
      <g transform="translate(344.148852 471.796562)scale(0.1 -0.1)">
       <use xlink:href="#DejaVuSans-33"/>
       <use x="63.623047" xlink:href="#DejaVuSans-32"/>
       <use x="127.246094" xlink:href="#DejaVuSans-35"/>
      </g>
     </g>
    </g>
    <g id="xtick_6">
     <g id="line2d_6">
      <g>
       <use style="stroke:#000000;stroke-width:0.8;" x="429.146521" xlink:href="#m2e1339f2e1" y="457.198125"/>
      </g>
     </g>
     <g id="text_6">
      <!-- 350 -->
      <g transform="translate(419.602771 471.796562)scale(0.1 -0.1)">
       <use xlink:href="#DejaVuSans-33"/>
       <use x="63.623047" xlink:href="#DejaVuSans-35"/>
       <use x="127.246094" xlink:href="#DejaVuSans-30"/>
      </g>
     </g>
    </g>
    <g id="xtick_7">
     <g id="line2d_7">
      <g>
       <use style="stroke:#000000;stroke-width:0.8;" x="504.60044" xlink:href="#m2e1339f2e1" y="457.198125"/>
      </g>
     </g>
     <g id="text_7">
      <!-- 375 -->
      <g transform="translate(495.05669 471.796562)scale(0.1 -0.1)">
       <use xlink:href="#DejaVuSans-33"/>
       <use x="63.623047" xlink:href="#DejaVuSans-37"/>
       <use x="127.246094" xlink:href="#DejaVuSans-35"/>
      </g>
     </g>
    </g>
    <g id="xtick_8">
     <g id="line2d_8">
      <g>
       <use style="stroke:#000000;stroke-width:0.8;" x="580.054359" xlink:href="#m2e1339f2e1" y="457.198125"/>
      </g>
     </g>
     <g id="text_8">
      <!-- 400 -->
      <defs>
       <path d="M 37.796875 64.3125 
L 12.890625 25.390625 
L 37.796875 25.390625 
z
M 35.203125 72.90625 
L 47.609375 72.90625 
L 47.609375 25.390625 
L 58.015625 25.390625 
L 58.015625 17.1875 
L 47.609375 17.1875 
L 47.609375 0 
L 37.796875 0 
L 37.796875 17.1875 
L 4.890625 17.1875 
L 4.890625 26.703125 
z
" id="DejaVuSans-34"/>
      </defs>
      <g transform="translate(570.510609 471.796562)scale(0.1 -0.1)">
       <use xlink:href="#DejaVuSans-34"/>
       <use x="63.623047" xlink:href="#DejaVuSans-30"/>
       <use x="127.246094" xlink:href="#DejaVuSans-30"/>
      </g>
     </g>
    </g>
    <g id="xtick_9">
     <g id="line2d_9">
      <g>
       <use style="stroke:#000000;stroke-width:0.8;" x="655.508278" xlink:href="#m2e1339f2e1" y="457.198125"/>
      </g>
     </g>
     <g id="text_9">
      <!-- 425 -->
      <g transform="translate(645.964528 471.796562)scale(0.1 -0.1)">
       <use xlink:href="#DejaVuSans-34"/>
       <use x="63.623047" xlink:href="#DejaVuSans-32"/>
       <use x="127.246094" xlink:href="#DejaVuSans-35"/>
      </g>
     </g>
    </g>
    <g id="text_10">
     <!-- Temperatur [K] -->
     <defs>
      <path d="M -0.296875 72.90625 
L 61.375 72.90625 
L 61.375 64.59375 
L 35.5 64.59375 
L 35.5 0 
L 25.59375 0 
L 25.59375 64.59375 
L -0.296875 64.59375 
z
" id="DejaVuSans-54"/>
      <path d="M 56.203125 29.59375 
L 56.203125 25.203125 
L 14.890625 25.203125 
Q 15.484375 15.921875 20.484375 11.0625 
Q 25.484375 6.203125 34.421875 6.203125 
Q 39.59375 6.203125 44.453125 7.46875 
Q 49.3125 8.734375 54.109375 11.28125 
L 54.109375 2.78125 
Q 49.265625 0.734375 44.1875 -0.34375 
Q 39.109375 -1.421875 33.890625 -1.421875 
Q 20.796875 -1.421875 13.15625 6.1875 
Q 5.515625 13.8125 5.515625 26.8125 
Q 5.515625 40.234375 12.765625 48.109375 
Q 20.015625 56 32.328125 56 
Q 43.359375 56 49.78125 48.890625 
Q 56.203125 41.796875 56.203125 29.59375 
z
M 47.21875 32.234375 
Q 47.125 39.59375 43.09375 43.984375 
Q 39.0625 48.390625 32.421875 48.390625 
Q 24.90625 48.390625 20.390625 44.140625 
Q 15.875 39.890625 15.1875 32.171875 
z
" id="DejaVuSans-65"/>
      <path d="M 52 44.1875 
Q 55.375 50.25 60.0625 53.125 
Q 64.75 56 71.09375 56 
Q 79.640625 56 84.28125 50.015625 
Q 88.921875 44.046875 88.921875 33.015625 
L 88.921875 0 
L 79.890625 0 
L 79.890625 32.71875 
Q 79.890625 40.578125 77.09375 44.375 
Q 74.3125 48.1875 68.609375 48.1875 
Q 61.625 48.1875 57.5625 43.546875 
Q 53.515625 38.921875 53.515625 30.90625 
L 53.515625 0 
L 44.484375 0 
L 44.484375 32.71875 
Q 44.484375 40.625 41.703125 44.40625 
Q 38.921875 48.1875 33.109375 48.1875 
Q 26.21875 48.1875 22.15625 43.53125 
Q 18.109375 38.875 18.109375 30.90625 
L 18.109375 0 
L 9.078125 0 
L 9.078125 54.6875 
L 18.109375 54.6875 
L 18.109375 46.1875 
Q 21.1875 51.21875 25.484375 53.609375 
Q 29.78125 56 35.6875 56 
Q 41.65625 56 45.828125 52.96875 
Q 50 49.953125 52 44.1875 
z
" id="DejaVuSans-6d"/>
      <path d="M 18.109375 8.203125 
L 18.109375 -20.796875 
L 9.078125 -20.796875 
L 9.078125 54.6875 
L 18.109375 54.6875 
L 18.109375 46.390625 
Q 20.953125 51.265625 25.265625 53.625 
Q 29.59375 56 35.59375 56 
Q 45.5625 56 51.78125 48.09375 
Q 58.015625 40.1875 58.015625 27.296875 
Q 58.015625 14.40625 51.78125 6.484375 
Q 45.5625 -1.421875 35.59375 -1.421875 
Q 29.59375 -1.421875 25.265625 0.953125 
Q 20.953125 3.328125 18.109375 8.203125 
z
M 48.6875 27.296875 
Q 48.6875 37.203125 44.609375 42.84375 
Q 40.53125 48.484375 33.40625 48.484375 
Q 26.265625 48.484375 22.1875 42.84375 
Q 18.109375 37.203125 18.109375 27.296875 
Q 18.109375 17.390625 22.1875 11.75 
Q 26.265625 6.109375 33.40625 6.109375 
Q 40.53125 6.109375 44.609375 11.75 
Q 48.6875 17.390625 48.6875 27.296875 
z
" id="DejaVuSans-70"/>
      <path d="M 41.109375 46.296875 
Q 39.59375 47.171875 37.8125 47.578125 
Q 36.03125 48 33.890625 48 
Q 26.265625 48 22.1875 43.046875 
Q 18.109375 38.09375 18.109375 28.8125 
L 18.109375 0 
L 9.078125 0 
L 9.078125 54.6875 
L 18.109375 54.6875 
L 18.109375 46.1875 
Q 20.953125 51.171875 25.484375 53.578125 
Q 30.03125 56 36.53125 56 
Q 37.453125 56 38.578125 55.875 
Q 39.703125 55.765625 41.0625 55.515625 
z
" id="DejaVuSans-72"/>
      <path d="M 34.28125 27.484375 
Q 23.390625 27.484375 19.1875 25 
Q 14.984375 22.515625 14.984375 16.5 
Q 14.984375 11.71875 18.140625 8.90625 
Q 21.296875 6.109375 26.703125 6.109375 
Q 34.1875 6.109375 38.703125 11.40625 
Q 43.21875 16.703125 43.21875 25.484375 
L 43.21875 27.484375 
z
M 52.203125 31.203125 
L 52.203125 0 
L 43.21875 0 
L 43.21875 8.296875 
Q 40.140625 3.328125 35.546875 0.953125 
Q 30.953125 -1.421875 24.3125 -1.421875 
Q 15.921875 -1.421875 10.953125 3.296875 
Q 6 8.015625 6 15.921875 
Q 6 25.140625 12.171875 29.828125 
Q 18.359375 34.515625 30.609375 34.515625 
L 43.21875 34.515625 
L 43.21875 35.40625 
Q 43.21875 41.609375 39.140625 45 
Q 35.0625 48.390625 27.6875 48.390625 
Q 23 48.390625 18.546875 47.265625 
Q 14.109375 46.140625 10.015625 43.890625 
L 10.015625 52.203125 
Q 14.9375 54.109375 19.578125 55.046875 
Q 24.21875 56 28.609375 56 
Q 40.484375 56 46.34375 49.84375 
Q 52.203125 43.703125 52.203125 31.203125 
z
" id="DejaVuSans-61"/>
      <path d="M 18.3125 70.21875 
L 18.3125 54.6875 
L 36.8125 54.6875 
L 36.8125 47.703125 
L 18.3125 47.703125 
L 18.3125 18.015625 
Q 18.3125 11.328125 20.140625 9.421875 
Q 21.96875 7.515625 27.59375 7.515625 
L 36.8125 7.515625 
L 36.8125 0 
L 27.59375 0 
Q 17.1875 0 13.234375 3.875 
Q 9.28125 7.765625 9.28125 18.015625 
L 9.28125 47.703125 
L 2.6875 47.703125 
L 2.6875 54.6875 
L 9.28125 54.6875 
L 9.28125 70.21875 
z
" id="DejaVuSans-74"/>
      <path d="M 8.5 21.578125 
L 8.5 54.6875 
L 17.484375 54.6875 
L 17.484375 21.921875 
Q 17.484375 14.15625 20.5 10.265625 
Q 23.53125 6.390625 29.59375 6.390625 
Q 36.859375 6.390625 41.078125 11.03125 
Q 45.3125 15.671875 45.3125 23.6875 
L 45.3125 54.6875 
L 54.296875 54.6875 
L 54.296875 0 
L 45.3125 0 
L 45.3125 8.40625 
Q 42.046875 3.421875 37.71875 1 
Q 33.40625 -1.421875 27.6875 -1.421875 
Q 18.265625 -1.421875 13.375 4.4375 
Q 8.5 10.296875 8.5 21.578125 
z
M 31.109375 56 
z
" id="DejaVuSans-75"/>
      <path id="DejaVuSans-20"/>
      <path d="M 8.59375 75.984375 
L 29.296875 75.984375 
L 29.296875 69 
L 17.578125 69 
L 17.578125 -6.203125 
L 29.296875 -6.203125 
L 29.296875 -13.1875 
L 8.59375 -13.1875 
z
" id="DejaVuSans-5b"/>
      <path d="M 9.8125 72.90625 
L 19.671875 72.90625 
L 19.671875 42.09375 
L 52.390625 72.90625 
L 65.09375 72.90625 
L 28.90625 38.921875 
L 67.671875 0 
L 54.6875 0 
L 19.671875 35.109375 
L 19.671875 0 
L 9.8125 0 
z
" id="DejaVuSans-4b"/>
      <path d="M 30.421875 75.984375 
L 30.421875 -13.1875 
L 9.71875 -13.1875 
L 9.71875 -6.203125 
L 21.390625 -6.203125 
L 21.390625 69 
L 9.71875 69 
L 9.71875 75.984375 
z
" id="DejaVuSans-5d"/>
     </defs>
     <g transform="translate(345.471094 485.474687)scale(0.1 -0.1)">
      <use xlink:href="#DejaVuSans-54"/>
      <use x="60.818359" xlink:href="#DejaVuSans-65"/>
      <use x="122.341797" xlink:href="#DejaVuSans-6d"/>
      <use x="219.753906" xlink:href="#DejaVuSans-70"/>
      <use x="283.230469" xlink:href="#DejaVuSans-65"/>
      <use x="344.753906" xlink:href="#DejaVuSans-72"/>
      <use x="385.867188" xlink:href="#DejaVuSans-61"/>
      <use x="447.146484" xlink:href="#DejaVuSans-74"/>
      <use x="486.355469" xlink:href="#DejaVuSans-75"/>
      <use x="549.734375" xlink:href="#DejaVuSans-72"/>
      <use x="590.847656" xlink:href="#DejaVuSans-20"/>
      <use x="622.634766" xlink:href="#DejaVuSans-5b"/>
      <use x="661.648438" xlink:href="#DejaVuSans-4b"/>
      <use x="727.224609" xlink:href="#DejaVuSans-5d"/>
     </g>
    </g>
   </g>
   <g id="matplotlib.axis_2">
    <g id="ytick_1">
     <g id="line2d_10">
      <defs>
       <path d="M 0 0 
L -3.5 0 
" id="m9719183187" style="stroke:#000000;stroke-width:0.8;"/>
      </defs>
      <g>
       <use style="stroke:#000000;stroke-width:0.8;" x="48.982813" xlink:href="#m9719183187" y="390.945721"/>
      </g>
     </g>
     <g id="text_11">
      <!-- −20 -->
      <defs>
       <path d="M 10.59375 35.5 
L 73.1875 35.5 
L 73.1875 27.203125 
L 10.59375 27.203125 
z
" id="DejaVuSans-2212"/>
      </defs>
      <g transform="translate(20.878125 394.74494)scale(0.1 -0.1)">
       <use xlink:href="#DejaVuSans-2212"/>
       <use x="83.789062" xlink:href="#DejaVuSans-32"/>
       <use x="147.412109" xlink:href="#DejaVuSans-30"/>
      </g>
     </g>
    </g>
    <g id="ytick_2">
     <g id="line2d_11">
      <g>
       <use style="stroke:#000000;stroke-width:0.8;" x="48.982813" xlink:href="#m9719183187" y="314.752902"/>
      </g>
     </g>
     <g id="text_12">
      <!-- −15 -->
      <defs>
       <path d="M 12.40625 8.296875 
L 28.515625 8.296875 
L 28.515625 63.921875 
L 10.984375 60.40625 
L 10.984375 69.390625 
L 28.421875 72.90625 
L 38.28125 72.90625 
L 38.28125 8.296875 
L 54.390625 8.296875 
L 54.390625 0 
L 12.40625 0 
z
" id="DejaVuSans-31"/>
      </defs>
      <g transform="translate(20.878125 318.552121)scale(0.1 -0.1)">
       <use xlink:href="#DejaVuSans-2212"/>
       <use x="83.789062" xlink:href="#DejaVuSans-31"/>
       <use x="147.412109" xlink:href="#DejaVuSans-35"/>
      </g>
     </g>
    </g>
    <g id="ytick_3">
     <g id="line2d_12">
      <g>
       <use style="stroke:#000000;stroke-width:0.8;" x="48.982813" xlink:href="#m9719183187" y="238.560082"/>
      </g>
     </g>
     <g id="text_13">
      <!-- −10 -->
      <g transform="translate(20.878125 242.359301)scale(0.1 -0.1)">
       <use xlink:href="#DejaVuSans-2212"/>
       <use x="83.789062" xlink:href="#DejaVuSans-31"/>
       <use x="147.412109" xlink:href="#DejaVuSans-30"/>
      </g>
     </g>
    </g>
    <g id="ytick_4">
     <g id="line2d_13">
      <g>
       <use style="stroke:#000000;stroke-width:0.8;" x="48.982813" xlink:href="#m9719183187" y="162.367263"/>
      </g>
     </g>
     <g id="text_14">
      <!-- −5 -->
      <g transform="translate(27.240625 166.166482)scale(0.1 -0.1)">
       <use xlink:href="#DejaVuSans-2212"/>
       <use x="83.789062" xlink:href="#DejaVuSans-35"/>
      </g>
     </g>
    </g>
    <g id="ytick_5">
     <g id="line2d_14">
      <g>
       <use style="stroke:#000000;stroke-width:0.8;" x="48.982813" xlink:href="#m9719183187" y="86.174444"/>
      </g>
     </g>
     <g id="text_15">
      <!-- 0 -->
      <g transform="translate(35.620312 89.973662)scale(0.1 -0.1)">
       <use xlink:href="#DejaVuSans-30"/>
      </g>
     </g>
    </g>
    <g id="text_16">
     <!-- Schwerpunkt [kHz] -->
     <defs>
      <path d="M 53.515625 70.515625 
L 53.515625 60.890625 
Q 47.90625 63.578125 42.921875 64.890625 
Q 37.9375 66.21875 33.296875 66.21875 
Q 25.25 66.21875 20.875 63.09375 
Q 16.5 59.96875 16.5 54.203125 
Q 16.5 49.359375 19.40625 46.890625 
Q 22.3125 44.4375 30.421875 42.921875 
L 36.375 41.703125 
Q 47.40625 39.59375 52.65625 34.296875 
Q 57.90625 29 57.90625 20.125 
Q 57.90625 9.515625 50.796875 4.046875 
Q 43.703125 -1.421875 29.984375 -1.421875 
Q 24.8125 -1.421875 18.96875 -0.25 
Q 13.140625 0.921875 6.890625 3.21875 
L 6.890625 13.375 
Q 12.890625 10.015625 18.65625 8.296875 
Q 24.421875 6.59375 29.984375 6.59375 
Q 38.421875 6.59375 43.015625 9.90625 
Q 47.609375 13.234375 47.609375 19.390625 
Q 47.609375 24.75 44.3125 27.78125 
Q 41.015625 30.8125 33.5 32.328125 
L 27.484375 33.5 
Q 16.453125 35.6875 11.515625 40.375 
Q 6.59375 45.0625 6.59375 53.421875 
Q 6.59375 63.09375 13.40625 68.65625 
Q 20.21875 74.21875 32.171875 74.21875 
Q 37.3125 74.21875 42.625 73.28125 
Q 47.953125 72.359375 53.515625 70.515625 
z
" id="DejaVuSans-53"/>
      <path d="M 48.78125 52.59375 
L 48.78125 44.1875 
Q 44.96875 46.296875 41.140625 47.34375 
Q 37.3125 48.390625 33.40625 48.390625 
Q 24.65625 48.390625 19.8125 42.84375 
Q 14.984375 37.3125 14.984375 27.296875 
Q 14.984375 17.28125 19.8125 11.734375 
Q 24.65625 6.203125 33.40625 6.203125 
Q 37.3125 6.203125 41.140625 7.25 
Q 44.96875 8.296875 48.78125 10.40625 
L 48.78125 2.09375 
Q 45.015625 0.34375 40.984375 -0.53125 
Q 36.96875 -1.421875 32.421875 -1.421875 
Q 20.0625 -1.421875 12.78125 6.34375 
Q 5.515625 14.109375 5.515625 27.296875 
Q 5.515625 40.671875 12.859375 48.328125 
Q 20.21875 56 33.015625 56 
Q 37.15625 56 41.109375 55.140625 
Q 45.0625 54.296875 48.78125 52.59375 
z
" id="DejaVuSans-63"/>
      <path d="M 54.890625 33.015625 
L 54.890625 0 
L 45.90625 0 
L 45.90625 32.71875 
Q 45.90625 40.484375 42.875 44.328125 
Q 39.84375 48.1875 33.796875 48.1875 
Q 26.515625 48.1875 22.3125 43.546875 
Q 18.109375 38.921875 18.109375 30.90625 
L 18.109375 0 
L 9.078125 0 
L 9.078125 75.984375 
L 18.109375 75.984375 
L 18.109375 46.1875 
Q 21.34375 51.125 25.703125 53.5625 
Q 30.078125 56 35.796875 56 
Q 45.21875 56 50.046875 50.171875 
Q 54.890625 44.34375 54.890625 33.015625 
z
" id="DejaVuSans-68"/>
      <path d="M 4.203125 54.6875 
L 13.1875 54.6875 
L 24.421875 12.015625 
L 35.59375 54.6875 
L 46.1875 54.6875 
L 57.421875 12.015625 
L 68.609375 54.6875 
L 77.59375 54.6875 
L 63.28125 0 
L 52.6875 0 
L 40.921875 44.828125 
L 29.109375 0 
L 18.5 0 
z
" id="DejaVuSans-77"/>
      <path d="M 54.890625 33.015625 
L 54.890625 0 
L 45.90625 0 
L 45.90625 32.71875 
Q 45.90625 40.484375 42.875 44.328125 
Q 39.84375 48.1875 33.796875 48.1875 
Q 26.515625 48.1875 22.3125 43.546875 
Q 18.109375 38.921875 18.109375 30.90625 
L 18.109375 0 
L 9.078125 0 
L 9.078125 54.6875 
L 18.109375 54.6875 
L 18.109375 46.1875 
Q 21.34375 51.125 25.703125 53.5625 
Q 30.078125 56 35.796875 56 
Q 45.21875 56 50.046875 50.171875 
Q 54.890625 44.34375 54.890625 33.015625 
z
" id="DejaVuSans-6e"/>
      <path d="M 9.078125 75.984375 
L 18.109375 75.984375 
L 18.109375 31.109375 
L 44.921875 54.6875 
L 56.390625 54.6875 
L 27.390625 29.109375 
L 57.625 0 
L 45.90625 0 
L 18.109375 26.703125 
L 18.109375 0 
L 9.078125 0 
z
" id="DejaVuSans-6b"/>
      <path d="M 9.8125 72.90625 
L 19.671875 72.90625 
L 19.671875 43.015625 
L 55.515625 43.015625 
L 55.515625 72.90625 
L 65.375 72.90625 
L 65.375 0 
L 55.515625 0 
L 55.515625 34.71875 
L 19.671875 34.71875 
L 19.671875 0 
L 9.8125 0 
z
" id="DejaVuSans-48"/>
      <path d="M 5.515625 54.6875 
L 48.1875 54.6875 
L 48.1875 46.484375 
L 14.40625 7.171875 
L 48.1875 7.171875 
L 48.1875 0 
L 4.296875 0 
L 4.296875 8.203125 
L 38.09375 47.515625 
L 5.515625 47.515625 
z
" id="DejaVuSans-7a"/>
     </defs>
     <g transform="translate(14.798437 287.208906)rotate(-90)scale(0.1 -0.1)">
      <use xlink:href="#DejaVuSans-53"/>
      <use x="63.476562" xlink:href="#DejaVuSans-63"/>
      <use x="118.457031" xlink:href="#DejaVuSans-68"/>
      <use x="181.835938" xlink:href="#DejaVuSans-77"/>
      <use x="263.623047" xlink:href="#DejaVuSans-65"/>
      <use x="325.146484" xlink:href="#DejaVuSans-72"/>
      <use x="366.259766" xlink:href="#DejaVuSans-70"/>
      <use x="429.736328" xlink:href="#DejaVuSans-75"/>
      <use x="493.115234" xlink:href="#DejaVuSans-6e"/>
      <use x="556.494141" xlink:href="#DejaVuSans-6b"/>
      <use x="614.404297" xlink:href="#DejaVuSans-74"/>
      <use x="653.613281" xlink:href="#DejaVuSans-20"/>
      <use x="685.400391" xlink:href="#DejaVuSans-5b"/>
      <use x="724.414062" xlink:href="#DejaVuSans-6b"/>
      <use x="782.324219" xlink:href="#DejaVuSans-48"/>
      <use x="857.519531" xlink:href="#DejaVuSans-7a"/>
      <use x="910.009766" xlink:href="#DejaVuSans-5d"/>
     </g>
    </g>
   </g>
   <g id="LineCollection_1">
    <path clip-path="url(#pcb2b12eb75)" d="M 338.601819 207.086353 
L 338.601819 207.086353 
" style="fill:none;stroke:#d62728;stroke-width:1.5;"/>
    <path clip-path="url(#pcb2b12eb75)" d="M 398.964954 210.806086 
L 398.964954 210.806086 
" style="fill:none;stroke:#d62728;stroke-width:1.5;"/>
    <path clip-path="url(#pcb2b12eb75)" d="M 429.146521 225.688067 
L 429.146521 225.688067 
" style="fill:none;stroke:#d62728;stroke-width:1.5;"/>
    <path clip-path="url(#pcb2b12eb75)" d="M 429.146521 210.806086 
L 429.146521 210.806086 
" style="fill:none;stroke:#d62728;stroke-width:1.5;"/>
    <path clip-path="url(#pcb2b12eb75)" d="M 459.328089 341.01809 
L 459.328089 341.01809 
" style="fill:none;stroke:#d62728;stroke-width:1.5;"/>
    <path clip-path="url(#pcb2b12eb75)" d="M 459.328089 339.158986 
L 459.328089 339.158986 
" style="fill:none;stroke:#d62728;stroke-width:1.5;"/>
    <path clip-path="url(#pcb2b12eb75)" d="M 459.328089 339.158986 
L 459.328089 339.158986 
" style="fill:none;stroke:#d62728;stroke-width:1.5;"/>
    <path clip-path="url(#pcb2b12eb75)" d="M 489.509656 365.200168 
L 489.509656 365.200168 
" style="fill:none;stroke:#d62728;stroke-width:1.5;"/>
    <path clip-path="url(#pcb2b12eb75)" d="M 519.691224 346.598453 
L 519.691224 346.598453 
" style="fill:none;stroke:#d62728;stroke-width:1.5;"/>
    <path clip-path="url(#pcb2b12eb75)" d="M 549.872791 313.11628 
L 549.872791 313.11628 
" style="fill:none;stroke:#d62728;stroke-width:1.5;"/>
    <path clip-path="url(#pcb2b12eb75)" d="M 504.60044 357.760701 
L 504.60044 357.760701 
" style="fill:none;stroke:#d62728;stroke-width:1.5;"/>
    <path clip-path="url(#pcb2b12eb75)" d="M 534.782008 331.717995 
L 534.782008 331.717995 
" style="fill:none;stroke:#d62728;stroke-width:1.5;"/>
    <path clip-path="url(#pcb2b12eb75)" d="M 474.418873 359.619805 
L 474.418873 359.619805 
" style="fill:none;stroke:#d62728;stroke-width:1.5;"/>
    <path clip-path="url(#pcb2b12eb75)" d="M 444.237305 266.611231 
L 444.237305 266.611231 
" style="fill:none;stroke:#d62728;stroke-width:1.5;"/>
    <path clip-path="url(#pcb2b12eb75)" d="M 414.055737 210.806086 
L 414.055737 210.806086 
" style="fill:none;stroke:#d62728;stroke-width:1.5;"/>
    <path clip-path="url(#pcb2b12eb75)" d="M 368.783386 203.365095 
L 368.783386 203.365095 
" style="fill:none;stroke:#d62728;stroke-width:1.5;"/>
    <path clip-path="url(#pcb2b12eb75)" d="M 383.87417 203.365095 
L 383.87417 203.365095 
" style="fill:none;stroke:#d62728;stroke-width:1.5;"/>
    <path clip-path="url(#pcb2b12eb75)" d="M 338.601819 201.50599 
L 338.601819 201.50599 
" style="fill:none;stroke:#d62728;stroke-width:1.5;"/>
    <path clip-path="url(#pcb2b12eb75)" d="M 308.420251 207.086353 
L 308.420251 207.086353 
" style="fill:none;stroke:#d62728;stroke-width:1.5;"/>
    <path clip-path="url(#pcb2b12eb75)" d="M 398.964954 205.225724 
L 398.964954 205.225724 
" style="fill:none;stroke:#d62728;stroke-width:1.5;"/>
   </g>
   <g id="line2d_15">
    <defs>
     <path d="M -3 3 
L 3 3 
L 3 -3 
L -3 -3 
z
" id="me1eaa40367" style="stroke:#d62728;stroke-linejoin:miter;"/>
    </defs>
    <g clip-path="url(#pcb2b12eb75)">
     <use style="fill:#d62728;stroke:#d62728;stroke-linejoin:miter;" x="338.601819" xlink:href="#me1eaa40367" y="207.086353"/>
     <use style="fill:#d62728;stroke:#d62728;stroke-linejoin:miter;" x="398.964954" xlink:href="#me1eaa40367" y="210.806086"/>
     <use style="fill:#d62728;stroke:#d62728;stroke-linejoin:miter;" x="429.146521" xlink:href="#me1eaa40367" y="225.688067"/>
     <use style="fill:#d62728;stroke:#d62728;stroke-linejoin:miter;" x="429.146521" xlink:href="#me1eaa40367" y="210.806086"/>
     <use style="fill:#d62728;stroke:#d62728;stroke-linejoin:miter;" x="459.328089" xlink:href="#me1eaa40367" y="341.01809"/>
     <use style="fill:#d62728;stroke:#d62728;stroke-linejoin:miter;" x="459.328089" xlink:href="#me1eaa40367" y="339.158986"/>
     <use style="fill:#d62728;stroke:#d62728;stroke-linejoin:miter;" x="459.328089" xlink:href="#me1eaa40367" y="339.158986"/>
     <use style="fill:#d62728;stroke:#d62728;stroke-linejoin:miter;" x="489.509656" xlink:href="#me1eaa40367" y="365.200168"/>
     <use style="fill:#d62728;stroke:#d62728;stroke-linejoin:miter;" x="519.691224" xlink:href="#me1eaa40367" y="346.598453"/>
     <use style="fill:#d62728;stroke:#d62728;stroke-linejoin:miter;" x="549.872791" xlink:href="#me1eaa40367" y="313.11628"/>
     <use style="fill:#d62728;stroke:#d62728;stroke-linejoin:miter;" x="504.60044" xlink:href="#me1eaa40367" y="357.760701"/>
     <use style="fill:#d62728;stroke:#d62728;stroke-linejoin:miter;" x="534.782008" xlink:href="#me1eaa40367" y="331.717995"/>
     <use style="fill:#d62728;stroke:#d62728;stroke-linejoin:miter;" x="474.418873" xlink:href="#me1eaa40367" y="359.619805"/>
     <use style="fill:#d62728;stroke:#d62728;stroke-linejoin:miter;" x="444.237305" xlink:href="#me1eaa40367" y="266.611231"/>
     <use style="fill:#d62728;stroke:#d62728;stroke-linejoin:miter;" x="414.055737" xlink:href="#me1eaa40367" y="210.806086"/>
     <use style="fill:#d62728;stroke:#d62728;stroke-linejoin:miter;" x="368.783386" xlink:href="#me1eaa40367" y="203.365095"/>
     <use style="fill:#d62728;stroke:#d62728;stroke-linejoin:miter;" x="383.87417" xlink:href="#me1eaa40367" y="203.365095"/>
     <use style="fill:#d62728;stroke:#d62728;stroke-linejoin:miter;" x="338.601819" xlink:href="#me1eaa40367" y="201.50599"/>
     <use style="fill:#d62728;stroke:#d62728;stroke-linejoin:miter;" x="308.420251" xlink:href="#me1eaa40367" y="207.086353"/>
     <use style="fill:#d62728;stroke:#d62728;stroke-linejoin:miter;" x="398.964954" xlink:href="#me1eaa40367" y="205.225724"/>
    </g>
   </g>
   <g id="patch_3">
    <path d="M 48.982813 457.198125 
L 48.982813 22.318125 
" style="fill:none;stroke:#000000;stroke-linecap:square;stroke-linejoin:miter;stroke-width:0.8;"/>
   </g>
   <g id="patch_4">
    <path d="M 718.582813 457.198125 
L 718.582813 22.318125 
" style="fill:none;stroke:#000000;stroke-linecap:square;stroke-linejoin:miter;stroke-width:0.8;"/>
   </g>
   <g id="patch_5">
    <path d="M 48.982813 457.198125 
L 718.582813 457.198125 
" style="fill:none;stroke:#000000;stroke-linecap:square;stroke-linejoin:miter;stroke-width:0.8;"/>
   </g>
   <g id="patch_6">
    <path d="M 48.982813 22.318125 
L 718.582813 22.318125 
" style="fill:none;stroke:#000000;stroke-linecap:square;stroke-linejoin:miter;stroke-width:0.8;"/>
   </g>
   <g id="text_17">
    <!-- Schwerpunkt Bruker -->
    <defs>
     <path d="M 19.671875 34.8125 
L 19.671875 8.109375 
L 35.5 8.109375 
Q 43.453125 8.109375 47.28125 11.40625 
Q 51.125 14.703125 51.125 21.484375 
Q 51.125 28.328125 47.28125 31.5625 
Q 43.453125 34.8125 35.5 34.8125 
z
M 19.671875 64.796875 
L 19.671875 42.828125 
L 34.28125 42.828125 
Q 41.5 42.828125 45.03125 45.53125 
Q 48.578125 48.25 48.578125 53.8125 
Q 48.578125 59.328125 45.03125 62.0625 
Q 41.5 64.796875 34.28125 64.796875 
z
M 9.8125 72.90625 
L 35.015625 72.90625 
Q 46.296875 72.90625 52.390625 68.21875 
Q 58.5 63.53125 58.5 54.890625 
Q 58.5 48.1875 55.375 44.234375 
Q 52.25 40.28125 46.1875 39.3125 
Q 53.46875 37.75 57.5 32.78125 
Q 61.53125 27.828125 61.53125 20.40625 
Q 61.53125 10.640625 54.890625 5.3125 
Q 48.25 0 35.984375 0 
L 9.8125 0 
z
" id="DejaVuSans-42"/>
    </defs>
    <g transform="translate(322.64375 16.318125)scale(0.12 -0.12)">
     <use xlink:href="#DejaVuSans-53"/>
     <use x="63.476562" xlink:href="#DejaVuSans-63"/>
     <use x="118.457031" xlink:href="#DejaVuSans-68"/>
     <use x="181.835938" xlink:href="#DejaVuSans-77"/>
     <use x="263.623047" xlink:href="#DejaVuSans-65"/>
     <use x="325.146484" xlink:href="#DejaVuSans-72"/>
     <use x="366.259766" xlink:href="#DejaVuSans-70"/>
     <use x="429.736328" xlink:href="#DejaVuSans-75"/>
     <use x="493.115234" xlink:href="#DejaVuSans-6e"/>
     <use x="556.494141" xlink:href="#DejaVuSans-6b"/>
     <use x="614.404297" xlink:href="#DejaVuSans-74"/>
     <use x="653.613281" xlink:href="#DejaVuSans-20"/>
     <use x="685.400391" xlink:href="#DejaVuSans-42"/>
     <use x="754.003906" xlink:href="#DejaVuSans-72"/>
     <use x="795.117188" xlink:href="#DejaVuSans-75"/>
     <use x="858.496094" xlink:href="#DejaVuSans-6b"/>
     <use x="916.359375" xlink:href="#DejaVuSans-65"/>
     <use x="977.882812" xlink:href="#DejaVuSans-72"/>
    </g>
   </g>
   <g id="legend_1">
    <g id="patch_7">
     <path d="M 55.982813 44.99625 
L 121.342187 44.99625 
Q 123.342187 44.99625 123.342187 42.99625 
L 123.342187 29.318125 
Q 123.342187 27.318125 121.342187 27.318125 
L 55.982813 27.318125 
Q 53.982813 27.318125 53.982813 29.318125 
L 53.982813 42.99625 
Q 53.982813 44.99625 55.982813 44.99625 
z
" style="fill:#ffffff;opacity:0.8;stroke:#cccccc;stroke-linejoin:miter;"/>
    </g>
    <g id="LineCollection_2">
     <path d="M 67.982812 40.416562 
L 67.982812 30.416562 
" style="fill:none;stroke:#d62728;stroke-width:1.5;"/>
    </g>
    <g id="line2d_16"/>
    <g id="line2d_17">
     <g>
      <use style="fill:#d62728;stroke:#d62728;stroke-linejoin:miter;" x="67.982812" xlink:href="#me1eaa40367" y="35.416562"/>
     </g>
    </g>
    <g id="text_18">
     <!-- Bruker -->
     <g transform="translate(85.982812 38.916562)scale(0.1 -0.1)">
      <use xlink:href="#DejaVuSans-42"/>
      <use x="68.603516" xlink:href="#DejaVuSans-72"/>
      <use x="109.716797" xlink:href="#DejaVuSans-75"/>
      <use x="173.095703" xlink:href="#DejaVuSans-6b"/>
      <use x="230.958984" xlink:href="#DejaVuSans-65"/>
      <use x="292.482422" xlink:href="#DejaVuSans-72"/>
     </g>
    </g>
   </g>
  </g>
 </g>
 <defs>
  <clipPath id="pcb2b12eb75">
   <rect height="434.88" width="669.6" x="48.982813" y="22.318125"/>
  </clipPath>
 </defs>
</svg>
