<?xml version="1.0" encoding="utf-8" standalone="no"?>
<!DOCTYPE svg PUBLIC "-//W3C//DTD SVG 1.1//EN"
  "http://www.w3.org/Graphics/SVG/1.1/DTD/svg11.dtd">
<!-- Created with matplotlib (http://matplotlib.org/) -->
<svg height="277.314375pt" version="1.1" viewBox="0 0 413.248438 277.314375" width="413.248438pt" xmlns="http://www.w3.org/2000/svg" xmlns:xlink="http://www.w3.org/1999/xlink">
 <defs>
  <style type="text/css">
*{stroke-linecap:butt;stroke-linejoin:round;}
  </style>
 </defs>
 <g id="figure_1">
  <g id="patch_1">
   <path d="M 0 277.314375 
L 413.248438 277.314375 
L 413.248438 0 
L 0 0 
z
" style="fill:#ffffff;"/>
  </g>
  <g id="axes_1">
   <g id="patch_2">
    <path d="M 52.160938 239.758125 
L 386.960938 239.758125 
L 386.960938 22.318125 
L 52.160938 22.318125 
z
" style="fill:#ffffff;"/>
   </g>
   <g id="matplotlib.axis_1">
    <g id="xtick_1">
     <g id="line2d_1">
      <defs>
       <path d="M 0 0 
L 0 3.5 
" id="mc0d21a7717" style="stroke:#000000;stroke-width:0.8;"/>
      </defs>
      <g>
       <use style="stroke:#000000;stroke-width:0.8;" x="52.160938" xlink:href="#mc0d21a7717" y="239.758125"/>
      </g>
     </g>
     <g id="text_1">
      <!-- −100000 -->
      <defs>
       <path d="M 10.59375 35.5 
L 73.1875 35.5 
L 73.1875 27.203125 
L 10.59375 27.203125 
z
" id="DejaVuSans-2212"/>
       <path d="M 12.40625 8.296875 
L 28.515625 8.296875 
L 28.515625 63.921875 
L 10.984375 60.40625 
L 10.984375 69.390625 
L 28.421875 72.90625 
L 38.28125 72.90625 
L 38.28125 8.296875 
L 54.390625 8.296875 
L 54.390625 0 
L 12.40625 0 
z
" id="DejaVuSans-31"/>
       <path d="M 31.78125 66.40625 
Q 24.171875 66.40625 20.328125 58.90625 
Q 16.5 51.421875 16.5 36.375 
Q 16.5 21.390625 20.328125 13.890625 
Q 24.171875 6.390625 31.78125 6.390625 
Q 39.453125 6.390625 43.28125 13.890625 
Q 47.125 21.390625 47.125 36.375 
Q 47.125 51.421875 43.28125 58.90625 
Q 39.453125 66.40625 31.78125 66.40625 
z
M 31.78125 74.21875 
Q 44.046875 74.21875 50.515625 64.515625 
Q 56.984375 54.828125 56.984375 36.375 
Q 56.984375 17.96875 50.515625 8.265625 
Q 44.046875 -1.421875 31.78125 -1.421875 
Q 19.53125 -1.421875 13.0625 8.265625 
Q 6.59375 17.96875 6.59375 36.375 
Q 6.59375 54.828125 13.0625 64.515625 
Q 19.53125 74.21875 31.78125 74.21875 
z
" id="DejaVuSans-30"/>
      </defs>
      <g transform="translate(28.883594 254.356562)scale(0.1 -0.1)">
       <use xlink:href="#DejaVuSans-2212"/>
       <use x="83.789062" xlink:href="#DejaVuSans-31"/>
       <use x="147.412109" xlink:href="#DejaVuSans-30"/>
       <use x="211.035156" xlink:href="#DejaVuSans-30"/>
       <use x="274.658203" xlink:href="#DejaVuSans-30"/>
       <use x="338.28125" xlink:href="#DejaVuSans-30"/>
       <use x="401.904297" xlink:href="#DejaVuSans-30"/>
      </g>
     </g>
    </g>
    <g id="xtick_2">
     <g id="line2d_2">
      <g>
       <use style="stroke:#000000;stroke-width:0.8;" x="94.010938" xlink:href="#mc0d21a7717" y="239.758125"/>
      </g>
     </g>
     <g id="text_2">
      <!-- −75000 -->
      <defs>
       <path d="M 8.203125 72.90625 
L 55.078125 72.90625 
L 55.078125 68.703125 
L 28.609375 0 
L 18.3125 0 
L 43.21875 64.59375 
L 8.203125 64.59375 
z
" id="DejaVuSans-37"/>
       <path d="M 10.796875 72.90625 
L 49.515625 72.90625 
L 49.515625 64.59375 
L 19.828125 64.59375 
L 19.828125 46.734375 
Q 21.96875 47.46875 24.109375 47.828125 
Q 26.265625 48.1875 28.421875 48.1875 
Q 40.625 48.1875 47.75 41.5 
Q 54.890625 34.8125 54.890625 23.390625 
Q 54.890625 11.625 47.5625 5.09375 
Q 40.234375 -1.421875 26.90625 -1.421875 
Q 22.3125 -1.421875 17.546875 -0.640625 
Q 12.796875 0.140625 7.71875 1.703125 
L 7.71875 11.625 
Q 12.109375 9.234375 16.796875 8.0625 
Q 21.484375 6.890625 26.703125 6.890625 
Q 35.15625 6.890625 40.078125 11.328125 
Q 45.015625 15.765625 45.015625 23.390625 
Q 45.015625 31 40.078125 35.4375 
Q 35.15625 39.890625 26.703125 39.890625 
Q 22.75 39.890625 18.8125 39.015625 
Q 14.890625 38.140625 10.796875 36.28125 
z
" id="DejaVuSans-35"/>
      </defs>
      <g transform="translate(73.914844 254.356562)scale(0.1 -0.1)">
       <use xlink:href="#DejaVuSans-2212"/>
       <use x="83.789062" xlink:href="#DejaVuSans-37"/>
       <use x="147.412109" xlink:href="#DejaVuSans-35"/>
       <use x="211.035156" xlink:href="#DejaVuSans-30"/>
       <use x="274.658203" xlink:href="#DejaVuSans-30"/>
       <use x="338.28125" xlink:href="#DejaVuSans-30"/>
      </g>
     </g>
    </g>
    <g id="xtick_3">
     <g id="line2d_3">
      <g>
       <use style="stroke:#000000;stroke-width:0.8;" x="135.860938" xlink:href="#mc0d21a7717" y="239.758125"/>
      </g>
     </g>
     <g id="text_3">
      <!-- −50000 -->
      <g transform="translate(115.764844 254.356562)scale(0.1 -0.1)">
       <use xlink:href="#DejaVuSans-2212"/>
       <use x="83.789062" xlink:href="#DejaVuSans-35"/>
       <use x="147.412109" xlink:href="#DejaVuSans-30"/>
       <use x="211.035156" xlink:href="#DejaVuSans-30"/>
       <use x="274.658203" xlink:href="#DejaVuSans-30"/>
       <use x="338.28125" xlink:href="#DejaVuSans-30"/>
      </g>
     </g>
    </g>
    <g id="xtick_4">
     <g id="line2d_4">
      <g>
       <use style="stroke:#000000;stroke-width:0.8;" x="177.710938" xlink:href="#mc0d21a7717" y="239.758125"/>
      </g>
     </g>
     <g id="text_4">
      <!-- −25000 -->
      <defs>
       <path d="M 19.1875 8.296875 
L 53.609375 8.296875 
L 53.609375 0 
L 7.328125 0 
L 7.328125 8.296875 
Q 12.9375 14.109375 22.625 23.890625 
Q 32.328125 33.6875 34.8125 36.53125 
Q 39.546875 41.84375 41.421875 45.53125 
Q 43.3125 49.21875 43.3125 52.78125 
Q 43.3125 58.59375 39.234375 62.25 
Q 35.15625 65.921875 28.609375 65.921875 
Q 23.96875 65.921875 18.8125 64.3125 
Q 13.671875 62.703125 7.8125 59.421875 
L 7.8125 69.390625 
Q 13.765625 71.78125 18.9375 73 
Q 24.125 74.21875 28.421875 74.21875 
Q 39.75 74.21875 46.484375 68.546875 
Q 53.21875 62.890625 53.21875 53.421875 
Q 53.21875 48.921875 51.53125 44.890625 
Q 49.859375 40.875 45.40625 35.40625 
Q 44.1875 33.984375 37.640625 27.21875 
Q 31.109375 20.453125 19.1875 8.296875 
z
" id="DejaVuSans-32"/>
      </defs>
      <g transform="translate(157.614844 254.356562)scale(0.1 -0.1)">
       <use xlink:href="#DejaVuSans-2212"/>
       <use x="83.789062" xlink:href="#DejaVuSans-32"/>
       <use x="147.412109" xlink:href="#DejaVuSans-35"/>
       <use x="211.035156" xlink:href="#DejaVuSans-30"/>
       <use x="274.658203" xlink:href="#DejaVuSans-30"/>
       <use x="338.28125" xlink:href="#DejaVuSans-30"/>
      </g>
     </g>
    </g>
    <g id="xtick_5">
     <g id="line2d_5">
      <g>
       <use style="stroke:#000000;stroke-width:0.8;" x="219.560938" xlink:href="#mc0d21a7717" y="239.758125"/>
      </g>
     </g>
     <g id="text_5">
      <!-- 0 -->
      <g transform="translate(216.379688 254.356562)scale(0.1 -0.1)">
       <use xlink:href="#DejaVuSans-30"/>
      </g>
     </g>
    </g>
    <g id="xtick_6">
     <g id="line2d_6">
      <g>
       <use style="stroke:#000000;stroke-width:0.8;" x="261.410938" xlink:href="#mc0d21a7717" y="239.758125"/>
      </g>
     </g>
     <g id="text_6">
      <!-- 25000 -->
      <g transform="translate(245.504688 254.356562)scale(0.1 -0.1)">
       <use xlink:href="#DejaVuSans-32"/>
       <use x="63.623047" xlink:href="#DejaVuSans-35"/>
       <use x="127.246094" xlink:href="#DejaVuSans-30"/>
       <use x="190.869141" xlink:href="#DejaVuSans-30"/>
       <use x="254.492188" xlink:href="#DejaVuSans-30"/>
      </g>
     </g>
    </g>
    <g id="xtick_7">
     <g id="line2d_7">
      <g>
       <use style="stroke:#000000;stroke-width:0.8;" x="303.260938" xlink:href="#mc0d21a7717" y="239.758125"/>
      </g>
     </g>
     <g id="text_7">
      <!-- 50000 -->
      <g transform="translate(287.354688 254.356562)scale(0.1 -0.1)">
       <use xlink:href="#DejaVuSans-35"/>
       <use x="63.623047" xlink:href="#DejaVuSans-30"/>
       <use x="127.246094" xlink:href="#DejaVuSans-30"/>
       <use x="190.869141" xlink:href="#DejaVuSans-30"/>
       <use x="254.492188" xlink:href="#DejaVuSans-30"/>
      </g>
     </g>
    </g>
    <g id="xtick_8">
     <g id="line2d_8">
      <g>
       <use style="stroke:#000000;stroke-width:0.8;" x="345.110938" xlink:href="#mc0d21a7717" y="239.758125"/>
      </g>
     </g>
     <g id="text_8">
      <!-- 75000 -->
      <g transform="translate(329.204688 254.356562)scale(0.1 -0.1)">
       <use xlink:href="#DejaVuSans-37"/>
       <use x="63.623047" xlink:href="#DejaVuSans-35"/>
       <use x="127.246094" xlink:href="#DejaVuSans-30"/>
       <use x="190.869141" xlink:href="#DejaVuSans-30"/>
       <use x="254.492188" xlink:href="#DejaVuSans-30"/>
      </g>
     </g>
    </g>
    <g id="xtick_9">
     <g id="line2d_9">
      <g>
       <use style="stroke:#000000;stroke-width:0.8;" x="386.960938" xlink:href="#mc0d21a7717" y="239.758125"/>
      </g>
     </g>
     <g id="text_9">
      <!-- 100000 -->
      <g transform="translate(367.873438 254.356562)scale(0.1 -0.1)">
       <use xlink:href="#DejaVuSans-31"/>
       <use x="63.623047" xlink:href="#DejaVuSans-30"/>
       <use x="127.246094" xlink:href="#DejaVuSans-30"/>
       <use x="190.869141" xlink:href="#DejaVuSans-30"/>
       <use x="254.492188" xlink:href="#DejaVuSans-30"/>
       <use x="318.115234" xlink:href="#DejaVuSans-30"/>
      </g>
     </g>
    </g>
    <g id="text_10">
     <!-- Frequenz [Hz] -->
     <defs>
      <path d="M 9.8125 72.90625 
L 51.703125 72.90625 
L 51.703125 64.59375 
L 19.671875 64.59375 
L 19.671875 43.109375 
L 48.578125 43.109375 
L 48.578125 34.8125 
L 19.671875 34.8125 
L 19.671875 0 
L 9.8125 0 
z
" id="DejaVuSans-46"/>
      <path d="M 41.109375 46.296875 
Q 39.59375 47.171875 37.8125 47.578125 
Q 36.03125 48 33.890625 48 
Q 26.265625 48 22.1875 43.046875 
Q 18.109375 38.09375 18.109375 28.8125 
L 18.109375 0 
L 9.078125 0 
L 9.078125 54.6875 
L 18.109375 54.6875 
L 18.109375 46.1875 
Q 20.953125 51.171875 25.484375 53.578125 
Q 30.03125 56 36.53125 56 
Q 37.453125 56 38.578125 55.875 
Q 39.703125 55.765625 41.0625 55.515625 
z
" id="DejaVuSans-72"/>
      <path d="M 56.203125 29.59375 
L 56.203125 25.203125 
L 14.890625 25.203125 
Q 15.484375 15.921875 20.484375 11.0625 
Q 25.484375 6.203125 34.421875 6.203125 
Q 39.59375 6.203125 44.453125 7.46875 
Q 49.3125 8.734375 54.109375 11.28125 
L 54.109375 2.78125 
Q 49.265625 0.734375 44.1875 -0.34375 
Q 39.109375 -1.421875 33.890625 -1.421875 
Q 20.796875 -1.421875 13.15625 6.1875 
Q 5.515625 13.8125 5.515625 26.8125 
Q 5.515625 40.234375 12.765625 48.109375 
Q 20.015625 56 32.328125 56 
Q 43.359375 56 49.78125 48.890625 
Q 56.203125 41.796875 56.203125 29.59375 
z
M 47.21875 32.234375 
Q 47.125 39.59375 43.09375 43.984375 
Q 39.0625 48.390625 32.421875 48.390625 
Q 24.90625 48.390625 20.390625 44.140625 
Q 15.875 39.890625 15.1875 32.171875 
z
" id="DejaVuSans-65"/>
      <path d="M 14.796875 27.296875 
Q 14.796875 17.390625 18.875 11.75 
Q 22.953125 6.109375 30.078125 6.109375 
Q 37.203125 6.109375 41.296875 11.75 
Q 45.40625 17.390625 45.40625 27.296875 
Q 45.40625 37.203125 41.296875 42.84375 
Q 37.203125 48.484375 30.078125 48.484375 
Q 22.953125 48.484375 18.875 42.84375 
Q 14.796875 37.203125 14.796875 27.296875 
z
M 45.40625 8.203125 
Q 42.578125 3.328125 38.25 0.953125 
Q 33.9375 -1.421875 27.875 -1.421875 
Q 17.96875 -1.421875 11.734375 6.484375 
Q 5.515625 14.40625 5.515625 27.296875 
Q 5.515625 40.1875 11.734375 48.09375 
Q 17.96875 56 27.875 56 
Q 33.9375 56 38.25 53.625 
Q 42.578125 51.265625 45.40625 46.390625 
L 45.40625 54.6875 
L 54.390625 54.6875 
L 54.390625 -20.796875 
L 45.40625 -20.796875 
z
" id="DejaVuSans-71"/>
      <path d="M 8.5 21.578125 
L 8.5 54.6875 
L 17.484375 54.6875 
L 17.484375 21.921875 
Q 17.484375 14.15625 20.5 10.265625 
Q 23.53125 6.390625 29.59375 6.390625 
Q 36.859375 6.390625 41.078125 11.03125 
Q 45.3125 15.671875 45.3125 23.6875 
L 45.3125 54.6875 
L 54.296875 54.6875 
L 54.296875 0 
L 45.3125 0 
L 45.3125 8.40625 
Q 42.046875 3.421875 37.71875 1 
Q 33.40625 -1.421875 27.6875 -1.421875 
Q 18.265625 -1.421875 13.375 4.4375 
Q 8.5 10.296875 8.5 21.578125 
z
M 31.109375 56 
z
" id="DejaVuSans-75"/>
      <path d="M 54.890625 33.015625 
L 54.890625 0 
L 45.90625 0 
L 45.90625 32.71875 
Q 45.90625 40.484375 42.875 44.328125 
Q 39.84375 48.1875 33.796875 48.1875 
Q 26.515625 48.1875 22.3125 43.546875 
Q 18.109375 38.921875 18.109375 30.90625 
L 18.109375 0 
L 9.078125 0 
L 9.078125 54.6875 
L 18.109375 54.6875 
L 18.109375 46.1875 
Q 21.34375 51.125 25.703125 53.5625 
Q 30.078125 56 35.796875 56 
Q 45.21875 56 50.046875 50.171875 
Q 54.890625 44.34375 54.890625 33.015625 
z
" id="DejaVuSans-6e"/>
      <path d="M 5.515625 54.6875 
L 48.1875 54.6875 
L 48.1875 46.484375 
L 14.40625 7.171875 
L 48.1875 7.171875 
L 48.1875 0 
L 4.296875 0 
L 4.296875 8.203125 
L 38.09375 47.515625 
L 5.515625 47.515625 
z
" id="DejaVuSans-7a"/>
      <path id="DejaVuSans-20"/>
      <path d="M 8.59375 75.984375 
L 29.296875 75.984375 
L 29.296875 69 
L 17.578125 69 
L 17.578125 -6.203125 
L 29.296875 -6.203125 
L 29.296875 -13.1875 
L 8.59375 -13.1875 
z
" id="DejaVuSans-5b"/>
      <path d="M 9.8125 72.90625 
L 19.671875 72.90625 
L 19.671875 43.015625 
L 55.515625 43.015625 
L 55.515625 72.90625 
L 65.375 72.90625 
L 65.375 0 
L 55.515625 0 
L 55.515625 34.71875 
L 19.671875 34.71875 
L 19.671875 0 
L 9.8125 0 
z
" id="DejaVuSans-48"/>
      <path d="M 30.421875 75.984375 
L 30.421875 -13.1875 
L 9.71875 -13.1875 
L 9.71875 -6.203125 
L 21.390625 -6.203125 
L 21.390625 69 
L 9.71875 69 
L 9.71875 75.984375 
z
" id="DejaVuSans-5d"/>
     </defs>
     <g transform="translate(184.472656 268.034687)scale(0.1 -0.1)">
      <use xlink:href="#DejaVuSans-46"/>
      <use x="57.410156" xlink:href="#DejaVuSans-72"/>
      <use x="98.492188" xlink:href="#DejaVuSans-65"/>
      <use x="160.015625" xlink:href="#DejaVuSans-71"/>
      <use x="223.492188" xlink:href="#DejaVuSans-75"/>
      <use x="286.871094" xlink:href="#DejaVuSans-65"/>
      <use x="348.394531" xlink:href="#DejaVuSans-6e"/>
      <use x="411.773438" xlink:href="#DejaVuSans-7a"/>
      <use x="464.263672" xlink:href="#DejaVuSans-20"/>
      <use x="496.050781" xlink:href="#DejaVuSans-5b"/>
      <use x="535.064453" xlink:href="#DejaVuSans-48"/>
      <use x="610.259766" xlink:href="#DejaVuSans-7a"/>
      <use x="662.75" xlink:href="#DejaVuSans-5d"/>
     </g>
    </g>
   </g>
   <g id="matplotlib.axis_2">
    <g id="ytick_1">
     <g id="line2d_10">
      <defs>
       <path d="M 0 0 
L -3.5 0 
" id="m0e8aa76873" style="stroke:#000000;stroke-width:0.8;"/>
      </defs>
      <g>
       <use style="stroke:#000000;stroke-width:0.8;" x="52.160938" xlink:href="#m0e8aa76873" y="239.758125"/>
      </g>
     </g>
     <g id="text_11">
      <!-- −0.2 -->
      <defs>
       <path d="M 10.6875 12.40625 
L 21 12.40625 
L 21 0 
L 10.6875 0 
z
" id="DejaVuSans-2e"/>
      </defs>
      <g transform="translate(20.878125 243.557344)scale(0.1 -0.1)">
       <use xlink:href="#DejaVuSans-2212"/>
       <use x="83.789062" xlink:href="#DejaVuSans-30"/>
       <use x="147.412109" xlink:href="#DejaVuSans-2e"/>
       <use x="179.199219" xlink:href="#DejaVuSans-32"/>
      </g>
     </g>
    </g>
    <g id="ytick_2">
     <g id="line2d_11">
      <g>
       <use style="stroke:#000000;stroke-width:0.8;" x="52.160938" xlink:href="#m0e8aa76873" y="206.305817"/>
      </g>
     </g>
     <g id="text_12">
      <!-- 0.0 -->
      <g transform="translate(29.257813 210.105036)scale(0.1 -0.1)">
       <use xlink:href="#DejaVuSans-30"/>
       <use x="63.623047" xlink:href="#DejaVuSans-2e"/>
       <use x="95.410156" xlink:href="#DejaVuSans-30"/>
      </g>
     </g>
    </g>
    <g id="ytick_3">
     <g id="line2d_12">
      <g>
       <use style="stroke:#000000;stroke-width:0.8;" x="52.160938" xlink:href="#m0e8aa76873" y="172.85351"/>
      </g>
     </g>
     <g id="text_13">
      <!-- 0.2 -->
      <g transform="translate(29.257813 176.652728)scale(0.1 -0.1)">
       <use xlink:href="#DejaVuSans-30"/>
       <use x="63.623047" xlink:href="#DejaVuSans-2e"/>
       <use x="95.410156" xlink:href="#DejaVuSans-32"/>
      </g>
     </g>
    </g>
    <g id="ytick_4">
     <g id="line2d_13">
      <g>
       <use style="stroke:#000000;stroke-width:0.8;" x="52.160938" xlink:href="#m0e8aa76873" y="139.401202"/>
      </g>
     </g>
     <g id="text_14">
      <!-- 0.4 -->
      <defs>
       <path d="M 37.796875 64.3125 
L 12.890625 25.390625 
L 37.796875 25.390625 
z
M 35.203125 72.90625 
L 47.609375 72.90625 
L 47.609375 25.390625 
L 58.015625 25.390625 
L 58.015625 17.1875 
L 47.609375 17.1875 
L 47.609375 0 
L 37.796875 0 
L 37.796875 17.1875 
L 4.890625 17.1875 
L 4.890625 26.703125 
z
" id="DejaVuSans-34"/>
      </defs>
      <g transform="translate(29.257813 143.200421)scale(0.1 -0.1)">
       <use xlink:href="#DejaVuSans-30"/>
       <use x="63.623047" xlink:href="#DejaVuSans-2e"/>
       <use x="95.410156" xlink:href="#DejaVuSans-34"/>
      </g>
     </g>
    </g>
    <g id="ytick_5">
     <g id="line2d_14">
      <g>
       <use style="stroke:#000000;stroke-width:0.8;" x="52.160938" xlink:href="#m0e8aa76873" y="105.948894"/>
      </g>
     </g>
     <g id="text_15">
      <!-- 0.6 -->
      <defs>
       <path d="M 33.015625 40.375 
Q 26.375 40.375 22.484375 35.828125 
Q 18.609375 31.296875 18.609375 23.390625 
Q 18.609375 15.53125 22.484375 10.953125 
Q 26.375 6.390625 33.015625 6.390625 
Q 39.65625 6.390625 43.53125 10.953125 
Q 47.40625 15.53125 47.40625 23.390625 
Q 47.40625 31.296875 43.53125 35.828125 
Q 39.65625 40.375 33.015625 40.375 
z
M 52.59375 71.296875 
L 52.59375 62.3125 
Q 48.875 64.0625 45.09375 64.984375 
Q 41.3125 65.921875 37.59375 65.921875 
Q 27.828125 65.921875 22.671875 59.328125 
Q 17.53125 52.734375 16.796875 39.40625 
Q 19.671875 43.65625 24.015625 45.921875 
Q 28.375 48.1875 33.59375 48.1875 
Q 44.578125 48.1875 50.953125 41.515625 
Q 57.328125 34.859375 57.328125 23.390625 
Q 57.328125 12.15625 50.6875 5.359375 
Q 44.046875 -1.421875 33.015625 -1.421875 
Q 20.359375 -1.421875 13.671875 8.265625 
Q 6.984375 17.96875 6.984375 36.375 
Q 6.984375 53.65625 15.1875 63.9375 
Q 23.390625 74.21875 37.203125 74.21875 
Q 40.921875 74.21875 44.703125 73.484375 
Q 48.484375 72.75 52.59375 71.296875 
z
" id="DejaVuSans-36"/>
      </defs>
      <g transform="translate(29.257813 109.748113)scale(0.1 -0.1)">
       <use xlink:href="#DejaVuSans-30"/>
       <use x="63.623047" xlink:href="#DejaVuSans-2e"/>
       <use x="95.410156" xlink:href="#DejaVuSans-36"/>
      </g>
     </g>
    </g>
    <g id="ytick_6">
     <g id="line2d_15">
      <g>
       <use style="stroke:#000000;stroke-width:0.8;" x="52.160938" xlink:href="#m0e8aa76873" y="72.496587"/>
      </g>
     </g>
     <g id="text_16">
      <!-- 0.8 -->
      <defs>
       <path d="M 31.78125 34.625 
Q 24.75 34.625 20.71875 30.859375 
Q 16.703125 27.09375 16.703125 20.515625 
Q 16.703125 13.921875 20.71875 10.15625 
Q 24.75 6.390625 31.78125 6.390625 
Q 38.8125 6.390625 42.859375 10.171875 
Q 46.921875 13.96875 46.921875 20.515625 
Q 46.921875 27.09375 42.890625 30.859375 
Q 38.875 34.625 31.78125 34.625 
z
M 21.921875 38.8125 
Q 15.578125 40.375 12.03125 44.71875 
Q 8.5 49.078125 8.5 55.328125 
Q 8.5 64.0625 14.71875 69.140625 
Q 20.953125 74.21875 31.78125 74.21875 
Q 42.671875 74.21875 48.875 69.140625 
Q 55.078125 64.0625 55.078125 55.328125 
Q 55.078125 49.078125 51.53125 44.71875 
Q 48 40.375 41.703125 38.8125 
Q 48.828125 37.15625 52.796875 32.3125 
Q 56.78125 27.484375 56.78125 20.515625 
Q 56.78125 9.90625 50.3125 4.234375 
Q 43.84375 -1.421875 31.78125 -1.421875 
Q 19.734375 -1.421875 13.25 4.234375 
Q 6.78125 9.90625 6.78125 20.515625 
Q 6.78125 27.484375 10.78125 32.3125 
Q 14.796875 37.15625 21.921875 38.8125 
z
M 18.3125 54.390625 
Q 18.3125 48.734375 21.84375 45.5625 
Q 25.390625 42.390625 31.78125 42.390625 
Q 38.140625 42.390625 41.71875 45.5625 
Q 45.3125 48.734375 45.3125 54.390625 
Q 45.3125 60.0625 41.71875 63.234375 
Q 38.140625 66.40625 31.78125 66.40625 
Q 25.390625 66.40625 21.84375 63.234375 
Q 18.3125 60.0625 18.3125 54.390625 
z
" id="DejaVuSans-38"/>
      </defs>
      <g transform="translate(29.257813 76.295805)scale(0.1 -0.1)">
       <use xlink:href="#DejaVuSans-30"/>
       <use x="63.623047" xlink:href="#DejaVuSans-2e"/>
       <use x="95.410156" xlink:href="#DejaVuSans-38"/>
      </g>
     </g>
    </g>
    <g id="ytick_7">
     <g id="line2d_16">
      <g>
       <use style="stroke:#000000;stroke-width:0.8;" x="52.160938" xlink:href="#m0e8aa76873" y="39.044279"/>
      </g>
     </g>
     <g id="text_17">
      <!-- 1.0 -->
      <g transform="translate(29.257813 42.843498)scale(0.1 -0.1)">
       <use xlink:href="#DejaVuSans-31"/>
       <use x="63.623047" xlink:href="#DejaVuSans-2e"/>
       <use x="95.410156" xlink:href="#DejaVuSans-30"/>
      </g>
     </g>
    </g>
    <g id="text_18">
     <!-- Amplitude [normiert] -->
     <defs>
      <path d="M 34.1875 63.1875 
L 20.796875 26.90625 
L 47.609375 26.90625 
z
M 28.609375 72.90625 
L 39.796875 72.90625 
L 67.578125 0 
L 57.328125 0 
L 50.6875 18.703125 
L 17.828125 18.703125 
L 11.1875 0 
L 0.78125 0 
z
" id="DejaVuSans-41"/>
      <path d="M 52 44.1875 
Q 55.375 50.25 60.0625 53.125 
Q 64.75 56 71.09375 56 
Q 79.640625 56 84.28125 50.015625 
Q 88.921875 44.046875 88.921875 33.015625 
L 88.921875 0 
L 79.890625 0 
L 79.890625 32.71875 
Q 79.890625 40.578125 77.09375 44.375 
Q 74.3125 48.1875 68.609375 48.1875 
Q 61.625 48.1875 57.5625 43.546875 
Q 53.515625 38.921875 53.515625 30.90625 
L 53.515625 0 
L 44.484375 0 
L 44.484375 32.71875 
Q 44.484375 40.625 41.703125 44.40625 
Q 38.921875 48.1875 33.109375 48.1875 
Q 26.21875 48.1875 22.15625 43.53125 
Q 18.109375 38.875 18.109375 30.90625 
L 18.109375 0 
L 9.078125 0 
L 9.078125 54.6875 
L 18.109375 54.6875 
L 18.109375 46.1875 
Q 21.1875 51.21875 25.484375 53.609375 
Q 29.78125 56 35.6875 56 
Q 41.65625 56 45.828125 52.96875 
Q 50 49.953125 52 44.1875 
z
" id="DejaVuSans-6d"/>
      <path d="M 18.109375 8.203125 
L 18.109375 -20.796875 
L 9.078125 -20.796875 
L 9.078125 54.6875 
L 18.109375 54.6875 
L 18.109375 46.390625 
Q 20.953125 51.265625 25.265625 53.625 
Q 29.59375 56 35.59375 56 
Q 45.5625 56 51.78125 48.09375 
Q 58.015625 40.1875 58.015625 27.296875 
Q 58.015625 14.40625 51.78125 6.484375 
Q 45.5625 -1.421875 35.59375 -1.421875 
Q 29.59375 -1.421875 25.265625 0.953125 
Q 20.953125 3.328125 18.109375 8.203125 
z
M 48.6875 27.296875 
Q 48.6875 37.203125 44.609375 42.84375 
Q 40.53125 48.484375 33.40625 48.484375 
Q 26.265625 48.484375 22.1875 42.84375 
Q 18.109375 37.203125 18.109375 27.296875 
Q 18.109375 17.390625 22.1875 11.75 
Q 26.265625 6.109375 33.40625 6.109375 
Q 40.53125 6.109375 44.609375 11.75 
Q 48.6875 17.390625 48.6875 27.296875 
z
" id="DejaVuSans-70"/>
      <path d="M 9.421875 75.984375 
L 18.40625 75.984375 
L 18.40625 0 
L 9.421875 0 
z
" id="DejaVuSans-6c"/>
      <path d="M 9.421875 54.6875 
L 18.40625 54.6875 
L 18.40625 0 
L 9.421875 0 
z
M 9.421875 75.984375 
L 18.40625 75.984375 
L 18.40625 64.59375 
L 9.421875 64.59375 
z
" id="DejaVuSans-69"/>
      <path d="M 18.3125 70.21875 
L 18.3125 54.6875 
L 36.8125 54.6875 
L 36.8125 47.703125 
L 18.3125 47.703125 
L 18.3125 18.015625 
Q 18.3125 11.328125 20.140625 9.421875 
Q 21.96875 7.515625 27.59375 7.515625 
L 36.8125 7.515625 
L 36.8125 0 
L 27.59375 0 
Q 17.1875 0 13.234375 3.875 
Q 9.28125 7.765625 9.28125 18.015625 
L 9.28125 47.703125 
L 2.6875 47.703125 
L 2.6875 54.6875 
L 9.28125 54.6875 
L 9.28125 70.21875 
z
" id="DejaVuSans-74"/>
      <path d="M 45.40625 46.390625 
L 45.40625 75.984375 
L 54.390625 75.984375 
L 54.390625 0 
L 45.40625 0 
L 45.40625 8.203125 
Q 42.578125 3.328125 38.25 0.953125 
Q 33.9375 -1.421875 27.875 -1.421875 
Q 17.96875 -1.421875 11.734375 6.484375 
Q 5.515625 14.40625 5.515625 27.296875 
Q 5.515625 40.1875 11.734375 48.09375 
Q 17.96875 56 27.875 56 
Q 33.9375 56 38.25 53.625 
Q 42.578125 51.265625 45.40625 46.390625 
z
M 14.796875 27.296875 
Q 14.796875 17.390625 18.875 11.75 
Q 22.953125 6.109375 30.078125 6.109375 
Q 37.203125 6.109375 41.296875 11.75 
Q 45.40625 17.390625 45.40625 27.296875 
Q 45.40625 37.203125 41.296875 42.84375 
Q 37.203125 48.484375 30.078125 48.484375 
Q 22.953125 48.484375 18.875 42.84375 
Q 14.796875 37.203125 14.796875 27.296875 
z
" id="DejaVuSans-64"/>
      <path d="M 30.609375 48.390625 
Q 23.390625 48.390625 19.1875 42.75 
Q 14.984375 37.109375 14.984375 27.296875 
Q 14.984375 17.484375 19.15625 11.84375 
Q 23.34375 6.203125 30.609375 6.203125 
Q 37.796875 6.203125 41.984375 11.859375 
Q 46.1875 17.53125 46.1875 27.296875 
Q 46.1875 37.015625 41.984375 42.703125 
Q 37.796875 48.390625 30.609375 48.390625 
z
M 30.609375 56 
Q 42.328125 56 49.015625 48.375 
Q 55.71875 40.765625 55.71875 27.296875 
Q 55.71875 13.875 49.015625 6.21875 
Q 42.328125 -1.421875 30.609375 -1.421875 
Q 18.84375 -1.421875 12.171875 6.21875 
Q 5.515625 13.875 5.515625 27.296875 
Q 5.515625 40.765625 12.171875 48.375 
Q 18.84375 56 30.609375 56 
z
" id="DejaVuSans-6f"/>
     </defs>
     <g transform="translate(14.798438 183.785781)rotate(-90)scale(0.1 -0.1)">
      <use xlink:href="#DejaVuSans-41"/>
      <use x="68.408203" xlink:href="#DejaVuSans-6d"/>
      <use x="165.820312" xlink:href="#DejaVuSans-70"/>
      <use x="229.296875" xlink:href="#DejaVuSans-6c"/>
      <use x="257.080078" xlink:href="#DejaVuSans-69"/>
      <use x="284.863281" xlink:href="#DejaVuSans-74"/>
      <use x="324.072266" xlink:href="#DejaVuSans-75"/>
      <use x="387.451172" xlink:href="#DejaVuSans-64"/>
      <use x="450.927734" xlink:href="#DejaVuSans-65"/>
      <use x="512.451172" xlink:href="#DejaVuSans-20"/>
      <use x="544.238281" xlink:href="#DejaVuSans-5b"/>
      <use x="583.251953" xlink:href="#DejaVuSans-6e"/>
      <use x="646.630859" xlink:href="#DejaVuSans-6f"/>
      <use x="707.8125" xlink:href="#DejaVuSans-72"/>
      <use x="748.910156" xlink:href="#DejaVuSans-6d"/>
      <use x="846.322266" xlink:href="#DejaVuSans-69"/>
      <use x="874.105469" xlink:href="#DejaVuSans-65"/>
      <use x="935.628906" xlink:href="#DejaVuSans-72"/>
      <use x="976.742188" xlink:href="#DejaVuSans-74"/>
      <use x="1015.951172" xlink:href="#DejaVuSans-5d"/>
     </g>
    </g>
   </g>
   <g id="line2d_17">
    <path clip-path="url(#pf2f2e0a926)" d="M 51.997461 204.742107 
L 53.632227 204.695993 
L 56.493066 204.417511 
L 63.849512 203.597416 
L 66.30166 203.178246 
L 67.936426 202.824527 
L 69.1625 202.55788 
L 71.614648 202.425912 
L 73.658105 201.724349 
L 74.475488 201.441512 
L 75.292871 201.410973 
L 76.927637 201.687986 
L 77.74502 201.391412 
L 78.562402 201.005628 
L 81.423242 200.277917 
L 84.284082 199.755344 
L 85.510156 199.389038 
L 90.005762 198.842049 
L 91.640527 198.231441 
L 95.31875 197.651751 
L 97.770898 197.818774 
L 98.588281 197.352118 
L 101.449121 195.010751 
L 103.90127 193.860128 
L 105.944727 193.093686 
L 107.170801 192.499761 
L 108.396875 191.724212 
L 109.622949 191.224427 
L 110.849023 190.238606 
L 112.075098 189.384071 
L 112.89248 189.016832 
L 115.344629 188.221273 
L 116.162012 187.732168 
L 117.388086 186.60121 
L 118.205469 185.923116 
L 121.066309 184.336809 
L 123.927148 182.088477 
L 125.153223 181.298366 
L 125.970605 180.716501 
L 128.014063 179.003732 
L 129.240137 178.083645 
L 133.735742 174.212966 
L 134.961816 173.029865 
L 136.596582 171.716923 
L 138.231348 169.91532 
L 140.683496 167.335239 
L 143.544336 164.664197 
L 144.77041 163.750513 
L 145.587793 162.8817 
L 148.857324 158.721282 
L 150.083398 157.406394 
L 154.170313 152.244567 
L 154.987695 151.405129 
L 155.805078 150.154586 
L 157.031152 148.297592 
L 158.665918 146.188175 
L 159.891992 144.646082 
L 160.709375 143.624803 
L 165.613672 136.209868 
L 167.657129 132.757624 
L 171.335352 126.961024 
L 177.465723 116.568152 
L 181.552637 108.77536 
L 182.778711 106.40994 
L 184.004785 104.189004 
L 186.456934 98.826124 
L 188.500391 94.779265 
L 189.726465 92.146869 
L 191.769922 88.124163 
L 193.404688 84.154195 
L 194.630762 81.232237 
L 196.265527 77.662142 
L 197.491602 74.835949 
L 199.535059 70.543986 
L 200.761133 67.72627 
L 202.395898 64.530567 
L 204.439355 59.396998 
L 205.66543 56.414472 
L 208.117578 50.006642 
L 210.161035 45.730132 
L 211.795801 42.610127 
L 212.613184 41.560459 
L 215.065332 39.317513 
L 215.474023 39.087768 
L 215.882715 39.044279 
L 216.291406 39.187012 
L 218.334863 40.48234 
L 218.743555 41.08412 
L 219.152246 42.503743 
L 219.560938 44.915203 
L 220.787012 53.973727 
L 221.604395 57.609018 
L 223.647852 63.853066 
L 230.186914 87.292175 
L 234.68252 101.350499 
L 239.995508 115.918885 
L 246.943262 132.03662 
L 248.986719 136.14151 
L 251.030176 140.506943 
L 253.073633 144.813489 
L 254.708398 147.644824 
L 256.751855 151.475968 
L 259.204004 155.306234 
L 260.83877 157.654551 
L 263.290918 161.514426 
L 265.743066 164.658209 
L 266.969141 166.169153 
L 268.603906 168.40104 
L 270.647363 170.548804 
L 272.69082 173.224426 
L 274.734277 175.27951 
L 276.369043 176.890483 
L 277.595117 178.253722 
L 278.4125 179.193678 
L 279.638574 180.20432 
L 280.864648 181.028274 
L 282.090723 181.812546 
L 283.725488 183.369559 
L 285.360254 185.23604 
L 286.177637 185.674252 
L 287.403711 186.054239 
L 288.221094 186.629114 
L 289.447168 187.529024 
L 290.673242 188.27391 
L 291.899316 189.264389 
L 294.760156 190.907622 
L 295.98623 191.426964 
L 298.438379 192.324704 
L 300.890527 193.712502 
L 302.116602 194.485889 
L 302.933984 194.581751 
L 303.751367 194.531341 
L 304.56875 194.736016 
L 305.386133 195.190122 
L 306.612207 195.970016 
L 307.42959 196.192482 
L 309.473047 196.358548 
L 310.29043 196.78744 
L 312.333887 198.155455 
L 313.15127 198.257683 
L 314.377344 198.359261 
L 316.012109 198.786605 
L 317.646875 199.356825 
L 320.099023 199.918306 
L 320.916406 199.878745 
L 321.733789 200.113189 
L 322.959863 200.726995 
L 324.185938 200.970409 
L 325.00332 201.032448 
L 326.638086 200.992107 
L 329.090234 201.518537 
L 330.316309 201.925648 
L 331.542383 202.119776 
L 332.768457 202.279325 
L 334.403223 202.948976 
L 335.220605 202.911281 
L 338.490137 202.517038 
L 339.30752 202.619163 
L 340.942285 203.287117 
L 343.803125 204.45568 
L 344.620508 204.618797 
L 345.846582 204.494353 
L 347.072656 204.434232 
L 349.933496 204.707509 
L 352.385645 205.049999 
L 354.429102 204.753886 
L 357.289941 205.198095 
L 358.924707 205.017005 
L 362.194238 205.353008 
L 365.872461 205.255368 
L 367.098535 205.503679 
L 367.915918 205.249884 
L 368.733301 205.003677 
L 369.959375 205.097696 
L 372.411523 205.507177 
L 374.863672 205.452382 
L 377.31582 205.310949 
L 378.950586 205.880664 
L 379.767969 205.736808 
L 380.994043 205.407424 
L 382.220117 205.471615 
L 383.446191 205.435464 
L 384.672266 205.307323 
L 385.489648 205.391626 
L 387.124414 205.779141 
L 387.124414 205.779141 
" style="fill:none;stroke:#1f77b4;stroke-linecap:square;stroke-width:1.5;"/>
   </g>
   <g id="line2d_18">
    <path clip-path="url(#pf2f2e0a926)" d="M 51.997461 206.122296 
L 52.814844 205.710849 
L 53.632227 205.720275 
L 54.449609 205.783838 
L 55.675684 205.417027 
L 58.536523 204.430429 
L 60.171289 203.67809 
L 60.57998 203.710077 
L 61.397363 204.115858 
L 62.214746 204.430743 
L 63.032129 204.286653 
L 63.849512 204.051554 
L 64.258203 204.075436 
L 66.30166 204.74655 
L 67.119043 204.688327 
L 69.1625 203.82272 
L 69.979883 203.685465 
L 70.388574 203.748035 
L 71.205957 204.277819 
L 71.614648 204.571131 
L 72.02334 204.721467 
L 72.432031 204.662369 
L 73.249414 204.04355 
L 74.066797 203.3788 
L 74.88418 203.039438 
L 76.518945 202.57315 
L 77.74502 202.664552 
L 78.971094 202.086007 
L 79.788477 202.198574 
L 80.605859 202.285145 
L 81.423242 202.197151 
L 82.240625 201.890459 
L 83.466699 201.217217 
L 84.692773 200.923178 
L 85.918848 200.605584 
L 86.73623 200.413896 
L 87.962305 200.619553 
L 90.005762 200.902843 
L 91.231836 200.755299 
L 92.45791 200.319828 
L 93.683984 199.552688 
L 94.501367 199.005707 
L 95.31875 198.77579 
L 96.544824 198.804852 
L 97.362207 198.545623 
L 98.17959 198.001543 
L 99.405664 196.914802 
L 99.814355 196.862309 
L 100.223047 197.030993 
L 101.449121 197.868149 
L 101.857813 197.898534 
L 102.266504 197.742699 
L 102.675195 197.411654 
L 104.309961 195.468266 
L 105.127344 195.274203 
L 106.353418 195.030177 
L 108.396875 194.400044 
L 109.214258 194.43376 
L 109.622949 194.297098 
L 111.666406 192.851529 
L 112.89248 192.396482 
L 113.709863 192.438374 
L 114.118555 192.476481 
L 114.527246 192.388736 
L 115.344629 191.839567 
L 116.979395 190.651074 
L 117.388086 190.560856 
L 117.796777 190.791316 
L 118.61416 191.545471 
L 119.022852 191.3982 
L 120.248926 189.544857 
L 121.066309 189.137966 
L 121.475 188.948886 
L 123.109766 187.69948 
L 124.33584 187.295158 
L 125.153223 186.679226 
L 126.787988 184.843779 
L 127.19668 184.654753 
L 127.605371 184.640279 
L 129.240137 185.18614 
L 129.648828 185.039545 
L 130.05752 184.69772 
L 130.874902 183.508407 
L 132.100977 181.23207 
L 132.509668 180.798212 
L 132.918359 180.649477 
L 133.735742 180.590966 
L 134.144434 180.34533 
L 134.961816 179.386865 
L 135.779199 178.418559 
L 138.640039 176.01807 
L 140.683496 174.594668 
L 141.500879 173.866859 
L 143.135645 172.179438 
L 143.953027 171.609381 
L 144.77041 170.641304 
L 146.405176 168.604052 
L 147.222559 167.717007 
L 148.857324 166.73719 
L 150.49209 165.11222 
L 151.309473 164.133266 
L 152.535547 161.993517 
L 153.35293 160.666385 
L 154.170313 159.794347 
L 155.396387 158.870289 
L 157.439844 156.50782 
L 159.891992 153.399459 
L 160.709375 152.264071 
L 162.344141 149.49726 
L 163.161523 148.770111 
L 163.978906 148.190739 
L 164.796289 147.228055 
L 165.613672 145.798015 
L 167.248438 142.612245 
L 169.291895 139.456838 
L 173.7875 132.53886 
L 175.013574 130.170644 
L 176.239648 127.493038 
L 177.057031 126.292595 
L 178.283105 125.043062 
L 179.100488 123.712069 
L 181.143945 119.352253 
L 182.37002 117.133763 
L 183.187402 114.990695 
L 184.004785 112.760253 
L 184.822168 111.097696 
L 187.274316 106.957428 
L 192.995996 92.954701 
L 193.813379 91.419461 
L 194.630762 90.133759 
L 195.448145 88.42015 
L 197.900293 82.148242 
L 199.535059 77.532928 
L 201.169824 74.208024 
L 201.987207 71.257726 
L 202.80459 68.171527 
L 205.256738 60.891518 
L 206.074121 59.189333 
L 208.117578 53.603117 
L 208.934961 51.042763 
L 210.161035 47.050755 
L 211.795801 42.952516 
L 212.613184 41.23242 
L 213.430566 39.957052 
L 214.247949 39.196885 
L 214.656641 39.044279 
L 215.065332 39.079021 
L 215.474023 39.29293 
L 216.700098 40.3207 
L 217.108789 40.407372 
L 217.926172 40.162455 
L 218.334863 40.451305 
L 218.743555 41.654482 
L 219.152246 44.05314 
L 220.37832 53.962485 
L 220.787012 56.131795 
L 221.604395 58.767114 
L 222.830469 62.161926 
L 224.056543 66.725986 
L 225.691309 72.813751 
L 227.734766 80.480947 
L 229.369531 86.638069 
L 232.230371 95.420417 
L 233.047754 97.696426 
L 234.273828 101.995446 
L 236.317285 109.495709 
L 237.543359 112.558412 
L 238.769434 115.534337 
L 243.265039 127.518176 
L 247.351953 136.806103 
L 248.578027 139.620318 
L 250.621484 143.256312 
L 251.847559 145.709694 
L 253.073633 148.112274 
L 254.299707 150.767704 
L 255.934473 153.561915 
L 257.569238 156.839069 
L 259.612695 160.094926 
L 261.247461 162.391265 
L 262.064844 163.558578 
L 262.882227 164.374077 
L 264.108301 165.331678 
L 264.516992 165.895563 
L 265.334375 167.598823 
L 266.151758 169.40567 
L 266.969141 170.532514 
L 269.421289 173.062058 
L 270.238672 174.072362 
L 271.873438 175.379442 
L 275.55166 179.558487 
L 276.777734 180.809924 
L 277.595117 181.688626 
L 278.003809 181.884359 
L 278.4125 181.857487 
L 279.229883 181.6015 
L 279.638574 181.71863 
L 280.047266 182.142421 
L 280.864648 183.808822 
L 281.27334 184.723364 
L 281.682031 185.342295 
L 282.090723 185.538021 
L 282.908105 185.386285 
L 283.316797 185.597144 
L 284.951563 187.620328 
L 286.177637 188.098655 
L 286.99502 188.966648 
L 287.812402 189.758685 
L 289.855859 190.671341 
L 291.081934 191.343123 
L 293.125391 192.084908 
L 294.351465 192.883796 
L 295.577539 193.166283 
L 297.212305 194.507771 
L 298.029688 194.587311 
L 299.664453 194.331629 
L 300.073145 194.587105 
L 300.481836 195.11335 
L 301.70791 197.15749 
L 302.116602 197.493463 
L 302.525293 197.580141 
L 304.160059 197.339072 
L 305.386133 197.756684 
L 306.612207 198.186335 
L 307.42959 198.16561 
L 308.655664 198.002752 
L 309.064355 198.148491 
L 309.881738 198.884789 
L 310.699121 199.670446 
L 311.107813 199.779986 
L 312.742578 199.502855 
L 314.377344 199.530798 
L 316.420801 200.332784 
L 317.646875 200.511183 
L 318.055566 200.744776 
L 319.690332 202.084656 
L 320.916406 202.453868 
L 321.325098 202.405357 
L 322.959863 201.711183 
L 323.777246 201.939936 
L 324.594629 202.266962 
L 325.00332 202.330055 
L 325.820703 202.091492 
L 326.229395 201.924659 
L 326.638086 201.888668 
L 327.046777 202.046513 
L 328.272852 202.959218 
L 330.316309 203.722015 
L 330.725 203.670616 
L 331.951074 202.966708 
L 332.359766 203.007998 
L 333.58584 203.691097 
L 334.403223 203.753989 
L 335.629297 203.619306 
L 336.855371 203.146113 
L 337.264063 203.122346 
L 338.081445 203.460275 
L 338.898828 203.957836 
L 339.716211 204.120796 
L 341.759668 203.72217 
L 342.577051 203.923105 
L 344.211816 204.655943 
L 345.029199 204.423233 
L 345.846582 204.167089 
L 346.663965 204.172323 
L 348.29873 204.468789 
L 349.524805 204.453463 
L 350.342188 204.67971 
L 351.15957 204.959493 
L 351.568262 204.963447 
L 352.794336 204.559431 
L 353.203027 204.747146 
L 354.429102 205.810817 
L 354.837793 205.799162 
L 356.063867 205.294763 
L 356.88125 205.523137 
L 357.289941 205.660031 
L 358.107324 205.596312 
L 358.924707 205.494141 
L 360.968164 205.699118 
L 361.785547 206.067815 
L 362.60293 206.568293 
L 363.011621 206.679583 
L 363.829004 206.519368 
L 365.46377 205.971304 
L 370.368066 204.898519 
L 370.776758 205.078949 
L 372.411523 206.237415 
L 373.228906 206.26599 
L 374.45498 206.018566 
L 376.089746 206.324054 
L 376.907129 206.041234 
L 378.541895 205.055022 
L 379.359277 205.190207 
L 380.17666 205.273636 
L 380.994043 205.27185 
L 382.220117 205.590503 
L 383.446191 206.214183 
L 383.854883 206.251064 
L 385.080957 206.002206 
L 385.89834 206.329794 
L 386.715723 206.651527 
L 387.124414 206.625116 
L 387.124414 206.625116 
" style="fill:none;stroke:#ff7f0e;stroke-linecap:square;stroke-width:1.5;"/>
   </g>
   <g id="line2d_19">
    <path clip-path="url(#pf2f2e0a926)" d="M 51.997461 207.14388 
L 53.223535 206.693086 
L 53.632227 206.675547 
L 54.040918 206.926793 
L 54.858301 207.727122 
L 55.266992 207.682193 
L 56.084375 206.994735 
L 56.493066 206.84571 
L 57.310449 207.006722 
L 58.127832 207.249113 
L 58.945215 207.245109 
L 59.353906 207.049715 
L 59.762598 206.545394 
L 60.988672 204.200777 
L 61.806055 203.445992 
L 62.214746 203.230856 
L 62.623438 203.306691 
L 63.849512 204.814731 
L 64.258203 204.957814 
L 65.484277 204.78923 
L 65.892969 205.000755 
L 66.30166 205.675543 
L 67.119043 207.740852 
L 67.527734 207.995308 
L 67.936426 207.292658 
L 68.753809 204.721323 
L 69.1625 203.856618 
L 69.571191 203.430921 
L 69.979883 203.29117 
L 70.388574 203.322684 
L 71.205957 203.575461 
L 71.614648 203.349219 
L 72.02334 202.60307 
L 72.840723 200.763801 
L 73.249414 200.566357 
L 73.658105 200.926373 
L 74.475488 202.380656 
L 75.292871 203.834719 
L 76.518945 205.435818 
L 76.927637 205.84967 
L 77.336328 205.937654 
L 78.562402 205.161506 
L 78.971094 205.361361 
L 79.379785 205.837154 
L 80.605859 207.682718 
L 81.014551 207.753217 
L 81.423242 207.399194 
L 82.240625 206.142113 
L 82.649316 205.189924 
L 83.466699 202.597708 
L 83.875391 201.832926 
L 84.284082 201.804853 
L 84.692773 202.145002 
L 85.101465 202.312106 
L 85.510156 202.096856 
L 86.327539 201.296708 
L 86.73623 201.183515 
L 87.144922 201.471893 
L 88.370996 203.540766 
L 88.779688 203.610838 
L 89.188379 203.207823 
L 90.005762 202.052487 
L 90.414453 201.898476 
L 90.823145 202.152716 
L 91.640527 202.983649 
L 92.45791 203.454421 
L 92.866602 204.007449 
L 93.683984 205.569094 
L 94.092676 205.99235 
L 94.501367 205.999964 
L 94.910059 205.623498 
L 95.727441 204.328102 
L 96.136133 203.97412 
L 96.544824 204.068845 
L 96.953516 204.531955 
L 97.770898 206.124579 
L 98.588281 207.836681 
L 98.996973 207.933979 
L 99.405664 207.316812 
L 100.631738 204.476781 
L 101.04043 204.089899 
L 101.449121 204.152696 
L 102.675195 205.261723 
L 103.083887 205.175146 
L 103.492578 204.804885 
L 104.718652 203.041645 
L 105.127344 202.758443 
L 105.536035 202.632096 
L 105.944727 202.379142 
L 106.353418 201.804335 
L 107.988184 198.367421 
L 108.396875 197.838458 
L 108.805566 197.638777 
L 109.214258 197.791701 
L 110.849023 199.358769 
L 111.257715 199.352955 
L 112.075098 198.889704 
L 112.483789 199.185041 
L 113.301172 200.336931 
L 113.709863 200.066601 
L 114.935938 197.542157 
L 115.344629 197.499408 
L 116.162012 198.096321 
L 116.979395 198.647627 
L 117.388086 198.464693 
L 117.796777 197.429998 
L 118.61416 192.658458 
L 119.022852 190.516769 
L 119.431543 189.827147 
L 119.840234 190.48618 
L 120.248926 191.514823 
L 120.657617 192.027914 
L 121.475 191.828532 
L 121.883691 192.100058 
L 122.701074 193.285171 
L 123.518457 193.941973 
L 125.153223 195.047641 
L 125.561914 195.058432 
L 125.970605 194.852075 
L 126.379297 194.385507 
L 127.19668 192.746073 
L 128.014063 191.072027 
L 128.422754 190.80474 
L 128.831445 191.079412 
L 129.648828 192.211085 
L 130.05752 192.438694 
L 132.100977 192.132564 
L 133.735742 191.439827 
L 134.144434 191.057553 
L 134.961816 189.685406 
L 135.370508 188.931373 
L 135.779199 188.421051 
L 136.187891 188.33553 
L 136.596582 188.673168 
L 137.822656 190.28927 
L 138.231348 190.519536 
L 138.640039 190.288126 
L 139.04873 189.305871 
L 139.866113 185.257263 
L 140.274805 183.183408 
L 140.683496 181.798895 
L 141.092188 181.229717 
L 142.318262 181.099499 
L 144.361719 178.490101 
L 145.179102 176.724842 
L 145.587793 176.467323 
L 145.996484 176.890037 
L 146.405176 177.540853 
L 146.813867 177.787254 
L 147.222559 177.385573 
L 147.63125 176.682229 
L 148.039941 176.311175 
L 148.448633 176.710589 
L 149.266016 178.932121 
L 149.674707 179.369031 
L 150.083398 178.779333 
L 151.309473 174.937978 
L 151.718164 174.240835 
L 152.126855 173.991904 
L 152.535547 173.98969 
L 152.944238 173.850389 
L 153.761621 172.835834 
L 154.170313 172.733958 
L 154.579004 173.308873 
L 155.396387 175.241599 
L 155.805078 175.757076 
L 156.21377 175.822939 
L 156.622461 175.532106 
L 157.031152 174.897163 
L 157.848535 172.668022 
L 158.665918 170.314108 
L 159.074609 169.473205 
L 159.483301 169.056187 
L 159.891992 169.182993 
L 160.300684 169.646346 
L 160.709375 169.843324 
L 161.118066 169.173784 
L 161.935449 165.522192 
L 162.344141 163.820253 
L 162.752832 162.977835 
L 163.161523 163.042167 
L 163.570215 163.57569 
L 163.978906 163.91483 
L 164.387598 163.579631 
L 164.796289 162.536678 
L 165.613672 159.954747 
L 166.022363 159.339769 
L 166.431055 159.346046 
L 167.248438 160.095528 
L 168.474512 161.394592 
L 168.883203 161.378608 
L 169.291895 160.810542 
L 171.335352 155.657794 
L 172.152734 152.146217 
L 172.970117 148.930536 
L 173.378809 148.335913 
L 173.7875 148.616443 
L 175.013574 151.208168 
L 175.422266 151.248333 
L 175.830957 150.572279 
L 176.64834 147.827623 
L 178.283105 142.556024 
L 178.691797 141.381611 
L 179.100488 140.755051 
L 179.50918 140.722665 
L 179.917871 140.937991 
L 180.326563 140.987415 
L 180.735254 140.733925 
L 181.552637 139.822412 
L 182.37002 138.603253 
L 183.596094 136.295046 
L 184.413477 134.064429 
L 185.230859 131.787191 
L 186.456934 129.740992 
L 187.274316 127.444289 
L 187.683008 126.639058 
L 188.500391 125.607017 
L 190.135156 122.725585 
L 190.543848 122.318419 
L 190.952539 121.7289 
L 191.36123 120.677754 
L 192.178613 117.333103 
L 193.813379 109.104536 
L 194.22207 108.535814 
L 194.630762 108.468342 
L 195.039453 108.27923 
L 195.448145 107.721391 
L 196.265527 106.154701 
L 196.674219 105.081457 
L 197.491602 101.436375 
L 197.900293 99.55864 
L 198.308984 98.333654 
L 199.535059 96.563903 
L 199.94375 95.069179 
L 200.352441 92.69484 
L 201.578516 83.769141 
L 201.987207 82.694001 
L 202.395898 82.839029 
L 203.213281 83.912844 
L 203.621973 83.927385 
L 204.030664 83.409792 
L 204.848047 81.210131 
L 205.66543 79.205533 
L 206.482813 77.115414 
L 207.300195 73.867105 
L 208.117578 70.063113 
L 208.934961 64.519869 
L 209.752344 57.728017 
L 210.161035 55.225059 
L 210.569727 53.730349 
L 210.978418 53.027774 
L 211.387109 52.608304 
L 211.795801 51.930807 
L 212.613184 49.27692 
L 213.021875 47.979353 
L 213.430566 47.137983 
L 213.839258 46.697942 
L 215.065332 45.803498 
L 215.882715 44.794656 
L 216.700098 43.347278 
L 217.51748 40.849633 
L 217.926172 39.462402 
L 218.334863 39.044279 
L 218.743555 41.030445 
L 219.152246 46.281468 
L 219.969629 61.391651 
L 220.37832 66.490715 
L 220.787012 68.609991 
L 221.195703 68.726898 
L 221.604395 68.26664 
L 222.013086 68.311536 
L 222.421777 69.380443 
L 223.23916 74.052219 
L 224.056543 78.779065 
L 224.873926 81.73227 
L 225.691309 83.603726 
L 226.508691 85.310995 
L 228.143457 89.957624 
L 228.96084 90.253813 
L 229.369531 90.89482 
L 229.778223 92.517928 
L 230.595605 98.450416 
L 231.412988 104.997052 
L 231.82168 107.219381 
L 232.230371 108.488453 
L 233.047754 109.901468 
L 233.456445 111.094576 
L 235.091211 118.000378 
L 235.499902 119.017016 
L 235.908594 119.653651 
L 237.134668 121.071127 
L 238.769434 123.848578 
L 239.178125 124.301285 
L 239.586816 124.462868 
L 239.995508 124.44479 
L 240.404199 124.737947 
L 240.812891 125.848244 
L 242.038965 131.89103 
L 242.447656 132.988106 
L 242.856348 133.415408 
L 243.265039 133.519149 
L 243.67373 133.737751 
L 244.082422 134.485695 
L 244.491113 135.962221 
L 245.308496 139.885123 
L 245.717188 141.179187 
L 246.125879 141.66254 
L 246.53457 141.680463 
L 246.943262 141.86706 
L 247.351953 142.761415 
L 247.760645 144.514321 
L 249.39541 153.274303 
L 249.804102 154.223533 
L 250.212793 154.408477 
L 250.621484 154.236086 
L 251.030176 154.30217 
L 251.847559 155.295357 
L 252.25625 155.1467 
L 252.664941 154.203146 
L 253.073633 152.970775 
L 253.482324 152.225997 
L 253.891016 152.459755 
L 254.299707 153.576523 
L 255.11709 156.226119 
L 256.343164 158.47326 
L 257.160547 161.790394 
L 257.569238 163.341873 
L 257.97793 164.030159 
L 258.795313 163.735258 
L 259.204004 164.067152 
L 260.430078 166.717071 
L 261.656152 167.940881 
L 262.064844 168.878233 
L 264.108301 174.92594 
L 264.516992 175.345282 
L 265.743066 175.533014 
L 266.969141 176.916634 
L 267.377832 176.791934 
L 268.195215 175.811405 
L 268.603906 175.629029 
L 269.012598 175.977818 
L 270.238672 178.54133 
L 271.056055 180.47139 
L 273.099512 186.052998 
L 273.508203 186.177574 
L 273.916895 185.573014 
L 274.734277 183.899481 
L 275.960352 182.430332 
L 276.369043 181.684216 
L 276.777734 181.239512 
L 277.186426 181.592595 
L 277.595117 182.980167 
L 278.821191 189.684968 
L 279.229883 190.914804 
L 279.638574 191.253841 
L 280.047266 190.8296 
L 281.27334 188.039856 
L 281.682031 187.859744 
L 282.499414 188.312928 
L 282.908105 188.251769 
L 284.13418 187.33054 
L 284.542871 187.49606 
L 284.951563 188.221356 
L 285.768945 191.131765 
L 286.586328 194.14121 
L 287.403711 196.07147 
L 287.812402 196.690732 
L 288.221094 197.003515 
L 288.629785 196.904233 
L 289.038477 196.388746 
L 290.264551 194.211272 
L 290.673242 193.88869 
L 291.081934 193.84339 
L 291.490625 194.06149 
L 291.899316 194.525929 
L 293.125391 196.32803 
L 293.534082 196.446763 
L 293.942773 196.04217 
L 294.351465 195.139147 
L 295.168848 192.811049 
L 295.577539 192.032085 
L 295.98623 191.880249 
L 296.394922 192.366349 
L 297.212305 193.784431 
L 297.620996 194.015273 
L 298.438379 193.822765 
L 298.84707 194.087413 
L 299.255762 194.933482 
L 300.481836 198.546401 
L 300.890527 199.054014 
L 301.299219 199.054866 
L 301.70791 198.610548 
L 302.525293 197.204061 
L 302.933984 196.829722 
L 303.342676 196.927912 
L 304.160059 198.071565 
L 305.386133 199.816788 
L 306.203516 201.415372 
L 306.612207 201.583681 
L 307.020898 201.188103 
L 307.838281 200.196511 
L 309.064355 199.575148 
L 310.699121 198.223597 
L 311.925195 197.6769 
L 312.333887 198.166553 
L 312.742578 199.432276 
L 313.559961 202.465085 
L 313.968652 203.127952 
L 314.786035 203.605815 
L 315.603418 204.931651 
L 316.012109 205.155142 
L 316.420801 204.741597 
L 317.238184 203.35586 
L 318.055566 202.641838 
L 318.464258 202.53915 
L 318.872949 202.722579 
L 319.690332 203.732085 
L 320.099023 203.88435 
L 320.507715 203.42608 
L 321.325098 201.506853 
L 321.733789 200.916592 
L 322.14248 201.007316 
L 322.551172 201.743232 
L 323.368555 203.640228 
L 323.777246 204.107268 
L 324.185938 204.171094 
L 324.594629 203.871689 
L 325.820703 201.682551 
L 326.229395 201.559204 
L 327.86416 202.784107 
L 329.090234 204.446426 
L 329.907617 204.525175 
L 330.316309 204.839051 
L 330.725 205.355086 
L 331.133691 205.684846 
L 331.542383 205.608152 
L 331.951074 205.374248 
L 332.359766 205.402047 
L 333.177148 206.04007 
L 333.58584 205.985114 
L 334.403223 205.404218 
L 334.811914 205.32994 
L 336.037988 205.408071 
L 336.44668 205.139607 
L 337.672754 203.324517 
L 338.081445 203.310983 
L 338.490137 203.869132 
L 338.898828 204.630102 
L 339.30752 205.061787 
L 339.716211 204.893503 
L 341.350977 202.408852 
L 342.168359 200.215934 
L 342.577051 199.587332 
L 342.985742 199.959299 
L 344.211816 203.67601 
L 344.620508 203.845864 
L 345.437891 203.092732 
L 345.846582 203.04184 
L 346.255273 203.453918 
L 347.072656 204.846276 
L 347.890039 205.613147 
L 348.707422 206.355712 
L 349.116113 206.487776 
L 349.524805 206.082331 
L 350.750879 203.675071 
L 351.15957 203.662915 
L 351.976953 204.276308 
L 352.385645 204.107142 
L 353.611719 202.204657 
L 354.02041 202.638111 
L 354.837793 204.537155 
L 355.246484 204.728531 
L 355.655176 204.158764 
L 356.472559 202.620611 
L 356.88125 202.548463 
L 357.289941 202.966724 
L 358.107324 204.212225 
L 358.516016 204.645101 
L 358.924707 204.774815 
L 359.74209 204.50143 
L 360.150781 204.632085 
L 360.968164 205.635645 
L 361.785547 206.540293 
L 362.194238 206.779953 
L 362.60293 206.833458 
L 363.011621 206.66585 
L 363.420313 206.243697 
L 364.237695 204.62387 
L 364.646387 203.758087 
L 365.055078 203.229518 
L 365.46377 203.098979 
L 365.872461 203.203257 
L 366.281152 203.433166 
L 366.689844 203.887976 
L 367.098535 204.721461 
L 368.324609 207.915421 
L 368.733301 208.262943 
L 369.959375 208.466956 
L 371.185449 208.192276 
L 371.594141 208.526148 
L 372.411523 209.441682 
L 373.228906 209.802711 
L 374.45498 210.841596 
L 374.863672 210.493461 
L 376.089746 208.113302 
L 376.907129 207.095863 
L 378.541895 204.530654 
L 378.950586 204.613741 
L 379.767969 205.173535 
L 380.17666 205.054944 
L 380.994043 204.042589 
L 381.811426 202.583471 
L 382.220117 201.807468 
L 382.628809 201.348271 
L 383.0375 201.445641 
L 383.446191 202.104507 
L 384.263574 204.399747 
L 385.080957 206.572306 
L 385.489648 207.139619 
L 385.89834 207.224542 
L 386.307031 206.770749 
L 386.715723 205.753796 
L 387.124414 204.342919 
L 387.124414 204.342919 
" style="fill:none;stroke:#2ca02c;stroke-linecap:square;stroke-width:1.5;"/>
   </g>
   <g id="line2d_20">
    <path clip-path="url(#pf2f2e0a926)" d="M 51.997461 201.178736 
L 52.406152 200.47942 
L 53.632227 197.193378 
L 54.040918 198.317047 
L 55.266992 208.433051 
L 55.675684 209.535216 
L 56.084375 208.665732 
L 56.901758 205.364628 
L 57.310449 205.723662 
L 57.719141 208.033726 
L 58.127832 211.011063 
L 58.536523 212.801235 
L 58.945215 212.391 
L 59.353906 210.104713 
L 60.57998 200.899038 
L 60.988672 199.497475 
L 61.397363 199.901833 
L 61.806055 201.921209 
L 62.623438 206.654437 
L 63.032129 207.090962 
L 63.849512 204.749553 
L 64.258203 204.466567 
L 65.075586 205.946824 
L 65.484277 205.582845 
L 66.710352 201.52195 
L 67.119043 201.274361 
L 67.527734 201.693855 
L 67.936426 202.402397 
L 68.345117 202.562072 
L 68.753809 201.339845 
L 69.571191 196.638051 
L 69.979883 195.996779 
L 70.388574 197.666673 
L 70.797266 201.355784 
L 71.614648 210.707892 
L 72.02334 214.196767 
L 72.432031 216.095269 
L 72.840723 216.221257 
L 73.249414 214.475233 
L 74.066797 206.829333 
L 74.475488 202.951671 
L 74.88418 200.283347 
L 75.292871 198.864267 
L 76.110254 197.513591 
L 76.518945 197.043103 
L 76.927637 197.185285 
L 77.336328 198.361274 
L 78.153711 203.137844 
L 78.562402 205.542691 
L 78.971094 207.190195 
L 79.379785 207.864546 
L 79.788477 207.668935 
L 80.197168 206.831482 
L 80.605859 205.466058 
L 81.014551 203.490022 
L 82.240625 195.647181 
L 82.649316 194.966308 
L 83.058008 196.256178 
L 84.692773 207.342202 
L 85.101465 207.812326 
L 85.510156 207.753439 
L 85.918848 207.929978 
L 86.327539 208.36923 
L 86.73623 208.424594 
L 87.144922 207.523809 
L 87.962305 203.408171 
L 88.370996 201.24628 
L 88.779688 199.812306 
L 89.188379 199.680372 
L 89.59707 201.084044 
L 90.414453 206.203213 
L 90.823145 207.799619 
L 91.231836 207.978908 
L 91.640527 207.327884 
L 92.049219 206.992401 
L 92.45791 207.859032 
L 93.275293 211.891647 
L 93.683984 212.246199 
L 94.092676 210.019793 
L 94.910059 201.580511 
L 95.31875 198.986213 
L 95.727441 198.654057 
L 96.953516 202.436417 
L 97.362207 202.998187 
L 98.17959 203.738523 
L 98.588281 204.555289 
L 98.996973 206.071741 
L 99.814355 210.195741 
L 100.223047 211.456203 
L 100.631738 211.778368 
L 101.04043 211.324572 
L 101.449121 210.086755 
L 101.857813 207.940185 
L 102.675195 202.377251 
L 103.083887 200.412067 
L 103.492578 199.654756 
L 103.90127 200.191717 
L 104.309961 201.838467 
L 105.127344 206.332038 
L 105.536035 207.762473 
L 105.944727 207.939025 
L 106.353418 206.841618 
L 107.170801 203.115474 
L 107.579492 201.985572 
L 107.988184 201.835597 
L 108.396875 202.294441 
L 108.805566 202.5336 
L 109.214258 201.916617 
L 110.031641 199.402372 
L 110.440332 199.266351 
L 110.849023 200.632208 
L 111.666406 205.93393 
L 112.075098 207.518356 
L 112.483789 206.898985 
L 112.89248 203.968989 
L 113.709863 196.395872 
L 114.118555 194.957592 
L 114.527246 195.678769 
L 116.162012 203.206703 
L 116.570703 203.629939 
L 116.979395 203.357605 
L 117.388086 202.749634 
L 117.796777 201.933604 
L 118.205469 200.651271 
L 118.61416 198.942772 
L 119.022852 197.822328 
L 119.431543 198.672674 
L 120.657617 206.971479 
L 121.066309 205.649182 
L 121.883691 199.243768 
L 122.292383 198.324523 
L 122.701074 199.623397 
L 123.109766 201.687868 
L 123.518457 202.840443 
L 123.927148 202.336754 
L 124.33584 200.450891 
L 125.561914 193.23247 
L 125.970605 192.717985 
L 126.379297 193.795132 
L 126.787988 195.595476 
L 127.19668 196.738957 
L 127.605371 196.494852 
L 128.422754 194.448803 
L 128.831445 194.543241 
L 129.240137 195.75638 
L 130.466211 201.912111 
L 130.874902 202.271945 
L 131.283594 200.497449 
L 132.509668 190.146783 
L 132.918359 189.43043 
L 133.735742 190.727871 
L 134.144434 190.931127 
L 134.553125 190.915285 
L 134.961816 191.195643 
L 135.370508 191.779663 
L 135.779199 192.043363 
L 136.187891 191.335931 
L 137.005273 188.135208 
L 137.413965 187.58964 
L 137.822656 188.428139 
L 138.640039 191.532259 
L 139.04873 192.00054 
L 139.457422 191.372082 
L 140.274805 188.871868 
L 140.683496 188.193417 
L 141.092188 188.371989 
L 141.500879 189.12204 
L 141.90957 189.579816 
L 142.318262 189.020351 
L 143.135645 186.116364 
L 143.544336 185.376156 
L 143.953027 185.552952 
L 145.179102 188.163837 
L 145.587793 188.494269 
L 145.996484 188.198262 
L 146.813867 186.407748 
L 147.222559 185.965315 
L 147.63125 186.32862 
L 148.448633 187.929677 
L 148.857324 188.109865 
L 149.266016 187.778866 
L 150.083398 186.614253 
L 150.49209 185.468884 
L 150.900781 183.295454 
L 152.126855 173.75643 
L 152.535547 172.46101 
L 153.35293 172.187574 
L 153.761621 171.346571 
L 154.170313 170.170037 
L 154.579004 169.594225 
L 154.987695 170.134538 
L 156.21377 174.401286 
L 156.622461 174.661659 
L 157.031152 174.287568 
L 157.848535 173.370359 
L 158.257227 173.502019 
L 158.665918 174.565568 
L 159.483301 179.353612 
L 159.891992 181.629242 
L 160.300684 182.680606 
L 160.709375 182.344076 
L 161.526758 180.36907 
L 162.344141 179.332991 
L 162.752832 178.299336 
L 163.570215 175.483502 
L 163.978906 174.773278 
L 164.387598 174.976698 
L 164.796289 175.642855 
L 165.20498 175.737994 
L 165.613672 174.469835 
L 166.839746 166.63075 
L 167.248438 165.498043 
L 167.657129 166.023757 
L 168.883203 171.299993 
L 169.291895 170.547157 
L 170.109277 166.774453 
L 170.517969 166.300704 
L 170.92666 167.156032 
L 171.335352 168.305814 
L 171.744043 168.407114 
L 172.152734 166.816469 
L 172.970117 161.391878 
L 173.378809 159.678883 
L 173.7875 159.130581 
L 174.196191 159.455418 
L 175.013574 160.65571 
L 175.422266 160.46272 
L 176.239648 159.060419 
L 176.64834 159.144116 
L 177.465723 160.697585 
L 177.874414 161.145461 
L 178.691797 161.686391 
L 179.100488 161.700703 
L 179.50918 160.761678 
L 180.326563 157.169138 
L 180.735254 156.494049 
L 181.143945 156.872339 
L 181.961328 158.26585 
L 182.37002 158.780625 
L 182.778711 159.07655 
L 183.187402 158.729658 
L 183.596094 157.426163 
L 184.822168 150.977514 
L 185.639551 145.335665 
L 186.456934 140.140932 
L 187.274316 136.634398 
L 188.091699 131.702034 
L 188.500391 130.803756 
L 188.909082 131.820444 
L 189.317773 133.739664 
L 189.726465 135.035567 
L 190.135156 134.836037 
L 190.543848 133.318882 
L 192.587305 123.024183 
L 192.995996 121.818412 
L 193.404688 122.401281 
L 194.22207 126.653221 
L 194.630762 127.739629 
L 195.039453 127.116124 
L 195.448145 124.993607 
L 196.265527 119.938998 
L 196.674219 119.123395 
L 197.491602 120.162449 
L 197.900293 119.572973 
L 199.126367 114.471387 
L 199.535059 113.663942 
L 199.94375 113.479688 
L 200.352441 113.994102 
L 200.761133 114.838748 
L 201.169824 115.14967 
L 201.578516 114.394002 
L 202.395898 111.178833 
L 202.80459 109.381286 
L 203.213281 107.021386 
L 204.439355 96.755503 
L 204.848047 95.308009 
L 205.256738 95.799117 
L 206.074121 99.075449 
L 206.482813 99.771122 
L 206.891504 99.403063 
L 207.300195 98.311967 
L 207.708887 96.615423 
L 208.117578 93.953181 
L 208.934961 85.380186 
L 209.343652 81.140959 
L 209.752344 78.585604 
L 210.161035 78.272593 
L 210.569727 79.78266 
L 211.387109 84.376569 
L 211.795801 85.637248 
L 212.204492 84.931554 
L 212.613184 81.66303 
L 213.839258 67.227559 
L 214.247949 64.769506 
L 214.656641 63.4175 
L 215.065332 62.936891 
L 215.882715 63.419476 
L 216.291406 62.677066 
L 216.700098 59.972186 
L 217.108789 55.082741 
L 217.926172 42.624356 
L 218.334863 39.044279 
L 218.743555 40.903036 
L 219.152246 49.998585 
L 220.37832 90.21535 
L 220.787012 95.13753 
L 221.195703 96.885971 
L 222.421777 100.170545 
L 222.830469 99.85294 
L 224.056543 96.280491 
L 224.465234 95.510983 
L 225.282617 93.293086 
L 225.691309 93.118336 
L 226.1 94.840321 
L 227.326074 104.191492 
L 228.143457 107.602933 
L 229.369531 114.151402 
L 229.778223 114.585268 
L 230.186914 114.74323 
L 230.595605 115.762474 
L 231.412988 119.729562 
L 231.82168 120.989385 
L 232.230371 121.73996 
L 232.639063 122.761371 
L 233.865137 127.221359 
L 234.68252 127.571995 
L 235.091211 128.636345 
L 236.317285 135.913154 
L 236.725977 136.650453 
L 237.134668 136.484436 
L 237.543359 136.142812 
L 237.952051 136.157068 
L 238.360742 136.910948 
L 238.769434 138.845234 
L 239.178125 142.298311 
L 240.404199 155.798796 
L 240.812891 157.338448 
L 241.221582 156.741422 
L 242.447656 151.486565 
L 243.265039 147.524578 
L 243.67373 146.259153 
L 244.082422 146.468126 
L 244.491113 148.376481 
L 245.308496 154.465931 
L 245.717188 156.311498 
L 246.125879 156.540197 
L 246.943262 154.846052 
L 247.351953 154.967414 
L 247.760645 156.431878 
L 248.986719 164.051446 
L 250.212793 168.30147 
L 250.621484 170.335066 
L 251.030176 171.78291 
L 251.438867 171.45127 
L 251.847559 168.882979 
L 252.664941 160.597097 
L 253.073633 158.037366 
L 253.482324 157.900206 
L 253.891016 159.807417 
L 256.343164 176.05174 
L 256.751855 177.267418 
L 257.160547 177.260849 
L 257.569238 176.026261 
L 258.795313 168.80616 
L 259.204004 168.063347 
L 259.612695 168.937061 
L 260.83877 174.661442 
L 261.247461 175.257808 
L 261.656152 174.821634 
L 262.064844 173.961172 
L 262.473535 173.801535 
L 262.882227 175.23479 
L 264.516992 186.120014 
L 264.925684 187.596374 
L 265.334375 188.56423 
L 265.743066 188.889672 
L 266.151758 188.696749 
L 267.377832 187.493839 
L 268.195215 185.640655 
L 268.603906 185.273528 
L 269.012598 186.444983 
L 270.238672 195.781947 
L 270.647363 196.260513 
L 271.056055 194.310677 
L 272.69082 179.560501 
L 273.099512 177.961562 
L 273.508203 177.805948 
L 273.916895 178.617027 
L 275.142969 181.86642 
L 275.55166 182.115607 
L 275.960352 181.25676 
L 276.777734 177.331457 
L 277.186426 176.604753 
L 277.595117 177.929787 
L 279.229883 190.020208 
L 280.047266 197.59188 
L 280.864648 205.254017 
L 281.27334 206.64631 
L 281.682031 205.368455 
L 282.908105 195.768759 
L 283.316797 196.37306 
L 284.13418 201.044154 
L 284.542871 201.49979 
L 284.951563 200.057301 
L 285.360254 197.934518 
L 285.768945 196.421753 
L 286.177637 195.868594 
L 287.812402 195.676555 
L 288.221094 195.968012 
L 288.629785 196.773046 
L 289.038477 198.265027 
L 289.855859 203.358267 
L 290.264551 206.005535 
L 290.673242 207.738532 
L 291.081934 208.325302 
L 291.490625 208.271075 
L 291.899316 208.465767 
L 292.716699 210.300289 
L 293.125391 210.038961 
L 293.534082 207.831189 
L 295.168848 193.075277 
L 295.577539 192.276937 
L 295.98623 193.575387 
L 296.803613 198.587308 
L 297.212305 199.832443 
L 297.620996 199.638657 
L 298.438379 197.476738 
L 298.84707 196.979324 
L 299.664453 196.760126 
L 300.073145 196.463129 
L 300.481836 196.60368 
L 300.890527 197.657921 
L 301.299219 199.204456 
L 301.70791 200.154041 
L 302.116602 199.833002 
L 302.525293 198.79616 
L 302.933984 198.538511 
L 303.342676 200.306097 
L 304.56875 210.945952 
L 304.977441 211.219455 
L 306.203516 206.622937 
L 306.612207 206.781223 
L 307.42959 207.957895 
L 307.838281 207.678712 
L 308.246973 206.229751 
L 309.473047 198.817609 
L 309.881738 198.081985 
L 310.29043 198.30629 
L 311.107813 199.35323 
L 311.516504 200.140856 
L 312.333887 202.50785 
L 312.742578 203.21326 
L 313.15127 203.427774 
L 313.559961 203.817474 
L 313.968652 205.031934 
L 315.194727 211.123207 
L 315.603418 212.428203 
L 316.012109 213.122966 
L 316.420801 213.176101 
L 316.829492 212.494062 
L 318.872949 205.359512 
L 319.690332 200.386161 
L 320.099023 198.856026 
L 320.507715 198.66435 
L 321.733789 200.62497 
L 322.551172 202.216704 
L 323.368555 204.097048 
L 323.777246 205.863172 
L 325.00332 214.308934 
L 325.412012 213.638736 
L 326.229395 208.012037 
L 326.638086 206.974399 
L 327.046777 207.844439 
L 327.455469 209.249436 
L 327.86416 209.600979 
L 328.272852 208.326349 
L 329.090234 204.430418 
L 329.498926 204.013414 
L 329.907617 204.888863 
L 330.725 207.381416 
L 331.133691 207.383534 
L 331.542383 206.14078 
L 332.768457 200.256454 
L 333.177148 200.24955 
L 334.403223 203.8887 
L 334.811914 204.484228 
L 335.220605 205.493508 
L 336.44668 210.761565 
L 336.855371 211.298966 
L 337.264063 210.91287 
L 338.081445 208.747175 
L 338.490137 207.082867 
L 338.898828 204.504547 
L 339.716211 198.064541 
L 340.124902 196.836255 
L 340.533594 198.189758 
L 340.942285 201.708071 
L 342.168359 214.392774 
L 342.577051 216.527649 
L 342.985742 217.005376 
L 343.394434 216.034686 
L 344.211816 211.592394 
L 345.437891 203.465405 
L 345.846582 202.055828 
L 346.255273 201.978517 
L 346.663965 203.133675 
L 347.072656 205.318687 
L 348.29873 214.073093 
L 348.707422 214.812765 
L 349.116113 213.334366 
L 349.933496 207.943817 
L 350.342188 206.956726 
L 350.750879 207.618737 
L 351.568262 210.134136 
L 351.976953 210.32028 
L 352.385645 209.602213 
L 353.611719 205.67659 
L 354.02041 205.418167 
L 354.429102 205.745835 
L 354.837793 205.812775 
L 355.246484 205.120436 
L 355.655176 204.200479 
L 356.063867 204.150163 
L 356.472559 205.531527 
L 357.289941 209.572875 
L 357.698633 210.17287 
L 358.107324 210.062201 
L 358.516016 210.460308 
L 359.74209 214.438469 
L 360.150781 213.994087 
L 360.968164 211.812458 
L 361.785547 210.792051 
L 362.194238 209.815971 
L 362.60293 208.085747 
L 363.420313 203.636583 
L 363.829004 202.408679 
L 364.237695 202.721156 
L 365.46377 207.582343 
L 365.872461 207.679916 
L 366.689844 206.332085 
L 367.098535 206.790672 
L 368.324609 211.779837 
L 368.733301 210.978492 
L 369.550684 207.546038 
L 369.959375 207.663417 
L 370.368066 209.376674 
L 371.185449 213.762813 
L 371.594141 214.933048 
L 372.002832 215.386281 
L 372.820215 215.533761 
L 373.228906 215.809978 
L 373.637598 216.273629 
L 374.046289 216.450645 
L 374.45498 215.685086 
L 374.863672 213.69897 
L 375.681055 208.15526 
L 376.089746 206.44628 
L 376.498438 206.252997 
L 377.31582 208.508915 
L 377.724512 208.947185 
L 378.541895 208.076217 
L 378.950586 209.321947 
L 380.17666 217.902008 
L 380.585352 218.163165 
L 381.811426 216.687447 
L 382.220117 215.111151 
L 383.854883 204.065646 
L 384.263574 203.912634 
L 384.672266 204.313316 
L 385.080957 204.219887 
L 385.489648 202.947179 
L 386.307031 198.64508 
L 386.715723 197.929313 
L 387.124414 198.889799 
L 387.124414 198.889799 
" style="fill:none;stroke:#d62728;stroke-linecap:square;stroke-width:1.5;"/>
   </g>
   <g id="patch_3">
    <path d="M 52.160938 239.758125 
L 52.160938 22.318125 
" style="fill:none;stroke:#000000;stroke-linecap:square;stroke-linejoin:miter;stroke-width:0.8;"/>
   </g>
   <g id="patch_4">
    <path d="M 386.960938 239.758125 
L 386.960938 22.318125 
" style="fill:none;stroke:#000000;stroke-linecap:square;stroke-linejoin:miter;stroke-width:0.8;"/>
   </g>
   <g id="patch_5">
    <path d="M 52.160938 239.758125 
L 386.960938 239.758125 
" style="fill:none;stroke:#000000;stroke-linecap:square;stroke-linejoin:miter;stroke-width:0.8;"/>
   </g>
   <g id="patch_6">
    <path d="M 52.160938 22.318125 
L 386.960938 22.318125 
" style="fill:none;stroke:#000000;stroke-linecap:square;stroke-linejoin:miter;stroke-width:0.8;"/>
   </g>
   <g id="text_19">
    <!-- Spektren 305K -->
    <defs>
     <path d="M 53.515625 70.515625 
L 53.515625 60.890625 
Q 47.90625 63.578125 42.921875 64.890625 
Q 37.9375 66.21875 33.296875 66.21875 
Q 25.25 66.21875 20.875 63.09375 
Q 16.5 59.96875 16.5 54.203125 
Q 16.5 49.359375 19.40625 46.890625 
Q 22.3125 44.4375 30.421875 42.921875 
L 36.375 41.703125 
Q 47.40625 39.59375 52.65625 34.296875 
Q 57.90625 29 57.90625 20.125 
Q 57.90625 9.515625 50.796875 4.046875 
Q 43.703125 -1.421875 29.984375 -1.421875 
Q 24.8125 -1.421875 18.96875 -0.25 
Q 13.140625 0.921875 6.890625 3.21875 
L 6.890625 13.375 
Q 12.890625 10.015625 18.65625 8.296875 
Q 24.421875 6.59375 29.984375 6.59375 
Q 38.421875 6.59375 43.015625 9.90625 
Q 47.609375 13.234375 47.609375 19.390625 
Q 47.609375 24.75 44.3125 27.78125 
Q 41.015625 30.8125 33.5 32.328125 
L 27.484375 33.5 
Q 16.453125 35.6875 11.515625 40.375 
Q 6.59375 45.0625 6.59375 53.421875 
Q 6.59375 63.09375 13.40625 68.65625 
Q 20.21875 74.21875 32.171875 74.21875 
Q 37.3125 74.21875 42.625 73.28125 
Q 47.953125 72.359375 53.515625 70.515625 
z
" id="DejaVuSans-53"/>
     <path d="M 9.078125 75.984375 
L 18.109375 75.984375 
L 18.109375 31.109375 
L 44.921875 54.6875 
L 56.390625 54.6875 
L 27.390625 29.109375 
L 57.625 0 
L 45.90625 0 
L 18.109375 26.703125 
L 18.109375 0 
L 9.078125 0 
z
" id="DejaVuSans-6b"/>
     <path d="M 40.578125 39.3125 
Q 47.65625 37.796875 51.625 33 
Q 55.609375 28.21875 55.609375 21.1875 
Q 55.609375 10.40625 48.1875 4.484375 
Q 40.765625 -1.421875 27.09375 -1.421875 
Q 22.515625 -1.421875 17.65625 -0.515625 
Q 12.796875 0.390625 7.625 2.203125 
L 7.625 11.71875 
Q 11.71875 9.328125 16.59375 8.109375 
Q 21.484375 6.890625 26.8125 6.890625 
Q 36.078125 6.890625 40.9375 10.546875 
Q 45.796875 14.203125 45.796875 21.1875 
Q 45.796875 27.640625 41.28125 31.265625 
Q 36.765625 34.90625 28.71875 34.90625 
L 20.21875 34.90625 
L 20.21875 43.015625 
L 29.109375 43.015625 
Q 36.375 43.015625 40.234375 45.921875 
Q 44.09375 48.828125 44.09375 54.296875 
Q 44.09375 59.90625 40.109375 62.90625 
Q 36.140625 65.921875 28.71875 65.921875 
Q 24.65625 65.921875 20.015625 65.03125 
Q 15.375 64.15625 9.8125 62.3125 
L 9.8125 71.09375 
Q 15.4375 72.65625 20.34375 73.4375 
Q 25.25 74.21875 29.59375 74.21875 
Q 40.828125 74.21875 47.359375 69.109375 
Q 53.90625 64.015625 53.90625 55.328125 
Q 53.90625 49.265625 50.4375 45.09375 
Q 46.96875 40.921875 40.578125 39.3125 
z
" id="DejaVuSans-33"/>
     <path d="M 9.8125 72.90625 
L 19.671875 72.90625 
L 19.671875 42.09375 
L 52.390625 72.90625 
L 65.09375 72.90625 
L 28.90625 38.921875 
L 67.671875 0 
L 54.6875 0 
L 19.671875 35.109375 
L 19.671875 0 
L 9.8125 0 
z
" id="DejaVuSans-4b"/>
    </defs>
    <g transform="translate(175.17125 16.318125)scale(0.12 -0.12)">
     <use xlink:href="#DejaVuSans-53"/>
     <use x="63.476562" xlink:href="#DejaVuSans-70"/>
     <use x="126.953125" xlink:href="#DejaVuSans-65"/>
     <use x="188.476562" xlink:href="#DejaVuSans-6b"/>
     <use x="246.386719" xlink:href="#DejaVuSans-74"/>
     <use x="285.595703" xlink:href="#DejaVuSans-72"/>
     <use x="326.677734" xlink:href="#DejaVuSans-65"/>
     <use x="388.201172" xlink:href="#DejaVuSans-6e"/>
     <use x="451.580078" xlink:href="#DejaVuSans-20"/>
     <use x="483.367188" xlink:href="#DejaVuSans-33"/>
     <use x="546.990234" xlink:href="#DejaVuSans-30"/>
     <use x="610.613281" xlink:href="#DejaVuSans-35"/>
     <use x="674.236328" xlink:href="#DejaVuSans-4b"/>
    </g>
   </g>
   <g id="legend_1">
    <g id="patch_7">
     <path d="M 300.245313 89.030625 
L 379.960938 89.030625 
Q 381.960938 89.030625 381.960938 87.030625 
L 381.960938 29.318125 
Q 381.960938 27.318125 379.960938 27.318125 
L 300.245313 27.318125 
Q 298.245313 27.318125 298.245313 29.318125 
L 298.245313 87.030625 
Q 298.245313 89.030625 300.245313 89.030625 
z
" style="fill:#ffffff;opacity:0.8;stroke:#cccccc;stroke-linejoin:miter;"/>
    </g>
    <g id="line2d_21">
     <path d="M 302.245313 35.416562 
L 322.245313 35.416562 
" style="fill:none;stroke:#1f77b4;stroke-linecap:square;stroke-width:1.5;"/>
    </g>
    <g id="line2d_22"/>
    <g id="text_20">
     <!-- 1.5e-05 -->
     <defs>
      <path d="M 4.890625 31.390625 
L 31.203125 31.390625 
L 31.203125 23.390625 
L 4.890625 23.390625 
z
" id="DejaVuSans-2d"/>
     </defs>
     <g transform="translate(330.245313 38.916562)scale(0.1 -0.1)">
      <use xlink:href="#DejaVuSans-31"/>
      <use x="63.623047" xlink:href="#DejaVuSans-2e"/>
      <use x="95.410156" xlink:href="#DejaVuSans-35"/>
      <use x="159.033203" xlink:href="#DejaVuSans-65"/>
      <use x="220.556641" xlink:href="#DejaVuSans-2d"/>
      <use x="256.640625" xlink:href="#DejaVuSans-30"/>
      <use x="320.263672" xlink:href="#DejaVuSans-35"/>
     </g>
    </g>
    <g id="line2d_23">
     <path d="M 302.245313 50.094687 
L 322.245313 50.094687 
" style="fill:none;stroke:#ff7f0e;stroke-linecap:square;stroke-width:1.5;"/>
    </g>
    <g id="line2d_24"/>
    <g id="text_21">
     <!-- 0.0009 -->
     <defs>
      <path d="M 10.984375 1.515625 
L 10.984375 10.5 
Q 14.703125 8.734375 18.5 7.8125 
Q 22.3125 6.890625 25.984375 6.890625 
Q 35.75 6.890625 40.890625 13.453125 
Q 46.046875 20.015625 46.78125 33.40625 
Q 43.953125 29.203125 39.59375 26.953125 
Q 35.25 24.703125 29.984375 24.703125 
Q 19.046875 24.703125 12.671875 31.3125 
Q 6.296875 37.9375 6.296875 49.421875 
Q 6.296875 60.640625 12.9375 67.421875 
Q 19.578125 74.21875 30.609375 74.21875 
Q 43.265625 74.21875 49.921875 64.515625 
Q 56.59375 54.828125 56.59375 36.375 
Q 56.59375 19.140625 48.40625 8.859375 
Q 40.234375 -1.421875 26.421875 -1.421875 
Q 22.703125 -1.421875 18.890625 -0.6875 
Q 15.09375 0.046875 10.984375 1.515625 
z
M 30.609375 32.421875 
Q 37.25 32.421875 41.125 36.953125 
Q 45.015625 41.5 45.015625 49.421875 
Q 45.015625 57.28125 41.125 61.84375 
Q 37.25 66.40625 30.609375 66.40625 
Q 23.96875 66.40625 20.09375 61.84375 
Q 16.21875 57.28125 16.21875 49.421875 
Q 16.21875 41.5 20.09375 36.953125 
Q 23.96875 32.421875 30.609375 32.421875 
z
" id="DejaVuSans-39"/>
     </defs>
     <g transform="translate(330.245313 53.594687)scale(0.1 -0.1)">
      <use xlink:href="#DejaVuSans-30"/>
      <use x="63.623047" xlink:href="#DejaVuSans-2e"/>
      <use x="95.410156" xlink:href="#DejaVuSans-30"/>
      <use x="159.033203" xlink:href="#DejaVuSans-30"/>
      <use x="222.65625" xlink:href="#DejaVuSans-30"/>
      <use x="286.279297" xlink:href="#DejaVuSans-39"/>
     </g>
    </g>
    <g id="line2d_25">
     <path d="M 302.245313 64.772812 
L 322.245313 64.772812 
" style="fill:none;stroke:#2ca02c;stroke-linecap:square;stroke-width:1.5;"/>
    </g>
    <g id="line2d_26"/>
    <g id="text_22">
     <!-- 0.002041 -->
     <g transform="translate(330.245313 68.272812)scale(0.1 -0.1)">
      <use xlink:href="#DejaVuSans-30"/>
      <use x="63.623047" xlink:href="#DejaVuSans-2e"/>
      <use x="95.410156" xlink:href="#DejaVuSans-30"/>
      <use x="159.033203" xlink:href="#DejaVuSans-30"/>
      <use x="222.65625" xlink:href="#DejaVuSans-32"/>
      <use x="286.279297" xlink:href="#DejaVuSans-30"/>
      <use x="349.902344" xlink:href="#DejaVuSans-34"/>
      <use x="413.525391" xlink:href="#DejaVuSans-31"/>
     </g>
    </g>
    <g id="line2d_27">
     <path d="M 302.245313 79.450938 
L 322.245313 79.450938 
" style="fill:none;stroke:#d62728;stroke-linecap:square;stroke-width:1.5;"/>
    </g>
    <g id="line2d_28"/>
    <g id="text_23">
     <!-- 0.002778 -->
     <g transform="translate(330.245313 82.950938)scale(0.1 -0.1)">
      <use xlink:href="#DejaVuSans-30"/>
      <use x="63.623047" xlink:href="#DejaVuSans-2e"/>
      <use x="95.410156" xlink:href="#DejaVuSans-30"/>
      <use x="159.033203" xlink:href="#DejaVuSans-30"/>
      <use x="222.65625" xlink:href="#DejaVuSans-32"/>
      <use x="286.279297" xlink:href="#DejaVuSans-37"/>
      <use x="349.902344" xlink:href="#DejaVuSans-37"/>
      <use x="413.525391" xlink:href="#DejaVuSans-38"/>
     </g>
    </g>
   </g>
  </g>
 </g>
 <defs>
  <clipPath id="pf2f2e0a926">
   <rect height="217.44" width="334.8" x="52.160938" y="22.318125"/>
  </clipPath>
 </defs>
</svg>
