<?xml version="1.0" encoding="utf-8" standalone="no"?>
<!DOCTYPE svg PUBLIC "-//W3C//DTD SVG 1.1//EN"
  "http://www.w3.org/Graphics/SVG/1.1/DTD/svg11.dtd">
<!-- Created with matplotlib (http://matplotlib.org/) -->
<svg height="277.31625pt" version="1.1" viewBox="0 0 379.740625 277.31625" width="379.740625pt" xmlns="http://www.w3.org/2000/svg" xmlns:xlink="http://www.w3.org/1999/xlink">
 <defs>
  <style type="text/css">
*{stroke-linecap:butt;stroke-linejoin:round;}
  </style>
 </defs>
 <g id="figure_1">
  <g id="patch_1">
   <path d="M 0 277.31625 
L 379.740625 277.31625 
L 379.740625 0 
L 0 0 
z
" style="fill:#ffffff;"/>
  </g>
  <g id="axes_1">
   <g id="patch_2">
    <path d="M 34.240625 239.76 
L 369.040625 239.76 
L 369.040625 22.32 
L 34.240625 22.32 
z
" style="fill:#ffffff;"/>
   </g>
   <g id="matplotlib.axis_1">
    <g id="xtick_1">
     <g id="line2d_1">
      <path clip-path="url(#pe49b1796ae)" d="M 35.617908 239.76 
L 35.617908 22.32 
" style="fill:none;stroke:#b0b0b0;stroke-linecap:square;stroke-width:0.8;"/>
     </g>
     <g id="line2d_2">
      <defs>
       <path d="M 0 0 
L 0 3.5 
" id="m98c35ded00" style="stroke:#000000;stroke-width:0.8;"/>
      </defs>
      <g>
       <use style="stroke:#000000;stroke-width:0.8;" x="35.617908" xlink:href="#m98c35ded00" y="239.76"/>
      </g>
     </g>
     <g id="text_1">
      <!-- 225 -->
      <defs>
       <path d="M 19.1875 8.296875 
L 53.609375 8.296875 
L 53.609375 0 
L 7.328125 0 
L 7.328125 8.296875 
Q 12.9375 14.109375 22.625 23.890625 
Q 32.328125 33.6875 34.8125 36.53125 
Q 39.546875 41.84375 41.421875 45.53125 
Q 43.3125 49.21875 43.3125 52.78125 
Q 43.3125 58.59375 39.234375 62.25 
Q 35.15625 65.921875 28.609375 65.921875 
Q 23.96875 65.921875 18.8125 64.3125 
Q 13.671875 62.703125 7.8125 59.421875 
L 7.8125 69.390625 
Q 13.765625 71.78125 18.9375 73 
Q 24.125 74.21875 28.421875 74.21875 
Q 39.75 74.21875 46.484375 68.546875 
Q 53.21875 62.890625 53.21875 53.421875 
Q 53.21875 48.921875 51.53125 44.890625 
Q 49.859375 40.875 45.40625 35.40625 
Q 44.1875 33.984375 37.640625 27.21875 
Q 31.109375 20.453125 19.1875 8.296875 
z
" id="DejaVuSans-32"/>
       <path d="M 10.796875 72.90625 
L 49.515625 72.90625 
L 49.515625 64.59375 
L 19.828125 64.59375 
L 19.828125 46.734375 
Q 21.96875 47.46875 24.109375 47.828125 
Q 26.265625 48.1875 28.421875 48.1875 
Q 40.625 48.1875 47.75 41.5 
Q 54.890625 34.8125 54.890625 23.390625 
Q 54.890625 11.625 47.5625 5.09375 
Q 40.234375 -1.421875 26.90625 -1.421875 
Q 22.3125 -1.421875 17.546875 -0.640625 
Q 12.796875 0.140625 7.71875 1.703125 
L 7.71875 11.625 
Q 12.109375 9.234375 16.796875 8.0625 
Q 21.484375 6.890625 26.703125 6.890625 
Q 35.15625 6.890625 40.078125 11.328125 
Q 45.015625 15.765625 45.015625 23.390625 
Q 45.015625 31 40.078125 35.4375 
Q 35.15625 39.890625 26.703125 39.890625 
Q 22.75 39.890625 18.8125 39.015625 
Q 14.890625 38.140625 10.796875 36.28125 
z
" id="DejaVuSans-35"/>
      </defs>
      <g transform="translate(26.074158 254.358437)scale(0.1 -0.1)">
       <use xlink:href="#DejaVuSans-32"/>
       <use x="63.623047" xlink:href="#DejaVuSans-32"/>
       <use x="127.246094" xlink:href="#DejaVuSans-35"/>
      </g>
     </g>
    </g>
    <g id="xtick_2">
     <g id="line2d_3">
      <path clip-path="url(#pe49b1796ae)" d="M 73.434572 239.76 
L 73.434572 22.32 
" style="fill:none;stroke:#b0b0b0;stroke-linecap:square;stroke-width:0.8;"/>
     </g>
     <g id="line2d_4">
      <g>
       <use style="stroke:#000000;stroke-width:0.8;" x="73.434572" xlink:href="#m98c35ded00" y="239.76"/>
      </g>
     </g>
     <g id="text_2">
      <!-- 250 -->
      <defs>
       <path d="M 31.78125 66.40625 
Q 24.171875 66.40625 20.328125 58.90625 
Q 16.5 51.421875 16.5 36.375 
Q 16.5 21.390625 20.328125 13.890625 
Q 24.171875 6.390625 31.78125 6.390625 
Q 39.453125 6.390625 43.28125 13.890625 
Q 47.125 21.390625 47.125 36.375 
Q 47.125 51.421875 43.28125 58.90625 
Q 39.453125 66.40625 31.78125 66.40625 
z
M 31.78125 74.21875 
Q 44.046875 74.21875 50.515625 64.515625 
Q 56.984375 54.828125 56.984375 36.375 
Q 56.984375 17.96875 50.515625 8.265625 
Q 44.046875 -1.421875 31.78125 -1.421875 
Q 19.53125 -1.421875 13.0625 8.265625 
Q 6.59375 17.96875 6.59375 36.375 
Q 6.59375 54.828125 13.0625 64.515625 
Q 19.53125 74.21875 31.78125 74.21875 
z
" id="DejaVuSans-30"/>
      </defs>
      <g transform="translate(63.890822 254.358437)scale(0.1 -0.1)">
       <use xlink:href="#DejaVuSans-32"/>
       <use x="63.623047" xlink:href="#DejaVuSans-35"/>
       <use x="127.246094" xlink:href="#DejaVuSans-30"/>
      </g>
     </g>
    </g>
    <g id="xtick_3">
     <g id="line2d_5">
      <path clip-path="url(#pe49b1796ae)" d="M 111.251235 239.76 
L 111.251235 22.32 
" style="fill:none;stroke:#b0b0b0;stroke-linecap:square;stroke-width:0.8;"/>
     </g>
     <g id="line2d_6">
      <g>
       <use style="stroke:#000000;stroke-width:0.8;" x="111.251235" xlink:href="#m98c35ded00" y="239.76"/>
      </g>
     </g>
     <g id="text_3">
      <!-- 275 -->
      <defs>
       <path d="M 8.203125 72.90625 
L 55.078125 72.90625 
L 55.078125 68.703125 
L 28.609375 0 
L 18.3125 0 
L 43.21875 64.59375 
L 8.203125 64.59375 
z
" id="DejaVuSans-37"/>
      </defs>
      <g transform="translate(101.707485 254.358437)scale(0.1 -0.1)">
       <use xlink:href="#DejaVuSans-32"/>
       <use x="63.623047" xlink:href="#DejaVuSans-37"/>
       <use x="127.246094" xlink:href="#DejaVuSans-35"/>
      </g>
     </g>
    </g>
    <g id="xtick_4">
     <g id="line2d_7">
      <path clip-path="url(#pe49b1796ae)" d="M 149.067899 239.76 
L 149.067899 22.32 
" style="fill:none;stroke:#b0b0b0;stroke-linecap:square;stroke-width:0.8;"/>
     </g>
     <g id="line2d_8">
      <g>
       <use style="stroke:#000000;stroke-width:0.8;" x="149.067899" xlink:href="#m98c35ded00" y="239.76"/>
      </g>
     </g>
     <g id="text_4">
      <!-- 300 -->
      <defs>
       <path d="M 40.578125 39.3125 
Q 47.65625 37.796875 51.625 33 
Q 55.609375 28.21875 55.609375 21.1875 
Q 55.609375 10.40625 48.1875 4.484375 
Q 40.765625 -1.421875 27.09375 -1.421875 
Q 22.515625 -1.421875 17.65625 -0.515625 
Q 12.796875 0.390625 7.625 2.203125 
L 7.625 11.71875 
Q 11.71875 9.328125 16.59375 8.109375 
Q 21.484375 6.890625 26.8125 6.890625 
Q 36.078125 6.890625 40.9375 10.546875 
Q 45.796875 14.203125 45.796875 21.1875 
Q 45.796875 27.640625 41.28125 31.265625 
Q 36.765625 34.90625 28.71875 34.90625 
L 20.21875 34.90625 
L 20.21875 43.015625 
L 29.109375 43.015625 
Q 36.375 43.015625 40.234375 45.921875 
Q 44.09375 48.828125 44.09375 54.296875 
Q 44.09375 59.90625 40.109375 62.90625 
Q 36.140625 65.921875 28.71875 65.921875 
Q 24.65625 65.921875 20.015625 65.03125 
Q 15.375 64.15625 9.8125 62.3125 
L 9.8125 71.09375 
Q 15.4375 72.65625 20.34375 73.4375 
Q 25.25 74.21875 29.59375 74.21875 
Q 40.828125 74.21875 47.359375 69.109375 
Q 53.90625 64.015625 53.90625 55.328125 
Q 53.90625 49.265625 50.4375 45.09375 
Q 46.96875 40.921875 40.578125 39.3125 
z
" id="DejaVuSans-33"/>
      </defs>
      <g transform="translate(139.524149 254.358437)scale(0.1 -0.1)">
       <use xlink:href="#DejaVuSans-33"/>
       <use x="63.623047" xlink:href="#DejaVuSans-30"/>
       <use x="127.246094" xlink:href="#DejaVuSans-30"/>
      </g>
     </g>
    </g>
    <g id="xtick_5">
     <g id="line2d_9">
      <path clip-path="url(#pe49b1796ae)" d="M 186.884563 239.76 
L 186.884563 22.32 
" style="fill:none;stroke:#b0b0b0;stroke-linecap:square;stroke-width:0.8;"/>
     </g>
     <g id="line2d_10">
      <g>
       <use style="stroke:#000000;stroke-width:0.8;" x="186.884563" xlink:href="#m98c35ded00" y="239.76"/>
      </g>
     </g>
     <g id="text_5">
      <!-- 325 -->
      <g transform="translate(177.340813 254.358437)scale(0.1 -0.1)">
       <use xlink:href="#DejaVuSans-33"/>
       <use x="63.623047" xlink:href="#DejaVuSans-32"/>
       <use x="127.246094" xlink:href="#DejaVuSans-35"/>
      </g>
     </g>
    </g>
    <g id="xtick_6">
     <g id="line2d_11">
      <path clip-path="url(#pe49b1796ae)" d="M 224.701227 239.76 
L 224.701227 22.32 
" style="fill:none;stroke:#b0b0b0;stroke-linecap:square;stroke-width:0.8;"/>
     </g>
     <g id="line2d_12">
      <g>
       <use style="stroke:#000000;stroke-width:0.8;" x="224.701227" xlink:href="#m98c35ded00" y="239.76"/>
      </g>
     </g>
     <g id="text_6">
      <!-- 350 -->
      <g transform="translate(215.157477 254.358437)scale(0.1 -0.1)">
       <use xlink:href="#DejaVuSans-33"/>
       <use x="63.623047" xlink:href="#DejaVuSans-35"/>
       <use x="127.246094" xlink:href="#DejaVuSans-30"/>
      </g>
     </g>
    </g>
    <g id="xtick_7">
     <g id="line2d_13">
      <path clip-path="url(#pe49b1796ae)" d="M 262.51789 239.76 
L 262.51789 22.32 
" style="fill:none;stroke:#b0b0b0;stroke-linecap:square;stroke-width:0.8;"/>
     </g>
     <g id="line2d_14">
      <g>
       <use style="stroke:#000000;stroke-width:0.8;" x="262.51789" xlink:href="#m98c35ded00" y="239.76"/>
      </g>
     </g>
     <g id="text_7">
      <!-- 375 -->
      <g transform="translate(252.97414 254.358437)scale(0.1 -0.1)">
       <use xlink:href="#DejaVuSans-33"/>
       <use x="63.623047" xlink:href="#DejaVuSans-37"/>
       <use x="127.246094" xlink:href="#DejaVuSans-35"/>
      </g>
     </g>
    </g>
    <g id="xtick_8">
     <g id="line2d_15">
      <path clip-path="url(#pe49b1796ae)" d="M 300.334554 239.76 
L 300.334554 22.32 
" style="fill:none;stroke:#b0b0b0;stroke-linecap:square;stroke-width:0.8;"/>
     </g>
     <g id="line2d_16">
      <g>
       <use style="stroke:#000000;stroke-width:0.8;" x="300.334554" xlink:href="#m98c35ded00" y="239.76"/>
      </g>
     </g>
     <g id="text_8">
      <!-- 400 -->
      <defs>
       <path d="M 37.796875 64.3125 
L 12.890625 25.390625 
L 37.796875 25.390625 
z
M 35.203125 72.90625 
L 47.609375 72.90625 
L 47.609375 25.390625 
L 58.015625 25.390625 
L 58.015625 17.1875 
L 47.609375 17.1875 
L 47.609375 0 
L 37.796875 0 
L 37.796875 17.1875 
L 4.890625 17.1875 
L 4.890625 26.703125 
z
" id="DejaVuSans-34"/>
      </defs>
      <g transform="translate(290.790804 254.358437)scale(0.1 -0.1)">
       <use xlink:href="#DejaVuSans-34"/>
       <use x="63.623047" xlink:href="#DejaVuSans-30"/>
       <use x="127.246094" xlink:href="#DejaVuSans-30"/>
      </g>
     </g>
    </g>
    <g id="xtick_9">
     <g id="line2d_17">
      <path clip-path="url(#pe49b1796ae)" d="M 338.151218 239.76 
L 338.151218 22.32 
" style="fill:none;stroke:#b0b0b0;stroke-linecap:square;stroke-width:0.8;"/>
     </g>
     <g id="line2d_18">
      <g>
       <use style="stroke:#000000;stroke-width:0.8;" x="338.151218" xlink:href="#m98c35ded00" y="239.76"/>
      </g>
     </g>
     <g id="text_9">
      <!-- 425 -->
      <g transform="translate(328.607468 254.358437)scale(0.1 -0.1)">
       <use xlink:href="#DejaVuSans-34"/>
       <use x="63.623047" xlink:href="#DejaVuSans-32"/>
       <use x="127.246094" xlink:href="#DejaVuSans-35"/>
      </g>
     </g>
    </g>
    <g id="text_10">
     <!-- Temperatur [K] -->
     <defs>
      <path d="M -0.296875 72.90625 
L 61.375 72.90625 
L 61.375 64.59375 
L 35.5 64.59375 
L 35.5 0 
L 25.59375 0 
L 25.59375 64.59375 
L -0.296875 64.59375 
z
" id="DejaVuSans-54"/>
      <path d="M 56.203125 29.59375 
L 56.203125 25.203125 
L 14.890625 25.203125 
Q 15.484375 15.921875 20.484375 11.0625 
Q 25.484375 6.203125 34.421875 6.203125 
Q 39.59375 6.203125 44.453125 7.46875 
Q 49.3125 8.734375 54.109375 11.28125 
L 54.109375 2.78125 
Q 49.265625 0.734375 44.1875 -0.34375 
Q 39.109375 -1.421875 33.890625 -1.421875 
Q 20.796875 -1.421875 13.15625 6.1875 
Q 5.515625 13.8125 5.515625 26.8125 
Q 5.515625 40.234375 12.765625 48.109375 
Q 20.015625 56 32.328125 56 
Q 43.359375 56 49.78125 48.890625 
Q 56.203125 41.796875 56.203125 29.59375 
z
M 47.21875 32.234375 
Q 47.125 39.59375 43.09375 43.984375 
Q 39.0625 48.390625 32.421875 48.390625 
Q 24.90625 48.390625 20.390625 44.140625 
Q 15.875 39.890625 15.1875 32.171875 
z
" id="DejaVuSans-65"/>
      <path d="M 52 44.1875 
Q 55.375 50.25 60.0625 53.125 
Q 64.75 56 71.09375 56 
Q 79.640625 56 84.28125 50.015625 
Q 88.921875 44.046875 88.921875 33.015625 
L 88.921875 0 
L 79.890625 0 
L 79.890625 32.71875 
Q 79.890625 40.578125 77.09375 44.375 
Q 74.3125 48.1875 68.609375 48.1875 
Q 61.625 48.1875 57.5625 43.546875 
Q 53.515625 38.921875 53.515625 30.90625 
L 53.515625 0 
L 44.484375 0 
L 44.484375 32.71875 
Q 44.484375 40.625 41.703125 44.40625 
Q 38.921875 48.1875 33.109375 48.1875 
Q 26.21875 48.1875 22.15625 43.53125 
Q 18.109375 38.875 18.109375 30.90625 
L 18.109375 0 
L 9.078125 0 
L 9.078125 54.6875 
L 18.109375 54.6875 
L 18.109375 46.1875 
Q 21.1875 51.21875 25.484375 53.609375 
Q 29.78125 56 35.6875 56 
Q 41.65625 56 45.828125 52.96875 
Q 50 49.953125 52 44.1875 
z
" id="DejaVuSans-6d"/>
      <path d="M 18.109375 8.203125 
L 18.109375 -20.796875 
L 9.078125 -20.796875 
L 9.078125 54.6875 
L 18.109375 54.6875 
L 18.109375 46.390625 
Q 20.953125 51.265625 25.265625 53.625 
Q 29.59375 56 35.59375 56 
Q 45.5625 56 51.78125 48.09375 
Q 58.015625 40.1875 58.015625 27.296875 
Q 58.015625 14.40625 51.78125 6.484375 
Q 45.5625 -1.421875 35.59375 -1.421875 
Q 29.59375 -1.421875 25.265625 0.953125 
Q 20.953125 3.328125 18.109375 8.203125 
z
M 48.6875 27.296875 
Q 48.6875 37.203125 44.609375 42.84375 
Q 40.53125 48.484375 33.40625 48.484375 
Q 26.265625 48.484375 22.1875 42.84375 
Q 18.109375 37.203125 18.109375 27.296875 
Q 18.109375 17.390625 22.1875 11.75 
Q 26.265625 6.109375 33.40625 6.109375 
Q 40.53125 6.109375 44.609375 11.75 
Q 48.6875 17.390625 48.6875 27.296875 
z
" id="DejaVuSans-70"/>
      <path d="M 41.109375 46.296875 
Q 39.59375 47.171875 37.8125 47.578125 
Q 36.03125 48 33.890625 48 
Q 26.265625 48 22.1875 43.046875 
Q 18.109375 38.09375 18.109375 28.8125 
L 18.109375 0 
L 9.078125 0 
L 9.078125 54.6875 
L 18.109375 54.6875 
L 18.109375 46.1875 
Q 20.953125 51.171875 25.484375 53.578125 
Q 30.03125 56 36.53125 56 
Q 37.453125 56 38.578125 55.875 
Q 39.703125 55.765625 41.0625 55.515625 
z
" id="DejaVuSans-72"/>
      <path d="M 34.28125 27.484375 
Q 23.390625 27.484375 19.1875 25 
Q 14.984375 22.515625 14.984375 16.5 
Q 14.984375 11.71875 18.140625 8.90625 
Q 21.296875 6.109375 26.703125 6.109375 
Q 34.1875 6.109375 38.703125 11.40625 
Q 43.21875 16.703125 43.21875 25.484375 
L 43.21875 27.484375 
z
M 52.203125 31.203125 
L 52.203125 0 
L 43.21875 0 
L 43.21875 8.296875 
Q 40.140625 3.328125 35.546875 0.953125 
Q 30.953125 -1.421875 24.3125 -1.421875 
Q 15.921875 -1.421875 10.953125 3.296875 
Q 6 8.015625 6 15.921875 
Q 6 25.140625 12.171875 29.828125 
Q 18.359375 34.515625 30.609375 34.515625 
L 43.21875 34.515625 
L 43.21875 35.40625 
Q 43.21875 41.609375 39.140625 45 
Q 35.0625 48.390625 27.6875 48.390625 
Q 23 48.390625 18.546875 47.265625 
Q 14.109375 46.140625 10.015625 43.890625 
L 10.015625 52.203125 
Q 14.9375 54.109375 19.578125 55.046875 
Q 24.21875 56 28.609375 56 
Q 40.484375 56 46.34375 49.84375 
Q 52.203125 43.703125 52.203125 31.203125 
z
" id="DejaVuSans-61"/>
      <path d="M 18.3125 70.21875 
L 18.3125 54.6875 
L 36.8125 54.6875 
L 36.8125 47.703125 
L 18.3125 47.703125 
L 18.3125 18.015625 
Q 18.3125 11.328125 20.140625 9.421875 
Q 21.96875 7.515625 27.59375 7.515625 
L 36.8125 7.515625 
L 36.8125 0 
L 27.59375 0 
Q 17.1875 0 13.234375 3.875 
Q 9.28125 7.765625 9.28125 18.015625 
L 9.28125 47.703125 
L 2.6875 47.703125 
L 2.6875 54.6875 
L 9.28125 54.6875 
L 9.28125 70.21875 
z
" id="DejaVuSans-74"/>
      <path d="M 8.5 21.578125 
L 8.5 54.6875 
L 17.484375 54.6875 
L 17.484375 21.921875 
Q 17.484375 14.15625 20.5 10.265625 
Q 23.53125 6.390625 29.59375 6.390625 
Q 36.859375 6.390625 41.078125 11.03125 
Q 45.3125 15.671875 45.3125 23.6875 
L 45.3125 54.6875 
L 54.296875 54.6875 
L 54.296875 0 
L 45.3125 0 
L 45.3125 8.40625 
Q 42.046875 3.421875 37.71875 1 
Q 33.40625 -1.421875 27.6875 -1.421875 
Q 18.265625 -1.421875 13.375 4.4375 
Q 8.5 10.296875 8.5 21.578125 
z
M 31.109375 56 
z
" id="DejaVuSans-75"/>
      <path id="DejaVuSans-20"/>
      <path d="M 8.59375 75.984375 
L 29.296875 75.984375 
L 29.296875 69 
L 17.578125 69 
L 17.578125 -6.203125 
L 29.296875 -6.203125 
L 29.296875 -13.1875 
L 8.59375 -13.1875 
z
" id="DejaVuSans-5b"/>
      <path d="M 9.8125 72.90625 
L 19.671875 72.90625 
L 19.671875 42.09375 
L 52.390625 72.90625 
L 65.09375 72.90625 
L 28.90625 38.921875 
L 67.671875 0 
L 54.6875 0 
L 19.671875 35.109375 
L 19.671875 0 
L 9.8125 0 
z
" id="DejaVuSans-4b"/>
      <path d="M 30.421875 75.984375 
L 30.421875 -13.1875 
L 9.71875 -13.1875 
L 9.71875 -6.203125 
L 21.390625 -6.203125 
L 21.390625 69 
L 9.71875 69 
L 9.71875 75.984375 
z
" id="DejaVuSans-5d"/>
     </defs>
     <g transform="translate(163.328906 268.036562)scale(0.1 -0.1)">
      <use xlink:href="#DejaVuSans-54"/>
      <use x="60.818359" xlink:href="#DejaVuSans-65"/>
      <use x="122.341797" xlink:href="#DejaVuSans-6d"/>
      <use x="219.753906" xlink:href="#DejaVuSans-70"/>
      <use x="283.230469" xlink:href="#DejaVuSans-65"/>
      <use x="344.753906" xlink:href="#DejaVuSans-72"/>
      <use x="385.867188" xlink:href="#DejaVuSans-61"/>
      <use x="447.146484" xlink:href="#DejaVuSans-74"/>
      <use x="486.355469" xlink:href="#DejaVuSans-75"/>
      <use x="549.734375" xlink:href="#DejaVuSans-72"/>
      <use x="590.847656" xlink:href="#DejaVuSans-20"/>
      <use x="622.634766" xlink:href="#DejaVuSans-5b"/>
      <use x="661.648438" xlink:href="#DejaVuSans-4b"/>
      <use x="727.224609" xlink:href="#DejaVuSans-5d"/>
     </g>
    </g>
   </g>
   <g id="matplotlib.axis_2">
    <g id="ytick_1">
     <g id="line2d_19">
      <path clip-path="url(#pe49b1796ae)" d="M 34.240625 219.794453 
L 369.040625 219.794453 
" style="fill:none;stroke:#b0b0b0;stroke-linecap:square;stroke-width:0.8;"/>
     </g>
     <g id="line2d_20">
      <defs>
       <path d="M 0 0 
L -3.5 0 
" id="m02f366d5a3" style="stroke:#000000;stroke-width:0.8;"/>
      </defs>
      <g>
       <use style="stroke:#000000;stroke-width:0.8;" x="34.240625" xlink:href="#m02f366d5a3" y="219.794453"/>
      </g>
     </g>
     <g id="text_11">
      <!-- 0 -->
      <g transform="translate(20.878125 223.593671)scale(0.1 -0.1)">
       <use xlink:href="#DejaVuSans-30"/>
      </g>
     </g>
    </g>
    <g id="ytick_2">
     <g id="line2d_21">
      <path clip-path="url(#pe49b1796ae)" d="M 34.240625 172.863242 
L 369.040625 172.863242 
" style="fill:none;stroke:#b0b0b0;stroke-linecap:square;stroke-width:0.8;"/>
     </g>
     <g id="line2d_22">
      <g>
       <use style="stroke:#000000;stroke-width:0.8;" x="34.240625" xlink:href="#m02f366d5a3" y="172.863242"/>
      </g>
     </g>
     <g id="text_12">
      <!-- 1 -->
      <defs>
       <path d="M 12.40625 8.296875 
L 28.515625 8.296875 
L 28.515625 63.921875 
L 10.984375 60.40625 
L 10.984375 69.390625 
L 28.421875 72.90625 
L 38.28125 72.90625 
L 38.28125 8.296875 
L 54.390625 8.296875 
L 54.390625 0 
L 12.40625 0 
z
" id="DejaVuSans-31"/>
      </defs>
      <g transform="translate(20.878125 176.662461)scale(0.1 -0.1)">
       <use xlink:href="#DejaVuSans-31"/>
      </g>
     </g>
    </g>
    <g id="ytick_3">
     <g id="line2d_23">
      <path clip-path="url(#pe49b1796ae)" d="M 34.240625 125.932032 
L 369.040625 125.932032 
" style="fill:none;stroke:#b0b0b0;stroke-linecap:square;stroke-width:0.8;"/>
     </g>
     <g id="line2d_24">
      <g>
       <use style="stroke:#000000;stroke-width:0.8;" x="34.240625" xlink:href="#m02f366d5a3" y="125.932032"/>
      </g>
     </g>
     <g id="text_13">
      <!-- 2 -->
      <g transform="translate(20.878125 129.731251)scale(0.1 -0.1)">
       <use xlink:href="#DejaVuSans-32"/>
      </g>
     </g>
    </g>
    <g id="ytick_4">
     <g id="line2d_25">
      <path clip-path="url(#pe49b1796ae)" d="M 34.240625 79.000822 
L 369.040625 79.000822 
" style="fill:none;stroke:#b0b0b0;stroke-linecap:square;stroke-width:0.8;"/>
     </g>
     <g id="line2d_26">
      <g>
       <use style="stroke:#000000;stroke-width:0.8;" x="34.240625" xlink:href="#m02f366d5a3" y="79.000822"/>
      </g>
     </g>
     <g id="text_14">
      <!-- 3 -->
      <g transform="translate(20.878125 82.800041)scale(0.1 -0.1)">
       <use xlink:href="#DejaVuSans-33"/>
      </g>
     </g>
    </g>
    <g id="ytick_5">
     <g id="line2d_27">
      <path clip-path="url(#pe49b1796ae)" d="M 34.240625 32.069612 
L 369.040625 32.069612 
" style="fill:none;stroke:#b0b0b0;stroke-linecap:square;stroke-width:0.8;"/>
     </g>
     <g id="line2d_28">
      <g>
       <use style="stroke:#000000;stroke-width:0.8;" x="34.240625" xlink:href="#m02f366d5a3" y="32.069612"/>
      </g>
     </g>
     <g id="text_15">
      <!-- 4 -->
      <g transform="translate(20.878125 35.868831)scale(0.1 -0.1)">
       <use xlink:href="#DejaVuSans-34"/>
      </g>
     </g>
    </g>
    <g id="text_16">
     <!-- 1/$T_1$ [1/s] -->
     <defs>
      <path d="M 25.390625 72.90625 
L 33.6875 72.90625 
L 8.296875 -9.28125 
L 0 -9.28125 
z
" id="DejaVuSans-2f"/>
      <path d="M 5.90625 72.90625 
L 67.578125 72.90625 
L 66.015625 64.59375 
L 39.984375 64.59375 
L 27.484375 0 
L 17.578125 0 
L 30.078125 64.59375 
L 4.296875 64.59375 
z
" id="DejaVuSans-Oblique-54"/>
      <path d="M 44.28125 53.078125 
L 44.28125 44.578125 
Q 40.484375 46.53125 36.375 47.5 
Q 32.28125 48.484375 27.875 48.484375 
Q 21.1875 48.484375 17.84375 46.4375 
Q 14.5 44.390625 14.5 40.28125 
Q 14.5 37.15625 16.890625 35.375 
Q 19.28125 33.59375 26.515625 31.984375 
L 29.59375 31.296875 
Q 39.15625 29.25 43.1875 25.515625 
Q 47.21875 21.78125 47.21875 15.09375 
Q 47.21875 7.46875 41.1875 3.015625 
Q 35.15625 -1.421875 24.609375 -1.421875 
Q 20.21875 -1.421875 15.453125 -0.5625 
Q 10.6875 0.296875 5.421875 2 
L 5.421875 11.28125 
Q 10.40625 8.6875 15.234375 7.390625 
Q 20.0625 6.109375 24.8125 6.109375 
Q 31.15625 6.109375 34.5625 8.28125 
Q 37.984375 10.453125 37.984375 14.40625 
Q 37.984375 18.0625 35.515625 20.015625 
Q 33.0625 21.96875 24.703125 23.78125 
L 21.578125 24.515625 
Q 13.234375 26.265625 9.515625 29.90625 
Q 5.8125 33.546875 5.8125 39.890625 
Q 5.8125 47.609375 11.28125 51.796875 
Q 16.75 56 26.8125 56 
Q 31.78125 56 36.171875 55.265625 
Q 40.578125 54.546875 44.28125 53.078125 
z
" id="DejaVuSans-73"/>
     </defs>
     <g transform="translate(14.798437 154.29)rotate(-90)scale(0.1 -0.1)">
      <use transform="translate(0 0.015625)" xlink:href="#DejaVuSans-31"/>
      <use transform="translate(63.623047 0.015625)" xlink:href="#DejaVuSans-2f"/>
      <use transform="translate(97.314453 0.015625)" xlink:href="#DejaVuSans-Oblique-54"/>
      <use transform="translate(158.398438 -16.390625)scale(0.7)" xlink:href="#DejaVuSans-31"/>
      <use transform="translate(205.668945 0.015625)" xlink:href="#DejaVuSans-20"/>
      <use transform="translate(237.456055 0.015625)" xlink:href="#DejaVuSans-5b"/>
      <use transform="translate(276.469727 0.015625)" xlink:href="#DejaVuSans-31"/>
      <use transform="translate(340.092773 0.015625)" xlink:href="#DejaVuSans-2f"/>
      <use transform="translate(373.78418 0.015625)" xlink:href="#DejaVuSans-73"/>
      <use transform="translate(425.883789 0.015625)" xlink:href="#DejaVuSans-5d"/>
     </g>
    </g>
   </g>
   <g id="LineCollection_1">
    <path clip-path="url(#pe49b1796ae)" d="M 266.314683 181.30226 
L 266.314683 178.206563 
" style="fill:none;stroke:#1f77b4;stroke-width:1.5;"/>
    <path clip-path="url(#pe49b1796ae)" d="M 266.390317 182.514114 
L 266.390317 180.009538 
" style="fill:none;stroke:#1f77b4;stroke-width:1.5;"/>
    <path clip-path="url(#pe49b1796ae)" d="M 260.74807 180.581499 
L 260.74807 178.861191 
" style="fill:none;stroke:#1f77b4;stroke-width:1.5;"/>
    <path clip-path="url(#pe49b1796ae)" d="M 260.551424 180.645488 
L 260.551424 178.73425 
" style="fill:none;stroke:#1f77b4;stroke-width:1.5;"/>
    <path clip-path="url(#pe49b1796ae)" d="M 256.346211 179.447834 
L 256.346211 177.970673 
" style="fill:none;stroke:#1f77b4;stroke-width:1.5;"/>
    <path clip-path="url(#pe49b1796ae)" d="M 256.194944 179.707381 
L 256.194944 176.58184 
" style="fill:none;stroke:#1f77b4;stroke-width:1.5;"/>
    <path clip-path="url(#pe49b1796ae)" d="M 251.989731 179.079685 
L 251.989731 177.453935 
" style="fill:none;stroke:#1f77b4;stroke-width:1.5;"/>
    <path clip-path="url(#pe49b1796ae)" d="M 251.838464 180.235981 
L 251.838464 178.151887 
" style="fill:none;stroke:#1f77b4;stroke-width:1.5;"/>
    <path clip-path="url(#pe49b1796ae)" d="M 249.009778 178.260788 
L 249.009778 176.718479 
" style="fill:none;stroke:#1f77b4;stroke-width:1.5;"/>
    <path clip-path="url(#pe49b1796ae)" d="M 248.934145 176.11125 
L 248.934145 173.587862 
" style="fill:none;stroke:#1f77b4;stroke-width:1.5;"/>
    <path clip-path="url(#pe49b1796ae)" d="M 246.120585 177.759443 
L 246.120585 175.653356 
" style="fill:none;stroke:#1f77b4;stroke-width:1.5;"/>
    <path clip-path="url(#pe49b1796ae)" d="M 246.044952 179.915389 
L 246.044952 177.389099 
" style="fill:none;stroke:#1f77b4;stroke-width:1.5;"/>
    <path clip-path="url(#pe49b1796ae)" d="M 243.201138 178.564767 
L 243.201138 175.574841 
" style="fill:none;stroke:#1f77b4;stroke-width:1.5;"/>
    <path clip-path="url(#pe49b1796ae)" d="M 243.110378 179.546925 
L 243.110378 174.584066 
" style="fill:none;stroke:#1f77b4;stroke-width:1.5;"/>
    <path clip-path="url(#pe49b1796ae)" d="M 240.266565 184.678934 
L 240.266565 181.602255 
" style="fill:none;stroke:#1f77b4;stroke-width:1.5;"/>
    <path clip-path="url(#pe49b1796ae)" d="M 240.190932 182.555248 
L 240.190932 178.314933 
" style="fill:none;stroke:#1f77b4;stroke-width:1.5;"/>
    <path clip-path="url(#pe49b1796ae)" d="M 237.347119 182.352228 
L 237.347119 178.991213 
" style="fill:none;stroke:#1f77b4;stroke-width:1.5;"/>
    <path clip-path="url(#pe49b1796ae)" d="M 237.271486 177.001822 
L 237.271486 172.264717 
" style="fill:none;stroke:#1f77b4;stroke-width:1.5;"/>
    <path clip-path="url(#pe49b1796ae)" d="M 233.066273 180.934895 
L 233.066273 178.396191 
" style="fill:none;stroke:#1f77b4;stroke-width:1.5;"/>
    <path clip-path="url(#pe49b1796ae)" d="M 232.915006 180.976849 
L 232.915006 177.625113 
" style="fill:none;stroke:#1f77b4;stroke-width:1.5;"/>
    <path clip-path="url(#pe49b1796ae)" d="M 228.740046 181.492225 
L 228.740046 179.266865 
" style="fill:none;stroke:#1f77b4;stroke-width:1.5;"/>
    <path clip-path="url(#pe49b1796ae)" d="M 228.58878 181.527288 
L 228.58878 179.035105 
" style="fill:none;stroke:#1f77b4;stroke-width:1.5;"/>
    <path clip-path="url(#pe49b1796ae)" d="M 224.41382 181.5096 
L 224.41382 178.242983 
" style="fill:none;stroke:#1f77b4;stroke-width:1.5;"/>
    <path clip-path="url(#pe49b1796ae)" d="M 224.247427 183.315573 
L 224.247427 181.478896 
" style="fill:none;stroke:#1f77b4;stroke-width:1.5;"/>
    <path clip-path="url(#pe49b1796ae)" d="M 220.072467 182.582446 
L 220.072467 179.153163 
" style="fill:none;stroke:#1f77b4;stroke-width:1.5;"/>
    <path clip-path="url(#pe49b1796ae)" d="M 219.890947 183.571921 
L 219.890947 182.26509 
" style="fill:none;stroke:#1f77b4;stroke-width:1.5;"/>
    <path clip-path="url(#pe49b1796ae)" d="M 215.761367 179.795995 
L 215.761367 177.097397 
" style="fill:none;stroke:#1f77b4;stroke-width:1.5;"/>
    <path clip-path="url(#pe49b1796ae)" d="M 215.549594 184.805551 
L 215.549594 181.910615 
" style="fill:none;stroke:#1f77b4;stroke-width:1.5;"/>
    <path clip-path="url(#pe49b1796ae)" d="M 211.359508 181.027367 
L 211.359508 175.805159 
" style="fill:none;stroke:#1f77b4;stroke-width:1.5;"/>
    <path clip-path="url(#pe49b1796ae)" d="M 223.884387 184.002173 
L 223.884387 182.888652 
" style="fill:none;stroke:#1f77b4;stroke-width:1.5;"/>
    <path clip-path="url(#pe49b1796ae)" d="M 224.202047 184.678684 
L 224.202047 183.353413 
" style="fill:none;stroke:#1f77b4;stroke-width:1.5;"/>
    <path clip-path="url(#pe49b1796ae)" d="M 220.042214 185.199506 
L 220.042214 184.023879 
" style="fill:none;stroke:#1f77b4;stroke-width:1.5;"/>
    <path clip-path="url(#pe49b1796ae)" d="M 219.87582 186.307664 
L 219.87582 183.583657 
" style="fill:none;stroke:#1f77b4;stroke-width:1.5;"/>
    <path clip-path="url(#pe49b1796ae)" d="M 215.761367 187.701244 
L 215.761367 186.598459 
" style="fill:none;stroke:#1f77b4;stroke-width:1.5;"/>
    <path clip-path="url(#pe49b1796ae)" d="M 215.534467 187.895296 
L 215.534467 186.493678 
" style="fill:none;stroke:#1f77b4;stroke-width:1.5;"/>
    <path clip-path="url(#pe49b1796ae)" d="M 211.420014 188.296312 
L 211.420014 187.279567 
" style="fill:none;stroke:#1f77b4;stroke-width:1.5;"/>
    <path clip-path="url(#pe49b1796ae)" d="M 211.208241 188.635747 
L 211.208241 187.397897 
" style="fill:none;stroke:#1f77b4;stroke-width:1.5;"/>
   </g>
   <g id="LineCollection_2">
    <path clip-path="url(#pe49b1796ae)" d="M 352.718197 202.416366 
L 352.718197 185.607138 
" style="fill:none;stroke:#ff7f0e;stroke-width:1.5;"/>
    <path clip-path="url(#pe49b1796ae)" d="M 346.138097 191.657558 
L 346.138097 166.759324 
" style="fill:none;stroke:#ff7f0e;stroke-width:1.5;"/>
    <path clip-path="url(#pe49b1796ae)" d="M 338.952931 172.863242 
L 338.952931 172.863242 
" style="fill:none;stroke:#ff7f0e;stroke-width:1.5;"/>
    <path clip-path="url(#pe49b1796ae)" d="M 331.722385 229.876364 
L 331.722385 174.628082 
" style="fill:none;stroke:#ff7f0e;stroke-width:1.5;"/>
    <path clip-path="url(#pe49b1796ae)" d="M 324.416205 172.863242 
L 324.416205 172.863242 
" style="fill:none;stroke:#ff7f0e;stroke-width:1.5;"/>
    <path clip-path="url(#pe49b1796ae)" d="M 317.185659 172.863242 
L 317.185659 172.863242 
" style="fill:none;stroke:#ff7f0e;stroke-width:1.5;"/>
    <path clip-path="url(#pe49b1796ae)" d="M 309.92486 172.863242 
L 309.92486 172.863242 
" style="fill:none;stroke:#ff7f0e;stroke-width:1.5;"/>
    <path clip-path="url(#pe49b1796ae)" d="M 302.5733 172.863242 
L 302.5733 172.863242 
" style="fill:none;stroke:#ff7f0e;stroke-width:1.5;"/>
    <path clip-path="url(#pe49b1796ae)" d="M 295.433514 196.969925 
L 295.433514 148.41749 
" style="fill:none;stroke:#ff7f0e;stroke-width:1.5;"/>
    <path clip-path="url(#pe49b1796ae)" d="M 288.233222 188.630774 
L 288.233222 163.305874 
" style="fill:none;stroke:#ff7f0e;stroke-width:1.5;"/>
    <path clip-path="url(#pe49b1796ae)" d="M 281.017802 169.385218 
L 281.017802 157.114053 
" style="fill:none;stroke:#ff7f0e;stroke-width:1.5;"/>
    <path clip-path="url(#pe49b1796ae)" d="M 273.757003 182.607691 
L 273.757003 178.243102 
" style="fill:none;stroke:#ff7f0e;stroke-width:1.5;"/>
    <path clip-path="url(#pe49b1796ae)" d="M 266.677723 186.061606 
L 266.677723 182.388596 
" style="fill:none;stroke:#ff7f0e;stroke-width:1.5;"/>
    <path clip-path="url(#pe49b1796ae)" d="M 266.28443 183.176893 
L 266.28443 179.842624 
" style="fill:none;stroke:#ff7f0e;stroke-width:1.5;"/>
    <path clip-path="url(#pe49b1796ae)" d="M 259.280784 181.029399 
L 259.280784 179.262493 
" style="fill:none;stroke:#ff7f0e;stroke-width:1.5;"/>
    <path clip-path="url(#pe49b1796ae)" d="M 252.035111 179.900381 
L 252.035111 177.392509 
" style="fill:none;stroke:#ff7f0e;stroke-width:1.5;"/>
    <path clip-path="url(#pe49b1796ae)" d="M 244.849945 182.454686 
L 244.849945 179.135505 
" style="fill:none;stroke:#ff7f0e;stroke-width:1.5;"/>
    <path clip-path="url(#pe49b1796ae)" d="M 237.513512 182.543525 
L 237.513512 178.629903 
" style="fill:none;stroke:#ff7f0e;stroke-width:1.5;"/>
   </g>
   <g id="LineCollection_3">
    <path clip-path="url(#pe49b1796ae)" d="M 353.822443 209.363055 
L 353.822443 149.403431 
" style="fill:none;stroke:#2ca02c;stroke-width:1.5;"/>
    <path clip-path="url(#pe49b1796ae)" d="M 281.759009 219.660669 
L 281.759009 32.203636 
" style="fill:none;stroke:#2ca02c;stroke-width:1.5;"/>
    <path clip-path="url(#pe49b1796ae)" d="M 274.528463 212.920255 
L 274.528463 159.905277 
" style="fill:none;stroke:#2ca02c;stroke-width:1.5;"/>
    <path clip-path="url(#pe49b1796ae)" d="M 267.388677 191.882213 
L 267.388677 171.485612 
" style="fill:none;stroke:#2ca02c;stroke-width:1.5;"/>
    <path clip-path="url(#pe49b1796ae)" d="M 259.93123 193.117838 
L 259.93123 176.444656 
" style="fill:none;stroke:#2ca02c;stroke-width:1.5;"/>
    <path clip-path="url(#pe49b1796ae)" d="M 252.715811 184.315386 
L 252.715811 170.55178 
" style="fill:none;stroke:#2ca02c;stroke-width:1.5;"/>
    <path clip-path="url(#pe49b1796ae)" d="M 245.424758 176.916261 
L 245.424758 141.359876 
" style="fill:none;stroke:#2ca02c;stroke-width:1.5;"/>
    <path clip-path="url(#pe49b1796ae)" d="M 238.088326 187.059271 
L 238.088326 134.142743 
" style="fill:none;stroke:#2ca02c;stroke-width:1.5;"/>
   </g>
   <g id="LineCollection_4">
    <path clip-path="url(#pe49b1796ae)" d="M 106.970389 191.013524 
L 106.970389 190.514555 
" style="fill:none;stroke:#d62728;stroke-width:1.5;"/>
    <path clip-path="url(#pe49b1796ae)" d="M 106.773742 190.880114 
L 106.773742 190.260249 
" style="fill:none;stroke:#d62728;stroke-width:1.5;"/>
    <path clip-path="url(#pe49b1796ae)" d="M 120.841541 190.558727 
L 120.841541 189.928283 
" style="fill:none;stroke:#d62728;stroke-width:1.5;"/>
    <path clip-path="url(#pe49b1796ae)" d="M 121.204581 190.684205 
L 121.204581 190.049267 
" style="fill:none;stroke:#d62728;stroke-width:1.5;"/>
    <path clip-path="url(#pe49b1796ae)" d="M 135.332887 190.343279 
L 135.332887 189.72376 
" style="fill:none;stroke:#d62728;stroke-width:1.5;"/>
    <path clip-path="url(#pe49b1796ae)" d="M 135.711053 190.298339 
L 135.711053 189.745372 
" style="fill:none;stroke:#d62728;stroke-width:1.5;"/>
    <path clip-path="url(#pe49b1796ae)" d="M 149.793979 189.959793 
L 149.793979 189.349489 
" style="fill:none;stroke:#d62728;stroke-width:1.5;"/>
    <path clip-path="url(#pe49b1796ae)" d="M 150.172146 189.86827 
L 150.172146 189.355806 
" style="fill:none;stroke:#d62728;stroke-width:1.5;"/>
    <path clip-path="url(#pe49b1796ae)" d="M 164.376085 189.476051 
L 164.376085 188.96826 
" style="fill:none;stroke:#d62728;stroke-width:1.5;"/>
    <path clip-path="url(#pe49b1796ae)" d="M 164.663491 189.623679 
L 164.663491 189.093893 
" style="fill:none;stroke:#d62728;stroke-width:1.5;"/>
    <path clip-path="url(#pe49b1796ae)" d="M 178.761543 189.894583 
L 178.761543 189.373865 
" style="fill:none;stroke:#d62728;stroke-width:1.5;"/>
    <path clip-path="url(#pe49b1796ae)" d="M 179.154837 189.739188 
L 179.154837 189.175685 
" style="fill:none;stroke:#d62728;stroke-width:1.5;"/>
    <path clip-path="url(#pe49b1796ae)" d="M 193.358776 190.63804 
L 193.358776 190.002448 
" style="fill:none;stroke:#d62728;stroke-width:1.5;"/>
    <path clip-path="url(#pe49b1796ae)" d="M 193.676436 190.795821 
L 193.676436 190.199791 
" style="fill:none;stroke:#d62728;stroke-width:1.5;"/>
   </g>
   <g id="LineCollection_5">
    <path clip-path="url(#pe49b1796ae)" d="M 157.705225 189.884284 
L 157.705225 189.360727 
" style="fill:none;stroke:#9467bd;stroke-width:1.5;"/>
    <path clip-path="url(#pe49b1796ae)" d="M 157.463198 189.88321 
L 157.463198 189.311287 
" style="fill:none;stroke:#9467bd;stroke-width:1.5;"/>
    <path clip-path="url(#pe49b1796ae)" d="M 164.330705 189.590753 
L 164.330705 189.072015 
" style="fill:none;stroke:#9467bd;stroke-width:1.5;"/>
    <path clip-path="url(#pe49b1796ae)" d="M 164.678618 189.764416 
L 164.678618 189.252388 
" style="fill:none;stroke:#9467bd;stroke-width:1.5;"/>
    <path clip-path="url(#pe49b1796ae)" d="M 171.470491 189.427334 
L 171.470491 188.958267 
" style="fill:none;stroke:#9467bd;stroke-width:1.5;"/>
    <path clip-path="url(#pe49b1796ae)" d="M 171.863784 189.53938 
L 171.863784 188.990513 
" style="fill:none;stroke:#9467bd;stroke-width:1.5;"/>
    <path clip-path="url(#pe49b1796ae)" d="M 178.837177 189.533507 
L 178.837177 188.985475 
" style="fill:none;stroke:#9467bd;stroke-width:1.5;"/>
    <path clip-path="url(#pe49b1796ae)" d="M 179.169963 189.619619 
L 179.169963 189.076748 
" style="fill:none;stroke:#9467bd;stroke-width:1.5;"/>
    <path clip-path="url(#pe49b1796ae)" d="M 186.067723 189.947972 
L 186.067723 189.2679 
" style="fill:none;stroke:#9467bd;stroke-width:1.5;"/>
    <path clip-path="url(#pe49b1796ae)" d="M 186.430763 189.760402 
L 186.430763 189.247057 
" style="fill:none;stroke:#9467bd;stroke-width:1.5;"/>
    <path clip-path="url(#pe49b1796ae)" d="M 193.313396 190.31941 
L 193.313396 189.670252 
" style="fill:none;stroke:#9467bd;stroke-width:1.5;"/>
    <path clip-path="url(#pe49b1796ae)" d="M 193.691562 190.386966 
L 193.691562 189.715622 
" style="fill:none;stroke:#9467bd;stroke-width:1.5;"/>
    <path clip-path="url(#pe49b1796ae)" d="M 200.589322 190.826453 
L 200.589322 190.023713 
" style="fill:none;stroke:#9467bd;stroke-width:1.5;"/>
    <path clip-path="url(#pe49b1796ae)" d="M 200.952362 190.905094 
L 200.952362 190.155593 
" style="fill:none;stroke:#9467bd;stroke-width:1.5;"/>
    <path clip-path="url(#pe49b1796ae)" d="M 207.834995 190.591252 
L 207.834995 189.752495 
" style="fill:none;stroke:#9467bd;stroke-width:1.5;"/>
    <path clip-path="url(#pe49b1796ae)" d="M 208.213161 190.646064 
L 208.213161 189.541026 
" style="fill:none;stroke:#9467bd;stroke-width:1.5;"/>
    <path clip-path="url(#pe49b1796ae)" d="M 215.065541 189.371949 
L 215.065541 188.085781 
" style="fill:none;stroke:#9467bd;stroke-width:1.5;"/>
    <path clip-path="url(#pe49b1796ae)" d="M 215.413454 189.293353 
L 215.413454 187.786836 
" style="fill:none;stroke:#9467bd;stroke-width:1.5;"/>
   </g>
   <g id="LineCollection_6">
    <path clip-path="url(#pe49b1796ae)" d="M 157.735478 189.901965 
L 157.735478 189.408171 
" style="fill:none;stroke:#8c564b;stroke-width:1.5;"/>
    <path clip-path="url(#pe49b1796ae)" d="M 157.432945 189.750156 
L 157.432945 189.195091 
" style="fill:none;stroke:#8c564b;stroke-width:1.5;"/>
    <path clip-path="url(#pe49b1796ae)" d="M 164.330705 189.80956 
L 164.330705 189.355832 
" style="fill:none;stroke:#8c564b;stroke-width:1.5;"/>
    <path clip-path="url(#pe49b1796ae)" d="M 164.678618 189.622583 
L 164.678618 189.036518 
" style="fill:none;stroke:#8c564b;stroke-width:1.5;"/>
    <path clip-path="url(#pe49b1796ae)" d="M 171.530997 189.539949 
L 171.530997 188.959382 
" style="fill:none;stroke:#8c564b;stroke-width:1.5;"/>
    <path clip-path="url(#pe49b1796ae)" d="M 171.833531 189.752436 
L 171.833531 189.130074 
" style="fill:none;stroke:#8c564b;stroke-width:1.5;"/>
    <path clip-path="url(#pe49b1796ae)" d="M 178.82205 189.483109 
L 178.82205 188.950172 
" style="fill:none;stroke:#8c564b;stroke-width:1.5;"/>
    <path clip-path="url(#pe49b1796ae)" d="M 179.13971 189.461482 
L 179.13971 188.889637 
" style="fill:none;stroke:#8c564b;stroke-width:1.5;"/>
    <path clip-path="url(#pe49b1796ae)" d="M 186.052596 189.791295 
L 186.052596 189.196193 
" style="fill:none;stroke:#8c564b;stroke-width:1.5;"/>
    <path clip-path="url(#pe49b1796ae)" d="M 186.415636 190.002207 
L 186.415636 189.498072 
" style="fill:none;stroke:#8c564b;stroke-width:1.5;"/>
   </g>
   <g id="LineCollection_7">
    <path clip-path="url(#pe49b1796ae)" d="M 121.219708 190.715102 
L 121.219708 189.552291 
" style="fill:none;stroke:#e377c2;stroke-width:1.5;"/>
    <path clip-path="url(#pe49b1796ae)" d="M 135.40852 190.147877 
L 135.40852 189.123958 
" style="fill:none;stroke:#e377c2;stroke-width:1.5;"/>
   </g>
   <g id="LineCollection_8">
    <path clip-path="url(#pe49b1796ae)" d="M 150.111639 189.405703 
L 150.111639 187.842374 
" style="fill:none;stroke:#7f7f7f;stroke-width:1.5;"/>
    <path clip-path="url(#pe49b1796ae)" d="M 150.262906 190.239796 
L 150.262906 189.037049 
" style="fill:none;stroke:#7f7f7f;stroke-width:1.5;"/>
    <path clip-path="url(#pe49b1796ae)" d="M 164.239945 189.842605 
L 164.239945 188.324214 
" style="fill:none;stroke:#7f7f7f;stroke-width:1.5;"/>
    <path clip-path="url(#pe49b1796ae)" d="M 164.739125 190.316475 
L 164.739125 188.984611 
" style="fill:none;stroke:#7f7f7f;stroke-width:1.5;"/>
   </g>
   <g id="LineCollection_9">
    <path clip-path="url(#pe49b1796ae)" d="M 49.458807 191.518483 
L 49.458807 190.636985 
" style="fill:none;stroke:#bcbd22;stroke-width:1.5;"/>
    <path clip-path="url(#pe49b1796ae)" d="M 63.133312 191.923331 
L 63.133312 191.061933 
" style="fill:none;stroke:#bcbd22;stroke-width:1.5;"/>
    <path clip-path="url(#pe49b1796ae)" d="M 77.518771 191.598666 
L 77.518771 190.267712 
" style="fill:none;stroke:#bcbd22;stroke-width:1.5;"/>
    <path clip-path="url(#pe49b1796ae)" d="M 91.90423 191.064547 
L 91.90423 190.044801 
" style="fill:none;stroke:#bcbd22;stroke-width:1.5;"/>
    <path clip-path="url(#pe49b1796ae)" d="M 106.335069 190.662155 
L 106.335069 189.43435 
" style="fill:none;stroke:#bcbd22;stroke-width:1.5;"/>
    <path clip-path="url(#pe49b1796ae)" d="M 120.750781 191.121257 
L 120.750781 190.052629 
" style="fill:none;stroke:#bcbd22;stroke-width:1.5;"/>
   </g>
   <g id="LineCollection_10">
    <path clip-path="url(#pe49b1796ae)" d="M 230.298093 181.04854 
L 230.298093 179.859156 
" style="fill:none;stroke:#17becf;stroke-width:1.5;"/>
    <path clip-path="url(#pe49b1796ae)" d="M 223.082673 182.916041 
L 223.082673 181.747316 
" style="fill:none;stroke:#17becf;stroke-width:1.5;"/>
    <path clip-path="url(#pe49b1796ae)" d="M 215.776494 186.162957 
L 215.776494 184.926777 
" style="fill:none;stroke:#17becf;stroke-width:1.5;"/>
    <path clip-path="url(#pe49b1796ae)" d="M 208.561074 187.462791 
L 208.561074 186.467632 
" style="fill:none;stroke:#17becf;stroke-width:1.5;"/>
    <path clip-path="url(#pe49b1796ae)" d="M 201.451542 187.97816 
L 201.451542 186.938308 
" style="fill:none;stroke:#17becf;stroke-width:1.5;"/>
    <path clip-path="url(#pe49b1796ae)" d="M 194.084856 187.533814 
L 194.084856 186.554349 
" style="fill:none;stroke:#17becf;stroke-width:1.5;"/>
    <path clip-path="url(#pe49b1796ae)" d="M 186.839183 187.053394 
L 186.839183 186.111171 
" style="fill:none;stroke:#17becf;stroke-width:1.5;"/>
    <path clip-path="url(#pe49b1796ae)" d="M 179.563257 186.583032 
L 179.563257 185.354045 
" style="fill:none;stroke:#17becf;stroke-width:1.5;"/>
    <path clip-path="url(#pe49b1796ae)" d="M 172.211697 186.820098 
L 172.211697 185.604955 
" style="fill:none;stroke:#17becf;stroke-width:1.5;"/>
    <path clip-path="url(#pe49b1796ae)" d="M 164.981151 187.174492 
L 164.981151 186.159639 
" style="fill:none;stroke:#17becf;stroke-width:1.5;"/>
   </g>
   <g id="line2d_29">
    <defs>
     <path d="M -3 3 
L 3 -3 
M -3 -3 
L 3 3 
" id="m0901e08637" style="stroke:#1f77b4;"/>
    </defs>
    <g clip-path="url(#pe49b1796ae)">
     <use style="fill:#1f77b4;stroke:#1f77b4;" x="266.314683" xlink:href="#m0901e08637" y="179.754411"/>
     <use style="fill:#1f77b4;stroke:#1f77b4;" x="266.390317" xlink:href="#m0901e08637" y="181.261826"/>
     <use style="fill:#1f77b4;stroke:#1f77b4;" x="260.74807" xlink:href="#m0901e08637" y="179.721345"/>
     <use style="fill:#1f77b4;stroke:#1f77b4;" x="260.551424" xlink:href="#m0901e08637" y="179.689869"/>
     <use style="fill:#1f77b4;stroke:#1f77b4;" x="256.346211" xlink:href="#m0901e08637" y="178.709253"/>
     <use style="fill:#1f77b4;stroke:#1f77b4;" x="256.194944" xlink:href="#m0901e08637" y="178.14461"/>
     <use style="fill:#1f77b4;stroke:#1f77b4;" x="251.989731" xlink:href="#m0901e08637" y="178.26681"/>
     <use style="fill:#1f77b4;stroke:#1f77b4;" x="251.838464" xlink:href="#m0901e08637" y="179.193934"/>
     <use style="fill:#1f77b4;stroke:#1f77b4;" x="249.009778" xlink:href="#m0901e08637" y="177.489634"/>
     <use style="fill:#1f77b4;stroke:#1f77b4;" x="248.934145" xlink:href="#m0901e08637" y="174.849556"/>
     <use style="fill:#1f77b4;stroke:#1f77b4;" x="246.120585" xlink:href="#m0901e08637" y="176.706399"/>
     <use style="fill:#1f77b4;stroke:#1f77b4;" x="246.044952" xlink:href="#m0901e08637" y="178.652244"/>
     <use style="fill:#1f77b4;stroke:#1f77b4;" x="243.201138" xlink:href="#m0901e08637" y="177.069804"/>
     <use style="fill:#1f77b4;stroke:#1f77b4;" x="243.110378" xlink:href="#m0901e08637" y="177.065496"/>
     <use style="fill:#1f77b4;stroke:#1f77b4;" x="240.266565" xlink:href="#m0901e08637" y="183.140594"/>
     <use style="fill:#1f77b4;stroke:#1f77b4;" x="240.190932" xlink:href="#m0901e08637" y="180.43509"/>
     <use style="fill:#1f77b4;stroke:#1f77b4;" x="237.347119" xlink:href="#m0901e08637" y="180.67172"/>
     <use style="fill:#1f77b4;stroke:#1f77b4;" x="237.271486" xlink:href="#m0901e08637" y="174.63327"/>
     <use style="fill:#1f77b4;stroke:#1f77b4;" x="233.066273" xlink:href="#m0901e08637" y="179.665543"/>
     <use style="fill:#1f77b4;stroke:#1f77b4;" x="232.915006" xlink:href="#m0901e08637" y="179.300981"/>
     <use style="fill:#1f77b4;stroke:#1f77b4;" x="228.740046" xlink:href="#m0901e08637" y="180.379545"/>
     <use style="fill:#1f77b4;stroke:#1f77b4;" x="228.58878" xlink:href="#m0901e08637" y="180.281196"/>
     <use style="fill:#1f77b4;stroke:#1f77b4;" x="224.41382" xlink:href="#m0901e08637" y="179.876291"/>
     <use style="fill:#1f77b4;stroke:#1f77b4;" x="224.247427" xlink:href="#m0901e08637" y="182.397234"/>
     <use style="fill:#1f77b4;stroke:#1f77b4;" x="220.072467" xlink:href="#m0901e08637" y="180.867804"/>
     <use style="fill:#1f77b4;stroke:#1f77b4;" x="219.890947" xlink:href="#m0901e08637" y="182.918505"/>
     <use style="fill:#1f77b4;stroke:#1f77b4;" x="215.761367" xlink:href="#m0901e08637" y="178.446696"/>
     <use style="fill:#1f77b4;stroke:#1f77b4;" x="215.549594" xlink:href="#m0901e08637" y="183.358083"/>
     <use style="fill:#1f77b4;stroke:#1f77b4;" x="211.359508" xlink:href="#m0901e08637" y="178.416263"/>
     <use style="fill:#1f77b4;stroke:#1f77b4;" x="223.884387" xlink:href="#m0901e08637" y="183.445412"/>
     <use style="fill:#1f77b4;stroke:#1f77b4;" x="224.202047" xlink:href="#m0901e08637" y="184.016049"/>
     <use style="fill:#1f77b4;stroke:#1f77b4;" x="220.042214" xlink:href="#m0901e08637" y="184.611692"/>
     <use style="fill:#1f77b4;stroke:#1f77b4;" x="219.87582" xlink:href="#m0901e08637" y="184.94566"/>
     <use style="fill:#1f77b4;stroke:#1f77b4;" x="215.761367" xlink:href="#m0901e08637" y="187.149852"/>
     <use style="fill:#1f77b4;stroke:#1f77b4;" x="215.534467" xlink:href="#m0901e08637" y="187.194487"/>
     <use style="fill:#1f77b4;stroke:#1f77b4;" x="211.420014" xlink:href="#m0901e08637" y="187.78794"/>
     <use style="fill:#1f77b4;stroke:#1f77b4;" x="211.208241" xlink:href="#m0901e08637" y="188.016822"/>
    </g>
   </g>
   <g id="line2d_30">
    <defs>
     <path d="M -3 3 
L 3 -3 
M -3 -3 
L 3 3 
" id="m8d726e7f12" style="stroke:#ff7f0e;"/>
    </defs>
    <g clip-path="url(#pe49b1796ae)">
     <use style="fill:#ff7f0e;stroke:#ff7f0e;" x="352.718197" xlink:href="#m8d726e7f12" y="194.011752"/>
     <use style="fill:#ff7f0e;stroke:#ff7f0e;" x="346.138097" xlink:href="#m8d726e7f12" y="179.208441"/>
     <use style="fill:#ff7f0e;stroke:#ff7f0e;" x="338.952931" xlink:href="#m8d726e7f12" y="172.863242"/>
     <use style="fill:#ff7f0e;stroke:#ff7f0e;" x="331.722385" xlink:href="#m8d726e7f12" y="202.252223"/>
     <use style="fill:#ff7f0e;stroke:#ff7f0e;" x="324.416205" xlink:href="#m8d726e7f12" y="172.863242"/>
     <use style="fill:#ff7f0e;stroke:#ff7f0e;" x="317.185659" xlink:href="#m8d726e7f12" y="172.863242"/>
     <use style="fill:#ff7f0e;stroke:#ff7f0e;" x="309.92486" xlink:href="#m8d726e7f12" y="172.863242"/>
     <use style="fill:#ff7f0e;stroke:#ff7f0e;" x="302.5733" xlink:href="#m8d726e7f12" y="172.863242"/>
     <use style="fill:#ff7f0e;stroke:#ff7f0e;" x="295.433514" xlink:href="#m8d726e7f12" y="172.693707"/>
     <use style="fill:#ff7f0e;stroke:#ff7f0e;" x="288.233222" xlink:href="#m8d726e7f12" y="175.968324"/>
     <use style="fill:#ff7f0e;stroke:#ff7f0e;" x="281.017802" xlink:href="#m8d726e7f12" y="163.249636"/>
     <use style="fill:#ff7f0e;stroke:#ff7f0e;" x="273.757003" xlink:href="#m8d726e7f12" y="180.425396"/>
     <use style="fill:#ff7f0e;stroke:#ff7f0e;" x="266.677723" xlink:href="#m8d726e7f12" y="184.225101"/>
     <use style="fill:#ff7f0e;stroke:#ff7f0e;" x="266.28443" xlink:href="#m8d726e7f12" y="181.509759"/>
     <use style="fill:#ff7f0e;stroke:#ff7f0e;" x="259.280784" xlink:href="#m8d726e7f12" y="180.145946"/>
     <use style="fill:#ff7f0e;stroke:#ff7f0e;" x="252.035111" xlink:href="#m8d726e7f12" y="178.646445"/>
     <use style="fill:#ff7f0e;stroke:#ff7f0e;" x="244.849945" xlink:href="#m8d726e7f12" y="180.795096"/>
     <use style="fill:#ff7f0e;stroke:#ff7f0e;" x="237.513512" xlink:href="#m8d726e7f12" y="180.586714"/>
    </g>
   </g>
   <g id="line2d_31">
    <defs>
     <path d="M -3 3 
L 3 -3 
M -3 -3 
L 3 3 
" id="m18e42cd6fc" style="stroke:#2ca02c;"/>
    </defs>
    <g clip-path="url(#pe49b1796ae)">
     <use style="fill:#2ca02c;stroke:#2ca02c;" x="353.822443" xlink:href="#m18e42cd6fc" y="179.383243"/>
     <use style="fill:#2ca02c;stroke:#2ca02c;" x="281.759009" xlink:href="#m18e42cd6fc" y="125.932153"/>
     <use style="fill:#2ca02c;stroke:#2ca02c;" x="274.528463" xlink:href="#m18e42cd6fc" y="186.412766"/>
     <use style="fill:#2ca02c;stroke:#2ca02c;" x="267.388677" xlink:href="#m18e42cd6fc" y="181.683913"/>
     <use style="fill:#2ca02c;stroke:#2ca02c;" x="259.93123" xlink:href="#m18e42cd6fc" y="184.781247"/>
     <use style="fill:#2ca02c;stroke:#2ca02c;" x="252.715811" xlink:href="#m18e42cd6fc" y="177.433583"/>
     <use style="fill:#2ca02c;stroke:#2ca02c;" x="245.424758" xlink:href="#m18e42cd6fc" y="159.138068"/>
     <use style="fill:#2ca02c;stroke:#2ca02c;" x="238.088326" xlink:href="#m18e42cd6fc" y="160.601007"/>
    </g>
   </g>
   <g id="line2d_32">
    <defs>
     <path d="M -3 3 
L 3 -3 
M -3 -3 
L 3 3 
" id="m8f330ff53a" style="stroke:#d62728;"/>
    </defs>
    <g clip-path="url(#pe49b1796ae)">
     <use style="fill:#d62728;stroke:#d62728;" x="106.970389" xlink:href="#m8f330ff53a" y="190.76404"/>
     <use style="fill:#d62728;stroke:#d62728;" x="106.773742" xlink:href="#m8f330ff53a" y="190.570182"/>
     <use style="fill:#d62728;stroke:#d62728;" x="120.841541" xlink:href="#m8f330ff53a" y="190.243505"/>
     <use style="fill:#d62728;stroke:#d62728;" x="121.204581" xlink:href="#m8f330ff53a" y="190.366736"/>
     <use style="fill:#d62728;stroke:#d62728;" x="135.332887" xlink:href="#m8f330ff53a" y="190.033519"/>
     <use style="fill:#d62728;stroke:#d62728;" x="135.711053" xlink:href="#m8f330ff53a" y="190.021856"/>
     <use style="fill:#d62728;stroke:#d62728;" x="149.793979" xlink:href="#m8f330ff53a" y="189.654641"/>
     <use style="fill:#d62728;stroke:#d62728;" x="150.172146" xlink:href="#m8f330ff53a" y="189.612038"/>
     <use style="fill:#d62728;stroke:#d62728;" x="164.376085" xlink:href="#m8f330ff53a" y="189.222156"/>
     <use style="fill:#d62728;stroke:#d62728;" x="164.663491" xlink:href="#m8f330ff53a" y="189.358786"/>
     <use style="fill:#d62728;stroke:#d62728;" x="178.761543" xlink:href="#m8f330ff53a" y="189.634224"/>
     <use style="fill:#d62728;stroke:#d62728;" x="179.154837" xlink:href="#m8f330ff53a" y="189.457437"/>
     <use style="fill:#d62728;stroke:#d62728;" x="193.358776" xlink:href="#m8f330ff53a" y="190.320244"/>
     <use style="fill:#d62728;stroke:#d62728;" x="193.676436" xlink:href="#m8f330ff53a" y="190.497806"/>
    </g>
   </g>
   <g id="line2d_33">
    <defs>
     <path d="M -3 3 
L 3 -3 
M -3 -3 
L 3 3 
" id="mb9d6f82686" style="stroke:#9467bd;"/>
    </defs>
    <g clip-path="url(#pe49b1796ae)">
     <use style="fill:#9467bd;stroke:#9467bd;" x="157.705225" xlink:href="#mb9d6f82686" y="189.622506"/>
     <use style="fill:#9467bd;stroke:#9467bd;" x="157.463198" xlink:href="#mb9d6f82686" y="189.597249"/>
     <use style="fill:#9467bd;stroke:#9467bd;" x="164.330705" xlink:href="#mb9d6f82686" y="189.331384"/>
     <use style="fill:#9467bd;stroke:#9467bd;" x="164.678618" xlink:href="#mb9d6f82686" y="189.508402"/>
     <use style="fill:#9467bd;stroke:#9467bd;" x="171.470491" xlink:href="#mb9d6f82686" y="189.1928"/>
     <use style="fill:#9467bd;stroke:#9467bd;" x="171.863784" xlink:href="#mb9d6f82686" y="189.264946"/>
     <use style="fill:#9467bd;stroke:#9467bd;" x="178.837177" xlink:href="#mb9d6f82686" y="189.259491"/>
     <use style="fill:#9467bd;stroke:#9467bd;" x="179.169963" xlink:href="#mb9d6f82686" y="189.348184"/>
     <use style="fill:#9467bd;stroke:#9467bd;" x="186.067723" xlink:href="#mb9d6f82686" y="189.607936"/>
     <use style="fill:#9467bd;stroke:#9467bd;" x="186.430763" xlink:href="#mb9d6f82686" y="189.503729"/>
     <use style="fill:#9467bd;stroke:#9467bd;" x="193.313396" xlink:href="#mb9d6f82686" y="189.994831"/>
     <use style="fill:#9467bd;stroke:#9467bd;" x="193.691562" xlink:href="#mb9d6f82686" y="190.051294"/>
     <use style="fill:#9467bd;stroke:#9467bd;" x="200.589322" xlink:href="#mb9d6f82686" y="190.425083"/>
     <use style="fill:#9467bd;stroke:#9467bd;" x="200.952362" xlink:href="#mb9d6f82686" y="190.530343"/>
     <use style="fill:#9467bd;stroke:#9467bd;" x="207.834995" xlink:href="#mb9d6f82686" y="190.171874"/>
     <use style="fill:#9467bd;stroke:#9467bd;" x="208.213161" xlink:href="#mb9d6f82686" y="190.093545"/>
     <use style="fill:#9467bd;stroke:#9467bd;" x="215.065541" xlink:href="#mb9d6f82686" y="188.728865"/>
     <use style="fill:#9467bd;stroke:#9467bd;" x="215.413454" xlink:href="#mb9d6f82686" y="188.540094"/>
    </g>
   </g>
   <g id="line2d_34">
    <defs>
     <path d="M -3 3 
L 3 -3 
M -3 -3 
L 3 3 
" id="maada5715ff" style="stroke:#8c564b;"/>
    </defs>
    <g clip-path="url(#pe49b1796ae)">
     <use style="fill:#8c564b;stroke:#8c564b;" x="157.735478" xlink:href="#maada5715ff" y="189.655068"/>
     <use style="fill:#8c564b;stroke:#8c564b;" x="157.432945" xlink:href="#maada5715ff" y="189.472623"/>
     <use style="fill:#8c564b;stroke:#8c564b;" x="164.330705" xlink:href="#maada5715ff" y="189.582696"/>
     <use style="fill:#8c564b;stroke:#8c564b;" x="164.678618" xlink:href="#maada5715ff" y="189.32955"/>
     <use style="fill:#8c564b;stroke:#8c564b;" x="171.530997" xlink:href="#maada5715ff" y="189.249666"/>
     <use style="fill:#8c564b;stroke:#8c564b;" x="171.833531" xlink:href="#maada5715ff" y="189.441255"/>
     <use style="fill:#8c564b;stroke:#8c564b;" x="178.82205" xlink:href="#maada5715ff" y="189.21664"/>
     <use style="fill:#8c564b;stroke:#8c564b;" x="179.13971" xlink:href="#maada5715ff" y="189.175559"/>
     <use style="fill:#8c564b;stroke:#8c564b;" x="186.052596" xlink:href="#maada5715ff" y="189.493744"/>
     <use style="fill:#8c564b;stroke:#8c564b;" x="186.415636" xlink:href="#maada5715ff" y="189.750139"/>
    </g>
   </g>
   <g id="line2d_35">
    <defs>
     <path d="M -3 3 
L 3 -3 
M -3 -3 
L 3 3 
" id="m1484fbbf4d" style="stroke:#e377c2;"/>
    </defs>
    <g clip-path="url(#pe49b1796ae)">
     <use style="fill:#e377c2;stroke:#e377c2;" x="121.219708" xlink:href="#m1484fbbf4d" y="190.133697"/>
     <use style="fill:#e377c2;stroke:#e377c2;" x="135.40852" xlink:href="#m1484fbbf4d" y="189.635918"/>
    </g>
   </g>
   <g id="line2d_36">
    <defs>
     <path d="M -3 3 
L 3 -3 
M -3 -3 
L 3 3 
" id="m2cb64e7a75" style="stroke:#7f7f7f;"/>
    </defs>
    <g clip-path="url(#pe49b1796ae)">
     <use style="fill:#7f7f7f;stroke:#7f7f7f;" x="150.111639" xlink:href="#m2cb64e7a75" y="188.624039"/>
     <use style="fill:#7f7f7f;stroke:#7f7f7f;" x="150.262906" xlink:href="#m2cb64e7a75" y="189.638423"/>
     <use style="fill:#7f7f7f;stroke:#7f7f7f;" x="164.239945" xlink:href="#m2cb64e7a75" y="189.08341"/>
     <use style="fill:#7f7f7f;stroke:#7f7f7f;" x="164.739125" xlink:href="#m2cb64e7a75" y="189.650543"/>
    </g>
   </g>
   <g id="line2d_37">
    <defs>
     <path d="M -3 3 
L 3 -3 
M -3 -3 
L 3 3 
" id="m122e245b61" style="stroke:#bcbd22;"/>
    </defs>
    <g clip-path="url(#pe49b1796ae)">
     <use style="fill:#bcbd22;stroke:#bcbd22;" x="49.458807" xlink:href="#m122e245b61" y="191.077734"/>
     <use style="fill:#bcbd22;stroke:#bcbd22;" x="63.133312" xlink:href="#m122e245b61" y="191.492632"/>
     <use style="fill:#bcbd22;stroke:#bcbd22;" x="77.518771" xlink:href="#m122e245b61" y="190.933189"/>
     <use style="fill:#bcbd22;stroke:#bcbd22;" x="91.90423" xlink:href="#m122e245b61" y="190.554674"/>
     <use style="fill:#bcbd22;stroke:#bcbd22;" x="106.335069" xlink:href="#m122e245b61" y="190.048253"/>
     <use style="fill:#bcbd22;stroke:#bcbd22;" x="120.750781" xlink:href="#m122e245b61" y="190.586943"/>
    </g>
   </g>
   <g id="line2d_38">
    <defs>
     <path d="M -3 3 
L 3 -3 
M -3 -3 
L 3 3 
" id="m11040e104e" style="stroke:#17becf;"/>
    </defs>
    <g clip-path="url(#pe49b1796ae)">
     <use style="fill:#17becf;stroke:#17becf;" x="230.298093" xlink:href="#m11040e104e" y="180.453848"/>
     <use style="fill:#17becf;stroke:#17becf;" x="223.082673" xlink:href="#m11040e104e" y="182.331679"/>
     <use style="fill:#17becf;stroke:#17becf;" x="215.776494" xlink:href="#m11040e104e" y="185.544867"/>
     <use style="fill:#17becf;stroke:#17becf;" x="208.561074" xlink:href="#m11040e104e" y="186.965212"/>
     <use style="fill:#17becf;stroke:#17becf;" x="201.451542" xlink:href="#m11040e104e" y="187.458234"/>
     <use style="fill:#17becf;stroke:#17becf;" x="194.084856" xlink:href="#m11040e104e" y="187.044081"/>
     <use style="fill:#17becf;stroke:#17becf;" x="186.839183" xlink:href="#m11040e104e" y="186.582283"/>
     <use style="fill:#17becf;stroke:#17becf;" x="179.563257" xlink:href="#m11040e104e" y="185.968539"/>
     <use style="fill:#17becf;stroke:#17becf;" x="172.211697" xlink:href="#m11040e104e" y="186.212527"/>
     <use style="fill:#17becf;stroke:#17becf;" x="164.981151" xlink:href="#m11040e104e" y="186.667065"/>
    </g>
   </g>
   <g id="patch_3">
    <path d="M 34.240625 239.76 
L 34.240625 22.32 
" style="fill:none;stroke:#000000;stroke-linecap:square;stroke-linejoin:miter;stroke-width:0.8;"/>
   </g>
   <g id="patch_4">
    <path d="M 369.040625 239.76 
L 369.040625 22.32 
" style="fill:none;stroke:#000000;stroke-linecap:square;stroke-linejoin:miter;stroke-width:0.8;"/>
   </g>
   <g id="patch_5">
    <path d="M 34.240625 239.76 
L 369.040625 239.76 
" style="fill:none;stroke:#000000;stroke-linecap:square;stroke-linejoin:miter;stroke-width:0.8;"/>
   </g>
   <g id="patch_6">
    <path d="M 34.240625 22.32 
L 369.040625 22.32 
" style="fill:none;stroke:#000000;stroke-linecap:square;stroke-linejoin:miter;stroke-width:0.8;"/>
   </g>
   <g id="text_17">
    <!-- CRN $T_1$ vgl. mit Zrn Daten -->
    <defs>
     <path d="M 64.40625 67.28125 
L 64.40625 56.890625 
Q 59.421875 61.53125 53.78125 63.8125 
Q 48.140625 66.109375 41.796875 66.109375 
Q 29.296875 66.109375 22.65625 58.46875 
Q 16.015625 50.828125 16.015625 36.375 
Q 16.015625 21.96875 22.65625 14.328125 
Q 29.296875 6.6875 41.796875 6.6875 
Q 48.140625 6.6875 53.78125 8.984375 
Q 59.421875 11.28125 64.40625 15.921875 
L 64.40625 5.609375 
Q 59.234375 2.09375 53.4375 0.328125 
Q 47.65625 -1.421875 41.21875 -1.421875 
Q 24.65625 -1.421875 15.125 8.703125 
Q 5.609375 18.84375 5.609375 36.375 
Q 5.609375 53.953125 15.125 64.078125 
Q 24.65625 74.21875 41.21875 74.21875 
Q 47.75 74.21875 53.53125 72.484375 
Q 59.328125 70.75 64.40625 67.28125 
z
" id="DejaVuSans-43"/>
     <path d="M 44.390625 34.1875 
Q 47.5625 33.109375 50.5625 29.59375 
Q 53.5625 26.078125 56.59375 19.921875 
L 66.609375 0 
L 56 0 
L 46.6875 18.703125 
Q 43.0625 26.03125 39.671875 28.421875 
Q 36.28125 30.8125 30.421875 30.8125 
L 19.671875 30.8125 
L 19.671875 0 
L 9.8125 0 
L 9.8125 72.90625 
L 32.078125 72.90625 
Q 44.578125 72.90625 50.734375 67.671875 
Q 56.890625 62.453125 56.890625 51.90625 
Q 56.890625 45.015625 53.6875 40.46875 
Q 50.484375 35.9375 44.390625 34.1875 
z
M 19.671875 64.796875 
L 19.671875 38.921875 
L 32.078125 38.921875 
Q 39.203125 38.921875 42.84375 42.21875 
Q 46.484375 45.515625 46.484375 51.90625 
Q 46.484375 58.296875 42.84375 61.546875 
Q 39.203125 64.796875 32.078125 64.796875 
z
" id="DejaVuSans-52"/>
     <path d="M 9.8125 72.90625 
L 23.09375 72.90625 
L 55.421875 11.921875 
L 55.421875 72.90625 
L 64.984375 72.90625 
L 64.984375 0 
L 51.703125 0 
L 19.390625 60.984375 
L 19.390625 0 
L 9.8125 0 
z
" id="DejaVuSans-4e"/>
     <path d="M 2.984375 54.6875 
L 12.5 54.6875 
L 29.59375 8.796875 
L 46.6875 54.6875 
L 56.203125 54.6875 
L 35.6875 0 
L 23.484375 0 
z
" id="DejaVuSans-76"/>
     <path d="M 45.40625 27.984375 
Q 45.40625 37.75 41.375 43.109375 
Q 37.359375 48.484375 30.078125 48.484375 
Q 22.859375 48.484375 18.828125 43.109375 
Q 14.796875 37.75 14.796875 27.984375 
Q 14.796875 18.265625 18.828125 12.890625 
Q 22.859375 7.515625 30.078125 7.515625 
Q 37.359375 7.515625 41.375 12.890625 
Q 45.40625 18.265625 45.40625 27.984375 
z
M 54.390625 6.78125 
Q 54.390625 -7.171875 48.1875 -13.984375 
Q 42 -20.796875 29.203125 -20.796875 
Q 24.46875 -20.796875 20.265625 -20.09375 
Q 16.0625 -19.390625 12.109375 -17.921875 
L 12.109375 -9.1875 
Q 16.0625 -11.328125 19.921875 -12.34375 
Q 23.78125 -13.375 27.78125 -13.375 
Q 36.625 -13.375 41.015625 -8.765625 
Q 45.40625 -4.15625 45.40625 5.171875 
L 45.40625 9.625 
Q 42.625 4.78125 38.28125 2.390625 
Q 33.9375 0 27.875 0 
Q 17.828125 0 11.671875 7.65625 
Q 5.515625 15.328125 5.515625 27.984375 
Q 5.515625 40.671875 11.671875 48.328125 
Q 17.828125 56 27.875 56 
Q 33.9375 56 38.28125 53.609375 
Q 42.625 51.21875 45.40625 46.390625 
L 45.40625 54.6875 
L 54.390625 54.6875 
z
" id="DejaVuSans-67"/>
     <path d="M 9.421875 75.984375 
L 18.40625 75.984375 
L 18.40625 0 
L 9.421875 0 
z
" id="DejaVuSans-6c"/>
     <path d="M 10.6875 12.40625 
L 21 12.40625 
L 21 0 
L 10.6875 0 
z
" id="DejaVuSans-2e"/>
     <path d="M 9.421875 54.6875 
L 18.40625 54.6875 
L 18.40625 0 
L 9.421875 0 
z
M 9.421875 75.984375 
L 18.40625 75.984375 
L 18.40625 64.59375 
L 9.421875 64.59375 
z
" id="DejaVuSans-69"/>
     <path d="M 5.609375 72.90625 
L 62.890625 72.90625 
L 62.890625 65.375 
L 16.796875 8.296875 
L 64.015625 8.296875 
L 64.015625 0 
L 4.5 0 
L 4.5 7.515625 
L 50.59375 64.59375 
L 5.609375 64.59375 
z
" id="DejaVuSans-5a"/>
     <path d="M 8.5 21.578125 
L 8.5 54.6875 
L 17.484375 54.6875 
L 17.484375 21.921875 
Q 17.484375 14.15625 20.5 10.265625 
Q 23.53125 6.390625 29.59375 6.390625 
Q 36.859375 6.390625 41.078125 11.03125 
Q 45.3125 15.671875 45.3125 23.6875 
L 45.3125 54.6875 
L 54.296875 54.6875 
L 54.296875 0 
L 45.3125 0 
L 45.3125 8.40625 
Q 42.046875 3.421875 37.71875 1 
Q 33.40625 -1.421875 27.6875 -1.421875 
Q 18.265625 -1.421875 13.375 4.4375 
Q 8.5 10.296875 8.5 21.578125 
z
M 31.109375 56 
z
M 35.59375 75.78125 
L 45.5 75.78125 
L 45.5 65.921875 
L 35.59375 65.921875 
z
M 16.5 75.78125 
L 26.40625 75.78125 
L 26.40625 65.921875 
L 16.5 65.921875 
z
" id="DejaVuSans-fc"/>
     <path d="M 54.890625 33.015625 
L 54.890625 0 
L 45.90625 0 
L 45.90625 32.71875 
Q 45.90625 40.484375 42.875 44.328125 
Q 39.84375 48.1875 33.796875 48.1875 
Q 26.515625 48.1875 22.3125 43.546875 
Q 18.109375 38.921875 18.109375 30.90625 
L 18.109375 0 
L 9.078125 0 
L 9.078125 54.6875 
L 18.109375 54.6875 
L 18.109375 46.1875 
Q 21.34375 51.125 25.703125 53.5625 
Q 30.078125 56 35.796875 56 
Q 45.21875 56 50.046875 50.171875 
Q 54.890625 44.34375 54.890625 33.015625 
z
" id="DejaVuSans-6e"/>
     <path d="M 19.671875 64.796875 
L 19.671875 8.109375 
L 31.59375 8.109375 
Q 46.6875 8.109375 53.6875 14.9375 
Q 60.6875 21.78125 60.6875 36.53125 
Q 60.6875 51.171875 53.6875 57.984375 
Q 46.6875 64.796875 31.59375 64.796875 
z
M 9.8125 72.90625 
L 30.078125 72.90625 
Q 51.265625 72.90625 61.171875 64.09375 
Q 71.09375 55.28125 71.09375 36.53125 
Q 71.09375 17.671875 61.125 8.828125 
Q 51.171875 0 30.078125 0 
L 9.8125 0 
z
" id="DejaVuSans-44"/>
    </defs>
    <g transform="translate(119.620625 16.32)scale(0.12 -0.12)">
     <use transform="translate(0 0.015625)" xlink:href="#DejaVuSans-43"/>
     <use transform="translate(69.824219 0.015625)" xlink:href="#DejaVuSans-52"/>
     <use transform="translate(139.306641 0.015625)" xlink:href="#DejaVuSans-4e"/>
     <use transform="translate(214.111328 0.015625)" xlink:href="#DejaVuSans-20"/>
     <use transform="translate(245.898438 0.015625)" xlink:href="#DejaVuSans-Oblique-54"/>
     <use transform="translate(306.982422 -16.390625)scale(0.7)" xlink:href="#DejaVuSans-31"/>
     <use transform="translate(354.25293 0.015625)" xlink:href="#DejaVuSans-20"/>
     <use transform="translate(386.040039 0.015625)" xlink:href="#DejaVuSans-76"/>
     <use transform="translate(445.219727 0.015625)" xlink:href="#DejaVuSans-67"/>
     <use transform="translate(508.696289 0.015625)" xlink:href="#DejaVuSans-6c"/>
     <use transform="translate(536.479492 0.015625)" xlink:href="#DejaVuSans-2e"/>
     <use transform="translate(568.266602 0.015625)" xlink:href="#DejaVuSans-20"/>
     <use transform="translate(600.053711 0.015625)" xlink:href="#DejaVuSans-6d"/>
     <use transform="translate(697.46582 0.015625)" xlink:href="#DejaVuSans-69"/>
     <use transform="translate(725.249023 0.015625)" xlink:href="#DejaVuSans-74"/>
     <use transform="translate(764.458008 0.015625)" xlink:href="#DejaVuSans-20"/>
     <use transform="translate(796.245117 0.015625)" xlink:href="#DejaVuSans-5a"/>
     <use transform="translate(864.750977 0.015625)" xlink:href="#DejaVuSans-fc"/>
     <use transform="translate(928.129883 0.015625)" xlink:href="#DejaVuSans-72"/>
     <use transform="translate(969.243164 0.015625)" xlink:href="#DejaVuSans-6e"/>
     <use transform="translate(1032.62207 0.015625)" xlink:href="#DejaVuSans-20"/>
     <use transform="translate(1064.40918 0.015625)" xlink:href="#DejaVuSans-44"/>
     <use transform="translate(1141.411133 0.015625)" xlink:href="#DejaVuSans-61"/>
     <use transform="translate(1202.69043 0.015625)" xlink:href="#DejaVuSans-74"/>
     <use transform="translate(1241.899414 0.015625)" xlink:href="#DejaVuSans-65"/>
     <use transform="translate(1303.422852 0.015625)" xlink:href="#DejaVuSans-6e"/>
    </g>
   </g>
   <g id="legend_1">
    <g id="patch_7">
     <path d="M 358.040625 35.32 
L 362.040625 35.32 
Q 364.040625 35.32 364.040625 33.32 
L 364.040625 29.32 
Q 364.040625 27.32 362.040625 27.32 
L 358.040625 27.32 
Q 356.040625 27.32 356.040625 29.32 
L 356.040625 33.32 
Q 356.040625 35.32 358.040625 35.32 
z
" style="fill:#ffffff;opacity:0.8;stroke:#cccccc;stroke-linejoin:miter;"/>
    </g>
   </g>
  </g>
 </g>
 <defs>
  <clipPath id="pe49b1796ae">
   <rect height="217.44" width="334.8" x="34.240625" y="22.32"/>
  </clipPath>
 </defs>
</svg>
