<?xml version="1.0" encoding="utf-8" standalone="no"?>
<!DOCTYPE svg PUBLIC "-//W3C//DTD SVG 1.1//EN"
  "http://www.w3.org/Graphics/SVG/1.1/DTD/svg11.dtd">
<!-- Created with matplotlib (http://matplotlib.org/) -->
<svg height="325pt" version="1.1" viewBox="0 0 411 325" width="411pt" xmlns="http://www.w3.org/2000/svg" xmlns:xlink="http://www.w3.org/1999/xlink">
 <defs>
  <style type="text/css">
*{stroke-linecap:butt;stroke-linejoin:round;}
  </style>
 </defs>
 <g id="figure_1">
  <g id="patch_1">
   <path d="M 0 325.986375 
L 411.60125 325.986375 
L 411.60125 0 
L 0 0 
z
" style="fill:#ffffff;"/>
  </g>
  <g id="axes_1">
   <g id="patch_2">
    <path d="M 43.78125 288.430125 
L 400.90125 288.430125 
L 400.90125 22.318125 
L 43.78125 22.318125 
z
" style="fill:#ffffff;"/>
   </g>
   <g id="PathCollection_1">
    <defs>
     <path d="M 0 3 
C 0.795609 3 1.55874 2.683901 2.12132 2.12132 
C 2.683901 1.55874 3 0.795609 3 0 
C 3 -0.795609 2.683901 -1.55874 2.12132 -2.12132 
C 1.55874 -2.683901 0.795609 -3 0 -3 
C -0.795609 -3 -1.55874 -2.683901 -2.12132 -2.12132 
C -2.683901 -1.55874 -3 -0.795609 -3 0 
C -3 0.795609 -2.683901 1.55874 -2.12132 2.12132 
C -1.55874 2.683901 -0.795609 3 0 3 
z
" id="ma5e8056d46" style="stroke:#1f77b4;"/>
    </defs>
    <g clip-path="url(#ped17fc9a66)">
     <use style="fill:#1f77b4;stroke:#1f77b4;" x="79.070253" xlink:href="#ma5e8056d46" y="270.689325"/>
     <use style="fill:#1f77b4;stroke:#1f77b4;" x="103.078321" xlink:href="#ma5e8056d46" y="271.689974"/>
     <use style="fill:#1f77b4;stroke:#1f77b4;" x="127.460882" xlink:href="#ma5e8056d46" y="273.757736"/>
     <use style="fill:#1f77b4;stroke:#1f77b4;" x="151.468951" xlink:href="#ma5e8056d46" y="271.070866"/>
     <use style="fill:#1f77b4;stroke:#1f77b4;" x="175.207685" xlink:href="#ma5e8056d46" y="269.374071"/>
     <use style="fill:#1f77b4;stroke:#1f77b4;" x="199.377539" xlink:href="#ma5e8056d46" y="269.139233"/>
     <use style="fill:#1f77b4;stroke:#1f77b4;" x="223.33713" xlink:href="#ma5e8056d46" y="265.295743"/>
     <use style="fill:#1f77b4;stroke:#1f77b4;" x="247.403365" xlink:href="#ma5e8056d46" y="260.431755"/>
     <use style="fill:#1f77b4;stroke:#1f77b4;" x="271.498548" xlink:href="#ma5e8056d46" y="250.430401"/>
     <use style="fill:#1f77b4;stroke:#1f77b4;" x="295.506617" xlink:href="#ma5e8056d46" y="235.012251"/>
     <use style="fill:#1f77b4;stroke:#1f77b4;" x="309.980988" xlink:href="#ma5e8056d46" y="216.32463"/>
     <use style="fill:#1f77b4;stroke:#1f77b4;" x="324.470237" xlink:href="#ma5e8056d46" y="194.020731"/>
     <use style="fill:#1f77b4;stroke:#1f77b4;" x="338.945454" xlink:href="#ma5e8056d46" y="107.769652"/>
    </g>
   </g>
   <g id="PathCollection_2">
    <defs>
     <path d="M 0 3 
C 0.795609 3 1.55874 2.683901 2.12132 2.12132 
C 2.683901 1.55874 3 0.795609 3 0 
C 3 -0.795609 2.683901 -1.55874 2.12132 -2.12132 
C 1.55874 -2.683901 0.795609 -3 0 -3 
C -0.795609 -3 -1.55874 -2.683901 -2.12132 -2.12132 
C -2.683901 -1.55874 -3 -0.795609 -3 0 
C -3 0.795609 -2.683901 1.55874 -2.12132 2.12132 
C -1.55874 2.683901 -0.795609 3 0 3 
z
" id="m488d46bd8e" style="stroke:#ff7f0e;"/>
    </defs>
    <g clip-path="url(#ped17fc9a66)">
     <use style="fill:#ff7f0e;stroke:#ff7f0e;" x="79.070253" xlink:href="#m488d46bd8e" y="270.689325"/>
     <use style="fill:#ff7f0e;stroke:#ff7f0e;" x="103.078321" xlink:href="#m488d46bd8e" y="271.565361"/>
     <use style="fill:#ff7f0e;stroke:#ff7f0e;" x="127.460882" xlink:href="#m488d46bd8e" y="273.686909"/>
     <use style="fill:#ff7f0e;stroke:#ff7f0e;" x="151.468951" xlink:href="#m488d46bd8e" y="270.533935"/>
     <use style="fill:#ff7f0e;stroke:#ff7f0e;" x="175.207685" xlink:href="#m488d46bd8e" y="271.288957"/>
     <use style="fill:#ff7f0e;stroke:#ff7f0e;" x="199.377539" xlink:href="#m488d46bd8e" y="268.832261"/>
     <use style="fill:#ff7f0e;stroke:#ff7f0e;" x="223.33713" xlink:href="#m488d46bd8e" y="265.3076"/>
     <use style="fill:#ff7f0e;stroke:#ff7f0e;" x="247.403365" xlink:href="#m488d46bd8e" y="256.354804"/>
     <use style="fill:#ff7f0e;stroke:#ff7f0e;" x="271.498548" xlink:href="#m488d46bd8e" y="246.257866"/>
     <use style="fill:#ff7f0e;stroke:#ff7f0e;" x="295.506617" xlink:href="#m488d46bd8e" y="232.19142"/>
     <use style="fill:#ff7f0e;stroke:#ff7f0e;" x="309.980988" xlink:href="#m488d46bd8e" y="205.445228"/>
     <use style="fill:#ff7f0e;stroke:#ff7f0e;" x="324.470237" xlink:href="#m488d46bd8e" y="153.171238"/>
     <use style="fill:#ff7f0e;stroke:#ff7f0e;" x="338.945454" xlink:href="#m488d46bd8e" y="122.375147"/>
     <use style="fill:#ff7f0e;stroke:#ff7f0e;" x="353.426038" xlink:href="#m488d46bd8e" y="53.643647"/>
    </g>
   </g>
   <g id="PathCollection_3">
    <defs>
     <path d="M 0 3 
C 0.795609 3 1.55874 2.683901 2.12132 2.12132 
C 2.683901 1.55874 3 0.795609 3 0 
C 3 -0.795609 2.683901 -1.55874 2.12132 -2.12132 
C 1.55874 -2.683901 0.795609 -3 0 -3 
C -0.795609 -3 -1.55874 -2.683901 -2.12132 -2.12132 
C -2.683901 -1.55874 -3 -0.795609 -3 0 
C -3 0.795609 -2.683901 1.55874 -2.12132 2.12132 
C -1.55874 2.683901 -0.795609 3 0 3 
z
" id="m245b2bc852" style="stroke:#2ca02c;"/>
    </defs>
    <g clip-path="url(#ped17fc9a66)">
     <use style="fill:#2ca02c;stroke:#2ca02c;" x="79.070253" xlink:href="#m245b2bc852" y="270.689325"/>
     <use style="fill:#2ca02c;stroke:#2ca02c;" x="103.078321" xlink:href="#m245b2bc852" y="269.32077"/>
     <use style="fill:#2ca02c;stroke:#2ca02c;" x="127.460882" xlink:href="#m245b2bc852" y="270.034012"/>
     <use style="fill:#2ca02c;stroke:#2ca02c;" x="151.468951" xlink:href="#m245b2bc852" y="269.883121"/>
     <use style="fill:#2ca02c;stroke:#2ca02c;" x="175.207685" xlink:href="#m245b2bc852" y="267.945582"/>
     <use style="fill:#2ca02c;stroke:#2ca02c;" x="199.377539" xlink:href="#m245b2bc852" y="265.169087"/>
     <use style="fill:#2ca02c;stroke:#2ca02c;" x="223.33713" xlink:href="#m245b2bc852" y="259.48147"/>
     <use style="fill:#2ca02c;stroke:#2ca02c;" x="247.403365" xlink:href="#m245b2bc852" y="251.576446"/>
     <use style="fill:#2ca02c;stroke:#2ca02c;" x="271.498548" xlink:href="#m245b2bc852" y="239.190239"/>
     <use style="fill:#2ca02c;stroke:#2ca02c;" x="295.506617" xlink:href="#m245b2bc852" y="208.866161"/>
     <use style="fill:#2ca02c;stroke:#2ca02c;" x="309.980988" xlink:href="#m245b2bc852" y="200.009257"/>
     <use style="fill:#2ca02c;stroke:#2ca02c;" x="324.470237" xlink:href="#m245b2bc852" y="147.819865"/>
     <use style="fill:#2ca02c;stroke:#2ca02c;" x="338.945454" xlink:href="#m245b2bc852" y="97.98699"/>
    </g>
   </g>
   <g id="PathCollection_4">
    <defs>
     <path d="M 0 3 
C 0.795609 3 1.55874 2.683901 2.12132 2.12132 
C 2.683901 1.55874 3 0.795609 3 0 
C 3 -0.795609 2.683901 -1.55874 2.12132 -2.12132 
C 1.55874 -2.683901 0.795609 -3 0 -3 
C -0.795609 -3 -1.55874 -2.683901 -2.12132 -2.12132 
C -2.683901 -1.55874 -3 -0.795609 -3 0 
C -3 0.795609 -2.683901 1.55874 -2.12132 2.12132 
C -1.55874 2.683901 -0.795609 3 0 3 
z
" id="mfc9c73ff45" style="stroke:#d62728;"/>
    </defs>
    <g clip-path="url(#ped17fc9a66)">
     <use style="fill:#d62728;stroke:#d62728;" x="79.070253" xlink:href="#mfc9c73ff45" y="270.689325"/>
     <use style="fill:#d62728;stroke:#d62728;" x="103.078321" xlink:href="#mfc9c73ff45" y="272.300074"/>
     <use style="fill:#d62728;stroke:#d62728;" x="127.460882" xlink:href="#mfc9c73ff45" y="271.954869"/>
     <use style="fill:#d62728;stroke:#d62728;" x="151.468951" xlink:href="#mfc9c73ff45" y="269.452252"/>
     <use style="fill:#d62728;stroke:#d62728;" x="175.207685" xlink:href="#mfc9c73ff45" y="271.254014"/>
     <use style="fill:#d62728;stroke:#d62728;" x="199.377539" xlink:href="#mfc9c73ff45" y="265.673633"/>
     <use style="fill:#d62728;stroke:#d62728;" x="223.33713" xlink:href="#mfc9c73ff45" y="260.148653"/>
     <use style="fill:#d62728;stroke:#d62728;" x="247.403365" xlink:href="#mfc9c73ff45" y="250.117049"/>
     <use style="fill:#d62728;stroke:#d62728;" x="271.498548" xlink:href="#mfc9c73ff45" y="234.32975"/>
     <use style="fill:#d62728;stroke:#d62728;" x="295.506617" xlink:href="#mfc9c73ff45" y="214.023429"/>
     <use style="fill:#d62728;stroke:#d62728;" x="309.980988" xlink:href="#mfc9c73ff45" y="180.842461"/>
     <use style="fill:#d62728;stroke:#d62728;" x="324.470237" xlink:href="#mfc9c73ff45" y="126.136922"/>
     <use style="fill:#d62728;stroke:#d62728;" x="338.945454" xlink:href="#mfc9c73ff45" y="135.692489"/>
     <use style="fill:#d62728;stroke:#d62728;" x="353.426038" xlink:href="#mfc9c73ff45" y="90.258419"/>
    </g>
   </g>
   <g id="PathCollection_5">
    <defs>
     <path d="M 0 3 
C 0.795609 3 1.55874 2.683901 2.12132 2.12132 
C 2.683901 1.55874 3 0.795609 3 0 
C 3 -0.795609 2.683901 -1.55874 2.12132 -2.12132 
C 1.55874 -2.683901 0.795609 -3 0 -3 
C -0.795609 -3 -1.55874 -2.683901 -2.12132 -2.12132 
C -2.683901 -1.55874 -3 -0.795609 -3 0 
C -3 0.795609 -2.683901 1.55874 -2.12132 2.12132 
C -1.55874 2.683901 -0.795609 3 0 3 
z
" id="m0321cd527e" style="stroke:#9467bd;"/>
    </defs>
    <g clip-path="url(#ped17fc9a66)">
     <use style="fill:#9467bd;stroke:#9467bd;" x="79.070253" xlink:href="#m0321cd527e" y="270.689325"/>
     <use style="fill:#9467bd;stroke:#9467bd;" x="103.078321" xlink:href="#m0321cd527e" y="272.195965"/>
     <use style="fill:#9467bd;stroke:#9467bd;" x="127.460882" xlink:href="#m0321cd527e" y="271.983427"/>
     <use style="fill:#9467bd;stroke:#9467bd;" x="151.468951" xlink:href="#m0321cd527e" y="270.879743"/>
     <use style="fill:#9467bd;stroke:#9467bd;" x="175.207685" xlink:href="#m0321cd527e" y="267.954042"/>
     <use style="fill:#9467bd;stroke:#9467bd;" x="199.377539" xlink:href="#m0321cd527e" y="263.020635"/>
     <use style="fill:#9467bd;stroke:#9467bd;" x="223.33713" xlink:href="#m0321cd527e" y="253.761565"/>
     <use style="fill:#9467bd;stroke:#9467bd;" x="247.403365" xlink:href="#m0321cd527e" y="237.705325"/>
     <use style="fill:#9467bd;stroke:#9467bd;" x="271.498548" xlink:href="#m0321cd527e" y="220.816474"/>
     <use style="fill:#9467bd;stroke:#9467bd;" x="295.506617" xlink:href="#m0321cd527e" y="167.035926"/>
     <use style="fill:#9467bd;stroke:#9467bd;" x="309.980988" xlink:href="#m0321cd527e" y="166.29072"/>
     <use style="fill:#9467bd;stroke:#9467bd;" x="324.470237" xlink:href="#m0321cd527e" y="122.891492"/>
     <use style="fill:#9467bd;stroke:#9467bd;" x="338.945454" xlink:href="#m0321cd527e" y="94.783666"/>
    </g>
   </g>
   <g id="PathCollection_6">
    <defs>
     <path d="M 0 3 
C 0.795609 3 1.55874 2.683901 2.12132 2.12132 
C 2.683901 1.55874 3 0.795609 3 0 
C 3 -0.795609 2.683901 -1.55874 2.12132 -2.12132 
C 1.55874 -2.683901 0.795609 -3 0 -3 
C -0.795609 -3 -1.55874 -2.683901 -2.12132 -2.12132 
C -2.683901 -1.55874 -3 -0.795609 -3 0 
C -3 0.795609 -2.683901 1.55874 -2.12132 2.12132 
C -1.55874 2.683901 -0.795609 3 0 3 
z
" id="mc7924e2a46" style="stroke:#8c564b;"/>
    </defs>
    <g clip-path="url(#ped17fc9a66)">
     <use style="fill:#8c564b;stroke:#8c564b;" x="79.070253" xlink:href="#mc7924e2a46" y="270.689325"/>
     <use style="fill:#8c564b;stroke:#8c564b;" x="103.078321" xlink:href="#mc7924e2a46" y="271.460152"/>
     <use style="fill:#8c564b;stroke:#8c564b;" x="127.460882" xlink:href="#mc7924e2a46" y="270.801251"/>
     <use style="fill:#8c564b;stroke:#8c564b;" x="151.468951" xlink:href="#mc7924e2a46" y="265.157277"/>
     <use style="fill:#8c564b;stroke:#8c564b;" x="175.207685" xlink:href="#mc7924e2a46" y="258.53441"/>
     <use style="fill:#8c564b;stroke:#8c564b;" x="199.377539" xlink:href="#mc7924e2a46" y="250.366927"/>
     <use style="fill:#8c564b;stroke:#8c564b;" x="223.33713" xlink:href="#mc7924e2a46" y="234.143158"/>
     <use style="fill:#8c564b;stroke:#8c564b;" x="247.403365" xlink:href="#mc7924e2a46" y="209.274534"/>
     <use style="fill:#8c564b;stroke:#8c564b;" x="271.498548" xlink:href="#mc7924e2a46" y="170.234216"/>
     <use style="fill:#8c564b;stroke:#8c564b;" x="295.506617" xlink:href="#mc7924e2a46" y="122.912479"/>
    </g>
   </g>
   <g id="PathCollection_7">
    <defs>
     <path d="M 0 3 
C 0.795609 3 1.55874 2.683901 2.12132 2.12132 
C 2.683901 1.55874 3 0.795609 3 0 
C 3 -0.795609 2.683901 -1.55874 2.12132 -2.12132 
C 1.55874 -2.683901 0.795609 -3 0 -3 
C -0.795609 -3 -1.55874 -2.683901 -2.12132 -2.12132 
C -2.683901 -1.55874 -3 -0.795609 -3 0 
C -3 0.795609 -2.683901 1.55874 -2.12132 2.12132 
C -1.55874 2.683901 -0.795609 3 0 3 
z
" id="m18c314a169" style="stroke:#e377c2;"/>
    </defs>
    <g clip-path="url(#ped17fc9a66)">
     <use style="fill:#e377c2;stroke:#e377c2;" x="79.070253" xlink:href="#m18c314a169" y="270.689325"/>
     <use style="fill:#e377c2;stroke:#e377c2;" x="103.078321" xlink:href="#m18c314a169" y="269.33192"/>
     <use style="fill:#e377c2;stroke:#e377c2;" x="127.460882" xlink:href="#m18c314a169" y="265.837248"/>
     <use style="fill:#e377c2;stroke:#e377c2;" x="151.468951" xlink:href="#m18c314a169" y="257.833345"/>
     <use style="fill:#e377c2;stroke:#e377c2;" x="175.207685" xlink:href="#m18c314a169" y="245.323607"/>
     <use style="fill:#e377c2;stroke:#e377c2;" x="199.377539" xlink:href="#m18c314a169" y="226.00563"/>
     <use style="fill:#e377c2;stroke:#e377c2;" x="223.33713" xlink:href="#m18c314a169" y="199.957436"/>
     <use style="fill:#e377c2;stroke:#e377c2;" x="247.403365" xlink:href="#m18c314a169" y="153.910656"/>
     <use style="fill:#e377c2;stroke:#e377c2;" x="271.498548" xlink:href="#m18c314a169" y="133.156328"/>
     <use style="fill:#e377c2;stroke:#e377c2;" x="295.506617" xlink:href="#m18c314a169" y="108.987971"/>
    </g>
   </g>
   <g id="PathCollection_8">
    <defs>
     <path d="M 0 3 
C 0.795609 3 1.55874 2.683901 2.12132 2.12132 
C 2.683901 1.55874 3 0.795609 3 0 
C 3 -0.795609 2.683901 -1.55874 2.12132 -2.12132 
C 1.55874 -2.683901 0.795609 -3 0 -3 
C -0.795609 -3 -1.55874 -2.683901 -2.12132 -2.12132 
C -2.683901 -1.55874 -3 -0.795609 -3 0 
C -3 0.795609 -2.683901 1.55874 -2.12132 2.12132 
C -1.55874 2.683901 -0.795609 3 0 3 
z
" id="m27b7fb15c2" style="stroke:#7f7f7f;"/>
    </defs>
    <g clip-path="url(#ped17fc9a66)">
     <use style="fill:#7f7f7f;stroke:#7f7f7f;" x="79.070253" xlink:href="#m27b7fb15c2" y="270.689325"/>
     <use style="fill:#7f7f7f;stroke:#7f7f7f;" x="103.078321" xlink:href="#m27b7fb15c2" y="269.587202"/>
     <use style="fill:#7f7f7f;stroke:#7f7f7f;" x="127.460882" xlink:href="#m27b7fb15c2" y="262.059256"/>
     <use style="fill:#7f7f7f;stroke:#7f7f7f;" x="151.468951" xlink:href="#m27b7fb15c2" y="245.449882"/>
     <use style="fill:#7f7f7f;stroke:#7f7f7f;" x="175.207685" xlink:href="#m27b7fb15c2" y="223.1094"/>
     <use style="fill:#7f7f7f;stroke:#7f7f7f;" x="199.377539" xlink:href="#m27b7fb15c2" y="197.192201"/>
     <use style="fill:#7f7f7f;stroke:#7f7f7f;" x="223.33713" xlink:href="#m27b7fb15c2" y="155.678008"/>
     <use style="fill:#7f7f7f;stroke:#7f7f7f;" x="247.403365" xlink:href="#m27b7fb15c2" y="102.165097"/>
    </g>
   </g>
   <g id="PathCollection_9">
    <defs>
     <path d="M 0 3 
C 0.795609 3 1.55874 2.683901 2.12132 2.12132 
C 2.683901 1.55874 3 0.795609 3 0 
C 3 -0.795609 2.683901 -1.55874 2.12132 -2.12132 
C 1.55874 -2.683901 0.795609 -3 0 -3 
C -0.795609 -3 -1.55874 -2.683901 -2.12132 -2.12132 
C -2.683901 -1.55874 -3 -0.795609 -3 0 
C -3 0.795609 -2.683901 1.55874 -2.12132 2.12132 
C -1.55874 2.683901 -0.795609 3 0 3 
z
" id="m173d105c34" style="stroke:#bcbd22;"/>
    </defs>
    <g clip-path="url(#ped17fc9a66)">
     <use style="fill:#bcbd22;stroke:#bcbd22;" x="79.070253" xlink:href="#m173d105c34" y="270.689325"/>
     <use style="fill:#bcbd22;stroke:#bcbd22;" x="103.078321" xlink:href="#m173d105c34" y="261.235542"/>
     <use style="fill:#bcbd22;stroke:#bcbd22;" x="127.460882" xlink:href="#m173d105c34" y="244.543431"/>
     <use style="fill:#bcbd22;stroke:#bcbd22;" x="151.468951" xlink:href="#m173d105c34" y="215.961285"/>
     <use style="fill:#bcbd22;stroke:#bcbd22;" x="175.207685" xlink:href="#m173d105c34" y="177.116536"/>
     <use style="fill:#bcbd22;stroke:#bcbd22;" x="199.377539" xlink:href="#m173d105c34" y="130.390687"/>
     <use style="fill:#bcbd22;stroke:#bcbd22;" x="223.33713" xlink:href="#m173d105c34" y="82.205009"/>
    </g>
   </g>
   <g id="matplotlib.axis_1">
    <g id="xtick_1">
     <g id="line2d_1">
      <path clip-path="url(#ped17fc9a66)" d="M 60.013977 288.430125 
L 60.013977 22.318125 
" style="fill:none;stroke:#b0b0b0;stroke-linecap:square;stroke-width:0.8;"/>
     </g>
     <g id="line2d_2">
      <defs>
       <path d="M 0 0 
L 0 3.5 
" id="mada3d40ff5" style="stroke:#000000;stroke-width:0.8;"/>
      </defs>
      <g>
       <use style="stroke:#000000;stroke-width:0.8;" x="60.013977" xlink:href="#mada3d40ff5" y="288.430125"/>
      </g>
     </g>
     <g id="text_1">
      <!-- $\mathdefault{10^{-5}}$ -->
      <defs>
       <path d="M 12.40625 8.296875 
L 28.515625 8.296875 
L 28.515625 63.921875 
L 10.984375 60.40625 
L 10.984375 69.390625 
L 28.421875 72.90625 
L 38.28125 72.90625 
L 38.28125 8.296875 
L 54.390625 8.296875 
L 54.390625 0 
L 12.40625 0 
z
" id="DejaVuSans-31"/>
       <path d="M 31.78125 66.40625 
Q 24.171875 66.40625 20.328125 58.90625 
Q 16.5 51.421875 16.5 36.375 
Q 16.5 21.390625 20.328125 13.890625 
Q 24.171875 6.390625 31.78125 6.390625 
Q 39.453125 6.390625 43.28125 13.890625 
Q 47.125 21.390625 47.125 36.375 
Q 47.125 51.421875 43.28125 58.90625 
Q 39.453125 66.40625 31.78125 66.40625 
z
M 31.78125 74.21875 
Q 44.046875 74.21875 50.515625 64.515625 
Q 56.984375 54.828125 56.984375 36.375 
Q 56.984375 17.96875 50.515625 8.265625 
Q 44.046875 -1.421875 31.78125 -1.421875 
Q 19.53125 -1.421875 13.0625 8.265625 
Q 6.59375 17.96875 6.59375 36.375 
Q 6.59375 54.828125 13.0625 64.515625 
Q 19.53125 74.21875 31.78125 74.21875 
z
" id="DejaVuSans-30"/>
       <path d="M 10.59375 35.5 
L 73.1875 35.5 
L 73.1875 27.203125 
L 10.59375 27.203125 
z
" id="DejaVuSans-2212"/>
       <path d="M 10.796875 72.90625 
L 49.515625 72.90625 
L 49.515625 64.59375 
L 19.828125 64.59375 
L 19.828125 46.734375 
Q 21.96875 47.46875 24.109375 47.828125 
Q 26.265625 48.1875 28.421875 48.1875 
Q 40.625 48.1875 47.75 41.5 
Q 54.890625 34.8125 54.890625 23.390625 
Q 54.890625 11.625 47.5625 5.09375 
Q 40.234375 -1.421875 26.90625 -1.421875 
Q 22.3125 -1.421875 17.546875 -0.640625 
Q 12.796875 0.140625 7.71875 1.703125 
L 7.71875 11.625 
Q 12.109375 9.234375 16.796875 8.0625 
Q 21.484375 6.890625 26.703125 6.890625 
Q 35.15625 6.890625 40.078125 11.328125 
Q 45.015625 15.765625 45.015625 23.390625 
Q 45.015625 31 40.078125 35.4375 
Q 35.15625 39.890625 26.703125 39.890625 
Q 22.75 39.890625 18.8125 39.015625 
Q 14.890625 38.140625 10.796875 36.28125 
z
" id="DejaVuSans-35"/>
      </defs>
      <g transform="translate(48.263977 303.028562)scale(0.1 -0.1)">
       <use transform="translate(0 0.684375)" xlink:href="#DejaVuSans-31"/>
       <use transform="translate(63.623047 0.684375)" xlink:href="#DejaVuSans-30"/>
       <use transform="translate(128.203125 38.965625)scale(0.7)" xlink:href="#DejaVuSans-2212"/>
       <use transform="translate(186.855469 38.965625)scale(0.7)" xlink:href="#DejaVuSans-35"/>
      </g>
     </g>
    </g>
    <g id="xtick_2">
     <g id="line2d_3">
      <path clip-path="url(#ped17fc9a66)" d="M 168.232159 288.430125 
L 168.232159 22.318125 
" style="fill:none;stroke:#b0b0b0;stroke-linecap:square;stroke-width:0.8;"/>
     </g>
     <g id="line2d_4">
      <g>
       <use style="stroke:#000000;stroke-width:0.8;" x="168.232159" xlink:href="#mada3d40ff5" y="288.430125"/>
      </g>
     </g>
     <g id="text_2">
      <!-- $\mathdefault{10^{-4}}$ -->
      <defs>
       <path d="M 37.796875 64.3125 
L 12.890625 25.390625 
L 37.796875 25.390625 
z
M 35.203125 72.90625 
L 47.609375 72.90625 
L 47.609375 25.390625 
L 58.015625 25.390625 
L 58.015625 17.1875 
L 47.609375 17.1875 
L 47.609375 0 
L 37.796875 0 
L 37.796875 17.1875 
L 4.890625 17.1875 
L 4.890625 26.703125 
z
" id="DejaVuSans-34"/>
      </defs>
      <g transform="translate(156.482159 303.028562)scale(0.1 -0.1)">
       <use transform="translate(0 0.684375)" xlink:href="#DejaVuSans-31"/>
       <use transform="translate(63.623047 0.684375)" xlink:href="#DejaVuSans-30"/>
       <use transform="translate(128.203125 38.965625)scale(0.7)" xlink:href="#DejaVuSans-2212"/>
       <use transform="translate(186.855469 38.965625)scale(0.7)" xlink:href="#DejaVuSans-34"/>
      </g>
     </g>
    </g>
    <g id="xtick_3">
     <g id="line2d_5">
      <path clip-path="url(#ped17fc9a66)" d="M 276.450341 288.430125 
L 276.450341 22.318125 
" style="fill:none;stroke:#b0b0b0;stroke-linecap:square;stroke-width:0.8;"/>
     </g>
     <g id="line2d_6">
      <g>
       <use style="stroke:#000000;stroke-width:0.8;" x="276.450341" xlink:href="#mada3d40ff5" y="288.430125"/>
      </g>
     </g>
     <g id="text_3">
      <!-- $\mathdefault{10^{-3}}$ -->
      <defs>
       <path d="M 40.578125 39.3125 
Q 47.65625 37.796875 51.625 33 
Q 55.609375 28.21875 55.609375 21.1875 
Q 55.609375 10.40625 48.1875 4.484375 
Q 40.765625 -1.421875 27.09375 -1.421875 
Q 22.515625 -1.421875 17.65625 -0.515625 
Q 12.796875 0.390625 7.625 2.203125 
L 7.625 11.71875 
Q 11.71875 9.328125 16.59375 8.109375 
Q 21.484375 6.890625 26.8125 6.890625 
Q 36.078125 6.890625 40.9375 10.546875 
Q 45.796875 14.203125 45.796875 21.1875 
Q 45.796875 27.640625 41.28125 31.265625 
Q 36.765625 34.90625 28.71875 34.90625 
L 20.21875 34.90625 
L 20.21875 43.015625 
L 29.109375 43.015625 
Q 36.375 43.015625 40.234375 45.921875 
Q 44.09375 48.828125 44.09375 54.296875 
Q 44.09375 59.90625 40.109375 62.90625 
Q 36.140625 65.921875 28.71875 65.921875 
Q 24.65625 65.921875 20.015625 65.03125 
Q 15.375 64.15625 9.8125 62.3125 
L 9.8125 71.09375 
Q 15.4375 72.65625 20.34375 73.4375 
Q 25.25 74.21875 29.59375 74.21875 
Q 40.828125 74.21875 47.359375 69.109375 
Q 53.90625 64.015625 53.90625 55.328125 
Q 53.90625 49.265625 50.4375 45.09375 
Q 46.96875 40.921875 40.578125 39.3125 
z
" id="DejaVuSans-33"/>
      </defs>
      <g transform="translate(264.700341 303.028562)scale(0.1 -0.1)">
       <use transform="translate(0 0.765625)" xlink:href="#DejaVuSans-31"/>
       <use transform="translate(63.623047 0.765625)" xlink:href="#DejaVuSans-30"/>
       <use transform="translate(128.203125 39.046875)scale(0.7)" xlink:href="#DejaVuSans-2212"/>
       <use transform="translate(186.855469 39.046875)scale(0.7)" xlink:href="#DejaVuSans-33"/>
      </g>
     </g>
    </g>
    <g id="xtick_4">
     <g id="line2d_7">
      <path clip-path="url(#ped17fc9a66)" d="M 384.668523 288.430125 
L 384.668523 22.318125 
" style="fill:none;stroke:#b0b0b0;stroke-linecap:square;stroke-width:0.8;"/>
     </g>
     <g id="line2d_8">
      <g>
       <use style="stroke:#000000;stroke-width:0.8;" x="384.668523" xlink:href="#mada3d40ff5" y="288.430125"/>
      </g>
     </g>
     <g id="text_4">
      <!-- $\mathdefault{10^{-2}}$ -->
      <defs>
       <path d="M 19.1875 8.296875 
L 53.609375 8.296875 
L 53.609375 0 
L 7.328125 0 
L 7.328125 8.296875 
Q 12.9375 14.109375 22.625 23.890625 
Q 32.328125 33.6875 34.8125 36.53125 
Q 39.546875 41.84375 41.421875 45.53125 
Q 43.3125 49.21875 43.3125 52.78125 
Q 43.3125 58.59375 39.234375 62.25 
Q 35.15625 65.921875 28.609375 65.921875 
Q 23.96875 65.921875 18.8125 64.3125 
Q 13.671875 62.703125 7.8125 59.421875 
L 7.8125 69.390625 
Q 13.765625 71.78125 18.9375 73 
Q 24.125 74.21875 28.421875 74.21875 
Q 39.75 74.21875 46.484375 68.546875 
Q 53.21875 62.890625 53.21875 53.421875 
Q 53.21875 48.921875 51.53125 44.890625 
Q 49.859375 40.875 45.40625 35.40625 
Q 44.1875 33.984375 37.640625 27.21875 
Q 31.109375 20.453125 19.1875 8.296875 
z
" id="DejaVuSans-32"/>
      </defs>
      <g transform="translate(372.918523 303.028562)scale(0.1 -0.1)">
       <use transform="translate(0 0.765625)" xlink:href="#DejaVuSans-31"/>
       <use transform="translate(63.623047 0.765625)" xlink:href="#DejaVuSans-30"/>
       <use transform="translate(128.203125 39.046875)scale(0.7)" xlink:href="#DejaVuSans-2212"/>
       <use transform="translate(186.855469 39.046875)scale(0.7)" xlink:href="#DejaVuSans-32"/>
      </g>
     </g>
    </g>
    <g id="xtick_5">
     <g id="line2d_9">
      <defs>
       <path d="M 0 0 
L 0 2 
" id="mf0f2cad71d" style="stroke:#000000;stroke-width:0.6;"/>
      </defs>
      <g>
       <use style="stroke:#000000;stroke-width:0.6;" x="49.526552" xlink:href="#mf0f2cad71d" y="288.430125"/>
      </g>
     </g>
    </g>
    <g id="xtick_6">
     <g id="line2d_10">
      <g>
       <use style="stroke:#000000;stroke-width:0.6;" x="55.062185" xlink:href="#mf0f2cad71d" y="288.430125"/>
      </g>
     </g>
    </g>
    <g id="xtick_7">
     <g id="line2d_11">
      <g>
       <use style="stroke:#000000;stroke-width:0.6;" x="92.590896" xlink:href="#mf0f2cad71d" y="288.430125"/>
      </g>
     </g>
    </g>
    <g id="xtick_8">
     <g id="line2d_12">
      <g>
       <use style="stroke:#000000;stroke-width:0.6;" x="111.647172" xlink:href="#mf0f2cad71d" y="288.430125"/>
      </g>
     </g>
    </g>
    <g id="xtick_9">
     <g id="line2d_13">
      <g>
       <use style="stroke:#000000;stroke-width:0.6;" x="125.167815" xlink:href="#mf0f2cad71d" y="288.430125"/>
      </g>
     </g>
    </g>
    <g id="xtick_10">
     <g id="line2d_14">
      <g>
       <use style="stroke:#000000;stroke-width:0.6;" x="135.65524" xlink:href="#mf0f2cad71d" y="288.430125"/>
      </g>
     </g>
    </g>
    <g id="xtick_11">
     <g id="line2d_15">
      <g>
       <use style="stroke:#000000;stroke-width:0.6;" x="144.224091" xlink:href="#mf0f2cad71d" y="288.430125"/>
      </g>
     </g>
    </g>
    <g id="xtick_12">
     <g id="line2d_16">
      <g>
       <use style="stroke:#000000;stroke-width:0.6;" x="151.468951" xlink:href="#mf0f2cad71d" y="288.430125"/>
      </g>
     </g>
    </g>
    <g id="xtick_13">
     <g id="line2d_17">
      <g>
       <use style="stroke:#000000;stroke-width:0.6;" x="157.744734" xlink:href="#mf0f2cad71d" y="288.430125"/>
      </g>
     </g>
    </g>
    <g id="xtick_14">
     <g id="line2d_18">
      <g>
       <use style="stroke:#000000;stroke-width:0.6;" x="163.280367" xlink:href="#mf0f2cad71d" y="288.430125"/>
      </g>
     </g>
    </g>
    <g id="xtick_15">
     <g id="line2d_19">
      <g>
       <use style="stroke:#000000;stroke-width:0.6;" x="200.809078" xlink:href="#mf0f2cad71d" y="288.430125"/>
      </g>
     </g>
    </g>
    <g id="xtick_16">
     <g id="line2d_20">
      <g>
       <use style="stroke:#000000;stroke-width:0.6;" x="219.865354" xlink:href="#mf0f2cad71d" y="288.430125"/>
      </g>
     </g>
    </g>
    <g id="xtick_17">
     <g id="line2d_21">
      <g>
       <use style="stroke:#000000;stroke-width:0.6;" x="233.385997" xlink:href="#mf0f2cad71d" y="288.430125"/>
      </g>
     </g>
    </g>
    <g id="xtick_18">
     <g id="line2d_22">
      <g>
       <use style="stroke:#000000;stroke-width:0.6;" x="243.873422" xlink:href="#mf0f2cad71d" y="288.430125"/>
      </g>
     </g>
    </g>
    <g id="xtick_19">
     <g id="line2d_23">
      <g>
       <use style="stroke:#000000;stroke-width:0.6;" x="252.442273" xlink:href="#mf0f2cad71d" y="288.430125"/>
      </g>
     </g>
    </g>
    <g id="xtick_20">
     <g id="line2d_24">
      <g>
       <use style="stroke:#000000;stroke-width:0.6;" x="259.687132" xlink:href="#mf0f2cad71d" y="288.430125"/>
      </g>
     </g>
    </g>
    <g id="xtick_21">
     <g id="line2d_25">
      <g>
       <use style="stroke:#000000;stroke-width:0.6;" x="265.962916" xlink:href="#mf0f2cad71d" y="288.430125"/>
      </g>
     </g>
    </g>
    <g id="xtick_22">
     <g id="line2d_26">
      <g>
       <use style="stroke:#000000;stroke-width:0.6;" x="271.498548" xlink:href="#mf0f2cad71d" y="288.430125"/>
      </g>
     </g>
    </g>
    <g id="xtick_23">
     <g id="line2d_27">
      <g>
       <use style="stroke:#000000;stroke-width:0.6;" x="309.02726" xlink:href="#mf0f2cad71d" y="288.430125"/>
      </g>
     </g>
    </g>
    <g id="xtick_24">
     <g id="line2d_28">
      <g>
       <use style="stroke:#000000;stroke-width:0.6;" x="328.083536" xlink:href="#mf0f2cad71d" y="288.430125"/>
      </g>
     </g>
    </g>
    <g id="xtick_25">
     <g id="line2d_29">
      <g>
       <use style="stroke:#000000;stroke-width:0.6;" x="341.604179" xlink:href="#mf0f2cad71d" y="288.430125"/>
      </g>
     </g>
    </g>
    <g id="xtick_26">
     <g id="line2d_30">
      <g>
       <use style="stroke:#000000;stroke-width:0.6;" x="352.091604" xlink:href="#mf0f2cad71d" y="288.430125"/>
      </g>
     </g>
    </g>
    <g id="xtick_27">
     <g id="line2d_31">
      <g>
       <use style="stroke:#000000;stroke-width:0.6;" x="360.660454" xlink:href="#mf0f2cad71d" y="288.430125"/>
      </g>
     </g>
    </g>
    <g id="xtick_28">
     <g id="line2d_32">
      <g>
       <use style="stroke:#000000;stroke-width:0.6;" x="367.905314" xlink:href="#mf0f2cad71d" y="288.430125"/>
      </g>
     </g>
    </g>
    <g id="xtick_29">
     <g id="line2d_33">
      <g>
       <use style="stroke:#000000;stroke-width:0.6;" x="374.181097" xlink:href="#mf0f2cad71d" y="288.430125"/>
      </g>
     </g>
    </g>
    <g id="xtick_30">
     <g id="line2d_34">
      <g>
       <use style="stroke:#000000;stroke-width:0.6;" x="379.71673" xlink:href="#mf0f2cad71d" y="288.430125"/>
      </g>
     </g>
    </g>
    <g id="text_5">
     <!-- log(tau/s) -->
     <defs>
      <path d="M 9.421875 75.984375 
L 18.40625 75.984375 
L 18.40625 0 
L 9.421875 0 
z
" id="DejaVuSans-6c"/>
      <path d="M 30.609375 48.390625 
Q 23.390625 48.390625 19.1875 42.75 
Q 14.984375 37.109375 14.984375 27.296875 
Q 14.984375 17.484375 19.15625 11.84375 
Q 23.34375 6.203125 30.609375 6.203125 
Q 37.796875 6.203125 41.984375 11.859375 
Q 46.1875 17.53125 46.1875 27.296875 
Q 46.1875 37.015625 41.984375 42.703125 
Q 37.796875 48.390625 30.609375 48.390625 
z
M 30.609375 56 
Q 42.328125 56 49.015625 48.375 
Q 55.71875 40.765625 55.71875 27.296875 
Q 55.71875 13.875 49.015625 6.21875 
Q 42.328125 -1.421875 30.609375 -1.421875 
Q 18.84375 -1.421875 12.171875 6.21875 
Q 5.515625 13.875 5.515625 27.296875 
Q 5.515625 40.765625 12.171875 48.375 
Q 18.84375 56 30.609375 56 
z
" id="DejaVuSans-6f"/>
      <path d="M 45.40625 27.984375 
Q 45.40625 37.75 41.375 43.109375 
Q 37.359375 48.484375 30.078125 48.484375 
Q 22.859375 48.484375 18.828125 43.109375 
Q 14.796875 37.75 14.796875 27.984375 
Q 14.796875 18.265625 18.828125 12.890625 
Q 22.859375 7.515625 30.078125 7.515625 
Q 37.359375 7.515625 41.375 12.890625 
Q 45.40625 18.265625 45.40625 27.984375 
z
M 54.390625 6.78125 
Q 54.390625 -7.171875 48.1875 -13.984375 
Q 42 -20.796875 29.203125 -20.796875 
Q 24.46875 -20.796875 20.265625 -20.09375 
Q 16.0625 -19.390625 12.109375 -17.921875 
L 12.109375 -9.1875 
Q 16.0625 -11.328125 19.921875 -12.34375 
Q 23.78125 -13.375 27.78125 -13.375 
Q 36.625 -13.375 41.015625 -8.765625 
Q 45.40625 -4.15625 45.40625 5.171875 
L 45.40625 9.625 
Q 42.625 4.78125 38.28125 2.390625 
Q 33.9375 0 27.875 0 
Q 17.828125 0 11.671875 7.65625 
Q 5.515625 15.328125 5.515625 27.984375 
Q 5.515625 40.671875 11.671875 48.328125 
Q 17.828125 56 27.875 56 
Q 33.9375 56 38.28125 53.609375 
Q 42.625 51.21875 45.40625 46.390625 
L 45.40625 54.6875 
L 54.390625 54.6875 
z
" id="DejaVuSans-67"/>
      <path d="M 31 75.875 
Q 24.46875 64.65625 21.28125 53.65625 
Q 18.109375 42.671875 18.109375 31.390625 
Q 18.109375 20.125 21.3125 9.0625 
Q 24.515625 -2 31 -13.1875 
L 23.1875 -13.1875 
Q 15.875 -1.703125 12.234375 9.375 
Q 8.59375 20.453125 8.59375 31.390625 
Q 8.59375 42.28125 12.203125 53.3125 
Q 15.828125 64.359375 23.1875 75.875 
z
" id="DejaVuSans-28"/>
      <path d="M 18.3125 70.21875 
L 18.3125 54.6875 
L 36.8125 54.6875 
L 36.8125 47.703125 
L 18.3125 47.703125 
L 18.3125 18.015625 
Q 18.3125 11.328125 20.140625 9.421875 
Q 21.96875 7.515625 27.59375 7.515625 
L 36.8125 7.515625 
L 36.8125 0 
L 27.59375 0 
Q 17.1875 0 13.234375 3.875 
Q 9.28125 7.765625 9.28125 18.015625 
L 9.28125 47.703125 
L 2.6875 47.703125 
L 2.6875 54.6875 
L 9.28125 54.6875 
L 9.28125 70.21875 
z
" id="DejaVuSans-74"/>
      <path d="M 34.28125 27.484375 
Q 23.390625 27.484375 19.1875 25 
Q 14.984375 22.515625 14.984375 16.5 
Q 14.984375 11.71875 18.140625 8.90625 
Q 21.296875 6.109375 26.703125 6.109375 
Q 34.1875 6.109375 38.703125 11.40625 
Q 43.21875 16.703125 43.21875 25.484375 
L 43.21875 27.484375 
z
M 52.203125 31.203125 
L 52.203125 0 
L 43.21875 0 
L 43.21875 8.296875 
Q 40.140625 3.328125 35.546875 0.953125 
Q 30.953125 -1.421875 24.3125 -1.421875 
Q 15.921875 -1.421875 10.953125 3.296875 
Q 6 8.015625 6 15.921875 
Q 6 25.140625 12.171875 29.828125 
Q 18.359375 34.515625 30.609375 34.515625 
L 43.21875 34.515625 
L 43.21875 35.40625 
Q 43.21875 41.609375 39.140625 45 
Q 35.0625 48.390625 27.6875 48.390625 
Q 23 48.390625 18.546875 47.265625 
Q 14.109375 46.140625 10.015625 43.890625 
L 10.015625 52.203125 
Q 14.9375 54.109375 19.578125 55.046875 
Q 24.21875 56 28.609375 56 
Q 40.484375 56 46.34375 49.84375 
Q 52.203125 43.703125 52.203125 31.203125 
z
" id="DejaVuSans-61"/>
      <path d="M 8.5 21.578125 
L 8.5 54.6875 
L 17.484375 54.6875 
L 17.484375 21.921875 
Q 17.484375 14.15625 20.5 10.265625 
Q 23.53125 6.390625 29.59375 6.390625 
Q 36.859375 6.390625 41.078125 11.03125 
Q 45.3125 15.671875 45.3125 23.6875 
L 45.3125 54.6875 
L 54.296875 54.6875 
L 54.296875 0 
L 45.3125 0 
L 45.3125 8.40625 
Q 42.046875 3.421875 37.71875 1 
Q 33.40625 -1.421875 27.6875 -1.421875 
Q 18.265625 -1.421875 13.375 4.4375 
Q 8.5 10.296875 8.5 21.578125 
z
M 31.109375 56 
z
" id="DejaVuSans-75"/>
      <path d="M 25.390625 72.90625 
L 33.6875 72.90625 
L 8.296875 -9.28125 
L 0 -9.28125 
z
" id="DejaVuSans-2f"/>
      <path d="M 44.28125 53.078125 
L 44.28125 44.578125 
Q 40.484375 46.53125 36.375 47.5 
Q 32.28125 48.484375 27.875 48.484375 
Q 21.1875 48.484375 17.84375 46.4375 
Q 14.5 44.390625 14.5 40.28125 
Q 14.5 37.15625 16.890625 35.375 
Q 19.28125 33.59375 26.515625 31.984375 
L 29.59375 31.296875 
Q 39.15625 29.25 43.1875 25.515625 
Q 47.21875 21.78125 47.21875 15.09375 
Q 47.21875 7.46875 41.1875 3.015625 
Q 35.15625 -1.421875 24.609375 -1.421875 
Q 20.21875 -1.421875 15.453125 -0.5625 
Q 10.6875 0.296875 5.421875 2 
L 5.421875 11.28125 
Q 10.40625 8.6875 15.234375 7.390625 
Q 20.0625 6.109375 24.8125 6.109375 
Q 31.15625 6.109375 34.5625 8.28125 
Q 37.984375 10.453125 37.984375 14.40625 
Q 37.984375 18.0625 35.515625 20.015625 
Q 33.0625 21.96875 24.703125 23.78125 
L 21.578125 24.515625 
Q 13.234375 26.265625 9.515625 29.90625 
Q 5.8125 33.546875 5.8125 39.890625 
Q 5.8125 47.609375 11.28125 51.796875 
Q 16.75 56 26.8125 56 
Q 31.78125 56 36.171875 55.265625 
Q 40.578125 54.546875 44.28125 53.078125 
z
" id="DejaVuSans-73"/>
      <path d="M 8.015625 75.875 
L 15.828125 75.875 
Q 23.140625 64.359375 26.78125 53.3125 
Q 30.421875 42.28125 30.421875 31.390625 
Q 30.421875 20.453125 26.78125 9.375 
Q 23.140625 -1.703125 15.828125 -13.1875 
L 8.015625 -13.1875 
Q 14.5 -2 17.703125 9.0625 
Q 20.90625 20.125 20.90625 31.390625 
Q 20.90625 42.671875 17.703125 53.65625 
Q 14.5 64.65625 8.015625 75.875 
z
" id="DejaVuSans-29"/>
     </defs>
     <g transform="translate(198.335 316.706687)scale(0.1 -0.1)">
      <use xlink:href="#DejaVuSans-6c"/>
      <use x="27.783203" xlink:href="#DejaVuSans-6f"/>
      <use x="88.964844" xlink:href="#DejaVuSans-67"/>
      <use x="152.441406" xlink:href="#DejaVuSans-28"/>
      <use x="191.455078" xlink:href="#DejaVuSans-74"/>
      <use x="230.664062" xlink:href="#DejaVuSans-61"/>
      <use x="291.943359" xlink:href="#DejaVuSans-75"/>
      <use x="355.322266" xlink:href="#DejaVuSans-2f"/>
      <use x="389.013672" xlink:href="#DejaVuSans-73"/>
      <use x="441.113281" xlink:href="#DejaVuSans-29"/>
     </g>
    </g>
   </g>
   <g id="matplotlib.axis_2">
    <g id="ytick_1">
     <g id="line2d_35">
      <path clip-path="url(#ped17fc9a66)" d="M 43.78125 270.689325 
L 400.90125 270.689325 
" style="fill:none;stroke:#b0b0b0;stroke-linecap:square;stroke-width:0.8;"/>
     </g>
     <g id="line2d_36">
      <defs>
       <path d="M 0 0 
L -3.5 0 
" id="mcc4af68d58" style="stroke:#000000;stroke-width:0.8;"/>
      </defs>
      <g>
       <use style="stroke:#000000;stroke-width:0.8;" x="43.78125" xlink:href="#mcc4af68d58" y="270.689325"/>
      </g>
     </g>
     <g id="text_6">
      <!-- 0.0 -->
      <defs>
       <path d="M 10.6875 12.40625 
L 21 12.40625 
L 21 0 
L 10.6875 0 
z
" id="DejaVuSans-2e"/>
      </defs>
      <g transform="translate(20.878125 274.488544)scale(0.1 -0.1)">
       <use xlink:href="#DejaVuSans-30"/>
       <use x="63.623047" xlink:href="#DejaVuSans-2e"/>
       <use x="95.410156" xlink:href="#DejaVuSans-30"/>
      </g>
     </g>
    </g>
    <g id="ytick_2">
     <g id="line2d_37">
      <path clip-path="url(#ped17fc9a66)" d="M 43.78125 235.207725 
L 400.90125 235.207725 
" style="fill:none;stroke:#b0b0b0;stroke-linecap:square;stroke-width:0.8;"/>
     </g>
     <g id="line2d_38">
      <g>
       <use style="stroke:#000000;stroke-width:0.8;" x="43.78125" xlink:href="#mcc4af68d58" y="235.207725"/>
      </g>
     </g>
     <g id="text_7">
      <!-- 0.1 -->
      <g transform="translate(20.878125 239.006944)scale(0.1 -0.1)">
       <use xlink:href="#DejaVuSans-30"/>
       <use x="63.623047" xlink:href="#DejaVuSans-2e"/>
       <use x="95.410156" xlink:href="#DejaVuSans-31"/>
      </g>
     </g>
    </g>
    <g id="ytick_3">
     <g id="line2d_39">
      <path clip-path="url(#ped17fc9a66)" d="M 43.78125 199.726125 
L 400.90125 199.726125 
" style="fill:none;stroke:#b0b0b0;stroke-linecap:square;stroke-width:0.8;"/>
     </g>
     <g id="line2d_40">
      <g>
       <use style="stroke:#000000;stroke-width:0.8;" x="43.78125" xlink:href="#mcc4af68d58" y="199.726125"/>
      </g>
     </g>
     <g id="text_8">
      <!-- 0.2 -->
      <g transform="translate(20.878125 203.525344)scale(0.1 -0.1)">
       <use xlink:href="#DejaVuSans-30"/>
       <use x="63.623047" xlink:href="#DejaVuSans-2e"/>
       <use x="95.410156" xlink:href="#DejaVuSans-32"/>
      </g>
     </g>
    </g>
    <g id="ytick_4">
     <g id="line2d_41">
      <path clip-path="url(#ped17fc9a66)" d="M 43.78125 164.244525 
L 400.90125 164.244525 
" style="fill:none;stroke:#b0b0b0;stroke-linecap:square;stroke-width:0.8;"/>
     </g>
     <g id="line2d_42">
      <g>
       <use style="stroke:#000000;stroke-width:0.8;" x="43.78125" xlink:href="#mcc4af68d58" y="164.244525"/>
      </g>
     </g>
     <g id="text_9">
      <!-- 0.3 -->
      <g transform="translate(20.878125 168.043744)scale(0.1 -0.1)">
       <use xlink:href="#DejaVuSans-30"/>
       <use x="63.623047" xlink:href="#DejaVuSans-2e"/>
       <use x="95.410156" xlink:href="#DejaVuSans-33"/>
      </g>
     </g>
    </g>
    <g id="ytick_5">
     <g id="line2d_43">
      <path clip-path="url(#ped17fc9a66)" d="M 43.78125 128.762925 
L 400.90125 128.762925 
" style="fill:none;stroke:#b0b0b0;stroke-linecap:square;stroke-width:0.8;"/>
     </g>
     <g id="line2d_44">
      <g>
       <use style="stroke:#000000;stroke-width:0.8;" x="43.78125" xlink:href="#mcc4af68d58" y="128.762925"/>
      </g>
     </g>
     <g id="text_10">
      <!-- 0.4 -->
      <g transform="translate(20.878125 132.562144)scale(0.1 -0.1)">
       <use xlink:href="#DejaVuSans-30"/>
       <use x="63.623047" xlink:href="#DejaVuSans-2e"/>
       <use x="95.410156" xlink:href="#DejaVuSans-34"/>
      </g>
     </g>
    </g>
    <g id="ytick_6">
     <g id="line2d_45">
      <path clip-path="url(#ped17fc9a66)" d="M 43.78125 93.281325 
L 400.90125 93.281325 
" style="fill:none;stroke:#b0b0b0;stroke-linecap:square;stroke-width:0.8;"/>
     </g>
     <g id="line2d_46">
      <g>
       <use style="stroke:#000000;stroke-width:0.8;" x="43.78125" xlink:href="#mcc4af68d58" y="93.281325"/>
      </g>
     </g>
     <g id="text_11">
      <!-- 0.5 -->
      <g transform="translate(20.878125 97.080544)scale(0.1 -0.1)">
       <use xlink:href="#DejaVuSans-30"/>
       <use x="63.623047" xlink:href="#DejaVuSans-2e"/>
       <use x="95.410156" xlink:href="#DejaVuSans-35"/>
      </g>
     </g>
    </g>
    <g id="ytick_7">
     <g id="line2d_47">
      <path clip-path="url(#ped17fc9a66)" d="M 43.78125 57.799725 
L 400.90125 57.799725 
" style="fill:none;stroke:#b0b0b0;stroke-linecap:square;stroke-width:0.8;"/>
     </g>
     <g id="line2d_48">
      <g>
       <use style="stroke:#000000;stroke-width:0.8;" x="43.78125" xlink:href="#mcc4af68d58" y="57.799725"/>
      </g>
     </g>
     <g id="text_12">
      <!-- 0.6 -->
      <defs>
       <path d="M 33.015625 40.375 
Q 26.375 40.375 22.484375 35.828125 
Q 18.609375 31.296875 18.609375 23.390625 
Q 18.609375 15.53125 22.484375 10.953125 
Q 26.375 6.390625 33.015625 6.390625 
Q 39.65625 6.390625 43.53125 10.953125 
Q 47.40625 15.53125 47.40625 23.390625 
Q 47.40625 31.296875 43.53125 35.828125 
Q 39.65625 40.375 33.015625 40.375 
z
M 52.59375 71.296875 
L 52.59375 62.3125 
Q 48.875 64.0625 45.09375 64.984375 
Q 41.3125 65.921875 37.59375 65.921875 
Q 27.828125 65.921875 22.671875 59.328125 
Q 17.53125 52.734375 16.796875 39.40625 
Q 19.671875 43.65625 24.015625 45.921875 
Q 28.375 48.1875 33.59375 48.1875 
Q 44.578125 48.1875 50.953125 41.515625 
Q 57.328125 34.859375 57.328125 23.390625 
Q 57.328125 12.15625 50.6875 5.359375 
Q 44.046875 -1.421875 33.015625 -1.421875 
Q 20.359375 -1.421875 13.671875 8.265625 
Q 6.984375 17.96875 6.984375 36.375 
Q 6.984375 53.65625 15.1875 63.9375 
Q 23.390625 74.21875 37.203125 74.21875 
Q 40.921875 74.21875 44.703125 73.484375 
Q 48.484375 72.75 52.59375 71.296875 
z
" id="DejaVuSans-36"/>
      </defs>
      <g transform="translate(20.878125 61.598944)scale(0.1 -0.1)">
       <use xlink:href="#DejaVuSans-30"/>
       <use x="63.623047" xlink:href="#DejaVuSans-2e"/>
       <use x="95.410156" xlink:href="#DejaVuSans-36"/>
      </g>
     </g>
    </g>
    <g id="ytick_8">
     <g id="line2d_49">
      <path clip-path="url(#ped17fc9a66)" d="M 43.78125 22.318125 
L 400.90125 22.318125 
" style="fill:none;stroke:#b0b0b0;stroke-linecap:square;stroke-width:0.8;"/>
     </g>
     <g id="line2d_50">
      <g>
       <use style="stroke:#000000;stroke-width:0.8;" x="43.78125" xlink:href="#mcc4af68d58" y="22.318125"/>
      </g>
     </g>
     <g id="text_13">
      <!-- 0.7 -->
      <defs>
       <path d="M 8.203125 72.90625 
L 55.078125 72.90625 
L 55.078125 68.703125 
L 28.609375 0 
L 18.3125 0 
L 43.21875 64.59375 
L 8.203125 64.59375 
z
" id="DejaVuSans-37"/>
      </defs>
      <g transform="translate(20.878125 26.117344)scale(0.1 -0.1)">
       <use xlink:href="#DejaVuSans-30"/>
       <use x="63.623047" xlink:href="#DejaVuSans-2e"/>
       <use x="95.410156" xlink:href="#DejaVuSans-37"/>
      </g>
     </g>
    </g>
    <g id="text_14">
     <!-- Difference [nomalized] -->
     <defs>
      <path d="M 19.671875 64.796875 
L 19.671875 8.109375 
L 31.59375 8.109375 
Q 46.6875 8.109375 53.6875 14.9375 
Q 60.6875 21.78125 60.6875 36.53125 
Q 60.6875 51.171875 53.6875 57.984375 
Q 46.6875 64.796875 31.59375 64.796875 
z
M 9.8125 72.90625 
L 30.078125 72.90625 
Q 51.265625 72.90625 61.171875 64.09375 
Q 71.09375 55.28125 71.09375 36.53125 
Q 71.09375 17.671875 61.125 8.828125 
Q 51.171875 0 30.078125 0 
L 9.8125 0 
z
" id="DejaVuSans-44"/>
      <path d="M 9.421875 54.6875 
L 18.40625 54.6875 
L 18.40625 0 
L 9.421875 0 
z
M 9.421875 75.984375 
L 18.40625 75.984375 
L 18.40625 64.59375 
L 9.421875 64.59375 
z
" id="DejaVuSans-69"/>
      <path d="M 37.109375 75.984375 
L 37.109375 68.5 
L 28.515625 68.5 
Q 23.6875 68.5 21.796875 66.546875 
Q 19.921875 64.59375 19.921875 59.515625 
L 19.921875 54.6875 
L 34.71875 54.6875 
L 34.71875 47.703125 
L 19.921875 47.703125 
L 19.921875 0 
L 10.890625 0 
L 10.890625 47.703125 
L 2.296875 47.703125 
L 2.296875 54.6875 
L 10.890625 54.6875 
L 10.890625 58.5 
Q 10.890625 67.625 15.140625 71.796875 
Q 19.390625 75.984375 28.609375 75.984375 
z
" id="DejaVuSans-66"/>
      <path d="M 56.203125 29.59375 
L 56.203125 25.203125 
L 14.890625 25.203125 
Q 15.484375 15.921875 20.484375 11.0625 
Q 25.484375 6.203125 34.421875 6.203125 
Q 39.59375 6.203125 44.453125 7.46875 
Q 49.3125 8.734375 54.109375 11.28125 
L 54.109375 2.78125 
Q 49.265625 0.734375 44.1875 -0.34375 
Q 39.109375 -1.421875 33.890625 -1.421875 
Q 20.796875 -1.421875 13.15625 6.1875 
Q 5.515625 13.8125 5.515625 26.8125 
Q 5.515625 40.234375 12.765625 48.109375 
Q 20.015625 56 32.328125 56 
Q 43.359375 56 49.78125 48.890625 
Q 56.203125 41.796875 56.203125 29.59375 
z
M 47.21875 32.234375 
Q 47.125 39.59375 43.09375 43.984375 
Q 39.0625 48.390625 32.421875 48.390625 
Q 24.90625 48.390625 20.390625 44.140625 
Q 15.875 39.890625 15.1875 32.171875 
z
" id="DejaVuSans-65"/>
      <path d="M 41.109375 46.296875 
Q 39.59375 47.171875 37.8125 47.578125 
Q 36.03125 48 33.890625 48 
Q 26.265625 48 22.1875 43.046875 
Q 18.109375 38.09375 18.109375 28.8125 
L 18.109375 0 
L 9.078125 0 
L 9.078125 54.6875 
L 18.109375 54.6875 
L 18.109375 46.1875 
Q 20.953125 51.171875 25.484375 53.578125 
Q 30.03125 56 36.53125 56 
Q 37.453125 56 38.578125 55.875 
Q 39.703125 55.765625 41.0625 55.515625 
z
" id="DejaVuSans-72"/>
      <path d="M 54.890625 33.015625 
L 54.890625 0 
L 45.90625 0 
L 45.90625 32.71875 
Q 45.90625 40.484375 42.875 44.328125 
Q 39.84375 48.1875 33.796875 48.1875 
Q 26.515625 48.1875 22.3125 43.546875 
Q 18.109375 38.921875 18.109375 30.90625 
L 18.109375 0 
L 9.078125 0 
L 9.078125 54.6875 
L 18.109375 54.6875 
L 18.109375 46.1875 
Q 21.34375 51.125 25.703125 53.5625 
Q 30.078125 56 35.796875 56 
Q 45.21875 56 50.046875 50.171875 
Q 54.890625 44.34375 54.890625 33.015625 
z
" id="DejaVuSans-6e"/>
      <path d="M 48.78125 52.59375 
L 48.78125 44.1875 
Q 44.96875 46.296875 41.140625 47.34375 
Q 37.3125 48.390625 33.40625 48.390625 
Q 24.65625 48.390625 19.8125 42.84375 
Q 14.984375 37.3125 14.984375 27.296875 
Q 14.984375 17.28125 19.8125 11.734375 
Q 24.65625 6.203125 33.40625 6.203125 
Q 37.3125 6.203125 41.140625 7.25 
Q 44.96875 8.296875 48.78125 10.40625 
L 48.78125 2.09375 
Q 45.015625 0.34375 40.984375 -0.53125 
Q 36.96875 -1.421875 32.421875 -1.421875 
Q 20.0625 -1.421875 12.78125 6.34375 
Q 5.515625 14.109375 5.515625 27.296875 
Q 5.515625 40.671875 12.859375 48.328125 
Q 20.21875 56 33.015625 56 
Q 37.15625 56 41.109375 55.140625 
Q 45.0625 54.296875 48.78125 52.59375 
z
" id="DejaVuSans-63"/>
      <path id="DejaVuSans-20"/>
      <path d="M 8.59375 75.984375 
L 29.296875 75.984375 
L 29.296875 69 
L 17.578125 69 
L 17.578125 -6.203125 
L 29.296875 -6.203125 
L 29.296875 -13.1875 
L 8.59375 -13.1875 
z
" id="DejaVuSans-5b"/>
      <path d="M 52 44.1875 
Q 55.375 50.25 60.0625 53.125 
Q 64.75 56 71.09375 56 
Q 79.640625 56 84.28125 50.015625 
Q 88.921875 44.046875 88.921875 33.015625 
L 88.921875 0 
L 79.890625 0 
L 79.890625 32.71875 
Q 79.890625 40.578125 77.09375 44.375 
Q 74.3125 48.1875 68.609375 48.1875 
Q 61.625 48.1875 57.5625 43.546875 
Q 53.515625 38.921875 53.515625 30.90625 
L 53.515625 0 
L 44.484375 0 
L 44.484375 32.71875 
Q 44.484375 40.625 41.703125 44.40625 
Q 38.921875 48.1875 33.109375 48.1875 
Q 26.21875 48.1875 22.15625 43.53125 
Q 18.109375 38.875 18.109375 30.90625 
L 18.109375 0 
L 9.078125 0 
L 9.078125 54.6875 
L 18.109375 54.6875 
L 18.109375 46.1875 
Q 21.1875 51.21875 25.484375 53.609375 
Q 29.78125 56 35.6875 56 
Q 41.65625 56 45.828125 52.96875 
Q 50 49.953125 52 44.1875 
z
" id="DejaVuSans-6d"/>
      <path d="M 5.515625 54.6875 
L 48.1875 54.6875 
L 48.1875 46.484375 
L 14.40625 7.171875 
L 48.1875 7.171875 
L 48.1875 0 
L 4.296875 0 
L 4.296875 8.203125 
L 38.09375 47.515625 
L 5.515625 47.515625 
z
" id="DejaVuSans-7a"/>
      <path d="M 45.40625 46.390625 
L 45.40625 75.984375 
L 54.390625 75.984375 
L 54.390625 0 
L 45.40625 0 
L 45.40625 8.203125 
Q 42.578125 3.328125 38.25 0.953125 
Q 33.9375 -1.421875 27.875 -1.421875 
Q 17.96875 -1.421875 11.734375 6.484375 
Q 5.515625 14.40625 5.515625 27.296875 
Q 5.515625 40.1875 11.734375 48.09375 
Q 17.96875 56 27.875 56 
Q 33.9375 56 38.25 53.625 
Q 42.578125 51.265625 45.40625 46.390625 
z
M 14.796875 27.296875 
Q 14.796875 17.390625 18.875 11.75 
Q 22.953125 6.109375 30.078125 6.109375 
Q 37.203125 6.109375 41.296875 11.75 
Q 45.40625 17.390625 45.40625 27.296875 
Q 45.40625 37.203125 41.296875 42.84375 
Q 37.203125 48.484375 30.078125 48.484375 
Q 22.953125 48.484375 18.875 42.84375 
Q 14.796875 37.203125 14.796875 27.296875 
z
" id="DejaVuSans-64"/>
      <path d="M 30.421875 75.984375 
L 30.421875 -13.1875 
L 9.71875 -13.1875 
L 9.71875 -6.203125 
L 21.390625 -6.203125 
L 21.390625 69 
L 9.71875 69 
L 9.71875 75.984375 
z
" id="DejaVuSans-5d"/>
     </defs>
     <g transform="translate(14.798438 212.641312)rotate(-90)scale(0.1 -0.1)">
      <use xlink:href="#DejaVuSans-44"/>
      <use x="77.001953" xlink:href="#DejaVuSans-69"/>
      <use x="104.785156" xlink:href="#DejaVuSans-66"/>
      <use x="139.990234" xlink:href="#DejaVuSans-66"/>
      <use x="175.195312" xlink:href="#DejaVuSans-65"/>
      <use x="236.71875" xlink:href="#DejaVuSans-72"/>
      <use x="277.800781" xlink:href="#DejaVuSans-65"/>
      <use x="339.324219" xlink:href="#DejaVuSans-6e"/>
      <use x="402.703125" xlink:href="#DejaVuSans-63"/>
      <use x="457.683594" xlink:href="#DejaVuSans-65"/>
      <use x="519.207031" xlink:href="#DejaVuSans-20"/>
      <use x="550.994141" xlink:href="#DejaVuSans-5b"/>
      <use x="590.007812" xlink:href="#DejaVuSans-6e"/>
      <use x="653.386719" xlink:href="#DejaVuSans-6f"/>
      <use x="714.568359" xlink:href="#DejaVuSans-6d"/>
      <use x="811.980469" xlink:href="#DejaVuSans-61"/>
      <use x="873.259766" xlink:href="#DejaVuSans-6c"/>
      <use x="901.042969" xlink:href="#DejaVuSans-69"/>
      <use x="928.826172" xlink:href="#DejaVuSans-7a"/>
      <use x="981.316406" xlink:href="#DejaVuSans-65"/>
      <use x="1042.839844" xlink:href="#DejaVuSans-64"/>
      <use x="1106.316406" xlink:href="#DejaVuSans-5d"/>
     </g>
    </g>
   </g>
   <g id="line2d_51">
    <path clip-path="url(#ped17fc9a66)" d="M 60.013977 268.98108 
L 66.63958 268.98022 
L 73.265183 268.979105 
L 79.890786 268.977662 
L 86.516389 268.975793 
L 93.141992 268.973372 
L 99.767595 268.970237 
L 106.393198 268.966177 
L 113.018801 268.960918 
L 119.644404 268.954107 
L 126.270007 268.945287 
L 132.89561 268.933863 
L 139.521213 268.919068 
L 146.146816 268.899907 
L 152.772419 268.875091 
L 159.398022 268.842952 
L 166.023625 268.801328 
L 172.649228 268.74742 
L 179.274831 268.677603 
L 185.900434 268.587183 
L 192.526037 268.470078 
L 199.15164 268.318413 
L 205.777243 268.121991 
L 212.402846 267.867601 
L 219.028449 267.538138 
L 225.654051 267.111445 
L 232.279654 266.558831 
L 238.905257 265.843132 
L 245.53086 264.916222 
L 252.156463 263.715769 
L 258.782066 262.161049 
L 265.407669 260.147515 
L 272.033272 257.539767 
L 278.658875 254.16245 
L 285.284478 249.788463 
L 291.910081 244.123691 
L 298.535684 236.787231 
L 305.161287 227.285791 
L 311.78689 214.98053 
L 318.412493 199.044126 
L 325.038096 178.405191 
L 331.663699 151.676297 
L 338.289302 117.060806 
L 344.914905 72.232271 
L 351.540508 14.178355 
L 352.878183 -1 
" style="fill:none;stroke:#1f77b4;stroke-linecap:square;stroke-width:1.5;"/>
   </g>
   <g id="line2d_52">
    <path clip-path="url(#ped17fc9a66)" d="M 60.013977 271.227952 
L 66.63958 271.221496 
L 73.265183 271.213528 
L 79.890786 271.203693 
L 86.516389 271.191554 
L 93.141992 271.176571 
L 99.767595 271.158079 
L 106.393198 271.135254 
L 113.018801 271.107084 
L 119.644404 271.072315 
L 126.270007 271.029404 
L 132.89561 270.976445 
L 139.521213 270.911087 
L 146.146816 270.83043 
L 152.772419 270.730896 
L 159.398022 270.608074 
L 166.023625 270.456524 
L 172.649228 270.269543 
L 179.274831 270.03887 
L 185.900434 269.754327 
L 192.526037 269.403388 
L 199.15164 268.970637 
L 205.777243 268.437123 
L 212.402846 267.779567 
L 219.028449 266.969405 
L 225.654051 265.971645 
L 232.279654 264.743488 
L 238.905257 263.232707 
L 245.53086 261.375741 
L 252.156463 259.095507 
L 258.782066 256.298919 
L 265.407669 252.874177 
L 272.033272 248.687926 
L 278.658875 243.582493 
L 285.284478 237.373541 
L 291.910081 229.848718 
L 298.535684 220.768141 
L 305.161287 209.867948 
L 311.78689 196.868616 
L 318.412493 181.490226 
L 325.038096 163.47724 
L 331.663699 142.635374 
L 338.289302 118.882334 
L 344.914905 92.311852 
L 351.540508 63.265868 
L 358.166111 32.402109 
L 364.791714 0.734371 
L 365.160956 -1 
" style="fill:none;stroke:#ff7f0e;stroke-linecap:square;stroke-width:1.5;"/>
   </g>
   <g id="line2d_53">
    <path clip-path="url(#ped17fc9a66)" d="M 60.013977 269.741016 
L 66.63958 269.717772 
L 73.265183 269.690171 
L 79.890786 269.657396 
L 86.516389 269.618477 
L 93.141992 269.572263 
L 99.767595 269.517387 
L 106.393198 269.452223 
L 113.018801 269.374844 
L 119.644404 269.282961 
L 126.270007 269.173854 
L 132.89561 269.044294 
L 139.521213 268.890449 
L 146.146816 268.707765 
L 152.772419 268.490836 
L 159.398022 268.233245 
L 166.023625 267.927367 
L 172.649228 267.564152 
L 179.274831 267.132852 
L 185.900434 266.620705 
L 192.526037 266.012556 
L 199.15164 265.29041 
L 205.777243 264.432898 
L 212.402846 263.414647 
L 219.028449 262.205526 
L 225.654051 260.76976 
L 232.279654 259.064864 
L 238.905257 257.040394 
L 245.53086 254.63645 
L 252.156463 251.781905 
L 258.782066 248.392304 
L 265.407669 244.367362 
L 272.033272 239.588002 
L 278.658875 233.912836 
L 285.284478 227.173981 
L 291.910081 219.172099 
L 298.535684 209.670513 
L 305.161287 198.388205 
L 311.78689 184.99153 
L 318.412493 169.084359 
L 325.038096 150.196398 
L 331.663699 127.769318 
L 338.289302 101.140308 
L 344.914905 69.522555 
L 351.540508 31.982108 
L 356.443316 -1 
" style="fill:none;stroke:#2ca02c;stroke-linecap:square;stroke-width:1.5;"/>
   </g>
   <g id="line2d_54">
    <path clip-path="url(#ped17fc9a66)" d="M 60.013977 271.144054 
L 66.63958 271.130123 
L 73.265183 271.113071 
L 79.890786 271.092199 
L 86.516389 271.066651 
L 93.141992 271.035382 
L 99.767595 270.99711 
L 106.393198 270.950269 
L 113.018801 270.892945 
L 119.644404 270.822795 
L 126.270007 270.736955 
L 132.89561 270.631926 
L 139.521213 270.503434 
L 146.146816 270.346257 
L 152.772419 270.154025 
L 159.398022 269.918967 
L 166.023625 269.631616 
L 172.649228 269.280446 
L 179.274831 268.851444 
L 185.900434 268.327605 
L 192.526037 267.688322 
L 199.15164 266.908697 
L 205.777243 265.958724 
L 212.402846 264.802385 
L 219.028449 263.396636 
L 225.654051 261.690341 
L 232.279654 259.623181 
L 238.905257 257.124668 
L 245.53086 254.113394 
L 252.156463 250.49678 
L 258.782066 246.171664 
L 265.407669 241.026237 
L 272.033272 234.943986 
L 278.658875 227.810467 
L 285.284478 219.523827 
L 291.910081 210.009974 
L 298.535684 199.242893 
L 305.161287 187.269718 
L 311.78689 174.238462 
L 318.412493 160.423626 
L 325.038096 146.241472 
L 331.663699 132.243457 
L 338.289302 119.075371 
L 344.914905 107.394387 
L 351.540508 97.749661 
L 358.166111 90.453817 
L 364.791714 85.493997 
L 371.417317 82.534024 
L 378.04292 81.026743 
L 384.668523 80.394004 
" style="fill:none;stroke:#d62728;stroke-linecap:square;stroke-width:1.5;"/>
   </g>
   <g id="line2d_55">
    <path clip-path="url(#ped17fc9a66)" d="M 60.013977 273.380622 
L 66.63958 273.304209 
L 73.265183 273.214888 
L 79.890786 273.110484 
L 86.516389 272.988461 
L 93.141992 272.845855 
L 99.767595 272.67921 
L 106.393198 272.484496 
L 113.018801 272.257013 
L 119.644404 271.991288 
L 126.270007 271.680944 
L 132.89561 271.318566 
L 139.521213 270.89553 
L 146.146816 270.40182 
L 152.772419 269.82582 
L 159.398022 269.154071 
L 166.023625 268.371008 
L 172.649228 267.458665 
L 179.274831 266.396349 
L 185.900434 265.160296 
L 192.526037 263.723297 
L 199.15164 262.054321 
L 205.777243 260.118144 
L 212.402846 257.874996 
L 219.028449 255.28028 
L 225.654051 252.284395 
L 232.279654 248.832724 
L 238.905257 244.86588 
L 245.53086 240.320317 
L 252.156463 235.129426 
L 258.782066 229.225295 
L 265.407669 222.541313 
L 272.033272 215.015806 
L 278.658875 206.596914 
L 285.284478 197.248833 
L 291.910081 186.959466 
L 298.535684 175.749329 
L 305.161287 163.681249 
L 311.78689 150.869955 
L 318.412493 137.490148 
L 325.038096 123.780991 
L 331.663699 110.044484 
L 338.289302 96.635005 
L 344.914905 83.937776 
L 351.540508 72.335604 
L 358.166111 62.166043 
L 364.791714 53.674955 
L 371.417317 46.976361 
L 378.04292 42.030555 
L 384.668523 38.650562 
" style="fill:none;stroke:#9467bd;stroke-linecap:square;stroke-width:1.5;"/>
   </g>
   <g id="line2d_56">
    <path clip-path="url(#ped17fc9a66)" d="M 60.013977 272.390919 
L 66.63958 272.238486 
L 73.265183 272.060373 
L 79.890786 271.852278 
L 86.516389 271.609187 
L 93.141992 271.325258 
L 99.767595 270.993694 
L 106.393198 270.606584 
L 113.018801 270.154738 
L 119.644404 269.627487 
L 126.270007 269.012457 
L 132.89561 268.295326 
L 139.521213 267.459536 
L 146.146816 266.485993 
L 152.772419 265.352721 
L 159.398022 264.03451 
L 166.023625 262.502528 
L 172.649228 260.723946 
L 179.274831 258.661552 
L 185.900434 256.273429 
L 192.526037 253.512681 
L 199.15164 250.327309 
L 205.777243 246.660272 
L 212.402846 242.449836 
L 219.028449 237.630339 
L 225.654051 232.1335 
L 232.279654 225.890449 
L 238.905257 218.834689 
L 245.53086 210.906157 
L 252.156463 202.056605 
L 258.782066 192.256389 
L 265.407669 181.502664 
L 272.033272 169.828745 
L 278.658875 157.314029 
L 285.284478 144.093437 
L 291.910081 130.364697 
L 298.535684 116.391254 
L 305.161287 102.49809 
L 311.78689 89.057773 
L 318.412493 76.464843 
L 325.038096 65.098612 
L 331.663699 55.277697 
L 338.289302 47.213664 
L 344.914905 40.974761 
L 351.540508 36.471822 
L 358.166111 33.47488 
L 364.791714 31.660243 
L 371.417317 30.676222 
L 378.04292 30.206991 
L 384.668523 30.014367 
" style="fill:none;stroke:#8c564b;stroke-linecap:square;stroke-width:1.5;"/>
   </g>
   <g id="line2d_57">
    <path clip-path="url(#ped17fc9a66)" d="M 60.013977 272.520912 
L 66.63958 272.212979 
L 73.265183 271.849937 
L 79.890786 271.422081 
L 86.516389 270.918062 
L 93.141992 270.324625 
L 99.767595 269.626333 
L 106.393198 268.805249 
L 113.018801 267.840601 
L 119.644404 266.708425 
L 126.270007 265.381198 
L 132.89561 263.827497 
L 139.521213 262.011682 
L 146.146816 259.893678 
L 152.772419 257.428889 
L 159.398022 254.568348 
L 166.023625 251.25919 
L 172.649228 247.445597 
L 179.274831 243.070386 
L 185.900434 238.077427 
L 192.526037 232.415122 
L 199.15164 226.041129 
L 205.777243 218.928496 
L 212.402846 211.073213 
L 219.028449 202.502963 
L 225.654051 193.286449 
L 232.279654 183.542174 
L 238.905257 173.444855 
L 245.53086 163.226991 
L 252.156463 153.172692 
L 258.782066 143.601025 
L 265.407669 134.837462 
L 272.033272 127.174753 
L 278.658875 120.82876 
L 285.284478 115.899281 
L 291.910081 112.348649 
L 298.535684 110.008983 
L 305.161287 108.620769 
L 311.78689 107.892785 
L 318.412493 107.56268 
L 325.038096 107.436524 
L 331.663699 107.397093 
L 338.289302 107.387362 
L 344.914905 107.385542 
L 351.540508 107.385296 
L 358.166111 107.385273 
L 364.791714 107.385272 
L 371.417317 107.385272 
L 378.04292 107.385272 
L 384.668523 107.385272 
" style="fill:none;stroke:#e377c2;stroke-linecap:square;stroke-width:1.5;"/>
   </g>
   <g id="line2d_58">
    <path clip-path="url(#ped17fc9a66)" d="M 60.013977 276.10623 
L 66.63958 275.235031 
L 73.265183 274.24506 
L 79.890786 273.120563 
L 86.516389 271.843824 
L 93.141992 270.394964 
L 99.767595 268.751727 
L 106.393198 266.889256 
L 113.018801 264.779881 
L 119.644404 262.392905 
L 126.270007 259.694413 
L 132.89561 256.647126 
L 139.521213 253.210293 
L 146.146816 249.339682 
L 152.772419 244.98767 
L 159.398022 240.103501 
L 166.023625 234.633739 
L 172.649228 228.522987 
L 179.274831 221.714936 
L 185.900434 214.153824 
L 192.526037 205.786375 
L 199.15164 196.564313 
L 205.777243 186.447504 
L 212.402846 175.407783 
L 219.028449 163.433458 
L 225.654051 150.534427 
L 232.279654 136.747737 
L 238.905257 122.143267 
L 245.53086 106.82906 
L 252.156463 90.955617 
L 258.782066 74.718266 
L 265.407669 58.356547 
L 272.033272 42.149497 
L 278.658875 26.405826 
L 285.284478 11.448386 
L 291.237277 -1 
" style="fill:none;stroke:#7f7f7f;stroke-linecap:square;stroke-width:1.5;"/>
   </g>
   <g id="line2d_59">
    <path clip-path="url(#ped17fc9a66)" d="M 60.013977 276.560957 
L 66.63958 274.99836 
L 73.265183 273.188796 
L 79.890786 271.095744 
L 86.516389 268.67818 
L 93.141992 265.890344 
L 99.767595 262.681643 
L 106.393198 258.996734 
L 113.018801 254.775889 
L 119.644404 249.955747 
L 126.270007 244.470581 
L 132.89561 238.254238 
L 139.521213 231.242943 
L 146.146816 223.37912 
L 152.772419 214.616426 
L 159.398022 204.926078 
L 166.023625 194.304473 
L 172.649228 182.781882 
L 179.274831 170.431695 
L 185.900434 157.379285 
L 192.526037 143.809021 
L 199.15164 129.967455 
L 205.777243 116.160275 
L 212.402846 102.740531 
L 219.028449 90.086325 
L 225.654051 78.567671 
L 232.279654 68.505031 
L 238.905257 60.125543 
L 245.53086 53.526389 
L 252.156463 48.656324 
L 258.782066 45.324217 
L 265.407669 43.236596 
L 272.033272 42.056072 
L 278.658875 41.463523 
L 285.284478 41.204595 
L 291.910081 41.108285 
L 298.535684 41.078575 
L 305.161287 41.0712 
L 311.78689 41.069777 
L 318.412493 41.069572 
L 325.038096 41.069551 
L 331.663699 41.06955 
L 338.289302 41.06955 
L 344.914905 41.06955 
L 351.540508 41.06955 
L 358.166111 41.06955 
L 364.791714 41.06955 
L 371.417317 41.06955 
L 378.04292 41.06955 
L 384.668523 41.06955 
" style="fill:none;stroke:#bcbd22;stroke-linecap:square;stroke-width:1.5;"/>
   </g>
   <g id="patch_3">
    <path d="M 43.78125 288.430125 
L 43.78125 22.318125 
" style="fill:none;stroke:#000000;stroke-linecap:square;stroke-linejoin:miter;stroke-width:0.8;"/>
   </g>
   <g id="patch_4">
    <path d="M 400.90125 288.430125 
L 400.90125 22.318125 
" style="fill:none;stroke:#000000;stroke-linecap:square;stroke-linejoin:miter;stroke-width:0.8;"/>
   </g>
   <g id="patch_5">
    <path d="M 43.78125 288.430125 
L 400.90125 288.430125 
" style="fill:none;stroke:#000000;stroke-linecap:square;stroke-linejoin:miter;stroke-width:0.8;"/>
   </g>
   <g id="patch_6">
    <path d="M 43.78125 22.318125 
L 400.90125 22.318125 
" style="fill:none;stroke:#000000;stroke-linecap:square;stroke-linejoin:miter;stroke-width:0.8;"/>
   </g>
   <g id="text_15">
    <!-- Difference at FWHM -->
    <defs>
     <path d="M 9.8125 72.90625 
L 51.703125 72.90625 
L 51.703125 64.59375 
L 19.671875 64.59375 
L 19.671875 43.109375 
L 48.578125 43.109375 
L 48.578125 34.8125 
L 19.671875 34.8125 
L 19.671875 0 
L 9.8125 0 
z
" id="DejaVuSans-46"/>
     <path d="M 3.328125 72.90625 
L 13.28125 72.90625 
L 28.609375 11.28125 
L 43.890625 72.90625 
L 54.984375 72.90625 
L 70.3125 11.28125 
L 85.59375 72.90625 
L 95.609375 72.90625 
L 77.296875 0 
L 64.890625 0 
L 49.515625 63.28125 
L 33.984375 0 
L 21.578125 0 
z
" id="DejaVuSans-57"/>
     <path d="M 9.8125 72.90625 
L 19.671875 72.90625 
L 19.671875 43.015625 
L 55.515625 43.015625 
L 55.515625 72.90625 
L 65.375 72.90625 
L 65.375 0 
L 55.515625 0 
L 55.515625 34.71875 
L 19.671875 34.71875 
L 19.671875 0 
L 9.8125 0 
z
" id="DejaVuSans-48"/>
     <path d="M 9.8125 72.90625 
L 24.515625 72.90625 
L 43.109375 23.296875 
L 61.8125 72.90625 
L 76.515625 72.90625 
L 76.515625 0 
L 66.890625 0 
L 66.890625 64.015625 
L 48.09375 14.015625 
L 38.1875 14.015625 
L 19.390625 64.015625 
L 19.390625 0 
L 9.8125 0 
z
" id="DejaVuSans-4d"/>
    </defs>
    <g transform="translate(162.272813 16.318125)scale(0.12 -0.12)">
     <use xlink:href="#DejaVuSans-44"/>
     <use x="77.001953" xlink:href="#DejaVuSans-69"/>
     <use x="104.785156" xlink:href="#DejaVuSans-66"/>
     <use x="139.990234" xlink:href="#DejaVuSans-66"/>
     <use x="175.195312" xlink:href="#DejaVuSans-65"/>
     <use x="236.71875" xlink:href="#DejaVuSans-72"/>
     <use x="277.800781" xlink:href="#DejaVuSans-65"/>
     <use x="339.324219" xlink:href="#DejaVuSans-6e"/>
     <use x="402.703125" xlink:href="#DejaVuSans-63"/>
     <use x="457.683594" xlink:href="#DejaVuSans-65"/>
     <use x="519.207031" xlink:href="#DejaVuSans-20"/>
     <use x="550.994141" xlink:href="#DejaVuSans-61"/>
     <use x="612.273438" xlink:href="#DejaVuSans-74"/>
     <use x="651.482422" xlink:href="#DejaVuSans-20"/>
     <use x="683.269531" xlink:href="#DejaVuSans-46"/>
     <use x="740.789062" xlink:href="#DejaVuSans-57"/>
     <use x="839.666016" xlink:href="#DejaVuSans-48"/>
     <use x="914.861328" xlink:href="#DejaVuSans-4d"/>
    </g>
   </g>
   <g id="legend_1">
    <g id="patch_7">
     <path d="M 50.78125 162.42125 
L 117.771875 162.42125 
Q 119.771875 162.42125 119.771875 160.42125 
L 119.771875 29.318125 
Q 119.771875 27.318125 117.771875 27.318125 
L 50.78125 27.318125 
Q 48.78125 27.318125 48.78125 29.318125 
L 48.78125 160.42125 
Q 48.78125 162.42125 50.78125 162.42125 
z
" style="fill:#ffffff;opacity:0.8;stroke:#cccccc;stroke-linejoin:miter;"/>
    </g>
    <g id="PathCollection_10">
     <g>
      <use style="fill:#1f77b4;stroke:#1f77b4;" x="62.78125" xlink:href="#ma5e8056d46" y="36.291562"/>
     </g>
    </g>
    <g id="text_16">
     <!-- 305.57 -->
     <g transform="translate(80.78125 38.916562)scale(0.1 -0.1)">
      <use xlink:href="#DejaVuSans-33"/>
      <use x="63.623047" xlink:href="#DejaVuSans-30"/>
      <use x="127.246094" xlink:href="#DejaVuSans-35"/>
      <use x="190.869141" xlink:href="#DejaVuSans-2e"/>
      <use x="222.65625" xlink:href="#DejaVuSans-35"/>
      <use x="286.279297" xlink:href="#DejaVuSans-37"/>
     </g>
    </g>
    <g id="PathCollection_11">
     <g>
      <use style="fill:#ff7f0e;stroke:#ff7f0e;" x="62.78125" xlink:href="#m488d46bd8e" y="50.969688"/>
     </g>
    </g>
    <g id="text_17">
     <!-- 310.27 -->
     <g transform="translate(80.78125 53.594688)scale(0.1 -0.1)">
      <use xlink:href="#DejaVuSans-33"/>
      <use x="63.623047" xlink:href="#DejaVuSans-31"/>
      <use x="127.246094" xlink:href="#DejaVuSans-30"/>
      <use x="190.869141" xlink:href="#DejaVuSans-2e"/>
      <use x="222.65625" xlink:href="#DejaVuSans-32"/>
      <use x="286.279297" xlink:href="#DejaVuSans-37"/>
     </g>
    </g>
    <g id="PathCollection_12">
     <g>
      <use style="fill:#2ca02c;stroke:#2ca02c;" x="62.78125" xlink:href="#m245b2bc852" y="65.647812"/>
     </g>
    </g>
    <g id="text_18">
     <!-- 315.03 -->
     <g transform="translate(80.78125 68.272812)scale(0.1 -0.1)">
      <use xlink:href="#DejaVuSans-33"/>
      <use x="63.623047" xlink:href="#DejaVuSans-31"/>
      <use x="127.246094" xlink:href="#DejaVuSans-35"/>
      <use x="190.869141" xlink:href="#DejaVuSans-2e"/>
      <use x="222.65625" xlink:href="#DejaVuSans-30"/>
      <use x="286.279297" xlink:href="#DejaVuSans-33"/>
     </g>
    </g>
    <g id="PathCollection_13">
     <g>
      <use style="fill:#d62728;stroke:#d62728;" x="62.78125" xlink:href="#mfc9c73ff45" y="80.325938"/>
     </g>
    </g>
    <g id="text_19">
     <!-- 319.86 -->
     <defs>
      <path d="M 10.984375 1.515625 
L 10.984375 10.5 
Q 14.703125 8.734375 18.5 7.8125 
Q 22.3125 6.890625 25.984375 6.890625 
Q 35.75 6.890625 40.890625 13.453125 
Q 46.046875 20.015625 46.78125 33.40625 
Q 43.953125 29.203125 39.59375 26.953125 
Q 35.25 24.703125 29.984375 24.703125 
Q 19.046875 24.703125 12.671875 31.3125 
Q 6.296875 37.9375 6.296875 49.421875 
Q 6.296875 60.640625 12.9375 67.421875 
Q 19.578125 74.21875 30.609375 74.21875 
Q 43.265625 74.21875 49.921875 64.515625 
Q 56.59375 54.828125 56.59375 36.375 
Q 56.59375 19.140625 48.40625 8.859375 
Q 40.234375 -1.421875 26.421875 -1.421875 
Q 22.703125 -1.421875 18.890625 -0.6875 
Q 15.09375 0.046875 10.984375 1.515625 
z
M 30.609375 32.421875 
Q 37.25 32.421875 41.125 36.953125 
Q 45.015625 41.5 45.015625 49.421875 
Q 45.015625 57.28125 41.125 61.84375 
Q 37.25 66.40625 30.609375 66.40625 
Q 23.96875 66.40625 20.09375 61.84375 
Q 16.21875 57.28125 16.21875 49.421875 
Q 16.21875 41.5 20.09375 36.953125 
Q 23.96875 32.421875 30.609375 32.421875 
z
" id="DejaVuSans-39"/>
      <path d="M 31.78125 34.625 
Q 24.75 34.625 20.71875 30.859375 
Q 16.703125 27.09375 16.703125 20.515625 
Q 16.703125 13.921875 20.71875 10.15625 
Q 24.75 6.390625 31.78125 6.390625 
Q 38.8125 6.390625 42.859375 10.171875 
Q 46.921875 13.96875 46.921875 20.515625 
Q 46.921875 27.09375 42.890625 30.859375 
Q 38.875 34.625 31.78125 34.625 
z
M 21.921875 38.8125 
Q 15.578125 40.375 12.03125 44.71875 
Q 8.5 49.078125 8.5 55.328125 
Q 8.5 64.0625 14.71875 69.140625 
Q 20.953125 74.21875 31.78125 74.21875 
Q 42.671875 74.21875 48.875 69.140625 
Q 55.078125 64.0625 55.078125 55.328125 
Q 55.078125 49.078125 51.53125 44.71875 
Q 48 40.375 41.703125 38.8125 
Q 48.828125 37.15625 52.796875 32.3125 
Q 56.78125 27.484375 56.78125 20.515625 
Q 56.78125 9.90625 50.3125 4.234375 
Q 43.84375 -1.421875 31.78125 -1.421875 
Q 19.734375 -1.421875 13.25 4.234375 
Q 6.78125 9.90625 6.78125 20.515625 
Q 6.78125 27.484375 10.78125 32.3125 
Q 14.796875 37.15625 21.921875 38.8125 
z
M 18.3125 54.390625 
Q 18.3125 48.734375 21.84375 45.5625 
Q 25.390625 42.390625 31.78125 42.390625 
Q 38.140625 42.390625 41.71875 45.5625 
Q 45.3125 48.734375 45.3125 54.390625 
Q 45.3125 60.0625 41.71875 63.234375 
Q 38.140625 66.40625 31.78125 66.40625 
Q 25.390625 66.40625 21.84375 63.234375 
Q 18.3125 60.0625 18.3125 54.390625 
z
" id="DejaVuSans-38"/>
     </defs>
     <g transform="translate(80.78125 82.950938)scale(0.1 -0.1)">
      <use xlink:href="#DejaVuSans-33"/>
      <use x="63.623047" xlink:href="#DejaVuSans-31"/>
      <use x="127.246094" xlink:href="#DejaVuSans-39"/>
      <use x="190.869141" xlink:href="#DejaVuSans-2e"/>
      <use x="222.65625" xlink:href="#DejaVuSans-38"/>
      <use x="286.279297" xlink:href="#DejaVuSans-36"/>
     </g>
    </g>
    <g id="PathCollection_14">
     <g>
      <use style="fill:#9467bd;stroke:#9467bd;" x="62.78125" xlink:href="#m0321cd527e" y="95.004063"/>
     </g>
    </g>
    <g id="text_20">
     <!-- 324.66 -->
     <g transform="translate(80.78125 97.629063)scale(0.1 -0.1)">
      <use xlink:href="#DejaVuSans-33"/>
      <use x="63.623047" xlink:href="#DejaVuSans-32"/>
      <use x="127.246094" xlink:href="#DejaVuSans-34"/>
      <use x="190.869141" xlink:href="#DejaVuSans-2e"/>
      <use x="222.65625" xlink:href="#DejaVuSans-36"/>
      <use x="286.279297" xlink:href="#DejaVuSans-36"/>
     </g>
    </g>
    <g id="PathCollection_15">
     <g>
      <use style="fill:#8c564b;stroke:#8c564b;" x="62.78125" xlink:href="#mc7924e2a46" y="109.682187"/>
     </g>
    </g>
    <g id="text_21">
     <!-- 329.46 -->
     <g transform="translate(80.78125 112.307187)scale(0.1 -0.1)">
      <use xlink:href="#DejaVuSans-33"/>
      <use x="63.623047" xlink:href="#DejaVuSans-32"/>
      <use x="127.246094" xlink:href="#DejaVuSans-39"/>
      <use x="190.869141" xlink:href="#DejaVuSans-2e"/>
      <use x="222.65625" xlink:href="#DejaVuSans-34"/>
      <use x="286.279297" xlink:href="#DejaVuSans-36"/>
     </g>
    </g>
    <g id="PathCollection_16">
     <g>
      <use style="fill:#e377c2;stroke:#e377c2;" x="62.78125" xlink:href="#m18c314a169" y="124.360312"/>
     </g>
    </g>
    <g id="text_22">
     <!-- 334.27 -->
     <g transform="translate(80.78125 126.985312)scale(0.1 -0.1)">
      <use xlink:href="#DejaVuSans-33"/>
      <use x="63.623047" xlink:href="#DejaVuSans-33"/>
      <use x="127.246094" xlink:href="#DejaVuSans-34"/>
      <use x="190.869141" xlink:href="#DejaVuSans-2e"/>
      <use x="222.65625" xlink:href="#DejaVuSans-32"/>
      <use x="286.279297" xlink:href="#DejaVuSans-37"/>
     </g>
    </g>
    <g id="PathCollection_17">
     <g>
      <use style="fill:#7f7f7f;stroke:#7f7f7f;" x="62.78125" xlink:href="#m27b7fb15c2" y="139.038437"/>
     </g>
    </g>
    <g id="text_23">
     <!-- 339.06 -->
     <g transform="translate(80.78125 141.663437)scale(0.1 -0.1)">
      <use xlink:href="#DejaVuSans-33"/>
      <use x="63.623047" xlink:href="#DejaVuSans-33"/>
      <use x="127.246094" xlink:href="#DejaVuSans-39"/>
      <use x="190.869141" xlink:href="#DejaVuSans-2e"/>
      <use x="222.65625" xlink:href="#DejaVuSans-30"/>
      <use x="286.279297" xlink:href="#DejaVuSans-36"/>
     </g>
    </g>
    <g id="PathCollection_18">
     <g>
      <use style="fill:#bcbd22;stroke:#bcbd22;" x="62.78125" xlink:href="#m173d105c34" y="153.716562"/>
     </g>
    </g>
    <g id="text_24">
     <!-- 343.82 -->
     <g transform="translate(80.78125 156.341562)scale(0.1 -0.1)">
      <use xlink:href="#DejaVuSans-33"/>
      <use x="63.623047" xlink:href="#DejaVuSans-34"/>
      <use x="127.246094" xlink:href="#DejaVuSans-33"/>
      <use x="190.869141" xlink:href="#DejaVuSans-2e"/>
      <use x="222.65625" xlink:href="#DejaVuSans-38"/>
      <use x="286.279297" xlink:href="#DejaVuSans-32"/>
     </g>
    </g>
   </g>
  </g>
 </g>
 <defs>
  <clipPath id="ped17fc9a66">
   <rect height="266.112" width="357.12" x="43.78125" y="22.318125"/>
  </clipPath>
 </defs>
</svg>
