<?xml version="1.0" encoding="utf-8" standalone="no"?>
<!DOCTYPE svg PUBLIC "-//W3C//DTD SVG 1.1//EN"
  "http://www.w3.org/Graphics/SVG/1.1/DTD/svg11.dtd">
<!-- Created with matplotlib (http://matplotlib.org/) -->
<svg height="325pt" version="1.1" viewBox="0 0 408 325" width="408pt" xmlns="http://www.w3.org/2000/svg" xmlns:xlink="http://www.w3.org/1999/xlink">
 <defs>
  <style type="text/css">
*{stroke-linecap:butt;stroke-linejoin:round;}
  </style>
 </defs>
 <g id="figure_1">
  <g id="patch_1">
   <path d="M 0 325.986375 
L 408.423125 325.986375 
L 408.423125 0 
L 0 0 
z
" style="fill:#ffffff;"/>
  </g>
  <g id="axes_1">
   <g id="patch_2">
    <path d="M 40.603125 288.430125 
L 397.723125 288.430125 
L 397.723125 22.318125 
L 40.603125 22.318125 
z
" style="fill:#ffffff;"/>
   </g>
   <g id="PathCollection_1">
    <defs>
     <path d="M 0 3 
C 0.795609 3 1.55874 2.683901 2.12132 2.12132 
C 2.683901 1.55874 3 0.795609 3 0 
C 3 -0.795609 2.683901 -1.55874 2.12132 -2.12132 
C 1.55874 -2.683901 0.795609 -3 0 -3 
C -0.795609 -3 -1.55874 -2.683901 -2.12132 -2.12132 
C -2.683901 -1.55874 -3 -0.795609 -3 0 
C -3 0.795609 -2.683901 1.55874 -2.12132 2.12132 
C -1.55874 2.683901 -0.795609 3 0 3 
z
" id="m755cbd5cef" style="stroke:#1f77b4;"/>
    </defs>
    <g clip-path="url(#pc7b615bb56)">
     <use style="fill:#1f77b4;stroke:#1f77b4;" x="74.154334" xlink:href="#m755cbd5cef" y="37.11877"/>
     <use style="fill:#1f77b4;stroke:#1f77b4;" x="95.973041" xlink:href="#m755cbd5cef" y="36.33831"/>
     <use style="fill:#1f77b4;stroke:#1f77b4;" x="118.132089" xlink:href="#m755cbd5cef" y="34.461365"/>
     <use style="fill:#1f77b4;stroke:#1f77b4;" x="139.950795" xlink:href="#m755cbd5cef" y="36.872585"/>
     <use style="fill:#1f77b4;stroke:#1f77b4;" x="161.52473" xlink:href="#m755cbd5cef" y="37.292788"/>
     <use style="fill:#1f77b4;stroke:#1f77b4;" x="183.490468" xlink:href="#m755cbd5cef" y="38.398585"/>
     <use style="fill:#1f77b4;stroke:#1f77b4;" x="205.265118" xlink:href="#m755cbd5cef" y="44.424016"/>
     <use style="fill:#1f77b4;stroke:#1f77b4;" x="227.136687" xlink:href="#m755cbd5cef" y="48.276264"/>
     <use style="fill:#1f77b4;stroke:#1f77b4;" x="249.034564" xlink:href="#m755cbd5cef" y="61.210599"/>
     <use style="fill:#1f77b4;stroke:#1f77b4;" x="270.853271" xlink:href="#m755cbd5cef" y="77.930834"/>
     <use style="fill:#1f77b4;stroke:#1f77b4;" x="284.007684" xlink:href="#m755cbd5cef" y="110.016411"/>
     <use style="fill:#1f77b4;stroke:#1f77b4;" x="297.175619" xlink:href="#m755cbd5cef" y="148.334029"/>
     <use style="fill:#1f77b4;stroke:#1f77b4;" x="310.330801" xlink:href="#m755cbd5cef" y="254.336909"/>
     <use style="fill:#1f77b4;stroke:#1f77b4;" x="323.490861" xlink:href="#m755cbd5cef" y="265.854078"/>
     <use style="fill:#1f77b4;stroke:#1f77b4;" x="336.649732" xlink:href="#m755cbd5cef" y="269.762198"/>
    </g>
   </g>
   <g id="PathCollection_2">
    <defs>
     <path d="M 0 3 
C 0.795609 3 1.55874 2.683901 2.12132 2.12132 
C 2.683901 1.55874 3 0.795609 3 0 
C 3 -0.795609 2.683901 -1.55874 2.12132 -2.12132 
C 1.55874 -2.683901 0.795609 -3 0 -3 
C -0.795609 -3 -1.55874 -2.683901 -2.12132 -2.12132 
C -2.683901 -1.55874 -3 -0.795609 -3 0 
C -3 0.795609 -2.683901 1.55874 -2.12132 2.12132 
C -1.55874 2.683901 -0.795609 3 0 3 
z
" id="mf7658d559c" style="stroke:#ff7f0e;"/>
    </defs>
    <g clip-path="url(#pc7b615bb56)">
     <use style="fill:#ff7f0e;stroke:#ff7f0e;" x="74.154334" xlink:href="#mf7658d559c" y="37.944044"/>
     <use style="fill:#ff7f0e;stroke:#ff7f0e;" x="95.973041" xlink:href="#mf7658d559c" y="36.822533"/>
     <use style="fill:#ff7f0e;stroke:#ff7f0e;" x="118.132089" xlink:href="#mf7658d559c" y="36.709043"/>
     <use style="fill:#ff7f0e;stroke:#ff7f0e;" x="139.950795" xlink:href="#mf7658d559c" y="38.296153"/>
     <use style="fill:#ff7f0e;stroke:#ff7f0e;" x="161.52473" xlink:href="#mf7658d559c" y="37.753731"/>
     <use style="fill:#ff7f0e;stroke:#ff7f0e;" x="183.490468" xlink:href="#mf7658d559c" y="40.618327"/>
     <use style="fill:#ff7f0e;stroke:#ff7f0e;" x="205.265118" xlink:href="#mf7658d559c" y="44.460682"/>
     <use style="fill:#ff7f0e;stroke:#ff7f0e;" x="227.136687" xlink:href="#mf7658d559c" y="54.403544"/>
     <use style="fill:#ff7f0e;stroke:#ff7f0e;" x="249.034564" xlink:href="#mf7658d559c" y="66.848418"/>
     <use style="fill:#ff7f0e;stroke:#ff7f0e;" x="270.853271" xlink:href="#mf7658d559c" y="88.342205"/>
     <use style="fill:#ff7f0e;stroke:#ff7f0e;" x="284.007684" xlink:href="#mf7658d559c" y="120.411487"/>
     <use style="fill:#ff7f0e;stroke:#ff7f0e;" x="297.175619" xlink:href="#mf7658d559c" y="164.401262"/>
     <use style="fill:#ff7f0e;stroke:#ff7f0e;" x="310.330801" xlink:href="#mf7658d559c" y="265.607311"/>
     <use style="fill:#ff7f0e;stroke:#ff7f0e;" x="323.490861" xlink:href="#mf7658d559c" y="248.444175"/>
     <use style="fill:#ff7f0e;stroke:#ff7f0e;" x="336.649732" xlink:href="#mf7658d559c" y="268.255404"/>
    </g>
   </g>
   <g id="PathCollection_3">
    <defs>
     <path d="M 0 3 
C 0.795609 3 1.55874 2.683901 2.12132 2.12132 
C 2.683901 1.55874 3 0.795609 3 0 
C 3 -0.795609 2.683901 -1.55874 2.12132 -2.12132 
C 1.55874 -2.683901 0.795609 -3 0 -3 
C -0.795609 -3 -1.55874 -2.683901 -2.12132 -2.12132 
C -2.683901 -1.55874 -3 -0.795609 -3 0 
C -3 0.795609 -2.683901 1.55874 -2.12132 2.12132 
C -1.55874 2.683901 -0.795609 3 0 3 
z
" id="mc50c7fb09e" style="stroke:#2ca02c;"/>
    </defs>
    <g clip-path="url(#pc7b615bb56)">
     <use style="fill:#2ca02c;stroke:#2ca02c;" x="74.154334" xlink:href="#mc50c7fb09e" y="37.572729"/>
     <use style="fill:#2ca02c;stroke:#2ca02c;" x="95.973041" xlink:href="#mc50c7fb09e" y="37.20898"/>
     <use style="fill:#2ca02c;stroke:#2ca02c;" x="118.132089" xlink:href="#mc50c7fb09e" y="36.966287"/>
     <use style="fill:#2ca02c;stroke:#2ca02c;" x="139.950795" xlink:href="#mc50c7fb09e" y="38.7117"/>
     <use style="fill:#2ca02c;stroke:#2ca02c;" x="161.52473" xlink:href="#mc50c7fb09e" y="39.589354"/>
     <use style="fill:#2ca02c;stroke:#2ca02c;" x="183.490468" xlink:href="#mc50c7fb09e" y="43.811171"/>
     <use style="fill:#2ca02c;stroke:#2ca02c;" x="205.265118" xlink:href="#mc50c7fb09e" y="48.903076"/>
     <use style="fill:#2ca02c;stroke:#2ca02c;" x="227.136687" xlink:href="#mc50c7fb09e" y="57.226237"/>
     <use style="fill:#2ca02c;stroke:#2ca02c;" x="249.034564" xlink:href="#mc50c7fb09e" y="73.522195"/>
     <use style="fill:#2ca02c;stroke:#2ca02c;" x="270.853271" xlink:href="#mc50c7fb09e" y="108.752893"/>
     <use style="fill:#2ca02c;stroke:#2ca02c;" x="284.007684" xlink:href="#mc50c7fb09e" y="131.386233"/>
     <use style="fill:#2ca02c;stroke:#2ca02c;" x="297.175619" xlink:href="#mc50c7fb09e" y="185.106441"/>
     <use style="fill:#2ca02c;stroke:#2ca02c;" x="310.330801" xlink:href="#mc50c7fb09e" y="264.860024"/>
     <use style="fill:#2ca02c;stroke:#2ca02c;" x="323.490861" xlink:href="#mc50c7fb09e" y="263.347992"/>
     <use style="fill:#2ca02c;stroke:#2ca02c;" x="336.649732" xlink:href="#mc50c7fb09e" y="268.026096"/>
    </g>
   </g>
   <g id="PathCollection_4">
    <defs>
     <path d="M 0 3 
C 0.795609 3 1.55874 2.683901 2.12132 2.12132 
C 2.683901 1.55874 3 0.795609 3 0 
C 3 -0.795609 2.683901 -1.55874 2.12132 -2.12132 
C 1.55874 -2.683901 0.795609 -3 0 -3 
C -0.795609 -3 -1.55874 -2.683901 -2.12132 -2.12132 
C -2.683901 -1.55874 -3 -0.795609 -3 0 
C -3 0.795609 -2.683901 1.55874 -2.12132 2.12132 
C -1.55874 2.683901 -0.795609 3 0 3 
z
" id="m52d5084888" style="stroke:#d62728;"/>
    </defs>
    <g clip-path="url(#pc7b615bb56)">
     <use style="fill:#d62728;stroke:#d62728;" x="74.154334" xlink:href="#m52d5084888" y="40.18241"/>
     <use style="fill:#d62728;stroke:#d62728;" x="95.973041" xlink:href="#m52d5084888" y="39.385655"/>
     <use style="fill:#d62728;stroke:#d62728;" x="118.132089" xlink:href="#m52d5084888" y="39.928077"/>
     <use style="fill:#d62728;stroke:#d62728;" x="139.950795" xlink:href="#m52d5084888" y="42.352683"/>
     <use style="fill:#d62728;stroke:#d62728;" x="161.52473" xlink:href="#m52d5084888" y="41.429051"/>
     <use style="fill:#d62728;stroke:#d62728;" x="183.490468" xlink:href="#m52d5084888" y="46.098425"/>
     <use style="fill:#d62728;stroke:#d62728;" x="205.265118" xlink:href="#m52d5084888" y="51.110596"/>
     <use style="fill:#d62728;stroke:#d62728;" x="227.136687" xlink:href="#m52d5084888" y="63.906416"/>
     <use style="fill:#d62728;stroke:#d62728;" x="249.034564" xlink:href="#m52d5084888" y="80.330414"/>
     <use style="fill:#d62728;stroke:#d62728;" x="270.853271" xlink:href="#m52d5084888" y="106.172893"/>
     <use style="fill:#d62728;stroke:#d62728;" x="284.007684" xlink:href="#m52d5084888" y="151.019952"/>
     <use style="fill:#d62728;stroke:#d62728;" x="297.175619" xlink:href="#m52d5084888" y="204.100544"/>
     <use style="fill:#d62728;stroke:#d62728;" x="310.330801" xlink:href="#m52d5084888" y="266.044973"/>
     <use style="fill:#d62728;stroke:#d62728;" x="323.490861" xlink:href="#m52d5084888" y="268.457357"/>
     <use style="fill:#d62728;stroke:#d62728;" x="336.649732" xlink:href="#m52d5084888" y="270.185311"/>
    </g>
   </g>
   <g id="PathCollection_5">
    <defs>
     <path d="M 0 3 
C 0.795609 3 1.55874 2.683901 2.12132 2.12132 
C 2.683901 1.55874 3 0.795609 3 0 
C 3 -0.795609 2.683901 -1.55874 2.12132 -2.12132 
C 1.55874 -2.683901 0.795609 -3 0 -3 
C -0.795609 -3 -1.55874 -2.683901 -2.12132 -2.12132 
C -2.683901 -1.55874 -3 -0.795609 -3 0 
C -3 0.795609 -2.683901 1.55874 -2.12132 2.12132 
C -1.55874 2.683901 -0.795609 3 0 3 
z
" id="m9452fea787" style="stroke:#9467bd;"/>
    </defs>
    <g clip-path="url(#pc7b615bb56)">
     <use style="fill:#9467bd;stroke:#9467bd;" x="74.154334" xlink:href="#m9452fea787" y="42.399825"/>
     <use style="fill:#9467bd;stroke:#9467bd;" x="95.973041" xlink:href="#m9452fea787" y="42.200199"/>
     <use style="fill:#9467bd;stroke:#9467bd;" x="118.132089" xlink:href="#m9452fea787" y="42.568022"/>
     <use style="fill:#9467bd;stroke:#9467bd;" x="139.950795" xlink:href="#m9452fea787" y="45.506533"/>
     <use style="fill:#9467bd;stroke:#9467bd;" x="161.52473" xlink:href="#m9452fea787" y="46.033241"/>
     <use style="fill:#9467bd;stroke:#9467bd;" x="183.490468" xlink:href="#m9452fea787" y="52.205918"/>
     <use style="fill:#9467bd;stroke:#9467bd;" x="205.265118" xlink:href="#m9452fea787" y="61.842067"/>
     <use style="fill:#9467bd;stroke:#9467bd;" x="227.136687" xlink:href="#m9452fea787" y="77.305185"/>
     <use style="fill:#9467bd;stroke:#9467bd;" x="249.034564" xlink:href="#m9452fea787" y="102.93058"/>
     <use style="fill:#9467bd;stroke:#9467bd;" x="270.853271" xlink:href="#m9452fea787" y="157.683835"/>
     <use style="fill:#9467bd;stroke:#9467bd;" x="284.007684" xlink:href="#m9452fea787" y="173.889002"/>
     <use style="fill:#9467bd;stroke:#9467bd;" x="297.175619" xlink:href="#m9452fea787" y="248.75729"/>
     <use style="fill:#9467bd;stroke:#9467bd;" x="310.330801" xlink:href="#m9452fea787" y="266.717182"/>
     <use style="fill:#9467bd;stroke:#9467bd;" x="323.490861" xlink:href="#m9452fea787" y="269.221521"/>
     <use style="fill:#9467bd;stroke:#9467bd;" x="336.649732" xlink:href="#m9452fea787" y="268.851952"/>
    </g>
   </g>
   <g id="PathCollection_6">
    <defs>
     <path d="M 0 3 
C 0.795609 3 1.55874 2.683901 2.12132 2.12132 
C 2.683901 1.55874 3 0.795609 3 0 
C 3 -0.795609 2.683901 -1.55874 2.12132 -2.12132 
C 1.55874 -2.683901 0.795609 -3 0 -3 
C -0.795609 -3 -1.55874 -2.683901 -2.12132 -2.12132 
C -2.683901 -1.55874 -3 -0.795609 -3 0 
C -3 0.795609 -2.683901 1.55874 -2.12132 2.12132 
C -1.55874 2.683901 -0.795609 3 0 3 
z
" id="me8a3790431" style="stroke:#8c564b;"/>
    </defs>
    <g clip-path="url(#pc7b615bb56)">
     <use style="fill:#8c564b;stroke:#8c564b;" x="74.154334" xlink:href="#me8a3790431" y="45.740496"/>
     <use style="fill:#8c564b;stroke:#8c564b;" x="95.973041" xlink:href="#me8a3790431" y="45.816738"/>
     <use style="fill:#8c564b;stroke:#8c564b;" x="118.132089" xlink:href="#me8a3790431" y="47.257184"/>
     <use style="fill:#8c564b;stroke:#8c564b;" x="139.950795" xlink:href="#me8a3790431" y="51.781059"/>
     <use style="fill:#8c564b;stroke:#8c564b;" x="161.52473" xlink:href="#me8a3790431" y="57.50967"/>
     <use style="fill:#8c564b;stroke:#8c564b;" x="183.490468" xlink:href="#me8a3790431" y="68.824885"/>
     <use style="fill:#8c564b;stroke:#8c564b;" x="205.265118" xlink:href="#me8a3790431" y="87.706081"/>
     <use style="fill:#8c564b;stroke:#8c564b;" x="227.136687" xlink:href="#me8a3790431" y="114.31447"/>
     <use style="fill:#8c564b;stroke:#8c564b;" x="249.034564" xlink:href="#me8a3790431" y="144.779764"/>
     <use style="fill:#8c564b;stroke:#8c564b;" x="270.853271" xlink:href="#me8a3790431" y="217.786239"/>
    </g>
   </g>
   <g id="PathCollection_7">
    <defs>
     <path d="M 0 3 
C 0.795609 3 1.55874 2.683901 2.12132 2.12132 
C 2.683901 1.55874 3 0.795609 3 0 
C 3 -0.795609 2.683901 -1.55874 2.12132 -2.12132 
C 1.55874 -2.683901 0.795609 -3 0 -3 
C -0.795609 -3 -1.55874 -2.683901 -2.12132 -2.12132 
C -2.683901 -1.55874 -3 -0.795609 -3 0 
C -3 0.795609 -2.683901 1.55874 -2.12132 2.12132 
C -1.55874 2.683901 -0.795609 3 0 3 
z
" id="mbfd5002e5b" style="stroke:#e377c2;"/>
    </defs>
    <g clip-path="url(#pc7b615bb56)">
     <use style="fill:#e377c2;stroke:#e377c2;" x="74.154334" xlink:href="#mbfd5002e5b" y="49.243545"/>
     <use style="fill:#e377c2;stroke:#e377c2;" x="95.973041" xlink:href="#mbfd5002e5b" y="51.083825"/>
     <use style="fill:#e377c2;stroke:#e377c2;" x="118.132089" xlink:href="#mbfd5002e5b" y="54.892423"/>
     <use style="fill:#e377c2;stroke:#e377c2;" x="139.950795" xlink:href="#mbfd5002e5b" y="62.86231"/>
     <use style="fill:#e377c2;stroke:#e377c2;" x="161.52473" xlink:href="#mbfd5002e5b" y="75.639506"/>
     <use style="fill:#e377c2;stroke:#e377c2;" x="183.490468" xlink:href="#mbfd5002e5b" y="95.274971"/>
     <use style="fill:#e377c2;stroke:#e377c2;" x="205.265118" xlink:href="#mbfd5002e5b" y="127.476949"/>
     <use style="fill:#e377c2;stroke:#e377c2;" x="227.136687" xlink:href="#mbfd5002e5b" y="170.037918"/>
     <use style="fill:#e377c2;stroke:#e377c2;" x="249.034564" xlink:href="#mbfd5002e5b" y="229.739906"/>
     <use style="fill:#e377c2;stroke:#e377c2;" x="270.853271" xlink:href="#mbfd5002e5b" y="267.793879"/>
    </g>
   </g>
   <g id="PathCollection_8">
    <defs>
     <path d="M 0 3 
C 0.795609 3 1.55874 2.683901 2.12132 2.12132 
C 2.683901 1.55874 3 0.795609 3 0 
C 3 -0.795609 2.683901 -1.55874 2.12132 -2.12132 
C 1.55874 -2.683901 0.795609 -3 0 -3 
C -0.795609 -3 -1.55874 -2.683901 -2.12132 -2.12132 
C -2.683901 -1.55874 -3 -0.795609 -3 0 
C -3 0.795609 -2.683901 1.55874 -2.12132 2.12132 
C -1.55874 2.683901 -0.795609 3 0 3 
z
" id="m3c62b9a56d" style="stroke:#7f7f7f;"/>
    </defs>
    <g clip-path="url(#pc7b615bb56)">
     <use style="fill:#7f7f7f;stroke:#7f7f7f;" x="74.154334" xlink:href="#m3c62b9a56d" y="59.193392"/>
     <use style="fill:#7f7f7f;stroke:#7f7f7f;" x="95.973041" xlink:href="#m3c62b9a56d" y="62.693531"/>
     <use style="fill:#7f7f7f;stroke:#7f7f7f;" x="118.132089" xlink:href="#m3c62b9a56d" y="70.567389"/>
     <use style="fill:#7f7f7f;stroke:#7f7f7f;" x="139.950795" xlink:href="#m3c62b9a56d" y="85.72263"/>
     <use style="fill:#7f7f7f;stroke:#7f7f7f;" x="161.52473" xlink:href="#m3c62b9a56d" y="109.269707"/>
     <use style="fill:#7f7f7f;stroke:#7f7f7f;" x="183.490468" xlink:href="#m3c62b9a56d" y="142.144475"/>
     <use style="fill:#7f7f7f;stroke:#7f7f7f;" x="205.265118" xlink:href="#m3c62b9a56d" y="183.74049"/>
     <use style="fill:#7f7f7f;stroke:#7f7f7f;" x="227.136687" xlink:href="#m3c62b9a56d" y="240.883432"/>
     <use style="fill:#7f7f7f;stroke:#7f7f7f;" x="249.034564" xlink:href="#m3c62b9a56d" y="259.727962"/>
    </g>
   </g>
   <g id="PathCollection_9">
    <defs>
     <path d="M 0 3 
C 0.795609 3 1.55874 2.683901 2.12132 2.12132 
C 2.683901 1.55874 3 0.795609 3 0 
C 3 -0.795609 2.683901 -1.55874 2.12132 -2.12132 
C 1.55874 -2.683901 0.795609 -3 0 -3 
C -0.795609 -3 -1.55874 -2.683901 -2.12132 -2.12132 
C -2.683901 -1.55874 -3 -0.795609 -3 0 
C -3 0.795609 -2.683901 1.55874 -2.12132 2.12132 
C -1.55874 2.683901 -0.795609 3 0 3 
z
" id="m8a4a36b26a" style="stroke:#bcbd22;"/>
    </defs>
    <g clip-path="url(#pc7b615bb56)">
     <use style="fill:#bcbd22;stroke:#bcbd22;" x="74.154334" xlink:href="#m8a4a36b26a" y="68.982607"/>
     <use style="fill:#bcbd22;stroke:#bcbd22;" x="95.973041" xlink:href="#m8a4a36b26a" y="79.138481"/>
     <use style="fill:#bcbd22;stroke:#bcbd22;" x="118.132089" xlink:href="#m8a4a36b26a" y="97.002925"/>
     <use style="fill:#bcbd22;stroke:#bcbd22;" x="139.950795" xlink:href="#m8a4a36b26a" y="121.745427"/>
     <use style="fill:#bcbd22;stroke:#bcbd22;" x="161.52473" xlink:href="#m8a4a36b26a" y="170.988321"/>
     <use style="fill:#bcbd22;stroke:#bcbd22;" x="183.490468" xlink:href="#m8a4a36b26a" y="231.720447"/>
     <use style="fill:#bcbd22;stroke:#bcbd22;" x="205.265118" xlink:href="#m8a4a36b26a" y="262.178757"/>
     <use style="fill:#bcbd22;stroke:#bcbd22;" x="227.136687" xlink:href="#m8a4a36b26a" y="268.624973"/>
    </g>
   </g>
   <g id="matplotlib.axis_1">
    <g id="xtick_1">
     <g id="line2d_1">
      <path clip-path="url(#pc7b615bb56)" d="M 56.835852 288.430125 
L 56.835852 22.318125 
" style="fill:none;stroke:#b0b0b0;stroke-linecap:square;stroke-width:0.8;"/>
     </g>
     <g id="line2d_2">
      <defs>
       <path d="M 0 0 
L 0 3.5 
" id="m797bc82982" style="stroke:#000000;stroke-width:0.8;"/>
      </defs>
      <g>
       <use style="stroke:#000000;stroke-width:0.8;" x="56.835852" xlink:href="#m797bc82982" y="288.430125"/>
      </g>
     </g>
     <g id="text_1">
      <!-- $\mathdefault{10^{-5}}$ -->
      <defs>
       <path d="M 12.40625 8.296875 
L 28.515625 8.296875 
L 28.515625 63.921875 
L 10.984375 60.40625 
L 10.984375 69.390625 
L 28.421875 72.90625 
L 38.28125 72.90625 
L 38.28125 8.296875 
L 54.390625 8.296875 
L 54.390625 0 
L 12.40625 0 
z
" id="DejaVuSans-31"/>
       <path d="M 31.78125 66.40625 
Q 24.171875 66.40625 20.328125 58.90625 
Q 16.5 51.421875 16.5 36.375 
Q 16.5 21.390625 20.328125 13.890625 
Q 24.171875 6.390625 31.78125 6.390625 
Q 39.453125 6.390625 43.28125 13.890625 
Q 47.125 21.390625 47.125 36.375 
Q 47.125 51.421875 43.28125 58.90625 
Q 39.453125 66.40625 31.78125 66.40625 
z
M 31.78125 74.21875 
Q 44.046875 74.21875 50.515625 64.515625 
Q 56.984375 54.828125 56.984375 36.375 
Q 56.984375 17.96875 50.515625 8.265625 
Q 44.046875 -1.421875 31.78125 -1.421875 
Q 19.53125 -1.421875 13.0625 8.265625 
Q 6.59375 17.96875 6.59375 36.375 
Q 6.59375 54.828125 13.0625 64.515625 
Q 19.53125 74.21875 31.78125 74.21875 
z
" id="DejaVuSans-30"/>
       <path d="M 10.59375 35.5 
L 73.1875 35.5 
L 73.1875 27.203125 
L 10.59375 27.203125 
z
" id="DejaVuSans-2212"/>
       <path d="M 10.796875 72.90625 
L 49.515625 72.90625 
L 49.515625 64.59375 
L 19.828125 64.59375 
L 19.828125 46.734375 
Q 21.96875 47.46875 24.109375 47.828125 
Q 26.265625 48.1875 28.421875 48.1875 
Q 40.625 48.1875 47.75 41.5 
Q 54.890625 34.8125 54.890625 23.390625 
Q 54.890625 11.625 47.5625 5.09375 
Q 40.234375 -1.421875 26.90625 -1.421875 
Q 22.3125 -1.421875 17.546875 -0.640625 
Q 12.796875 0.140625 7.71875 1.703125 
L 7.71875 11.625 
Q 12.109375 9.234375 16.796875 8.0625 
Q 21.484375 6.890625 26.703125 6.890625 
Q 35.15625 6.890625 40.078125 11.328125 
Q 45.015625 15.765625 45.015625 23.390625 
Q 45.015625 31 40.078125 35.4375 
Q 35.15625 39.890625 26.703125 39.890625 
Q 22.75 39.890625 18.8125 39.015625 
Q 14.890625 38.140625 10.796875 36.28125 
z
" id="DejaVuSans-35"/>
      </defs>
      <g transform="translate(45.085852 303.028562)scale(0.1 -0.1)">
       <use transform="translate(0 0.684375)" xlink:href="#DejaVuSans-31"/>
       <use transform="translate(63.623047 0.684375)" xlink:href="#DejaVuSans-30"/>
       <use transform="translate(128.203125 38.965625)scale(0.7)" xlink:href="#DejaVuSans-2212"/>
       <use transform="translate(186.855469 38.965625)scale(0.7)" xlink:href="#DejaVuSans-35"/>
      </g>
     </g>
    </g>
    <g id="xtick_2">
     <g id="line2d_3">
      <path clip-path="url(#pc7b615bb56)" d="M 155.185321 288.430125 
L 155.185321 22.318125 
" style="fill:none;stroke:#b0b0b0;stroke-linecap:square;stroke-width:0.8;"/>
     </g>
     <g id="line2d_4">
      <g>
       <use style="stroke:#000000;stroke-width:0.8;" x="155.185321" xlink:href="#m797bc82982" y="288.430125"/>
      </g>
     </g>
     <g id="text_2">
      <!-- $\mathdefault{10^{-4}}$ -->
      <defs>
       <path d="M 37.796875 64.3125 
L 12.890625 25.390625 
L 37.796875 25.390625 
z
M 35.203125 72.90625 
L 47.609375 72.90625 
L 47.609375 25.390625 
L 58.015625 25.390625 
L 58.015625 17.1875 
L 47.609375 17.1875 
L 47.609375 0 
L 37.796875 0 
L 37.796875 17.1875 
L 4.890625 17.1875 
L 4.890625 26.703125 
z
" id="DejaVuSans-34"/>
      </defs>
      <g transform="translate(143.435321 303.028562)scale(0.1 -0.1)">
       <use transform="translate(0 0.684375)" xlink:href="#DejaVuSans-31"/>
       <use transform="translate(63.623047 0.684375)" xlink:href="#DejaVuSans-30"/>
       <use transform="translate(128.203125 38.965625)scale(0.7)" xlink:href="#DejaVuSans-2212"/>
       <use transform="translate(186.855469 38.965625)scale(0.7)" xlink:href="#DejaVuSans-34"/>
      </g>
     </g>
    </g>
    <g id="xtick_3">
     <g id="line2d_5">
      <path clip-path="url(#pc7b615bb56)" d="M 253.534789 288.430125 
L 253.534789 22.318125 
" style="fill:none;stroke:#b0b0b0;stroke-linecap:square;stroke-width:0.8;"/>
     </g>
     <g id="line2d_6">
      <g>
       <use style="stroke:#000000;stroke-width:0.8;" x="253.534789" xlink:href="#m797bc82982" y="288.430125"/>
      </g>
     </g>
     <g id="text_3">
      <!-- $\mathdefault{10^{-3}}$ -->
      <defs>
       <path d="M 40.578125 39.3125 
Q 47.65625 37.796875 51.625 33 
Q 55.609375 28.21875 55.609375 21.1875 
Q 55.609375 10.40625 48.1875 4.484375 
Q 40.765625 -1.421875 27.09375 -1.421875 
Q 22.515625 -1.421875 17.65625 -0.515625 
Q 12.796875 0.390625 7.625 2.203125 
L 7.625 11.71875 
Q 11.71875 9.328125 16.59375 8.109375 
Q 21.484375 6.890625 26.8125 6.890625 
Q 36.078125 6.890625 40.9375 10.546875 
Q 45.796875 14.203125 45.796875 21.1875 
Q 45.796875 27.640625 41.28125 31.265625 
Q 36.765625 34.90625 28.71875 34.90625 
L 20.21875 34.90625 
L 20.21875 43.015625 
L 29.109375 43.015625 
Q 36.375 43.015625 40.234375 45.921875 
Q 44.09375 48.828125 44.09375 54.296875 
Q 44.09375 59.90625 40.109375 62.90625 
Q 36.140625 65.921875 28.71875 65.921875 
Q 24.65625 65.921875 20.015625 65.03125 
Q 15.375 64.15625 9.8125 62.3125 
L 9.8125 71.09375 
Q 15.4375 72.65625 20.34375 73.4375 
Q 25.25 74.21875 29.59375 74.21875 
Q 40.828125 74.21875 47.359375 69.109375 
Q 53.90625 64.015625 53.90625 55.328125 
Q 53.90625 49.265625 50.4375 45.09375 
Q 46.96875 40.921875 40.578125 39.3125 
z
" id="DejaVuSans-33"/>
      </defs>
      <g transform="translate(241.784789 303.028562)scale(0.1 -0.1)">
       <use transform="translate(0 0.765625)" xlink:href="#DejaVuSans-31"/>
       <use transform="translate(63.623047 0.765625)" xlink:href="#DejaVuSans-30"/>
       <use transform="translate(128.203125 39.046875)scale(0.7)" xlink:href="#DejaVuSans-2212"/>
       <use transform="translate(186.855469 39.046875)scale(0.7)" xlink:href="#DejaVuSans-33"/>
      </g>
     </g>
    </g>
    <g id="xtick_4">
     <g id="line2d_7">
      <path clip-path="url(#pc7b615bb56)" d="M 351.884258 288.430125 
L 351.884258 22.318125 
" style="fill:none;stroke:#b0b0b0;stroke-linecap:square;stroke-width:0.8;"/>
     </g>
     <g id="line2d_8">
      <g>
       <use style="stroke:#000000;stroke-width:0.8;" x="351.884258" xlink:href="#m797bc82982" y="288.430125"/>
      </g>
     </g>
     <g id="text_4">
      <!-- $\mathdefault{10^{-2}}$ -->
      <defs>
       <path d="M 19.1875 8.296875 
L 53.609375 8.296875 
L 53.609375 0 
L 7.328125 0 
L 7.328125 8.296875 
Q 12.9375 14.109375 22.625 23.890625 
Q 32.328125 33.6875 34.8125 36.53125 
Q 39.546875 41.84375 41.421875 45.53125 
Q 43.3125 49.21875 43.3125 52.78125 
Q 43.3125 58.59375 39.234375 62.25 
Q 35.15625 65.921875 28.609375 65.921875 
Q 23.96875 65.921875 18.8125 64.3125 
Q 13.671875 62.703125 7.8125 59.421875 
L 7.8125 69.390625 
Q 13.765625 71.78125 18.9375 73 
Q 24.125 74.21875 28.421875 74.21875 
Q 39.75 74.21875 46.484375 68.546875 
Q 53.21875 62.890625 53.21875 53.421875 
Q 53.21875 48.921875 51.53125 44.890625 
Q 49.859375 40.875 45.40625 35.40625 
Q 44.1875 33.984375 37.640625 27.21875 
Q 31.109375 20.453125 19.1875 8.296875 
z
" id="DejaVuSans-32"/>
      </defs>
      <g transform="translate(340.134258 303.028562)scale(0.1 -0.1)">
       <use transform="translate(0 0.765625)" xlink:href="#DejaVuSans-31"/>
       <use transform="translate(63.623047 0.765625)" xlink:href="#DejaVuSans-30"/>
       <use transform="translate(128.203125 39.046875)scale(0.7)" xlink:href="#DejaVuSans-2212"/>
       <use transform="translate(186.855469 39.046875)scale(0.7)" xlink:href="#DejaVuSans-32"/>
      </g>
     </g>
    </g>
    <g id="xtick_5">
     <g id="line2d_9">
      <defs>
       <path d="M 0 0 
L 0 2 
" id="maaf917530e" style="stroke:#000000;stroke-width:0.6;"/>
      </defs>
      <g>
       <use style="stroke:#000000;stroke-width:0.6;" x="41.601327" xlink:href="#maaf917530e" y="288.430125"/>
      </g>
     </g>
    </g>
    <g id="xtick_6">
     <g id="line2d_10">
      <g>
       <use style="stroke:#000000;stroke-width:0.6;" x="47.304804" xlink:href="#maaf917530e" y="288.430125"/>
      </g>
     </g>
    </g>
    <g id="xtick_7">
     <g id="line2d_11">
      <g>
       <use style="stroke:#000000;stroke-width:0.6;" x="52.335627" xlink:href="#maaf917530e" y="288.430125"/>
      </g>
     </g>
    </g>
    <g id="xtick_8">
     <g id="line2d_12">
      <g>
       <use style="stroke:#000000;stroke-width:0.6;" x="86.441992" xlink:href="#maaf917530e" y="288.430125"/>
      </g>
     </g>
    </g>
    <g id="xtick_9">
     <g id="line2d_13">
      <g>
       <use style="stroke:#000000;stroke-width:0.6;" x="103.760474" xlink:href="#maaf917530e" y="288.430125"/>
      </g>
     </g>
    </g>
    <g id="xtick_10">
     <g id="line2d_14">
      <g>
       <use style="stroke:#000000;stroke-width:0.6;" x="116.048132" xlink:href="#maaf917530e" y="288.430125"/>
      </g>
     </g>
    </g>
    <g id="xtick_11">
     <g id="line2d_15">
      <g>
       <use style="stroke:#000000;stroke-width:0.6;" x="125.579181" xlink:href="#maaf917530e" y="288.430125"/>
      </g>
     </g>
    </g>
    <g id="xtick_12">
     <g id="line2d_16">
      <g>
       <use style="stroke:#000000;stroke-width:0.6;" x="133.366614" xlink:href="#maaf917530e" y="288.430125"/>
      </g>
     </g>
    </g>
    <g id="xtick_13">
     <g id="line2d_17">
      <g>
       <use style="stroke:#000000;stroke-width:0.6;" x="139.950795" xlink:href="#maaf917530e" y="288.430125"/>
      </g>
     </g>
    </g>
    <g id="xtick_14">
     <g id="line2d_18">
      <g>
       <use style="stroke:#000000;stroke-width:0.6;" x="145.654272" xlink:href="#maaf917530e" y="288.430125"/>
      </g>
     </g>
    </g>
    <g id="xtick_15">
     <g id="line2d_19">
      <g>
       <use style="stroke:#000000;stroke-width:0.6;" x="150.685096" xlink:href="#maaf917530e" y="288.430125"/>
      </g>
     </g>
    </g>
    <g id="xtick_16">
     <g id="line2d_20">
      <g>
       <use style="stroke:#000000;stroke-width:0.6;" x="184.791461" xlink:href="#maaf917530e" y="288.430125"/>
      </g>
     </g>
    </g>
    <g id="xtick_17">
     <g id="line2d_21">
      <g>
       <use style="stroke:#000000;stroke-width:0.6;" x="202.109943" xlink:href="#maaf917530e" y="288.430125"/>
      </g>
     </g>
    </g>
    <g id="xtick_18">
     <g id="line2d_22">
      <g>
       <use style="stroke:#000000;stroke-width:0.6;" x="214.397601" xlink:href="#maaf917530e" y="288.430125"/>
      </g>
     </g>
    </g>
    <g id="xtick_19">
     <g id="line2d_23">
      <g>
       <use style="stroke:#000000;stroke-width:0.6;" x="223.928649" xlink:href="#maaf917530e" y="288.430125"/>
      </g>
     </g>
    </g>
    <g id="xtick_20">
     <g id="line2d_24">
      <g>
       <use style="stroke:#000000;stroke-width:0.6;" x="231.716083" xlink:href="#maaf917530e" y="288.430125"/>
      </g>
     </g>
    </g>
    <g id="xtick_21">
     <g id="line2d_25">
      <g>
       <use style="stroke:#000000;stroke-width:0.6;" x="238.300264" xlink:href="#maaf917530e" y="288.430125"/>
      </g>
     </g>
    </g>
    <g id="xtick_22">
     <g id="line2d_26">
      <g>
       <use style="stroke:#000000;stroke-width:0.6;" x="244.003741" xlink:href="#maaf917530e" y="288.430125"/>
      </g>
     </g>
    </g>
    <g id="xtick_23">
     <g id="line2d_27">
      <g>
       <use style="stroke:#000000;stroke-width:0.6;" x="249.034564" xlink:href="#maaf917530e" y="288.430125"/>
      </g>
     </g>
    </g>
    <g id="xtick_24">
     <g id="line2d_28">
      <g>
       <use style="stroke:#000000;stroke-width:0.6;" x="283.140929" xlink:href="#maaf917530e" y="288.430125"/>
      </g>
     </g>
    </g>
    <g id="xtick_25">
     <g id="line2d_29">
      <g>
       <use style="stroke:#000000;stroke-width:0.6;" x="300.459411" xlink:href="#maaf917530e" y="288.430125"/>
      </g>
     </g>
    </g>
    <g id="xtick_26">
     <g id="line2d_30">
      <g>
       <use style="stroke:#000000;stroke-width:0.6;" x="312.747069" xlink:href="#maaf917530e" y="288.430125"/>
      </g>
     </g>
    </g>
    <g id="xtick_27">
     <g id="line2d_31">
      <g>
       <use style="stroke:#000000;stroke-width:0.6;" x="322.278118" xlink:href="#maaf917530e" y="288.430125"/>
      </g>
     </g>
    </g>
    <g id="xtick_28">
     <g id="line2d_32">
      <g>
       <use style="stroke:#000000;stroke-width:0.6;" x="330.065551" xlink:href="#maaf917530e" y="288.430125"/>
      </g>
     </g>
    </g>
    <g id="xtick_29">
     <g id="line2d_33">
      <g>
       <use style="stroke:#000000;stroke-width:0.6;" x="336.649732" xlink:href="#maaf917530e" y="288.430125"/>
      </g>
     </g>
    </g>
    <g id="xtick_30">
     <g id="line2d_34">
      <g>
       <use style="stroke:#000000;stroke-width:0.6;" x="342.353209" xlink:href="#maaf917530e" y="288.430125"/>
      </g>
     </g>
    </g>
    <g id="xtick_31">
     <g id="line2d_35">
      <g>
       <use style="stroke:#000000;stroke-width:0.6;" x="347.384033" xlink:href="#maaf917530e" y="288.430125"/>
      </g>
     </g>
    </g>
    <g id="xtick_32">
     <g id="line2d_36">
      <g>
       <use style="stroke:#000000;stroke-width:0.6;" x="381.490398" xlink:href="#maaf917530e" y="288.430125"/>
      </g>
     </g>
    </g>
    <g id="text_5">
     <!-- log(tau/s) -->
     <defs>
      <path d="M 9.421875 75.984375 
L 18.40625 75.984375 
L 18.40625 0 
L 9.421875 0 
z
" id="DejaVuSans-6c"/>
      <path d="M 30.609375 48.390625 
Q 23.390625 48.390625 19.1875 42.75 
Q 14.984375 37.109375 14.984375 27.296875 
Q 14.984375 17.484375 19.15625 11.84375 
Q 23.34375 6.203125 30.609375 6.203125 
Q 37.796875 6.203125 41.984375 11.859375 
Q 46.1875 17.53125 46.1875 27.296875 
Q 46.1875 37.015625 41.984375 42.703125 
Q 37.796875 48.390625 30.609375 48.390625 
z
M 30.609375 56 
Q 42.328125 56 49.015625 48.375 
Q 55.71875 40.765625 55.71875 27.296875 
Q 55.71875 13.875 49.015625 6.21875 
Q 42.328125 -1.421875 30.609375 -1.421875 
Q 18.84375 -1.421875 12.171875 6.21875 
Q 5.515625 13.875 5.515625 27.296875 
Q 5.515625 40.765625 12.171875 48.375 
Q 18.84375 56 30.609375 56 
z
" id="DejaVuSans-6f"/>
      <path d="M 45.40625 27.984375 
Q 45.40625 37.75 41.375 43.109375 
Q 37.359375 48.484375 30.078125 48.484375 
Q 22.859375 48.484375 18.828125 43.109375 
Q 14.796875 37.75 14.796875 27.984375 
Q 14.796875 18.265625 18.828125 12.890625 
Q 22.859375 7.515625 30.078125 7.515625 
Q 37.359375 7.515625 41.375 12.890625 
Q 45.40625 18.265625 45.40625 27.984375 
z
M 54.390625 6.78125 
Q 54.390625 -7.171875 48.1875 -13.984375 
Q 42 -20.796875 29.203125 -20.796875 
Q 24.46875 -20.796875 20.265625 -20.09375 
Q 16.0625 -19.390625 12.109375 -17.921875 
L 12.109375 -9.1875 
Q 16.0625 -11.328125 19.921875 -12.34375 
Q 23.78125 -13.375 27.78125 -13.375 
Q 36.625 -13.375 41.015625 -8.765625 
Q 45.40625 -4.15625 45.40625 5.171875 
L 45.40625 9.625 
Q 42.625 4.78125 38.28125 2.390625 
Q 33.9375 0 27.875 0 
Q 17.828125 0 11.671875 7.65625 
Q 5.515625 15.328125 5.515625 27.984375 
Q 5.515625 40.671875 11.671875 48.328125 
Q 17.828125 56 27.875 56 
Q 33.9375 56 38.28125 53.609375 
Q 42.625 51.21875 45.40625 46.390625 
L 45.40625 54.6875 
L 54.390625 54.6875 
z
" id="DejaVuSans-67"/>
      <path d="M 31 75.875 
Q 24.46875 64.65625 21.28125 53.65625 
Q 18.109375 42.671875 18.109375 31.390625 
Q 18.109375 20.125 21.3125 9.0625 
Q 24.515625 -2 31 -13.1875 
L 23.1875 -13.1875 
Q 15.875 -1.703125 12.234375 9.375 
Q 8.59375 20.453125 8.59375 31.390625 
Q 8.59375 42.28125 12.203125 53.3125 
Q 15.828125 64.359375 23.1875 75.875 
z
" id="DejaVuSans-28"/>
      <path d="M 18.3125 70.21875 
L 18.3125 54.6875 
L 36.8125 54.6875 
L 36.8125 47.703125 
L 18.3125 47.703125 
L 18.3125 18.015625 
Q 18.3125 11.328125 20.140625 9.421875 
Q 21.96875 7.515625 27.59375 7.515625 
L 36.8125 7.515625 
L 36.8125 0 
L 27.59375 0 
Q 17.1875 0 13.234375 3.875 
Q 9.28125 7.765625 9.28125 18.015625 
L 9.28125 47.703125 
L 2.6875 47.703125 
L 2.6875 54.6875 
L 9.28125 54.6875 
L 9.28125 70.21875 
z
" id="DejaVuSans-74"/>
      <path d="M 34.28125 27.484375 
Q 23.390625 27.484375 19.1875 25 
Q 14.984375 22.515625 14.984375 16.5 
Q 14.984375 11.71875 18.140625 8.90625 
Q 21.296875 6.109375 26.703125 6.109375 
Q 34.1875 6.109375 38.703125 11.40625 
Q 43.21875 16.703125 43.21875 25.484375 
L 43.21875 27.484375 
z
M 52.203125 31.203125 
L 52.203125 0 
L 43.21875 0 
L 43.21875 8.296875 
Q 40.140625 3.328125 35.546875 0.953125 
Q 30.953125 -1.421875 24.3125 -1.421875 
Q 15.921875 -1.421875 10.953125 3.296875 
Q 6 8.015625 6 15.921875 
Q 6 25.140625 12.171875 29.828125 
Q 18.359375 34.515625 30.609375 34.515625 
L 43.21875 34.515625 
L 43.21875 35.40625 
Q 43.21875 41.609375 39.140625 45 
Q 35.0625 48.390625 27.6875 48.390625 
Q 23 48.390625 18.546875 47.265625 
Q 14.109375 46.140625 10.015625 43.890625 
L 10.015625 52.203125 
Q 14.9375 54.109375 19.578125 55.046875 
Q 24.21875 56 28.609375 56 
Q 40.484375 56 46.34375 49.84375 
Q 52.203125 43.703125 52.203125 31.203125 
z
" id="DejaVuSans-61"/>
      <path d="M 8.5 21.578125 
L 8.5 54.6875 
L 17.484375 54.6875 
L 17.484375 21.921875 
Q 17.484375 14.15625 20.5 10.265625 
Q 23.53125 6.390625 29.59375 6.390625 
Q 36.859375 6.390625 41.078125 11.03125 
Q 45.3125 15.671875 45.3125 23.6875 
L 45.3125 54.6875 
L 54.296875 54.6875 
L 54.296875 0 
L 45.3125 0 
L 45.3125 8.40625 
Q 42.046875 3.421875 37.71875 1 
Q 33.40625 -1.421875 27.6875 -1.421875 
Q 18.265625 -1.421875 13.375 4.4375 
Q 8.5 10.296875 8.5 21.578125 
z
M 31.109375 56 
z
" id="DejaVuSans-75"/>
      <path d="M 25.390625 72.90625 
L 33.6875 72.90625 
L 8.296875 -9.28125 
L 0 -9.28125 
z
" id="DejaVuSans-2f"/>
      <path d="M 44.28125 53.078125 
L 44.28125 44.578125 
Q 40.484375 46.53125 36.375 47.5 
Q 32.28125 48.484375 27.875 48.484375 
Q 21.1875 48.484375 17.84375 46.4375 
Q 14.5 44.390625 14.5 40.28125 
Q 14.5 37.15625 16.890625 35.375 
Q 19.28125 33.59375 26.515625 31.984375 
L 29.59375 31.296875 
Q 39.15625 29.25 43.1875 25.515625 
Q 47.21875 21.78125 47.21875 15.09375 
Q 47.21875 7.46875 41.1875 3.015625 
Q 35.15625 -1.421875 24.609375 -1.421875 
Q 20.21875 -1.421875 15.453125 -0.5625 
Q 10.6875 0.296875 5.421875 2 
L 5.421875 11.28125 
Q 10.40625 8.6875 15.234375 7.390625 
Q 20.0625 6.109375 24.8125 6.109375 
Q 31.15625 6.109375 34.5625 8.28125 
Q 37.984375 10.453125 37.984375 14.40625 
Q 37.984375 18.0625 35.515625 20.015625 
Q 33.0625 21.96875 24.703125 23.78125 
L 21.578125 24.515625 
Q 13.234375 26.265625 9.515625 29.90625 
Q 5.8125 33.546875 5.8125 39.890625 
Q 5.8125 47.609375 11.28125 51.796875 
Q 16.75 56 26.8125 56 
Q 31.78125 56 36.171875 55.265625 
Q 40.578125 54.546875 44.28125 53.078125 
z
" id="DejaVuSans-73"/>
      <path d="M 8.015625 75.875 
L 15.828125 75.875 
Q 23.140625 64.359375 26.78125 53.3125 
Q 30.421875 42.28125 30.421875 31.390625 
Q 30.421875 20.453125 26.78125 9.375 
Q 23.140625 -1.703125 15.828125 -13.1875 
L 8.015625 -13.1875 
Q 14.5 -2 17.703125 9.0625 
Q 20.90625 20.125 20.90625 31.390625 
Q 20.90625 42.671875 17.703125 53.65625 
Q 14.5 64.65625 8.015625 75.875 
z
" id="DejaVuSans-29"/>
     </defs>
     <g transform="translate(195.156875 316.706687)scale(0.1 -0.1)">
      <use xlink:href="#DejaVuSans-6c"/>
      <use x="27.783203" xlink:href="#DejaVuSans-6f"/>
      <use x="88.964844" xlink:href="#DejaVuSans-67"/>
      <use x="152.441406" xlink:href="#DejaVuSans-28"/>
      <use x="191.455078" xlink:href="#DejaVuSans-74"/>
      <use x="230.664062" xlink:href="#DejaVuSans-61"/>
      <use x="291.943359" xlink:href="#DejaVuSans-75"/>
      <use x="355.322266" xlink:href="#DejaVuSans-2f"/>
      <use x="389.013672" xlink:href="#DejaVuSans-73"/>
      <use x="441.113281" xlink:href="#DejaVuSans-29"/>
     </g>
    </g>
   </g>
   <g id="matplotlib.axis_2">
    <g id="ytick_1">
     <g id="line2d_37">
      <path clip-path="url(#pc7b615bb56)" d="M 40.603125 276.334125 
L 397.723125 276.334125 
" style="fill:none;stroke:#b0b0b0;stroke-linecap:square;stroke-width:0.8;"/>
     </g>
     <g id="line2d_38">
      <defs>
       <path d="M 0 0 
L -3.5 0 
" id="m43214f2f55" style="stroke:#000000;stroke-width:0.8;"/>
      </defs>
      <g>
       <use style="stroke:#000000;stroke-width:0.8;" x="40.603125" xlink:href="#m43214f2f55" y="276.334125"/>
      </g>
     </g>
     <g id="text_6">
      <!-- 0 -->
      <g transform="translate(27.240625 280.133344)scale(0.1 -0.1)">
       <use xlink:href="#DejaVuSans-30"/>
      </g>
     </g>
    </g>
    <g id="ytick_2">
     <g id="line2d_39">
      <path clip-path="url(#pc7b615bb56)" d="M 40.603125 218.134274 
L 397.723125 218.134274 
" style="fill:none;stroke:#b0b0b0;stroke-linecap:square;stroke-width:0.8;"/>
     </g>
     <g id="line2d_40">
      <g>
       <use style="stroke:#000000;stroke-width:0.8;" x="40.603125" xlink:href="#m43214f2f55" y="218.134274"/>
      </g>
     </g>
     <g id="text_7">
      <!-- 10 -->
      <g transform="translate(20.878125 221.933493)scale(0.1 -0.1)">
       <use xlink:href="#DejaVuSans-31"/>
       <use x="63.623047" xlink:href="#DejaVuSans-30"/>
      </g>
     </g>
    </g>
    <g id="ytick_3">
     <g id="line2d_41">
      <path clip-path="url(#pc7b615bb56)" d="M 40.603125 159.934423 
L 397.723125 159.934423 
" style="fill:none;stroke:#b0b0b0;stroke-linecap:square;stroke-width:0.8;"/>
     </g>
     <g id="line2d_42">
      <g>
       <use style="stroke:#000000;stroke-width:0.8;" x="40.603125" xlink:href="#m43214f2f55" y="159.934423"/>
      </g>
     </g>
     <g id="text_8">
      <!-- 20 -->
      <g transform="translate(20.878125 163.733642)scale(0.1 -0.1)">
       <use xlink:href="#DejaVuSans-32"/>
       <use x="63.623047" xlink:href="#DejaVuSans-30"/>
      </g>
     </g>
    </g>
    <g id="ytick_4">
     <g id="line2d_43">
      <path clip-path="url(#pc7b615bb56)" d="M 40.603125 101.734573 
L 397.723125 101.734573 
" style="fill:none;stroke:#b0b0b0;stroke-linecap:square;stroke-width:0.8;"/>
     </g>
     <g id="line2d_44">
      <g>
       <use style="stroke:#000000;stroke-width:0.8;" x="40.603125" xlink:href="#m43214f2f55" y="101.734573"/>
      </g>
     </g>
     <g id="text_9">
      <!-- 30 -->
      <g transform="translate(20.878125 105.533791)scale(0.1 -0.1)">
       <use xlink:href="#DejaVuSans-33"/>
       <use x="63.623047" xlink:href="#DejaVuSans-30"/>
      </g>
     </g>
    </g>
    <g id="ytick_5">
     <g id="line2d_45">
      <path clip-path="url(#pc7b615bb56)" d="M 40.603125 43.534722 
L 397.723125 43.534722 
" style="fill:none;stroke:#b0b0b0;stroke-linecap:square;stroke-width:0.8;"/>
     </g>
     <g id="line2d_46">
      <g>
       <use style="stroke:#000000;stroke-width:0.8;" x="40.603125" xlink:href="#m43214f2f55" y="43.534722"/>
      </g>
     </g>
     <g id="text_10">
      <!-- 40 -->
      <g transform="translate(20.878125 47.333941)scale(0.1 -0.1)">
       <use xlink:href="#DejaVuSans-34"/>
       <use x="63.623047" xlink:href="#DejaVuSans-30"/>
      </g>
     </g>
    </g>
    <g id="text_11">
     <!-- FWHM [kHz] -->
     <defs>
      <path d="M 9.8125 72.90625 
L 51.703125 72.90625 
L 51.703125 64.59375 
L 19.671875 64.59375 
L 19.671875 43.109375 
L 48.578125 43.109375 
L 48.578125 34.8125 
L 19.671875 34.8125 
L 19.671875 0 
L 9.8125 0 
z
" id="DejaVuSans-46"/>
      <path d="M 3.328125 72.90625 
L 13.28125 72.90625 
L 28.609375 11.28125 
L 43.890625 72.90625 
L 54.984375 72.90625 
L 70.3125 11.28125 
L 85.59375 72.90625 
L 95.609375 72.90625 
L 77.296875 0 
L 64.890625 0 
L 49.515625 63.28125 
L 33.984375 0 
L 21.578125 0 
z
" id="DejaVuSans-57"/>
      <path d="M 9.8125 72.90625 
L 19.671875 72.90625 
L 19.671875 43.015625 
L 55.515625 43.015625 
L 55.515625 72.90625 
L 65.375 72.90625 
L 65.375 0 
L 55.515625 0 
L 55.515625 34.71875 
L 19.671875 34.71875 
L 19.671875 0 
L 9.8125 0 
z
" id="DejaVuSans-48"/>
      <path d="M 9.8125 72.90625 
L 24.515625 72.90625 
L 43.109375 23.296875 
L 61.8125 72.90625 
L 76.515625 72.90625 
L 76.515625 0 
L 66.890625 0 
L 66.890625 64.015625 
L 48.09375 14.015625 
L 38.1875 14.015625 
L 19.390625 64.015625 
L 19.390625 0 
L 9.8125 0 
z
" id="DejaVuSans-4d"/>
      <path id="DejaVuSans-20"/>
      <path d="M 8.59375 75.984375 
L 29.296875 75.984375 
L 29.296875 69 
L 17.578125 69 
L 17.578125 -6.203125 
L 29.296875 -6.203125 
L 29.296875 -13.1875 
L 8.59375 -13.1875 
z
" id="DejaVuSans-5b"/>
      <path d="M 9.078125 75.984375 
L 18.109375 75.984375 
L 18.109375 31.109375 
L 44.921875 54.6875 
L 56.390625 54.6875 
L 27.390625 29.109375 
L 57.625 0 
L 45.90625 0 
L 18.109375 26.703125 
L 18.109375 0 
L 9.078125 0 
z
" id="DejaVuSans-6b"/>
      <path d="M 5.515625 54.6875 
L 48.1875 54.6875 
L 48.1875 46.484375 
L 14.40625 7.171875 
L 48.1875 7.171875 
L 48.1875 0 
L 4.296875 0 
L 4.296875 8.203125 
L 38.09375 47.515625 
L 5.515625 47.515625 
z
" id="DejaVuSans-7a"/>
      <path d="M 30.421875 75.984375 
L 30.421875 -13.1875 
L 9.71875 -13.1875 
L 9.71875 -6.203125 
L 21.390625 -6.203125 
L 21.390625 69 
L 9.71875 69 
L 9.71875 75.984375 
z
" id="DejaVuSans-5d"/>
     </defs>
     <g transform="translate(14.798438 186.038187)rotate(-90)scale(0.1 -0.1)">
      <use xlink:href="#DejaVuSans-46"/>
      <use x="57.519531" xlink:href="#DejaVuSans-57"/>
      <use x="156.396484" xlink:href="#DejaVuSans-48"/>
      <use x="231.591797" xlink:href="#DejaVuSans-4d"/>
      <use x="317.871094" xlink:href="#DejaVuSans-20"/>
      <use x="349.658203" xlink:href="#DejaVuSans-5b"/>
      <use x="388.671875" xlink:href="#DejaVuSans-6b"/>
      <use x="446.582031" xlink:href="#DejaVuSans-48"/>
      <use x="521.777344" xlink:href="#DejaVuSans-7a"/>
      <use x="574.267578" xlink:href="#DejaVuSans-5d"/>
     </g>
    </g>
   </g>
   <g id="line2d_47">
    <path clip-path="url(#pc7b615bb56)" d="M 56.835852 40.782292 
L 63.461455 40.782304 
L 70.087058 40.782323 
L 76.712661 40.782353 
L 83.338264 40.782399 
L 89.963867 40.782471 
L 96.58947 40.782582 
L 103.215073 40.782754 
L 109.840676 40.783021 
L 116.466279 40.783435 
L 123.091882 40.784077 
L 129.717485 40.785072 
L 136.343088 40.786616 
L 142.968691 40.78901 
L 149.594294 40.792723 
L 156.219897 40.79848 
L 162.8455 40.807408 
L 169.471103 40.821253 
L 176.096706 40.842722 
L 182.722309 40.876012 
L 189.347912 40.927628 
L 195.973515 41.00765 
L 202.599118 41.131693 
L 209.224721 41.323925 
L 215.850324 41.621719 
L 222.475926 42.082773 
L 229.101529 42.795948 
L 235.727132 43.89756 
L 242.352735 45.595472 
L 248.978338 48.203633 
L 255.603941 52.189096 
L 262.229544 58.229932 
L 268.855147 67.27166 
L 275.48075 80.543832 
L 282.106353 99.446838 
L 288.731956 125.142422 
L 295.357559 157.643798 
L 301.983162 194.43608 
L 308.608765 229.56485 
L 315.234368 255.431273 
L 321.859971 268.286831 
L 328.485574 271.834999 
L 335.111177 272.245004 
L 341.73678 272.258079 
L 348.362383 272.258139 
L 354.987986 272.258139 
L 361.613589 272.258139 
L 368.239192 272.258139 
L 374.864795 272.258139 
L 381.490398 272.258139 
" style="fill:none;stroke:#1f77b4;stroke-linecap:square;stroke-width:1.5;"/>
   </g>
   <g id="line2d_48">
    <path clip-path="url(#pc7b615bb56)" d="M 56.835852 42.001504 
L 63.461455 42.001546 
L 70.087058 42.001608 
L 76.712661 42.001702 
L 83.338264 42.001844 
L 89.963867 42.002057 
L 96.58947 42.002377 
L 103.215073 42.002858 
L 109.840676 42.003582 
L 116.466279 42.004671 
L 123.091882 42.006309 
L 129.717485 42.008773 
L 136.343088 42.012478 
L 142.968691 42.018052 
L 149.594294 42.026435 
L 156.219897 42.039044 
L 162.8455 42.058009 
L 169.471103 42.08653 
L 176.096706 42.129424 
L 182.722309 42.193925 
L 189.347912 42.290909 
L 195.973515 42.436706 
L 202.599118 42.655824 
L 209.224721 42.985 
L 215.850324 43.479206 
L 222.475926 44.220485 
L 229.101529 45.330795 
L 235.727132 46.990336 
L 242.352735 49.462915 
L 248.978338 53.129271 
L 255.603941 58.526799 
L 262.229544 66.387463 
L 268.855147 77.650783 
L 275.48075 93.400524 
L 282.106353 114.631471 
L 288.731956 141.721368 
L 295.357559 173.558071 
L 301.983162 206.648652 
L 308.608765 235.296569 
L 315.234368 254.21802 
L 321.859971 262.614622 
L 328.485574 264.702809 
L 335.111177 264.927845 
L 341.73678 264.935095 
L 348.362383 264.935135 
L 354.987986 264.935135 
L 361.613589 264.935135 
L 368.239192 264.935135 
L 374.864795 264.935135 
L 381.490398 264.935135 
" style="fill:none;stroke:#ff7f0e;stroke-linecap:square;stroke-width:1.5;"/>
   </g>
   <g id="line2d_49">
    <path clip-path="url(#pc7b615bb56)" d="M 56.835852 41.777442 
L 63.461455 41.778108 
L 70.087058 41.779034 
L 76.712661 41.780319 
L 83.338264 41.782103 
L 89.963867 41.784581 
L 96.58947 41.788021 
L 103.215073 41.792799 
L 109.840676 41.799433 
L 116.466279 41.808644 
L 123.091882 41.821435 
L 129.717485 41.839194 
L 136.343088 41.863853 
L 142.968691 41.898089 
L 149.594294 41.945621 
L 156.219897 42.011608 
L 162.8455 42.103205 
L 169.471103 42.230336 
L 176.096706 42.406754 
L 182.722309 42.651501 
L 189.347912 42.990924 
L 195.973515 43.461413 
L 202.599118 44.113131 
L 209.224721 45.015023 
L 215.850324 46.261475 
L 222.475926 47.980957 
L 229.101529 50.346936 
L 235.727132 53.590967 
L 242.352735 58.017077 
L 248.978338 64.014894 
L 255.603941 72.065841 
L 262.229544 82.731485 
L 268.855147 96.605437 
L 275.48075 114.201636 
L 282.106353 135.749091 
L 288.731956 160.88284 
L 295.357559 188.291693 
L 301.983162 215.526147 
L 308.608765 239.326522 
L 315.234368 256.755568 
L 321.859971 266.769191 
L 328.485574 270.898474 
L 335.111177 271.982935 
L 341.73678 272.137528 
L 348.362383 272.147178 
L 354.987986 272.147375 
L 361.613589 272.147376 
L 368.239192 272.147376 
L 374.864795 272.147376 
L 381.490398 272.147376 
" style="fill:none;stroke:#2ca02c;stroke-linecap:square;stroke-width:1.5;"/>
   </g>
   <g id="line2d_50">
    <path clip-path="url(#pc7b615bb56)" d="M 56.835852 44.142269 
L 63.461455 44.143134 
L 70.087058 44.144329 
L 76.712661 44.145982 
L 83.338264 44.148267 
L 89.963867 44.151428 
L 96.58947 44.155799 
L 103.215073 44.161843 
L 109.840676 44.170201 
L 116.466279 44.181758 
L 123.091882 44.197739 
L 129.717485 44.219838 
L 136.343088 44.250393 
L 142.968691 44.292641 
L 149.594294 44.351052 
L 156.219897 44.431802 
L 162.8455 44.543423 
L 169.471103 44.69769 
L 176.096706 44.910851 
L 182.722309 45.205299 
L 189.347912 45.611859 
L 195.973515 46.172891 
L 202.599118 46.946455 
L 209.224721 48.01187 
L 215.850324 49.47697 
L 222.475926 51.48738 
L 229.101529 54.237894 
L 235.727132 57.985572 
L 242.352735 63.063062 
L 248.978338 69.88853 
L 255.603941 78.964899 
L 262.229544 90.855163 
L 268.855147 106.11291 
L 275.48075 125.140641 
L 282.106353 147.952693 
L 288.731956 173.854382 
L 295.357559 201.141155 
L 301.983162 227.070819 
L 308.608765 248.456976 
L 315.234368 262.984531 
L 321.859971 270.555738 
L 328.485574 273.30762 
L 335.111177 273.921732 
L 341.73678 273.992729 
L 348.362383 273.996113 
L 354.987986 273.996161 
L 361.613589 273.996161 
L 368.239192 273.996161 
L 374.864795 273.996161 
L 381.490398 273.996161 
" style="fill:none;stroke:#d62728;stroke-linecap:square;stroke-width:1.5;"/>
   </g>
   <g id="line2d_51">
    <path clip-path="url(#pc7b615bb56)" d="M 56.835852 44.876075 
L 63.461455 44.889409 
L 70.087058 44.906519 
L 76.712661 44.928476 
L 83.338264 44.956651 
L 89.963867 44.992803 
L 96.58947 45.03919 
L 103.215073 45.098706 
L 109.840676 45.175062 
L 116.466279 45.273016 
L 123.091882 45.39866 
L 129.717485 45.559803 
L 136.343088 45.766436 
L 142.968691 46.031341 
L 149.594294 46.37085 
L 156.219897 46.805812 
L 162.8455 47.362792 
L 169.471103 48.07558 
L 176.096706 48.987036 
L 182.722309 50.151342 
L 189.347912 51.636697 
L 195.973515 53.528448 
L 202.599118 55.932596 
L 209.224721 58.979486 
L 215.850324 62.827268 
L 222.475926 67.664379 
L 229.101529 73.709754 
L 235.727132 81.208765 
L 242.352735 90.421889 
L 248.978338 101.602124 
L 255.603941 114.956439 
L 262.229544 130.587128 
L 268.855147 148.412315 
L 275.48075 168.073317 
L 282.106353 188.852019 
L 288.731956 209.642409 
L 295.357559 229.037138 
L 301.983162 245.579312 
L 308.608765 258.162136 
L 315.234368 266.432035 
L 321.859971 270.943736 
L 328.485574 272.885874 
L 335.111177 273.504701 
L 341.73678 273.639387 
L 348.362383 273.657488 
L 354.987986 273.658811 
L 361.613589 273.658856 
L 368.239192 273.658856 
L 374.864795 273.658856 
L 381.490398 273.658856 
" style="fill:none;stroke:#9467bd;stroke-linecap:square;stroke-width:1.5;"/>
   </g>
   <g id="line2d_52">
    <path clip-path="url(#pc7b615bb56)" d="M 56.835852 46.609131 
L 63.461455 46.710986 
L 70.087058 46.835243 
L 76.712661 46.986812 
L 83.338264 47.171674 
L 89.963867 47.397104 
L 96.58947 47.671951 
L 103.215073 48.006966 
L 109.840676 48.415201 
L 116.466279 48.912481 
L 123.091882 49.517963 
L 129.717485 50.254796 
L 136.343088 51.150889 
L 142.968691 52.239799 
L 149.594294 53.561727 
L 156.219897 55.164635 
L 162.8455 57.105433 
L 169.471103 59.451197 
L 176.096706 62.280317 
L 182.722309 65.683418 
L 189.347912 69.76382 
L 195.973515 74.637172 
L 202.599118 80.42978 
L 209.224721 87.274948 
L 215.850324 95.306491 
L 222.475926 104.648432 
L 229.101529 115.399882 
L 235.727132 127.614352 
L 242.352735 141.273489 
L 248.978338 156.256706 
L 255.603941 172.310661 
L 262.229544 189.025974 
L 268.855147 205.832343 
L 275.48075 222.025738 
L 282.106353 236.839425 
L 288.731956 249.560734 
L 295.357559 259.67576 
L 301.983162 266.999137 
L 308.608765 271.730241 
L 315.234368 274.391314 
L 321.859971 275.656327 
L 328.485574 276.146665 
L 335.111177 276.295076 
L 341.73678 276.32837 
L 348.362383 276.333569 
L 354.987986 276.334093 
L 361.613589 276.334124 
L 368.239192 276.334125 
L 374.864795 276.334125 
L 381.490398 276.334125 
" style="fill:none;stroke:#8c564b;stroke-linecap:square;stroke-width:1.5;"/>
   </g>
   <g id="line2d_53">
    <path clip-path="url(#pc7b615bb56)" d="M 56.835852 49.811458 
L 63.461455 50.05931 
L 70.087058 50.360998 
L 76.712661 50.728118 
L 83.338264 51.174716 
L 89.963867 51.717785 
L 96.58947 52.377846 
L 103.215073 53.179633 
L 109.840676 54.152881 
L 116.466279 55.333231 
L 123.091882 56.763236 
L 129.717485 58.493462 
L 136.343088 60.583645 
L 142.968691 63.103833 
L 149.594294 66.135391 
L 156.219897 69.771706 
L 162.8455 74.118303 
L 169.471103 79.291986 
L 176.096706 85.418473 
L 182.722309 92.627811 
L 189.347912 101.046717 
L 195.973515 110.786886 
L 202.599118 121.928398 
L 209.224721 134.497732 
L 215.850324 148.440863 
L 222.475926 163.593666 
L 229.101529 179.654525 
L 235.727132 196.167508 
L 242.352735 212.527778 
L 248.978338 228.022047 
L 255.603941 241.912749 
L 262.229544 253.561987 
L 268.855147 262.570229 
L 275.48075 268.882344 
L 282.106353 272.806338 
L 288.731956 274.915969 
L 295.357559 275.867042 
L 301.983162 276.213459 
L 308.608765 276.310939 
L 315.234368 276.331019 
L 321.859971 276.333857 
L 328.485574 276.334111 
L 335.111177 276.334125 
L 341.73678 276.334125 
L 348.362383 276.334125 
L 354.987986 276.334125 
L 361.613589 276.334125 
L 368.239192 276.334125 
L 374.864795 276.334125 
L 381.490398 276.334125 
" style="fill:none;stroke:#e377c2;stroke-linecap:square;stroke-width:1.5;"/>
   </g>
   <g id="line2d_54">
    <path clip-path="url(#pc7b615bb56)" d="M 56.835852 57.839988 
L 63.461455 58.427451 
L 70.087058 59.137821 
L 76.712661 59.996249 
L 83.338264 61.032761 
L 89.963867 62.283086 
L 96.58947 63.789555 
L 103.215073 65.60205 
L 109.840676 67.778961 
L 116.466279 70.388067 
L 123.091882 73.507209 
L 129.717485 77.22458 
L 136.343088 81.638328 
L 142.968691 86.855122 
L 149.594294 92.987148 
L 156.219897 100.146913 
L 162.8455 108.439118 
L 169.471103 117.948855 
L 176.096706 128.725564 
L 182.722309 140.762674 
L 189.347912 153.97389 
L 195.973515 168.168771 
L 202.599118 183.032629 
L 209.224721 198.118542 
L 215.850324 212.861427 
L 222.475926 226.623761 
L 229.101529 238.777268 
L 235.727132 248.812708 
L 242.352735 256.452262 
L 248.978338 261.723369 
L 255.603941 264.952794 
L 262.229544 266.666783 
L 268.855147 267.431762 
L 275.48075 267.708813 
L 282.106353 267.786826 
L 288.731956 267.803053 
L 295.357559 267.805397 
L 301.983162 267.805616 
L 308.608765 267.805628 
L 315.234368 267.805628 
L 321.859971 267.805628 
L 328.485574 267.805628 
L 335.111177 267.805628 
L 341.73678 267.805628 
L 348.362383 267.805628 
L 354.987986 267.805628 
L 361.613589 267.805628 
L 368.239192 267.805628 
L 374.864795 267.805628 
L 381.490398 267.805628 
" style="fill:none;stroke:#7f7f7f;stroke-linecap:square;stroke-width:1.5;"/>
   </g>
   <g id="line2d_55">
    <path clip-path="url(#pc7b615bb56)" d="M 56.835852 68.040443 
L 63.461455 68.941676 
L 70.087058 70.083202 
L 76.712661 71.52707 
L 83.338264 73.350105 
L 89.963867 75.646667 
L 96.58947 78.531413 
L 103.215073 82.141697 
L 109.840676 86.638911 
L 116.466279 92.207695 
L 123.091882 99.051319 
L 129.717485 107.380909 
L 136.343088 117.395454 
L 142.968691 129.249232 
L 149.594294 143.004031 
L 156.219897 158.566443 
L 162.8455 175.617189 
L 169.471103 193.55081 
L 176.096706 211.458815 
L 182.722309 228.200214 
L 189.347912 242.594538 
L 195.973515 253.724586 
L 202.599118 261.247837 
L 209.224721 265.537494 
L 215.850324 267.510306 
L 222.475926 268.20216 
L 229.101529 268.374642 
L 235.727132 268.402648 
L 242.352735 268.405303 
L 248.978338 268.405431 
L 255.603941 268.405433 
L 262.229544 268.405433 
L 268.855147 268.405433 
L 275.48075 268.405433 
L 282.106353 268.405433 
L 288.731956 268.405433 
L 295.357559 268.405433 
L 301.983162 268.405433 
L 308.608765 268.405433 
L 315.234368 268.405433 
L 321.859971 268.405433 
L 328.485574 268.405433 
L 335.111177 268.405433 
L 341.73678 268.405433 
L 348.362383 268.405433 
L 354.987986 268.405433 
L 361.613589 268.405433 
L 368.239192 268.405433 
L 374.864795 268.405433 
L 381.490398 268.405433 
" style="fill:none;stroke:#bcbd22;stroke-linecap:square;stroke-width:1.5;"/>
   </g>
   <g id="patch_3">
    <path d="M 40.603125 288.430125 
L 40.603125 22.318125 
" style="fill:none;stroke:#000000;stroke-linecap:square;stroke-linejoin:miter;stroke-width:0.8;"/>
   </g>
   <g id="patch_4">
    <path d="M 397.723125 288.430125 
L 397.723125 22.318125 
" style="fill:none;stroke:#000000;stroke-linecap:square;stroke-linejoin:miter;stroke-width:0.8;"/>
   </g>
   <g id="patch_5">
    <path d="M 40.603125 288.430125 
L 397.723125 288.430125 
" style="fill:none;stroke:#000000;stroke-linecap:square;stroke-linejoin:miter;stroke-width:0.8;"/>
   </g>
   <g id="patch_6">
    <path d="M 40.603125 22.318125 
L 397.723125 22.318125 
" style="fill:none;stroke:#000000;stroke-linecap:square;stroke-linejoin:miter;stroke-width:0.8;"/>
   </g>
   <g id="text_12">
    <!-- FWHM -->
    <g transform="translate(200.090625 16.318125)scale(0.12 -0.12)">
     <use xlink:href="#DejaVuSans-46"/>
     <use x="57.519531" xlink:href="#DejaVuSans-57"/>
     <use x="156.396484" xlink:href="#DejaVuSans-48"/>
     <use x="231.591797" xlink:href="#DejaVuSans-4d"/>
    </g>
   </g>
   <g id="legend_1">
    <g id="patch_7">
     <path d="M 323.7325 162.42125 
L 390.723125 162.42125 
Q 392.723125 162.42125 392.723125 160.42125 
L 392.723125 29.318125 
Q 392.723125 27.318125 390.723125 27.318125 
L 323.7325 27.318125 
Q 321.7325 27.318125 321.7325 29.318125 
L 321.7325 160.42125 
Q 321.7325 162.42125 323.7325 162.42125 
z
" style="fill:#ffffff;opacity:0.8;stroke:#cccccc;stroke-linejoin:miter;"/>
    </g>
    <g id="PathCollection_10">
     <g>
      <use style="fill:#1f77b4;stroke:#1f77b4;" x="335.7325" xlink:href="#m755cbd5cef" y="36.291562"/>
     </g>
    </g>
    <g id="text_13">
     <!-- 305.53 -->
     <defs>
      <path d="M 10.6875 12.40625 
L 21 12.40625 
L 21 0 
L 10.6875 0 
z
" id="DejaVuSans-2e"/>
     </defs>
     <g transform="translate(353.7325 38.916562)scale(0.1 -0.1)">
      <use xlink:href="#DejaVuSans-33"/>
      <use x="63.623047" xlink:href="#DejaVuSans-30"/>
      <use x="127.246094" xlink:href="#DejaVuSans-35"/>
      <use x="190.869141" xlink:href="#DejaVuSans-2e"/>
      <use x="222.65625" xlink:href="#DejaVuSans-35"/>
      <use x="286.279297" xlink:href="#DejaVuSans-33"/>
     </g>
    </g>
    <g id="PathCollection_11">
     <g>
      <use style="fill:#ff7f0e;stroke:#ff7f0e;" x="335.7325" xlink:href="#mf7658d559c" y="50.969688"/>
     </g>
    </g>
    <g id="text_14">
     <!-- 310.31 -->
     <g transform="translate(353.7325 53.594688)scale(0.1 -0.1)">
      <use xlink:href="#DejaVuSans-33"/>
      <use x="63.623047" xlink:href="#DejaVuSans-31"/>
      <use x="127.246094" xlink:href="#DejaVuSans-30"/>
      <use x="190.869141" xlink:href="#DejaVuSans-2e"/>
      <use x="222.65625" xlink:href="#DejaVuSans-33"/>
      <use x="286.279297" xlink:href="#DejaVuSans-31"/>
     </g>
    </g>
    <g id="PathCollection_12">
     <g>
      <use style="fill:#2ca02c;stroke:#2ca02c;" x="335.7325" xlink:href="#mc50c7fb09e" y="65.647812"/>
     </g>
    </g>
    <g id="text_15">
     <!-- 315.06 -->
     <defs>
      <path d="M 33.015625 40.375 
Q 26.375 40.375 22.484375 35.828125 
Q 18.609375 31.296875 18.609375 23.390625 
Q 18.609375 15.53125 22.484375 10.953125 
Q 26.375 6.390625 33.015625 6.390625 
Q 39.65625 6.390625 43.53125 10.953125 
Q 47.40625 15.53125 47.40625 23.390625 
Q 47.40625 31.296875 43.53125 35.828125 
Q 39.65625 40.375 33.015625 40.375 
z
M 52.59375 71.296875 
L 52.59375 62.3125 
Q 48.875 64.0625 45.09375 64.984375 
Q 41.3125 65.921875 37.59375 65.921875 
Q 27.828125 65.921875 22.671875 59.328125 
Q 17.53125 52.734375 16.796875 39.40625 
Q 19.671875 43.65625 24.015625 45.921875 
Q 28.375 48.1875 33.59375 48.1875 
Q 44.578125 48.1875 50.953125 41.515625 
Q 57.328125 34.859375 57.328125 23.390625 
Q 57.328125 12.15625 50.6875 5.359375 
Q 44.046875 -1.421875 33.015625 -1.421875 
Q 20.359375 -1.421875 13.671875 8.265625 
Q 6.984375 17.96875 6.984375 36.375 
Q 6.984375 53.65625 15.1875 63.9375 
Q 23.390625 74.21875 37.203125 74.21875 
Q 40.921875 74.21875 44.703125 73.484375 
Q 48.484375 72.75 52.59375 71.296875 
z
" id="DejaVuSans-36"/>
     </defs>
     <g transform="translate(353.7325 68.272812)scale(0.1 -0.1)">
      <use xlink:href="#DejaVuSans-33"/>
      <use x="63.623047" xlink:href="#DejaVuSans-31"/>
      <use x="127.246094" xlink:href="#DejaVuSans-35"/>
      <use x="190.869141" xlink:href="#DejaVuSans-2e"/>
      <use x="222.65625" xlink:href="#DejaVuSans-30"/>
      <use x="286.279297" xlink:href="#DejaVuSans-36"/>
     </g>
    </g>
    <g id="PathCollection_13">
     <g>
      <use style="fill:#d62728;stroke:#d62728;" x="335.7325" xlink:href="#m52d5084888" y="80.325938"/>
     </g>
    </g>
    <g id="text_16">
     <!-- 319.89 -->
     <defs>
      <path d="M 10.984375 1.515625 
L 10.984375 10.5 
Q 14.703125 8.734375 18.5 7.8125 
Q 22.3125 6.890625 25.984375 6.890625 
Q 35.75 6.890625 40.890625 13.453125 
Q 46.046875 20.015625 46.78125 33.40625 
Q 43.953125 29.203125 39.59375 26.953125 
Q 35.25 24.703125 29.984375 24.703125 
Q 19.046875 24.703125 12.671875 31.3125 
Q 6.296875 37.9375 6.296875 49.421875 
Q 6.296875 60.640625 12.9375 67.421875 
Q 19.578125 74.21875 30.609375 74.21875 
Q 43.265625 74.21875 49.921875 64.515625 
Q 56.59375 54.828125 56.59375 36.375 
Q 56.59375 19.140625 48.40625 8.859375 
Q 40.234375 -1.421875 26.421875 -1.421875 
Q 22.703125 -1.421875 18.890625 -0.6875 
Q 15.09375 0.046875 10.984375 1.515625 
z
M 30.609375 32.421875 
Q 37.25 32.421875 41.125 36.953125 
Q 45.015625 41.5 45.015625 49.421875 
Q 45.015625 57.28125 41.125 61.84375 
Q 37.25 66.40625 30.609375 66.40625 
Q 23.96875 66.40625 20.09375 61.84375 
Q 16.21875 57.28125 16.21875 49.421875 
Q 16.21875 41.5 20.09375 36.953125 
Q 23.96875 32.421875 30.609375 32.421875 
z
" id="DejaVuSans-39"/>
      <path d="M 31.78125 34.625 
Q 24.75 34.625 20.71875 30.859375 
Q 16.703125 27.09375 16.703125 20.515625 
Q 16.703125 13.921875 20.71875 10.15625 
Q 24.75 6.390625 31.78125 6.390625 
Q 38.8125 6.390625 42.859375 10.171875 
Q 46.921875 13.96875 46.921875 20.515625 
Q 46.921875 27.09375 42.890625 30.859375 
Q 38.875 34.625 31.78125 34.625 
z
M 21.921875 38.8125 
Q 15.578125 40.375 12.03125 44.71875 
Q 8.5 49.078125 8.5 55.328125 
Q 8.5 64.0625 14.71875 69.140625 
Q 20.953125 74.21875 31.78125 74.21875 
Q 42.671875 74.21875 48.875 69.140625 
Q 55.078125 64.0625 55.078125 55.328125 
Q 55.078125 49.078125 51.53125 44.71875 
Q 48 40.375 41.703125 38.8125 
Q 48.828125 37.15625 52.796875 32.3125 
Q 56.78125 27.484375 56.78125 20.515625 
Q 56.78125 9.90625 50.3125 4.234375 
Q 43.84375 -1.421875 31.78125 -1.421875 
Q 19.734375 -1.421875 13.25 4.234375 
Q 6.78125 9.90625 6.78125 20.515625 
Q 6.78125 27.484375 10.78125 32.3125 
Q 14.796875 37.15625 21.921875 38.8125 
z
M 18.3125 54.390625 
Q 18.3125 48.734375 21.84375 45.5625 
Q 25.390625 42.390625 31.78125 42.390625 
Q 38.140625 42.390625 41.71875 45.5625 
Q 45.3125 48.734375 45.3125 54.390625 
Q 45.3125 60.0625 41.71875 63.234375 
Q 38.140625 66.40625 31.78125 66.40625 
Q 25.390625 66.40625 21.84375 63.234375 
Q 18.3125 60.0625 18.3125 54.390625 
z
" id="DejaVuSans-38"/>
     </defs>
     <g transform="translate(353.7325 82.950938)scale(0.1 -0.1)">
      <use xlink:href="#DejaVuSans-33"/>
      <use x="63.623047" xlink:href="#DejaVuSans-31"/>
      <use x="127.246094" xlink:href="#DejaVuSans-39"/>
      <use x="190.869141" xlink:href="#DejaVuSans-2e"/>
      <use x="222.65625" xlink:href="#DejaVuSans-38"/>
      <use x="286.279297" xlink:href="#DejaVuSans-39"/>
     </g>
    </g>
    <g id="PathCollection_14">
     <g>
      <use style="fill:#9467bd;stroke:#9467bd;" x="335.7325" xlink:href="#m9452fea787" y="95.004063"/>
     </g>
    </g>
    <g id="text_17">
     <!-- 324.69 -->
     <g transform="translate(353.7325 97.629063)scale(0.1 -0.1)">
      <use xlink:href="#DejaVuSans-33"/>
      <use x="63.623047" xlink:href="#DejaVuSans-32"/>
      <use x="127.246094" xlink:href="#DejaVuSans-34"/>
      <use x="190.869141" xlink:href="#DejaVuSans-2e"/>
      <use x="222.65625" xlink:href="#DejaVuSans-36"/>
      <use x="286.279297" xlink:href="#DejaVuSans-39"/>
     </g>
    </g>
    <g id="PathCollection_15">
     <g>
      <use style="fill:#8c564b;stroke:#8c564b;" x="335.7325" xlink:href="#me8a3790431" y="109.682187"/>
     </g>
    </g>
    <g id="text_18">
     <!-- 329.5 -->
     <g transform="translate(353.7325 112.307187)scale(0.1 -0.1)">
      <use xlink:href="#DejaVuSans-33"/>
      <use x="63.623047" xlink:href="#DejaVuSans-32"/>
      <use x="127.246094" xlink:href="#DejaVuSans-39"/>
      <use x="190.869141" xlink:href="#DejaVuSans-2e"/>
      <use x="222.65625" xlink:href="#DejaVuSans-35"/>
     </g>
    </g>
    <g id="PathCollection_16">
     <g>
      <use style="fill:#e377c2;stroke:#e377c2;" x="335.7325" xlink:href="#mbfd5002e5b" y="124.360312"/>
     </g>
    </g>
    <g id="text_19">
     <!-- 334.3 -->
     <g transform="translate(353.7325 126.985312)scale(0.1 -0.1)">
      <use xlink:href="#DejaVuSans-33"/>
      <use x="63.623047" xlink:href="#DejaVuSans-33"/>
      <use x="127.246094" xlink:href="#DejaVuSans-34"/>
      <use x="190.869141" xlink:href="#DejaVuSans-2e"/>
      <use x="222.65625" xlink:href="#DejaVuSans-33"/>
     </g>
    </g>
    <g id="PathCollection_17">
     <g>
      <use style="fill:#7f7f7f;stroke:#7f7f7f;" x="335.7325" xlink:href="#m3c62b9a56d" y="139.038437"/>
     </g>
    </g>
    <g id="text_20">
     <!-- 339.1 -->
     <g transform="translate(353.7325 141.663437)scale(0.1 -0.1)">
      <use xlink:href="#DejaVuSans-33"/>
      <use x="63.623047" xlink:href="#DejaVuSans-33"/>
      <use x="127.246094" xlink:href="#DejaVuSans-39"/>
      <use x="190.869141" xlink:href="#DejaVuSans-2e"/>
      <use x="222.65625" xlink:href="#DejaVuSans-31"/>
     </g>
    </g>
    <g id="PathCollection_18">
     <g>
      <use style="fill:#bcbd22;stroke:#bcbd22;" x="335.7325" xlink:href="#m8a4a36b26a" y="153.716562"/>
     </g>
    </g>
    <g id="text_21">
     <!-- 343.86 -->
     <g transform="translate(353.7325 156.341562)scale(0.1 -0.1)">
      <use xlink:href="#DejaVuSans-33"/>
      <use x="63.623047" xlink:href="#DejaVuSans-34"/>
      <use x="127.246094" xlink:href="#DejaVuSans-33"/>
      <use x="190.869141" xlink:href="#DejaVuSans-2e"/>
      <use x="222.65625" xlink:href="#DejaVuSans-38"/>
      <use x="286.279297" xlink:href="#DejaVuSans-36"/>
     </g>
    </g>
   </g>
  </g>
 </g>
 <defs>
  <clipPath id="pc7b615bb56">
   <rect height="266.112" width="357.12" x="40.603125" y="22.318125"/>
  </clipPath>
 </defs>
</svg>
