<?xml version="1.0" encoding="utf-8" standalone="no"?>
<!DOCTYPE svg PUBLIC "-//W3C//DTD SVG 1.1//EN"
  "http://www.w3.org/Graphics/SVG/1.1/DTD/svg11.dtd">
<!-- Created with matplotlib (http://matplotlib.org/) -->
<svg height="325pt" version="1.1" viewBox="0 0 435 325" width="435pt" xmlns="http://www.w3.org/2000/svg" xmlns:xlink="http://www.w3.org/1999/xlink">
 <defs>
  <style type="text/css">
*{stroke-linecap:butt;stroke-linejoin:round;}
  </style>
 </defs>
 <g id="figure_1">
  <g id="patch_1">
   <path d="M 0 325.986375 
L 435.568437 325.986375 
L 435.568437 0 
L 0 0 
z
" style="fill:#ffffff;"/>
  </g>
  <g id="axes_1">
   <g id="patch_2">
    <path d="M 52.160938 288.430125 
L 409.280938 288.430125 
L 409.280938 22.318125 
L 52.160938 22.318125 
z
" style="fill:#ffffff;"/>
   </g>
   <g id="matplotlib.axis_1">
    <g id="xtick_1">
     <g id="line2d_1">
      <path clip-path="url(#pb0c6ba70b7)" d="M 52.160937 288.430125 
L 52.160937 22.318125 
" style="fill:none;stroke:#b0b0b0;stroke-linecap:square;stroke-width:0.8;"/>
     </g>
     <g id="line2d_2">
      <defs>
       <path d="M 0 0 
L 0 3.5 
" id="m9862c97032" style="stroke:#000000;stroke-width:0.8;"/>
      </defs>
      <g>
       <use style="stroke:#000000;stroke-width:0.8;" x="52.160937" xlink:href="#m9862c97032" y="288.430125"/>
      </g>
     </g>
     <g id="text_1">
      <!-- −100000 -->
      <defs>
       <path d="M 10.59375 35.5 
L 73.1875 35.5 
L 73.1875 27.203125 
L 10.59375 27.203125 
z
" id="DejaVuSans-2212"/>
       <path d="M 12.40625 8.296875 
L 28.515625 8.296875 
L 28.515625 63.921875 
L 10.984375 60.40625 
L 10.984375 69.390625 
L 28.421875 72.90625 
L 38.28125 72.90625 
L 38.28125 8.296875 
L 54.390625 8.296875 
L 54.390625 0 
L 12.40625 0 
z
" id="DejaVuSans-31"/>
       <path d="M 31.78125 66.40625 
Q 24.171875 66.40625 20.328125 58.90625 
Q 16.5 51.421875 16.5 36.375 
Q 16.5 21.390625 20.328125 13.890625 
Q 24.171875 6.390625 31.78125 6.390625 
Q 39.453125 6.390625 43.28125 13.890625 
Q 47.125 21.390625 47.125 36.375 
Q 47.125 51.421875 43.28125 58.90625 
Q 39.453125 66.40625 31.78125 66.40625 
z
M 31.78125 74.21875 
Q 44.046875 74.21875 50.515625 64.515625 
Q 56.984375 54.828125 56.984375 36.375 
Q 56.984375 17.96875 50.515625 8.265625 
Q 44.046875 -1.421875 31.78125 -1.421875 
Q 19.53125 -1.421875 13.0625 8.265625 
Q 6.59375 17.96875 6.59375 36.375 
Q 6.59375 54.828125 13.0625 64.515625 
Q 19.53125 74.21875 31.78125 74.21875 
z
" id="DejaVuSans-30"/>
      </defs>
      <g transform="translate(28.883594 303.028562)scale(0.1 -0.1)">
       <use xlink:href="#DejaVuSans-2212"/>
       <use x="83.789062" xlink:href="#DejaVuSans-31"/>
       <use x="147.412109" xlink:href="#DejaVuSans-30"/>
       <use x="211.035156" xlink:href="#DejaVuSans-30"/>
       <use x="274.658203" xlink:href="#DejaVuSans-30"/>
       <use x="338.28125" xlink:href="#DejaVuSans-30"/>
       <use x="401.904297" xlink:href="#DejaVuSans-30"/>
      </g>
     </g>
    </g>
    <g id="xtick_2">
     <g id="line2d_3">
      <path clip-path="url(#pb0c6ba70b7)" d="M 96.800938 288.430125 
L 96.800938 22.318125 
" style="fill:none;stroke:#b0b0b0;stroke-linecap:square;stroke-width:0.8;"/>
     </g>
     <g id="line2d_4">
      <g>
       <use style="stroke:#000000;stroke-width:0.8;" x="96.800938" xlink:href="#m9862c97032" y="288.430125"/>
      </g>
     </g>
     <g id="text_2">
      <!-- −75000 -->
      <defs>
       <path d="M 8.203125 72.90625 
L 55.078125 72.90625 
L 55.078125 68.703125 
L 28.609375 0 
L 18.3125 0 
L 43.21875 64.59375 
L 8.203125 64.59375 
z
" id="DejaVuSans-37"/>
       <path d="M 10.796875 72.90625 
L 49.515625 72.90625 
L 49.515625 64.59375 
L 19.828125 64.59375 
L 19.828125 46.734375 
Q 21.96875 47.46875 24.109375 47.828125 
Q 26.265625 48.1875 28.421875 48.1875 
Q 40.625 48.1875 47.75 41.5 
Q 54.890625 34.8125 54.890625 23.390625 
Q 54.890625 11.625 47.5625 5.09375 
Q 40.234375 -1.421875 26.90625 -1.421875 
Q 22.3125 -1.421875 17.546875 -0.640625 
Q 12.796875 0.140625 7.71875 1.703125 
L 7.71875 11.625 
Q 12.109375 9.234375 16.796875 8.0625 
Q 21.484375 6.890625 26.703125 6.890625 
Q 35.15625 6.890625 40.078125 11.328125 
Q 45.015625 15.765625 45.015625 23.390625 
Q 45.015625 31 40.078125 35.4375 
Q 35.15625 39.890625 26.703125 39.890625 
Q 22.75 39.890625 18.8125 39.015625 
Q 14.890625 38.140625 10.796875 36.28125 
z
" id="DejaVuSans-35"/>
      </defs>
      <g transform="translate(76.704844 303.028562)scale(0.1 -0.1)">
       <use xlink:href="#DejaVuSans-2212"/>
       <use x="83.789062" xlink:href="#DejaVuSans-37"/>
       <use x="147.412109" xlink:href="#DejaVuSans-35"/>
       <use x="211.035156" xlink:href="#DejaVuSans-30"/>
       <use x="274.658203" xlink:href="#DejaVuSans-30"/>
       <use x="338.28125" xlink:href="#DejaVuSans-30"/>
      </g>
     </g>
    </g>
    <g id="xtick_3">
     <g id="line2d_5">
      <path clip-path="url(#pb0c6ba70b7)" d="M 141.440938 288.430125 
L 141.440938 22.318125 
" style="fill:none;stroke:#b0b0b0;stroke-linecap:square;stroke-width:0.8;"/>
     </g>
     <g id="line2d_6">
      <g>
       <use style="stroke:#000000;stroke-width:0.8;" x="141.440938" xlink:href="#m9862c97032" y="288.430125"/>
      </g>
     </g>
     <g id="text_3">
      <!-- −50000 -->
      <g transform="translate(121.344844 303.028562)scale(0.1 -0.1)">
       <use xlink:href="#DejaVuSans-2212"/>
       <use x="83.789062" xlink:href="#DejaVuSans-35"/>
       <use x="147.412109" xlink:href="#DejaVuSans-30"/>
       <use x="211.035156" xlink:href="#DejaVuSans-30"/>
       <use x="274.658203" xlink:href="#DejaVuSans-30"/>
       <use x="338.28125" xlink:href="#DejaVuSans-30"/>
      </g>
     </g>
    </g>
    <g id="xtick_4">
     <g id="line2d_7">
      <path clip-path="url(#pb0c6ba70b7)" d="M 186.080938 288.430125 
L 186.080938 22.318125 
" style="fill:none;stroke:#b0b0b0;stroke-linecap:square;stroke-width:0.8;"/>
     </g>
     <g id="line2d_8">
      <g>
       <use style="stroke:#000000;stroke-width:0.8;" x="186.080938" xlink:href="#m9862c97032" y="288.430125"/>
      </g>
     </g>
     <g id="text_4">
      <!-- −25000 -->
      <defs>
       <path d="M 19.1875 8.296875 
L 53.609375 8.296875 
L 53.609375 0 
L 7.328125 0 
L 7.328125 8.296875 
Q 12.9375 14.109375 22.625 23.890625 
Q 32.328125 33.6875 34.8125 36.53125 
Q 39.546875 41.84375 41.421875 45.53125 
Q 43.3125 49.21875 43.3125 52.78125 
Q 43.3125 58.59375 39.234375 62.25 
Q 35.15625 65.921875 28.609375 65.921875 
Q 23.96875 65.921875 18.8125 64.3125 
Q 13.671875 62.703125 7.8125 59.421875 
L 7.8125 69.390625 
Q 13.765625 71.78125 18.9375 73 
Q 24.125 74.21875 28.421875 74.21875 
Q 39.75 74.21875 46.484375 68.546875 
Q 53.21875 62.890625 53.21875 53.421875 
Q 53.21875 48.921875 51.53125 44.890625 
Q 49.859375 40.875 45.40625 35.40625 
Q 44.1875 33.984375 37.640625 27.21875 
Q 31.109375 20.453125 19.1875 8.296875 
z
" id="DejaVuSans-32"/>
      </defs>
      <g transform="translate(165.984844 303.028562)scale(0.1 -0.1)">
       <use xlink:href="#DejaVuSans-2212"/>
       <use x="83.789062" xlink:href="#DejaVuSans-32"/>
       <use x="147.412109" xlink:href="#DejaVuSans-35"/>
       <use x="211.035156" xlink:href="#DejaVuSans-30"/>
       <use x="274.658203" xlink:href="#DejaVuSans-30"/>
       <use x="338.28125" xlink:href="#DejaVuSans-30"/>
      </g>
     </g>
    </g>
    <g id="xtick_5">
     <g id="line2d_9">
      <path clip-path="url(#pb0c6ba70b7)" d="M 230.720938 288.430125 
L 230.720938 22.318125 
" style="fill:none;stroke:#b0b0b0;stroke-linecap:square;stroke-width:0.8;"/>
     </g>
     <g id="line2d_10">
      <g>
       <use style="stroke:#000000;stroke-width:0.8;" x="230.720938" xlink:href="#m9862c97032" y="288.430125"/>
      </g>
     </g>
     <g id="text_5">
      <!-- 0 -->
      <g transform="translate(227.539688 303.028562)scale(0.1 -0.1)">
       <use xlink:href="#DejaVuSans-30"/>
      </g>
     </g>
    </g>
    <g id="xtick_6">
     <g id="line2d_11">
      <path clip-path="url(#pb0c6ba70b7)" d="M 275.360938 288.430125 
L 275.360938 22.318125 
" style="fill:none;stroke:#b0b0b0;stroke-linecap:square;stroke-width:0.8;"/>
     </g>
     <g id="line2d_12">
      <g>
       <use style="stroke:#000000;stroke-width:0.8;" x="275.360938" xlink:href="#m9862c97032" y="288.430125"/>
      </g>
     </g>
     <g id="text_6">
      <!-- 25000 -->
      <g transform="translate(259.454688 303.028562)scale(0.1 -0.1)">
       <use xlink:href="#DejaVuSans-32"/>
       <use x="63.623047" xlink:href="#DejaVuSans-35"/>
       <use x="127.246094" xlink:href="#DejaVuSans-30"/>
       <use x="190.869141" xlink:href="#DejaVuSans-30"/>
       <use x="254.492188" xlink:href="#DejaVuSans-30"/>
      </g>
     </g>
    </g>
    <g id="xtick_7">
     <g id="line2d_13">
      <path clip-path="url(#pb0c6ba70b7)" d="M 320.000938 288.430125 
L 320.000938 22.318125 
" style="fill:none;stroke:#b0b0b0;stroke-linecap:square;stroke-width:0.8;"/>
     </g>
     <g id="line2d_14">
      <g>
       <use style="stroke:#000000;stroke-width:0.8;" x="320.000938" xlink:href="#m9862c97032" y="288.430125"/>
      </g>
     </g>
     <g id="text_7">
      <!-- 50000 -->
      <g transform="translate(304.094688 303.028562)scale(0.1 -0.1)">
       <use xlink:href="#DejaVuSans-35"/>
       <use x="63.623047" xlink:href="#DejaVuSans-30"/>
       <use x="127.246094" xlink:href="#DejaVuSans-30"/>
       <use x="190.869141" xlink:href="#DejaVuSans-30"/>
       <use x="254.492188" xlink:href="#DejaVuSans-30"/>
      </g>
     </g>
    </g>
    <g id="xtick_8">
     <g id="line2d_15">
      <path clip-path="url(#pb0c6ba70b7)" d="M 364.640938 288.430125 
L 364.640938 22.318125 
" style="fill:none;stroke:#b0b0b0;stroke-linecap:square;stroke-width:0.8;"/>
     </g>
     <g id="line2d_16">
      <g>
       <use style="stroke:#000000;stroke-width:0.8;" x="364.640938" xlink:href="#m9862c97032" y="288.430125"/>
      </g>
     </g>
     <g id="text_8">
      <!-- 75000 -->
      <g transform="translate(348.734688 303.028562)scale(0.1 -0.1)">
       <use xlink:href="#DejaVuSans-37"/>
       <use x="63.623047" xlink:href="#DejaVuSans-35"/>
       <use x="127.246094" xlink:href="#DejaVuSans-30"/>
       <use x="190.869141" xlink:href="#DejaVuSans-30"/>
       <use x="254.492188" xlink:href="#DejaVuSans-30"/>
      </g>
     </g>
    </g>
    <g id="xtick_9">
     <g id="line2d_17">
      <path clip-path="url(#pb0c6ba70b7)" d="M 409.280938 288.430125 
L 409.280938 22.318125 
" style="fill:none;stroke:#b0b0b0;stroke-linecap:square;stroke-width:0.8;"/>
     </g>
     <g id="line2d_18">
      <g>
       <use style="stroke:#000000;stroke-width:0.8;" x="409.280938" xlink:href="#m9862c97032" y="288.430125"/>
      </g>
     </g>
     <g id="text_9">
      <!-- 100000 -->
      <g transform="translate(390.193438 303.028562)scale(0.1 -0.1)">
       <use xlink:href="#DejaVuSans-31"/>
       <use x="63.623047" xlink:href="#DejaVuSans-30"/>
       <use x="127.246094" xlink:href="#DejaVuSans-30"/>
       <use x="190.869141" xlink:href="#DejaVuSans-30"/>
       <use x="254.492188" xlink:href="#DejaVuSans-30"/>
       <use x="318.115234" xlink:href="#DejaVuSans-30"/>
      </g>
     </g>
    </g>
    <g id="text_10">
     <!-- Frequenz [Hz] -->
     <defs>
      <path d="M 9.8125 72.90625 
L 51.703125 72.90625 
L 51.703125 64.59375 
L 19.671875 64.59375 
L 19.671875 43.109375 
L 48.578125 43.109375 
L 48.578125 34.8125 
L 19.671875 34.8125 
L 19.671875 0 
L 9.8125 0 
z
" id="DejaVuSans-46"/>
      <path d="M 41.109375 46.296875 
Q 39.59375 47.171875 37.8125 47.578125 
Q 36.03125 48 33.890625 48 
Q 26.265625 48 22.1875 43.046875 
Q 18.109375 38.09375 18.109375 28.8125 
L 18.109375 0 
L 9.078125 0 
L 9.078125 54.6875 
L 18.109375 54.6875 
L 18.109375 46.1875 
Q 20.953125 51.171875 25.484375 53.578125 
Q 30.03125 56 36.53125 56 
Q 37.453125 56 38.578125 55.875 
Q 39.703125 55.765625 41.0625 55.515625 
z
" id="DejaVuSans-72"/>
      <path d="M 56.203125 29.59375 
L 56.203125 25.203125 
L 14.890625 25.203125 
Q 15.484375 15.921875 20.484375 11.0625 
Q 25.484375 6.203125 34.421875 6.203125 
Q 39.59375 6.203125 44.453125 7.46875 
Q 49.3125 8.734375 54.109375 11.28125 
L 54.109375 2.78125 
Q 49.265625 0.734375 44.1875 -0.34375 
Q 39.109375 -1.421875 33.890625 -1.421875 
Q 20.796875 -1.421875 13.15625 6.1875 
Q 5.515625 13.8125 5.515625 26.8125 
Q 5.515625 40.234375 12.765625 48.109375 
Q 20.015625 56 32.328125 56 
Q 43.359375 56 49.78125 48.890625 
Q 56.203125 41.796875 56.203125 29.59375 
z
M 47.21875 32.234375 
Q 47.125 39.59375 43.09375 43.984375 
Q 39.0625 48.390625 32.421875 48.390625 
Q 24.90625 48.390625 20.390625 44.140625 
Q 15.875 39.890625 15.1875 32.171875 
z
" id="DejaVuSans-65"/>
      <path d="M 14.796875 27.296875 
Q 14.796875 17.390625 18.875 11.75 
Q 22.953125 6.109375 30.078125 6.109375 
Q 37.203125 6.109375 41.296875 11.75 
Q 45.40625 17.390625 45.40625 27.296875 
Q 45.40625 37.203125 41.296875 42.84375 
Q 37.203125 48.484375 30.078125 48.484375 
Q 22.953125 48.484375 18.875 42.84375 
Q 14.796875 37.203125 14.796875 27.296875 
z
M 45.40625 8.203125 
Q 42.578125 3.328125 38.25 0.953125 
Q 33.9375 -1.421875 27.875 -1.421875 
Q 17.96875 -1.421875 11.734375 6.484375 
Q 5.515625 14.40625 5.515625 27.296875 
Q 5.515625 40.1875 11.734375 48.09375 
Q 17.96875 56 27.875 56 
Q 33.9375 56 38.25 53.625 
Q 42.578125 51.265625 45.40625 46.390625 
L 45.40625 54.6875 
L 54.390625 54.6875 
L 54.390625 -20.796875 
L 45.40625 -20.796875 
z
" id="DejaVuSans-71"/>
      <path d="M 8.5 21.578125 
L 8.5 54.6875 
L 17.484375 54.6875 
L 17.484375 21.921875 
Q 17.484375 14.15625 20.5 10.265625 
Q 23.53125 6.390625 29.59375 6.390625 
Q 36.859375 6.390625 41.078125 11.03125 
Q 45.3125 15.671875 45.3125 23.6875 
L 45.3125 54.6875 
L 54.296875 54.6875 
L 54.296875 0 
L 45.3125 0 
L 45.3125 8.40625 
Q 42.046875 3.421875 37.71875 1 
Q 33.40625 -1.421875 27.6875 -1.421875 
Q 18.265625 -1.421875 13.375 4.4375 
Q 8.5 10.296875 8.5 21.578125 
z
M 31.109375 56 
z
" id="DejaVuSans-75"/>
      <path d="M 54.890625 33.015625 
L 54.890625 0 
L 45.90625 0 
L 45.90625 32.71875 
Q 45.90625 40.484375 42.875 44.328125 
Q 39.84375 48.1875 33.796875 48.1875 
Q 26.515625 48.1875 22.3125 43.546875 
Q 18.109375 38.921875 18.109375 30.90625 
L 18.109375 0 
L 9.078125 0 
L 9.078125 54.6875 
L 18.109375 54.6875 
L 18.109375 46.1875 
Q 21.34375 51.125 25.703125 53.5625 
Q 30.078125 56 35.796875 56 
Q 45.21875 56 50.046875 50.171875 
Q 54.890625 44.34375 54.890625 33.015625 
z
" id="DejaVuSans-6e"/>
      <path d="M 5.515625 54.6875 
L 48.1875 54.6875 
L 48.1875 46.484375 
L 14.40625 7.171875 
L 48.1875 7.171875 
L 48.1875 0 
L 4.296875 0 
L 4.296875 8.203125 
L 38.09375 47.515625 
L 5.515625 47.515625 
z
" id="DejaVuSans-7a"/>
      <path id="DejaVuSans-20"/>
      <path d="M 8.59375 75.984375 
L 29.296875 75.984375 
L 29.296875 69 
L 17.578125 69 
L 17.578125 -6.203125 
L 29.296875 -6.203125 
L 29.296875 -13.1875 
L 8.59375 -13.1875 
z
" id="DejaVuSans-5b"/>
      <path d="M 9.8125 72.90625 
L 19.671875 72.90625 
L 19.671875 43.015625 
L 55.515625 43.015625 
L 55.515625 72.90625 
L 65.375 72.90625 
L 65.375 0 
L 55.515625 0 
L 55.515625 34.71875 
L 19.671875 34.71875 
L 19.671875 0 
L 9.8125 0 
z
" id="DejaVuSans-48"/>
      <path d="M 30.421875 75.984375 
L 30.421875 -13.1875 
L 9.71875 -13.1875 
L 9.71875 -6.203125 
L 21.390625 -6.203125 
L 21.390625 69 
L 9.71875 69 
L 9.71875 75.984375 
z
" id="DejaVuSans-5d"/>
     </defs>
     <g transform="translate(195.632656 316.706687)scale(0.1 -0.1)">
      <use xlink:href="#DejaVuSans-46"/>
      <use x="57.410156" xlink:href="#DejaVuSans-72"/>
      <use x="98.492188" xlink:href="#DejaVuSans-65"/>
      <use x="160.015625" xlink:href="#DejaVuSans-71"/>
      <use x="223.492188" xlink:href="#DejaVuSans-75"/>
      <use x="286.871094" xlink:href="#DejaVuSans-65"/>
      <use x="348.394531" xlink:href="#DejaVuSans-6e"/>
      <use x="411.773438" xlink:href="#DejaVuSans-7a"/>
      <use x="464.263672" xlink:href="#DejaVuSans-20"/>
      <use x="496.050781" xlink:href="#DejaVuSans-5b"/>
      <use x="535.064453" xlink:href="#DejaVuSans-48"/>
      <use x="610.259766" xlink:href="#DejaVuSans-7a"/>
      <use x="662.75" xlink:href="#DejaVuSans-5d"/>
     </g>
    </g>
   </g>
   <g id="matplotlib.axis_2">
    <g id="ytick_1">
     <g id="line2d_19">
      <path clip-path="url(#pb0c6ba70b7)" d="M 52.160938 283.871707 
L 409.280938 283.871707 
" style="fill:none;stroke:#b0b0b0;stroke-linecap:square;stroke-width:0.8;"/>
     </g>
     <g id="line2d_20">
      <defs>
       <path d="M 0 0 
L -3.5 0 
" id="m4ed26c5d03" style="stroke:#000000;stroke-width:0.8;"/>
      </defs>
      <g>
       <use style="stroke:#000000;stroke-width:0.8;" x="52.160938" xlink:href="#m4ed26c5d03" y="283.871707"/>
      </g>
     </g>
     <g id="text_11">
      <!-- −0.6 -->
      <defs>
       <path d="M 10.6875 12.40625 
L 21 12.40625 
L 21 0 
L 10.6875 0 
z
" id="DejaVuSans-2e"/>
       <path d="M 33.015625 40.375 
Q 26.375 40.375 22.484375 35.828125 
Q 18.609375 31.296875 18.609375 23.390625 
Q 18.609375 15.53125 22.484375 10.953125 
Q 26.375 6.390625 33.015625 6.390625 
Q 39.65625 6.390625 43.53125 10.953125 
Q 47.40625 15.53125 47.40625 23.390625 
Q 47.40625 31.296875 43.53125 35.828125 
Q 39.65625 40.375 33.015625 40.375 
z
M 52.59375 71.296875 
L 52.59375 62.3125 
Q 48.875 64.0625 45.09375 64.984375 
Q 41.3125 65.921875 37.59375 65.921875 
Q 27.828125 65.921875 22.671875 59.328125 
Q 17.53125 52.734375 16.796875 39.40625 
Q 19.671875 43.65625 24.015625 45.921875 
Q 28.375 48.1875 33.59375 48.1875 
Q 44.578125 48.1875 50.953125 41.515625 
Q 57.328125 34.859375 57.328125 23.390625 
Q 57.328125 12.15625 50.6875 5.359375 
Q 44.046875 -1.421875 33.015625 -1.421875 
Q 20.359375 -1.421875 13.671875 8.265625 
Q 6.984375 17.96875 6.984375 36.375 
Q 6.984375 53.65625 15.1875 63.9375 
Q 23.390625 74.21875 37.203125 74.21875 
Q 40.921875 74.21875 44.703125 73.484375 
Q 48.484375 72.75 52.59375 71.296875 
z
" id="DejaVuSans-36"/>
      </defs>
      <g transform="translate(20.878125 287.670926)scale(0.1 -0.1)">
       <use xlink:href="#DejaVuSans-2212"/>
       <use x="83.789062" xlink:href="#DejaVuSans-30"/>
       <use x="147.412109" xlink:href="#DejaVuSans-2e"/>
       <use x="179.199219" xlink:href="#DejaVuSans-36"/>
      </g>
     </g>
    </g>
    <g id="ytick_2">
     <g id="line2d_21">
      <path clip-path="url(#pb0c6ba70b7)" d="M 52.160938 252.689509 
L 409.280938 252.689509 
" style="fill:none;stroke:#b0b0b0;stroke-linecap:square;stroke-width:0.8;"/>
     </g>
     <g id="line2d_22">
      <g>
       <use style="stroke:#000000;stroke-width:0.8;" x="52.160938" xlink:href="#m4ed26c5d03" y="252.689509"/>
      </g>
     </g>
     <g id="text_12">
      <!-- −0.4 -->
      <defs>
       <path d="M 37.796875 64.3125 
L 12.890625 25.390625 
L 37.796875 25.390625 
z
M 35.203125 72.90625 
L 47.609375 72.90625 
L 47.609375 25.390625 
L 58.015625 25.390625 
L 58.015625 17.1875 
L 47.609375 17.1875 
L 47.609375 0 
L 37.796875 0 
L 37.796875 17.1875 
L 4.890625 17.1875 
L 4.890625 26.703125 
z
" id="DejaVuSans-34"/>
      </defs>
      <g transform="translate(20.878125 256.488728)scale(0.1 -0.1)">
       <use xlink:href="#DejaVuSans-2212"/>
       <use x="83.789062" xlink:href="#DejaVuSans-30"/>
       <use x="147.412109" xlink:href="#DejaVuSans-2e"/>
       <use x="179.199219" xlink:href="#DejaVuSans-34"/>
      </g>
     </g>
    </g>
    <g id="ytick_3">
     <g id="line2d_23">
      <path clip-path="url(#pb0c6ba70b7)" d="M 52.160938 221.507312 
L 409.280938 221.507312 
" style="fill:none;stroke:#b0b0b0;stroke-linecap:square;stroke-width:0.8;"/>
     </g>
     <g id="line2d_24">
      <g>
       <use style="stroke:#000000;stroke-width:0.8;" x="52.160938" xlink:href="#m4ed26c5d03" y="221.507312"/>
      </g>
     </g>
     <g id="text_13">
      <!-- −0.2 -->
      <g transform="translate(20.878125 225.30653)scale(0.1 -0.1)">
       <use xlink:href="#DejaVuSans-2212"/>
       <use x="83.789062" xlink:href="#DejaVuSans-30"/>
       <use x="147.412109" xlink:href="#DejaVuSans-2e"/>
       <use x="179.199219" xlink:href="#DejaVuSans-32"/>
      </g>
     </g>
    </g>
    <g id="ytick_4">
     <g id="line2d_25">
      <path clip-path="url(#pb0c6ba70b7)" d="M 52.160938 190.325114 
L 409.280938 190.325114 
" style="fill:none;stroke:#b0b0b0;stroke-linecap:square;stroke-width:0.8;"/>
     </g>
     <g id="line2d_26">
      <g>
       <use style="stroke:#000000;stroke-width:0.8;" x="52.160938" xlink:href="#m4ed26c5d03" y="190.325114"/>
      </g>
     </g>
     <g id="text_14">
      <!-- 0.0 -->
      <g transform="translate(29.257813 194.124333)scale(0.1 -0.1)">
       <use xlink:href="#DejaVuSans-30"/>
       <use x="63.623047" xlink:href="#DejaVuSans-2e"/>
       <use x="95.410156" xlink:href="#DejaVuSans-30"/>
      </g>
     </g>
    </g>
    <g id="ytick_5">
     <g id="line2d_27">
      <path clip-path="url(#pb0c6ba70b7)" d="M 52.160938 159.142916 
L 409.280938 159.142916 
" style="fill:none;stroke:#b0b0b0;stroke-linecap:square;stroke-width:0.8;"/>
     </g>
     <g id="line2d_28">
      <g>
       <use style="stroke:#000000;stroke-width:0.8;" x="52.160938" xlink:href="#m4ed26c5d03" y="159.142916"/>
      </g>
     </g>
     <g id="text_15">
      <!-- 0.2 -->
      <g transform="translate(29.257813 162.942135)scale(0.1 -0.1)">
       <use xlink:href="#DejaVuSans-30"/>
       <use x="63.623047" xlink:href="#DejaVuSans-2e"/>
       <use x="95.410156" xlink:href="#DejaVuSans-32"/>
      </g>
     </g>
    </g>
    <g id="ytick_6">
     <g id="line2d_29">
      <path clip-path="url(#pb0c6ba70b7)" d="M 52.160938 127.960718 
L 409.280938 127.960718 
" style="fill:none;stroke:#b0b0b0;stroke-linecap:square;stroke-width:0.8;"/>
     </g>
     <g id="line2d_30">
      <g>
       <use style="stroke:#000000;stroke-width:0.8;" x="52.160938" xlink:href="#m4ed26c5d03" y="127.960718"/>
      </g>
     </g>
     <g id="text_16">
      <!-- 0.4 -->
      <g transform="translate(29.257813 131.759937)scale(0.1 -0.1)">
       <use xlink:href="#DejaVuSans-30"/>
       <use x="63.623047" xlink:href="#DejaVuSans-2e"/>
       <use x="95.410156" xlink:href="#DejaVuSans-34"/>
      </g>
     </g>
    </g>
    <g id="ytick_7">
     <g id="line2d_31">
      <path clip-path="url(#pb0c6ba70b7)" d="M 52.160938 96.778521 
L 409.280938 96.778521 
" style="fill:none;stroke:#b0b0b0;stroke-linecap:square;stroke-width:0.8;"/>
     </g>
     <g id="line2d_32">
      <g>
       <use style="stroke:#000000;stroke-width:0.8;" x="52.160938" xlink:href="#m4ed26c5d03" y="96.778521"/>
      </g>
     </g>
     <g id="text_17">
      <!-- 0.6 -->
      <g transform="translate(29.257813 100.577739)scale(0.1 -0.1)">
       <use xlink:href="#DejaVuSans-30"/>
       <use x="63.623047" xlink:href="#DejaVuSans-2e"/>
       <use x="95.410156" xlink:href="#DejaVuSans-36"/>
      </g>
     </g>
    </g>
    <g id="ytick_8">
     <g id="line2d_33">
      <path clip-path="url(#pb0c6ba70b7)" d="M 52.160938 65.596323 
L 409.280938 65.596323 
" style="fill:none;stroke:#b0b0b0;stroke-linecap:square;stroke-width:0.8;"/>
     </g>
     <g id="line2d_34">
      <g>
       <use style="stroke:#000000;stroke-width:0.8;" x="52.160938" xlink:href="#m4ed26c5d03" y="65.596323"/>
      </g>
     </g>
     <g id="text_18">
      <!-- 0.8 -->
      <defs>
       <path d="M 31.78125 34.625 
Q 24.75 34.625 20.71875 30.859375 
Q 16.703125 27.09375 16.703125 20.515625 
Q 16.703125 13.921875 20.71875 10.15625 
Q 24.75 6.390625 31.78125 6.390625 
Q 38.8125 6.390625 42.859375 10.171875 
Q 46.921875 13.96875 46.921875 20.515625 
Q 46.921875 27.09375 42.890625 30.859375 
Q 38.875 34.625 31.78125 34.625 
z
M 21.921875 38.8125 
Q 15.578125 40.375 12.03125 44.71875 
Q 8.5 49.078125 8.5 55.328125 
Q 8.5 64.0625 14.71875 69.140625 
Q 20.953125 74.21875 31.78125 74.21875 
Q 42.671875 74.21875 48.875 69.140625 
Q 55.078125 64.0625 55.078125 55.328125 
Q 55.078125 49.078125 51.53125 44.71875 
Q 48 40.375 41.703125 38.8125 
Q 48.828125 37.15625 52.796875 32.3125 
Q 56.78125 27.484375 56.78125 20.515625 
Q 56.78125 9.90625 50.3125 4.234375 
Q 43.84375 -1.421875 31.78125 -1.421875 
Q 19.734375 -1.421875 13.25 4.234375 
Q 6.78125 9.90625 6.78125 20.515625 
Q 6.78125 27.484375 10.78125 32.3125 
Q 14.796875 37.15625 21.921875 38.8125 
z
M 18.3125 54.390625 
Q 18.3125 48.734375 21.84375 45.5625 
Q 25.390625 42.390625 31.78125 42.390625 
Q 38.140625 42.390625 41.71875 45.5625 
Q 45.3125 48.734375 45.3125 54.390625 
Q 45.3125 60.0625 41.71875 63.234375 
Q 38.140625 66.40625 31.78125 66.40625 
Q 25.390625 66.40625 21.84375 63.234375 
Q 18.3125 60.0625 18.3125 54.390625 
z
" id="DejaVuSans-38"/>
      </defs>
      <g transform="translate(29.257813 69.395542)scale(0.1 -0.1)">
       <use xlink:href="#DejaVuSans-30"/>
       <use x="63.623047" xlink:href="#DejaVuSans-2e"/>
       <use x="95.410156" xlink:href="#DejaVuSans-38"/>
      </g>
     </g>
    </g>
    <g id="ytick_9">
     <g id="line2d_35">
      <path clip-path="url(#pb0c6ba70b7)" d="M 52.160938 34.414125 
L 409.280938 34.414125 
" style="fill:none;stroke:#b0b0b0;stroke-linecap:square;stroke-width:0.8;"/>
     </g>
     <g id="line2d_36">
      <g>
       <use style="stroke:#000000;stroke-width:0.8;" x="52.160938" xlink:href="#m4ed26c5d03" y="34.414125"/>
      </g>
     </g>
     <g id="text_19">
      <!-- 1.0 -->
      <g transform="translate(29.257813 38.213344)scale(0.1 -0.1)">
       <use xlink:href="#DejaVuSans-31"/>
       <use x="63.623047" xlink:href="#DejaVuSans-2e"/>
       <use x="95.410156" xlink:href="#DejaVuSans-30"/>
      </g>
     </g>
    </g>
    <g id="text_20">
     <!-- Amplitude [normiert] -->
     <defs>
      <path d="M 34.1875 63.1875 
L 20.796875 26.90625 
L 47.609375 26.90625 
z
M 28.609375 72.90625 
L 39.796875 72.90625 
L 67.578125 0 
L 57.328125 0 
L 50.6875 18.703125 
L 17.828125 18.703125 
L 11.1875 0 
L 0.78125 0 
z
" id="DejaVuSans-41"/>
      <path d="M 52 44.1875 
Q 55.375 50.25 60.0625 53.125 
Q 64.75 56 71.09375 56 
Q 79.640625 56 84.28125 50.015625 
Q 88.921875 44.046875 88.921875 33.015625 
L 88.921875 0 
L 79.890625 0 
L 79.890625 32.71875 
Q 79.890625 40.578125 77.09375 44.375 
Q 74.3125 48.1875 68.609375 48.1875 
Q 61.625 48.1875 57.5625 43.546875 
Q 53.515625 38.921875 53.515625 30.90625 
L 53.515625 0 
L 44.484375 0 
L 44.484375 32.71875 
Q 44.484375 40.625 41.703125 44.40625 
Q 38.921875 48.1875 33.109375 48.1875 
Q 26.21875 48.1875 22.15625 43.53125 
Q 18.109375 38.875 18.109375 30.90625 
L 18.109375 0 
L 9.078125 0 
L 9.078125 54.6875 
L 18.109375 54.6875 
L 18.109375 46.1875 
Q 21.1875 51.21875 25.484375 53.609375 
Q 29.78125 56 35.6875 56 
Q 41.65625 56 45.828125 52.96875 
Q 50 49.953125 52 44.1875 
z
" id="DejaVuSans-6d"/>
      <path d="M 18.109375 8.203125 
L 18.109375 -20.796875 
L 9.078125 -20.796875 
L 9.078125 54.6875 
L 18.109375 54.6875 
L 18.109375 46.390625 
Q 20.953125 51.265625 25.265625 53.625 
Q 29.59375 56 35.59375 56 
Q 45.5625 56 51.78125 48.09375 
Q 58.015625 40.1875 58.015625 27.296875 
Q 58.015625 14.40625 51.78125 6.484375 
Q 45.5625 -1.421875 35.59375 -1.421875 
Q 29.59375 -1.421875 25.265625 0.953125 
Q 20.953125 3.328125 18.109375 8.203125 
z
M 48.6875 27.296875 
Q 48.6875 37.203125 44.609375 42.84375 
Q 40.53125 48.484375 33.40625 48.484375 
Q 26.265625 48.484375 22.1875 42.84375 
Q 18.109375 37.203125 18.109375 27.296875 
Q 18.109375 17.390625 22.1875 11.75 
Q 26.265625 6.109375 33.40625 6.109375 
Q 40.53125 6.109375 44.609375 11.75 
Q 48.6875 17.390625 48.6875 27.296875 
z
" id="DejaVuSans-70"/>
      <path d="M 9.421875 75.984375 
L 18.40625 75.984375 
L 18.40625 0 
L 9.421875 0 
z
" id="DejaVuSans-6c"/>
      <path d="M 9.421875 54.6875 
L 18.40625 54.6875 
L 18.40625 0 
L 9.421875 0 
z
M 9.421875 75.984375 
L 18.40625 75.984375 
L 18.40625 64.59375 
L 9.421875 64.59375 
z
" id="DejaVuSans-69"/>
      <path d="M 18.3125 70.21875 
L 18.3125 54.6875 
L 36.8125 54.6875 
L 36.8125 47.703125 
L 18.3125 47.703125 
L 18.3125 18.015625 
Q 18.3125 11.328125 20.140625 9.421875 
Q 21.96875 7.515625 27.59375 7.515625 
L 36.8125 7.515625 
L 36.8125 0 
L 27.59375 0 
Q 17.1875 0 13.234375 3.875 
Q 9.28125 7.765625 9.28125 18.015625 
L 9.28125 47.703125 
L 2.6875 47.703125 
L 2.6875 54.6875 
L 9.28125 54.6875 
L 9.28125 70.21875 
z
" id="DejaVuSans-74"/>
      <path d="M 45.40625 46.390625 
L 45.40625 75.984375 
L 54.390625 75.984375 
L 54.390625 0 
L 45.40625 0 
L 45.40625 8.203125 
Q 42.578125 3.328125 38.25 0.953125 
Q 33.9375 -1.421875 27.875 -1.421875 
Q 17.96875 -1.421875 11.734375 6.484375 
Q 5.515625 14.40625 5.515625 27.296875 
Q 5.515625 40.1875 11.734375 48.09375 
Q 17.96875 56 27.875 56 
Q 33.9375 56 38.25 53.625 
Q 42.578125 51.265625 45.40625 46.390625 
z
M 14.796875 27.296875 
Q 14.796875 17.390625 18.875 11.75 
Q 22.953125 6.109375 30.078125 6.109375 
Q 37.203125 6.109375 41.296875 11.75 
Q 45.40625 17.390625 45.40625 27.296875 
Q 45.40625 37.203125 41.296875 42.84375 
Q 37.203125 48.484375 30.078125 48.484375 
Q 22.953125 48.484375 18.875 42.84375 
Q 14.796875 37.203125 14.796875 27.296875 
z
" id="DejaVuSans-64"/>
      <path d="M 30.609375 48.390625 
Q 23.390625 48.390625 19.1875 42.75 
Q 14.984375 37.109375 14.984375 27.296875 
Q 14.984375 17.484375 19.15625 11.84375 
Q 23.34375 6.203125 30.609375 6.203125 
Q 37.796875 6.203125 41.984375 11.859375 
Q 46.1875 17.53125 46.1875 27.296875 
Q 46.1875 37.015625 41.984375 42.703125 
Q 37.796875 48.390625 30.609375 48.390625 
z
M 30.609375 56 
Q 42.328125 56 49.015625 48.375 
Q 55.71875 40.765625 55.71875 27.296875 
Q 55.71875 13.875 49.015625 6.21875 
Q 42.328125 -1.421875 30.609375 -1.421875 
Q 18.84375 -1.421875 12.171875 6.21875 
Q 5.515625 13.875 5.515625 27.296875 
Q 5.515625 40.765625 12.171875 48.375 
Q 18.84375 56 30.609375 56 
z
" id="DejaVuSans-6f"/>
     </defs>
     <g transform="translate(14.798438 208.121781)rotate(-90)scale(0.1 -0.1)">
      <use xlink:href="#DejaVuSans-41"/>
      <use x="68.408203" xlink:href="#DejaVuSans-6d"/>
      <use x="165.820312" xlink:href="#DejaVuSans-70"/>
      <use x="229.296875" xlink:href="#DejaVuSans-6c"/>
      <use x="257.080078" xlink:href="#DejaVuSans-69"/>
      <use x="284.863281" xlink:href="#DejaVuSans-74"/>
      <use x="324.072266" xlink:href="#DejaVuSans-75"/>
      <use x="387.451172" xlink:href="#DejaVuSans-64"/>
      <use x="450.927734" xlink:href="#DejaVuSans-65"/>
      <use x="512.451172" xlink:href="#DejaVuSans-20"/>
      <use x="544.238281" xlink:href="#DejaVuSans-5b"/>
      <use x="583.251953" xlink:href="#DejaVuSans-6e"/>
      <use x="646.630859" xlink:href="#DejaVuSans-6f"/>
      <use x="707.8125" xlink:href="#DejaVuSans-72"/>
      <use x="748.910156" xlink:href="#DejaVuSans-6d"/>
      <use x="846.322266" xlink:href="#DejaVuSans-69"/>
      <use x="874.105469" xlink:href="#DejaVuSans-65"/>
      <use x="935.628906" xlink:href="#DejaVuSans-72"/>
      <use x="976.742188" xlink:href="#DejaVuSans-74"/>
      <use x="1015.951172" xlink:href="#DejaVuSans-5d"/>
     </g>
    </g>
   </g>
   <g id="line2d_37">
    <path clip-path="url(#pb0c6ba70b7)" d="M 51.986562 188.741194 
L 54.16625 188.889495 
L 56.345937 188.60556 
L 58.089687 188.182493 
L 59.3975 188.041535 
L 60.705312 187.879421 
L 61.577188 187.745721 
L 62.449062 187.882554 
L 63.756875 188.190057 
L 64.62875 188.10255 
L 67.244375 187.289736 
L 68.552188 187.189895 
L 71.60375 187.346788 
L 73.783438 187.203392 
L 74.655313 186.96346 
L 76.835 186.080566 
L 77.706875 185.968252 
L 79.450625 186.191379 
L 81.630313 185.576896 
L 82.502188 185.594548 
L 83.81 185.929863 
L 84.681875 186.130763 
L 85.55375 186.035406 
L 86.425625 185.585276 
L 87.2975 185.137535 
L 88.169375 184.98405 
L 89.913125 184.903036 
L 94.2725 184.090425 
L 95.144375 184.291745 
L 96.452188 184.935874 
L 97.324063 185.073982 
L 101.683438 184.85768 
L 102.555313 184.551616 
L 106.914688 182.146437 
L 107.786563 181.782855 
L 110.402188 181.031974 
L 112.145938 180.410792 
L 114.325625 179.253242 
L 115.633438 178.901312 
L 118.685 177.525782 
L 120.864688 176.857274 
L 122.1725 176.676597 
L 122.608438 176.450734 
L 123.480313 175.608435 
L 124.352188 174.752023 
L 125.224063 174.150743 
L 126.095938 173.793569 
L 127.839688 173.423197 
L 129.1475 172.79686 
L 130.89125 172.136401 
L 131.763125 171.460986 
L 133.506875 169.893913 
L 134.814688 169.024131 
L 135.686563 168.630495 
L 136.994375 168.250974 
L 139.174063 167.027271 
L 140.045938 166.420657 
L 141.35375 165.172913 
L 142.225625 164.720337 
L 143.533438 164.162647 
L 144.405313 163.514935 
L 145.713125 162.406999 
L 149.200625 159.948623 
L 150.0725 159.077262 
L 151.81625 156.984448 
L 153.124063 155.815004 
L 154.431875 154.404276 
L 155.30375 153.827243 
L 156.611563 153.240105 
L 157.483438 152.413144 
L 158.79125 150.710027 
L 159.663125 149.951663 
L 160.970938 149.005558 
L 161.842813 148.05401 
L 163.586563 145.902857 
L 165.330313 144.183957 
L 166.638125 142.619587 
L 168.381875 141.03745 
L 173.613125 134.109969 
L 174.920938 131.9868 
L 176.664688 129.217794 
L 178.844375 126.306602 
L 180.152188 124.017423 
L 184.075625 118.729064 
L 186.255313 115.199024 
L 189.742813 109.023309 
L 191.486563 105.544903 
L 195.41 97.297366 
L 196.717813 95.009256 
L 198.8975 91.253875 
L 200.64125 87.650992 
L 202.385 83.333306 
L 204.564688 77.744843 
L 210.667813 63.646454 
L 212.411563 60.453131 
L 215.027188 52.776242 
L 218.07875 45.242867 
L 221.56625 37.841954 
L 222.438125 36.431461 
L 223.31 35.419544 
L 224.181875 34.758679 
L 225.05375 34.444962 
L 225.925625 34.460865 
L 226.7975 34.771199 
L 227.669375 35.432285 
L 228.54125 36.172349 
L 229.413125 36.424529 
L 229.849063 36.881452 
L 230.285 38.283711 
L 230.720938 40.947191 
L 232.464688 54.910052 
L 232.900625 56.848997 
L 233.7725 59.288292 
L 234.644375 61.481311 
L 235.952188 65.618547 
L 238.131875 73.5184 
L 239.875625 79.615228 
L 242.055313 86.483436 
L 248.594375 105.066947 
L 251.645938 112.588004 
L 254.6975 119.447419 
L 256.877188 124.253442 
L 258.620938 127.420128 
L 259.92875 129.85078 
L 262.544375 135.388375 
L 264.288125 138.112709 
L 266.031875 140.455596 
L 266.90375 141.559602 
L 267.775625 143.074451 
L 269.083438 145.481791 
L 271.699063 149.292509 
L 273.442813 151.402475 
L 274.750625 152.962148 
L 276.058438 154.467476 
L 277.802188 156.658802 
L 284.34125 162.996874 
L 288.264688 166.375917 
L 289.5725 167.644554 
L 293.931875 170.224067 
L 295.239688 171.658743 
L 295.675625 171.987649 
L 296.5475 172.268756 
L 297.419375 172.526585 
L 298.29125 173.029896 
L 299.163125 173.78583 
L 300.470938 175.02681 
L 301.342813 175.40659 
L 302.650625 175.639458 
L 303.5225 176.13371 
L 304.394375 176.80179 
L 305.26625 177.176054 
L 307.881875 177.766245 
L 308.75375 178.367303 
L 310.061563 179.427678 
L 310.933438 179.652993 
L 311.805313 179.740169 
L 314.856875 180.738477 
L 316.600625 180.833524 
L 317.908438 181.537399 
L 319.21625 182.128517 
L 320.088125 182.113365 
L 320.96 181.944025 
L 321.831875 182.032789 
L 322.70375 182.376914 
L 324.4475 183.282746 
L 326.627188 183.751189 
L 327.499063 184.149842 
L 328.370938 184.275247 
L 329.67875 184.098614 
L 330.550625 184.271032 
L 332.730313 184.956453 
L 334.91 185.290226 
L 337.089688 185.482811 
L 337.961563 185.835172 
L 338.833438 185.838703 
L 340.577188 185.415985 
L 341.013125 185.531643 
L 343.192813 186.646833 
L 346.244375 186.735709 
L 347.552188 186.4527 
L 348.424063 186.627342 
L 350.167813 187.15934 
L 351.475625 187.288605 
L 354.527188 187.237841 
L 356.270938 187.008565 
L 357.142813 187.162094 
L 358.450625 187.851394 
L 360.630313 189.15972 
L 361.502188 189.711055 
L 362.374063 189.931937 
L 364.989688 189.727166 
L 367.169375 189.702137 
L 368.477188 189.578266 
L 369.349063 189.443224 
L 371.092813 189.485074 
L 372.836563 189.071092 
L 376.76 189.263024 
L 378.067813 189.237144 
L 379.811563 189.738008 
L 381.555313 189.423326 
L 383.299063 189.692671 
L 384.606875 189.506906 
L 386.350625 189.595345 
L 388.094375 189.596177 
L 388.96625 189.598492 
L 391.581875 189.170186 
L 393.325625 189.626294 
L 395.069375 189.494206 
L 397.249063 189.790107 
L 400.300625 189.668472 
L 401.608438 189.528076 
L 404.224063 189.68171 
L 405.095938 189.598446 
L 405.967813 189.768357 
L 406.839688 189.994757 
L 407.711563 189.961914 
L 409.019375 189.671013 
L 409.455313 189.522995 
L 409.455313 189.522995 
" style="fill:none;stroke:#1f77b4;stroke-linecap:square;stroke-width:1.5;"/>
   </g>
   <g id="line2d_38">
    <path clip-path="url(#pb0c6ba70b7)" d="M 51.986562 189.418942 
L 52.4225 189.411533 
L 52.858438 189.682613 
L 53.730312 190.464651 
L 54.16625 190.487131 
L 55.038125 189.880618 
L 55.474063 189.886433 
L 56.345937 190.589204 
L 56.781875 190.717556 
L 57.217813 190.725431 
L 57.65375 190.926276 
L 58.961563 192.433664 
L 59.3975 192.483142 
L 59.833438 192.268238 
L 60.269375 191.883595 
L 61.14125 190.673677 
L 62.013125 189.447357 
L 62.449062 189.227656 
L 62.885 189.31569 
L 63.756875 190.0097 
L 65.064687 191.382169 
L 65.500625 191.638108 
L 65.936563 191.618835 
L 66.3725 191.29454 
L 66.808437 190.718221 
L 67.680313 189.048198 
L 68.11625 188.165285 
L 68.552188 187.571829 
L 68.988125 187.439902 
L 71.167812 188.599602 
L 72.475625 190.329692 
L 72.911563 190.356307 
L 73.3475 190.069898 
L 75.09125 188.400437 
L 75.527187 188.506091 
L 75.963125 188.948836 
L 76.835 190.160766 
L 77.270938 190.583239 
L 77.706875 190.758082 
L 78.142813 190.62834 
L 78.57875 190.153979 
L 79.886562 188.102454 
L 80.3225 188.038588 
L 81.194375 188.760752 
L 82.06625 189.440674 
L 82.938125 190.067635 
L 83.81 191.168603 
L 84.245937 191.833445 
L 84.681875 192.281397 
L 85.117813 192.272237 
L 85.55375 191.705189 
L 86.861563 188.677023 
L 87.2975 188.417707 
L 88.169375 188.661261 
L 88.605312 188.348963 
L 89.913125 186.277891 
L 90.349063 186.45472 
L 91.220938 188.217554 
L 91.656875 189.035151 
L 92.092813 189.493785 
L 92.52875 189.645641 
L 92.964688 189.609351 
L 93.836563 189.185586 
L 94.708438 188.516934 
L 95.580313 187.424481 
L 96.452188 186.091266 
L 96.888125 185.809993 
L 97.324063 185.962106 
L 98.195938 187.108315 
L 98.631875 187.662571 
L 99.067813 187.997545 
L 100.375625 188.530265 
L 100.811563 188.755283 
L 101.2475 188.727809 
L 101.683438 188.289882 
L 102.99125 186.155238 
L 105.170938 184.320557 
L 105.606875 184.251636 
L 106.042813 184.522519 
L 106.47875 185.22869 
L 107.786563 188.715559 
L 108.2225 189.119656 
L 108.658438 188.872466 
L 109.530313 187.694643 
L 109.96625 187.352929 
L 110.402188 187.31029 
L 111.71 188.054339 
L 112.145938 187.958259 
L 112.581875 187.519932 
L 113.45375 186.363637 
L 113.889688 186.135324 
L 114.325625 186.293301 
L 115.1975 187.133253 
L 115.633438 187.372595 
L 116.94125 187.474928 
L 117.813125 187.417035 
L 119.992813 186.924771 
L 120.864688 187.240358 
L 121.300625 187.409395 
L 121.736563 187.410926 
L 122.1725 187.146931 
L 123.044375 186.372524 
L 123.480313 186.469107 
L 124.788125 187.978017 
L 125.224063 187.869294 
L 126.095938 187.014308 
L 126.531875 186.825065 
L 127.40375 186.662983 
L 127.839688 186.243836 
L 128.711563 185.097024 
L 129.1475 184.751142 
L 130.019375 184.41635 
L 130.455313 184.316434 
L 130.89125 184.394807 
L 131.327188 184.772658 
L 132.635 186.514254 
L 133.070938 186.775392 
L 133.506875 186.804332 
L 133.942813 186.575431 
L 135.250625 185.336536 
L 136.558438 184.684045 
L 138.302188 183.136795 
L 139.174063 182.90525 
L 140.045938 182.61063 
L 141.35375 181.946182 
L 142.225625 181.80118 
L 142.661563 181.949162 
L 143.533438 182.433824 
L 143.969375 182.351468 
L 145.277188 181.316203 
L 145.713125 181.546433 
L 146.585 182.56759 
L 147.020938 182.783837 
L 147.456875 182.618754 
L 148.32875 181.556219 
L 149.200625 180.603318 
L 150.0725 180.209499 
L 151.81625 179.935166 
L 152.252188 179.745112 
L 152.688125 179.687836 
L 153.995938 180.165625 
L 154.431875 180.088476 
L 154.867813 179.722123 
L 155.30375 179.033202 
L 157.0475 175.155929 
L 157.919375 174.117597 
L 158.355313 173.799867 
L 158.79125 173.63217 
L 159.227188 173.704659 
L 159.663125 174.082671 
L 160.970938 176.002858 
L 161.406875 176.335384 
L 161.842813 176.35669 
L 162.714688 175.753212 
L 163.150625 175.432336 
L 163.586563 175.255398 
L 164.0225 175.259085 
L 164.458438 175.433037 
L 165.330313 176.044839 
L 165.76625 176.159618 
L 166.202188 175.825982 
L 167.074063 173.911618 
L 167.51 173.019776 
L 167.945938 172.55558 
L 168.381875 172.455734 
L 168.817813 172.473471 
L 169.25375 172.374408 
L 169.689688 172.040266 
L 170.125625 171.461488 
L 171.869375 168.379975 
L 172.305313 168.064175 
L 172.74125 168.079105 
L 173.177188 168.388472 
L 174.049063 169.411485 
L 174.485 169.661783 
L 174.920938 169.454968 
L 175.356875 168.817092 
L 177.536563 164.635499 
L 178.408438 163.689815 
L 178.844375 163.3637 
L 179.71625 163.129643 
L 180.152188 163.045327 
L 180.588125 162.788089 
L 181.024063 162.271907 
L 181.46 161.460294 
L 182.331875 159.350972 
L 182.767813 158.605069 
L 183.20375 158.266487 
L 183.639688 158.094144 
L 184.075625 157.765051 
L 185.383438 156.185759 
L 185.819375 156.027222 
L 186.255313 155.988645 
L 186.69125 155.828429 
L 187.127188 155.322554 
L 188.435 152.533556 
L 188.870938 152.164199 
L 189.306875 152.202259 
L 189.742813 152.364165 
L 190.17875 152.356504 
L 190.614688 152.009008 
L 191.050625 151.292165 
L 191.9225 149.061498 
L 193.66625 143.769102 
L 194.102188 142.794414 
L 194.538125 142.208215 
L 195.41 141.702582 
L 195.845938 141.114366 
L 196.717813 139.377153 
L 197.15375 138.932993 
L 198.025625 138.596054 
L 198.461563 138.004046 
L 199.333438 135.640292 
L 199.769375 134.483504 
L 200.205313 133.771645 
L 201.513125 132.92078 
L 201.949063 132.215604 
L 203.692813 128.030779 
L 204.564688 127.391468 
L 205.000625 126.809483 
L 205.436563 125.777853 
L 206.308438 122.837949 
L 207.61625 118.233437 
L 208.488125 115.988128 
L 209.36 114.561964 
L 210.231875 113.222241 
L 210.667813 112.026863 
L 211.539688 108.037311 
L 212.411563 103.874263 
L 213.283438 101.037165 
L 215.027188 96.420641 
L 215.899063 92.632053 
L 218.950625 77.199672 
L 219.8225 72.491986 
L 220.694375 66.809892 
L 221.130313 64.618055 
L 222.002188 62.037198 
L 222.438125 60.719095 
L 222.874063 58.825775 
L 224.617813 49.743821 
L 225.05375 48.51966 
L 225.489688 47.733681 
L 225.925625 47.259534 
L 226.361563 47.09121 
L 226.7975 47.26293 
L 227.233438 47.650461 
L 227.669375 47.858726 
L 228.105313 47.288225 
L 228.54125 45.344102 
L 229.849063 34.414125 
L 230.285 35.05331 
L 230.720938 40.737954 
L 232.464688 80.73515 
L 232.900625 86.654304 
L 233.336563 90.370959 
L 233.7725 92.33304 
L 234.208438 93.107699 
L 234.644375 93.275703 
L 235.51625 93.32648 
L 236.388125 93.714254 
L 236.824063 94.101406 
L 237.695938 95.328188 
L 239.00375 97.564384 
L 239.439688 98.827278 
L 240.311563 102.796703 
L 241.183438 107.072522 
L 242.055313 110.044438 
L 244.235 116.117915 
L 248.158438 124.05242 
L 249.46625 128.145072 
L 251.645938 134.762492 
L 252.95375 136.904172 
L 254.6975 141.500419 
L 256.44125 144.256745 
L 256.877188 144.968779 
L 257.313125 145.42529 
L 258.620938 146.213425 
L 259.056875 146.682271 
L 259.492813 147.344467 
L 260.364688 149.292745 
L 262.544375 154.905555 
L 262.980313 155.751144 
L 263.41625 156.210109 
L 264.724063 156.601487 
L 266.467813 158.307528 
L 267.339688 158.873611 
L 268.211563 159.960912 
L 272.135 166.306472 
L 272.570938 166.784562 
L 273.006875 166.870214 
L 273.442813 166.447709 
L 274.314688 164.857244 
L 274.750625 164.49084 
L 275.186563 164.688466 
L 275.6225 165.314062 
L 276.494375 167.144035 
L 277.36625 169.626258 
L 278.238125 171.955282 
L 278.674063 172.425824 
L 279.11 172.336938 
L 280.417813 171.061382 
L 280.85375 171.020667 
L 282.161563 171.352618 
L 283.033438 171.858327 
L 283.905313 172.547898 
L 284.34125 172.738794 
L 285.649063 172.933006 
L 286.085 173.338227 
L 286.520938 174.11364 
L 287.392813 176.053202 
L 287.82875 176.650641 
L 288.264688 176.836637 
L 288.700625 176.714623 
L 289.5725 176.308033 
L 290.008438 176.327637 
L 290.444375 176.541175 
L 291.31625 177.396084 
L 292.188125 178.871744 
L 292.624063 179.623203 
L 293.06 179.997797 
L 293.495938 179.838609 
L 294.367813 178.988016 
L 294.80375 179.018755 
L 295.675625 179.693687 
L 296.111563 179.776281 
L 296.983438 179.54619 
L 297.419375 179.769592 
L 298.727188 181.589535 
L 299.163125 181.685533 
L 299.599063 181.384307 
L 300.906875 180.020789 
L 301.77875 179.152749 
L 302.214688 178.629465 
L 302.650625 178.285506 
L 303.086563 178.393762 
L 303.5225 179.081871 
L 305.702188 184.629381 
L 306.138125 185.323724 
L 306.574063 185.687682 
L 308.317813 185.993813 
L 308.75375 185.7329 
L 309.189688 185.118393 
L 310.933438 181.780077 
L 311.369375 181.657993 
L 311.805313 182.070978 
L 313.113125 184.099381 
L 313.985 184.985917 
L 314.420938 185.179317 
L 314.856875 184.992968 
L 316.164688 183.337667 
L 316.600625 183.431216 
L 317.036563 184.116749 
L 318.344375 187.03885 
L 318.780313 187.293132 
L 319.21625 187.027462 
L 320.96 184.564339 
L 321.831875 184.361712 
L 323.139688 184.278644 
L 323.575625 184.441375 
L 324.4475 185.258043 
L 327.063125 188.298048 
L 327.499063 188.449161 
L 327.935 188.307787 
L 328.370938 187.818059 
L 329.242813 186.442033 
L 329.67875 186.199458 
L 330.114688 186.521222 
L 331.4225 188.923193 
L 331.858438 189.294319 
L 332.294375 189.346632 
L 332.730313 189.184881 
L 333.602188 188.456447 
L 334.474063 187.543657 
L 335.345938 186.983306 
L 336.217813 186.877031 
L 337.525625 187.252746 
L 337.961563 187.127031 
L 338.3975 186.651218 
L 339.269375 185.189193 
L 339.705313 184.836713 
L 340.14125 185.042474 
L 340.577188 185.741319 
L 341.449063 187.508752 
L 342.320938 188.556 
L 343.62875 189.525942 
L 344.064688 189.642886 
L 344.500625 189.539623 
L 345.808438 188.811194 
L 346.680313 188.528712 
L 347.552188 188.116965 
L 347.988125 188.162348 
L 348.424063 188.586478 
L 349.295938 190.015326 
L 349.731875 190.273457 
L 350.167813 189.89196 
L 351.039688 188.280142 
L 351.475625 187.913823 
L 351.911563 188.094223 
L 352.783438 189.407904 
L 354.09125 191.409393 
L 354.527188 191.829534 
L 354.963125 192.087172 
L 355.399063 192.199325 
L 355.835 192.097857 
L 356.270938 191.627377 
L 356.706875 190.676311 
L 358.014688 186.611224 
L 358.450625 185.92946 
L 358.886563 185.812317 
L 359.3225 186.173108 
L 359.758438 186.951619 
L 361.502188 191.411403 
L 361.938125 191.948921 
L 362.374063 192.079538 
L 362.81 191.888791 
L 364.117813 191.01209 
L 364.989688 190.483176 
L 365.861563 189.684501 
L 366.2975 189.510349 
L 366.733438 189.635953 
L 367.605313 190.066469 
L 368.04125 189.926664 
L 368.477188 189.435133 
L 369.785 187.187105 
L 370.220938 187.039587 
L 371.52875 187.771702 
L 372.836563 187.273598 
L 373.708438 187.500777 
L 374.144375 187.754442 
L 374.580313 188.186862 
L 376.324063 190.64373 
L 376.76 190.612866 
L 377.631875 190.021473 
L 378.067813 189.887304 
L 378.939688 189.807489 
L 379.375625 189.459503 
L 380.2475 188.409202 
L 380.683438 188.339163 
L 381.119375 188.708005 
L 381.99125 189.733722 
L 382.427188 189.921633 
L 382.863125 189.795469 
L 384.170938 188.633965 
L 384.606875 188.55368 
L 385.914688 188.777168 
L 386.786563 188.680842 
L 387.2225 188.439386 
L 388.094375 187.487699 
L 388.530313 187.262274 
L 388.96625 187.590313 
L 390.274063 189.916824 
L 390.71 189.988118 
L 392.017813 188.918284 
L 392.45375 188.94733 
L 393.761563 189.585789 
L 395.069375 189.687568 
L 396.377188 190.308681 
L 397.249063 190.751432 
L 398.992813 191.072137 
L 400.300625 191.780297 
L 400.736563 191.65286 
L 402.480313 190.001173 
L 403.352188 189.621677 
L 403.788125 189.540734 
L 404.66 189.756456 
L 405.095938 189.881428 
L 405.531875 189.854721 
L 405.967813 189.63735 
L 407.711563 188.270086 
L 408.1475 188.175836 
L 409.455313 188.234993 
L 409.455313 188.234993 
" style="fill:none;stroke:#ff7f0e;stroke-linecap:square;stroke-width:1.5;"/>
   </g>
   <g id="line2d_39">
    <path clip-path="url(#pb0c6ba70b7)" d="M 51.986562 191.652892 
L 53.294375 193.819254 
L 53.730312 193.530809 
L 54.16625 192.852815 
L 54.602188 192.399467 
L 55.038125 192.440712 
L 55.474063 192.673797 
L 55.91 192.58446 
L 56.781875 191.523863 
L 57.217813 191.585114 
L 58.525625 193.801864 
L 58.961563 193.747364 
L 59.833438 192.827748 
L 60.269375 192.064244 
L 60.705312 190.815991 
L 62.013125 185.986691 
L 62.885 183.470329 
L 63.320938 182.653607 
L 63.756875 182.646256 
L 64.192813 183.504026 
L 65.500625 187.475268 
L 65.936563 188.331358 
L 66.3725 188.850005 
L 66.808437 189.06559 
L 68.11625 189.027533 
L 68.988125 189.412246 
L 69.424063 189.23034 
L 70.295938 188.034675 
L 71.167812 186.915557 
L 71.60375 186.481839 
L 72.039688 186.220043 
L 72.475625 186.357668 
L 72.911563 187.036093 
L 73.783438 188.921959 
L 74.219375 189.070022 
L 74.655313 188.39028 
L 75.09125 187.434812 
L 75.527187 187.101716 
L 75.963125 187.89452 
L 77.270938 192.645467 
L 77.706875 193.512569 
L 78.142813 193.992115 
L 78.57875 194.196467 
L 79.450625 194.396247 
L 79.886562 194.723925 
L 80.758438 195.625565 
L 81.194375 195.744851 
L 81.630313 195.412549 
L 82.502188 193.808137 
L 83.374063 192.292614 
L 84.245937 191.281112 
L 84.681875 190.876302 
L 85.117813 190.637572 
L 85.55375 190.711362 
L 86.861563 191.652474 
L 87.2975 191.434861 
L 88.605312 189.826282 
L 89.04125 189.914369 
L 89.477188 190.432523 
L 90.349063 192.002802 
L 90.785 192.526528 
L 91.220938 192.613218 
L 91.656875 192.205701 
L 92.092813 191.252766 
L 93.400625 186.787383 
L 93.836563 186.7687 
L 94.2725 188.087529 
L 95.144375 191.88748 
L 95.580313 192.644415 
L 96.01625 192.18011 
L 97.324063 188.61407 
L 97.76 188.239358 
L 98.195938 188.196361 
L 98.631875 188.356323 
L 99.067813 188.711179 
L 100.811563 190.597061 
L 101.2475 190.601164 
L 101.683438 190.054044 
L 102.555313 188.247877 
L 102.99125 188.021762 
L 103.427188 188.506421 
L 104.299063 190.104616 
L 104.735 190.732742 
L 105.170938 191.592902 
L 105.606875 193.065361 
L 106.47875 196.977333 
L 106.914688 198.043685 
L 107.350625 197.945527 
L 108.2225 195.847063 
L 109.094375 194.03206 
L 110.402188 191.942507 
L 110.838125 191.585756 
L 111.71 191.231899 
L 112.145938 190.714994 
L 113.017813 189.403755 
L 113.45375 189.350411 
L 113.889688 189.703972 
L 114.761563 190.776486 
L 115.633438 192.206262 
L 116.94125 194.490808 
L 117.377188 194.610703 
L 117.813125 193.922091 
L 118.685 190.762363 
L 119.120938 189.220215 
L 119.556875 188.099396 
L 120.864688 185.664929 
L 121.300625 184.291016 
L 121.736563 182.156535 
L 122.608438 177.105663 
L 123.044375 176.934595 
L 123.480313 179.698411 
L 124.352188 188.462309 
L 124.788125 190.889073 
L 125.224063 191.718743 
L 125.66 191.8187 
L 127.40375 191.71419 
L 127.839688 192.04336 
L 128.711563 193.075094 
L 129.1475 193.329083 
L 129.583438 193.049434 
L 130.019375 192.066899 
L 130.89125 188.995144 
L 131.327188 188.045491 
L 131.763125 188.019089 
L 132.199063 188.771651 
L 132.635 189.786104 
L 133.070938 190.51292 
L 133.506875 190.753567 
L 133.942813 190.785709 
L 134.37875 191.080028 
L 135.686563 193.495624 
L 136.1225 193.492666 
L 136.558438 192.751077 
L 136.994375 191.394477 
L 137.86625 187.262672 
L 138.302188 184.994551 
L 138.738125 183.361701 
L 139.174063 182.91381 
L 139.61 183.729206 
L 140.481875 187.023415 
L 140.917813 188.06632 
L 141.35375 188.170744 
L 141.789688 187.467503 
L 143.0975 184.105513 
L 143.533438 183.519616 
L 143.969375 183.651584 
L 144.405313 184.754948 
L 145.713125 190.650261 
L 146.149063 191.309033 
L 146.585 191.078583 
L 147.456875 189.783946 
L 147.892813 189.448357 
L 148.764688 189.371321 
L 149.200625 188.870907 
L 150.508438 185.465682 
L 150.944375 184.888438 
L 151.380313 184.635217 
L 151.81625 184.556728 
L 152.252188 184.731338 
L 152.688125 185.308594 
L 153.56 186.991511 
L 153.995938 187.491451 
L 155.30375 188.448048 
L 155.739688 188.381283 
L 156.175625 187.731644 
L 157.0475 185.789773 
L 157.483438 185.482215 
L 157.919375 185.930817 
L 158.79125 187.665725 
L 159.227188 187.77452 
L 159.663125 186.950356 
L 160.970938 182.613833 
L 161.406875 182.025862 
L 162.714688 181.080904 
L 163.150625 181.08422 
L 163.586563 181.634675 
L 164.458438 183.2204 
L 165.330313 184.021004 
L 166.638125 185.134532 
L 167.074063 185.164903 
L 167.51 184.86539 
L 167.945938 184.18041 
L 169.25375 181.023774 
L 169.689688 180.916156 
L 170.125625 181.641733 
L 170.9975 184.185136 
L 171.433438 184.758456 
L 171.869375 184.239323 
L 172.74125 181.789308 
L 173.177188 181.529676 
L 173.613125 181.903759 
L 174.049063 181.820669 
L 174.485 180.490476 
L 175.356875 176.29131 
L 175.792813 175.401406 
L 176.22875 175.689139 
L 177.100625 178.049948 
L 177.9725 180.226705 
L 178.408438 180.713295 
L 178.844375 180.739364 
L 180.152188 180.103919 
L 181.024063 180.156849 
L 181.895938 180.386507 
L 182.331875 180.120251 
L 184.075625 177.795743 
L 184.511563 177.54635 
L 184.9475 177.52725 
L 186.255313 177.878976 
L 186.69125 177.658322 
L 187.127188 176.908414 
L 187.999063 173.902576 
L 188.435 172.458674 
L 188.870938 171.442607 
L 189.306875 170.769753 
L 189.742813 170.360693 
L 190.17875 170.272121 
L 190.614688 170.425304 
L 191.050625 170.418249 
L 191.486563 169.846017 
L 192.794375 166.817914 
L 193.230313 166.701245 
L 193.66625 167.130629 
L 194.102188 167.732134 
L 194.538125 168.026634 
L 194.974063 167.688216 
L 195.41 166.716363 
L 196.281875 164.438694 
L 196.717813 164.011115 
L 197.589688 163.898969 
L 198.025625 163.299475 
L 198.8975 160.923632 
L 199.769375 158.647433 
L 200.205313 158.166187 
L 200.64125 158.20505 
L 201.077188 158.429825 
L 201.513125 158.460443 
L 203.692813 157.377707 
L 204.12875 157.389506 
L 205.000625 157.88841 
L 205.436563 157.44107 
L 206.308438 154.716647 
L 207.180313 152.394845 
L 207.61625 151.36556 
L 208.052188 149.930522 
L 208.924063 145.443919 
L 209.795938 140.438541 
L 210.231875 138.776174 
L 210.667813 138.379404 
L 211.10375 139.566717 
L 211.975625 143.773379 
L 212.411563 144.021171 
L 212.8475 142.307819 
L 214.155313 134.399825 
L 214.59125 132.780881 
L 215.027188 131.678959 
L 215.899063 130.082149 
L 216.335 128.892965 
L 216.770938 126.99988 
L 218.514688 116.158256 
L 219.8225 111.398003 
L 222.002188 98.479422 
L 223.31 92.096022 
L 224.181875 87.531704 
L 226.7975 77.371363 
L 227.669375 76.559837 
L 228.105313 74.537248 
L 228.54125 69.178819 
L 228.977188 59.726196 
L 229.849063 37.773199 
L 230.285 34.414125 
L 230.720938 39.978612 
L 231.592813 68.177225 
L 232.464688 95.832679 
L 232.900625 105.857013 
L 233.336563 113.22276 
L 233.7725 118.072856 
L 234.208438 120.73998 
L 234.644375 121.869041 
L 235.080313 122.404582 
L 235.51625 123.269805 
L 235.952188 124.881599 
L 236.824063 128.749725 
L 237.26 129.835766 
L 237.695938 130.299345 
L 238.131875 130.59335 
L 239.875625 132.241609 
L 240.7475 132.116153 
L 241.183438 132.278666 
L 241.619375 132.784684 
L 242.055313 133.607045 
L 242.927188 136.121376 
L 243.799063 139.231284 
L 244.235 140.399391 
L 245.106875 142.130328 
L 246.850625 146.961237 
L 247.286563 147.825389 
L 247.7225 149.184667 
L 248.594375 152.460741 
L 249.030313 153.138592 
L 249.46625 152.826276 
L 250.338125 151.194482 
L 250.774063 151.096552 
L 251.21 151.761229 
L 251.645938 153.061917 
L 252.95375 158.249129 
L 253.389688 158.978723 
L 253.825625 158.937324 
L 254.6975 158.284512 
L 255.569375 158.201568 
L 256.005313 157.867156 
L 256.877188 156.806653 
L 257.313125 156.832233 
L 257.749063 157.412077 
L 259.492813 161.078058 
L 260.364688 162.366256 
L 260.800625 163.487253 
L 262.108438 168.120551 
L 262.544375 168.922392 
L 262.980313 169.099438 
L 264.288125 168.365458 
L 265.16 168.464657 
L 265.595938 168.718332 
L 266.031875 169.307951 
L 266.90375 170.952955 
L 267.339688 171.081779 
L 267.775625 170.508644 
L 268.211563 169.648205 
L 268.6475 169.100445 
L 269.083438 169.332394 
L 269.519375 170.487891 
L 270.827188 175.642513 
L 271.263125 175.984107 
L 271.699063 175.212313 
L 272.570938 172.527619 
L 273.006875 172.079224 
L 273.442813 172.641951 
L 274.314688 175.521932 
L 276.058438 182.105379 
L 276.494375 182.80864 
L 276.930313 182.436589 
L 277.36625 180.993035 
L 278.238125 177.037572 
L 278.674063 175.795434 
L 279.11 175.230773 
L 279.545938 175.086573 
L 279.981875 175.325362 
L 280.417813 176.163749 
L 281.725625 180.160977 
L 282.161563 180.393433 
L 282.5975 180.046624 
L 284.34125 177.656019 
L 284.777188 177.591105 
L 285.213125 177.711183 
L 285.649063 177.712725 
L 286.956875 176.940592 
L 287.392813 177.336421 
L 287.82875 178.296415 
L 288.700625 180.720445 
L 289.136563 181.494563 
L 291.31625 183.540748 
L 291.752188 183.275508 
L 292.188125 181.956101 
L 293.06 178.506923 
L 293.495938 178.518488 
L 293.931875 180.031497 
L 294.367813 182.047216 
L 294.80375 183.517924 
L 295.239688 184.210461 
L 295.675625 184.690194 
L 296.111563 185.685822 
L 296.983438 189.7415 
L 297.419375 191.626943 
L 297.855313 192.445228 
L 298.29125 192.062574 
L 299.599063 188.895639 
L 300.035 188.975176 
L 300.470938 189.787269 
L 301.342813 191.683047 
L 301.77875 192.03762 
L 302.214688 192.011763 
L 302.650625 191.726524 
L 303.086563 191.057725 
L 303.5225 189.754965 
L 304.394375 186.280863 
L 304.830313 185.559978 
L 305.26625 185.873854 
L 305.702188 186.622181 
L 306.138125 187.147054 
L 307.445938 187.684166 
L 307.881875 188.025343 
L 308.317813 188.092894 
L 309.625625 187.264101 
L 310.4975 187.556958 
L 311.369375 187.298583 
L 311.805313 187.759371 
L 312.677188 189.61065 
L 313.113125 189.621133 
L 313.549063 188.587484 
L 314.420938 185.43805 
L 314.856875 184.485891 
L 315.292813 184.262351 
L 315.72875 184.709703 
L 316.600625 186.390211 
L 317.036563 186.726217 
L 317.4725 186.407469 
L 318.780313 184.081854 
L 319.21625 183.998728 
L 319.652188 184.501605 
L 320.524063 186.149881 
L 320.96 186.462387 
L 321.395938 186.144499 
L 322.267813 184.862576 
L 322.70375 184.824072 
L 323.139688 185.321357 
L 324.883438 188.375718 
L 325.319375 188.727179 
L 326.19125 188.821243 
L 327.063125 188.749968 
L 328.806875 188.295666 
L 329.242813 188.249786 
L 329.67875 188.330025 
L 330.550625 188.847764 
L 330.986563 188.874004 
L 331.4225 188.505039 
L 332.294375 187.229207 
L 332.730313 186.93203 
L 333.16625 187.076462 
L 334.038125 187.803003 
L 334.474063 187.780257 
L 335.781875 186.86381 
L 336.217813 186.977139 
L 337.089688 187.597077 
L 337.525625 187.652458 
L 337.961563 187.374537 
L 338.833438 186.496277 
L 339.269375 186.381159 
L 340.14125 186.80087 
L 340.577188 186.982886 
L 341.449063 186.916232 
L 342.320938 186.797363 
L 342.756875 186.413855 
L 343.192813 185.220856 
L 344.064688 181.525775 
L 344.500625 180.974473 
L 344.936563 181.807002 
L 345.3725 183.204448 
L 345.808438 184.216794 
L 346.244375 184.591429 
L 346.680313 184.778631 
L 347.11625 185.326577 
L 348.424063 188.473282 
L 348.86 188.828524 
L 349.295938 188.708213 
L 351.475625 186.925255 
L 352.783438 185.379797 
L 353.219375 185.270559 
L 353.655313 185.792644 
L 354.963125 189.295048 
L 355.399063 189.705895 
L 355.835 189.642562 
L 357.57875 188.747014 
L 358.014688 188.87124 
L 358.886563 189.508588 
L 359.3225 189.530845 
L 359.758438 189.331381 
L 360.194375 189.330937 
L 360.630313 189.933311 
L 361.502188 192.090263 
L 361.938125 192.383962 
L 362.374063 191.641056 
L 363.245938 187.98348 
L 363.681875 186.145264 
L 364.117813 184.893858 
L 364.55375 184.224962 
L 364.989688 183.894617 
L 365.425625 183.735532 
L 365.861563 183.767671 
L 366.2975 184.081682 
L 366.733438 184.727648 
L 367.605313 186.872395 
L 368.477188 189.097192 
L 370.220938 191.867686 
L 370.656875 192.351158 
L 371.092813 192.114997 
L 371.964688 190.390356 
L 372.400625 190.050372 
L 372.836563 190.196085 
L 374.144375 191.144263 
L 375.01625 192.209789 
L 375.452188 192.171303 
L 375.888125 191.531818 
L 376.76 189.789876 
L 377.631875 188.372102 
L 378.50375 186.553196 
L 378.939688 186.010326 
L 379.375625 185.907578 
L 380.683438 186.317646 
L 382.427188 187.725664 
L 382.863125 188.312739 
L 384.606875 191.586299 
L 385.042813 191.91538 
L 385.47875 191.799604 
L 386.350625 191.20792 
L 386.786563 191.226675 
L 387.2225 191.520101 
L 387.658438 192.190726 
L 388.530313 194.24158 
L 388.96625 194.479959 
L 389.402188 193.708545 
L 390.274063 191.459605 
L 390.71 191.335323 
L 391.145938 192.086747 
L 392.017813 194.517037 
L 392.45375 195.090658 
L 392.889688 194.795507 
L 393.325625 193.677932 
L 394.633438 188.960752 
L 395.069375 188.03239 
L 395.505313 187.469763 
L 395.94125 187.153482 
L 396.377188 187.016796 
L 396.813125 187.023891 
L 397.685 187.393698 
L 398.556875 188.220956 
L 399.42875 189.635105 
L 399.864688 190.3666 
L 400.300625 190.859382 
L 400.736563 190.931969 
L 401.1725 190.434701 
L 401.608438 189.3234 
L 402.480313 186.467412 
L 402.91625 185.871411 
L 403.352188 186.284621 
L 404.224063 188.349032 
L 404.66 188.764406 
L 405.095938 188.615834 
L 406.839688 187.075515 
L 408.1475 185.490507 
L 408.583438 185.604297 
L 409.019375 186.406853 
L 409.455313 187.707801 
L 409.455313 187.707801 
" style="fill:none;stroke:#2ca02c;stroke-linecap:square;stroke-width:1.5;"/>
   </g>
   <g id="line2d_40">
    <path clip-path="url(#pb0c6ba70b7)" d="M 51.986562 191.977651 
L 52.4225 190.025875 
L 52.858438 188.906934 
L 53.294375 188.308126 
L 53.730312 187.95855 
L 54.16625 187.858032 
L 54.602188 188.14117 
L 55.038125 188.826911 
L 57.217813 193.395333 
L 57.65375 193.379046 
L 58.089687 192.577911 
L 58.525625 190.889996 
L 59.833438 183.246896 
L 60.269375 181.835345 
L 60.705312 181.364212 
L 61.14125 181.676916 
L 61.577188 182.885663 
L 62.013125 185.186141 
L 62.885 191.2231 
L 63.320938 193.093128 
L 63.756875 193.58462 
L 64.192813 193.044424 
L 65.064687 190.988987 
L 65.500625 190.390458 
L 65.936563 190.479826 
L 66.808437 191.782478 
L 67.244375 192.140622 
L 67.680313 192.279151 
L 68.11625 192.641599 
L 68.552188 193.526198 
L 69.424063 195.682428 
L 69.86 195.685203 
L 70.295938 194.467959 
L 71.167812 190.385227 
L 71.60375 189.382169 
L 72.039688 189.877582 
L 72.911563 192.565799 
L 73.3475 192.182201 
L 74.655313 186.559208 
L 75.09125 186.98177 
L 76.399063 192.084195 
L 76.835 191.472463 
L 77.706875 187.750011 
L 78.142813 187.39972 
L 78.57875 188.92471 
L 79.450625 194.041332 
L 79.886562 195.188318 
L 80.3225 194.945408 
L 81.194375 193.172159 
L 81.630313 192.74001 
L 82.06625 192.84901 
L 82.502188 193.640941 
L 83.374063 196.921057 
L 84.681875 201.696611 
L 85.55375 205.953109 
L 85.989688 206.470398 
L 86.425625 204.778458 
L 87.733438 193.832251 
L 88.169375 191.869005 
L 88.605312 191.554953 
L 89.04125 192.525231 
L 89.913125 195.172947 
L 90.349063 195.376611 
L 90.785 195.063506 
L 91.220938 195.357367 
L 92.092813 198.175551 
L 92.52875 198.304175 
L 92.964688 196.793379 
L 95.580313 182.690274 
L 96.01625 181.88685 
L 96.452188 182.848236 
L 96.888125 185.331904 
L 97.76 193.22136 
L 99.50375 214.421219 
L 99.939688 213.925181 
L 100.375625 210.11962 
L 102.119375 189.797817 
L 102.555313 186.653901 
L 102.99125 185.742634 
L 103.427188 187.25532 
L 104.299063 192.750956 
L 104.735 194.016101 
L 105.170938 193.669157 
L 105.606875 192.059317 
L 106.47875 187.963357 
L 106.914688 187.259162 
L 107.350625 188.043525 
L 107.786563 189.574878 
L 108.2225 190.401599 
L 108.658438 189.448119 
L 109.530313 184.194477 
L 109.96625 182.632672 
L 110.402188 182.746866 
L 110.838125 184.082981 
L 111.71 187.480323 
L 112.145938 188.704942 
L 112.581875 189.360783 
L 113.017813 189.461066 
L 113.45375 189.426325 
L 113.889688 189.894971 
L 114.325625 191.121224 
L 115.1975 194.766373 
L 116.069375 200.016277 
L 116.505313 202.593897 
L 116.94125 203.564095 
L 117.377188 202.179052 
L 118.685 192.79141 
L 119.120938 191.992094 
L 119.556875 192.159033 
L 119.992813 191.713535 
L 120.42875 189.495012 
L 121.736563 177.898985 
L 122.1725 177.710376 
L 122.608438 182.582621 
L 123.91625 214.029271 
L 124.352188 217.634072 
L 124.788125 216.467855 
L 126.095938 208.085727 
L 126.531875 205.106913 
L 127.40375 197.366092 
L 127.839688 194.643173 
L 128.275625 193.688563 
L 128.711563 194.177588 
L 129.1475 195.485401 
L 130.455313 200.64635 
L 130.89125 201.274506 
L 131.327188 200.665486 
L 131.763125 198.941588 
L 133.070938 191.920195 
L 133.506875 190.926293 
L 133.942813 191.467182 
L 134.37875 193.410927 
L 135.250625 197.901981 
L 135.686563 198.71044 
L 136.1225 198.21995 
L 136.558438 196.683599 
L 137.430313 193.094743 
L 137.86625 192.387322 
L 139.61 192.329511 
L 140.045938 192.592121 
L 140.481875 192.34705 
L 140.917813 190.766131 
L 141.789688 185.528756 
L 142.225625 184.401287 
L 142.661563 184.786417 
L 143.0975 185.778198 
L 143.533438 186.42004 
L 144.405313 186.479291 
L 144.84125 186.958938 
L 145.277188 188.195393 
L 145.713125 190.144627 
L 146.585 195.494756 
L 147.456875 200.90954 
L 147.892813 202.602731 
L 148.32875 202.794863 
L 148.764688 200.947918 
L 150.0725 191.063353 
L 150.508438 190.613943 
L 151.380313 192.265587 
L 151.81625 193.124074 
L 152.252188 194.535901 
L 153.124063 198.58332 
L 153.56 199.211168 
L 153.995938 198.175231 
L 154.867813 194.547413 
L 155.30375 193.929998 
L 155.739688 194.02659 
L 156.175625 193.755415 
L 156.611563 192.318291 
L 157.483438 187.608919 
L 157.919375 186.390791 
L 158.355313 186.640178 
L 159.227188 189.260029 
L 159.663125 189.806268 
L 160.535 188.875508 
L 160.970938 189.535533 
L 161.842813 193.904926 
L 162.27875 194.6422 
L 162.714688 193.263822 
L 163.150625 190.821101 
L 163.586563 189.148974 
L 164.0225 189.497722 
L 164.894375 193.881492 
L 165.330313 194.642045 
L 165.76625 193.41129 
L 166.638125 189.356531 
L 167.074063 189.036027 
L 167.945938 191.291495 
L 168.381875 191.39511 
L 168.817813 189.749185 
L 170.125625 181.11872 
L 170.561563 179.914057 
L 170.9975 180.428677 
L 171.433438 182.567385 
L 172.305313 187.616976 
L 172.74125 188.432556 
L 173.177188 188.144571 
L 173.613125 187.709333 
L 174.049063 187.960943 
L 174.485 189.129647 
L 175.356875 193.105117 
L 176.22875 197.127084 
L 176.664688 198.122975 
L 177.100625 197.97164 
L 177.9725 195.60065 
L 178.844375 192.821668 
L 180.152188 185.789026 
L 180.588125 184.864778 
L 181.024063 185.064047 
L 181.46 185.84144 
L 181.895938 186.976879 
L 183.20375 192.022655 
L 183.639688 192.638197 
L 184.9475 192.597508 
L 185.383438 192.438818 
L 186.255313 191.632883 
L 186.69125 191.951604 
L 187.999063 195.07602 
L 188.435 195.317927 
L 188.870938 195.127113 
L 189.306875 194.527673 
L 189.742813 193.370001 
L 190.17875 191.882859 
L 190.614688 190.837698 
L 191.050625 190.879642 
L 191.9225 193.149993 
L 192.358438 193.649714 
L 192.794375 192.730813 
L 193.66625 188.08606 
L 194.102188 186.893509 
L 194.538125 187.851187 
L 194.974063 190.807856 
L 195.845938 197.984348 
L 196.281875 199.393909 
L 196.717813 198.435821 
L 197.589688 193.08072 
L 198.025625 191.628053 
L 198.461563 191.85112 
L 198.8975 192.952525 
L 199.333438 193.55866 
L 199.769375 192.743499 
L 200.64125 188.601154 
L 201.077188 187.296467 
L 201.513125 186.842806 
L 202.820938 186.207546 
L 203.256875 186.761683 
L 204.564688 191.060096 
L 205.000625 190.899061 
L 206.744375 186.534709 
L 207.180313 186.010471 
L 207.61625 186.149939 
L 208.052188 187.421367 
L 208.924063 192.686155 
L 209.36 195.630507 
L 209.795938 197.670113 
L 210.231875 196.885953 
L 210.667813 191.03697 
L 211.975625 154.84373 
L 212.411563 150.239673 
L 212.8475 151.729831 
L 214.155313 164.783679 
L 214.59125 167.576948 
L 215.027188 169.214752 
L 215.463125 169.479059 
L 216.335 167.562625 
L 216.770938 167.427877 
L 217.642813 169.442211 
L 218.07875 169.845842 
L 218.514688 169.248507 
L 218.950625 167.689615 
L 219.8225 162.200431 
L 220.694375 156.296975 
L 222.002188 148.771518 
L 222.874063 143.368913 
L 223.31 142.50623 
L 223.745938 143.326762 
L 224.181875 144.461546 
L 224.617813 144.044218 
L 225.05375 141.340617 
L 225.925625 133.789993 
L 226.361563 131.570007 
L 227.233438 129.025247 
L 227.669375 126.43643 
L 228.105313 120.898656 
L 228.54125 110.129242 
L 228.977188 92.420179 
L 229.849063 47.089775 
L 230.285 34.414125 
L 230.720938 36.048426 
L 231.156875 49.553941 
L 232.464688 102.478703 
L 233.336563 125.756868 
L 233.7725 133.008596 
L 234.644375 141.791389 
L 235.51625 148.2911 
L 236.388125 152.891168 
L 236.824063 154.278933 
L 237.26 154.975216 
L 237.695938 154.593447 
L 239.00375 150.204305 
L 239.439688 150.450458 
L 239.875625 151.930608 
L 241.183438 158.874797 
L 241.619375 161.71843 
L 242.927188 172.042665 
L 243.363125 172.090127 
L 243.799063 168.945234 
L 244.670938 158.795903 
L 245.106875 156.690645 
L 245.542813 158.473533 
L 246.414688 169.429903 
L 246.850625 174.741245 
L 247.286563 177.885018 
L 247.7225 178.221292 
L 248.158438 176.049432 
L 249.030313 169.503283 
L 249.46625 167.907416 
L 249.902188 167.859868 
L 251.21 170.366714 
L 251.645938 170.732336 
L 252.081875 170.22743 
L 252.95375 167.128449 
L 253.389688 166.348107 
L 253.825625 166.991753 
L 255.133438 172.258486 
L 255.569375 173.166893 
L 256.005313 173.222623 
L 256.44125 172.347938 
L 257.313125 169.611328 
L 257.749063 169.075972 
L 258.185 169.170234 
L 258.620938 169.464406 
L 259.056875 169.932307 
L 259.492813 171.0584 
L 260.800625 177.601557 
L 261.236563 177.889184 
L 261.6725 177.172062 
L 262.108438 176.906591 
L 262.544375 177.945467 
L 263.41625 181.093829 
L 263.852188 181.402368 
L 264.288125 181.209249 
L 264.724063 181.724395 
L 265.16 183.701972 
L 266.031875 188.734538 
L 266.467813 189.157084 
L 267.339688 186.926395 
L 267.775625 186.572675 
L 268.211563 187.231324 
L 268.6475 188.186293 
L 269.083438 188.454654 
L 269.519375 187.598242 
L 270.39125 184.639059 
L 270.827188 183.746865 
L 272.135 182.22158 
L 272.570938 182.152075 
L 273.006875 182.701084 
L 273.442813 183.604653 
L 273.87875 184.047893 
L 274.314688 183.032246 
L 274.750625 180.066396 
L 275.6225 171.948044 
L 276.058438 170.419152 
L 276.494375 171.89595 
L 277.802188 183.021418 
L 278.238125 185.048854 
L 278.674063 185.188091 
L 279.11 183.429909 
L 279.981875 177.892433 
L 280.417813 176.294488 
L 280.85375 176.069831 
L 281.289688 177.017571 
L 282.161563 180.032732 
L 282.5975 180.854876 
L 283.033438 181.227383 
L 283.469375 181.817333 
L 283.905313 183.103999 
L 284.34125 184.816146 
L 284.777188 186.031001 
L 285.213125 185.943701 
L 286.085 183.187364 
L 286.520938 182.659859 
L 286.956875 183.438854 
L 288.264688 188.191519 
L 288.700625 189.112424 
L 289.136563 189.3924 
L 289.5725 188.994988 
L 290.444375 187.406896 
L 290.880313 186.88355 
L 291.31625 186.6163 
L 292.624063 186.312615 
L 293.06 186.342594 
L 293.495938 186.74771 
L 293.931875 187.345226 
L 294.367813 187.397438 
L 294.80375 186.262947 
L 295.675625 182.464085 
L 296.111563 182.233233 
L 296.5475 183.886751 
L 297.419375 189.672808 
L 297.855313 191.722523 
L 298.29125 192.677355 
L 298.727188 192.847639 
L 299.163125 192.427751 
L 299.599063 191.062362 
L 300.035 188.28178 
L 300.906875 180.757848 
L 301.342813 178.815502 
L 301.77875 179.146271 
L 302.214688 181.278385 
L 303.5225 189.918498 
L 303.958438 190.730092 
L 304.394375 189.780289 
L 304.830313 187.926945 
L 305.26625 186.583069 
L 305.702188 186.715784 
L 306.138125 188.253589 
L 307.445938 194.444945 
L 307.881875 196.213165 
L 308.317813 197.452682 
L 308.75375 197.562355 
L 309.189688 196.467597 
L 310.061563 193.397426 
L 310.933438 191.411821 
L 311.369375 190.734692 
L 311.805313 190.441717 
L 312.24125 190.582045 
L 312.677188 191.082057 
L 313.113125 191.762074 
L 313.549063 192.182516 
L 313.985 191.746745 
L 314.420938 190.175702 
L 315.292813 185.508985 
L 315.72875 184.068729 
L 316.164688 183.885014 
L 316.600625 184.670197 
L 317.4725 186.530514 
L 317.908438 187.239445 
L 318.344375 188.355233 
L 319.652188 193.352732 
L 320.088125 192.603391 
L 320.524063 189.589859 
L 321.395938 182.266264 
L 321.831875 181.374467 
L 322.267813 182.623555 
L 323.139688 186.527318 
L 324.011563 188.800706 
L 324.4475 189.802367 
L 324.883438 190.329613 
L 325.319375 189.850137 
L 326.19125 187.451297 
L 326.627188 187.416851 
L 327.063125 188.129522 
L 327.499063 188.478353 
L 327.935 188.092063 
L 328.370938 187.877267 
L 328.806875 188.729937 
L 329.67875 191.544969 
L 330.114688 191.859851 
L 330.550625 191.493435 
L 331.4225 190.499403 
L 331.858438 190.287713 
L 332.294375 190.366956 
L 332.730313 190.88918 
L 333.602188 193.160955 
L 334.038125 193.624633 
L 334.474063 192.579734 
L 335.345938 188.178974 
L 335.781875 187.61095 
L 336.217813 189.101546 
L 337.525625 197.344071 
L 337.961563 198.028181 
L 338.3975 197.160644 
L 339.705313 190.672472 
L 340.14125 190.356068 
L 340.577188 192.074027 
L 341.885 202.233904 
L 342.320938 203.556326 
L 342.756875 202.923143 
L 344.064688 197.175315 
L 346.244375 191.421391 
L 346.680313 189.632809 
L 347.11625 186.881663 
L 347.988125 179.797533 
L 348.424063 177.900819 
L 348.86 178.483584 
L 349.295938 181.261983 
L 350.167813 187.549932 
L 350.60375 188.794641 
L 351.039688 188.962102 
L 351.475625 188.579238 
L 351.911563 187.672016 
L 352.783438 184.806922 
L 353.219375 183.965975 
L 354.09125 183.365969 
L 354.963125 182.324133 
L 355.399063 182.420173 
L 357.57875 185.819613 
L 358.014688 187.364985 
L 359.3225 193.963421 
L 359.758438 194.283591 
L 360.194375 192.77059 
L 361.06625 187.76441 
L 361.502188 186.862008 
L 361.938125 187.340021 
L 362.81 188.893577 
L 363.245938 189.552103 
L 364.117813 191.682113 
L 364.55375 192.135261 
L 364.989688 191.63438 
L 365.861563 189.453401 
L 366.2975 188.806681 
L 366.733438 188.485626 
L 367.169375 187.967238 
L 367.605313 186.818283 
L 368.477188 183.721927 
L 368.913125 183.091586 
L 369.349063 183.408266 
L 369.785 184.184909 
L 370.220938 184.729385 
L 370.656875 184.633798 
L 371.092813 183.883288 
L 371.52875 182.573042 
L 372.400625 179.039012 
L 372.836563 178.399967 
L 373.2725 179.805192 
L 374.144375 185.976728 
L 374.580313 187.556618 
L 375.01625 187.333689 
L 375.452188 186.257084 
L 375.888125 185.704133 
L 376.324063 186.669074 
L 377.631875 194.667455 
L 378.067813 194.976864 
L 378.50375 193.212124 
L 379.375625 187.392997 
L 379.811563 185.293334 
L 380.2475 184.135346 
L 380.683438 183.959312 
L 381.119375 184.873661 
L 381.99125 188.795773 
L 383.299063 195.29664 
L 383.735 197.514475 
L 384.170938 198.384547 
L 384.606875 196.990806 
L 385.914688 186.961011 
L 386.350625 186.068834 
L 387.2225 186.685268 
L 387.658438 186.721816 
L 388.094375 186.946533 
L 388.96625 188.516201 
L 389.402188 188.630598 
L 390.274063 187.5335 
L 390.71 188.120951 
L 391.145938 189.931808 
L 392.017813 194.540211 
L 392.45375 195.860778 
L 392.889688 195.897965 
L 393.325625 194.515389 
L 394.1975 188.966851 
L 394.633438 186.172951 
L 395.069375 184.149846 
L 395.505313 183.204186 
L 395.94125 183.372088 
L 396.813125 185.1397 
L 397.249063 185.529909 
L 397.685 185.601023 
L 398.120938 185.79256 
L 398.992813 186.668281 
L 399.42875 187.424284 
L 400.736563 191.760796 
L 401.1725 191.324 
L 402.480313 186.259589 
L 402.91625 185.478016 
L 403.352188 185.509661 
L 403.788125 186.44835 
L 404.66 189.687151 
L 405.095938 190.765742 
L 406.40375 192.539148 
L 407.275625 194.753477 
L 407.711563 195.318833 
L 408.1475 194.897786 
L 408.583438 193.434515 
L 409.455313 189.599964 
L 409.455313 189.599964 
" style="fill:none;stroke:#d62728;stroke-linecap:square;stroke-width:1.5;"/>
   </g>
   <g id="patch_3">
    <path d="M 52.160938 288.430125 
L 52.160938 22.318125 
" style="fill:none;stroke:#000000;stroke-linecap:square;stroke-linejoin:miter;stroke-width:0.8;"/>
   </g>
   <g id="patch_4">
    <path d="M 409.280938 288.430125 
L 409.280938 22.318125 
" style="fill:none;stroke:#000000;stroke-linecap:square;stroke-linejoin:miter;stroke-width:0.8;"/>
   </g>
   <g id="patch_5">
    <path d="M 52.160937 288.430125 
L 409.280938 288.430125 
" style="fill:none;stroke:#000000;stroke-linecap:square;stroke-linejoin:miter;stroke-width:0.8;"/>
   </g>
   <g id="patch_6">
    <path d="M 52.160937 22.318125 
L 409.280938 22.318125 
" style="fill:none;stroke:#000000;stroke-linecap:square;stroke-linejoin:miter;stroke-width:0.8;"/>
   </g>
   <g id="text_21">
    <!-- Spektren 345K -->
    <defs>
     <path d="M 53.515625 70.515625 
L 53.515625 60.890625 
Q 47.90625 63.578125 42.921875 64.890625 
Q 37.9375 66.21875 33.296875 66.21875 
Q 25.25 66.21875 20.875 63.09375 
Q 16.5 59.96875 16.5 54.203125 
Q 16.5 49.359375 19.40625 46.890625 
Q 22.3125 44.4375 30.421875 42.921875 
L 36.375 41.703125 
Q 47.40625 39.59375 52.65625 34.296875 
Q 57.90625 29 57.90625 20.125 
Q 57.90625 9.515625 50.796875 4.046875 
Q 43.703125 -1.421875 29.984375 -1.421875 
Q 24.8125 -1.421875 18.96875 -0.25 
Q 13.140625 0.921875 6.890625 3.21875 
L 6.890625 13.375 
Q 12.890625 10.015625 18.65625 8.296875 
Q 24.421875 6.59375 29.984375 6.59375 
Q 38.421875 6.59375 43.015625 9.90625 
Q 47.609375 13.234375 47.609375 19.390625 
Q 47.609375 24.75 44.3125 27.78125 
Q 41.015625 30.8125 33.5 32.328125 
L 27.484375 33.5 
Q 16.453125 35.6875 11.515625 40.375 
Q 6.59375 45.0625 6.59375 53.421875 
Q 6.59375 63.09375 13.40625 68.65625 
Q 20.21875 74.21875 32.171875 74.21875 
Q 37.3125 74.21875 42.625 73.28125 
Q 47.953125 72.359375 53.515625 70.515625 
z
" id="DejaVuSans-53"/>
     <path d="M 9.078125 75.984375 
L 18.109375 75.984375 
L 18.109375 31.109375 
L 44.921875 54.6875 
L 56.390625 54.6875 
L 27.390625 29.109375 
L 57.625 0 
L 45.90625 0 
L 18.109375 26.703125 
L 18.109375 0 
L 9.078125 0 
z
" id="DejaVuSans-6b"/>
     <path d="M 40.578125 39.3125 
Q 47.65625 37.796875 51.625 33 
Q 55.609375 28.21875 55.609375 21.1875 
Q 55.609375 10.40625 48.1875 4.484375 
Q 40.765625 -1.421875 27.09375 -1.421875 
Q 22.515625 -1.421875 17.65625 -0.515625 
Q 12.796875 0.390625 7.625 2.203125 
L 7.625 11.71875 
Q 11.71875 9.328125 16.59375 8.109375 
Q 21.484375 6.890625 26.8125 6.890625 
Q 36.078125 6.890625 40.9375 10.546875 
Q 45.796875 14.203125 45.796875 21.1875 
Q 45.796875 27.640625 41.28125 31.265625 
Q 36.765625 34.90625 28.71875 34.90625 
L 20.21875 34.90625 
L 20.21875 43.015625 
L 29.109375 43.015625 
Q 36.375 43.015625 40.234375 45.921875 
Q 44.09375 48.828125 44.09375 54.296875 
Q 44.09375 59.90625 40.109375 62.90625 
Q 36.140625 65.921875 28.71875 65.921875 
Q 24.65625 65.921875 20.015625 65.03125 
Q 15.375 64.15625 9.8125 62.3125 
L 9.8125 71.09375 
Q 15.4375 72.65625 20.34375 73.4375 
Q 25.25 74.21875 29.59375 74.21875 
Q 40.828125 74.21875 47.359375 69.109375 
Q 53.90625 64.015625 53.90625 55.328125 
Q 53.90625 49.265625 50.4375 45.09375 
Q 46.96875 40.921875 40.578125 39.3125 
z
" id="DejaVuSans-33"/>
     <path d="M 9.8125 72.90625 
L 19.671875 72.90625 
L 19.671875 42.09375 
L 52.390625 72.90625 
L 65.09375 72.90625 
L 28.90625 38.921875 
L 67.671875 0 
L 54.6875 0 
L 19.671875 35.109375 
L 19.671875 0 
L 9.8125 0 
z
" id="DejaVuSans-4b"/>
    </defs>
    <g transform="translate(186.33125 16.318125)scale(0.12 -0.12)">
     <use xlink:href="#DejaVuSans-53"/>
     <use x="63.476562" xlink:href="#DejaVuSans-70"/>
     <use x="126.953125" xlink:href="#DejaVuSans-65"/>
     <use x="188.476562" xlink:href="#DejaVuSans-6b"/>
     <use x="246.386719" xlink:href="#DejaVuSans-74"/>
     <use x="285.595703" xlink:href="#DejaVuSans-72"/>
     <use x="326.677734" xlink:href="#DejaVuSans-65"/>
     <use x="388.201172" xlink:href="#DejaVuSans-6e"/>
     <use x="451.580078" xlink:href="#DejaVuSans-20"/>
     <use x="483.367188" xlink:href="#DejaVuSans-33"/>
     <use x="546.990234" xlink:href="#DejaVuSans-34"/>
     <use x="610.613281" xlink:href="#DejaVuSans-35"/>
     <use x="674.236328" xlink:href="#DejaVuSans-4b"/>
    </g>
   </g>
   <g id="legend_1">
    <g id="patch_7">
     <path d="M 322.565313 89.030625 
L 402.280938 89.030625 
Q 404.280938 89.030625 404.280938 87.030625 
L 404.280938 29.318125 
Q 404.280938 27.318125 402.280938 27.318125 
L 322.565313 27.318125 
Q 320.565313 27.318125 320.565313 29.318125 
L 320.565313 87.030625 
Q 320.565313 89.030625 322.565313 89.030625 
z
" style="fill:#ffffff;opacity:0.8;stroke:#cccccc;stroke-linejoin:miter;"/>
    </g>
    <g id="line2d_41">
     <path d="M 324.565313 35.416562 
L 344.565313 35.416562 
" style="fill:none;stroke:#1f77b4;stroke-linecap:square;stroke-width:1.5;"/>
    </g>
    <g id="line2d_42"/>
    <g id="text_22">
     <!-- 1.5e-05 -->
     <defs>
      <path d="M 4.890625 31.390625 
L 31.203125 31.390625 
L 31.203125 23.390625 
L 4.890625 23.390625 
z
" id="DejaVuSans-2d"/>
     </defs>
     <g transform="translate(352.565313 38.916562)scale(0.1 -0.1)">
      <use xlink:href="#DejaVuSans-31"/>
      <use x="63.623047" xlink:href="#DejaVuSans-2e"/>
      <use x="95.410156" xlink:href="#DejaVuSans-35"/>
      <use x="159.033203" xlink:href="#DejaVuSans-65"/>
      <use x="220.556641" xlink:href="#DejaVuSans-2d"/>
      <use x="256.640625" xlink:href="#DejaVuSans-30"/>
      <use x="320.263672" xlink:href="#DejaVuSans-35"/>
     </g>
    </g>
    <g id="line2d_43">
     <path d="M 324.565313 50.094688 
L 344.565313 50.094688 
" style="fill:none;stroke:#ff7f0e;stroke-linecap:square;stroke-width:1.5;"/>
    </g>
    <g id="line2d_44"/>
    <g id="text_23">
     <!-- 0.000116 -->
     <g transform="translate(352.565313 53.594688)scale(0.1 -0.1)">
      <use xlink:href="#DejaVuSans-30"/>
      <use x="63.623047" xlink:href="#DejaVuSans-2e"/>
      <use x="95.410156" xlink:href="#DejaVuSans-30"/>
      <use x="159.033203" xlink:href="#DejaVuSans-30"/>
      <use x="222.65625" xlink:href="#DejaVuSans-30"/>
      <use x="286.279297" xlink:href="#DejaVuSans-31"/>
      <use x="349.902344" xlink:href="#DejaVuSans-31"/>
      <use x="413.525391" xlink:href="#DejaVuSans-36"/>
     </g>
    </g>
    <g id="line2d_45">
     <path d="M 324.565313 64.772812 
L 344.565313 64.772812 
" style="fill:none;stroke:#2ca02c;stroke-linecap:square;stroke-width:1.5;"/>
    </g>
    <g id="line2d_46"/>
    <g id="text_24">
     <!-- 0.000194 -->
     <defs>
      <path d="M 10.984375 1.515625 
L 10.984375 10.5 
Q 14.703125 8.734375 18.5 7.8125 
Q 22.3125 6.890625 25.984375 6.890625 
Q 35.75 6.890625 40.890625 13.453125 
Q 46.046875 20.015625 46.78125 33.40625 
Q 43.953125 29.203125 39.59375 26.953125 
Q 35.25 24.703125 29.984375 24.703125 
Q 19.046875 24.703125 12.671875 31.3125 
Q 6.296875 37.9375 6.296875 49.421875 
Q 6.296875 60.640625 12.9375 67.421875 
Q 19.578125 74.21875 30.609375 74.21875 
Q 43.265625 74.21875 49.921875 64.515625 
Q 56.59375 54.828125 56.59375 36.375 
Q 56.59375 19.140625 48.40625 8.859375 
Q 40.234375 -1.421875 26.421875 -1.421875 
Q 22.703125 -1.421875 18.890625 -0.6875 
Q 15.09375 0.046875 10.984375 1.515625 
z
M 30.609375 32.421875 
Q 37.25 32.421875 41.125 36.953125 
Q 45.015625 41.5 45.015625 49.421875 
Q 45.015625 57.28125 41.125 61.84375 
Q 37.25 66.40625 30.609375 66.40625 
Q 23.96875 66.40625 20.09375 61.84375 
Q 16.21875 57.28125 16.21875 49.421875 
Q 16.21875 41.5 20.09375 36.953125 
Q 23.96875 32.421875 30.609375 32.421875 
z
" id="DejaVuSans-39"/>
     </defs>
     <g transform="translate(352.565313 68.272812)scale(0.1 -0.1)">
      <use xlink:href="#DejaVuSans-30"/>
      <use x="63.623047" xlink:href="#DejaVuSans-2e"/>
      <use x="95.410156" xlink:href="#DejaVuSans-30"/>
      <use x="159.033203" xlink:href="#DejaVuSans-30"/>
      <use x="222.65625" xlink:href="#DejaVuSans-30"/>
      <use x="286.279297" xlink:href="#DejaVuSans-31"/>
      <use x="349.902344" xlink:href="#DejaVuSans-39"/>
      <use x="413.525391" xlink:href="#DejaVuSans-34"/>
     </g>
    </g>
    <g id="line2d_47">
     <path d="M 324.565313 79.450938 
L 344.565313 79.450938 
" style="fill:none;stroke:#d62728;stroke-linecap:square;stroke-width:1.5;"/>
    </g>
    <g id="line2d_48"/>
    <g id="text_25">
     <!-- 0.000323 -->
     <g transform="translate(352.565313 82.950938)scale(0.1 -0.1)">
      <use xlink:href="#DejaVuSans-30"/>
      <use x="63.623047" xlink:href="#DejaVuSans-2e"/>
      <use x="95.410156" xlink:href="#DejaVuSans-30"/>
      <use x="159.033203" xlink:href="#DejaVuSans-30"/>
      <use x="222.65625" xlink:href="#DejaVuSans-30"/>
      <use x="286.279297" xlink:href="#DejaVuSans-33"/>
      <use x="349.902344" xlink:href="#DejaVuSans-32"/>
      <use x="413.525391" xlink:href="#DejaVuSans-33"/>
     </g>
    </g>
   </g>
  </g>
 </g>
 <defs>
  <clipPath id="pb0c6ba70b7">
   <rect height="266.112" width="357.12" x="52.160938" y="22.318125"/>
  </clipPath>
 </defs>
</svg>
