<?xml version="1.0" encoding="utf-8" standalone="no"?>
<!DOCTYPE svg PUBLIC "-//W3C//DTD SVG 1.1//EN"
  "http://www.w3.org/Graphics/SVG/1.1/DTD/svg11.dtd">
<!-- Created with matplotlib (http://matplotlib.org/) -->
<svg height="325pt" version="1.1" viewBox="0 0 435 325" width="435pt" xmlns="http://www.w3.org/2000/svg" xmlns:xlink="http://www.w3.org/1999/xlink">
 <defs>
  <style type="text/css">
*{stroke-linecap:butt;stroke-linejoin:round;}
  </style>
 </defs>
 <g id="figure_1">
  <g id="patch_1">
   <path d="M 0 325.986375 
L 435.568437 325.986375 
L 435.568437 0 
L 0 0 
z
" style="fill:#ffffff;"/>
  </g>
  <g id="axes_1">
   <g id="patch_2">
    <path d="M 52.160938 288.430125 
L 409.280938 288.430125 
L 409.280938 22.318125 
L 52.160938 22.318125 
z
" style="fill:#ffffff;"/>
   </g>
   <g id="matplotlib.axis_1">
    <g id="xtick_1">
     <g id="line2d_1">
      <path clip-path="url(#p2f189e71c6)" d="M 52.160937 288.430125 
L 52.160937 22.318125 
" style="fill:none;stroke:#b0b0b0;stroke-linecap:square;stroke-width:0.8;"/>
     </g>
     <g id="line2d_2">
      <defs>
       <path d="M 0 0 
L 0 3.5 
" id="ma1413ff491" style="stroke:#000000;stroke-width:0.8;"/>
      </defs>
      <g>
       <use style="stroke:#000000;stroke-width:0.8;" x="52.160937" xlink:href="#ma1413ff491" y="288.430125"/>
      </g>
     </g>
     <g id="text_1">
      <!-- −100000 -->
      <defs>
       <path d="M 10.59375 35.5 
L 73.1875 35.5 
L 73.1875 27.203125 
L 10.59375 27.203125 
z
" id="DejaVuSans-2212"/>
       <path d="M 12.40625 8.296875 
L 28.515625 8.296875 
L 28.515625 63.921875 
L 10.984375 60.40625 
L 10.984375 69.390625 
L 28.421875 72.90625 
L 38.28125 72.90625 
L 38.28125 8.296875 
L 54.390625 8.296875 
L 54.390625 0 
L 12.40625 0 
z
" id="DejaVuSans-31"/>
       <path d="M 31.78125 66.40625 
Q 24.171875 66.40625 20.328125 58.90625 
Q 16.5 51.421875 16.5 36.375 
Q 16.5 21.390625 20.328125 13.890625 
Q 24.171875 6.390625 31.78125 6.390625 
Q 39.453125 6.390625 43.28125 13.890625 
Q 47.125 21.390625 47.125 36.375 
Q 47.125 51.421875 43.28125 58.90625 
Q 39.453125 66.40625 31.78125 66.40625 
z
M 31.78125 74.21875 
Q 44.046875 74.21875 50.515625 64.515625 
Q 56.984375 54.828125 56.984375 36.375 
Q 56.984375 17.96875 50.515625 8.265625 
Q 44.046875 -1.421875 31.78125 -1.421875 
Q 19.53125 -1.421875 13.0625 8.265625 
Q 6.59375 17.96875 6.59375 36.375 
Q 6.59375 54.828125 13.0625 64.515625 
Q 19.53125 74.21875 31.78125 74.21875 
z
" id="DejaVuSans-30"/>
      </defs>
      <g transform="translate(28.883594 303.028562)scale(0.1 -0.1)">
       <use xlink:href="#DejaVuSans-2212"/>
       <use x="83.789062" xlink:href="#DejaVuSans-31"/>
       <use x="147.412109" xlink:href="#DejaVuSans-30"/>
       <use x="211.035156" xlink:href="#DejaVuSans-30"/>
       <use x="274.658203" xlink:href="#DejaVuSans-30"/>
       <use x="338.28125" xlink:href="#DejaVuSans-30"/>
       <use x="401.904297" xlink:href="#DejaVuSans-30"/>
      </g>
     </g>
    </g>
    <g id="xtick_2">
     <g id="line2d_3">
      <path clip-path="url(#p2f189e71c6)" d="M 96.800938 288.430125 
L 96.800938 22.318125 
" style="fill:none;stroke:#b0b0b0;stroke-linecap:square;stroke-width:0.8;"/>
     </g>
     <g id="line2d_4">
      <g>
       <use style="stroke:#000000;stroke-width:0.8;" x="96.800938" xlink:href="#ma1413ff491" y="288.430125"/>
      </g>
     </g>
     <g id="text_2">
      <!-- −75000 -->
      <defs>
       <path d="M 8.203125 72.90625 
L 55.078125 72.90625 
L 55.078125 68.703125 
L 28.609375 0 
L 18.3125 0 
L 43.21875 64.59375 
L 8.203125 64.59375 
z
" id="DejaVuSans-37"/>
       <path d="M 10.796875 72.90625 
L 49.515625 72.90625 
L 49.515625 64.59375 
L 19.828125 64.59375 
L 19.828125 46.734375 
Q 21.96875 47.46875 24.109375 47.828125 
Q 26.265625 48.1875 28.421875 48.1875 
Q 40.625 48.1875 47.75 41.5 
Q 54.890625 34.8125 54.890625 23.390625 
Q 54.890625 11.625 47.5625 5.09375 
Q 40.234375 -1.421875 26.90625 -1.421875 
Q 22.3125 -1.421875 17.546875 -0.640625 
Q 12.796875 0.140625 7.71875 1.703125 
L 7.71875 11.625 
Q 12.109375 9.234375 16.796875 8.0625 
Q 21.484375 6.890625 26.703125 6.890625 
Q 35.15625 6.890625 40.078125 11.328125 
Q 45.015625 15.765625 45.015625 23.390625 
Q 45.015625 31 40.078125 35.4375 
Q 35.15625 39.890625 26.703125 39.890625 
Q 22.75 39.890625 18.8125 39.015625 
Q 14.890625 38.140625 10.796875 36.28125 
z
" id="DejaVuSans-35"/>
      </defs>
      <g transform="translate(76.704844 303.028562)scale(0.1 -0.1)">
       <use xlink:href="#DejaVuSans-2212"/>
       <use x="83.789062" xlink:href="#DejaVuSans-37"/>
       <use x="147.412109" xlink:href="#DejaVuSans-35"/>
       <use x="211.035156" xlink:href="#DejaVuSans-30"/>
       <use x="274.658203" xlink:href="#DejaVuSans-30"/>
       <use x="338.28125" xlink:href="#DejaVuSans-30"/>
      </g>
     </g>
    </g>
    <g id="xtick_3">
     <g id="line2d_5">
      <path clip-path="url(#p2f189e71c6)" d="M 141.440938 288.430125 
L 141.440938 22.318125 
" style="fill:none;stroke:#b0b0b0;stroke-linecap:square;stroke-width:0.8;"/>
     </g>
     <g id="line2d_6">
      <g>
       <use style="stroke:#000000;stroke-width:0.8;" x="141.440938" xlink:href="#ma1413ff491" y="288.430125"/>
      </g>
     </g>
     <g id="text_3">
      <!-- −50000 -->
      <g transform="translate(121.344844 303.028562)scale(0.1 -0.1)">
       <use xlink:href="#DejaVuSans-2212"/>
       <use x="83.789062" xlink:href="#DejaVuSans-35"/>
       <use x="147.412109" xlink:href="#DejaVuSans-30"/>
       <use x="211.035156" xlink:href="#DejaVuSans-30"/>
       <use x="274.658203" xlink:href="#DejaVuSans-30"/>
       <use x="338.28125" xlink:href="#DejaVuSans-30"/>
      </g>
     </g>
    </g>
    <g id="xtick_4">
     <g id="line2d_7">
      <path clip-path="url(#p2f189e71c6)" d="M 186.080938 288.430125 
L 186.080938 22.318125 
" style="fill:none;stroke:#b0b0b0;stroke-linecap:square;stroke-width:0.8;"/>
     </g>
     <g id="line2d_8">
      <g>
       <use style="stroke:#000000;stroke-width:0.8;" x="186.080938" xlink:href="#ma1413ff491" y="288.430125"/>
      </g>
     </g>
     <g id="text_4">
      <!-- −25000 -->
      <defs>
       <path d="M 19.1875 8.296875 
L 53.609375 8.296875 
L 53.609375 0 
L 7.328125 0 
L 7.328125 8.296875 
Q 12.9375 14.109375 22.625 23.890625 
Q 32.328125 33.6875 34.8125 36.53125 
Q 39.546875 41.84375 41.421875 45.53125 
Q 43.3125 49.21875 43.3125 52.78125 
Q 43.3125 58.59375 39.234375 62.25 
Q 35.15625 65.921875 28.609375 65.921875 
Q 23.96875 65.921875 18.8125 64.3125 
Q 13.671875 62.703125 7.8125 59.421875 
L 7.8125 69.390625 
Q 13.765625 71.78125 18.9375 73 
Q 24.125 74.21875 28.421875 74.21875 
Q 39.75 74.21875 46.484375 68.546875 
Q 53.21875 62.890625 53.21875 53.421875 
Q 53.21875 48.921875 51.53125 44.890625 
Q 49.859375 40.875 45.40625 35.40625 
Q 44.1875 33.984375 37.640625 27.21875 
Q 31.109375 20.453125 19.1875 8.296875 
z
" id="DejaVuSans-32"/>
      </defs>
      <g transform="translate(165.984844 303.028562)scale(0.1 -0.1)">
       <use xlink:href="#DejaVuSans-2212"/>
       <use x="83.789062" xlink:href="#DejaVuSans-32"/>
       <use x="147.412109" xlink:href="#DejaVuSans-35"/>
       <use x="211.035156" xlink:href="#DejaVuSans-30"/>
       <use x="274.658203" xlink:href="#DejaVuSans-30"/>
       <use x="338.28125" xlink:href="#DejaVuSans-30"/>
      </g>
     </g>
    </g>
    <g id="xtick_5">
     <g id="line2d_9">
      <path clip-path="url(#p2f189e71c6)" d="M 230.720938 288.430125 
L 230.720938 22.318125 
" style="fill:none;stroke:#b0b0b0;stroke-linecap:square;stroke-width:0.8;"/>
     </g>
     <g id="line2d_10">
      <g>
       <use style="stroke:#000000;stroke-width:0.8;" x="230.720938" xlink:href="#ma1413ff491" y="288.430125"/>
      </g>
     </g>
     <g id="text_5">
      <!-- 0 -->
      <g transform="translate(227.539688 303.028562)scale(0.1 -0.1)">
       <use xlink:href="#DejaVuSans-30"/>
      </g>
     </g>
    </g>
    <g id="xtick_6">
     <g id="line2d_11">
      <path clip-path="url(#p2f189e71c6)" d="M 275.360938 288.430125 
L 275.360938 22.318125 
" style="fill:none;stroke:#b0b0b0;stroke-linecap:square;stroke-width:0.8;"/>
     </g>
     <g id="line2d_12">
      <g>
       <use style="stroke:#000000;stroke-width:0.8;" x="275.360938" xlink:href="#ma1413ff491" y="288.430125"/>
      </g>
     </g>
     <g id="text_6">
      <!-- 25000 -->
      <g transform="translate(259.454688 303.028562)scale(0.1 -0.1)">
       <use xlink:href="#DejaVuSans-32"/>
       <use x="63.623047" xlink:href="#DejaVuSans-35"/>
       <use x="127.246094" xlink:href="#DejaVuSans-30"/>
       <use x="190.869141" xlink:href="#DejaVuSans-30"/>
       <use x="254.492188" xlink:href="#DejaVuSans-30"/>
      </g>
     </g>
    </g>
    <g id="xtick_7">
     <g id="line2d_13">
      <path clip-path="url(#p2f189e71c6)" d="M 320.000938 288.430125 
L 320.000938 22.318125 
" style="fill:none;stroke:#b0b0b0;stroke-linecap:square;stroke-width:0.8;"/>
     </g>
     <g id="line2d_14">
      <g>
       <use style="stroke:#000000;stroke-width:0.8;" x="320.000938" xlink:href="#ma1413ff491" y="288.430125"/>
      </g>
     </g>
     <g id="text_7">
      <!-- 50000 -->
      <g transform="translate(304.094688 303.028562)scale(0.1 -0.1)">
       <use xlink:href="#DejaVuSans-35"/>
       <use x="63.623047" xlink:href="#DejaVuSans-30"/>
       <use x="127.246094" xlink:href="#DejaVuSans-30"/>
       <use x="190.869141" xlink:href="#DejaVuSans-30"/>
       <use x="254.492188" xlink:href="#DejaVuSans-30"/>
      </g>
     </g>
    </g>
    <g id="xtick_8">
     <g id="line2d_15">
      <path clip-path="url(#p2f189e71c6)" d="M 364.640938 288.430125 
L 364.640938 22.318125 
" style="fill:none;stroke:#b0b0b0;stroke-linecap:square;stroke-width:0.8;"/>
     </g>
     <g id="line2d_16">
      <g>
       <use style="stroke:#000000;stroke-width:0.8;" x="364.640938" xlink:href="#ma1413ff491" y="288.430125"/>
      </g>
     </g>
     <g id="text_8">
      <!-- 75000 -->
      <g transform="translate(348.734688 303.028562)scale(0.1 -0.1)">
       <use xlink:href="#DejaVuSans-37"/>
       <use x="63.623047" xlink:href="#DejaVuSans-35"/>
       <use x="127.246094" xlink:href="#DejaVuSans-30"/>
       <use x="190.869141" xlink:href="#DejaVuSans-30"/>
       <use x="254.492188" xlink:href="#DejaVuSans-30"/>
      </g>
     </g>
    </g>
    <g id="xtick_9">
     <g id="line2d_17">
      <path clip-path="url(#p2f189e71c6)" d="M 409.280938 288.430125 
L 409.280938 22.318125 
" style="fill:none;stroke:#b0b0b0;stroke-linecap:square;stroke-width:0.8;"/>
     </g>
     <g id="line2d_18">
      <g>
       <use style="stroke:#000000;stroke-width:0.8;" x="409.280938" xlink:href="#ma1413ff491" y="288.430125"/>
      </g>
     </g>
     <g id="text_9">
      <!-- 100000 -->
      <g transform="translate(390.193438 303.028562)scale(0.1 -0.1)">
       <use xlink:href="#DejaVuSans-31"/>
       <use x="63.623047" xlink:href="#DejaVuSans-30"/>
       <use x="127.246094" xlink:href="#DejaVuSans-30"/>
       <use x="190.869141" xlink:href="#DejaVuSans-30"/>
       <use x="254.492188" xlink:href="#DejaVuSans-30"/>
       <use x="318.115234" xlink:href="#DejaVuSans-30"/>
      </g>
     </g>
    </g>
    <g id="text_10">
     <!-- Frequenz [Hz] -->
     <defs>
      <path d="M 9.8125 72.90625 
L 51.703125 72.90625 
L 51.703125 64.59375 
L 19.671875 64.59375 
L 19.671875 43.109375 
L 48.578125 43.109375 
L 48.578125 34.8125 
L 19.671875 34.8125 
L 19.671875 0 
L 9.8125 0 
z
" id="DejaVuSans-46"/>
      <path d="M 41.109375 46.296875 
Q 39.59375 47.171875 37.8125 47.578125 
Q 36.03125 48 33.890625 48 
Q 26.265625 48 22.1875 43.046875 
Q 18.109375 38.09375 18.109375 28.8125 
L 18.109375 0 
L 9.078125 0 
L 9.078125 54.6875 
L 18.109375 54.6875 
L 18.109375 46.1875 
Q 20.953125 51.171875 25.484375 53.578125 
Q 30.03125 56 36.53125 56 
Q 37.453125 56 38.578125 55.875 
Q 39.703125 55.765625 41.0625 55.515625 
z
" id="DejaVuSans-72"/>
      <path d="M 56.203125 29.59375 
L 56.203125 25.203125 
L 14.890625 25.203125 
Q 15.484375 15.921875 20.484375 11.0625 
Q 25.484375 6.203125 34.421875 6.203125 
Q 39.59375 6.203125 44.453125 7.46875 
Q 49.3125 8.734375 54.109375 11.28125 
L 54.109375 2.78125 
Q 49.265625 0.734375 44.1875 -0.34375 
Q 39.109375 -1.421875 33.890625 -1.421875 
Q 20.796875 -1.421875 13.15625 6.1875 
Q 5.515625 13.8125 5.515625 26.8125 
Q 5.515625 40.234375 12.765625 48.109375 
Q 20.015625 56 32.328125 56 
Q 43.359375 56 49.78125 48.890625 
Q 56.203125 41.796875 56.203125 29.59375 
z
M 47.21875 32.234375 
Q 47.125 39.59375 43.09375 43.984375 
Q 39.0625 48.390625 32.421875 48.390625 
Q 24.90625 48.390625 20.390625 44.140625 
Q 15.875 39.890625 15.1875 32.171875 
z
" id="DejaVuSans-65"/>
      <path d="M 14.796875 27.296875 
Q 14.796875 17.390625 18.875 11.75 
Q 22.953125 6.109375 30.078125 6.109375 
Q 37.203125 6.109375 41.296875 11.75 
Q 45.40625 17.390625 45.40625 27.296875 
Q 45.40625 37.203125 41.296875 42.84375 
Q 37.203125 48.484375 30.078125 48.484375 
Q 22.953125 48.484375 18.875 42.84375 
Q 14.796875 37.203125 14.796875 27.296875 
z
M 45.40625 8.203125 
Q 42.578125 3.328125 38.25 0.953125 
Q 33.9375 -1.421875 27.875 -1.421875 
Q 17.96875 -1.421875 11.734375 6.484375 
Q 5.515625 14.40625 5.515625 27.296875 
Q 5.515625 40.1875 11.734375 48.09375 
Q 17.96875 56 27.875 56 
Q 33.9375 56 38.25 53.625 
Q 42.578125 51.265625 45.40625 46.390625 
L 45.40625 54.6875 
L 54.390625 54.6875 
L 54.390625 -20.796875 
L 45.40625 -20.796875 
z
" id="DejaVuSans-71"/>
      <path d="M 8.5 21.578125 
L 8.5 54.6875 
L 17.484375 54.6875 
L 17.484375 21.921875 
Q 17.484375 14.15625 20.5 10.265625 
Q 23.53125 6.390625 29.59375 6.390625 
Q 36.859375 6.390625 41.078125 11.03125 
Q 45.3125 15.671875 45.3125 23.6875 
L 45.3125 54.6875 
L 54.296875 54.6875 
L 54.296875 0 
L 45.3125 0 
L 45.3125 8.40625 
Q 42.046875 3.421875 37.71875 1 
Q 33.40625 -1.421875 27.6875 -1.421875 
Q 18.265625 -1.421875 13.375 4.4375 
Q 8.5 10.296875 8.5 21.578125 
z
M 31.109375 56 
z
" id="DejaVuSans-75"/>
      <path d="M 54.890625 33.015625 
L 54.890625 0 
L 45.90625 0 
L 45.90625 32.71875 
Q 45.90625 40.484375 42.875 44.328125 
Q 39.84375 48.1875 33.796875 48.1875 
Q 26.515625 48.1875 22.3125 43.546875 
Q 18.109375 38.921875 18.109375 30.90625 
L 18.109375 0 
L 9.078125 0 
L 9.078125 54.6875 
L 18.109375 54.6875 
L 18.109375 46.1875 
Q 21.34375 51.125 25.703125 53.5625 
Q 30.078125 56 35.796875 56 
Q 45.21875 56 50.046875 50.171875 
Q 54.890625 44.34375 54.890625 33.015625 
z
" id="DejaVuSans-6e"/>
      <path d="M 5.515625 54.6875 
L 48.1875 54.6875 
L 48.1875 46.484375 
L 14.40625 7.171875 
L 48.1875 7.171875 
L 48.1875 0 
L 4.296875 0 
L 4.296875 8.203125 
L 38.09375 47.515625 
L 5.515625 47.515625 
z
" id="DejaVuSans-7a"/>
      <path id="DejaVuSans-20"/>
      <path d="M 8.59375 75.984375 
L 29.296875 75.984375 
L 29.296875 69 
L 17.578125 69 
L 17.578125 -6.203125 
L 29.296875 -6.203125 
L 29.296875 -13.1875 
L 8.59375 -13.1875 
z
" id="DejaVuSans-5b"/>
      <path d="M 9.8125 72.90625 
L 19.671875 72.90625 
L 19.671875 43.015625 
L 55.515625 43.015625 
L 55.515625 72.90625 
L 65.375 72.90625 
L 65.375 0 
L 55.515625 0 
L 55.515625 34.71875 
L 19.671875 34.71875 
L 19.671875 0 
L 9.8125 0 
z
" id="DejaVuSans-48"/>
      <path d="M 30.421875 75.984375 
L 30.421875 -13.1875 
L 9.71875 -13.1875 
L 9.71875 -6.203125 
L 21.390625 -6.203125 
L 21.390625 69 
L 9.71875 69 
L 9.71875 75.984375 
z
" id="DejaVuSans-5d"/>
     </defs>
     <g transform="translate(195.632656 316.706687)scale(0.1 -0.1)">
      <use xlink:href="#DejaVuSans-46"/>
      <use x="57.410156" xlink:href="#DejaVuSans-72"/>
      <use x="98.492188" xlink:href="#DejaVuSans-65"/>
      <use x="160.015625" xlink:href="#DejaVuSans-71"/>
      <use x="223.492188" xlink:href="#DejaVuSans-75"/>
      <use x="286.871094" xlink:href="#DejaVuSans-65"/>
      <use x="348.394531" xlink:href="#DejaVuSans-6e"/>
      <use x="411.773438" xlink:href="#DejaVuSans-7a"/>
      <use x="464.263672" xlink:href="#DejaVuSans-20"/>
      <use x="496.050781" xlink:href="#DejaVuSans-5b"/>
      <use x="535.064453" xlink:href="#DejaVuSans-48"/>
      <use x="610.259766" xlink:href="#DejaVuSans-7a"/>
      <use x="662.75" xlink:href="#DejaVuSans-5d"/>
     </g>
    </g>
   </g>
   <g id="matplotlib.axis_2">
    <g id="ytick_1">
     <g id="line2d_19">
      <path clip-path="url(#p2f189e71c6)" d="M 52.160938 263.611372 
L 409.280938 263.611372 
" style="fill:none;stroke:#b0b0b0;stroke-linecap:square;stroke-width:0.8;"/>
     </g>
     <g id="line2d_20">
      <defs>
       <path d="M 0 0 
L -3.5 0 
" id="m6c23c5754e" style="stroke:#000000;stroke-width:0.8;"/>
      </defs>
      <g>
       <use style="stroke:#000000;stroke-width:0.8;" x="52.160938" xlink:href="#m6c23c5754e" y="263.611372"/>
      </g>
     </g>
     <g id="text_11">
      <!-- −0.4 -->
      <defs>
       <path d="M 10.6875 12.40625 
L 21 12.40625 
L 21 0 
L 10.6875 0 
z
" id="DejaVuSans-2e"/>
       <path d="M 37.796875 64.3125 
L 12.890625 25.390625 
L 37.796875 25.390625 
z
M 35.203125 72.90625 
L 47.609375 72.90625 
L 47.609375 25.390625 
L 58.015625 25.390625 
L 58.015625 17.1875 
L 47.609375 17.1875 
L 47.609375 0 
L 37.796875 0 
L 37.796875 17.1875 
L 4.890625 17.1875 
L 4.890625 26.703125 
z
" id="DejaVuSans-34"/>
      </defs>
      <g transform="translate(20.878125 267.410591)scale(0.1 -0.1)">
       <use xlink:href="#DejaVuSans-2212"/>
       <use x="83.789062" xlink:href="#DejaVuSans-30"/>
       <use x="147.412109" xlink:href="#DejaVuSans-2e"/>
       <use x="179.199219" xlink:href="#DejaVuSans-34"/>
      </g>
     </g>
    </g>
    <g id="ytick_2">
     <g id="line2d_21">
      <path clip-path="url(#p2f189e71c6)" d="M 52.160938 230.868909 
L 409.280938 230.868909 
" style="fill:none;stroke:#b0b0b0;stroke-linecap:square;stroke-width:0.8;"/>
     </g>
     <g id="line2d_22">
      <g>
       <use style="stroke:#000000;stroke-width:0.8;" x="52.160938" xlink:href="#m6c23c5754e" y="230.868909"/>
      </g>
     </g>
     <g id="text_12">
      <!-- −0.2 -->
      <g transform="translate(20.878125 234.668127)scale(0.1 -0.1)">
       <use xlink:href="#DejaVuSans-2212"/>
       <use x="83.789062" xlink:href="#DejaVuSans-30"/>
       <use x="147.412109" xlink:href="#DejaVuSans-2e"/>
       <use x="179.199219" xlink:href="#DejaVuSans-32"/>
      </g>
     </g>
    </g>
    <g id="ytick_3">
     <g id="line2d_23">
      <path clip-path="url(#p2f189e71c6)" d="M 52.160938 198.126445 
L 409.280938 198.126445 
" style="fill:none;stroke:#b0b0b0;stroke-linecap:square;stroke-width:0.8;"/>
     </g>
     <g id="line2d_24">
      <g>
       <use style="stroke:#000000;stroke-width:0.8;" x="52.160938" xlink:href="#m6c23c5754e" y="198.126445"/>
      </g>
     </g>
     <g id="text_13">
      <!-- 0.0 -->
      <g transform="translate(29.257813 201.925663)scale(0.1 -0.1)">
       <use xlink:href="#DejaVuSans-30"/>
       <use x="63.623047" xlink:href="#DejaVuSans-2e"/>
       <use x="95.410156" xlink:href="#DejaVuSans-30"/>
      </g>
     </g>
    </g>
    <g id="ytick_4">
     <g id="line2d_25">
      <path clip-path="url(#p2f189e71c6)" d="M 52.160938 165.383981 
L 409.280938 165.383981 
" style="fill:none;stroke:#b0b0b0;stroke-linecap:square;stroke-width:0.8;"/>
     </g>
     <g id="line2d_26">
      <g>
       <use style="stroke:#000000;stroke-width:0.8;" x="52.160938" xlink:href="#m6c23c5754e" y="165.383981"/>
      </g>
     </g>
     <g id="text_14">
      <!-- 0.2 -->
      <g transform="translate(29.257813 169.183199)scale(0.1 -0.1)">
       <use xlink:href="#DejaVuSans-30"/>
       <use x="63.623047" xlink:href="#DejaVuSans-2e"/>
       <use x="95.410156" xlink:href="#DejaVuSans-32"/>
      </g>
     </g>
    </g>
    <g id="ytick_5">
     <g id="line2d_27">
      <path clip-path="url(#p2f189e71c6)" d="M 52.160938 132.641517 
L 409.280938 132.641517 
" style="fill:none;stroke:#b0b0b0;stroke-linecap:square;stroke-width:0.8;"/>
     </g>
     <g id="line2d_28">
      <g>
       <use style="stroke:#000000;stroke-width:0.8;" x="52.160938" xlink:href="#m6c23c5754e" y="132.641517"/>
      </g>
     </g>
     <g id="text_15">
      <!-- 0.4 -->
      <g transform="translate(29.257813 136.440736)scale(0.1 -0.1)">
       <use xlink:href="#DejaVuSans-30"/>
       <use x="63.623047" xlink:href="#DejaVuSans-2e"/>
       <use x="95.410156" xlink:href="#DejaVuSans-34"/>
      </g>
     </g>
    </g>
    <g id="ytick_6">
     <g id="line2d_29">
      <path clip-path="url(#p2f189e71c6)" d="M 52.160938 99.899053 
L 409.280938 99.899053 
" style="fill:none;stroke:#b0b0b0;stroke-linecap:square;stroke-width:0.8;"/>
     </g>
     <g id="line2d_30">
      <g>
       <use style="stroke:#000000;stroke-width:0.8;" x="52.160938" xlink:href="#m6c23c5754e" y="99.899053"/>
      </g>
     </g>
     <g id="text_16">
      <!-- 0.6 -->
      <defs>
       <path d="M 33.015625 40.375 
Q 26.375 40.375 22.484375 35.828125 
Q 18.609375 31.296875 18.609375 23.390625 
Q 18.609375 15.53125 22.484375 10.953125 
Q 26.375 6.390625 33.015625 6.390625 
Q 39.65625 6.390625 43.53125 10.953125 
Q 47.40625 15.53125 47.40625 23.390625 
Q 47.40625 31.296875 43.53125 35.828125 
Q 39.65625 40.375 33.015625 40.375 
z
M 52.59375 71.296875 
L 52.59375 62.3125 
Q 48.875 64.0625 45.09375 64.984375 
Q 41.3125 65.921875 37.59375 65.921875 
Q 27.828125 65.921875 22.671875 59.328125 
Q 17.53125 52.734375 16.796875 39.40625 
Q 19.671875 43.65625 24.015625 45.921875 
Q 28.375 48.1875 33.59375 48.1875 
Q 44.578125 48.1875 50.953125 41.515625 
Q 57.328125 34.859375 57.328125 23.390625 
Q 57.328125 12.15625 50.6875 5.359375 
Q 44.046875 -1.421875 33.015625 -1.421875 
Q 20.359375 -1.421875 13.671875 8.265625 
Q 6.984375 17.96875 6.984375 36.375 
Q 6.984375 53.65625 15.1875 63.9375 
Q 23.390625 74.21875 37.203125 74.21875 
Q 40.921875 74.21875 44.703125 73.484375 
Q 48.484375 72.75 52.59375 71.296875 
z
" id="DejaVuSans-36"/>
      </defs>
      <g transform="translate(29.257813 103.698272)scale(0.1 -0.1)">
       <use xlink:href="#DejaVuSans-30"/>
       <use x="63.623047" xlink:href="#DejaVuSans-2e"/>
       <use x="95.410156" xlink:href="#DejaVuSans-36"/>
      </g>
     </g>
    </g>
    <g id="ytick_7">
     <g id="line2d_31">
      <path clip-path="url(#p2f189e71c6)" d="M 52.160938 67.156589 
L 409.280938 67.156589 
" style="fill:none;stroke:#b0b0b0;stroke-linecap:square;stroke-width:0.8;"/>
     </g>
     <g id="line2d_32">
      <g>
       <use style="stroke:#000000;stroke-width:0.8;" x="52.160938" xlink:href="#m6c23c5754e" y="67.156589"/>
      </g>
     </g>
     <g id="text_17">
      <!-- 0.8 -->
      <defs>
       <path d="M 31.78125 34.625 
Q 24.75 34.625 20.71875 30.859375 
Q 16.703125 27.09375 16.703125 20.515625 
Q 16.703125 13.921875 20.71875 10.15625 
Q 24.75 6.390625 31.78125 6.390625 
Q 38.8125 6.390625 42.859375 10.171875 
Q 46.921875 13.96875 46.921875 20.515625 
Q 46.921875 27.09375 42.890625 30.859375 
Q 38.875 34.625 31.78125 34.625 
z
M 21.921875 38.8125 
Q 15.578125 40.375 12.03125 44.71875 
Q 8.5 49.078125 8.5 55.328125 
Q 8.5 64.0625 14.71875 69.140625 
Q 20.953125 74.21875 31.78125 74.21875 
Q 42.671875 74.21875 48.875 69.140625 
Q 55.078125 64.0625 55.078125 55.328125 
Q 55.078125 49.078125 51.53125 44.71875 
Q 48 40.375 41.703125 38.8125 
Q 48.828125 37.15625 52.796875 32.3125 
Q 56.78125 27.484375 56.78125 20.515625 
Q 56.78125 9.90625 50.3125 4.234375 
Q 43.84375 -1.421875 31.78125 -1.421875 
Q 19.734375 -1.421875 13.25 4.234375 
Q 6.78125 9.90625 6.78125 20.515625 
Q 6.78125 27.484375 10.78125 32.3125 
Q 14.796875 37.15625 21.921875 38.8125 
z
M 18.3125 54.390625 
Q 18.3125 48.734375 21.84375 45.5625 
Q 25.390625 42.390625 31.78125 42.390625 
Q 38.140625 42.390625 41.71875 45.5625 
Q 45.3125 48.734375 45.3125 54.390625 
Q 45.3125 60.0625 41.71875 63.234375 
Q 38.140625 66.40625 31.78125 66.40625 
Q 25.390625 66.40625 21.84375 63.234375 
Q 18.3125 60.0625 18.3125 54.390625 
z
" id="DejaVuSans-38"/>
      </defs>
      <g transform="translate(29.257813 70.955808)scale(0.1 -0.1)">
       <use xlink:href="#DejaVuSans-30"/>
       <use x="63.623047" xlink:href="#DejaVuSans-2e"/>
       <use x="95.410156" xlink:href="#DejaVuSans-38"/>
      </g>
     </g>
    </g>
    <g id="ytick_8">
     <g id="line2d_33">
      <path clip-path="url(#p2f189e71c6)" d="M 52.160938 34.414125 
L 409.280938 34.414125 
" style="fill:none;stroke:#b0b0b0;stroke-linecap:square;stroke-width:0.8;"/>
     </g>
     <g id="line2d_34">
      <g>
       <use style="stroke:#000000;stroke-width:0.8;" x="52.160938" xlink:href="#m6c23c5754e" y="34.414125"/>
      </g>
     </g>
     <g id="text_18">
      <!-- 1.0 -->
      <g transform="translate(29.257813 38.213344)scale(0.1 -0.1)">
       <use xlink:href="#DejaVuSans-31"/>
       <use x="63.623047" xlink:href="#DejaVuSans-2e"/>
       <use x="95.410156" xlink:href="#DejaVuSans-30"/>
      </g>
     </g>
    </g>
    <g id="text_19">
     <!-- Amplitude [normiert] -->
     <defs>
      <path d="M 34.1875 63.1875 
L 20.796875 26.90625 
L 47.609375 26.90625 
z
M 28.609375 72.90625 
L 39.796875 72.90625 
L 67.578125 0 
L 57.328125 0 
L 50.6875 18.703125 
L 17.828125 18.703125 
L 11.1875 0 
L 0.78125 0 
z
" id="DejaVuSans-41"/>
      <path d="M 52 44.1875 
Q 55.375 50.25 60.0625 53.125 
Q 64.75 56 71.09375 56 
Q 79.640625 56 84.28125 50.015625 
Q 88.921875 44.046875 88.921875 33.015625 
L 88.921875 0 
L 79.890625 0 
L 79.890625 32.71875 
Q 79.890625 40.578125 77.09375 44.375 
Q 74.3125 48.1875 68.609375 48.1875 
Q 61.625 48.1875 57.5625 43.546875 
Q 53.515625 38.921875 53.515625 30.90625 
L 53.515625 0 
L 44.484375 0 
L 44.484375 32.71875 
Q 44.484375 40.625 41.703125 44.40625 
Q 38.921875 48.1875 33.109375 48.1875 
Q 26.21875 48.1875 22.15625 43.53125 
Q 18.109375 38.875 18.109375 30.90625 
L 18.109375 0 
L 9.078125 0 
L 9.078125 54.6875 
L 18.109375 54.6875 
L 18.109375 46.1875 
Q 21.1875 51.21875 25.484375 53.609375 
Q 29.78125 56 35.6875 56 
Q 41.65625 56 45.828125 52.96875 
Q 50 49.953125 52 44.1875 
z
" id="DejaVuSans-6d"/>
      <path d="M 18.109375 8.203125 
L 18.109375 -20.796875 
L 9.078125 -20.796875 
L 9.078125 54.6875 
L 18.109375 54.6875 
L 18.109375 46.390625 
Q 20.953125 51.265625 25.265625 53.625 
Q 29.59375 56 35.59375 56 
Q 45.5625 56 51.78125 48.09375 
Q 58.015625 40.1875 58.015625 27.296875 
Q 58.015625 14.40625 51.78125 6.484375 
Q 45.5625 -1.421875 35.59375 -1.421875 
Q 29.59375 -1.421875 25.265625 0.953125 
Q 20.953125 3.328125 18.109375 8.203125 
z
M 48.6875 27.296875 
Q 48.6875 37.203125 44.609375 42.84375 
Q 40.53125 48.484375 33.40625 48.484375 
Q 26.265625 48.484375 22.1875 42.84375 
Q 18.109375 37.203125 18.109375 27.296875 
Q 18.109375 17.390625 22.1875 11.75 
Q 26.265625 6.109375 33.40625 6.109375 
Q 40.53125 6.109375 44.609375 11.75 
Q 48.6875 17.390625 48.6875 27.296875 
z
" id="DejaVuSans-70"/>
      <path d="M 9.421875 75.984375 
L 18.40625 75.984375 
L 18.40625 0 
L 9.421875 0 
z
" id="DejaVuSans-6c"/>
      <path d="M 9.421875 54.6875 
L 18.40625 54.6875 
L 18.40625 0 
L 9.421875 0 
z
M 9.421875 75.984375 
L 18.40625 75.984375 
L 18.40625 64.59375 
L 9.421875 64.59375 
z
" id="DejaVuSans-69"/>
      <path d="M 18.3125 70.21875 
L 18.3125 54.6875 
L 36.8125 54.6875 
L 36.8125 47.703125 
L 18.3125 47.703125 
L 18.3125 18.015625 
Q 18.3125 11.328125 20.140625 9.421875 
Q 21.96875 7.515625 27.59375 7.515625 
L 36.8125 7.515625 
L 36.8125 0 
L 27.59375 0 
Q 17.1875 0 13.234375 3.875 
Q 9.28125 7.765625 9.28125 18.015625 
L 9.28125 47.703125 
L 2.6875 47.703125 
L 2.6875 54.6875 
L 9.28125 54.6875 
L 9.28125 70.21875 
z
" id="DejaVuSans-74"/>
      <path d="M 45.40625 46.390625 
L 45.40625 75.984375 
L 54.390625 75.984375 
L 54.390625 0 
L 45.40625 0 
L 45.40625 8.203125 
Q 42.578125 3.328125 38.25 0.953125 
Q 33.9375 -1.421875 27.875 -1.421875 
Q 17.96875 -1.421875 11.734375 6.484375 
Q 5.515625 14.40625 5.515625 27.296875 
Q 5.515625 40.1875 11.734375 48.09375 
Q 17.96875 56 27.875 56 
Q 33.9375 56 38.25 53.625 
Q 42.578125 51.265625 45.40625 46.390625 
z
M 14.796875 27.296875 
Q 14.796875 17.390625 18.875 11.75 
Q 22.953125 6.109375 30.078125 6.109375 
Q 37.203125 6.109375 41.296875 11.75 
Q 45.40625 17.390625 45.40625 27.296875 
Q 45.40625 37.203125 41.296875 42.84375 
Q 37.203125 48.484375 30.078125 48.484375 
Q 22.953125 48.484375 18.875 42.84375 
Q 14.796875 37.203125 14.796875 27.296875 
z
" id="DejaVuSans-64"/>
      <path d="M 30.609375 48.390625 
Q 23.390625 48.390625 19.1875 42.75 
Q 14.984375 37.109375 14.984375 27.296875 
Q 14.984375 17.484375 19.15625 11.84375 
Q 23.34375 6.203125 30.609375 6.203125 
Q 37.796875 6.203125 41.984375 11.859375 
Q 46.1875 17.53125 46.1875 27.296875 
Q 46.1875 37.015625 41.984375 42.703125 
Q 37.796875 48.390625 30.609375 48.390625 
z
M 30.609375 56 
Q 42.328125 56 49.015625 48.375 
Q 55.71875 40.765625 55.71875 27.296875 
Q 55.71875 13.875 49.015625 6.21875 
Q 42.328125 -1.421875 30.609375 -1.421875 
Q 18.84375 -1.421875 12.171875 6.21875 
Q 5.515625 13.875 5.515625 27.296875 
Q 5.515625 40.765625 12.171875 48.375 
Q 18.84375 56 30.609375 56 
z
" id="DejaVuSans-6f"/>
     </defs>
     <g transform="translate(14.798438 208.121781)rotate(-90)scale(0.1 -0.1)">
      <use xlink:href="#DejaVuSans-41"/>
      <use x="68.408203" xlink:href="#DejaVuSans-6d"/>
      <use x="165.820312" xlink:href="#DejaVuSans-70"/>
      <use x="229.296875" xlink:href="#DejaVuSans-6c"/>
      <use x="257.080078" xlink:href="#DejaVuSans-69"/>
      <use x="284.863281" xlink:href="#DejaVuSans-74"/>
      <use x="324.072266" xlink:href="#DejaVuSans-75"/>
      <use x="387.451172" xlink:href="#DejaVuSans-64"/>
      <use x="450.927734" xlink:href="#DejaVuSans-65"/>
      <use x="512.451172" xlink:href="#DejaVuSans-20"/>
      <use x="544.238281" xlink:href="#DejaVuSans-5b"/>
      <use x="583.251953" xlink:href="#DejaVuSans-6e"/>
      <use x="646.630859" xlink:href="#DejaVuSans-6f"/>
      <use x="707.8125" xlink:href="#DejaVuSans-72"/>
      <use x="748.910156" xlink:href="#DejaVuSans-6d"/>
      <use x="846.322266" xlink:href="#DejaVuSans-69"/>
      <use x="874.105469" xlink:href="#DejaVuSans-65"/>
      <use x="935.628906" xlink:href="#DejaVuSans-72"/>
      <use x="976.742188" xlink:href="#DejaVuSans-74"/>
      <use x="1015.951172" xlink:href="#DejaVuSans-5d"/>
     </g>
    </g>
   </g>
   <g id="line2d_35">
    <path clip-path="url(#p2f189e71c6)" d="M 51.986562 196.840973 
L 53.730312 197.099389 
L 56.345937 196.788722 
L 57.65375 196.677563 
L 59.833438 196.182046 
L 61.14125 195.733068 
L 62.013125 195.654984 
L 63.756875 195.627892 
L 66.3725 195.034221 
L 68.11625 194.969543 
L 72.039688 194.62077 
L 74.219375 194.26081 
L 75.527187 194.054208 
L 77.706875 193.435052 
L 79.886562 193.193251 
L 81.630313 192.822855 
L 82.938125 192.736159 
L 84.245937 192.682033 
L 85.55375 192.237431 
L 86.425625 192.266422 
L 87.2975 192.322034 
L 88.169375 192.015464 
L 90.349063 190.777181 
L 91.220938 190.696235 
L 92.964688 190.711224 
L 94.2725 190.574527 
L 95.580313 190.257967 
L 99.067813 190.134857 
L 100.375625 190.327266 
L 101.2475 190.287085 
L 102.119375 190.076256 
L 102.99125 189.674119 
L 104.299063 188.727918 
L 106.042813 187.380805 
L 109.530313 185.372422 
L 113.889688 184.163317 
L 116.94125 182.33324 
L 118.685 181.164607 
L 122.608438 178.724403 
L 124.352188 177.886099 
L 125.66 177.398203 
L 126.531875 177.168197 
L 127.40375 176.689927 
L 130.89125 174.033784 
L 132.635 172.655579 
L 133.942813 171.55826 
L 135.686563 170.125601 
L 137.86625 168.574392 
L 139.61 167.169721 
L 141.35375 166.211875 
L 142.225625 165.461475 
L 146.149063 161.524831 
L 147.892813 160.132916 
L 149.636563 158.793358 
L 150.508438 157.720845 
L 151.81625 156.07252 
L 154.431875 153.677149 
L 157.0475 150.345519 
L 160.099063 147.30127 
L 162.714688 143.986567 
L 164.458438 142.131414 
L 165.76625 140.419152 
L 167.945938 137.42862 
L 170.125625 134.843429 
L 172.74125 131.411903 
L 174.049063 129.459355 
L 175.792813 127.179106 
L 179.280313 121.428815 
L 180.588125 119.658379 
L 181.895938 117.772475 
L 187.999063 107.480537 
L 194.974063 94.736882 
L 198.461563 87.855985 
L 199.769375 85.36676 
L 203.692813 77.087642 
L 206.744375 71.488984 
L 208.052188 68.297702 
L 209.36 65.324716 
L 211.539688 61.135477 
L 213.283438 56.05901 
L 216.770938 48.369231 
L 218.07875 45.717247 
L 220.258438 41.011271 
L 222.002188 37.848442 
L 222.874063 36.606468 
L 224.181875 35.193159 
L 225.05375 34.66842 
L 225.925625 34.446462 
L 226.361563 34.414125 
L 226.7975 34.502348 
L 227.233438 34.762224 
L 228.54125 36.008881 
L 229.413125 36.322707 
L 229.849063 36.750642 
L 230.285 37.923445 
L 230.720938 40.051657 
L 232.464688 51.445954 
L 233.336563 54.782335 
L 235.51625 60.755317 
L 237.26 67.013127 
L 239.00375 73.31292 
L 243.363125 87.392731 
L 245.542813 93.419139 
L 247.286563 97.88317 
L 249.902188 105.217577 
L 251.645938 109.509473 
L 253.825625 114.504879 
L 255.569375 118.56642 
L 258.185 123.932444 
L 262.980313 133.849478 
L 273.442813 151.130439 
L 276.058438 154.675464 
L 277.36625 156.274974 
L 279.11 158.596064 
L 280.85375 160.782785 
L 281.725625 161.86312 
L 284.34125 164.645363 
L 285.649063 165.861821 
L 286.956875 167.0688 
L 290.880313 171.109242 
L 293.06 172.661555 
L 293.931875 173.272934 
L 295.675625 174.90655 
L 297.419375 175.669461 
L 300.035 178.009587 
L 302.650625 179.540551 
L 304.394375 180.984003 
L 305.26625 181.369214 
L 307.445938 181.901247 
L 308.75375 182.829881 
L 310.061563 183.727232 
L 312.24125 184.850883 
L 313.113125 185.024557 
L 313.985 185.164448 
L 314.856875 185.656051 
L 315.72875 186.30832 
L 316.600625 186.661718 
L 317.4725 186.917785 
L 319.21625 187.630659 
L 320.088125 187.891108 
L 322.267813 188.825795 
L 327.935 190.125604 
L 329.242813 190.277908 
L 333.602188 191.539305 
L 334.91 191.817885 
L 336.217813 191.950745 
L 338.3975 192.436942 
L 339.705313 192.505282 
L 341.013125 192.920289 
L 342.320938 193.317638 
L 343.192813 193.383948 
L 344.936563 193.287889 
L 347.988125 194.083971 
L 353.655313 195.046921 
L 355.835 194.681058 
L 357.142813 194.913845 
L 358.450625 195.461107 
L 359.3225 195.819053 
L 361.06625 196.174241 
L 362.374063 196.281852 
L 364.117813 196.208489 
L 364.989688 196.569351 
L 366.2975 197.144265 
L 367.169375 197.275544 
L 370.656875 197.302284 
L 371.52875 197.201048 
L 373.2725 196.619117 
L 374.580313 196.642969 
L 378.939688 197.010107 
L 380.2475 197.078215 
L 381.119375 197.066757 
L 382.863125 197.214362 
L 384.170938 197.348121 
L 385.042813 197.444539 
L 385.914688 197.310348 
L 387.658438 196.971348 
L 388.530313 196.876067 
L 389.402188 197.044186 
L 390.71 197.488329 
L 391.581875 197.46829 
L 393.325625 197.105313 
L 394.1975 197.172463 
L 395.505313 197.416864 
L 397.249063 197.491998 
L 398.556875 197.815937 
L 399.42875 197.78519 
L 402.91625 197.282089 
L 404.224063 197.517701 
L 405.095938 197.578972 
L 406.839688 197.495154 
L 408.1475 197.591188 
L 409.455313 197.451416 
L 409.455313 197.451416 
" style="fill:none;stroke:#1f77b4;stroke-linecap:square;stroke-width:1.5;"/>
   </g>
   <g id="line2d_36">
    <path clip-path="url(#p2f189e71c6)" d="M 51.986562 197.205167 
L 52.4225 197.555704 
L 52.858438 197.682593 
L 53.294375 197.531894 
L 54.16625 197.072263 
L 54.602188 197.107368 
L 55.474063 197.766604 
L 55.91 198.067593 
L 56.345937 198.060031 
L 56.781875 197.65904 
L 57.65375 196.385483 
L 58.089687 196.051819 
L 58.525625 196.038177 
L 59.833438 196.375868 
L 60.269375 196.429816 
L 60.705312 196.597005 
L 62.013125 197.417319 
L 62.449062 197.355205 
L 62.885 197.042739 
L 64.192813 195.803648 
L 64.62875 195.623216 
L 65.064687 195.606082 
L 65.500625 195.80463 
L 65.936563 196.258155 
L 66.808437 197.420957 
L 67.244375 197.70574 
L 67.680313 197.700153 
L 69.86 196.719638 
L 70.731875 195.888488 
L 71.167812 195.697035 
L 72.475625 195.87536 
L 73.783438 195.168062 
L 74.219375 195.308034 
L 75.09125 196.022055 
L 75.527187 196.009956 
L 76.835 194.922223 
L 77.270938 195.00348 
L 79.014688 196.411228 
L 79.450625 196.450002 
L 80.3225 196.087556 
L 80.758438 195.893027 
L 81.194375 195.85496 
L 82.502188 196.188511 
L 84.681875 195.664467 
L 85.55375 195.432481 
L 86.425625 194.710761 
L 87.2975 193.93509 
L 88.169375 193.354517 
L 88.605312 193.195926 
L 89.04125 193.221865 
L 90.349063 193.626013 
L 92.092813 193.630265 
L 92.52875 193.424119 
L 93.400625 192.547361 
L 93.836563 192.096454 
L 94.2725 191.875532 
L 94.708438 192.015005 
L 95.144375 192.51334 
L 96.01625 193.89383 
L 96.452188 194.326326 
L 96.888125 194.420984 
L 97.324063 194.221849 
L 99.067813 192.924257 
L 100.375625 192.245596 
L 100.811563 192.125626 
L 101.683438 192.218623 
L 103.427188 192.555677 
L 104.735 192.274458 
L 105.606875 191.959351 
L 106.914688 190.960422 
L 107.350625 190.951418 
L 107.786563 191.221278 
L 108.658438 192.058198 
L 109.094375 192.211185 
L 109.530313 192.018998 
L 110.838125 190.729929 
L 111.274063 190.591085 
L 112.581875 190.467423 
L 113.889688 190.109154 
L 115.1975 190.054475 
L 116.94125 189.377423 
L 117.813125 188.905297 
L 118.249063 188.81603 
L 118.685 188.93718 
L 121.736563 190.948341 
L 122.1725 190.798834 
L 122.608438 190.072494 
L 123.91625 186.798078 
L 124.352188 186.374724 
L 125.224063 186.154904 
L 126.531875 186.054282 
L 126.967813 185.834952 
L 127.839688 184.836462 
L 128.275625 184.321039 
L 128.711563 183.992779 
L 129.1475 183.926715 
L 130.455313 184.426682 
L 130.89125 184.309665 
L 132.199063 183.474277 
L 133.506875 183.182325 
L 134.37875 183.138953 
L 135.686563 183.484488 
L 136.1225 183.284146 
L 136.558438 182.838426 
L 138.302188 180.168492 
L 138.738125 179.928991 
L 139.61 179.783846 
L 140.045938 179.501426 
L 141.789688 177.590284 
L 142.661563 177.064868 
L 143.533438 176.224941 
L 143.969375 176.034864 
L 145.277188 176.179928 
L 146.149063 175.813522 
L 148.32875 175.854178 
L 148.764688 175.748114 
L 149.200625 175.484974 
L 150.0725 174.326416 
L 150.944375 173.163562 
L 151.81625 172.170993 
L 152.688125 170.865361 
L 153.124063 170.494367 
L 153.56 170.417201 
L 154.431875 170.572073 
L 154.867813 170.542414 
L 155.30375 170.333166 
L 155.739688 169.875125 
L 156.611563 168.309047 
L 157.483438 166.687136 
L 157.919375 166.173164 
L 158.355313 165.984597 
L 158.79125 166.110777 
L 160.099063 166.960237 
L 160.535 166.921489 
L 160.970938 166.643319 
L 161.842813 165.643009 
L 163.586563 163.079981 
L 164.0225 162.732977 
L 165.330313 162.110801 
L 165.76625 161.536045 
L 167.074063 159.082668 
L 167.51 158.570903 
L 167.945938 158.336253 
L 169.25375 158.088804 
L 170.125625 157.397162 
L 171.869375 155.694252 
L 173.613125 154.169016 
L 174.485 152.326766 
L 175.356875 150.520106 
L 176.22875 149.015039 
L 177.100625 147.31314 
L 177.536563 146.811112 
L 177.9725 146.71149 
L 178.844375 147.01078 
L 179.280313 146.877899 
L 179.71625 146.327479 
L 180.152188 145.361529 
L 181.46 141.690699 
L 182.331875 140.059984 
L 183.639688 137.707371 
L 184.075625 137.272691 
L 184.511563 137.230144 
L 184.9475 137.321161 
L 185.383438 137.1036 
L 185.819375 136.276199 
L 187.127188 132.19661 
L 187.563125 131.382066 
L 188.435 130.24588 
L 189.306875 128.50251 
L 190.17875 126.483398 
L 190.614688 125.807438 
L 191.486563 125.1098 
L 192.358438 124.38391 
L 193.230313 123.143715 
L 194.974063 120.083282 
L 195.845938 117.90369 
L 197.15375 114.458372 
L 200.205313 108.212402 
L 200.64125 107.588885 
L 201.513125 106.705152 
L 201.949063 105.879395 
L 202.820938 103.0143 
L 204.564688 96.371696 
L 205.436563 94.114023 
L 206.744375 91.963493 
L 207.61625 89.604091 
L 208.488125 87.200226 
L 209.795938 84.51576 
L 210.231875 82.889269 
L 211.10375 77.574655 
L 211.539688 74.828634 
L 211.975625 72.996326 
L 212.411563 72.234488 
L 213.283438 71.740468 
L 213.719375 71.128142 
L 214.59125 69.246925 
L 215.463125 66.810306 
L 216.335 63.825865 
L 219.8225 50.455526 
L 222.002188 42.556344 
L 222.874063 39.336238 
L 223.745938 37.089275 
L 224.617813 35.771058 
L 225.489688 34.993506 
L 226.361563 34.495945 
L 226.7975 34.414125 
L 227.233438 34.507668 
L 228.105313 34.908657 
L 228.977188 35.043764 
L 229.413125 35.69337 
L 229.849063 37.609043 
L 230.285 41.185299 
L 231.592813 54.388097 
L 232.02875 56.61394 
L 232.900625 59.126568 
L 234.644375 63.731587 
L 235.51625 66.849591 
L 238.131875 77.704287 
L 240.7475 86.647109 
L 242.055313 91.991581 
L 243.363125 95.515876 
L 244.670938 99.62447 
L 249.902188 117.097342 
L 250.774063 119.601963 
L 251.645938 121.537026 
L 252.517813 122.846509 
L 253.389688 123.835605 
L 253.825625 124.630362 
L 254.6975 127.07993 
L 256.005313 131.093355 
L 257.313125 133.780464 
L 259.492813 139.853419 
L 260.364688 141.806632 
L 261.236563 142.99843 
L 262.108438 144.097331 
L 263.41625 146.569964 
L 265.16 149.797484 
L 267.775625 153.611006 
L 268.6475 154.600833 
L 269.083438 155.308458 
L 269.955313 157.644026 
L 270.39125 158.870666 
L 270.827188 159.701156 
L 271.263125 160.04107 
L 272.135 160.112294 
L 272.570938 160.309784 
L 273.442813 161.168256 
L 274.314688 162.268118 
L 275.186563 163.846765 
L 276.930313 167.491302 
L 277.36625 168.143533 
L 277.802188 168.580919 
L 278.674063 168.970641 
L 279.545938 169.243425 
L 279.981875 169.549457 
L 280.85375 170.685605 
L 281.725625 171.682991 
L 283.033438 172.404271 
L 284.777188 173.877242 
L 285.649063 174.645997 
L 286.956875 176.096726 
L 288.700625 177.515382 
L 289.5725 178.531441 
L 290.444375 179.709801 
L 290.880313 180.041989 
L 291.31625 180.056398 
L 291.752188 179.779866 
L 292.624063 178.931832 
L 293.06 178.681908 
L 293.495938 178.691622 
L 293.931875 179.052327 
L 294.367813 179.833093 
L 296.111563 184.35723 
L 296.5475 184.529815 
L 296.983438 184.006577 
L 297.855313 182.295705 
L 298.29125 182.012753 
L 298.727188 182.315155 
L 299.599063 183.915011 
L 300.035 184.700338 
L 300.470938 185.190209 
L 300.906875 185.324969 
L 301.77875 185.21729 
L 302.214688 185.398183 
L 303.086563 185.911766 
L 303.5225 185.905606 
L 304.394375 185.746414 
L 304.830313 185.96319 
L 305.26625 186.456996 
L 306.574063 188.301046 
L 307.01 188.596921 
L 307.445938 188.666208 
L 309.189688 188.256995 
L 310.933438 188.643311 
L 311.805313 188.427905 
L 312.24125 188.516678 
L 313.113125 189.207254 
L 313.985 189.860831 
L 314.856875 190.4714 
L 316.164688 191.673287 
L 317.036563 192.120547 
L 318.344375 192.700213 
L 319.21625 193.134469 
L 320.088125 193.346628 
L 321.395938 193.419361 
L 322.267813 193.071566 
L 323.139688 192.613913 
L 323.575625 192.557615 
L 324.011563 192.701972 
L 325.319375 193.644026 
L 325.755313 193.658518 
L 329.242813 192.281262 
L 329.67875 192.36324 
L 330.550625 192.969275 
L 331.858438 194.085023 
L 334.474063 195.385636 
L 335.781875 194.863369 
L 336.217813 195.156281 
L 337.525625 196.877115 
L 337.961563 197.00499 
L 338.833438 196.672001 
L 339.705313 196.151519 
L 340.577188 195.564518 
L 341.013125 195.462896 
L 341.885 195.722635 
L 343.192813 196.429885 
L 344.064688 196.853669 
L 344.500625 196.759325 
L 345.3725 196.100684 
L 345.808438 195.973138 
L 346.244375 196.137876 
L 347.11625 196.606211 
L 348.424063 196.295049 
L 348.86 196.50755 
L 349.731875 197.193541 
L 350.167813 197.295731 
L 350.60375 197.083773 
L 351.475625 196.137693 
L 351.911563 195.890659 
L 352.3475 195.987696 
L 354.09125 197.346711 
L 354.527188 197.404727 
L 355.399063 197.204349 
L 356.270938 196.711363 
L 358.450625 195.278293 
L 358.886563 195.085564 
L 359.3225 195.037113 
L 359.758438 195.173616 
L 361.06625 196.13844 
L 361.502188 196.191117 
L 362.374063 196.049175 
L 362.81 196.363861 
L 364.55375 198.901352 
L 364.989688 199.068785 
L 365.425625 199.022792 
L 366.2975 198.508864 
L 367.169375 198.054779 
L 367.605313 198.055403 
L 368.913125 198.355798 
L 371.092813 197.952674 
L 372.400625 198.216065 
L 373.2725 198.479263 
L 373.708438 198.468024 
L 374.144375 198.244546 
L 374.580313 197.782164 
L 375.452188 196.561303 
L 375.888125 196.23403 
L 376.324063 196.310424 
L 376.76 196.739191 
L 378.067813 198.440258 
L 378.50375 198.710044 
L 378.939688 198.667581 
L 379.811563 197.899179 
L 380.2475 197.539064 
L 380.683438 197.358829 
L 381.119375 197.35667 
L 381.99125 197.692713 
L 382.863125 198.116543 
L 383.735 198.268877 
L 384.606875 198.356839 
L 385.47875 198.579148 
L 385.914688 198.494465 
L 387.2225 197.640451 
L 387.658438 197.761613 
L 388.96625 198.790915 
L 391.145938 199.611544 
L 391.581875 199.617115 
L 392.017813 199.381735 
L 393.761563 197.672715 
L 394.1975 197.739415 
L 395.505313 198.9026 
L 395.94125 198.942984 
L 397.249063 198.15841 
L 397.685 198.151446 
L 398.556875 198.585782 
L 399.864688 199.220742 
L 400.300625 199.309421 
L 400.736563 199.272294 
L 401.1725 199.062825 
L 401.608438 198.654878 
L 402.480313 197.514751 
L 402.91625 197.158741 
L 403.352188 197.147323 
L 404.66 197.937591 
L 405.531875 198.00738 
L 405.967813 198.041626 
L 407.275625 198.552905 
L 407.711563 198.45792 
L 408.583438 197.841524 
L 409.019375 197.741615 
L 409.455313 197.928174 
L 409.455313 197.928174 
" style="fill:none;stroke:#ff7f0e;stroke-linecap:square;stroke-width:1.5;"/>
   </g>
   <g id="line2d_37">
    <path clip-path="url(#p2f189e71c6)" d="M 51.986562 195.802446 
L 52.4225 196.164882 
L 52.858438 196.238268 
L 53.730312 196.086016 
L 55.038125 196.560975 
L 55.474063 196.403757 
L 56.345937 195.838348 
L 56.781875 195.730722 
L 57.65375 195.96876 
L 59.3975 196.676395 
L 59.833438 196.660358 
L 60.269375 196.174715 
L 60.705312 195.412842 
L 61.14125 194.987334 
L 61.577188 195.386062 
L 62.449062 197.605093 
L 62.885 198.055597 
L 63.320938 197.632905 
L 64.192813 195.838956 
L 64.62875 195.468086 
L 65.064687 195.705701 
L 65.936563 197.130254 
L 66.3725 197.47605 
L 66.808437 197.237092 
L 67.244375 196.675226 
L 67.680313 196.295984 
L 68.11625 196.3777 
L 68.552188 196.690411 
L 68.988125 196.69861 
L 69.424063 196.062103 
L 70.295938 193.91 
L 70.731875 193.360473 
L 71.167812 193.333806 
L 72.039688 193.930531 
L 72.911563 194.745672 
L 73.3475 194.927378 
L 73.783438 194.71971 
L 74.655313 193.860868 
L 75.09125 193.832095 
L 75.527187 194.179755 
L 77.706875 197.110638 
L 78.57875 198.775344 
L 79.450625 200.718847 
L 79.886562 201.037739 
L 80.3225 200.378214 
L 81.194375 196.732316 
L 81.630313 195.04782 
L 82.06625 194.073122 
L 82.938125 193.232206 
L 83.374063 192.933777 
L 83.81 192.986964 
L 84.681875 194.03675 
L 85.117813 194.064489 
L 85.55375 193.363176 
L 86.425625 191.429233 
L 86.861563 191.237721 
L 87.2975 191.791026 
L 87.733438 192.949405 
L 88.605312 195.80971 
L 89.04125 196.575975 
L 89.477188 196.535501 
L 90.349063 195.280637 
L 90.785 194.999883 
L 91.220938 195.297176 
L 91.656875 196.119259 
L 92.52875 198.275545 
L 92.964688 198.905725 
L 93.400625 198.85191 
L 93.836563 198.13952 
L 94.708438 196.226074 
L 95.580313 194.930926 
L 96.888125 191.99107 
L 97.324063 192.193029 
L 97.76 193.401623 
L 98.195938 195.023474 
L 98.631875 196.208724 
L 99.067813 196.349864 
L 99.50375 195.42517 
L 100.375625 192.615968 
L 100.811563 191.856204 
L 101.2475 191.794426 
L 101.683438 192.328768 
L 102.119375 193.306072 
L 102.99125 196.15588 
L 103.863125 198.944883 
L 104.299063 199.437985 
L 104.735 198.957342 
L 106.042813 194.966618 
L 106.47875 194.328469 
L 106.914688 194.227461 
L 107.350625 194.581823 
L 107.786563 195.36236 
L 108.658438 197.620905 
L 109.094375 198.362609 
L 109.530313 198.405903 
L 109.96625 197.765888 
L 111.274063 194.662118 
L 111.71 194.329402 
L 112.581875 194.598789 
L 113.017813 194.350658 
L 113.45375 193.611402 
L 114.761563 190.486022 
L 115.1975 189.942427 
L 115.633438 190.27822 
L 116.069375 191.679743 
L 116.94125 195.621771 
L 117.377188 196.686895 
L 117.813125 196.898903 
L 118.685 196.513091 
L 119.120938 196.679377 
L 119.992813 197.729875 
L 120.42875 197.687702 
L 120.864688 196.45758 
L 121.300625 193.854194 
L 122.1725 187.627406 
L 122.608438 186.821119 
L 123.044375 188.664521 
L 123.91625 195.898579 
L 124.352188 198.025809 
L 124.788125 198.419736 
L 125.66 197.081559 
L 126.095938 196.916027 
L 126.967813 197.870715 
L 127.40375 197.912144 
L 127.839688 197.204107 
L 129.1475 193.926734 
L 129.583438 193.324123 
L 130.019375 192.997857 
L 130.455313 193.001859 
L 130.89125 193.361034 
L 131.763125 194.305048 
L 132.199063 194.207911 
L 132.635 193.561088 
L 133.506875 192.004297 
L 133.942813 191.753173 
L 134.814688 191.798363 
L 135.250625 191.911464 
L 135.686563 192.340687 
L 136.558438 193.767966 
L 136.994375 193.60825 
L 137.430313 192.331788 
L 138.302188 188.481651 
L 138.738125 187.422671 
L 139.174063 187.393084 
L 139.61 188.148413 
L 140.045938 189.15644 
L 140.481875 189.820659 
L 140.917813 189.717389 
L 141.35375 188.831038 
L 141.789688 187.645444 
L 142.225625 186.90286 
L 142.661563 187.10682 
L 143.969375 190.384341 
L 144.405313 190.536649 
L 144.84125 190.02113 
L 145.713125 188.538956 
L 147.892813 186.559522 
L 148.32875 187.188668 
L 149.636563 191.48659 
L 150.0725 191.509156 
L 150.508438 190.415475 
L 151.380313 187.114181 
L 151.81625 185.969115 
L 152.252188 185.294556 
L 153.56 183.956486 
L 153.995938 183.744902 
L 154.431875 183.901285 
L 155.30375 184.709635 
L 155.739688 184.50835 
L 156.175625 183.509768 
L 157.0475 180.564576 
L 157.483438 179.692646 
L 159.227188 178.319839 
L 159.663125 178.215224 
L 160.099063 178.681071 
L 160.970938 180.886562 
L 161.842813 182.984069 
L 162.27875 183.370143 
L 162.714688 183.054828 
L 163.586563 180.979339 
L 164.458438 179.031771 
L 166.202188 176.297635 
L 167.51 173.380611 
L 167.945938 173.051463 
L 168.817813 173.20964 
L 169.25375 173.020756 
L 170.125625 172.327988 
L 170.561563 172.504354 
L 171.433438 173.476184 
L 172.305313 173.834504 
L 172.74125 173.88691 
L 173.177188 173.678756 
L 173.613125 172.977545 
L 174.485 170.793455 
L 174.920938 170.063654 
L 175.792813 169.232458 
L 176.22875 168.487274 
L 177.9725 164.05048 
L 178.408438 163.877127 
L 178.844375 164.267628 
L 179.71625 165.620179 
L 180.152188 165.724198 
L 180.588125 165.048203 
L 181.46 162.938529 
L 181.895938 162.832517 
L 182.767813 164.117684 
L 183.20375 164.146284 
L 183.639688 163.371599 
L 184.9475 159.80417 
L 185.819375 158.611172 
L 186.255313 158.102084 
L 186.69125 157.387042 
L 188.435 153.49637 
L 188.870938 153.42296 
L 189.742813 153.985774 
L 190.17875 154.105462 
L 190.614688 153.976875 
L 191.050625 153.452128 
L 191.486563 152.410512 
L 192.794375 148.416929 
L 195.845938 142.860754 
L 196.717813 142.632977 
L 197.15375 141.81721 
L 197.589688 140.185577 
L 198.8975 134.220688 
L 199.333438 133.026372 
L 199.769375 132.347422 
L 200.205313 132.032083 
L 201.077188 131.601496 
L 201.513125 130.88583 
L 201.949063 129.486057 
L 202.820938 125.724218 
L 203.256875 124.566448 
L 203.692813 124.180977 
L 204.12875 124.121126 
L 204.564688 123.897647 
L 205.436563 122.723115 
L 206.308438 121.203635 
L 208.052188 117.889986 
L 208.924063 115.940152 
L 210.231875 112.19056 
L 210.667813 111.243668 
L 211.10375 109.833334 
L 211.539688 107.389473 
L 212.8475 98.163794 
L 213.283438 96.806436 
L 213.719375 96.316959 
L 214.155313 96.055849 
L 214.59125 95.404013 
L 215.027188 94.026874 
L 215.899063 89.400527 
L 216.770938 84.651048 
L 217.642813 80.716055 
L 220.258438 66.620679 
L 221.130313 63.513246 
L 222.438125 60.482283 
L 222.874063 58.875918 
L 224.617813 50.375982 
L 225.925625 46.377789 
L 226.7975 43.784062 
L 227.669375 41.80153 
L 228.105313 40.243793 
L 229.413125 34.414125 
L 229.849063 35.707657 
L 230.285 41.35992 
L 231.592813 71.106957 
L 232.02875 76.165073 
L 232.464688 78.010812 
L 232.900625 78.277518 
L 234.208438 77.595893 
L 234.644375 77.994616 
L 235.080313 79.149358 
L 237.26 87.630939 
L 238.131875 91.369109 
L 239.00375 93.887623 
L 239.439688 95.118187 
L 239.875625 96.889021 
L 241.619375 106.232938 
L 242.055313 107.230079 
L 242.49125 107.936205 
L 242.927188 109.12527 
L 244.235 114.754745 
L 245.542813 117.179483 
L 247.286563 124.772052 
L 247.7225 124.902746 
L 248.158438 124.597898 
L 248.594375 124.514171 
L 249.030313 124.961341 
L 249.46625 125.861988 
L 250.338125 128.544084 
L 252.081875 135.532108 
L 252.517813 136.562391 
L 252.95375 137.054548 
L 253.825625 137.474761 
L 254.261563 138.29473 
L 255.133438 141.554529 
L 255.569375 143.119562 
L 256.005313 144.096784 
L 256.44125 144.48193 
L 256.877188 144.607272 
L 257.313125 144.925366 
L 257.749063 145.701052 
L 260.364688 152.396481 
L 262.108438 156.172675 
L 262.544375 156.29087 
L 262.980313 156.07374 
L 263.41625 156.133302 
L 263.852188 156.890603 
L 264.724063 159.205544 
L 265.16 159.697237 
L 265.595938 159.830583 
L 266.031875 160.135275 
L 266.90375 161.359019 
L 267.339688 161.449806 
L 267.775625 161.000365 
L 268.211563 160.365485 
L 268.6475 160.022458 
L 269.083438 160.329884 
L 269.519375 161.380689 
L 270.827188 165.688311 
L 271.263125 166.159291 
L 271.699063 166.214152 
L 272.135 166.445577 
L 272.570938 167.290848 
L 273.442813 169.931487 
L 273.87875 170.750367 
L 276.058438 172.382386 
L 276.930313 172.446074 
L 277.36625 172.689416 
L 278.238125 173.615136 
L 278.674063 173.75998 
L 279.11 173.470651 
L 279.545938 172.678214 
L 280.85375 168.688545 
L 281.289688 168.373793 
L 281.725625 169.226473 
L 282.5975 173.435227 
L 283.033438 175.559809 
L 283.469375 176.951046 
L 283.905313 177.577909 
L 284.777188 178.193393 
L 285.213125 178.782313 
L 286.956875 181.964645 
L 287.392813 182.044656 
L 287.82875 181.541114 
L 288.700625 180.188296 
L 290.008438 179.235006 
L 290.880313 178.005192 
L 291.31625 178.306573 
L 291.752188 179.787953 
L 292.624063 184.120534 
L 293.06 185.378707 
L 293.495938 185.838302 
L 294.367813 185.903391 
L 294.80375 185.75093 
L 295.239688 185.384033 
L 296.5475 183.867264 
L 296.983438 183.733427 
L 297.419375 184.054508 
L 297.855313 184.954723 
L 299.163125 189.015851 
L 299.599063 189.305358 
L 300.035 188.923624 
L 300.906875 187.874901 
L 301.77875 186.887682 
L 302.214688 186.312036 
L 302.650625 186.046197 
L 303.086563 186.344519 
L 304.830313 189.447787 
L 305.702188 191.776907 
L 306.138125 192.981732 
L 306.574063 193.7516 
L 307.01 194.032866 
L 307.445938 193.961385 
L 307.881875 193.643667 
L 308.317813 193.081281 
L 308.75375 192.236 
L 309.625625 189.757672 
L 310.061563 188.446824 
L 310.4975 187.530523 
L 310.933438 187.293733 
L 311.369375 187.750785 
L 312.677188 190.484633 
L 313.113125 190.961566 
L 314.420938 191.45462 
L 315.72875 193.552576 
L 316.164688 193.516861 
L 316.600625 193.176172 
L 317.036563 193.025102 
L 317.4725 193.272718 
L 317.908438 193.666419 
L 318.344375 193.816294 
L 319.21625 193.347254 
L 319.652188 193.472835 
L 320.088125 194.217423 
L 320.96 196.180155 
L 321.395938 196.374888 
L 322.70375 195.205718 
L 323.575625 194.88287 
L 325.319375 193.752291 
L 325.755313 193.123551 
L 326.627188 191.263948 
L 327.063125 190.841155 
L 327.499063 191.13428 
L 329.242813 194.362497 
L 329.67875 194.256363 
L 330.114688 193.640247 
L 330.986563 192.172137 
L 331.4225 191.946816 
L 331.858438 192.158365 
L 332.294375 192.737795 
L 333.16625 194.329237 
L 334.038125 195.298269 
L 335.345938 196.785196 
L 335.781875 196.794567 
L 336.217813 196.215348 
L 337.525625 193.216467 
L 337.961563 192.77173 
L 338.3975 192.864843 
L 338.833438 193.35999 
L 339.705313 194.78155 
L 340.577188 196.710284 
L 341.449063 198.645631 
L 341.885 199.204649 
L 342.320938 199.366949 
L 342.756875 199.036087 
L 343.192813 198.107663 
L 344.936563 192.497126 
L 345.3725 191.946924 
L 345.808438 191.787651 
L 346.244375 191.978673 
L 346.680313 192.476191 
L 347.11625 193.27314 
L 347.552188 194.429408 
L 348.86 198.605082 
L 349.295938 199.281045 
L 349.731875 199.565558 
L 350.167813 199.598286 
L 350.60375 199.380266 
L 351.039688 198.845639 
L 352.3475 196.501381 
L 352.783438 196.358352 
L 353.219375 196.690347 
L 354.09125 197.669407 
L 354.527188 197.796123 
L 354.963125 197.602234 
L 355.835 196.68247 
L 356.706875 195.892072 
L 357.57875 195.680687 
L 358.014688 195.332769 
L 359.3225 193.187811 
L 359.758438 193.148906 
L 360.194375 193.641602 
L 360.630313 194.628613 
L 361.938125 199.142504 
L 362.374063 199.954982 
L 362.81 200.07734 
L 363.245938 199.687796 
L 364.117813 198.55875 
L 364.989688 197.785056 
L 366.2975 195.801914 
L 366.733438 195.518523 
L 367.605313 195.406152 
L 368.04125 195.641565 
L 368.477188 196.37986 
L 369.349063 198.28052 
L 369.785 198.302986 
L 370.220938 197.519421 
L 371.092813 195.611534 
L 371.52875 195.458517 
L 372.400625 196.387028 
L 372.836563 196.467387 
L 374.144375 195.125005 
L 375.01625 195.102313 
L 375.452188 194.584906 
L 376.76 191.720578 
L 377.195938 191.577169 
L 377.631875 192.081789 
L 378.50375 193.444181 
L 378.939688 193.568082 
L 379.375625 193.49506 
L 379.811563 193.690961 
L 380.2475 194.365447 
L 381.119375 196.005377 
L 381.555313 196.298615 
L 382.427188 196.437588 
L 383.299063 197.113435 
L 383.735 197.258477 
L 384.606875 197.25267 
L 385.042813 197.477567 
L 385.47875 198.025949 
L 386.350625 199.828173 
L 386.786563 200.346206 
L 387.2225 200.095343 
L 387.658438 199.122331 
L 388.530313 196.687915 
L 388.96625 196.094358 
L 389.402188 196.242294 
L 389.838125 197.138912 
L 391.145938 201.670008 
L 391.581875 202.319283 
L 392.017813 201.973146 
L 392.45375 200.726924 
L 393.325625 197.567215 
L 393.761563 196.826655 
L 394.1975 196.863153 
L 396.813125 199.778186 
L 397.685 201.298732 
L 398.120938 201.832342 
L 398.556875 201.95457 
L 398.992813 201.647438 
L 402.044375 198.00672 
L 402.480313 198.090775 
L 403.352188 199.11473 
L 404.224063 200.467212 
L 405.095938 202.17873 
L 405.531875 202.724293 
L 405.967813 202.861511 
L 406.40375 202.665622 
L 406.839688 202.252487 
L 407.711563 200.900383 
L 408.583438 199.294366 
L 409.019375 198.913061 
L 409.455313 198.986535 
L 409.455313 198.986535 
" style="fill:none;stroke:#2ca02c;stroke-linecap:square;stroke-width:1.5;"/>
   </g>
   <g id="line2d_38">
    <path clip-path="url(#p2f189e71c6)" d="M 51.986562 196.250354 
L 52.4225 197.788886 
L 53.730312 205.503689 
L 54.16625 206.424029 
L 54.602188 206.045793 
L 55.038125 204.660867 
L 55.474063 202.470545 
L 56.345937 196.840982 
L 56.781875 195.054971 
L 57.217813 195.066816 
L 57.65375 196.637881 
L 58.089687 198.631404 
L 58.525625 199.866267 
L 58.961563 199.915872 
L 59.3975 199.165453 
L 61.14125 195.432797 
L 61.577188 195.31194 
L 62.013125 196.191068 
L 62.885 199.281644 
L 63.320938 199.82888 
L 63.756875 199.200828 
L 64.62875 196.36474 
L 65.500625 192.943672 
L 66.3725 189.278371 
L 66.808437 188.432127 
L 67.244375 188.305824 
L 67.680313 188.73969 
L 68.11625 189.812619 
L 69.424063 194.799628 
L 69.86 195.335987 
L 70.295938 195.25935 
L 70.731875 195.050444 
L 71.167812 194.989382 
L 72.039688 195.086681 
L 72.475625 194.889859 
L 73.783438 193.215283 
L 74.219375 193.1354 
L 74.655313 193.405713 
L 75.09125 194.117064 
L 75.527187 195.600992 
L 76.835 202.351715 
L 77.270938 202.836092 
L 77.706875 202.053559 
L 78.57875 199.316038 
L 79.014688 198.576557 
L 79.450625 198.435301 
L 79.886562 198.700424 
L 80.3225 199.298862 
L 80.758438 200.321382 
L 81.630313 202.779675 
L 82.06625 202.596488 
L 82.502188 200.548936 
L 83.374063 194.313355 
L 83.81 193.386537 
L 84.245937 194.727627 
L 84.681875 197.093299 
L 85.117813 198.769649 
L 85.55375 198.812444 
L 85.989688 197.438572 
L 86.861563 193.741442 
L 87.733438 191.033952 
L 88.169375 190.06962 
L 88.605312 189.864743 
L 89.04125 190.853279 
L 90.785 198.819884 
L 91.220938 198.70472 
L 91.656875 197.750498 
L 92.52875 194.494484 
L 92.964688 192.821921 
L 93.400625 191.912167 
L 93.836563 192.224864 
L 94.2725 193.614202 
L 95.144375 196.800384 
L 95.580313 197.504165 
L 96.01625 197.584208 
L 96.452188 197.185972 
L 96.888125 196.321097 
L 98.195938 192.161549 
L 98.631875 191.759877 
L 99.067813 192.47504 
L 99.939688 194.886489 
L 100.811563 196.344696 
L 101.683438 198.902448 
L 102.555313 202.208376 
L 103.863125 209.323747 
L 104.299063 210.063937 
L 104.735 209.532376 
L 106.042813 205.642535 
L 106.914688 204.268566 
L 107.350625 203.137662 
L 108.658438 197.738127 
L 109.094375 197.135737 
L 109.530313 197.53403 
L 109.96625 198.861467 
L 110.838125 202.805191 
L 111.274063 204.070829 
L 111.71 204.157134 
L 112.145938 202.851092 
L 112.581875 200.18885 
L 113.45375 193.664767 
L 113.889688 191.875104 
L 114.325625 191.332765 
L 115.1975 191.225973 
L 115.633438 191.308154 
L 116.505313 192.137728 
L 116.94125 191.876029 
L 117.377188 190.619922 
L 117.813125 188.844557 
L 118.249063 187.570293 
L 118.685 187.638889 
L 119.120938 189.187785 
L 120.42875 196.920752 
L 120.864688 198.232105 
L 121.300625 198.164606 
L 121.736563 196.831999 
L 122.608438 192.75972 
L 123.044375 191.785219 
L 123.480313 192.314426 
L 124.788125 196.730311 
L 125.224063 197.333537 
L 125.66 197.616386 
L 126.095938 197.287176 
L 126.531875 195.857463 
L 127.40375 191.452069 
L 127.839688 190.73424 
L 128.275625 191.751752 
L 129.583438 198.769696 
L 130.019375 199.134774 
L 130.455313 197.910442 
L 131.327188 194.711409 
L 131.763125 194.170766 
L 132.199063 193.966199 
L 133.506875 192.869086 
L 134.37875 193.710158 
L 134.814688 193.563974 
L 135.250625 192.677271 
L 135.686563 191.519382 
L 136.1225 190.818431 
L 136.558438 191.050806 
L 137.430313 193.132693 
L 137.86625 193.348807 
L 138.302188 192.401256 
L 138.738125 190.895949 
L 139.174063 189.92121 
L 139.61 190.169968 
L 140.045938 191.560812 
L 141.35375 197.630819 
L 141.789688 198.950948 
L 142.225625 199.436521 
L 142.661563 198.817333 
L 143.0975 196.924881 
L 144.405313 188.69913 
L 144.84125 188.02275 
L 145.277188 188.932066 
L 146.585 195.344019 
L 147.020938 195.794794 
L 147.456875 194.933204 
L 147.892813 193.614523 
L 148.32875 192.717134 
L 148.764688 192.554872 
L 149.636563 193.1755 
L 150.0725 193.047846 
L 150.508438 192.382293 
L 152.688125 187.421983 
L 153.124063 186.858707 
L 153.56 186.98565 
L 153.995938 187.84045 
L 154.867813 189.873564 
L 155.30375 190.272764 
L 155.739688 190.279519 
L 157.0475 189.561414 
L 157.483438 189.255867 
L 157.919375 188.473428 
L 158.79125 185.815709 
L 159.227188 185.355525 
L 159.663125 185.971514 
L 160.535 188.362925 
L 161.406875 189.979694 
L 161.842813 190.488372 
L 162.27875 190.493458 
L 162.714688 189.722183 
L 163.586563 187.146116 
L 164.0225 186.44642 
L 164.458438 186.25355 
L 164.894375 186.208901 
L 165.330313 185.938055 
L 165.76625 185.111673 
L 166.202188 183.44605 
L 167.074063 177.60664 
L 167.51 174.41238 
L 167.945938 172.289623 
L 168.381875 172.268456 
L 168.817813 174.692518 
L 169.689688 181.866673 
L 170.125625 182.853614 
L 170.561563 181.327773 
L 171.433438 176.574473 
L 171.869375 176.38844 
L 172.305313 178.208752 
L 173.177188 184.295543 
L 173.613125 186.008164 
L 174.049063 185.451322 
L 174.485 182.461531 
L 175.356875 173.83074 
L 175.792813 171.766945 
L 176.22875 172.238255 
L 177.100625 175.483075 
L 177.536563 175.710916 
L 178.408438 174.430824 
L 179.280313 172.86413 
L 180.588125 169.810926 
L 181.895938 167.438487 
L 182.767813 164.461523 
L 183.20375 163.827072 
L 183.639688 165.035507 
L 184.9475 174.975914 
L 185.383438 175.790299 
L 185.819375 174.967091 
L 186.69125 171.761026 
L 187.563125 166.693382 
L 187.999063 164.236808 
L 188.435 163.196893 
L 188.870938 163.843291 
L 189.306875 165.316983 
L 189.742813 166.343144 
L 190.17875 166.198655 
L 190.614688 164.980605 
L 192.358438 157.817352 
L 192.794375 157.348013 
L 193.230313 157.56073 
L 194.102188 158.533188 
L 194.538125 159.318678 
L 194.974063 160.713423 
L 195.845938 164.072668 
L 196.281875 164.264946 
L 196.717813 162.618607 
L 197.589688 155.550576 
L 198.461563 148.978663 
L 198.8975 147.096078 
L 199.333438 146.551387 
L 199.769375 147.53889 
L 201.077188 154.386195 
L 201.513125 154.724934 
L 201.949063 152.971538 
L 202.385 149.133461 
L 203.692813 134.492845 
L 204.564688 129.012373 
L 205.436563 124.09435 
L 205.8725 122.761993 
L 206.308438 122.631543 
L 206.744375 123.485354 
L 208.052188 128.134122 
L 208.488125 128.507147 
L 208.924063 128.121168 
L 209.795938 126.9 
L 210.231875 125.701424 
L 210.667813 123.077612 
L 211.10375 118.516759 
L 211.975625 107.350242 
L 212.411563 104.514642 
L 212.8475 104.487479 
L 213.719375 107.516182 
L 214.155313 108.072603 
L 214.59125 107.481159 
L 215.899063 103.43014 
L 216.335 103.621994 
L 216.770938 104.244034 
L 217.206875 103.878264 
L 217.642813 101.693433 
L 218.514688 95.132056 
L 218.950625 93.203215 
L 219.8225 91.22572 
L 220.258438 89.541121 
L 221.130313 84.439706 
L 222.002188 76.41998 
L 222.874063 68.147701 
L 223.31 66.229303 
L 224.181875 64.49159 
L 224.617813 62.700287 
L 225.925625 55.704158 
L 226.361563 54.677015 
L 226.7975 54.463598 
L 227.233438 54.560072 
L 227.669375 53.977865 
L 228.105313 51.420331 
L 228.54125 46.151683 
L 228.977188 39.285778 
L 229.413125 34.414125 
L 229.849063 36.378979 
L 230.285 48.036888 
L 231.156875 86.725672 
L 231.592813 99.836767 
L 232.02875 103.976211 
L 232.464688 101.496735 
L 233.336563 92.450421 
L 233.7725 90.48685 
L 234.208438 90.584657 
L 234.644375 91.996639 
L 236.824063 102.124989 
L 237.695938 105.303895 
L 238.567813 109.044587 
L 239.00375 109.672452 
L 239.439688 109.237075 
L 239.875625 108.510729 
L 240.311563 108.345103 
L 240.7475 109.052864 
L 241.619375 111.986616 
L 242.927188 117.254407 
L 243.799063 122.004335 
L 245.106875 130.797573 
L 245.542813 132.242795 
L 245.97875 132.825699 
L 246.414688 133.200167 
L 246.850625 133.824567 
L 247.7225 135.878866 
L 248.158438 137.367818 
L 249.030313 141.903325 
L 249.46625 144.331637 
L 249.902188 146.036513 
L 250.338125 146.563835 
L 250.774063 145.849399 
L 252.081875 141.162809 
L 252.517813 141.256028 
L 252.95375 142.977739 
L 254.261563 151.672715 
L 254.6975 152.775857 
L 255.133438 152.888506 
L 255.569375 153.167894 
L 256.005313 154.576696 
L 257.313125 161.6438 
L 257.749063 162.031692 
L 258.620938 160.531625 
L 259.056875 160.841717 
L 259.92875 163.353497 
L 260.364688 163.548388 
L 261.236563 162.398149 
L 261.6725 162.972413 
L 262.108438 164.974303 
L 263.41625 174.176592 
L 263.852188 175.418486 
L 264.288125 175.141252 
L 264.724063 173.86152 
L 265.595938 170.701908 
L 266.031875 169.934727 
L 266.467813 170.224651 
L 267.339688 172.323161 
L 267.775625 173.007546 
L 268.6475 173.85083 
L 270.39125 175.966442 
L 270.827188 176.31133 
L 271.263125 176.213875 
L 272.135 174.787493 
L 272.570938 174.812553 
L 273.006875 175.862009 
L 273.87875 178.515283 
L 274.314688 179.035066 
L 275.186563 179.30034 
L 275.6225 180.092852 
L 276.494375 182.467278 
L 276.930313 182.404879 
L 277.36625 181.200425 
L 277.802188 179.576254 
L 278.238125 178.395273 
L 278.674063 178.279487 
L 279.11 179.551741 
L 279.545938 182.143689 
L 280.417813 188.431708 
L 280.85375 190.020897 
L 281.289688 189.848722 
L 282.161563 187.464072 
L 282.5975 187.381433 
L 283.033438 188.486847 
L 283.469375 190.522333 
L 284.34125 195.57023 
L 284.777188 196.906934 
L 285.213125 196.265428 
L 285.649063 193.680143 
L 286.520938 187.117712 
L 286.956875 185.249201 
L 287.392813 184.586513 
L 287.82875 184.777551 
L 288.264688 185.489441 
L 289.5725 188.313814 
L 290.008438 188.651597 
L 290.444375 188.274464 
L 290.880313 187.662392 
L 291.31625 187.836077 
L 291.752188 189.277231 
L 292.188125 191.255181 
L 292.624063 192.431586 
L 293.06 191.983907 
L 293.931875 188.43142 
L 294.367813 188.090634 
L 294.80375 189.790502 
L 295.675625 194.84223 
L 296.111563 195.043641 
L 296.5475 193.420818 
L 296.983438 191.347995 
L 297.419375 190.143709 
L 297.855313 190.122891 
L 298.727188 191.097983 
L 299.599063 191.092503 
L 300.035 191.469159 
L 302.214688 195.784696 
L 303.5225 201.002342 
L 303.958438 201.2186 
L 304.394375 200.147276 
L 304.830313 198.056793 
L 306.138125 189.676954 
L 306.574063 188.910178 
L 307.01 189.862361 
L 307.881875 193.339993 
L 308.317813 194.440391 
L 309.189688 195.695441 
L 309.625625 195.90745 
L 310.061563 195.428053 
L 311.369375 191.521054 
L 311.805313 191.014817 
L 312.24125 191.395165 
L 312.677188 192.623218 
L 313.113125 194.184241 
L 313.549063 195.147009 
L 313.985 194.903466 
L 314.856875 193.047383 
L 315.292813 193.125824 
L 316.164688 194.551422 
L 316.600625 194.846877 
L 317.036563 194.49526 
L 318.344375 191.596562 
L 318.780313 192.287123 
L 319.652188 195.493814 
L 320.088125 196.38673 
L 320.524063 196.375256 
L 320.96 195.530111 
L 321.831875 192.544412 
L 322.267813 191.899601 
L 322.70375 192.861746 
L 324.011563 200.40008 
L 324.4475 201.375082 
L 324.883438 201.129569 
L 325.319375 199.950332 
L 327.063125 193.373311 
L 327.935 191.161678 
L 328.370938 190.676096 
L 328.806875 190.973096 
L 329.242813 192.337888 
L 330.986563 201.752002 
L 331.4225 202.109789 
L 331.858438 201.688891 
L 332.294375 200.650202 
L 333.602188 195.536441 
L 334.038125 194.669593 
L 334.474063 194.215497 
L 334.91 193.582254 
L 335.345938 192.671958 
L 335.781875 192.086666 
L 336.217813 192.515945 
L 337.089688 195.525146 
L 337.525625 196.09873 
L 337.961563 195.180604 
L 339.705313 187.167774 
L 340.14125 186.290376 
L 340.577188 185.890272 
L 341.013125 185.780793 
L 341.449063 185.862317 
L 341.885 186.187608 
L 343.192813 188.251647 
L 343.62875 188.162544 
L 344.500625 186.864147 
L 344.936563 187.077397 
L 345.3725 188.436786 
L 347.11625 197.38264 
L 347.552188 198.55117 
L 347.988125 198.890003 
L 348.424063 198.218608 
L 348.86 196.596888 
L 349.731875 192.631554 
L 350.167813 191.675211 
L 350.60375 191.848315 
L 351.039688 192.891788 
L 353.219375 200.002161 
L 353.655313 200.657753 
L 354.09125 200.582883 
L 354.527188 199.845109 
L 354.963125 198.804867 
L 355.399063 198.098995 
L 355.835 198.250216 
L 356.706875 199.793251 
L 357.142813 199.479437 
L 357.57875 198.009323 
L 358.014688 196.112592 
L 358.450625 194.949971 
L 358.886563 195.296371 
L 359.3225 196.971905 
L 360.194375 201.166179 
L 360.630313 202.827403 
L 361.06625 203.819652 
L 361.502188 203.569332 
L 362.81 198.752045 
L 363.245938 198.547682 
L 363.681875 198.709681 
L 364.117813 198.566169 
L 364.989688 197.686962 
L 365.425625 197.941319 
L 366.2975 200.19108 
L 366.733438 200.513581 
L 367.169375 199.33546 
L 368.04125 195.4904 
L 368.477188 195.142979 
L 368.913125 196.064454 
L 369.785 198.35134 
L 370.656875 199.718764 
L 371.092813 200.196087 
L 371.52875 200.148206 
L 371.964688 199.845589 
L 372.400625 200.172493 
L 372.836563 201.722388 
L 373.708438 206.070264 
L 374.144375 206.703001 
L 374.580313 205.976468 
L 375.01625 204.843414 
L 375.452188 204.280372 
L 375.888125 204.334096 
L 376.324063 204.198387 
L 376.76 203.242766 
L 377.631875 200.403986 
L 378.067813 199.718089 
L 378.50375 199.69472 
L 378.939688 200.364263 
L 379.375625 201.808156 
L 380.2475 205.087824 
L 380.683438 205.09488 
L 381.119375 203.490911 
L 381.99125 198.897067 
L 382.427188 198.34694 
L 382.863125 199.393604 
L 383.299063 200.95601 
L 383.735 201.806539 
L 384.170938 201.700478 
L 384.606875 201.472641 
L 385.042813 202.034465 
L 385.914688 204.656981 
L 386.350625 204.899404 
L 386.786563 203.906178 
L 387.658438 200.722894 
L 388.094375 199.716289 
L 388.530313 199.185723 
L 388.96625 198.962412 
L 389.838125 199.001804 
L 390.71 199.143029 
L 392.017813 199.763813 
L 392.45375 199.403881 
L 392.889688 198.235753 
L 393.761563 194.608963 
L 394.1975 193.70801 
L 394.633438 194.089849 
L 395.94125 198.306226 
L 396.377188 198.471826 
L 397.249063 197.046208 
L 397.685 196.883589 
L 398.120938 197.382196 
L 399.42875 199.656062 
L 400.300625 202.22654 
L 400.736563 202.707598 
L 401.1725 202.05128 
L 402.044375 199.733658 
L 402.480313 199.223813 
L 402.91625 198.891719 
L 403.788125 197.87617 
L 404.224063 197.911361 
L 405.531875 199.808669 
L 405.967813 199.368402 
L 406.839688 197.564509 
L 407.275625 197.418778 
L 407.711563 198.244583 
L 408.1475 199.553113 
L 408.583438 200.445588 
L 409.019375 200.509187 
L 409.455313 200.193621 
L 409.455313 200.193621 
" style="fill:none;stroke:#d62728;stroke-linecap:square;stroke-width:1.5;"/>
   </g>
   <g id="line2d_39">
    <path clip-path="url(#p2f189e71c6)" d="M 51.986562 191.073271 
L 52.4225 197.42267 
L 52.858438 203.134527 
L 53.294375 205.131149 
L 53.730312 202.48816 
L 54.602188 191.875603 
L 55.038125 189.557799 
L 55.474063 190.550024 
L 55.91 194.361865 
L 56.781875 207.856291 
L 57.217813 214.291964 
L 57.65375 217.599445 
L 58.089687 217.652675 
L 58.525625 216.465368 
L 58.961563 215.92455 
L 59.3975 215.973055 
L 59.833438 215.326974 
L 60.269375 213.419008 
L 61.14125 209.009549 
L 62.013125 206.473923 
L 62.449062 205.821506 
L 63.320938 205.780058 
L 63.756875 204.219731 
L 64.192813 201.339772 
L 64.62875 199.842403 
L 65.064687 202.506957 
L 65.936563 215.157726 
L 66.3725 218.031286 
L 66.808437 216.84795 
L 68.11625 206.468559 
L 68.552188 205.369084 
L 68.988125 205.895933 
L 69.424063 206.93694 
L 69.86 207.067225 
L 70.731875 204.518219 
L 71.167812 204.340321 
L 71.60375 205.628563 
L 72.911563 211.001609 
L 73.783438 213.997929 
L 74.219375 214.572154 
L 74.655313 213.98083 
L 75.527187 211.870645 
L 75.963125 211.772143 
L 76.399063 211.993151 
L 76.835 211.323295 
L 77.270938 208.71085 
L 78.142813 200.148635 
L 78.57875 197.484901 
L 79.014688 196.785886 
L 79.450625 197.379102 
L 80.758438 200.6978 
L 81.194375 203.364309 
L 82.502188 216.494427 
L 82.938125 217.553797 
L 83.374063 216.556642 
L 83.81 214.115462 
L 84.245937 209.963303 
L 85.117813 197.604956 
L 85.55375 193.691213 
L 85.989688 193.590009 
L 86.425625 195.775203 
L 86.861563 197.096292 
L 87.2975 195.38718 
L 88.169375 187.13431 
L 88.605312 186.47899 
L 89.04125 189.63028 
L 89.477188 193.766262 
L 89.913125 195.174378 
L 90.349063 192.395439 
L 91.220938 182.404003 
L 91.656875 180.783256 
L 92.092813 182.396263 
L 92.964688 187.869902 
L 93.400625 189.845086 
L 93.836563 192.487718 
L 94.708438 198.695422 
L 95.144375 199.801812 
L 95.580313 200.144611 
L 96.01625 201.429134 
L 96.888125 206.278947 
L 97.324063 207.04596 
L 97.76 206.657763 
L 98.195938 206.863475 
L 98.631875 209.224313 
L 99.067813 214.135353 
L 99.939688 226.511833 
L 100.375625 229.322008 
L 100.811563 227.936159 
L 101.683438 219.729946 
L 102.119375 218.905377 
L 102.99125 224.763774 
L 103.427188 224.488816 
L 103.863125 218.131006 
L 105.170938 181.269758 
L 105.606875 175.788624 
L 106.042813 176.285092 
L 106.914688 184.09212 
L 107.350625 186.303089 
L 107.786563 186.844942 
L 108.2225 186.691448 
L 108.658438 186.723643 
L 109.094375 187.433625 
L 109.96625 190.751109 
L 110.402188 192.333338 
L 111.274063 194.436433 
L 111.71 195.240934 
L 112.145938 195.164657 
L 112.581875 193.719288 
L 113.017813 191.577004 
L 113.45375 190.152972 
L 113.889688 190.576845 
L 114.325625 193.271181 
L 115.633438 207.538617 
L 116.069375 208.834823 
L 116.505313 206.375429 
L 117.813125 189.225976 
L 118.249063 187.33179 
L 118.685 189.244817 
L 119.992813 202.385611 
L 120.42875 202.154058 
L 120.864688 198.552144 
L 121.736563 187.445524 
L 122.1725 184.725134 
L 122.608438 186.70243 
L 123.91625 204.690838 
L 124.352188 205.678695 
L 124.788125 204.958793 
L 125.224063 204.995426 
L 125.66 206.852244 
L 126.531875 212.4046 
L 126.967813 212.207149 
L 127.40375 207.724977 
L 127.839688 198.809998 
L 128.711563 177.61551 
L 129.1475 173.75099 
L 129.583438 178.019979 
L 130.89125 211.515026 
L 131.327188 215.877601 
L 131.763125 215.365854 
L 132.199063 212.945846 
L 132.635 211.430196 
L 133.070938 211.565641 
L 133.942813 213.632305 
L 134.814688 217.686 
L 135.250625 218.414861 
L 135.686563 215.552157 
L 136.994375 194.748567 
L 137.430313 192.06237 
L 137.86625 193.276203 
L 139.174063 203.877686 
L 140.045938 206.64659 
L 140.481875 209.198288 
L 140.917813 212.738995 
L 141.35375 214.68607 
L 141.789688 212.259739 
L 142.661563 198.247932 
L 143.0975 194.093218 
L 143.533438 194.054515 
L 144.405313 197.993823 
L 144.84125 199.099757 
L 145.277188 199.894585 
L 145.713125 200.443651 
L 146.149063 200.292003 
L 146.585 199.343285 
L 147.020938 197.901097 
L 147.892813 193.576355 
L 148.32875 191.580048 
L 148.764688 191.449641 
L 149.200625 193.519438 
L 150.0725 198.934306 
L 150.944375 202.161443 
L 151.81625 204.629463 
L 152.252188 205.240103 
L 152.688125 205.572706 
L 153.124063 205.523769 
L 153.56 204.364724 
L 153.995938 201.081315 
L 154.867813 188.174799 
L 155.30375 182.207631 
L 155.739688 179.753555 
L 156.175625 181.342109 
L 157.0475 189.286092 
L 157.483438 191.448865 
L 157.919375 191.70029 
L 158.355313 190.656728 
L 159.663125 185.234128 
L 160.099063 186.822019 
L 160.535 192.50289 
L 161.406875 210.234907 
L 161.842813 215.913171 
L 162.27875 216.641677 
L 163.150625 209.228354 
L 163.586563 207.949819 
L 164.0225 210.59187 
L 164.458438 214.870742 
L 164.894375 217.492086 
L 165.330313 217.017893 
L 167.074063 205.663074 
L 167.51 202.072888 
L 167.945938 196.318343 
L 168.817813 181.007921 
L 169.25375 176.833541 
L 169.689688 177.894691 
L 170.125625 183.237145 
L 170.9975 196.65415 
L 171.433438 201.588758 
L 171.869375 204.660606 
L 172.305313 205.734233 
L 172.74125 205.113086 
L 174.049063 200.891856 
L 174.485 197.571622 
L 174.920938 191.224467 
L 175.792813 176.333638 
L 176.22875 173.522885 
L 176.664688 174.613627 
L 177.100625 177.117 
L 177.536563 177.77936 
L 177.9725 174.529939 
L 179.280313 154.827627 
L 179.71625 154.180059 
L 180.152188 158.190852 
L 181.895938 185.79253 
L 182.331875 186.448807 
L 182.767813 184.485953 
L 183.20375 181.730298 
L 183.639688 179.740914 
L 184.075625 179.215374 
L 184.511563 179.941759 
L 185.383438 182.747412 
L 186.255313 186.95383 
L 186.69125 189.043894 
L 187.127188 190.078172 
L 187.563125 189.971385 
L 187.999063 189.115368 
L 188.870938 186.642743 
L 189.306875 187.085618 
L 189.742813 190.341452 
L 191.486563 211.493219 
L 191.9225 215.209282 
L 192.358438 216.722392 
L 192.794375 214.486728 
L 193.230313 208.423612 
L 194.102188 189.677953 
L 194.538125 180.020962 
L 194.974063 173.227692 
L 195.41 171.575649 
L 195.845938 175.212896 
L 196.717813 188.414811 
L 197.15375 192.900111 
L 197.589688 195.071163 
L 198.025625 195.666427 
L 198.461563 194.884574 
L 198.8975 191.921744 
L 199.333438 186.269496 
L 200.205313 173.163176 
L 200.64125 170.519783 
L 201.077188 171.172375 
L 201.513125 172.891126 
L 201.949063 172.985159 
L 202.385 170.135194 
L 203.692813 155.051668 
L 204.12875 152.231564 
L 204.564688 150.567283 
L 205.000625 150.187433 
L 205.436563 151.975688 
L 206.744375 165.630966 
L 207.180313 166.846541 
L 207.61625 164.906625 
L 209.36 148.791467 
L 209.795938 149.704252 
L 210.231875 154.403185 
L 211.10375 167.567276 
L 211.539688 168.382345 
L 211.975625 163.221814 
L 212.8475 149.312723 
L 213.283438 146.201646 
L 214.155313 143.332477 
L 214.59125 142.5676 
L 215.027188 143.21881 
L 215.899063 147.492297 
L 216.335 148.603101 
L 216.770938 147.551912 
L 217.206875 144.507558 
L 218.07875 137.088805 
L 218.950625 131.443133 
L 219.386563 129.561359 
L 219.8225 128.574931 
L 220.694375 127.835571 
L 221.130313 127.048507 
L 221.56625 125.410674 
L 222.002188 122.310789 
L 222.438125 117.065232 
L 223.745938 94.938701 
L 224.181875 92.788701 
L 225.05375 95.890389 
L 225.489688 94.934817 
L 225.925625 90.677244 
L 226.361563 85.137128 
L 226.7975 81.092033 
L 227.669375 77.724921 
L 228.105313 72.174406 
L 228.54125 60.70717 
L 229.413125 34.414125 
L 229.849063 36.32367 
L 230.285 57.943567 
L 231.156875 135.592591 
L 231.592813 161.421353 
L 232.02875 167.830633 
L 232.464688 161.792268 
L 232.900625 154.177609 
L 233.336563 150.913212 
L 233.7725 151.485805 
L 234.208438 152.783813 
L 234.644375 152.510088 
L 235.080313 150.206461 
L 235.952188 144.501207 
L 237.26 140.061489 
L 238.131875 136.397881 
L 238.567813 135.849942 
L 239.00375 137.456741 
L 239.439688 141.570965 
L 240.311563 151.403792 
L 240.7475 153.252465 
L 241.183438 152.825028 
L 241.619375 152.151452 
L 242.055313 153.386922 
L 242.49125 157.162887 
L 243.363125 166.879699 
L 243.799063 169.477209 
L 244.235 169.937626 
L 245.106875 168.351932 
L 245.542813 167.105299 
L 245.97875 164.20824 
L 246.414688 158.727767 
L 247.7225 137.104626 
L 248.158438 133.623427 
L 248.594375 133.671978 
L 249.030313 137.964615 
L 249.46625 146.970486 
L 250.338125 172.460294 
L 250.774063 181.260361 
L 251.21 183.952654 
L 251.645938 182.006482 
L 253.825625 163.706074 
L 254.261563 162.796301 
L 254.6975 165.064449 
L 255.569375 173.224384 
L 256.44125 183.923271 
L 256.877188 189.145818 
L 257.313125 190.232967 
L 257.749063 185.921628 
L 258.185 179.214784 
L 258.620938 174.953484 
L 259.056875 175.646523 
L 259.92875 184.318552 
L 260.364688 186.5273 
L 260.800625 186.54823 
L 261.236563 186.247223 
L 261.6725 187.371553 
L 262.544375 191.779172 
L 262.980313 191.940412 
L 263.41625 190.546678 
L 264.288125 186.52889 
L 265.16 180.772531 
L 265.595938 177.911659 
L 266.031875 176.942255 
L 266.467813 178.92926 
L 266.90375 183.605093 
L 267.775625 195.521844 
L 268.211563 199.517802 
L 268.6475 200.528605 
L 269.083438 198.514952 
L 269.955313 191.77777 
L 270.39125 191.108833 
L 270.827188 193.102424 
L 271.699063 201.26776 
L 272.135 205.579408 
L 272.570938 208.76899 
L 273.006875 209.619455 
L 273.442813 207.066557 
L 273.87875 200.861494 
L 274.750625 184.219899 
L 275.186563 178.878816 
L 275.6225 176.864056 
L 276.058438 177.200245 
L 276.494375 178.657881 
L 276.930313 180.571771 
L 277.36625 183.145501 
L 277.802188 187.128013 
L 278.674063 197.43032 
L 279.11 199.581881 
L 279.545938 198.537394 
L 279.981875 196.47613 
L 280.417813 195.978341 
L 281.289688 199.018798 
L 281.725625 198.484258 
L 282.5975 192.962659 
L 283.033438 192.19983 
L 283.469375 194.020492 
L 284.34125 199.32037 
L 284.777188 199.903527 
L 285.213125 199.216436 
L 285.649063 197.964232 
L 286.085 196.140098 
L 286.520938 193.230236 
L 287.82875 180.685286 
L 288.264688 178.254335 
L 288.700625 176.920238 
L 289.136563 176.151726 
L 289.5725 176.23983 
L 290.008438 178.163048 
L 290.444375 182.337385 
L 291.31625 193.180936 
L 292.188125 200.244354 
L 292.624063 204.114106 
L 293.931875 221.980793 
L 294.367813 219.284721 
L 295.239688 204.120414 
L 295.675625 201.649023 
L 296.111563 203.240849 
L 296.5475 205.353632 
L 296.983438 205.938496 
L 297.419375 205.718225 
L 297.855313 206.168573 
L 298.727188 209.097051 
L 299.163125 209.511699 
L 299.599063 207.898924 
L 300.906875 196.231429 
L 301.342813 195.604319 
L 301.77875 197.702658 
L 302.214688 201.104931 
L 302.650625 203.335328 
L 303.086563 201.636095 
L 303.5225 194.705842 
L 304.394375 174.32391 
L 304.830313 168.396908 
L 305.26625 167.355068 
L 305.702188 169.831951 
L 306.574063 178.917145 
L 307.445938 190.168771 
L 308.75375 208.138817 
L 309.189688 211.024062 
L 310.061563 214.527294 
L 310.4975 216.712673 
L 310.933438 217.620665 
L 311.369375 215.741205 
L 312.677188 202.075224 
L 313.113125 199.427128 
L 313.549063 198.274934 
L 313.985 198.53103 
L 314.420938 200.237053 
L 315.292813 205.70944 
L 315.72875 206.938381 
L 316.164688 206.544502 
L 317.036563 204.085602 
L 317.4725 201.481918 
L 317.908438 196.546829 
L 318.780313 184.330373 
L 319.21625 181.934573 
L 319.652188 183.279194 
L 320.524063 190.070523 
L 320.96 191.563847 
L 321.395938 191.873568 
L 321.831875 192.715168 
L 322.70375 195.911595 
L 323.139688 195.575188 
L 323.575625 194.178488 
L 324.011563 193.291429 
L 324.4475 193.625725 
L 325.319375 196.391457 
L 325.755313 197.666888 
L 326.19125 197.958434 
L 326.627188 196.73016 
L 327.499063 191.807451 
L 327.935 191.063938 
L 328.370938 192.987786 
L 329.67875 205.234208 
L 330.114688 206.039697 
L 330.550625 204.459699 
L 331.858438 194.816268 
L 332.294375 195.417172 
L 332.730313 200.065328 
L 333.602188 214.059856 
L 334.038125 217.758525 
L 334.474063 216.372863 
L 334.91 210.054833 
L 335.345938 201.808953 
L 335.781875 195.748677 
L 336.217813 193.930529 
L 336.65375 195.263367 
L 337.089688 197.298955 
L 337.525625 198.237601 
L 337.961563 197.288928 
L 338.3975 194.223371 
L 339.269375 184.345764 
L 339.705313 181.26115 
L 340.14125 181.770791 
L 341.449063 192.188617 
L 342.756875 196.149444 
L 343.192813 197.029492 
L 343.62875 197.1364 
L 344.064688 197.416037 
L 344.500625 198.942205 
L 345.3725 203.299579 
L 345.808438 203.543198 
L 346.244375 202.107237 
L 346.680313 199.510582 
L 347.988125 190.484339 
L 348.424063 190.133943 
L 348.86 192.321769 
L 349.731875 200.144338 
L 350.167813 201.783833 
L 350.60375 200.195694 
L 351.475625 193.570167 
L 351.911563 193.166426 
L 352.3475 194.356769 
L 352.783438 194.262107 
L 353.219375 191.085446 
L 354.09125 181.466059 
L 354.527188 180.067382 
L 354.963125 182.03212 
L 355.835 189.966098 
L 356.270938 191.532253 
L 356.706875 189.723768 
L 357.57875 181.931251 
L 358.014688 181.987395 
L 358.450625 187.034571 
L 359.3225 204.18028 
L 359.758438 210.069961 
L 360.194375 212.150093 
L 360.630313 211.461532 
L 361.502188 207.640753 
L 361.938125 204.196205 
L 362.81 192.354038 
L 363.681875 180.317149 
L 364.117813 175.705813 
L 364.55375 173.806615 
L 364.989688 176.105588 
L 366.2975 193.411767 
L 366.733438 195.170402 
L 367.169375 193.633557 
L 367.605313 189.408325 
L 369.349063 166.235758 
L 369.785 167.119817 
L 370.220938 172.42217 
L 371.52875 192.676838 
L 371.964688 196.435263 
L 372.400625 197.793193 
L 372.836563 197.694054 
L 373.2725 198.465749 
L 373.708438 201.707213 
L 374.144375 206.357216 
L 374.580313 209.381607 
L 375.01625 208.47027 
L 375.888125 200.108019 
L 376.324063 200.081541 
L 376.76 205.11672 
L 377.195938 211.69268 
L 377.631875 214.576509 
L 378.067813 211.644515 
L 378.939688 200.422977 
L 379.375625 198.618591 
L 379.811563 200.024286 
L 380.2475 204.149095 
L 381.555313 223.372047 
L 381.99125 224.747341 
L 382.427188 222.177499 
L 383.299063 214.462824 
L 384.170938 211.285718 
L 384.606875 208.110566 
L 385.042813 202.003178 
L 385.914688 187.517488 
L 386.350625 185.230636 
L 386.786563 188.751112 
L 387.658438 203.803609 
L 388.094375 205.770051 
L 388.530313 200.77381 
L 389.402188 184.467897 
L 389.838125 181.167354 
L 390.274063 181.122527 
L 390.71 181.682752 
L 391.145938 181.25148 
L 391.581875 180.201253 
L 392.017813 179.955985 
L 392.45375 181.495087 
L 393.761563 190.882491 
L 394.1975 192.745209 
L 395.069375 194.630648 
L 395.505313 196.174489 
L 396.377188 200.305164 
L 396.813125 200.379743 
L 397.249063 198.25031 
L 398.120938 192.582059 
L 398.556875 192.083422 
L 398.992813 193.508957 
L 399.864688 198.248343 
L 401.608438 205.359376 
L 402.044375 206.680749 
L 402.480313 206.193825 
L 402.91625 203.235768 
L 403.788125 194.337338 
L 404.224063 193.205719 
L 404.66 195.53412 
L 405.095938 198.571239 
L 405.531875 198.604731 
L 405.967813 194.548584 
L 406.40375 188.988456 
L 406.839688 185.530088 
L 407.275625 185.404366 
L 407.711563 186.828775 
L 408.1475 187.317633 
L 408.583438 185.978407 
L 409.455313 180.514796 
L 409.455313 180.514796 
" style="fill:none;stroke:#9467bd;stroke-linecap:square;stroke-width:1.5;"/>
   </g>
   <g id="patch_3">
    <path d="M 52.160938 288.430125 
L 52.160938 22.318125 
" style="fill:none;stroke:#000000;stroke-linecap:square;stroke-linejoin:miter;stroke-width:0.8;"/>
   </g>
   <g id="patch_4">
    <path d="M 409.280938 288.430125 
L 409.280938 22.318125 
" style="fill:none;stroke:#000000;stroke-linecap:square;stroke-linejoin:miter;stroke-width:0.8;"/>
   </g>
   <g id="patch_5">
    <path d="M 52.160937 288.430125 
L 409.280938 288.430125 
" style="fill:none;stroke:#000000;stroke-linecap:square;stroke-linejoin:miter;stroke-width:0.8;"/>
   </g>
   <g id="patch_6">
    <path d="M 52.160937 22.318125 
L 409.280938 22.318125 
" style="fill:none;stroke:#000000;stroke-linecap:square;stroke-linejoin:miter;stroke-width:0.8;"/>
   </g>
   <g id="text_20">
    <!-- Spektren 325K -->
    <defs>
     <path d="M 53.515625 70.515625 
L 53.515625 60.890625 
Q 47.90625 63.578125 42.921875 64.890625 
Q 37.9375 66.21875 33.296875 66.21875 
Q 25.25 66.21875 20.875 63.09375 
Q 16.5 59.96875 16.5 54.203125 
Q 16.5 49.359375 19.40625 46.890625 
Q 22.3125 44.4375 30.421875 42.921875 
L 36.375 41.703125 
Q 47.40625 39.59375 52.65625 34.296875 
Q 57.90625 29 57.90625 20.125 
Q 57.90625 9.515625 50.796875 4.046875 
Q 43.703125 -1.421875 29.984375 -1.421875 
Q 24.8125 -1.421875 18.96875 -0.25 
Q 13.140625 0.921875 6.890625 3.21875 
L 6.890625 13.375 
Q 12.890625 10.015625 18.65625 8.296875 
Q 24.421875 6.59375 29.984375 6.59375 
Q 38.421875 6.59375 43.015625 9.90625 
Q 47.609375 13.234375 47.609375 19.390625 
Q 47.609375 24.75 44.3125 27.78125 
Q 41.015625 30.8125 33.5 32.328125 
L 27.484375 33.5 
Q 16.453125 35.6875 11.515625 40.375 
Q 6.59375 45.0625 6.59375 53.421875 
Q 6.59375 63.09375 13.40625 68.65625 
Q 20.21875 74.21875 32.171875 74.21875 
Q 37.3125 74.21875 42.625 73.28125 
Q 47.953125 72.359375 53.515625 70.515625 
z
" id="DejaVuSans-53"/>
     <path d="M 9.078125 75.984375 
L 18.109375 75.984375 
L 18.109375 31.109375 
L 44.921875 54.6875 
L 56.390625 54.6875 
L 27.390625 29.109375 
L 57.625 0 
L 45.90625 0 
L 18.109375 26.703125 
L 18.109375 0 
L 9.078125 0 
z
" id="DejaVuSans-6b"/>
     <path d="M 40.578125 39.3125 
Q 47.65625 37.796875 51.625 33 
Q 55.609375 28.21875 55.609375 21.1875 
Q 55.609375 10.40625 48.1875 4.484375 
Q 40.765625 -1.421875 27.09375 -1.421875 
Q 22.515625 -1.421875 17.65625 -0.515625 
Q 12.796875 0.390625 7.625 2.203125 
L 7.625 11.71875 
Q 11.71875 9.328125 16.59375 8.109375 
Q 21.484375 6.890625 26.8125 6.890625 
Q 36.078125 6.890625 40.9375 10.546875 
Q 45.796875 14.203125 45.796875 21.1875 
Q 45.796875 27.640625 41.28125 31.265625 
Q 36.765625 34.90625 28.71875 34.90625 
L 20.21875 34.90625 
L 20.21875 43.015625 
L 29.109375 43.015625 
Q 36.375 43.015625 40.234375 45.921875 
Q 44.09375 48.828125 44.09375 54.296875 
Q 44.09375 59.90625 40.109375 62.90625 
Q 36.140625 65.921875 28.71875 65.921875 
Q 24.65625 65.921875 20.015625 65.03125 
Q 15.375 64.15625 9.8125 62.3125 
L 9.8125 71.09375 
Q 15.4375 72.65625 20.34375 73.4375 
Q 25.25 74.21875 29.59375 74.21875 
Q 40.828125 74.21875 47.359375 69.109375 
Q 53.90625 64.015625 53.90625 55.328125 
Q 53.90625 49.265625 50.4375 45.09375 
Q 46.96875 40.921875 40.578125 39.3125 
z
" id="DejaVuSans-33"/>
     <path d="M 9.8125 72.90625 
L 19.671875 72.90625 
L 19.671875 42.09375 
L 52.390625 72.90625 
L 65.09375 72.90625 
L 28.90625 38.921875 
L 67.671875 0 
L 54.6875 0 
L 19.671875 35.109375 
L 19.671875 0 
L 9.8125 0 
z
" id="DejaVuSans-4b"/>
    </defs>
    <g transform="translate(186.33125 16.318125)scale(0.12 -0.12)">
     <use xlink:href="#DejaVuSans-53"/>
     <use x="63.476562" xlink:href="#DejaVuSans-70"/>
     <use x="126.953125" xlink:href="#DejaVuSans-65"/>
     <use x="188.476562" xlink:href="#DejaVuSans-6b"/>
     <use x="246.386719" xlink:href="#DejaVuSans-74"/>
     <use x="285.595703" xlink:href="#DejaVuSans-72"/>
     <use x="326.677734" xlink:href="#DejaVuSans-65"/>
     <use x="388.201172" xlink:href="#DejaVuSans-6e"/>
     <use x="451.580078" xlink:href="#DejaVuSans-20"/>
     <use x="483.367188" xlink:href="#DejaVuSans-33"/>
     <use x="546.990234" xlink:href="#DejaVuSans-32"/>
     <use x="610.613281" xlink:href="#DejaVuSans-35"/>
     <use x="674.236328" xlink:href="#DejaVuSans-4b"/>
    </g>
   </g>
   <g id="legend_1">
    <g id="patch_7">
     <path d="M 322.565313 103.70875 
L 402.280938 103.70875 
Q 404.280938 103.70875 404.280938 101.70875 
L 404.280938 29.318125 
Q 404.280938 27.318125 402.280938 27.318125 
L 322.565313 27.318125 
Q 320.565313 27.318125 320.565313 29.318125 
L 320.565313 101.70875 
Q 320.565313 103.70875 322.565313 103.70875 
z
" style="fill:#ffffff;opacity:0.8;stroke:#cccccc;stroke-linejoin:miter;"/>
    </g>
    <g id="line2d_40">
     <path d="M 324.565313 35.416562 
L 344.565313 35.416562 
" style="fill:none;stroke:#1f77b4;stroke-linecap:square;stroke-width:1.5;"/>
    </g>
    <g id="line2d_41"/>
    <g id="text_21">
     <!-- 1.5e-05 -->
     <defs>
      <path d="M 4.890625 31.390625 
L 31.203125 31.390625 
L 31.203125 23.390625 
L 4.890625 23.390625 
z
" id="DejaVuSans-2d"/>
     </defs>
     <g transform="translate(352.565313 38.916562)scale(0.1 -0.1)">
      <use xlink:href="#DejaVuSans-31"/>
      <use x="63.623047" xlink:href="#DejaVuSans-2e"/>
      <use x="95.410156" xlink:href="#DejaVuSans-35"/>
      <use x="159.033203" xlink:href="#DejaVuSans-65"/>
      <use x="220.556641" xlink:href="#DejaVuSans-2d"/>
      <use x="256.640625" xlink:href="#DejaVuSans-30"/>
      <use x="320.263672" xlink:href="#DejaVuSans-35"/>
     </g>
    </g>
    <g id="line2d_42">
     <path d="M 324.565313 50.094688 
L 344.565313 50.094688 
" style="fill:none;stroke:#ff7f0e;stroke-linecap:square;stroke-width:1.5;"/>
    </g>
    <g id="line2d_43"/>
    <g id="text_22">
     <!-- 0.0009 -->
     <defs>
      <path d="M 10.984375 1.515625 
L 10.984375 10.5 
Q 14.703125 8.734375 18.5 7.8125 
Q 22.3125 6.890625 25.984375 6.890625 
Q 35.75 6.890625 40.890625 13.453125 
Q 46.046875 20.015625 46.78125 33.40625 
Q 43.953125 29.203125 39.59375 26.953125 
Q 35.25 24.703125 29.984375 24.703125 
Q 19.046875 24.703125 12.671875 31.3125 
Q 6.296875 37.9375 6.296875 49.421875 
Q 6.296875 60.640625 12.9375 67.421875 
Q 19.578125 74.21875 30.609375 74.21875 
Q 43.265625 74.21875 49.921875 64.515625 
Q 56.59375 54.828125 56.59375 36.375 
Q 56.59375 19.140625 48.40625 8.859375 
Q 40.234375 -1.421875 26.421875 -1.421875 
Q 22.703125 -1.421875 18.890625 -0.6875 
Q 15.09375 0.046875 10.984375 1.515625 
z
M 30.609375 32.421875 
Q 37.25 32.421875 41.125 36.953125 
Q 45.015625 41.5 45.015625 49.421875 
Q 45.015625 57.28125 41.125 61.84375 
Q 37.25 66.40625 30.609375 66.40625 
Q 23.96875 66.40625 20.09375 61.84375 
Q 16.21875 57.28125 16.21875 49.421875 
Q 16.21875 41.5 20.09375 36.953125 
Q 23.96875 32.421875 30.609375 32.421875 
z
" id="DejaVuSans-39"/>
     </defs>
     <g transform="translate(352.565313 53.594688)scale(0.1 -0.1)">
      <use xlink:href="#DejaVuSans-30"/>
      <use x="63.623047" xlink:href="#DejaVuSans-2e"/>
      <use x="95.410156" xlink:href="#DejaVuSans-30"/>
      <use x="159.033203" xlink:href="#DejaVuSans-30"/>
      <use x="222.65625" xlink:href="#DejaVuSans-30"/>
      <use x="286.279297" xlink:href="#DejaVuSans-39"/>
     </g>
    </g>
    <g id="line2d_44">
     <path d="M 324.565313 64.772812 
L 344.565313 64.772812 
" style="fill:none;stroke:#2ca02c;stroke-linecap:square;stroke-width:1.5;"/>
    </g>
    <g id="line2d_45"/>
    <g id="text_23">
     <!-- 0.0015 -->
     <g transform="translate(352.565313 68.272812)scale(0.1 -0.1)">
      <use xlink:href="#DejaVuSans-30"/>
      <use x="63.623047" xlink:href="#DejaVuSans-2e"/>
      <use x="95.410156" xlink:href="#DejaVuSans-30"/>
      <use x="159.033203" xlink:href="#DejaVuSans-30"/>
      <use x="222.65625" xlink:href="#DejaVuSans-31"/>
      <use x="286.279297" xlink:href="#DejaVuSans-35"/>
     </g>
    </g>
    <g id="line2d_46">
     <path d="M 324.565313 79.450938 
L 344.565313 79.450938 
" style="fill:none;stroke:#d62728;stroke-linecap:square;stroke-width:1.5;"/>
    </g>
    <g id="line2d_47"/>
    <g id="text_24">
     <!-- 0.002041 -->
     <g transform="translate(352.565313 82.950938)scale(0.1 -0.1)">
      <use xlink:href="#DejaVuSans-30"/>
      <use x="63.623047" xlink:href="#DejaVuSans-2e"/>
      <use x="95.410156" xlink:href="#DejaVuSans-30"/>
      <use x="159.033203" xlink:href="#DejaVuSans-30"/>
      <use x="222.65625" xlink:href="#DejaVuSans-32"/>
      <use x="286.279297" xlink:href="#DejaVuSans-30"/>
      <use x="349.902344" xlink:href="#DejaVuSans-34"/>
      <use x="413.525391" xlink:href="#DejaVuSans-31"/>
     </g>
    </g>
    <g id="line2d_48">
     <path d="M 324.565313 94.129063 
L 344.565313 94.129063 
" style="fill:none;stroke:#9467bd;stroke-linecap:square;stroke-width:1.5;"/>
    </g>
    <g id="line2d_49"/>
    <g id="text_25">
     <!-- 0.002778 -->
     <g transform="translate(352.565313 97.629063)scale(0.1 -0.1)">
      <use xlink:href="#DejaVuSans-30"/>
      <use x="63.623047" xlink:href="#DejaVuSans-2e"/>
      <use x="95.410156" xlink:href="#DejaVuSans-30"/>
      <use x="159.033203" xlink:href="#DejaVuSans-30"/>
      <use x="222.65625" xlink:href="#DejaVuSans-32"/>
      <use x="286.279297" xlink:href="#DejaVuSans-37"/>
      <use x="349.902344" xlink:href="#DejaVuSans-37"/>
      <use x="413.525391" xlink:href="#DejaVuSans-38"/>
     </g>
    </g>
   </g>
  </g>
 </g>
 <defs>
  <clipPath id="p2f189e71c6">
   <rect height="266.112" width="357.12" x="52.160938" y="22.318125"/>
  </clipPath>
 </defs>
</svg>
