<?xml version="1.0" encoding="utf-8" standalone="no"?>
<!DOCTYPE svg PUBLIC "-//W3C//DTD SVG 1.1//EN"
  "http://www.w3.org/Graphics/SVG/1.1/DTD/svg11.dtd">
<!-- Created with matplotlib (http://matplotlib.org/) -->
<svg height="325pt" version="1.1" viewBox="0 0 441 325" width="441pt" xmlns="http://www.w3.org/2000/svg" xmlns:xlink="http://www.w3.org/1999/xlink">
 <defs>
  <style type="text/css">
*{stroke-linecap:butt;stroke-linejoin:round;}
  </style>
 </defs>
 <g id="figure_1">
  <g id="patch_1">
   <path d="M 0 325.986375 
L 441.930937 325.986375 
L 441.930937 0 
L 0 0 
z
" style="fill:#ffffff;"/>
  </g>
  <g id="axes_1">
   <g id="patch_2">
    <path d="M 58.523438 288.430125 
L 415.643438 288.430125 
L 415.643438 22.318125 
L 58.523438 22.318125 
z
" style="fill:#ffffff;"/>
   </g>
   <g id="matplotlib.axis_1">
    <g id="xtick_1">
     <g id="line2d_1">
      <path clip-path="url(#p6b887fe5e1)" d="M 58.523437 288.430125 
L 58.523437 22.318125 
" style="fill:none;stroke:#b0b0b0;stroke-linecap:square;stroke-width:0.8;"/>
     </g>
     <g id="line2d_2">
      <defs>
       <path d="M 0 0 
L 0 3.5 
" id="m7f57a2309a" style="stroke:#000000;stroke-width:0.8;"/>
      </defs>
      <g>
       <use style="stroke:#000000;stroke-width:0.8;" x="58.523437" xlink:href="#m7f57a2309a" y="288.430125"/>
      </g>
     </g>
     <g id="text_1">
      <!-- −100000 -->
      <defs>
       <path d="M 10.59375 35.5 
L 73.1875 35.5 
L 73.1875 27.203125 
L 10.59375 27.203125 
z
" id="DejaVuSans-2212"/>
       <path d="M 12.40625 8.296875 
L 28.515625 8.296875 
L 28.515625 63.921875 
L 10.984375 60.40625 
L 10.984375 69.390625 
L 28.421875 72.90625 
L 38.28125 72.90625 
L 38.28125 8.296875 
L 54.390625 8.296875 
L 54.390625 0 
L 12.40625 0 
z
" id="DejaVuSans-31"/>
       <path d="M 31.78125 66.40625 
Q 24.171875 66.40625 20.328125 58.90625 
Q 16.5 51.421875 16.5 36.375 
Q 16.5 21.390625 20.328125 13.890625 
Q 24.171875 6.390625 31.78125 6.390625 
Q 39.453125 6.390625 43.28125 13.890625 
Q 47.125 21.390625 47.125 36.375 
Q 47.125 51.421875 43.28125 58.90625 
Q 39.453125 66.40625 31.78125 66.40625 
z
M 31.78125 74.21875 
Q 44.046875 74.21875 50.515625 64.515625 
Q 56.984375 54.828125 56.984375 36.375 
Q 56.984375 17.96875 50.515625 8.265625 
Q 44.046875 -1.421875 31.78125 -1.421875 
Q 19.53125 -1.421875 13.0625 8.265625 
Q 6.59375 17.96875 6.59375 36.375 
Q 6.59375 54.828125 13.0625 64.515625 
Q 19.53125 74.21875 31.78125 74.21875 
z
" id="DejaVuSans-30"/>
      </defs>
      <g transform="translate(35.246094 303.028562)scale(0.1 -0.1)">
       <use xlink:href="#DejaVuSans-2212"/>
       <use x="83.789062" xlink:href="#DejaVuSans-31"/>
       <use x="147.412109" xlink:href="#DejaVuSans-30"/>
       <use x="211.035156" xlink:href="#DejaVuSans-30"/>
       <use x="274.658203" xlink:href="#DejaVuSans-30"/>
       <use x="338.28125" xlink:href="#DejaVuSans-30"/>
       <use x="401.904297" xlink:href="#DejaVuSans-30"/>
      </g>
     </g>
    </g>
    <g id="xtick_2">
     <g id="line2d_3">
      <path clip-path="url(#p6b887fe5e1)" d="M 103.163437 288.430125 
L 103.163437 22.318125 
" style="fill:none;stroke:#b0b0b0;stroke-linecap:square;stroke-width:0.8;"/>
     </g>
     <g id="line2d_4">
      <g>
       <use style="stroke:#000000;stroke-width:0.8;" x="103.163437" xlink:href="#m7f57a2309a" y="288.430125"/>
      </g>
     </g>
     <g id="text_2">
      <!-- −75000 -->
      <defs>
       <path d="M 8.203125 72.90625 
L 55.078125 72.90625 
L 55.078125 68.703125 
L 28.609375 0 
L 18.3125 0 
L 43.21875 64.59375 
L 8.203125 64.59375 
z
" id="DejaVuSans-37"/>
       <path d="M 10.796875 72.90625 
L 49.515625 72.90625 
L 49.515625 64.59375 
L 19.828125 64.59375 
L 19.828125 46.734375 
Q 21.96875 47.46875 24.109375 47.828125 
Q 26.265625 48.1875 28.421875 48.1875 
Q 40.625 48.1875 47.75 41.5 
Q 54.890625 34.8125 54.890625 23.390625 
Q 54.890625 11.625 47.5625 5.09375 
Q 40.234375 -1.421875 26.90625 -1.421875 
Q 22.3125 -1.421875 17.546875 -0.640625 
Q 12.796875 0.140625 7.71875 1.703125 
L 7.71875 11.625 
Q 12.109375 9.234375 16.796875 8.0625 
Q 21.484375 6.890625 26.703125 6.890625 
Q 35.15625 6.890625 40.078125 11.328125 
Q 45.015625 15.765625 45.015625 23.390625 
Q 45.015625 31 40.078125 35.4375 
Q 35.15625 39.890625 26.703125 39.890625 
Q 22.75 39.890625 18.8125 39.015625 
Q 14.890625 38.140625 10.796875 36.28125 
z
" id="DejaVuSans-35"/>
      </defs>
      <g transform="translate(83.067344 303.028562)scale(0.1 -0.1)">
       <use xlink:href="#DejaVuSans-2212"/>
       <use x="83.789062" xlink:href="#DejaVuSans-37"/>
       <use x="147.412109" xlink:href="#DejaVuSans-35"/>
       <use x="211.035156" xlink:href="#DejaVuSans-30"/>
       <use x="274.658203" xlink:href="#DejaVuSans-30"/>
       <use x="338.28125" xlink:href="#DejaVuSans-30"/>
      </g>
     </g>
    </g>
    <g id="xtick_3">
     <g id="line2d_5">
      <path clip-path="url(#p6b887fe5e1)" d="M 147.803438 288.430125 
L 147.803438 22.318125 
" style="fill:none;stroke:#b0b0b0;stroke-linecap:square;stroke-width:0.8;"/>
     </g>
     <g id="line2d_6">
      <g>
       <use style="stroke:#000000;stroke-width:0.8;" x="147.803438" xlink:href="#m7f57a2309a" y="288.430125"/>
      </g>
     </g>
     <g id="text_3">
      <!-- −50000 -->
      <g transform="translate(127.707344 303.028562)scale(0.1 -0.1)">
       <use xlink:href="#DejaVuSans-2212"/>
       <use x="83.789062" xlink:href="#DejaVuSans-35"/>
       <use x="147.412109" xlink:href="#DejaVuSans-30"/>
       <use x="211.035156" xlink:href="#DejaVuSans-30"/>
       <use x="274.658203" xlink:href="#DejaVuSans-30"/>
       <use x="338.28125" xlink:href="#DejaVuSans-30"/>
      </g>
     </g>
    </g>
    <g id="xtick_4">
     <g id="line2d_7">
      <path clip-path="url(#p6b887fe5e1)" d="M 192.443438 288.430125 
L 192.443438 22.318125 
" style="fill:none;stroke:#b0b0b0;stroke-linecap:square;stroke-width:0.8;"/>
     </g>
     <g id="line2d_8">
      <g>
       <use style="stroke:#000000;stroke-width:0.8;" x="192.443438" xlink:href="#m7f57a2309a" y="288.430125"/>
      </g>
     </g>
     <g id="text_4">
      <!-- −25000 -->
      <defs>
       <path d="M 19.1875 8.296875 
L 53.609375 8.296875 
L 53.609375 0 
L 7.328125 0 
L 7.328125 8.296875 
Q 12.9375 14.109375 22.625 23.890625 
Q 32.328125 33.6875 34.8125 36.53125 
Q 39.546875 41.84375 41.421875 45.53125 
Q 43.3125 49.21875 43.3125 52.78125 
Q 43.3125 58.59375 39.234375 62.25 
Q 35.15625 65.921875 28.609375 65.921875 
Q 23.96875 65.921875 18.8125 64.3125 
Q 13.671875 62.703125 7.8125 59.421875 
L 7.8125 69.390625 
Q 13.765625 71.78125 18.9375 73 
Q 24.125 74.21875 28.421875 74.21875 
Q 39.75 74.21875 46.484375 68.546875 
Q 53.21875 62.890625 53.21875 53.421875 
Q 53.21875 48.921875 51.53125 44.890625 
Q 49.859375 40.875 45.40625 35.40625 
Q 44.1875 33.984375 37.640625 27.21875 
Q 31.109375 20.453125 19.1875 8.296875 
z
" id="DejaVuSans-32"/>
      </defs>
      <g transform="translate(172.347344 303.028562)scale(0.1 -0.1)">
       <use xlink:href="#DejaVuSans-2212"/>
       <use x="83.789062" xlink:href="#DejaVuSans-32"/>
       <use x="147.412109" xlink:href="#DejaVuSans-35"/>
       <use x="211.035156" xlink:href="#DejaVuSans-30"/>
       <use x="274.658203" xlink:href="#DejaVuSans-30"/>
       <use x="338.28125" xlink:href="#DejaVuSans-30"/>
      </g>
     </g>
    </g>
    <g id="xtick_5">
     <g id="line2d_9">
      <path clip-path="url(#p6b887fe5e1)" d="M 237.083438 288.430125 
L 237.083438 22.318125 
" style="fill:none;stroke:#b0b0b0;stroke-linecap:square;stroke-width:0.8;"/>
     </g>
     <g id="line2d_10">
      <g>
       <use style="stroke:#000000;stroke-width:0.8;" x="237.083438" xlink:href="#m7f57a2309a" y="288.430125"/>
      </g>
     </g>
     <g id="text_5">
      <!-- 0 -->
      <g transform="translate(233.902188 303.028562)scale(0.1 -0.1)">
       <use xlink:href="#DejaVuSans-30"/>
      </g>
     </g>
    </g>
    <g id="xtick_6">
     <g id="line2d_11">
      <path clip-path="url(#p6b887fe5e1)" d="M 281.723438 288.430125 
L 281.723438 22.318125 
" style="fill:none;stroke:#b0b0b0;stroke-linecap:square;stroke-width:0.8;"/>
     </g>
     <g id="line2d_12">
      <g>
       <use style="stroke:#000000;stroke-width:0.8;" x="281.723438" xlink:href="#m7f57a2309a" y="288.430125"/>
      </g>
     </g>
     <g id="text_6">
      <!-- 25000 -->
      <g transform="translate(265.817188 303.028562)scale(0.1 -0.1)">
       <use xlink:href="#DejaVuSans-32"/>
       <use x="63.623047" xlink:href="#DejaVuSans-35"/>
       <use x="127.246094" xlink:href="#DejaVuSans-30"/>
       <use x="190.869141" xlink:href="#DejaVuSans-30"/>
       <use x="254.492188" xlink:href="#DejaVuSans-30"/>
      </g>
     </g>
    </g>
    <g id="xtick_7">
     <g id="line2d_13">
      <path clip-path="url(#p6b887fe5e1)" d="M 326.363438 288.430125 
L 326.363438 22.318125 
" style="fill:none;stroke:#b0b0b0;stroke-linecap:square;stroke-width:0.8;"/>
     </g>
     <g id="line2d_14">
      <g>
       <use style="stroke:#000000;stroke-width:0.8;" x="326.363438" xlink:href="#m7f57a2309a" y="288.430125"/>
      </g>
     </g>
     <g id="text_7">
      <!-- 50000 -->
      <g transform="translate(310.457188 303.028562)scale(0.1 -0.1)">
       <use xlink:href="#DejaVuSans-35"/>
       <use x="63.623047" xlink:href="#DejaVuSans-30"/>
       <use x="127.246094" xlink:href="#DejaVuSans-30"/>
       <use x="190.869141" xlink:href="#DejaVuSans-30"/>
       <use x="254.492188" xlink:href="#DejaVuSans-30"/>
      </g>
     </g>
    </g>
    <g id="xtick_8">
     <g id="line2d_15">
      <path clip-path="url(#p6b887fe5e1)" d="M 371.003438 288.430125 
L 371.003438 22.318125 
" style="fill:none;stroke:#b0b0b0;stroke-linecap:square;stroke-width:0.8;"/>
     </g>
     <g id="line2d_16">
      <g>
       <use style="stroke:#000000;stroke-width:0.8;" x="371.003438" xlink:href="#m7f57a2309a" y="288.430125"/>
      </g>
     </g>
     <g id="text_8">
      <!-- 75000 -->
      <g transform="translate(355.097188 303.028562)scale(0.1 -0.1)">
       <use xlink:href="#DejaVuSans-37"/>
       <use x="63.623047" xlink:href="#DejaVuSans-35"/>
       <use x="127.246094" xlink:href="#DejaVuSans-30"/>
       <use x="190.869141" xlink:href="#DejaVuSans-30"/>
       <use x="254.492188" xlink:href="#DejaVuSans-30"/>
      </g>
     </g>
    </g>
    <g id="xtick_9">
     <g id="line2d_17">
      <path clip-path="url(#p6b887fe5e1)" d="M 415.643438 288.430125 
L 415.643438 22.318125 
" style="fill:none;stroke:#b0b0b0;stroke-linecap:square;stroke-width:0.8;"/>
     </g>
     <g id="line2d_18">
      <g>
       <use style="stroke:#000000;stroke-width:0.8;" x="415.643438" xlink:href="#m7f57a2309a" y="288.430125"/>
      </g>
     </g>
     <g id="text_9">
      <!-- 100000 -->
      <g transform="translate(396.555938 303.028562)scale(0.1 -0.1)">
       <use xlink:href="#DejaVuSans-31"/>
       <use x="63.623047" xlink:href="#DejaVuSans-30"/>
       <use x="127.246094" xlink:href="#DejaVuSans-30"/>
       <use x="190.869141" xlink:href="#DejaVuSans-30"/>
       <use x="254.492188" xlink:href="#DejaVuSans-30"/>
       <use x="318.115234" xlink:href="#DejaVuSans-30"/>
      </g>
     </g>
    </g>
    <g id="text_10">
     <!-- Frequenz [Hz] -->
     <defs>
      <path d="M 9.8125 72.90625 
L 51.703125 72.90625 
L 51.703125 64.59375 
L 19.671875 64.59375 
L 19.671875 43.109375 
L 48.578125 43.109375 
L 48.578125 34.8125 
L 19.671875 34.8125 
L 19.671875 0 
L 9.8125 0 
z
" id="DejaVuSans-46"/>
      <path d="M 41.109375 46.296875 
Q 39.59375 47.171875 37.8125 47.578125 
Q 36.03125 48 33.890625 48 
Q 26.265625 48 22.1875 43.046875 
Q 18.109375 38.09375 18.109375 28.8125 
L 18.109375 0 
L 9.078125 0 
L 9.078125 54.6875 
L 18.109375 54.6875 
L 18.109375 46.1875 
Q 20.953125 51.171875 25.484375 53.578125 
Q 30.03125 56 36.53125 56 
Q 37.453125 56 38.578125 55.875 
Q 39.703125 55.765625 41.0625 55.515625 
z
" id="DejaVuSans-72"/>
      <path d="M 56.203125 29.59375 
L 56.203125 25.203125 
L 14.890625 25.203125 
Q 15.484375 15.921875 20.484375 11.0625 
Q 25.484375 6.203125 34.421875 6.203125 
Q 39.59375 6.203125 44.453125 7.46875 
Q 49.3125 8.734375 54.109375 11.28125 
L 54.109375 2.78125 
Q 49.265625 0.734375 44.1875 -0.34375 
Q 39.109375 -1.421875 33.890625 -1.421875 
Q 20.796875 -1.421875 13.15625 6.1875 
Q 5.515625 13.8125 5.515625 26.8125 
Q 5.515625 40.234375 12.765625 48.109375 
Q 20.015625 56 32.328125 56 
Q 43.359375 56 49.78125 48.890625 
Q 56.203125 41.796875 56.203125 29.59375 
z
M 47.21875 32.234375 
Q 47.125 39.59375 43.09375 43.984375 
Q 39.0625 48.390625 32.421875 48.390625 
Q 24.90625 48.390625 20.390625 44.140625 
Q 15.875 39.890625 15.1875 32.171875 
z
" id="DejaVuSans-65"/>
      <path d="M 14.796875 27.296875 
Q 14.796875 17.390625 18.875 11.75 
Q 22.953125 6.109375 30.078125 6.109375 
Q 37.203125 6.109375 41.296875 11.75 
Q 45.40625 17.390625 45.40625 27.296875 
Q 45.40625 37.203125 41.296875 42.84375 
Q 37.203125 48.484375 30.078125 48.484375 
Q 22.953125 48.484375 18.875 42.84375 
Q 14.796875 37.203125 14.796875 27.296875 
z
M 45.40625 8.203125 
Q 42.578125 3.328125 38.25 0.953125 
Q 33.9375 -1.421875 27.875 -1.421875 
Q 17.96875 -1.421875 11.734375 6.484375 
Q 5.515625 14.40625 5.515625 27.296875 
Q 5.515625 40.1875 11.734375 48.09375 
Q 17.96875 56 27.875 56 
Q 33.9375 56 38.25 53.625 
Q 42.578125 51.265625 45.40625 46.390625 
L 45.40625 54.6875 
L 54.390625 54.6875 
L 54.390625 -20.796875 
L 45.40625 -20.796875 
z
" id="DejaVuSans-71"/>
      <path d="M 8.5 21.578125 
L 8.5 54.6875 
L 17.484375 54.6875 
L 17.484375 21.921875 
Q 17.484375 14.15625 20.5 10.265625 
Q 23.53125 6.390625 29.59375 6.390625 
Q 36.859375 6.390625 41.078125 11.03125 
Q 45.3125 15.671875 45.3125 23.6875 
L 45.3125 54.6875 
L 54.296875 54.6875 
L 54.296875 0 
L 45.3125 0 
L 45.3125 8.40625 
Q 42.046875 3.421875 37.71875 1 
Q 33.40625 -1.421875 27.6875 -1.421875 
Q 18.265625 -1.421875 13.375 4.4375 
Q 8.5 10.296875 8.5 21.578125 
z
M 31.109375 56 
z
" id="DejaVuSans-75"/>
      <path d="M 54.890625 33.015625 
L 54.890625 0 
L 45.90625 0 
L 45.90625 32.71875 
Q 45.90625 40.484375 42.875 44.328125 
Q 39.84375 48.1875 33.796875 48.1875 
Q 26.515625 48.1875 22.3125 43.546875 
Q 18.109375 38.921875 18.109375 30.90625 
L 18.109375 0 
L 9.078125 0 
L 9.078125 54.6875 
L 18.109375 54.6875 
L 18.109375 46.1875 
Q 21.34375 51.125 25.703125 53.5625 
Q 30.078125 56 35.796875 56 
Q 45.21875 56 50.046875 50.171875 
Q 54.890625 44.34375 54.890625 33.015625 
z
" id="DejaVuSans-6e"/>
      <path d="M 5.515625 54.6875 
L 48.1875 54.6875 
L 48.1875 46.484375 
L 14.40625 7.171875 
L 48.1875 7.171875 
L 48.1875 0 
L 4.296875 0 
L 4.296875 8.203125 
L 38.09375 47.515625 
L 5.515625 47.515625 
z
" id="DejaVuSans-7a"/>
      <path id="DejaVuSans-20"/>
      <path d="M 8.59375 75.984375 
L 29.296875 75.984375 
L 29.296875 69 
L 17.578125 69 
L 17.578125 -6.203125 
L 29.296875 -6.203125 
L 29.296875 -13.1875 
L 8.59375 -13.1875 
z
" id="DejaVuSans-5b"/>
      <path d="M 9.8125 72.90625 
L 19.671875 72.90625 
L 19.671875 43.015625 
L 55.515625 43.015625 
L 55.515625 72.90625 
L 65.375 72.90625 
L 65.375 0 
L 55.515625 0 
L 55.515625 34.71875 
L 19.671875 34.71875 
L 19.671875 0 
L 9.8125 0 
z
" id="DejaVuSans-48"/>
      <path d="M 30.421875 75.984375 
L 30.421875 -13.1875 
L 9.71875 -13.1875 
L 9.71875 -6.203125 
L 21.390625 -6.203125 
L 21.390625 69 
L 9.71875 69 
L 9.71875 75.984375 
z
" id="DejaVuSans-5d"/>
     </defs>
     <g transform="translate(201.995156 316.706687)scale(0.1 -0.1)">
      <use xlink:href="#DejaVuSans-46"/>
      <use x="57.410156" xlink:href="#DejaVuSans-72"/>
      <use x="98.492188" xlink:href="#DejaVuSans-65"/>
      <use x="160.015625" xlink:href="#DejaVuSans-71"/>
      <use x="223.492188" xlink:href="#DejaVuSans-75"/>
      <use x="286.871094" xlink:href="#DejaVuSans-65"/>
      <use x="348.394531" xlink:href="#DejaVuSans-6e"/>
      <use x="411.773438" xlink:href="#DejaVuSans-7a"/>
      <use x="464.263672" xlink:href="#DejaVuSans-20"/>
      <use x="496.050781" xlink:href="#DejaVuSans-5b"/>
      <use x="535.064453" xlink:href="#DejaVuSans-48"/>
      <use x="610.259766" xlink:href="#DejaVuSans-7a"/>
      <use x="662.75" xlink:href="#DejaVuSans-5d"/>
     </g>
    </g>
   </g>
   <g id="matplotlib.axis_2">
    <g id="ytick_1">
     <g id="line2d_19">
      <path clip-path="url(#p6b887fe5e1)" d="M 58.523438 279.431828 
L 415.643438 279.431828 
" style="fill:none;stroke:#b0b0b0;stroke-linecap:square;stroke-width:0.8;"/>
     </g>
     <g id="line2d_20">
      <defs>
       <path d="M 0 0 
L -3.5 0 
" id="m8c79953067" style="stroke:#000000;stroke-width:0.8;"/>
      </defs>
      <g>
       <use style="stroke:#000000;stroke-width:0.8;" x="58.523438" xlink:href="#m8c79953067" y="279.431828"/>
      </g>
     </g>
     <g id="text_11">
      <!-- −0.75 -->
      <defs>
       <path d="M 10.6875 12.40625 
L 21 12.40625 
L 21 0 
L 10.6875 0 
z
" id="DejaVuSans-2e"/>
      </defs>
      <g transform="translate(20.878125 283.231047)scale(0.1 -0.1)">
       <use xlink:href="#DejaVuSans-2212"/>
       <use x="83.789062" xlink:href="#DejaVuSans-30"/>
       <use x="147.412109" xlink:href="#DejaVuSans-2e"/>
       <use x="179.199219" xlink:href="#DejaVuSans-37"/>
       <use x="242.822266" xlink:href="#DejaVuSans-35"/>
      </g>
     </g>
    </g>
    <g id="ytick_2">
     <g id="line2d_21">
      <path clip-path="url(#p6b887fe5e1)" d="M 58.523438 244.429299 
L 415.643438 244.429299 
" style="fill:none;stroke:#b0b0b0;stroke-linecap:square;stroke-width:0.8;"/>
     </g>
     <g id="line2d_22">
      <g>
       <use style="stroke:#000000;stroke-width:0.8;" x="58.523438" xlink:href="#m8c79953067" y="244.429299"/>
      </g>
     </g>
     <g id="text_12">
      <!-- −0.50 -->
      <g transform="translate(20.878125 248.228518)scale(0.1 -0.1)">
       <use xlink:href="#DejaVuSans-2212"/>
       <use x="83.789062" xlink:href="#DejaVuSans-30"/>
       <use x="147.412109" xlink:href="#DejaVuSans-2e"/>
       <use x="179.199219" xlink:href="#DejaVuSans-35"/>
       <use x="242.822266" xlink:href="#DejaVuSans-30"/>
      </g>
     </g>
    </g>
    <g id="ytick_3">
     <g id="line2d_23">
      <path clip-path="url(#p6b887fe5e1)" d="M 58.523438 209.42677 
L 415.643438 209.42677 
" style="fill:none;stroke:#b0b0b0;stroke-linecap:square;stroke-width:0.8;"/>
     </g>
     <g id="line2d_24">
      <g>
       <use style="stroke:#000000;stroke-width:0.8;" x="58.523438" xlink:href="#m8c79953067" y="209.42677"/>
      </g>
     </g>
     <g id="text_13">
      <!-- −0.25 -->
      <g transform="translate(20.878125 213.225989)scale(0.1 -0.1)">
       <use xlink:href="#DejaVuSans-2212"/>
       <use x="83.789062" xlink:href="#DejaVuSans-30"/>
       <use x="147.412109" xlink:href="#DejaVuSans-2e"/>
       <use x="179.199219" xlink:href="#DejaVuSans-32"/>
       <use x="242.822266" xlink:href="#DejaVuSans-35"/>
      </g>
     </g>
    </g>
    <g id="ytick_4">
     <g id="line2d_25">
      <path clip-path="url(#p6b887fe5e1)" d="M 58.523438 174.424241 
L 415.643438 174.424241 
" style="fill:none;stroke:#b0b0b0;stroke-linecap:square;stroke-width:0.8;"/>
     </g>
     <g id="line2d_26">
      <g>
       <use style="stroke:#000000;stroke-width:0.8;" x="58.523438" xlink:href="#m8c79953067" y="174.424241"/>
      </g>
     </g>
     <g id="text_14">
      <!-- 0.00 -->
      <g transform="translate(29.257813 178.22346)scale(0.1 -0.1)">
       <use xlink:href="#DejaVuSans-30"/>
       <use x="63.623047" xlink:href="#DejaVuSans-2e"/>
       <use x="95.410156" xlink:href="#DejaVuSans-30"/>
       <use x="159.033203" xlink:href="#DejaVuSans-30"/>
      </g>
     </g>
    </g>
    <g id="ytick_5">
     <g id="line2d_27">
      <path clip-path="url(#p6b887fe5e1)" d="M 58.523438 139.421712 
L 415.643438 139.421712 
" style="fill:none;stroke:#b0b0b0;stroke-linecap:square;stroke-width:0.8;"/>
     </g>
     <g id="line2d_28">
      <g>
       <use style="stroke:#000000;stroke-width:0.8;" x="58.523438" xlink:href="#m8c79953067" y="139.421712"/>
      </g>
     </g>
     <g id="text_15">
      <!-- 0.25 -->
      <g transform="translate(29.257813 143.220931)scale(0.1 -0.1)">
       <use xlink:href="#DejaVuSans-30"/>
       <use x="63.623047" xlink:href="#DejaVuSans-2e"/>
       <use x="95.410156" xlink:href="#DejaVuSans-32"/>
       <use x="159.033203" xlink:href="#DejaVuSans-35"/>
      </g>
     </g>
    </g>
    <g id="ytick_6">
     <g id="line2d_29">
      <path clip-path="url(#p6b887fe5e1)" d="M 58.523438 104.419183 
L 415.643438 104.419183 
" style="fill:none;stroke:#b0b0b0;stroke-linecap:square;stroke-width:0.8;"/>
     </g>
     <g id="line2d_30">
      <g>
       <use style="stroke:#000000;stroke-width:0.8;" x="58.523438" xlink:href="#m8c79953067" y="104.419183"/>
      </g>
     </g>
     <g id="text_16">
      <!-- 0.50 -->
      <g transform="translate(29.257813 108.218402)scale(0.1 -0.1)">
       <use xlink:href="#DejaVuSans-30"/>
       <use x="63.623047" xlink:href="#DejaVuSans-2e"/>
       <use x="95.410156" xlink:href="#DejaVuSans-35"/>
       <use x="159.033203" xlink:href="#DejaVuSans-30"/>
      </g>
     </g>
    </g>
    <g id="ytick_7">
     <g id="line2d_31">
      <path clip-path="url(#p6b887fe5e1)" d="M 58.523438 69.416654 
L 415.643438 69.416654 
" style="fill:none;stroke:#b0b0b0;stroke-linecap:square;stroke-width:0.8;"/>
     </g>
     <g id="line2d_32">
      <g>
       <use style="stroke:#000000;stroke-width:0.8;" x="58.523438" xlink:href="#m8c79953067" y="69.416654"/>
      </g>
     </g>
     <g id="text_17">
      <!-- 0.75 -->
      <g transform="translate(29.257813 73.215873)scale(0.1 -0.1)">
       <use xlink:href="#DejaVuSans-30"/>
       <use x="63.623047" xlink:href="#DejaVuSans-2e"/>
       <use x="95.410156" xlink:href="#DejaVuSans-37"/>
       <use x="159.033203" xlink:href="#DejaVuSans-35"/>
      </g>
     </g>
    </g>
    <g id="ytick_8">
     <g id="line2d_33">
      <path clip-path="url(#p6b887fe5e1)" d="M 58.523438 34.414125 
L 415.643438 34.414125 
" style="fill:none;stroke:#b0b0b0;stroke-linecap:square;stroke-width:0.8;"/>
     </g>
     <g id="line2d_34">
      <g>
       <use style="stroke:#000000;stroke-width:0.8;" x="58.523438" xlink:href="#m8c79953067" y="34.414125"/>
      </g>
     </g>
     <g id="text_18">
      <!-- 1.00 -->
      <g transform="translate(29.257813 38.213344)scale(0.1 -0.1)">
       <use xlink:href="#DejaVuSans-31"/>
       <use x="63.623047" xlink:href="#DejaVuSans-2e"/>
       <use x="95.410156" xlink:href="#DejaVuSans-30"/>
       <use x="159.033203" xlink:href="#DejaVuSans-30"/>
      </g>
     </g>
    </g>
    <g id="text_19">
     <!-- Amplitude [normiert] -->
     <defs>
      <path d="M 34.1875 63.1875 
L 20.796875 26.90625 
L 47.609375 26.90625 
z
M 28.609375 72.90625 
L 39.796875 72.90625 
L 67.578125 0 
L 57.328125 0 
L 50.6875 18.703125 
L 17.828125 18.703125 
L 11.1875 0 
L 0.78125 0 
z
" id="DejaVuSans-41"/>
      <path d="M 52 44.1875 
Q 55.375 50.25 60.0625 53.125 
Q 64.75 56 71.09375 56 
Q 79.640625 56 84.28125 50.015625 
Q 88.921875 44.046875 88.921875 33.015625 
L 88.921875 0 
L 79.890625 0 
L 79.890625 32.71875 
Q 79.890625 40.578125 77.09375 44.375 
Q 74.3125 48.1875 68.609375 48.1875 
Q 61.625 48.1875 57.5625 43.546875 
Q 53.515625 38.921875 53.515625 30.90625 
L 53.515625 0 
L 44.484375 0 
L 44.484375 32.71875 
Q 44.484375 40.625 41.703125 44.40625 
Q 38.921875 48.1875 33.109375 48.1875 
Q 26.21875 48.1875 22.15625 43.53125 
Q 18.109375 38.875 18.109375 30.90625 
L 18.109375 0 
L 9.078125 0 
L 9.078125 54.6875 
L 18.109375 54.6875 
L 18.109375 46.1875 
Q 21.1875 51.21875 25.484375 53.609375 
Q 29.78125 56 35.6875 56 
Q 41.65625 56 45.828125 52.96875 
Q 50 49.953125 52 44.1875 
z
" id="DejaVuSans-6d"/>
      <path d="M 18.109375 8.203125 
L 18.109375 -20.796875 
L 9.078125 -20.796875 
L 9.078125 54.6875 
L 18.109375 54.6875 
L 18.109375 46.390625 
Q 20.953125 51.265625 25.265625 53.625 
Q 29.59375 56 35.59375 56 
Q 45.5625 56 51.78125 48.09375 
Q 58.015625 40.1875 58.015625 27.296875 
Q 58.015625 14.40625 51.78125 6.484375 
Q 45.5625 -1.421875 35.59375 -1.421875 
Q 29.59375 -1.421875 25.265625 0.953125 
Q 20.953125 3.328125 18.109375 8.203125 
z
M 48.6875 27.296875 
Q 48.6875 37.203125 44.609375 42.84375 
Q 40.53125 48.484375 33.40625 48.484375 
Q 26.265625 48.484375 22.1875 42.84375 
Q 18.109375 37.203125 18.109375 27.296875 
Q 18.109375 17.390625 22.1875 11.75 
Q 26.265625 6.109375 33.40625 6.109375 
Q 40.53125 6.109375 44.609375 11.75 
Q 48.6875 17.390625 48.6875 27.296875 
z
" id="DejaVuSans-70"/>
      <path d="M 9.421875 75.984375 
L 18.40625 75.984375 
L 18.40625 0 
L 9.421875 0 
z
" id="DejaVuSans-6c"/>
      <path d="M 9.421875 54.6875 
L 18.40625 54.6875 
L 18.40625 0 
L 9.421875 0 
z
M 9.421875 75.984375 
L 18.40625 75.984375 
L 18.40625 64.59375 
L 9.421875 64.59375 
z
" id="DejaVuSans-69"/>
      <path d="M 18.3125 70.21875 
L 18.3125 54.6875 
L 36.8125 54.6875 
L 36.8125 47.703125 
L 18.3125 47.703125 
L 18.3125 18.015625 
Q 18.3125 11.328125 20.140625 9.421875 
Q 21.96875 7.515625 27.59375 7.515625 
L 36.8125 7.515625 
L 36.8125 0 
L 27.59375 0 
Q 17.1875 0 13.234375 3.875 
Q 9.28125 7.765625 9.28125 18.015625 
L 9.28125 47.703125 
L 2.6875 47.703125 
L 2.6875 54.6875 
L 9.28125 54.6875 
L 9.28125 70.21875 
z
" id="DejaVuSans-74"/>
      <path d="M 45.40625 46.390625 
L 45.40625 75.984375 
L 54.390625 75.984375 
L 54.390625 0 
L 45.40625 0 
L 45.40625 8.203125 
Q 42.578125 3.328125 38.25 0.953125 
Q 33.9375 -1.421875 27.875 -1.421875 
Q 17.96875 -1.421875 11.734375 6.484375 
Q 5.515625 14.40625 5.515625 27.296875 
Q 5.515625 40.1875 11.734375 48.09375 
Q 17.96875 56 27.875 56 
Q 33.9375 56 38.25 53.625 
Q 42.578125 51.265625 45.40625 46.390625 
z
M 14.796875 27.296875 
Q 14.796875 17.390625 18.875 11.75 
Q 22.953125 6.109375 30.078125 6.109375 
Q 37.203125 6.109375 41.296875 11.75 
Q 45.40625 17.390625 45.40625 27.296875 
Q 45.40625 37.203125 41.296875 42.84375 
Q 37.203125 48.484375 30.078125 48.484375 
Q 22.953125 48.484375 18.875 42.84375 
Q 14.796875 37.203125 14.796875 27.296875 
z
" id="DejaVuSans-64"/>
      <path d="M 30.609375 48.390625 
Q 23.390625 48.390625 19.1875 42.75 
Q 14.984375 37.109375 14.984375 27.296875 
Q 14.984375 17.484375 19.15625 11.84375 
Q 23.34375 6.203125 30.609375 6.203125 
Q 37.796875 6.203125 41.984375 11.859375 
Q 46.1875 17.53125 46.1875 27.296875 
Q 46.1875 37.015625 41.984375 42.703125 
Q 37.796875 48.390625 30.609375 48.390625 
z
M 30.609375 56 
Q 42.328125 56 49.015625 48.375 
Q 55.71875 40.765625 55.71875 27.296875 
Q 55.71875 13.875 49.015625 6.21875 
Q 42.328125 -1.421875 30.609375 -1.421875 
Q 18.84375 -1.421875 12.171875 6.21875 
Q 5.515625 13.875 5.515625 27.296875 
Q 5.515625 40.765625 12.171875 48.375 
Q 18.84375 56 30.609375 56 
z
" id="DejaVuSans-6f"/>
     </defs>
     <g transform="translate(14.798438 208.121781)rotate(-90)scale(0.1 -0.1)">
      <use xlink:href="#DejaVuSans-41"/>
      <use x="68.408203" xlink:href="#DejaVuSans-6d"/>
      <use x="165.820312" xlink:href="#DejaVuSans-70"/>
      <use x="229.296875" xlink:href="#DejaVuSans-6c"/>
      <use x="257.080078" xlink:href="#DejaVuSans-69"/>
      <use x="284.863281" xlink:href="#DejaVuSans-74"/>
      <use x="324.072266" xlink:href="#DejaVuSans-75"/>
      <use x="387.451172" xlink:href="#DejaVuSans-64"/>
      <use x="450.927734" xlink:href="#DejaVuSans-65"/>
      <use x="512.451172" xlink:href="#DejaVuSans-20"/>
      <use x="544.238281" xlink:href="#DejaVuSans-5b"/>
      <use x="583.251953" xlink:href="#DejaVuSans-6e"/>
      <use x="646.630859" xlink:href="#DejaVuSans-6f"/>
      <use x="707.8125" xlink:href="#DejaVuSans-72"/>
      <use x="748.910156" xlink:href="#DejaVuSans-6d"/>
      <use x="846.322266" xlink:href="#DejaVuSans-69"/>
      <use x="874.105469" xlink:href="#DejaVuSans-65"/>
      <use x="935.628906" xlink:href="#DejaVuSans-72"/>
      <use x="976.742188" xlink:href="#DejaVuSans-74"/>
      <use x="1015.951172" xlink:href="#DejaVuSans-5d"/>
     </g>
    </g>
   </g>
   <g id="line2d_35">
    <path clip-path="url(#p6b887fe5e1)" d="M 58.349062 173.115302 
L 60.52875 173.05639 
L 62.708437 172.889453 
L 67.939687 172.428806 
L 69.2475 172.43612 
L 75.350625 171.510147 
L 76.658437 171.286944 
L 79.274062 171.176477 
L 81.45375 170.589218 
L 82.325625 170.352462 
L 83.1975 170.326899 
L 84.94125 170.558779 
L 85.813125 170.310525 
L 87.120937 169.888578 
L 94.967812 168.571013 
L 97.583438 168.36236 
L 98.455312 168.281566 
L 103.250625 167.232431 
L 104.558437 167.180156 
L 107.174062 167.319967 
L 108.045938 166.929341 
L 111.0975 164.969446 
L 113.713125 164.006291 
L 115.892813 163.364723 
L 117.200625 162.867564 
L 118.944375 162.080648 
L 119.81625 161.800016 
L 121.124062 160.974812 
L 122.431875 160.259504 
L 123.739688 159.847678 
L 125.919375 159.286158 
L 126.79125 158.876741 
L 128.099063 157.930047 
L 128.970937 157.362432 
L 132.0225 156.034577 
L 135.51 153.903359 
L 137.25375 153.004115 
L 139.433438 151.570403 
L 141.177188 150.511467 
L 145.100625 147.913415 
L 146.844375 146.56984 
L 149.024063 145.12546 
L 153.383438 141.471579 
L 156.435 139.327557 
L 157.742813 138.468686 
L 158.614688 137.62349 
L 160.794375 135.320613 
L 163.845937 132.568107 
L 166.461563 129.848733 
L 168.64125 127.982813 
L 170.385 125.867123 
L 172.12875 124.101386 
L 173.436563 122.810543 
L 174.308438 121.955657 
L 179.539688 115.748816 
L 181.719375 112.859035 
L 185.642813 108.006858 
L 192.181875 99.307265 
L 196.54125 92.784129 
L 197.849063 90.804101 
L 199.156875 88.945015 
L 201.7725 84.455893 
L 203.952188 81.068376 
L 205.26 78.864869 
L 207.439688 75.497571 
L 209.183438 72.174418 
L 210.49125 69.728525 
L 212.235 66.740095 
L 213.542813 64.374366 
L 215.7225 60.781679 
L 217.030313 58.423045 
L 218.774063 55.748008 
L 220.95375 51.450836 
L 222.261563 48.954245 
L 224.877188 43.590423 
L 227.056875 40.010672 
L 228.800625 37.399 
L 229.6725 36.520351 
L 232.288125 34.642842 
L 232.724063 34.450528 
L 233.16 34.414125 
L 234.031875 34.764338 
L 234.90375 35.273396 
L 235.775625 35.617887 
L 236.211563 36.121621 
L 236.6475 37.309949 
L 237.083438 39.328517 
L 238.39125 46.911163 
L 238.827188 48.673231 
L 239.699063 50.947235 
L 240.570938 52.850321 
L 241.87875 56.42691 
L 248.85375 75.895202 
L 252.777188 85.552601 
L 254.520938 89.354326 
L 257.136563 95.148926 
L 258.444375 97.927285 
L 263.675625 107.739036 
L 266.29125 112.255502 
L 268.035 115.019116 
L 269.77875 117.860165 
L 272.830313 122.950674 
L 274.574063 125.320708 
L 276.75375 128.527655 
L 279.369375 131.733867 
L 281.113125 133.69958 
L 283.72875 136.930577 
L 286.344375 139.562153 
L 287.652188 140.826923 
L 289.395938 142.695176 
L 291.575625 144.493011 
L 293.755313 146.732702 
L 295.935 148.452957 
L 297.67875 149.801459 
L 298.986563 150.94259 
L 300.294375 152.041734 
L 302.038125 153.057808 
L 303.781875 153.921585 
L 305.525625 155.224919 
L 307.269375 156.7873 
L 308.14125 157.154115 
L 309.449063 157.472192 
L 310.320938 157.953404 
L 311.62875 158.706694 
L 312.936563 159.330219 
L 314.680313 160.370588 
L 318.167813 161.846477 
L 321.655313 162.897313 
L 325.142813 164.530099 
L 326.014688 164.610342 
L 326.886563 164.568145 
L 327.758438 164.739473 
L 329.06625 165.357784 
L 329.938125 165.772421 
L 330.81 165.958642 
L 332.989688 166.097651 
L 334.2975 166.686487 
L 336.04125 167.601793 
L 336.913125 167.687365 
L 338.220938 167.772394 
L 340.400625 168.267795 
L 341.708438 168.607427 
L 344.324063 169.077428 
L 345.631875 169.102935 
L 348.683438 169.958115 
L 349.99125 169.984146 
L 351.299063 169.976277 
L 354.350625 170.550259 
L 355.658438 170.827486 
L 358.274063 171.200145 
L 359.145938 171.53549 
L 360.017813 171.618723 
L 364.377188 171.269216 
L 365.249063 171.458281 
L 370.044375 172.975716 
L 370.91625 172.999285 
L 373.095938 172.857588 
L 376.583438 173.137566 
L 378.763125 173.373029 
L 380.942813 173.125161 
L 383.994375 173.496996 
L 385.738125 173.345411 
L 389.661563 173.610036 
L 391.84125 173.485721 
L 393.149063 173.544938 
L 394.456875 173.752793 
L 395.32875 173.540348 
L 396.200625 173.334255 
L 397.508438 173.412955 
L 400.124063 173.755721 
L 402.739688 173.709854 
L 405.79125 173.706744 
L 407.099063 174.068357 
L 407.970938 173.947939 
L 409.27875 173.67222 
L 414.074063 173.658996 
L 415.817813 173.983375 
L 415.817813 173.983375 
" style="fill:none;stroke:#1f77b4;stroke-linecap:square;stroke-width:1.5;"/>
   </g>
   <g id="line2d_36">
    <path clip-path="url(#p6b887fe5e1)" d="M 58.349062 175.12576 
L 59.656875 174.748413 
L 60.092812 174.733732 
L 60.52875 174.944043 
L 61.400625 175.613977 
L 61.836562 175.576368 
L 62.708437 175.000916 
L 63.144375 174.876171 
L 64.01625 175.01095 
L 64.888125 175.213848 
L 65.76 175.210497 
L 66.195937 175.046938 
L 66.631875 174.624784 
L 67.939687 172.662169 
L 68.811562 172.030359 
L 69.2475 171.850274 
L 69.683437 171.913753 
L 71.427187 173.295864 
L 72.735 173.154747 
L 73.170937 173.331809 
L 73.606875 173.896655 
L 74.47875 175.62547 
L 74.914687 175.838468 
L 75.350625 175.250299 
L 76.2225 173.097903 
L 76.658437 172.374083 
L 77.094375 172.017743 
L 77.530312 171.900761 
L 78.402187 172.048778 
L 78.838125 172.138734 
L 79.274062 171.949353 
L 79.71 171.324771 
L 80.581875 169.785169 
L 81.017812 169.619894 
L 81.45375 169.921253 
L 82.325625 171.138595 
L 83.1975 172.355751 
L 84.94125 174.042412 
L 85.377187 174.116061 
L 86.685 173.466369 
L 87.120937 173.633662 
L 87.992812 174.576247 
L 88.864688 175.576807 
L 89.300625 175.63582 
L 89.736562 175.339477 
L 90.608437 174.287209 
L 91.044375 173.490157 
L 91.91625 171.320283 
L 92.352187 170.680104 
L 92.788125 170.656605 
L 93.224063 170.941335 
L 93.66 171.081213 
L 94.095937 170.901034 
L 94.967812 170.231251 
L 95.40375 170.1365 
L 95.839687 170.377893 
L 97.1475 172.109691 
L 97.583438 172.168347 
L 98.019375 171.830994 
L 98.89125 170.863893 
L 99.327188 170.734974 
L 99.763125 170.947792 
L 100.635 171.643344 
L 101.506875 172.037415 
L 101.942813 172.500339 
L 102.814687 173.80755 
L 103.250625 174.161846 
L 103.686563 174.168219 
L 104.1225 173.85309 
L 104.994375 172.768749 
L 105.430312 172.47244 
L 105.86625 172.551732 
L 106.302188 172.939389 
L 107.174062 174.272532 
L 108.045938 175.705686 
L 108.481875 175.787131 
L 108.917812 175.270517 
L 110.225625 172.893204 
L 110.661563 172.569356 
L 111.0975 172.621921 
L 112.405312 173.550258 
L 112.84125 173.477787 
L 113.277187 173.167851 
L 114.585 171.691891 
L 115.020938 171.45483 
L 115.892813 171.137327 
L 116.32875 170.656172 
L 118.0725 167.779224 
L 118.508437 167.336443 
L 118.944375 167.169296 
L 119.380313 167.297304 
L 121.124062 168.609054 
L 121.56 168.604188 
L 122.431875 168.216413 
L 122.867812 168.463631 
L 123.739688 169.427848 
L 124.175625 169.201562 
L 125.483438 167.088418 
L 125.919375 167.052634 
L 127.663125 168.013776 
L 128.099063 167.860648 
L 128.535 166.994532 
L 128.970937 165.23992 
L 129.842813 161.207656 
L 130.27875 160.630391 
L 130.714687 161.18205 
L 131.150625 162.043099 
L 131.586563 162.472593 
L 132.458438 162.305696 
L 132.894375 162.532984 
L 133.76625 163.52501 
L 134.638125 164.074801 
L 136.381875 165.000326 
L 136.817813 165.009359 
L 137.25375 164.836623 
L 137.689687 164.446071 
L 138.561563 163.073745 
L 139.433438 161.672447 
L 139.869375 161.448708 
L 140.305313 161.678628 
L 141.177188 162.625922 
L 141.613125 162.816447 
L 143.792813 162.560194 
L 145.536563 161.980322 
L 145.9725 161.660331 
L 146.844375 160.511744 
L 147.280313 159.880563 
L 147.71625 159.453387 
L 148.152188 159.381799 
L 148.588125 159.664427 
L 149.895938 161.017222 
L 150.331875 161.209971 
L 150.767812 161.016264 
L 151.20375 160.194045 
L 152.075625 156.805065 
L 152.511563 155.069097 
L 152.9475 153.910158 
L 153.383438 153.433715 
L 154.69125 153.324713 
L 156.870938 151.140456 
L 157.742813 149.662806 
L 158.17875 149.447243 
L 158.614688 149.801086 
L 159.050625 150.345867 
L 159.486562 150.552122 
L 159.9225 150.215886 
L 160.358438 149.627135 
L 160.794375 149.316536 
L 161.230313 149.650875 
L 162.102188 151.510459 
L 162.538125 151.876185 
L 162.974063 151.382564 
L 164.281875 148.16707 
L 164.717813 147.583511 
L 165.15375 147.375137 
L 165.589688 147.373284 
L 166.025625 147.256678 
L 166.8975 146.407422 
L 167.333438 146.322144 
L 167.769375 146.80339 
L 168.64125 148.421223 
L 169.077188 148.852715 
L 169.513125 148.907847 
L 169.949063 148.664398 
L 170.385 148.132905 
L 171.256875 146.266952 
L 172.12875 144.296553 
L 172.564688 143.592656 
L 173.000625 143.243582 
L 173.436563 143.349728 
L 173.8725 143.737588 
L 174.308438 143.902473 
L 174.744375 143.342019 
L 175.61625 140.28537 
L 176.052188 138.860723 
L 176.488125 138.155557 
L 176.924063 138.209408 
L 177.36 138.656006 
L 177.795938 138.93989 
L 178.231875 138.659305 
L 178.667813 137.786277 
L 179.539688 135.625012 
L 179.975625 135.110231 
L 180.411563 135.115485 
L 181.719375 136.103286 
L 182.59125 136.830267 
L 183.027188 136.816887 
L 183.463125 136.341375 
L 185.642813 132.028149 
L 186.514688 129.088702 
L 187.386563 126.396943 
L 187.8225 125.8992 
L 188.258438 126.134024 
L 189.56625 128.303487 
L 190.002188 128.337108 
L 190.438125 127.771201 
L 191.31 125.473725 
L 193.05375 121.061011 
L 193.489688 120.077941 
L 193.925625 119.553465 
L 194.361563 119.526356 
L 194.7975 119.706599 
L 195.233438 119.747971 
L 195.669375 119.535781 
L 196.54125 118.772778 
L 197.413125 117.752253 
L 198.720938 115.820115 
L 199.592813 113.952926 
L 200.464688 112.046712 
L 201.7725 110.333894 
L 202.644375 108.411386 
L 203.080313 107.737349 
L 204.388125 106.283919 
L 205.26 104.922464 
L 206.567813 103.627188 
L 207.00375 102.747302 
L 207.875625 99.947586 
L 209.619375 93.059674 
L 210.055313 92.583612 
L 210.927188 92.368833 
L 211.363125 91.90188 
L 212.235 90.590447 
L 212.670938 89.692063 
L 213.542813 86.640864 
L 213.97875 85.069062 
L 214.414688 84.04366 
L 215.7225 82.562249 
L 216.158438 81.311055 
L 216.594375 79.323561 
L 217.902188 71.852099 
L 218.338125 70.952129 
L 218.774063 71.073528 
L 219.645938 71.972389 
L 220.081875 71.984561 
L 220.517813 71.551297 
L 221.389688 69.710021 
L 222.261563 68.032026 
L 223.133438 66.282444 
L 224.005313 63.563372 
L 224.877188 60.379153 
L 225.313125 58.329092 
L 227.056875 47.958619 
L 227.492813 46.707438 
L 227.92875 46.119331 
L 228.364688 45.768204 
L 228.800625 45.20109 
L 229.6725 42.979592 
L 230.108438 41.893435 
L 230.544375 41.189147 
L 230.980313 40.8208 
L 232.288125 40.072085 
L 233.16 39.227611 
L 234.031875 38.01605 
L 234.90375 35.925338 
L 235.339688 34.764125 
L 235.775625 34.414125 
L 236.211563 36.076691 
L 236.6475 40.472181 
L 237.519375 53.120506 
L 237.955313 57.388795 
L 238.39125 59.162784 
L 238.827188 59.260644 
L 239.263125 58.875374 
L 239.699063 58.912955 
L 240.135 59.807709 
L 240.570938 61.534185 
L 241.87875 67.675042 
L 242.750625 70.147089 
L 243.6225 71.713634 
L 244.494375 73.142744 
L 246.238125 77.032311 
L 247.11 77.280243 
L 247.545938 77.816813 
L 247.981875 79.175472 
L 248.85375 84.141397 
L 249.725625 89.62141 
L 250.161563 91.481662 
L 250.5975 92.543967 
L 251.469375 93.726764 
L 251.905313 94.725483 
L 253.649063 100.506143 
L 254.085 101.357144 
L 254.520938 101.890053 
L 255.82875 103.076584 
L 257.5725 105.401513 
L 258.008438 105.780462 
L 258.444375 105.915719 
L 258.880313 105.900586 
L 259.31625 106.14598 
L 259.752188 107.075379 
L 261.06 112.133633 
L 261.495938 113.051965 
L 261.931875 113.409648 
L 262.80375 113.679473 
L 263.239688 114.305557 
L 263.675625 115.541517 
L 264.5475 118.825272 
L 264.983438 119.908498 
L 265.419375 120.3131 
L 265.855313 120.328102 
L 266.29125 120.484298 
L 266.727188 121.232938 
L 267.163125 122.700249 
L 268.470938 128.607168 
L 268.906875 130.032993 
L 269.342813 130.827568 
L 269.77875 130.982379 
L 270.214688 130.838075 
L 270.650625 130.893392 
L 271.5225 131.724763 
L 271.958438 131.600326 
L 272.394375 130.810502 
L 272.830313 129.778918 
L 273.26625 129.155485 
L 273.702188 129.351156 
L 274.138125 130.285973 
L 275.01 132.503879 
L 276.317813 134.384899 
L 277.189688 137.161582 
L 277.625625 138.460284 
L 278.061563 139.036429 
L 278.933438 138.789576 
L 279.369375 139.067395 
L 280.677188 141.285571 
L 281.985 142.309989 
L 282.420938 143.094621 
L 284.600625 148.156993 
L 285.036563 148.508013 
L 286.344375 148.665158 
L 287.652188 149.82335 
L 288.088125 149.718967 
L 288.96 148.898192 
L 289.395938 148.74553 
L 289.831875 149.037492 
L 291.139688 151.183339 
L 292.011563 152.79894 
L 294.19125 157.471153 
L 294.627188 157.575433 
L 295.063125 157.069372 
L 295.935 155.668502 
L 297.242813 154.438717 
L 297.67875 153.814164 
L 298.114688 153.441914 
L 298.550625 153.73747 
L 298.986563 154.898969 
L 300.294375 160.511377 
L 300.730313 161.540839 
L 301.16625 161.824639 
L 301.602188 161.469518 
L 302.91 159.134299 
L 303.345938 158.983531 
L 304.217813 159.36288 
L 304.65375 159.311685 
L 305.961563 158.540549 
L 306.3975 158.679102 
L 306.833438 159.286227 
L 307.705313 161.722451 
L 308.577188 164.241577 
L 309.449063 165.857345 
L 309.885 166.375713 
L 310.320938 166.637535 
L 310.756875 166.554429 
L 311.192813 166.122928 
L 312.500625 164.300224 
L 312.936563 164.030199 
L 313.3725 163.99228 
L 313.808438 164.174845 
L 314.680313 165.098646 
L 315.552188 166.072104 
L 315.988125 166.171493 
L 316.424063 165.832819 
L 316.86 165.076923 
L 317.731875 163.128135 
L 318.167813 162.476085 
L 318.60375 162.348987 
L 319.039688 162.755889 
L 319.911563 163.942927 
L 320.3475 164.136158 
L 321.219375 163.975015 
L 321.655313 164.196545 
L 322.09125 164.904766 
L 323.399063 167.929044 
L 323.835 168.353952 
L 324.270938 168.354666 
L 324.706875 167.982739 
L 325.57875 166.805407 
L 326.014688 166.492058 
L 326.450625 166.57425 
L 327.3225 167.531571 
L 328.630313 168.99245 
L 329.502188 170.330582 
L 329.938125 170.471468 
L 330.374063 170.140341 
L 331.245938 169.310306 
L 332.55375 168.79018 
L 334.2975 167.658833 
L 335.605313 167.201207 
L 336.04125 167.611083 
L 336.477188 168.670585 
L 337.349063 171.209268 
L 337.785 171.764136 
L 338.656875 172.164142 
L 339.52875 173.273963 
L 339.964688 173.461042 
L 340.400625 173.114875 
L 341.2725 171.954911 
L 342.144375 171.357223 
L 342.580313 171.271266 
L 343.01625 171.424809 
L 343.888125 172.269839 
L 344.324063 172.397296 
L 344.76 172.013691 
L 345.631875 170.407158 
L 346.067813 169.913066 
L 346.50375 169.989009 
L 346.939688 170.605024 
L 347.811563 172.192948 
L 348.2475 172.583895 
L 348.683438 172.637322 
L 349.119375 172.386698 
L 350.427188 170.55423 
L 350.863125 170.450979 
L 352.606875 171.476313 
L 353.914688 172.867795 
L 354.786563 172.933714 
L 355.2225 173.196451 
L 356.094375 173.904443 
L 356.530313 173.840245 
L 356.96625 173.64445 
L 357.402188 173.667719 
L 358.274063 174.201792 
L 358.71 174.155789 
L 359.581875 173.669537 
L 360.45375 173.656844 
L 361.325625 173.672762 
L 361.761563 173.448038 
L 363.069375 171.928675 
L 363.505313 171.917346 
L 363.94125 172.384558 
L 364.377188 173.021545 
L 364.813125 173.382897 
L 365.249063 173.242031 
L 366.992813 171.162197 
L 367.864688 169.326564 
L 368.300625 168.800378 
L 368.736563 169.111742 
L 370.044375 172.222901 
L 370.480313 172.365081 
L 371.352188 171.734654 
L 371.788125 171.692054 
L 372.224063 172.036993 
L 373.095938 173.202498 
L 373.967813 173.844425 
L 374.839688 174.466006 
L 375.275625 174.576554 
L 375.711563 174.237167 
L 377.019375 172.222115 
L 377.455313 172.211939 
L 378.327188 172.725393 
L 378.763125 172.58379 
L 380.070938 170.991271 
L 380.506875 171.354103 
L 381.37875 172.943741 
L 381.814688 173.103938 
L 382.250625 172.627001 
L 383.1225 171.339455 
L 383.558438 171.279061 
L 383.994375 171.629176 
L 384.86625 172.671751 
L 385.302188 173.0341 
L 385.738125 173.14268 
L 386.61 172.913837 
L 387.045938 173.023205 
L 387.917813 173.863258 
L 388.789688 174.620514 
L 389.225625 174.821128 
L 389.661563 174.865915 
L 390.0975 174.725615 
L 390.533438 174.372242 
L 391.405313 173.016329 
L 391.84125 172.291605 
L 392.277188 171.849154 
L 392.713125 171.739883 
L 393.585 172.019622 
L 394.020938 172.400332 
L 394.456875 173.098019 
L 395.764688 175.771597 
L 396.200625 176.062498 
L 397.508438 176.233272 
L 398.81625 176.003345 
L 399.252188 176.28282 
L 400.124063 177.049189 
L 400.995938 177.351396 
L 402.30375 178.221019 
L 402.739688 177.929605 
L 404.0475 175.937238 
L 404.919375 175.085567 
L 406.663125 172.9383 
L 407.099063 173.00785 
L 407.970938 173.476438 
L 408.406875 173.377168 
L 409.27875 172.529754 
L 410.150625 171.308365 
L 410.586563 170.658794 
L 411.0225 170.274413 
L 411.458438 170.355918 
L 411.894375 170.907438 
L 412.76625 172.828721 
L 413.638125 174.647312 
L 414.074063 175.122194 
L 414.51 175.193281 
L 414.945938 174.813423 
L 415.381875 173.962159 
L 415.817813 172.781152 
L 415.817813 172.781152 
" style="fill:none;stroke:#ff7f0e;stroke-linecap:square;stroke-width:1.5;"/>
   </g>
   <g id="line2d_37">
    <path clip-path="url(#p6b887fe5e1)" d="M 58.349062 170.132499 
L 58.785 169.547121 
L 60.092812 166.796464 
L 60.52875 167.737057 
L 60.964687 170.343264 
L 61.836562 176.204891 
L 62.2725 177.127483 
L 62.708437 176.399662 
L 63.580312 173.636397 
L 64.01625 173.936935 
L 64.452187 175.870627 
L 64.888125 178.362875 
L 65.324062 179.86138 
L 65.76 179.517983 
L 66.195937 177.604194 
L 67.50375 169.898373 
L 67.939687 168.725162 
L 68.375625 169.063638 
L 68.811562 170.754004 
L 69.683437 174.716061 
L 70.119375 175.081464 
L 70.99125 173.121535 
L 71.427187 172.884654 
L 72.299062 174.123738 
L 72.735 173.819061 
L 74.042812 170.419795 
L 74.47875 170.212545 
L 74.914687 170.563692 
L 75.350625 171.156793 
L 75.786563 171.290453 
L 76.2225 170.26736 
L 77.094375 166.331615 
L 77.530312 165.794823 
L 77.96625 167.192647 
L 78.402187 170.280702 
L 79.274062 178.109099 
L 79.71 181.029542 
L 80.145938 182.618727 
L 80.581875 182.724188 
L 81.017812 181.262638 
L 81.889687 174.862462 
L 82.325625 171.616576 
L 82.761562 169.382994 
L 83.1975 168.19512 
L 84.069375 167.064506 
L 84.505313 166.670673 
L 84.94125 166.78969 
L 85.377187 167.774078 
L 86.249062 171.772416 
L 86.685 173.785448 
L 87.120937 175.16453 
L 87.556875 175.729011 
L 87.992812 175.56527 
L 88.42875 174.864261 
L 88.864688 173.721301 
L 89.300625 172.067215 
L 90.608437 165.502185 
L 91.044375 164.932244 
L 91.480312 166.011959 
L 92.352187 171.312154 
L 92.788125 173.830822 
L 93.224063 175.29177 
L 93.66 175.685298 
L 94.095937 175.636006 
L 94.531875 175.783782 
L 94.967812 176.151468 
L 95.40375 176.197812 
L 95.839687 175.443789 
L 96.711562 171.998699 
L 97.1475 170.189039 
L 97.583438 168.988698 
L 98.019375 168.87826 
L 98.455312 170.053236 
L 99.327188 174.338354 
L 99.763125 175.674662 
L 100.199062 175.82474 
L 100.635 175.279785 
L 101.070937 174.998962 
L 101.506875 175.724395 
L 102.37875 179.099988 
L 102.814687 179.396774 
L 103.250625 177.53311 
L 104.1225 170.468815 
L 104.558437 168.297198 
L 104.994375 168.019159 
L 106.302188 171.18527 
L 106.738125 171.655513 
L 107.61 172.275229 
L 108.045938 172.958922 
L 108.481875 174.228302 
L 109.35375 177.680391 
L 109.789687 178.73549 
L 110.225625 179.005166 
L 110.661563 178.625305 
L 111.0975 177.589162 
L 111.533437 175.792326 
L 112.405312 171.135744 
L 112.84125 169.490742 
L 113.277187 168.856818 
L 113.713125 169.306293 
L 114.149062 170.684743 
L 115.020938 174.44619 
L 115.456875 175.643568 
L 115.892813 175.791356 
L 116.32875 174.872745 
L 117.200625 171.753691 
L 117.636562 170.80788 
L 118.0725 170.68234 
L 118.508437 171.066426 
L 118.944375 171.26662 
L 119.380313 170.75016 
L 120.252188 168.645554 
L 120.688125 168.531694 
L 121.124062 169.675016 
L 121.995937 174.112944 
L 122.431875 175.439225 
L 122.867812 174.920766 
L 123.30375 172.468145 
L 124.175625 166.128894 
L 124.611563 164.924948 
L 125.0475 165.528626 
L 126.355312 170.77702 
L 126.79125 171.830056 
L 127.227187 172.184335 
L 127.663125 171.956372 
L 128.099063 171.447456 
L 128.535 170.764379 
L 128.970937 169.690973 
L 129.406875 168.260835 
L 129.842813 167.322941 
L 130.27875 168.034743 
L 131.150625 173.553065 
L 131.586563 174.981448 
L 132.0225 173.874589 
L 132.894375 168.51279 
L 133.330312 167.743315 
L 133.76625 168.830568 
L 134.202188 170.558681 
L 134.638125 171.52347 
L 135.074063 171.101845 
L 135.51 169.52324 
L 136.817813 163.480895 
L 137.25375 163.050234 
L 137.689687 163.951884 
L 138.125625 165.458904 
L 138.561563 166.416081 
L 138.9975 166.211747 
L 139.869375 164.499055 
L 140.305313 164.578106 
L 140.74125 165.593592 
L 142.049062 170.746388 
L 142.485 171.047596 
L 142.920938 169.562213 
L 144.22875 160.89795 
L 144.664688 160.29831 
L 145.536563 161.384363 
L 145.9725 161.554503 
L 146.408437 161.541242 
L 146.844375 161.775922 
L 147.280313 162.264789 
L 147.71625 162.485526 
L 148.152188 161.893354 
L 149.024063 159.214115 
L 149.46 158.757435 
L 149.895938 159.45932 
L 150.767812 162.057694 
L 151.20375 162.44968 
L 151.639688 161.923615 
L 152.511563 159.830753 
L 152.9475 159.26284 
L 153.383438 159.412318 
L 153.819375 160.040165 
L 154.255313 160.423357 
L 154.69125 159.955044 
L 155.563125 157.524195 
L 155.999063 156.904587 
L 156.435 157.052578 
L 157.742813 159.23808 
L 158.17875 159.514675 
L 158.614688 159.266895 
L 159.486562 157.768104 
L 159.9225 157.397756 
L 160.358438 157.701869 
L 161.230313 159.04207 
L 161.66625 159.192901 
L 162.102188 158.915831 
L 162.974063 157.940964 
L 163.41 156.982207 
L 163.845937 155.162887 
L 165.15375 147.178028 
L 165.589688 146.093667 
L 166.461563 145.864781 
L 166.8975 145.1608 
L 167.333438 144.175955 
L 167.769375 143.693959 
L 168.205313 144.14624 
L 169.513125 147.71782 
L 169.949063 147.935771 
L 170.385 147.622629 
L 171.256875 146.854858 
L 171.692813 146.965067 
L 172.12875 147.855336 
L 173.000625 151.863278 
L 173.436563 153.768146 
L 173.8725 154.648215 
L 174.308438 154.366514 
L 175.180313 152.71329 
L 176.052188 151.846017 
L 176.488125 150.980772 
L 177.36 148.623713 
L 177.795938 148.029204 
L 178.231875 148.199481 
L 178.667813 148.757103 
L 179.10375 148.836742 
L 179.539688 147.7752 
L 180.8475 141.213314 
L 181.283438 140.265156 
L 181.719375 140.705217 
L 182.59125 144.199108 
L 183.027188 145.121811 
L 183.463125 144.491633 
L 184.335 141.333604 
L 184.770938 140.937042 
L 185.206875 141.653013 
L 185.642813 142.615465 
L 186.07875 142.70026 
L 186.514688 141.368774 
L 187.386563 136.827996 
L 187.8225 135.394094 
L 188.258438 134.935125 
L 188.694375 135.207037 
L 189.56625 136.211769 
L 190.002188 136.050223 
L 190.874063 134.876395 
L 191.31 134.946454 
L 192.181875 136.246822 
L 192.617813 136.621727 
L 193.489688 137.074525 
L 193.925625 137.086504 
L 194.361563 136.300472 
L 195.233438 133.293254 
L 195.669375 132.728156 
L 196.105313 133.044812 
L 196.977188 134.211282 
L 197.413125 134.642186 
L 197.849063 134.889897 
L 198.285 134.599524 
L 198.720938 133.508403 
L 200.02875 128.110413 
L 200.900625 123.387773 
L 201.7725 119.039403 
L 202.644375 116.104178 
L 203.51625 111.975429 
L 203.952188 111.223505 
L 204.388125 112.074547 
L 204.824063 113.681074 
L 205.26 114.76584 
L 205.695938 114.598819 
L 206.131875 113.328849 
L 208.311563 104.711435 
L 208.7475 103.702117 
L 209.183438 104.19002 
L 210.055313 107.749204 
L 210.49125 108.658607 
L 210.927188 108.136688 
L 211.363125 106.359986 
L 212.235 102.128909 
L 212.670938 101.44619 
L 213.542813 102.315954 
L 213.97875 101.82252 
L 215.286563 97.55212 
L 215.7225 96.876229 
L 216.158438 96.721995 
L 216.594375 97.152598 
L 217.030313 97.859628 
L 217.46625 98.119892 
L 217.902188 97.487343 
L 218.774063 94.796012 
L 219.21 93.291334 
L 219.645938 91.315925 
L 220.95375 82.722632 
L 221.389688 81.510974 
L 221.825625 81.922067 
L 222.6975 84.664596 
L 223.133438 85.246925 
L 223.569375 84.938833 
L 224.005313 84.025506 
L 224.44125 82.605375 
L 224.877188 80.376884 
L 225.749063 73.200662 
L 226.185 69.652119 
L 226.620938 67.5131 
L 227.056875 67.251087 
L 227.492813 68.515124 
L 228.364688 72.360561 
L 228.800625 73.415841 
L 229.236563 72.825124 
L 229.6725 70.08913 
L 230.980313 58.005588 
L 231.41625 55.948018 
L 231.852188 54.81629 
L 232.288125 54.413985 
L 233.16 54.817944 
L 233.595938 54.196493 
L 234.031875 51.932311 
L 234.467813 47.839488 
L 235.339688 37.410911 
L 235.775625 34.414125 
L 236.211563 35.97004 
L 236.6475 43.583679 
L 237.519375 68.452706 
L 237.955313 77.248047 
L 238.39125 81.368271 
L 238.827188 82.831843 
L 240.135 85.581272 
L 240.570938 85.315413 
L 241.87875 82.325012 
L 242.314688 81.680878 
L 243.186563 79.824336 
L 243.6225 79.678058 
L 244.058438 81.119484 
L 245.36625 88.947097 
L 246.238125 91.802722 
L 247.11 95.923015 
L 247.545938 97.284269 
L 247.981875 97.647447 
L 248.417813 97.779672 
L 248.85375 98.632854 
L 249.725625 101.953596 
L 250.161563 103.00816 
L 250.5975 103.636446 
L 251.033438 104.491441 
L 252.34125 108.224777 
L 253.213125 108.518285 
L 253.649063 109.409224 
L 254.956875 115.500444 
L 255.392813 116.117617 
L 255.82875 115.978648 
L 256.264688 115.692684 
L 256.700625 115.704617 
L 257.136563 116.33567 
L 257.5725 117.954809 
L 258.008438 120.845286 
L 259.31625 132.146178 
L 259.752188 133.434979 
L 260.188125 132.935224 
L 261.495938 128.536526 
L 262.367813 125.220053 
L 262.80375 124.1608 
L 263.239688 124.335726 
L 263.675625 125.933158 
L 264.5475 131.030473 
L 264.983438 132.575347 
L 265.419375 132.766784 
L 266.29125 131.348662 
L 266.727188 131.45025 
L 267.163125 132.676114 
L 268.470938 139.054248 
L 269.77875 142.611829 
L 270.214688 144.314097 
L 270.650625 145.526048 
L 271.086563 145.248441 
L 271.5225 143.098594 
L 272.394375 136.162706 
L 272.830313 134.020024 
L 273.26625 133.905211 
L 273.702188 135.501686 
L 276.317813 149.09937 
L 276.75375 150.116981 
L 277.189688 150.111482 
L 277.625625 149.078043 
L 278.933438 143.034291 
L 279.369375 142.412502 
L 279.805313 143.143864 
L 281.113125 147.935589 
L 281.549063 148.434791 
L 281.985 148.069682 
L 282.420938 147.349412 
L 282.856875 147.215784 
L 283.292813 148.415524 
L 285.036563 157.527251 
L 285.4725 158.763072 
L 285.908438 159.573237 
L 286.344375 159.845656 
L 286.780313 159.684166 
L 288.088125 158.677242 
L 288.96 157.125992 
L 289.395938 156.81868 
L 289.831875 157.799273 
L 290.267813 160.241123 
L 291.139688 165.614993 
L 291.575625 166.015589 
L 292.011563 164.383433 
L 292.883438 157.869812 
L 293.755313 152.036459 
L 294.19125 150.69803 
L 294.627188 150.56777 
L 295.063125 151.246703 
L 296.370938 153.966681 
L 296.806875 154.17527 
L 297.242813 153.456351 
L 298.114688 150.170586 
L 298.550625 149.562283 
L 298.986563 150.671433 
L 300.730313 160.791998 
L 301.602188 167.13004 
L 302.474063 173.543808 
L 302.91 174.709258 
L 303.345938 173.639601 
L 304.217813 167.402296 
L 304.65375 165.603954 
L 305.089688 166.109799 
L 305.961563 170.019845 
L 306.3975 170.401246 
L 306.833438 169.193777 
L 307.269375 167.416853 
L 307.705313 166.150558 
L 308.14125 165.687523 
L 309.885 165.526772 
L 310.320938 165.770744 
L 310.756875 166.444616 
L 311.192813 167.693512 
L 312.064688 171.956927 
L 312.500625 174.172883 
L 312.936563 175.623528 
L 313.3725 176.114697 
L 313.808438 176.069306 
L 314.244375 176.232276 
L 315.11625 177.767905 
L 315.552188 177.549155 
L 315.988125 175.701088 
L 317.731875 163.349313 
L 318.167813 162.681044 
L 318.60375 163.767942 
L 319.475625 167.963286 
L 319.911563 169.005554 
L 320.3475 168.843341 
L 321.219375 167.033657 
L 321.655313 166.617285 
L 322.527188 166.433801 
L 322.963125 166.185192 
L 323.399063 166.302844 
L 323.835 167.185321 
L 324.270938 168.479884 
L 324.706875 169.274755 
L 325.142813 169.006022 
L 325.57875 168.13811 
L 326.014688 167.922439 
L 326.450625 169.402037 
L 327.758438 178.308373 
L 328.194375 178.537314 
L 329.502188 174.689693 
L 329.938125 174.82219 
L 330.81 175.807151 
L 331.245938 175.573454 
L 331.681875 174.360568 
L 332.989688 168.156064 
L 333.425625 167.540294 
L 333.861563 167.728053 
L 334.733438 168.604418 
L 335.169375 169.263718 
L 336.04125 171.245065 
L 336.477188 171.835545 
L 336.913125 172.015109 
L 337.349063 172.341316 
L 337.785 173.357908 
L 339.092813 178.456748 
L 339.52875 179.549125 
L 339.964688 180.130692 
L 340.400625 180.17517 
L 340.836563 179.604254 
L 343.01625 173.632114 
L 343.888125 169.469057 
L 344.324063 168.188222 
L 344.76 168.027775 
L 346.067813 169.668957 
L 346.939688 171.001354 
L 347.811563 172.57534 
L 348.2475 174.053714 
L 349.555313 181.123434 
L 349.99125 180.562429 
L 350.863125 175.852472 
L 351.299063 174.983893 
L 351.735 175.71218 
L 352.170938 176.888265 
L 352.606875 177.182532 
L 353.042813 176.115573 
L 353.914688 172.854395 
L 354.350625 172.505332 
L 354.786563 173.238147 
L 355.658438 175.324596 
L 356.094375 175.326369 
L 356.530313 174.286093 
L 357.838125 169.360482 
L 358.274063 169.354704 
L 359.581875 172.400937 
L 360.017813 172.899438 
L 360.45375 173.744279 
L 361.761563 178.154027 
L 362.1975 178.603871 
L 362.633438 178.28068 
L 363.505313 176.467836 
L 363.94125 175.074689 
L 364.377188 172.916447 
L 365.249063 167.525691 
L 365.685 166.497526 
L 366.120938 167.630507 
L 366.556875 170.575592 
L 367.864688 181.193614 
L 368.300625 182.98066 
L 368.736563 183.380552 
L 369.1725 182.568015 
L 369.608438 180.934565 
L 370.480313 176.509763 
L 371.352188 172.046609 
L 371.788125 170.86669 
L 372.224063 170.801975 
L 372.66 171.768926 
L 373.095938 173.597941 
L 374.40375 180.926018 
L 374.839688 181.545177 
L 375.275625 180.307649 
L 376.1475 175.795366 
L 376.583438 174.969099 
L 377.019375 175.52325 
L 377.89125 177.628823 
L 378.327188 177.784639 
L 378.763125 177.183565 
L 380.070938 173.897532 
L 380.506875 173.681213 
L 380.942813 173.955495 
L 381.37875 174.011529 
L 381.814688 173.43199 
L 382.250625 172.661919 
L 382.686563 172.619802 
L 383.1225 173.776104 
L 383.994375 177.159007 
L 384.430313 177.661246 
L 384.86625 177.568608 
L 385.302188 177.901853 
L 386.61 181.231865 
L 387.045938 180.859884 
L 387.917813 179.033701 
L 388.789688 178.179547 
L 389.225625 177.362496 
L 389.661563 175.914172 
L 390.533438 172.189898 
L 390.969375 171.162052 
L 391.405313 171.423618 
L 392.713125 175.492786 
L 393.149063 175.574462 
L 394.020938 174.446229 
L 394.456875 174.8301 
L 395.764688 179.006395 
L 396.200625 178.335611 
L 397.0725 175.462396 
L 397.508438 175.560652 
L 397.944375 176.994772 
L 398.81625 180.666291 
L 399.252188 181.645862 
L 399.688125 182.025252 
L 400.56 182.148704 
L 400.995938 182.379918 
L 401.431875 182.768027 
L 401.867813 182.916202 
L 402.30375 182.275373 
L 402.739688 180.612849 
L 403.611563 175.972359 
L 404.0475 174.541819 
L 404.483438 174.380026 
L 405.355313 176.268394 
L 405.79125 176.635259 
L 406.663125 175.906194 
L 407.099063 176.948962 
L 408.406875 184.131099 
L 408.842813 184.349707 
L 410.150625 183.114423 
L 410.586563 181.794948 
L 411.894375 173.82206 
L 412.330313 172.549054 
L 412.76625 172.420972 
L 413.202188 172.756372 
L 413.638125 172.678165 
L 414.074063 171.612816 
L 414.945938 168.011645 
L 415.381875 167.412496 
L 415.817813 168.216492 
L 415.817813 168.216492 
" style="fill:none;stroke:#2ca02c;stroke-linecap:square;stroke-width:1.5;"/>
   </g>
   <g id="line2d_38">
    <path clip-path="url(#p6b887fe5e1)" d="M 58.349062 172.32534 
L 58.785 176.630891 
L 59.220937 179.477495 
L 59.656875 180.623971 
L 60.092812 180.990703 
L 60.52875 181.665639 
L 61.400625 183.803498 
L 61.836562 183.542611 
L 62.2725 181.80031 
L 63.144375 176.919472 
L 63.580312 175.402236 
L 64.452187 173.239304 
L 64.888125 172.618863 
L 65.324062 173.624868 
L 65.76 176.843893 
L 66.195937 181.172529 
L 66.631875 184.200484 
L 67.067812 184.133138 
L 68.375625 176.574343 
L 68.811562 176.373462 
L 69.2475 175.961171 
L 69.683437 173.89048 
L 70.119375 170.729071 
L 70.555312 168.617195 
L 70.99125 168.976502 
L 71.863125 173.299183 
L 72.299062 174.315974 
L 72.735 173.972698 
L 73.170937 172.379376 
L 74.47875 164.290849 
L 74.914687 164.522389 
L 75.350625 168.221061 
L 76.658437 187.042247 
L 77.094375 188.348925 
L 77.530312 186.105335 
L 78.402187 178.478488 
L 80.581875 163.825664 
L 81.45375 159.5085 
L 81.889687 158.314703 
L 82.325625 158.247386 
L 82.761562 159.751179 
L 84.069375 168.958952 
L 84.94125 172.549975 
L 85.377187 175.516755 
L 86.249062 182.483632 
L 86.685 182.10154 
L 87.120937 177.799346 
L 88.42875 159.177691 
L 88.864688 156.259016 
L 89.300625 155.982055 
L 89.736562 158.168817 
L 90.608437 165.4228 
L 91.044375 167.937113 
L 91.480312 169.169947 
L 91.91625 169.426295 
L 92.352187 168.993825 
L 93.224063 166.995367 
L 93.66 166.49583 
L 94.095937 167.531348 
L 94.531875 170.697365 
L 95.40375 180.021236 
L 95.839687 182.38614 
L 96.275625 182.00952 
L 97.1475 178.638803 
L 97.583438 178.914609 
L 98.019375 181.90244 
L 98.89125 193.754129 
L 99.327188 197.220424 
L 99.763125 195.752453 
L 100.199062 190.05654 
L 101.070937 176.201019 
L 101.506875 171.016411 
L 101.942813 167.185018 
L 102.37875 165.114207 
L 102.814687 165.22994 
L 103.250625 166.399956 
L 103.686563 165.898928 
L 104.1225 161.910167 
L 104.994375 151.199699 
L 105.430312 150.489516 
L 105.86625 153.024566 
L 107.174062 164.480711 
L 108.045938 175.846045 
L 108.481875 179.665765 
L 108.917812 181.014594 
L 109.35375 180.983538 
L 109.789687 180.822904 
L 111.533437 181.148273 
L 111.969375 181.001166 
L 112.405312 179.726447 
L 112.84125 176.482023 
L 113.713125 166.717552 
L 114.149062 163.238523 
L 114.585 161.728476 
L 115.020938 161.826871 
L 115.456875 162.803173 
L 115.892813 164.120875 
L 116.32875 165.836785 
L 117.200625 171.412989 
L 117.636562 174.213138 
L 118.944375 180.151627 
L 119.81625 185.878749 
L 120.252188 187.682903 
L 120.688125 188.071854 
L 121.124062 186.79469 
L 121.56 183.470276 
L 121.995937 177.864093 
L 122.867812 163.823224 
L 123.30375 159.427939 
L 123.739688 158.408701 
L 124.175625 160.104443 
L 125.483438 168.968934 
L 125.919375 170.510144 
L 126.355312 170.822177 
L 126.79125 170.514012 
L 127.227187 171.120101 
L 127.663125 174.815891 
L 128.099063 183.455554 
L 128.970937 210.612096 
L 129.406875 218.464524 
L 129.842813 215.796337 
L 130.27875 203.998895 
L 131.150625 175.322967 
L 131.586563 166.252316 
L 132.0225 162.25124 
L 132.458438 163.019932 
L 132.894375 167.299151 
L 133.76625 180.322805 
L 134.638125 193.21868 
L 135.074063 195.916576 
L 135.51 193.425999 
L 136.817813 173.289072 
L 137.25375 171.71567 
L 137.689687 171.085456 
L 138.561563 167.341674 
L 138.9975 166.891714 
L 139.433438 168.457472 
L 139.869375 170.683256 
L 140.305313 172.233543 
L 140.74125 172.910614 
L 141.613125 173.533575 
L 142.049062 174.081679 
L 142.920938 175.522401 
L 143.356875 175.966596 
L 143.792813 176.057488 
L 144.664688 175.8756 
L 145.9725 176.287426 
L 146.408437 175.855813 
L 147.280313 174.131409 
L 147.71625 173.614644 
L 148.152188 173.544373 
L 148.588125 173.601273 
L 149.024063 173.247407 
L 149.46 172.125865 
L 150.331875 167.983596 
L 151.20375 163.24998 
L 151.639688 161.889855 
L 152.511563 160.895592 
L 153.819375 158.434632 
L 154.255313 158.697418 
L 154.69125 159.739184 
L 155.127187 161.627877 
L 156.435 169.856163 
L 156.870938 170.124004 
L 157.306875 168.991227 
L 157.742813 168.296891 
L 158.17875 169.032673 
L 158.614688 170.128857 
L 159.050625 170.032196 
L 159.486562 169.050451 
L 159.9225 168.96626 
L 160.794375 171.419651 
L 161.230313 170.361005 
L 162.102188 164.634251 
L 162.538125 164.043279 
L 162.974063 166.10827 
L 163.845937 172.40049 
L 164.281875 172.659075 
L 164.717813 170.212396 
L 165.589688 163.143873 
L 166.025625 161.493088 
L 166.461563 161.93995 
L 166.8975 164.281668 
L 167.769375 170.243319 
L 168.205313 170.717997 
L 168.64125 168.738315 
L 169.077188 166.012203 
L 169.513125 165.177906 
L 169.949063 167.439636 
L 170.385 171.328689 
L 170.820938 174.175887 
L 171.256875 174.620262 
L 172.564688 170.515646 
L 173.000625 169.202383 
L 173.8725 165.305964 
L 174.308438 163.18244 
L 174.744375 161.724001 
L 175.180313 161.47113 
L 176.052188 163.24592 
L 176.488125 162.889132 
L 176.924063 160.690088 
L 177.36 157.578767 
L 177.795938 155.32356 
L 178.231875 154.926609 
L 178.667813 155.576319 
L 179.10375 155.283229 
L 179.539688 152.665079 
L 180.411563 144.264326 
L 180.8475 143.248384 
L 181.283438 146.65205 
L 181.719375 154.126369 
L 182.59125 172.734263 
L 183.027188 179.184458 
L 183.463125 182.230294 
L 183.899063 182.045695 
L 184.335 179.473861 
L 185.206875 173.162156 
L 185.642813 172.082009 
L 186.07875 172.546442 
L 186.514688 173.541747 
L 186.950625 174.031759 
L 187.386563 173.512755 
L 187.8225 171.898231 
L 188.258438 168.969734 
L 188.694375 164.251847 
L 190.002188 144.151613 
L 190.438125 140.032886 
L 190.874063 139.019049 
L 191.31 141.264258 
L 192.181875 149.842487 
L 192.617813 151.882304 
L 193.05375 151.288188 
L 193.925625 147.01705 
L 194.361563 145.651251 
L 194.7975 145.015483 
L 195.233438 145.006138 
L 195.669375 145.885631 
L 197.849063 154.972279 
L 199.156875 163.376419 
L 199.592813 163.748798 
L 200.02875 162.296329 
L 200.900625 158.193803 
L 201.336563 155.323521 
L 202.208438 146.992952 
L 202.644375 145.529412 
L 203.080313 147.58442 
L 203.952188 155.065642 
L 204.388125 156.53992 
L 204.824063 156.334028 
L 205.26 155.693684 
L 206.131875 154.759532 
L 206.567813 153.831876 
L 207.00375 153.306929 
L 207.439688 154.398842 
L 207.875625 156.996875 
L 208.311563 158.901367 
L 208.7475 157.316697 
L 210.055313 140.283693 
L 210.49125 141.474883 
L 210.927188 147.712648 
L 211.799063 165.288825 
L 212.235 170.969639 
L 212.670938 171.861583 
L 213.106875 167.830859 
L 214.850625 139.48995 
L 215.286563 135.993764 
L 216.594375 129.468429 
L 217.902188 118.628449 
L 218.338125 119.758205 
L 218.774063 125.033657 
L 219.645938 139.923845 
L 220.081875 144.71216 
L 220.517813 146.9809 
L 220.95375 147.601317 
L 221.389688 146.684526 
L 221.825625 143.491242 
L 223.133438 127.955381 
L 223.569375 126.880902 
L 224.005313 128.312281 
L 224.877188 133.593836 
L 226.185 141.940848 
L 226.620938 141.824514 
L 227.056875 138.653088 
L 227.92875 128.315672 
L 228.364688 125.359306 
L 228.800625 125.40187 
L 229.6725 129.698943 
L 230.108438 129.631585 
L 230.544375 127.056708 
L 231.41625 120.343102 
L 232.288125 115.449425 
L 233.16 109.460734 
L 234.031875 105.54967 
L 234.467813 102.021929 
L 234.90375 95.296054 
L 235.775625 77.519552 
L 236.211563 74.636038 
L 236.6475 81.696603 
L 237.083438 98.933736 
L 237.955313 140.277378 
L 238.39125 151.485899 
L 238.827188 154.606562 
L 239.263125 152.899254 
L 240.570938 144.07505 
L 241.442813 138.987344 
L 241.87875 137.092831 
L 242.314688 136.079662 
L 242.750625 136.027045 
L 243.186563 136.662227 
L 244.058438 138.53843 
L 244.494375 140.183089 
L 244.930313 143.082477 
L 245.802188 150.033519 
L 246.238125 150.983781 
L 246.674063 149.839088 
L 247.11 148.069818 
L 247.545938 146.934964 
L 247.981875 146.892679 
L 248.417813 148.240816 
L 249.289688 154.006573 
L 249.725625 155.217287 
L 250.161563 153.813579 
L 250.5975 151.124204 
L 251.033438 149.159422 
L 251.469375 148.753294 
L 252.34125 150.011285 
L 252.777188 149.42287 
L 253.213125 146.994753 
L 253.649063 143.607997 
L 254.085 141.342259 
L 254.520938 141.357925 
L 254.956875 142.576594 
L 255.392813 143.198251 
L 255.82875 143.031072 
L 256.264688 143.513177 
L 256.700625 145.748012 
L 258.008438 155.687291 
L 258.444375 157.325344 
L 258.880313 157.399515 
L 259.31625 155.192122 
L 260.624063 140.687146 
L 261.06 140.765936 
L 261.495938 145.711537 
L 262.367813 160.850755 
L 262.80375 164.906097 
L 263.239688 165.099813 
L 264.5475 157.712509 
L 264.983438 157.52247 
L 265.419375 159.414083 
L 265.855313 163.362969 
L 267.163125 179.201559 
L 267.599063 181.438213 
L 268.035 180.788724 
L 268.470938 177.347347 
L 269.77875 161.071709 
L 270.214688 157.844113 
L 270.650625 156.684056 
L 271.086563 157.374464 
L 271.5225 158.932573 
L 271.958438 159.763136 
L 272.394375 158.730774 
L 273.26625 154.097362 
L 273.702188 153.751532 
L 274.138125 155.422077 
L 275.01 160.744329 
L 275.881875 164.25232 
L 276.75375 167.513848 
L 277.189688 168.410549 
L 277.625625 168.453834 
L 278.061563 168.238979 
L 278.4975 168.428641 
L 278.933438 168.931797 
L 279.369375 168.844431 
L 279.805313 167.220818 
L 281.113125 156.711468 
L 281.549063 155.21529 
L 281.985 156.026416 
L 282.420938 158.992913 
L 283.292813 167.642469 
L 283.72875 170.789962 
L 284.164688 172.039531 
L 284.600625 171.457453 
L 285.036563 169.64807 
L 285.908438 164.623704 
L 287.21625 156.378634 
L 287.652188 156.114304 
L 288.088125 158.343252 
L 289.831875 174.465231 
L 290.267813 175.520489 
L 290.70375 175.264708 
L 291.139688 174.247306 
L 291.575625 172.254195 
L 292.011563 168.743789 
L 292.883438 160.34376 
L 293.319375 159.120247 
L 293.755313 160.916752 
L 294.19125 164.816113 
L 295.499063 179.488509 
L 295.935 182.47328 
L 296.370938 183.284311 
L 296.806875 182.009633 
L 297.67875 175.622802 
L 298.114688 172.686768 
L 298.550625 171.447875 
L 298.986563 172.158836 
L 299.858438 176.057975 
L 300.294375 176.497301 
L 300.730313 174.890088 
L 301.16625 172.331832 
L 301.602188 171.172668 
L 302.038125 173.260515 
L 302.91 182.351805 
L 303.345938 183.000806 
L 303.781875 179.597339 
L 304.217813 174.868627 
L 304.65375 171.914087 
L 305.089688 171.65744 
L 305.525625 173.008534 
L 306.833438 177.75994 
L 307.269375 177.436247 
L 307.705313 174.027281 
L 309.013125 153.336393 
L 309.449063 150.029976 
L 309.885 150.256873 
L 310.320938 153.163733 
L 311.192813 160.830099 
L 311.62875 162.733554 
L 312.064688 162.042745 
L 312.936563 155.593929 
L 313.3725 154.507361 
L 313.808438 157.09879 
L 314.680313 167.048472 
L 315.11625 169.016505 
L 315.552188 167.21349 
L 316.86 153.724782 
L 317.295938 153.30633 
L 317.731875 156.638875 
L 319.039688 175.092472 
L 319.475625 176.822732 
L 319.911563 175.483565 
L 320.3475 173.029597 
L 320.783438 171.290938 
L 321.655313 169.959597 
L 322.09125 168.502566 
L 323.399063 161.627236 
L 323.835 160.728493 
L 324.270938 161.288981 
L 324.706875 163.056722 
L 325.142813 165.743948 
L 325.57875 169.642659 
L 326.450625 180.263633 
L 326.886563 182.89745 
L 327.3225 181.145629 
L 328.194375 172.073712 
L 328.630313 170.975503 
L 329.06625 173.221633 
L 329.938125 180.241263 
L 330.374063 181.264225 
L 330.81 179.618796 
L 331.681875 173.314084 
L 332.117813 172.192194 
L 332.55375 173.278285 
L 333.425625 178.391427 
L 333.861563 179.056275 
L 334.2975 176.98463 
L 334.733438 173.531777 
L 335.169375 171.351541 
L 335.605313 171.882303 
L 337.349063 180.991537 
L 338.220938 187.207935 
L 338.656875 187.183112 
L 339.092813 183.368346 
L 340.836563 156.725247 
L 341.2725 155.265041 
L 341.708438 157.327329 
L 342.144375 162.28829 
L 343.452188 180.436145 
L 343.888125 183.64519 
L 344.324063 185.066606 
L 344.76 185.021977 
L 345.195938 183.659767 
L 345.631875 180.793912 
L 346.067813 176.153237 
L 347.375625 159.341746 
L 347.811563 157.267024 
L 348.2475 157.193136 
L 348.683438 158.167347 
L 349.119375 159.760722 
L 349.555313 162.190683 
L 350.863125 172.661879 
L 351.299063 173.22071 
L 351.735 171.126898 
L 352.170938 167.947181 
L 352.606875 166.100093 
L 353.042813 167.079187 
L 353.914688 173.17894 
L 354.350625 174.367559 
L 354.786563 173.904465 
L 355.2225 172.974221 
L 355.658438 172.398039 
L 356.530313 172.077688 
L 356.96625 171.566907 
L 357.402188 170.369892 
L 358.274063 166.576971 
L 358.71 165.584688 
L 359.145938 165.833123 
L 360.017813 167.787488 
L 360.45375 169.397111 
L 361.325625 174.285275 
L 361.761563 175.654637 
L 362.1975 175.936446 
L 362.633438 176.042137 
L 363.069375 176.360889 
L 363.505313 176.466121 
L 363.94125 176.30053 
L 364.377188 176.663785 
L 365.249063 179.513387 
L 365.685 179.296557 
L 366.120938 176.236979 
L 367.42875 159.691413 
L 367.864688 157.314938 
L 368.300625 157.07015 
L 369.608438 159.555609 
L 370.91625 161.206549 
L 371.352188 162.238718 
L 372.224063 165.026748 
L 372.66 165.458563 
L 373.095938 164.579061 
L 373.531875 163.345661 
L 373.967813 163.603569 
L 374.40375 166.496703 
L 375.711563 181.364854 
L 376.1475 184.379216 
L 376.583438 185.519243 
L 377.019375 184.611769 
L 377.89125 179.235638 
L 378.763125 174.190304 
L 380.070938 167.46213 
L 380.942813 162.529697 
L 381.37875 161.985121 
L 381.814688 163.762622 
L 383.1225 175.092488 
L 383.558438 174.478488 
L 384.430313 168.213972 
L 384.86625 168.058624 
L 385.738125 172.406105 
L 386.174063 172.183058 
L 387.045938 167.38009 
L 387.481875 166.568308 
L 387.917813 168.110768 
L 388.35375 171.555965 
L 389.225625 179.90909 
L 389.661563 181.951593 
L 390.0975 180.940789 
L 390.969375 173.554927 
L 391.405313 172.030709 
L 391.84125 173.758781 
L 392.713125 179.865141 
L 393.149063 179.883968 
L 394.456875 173.158631 
L 394.892813 173.318397 
L 395.32875 174.502619 
L 395.764688 175.3258 
L 396.200625 175.305776 
L 396.636563 175.142082 
L 397.508438 175.568386 
L 397.944375 174.836074 
L 398.81625 171.877765 
L 399.252188 171.086048 
L 399.688125 170.887953 
L 400.124063 171.220801 
L 400.56 172.483043 
L 400.995938 175.267925 
L 401.867813 185.060073 
L 402.30375 190.099012 
L 402.739688 193.521606 
L 403.175625 194.401059 
L 403.611563 192.64565 
L 404.483438 186.505659 
L 404.919375 185.380106 
L 405.79125 186.42457 
L 406.227188 185.262144 
L 406.663125 181.466128 
L 407.535 169.997473 
L 407.970938 165.861577 
L 408.406875 163.711796 
L 411.0225 157.610315 
L 411.894375 153.78402 
L 412.330313 153.049933 
L 412.76625 155.562601 
L 413.202188 161.777569 
L 414.074063 176.598663 
L 414.51 180.163346 
L 414.945938 180.826563 
L 415.381875 180.332959 
L 415.817813 180.156498 
L 415.817813 180.156498 
" style="fill:none;stroke:#d62728;stroke-linecap:square;stroke-width:1.5;"/>
   </g>
   <g id="patch_3">
    <path d="M 58.523438 288.430125 
L 58.523438 22.318125 
" style="fill:none;stroke:#000000;stroke-linecap:square;stroke-linejoin:miter;stroke-width:0.8;"/>
   </g>
   <g id="patch_4">
    <path d="M 415.643438 288.430125 
L 415.643438 22.318125 
" style="fill:none;stroke:#000000;stroke-linecap:square;stroke-linejoin:miter;stroke-width:0.8;"/>
   </g>
   <g id="patch_5">
    <path d="M 58.523437 288.430125 
L 415.643438 288.430125 
" style="fill:none;stroke:#000000;stroke-linecap:square;stroke-linejoin:miter;stroke-width:0.8;"/>
   </g>
   <g id="patch_6">
    <path d="M 58.523437 22.318125 
L 415.643438 22.318125 
" style="fill:none;stroke:#000000;stroke-linecap:square;stroke-linejoin:miter;stroke-width:0.8;"/>
   </g>
   <g id="text_20">
    <!-- Spektren 305K -->
    <defs>
     <path d="M 53.515625 70.515625 
L 53.515625 60.890625 
Q 47.90625 63.578125 42.921875 64.890625 
Q 37.9375 66.21875 33.296875 66.21875 
Q 25.25 66.21875 20.875 63.09375 
Q 16.5 59.96875 16.5 54.203125 
Q 16.5 49.359375 19.40625 46.890625 
Q 22.3125 44.4375 30.421875 42.921875 
L 36.375 41.703125 
Q 47.40625 39.59375 52.65625 34.296875 
Q 57.90625 29 57.90625 20.125 
Q 57.90625 9.515625 50.796875 4.046875 
Q 43.703125 -1.421875 29.984375 -1.421875 
Q 24.8125 -1.421875 18.96875 -0.25 
Q 13.140625 0.921875 6.890625 3.21875 
L 6.890625 13.375 
Q 12.890625 10.015625 18.65625 8.296875 
Q 24.421875 6.59375 29.984375 6.59375 
Q 38.421875 6.59375 43.015625 9.90625 
Q 47.609375 13.234375 47.609375 19.390625 
Q 47.609375 24.75 44.3125 27.78125 
Q 41.015625 30.8125 33.5 32.328125 
L 27.484375 33.5 
Q 16.453125 35.6875 11.515625 40.375 
Q 6.59375 45.0625 6.59375 53.421875 
Q 6.59375 63.09375 13.40625 68.65625 
Q 20.21875 74.21875 32.171875 74.21875 
Q 37.3125 74.21875 42.625 73.28125 
Q 47.953125 72.359375 53.515625 70.515625 
z
" id="DejaVuSans-53"/>
     <path d="M 9.078125 75.984375 
L 18.109375 75.984375 
L 18.109375 31.109375 
L 44.921875 54.6875 
L 56.390625 54.6875 
L 27.390625 29.109375 
L 57.625 0 
L 45.90625 0 
L 18.109375 26.703125 
L 18.109375 0 
L 9.078125 0 
z
" id="DejaVuSans-6b"/>
     <path d="M 40.578125 39.3125 
Q 47.65625 37.796875 51.625 33 
Q 55.609375 28.21875 55.609375 21.1875 
Q 55.609375 10.40625 48.1875 4.484375 
Q 40.765625 -1.421875 27.09375 -1.421875 
Q 22.515625 -1.421875 17.65625 -0.515625 
Q 12.796875 0.390625 7.625 2.203125 
L 7.625 11.71875 
Q 11.71875 9.328125 16.59375 8.109375 
Q 21.484375 6.890625 26.8125 6.890625 
Q 36.078125 6.890625 40.9375 10.546875 
Q 45.796875 14.203125 45.796875 21.1875 
Q 45.796875 27.640625 41.28125 31.265625 
Q 36.765625 34.90625 28.71875 34.90625 
L 20.21875 34.90625 
L 20.21875 43.015625 
L 29.109375 43.015625 
Q 36.375 43.015625 40.234375 45.921875 
Q 44.09375 48.828125 44.09375 54.296875 
Q 44.09375 59.90625 40.109375 62.90625 
Q 36.140625 65.921875 28.71875 65.921875 
Q 24.65625 65.921875 20.015625 65.03125 
Q 15.375 64.15625 9.8125 62.3125 
L 9.8125 71.09375 
Q 15.4375 72.65625 20.34375 73.4375 
Q 25.25 74.21875 29.59375 74.21875 
Q 40.828125 74.21875 47.359375 69.109375 
Q 53.90625 64.015625 53.90625 55.328125 
Q 53.90625 49.265625 50.4375 45.09375 
Q 46.96875 40.921875 40.578125 39.3125 
z
" id="DejaVuSans-33"/>
     <path d="M 9.8125 72.90625 
L 19.671875 72.90625 
L 19.671875 42.09375 
L 52.390625 72.90625 
L 65.09375 72.90625 
L 28.90625 38.921875 
L 67.671875 0 
L 54.6875 0 
L 19.671875 35.109375 
L 19.671875 0 
L 9.8125 0 
z
" id="DejaVuSans-4b"/>
    </defs>
    <g transform="translate(192.69375 16.318125)scale(0.12 -0.12)">
     <use xlink:href="#DejaVuSans-53"/>
     <use x="63.476562" xlink:href="#DejaVuSans-70"/>
     <use x="126.953125" xlink:href="#DejaVuSans-65"/>
     <use x="188.476562" xlink:href="#DejaVuSans-6b"/>
     <use x="246.386719" xlink:href="#DejaVuSans-74"/>
     <use x="285.595703" xlink:href="#DejaVuSans-72"/>
     <use x="326.677734" xlink:href="#DejaVuSans-65"/>
     <use x="388.201172" xlink:href="#DejaVuSans-6e"/>
     <use x="451.580078" xlink:href="#DejaVuSans-20"/>
     <use x="483.367188" xlink:href="#DejaVuSans-33"/>
     <use x="546.990234" xlink:href="#DejaVuSans-30"/>
     <use x="610.613281" xlink:href="#DejaVuSans-35"/>
     <use x="674.236328" xlink:href="#DejaVuSans-4b"/>
    </g>
   </g>
   <g id="legend_1">
    <g id="patch_7">
     <path d="M 328.927813 89.030625 
L 408.643438 89.030625 
Q 410.643438 89.030625 410.643438 87.030625 
L 410.643438 29.318125 
Q 410.643438 27.318125 408.643438 27.318125 
L 328.927813 27.318125 
Q 326.927813 27.318125 326.927813 29.318125 
L 326.927813 87.030625 
Q 326.927813 89.030625 328.927813 89.030625 
z
" style="fill:#ffffff;opacity:0.8;stroke:#cccccc;stroke-linejoin:miter;"/>
    </g>
    <g id="line2d_39">
     <path d="M 330.927813 35.416562 
L 350.927813 35.416562 
" style="fill:none;stroke:#1f77b4;stroke-linecap:square;stroke-width:1.5;"/>
    </g>
    <g id="line2d_40"/>
    <g id="text_21">
     <!-- 1.5e-05 -->
     <defs>
      <path d="M 4.890625 31.390625 
L 31.203125 31.390625 
L 31.203125 23.390625 
L 4.890625 23.390625 
z
" id="DejaVuSans-2d"/>
     </defs>
     <g transform="translate(358.927813 38.916562)scale(0.1 -0.1)">
      <use xlink:href="#DejaVuSans-31"/>
      <use x="63.623047" xlink:href="#DejaVuSans-2e"/>
      <use x="95.410156" xlink:href="#DejaVuSans-35"/>
      <use x="159.033203" xlink:href="#DejaVuSans-65"/>
      <use x="220.556641" xlink:href="#DejaVuSans-2d"/>
      <use x="256.640625" xlink:href="#DejaVuSans-30"/>
      <use x="320.263672" xlink:href="#DejaVuSans-35"/>
     </g>
    </g>
    <g id="line2d_41">
     <path d="M 330.927813 50.094688 
L 350.927813 50.094688 
" style="fill:none;stroke:#ff7f0e;stroke-linecap:square;stroke-width:1.5;"/>
    </g>
    <g id="line2d_42"/>
    <g id="text_22">
     <!-- 0.002041 -->
     <defs>
      <path d="M 37.796875 64.3125 
L 12.890625 25.390625 
L 37.796875 25.390625 
z
M 35.203125 72.90625 
L 47.609375 72.90625 
L 47.609375 25.390625 
L 58.015625 25.390625 
L 58.015625 17.1875 
L 47.609375 17.1875 
L 47.609375 0 
L 37.796875 0 
L 37.796875 17.1875 
L 4.890625 17.1875 
L 4.890625 26.703125 
z
" id="DejaVuSans-34"/>
     </defs>
     <g transform="translate(358.927813 53.594688)scale(0.1 -0.1)">
      <use xlink:href="#DejaVuSans-30"/>
      <use x="63.623047" xlink:href="#DejaVuSans-2e"/>
      <use x="95.410156" xlink:href="#DejaVuSans-30"/>
      <use x="159.033203" xlink:href="#DejaVuSans-30"/>
      <use x="222.65625" xlink:href="#DejaVuSans-32"/>
      <use x="286.279297" xlink:href="#DejaVuSans-30"/>
      <use x="349.902344" xlink:href="#DejaVuSans-34"/>
      <use x="413.525391" xlink:href="#DejaVuSans-31"/>
     </g>
    </g>
    <g id="line2d_43">
     <path d="M 330.927813 64.772812 
L 350.927813 64.772812 
" style="fill:none;stroke:#2ca02c;stroke-linecap:square;stroke-width:1.5;"/>
    </g>
    <g id="line2d_44"/>
    <g id="text_23">
     <!-- 0.002778 -->
     <defs>
      <path d="M 31.78125 34.625 
Q 24.75 34.625 20.71875 30.859375 
Q 16.703125 27.09375 16.703125 20.515625 
Q 16.703125 13.921875 20.71875 10.15625 
Q 24.75 6.390625 31.78125 6.390625 
Q 38.8125 6.390625 42.859375 10.171875 
Q 46.921875 13.96875 46.921875 20.515625 
Q 46.921875 27.09375 42.890625 30.859375 
Q 38.875 34.625 31.78125 34.625 
z
M 21.921875 38.8125 
Q 15.578125 40.375 12.03125 44.71875 
Q 8.5 49.078125 8.5 55.328125 
Q 8.5 64.0625 14.71875 69.140625 
Q 20.953125 74.21875 31.78125 74.21875 
Q 42.671875 74.21875 48.875 69.140625 
Q 55.078125 64.0625 55.078125 55.328125 
Q 55.078125 49.078125 51.53125 44.71875 
Q 48 40.375 41.703125 38.8125 
Q 48.828125 37.15625 52.796875 32.3125 
Q 56.78125 27.484375 56.78125 20.515625 
Q 56.78125 9.90625 50.3125 4.234375 
Q 43.84375 -1.421875 31.78125 -1.421875 
Q 19.734375 -1.421875 13.25 4.234375 
Q 6.78125 9.90625 6.78125 20.515625 
Q 6.78125 27.484375 10.78125 32.3125 
Q 14.796875 37.15625 21.921875 38.8125 
z
M 18.3125 54.390625 
Q 18.3125 48.734375 21.84375 45.5625 
Q 25.390625 42.390625 31.78125 42.390625 
Q 38.140625 42.390625 41.71875 45.5625 
Q 45.3125 48.734375 45.3125 54.390625 
Q 45.3125 60.0625 41.71875 63.234375 
Q 38.140625 66.40625 31.78125 66.40625 
Q 25.390625 66.40625 21.84375 63.234375 
Q 18.3125 60.0625 18.3125 54.390625 
z
" id="DejaVuSans-38"/>
     </defs>
     <g transform="translate(358.927813 68.272812)scale(0.1 -0.1)">
      <use xlink:href="#DejaVuSans-30"/>
      <use x="63.623047" xlink:href="#DejaVuSans-2e"/>
      <use x="95.410156" xlink:href="#DejaVuSans-30"/>
      <use x="159.033203" xlink:href="#DejaVuSans-30"/>
      <use x="222.65625" xlink:href="#DejaVuSans-32"/>
      <use x="286.279297" xlink:href="#DejaVuSans-37"/>
      <use x="349.902344" xlink:href="#DejaVuSans-37"/>
      <use x="413.525391" xlink:href="#DejaVuSans-38"/>
     </g>
    </g>
    <g id="line2d_45">
     <path d="M 330.927813 79.450938 
L 350.927813 79.450938 
" style="fill:none;stroke:#d62728;stroke-linecap:square;stroke-width:1.5;"/>
    </g>
    <g id="line2d_46"/>
    <g id="text_24">
     <!-- 0.00378 -->
     <g transform="translate(358.927813 82.950938)scale(0.1 -0.1)">
      <use xlink:href="#DejaVuSans-30"/>
      <use x="63.623047" xlink:href="#DejaVuSans-2e"/>
      <use x="95.410156" xlink:href="#DejaVuSans-30"/>
      <use x="159.033203" xlink:href="#DejaVuSans-30"/>
      <use x="222.65625" xlink:href="#DejaVuSans-33"/>
      <use x="286.279297" xlink:href="#DejaVuSans-37"/>
      <use x="349.902344" xlink:href="#DejaVuSans-38"/>
     </g>
    </g>
   </g>
  </g>
 </g>
 <defs>
  <clipPath id="p6b887fe5e1">
   <rect height="266.112" width="357.12" x="58.523438" y="22.318125"/>
  </clipPath>
 </defs>
</svg>
