<?xml version="1.0" encoding="utf-8" standalone="no"?>
<!DOCTYPE svg PUBLIC "-//W3C//DTD SVG 1.1//EN"
  "http://www.w3.org/Graphics/SVG/1.1/DTD/svg11.dtd">
<!-- Created with matplotlib (http://matplotlib.org/) -->
<svg height="252pt" version="1.1" viewBox="0 0 375 252" width="375pt" xmlns="http://www.w3.org/2000/svg" xmlns:xlink="http://www.w3.org/1999/xlink">
 <defs>
  <style type="text/css">
*{stroke-linecap:butt;stroke-linejoin:round;}
  </style>
 </defs>
 <g id="figure_1">
  <g id="patch_1">
   <path d="M 0 252.018125 
L 375.603125 252.018125 
L 375.603125 0 
L 0 0 
z
" style="fill:#ffffff;"/>
  </g>
  <g id="axes_1">
   <g id="patch_2">
    <path d="M 30.103125 228.14 
L 364.903125 228.14 
L 364.903125 10.7 
L 30.103125 10.7 
z
" style="fill:#ffffff;"/>
   </g>
   <g id="PathCollection_1">
    <defs>
     <path d="M -3 3 
L 3 -3 
M -3 -3 
L 3 3 
" id="m29f5bb3372" style="stroke:#1f77b4;stroke-width:1.5;"/>
    </defs>
    <g clip-path="url(#pab6b9c6052)">
     <use style="fill:#1f77b4;stroke:#1f77b4;stroke-width:1.5;" x="45.967928" xlink:href="#m29f5bb3372" y="35.017553"/>
     <use style="fill:#1f77b4;stroke:#1f77b4;stroke-width:1.5;" x="56.418631" xlink:href="#m29f5bb3372" y="30.861971"/>
     <use style="fill:#1f77b4;stroke:#1f77b4;stroke-width:1.5;" x="66.869334" xlink:href="#m29f5bb3372" y="32.871362"/>
     <use style="fill:#1f77b4;stroke:#1f77b4;stroke-width:1.5;" x="77.320038" xlink:href="#m29f5bb3372" y="29.664855"/>
     <use style="fill:#1f77b4;stroke:#1f77b4;stroke-width:1.5;" x="87.770741" xlink:href="#m29f5bb3372" y="33.432508"/>
     <use style="fill:#1f77b4;stroke:#1f77b4;stroke-width:1.5;" x="98.221444" xlink:href="#m29f5bb3372" y="28.764811"/>
     <use style="fill:#1f77b4;stroke:#1f77b4;stroke-width:1.5;" x="108.672147" xlink:href="#m29f5bb3372" y="34.256533"/>
     <use style="fill:#1f77b4;stroke:#1f77b4;stroke-width:1.5;" x="119.122851" xlink:href="#m29f5bb3372" y="31.504252"/>
     <use style="fill:#1f77b4;stroke:#1f77b4;stroke-width:1.5;" x="129.573554" xlink:href="#m29f5bb3372" y="37.528063"/>
     <use style="fill:#1f77b4;stroke:#1f77b4;stroke-width:1.5;" x="140.024257" xlink:href="#m29f5bb3372" y="35.206916"/>
     <use style="fill:#1f77b4;stroke:#1f77b4;stroke-width:1.5;" x="150.47496" xlink:href="#m29f5bb3372" y="44.479742"/>
     <use style="fill:#1f77b4;stroke:#1f77b4;stroke-width:1.5;" x="160.925664" xlink:href="#m29f5bb3372" y="49.619387"/>
     <use style="fill:#1f77b4;stroke:#1f77b4;stroke-width:1.5;" x="171.376367" xlink:href="#m29f5bb3372" y="59.775393"/>
     <use style="fill:#1f77b4;stroke:#1f77b4;stroke-width:1.5;" x="181.82707" xlink:href="#m29f5bb3372" y="63.488337"/>
     <use style="fill:#1f77b4;stroke:#1f77b4;stroke-width:1.5;" x="192.277773" xlink:href="#m29f5bb3372" y="79.036594"/>
     <use style="fill:#1f77b4;stroke:#1f77b4;stroke-width:1.5;" x="202.728477" xlink:href="#m29f5bb3372" y="88.039292"/>
     <use style="fill:#1f77b4;stroke:#1f77b4;stroke-width:1.5;" x="213.17918" xlink:href="#m29f5bb3372" y="112.204189"/>
     <use style="fill:#1f77b4;stroke:#1f77b4;stroke-width:1.5;" x="223.629883" xlink:href="#m29f5bb3372" y="122.997852"/>
     <use style="fill:#1f77b4;stroke:#1f77b4;stroke-width:1.5;" x="234.080586" xlink:href="#m29f5bb3372" y="141.130011"/>
     <use style="fill:#1f77b4;stroke:#1f77b4;stroke-width:1.5;" x="244.53129" xlink:href="#m29f5bb3372" y="158.187843"/>
     <use style="fill:#1f77b4;stroke:#1f77b4;stroke-width:1.5;" x="254.981993" xlink:href="#m29f5bb3372" y="161.452967"/>
     <use style="fill:#1f77b4;stroke:#1f77b4;stroke-width:1.5;" x="265.432696" xlink:href="#m29f5bb3372" y="166.878546"/>
     <use style="fill:#1f77b4;stroke:#1f77b4;stroke-width:1.5;" x="275.883399" xlink:href="#m29f5bb3372" y="173.088655"/>
     <use style="fill:#1f77b4;stroke:#1f77b4;stroke-width:1.5;" x="286.334103" xlink:href="#m29f5bb3372" y="139.146232"/>
     <use style="fill:#1f77b4;stroke:#1f77b4;stroke-width:1.5;" x="296.784806" xlink:href="#m29f5bb3372" y="345.629822"/>
     <use style="fill:#1f77b4;stroke:#1f77b4;stroke-width:1.5;" x="307.235509" xlink:href="#m29f5bb3372" y="684.902629"/>
     <use style="fill:#1f77b4;stroke:#1f77b4;stroke-width:1.5;" x="312.878635" xlink:href="#m29f5bb3372" y="-1"/>
    </g>
   </g>
   <g id="PathCollection_2">
    <defs>
     <path d="M -3 3 
L 3 -3 
M -3 -3 
L 3 3 
" id="ma0918d805e" style="stroke:#ff7f0e;stroke-width:1.5;"/>
    </defs>
    <g clip-path="url(#pab6b9c6052)">
     <use style="fill:#ff7f0e;stroke:#ff7f0e;stroke-width:1.5;" x="45.967928" xlink:href="#ma0918d805e" y="35.017553"/>
     <use style="fill:#ff7f0e;stroke:#ff7f0e;stroke-width:1.5;" x="56.418631" xlink:href="#ma0918d805e" y="30.861971"/>
     <use style="fill:#ff7f0e;stroke:#ff7f0e;stroke-width:1.5;" x="66.869334" xlink:href="#ma0918d805e" y="32.871362"/>
     <use style="fill:#ff7f0e;stroke:#ff7f0e;stroke-width:1.5;" x="77.320038" xlink:href="#ma0918d805e" y="29.664855"/>
     <use style="fill:#ff7f0e;stroke:#ff7f0e;stroke-width:1.5;" x="87.770741" xlink:href="#ma0918d805e" y="33.432508"/>
     <use style="fill:#ff7f0e;stroke:#ff7f0e;stroke-width:1.5;" x="98.221444" xlink:href="#ma0918d805e" y="28.764811"/>
     <use style="fill:#ff7f0e;stroke:#ff7f0e;stroke-width:1.5;" x="108.672147" xlink:href="#ma0918d805e" y="34.256533"/>
     <use style="fill:#ff7f0e;stroke:#ff7f0e;stroke-width:1.5;" x="119.122851" xlink:href="#ma0918d805e" y="31.504252"/>
     <use style="fill:#ff7f0e;stroke:#ff7f0e;stroke-width:1.5;" x="129.573554" xlink:href="#ma0918d805e" y="37.528063"/>
     <use style="fill:#ff7f0e;stroke:#ff7f0e;stroke-width:1.5;" x="140.024257" xlink:href="#ma0918d805e" y="35.206916"/>
     <use style="fill:#ff7f0e;stroke:#ff7f0e;stroke-width:1.5;" x="150.47496" xlink:href="#ma0918d805e" y="44.479742"/>
     <use style="fill:#ff7f0e;stroke:#ff7f0e;stroke-width:1.5;" x="160.925664" xlink:href="#ma0918d805e" y="49.619387"/>
     <use style="fill:#ff7f0e;stroke:#ff7f0e;stroke-width:1.5;" x="171.376367" xlink:href="#ma0918d805e" y="59.775393"/>
     <use style="fill:#ff7f0e;stroke:#ff7f0e;stroke-width:1.5;" x="181.82707" xlink:href="#ma0918d805e" y="63.488337"/>
     <use style="fill:#ff7f0e;stroke:#ff7f0e;stroke-width:1.5;" x="192.277773" xlink:href="#ma0918d805e" y="79.036594"/>
     <use style="fill:#ff7f0e;stroke:#ff7f0e;stroke-width:1.5;" x="202.728477" xlink:href="#ma0918d805e" y="88.039292"/>
     <use style="fill:#ff7f0e;stroke:#ff7f0e;stroke-width:1.5;" x="213.17918" xlink:href="#ma0918d805e" y="112.204189"/>
     <use style="fill:#ff7f0e;stroke:#ff7f0e;stroke-width:1.5;" x="223.629883" xlink:href="#ma0918d805e" y="122.997852"/>
     <use style="fill:#ff7f0e;stroke:#ff7f0e;stroke-width:1.5;" x="234.080586" xlink:href="#ma0918d805e" y="141.130011"/>
     <use style="fill:#ff7f0e;stroke:#ff7f0e;stroke-width:1.5;" x="244.53129" xlink:href="#ma0918d805e" y="158.187843"/>
     <use style="fill:#ff7f0e;stroke:#ff7f0e;stroke-width:1.5;" x="254.981993" xlink:href="#ma0918d805e" y="161.452967"/>
     <use style="fill:#ff7f0e;stroke:#ff7f0e;stroke-width:1.5;" x="265.432696" xlink:href="#ma0918d805e" y="166.878546"/>
     <use style="fill:#ff7f0e;stroke:#ff7f0e;stroke-width:1.5;" x="275.883399" xlink:href="#ma0918d805e" y="173.088655"/>
     <use style="fill:#ff7f0e;stroke:#ff7f0e;stroke-width:1.5;" x="286.334103" xlink:href="#ma0918d805e" y="139.146232"/>
    </g>
   </g>
   <g id="PathCollection_3">
    <defs>
     <path d="M -3 3 
L 3 -3 
M -3 -3 
L 3 3 
" id="ma32716deec" style="stroke:#2ca02c;stroke-width:1.5;"/>
    </defs>
    <g clip-path="url(#pab6b9c6052)">
     <use style="fill:#2ca02c;stroke:#2ca02c;stroke-width:1.5;" x="45.967928" xlink:href="#ma32716deec" y="35.808301"/>
     <use style="fill:#2ca02c;stroke:#2ca02c;stroke-width:1.5;" x="56.418631" xlink:href="#ma32716deec" y="31.672408"/>
     <use style="fill:#2ca02c;stroke:#2ca02c;stroke-width:1.5;" x="66.869334" xlink:href="#ma32716deec" y="30.543681"/>
     <use style="fill:#2ca02c;stroke:#2ca02c;stroke-width:1.5;" x="77.320038" xlink:href="#ma32716deec" y="31.738871"/>
     <use style="fill:#2ca02c;stroke:#2ca02c;stroke-width:1.5;" x="87.770741" xlink:href="#ma32716deec" y="32.400912"/>
     <use style="fill:#2ca02c;stroke:#2ca02c;stroke-width:1.5;" x="98.221444" xlink:href="#ma32716deec" y="31.442764"/>
     <use style="fill:#2ca02c;stroke:#2ca02c;stroke-width:1.5;" x="108.672147" xlink:href="#ma32716deec" y="33.225069"/>
     <use style="fill:#2ca02c;stroke:#2ca02c;stroke-width:1.5;" x="119.122851" xlink:href="#ma32716deec" y="31.915206"/>
     <use style="fill:#2ca02c;stroke:#2ca02c;stroke-width:1.5;" x="129.573554" xlink:href="#ma32716deec" y="37.745675"/>
     <use style="fill:#2ca02c;stroke:#2ca02c;stroke-width:1.5;" x="140.024257" xlink:href="#ma32716deec" y="37.198356"/>
     <use style="fill:#2ca02c;stroke:#2ca02c;stroke-width:1.5;" x="150.47496" xlink:href="#ma32716deec" y="43.275845"/>
     <use style="fill:#2ca02c;stroke:#2ca02c;stroke-width:1.5;" x="160.925664" xlink:href="#ma32716deec" y="46.094047"/>
     <use style="fill:#2ca02c;stroke:#2ca02c;stroke-width:1.5;" x="171.376367" xlink:href="#ma32716deec" y="58.615416"/>
     <use style="fill:#2ca02c;stroke:#2ca02c;stroke-width:1.5;" x="181.82707" xlink:href="#ma32716deec" y="62.488798"/>
     <use style="fill:#2ca02c;stroke:#2ca02c;stroke-width:1.5;" x="192.277773" xlink:href="#ma32716deec" y="78.345715"/>
     <use style="fill:#2ca02c;stroke:#2ca02c;stroke-width:1.5;" x="202.728477" xlink:href="#ma32716deec" y="95.316945"/>
     <use style="fill:#2ca02c;stroke:#2ca02c;stroke-width:1.5;" x="213.17918" xlink:href="#ma32716deec" y="107.881658"/>
     <use style="fill:#2ca02c;stroke:#2ca02c;stroke-width:1.5;" x="223.629883" xlink:href="#ma32716deec" y="123.866106"/>
     <use style="fill:#2ca02c;stroke:#2ca02c;stroke-width:1.5;" x="234.080586" xlink:href="#ma32716deec" y="131.458022"/>
     <use style="fill:#2ca02c;stroke:#2ca02c;stroke-width:1.5;" x="244.53129" xlink:href="#ma32716deec" y="151.992615"/>
     <use style="fill:#2ca02c;stroke:#2ca02c;stroke-width:1.5;" x="254.981993" xlink:href="#ma32716deec" y="161.49426"/>
     <use style="fill:#2ca02c;stroke:#2ca02c;stroke-width:1.5;" x="265.432696" xlink:href="#ma32716deec" y="152.0485"/>
     <use style="fill:#2ca02c;stroke:#2ca02c;stroke-width:1.5;" x="275.883399" xlink:href="#ma32716deec" y="200.361558"/>
     <use style="fill:#2ca02c;stroke:#2ca02c;stroke-width:1.5;" x="286.334103" xlink:href="#ma32716deec" y="185.814078"/>
     <use style="fill:#2ca02c;stroke:#2ca02c;stroke-width:1.5;" x="296.784806" xlink:href="#ma32716deec" y="153.399795"/>
     <use style="fill:#2ca02c;stroke:#2ca02c;stroke-width:1.5;" x="300.650571" xlink:href="#ma32716deec" y="-1"/>
     <use style="fill:#2ca02c;stroke:#2ca02c;stroke-width:1.5;" x="312.55551" xlink:href="#ma32716deec" y="-1"/>
     <use style="fill:#2ca02c;stroke:#2ca02c;stroke-width:1.5;" x="317.686212" xlink:href="#ma32716deec" y="252.646023"/>
     <use style="fill:#2ca02c;stroke:#2ca02c;stroke-width:1.5;" x="328.136916" xlink:href="#ma32716deec" y="11956.986675"/>
     <use style="fill:#2ca02c;stroke:#2ca02c;stroke-width:1.5;" x="328.813745" xlink:href="#ma32716deec" y="-1"/>
    </g>
   </g>
   <g id="PathCollection_4">
    <defs>
     <path d="M -3 3 
L 3 -3 
M -3 -3 
L 3 3 
" id="m1288944262" style="stroke:#d62728;stroke-width:1.5;"/>
    </defs>
    <g clip-path="url(#pab6b9c6052)">
     <use style="fill:#d62728;stroke:#d62728;stroke-width:1.5;" x="45.967928" xlink:href="#m1288944262" y="35.808301"/>
     <use style="fill:#d62728;stroke:#d62728;stroke-width:1.5;" x="56.418631" xlink:href="#m1288944262" y="31.672408"/>
     <use style="fill:#d62728;stroke:#d62728;stroke-width:1.5;" x="66.869334" xlink:href="#m1288944262" y="30.543681"/>
     <use style="fill:#d62728;stroke:#d62728;stroke-width:1.5;" x="77.320038" xlink:href="#m1288944262" y="31.738871"/>
     <use style="fill:#d62728;stroke:#d62728;stroke-width:1.5;" x="87.770741" xlink:href="#m1288944262" y="32.400912"/>
     <use style="fill:#d62728;stroke:#d62728;stroke-width:1.5;" x="98.221444" xlink:href="#m1288944262" y="31.442764"/>
     <use style="fill:#d62728;stroke:#d62728;stroke-width:1.5;" x="108.672147" xlink:href="#m1288944262" y="33.225069"/>
     <use style="fill:#d62728;stroke:#d62728;stroke-width:1.5;" x="119.122851" xlink:href="#m1288944262" y="31.915206"/>
     <use style="fill:#d62728;stroke:#d62728;stroke-width:1.5;" x="129.573554" xlink:href="#m1288944262" y="37.745675"/>
     <use style="fill:#d62728;stroke:#d62728;stroke-width:1.5;" x="140.024257" xlink:href="#m1288944262" y="37.198356"/>
     <use style="fill:#d62728;stroke:#d62728;stroke-width:1.5;" x="150.47496" xlink:href="#m1288944262" y="43.275845"/>
     <use style="fill:#d62728;stroke:#d62728;stroke-width:1.5;" x="160.925664" xlink:href="#m1288944262" y="46.094047"/>
     <use style="fill:#d62728;stroke:#d62728;stroke-width:1.5;" x="171.376367" xlink:href="#m1288944262" y="58.615416"/>
     <use style="fill:#d62728;stroke:#d62728;stroke-width:1.5;" x="181.82707" xlink:href="#m1288944262" y="62.488798"/>
     <use style="fill:#d62728;stroke:#d62728;stroke-width:1.5;" x="192.277773" xlink:href="#m1288944262" y="78.345715"/>
     <use style="fill:#d62728;stroke:#d62728;stroke-width:1.5;" x="202.728477" xlink:href="#m1288944262" y="95.316945"/>
     <use style="fill:#d62728;stroke:#d62728;stroke-width:1.5;" x="213.17918" xlink:href="#m1288944262" y="107.881658"/>
     <use style="fill:#d62728;stroke:#d62728;stroke-width:1.5;" x="223.629883" xlink:href="#m1288944262" y="123.866106"/>
     <use style="fill:#d62728;stroke:#d62728;stroke-width:1.5;" x="234.080586" xlink:href="#m1288944262" y="131.458022"/>
     <use style="fill:#d62728;stroke:#d62728;stroke-width:1.5;" x="244.53129" xlink:href="#m1288944262" y="151.992615"/>
     <use style="fill:#d62728;stroke:#d62728;stroke-width:1.5;" x="254.981993" xlink:href="#m1288944262" y="161.49426"/>
     <use style="fill:#d62728;stroke:#d62728;stroke-width:1.5;" x="265.432696" xlink:href="#m1288944262" y="152.0485"/>
     <use style="fill:#d62728;stroke:#d62728;stroke-width:1.5;" x="275.883399" xlink:href="#m1288944262" y="200.361558"/>
     <use style="fill:#d62728;stroke:#d62728;stroke-width:1.5;" x="286.334103" xlink:href="#m1288944262" y="185.814078"/>
    </g>
   </g>
   <g id="matplotlib.axis_1">
    <g id="xtick_1">
     <g id="line2d_1">
      <defs>
       <path d="M 0 0 
L 0 3.5 
" id="m3c2af0145f" style="stroke:#000000;stroke-width:0.8;"/>
      </defs>
      <g>
       <use style="stroke:#000000;stroke-width:0.8;" x="40.773428" xlink:href="#m3c2af0145f" y="228.14"/>
      </g>
     </g>
     <g id="text_1">
      <!-- $\mathdefault{10^{-5}}$ -->
      <defs>
       <path d="M 12.40625 8.296875 
L 28.515625 8.296875 
L 28.515625 63.921875 
L 10.984375 60.40625 
L 10.984375 69.390625 
L 28.421875 72.90625 
L 38.28125 72.90625 
L 38.28125 8.296875 
L 54.390625 8.296875 
L 54.390625 0 
L 12.40625 0 
z
" id="DejaVuSans-31"/>
       <path d="M 31.78125 66.40625 
Q 24.171875 66.40625 20.328125 58.90625 
Q 16.5 51.421875 16.5 36.375 
Q 16.5 21.390625 20.328125 13.890625 
Q 24.171875 6.390625 31.78125 6.390625 
Q 39.453125 6.390625 43.28125 13.890625 
Q 47.125 21.390625 47.125 36.375 
Q 47.125 51.421875 43.28125 58.90625 
Q 39.453125 66.40625 31.78125 66.40625 
z
M 31.78125 74.21875 
Q 44.046875 74.21875 50.515625 64.515625 
Q 56.984375 54.828125 56.984375 36.375 
Q 56.984375 17.96875 50.515625 8.265625 
Q 44.046875 -1.421875 31.78125 -1.421875 
Q 19.53125 -1.421875 13.0625 8.265625 
Q 6.59375 17.96875 6.59375 36.375 
Q 6.59375 54.828125 13.0625 64.515625 
Q 19.53125 74.21875 31.78125 74.21875 
z
" id="DejaVuSans-30"/>
       <path d="M 10.59375 35.5 
L 73.1875 35.5 
L 73.1875 27.203125 
L 10.59375 27.203125 
z
" id="DejaVuSans-2212"/>
       <path d="M 10.796875 72.90625 
L 49.515625 72.90625 
L 49.515625 64.59375 
L 19.828125 64.59375 
L 19.828125 46.734375 
Q 21.96875 47.46875 24.109375 47.828125 
Q 26.265625 48.1875 28.421875 48.1875 
Q 40.625 48.1875 47.75 41.5 
Q 54.890625 34.8125 54.890625 23.390625 
Q 54.890625 11.625 47.5625 5.09375 
Q 40.234375 -1.421875 26.90625 -1.421875 
Q 22.3125 -1.421875 17.546875 -0.640625 
Q 12.796875 0.140625 7.71875 1.703125 
L 7.71875 11.625 
Q 12.109375 9.234375 16.796875 8.0625 
Q 21.484375 6.890625 26.703125 6.890625 
Q 35.15625 6.890625 40.078125 11.328125 
Q 45.015625 15.765625 45.015625 23.390625 
Q 45.015625 31 40.078125 35.4375 
Q 35.15625 39.890625 26.703125 39.890625 
Q 22.75 39.890625 18.8125 39.015625 
Q 14.890625 38.140625 10.796875 36.28125 
z
" id="DejaVuSans-35"/>
      </defs>
      <g transform="translate(29.023428 242.738437)scale(0.1 -0.1)">
       <use transform="translate(0 0.684375)" xlink:href="#DejaVuSans-31"/>
       <use transform="translate(63.623047 0.684375)" xlink:href="#DejaVuSans-30"/>
       <use transform="translate(128.203125 38.965625)scale(0.7)" xlink:href="#DejaVuSans-2212"/>
       <use transform="translate(186.855469 38.965625)scale(0.7)" xlink:href="#DejaVuSans-35"/>
      </g>
     </g>
    </g>
    <g id="xtick_2">
     <g id="line2d_2">
      <g>
       <use style="stroke:#000000;stroke-width:0.8;" x="106.37608" xlink:href="#m3c2af0145f" y="228.14"/>
      </g>
     </g>
     <g id="text_2">
      <!-- $\mathdefault{10^{-4}}$ -->
      <defs>
       <path d="M 37.796875 64.3125 
L 12.890625 25.390625 
L 37.796875 25.390625 
z
M 35.203125 72.90625 
L 47.609375 72.90625 
L 47.609375 25.390625 
L 58.015625 25.390625 
L 58.015625 17.1875 
L 47.609375 17.1875 
L 47.609375 0 
L 37.796875 0 
L 37.796875 17.1875 
L 4.890625 17.1875 
L 4.890625 26.703125 
z
" id="DejaVuSans-34"/>
      </defs>
      <g transform="translate(94.62608 242.738437)scale(0.1 -0.1)">
       <use transform="translate(0 0.684375)" xlink:href="#DejaVuSans-31"/>
       <use transform="translate(63.623047 0.684375)" xlink:href="#DejaVuSans-30"/>
       <use transform="translate(128.203125 38.965625)scale(0.7)" xlink:href="#DejaVuSans-2212"/>
       <use transform="translate(186.855469 38.965625)scale(0.7)" xlink:href="#DejaVuSans-34"/>
      </g>
     </g>
    </g>
    <g id="xtick_3">
     <g id="line2d_3">
      <g>
       <use style="stroke:#000000;stroke-width:0.8;" x="171.978732" xlink:href="#m3c2af0145f" y="228.14"/>
      </g>
     </g>
     <g id="text_3">
      <!-- $\mathdefault{10^{-3}}$ -->
      <defs>
       <path d="M 40.578125 39.3125 
Q 47.65625 37.796875 51.625 33 
Q 55.609375 28.21875 55.609375 21.1875 
Q 55.609375 10.40625 48.1875 4.484375 
Q 40.765625 -1.421875 27.09375 -1.421875 
Q 22.515625 -1.421875 17.65625 -0.515625 
Q 12.796875 0.390625 7.625 2.203125 
L 7.625 11.71875 
Q 11.71875 9.328125 16.59375 8.109375 
Q 21.484375 6.890625 26.8125 6.890625 
Q 36.078125 6.890625 40.9375 10.546875 
Q 45.796875 14.203125 45.796875 21.1875 
Q 45.796875 27.640625 41.28125 31.265625 
Q 36.765625 34.90625 28.71875 34.90625 
L 20.21875 34.90625 
L 20.21875 43.015625 
L 29.109375 43.015625 
Q 36.375 43.015625 40.234375 45.921875 
Q 44.09375 48.828125 44.09375 54.296875 
Q 44.09375 59.90625 40.109375 62.90625 
Q 36.140625 65.921875 28.71875 65.921875 
Q 24.65625 65.921875 20.015625 65.03125 
Q 15.375 64.15625 9.8125 62.3125 
L 9.8125 71.09375 
Q 15.4375 72.65625 20.34375 73.4375 
Q 25.25 74.21875 29.59375 74.21875 
Q 40.828125 74.21875 47.359375 69.109375 
Q 53.90625 64.015625 53.90625 55.328125 
Q 53.90625 49.265625 50.4375 45.09375 
Q 46.96875 40.921875 40.578125 39.3125 
z
" id="DejaVuSans-33"/>
      </defs>
      <g transform="translate(160.228732 242.738437)scale(0.1 -0.1)">
       <use transform="translate(0 0.765625)" xlink:href="#DejaVuSans-31"/>
       <use transform="translate(63.623047 0.765625)" xlink:href="#DejaVuSans-30"/>
       <use transform="translate(128.203125 39.046875)scale(0.7)" xlink:href="#DejaVuSans-2212"/>
       <use transform="translate(186.855469 39.046875)scale(0.7)" xlink:href="#DejaVuSans-33"/>
      </g>
     </g>
    </g>
    <g id="xtick_4">
     <g id="line2d_4">
      <g>
       <use style="stroke:#000000;stroke-width:0.8;" x="237.581384" xlink:href="#m3c2af0145f" y="228.14"/>
      </g>
     </g>
     <g id="text_4">
      <!-- $\mathdefault{10^{-2}}$ -->
      <defs>
       <path d="M 19.1875 8.296875 
L 53.609375 8.296875 
L 53.609375 0 
L 7.328125 0 
L 7.328125 8.296875 
Q 12.9375 14.109375 22.625 23.890625 
Q 32.328125 33.6875 34.8125 36.53125 
Q 39.546875 41.84375 41.421875 45.53125 
Q 43.3125 49.21875 43.3125 52.78125 
Q 43.3125 58.59375 39.234375 62.25 
Q 35.15625 65.921875 28.609375 65.921875 
Q 23.96875 65.921875 18.8125 64.3125 
Q 13.671875 62.703125 7.8125 59.421875 
L 7.8125 69.390625 
Q 13.765625 71.78125 18.9375 73 
Q 24.125 74.21875 28.421875 74.21875 
Q 39.75 74.21875 46.484375 68.546875 
Q 53.21875 62.890625 53.21875 53.421875 
Q 53.21875 48.921875 51.53125 44.890625 
Q 49.859375 40.875 45.40625 35.40625 
Q 44.1875 33.984375 37.640625 27.21875 
Q 31.109375 20.453125 19.1875 8.296875 
z
" id="DejaVuSans-32"/>
      </defs>
      <g transform="translate(225.831384 242.738437)scale(0.1 -0.1)">
       <use transform="translate(0 0.765625)" xlink:href="#DejaVuSans-31"/>
       <use transform="translate(63.623047 0.765625)" xlink:href="#DejaVuSans-30"/>
       <use transform="translate(128.203125 39.046875)scale(0.7)" xlink:href="#DejaVuSans-2212"/>
       <use transform="translate(186.855469 39.046875)scale(0.7)" xlink:href="#DejaVuSans-32"/>
      </g>
     </g>
    </g>
    <g id="xtick_5">
     <g id="line2d_5">
      <g>
       <use style="stroke:#000000;stroke-width:0.8;" x="303.184036" xlink:href="#m3c2af0145f" y="228.14"/>
      </g>
     </g>
     <g id="text_5">
      <!-- $\mathdefault{10^{-1}}$ -->
      <g transform="translate(291.434036 242.738437)scale(0.1 -0.1)">
       <use transform="translate(0 0.684375)" xlink:href="#DejaVuSans-31"/>
       <use transform="translate(63.623047 0.684375)" xlink:href="#DejaVuSans-30"/>
       <use transform="translate(128.203125 38.965625)scale(0.7)" xlink:href="#DejaVuSans-2212"/>
       <use transform="translate(186.855469 38.965625)scale(0.7)" xlink:href="#DejaVuSans-31"/>
      </g>
     </g>
    </g>
    <g id="xtick_6">
     <g id="line2d_6">
      <defs>
       <path d="M 0 0 
L 0 2 
" id="m2bd66bc5a6" style="stroke:#000000;stroke-width:0.6;"/>
      </defs>
      <g>
       <use style="stroke:#000000;stroke-width:0.6;" x="30.611449" xlink:href="#m2bd66bc5a6" y="228.14"/>
      </g>
     </g>
    </g>
    <g id="xtick_7">
     <g id="line2d_7">
      <g>
       <use style="stroke:#000000;stroke-width:0.6;" x="34.415874" xlink:href="#m2bd66bc5a6" y="228.14"/>
      </g>
     </g>
    </g>
    <g id="xtick_8">
     <g id="line2d_8">
      <g>
       <use style="stroke:#000000;stroke-width:0.6;" x="37.771615" xlink:href="#m2bd66bc5a6" y="228.14"/>
      </g>
     </g>
    </g>
    <g id="xtick_9">
     <g id="line2d_9">
      <g>
       <use style="stroke:#000000;stroke-width:0.6;" x="60.521794" xlink:href="#m2bd66bc5a6" y="228.14"/>
      </g>
     </g>
    </g>
    <g id="xtick_10">
     <g id="line2d_10">
      <g>
       <use style="stroke:#000000;stroke-width:0.6;" x="72.073848" xlink:href="#m2bd66bc5a6" y="228.14"/>
      </g>
     </g>
    </g>
    <g id="xtick_11">
     <g id="line2d_11">
      <g>
       <use style="stroke:#000000;stroke-width:0.6;" x="80.27016" xlink:href="#m2bd66bc5a6" y="228.14"/>
      </g>
     </g>
    </g>
    <g id="xtick_12">
     <g id="line2d_12">
      <g>
       <use style="stroke:#000000;stroke-width:0.6;" x="86.627714" xlink:href="#m2bd66bc5a6" y="228.14"/>
      </g>
     </g>
    </g>
    <g id="xtick_13">
     <g id="line2d_13">
      <g>
       <use style="stroke:#000000;stroke-width:0.6;" x="91.822214" xlink:href="#m2bd66bc5a6" y="228.14"/>
      </g>
     </g>
    </g>
    <g id="xtick_14">
     <g id="line2d_14">
      <g>
       <use style="stroke:#000000;stroke-width:0.6;" x="96.214101" xlink:href="#m2bd66bc5a6" y="228.14"/>
      </g>
     </g>
    </g>
    <g id="xtick_15">
     <g id="line2d_15">
      <g>
       <use style="stroke:#000000;stroke-width:0.6;" x="100.018526" xlink:href="#m2bd66bc5a6" y="228.14"/>
      </g>
     </g>
    </g>
    <g id="xtick_16">
     <g id="line2d_16">
      <g>
       <use style="stroke:#000000;stroke-width:0.6;" x="103.374267" xlink:href="#m2bd66bc5a6" y="228.14"/>
      </g>
     </g>
    </g>
    <g id="xtick_17">
     <g id="line2d_17">
      <g>
       <use style="stroke:#000000;stroke-width:0.6;" x="126.124446" xlink:href="#m2bd66bc5a6" y="228.14"/>
      </g>
     </g>
    </g>
    <g id="xtick_18">
     <g id="line2d_18">
      <g>
       <use style="stroke:#000000;stroke-width:0.6;" x="137.6765" xlink:href="#m2bd66bc5a6" y="228.14"/>
      </g>
     </g>
    </g>
    <g id="xtick_19">
     <g id="line2d_19">
      <g>
       <use style="stroke:#000000;stroke-width:0.6;" x="145.872812" xlink:href="#m2bd66bc5a6" y="228.14"/>
      </g>
     </g>
    </g>
    <g id="xtick_20">
     <g id="line2d_20">
      <g>
       <use style="stroke:#000000;stroke-width:0.6;" x="152.230366" xlink:href="#m2bd66bc5a6" y="228.14"/>
      </g>
     </g>
    </g>
    <g id="xtick_21">
     <g id="line2d_21">
      <g>
       <use style="stroke:#000000;stroke-width:0.6;" x="157.424866" xlink:href="#m2bd66bc5a6" y="228.14"/>
      </g>
     </g>
    </g>
    <g id="xtick_22">
     <g id="line2d_22">
      <g>
       <use style="stroke:#000000;stroke-width:0.6;" x="161.816753" xlink:href="#m2bd66bc5a6" y="228.14"/>
      </g>
     </g>
    </g>
    <g id="xtick_23">
     <g id="line2d_23">
      <g>
       <use style="stroke:#000000;stroke-width:0.6;" x="165.621178" xlink:href="#m2bd66bc5a6" y="228.14"/>
      </g>
     </g>
    </g>
    <g id="xtick_24">
     <g id="line2d_24">
      <g>
       <use style="stroke:#000000;stroke-width:0.6;" x="168.976919" xlink:href="#m2bd66bc5a6" y="228.14"/>
      </g>
     </g>
    </g>
    <g id="xtick_25">
     <g id="line2d_25">
      <g>
       <use style="stroke:#000000;stroke-width:0.6;" x="191.727098" xlink:href="#m2bd66bc5a6" y="228.14"/>
      </g>
     </g>
    </g>
    <g id="xtick_26">
     <g id="line2d_26">
      <g>
       <use style="stroke:#000000;stroke-width:0.6;" x="203.279152" xlink:href="#m2bd66bc5a6" y="228.14"/>
      </g>
     </g>
    </g>
    <g id="xtick_27">
     <g id="line2d_27">
      <g>
       <use style="stroke:#000000;stroke-width:0.6;" x="211.475464" xlink:href="#m2bd66bc5a6" y="228.14"/>
      </g>
     </g>
    </g>
    <g id="xtick_28">
     <g id="line2d_28">
      <g>
       <use style="stroke:#000000;stroke-width:0.6;" x="217.833018" xlink:href="#m2bd66bc5a6" y="228.14"/>
      </g>
     </g>
    </g>
    <g id="xtick_29">
     <g id="line2d_29">
      <g>
       <use style="stroke:#000000;stroke-width:0.6;" x="223.027518" xlink:href="#m2bd66bc5a6" y="228.14"/>
      </g>
     </g>
    </g>
    <g id="xtick_30">
     <g id="line2d_30">
      <g>
       <use style="stroke:#000000;stroke-width:0.6;" x="227.419405" xlink:href="#m2bd66bc5a6" y="228.14"/>
      </g>
     </g>
    </g>
    <g id="xtick_31">
     <g id="line2d_31">
      <g>
       <use style="stroke:#000000;stroke-width:0.6;" x="231.22383" xlink:href="#m2bd66bc5a6" y="228.14"/>
      </g>
     </g>
    </g>
    <g id="xtick_32">
     <g id="line2d_32">
      <g>
       <use style="stroke:#000000;stroke-width:0.6;" x="234.579571" xlink:href="#m2bd66bc5a6" y="228.14"/>
      </g>
     </g>
    </g>
    <g id="xtick_33">
     <g id="line2d_33">
      <g>
       <use style="stroke:#000000;stroke-width:0.6;" x="257.32975" xlink:href="#m2bd66bc5a6" y="228.14"/>
      </g>
     </g>
    </g>
    <g id="xtick_34">
     <g id="line2d_34">
      <g>
       <use style="stroke:#000000;stroke-width:0.6;" x="268.881804" xlink:href="#m2bd66bc5a6" y="228.14"/>
      </g>
     </g>
    </g>
    <g id="xtick_35">
     <g id="line2d_35">
      <g>
       <use style="stroke:#000000;stroke-width:0.6;" x="277.078116" xlink:href="#m2bd66bc5a6" y="228.14"/>
      </g>
     </g>
    </g>
    <g id="xtick_36">
     <g id="line2d_36">
      <g>
       <use style="stroke:#000000;stroke-width:0.6;" x="283.43567" xlink:href="#m2bd66bc5a6" y="228.14"/>
      </g>
     </g>
    </g>
    <g id="xtick_37">
     <g id="line2d_37">
      <g>
       <use style="stroke:#000000;stroke-width:0.6;" x="288.63017" xlink:href="#m2bd66bc5a6" y="228.14"/>
      </g>
     </g>
    </g>
    <g id="xtick_38">
     <g id="line2d_38">
      <g>
       <use style="stroke:#000000;stroke-width:0.6;" x="293.022057" xlink:href="#m2bd66bc5a6" y="228.14"/>
      </g>
     </g>
    </g>
    <g id="xtick_39">
     <g id="line2d_39">
      <g>
       <use style="stroke:#000000;stroke-width:0.6;" x="296.826482" xlink:href="#m2bd66bc5a6" y="228.14"/>
      </g>
     </g>
    </g>
    <g id="xtick_40">
     <g id="line2d_40">
      <g>
       <use style="stroke:#000000;stroke-width:0.6;" x="300.182223" xlink:href="#m2bd66bc5a6" y="228.14"/>
      </g>
     </g>
    </g>
    <g id="xtick_41">
     <g id="line2d_41">
      <g>
       <use style="stroke:#000000;stroke-width:0.6;" x="322.932402" xlink:href="#m2bd66bc5a6" y="228.14"/>
      </g>
     </g>
    </g>
    <g id="xtick_42">
     <g id="line2d_42">
      <g>
       <use style="stroke:#000000;stroke-width:0.6;" x="334.484456" xlink:href="#m2bd66bc5a6" y="228.14"/>
      </g>
     </g>
    </g>
    <g id="xtick_43">
     <g id="line2d_43">
      <g>
       <use style="stroke:#000000;stroke-width:0.6;" x="342.680768" xlink:href="#m2bd66bc5a6" y="228.14"/>
      </g>
     </g>
    </g>
    <g id="xtick_44">
     <g id="line2d_44">
      <g>
       <use style="stroke:#000000;stroke-width:0.6;" x="349.038322" xlink:href="#m2bd66bc5a6" y="228.14"/>
      </g>
     </g>
    </g>
    <g id="xtick_45">
     <g id="line2d_45">
      <g>
       <use style="stroke:#000000;stroke-width:0.6;" x="354.232822" xlink:href="#m2bd66bc5a6" y="228.14"/>
      </g>
     </g>
    </g>
    <g id="xtick_46">
     <g id="line2d_46">
      <g>
       <use style="stroke:#000000;stroke-width:0.6;" x="358.624709" xlink:href="#m2bd66bc5a6" y="228.14"/>
      </g>
     </g>
    </g>
    <g id="xtick_47">
     <g id="line2d_47">
      <g>
       <use style="stroke:#000000;stroke-width:0.6;" x="362.429134" xlink:href="#m2bd66bc5a6" y="228.14"/>
      </g>
     </g>
    </g>
   </g>
   <g id="matplotlib.axis_2">
    <g id="ytick_1">
     <g id="line2d_48">
      <defs>
       <path d="M 0 0 
L -3.5 0 
" id="m83aef5ba21" style="stroke:#000000;stroke-width:0.8;"/>
      </defs>
      <g>
       <use style="stroke:#000000;stroke-width:0.8;" x="30.103125" xlink:href="#m83aef5ba21" y="228.14"/>
      </g>
     </g>
     <g id="text_6">
      <!-- 0.0 -->
      <defs>
       <path d="M 10.6875 12.40625 
L 21 12.40625 
L 21 0 
L 10.6875 0 
z
" id="DejaVuSans-2e"/>
      </defs>
      <g transform="translate(7.2 231.939219)scale(0.1 -0.1)">
       <use xlink:href="#DejaVuSans-30"/>
       <use x="63.623047" xlink:href="#DejaVuSans-2e"/>
       <use x="95.410156" xlink:href="#DejaVuSans-30"/>
      </g>
     </g>
    </g>
    <g id="ytick_2">
     <g id="line2d_49">
      <g>
       <use style="stroke:#000000;stroke-width:0.8;" x="30.103125" xlink:href="#m83aef5ba21" y="188.605455"/>
      </g>
     </g>
     <g id="text_7">
      <!-- 0.2 -->
      <g transform="translate(7.2 192.404673)scale(0.1 -0.1)">
       <use xlink:href="#DejaVuSans-30"/>
       <use x="63.623047" xlink:href="#DejaVuSans-2e"/>
       <use x="95.410156" xlink:href="#DejaVuSans-32"/>
      </g>
     </g>
    </g>
    <g id="ytick_3">
     <g id="line2d_50">
      <g>
       <use style="stroke:#000000;stroke-width:0.8;" x="30.103125" xlink:href="#m83aef5ba21" y="149.070909"/>
      </g>
     </g>
     <g id="text_8">
      <!-- 0.4 -->
      <g transform="translate(7.2 152.870128)scale(0.1 -0.1)">
       <use xlink:href="#DejaVuSans-30"/>
       <use x="63.623047" xlink:href="#DejaVuSans-2e"/>
       <use x="95.410156" xlink:href="#DejaVuSans-34"/>
      </g>
     </g>
    </g>
    <g id="ytick_4">
     <g id="line2d_51">
      <g>
       <use style="stroke:#000000;stroke-width:0.8;" x="30.103125" xlink:href="#m83aef5ba21" y="109.536364"/>
      </g>
     </g>
     <g id="text_9">
      <!-- 0.6 -->
      <defs>
       <path d="M 33.015625 40.375 
Q 26.375 40.375 22.484375 35.828125 
Q 18.609375 31.296875 18.609375 23.390625 
Q 18.609375 15.53125 22.484375 10.953125 
Q 26.375 6.390625 33.015625 6.390625 
Q 39.65625 6.390625 43.53125 10.953125 
Q 47.40625 15.53125 47.40625 23.390625 
Q 47.40625 31.296875 43.53125 35.828125 
Q 39.65625 40.375 33.015625 40.375 
z
M 52.59375 71.296875 
L 52.59375 62.3125 
Q 48.875 64.0625 45.09375 64.984375 
Q 41.3125 65.921875 37.59375 65.921875 
Q 27.828125 65.921875 22.671875 59.328125 
Q 17.53125 52.734375 16.796875 39.40625 
Q 19.671875 43.65625 24.015625 45.921875 
Q 28.375 48.1875 33.59375 48.1875 
Q 44.578125 48.1875 50.953125 41.515625 
Q 57.328125 34.859375 57.328125 23.390625 
Q 57.328125 12.15625 50.6875 5.359375 
Q 44.046875 -1.421875 33.015625 -1.421875 
Q 20.359375 -1.421875 13.671875 8.265625 
Q 6.984375 17.96875 6.984375 36.375 
Q 6.984375 53.65625 15.1875 63.9375 
Q 23.390625 74.21875 37.203125 74.21875 
Q 40.921875 74.21875 44.703125 73.484375 
Q 48.484375 72.75 52.59375 71.296875 
z
" id="DejaVuSans-36"/>
      </defs>
      <g transform="translate(7.2 113.335582)scale(0.1 -0.1)">
       <use xlink:href="#DejaVuSans-30"/>
       <use x="63.623047" xlink:href="#DejaVuSans-2e"/>
       <use x="95.410156" xlink:href="#DejaVuSans-36"/>
      </g>
     </g>
    </g>
    <g id="ytick_5">
     <g id="line2d_52">
      <g>
       <use style="stroke:#000000;stroke-width:0.8;" x="30.103125" xlink:href="#m83aef5ba21" y="70.001818"/>
      </g>
     </g>
     <g id="text_10">
      <!-- 0.8 -->
      <defs>
       <path d="M 31.78125 34.625 
Q 24.75 34.625 20.71875 30.859375 
Q 16.703125 27.09375 16.703125 20.515625 
Q 16.703125 13.921875 20.71875 10.15625 
Q 24.75 6.390625 31.78125 6.390625 
Q 38.8125 6.390625 42.859375 10.171875 
Q 46.921875 13.96875 46.921875 20.515625 
Q 46.921875 27.09375 42.890625 30.859375 
Q 38.875 34.625 31.78125 34.625 
z
M 21.921875 38.8125 
Q 15.578125 40.375 12.03125 44.71875 
Q 8.5 49.078125 8.5 55.328125 
Q 8.5 64.0625 14.71875 69.140625 
Q 20.953125 74.21875 31.78125 74.21875 
Q 42.671875 74.21875 48.875 69.140625 
Q 55.078125 64.0625 55.078125 55.328125 
Q 55.078125 49.078125 51.53125 44.71875 
Q 48 40.375 41.703125 38.8125 
Q 48.828125 37.15625 52.796875 32.3125 
Q 56.78125 27.484375 56.78125 20.515625 
Q 56.78125 9.90625 50.3125 4.234375 
Q 43.84375 -1.421875 31.78125 -1.421875 
Q 19.734375 -1.421875 13.25 4.234375 
Q 6.78125 9.90625 6.78125 20.515625 
Q 6.78125 27.484375 10.78125 32.3125 
Q 14.796875 37.15625 21.921875 38.8125 
z
M 18.3125 54.390625 
Q 18.3125 48.734375 21.84375 45.5625 
Q 25.390625 42.390625 31.78125 42.390625 
Q 38.140625 42.390625 41.71875 45.5625 
Q 45.3125 48.734375 45.3125 54.390625 
Q 45.3125 60.0625 41.71875 63.234375 
Q 38.140625 66.40625 31.78125 66.40625 
Q 25.390625 66.40625 21.84375 63.234375 
Q 18.3125 60.0625 18.3125 54.390625 
z
" id="DejaVuSans-38"/>
      </defs>
      <g transform="translate(7.2 73.801037)scale(0.1 -0.1)">
       <use xlink:href="#DejaVuSans-30"/>
       <use x="63.623047" xlink:href="#DejaVuSans-2e"/>
       <use x="95.410156" xlink:href="#DejaVuSans-38"/>
      </g>
     </g>
    </g>
    <g id="ytick_6">
     <g id="line2d_53">
      <g>
       <use style="stroke:#000000;stroke-width:0.8;" x="30.103125" xlink:href="#m83aef5ba21" y="30.467273"/>
      </g>
     </g>
     <g id="text_11">
      <!-- 1.0 -->
      <g transform="translate(7.2 34.266491)scale(0.1 -0.1)">
       <use xlink:href="#DejaVuSans-31"/>
       <use x="63.623047" xlink:href="#DejaVuSans-2e"/>
       <use x="95.410156" xlink:href="#DejaVuSans-30"/>
      </g>
     </g>
    </g>
   </g>
   <g id="line2d_54">
    <path clip-path="url(#pab6b9c6052)" d="M 45.967928 31.075494 
L 56.418631 31.212122 
L 66.869334 31.410525 
L 77.320038 31.698468 
L 87.770741 32.116003 
L 98.221444 32.720707 
L 108.672147 33.594904 
L 119.122851 34.855395 
L 129.573554 36.665973 
L 140.024257 39.252354 
L 150.47496 42.917373 
L 160.925664 48.05055 
L 171.376367 55.119019 
L 181.82707 64.615466 
L 192.277773 76.925605 
L 202.728477 92.076561 
L 213.17918 109.374558 
L 223.629883 127.091721 
L 234.080586 142.608471 
L 244.53129 153.461338 
L 254.981993 158.966052 
L 265.432696 160.735514 
L 275.883399 161.034591 
L 286.334103 161.055099 
" style="fill:none;stroke:#1f77b4;stroke-linecap:square;stroke-width:1.5;"/>
   </g>
   <g id="line2d_55">
    <path clip-path="url(#pab6b9c6052)" d="M 45.967928 28.564001 
L 56.418631 28.985047 
L 66.869334 29.534507 
L 77.320038 30.250876 
L 87.770741 31.183707 
L 98.221444 32.396459 
L 108.672147 33.969815 
L 119.122851 36.005387 
L 129.573554 38.629491 
L 140.024257 41.99637 
L 150.47496 46.289698 
L 160.925664 51.720367 
L 171.376367 58.517473 
L 181.82707 66.908046 
L 192.277773 77.080063 
L 202.728477 89.123593 
L 213.17918 102.948936 
L 223.629883 118.191352 
L 234.080586 134.132343 
L 244.53129 149.694249 
L 254.981993 163.580811 
L 265.432696 174.603731 
L 275.883399 182.117712 
L 286.334103 186.320777 
" style="fill:none;stroke:#ff7f0e;stroke-linecap:square;stroke-width:1.5;"/>
   </g>
   <g id="patch_3">
    <path d="M 30.103125 228.14 
L 30.103125 10.7 
" style="fill:none;stroke:#000000;stroke-linecap:square;stroke-linejoin:miter;stroke-width:0.8;"/>
   </g>
   <g id="patch_4">
    <path d="M 364.903125 228.14 
L 364.903125 10.7 
" style="fill:none;stroke:#000000;stroke-linecap:square;stroke-linejoin:miter;stroke-width:0.8;"/>
   </g>
   <g id="patch_5">
    <path d="M 30.103125 228.14 
L 364.903125 228.14 
" style="fill:none;stroke:#000000;stroke-linecap:square;stroke-linejoin:miter;stroke-width:0.8;"/>
   </g>
   <g id="patch_6">
    <path d="M 30.103125 10.7 
L 364.903125 10.7 
" style="fill:none;stroke:#000000;stroke-linecap:square;stroke-linejoin:miter;stroke-width:0.8;"/>
   </g>
   <g id="legend_1">
    <g id="patch_7">
     <path d="M 37.103125 223.14 
L 111.317188 223.14 
Q 113.317188 223.14 113.317188 221.14 
L 113.317188 163.4275 
Q 113.317188 161.4275 111.317188 161.4275 
L 37.103125 161.4275 
Q 35.103125 161.4275 35.103125 163.4275 
L 35.103125 221.14 
Q 35.103125 223.14 37.103125 223.14 
z
" style="fill:#ffffff;opacity:0.8;stroke:#cccccc;stroke-linejoin:miter;"/>
    </g>
    <g id="PathCollection_5">
     <g>
      <use style="fill:#1f77b4;stroke:#1f77b4;stroke-width:1.5;" x="49.103125" xlink:href="#m29f5bb3372" y="170.400937"/>
     </g>
    </g>
    <g id="text_12">
     <!-- SIN -->
     <defs>
      <path d="M 53.515625 70.515625 
L 53.515625 60.890625 
Q 47.90625 63.578125 42.921875 64.890625 
Q 37.9375 66.21875 33.296875 66.21875 
Q 25.25 66.21875 20.875 63.09375 
Q 16.5 59.96875 16.5 54.203125 
Q 16.5 49.359375 19.40625 46.890625 
Q 22.3125 44.4375 30.421875 42.921875 
L 36.375 41.703125 
Q 47.40625 39.59375 52.65625 34.296875 
Q 57.90625 29 57.90625 20.125 
Q 57.90625 9.515625 50.796875 4.046875 
Q 43.703125 -1.421875 29.984375 -1.421875 
Q 24.8125 -1.421875 18.96875 -0.25 
Q 13.140625 0.921875 6.890625 3.21875 
L 6.890625 13.375 
Q 12.890625 10.015625 18.65625 8.296875 
Q 24.421875 6.59375 29.984375 6.59375 
Q 38.421875 6.59375 43.015625 9.90625 
Q 47.609375 13.234375 47.609375 19.390625 
Q 47.609375 24.75 44.3125 27.78125 
Q 41.015625 30.8125 33.5 32.328125 
L 27.484375 33.5 
Q 16.453125 35.6875 11.515625 40.375 
Q 6.59375 45.0625 6.59375 53.421875 
Q 6.59375 63.09375 13.40625 68.65625 
Q 20.21875 74.21875 32.171875 74.21875 
Q 37.3125 74.21875 42.625 73.28125 
Q 47.953125 72.359375 53.515625 70.515625 
z
" id="DejaVuSans-53"/>
      <path d="M 9.8125 72.90625 
L 19.671875 72.90625 
L 19.671875 0 
L 9.8125 0 
z
" id="DejaVuSans-49"/>
      <path d="M 9.8125 72.90625 
L 23.09375 72.90625 
L 55.421875 11.921875 
L 55.421875 72.90625 
L 64.984375 72.90625 
L 64.984375 0 
L 51.703125 0 
L 19.390625 60.984375 
L 19.390625 0 
L 9.8125 0 
z
" id="DejaVuSans-4e"/>
     </defs>
     <g transform="translate(67.103125 173.025937)scale(0.1 -0.1)">
      <use xlink:href="#DejaVuSans-53"/>
      <use x="63.476562" xlink:href="#DejaVuSans-49"/>
      <use x="92.96875" xlink:href="#DejaVuSans-4e"/>
     </g>
    </g>
    <g id="PathCollection_6">
     <g>
      <use style="fill:#ff7f0e;stroke:#ff7f0e;stroke-width:1.5;" x="49.103125" xlink:href="#ma0918d805e" y="185.079062"/>
     </g>
    </g>
    <g id="text_13">
     <!-- selected -->
     <defs>
      <path d="M 44.28125 53.078125 
L 44.28125 44.578125 
Q 40.484375 46.53125 36.375 47.5 
Q 32.28125 48.484375 27.875 48.484375 
Q 21.1875 48.484375 17.84375 46.4375 
Q 14.5 44.390625 14.5 40.28125 
Q 14.5 37.15625 16.890625 35.375 
Q 19.28125 33.59375 26.515625 31.984375 
L 29.59375 31.296875 
Q 39.15625 29.25 43.1875 25.515625 
Q 47.21875 21.78125 47.21875 15.09375 
Q 47.21875 7.46875 41.1875 3.015625 
Q 35.15625 -1.421875 24.609375 -1.421875 
Q 20.21875 -1.421875 15.453125 -0.5625 
Q 10.6875 0.296875 5.421875 2 
L 5.421875 11.28125 
Q 10.40625 8.6875 15.234375 7.390625 
Q 20.0625 6.109375 24.8125 6.109375 
Q 31.15625 6.109375 34.5625 8.28125 
Q 37.984375 10.453125 37.984375 14.40625 
Q 37.984375 18.0625 35.515625 20.015625 
Q 33.0625 21.96875 24.703125 23.78125 
L 21.578125 24.515625 
Q 13.234375 26.265625 9.515625 29.90625 
Q 5.8125 33.546875 5.8125 39.890625 
Q 5.8125 47.609375 11.28125 51.796875 
Q 16.75 56 26.8125 56 
Q 31.78125 56 36.171875 55.265625 
Q 40.578125 54.546875 44.28125 53.078125 
z
" id="DejaVuSans-73"/>
      <path d="M 56.203125 29.59375 
L 56.203125 25.203125 
L 14.890625 25.203125 
Q 15.484375 15.921875 20.484375 11.0625 
Q 25.484375 6.203125 34.421875 6.203125 
Q 39.59375 6.203125 44.453125 7.46875 
Q 49.3125 8.734375 54.109375 11.28125 
L 54.109375 2.78125 
Q 49.265625 0.734375 44.1875 -0.34375 
Q 39.109375 -1.421875 33.890625 -1.421875 
Q 20.796875 -1.421875 13.15625 6.1875 
Q 5.515625 13.8125 5.515625 26.8125 
Q 5.515625 40.234375 12.765625 48.109375 
Q 20.015625 56 32.328125 56 
Q 43.359375 56 49.78125 48.890625 
Q 56.203125 41.796875 56.203125 29.59375 
z
M 47.21875 32.234375 
Q 47.125 39.59375 43.09375 43.984375 
Q 39.0625 48.390625 32.421875 48.390625 
Q 24.90625 48.390625 20.390625 44.140625 
Q 15.875 39.890625 15.1875 32.171875 
z
" id="DejaVuSans-65"/>
      <path d="M 9.421875 75.984375 
L 18.40625 75.984375 
L 18.40625 0 
L 9.421875 0 
z
" id="DejaVuSans-6c"/>
      <path d="M 48.78125 52.59375 
L 48.78125 44.1875 
Q 44.96875 46.296875 41.140625 47.34375 
Q 37.3125 48.390625 33.40625 48.390625 
Q 24.65625 48.390625 19.8125 42.84375 
Q 14.984375 37.3125 14.984375 27.296875 
Q 14.984375 17.28125 19.8125 11.734375 
Q 24.65625 6.203125 33.40625 6.203125 
Q 37.3125 6.203125 41.140625 7.25 
Q 44.96875 8.296875 48.78125 10.40625 
L 48.78125 2.09375 
Q 45.015625 0.34375 40.984375 -0.53125 
Q 36.96875 -1.421875 32.421875 -1.421875 
Q 20.0625 -1.421875 12.78125 6.34375 
Q 5.515625 14.109375 5.515625 27.296875 
Q 5.515625 40.671875 12.859375 48.328125 
Q 20.21875 56 33.015625 56 
Q 37.15625 56 41.109375 55.140625 
Q 45.0625 54.296875 48.78125 52.59375 
z
" id="DejaVuSans-63"/>
      <path d="M 18.3125 70.21875 
L 18.3125 54.6875 
L 36.8125 54.6875 
L 36.8125 47.703125 
L 18.3125 47.703125 
L 18.3125 18.015625 
Q 18.3125 11.328125 20.140625 9.421875 
Q 21.96875 7.515625 27.59375 7.515625 
L 36.8125 7.515625 
L 36.8125 0 
L 27.59375 0 
Q 17.1875 0 13.234375 3.875 
Q 9.28125 7.765625 9.28125 18.015625 
L 9.28125 47.703125 
L 2.6875 47.703125 
L 2.6875 54.6875 
L 9.28125 54.6875 
L 9.28125 70.21875 
z
" id="DejaVuSans-74"/>
      <path d="M 45.40625 46.390625 
L 45.40625 75.984375 
L 54.390625 75.984375 
L 54.390625 0 
L 45.40625 0 
L 45.40625 8.203125 
Q 42.578125 3.328125 38.25 0.953125 
Q 33.9375 -1.421875 27.875 -1.421875 
Q 17.96875 -1.421875 11.734375 6.484375 
Q 5.515625 14.40625 5.515625 27.296875 
Q 5.515625 40.1875 11.734375 48.09375 
Q 17.96875 56 27.875 56 
Q 33.9375 56 38.25 53.625 
Q 42.578125 51.265625 45.40625 46.390625 
z
M 14.796875 27.296875 
Q 14.796875 17.390625 18.875 11.75 
Q 22.953125 6.109375 30.078125 6.109375 
Q 37.203125 6.109375 41.296875 11.75 
Q 45.40625 17.390625 45.40625 27.296875 
Q 45.40625 37.203125 41.296875 42.84375 
Q 37.203125 48.484375 30.078125 48.484375 
Q 22.953125 48.484375 18.875 42.84375 
Q 14.796875 37.203125 14.796875 27.296875 
z
" id="DejaVuSans-64"/>
     </defs>
     <g transform="translate(67.103125 187.704062)scale(0.1 -0.1)">
      <use xlink:href="#DejaVuSans-73"/>
      <use x="52.099609" xlink:href="#DejaVuSans-65"/>
      <use x="113.623047" xlink:href="#DejaVuSans-6c"/>
      <use x="141.40625" xlink:href="#DejaVuSans-65"/>
      <use x="202.929688" xlink:href="#DejaVuSans-63"/>
      <use x="257.910156" xlink:href="#DejaVuSans-74"/>
      <use x="297.119141" xlink:href="#DejaVuSans-65"/>
      <use x="358.642578" xlink:href="#DejaVuSans-64"/>
     </g>
    </g>
    <g id="PathCollection_7">
     <g>
      <use style="fill:#2ca02c;stroke:#2ca02c;stroke-width:1.5;" x="49.103125" xlink:href="#ma32716deec" y="199.757187"/>
     </g>
    </g>
    <g id="text_14">
     <!-- COS -->
     <defs>
      <path d="M 64.40625 67.28125 
L 64.40625 56.890625 
Q 59.421875 61.53125 53.78125 63.8125 
Q 48.140625 66.109375 41.796875 66.109375 
Q 29.296875 66.109375 22.65625 58.46875 
Q 16.015625 50.828125 16.015625 36.375 
Q 16.015625 21.96875 22.65625 14.328125 
Q 29.296875 6.6875 41.796875 6.6875 
Q 48.140625 6.6875 53.78125 8.984375 
Q 59.421875 11.28125 64.40625 15.921875 
L 64.40625 5.609375 
Q 59.234375 2.09375 53.4375 0.328125 
Q 47.65625 -1.421875 41.21875 -1.421875 
Q 24.65625 -1.421875 15.125 8.703125 
Q 5.609375 18.84375 5.609375 36.375 
Q 5.609375 53.953125 15.125 64.078125 
Q 24.65625 74.21875 41.21875 74.21875 
Q 47.75 74.21875 53.53125 72.484375 
Q 59.328125 70.75 64.40625 67.28125 
z
" id="DejaVuSans-43"/>
      <path d="M 39.40625 66.21875 
Q 28.65625 66.21875 22.328125 58.203125 
Q 16.015625 50.203125 16.015625 36.375 
Q 16.015625 22.609375 22.328125 14.59375 
Q 28.65625 6.59375 39.40625 6.59375 
Q 50.140625 6.59375 56.421875 14.59375 
Q 62.703125 22.609375 62.703125 36.375 
Q 62.703125 50.203125 56.421875 58.203125 
Q 50.140625 66.21875 39.40625 66.21875 
z
M 39.40625 74.21875 
Q 54.734375 74.21875 63.90625 63.9375 
Q 73.09375 53.65625 73.09375 36.375 
Q 73.09375 19.140625 63.90625 8.859375 
Q 54.734375 -1.421875 39.40625 -1.421875 
Q 24.03125 -1.421875 14.8125 8.828125 
Q 5.609375 19.09375 5.609375 36.375 
Q 5.609375 53.65625 14.8125 63.9375 
Q 24.03125 74.21875 39.40625 74.21875 
z
" id="DejaVuSans-4f"/>
     </defs>
     <g transform="translate(67.103125 202.382187)scale(0.1 -0.1)">
      <use xlink:href="#DejaVuSans-43"/>
      <use x="69.824219" xlink:href="#DejaVuSans-4f"/>
      <use x="148.535156" xlink:href="#DejaVuSans-53"/>
     </g>
    </g>
    <g id="PathCollection_8">
     <g>
      <use style="fill:#d62728;stroke:#d62728;stroke-width:1.5;" x="49.103125" xlink:href="#m1288944262" y="214.435312"/>
     </g>
    </g>
    <g id="text_15">
     <!-- selected -->
     <g transform="translate(67.103125 217.060312)scale(0.1 -0.1)">
      <use xlink:href="#DejaVuSans-73"/>
      <use x="52.099609" xlink:href="#DejaVuSans-65"/>
      <use x="113.623047" xlink:href="#DejaVuSans-6c"/>
      <use x="141.40625" xlink:href="#DejaVuSans-65"/>
      <use x="202.929688" xlink:href="#DejaVuSans-63"/>
      <use x="257.910156" xlink:href="#DejaVuSans-74"/>
      <use x="297.119141" xlink:href="#DejaVuSans-65"/>
      <use x="358.642578" xlink:href="#DejaVuSans-64"/>
     </g>
    </g>
   </g>
  </g>
 </g>
 <defs>
  <clipPath id="pab6b9c6052">
   <rect height="217.44" width="334.8" x="30.103125" y="10.7"/>
  </clipPath>
 </defs>
</svg>
