<?xml version="1.0" encoding="utf-8" standalone="no"?>
<!DOCTYPE svg PUBLIC "-//W3C//DTD SVG 1.1//EN"
  "http://www.w3.org/Graphics/SVG/1.1/DTD/svg11.dtd">
<!-- Created with matplotlib (http://matplotlib.org/) -->
<svg height="494.754375pt" version="1.1" viewBox="0 0 720.903125 494.754375" width="720.903125pt" xmlns="http://www.w3.org/2000/svg" xmlns:xlink="http://www.w3.org/1999/xlink">
 <defs>
  <style type="text/css">
*{stroke-linecap:butt;stroke-linejoin:round;}
  </style>
 </defs>
 <g id="figure_1">
  <g id="patch_1">
   <path d="M 0 494.754375 
L 720.903125 494.754375 
L 720.903125 0 
L 0 0 
z
" style="fill:#ffffff;"/>
  </g>
  <g id="axes_1">
   <g id="patch_2">
    <path d="M 40.603125 457.198125 
L 710.203125 457.198125 
L 710.203125 22.318125 
L 40.603125 22.318125 
z
" style="fill:#ffffff;"/>
   </g>
   <g id="matplotlib.axis_1">
    <g id="xtick_1">
     <g id="line2d_1">
      <defs>
       <path d="M 0 0 
L 0 3.5 
" id="m9591a180d7" style="stroke:#000000;stroke-width:0.8;"/>
      </defs>
      <g>
       <use style="stroke:#000000;stroke-width:0.8;" x="43.430547" xlink:href="#m9591a180d7" y="457.198125"/>
      </g>
     </g>
     <g id="text_1">
      <!-- 225 -->
      <defs>
       <path d="M 19.1875 8.296875 
L 53.609375 8.296875 
L 53.609375 0 
L 7.328125 0 
L 7.328125 8.296875 
Q 12.9375 14.109375 22.625 23.890625 
Q 32.328125 33.6875 34.8125 36.53125 
Q 39.546875 41.84375 41.421875 45.53125 
Q 43.3125 49.21875 43.3125 52.78125 
Q 43.3125 58.59375 39.234375 62.25 
Q 35.15625 65.921875 28.609375 65.921875 
Q 23.96875 65.921875 18.8125 64.3125 
Q 13.671875 62.703125 7.8125 59.421875 
L 7.8125 69.390625 
Q 13.765625 71.78125 18.9375 73 
Q 24.125 74.21875 28.421875 74.21875 
Q 39.75 74.21875 46.484375 68.546875 
Q 53.21875 62.890625 53.21875 53.421875 
Q 53.21875 48.921875 51.53125 44.890625 
Q 49.859375 40.875 45.40625 35.40625 
Q 44.1875 33.984375 37.640625 27.21875 
Q 31.109375 20.453125 19.1875 8.296875 
z
" id="DejaVuSans-32"/>
       <path d="M 10.796875 72.90625 
L 49.515625 72.90625 
L 49.515625 64.59375 
L 19.828125 64.59375 
L 19.828125 46.734375 
Q 21.96875 47.46875 24.109375 47.828125 
Q 26.265625 48.1875 28.421875 48.1875 
Q 40.625 48.1875 47.75 41.5 
Q 54.890625 34.8125 54.890625 23.390625 
Q 54.890625 11.625 47.5625 5.09375 
Q 40.234375 -1.421875 26.90625 -1.421875 
Q 22.3125 -1.421875 17.546875 -0.640625 
Q 12.796875 0.140625 7.71875 1.703125 
L 7.71875 11.625 
Q 12.109375 9.234375 16.796875 8.0625 
Q 21.484375 6.890625 26.703125 6.890625 
Q 35.15625 6.890625 40.078125 11.328125 
Q 45.015625 15.765625 45.015625 23.390625 
Q 45.015625 31 40.078125 35.4375 
Q 35.15625 39.890625 26.703125 39.890625 
Q 22.75 39.890625 18.8125 39.015625 
Q 14.890625 38.140625 10.796875 36.28125 
z
" id="DejaVuSans-35"/>
      </defs>
      <g transform="translate(33.886797 471.796562)scale(0.1 -0.1)">
       <use xlink:href="#DejaVuSans-32"/>
       <use x="63.623047" xlink:href="#DejaVuSans-32"/>
       <use x="127.246094" xlink:href="#DejaVuSans-35"/>
      </g>
     </g>
    </g>
    <g id="xtick_2">
     <g id="line2d_2">
      <g>
       <use style="stroke:#000000;stroke-width:0.8;" x="119.030059" xlink:href="#m9591a180d7" y="457.198125"/>
      </g>
     </g>
     <g id="text_2">
      <!-- 250 -->
      <defs>
       <path d="M 31.78125 66.40625 
Q 24.171875 66.40625 20.328125 58.90625 
Q 16.5 51.421875 16.5 36.375 
Q 16.5 21.390625 20.328125 13.890625 
Q 24.171875 6.390625 31.78125 6.390625 
Q 39.453125 6.390625 43.28125 13.890625 
Q 47.125 21.390625 47.125 36.375 
Q 47.125 51.421875 43.28125 58.90625 
Q 39.453125 66.40625 31.78125 66.40625 
z
M 31.78125 74.21875 
Q 44.046875 74.21875 50.515625 64.515625 
Q 56.984375 54.828125 56.984375 36.375 
Q 56.984375 17.96875 50.515625 8.265625 
Q 44.046875 -1.421875 31.78125 -1.421875 
Q 19.53125 -1.421875 13.0625 8.265625 
Q 6.59375 17.96875 6.59375 36.375 
Q 6.59375 54.828125 13.0625 64.515625 
Q 19.53125 74.21875 31.78125 74.21875 
z
" id="DejaVuSans-30"/>
      </defs>
      <g transform="translate(109.486309 471.796562)scale(0.1 -0.1)">
       <use xlink:href="#DejaVuSans-32"/>
       <use x="63.623047" xlink:href="#DejaVuSans-35"/>
       <use x="127.246094" xlink:href="#DejaVuSans-30"/>
      </g>
     </g>
    </g>
    <g id="xtick_3">
     <g id="line2d_3">
      <g>
       <use style="stroke:#000000;stroke-width:0.8;" x="194.629571" xlink:href="#m9591a180d7" y="457.198125"/>
      </g>
     </g>
     <g id="text_3">
      <!-- 275 -->
      <defs>
       <path d="M 8.203125 72.90625 
L 55.078125 72.90625 
L 55.078125 68.703125 
L 28.609375 0 
L 18.3125 0 
L 43.21875 64.59375 
L 8.203125 64.59375 
z
" id="DejaVuSans-37"/>
      </defs>
      <g transform="translate(185.085821 471.796562)scale(0.1 -0.1)">
       <use xlink:href="#DejaVuSans-32"/>
       <use x="63.623047" xlink:href="#DejaVuSans-37"/>
       <use x="127.246094" xlink:href="#DejaVuSans-35"/>
      </g>
     </g>
    </g>
    <g id="xtick_4">
     <g id="line2d_4">
      <g>
       <use style="stroke:#000000;stroke-width:0.8;" x="270.229084" xlink:href="#m9591a180d7" y="457.198125"/>
      </g>
     </g>
     <g id="text_4">
      <!-- 300 -->
      <defs>
       <path d="M 40.578125 39.3125 
Q 47.65625 37.796875 51.625 33 
Q 55.609375 28.21875 55.609375 21.1875 
Q 55.609375 10.40625 48.1875 4.484375 
Q 40.765625 -1.421875 27.09375 -1.421875 
Q 22.515625 -1.421875 17.65625 -0.515625 
Q 12.796875 0.390625 7.625 2.203125 
L 7.625 11.71875 
Q 11.71875 9.328125 16.59375 8.109375 
Q 21.484375 6.890625 26.8125 6.890625 
Q 36.078125 6.890625 40.9375 10.546875 
Q 45.796875 14.203125 45.796875 21.1875 
Q 45.796875 27.640625 41.28125 31.265625 
Q 36.765625 34.90625 28.71875 34.90625 
L 20.21875 34.90625 
L 20.21875 43.015625 
L 29.109375 43.015625 
Q 36.375 43.015625 40.234375 45.921875 
Q 44.09375 48.828125 44.09375 54.296875 
Q 44.09375 59.90625 40.109375 62.90625 
Q 36.140625 65.921875 28.71875 65.921875 
Q 24.65625 65.921875 20.015625 65.03125 
Q 15.375 64.15625 9.8125 62.3125 
L 9.8125 71.09375 
Q 15.4375 72.65625 20.34375 73.4375 
Q 25.25 74.21875 29.59375 74.21875 
Q 40.828125 74.21875 47.359375 69.109375 
Q 53.90625 64.015625 53.90625 55.328125 
Q 53.90625 49.265625 50.4375 45.09375 
Q 46.96875 40.921875 40.578125 39.3125 
z
" id="DejaVuSans-33"/>
      </defs>
      <g transform="translate(260.685334 471.796562)scale(0.1 -0.1)">
       <use xlink:href="#DejaVuSans-33"/>
       <use x="63.623047" xlink:href="#DejaVuSans-30"/>
       <use x="127.246094" xlink:href="#DejaVuSans-30"/>
      </g>
     </g>
    </g>
    <g id="xtick_5">
     <g id="line2d_5">
      <g>
       <use style="stroke:#000000;stroke-width:0.8;" x="345.828596" xlink:href="#m9591a180d7" y="457.198125"/>
      </g>
     </g>
     <g id="text_5">
      <!-- 325 -->
      <g transform="translate(336.284846 471.796562)scale(0.1 -0.1)">
       <use xlink:href="#DejaVuSans-33"/>
       <use x="63.623047" xlink:href="#DejaVuSans-32"/>
       <use x="127.246094" xlink:href="#DejaVuSans-35"/>
      </g>
     </g>
    </g>
    <g id="xtick_6">
     <g id="line2d_6">
      <g>
       <use style="stroke:#000000;stroke-width:0.8;" x="421.428108" xlink:href="#m9591a180d7" y="457.198125"/>
      </g>
     </g>
     <g id="text_6">
      <!-- 350 -->
      <g transform="translate(411.884358 471.796562)scale(0.1 -0.1)">
       <use xlink:href="#DejaVuSans-33"/>
       <use x="63.623047" xlink:href="#DejaVuSans-35"/>
       <use x="127.246094" xlink:href="#DejaVuSans-30"/>
      </g>
     </g>
    </g>
    <g id="xtick_7">
     <g id="line2d_7">
      <g>
       <use style="stroke:#000000;stroke-width:0.8;" x="497.02762" xlink:href="#m9591a180d7" y="457.198125"/>
      </g>
     </g>
     <g id="text_7">
      <!-- 375 -->
      <g transform="translate(487.48387 471.796562)scale(0.1 -0.1)">
       <use xlink:href="#DejaVuSans-33"/>
       <use x="63.623047" xlink:href="#DejaVuSans-37"/>
       <use x="127.246094" xlink:href="#DejaVuSans-35"/>
      </g>
     </g>
    </g>
    <g id="xtick_8">
     <g id="line2d_8">
      <g>
       <use style="stroke:#000000;stroke-width:0.8;" x="572.627133" xlink:href="#m9591a180d7" y="457.198125"/>
      </g>
     </g>
     <g id="text_8">
      <!-- 400 -->
      <defs>
       <path d="M 37.796875 64.3125 
L 12.890625 25.390625 
L 37.796875 25.390625 
z
M 35.203125 72.90625 
L 47.609375 72.90625 
L 47.609375 25.390625 
L 58.015625 25.390625 
L 58.015625 17.1875 
L 47.609375 17.1875 
L 47.609375 0 
L 37.796875 0 
L 37.796875 17.1875 
L 4.890625 17.1875 
L 4.890625 26.703125 
z
" id="DejaVuSans-34"/>
      </defs>
      <g transform="translate(563.083383 471.796562)scale(0.1 -0.1)">
       <use xlink:href="#DejaVuSans-34"/>
       <use x="63.623047" xlink:href="#DejaVuSans-30"/>
       <use x="127.246094" xlink:href="#DejaVuSans-30"/>
      </g>
     </g>
    </g>
    <g id="xtick_9">
     <g id="line2d_9">
      <g>
       <use style="stroke:#000000;stroke-width:0.8;" x="648.226645" xlink:href="#m9591a180d7" y="457.198125"/>
      </g>
     </g>
     <g id="text_9">
      <!-- 425 -->
      <g transform="translate(638.682895 471.796562)scale(0.1 -0.1)">
       <use xlink:href="#DejaVuSans-34"/>
       <use x="63.623047" xlink:href="#DejaVuSans-32"/>
       <use x="127.246094" xlink:href="#DejaVuSans-35"/>
      </g>
     </g>
    </g>
    <g id="text_10">
     <!-- Temperatur [K] -->
     <defs>
      <path d="M -0.296875 72.90625 
L 61.375 72.90625 
L 61.375 64.59375 
L 35.5 64.59375 
L 35.5 0 
L 25.59375 0 
L 25.59375 64.59375 
L -0.296875 64.59375 
z
" id="DejaVuSans-54"/>
      <path d="M 56.203125 29.59375 
L 56.203125 25.203125 
L 14.890625 25.203125 
Q 15.484375 15.921875 20.484375 11.0625 
Q 25.484375 6.203125 34.421875 6.203125 
Q 39.59375 6.203125 44.453125 7.46875 
Q 49.3125 8.734375 54.109375 11.28125 
L 54.109375 2.78125 
Q 49.265625 0.734375 44.1875 -0.34375 
Q 39.109375 -1.421875 33.890625 -1.421875 
Q 20.796875 -1.421875 13.15625 6.1875 
Q 5.515625 13.8125 5.515625 26.8125 
Q 5.515625 40.234375 12.765625 48.109375 
Q 20.015625 56 32.328125 56 
Q 43.359375 56 49.78125 48.890625 
Q 56.203125 41.796875 56.203125 29.59375 
z
M 47.21875 32.234375 
Q 47.125 39.59375 43.09375 43.984375 
Q 39.0625 48.390625 32.421875 48.390625 
Q 24.90625 48.390625 20.390625 44.140625 
Q 15.875 39.890625 15.1875 32.171875 
z
" id="DejaVuSans-65"/>
      <path d="M 52 44.1875 
Q 55.375 50.25 60.0625 53.125 
Q 64.75 56 71.09375 56 
Q 79.640625 56 84.28125 50.015625 
Q 88.921875 44.046875 88.921875 33.015625 
L 88.921875 0 
L 79.890625 0 
L 79.890625 32.71875 
Q 79.890625 40.578125 77.09375 44.375 
Q 74.3125 48.1875 68.609375 48.1875 
Q 61.625 48.1875 57.5625 43.546875 
Q 53.515625 38.921875 53.515625 30.90625 
L 53.515625 0 
L 44.484375 0 
L 44.484375 32.71875 
Q 44.484375 40.625 41.703125 44.40625 
Q 38.921875 48.1875 33.109375 48.1875 
Q 26.21875 48.1875 22.15625 43.53125 
Q 18.109375 38.875 18.109375 30.90625 
L 18.109375 0 
L 9.078125 0 
L 9.078125 54.6875 
L 18.109375 54.6875 
L 18.109375 46.1875 
Q 21.1875 51.21875 25.484375 53.609375 
Q 29.78125 56 35.6875 56 
Q 41.65625 56 45.828125 52.96875 
Q 50 49.953125 52 44.1875 
z
" id="DejaVuSans-6d"/>
      <path d="M 18.109375 8.203125 
L 18.109375 -20.796875 
L 9.078125 -20.796875 
L 9.078125 54.6875 
L 18.109375 54.6875 
L 18.109375 46.390625 
Q 20.953125 51.265625 25.265625 53.625 
Q 29.59375 56 35.59375 56 
Q 45.5625 56 51.78125 48.09375 
Q 58.015625 40.1875 58.015625 27.296875 
Q 58.015625 14.40625 51.78125 6.484375 
Q 45.5625 -1.421875 35.59375 -1.421875 
Q 29.59375 -1.421875 25.265625 0.953125 
Q 20.953125 3.328125 18.109375 8.203125 
z
M 48.6875 27.296875 
Q 48.6875 37.203125 44.609375 42.84375 
Q 40.53125 48.484375 33.40625 48.484375 
Q 26.265625 48.484375 22.1875 42.84375 
Q 18.109375 37.203125 18.109375 27.296875 
Q 18.109375 17.390625 22.1875 11.75 
Q 26.265625 6.109375 33.40625 6.109375 
Q 40.53125 6.109375 44.609375 11.75 
Q 48.6875 17.390625 48.6875 27.296875 
z
" id="DejaVuSans-70"/>
      <path d="M 41.109375 46.296875 
Q 39.59375 47.171875 37.8125 47.578125 
Q 36.03125 48 33.890625 48 
Q 26.265625 48 22.1875 43.046875 
Q 18.109375 38.09375 18.109375 28.8125 
L 18.109375 0 
L 9.078125 0 
L 9.078125 54.6875 
L 18.109375 54.6875 
L 18.109375 46.1875 
Q 20.953125 51.171875 25.484375 53.578125 
Q 30.03125 56 36.53125 56 
Q 37.453125 56 38.578125 55.875 
Q 39.703125 55.765625 41.0625 55.515625 
z
" id="DejaVuSans-72"/>
      <path d="M 34.28125 27.484375 
Q 23.390625 27.484375 19.1875 25 
Q 14.984375 22.515625 14.984375 16.5 
Q 14.984375 11.71875 18.140625 8.90625 
Q 21.296875 6.109375 26.703125 6.109375 
Q 34.1875 6.109375 38.703125 11.40625 
Q 43.21875 16.703125 43.21875 25.484375 
L 43.21875 27.484375 
z
M 52.203125 31.203125 
L 52.203125 0 
L 43.21875 0 
L 43.21875 8.296875 
Q 40.140625 3.328125 35.546875 0.953125 
Q 30.953125 -1.421875 24.3125 -1.421875 
Q 15.921875 -1.421875 10.953125 3.296875 
Q 6 8.015625 6 15.921875 
Q 6 25.140625 12.171875 29.828125 
Q 18.359375 34.515625 30.609375 34.515625 
L 43.21875 34.515625 
L 43.21875 35.40625 
Q 43.21875 41.609375 39.140625 45 
Q 35.0625 48.390625 27.6875 48.390625 
Q 23 48.390625 18.546875 47.265625 
Q 14.109375 46.140625 10.015625 43.890625 
L 10.015625 52.203125 
Q 14.9375 54.109375 19.578125 55.046875 
Q 24.21875 56 28.609375 56 
Q 40.484375 56 46.34375 49.84375 
Q 52.203125 43.703125 52.203125 31.203125 
z
" id="DejaVuSans-61"/>
      <path d="M 18.3125 70.21875 
L 18.3125 54.6875 
L 36.8125 54.6875 
L 36.8125 47.703125 
L 18.3125 47.703125 
L 18.3125 18.015625 
Q 18.3125 11.328125 20.140625 9.421875 
Q 21.96875 7.515625 27.59375 7.515625 
L 36.8125 7.515625 
L 36.8125 0 
L 27.59375 0 
Q 17.1875 0 13.234375 3.875 
Q 9.28125 7.765625 9.28125 18.015625 
L 9.28125 47.703125 
L 2.6875 47.703125 
L 2.6875 54.6875 
L 9.28125 54.6875 
L 9.28125 70.21875 
z
" id="DejaVuSans-74"/>
      <path d="M 8.5 21.578125 
L 8.5 54.6875 
L 17.484375 54.6875 
L 17.484375 21.921875 
Q 17.484375 14.15625 20.5 10.265625 
Q 23.53125 6.390625 29.59375 6.390625 
Q 36.859375 6.390625 41.078125 11.03125 
Q 45.3125 15.671875 45.3125 23.6875 
L 45.3125 54.6875 
L 54.296875 54.6875 
L 54.296875 0 
L 45.3125 0 
L 45.3125 8.40625 
Q 42.046875 3.421875 37.71875 1 
Q 33.40625 -1.421875 27.6875 -1.421875 
Q 18.265625 -1.421875 13.375 4.4375 
Q 8.5 10.296875 8.5 21.578125 
z
M 31.109375 56 
z
" id="DejaVuSans-75"/>
      <path id="DejaVuSans-20"/>
      <path d="M 8.59375 75.984375 
L 29.296875 75.984375 
L 29.296875 69 
L 17.578125 69 
L 17.578125 -6.203125 
L 29.296875 -6.203125 
L 29.296875 -13.1875 
L 8.59375 -13.1875 
z
" id="DejaVuSans-5b"/>
      <path d="M 9.8125 72.90625 
L 19.671875 72.90625 
L 19.671875 42.09375 
L 52.390625 72.90625 
L 65.09375 72.90625 
L 28.90625 38.921875 
L 67.671875 0 
L 54.6875 0 
L 19.671875 35.109375 
L 19.671875 0 
L 9.8125 0 
z
" id="DejaVuSans-4b"/>
      <path d="M 30.421875 75.984375 
L 30.421875 -13.1875 
L 9.71875 -13.1875 
L 9.71875 -6.203125 
L 21.390625 -6.203125 
L 21.390625 69 
L 9.71875 69 
L 9.71875 75.984375 
z
" id="DejaVuSans-5d"/>
     </defs>
     <g transform="translate(337.091406 485.474687)scale(0.1 -0.1)">
      <use xlink:href="#DejaVuSans-54"/>
      <use x="60.818359" xlink:href="#DejaVuSans-65"/>
      <use x="122.341797" xlink:href="#DejaVuSans-6d"/>
      <use x="219.753906" xlink:href="#DejaVuSans-70"/>
      <use x="283.230469" xlink:href="#DejaVuSans-65"/>
      <use x="344.753906" xlink:href="#DejaVuSans-72"/>
      <use x="385.867188" xlink:href="#DejaVuSans-61"/>
      <use x="447.146484" xlink:href="#DejaVuSans-74"/>
      <use x="486.355469" xlink:href="#DejaVuSans-75"/>
      <use x="549.734375" xlink:href="#DejaVuSans-72"/>
      <use x="590.847656" xlink:href="#DejaVuSans-20"/>
      <use x="622.634766" xlink:href="#DejaVuSans-5b"/>
      <use x="661.648438" xlink:href="#DejaVuSans-4b"/>
      <use x="727.224609" xlink:href="#DejaVuSans-5d"/>
     </g>
    </g>
   </g>
   <g id="matplotlib.axis_2">
    <g id="ytick_1">
     <g id="line2d_10">
      <defs>
       <path d="M 0 0 
L -3.5 0 
" id="m1d1e06c870" style="stroke:#000000;stroke-width:0.8;"/>
      </defs>
      <g>
       <use style="stroke:#000000;stroke-width:0.8;" x="40.603125" xlink:href="#m1d1e06c870" y="409.154783"/>
      </g>
     </g>
     <g id="text_11">
      <!-- 10 -->
      <defs>
       <path d="M 12.40625 8.296875 
L 28.515625 8.296875 
L 28.515625 63.921875 
L 10.984375 60.40625 
L 10.984375 69.390625 
L 28.421875 72.90625 
L 38.28125 72.90625 
L 38.28125 8.296875 
L 54.390625 8.296875 
L 54.390625 0 
L 12.40625 0 
z
" id="DejaVuSans-31"/>
      </defs>
      <g transform="translate(20.878125 412.954002)scale(0.1 -0.1)">
       <use xlink:href="#DejaVuSans-31"/>
       <use x="63.623047" xlink:href="#DejaVuSans-30"/>
      </g>
     </g>
    </g>
    <g id="ytick_2">
     <g id="line2d_11">
      <g>
       <use style="stroke:#000000;stroke-width:0.8;" x="40.603125" xlink:href="#m1d1e06c870" y="358.420816"/>
      </g>
     </g>
     <g id="text_12">
      <!-- 15 -->
      <g transform="translate(20.878125 362.220034)scale(0.1 -0.1)">
       <use xlink:href="#DejaVuSans-31"/>
       <use x="63.623047" xlink:href="#DejaVuSans-35"/>
      </g>
     </g>
    </g>
    <g id="ytick_3">
     <g id="line2d_12">
      <g>
       <use style="stroke:#000000;stroke-width:0.8;" x="40.603125" xlink:href="#m1d1e06c870" y="307.686848"/>
      </g>
     </g>
     <g id="text_13">
      <!-- 20 -->
      <g transform="translate(20.878125 311.486067)scale(0.1 -0.1)">
       <use xlink:href="#DejaVuSans-32"/>
       <use x="63.623047" xlink:href="#DejaVuSans-30"/>
      </g>
     </g>
    </g>
    <g id="ytick_4">
     <g id="line2d_13">
      <g>
       <use style="stroke:#000000;stroke-width:0.8;" x="40.603125" xlink:href="#m1d1e06c870" y="256.952881"/>
      </g>
     </g>
     <g id="text_14">
      <!-- 25 -->
      <g transform="translate(20.878125 260.7521)scale(0.1 -0.1)">
       <use xlink:href="#DejaVuSans-32"/>
       <use x="63.623047" xlink:href="#DejaVuSans-35"/>
      </g>
     </g>
    </g>
    <g id="ytick_5">
     <g id="line2d_14">
      <g>
       <use style="stroke:#000000;stroke-width:0.8;" x="40.603125" xlink:href="#m1d1e06c870" y="206.218914"/>
      </g>
     </g>
     <g id="text_15">
      <!-- 30 -->
      <g transform="translate(20.878125 210.018133)scale(0.1 -0.1)">
       <use xlink:href="#DejaVuSans-33"/>
       <use x="63.623047" xlink:href="#DejaVuSans-30"/>
      </g>
     </g>
    </g>
    <g id="ytick_6">
     <g id="line2d_15">
      <g>
       <use style="stroke:#000000;stroke-width:0.8;" x="40.603125" xlink:href="#m1d1e06c870" y="155.484947"/>
      </g>
     </g>
     <g id="text_16">
      <!-- 35 -->
      <g transform="translate(20.878125 159.284165)scale(0.1 -0.1)">
       <use xlink:href="#DejaVuSans-33"/>
       <use x="63.623047" xlink:href="#DejaVuSans-35"/>
      </g>
     </g>
    </g>
    <g id="ytick_7">
     <g id="line2d_16">
      <g>
       <use style="stroke:#000000;stroke-width:0.8;" x="40.603125" xlink:href="#m1d1e06c870" y="104.750979"/>
      </g>
     </g>
     <g id="text_17">
      <!-- 40 -->
      <g transform="translate(20.878125 108.550198)scale(0.1 -0.1)">
       <use xlink:href="#DejaVuSans-34"/>
       <use x="63.623047" xlink:href="#DejaVuSans-30"/>
      </g>
     </g>
    </g>
    <g id="ytick_8">
     <g id="line2d_17">
      <g>
       <use style="stroke:#000000;stroke-width:0.8;" x="40.603125" xlink:href="#m1d1e06c870" y="54.017012"/>
      </g>
     </g>
     <g id="text_18">
      <!-- 45 -->
      <g transform="translate(20.878125 57.816231)scale(0.1 -0.1)">
       <use xlink:href="#DejaVuSans-34"/>
       <use x="63.623047" xlink:href="#DejaVuSans-35"/>
      </g>
     </g>
    </g>
    <g id="text_19">
     <!-- FWHM [kHz] -->
     <defs>
      <path d="M 9.8125 72.90625 
L 51.703125 72.90625 
L 51.703125 64.59375 
L 19.671875 64.59375 
L 19.671875 43.109375 
L 48.578125 43.109375 
L 48.578125 34.8125 
L 19.671875 34.8125 
L 19.671875 0 
L 9.8125 0 
z
" id="DejaVuSans-46"/>
      <path d="M 3.328125 72.90625 
L 13.28125 72.90625 
L 28.609375 11.28125 
L 43.890625 72.90625 
L 54.984375 72.90625 
L 70.3125 11.28125 
L 85.59375 72.90625 
L 95.609375 72.90625 
L 77.296875 0 
L 64.890625 0 
L 49.515625 63.28125 
L 33.984375 0 
L 21.578125 0 
z
" id="DejaVuSans-57"/>
      <path d="M 9.8125 72.90625 
L 19.671875 72.90625 
L 19.671875 43.015625 
L 55.515625 43.015625 
L 55.515625 72.90625 
L 65.375 72.90625 
L 65.375 0 
L 55.515625 0 
L 55.515625 34.71875 
L 19.671875 34.71875 
L 19.671875 0 
L 9.8125 0 
z
" id="DejaVuSans-48"/>
      <path d="M 9.8125 72.90625 
L 24.515625 72.90625 
L 43.109375 23.296875 
L 61.8125 72.90625 
L 76.515625 72.90625 
L 76.515625 0 
L 66.890625 0 
L 66.890625 64.015625 
L 48.09375 14.015625 
L 38.1875 14.015625 
L 19.390625 64.015625 
L 19.390625 0 
L 9.8125 0 
z
" id="DejaVuSans-4d"/>
      <path d="M 9.078125 75.984375 
L 18.109375 75.984375 
L 18.109375 31.109375 
L 44.921875 54.6875 
L 56.390625 54.6875 
L 27.390625 29.109375 
L 57.625 0 
L 45.90625 0 
L 18.109375 26.703125 
L 18.109375 0 
L 9.078125 0 
z
" id="DejaVuSans-6b"/>
      <path d="M 5.515625 54.6875 
L 48.1875 54.6875 
L 48.1875 46.484375 
L 14.40625 7.171875 
L 48.1875 7.171875 
L 48.1875 0 
L 4.296875 0 
L 4.296875 8.203125 
L 38.09375 47.515625 
L 5.515625 47.515625 
z
" id="DejaVuSans-7a"/>
     </defs>
     <g transform="translate(14.798438 270.422187)rotate(-90)scale(0.1 -0.1)">
      <use xlink:href="#DejaVuSans-46"/>
      <use x="57.519531" xlink:href="#DejaVuSans-57"/>
      <use x="156.396484" xlink:href="#DejaVuSans-48"/>
      <use x="231.591797" xlink:href="#DejaVuSans-4d"/>
      <use x="317.871094" xlink:href="#DejaVuSans-20"/>
      <use x="349.658203" xlink:href="#DejaVuSans-5b"/>
      <use x="388.671875" xlink:href="#DejaVuSans-6b"/>
      <use x="446.582031" xlink:href="#DejaVuSans-48"/>
      <use x="521.777344" xlink:href="#DejaVuSans-7a"/>
      <use x="574.267578" xlink:href="#DejaVuSans-5d"/>
     </g>
    </g>
   </g>
   <g id="LineCollection_1">
    <path clip-path="url(#p4d7ee58d49)" d="M 71.039489 42.085398 
L 71.039489 42.085398 
" style="fill:none;stroke:#1f77b4;stroke-width:1.5;"/>
    <path clip-path="url(#p4d7ee58d49)" d="M 98.618191 53.026685 
L 98.618191 53.026685 
" style="fill:none;stroke:#1f77b4;stroke-width:1.5;"/>
    <path clip-path="url(#p4d7ee58d49)" d="M 127.406485 50.318506 
L 127.406485 50.318506 
" style="fill:none;stroke:#1f77b4;stroke-width:1.5;"/>
    <path clip-path="url(#p4d7ee58d49)" d="M 156.1343 62.365794 
L 156.1343 62.365794 
" style="fill:none;stroke:#1f77b4;stroke-width:1.5;"/>
    <path clip-path="url(#p4d7ee58d49)" d="M 184.983074 70.838366 
L 184.983074 70.838366 
" style="fill:none;stroke:#1f77b4;stroke-width:1.5;"/>
    <path clip-path="url(#p4d7ee58d49)" d="M 213.892327 74.778366 
L 213.892327 74.778366 
" style="fill:none;stroke:#1f77b4;stroke-width:1.5;"/>
   </g>
   <g id="LineCollection_2">
    <path clip-path="url(#p4d7ee58d49)" d="M 185.769308 78.331773 
L 185.769308 78.331773 
" style="fill:none;stroke:#1f77b4;stroke-width:1.5;"/>
    <path clip-path="url(#p4d7ee58d49)" d="M 214.436643 77.838639 
L 214.436643 77.838639 
" style="fill:none;stroke:#1f77b4;stroke-width:1.5;"/>
    <path clip-path="url(#p4d7ee58d49)" d="M 243.406377 86.154951 
L 243.406377 86.154951 
" style="fill:none;stroke:#1f77b4;stroke-width:1.5;"/>
    <path clip-path="url(#p4d7ee58d49)" d="M 272.34587 89.527745 
L 272.34587 89.527745 
" style="fill:none;stroke:#1f77b4;stroke-width:1.5;"/>
    <path clip-path="url(#p4d7ee58d49)" d="M 301.345843 98.382852 
L 301.345843 98.382852 
" style="fill:none;stroke:#1f77b4;stroke-width:1.5;"/>
    <path clip-path="url(#p4d7ee58d49)" d="M 330.285336 97.154075 
L 330.285336 97.154075 
" style="fill:none;stroke:#1f77b4;stroke-width:1.5;"/>
    <path clip-path="url(#p4d7ee58d49)" d="M 359.315549 109.822347 
L 359.315549 109.822347 
" style="fill:none;stroke:#1f77b4;stroke-width:1.5;"/>
   </g>
   <g id="LineCollection_3">
    <path clip-path="url(#p4d7ee58d49)" d="M 272.406349 86.26758 
L 272.406349 86.26758 
" style="fill:none;stroke:#1f77b4;stroke-width:1.5;"/>
    <path clip-path="url(#p4d7ee58d49)" d="M 300.620087 93.663578 
L 300.620087 93.663578 
" style="fill:none;stroke:#1f77b4;stroke-width:1.5;"/>
   </g>
   <g id="LineCollection_4">
    <path clip-path="url(#p4d7ee58d49)" d="M 432.102759 179.879867 
L 432.102759 179.879867 
" style="fill:none;stroke:#1f77b4;stroke-width:1.5;"/>
    <path clip-path="url(#p4d7ee58d49)" d="M 417.648132 165.227898 
L 417.648132 165.227898 
" style="fill:none;stroke:#1f77b4;stroke-width:1.5;"/>
    <path clip-path="url(#p4d7ee58d49)" d="M 403.163266 142.498066 
L 403.163266 142.498066 
" style="fill:none;stroke:#1f77b4;stroke-width:1.5;"/>
    <path clip-path="url(#p4d7ee58d49)" d="M 388.738879 125.514363 
L 388.738879 125.514363 
" style="fill:none;stroke:#1f77b4;stroke-width:1.5;"/>
    <path clip-path="url(#p4d7ee58d49)" d="M 374.344732 110.978067 
L 374.344732 110.978067 
" style="fill:none;stroke:#1f77b4;stroke-width:1.5;"/>
    <path clip-path="url(#p4d7ee58d49)" d="M 359.738906 103.679478 
L 359.738906 103.679478 
" style="fill:none;stroke:#1f77b4;stroke-width:1.5;"/>
    <path clip-path="url(#p4d7ee58d49)" d="M 345.2238 97.225103 
L 345.2238 97.225103 
" style="fill:none;stroke:#1f77b4;stroke-width:1.5;"/>
    <path clip-path="url(#p4d7ee58d49)" d="M 330.678454 93.379468 
L 330.678454 93.379468 
" style="fill:none;stroke:#1f77b4;stroke-width:1.5;"/>
    <path clip-path="url(#p4d7ee58d49)" d="M 316.042388 91.787436 
L 316.042388 91.787436 
" style="fill:none;stroke:#1f77b4;stroke-width:1.5;"/>
    <path clip-path="url(#p4d7ee58d49)" d="M 301.648241 87.12194 
L 301.648241 87.12194 
" style="fill:none;stroke:#1f77b4;stroke-width:1.5;"/>
   </g>
   <g id="LineCollection_5">
    <path clip-path="url(#p4d7ee58d49)" d="M 504.76901 398.253796 
L 504.76901 398.251613 
" style="fill:none;stroke:#1f77b4;stroke-width:1.5;"/>
    <path clip-path="url(#p4d7ee58d49)" d="M 493.187165 400.869079 
L 493.187165 400.867342 
" style="fill:none;stroke:#1f77b4;stroke-width:1.5;"/>
    <path clip-path="url(#p4d7ee58d49)" d="M 484.478101 396.469169 
L 484.478101 396.467253 
" style="fill:none;stroke:#1f77b4;stroke-width:1.5;"/>
    <path clip-path="url(#p4d7ee58d49)" d="M 475.769037 377.025084 
L 475.769037 377.022139 
" style="fill:none;stroke:#1f77b4;stroke-width:1.5;"/>
    <path clip-path="url(#p4d7ee58d49)" d="M 469.932755 355.099823 
L 469.932755 355.095401 
" style="fill:none;stroke:#1f77b4;stroke-width:1.5;"/>
    <path clip-path="url(#p4d7ee58d49)" d="M 464.126713 326.645617 
L 464.126713 326.638228 
" style="fill:none;stroke:#1f77b4;stroke-width:1.5;"/>
    <path clip-path="url(#p4d7ee58d49)" d="M 458.29043 297.810988 
L 458.29043 297.799535 
" style="fill:none;stroke:#1f77b4;stroke-width:1.5;"/>
    <path clip-path="url(#p4d7ee58d49)" d="M 452.423908 254.077798 
L 452.423908 254.060169 
" style="fill:none;stroke:#1f77b4;stroke-width:1.5;"/>
    <path clip-path="url(#p4d7ee58d49)" d="M 446.587626 203.051162 
L 446.587626 203.028881 
" style="fill:none;stroke:#1f77b4;stroke-width:1.5;"/>
    <path clip-path="url(#p4d7ee58d49)" d="M 437.939042 182.140223 
L 437.939042 182.122876 
" style="fill:none;stroke:#1f77b4;stroke-width:1.5;"/>
    <path clip-path="url(#p4d7ee58d49)" d="M 429.260218 187.537134 
L 429.260218 187.527058 
" style="fill:none;stroke:#1f77b4;stroke-width:1.5;"/>
    <path clip-path="url(#p4d7ee58d49)" d="M 420.581394 160.721819 
L 420.581394 160.714767 
" style="fill:none;stroke:#1f77b4;stroke-width:1.5;"/>
    <path clip-path="url(#p4d7ee58d49)" d="M 411.90257 145.599355 
L 411.90257 145.593945 
" style="fill:none;stroke:#1f77b4;stroke-width:1.5;"/>
    <path clip-path="url(#p4d7ee58d49)" d="M 403.253985 137.741698 
L 403.253985 137.737193 
" style="fill:none;stroke:#1f77b4;stroke-width:1.5;"/>
    <path clip-path="url(#p4d7ee58d49)" d="M 420.339475 160.443133 
L 420.339475 160.43591 
" style="fill:none;stroke:#1f77b4;stroke-width:1.5;"/>
    <path clip-path="url(#p4d7ee58d49)" d="M 411.90257 149.410105 
L 411.90257 149.404745 
" style="fill:none;stroke:#1f77b4;stroke-width:1.5;"/>
    <path clip-path="url(#p4d7ee58d49)" d="M 403.223746 136.040151 
L 403.223746 136.035638 
" style="fill:none;stroke:#1f77b4;stroke-width:1.5;"/>
    <path clip-path="url(#p4d7ee58d49)" d="M 394.575161 125.010287 
L 394.575161 125.00624 
" style="fill:none;stroke:#1f77b4;stroke-width:1.5;"/>
   </g>
   <g id="LineCollection_6">
    <path clip-path="url(#p4d7ee58d49)" d="M 679.766761 354.593902 
L 679.766761 354.58959 
" style="fill:none;stroke:#1f77b4;stroke-width:1.5;"/>
    <path clip-path="url(#p4d7ee58d49)" d="M 666.06813 322.505691 
L 666.06813 322.49722 
" style="fill:none;stroke:#1f77b4;stroke-width:1.5;"/>
    <path clip-path="url(#p4d7ee58d49)" d="M 651.704222 285.490438 
L 651.704222 285.47207 
" style="fill:none;stroke:#1f77b4;stroke-width:1.5;"/>
    <path clip-path="url(#p4d7ee58d49)" d="M 637.219356 265.017153 
L 637.219356 264.979446 
" style="fill:none;stroke:#1f77b4;stroke-width:1.5;"/>
    <path clip-path="url(#p4d7ee58d49)" d="M 622.55305 232.140626 
L 622.55305 232.069319 
" style="fill:none;stroke:#1f77b4;stroke-width:1.5;"/>
    <path clip-path="url(#p4d7ee58d49)" d="M 608.007704 240.551324 
L 608.007704 240.461855 
" style="fill:none;stroke:#1f77b4;stroke-width:1.5;"/>
    <path clip-path="url(#p4d7ee58d49)" d="M 593.432118 221.072283 
L 593.432118 220.974869 
" style="fill:none;stroke:#1f77b4;stroke-width:1.5;"/>
    <path clip-path="url(#p4d7ee58d49)" d="M 578.796053 193.494127 
L 578.796053 193.403724 
" style="fill:none;stroke:#1f77b4;stroke-width:1.5;"/>
    <path clip-path="url(#p4d7ee58d49)" d="M 564.250707 241.318761 
L 564.250707 241.266669 
" style="fill:none;stroke:#1f77b4;stroke-width:1.5;"/>
    <path clip-path="url(#p4d7ee58d49)" d="M 549.886799 278.603382 
L 549.886799 278.577993 
" style="fill:none;stroke:#1f77b4;stroke-width:1.5;"/>
    <path clip-path="url(#p4d7ee58d49)" d="M 535.401933 324.592563 
L 535.401933 324.581754 
" style="fill:none;stroke:#1f77b4;stroke-width:1.5;"/>
    <path clip-path="url(#p4d7ee58d49)" d="M 520.917066 361.162103 
L 520.917066 361.15734 
" style="fill:none;stroke:#1f77b4;stroke-width:1.5;"/>
    <path clip-path="url(#p4d7ee58d49)" d="M 506.643878 390.241174 
L 506.643878 390.238813 
" style="fill:none;stroke:#1f77b4;stroke-width:1.5;"/>
    <path clip-path="url(#p4d7ee58d49)" d="M 491.796134 399.866511 
L 491.796134 399.864717 
" style="fill:none;stroke:#1f77b4;stroke-width:1.5;"/>
    <path clip-path="url(#p4d7ee58d49)" d="M 477.311268 377.117925 
L 477.311268 377.114944 
" style="fill:none;stroke:#1f77b4;stroke-width:1.5;"/>
    <path clip-path="url(#p4d7ee58d49)" d="M 462.735682 314.115783 
L 462.735682 314.106356 
" style="fill:none;stroke:#1f77b4;stroke-width:1.5;"/>
    <path clip-path="url(#p4d7ee58d49)" d="M 448.069376 206.334317 
L 448.069376 206.310867 
" style="fill:none;stroke:#1f77b4;stroke-width:1.5;"/>
   </g>
   <g id="LineCollection_7">
    <path clip-path="url(#p4d7ee58d49)" d="M 287.072655 93.565154 
L 287.072655 93.565154 
" style="fill:none;stroke:#1f77b4;stroke-width:1.5;"/>
    <path clip-path="url(#p4d7ee58d49)" d="M 301.285363 95.00397 
L 301.285363 95.00397 
" style="fill:none;stroke:#1f77b4;stroke-width:1.5;"/>
    <path clip-path="url(#p4d7ee58d49)" d="M 315.67951 94.356604 
L 315.67951 94.356604 
" style="fill:none;stroke:#1f77b4;stroke-width:1.5;"/>
    <path clip-path="url(#p4d7ee58d49)" d="M 330.285336 98.906426 
L 330.285336 98.906426 
" style="fill:none;stroke:#1f77b4;stroke-width:1.5;"/>
    <path clip-path="url(#p4d7ee58d49)" d="M 344.800442 102.772355 
L 344.800442 102.772355 
" style="fill:none;stroke:#1f77b4;stroke-width:1.5;"/>
    <path clip-path="url(#p4d7ee58d49)" d="M 359.315549 108.596614 
L 359.315549 108.596614 
" style="fill:none;stroke:#1f77b4;stroke-width:1.5;"/>
    <path clip-path="url(#p4d7ee58d49)" d="M 373.860895 114.703969 
L 373.860895 114.703969 
" style="fill:none;stroke:#1f77b4;stroke-width:1.5;"/>
    <path clip-path="url(#p4d7ee58d49)" d="M 388.345761 132.050927 
L 388.345761 132.050927 
" style="fill:none;stroke:#1f77b4;stroke-width:1.5;"/>
    <path clip-path="url(#p4d7ee58d49)" d="M 402.739909 149.117834 
L 402.739909 149.117834 
" style="fill:none;stroke:#1f77b4;stroke-width:1.5;"/>
   </g>
   <g id="LineCollection_8">
    <path clip-path="url(#p4d7ee58d49)" d="M 330.708693 145.568485 
L 330.708693 145.568485 
" style="fill:none;stroke:#d62728;stroke-width:1.5;"/>
    <path clip-path="url(#p4d7ee58d49)" d="M 391.188303 173.87601 
L 391.188303 173.87601 
" style="fill:none;stroke:#d62728;stroke-width:1.5;"/>
    <path clip-path="url(#p4d7ee58d49)" d="M 421.428108 204.784157 
L 421.428108 204.784157 
" style="fill:none;stroke:#d62728;stroke-width:1.5;"/>
    <path clip-path="url(#p4d7ee58d49)" d="M 421.428108 211.802694 
L 421.428108 211.802694 
" style="fill:none;stroke:#d62728;stroke-width:1.5;"/>
    <path clip-path="url(#p4d7ee58d49)" d="M 451.667913 324.528496 
L 451.667913 324.528496 
" style="fill:none;stroke:#d62728;stroke-width:1.5;"/>
    <path clip-path="url(#p4d7ee58d49)" d="M 451.667913 323.337263 
L 451.667913 323.337263 
" style="fill:none;stroke:#d62728;stroke-width:1.5;"/>
    <path clip-path="url(#p4d7ee58d49)" d="M 451.667913 323.080549 
L 451.667913 323.080549 
" style="fill:none;stroke:#d62728;stroke-width:1.5;"/>
    <path clip-path="url(#p4d7ee58d49)" d="M 481.907718 430.42855 
L 481.907718 430.42855 
" style="fill:none;stroke:#d62728;stroke-width:1.5;"/>
    <path clip-path="url(#p4d7ee58d49)" d="M 512.147523 425.933521 
L 512.147523 425.933521 
" style="fill:none;stroke:#d62728;stroke-width:1.5;"/>
    <path clip-path="url(#p4d7ee58d49)" d="M 542.387328 377.036123 
L 542.387328 377.036123 
" style="fill:none;stroke:#d62728;stroke-width:1.5;"/>
    <path clip-path="url(#p4d7ee58d49)" d="M 497.02762 437.430852 
L 497.02762 437.430852 
" style="fill:none;stroke:#d62728;stroke-width:1.5;"/>
    <path clip-path="url(#p4d7ee58d49)" d="M 527.267425 403.457358 
L 527.267425 403.457358 
" style="fill:none;stroke:#d62728;stroke-width:1.5;"/>
    <path clip-path="url(#p4d7ee58d49)" d="M 466.787815 396.878178 
L 466.787815 396.878178 
" style="fill:none;stroke:#d62728;stroke-width:1.5;"/>
    <path clip-path="url(#p4d7ee58d49)" d="M 436.548011 234.410765 
L 436.548011 234.410765 
" style="fill:none;stroke:#d62728;stroke-width:1.5;"/>
    <path clip-path="url(#p4d7ee58d49)" d="M 406.308206 193.914912 
L 406.308206 193.914912 
" style="fill:none;stroke:#d62728;stroke-width:1.5;"/>
    <path clip-path="url(#p4d7ee58d49)" d="M 360.948498 155.234321 
L 360.948498 155.234321 
" style="fill:none;stroke:#d62728;stroke-width:1.5;"/>
    <path clip-path="url(#p4d7ee58d49)" d="M 376.068401 168.742747 
L 376.068401 168.742747 
" style="fill:none;stroke:#d62728;stroke-width:1.5;"/>
    <path clip-path="url(#p4d7ee58d49)" d="M 330.708693 145.952034 
L 330.708693 145.952034 
" style="fill:none;stroke:#d62728;stroke-width:1.5;"/>
    <path clip-path="url(#p4d7ee58d49)" d="M 300.468888 131.072776 
L 300.468888 131.072776 
" style="fill:none;stroke:#d62728;stroke-width:1.5;"/>
    <path clip-path="url(#p4d7ee58d49)" d="M 391.188303 175.776504 
L 391.188303 175.776504 
" style="fill:none;stroke:#d62728;stroke-width:1.5;"/>
   </g>
   <g id="line2d_18">
    <defs>
     <path d="M 0 3 
C 0.795609 3 1.55874 2.683901 2.12132 2.12132 
C 2.683901 1.55874 3 0.795609 3 0 
C 3 -0.795609 2.683901 -1.55874 2.12132 -2.12132 
C 1.55874 -2.683901 0.795609 -3 0 -3 
C -0.795609 -3 -1.55874 -2.683901 -2.12132 -2.12132 
C -2.683901 -1.55874 -3 -0.795609 -3 0 
C -3 0.795609 -2.683901 1.55874 -2.12132 2.12132 
C -1.55874 2.683901 -0.795609 3 0 3 
z
" id="md535d8e9b5" style="stroke:#1f77b4;"/>
    </defs>
    <g clip-path="url(#p4d7ee58d49)">
     <use style="fill:#1f77b4;stroke:#1f77b4;" x="71.039489" xlink:href="#md535d8e9b5" y="42.085398"/>
     <use style="fill:#1f77b4;stroke:#1f77b4;" x="98.618191" xlink:href="#md535d8e9b5" y="53.026685"/>
     <use style="fill:#1f77b4;stroke:#1f77b4;" x="127.406485" xlink:href="#md535d8e9b5" y="50.318506"/>
     <use style="fill:#1f77b4;stroke:#1f77b4;" x="156.1343" xlink:href="#md535d8e9b5" y="62.365794"/>
     <use style="fill:#1f77b4;stroke:#1f77b4;" x="184.983074" xlink:href="#md535d8e9b5" y="70.838366"/>
     <use style="fill:#1f77b4;stroke:#1f77b4;" x="213.892327" xlink:href="#md535d8e9b5" y="74.778366"/>
    </g>
   </g>
   <g id="line2d_19">
    <g clip-path="url(#p4d7ee58d49)">
     <use style="fill:#1f77b4;stroke:#1f77b4;" x="185.769308" xlink:href="#md535d8e9b5" y="78.331773"/>
     <use style="fill:#1f77b4;stroke:#1f77b4;" x="214.436643" xlink:href="#md535d8e9b5" y="77.838639"/>
     <use style="fill:#1f77b4;stroke:#1f77b4;" x="243.406377" xlink:href="#md535d8e9b5" y="86.154951"/>
     <use style="fill:#1f77b4;stroke:#1f77b4;" x="272.34587" xlink:href="#md535d8e9b5" y="89.527745"/>
     <use style="fill:#1f77b4;stroke:#1f77b4;" x="301.345843" xlink:href="#md535d8e9b5" y="98.382852"/>
     <use style="fill:#1f77b4;stroke:#1f77b4;" x="330.285336" xlink:href="#md535d8e9b5" y="97.154075"/>
     <use style="fill:#1f77b4;stroke:#1f77b4;" x="359.315549" xlink:href="#md535d8e9b5" y="109.822347"/>
    </g>
   </g>
   <g id="line2d_20">
    <g clip-path="url(#p4d7ee58d49)">
     <use style="fill:#1f77b4;stroke:#1f77b4;" x="272.406349" xlink:href="#md535d8e9b5" y="86.26758"/>
     <use style="fill:#1f77b4;stroke:#1f77b4;" x="300.620087" xlink:href="#md535d8e9b5" y="93.663578"/>
    </g>
   </g>
   <g id="line2d_21">
    <g clip-path="url(#p4d7ee58d49)">
     <use style="fill:#1f77b4;stroke:#1f77b4;" x="432.102759" xlink:href="#md535d8e9b5" y="179.879867"/>
     <use style="fill:#1f77b4;stroke:#1f77b4;" x="417.648132" xlink:href="#md535d8e9b5" y="165.227898"/>
     <use style="fill:#1f77b4;stroke:#1f77b4;" x="403.163266" xlink:href="#md535d8e9b5" y="142.498066"/>
     <use style="fill:#1f77b4;stroke:#1f77b4;" x="388.738879" xlink:href="#md535d8e9b5" y="125.514363"/>
     <use style="fill:#1f77b4;stroke:#1f77b4;" x="374.344732" xlink:href="#md535d8e9b5" y="110.978067"/>
     <use style="fill:#1f77b4;stroke:#1f77b4;" x="359.738906" xlink:href="#md535d8e9b5" y="103.679478"/>
     <use style="fill:#1f77b4;stroke:#1f77b4;" x="345.2238" xlink:href="#md535d8e9b5" y="97.225103"/>
     <use style="fill:#1f77b4;stroke:#1f77b4;" x="330.678454" xlink:href="#md535d8e9b5" y="93.379468"/>
     <use style="fill:#1f77b4;stroke:#1f77b4;" x="316.042388" xlink:href="#md535d8e9b5" y="91.787436"/>
     <use style="fill:#1f77b4;stroke:#1f77b4;" x="301.648241" xlink:href="#md535d8e9b5" y="87.12194"/>
    </g>
   </g>
   <g id="line2d_22">
    <g clip-path="url(#p4d7ee58d49)">
     <use style="fill:#1f77b4;stroke:#1f77b4;" x="504.76901" xlink:href="#md535d8e9b5" y="398.252705"/>
     <use style="fill:#1f77b4;stroke:#1f77b4;" x="493.187165" xlink:href="#md535d8e9b5" y="400.86821"/>
     <use style="fill:#1f77b4;stroke:#1f77b4;" x="484.478101" xlink:href="#md535d8e9b5" y="396.468211"/>
     <use style="fill:#1f77b4;stroke:#1f77b4;" x="475.769037" xlink:href="#md535d8e9b5" y="377.023612"/>
     <use style="fill:#1f77b4;stroke:#1f77b4;" x="469.932755" xlink:href="#md535d8e9b5" y="355.097612"/>
     <use style="fill:#1f77b4;stroke:#1f77b4;" x="464.126713" xlink:href="#md535d8e9b5" y="326.641923"/>
     <use style="fill:#1f77b4;stroke:#1f77b4;" x="458.29043" xlink:href="#md535d8e9b5" y="297.805261"/>
     <use style="fill:#1f77b4;stroke:#1f77b4;" x="452.423908" xlink:href="#md535d8e9b5" y="254.068984"/>
     <use style="fill:#1f77b4;stroke:#1f77b4;" x="446.587626" xlink:href="#md535d8e9b5" y="203.040021"/>
     <use style="fill:#1f77b4;stroke:#1f77b4;" x="437.939042" xlink:href="#md535d8e9b5" y="182.13155"/>
     <use style="fill:#1f77b4;stroke:#1f77b4;" x="429.260218" xlink:href="#md535d8e9b5" y="187.532096"/>
     <use style="fill:#1f77b4;stroke:#1f77b4;" x="420.581394" xlink:href="#md535d8e9b5" y="160.718293"/>
     <use style="fill:#1f77b4;stroke:#1f77b4;" x="411.90257" xlink:href="#md535d8e9b5" y="145.59665"/>
     <use style="fill:#1f77b4;stroke:#1f77b4;" x="403.253985" xlink:href="#md535d8e9b5" y="137.739445"/>
     <use style="fill:#1f77b4;stroke:#1f77b4;" x="420.339475" xlink:href="#md535d8e9b5" y="160.439522"/>
     <use style="fill:#1f77b4;stroke:#1f77b4;" x="411.90257" xlink:href="#md535d8e9b5" y="149.407425"/>
     <use style="fill:#1f77b4;stroke:#1f77b4;" x="403.223746" xlink:href="#md535d8e9b5" y="136.037895"/>
     <use style="fill:#1f77b4;stroke:#1f77b4;" x="394.575161" xlink:href="#md535d8e9b5" y="125.008264"/>
    </g>
   </g>
   <g id="line2d_23">
    <g clip-path="url(#p4d7ee58d49)">
     <use style="fill:#1f77b4;stroke:#1f77b4;" x="679.766761" xlink:href="#md535d8e9b5" y="354.591746"/>
     <use style="fill:#1f77b4;stroke:#1f77b4;" x="666.06813" xlink:href="#md535d8e9b5" y="322.501456"/>
     <use style="fill:#1f77b4;stroke:#1f77b4;" x="651.704222" xlink:href="#md535d8e9b5" y="285.481254"/>
     <use style="fill:#1f77b4;stroke:#1f77b4;" x="637.219356" xlink:href="#md535d8e9b5" y="264.9983"/>
     <use style="fill:#1f77b4;stroke:#1f77b4;" x="622.55305" xlink:href="#md535d8e9b5" y="232.104973"/>
     <use style="fill:#1f77b4;stroke:#1f77b4;" x="608.007704" xlink:href="#md535d8e9b5" y="240.50659"/>
     <use style="fill:#1f77b4;stroke:#1f77b4;" x="593.432118" xlink:href="#md535d8e9b5" y="221.023576"/>
     <use style="fill:#1f77b4;stroke:#1f77b4;" x="578.796053" xlink:href="#md535d8e9b5" y="193.448925"/>
     <use style="fill:#1f77b4;stroke:#1f77b4;" x="564.250707" xlink:href="#md535d8e9b5" y="241.292715"/>
     <use style="fill:#1f77b4;stroke:#1f77b4;" x="549.886799" xlink:href="#md535d8e9b5" y="278.590687"/>
     <use style="fill:#1f77b4;stroke:#1f77b4;" x="535.401933" xlink:href="#md535d8e9b5" y="324.587158"/>
     <use style="fill:#1f77b4;stroke:#1f77b4;" x="520.917066" xlink:href="#md535d8e9b5" y="361.159721"/>
     <use style="fill:#1f77b4;stroke:#1f77b4;" x="506.643878" xlink:href="#md535d8e9b5" y="390.239993"/>
     <use style="fill:#1f77b4;stroke:#1f77b4;" x="491.796134" xlink:href="#md535d8e9b5" y="399.865614"/>
     <use style="fill:#1f77b4;stroke:#1f77b4;" x="477.311268" xlink:href="#md535d8e9b5" y="377.116435"/>
     <use style="fill:#1f77b4;stroke:#1f77b4;" x="462.735682" xlink:href="#md535d8e9b5" y="314.11107"/>
     <use style="fill:#1f77b4;stroke:#1f77b4;" x="448.069376" xlink:href="#md535d8e9b5" y="206.322592"/>
    </g>
   </g>
   <g id="line2d_24">
    <g clip-path="url(#p4d7ee58d49)">
     <use style="fill:#1f77b4;stroke:#1f77b4;" x="287.072655" xlink:href="#md535d8e9b5" y="93.565154"/>
     <use style="fill:#1f77b4;stroke:#1f77b4;" x="301.285363" xlink:href="#md535d8e9b5" y="95.00397"/>
     <use style="fill:#1f77b4;stroke:#1f77b4;" x="315.67951" xlink:href="#md535d8e9b5" y="94.356604"/>
     <use style="fill:#1f77b4;stroke:#1f77b4;" x="330.285336" xlink:href="#md535d8e9b5" y="98.906426"/>
     <use style="fill:#1f77b4;stroke:#1f77b4;" x="344.800442" xlink:href="#md535d8e9b5" y="102.772355"/>
     <use style="fill:#1f77b4;stroke:#1f77b4;" x="359.315549" xlink:href="#md535d8e9b5" y="108.596614"/>
     <use style="fill:#1f77b4;stroke:#1f77b4;" x="373.860895" xlink:href="#md535d8e9b5" y="114.703969"/>
     <use style="fill:#1f77b4;stroke:#1f77b4;" x="388.345761" xlink:href="#md535d8e9b5" y="132.050927"/>
     <use style="fill:#1f77b4;stroke:#1f77b4;" x="402.739909" xlink:href="#md535d8e9b5" y="149.117834"/>
    </g>
   </g>
   <g id="line2d_25">
    <defs>
     <path d="M -3 3 
L 3 3 
L 3 -3 
L -3 -3 
z
" id="mda221903d0" style="stroke:#d62728;stroke-linejoin:miter;"/>
    </defs>
    <g clip-path="url(#p4d7ee58d49)">
     <use style="fill:#d62728;stroke:#d62728;stroke-linejoin:miter;" x="330.708693" xlink:href="#mda221903d0" y="145.568485"/>
     <use style="fill:#d62728;stroke:#d62728;stroke-linejoin:miter;" x="391.188303" xlink:href="#mda221903d0" y="173.87601"/>
     <use style="fill:#d62728;stroke:#d62728;stroke-linejoin:miter;" x="421.428108" xlink:href="#mda221903d0" y="204.784157"/>
     <use style="fill:#d62728;stroke:#d62728;stroke-linejoin:miter;" x="421.428108" xlink:href="#mda221903d0" y="211.802694"/>
     <use style="fill:#d62728;stroke:#d62728;stroke-linejoin:miter;" x="451.667913" xlink:href="#mda221903d0" y="324.528496"/>
     <use style="fill:#d62728;stroke:#d62728;stroke-linejoin:miter;" x="451.667913" xlink:href="#mda221903d0" y="323.337263"/>
     <use style="fill:#d62728;stroke:#d62728;stroke-linejoin:miter;" x="451.667913" xlink:href="#mda221903d0" y="323.080549"/>
     <use style="fill:#d62728;stroke:#d62728;stroke-linejoin:miter;" x="481.907718" xlink:href="#mda221903d0" y="430.42855"/>
     <use style="fill:#d62728;stroke:#d62728;stroke-linejoin:miter;" x="512.147523" xlink:href="#mda221903d0" y="425.933521"/>
     <use style="fill:#d62728;stroke:#d62728;stroke-linejoin:miter;" x="542.387328" xlink:href="#mda221903d0" y="377.036123"/>
     <use style="fill:#d62728;stroke:#d62728;stroke-linejoin:miter;" x="497.02762" xlink:href="#mda221903d0" y="437.430852"/>
     <use style="fill:#d62728;stroke:#d62728;stroke-linejoin:miter;" x="527.267425" xlink:href="#mda221903d0" y="403.457358"/>
     <use style="fill:#d62728;stroke:#d62728;stroke-linejoin:miter;" x="466.787815" xlink:href="#mda221903d0" y="396.878178"/>
     <use style="fill:#d62728;stroke:#d62728;stroke-linejoin:miter;" x="436.548011" xlink:href="#mda221903d0" y="234.410765"/>
     <use style="fill:#d62728;stroke:#d62728;stroke-linejoin:miter;" x="406.308206" xlink:href="#mda221903d0" y="193.914912"/>
     <use style="fill:#d62728;stroke:#d62728;stroke-linejoin:miter;" x="360.948498" xlink:href="#mda221903d0" y="155.234321"/>
     <use style="fill:#d62728;stroke:#d62728;stroke-linejoin:miter;" x="376.068401" xlink:href="#mda221903d0" y="168.742747"/>
     <use style="fill:#d62728;stroke:#d62728;stroke-linejoin:miter;" x="330.708693" xlink:href="#mda221903d0" y="145.952034"/>
     <use style="fill:#d62728;stroke:#d62728;stroke-linejoin:miter;" x="300.468888" xlink:href="#mda221903d0" y="131.072776"/>
     <use style="fill:#d62728;stroke:#d62728;stroke-linejoin:miter;" x="391.188303" xlink:href="#mda221903d0" y="175.776504"/>
    </g>
   </g>
   <g id="patch_3">
    <path d="M 40.603125 457.198125 
L 40.603125 22.318125 
" style="fill:none;stroke:#000000;stroke-linecap:square;stroke-linejoin:miter;stroke-width:0.8;"/>
   </g>
   <g id="patch_4">
    <path d="M 710.203125 457.198125 
L 710.203125 22.318125 
" style="fill:none;stroke:#000000;stroke-linecap:square;stroke-linejoin:miter;stroke-width:0.8;"/>
   </g>
   <g id="patch_5">
    <path d="M 40.603125 457.198125 
L 710.203125 457.198125 
" style="fill:none;stroke:#000000;stroke-linecap:square;stroke-linejoin:miter;stroke-width:0.8;"/>
   </g>
   <g id="patch_6">
    <path d="M 40.603125 22.318125 
L 710.203125 22.318125 
" style="fill:none;stroke:#000000;stroke-linecap:square;stroke-linejoin:miter;stroke-width:0.8;"/>
   </g>
   <g id="text_20">
    <!-- Bruker FWHM -->
    <defs>
     <path d="M 19.671875 34.8125 
L 19.671875 8.109375 
L 35.5 8.109375 
Q 43.453125 8.109375 47.28125 11.40625 
Q 51.125 14.703125 51.125 21.484375 
Q 51.125 28.328125 47.28125 31.5625 
Q 43.453125 34.8125 35.5 34.8125 
z
M 19.671875 64.796875 
L 19.671875 42.828125 
L 34.28125 42.828125 
Q 41.5 42.828125 45.03125 45.53125 
Q 48.578125 48.25 48.578125 53.8125 
Q 48.578125 59.328125 45.03125 62.0625 
Q 41.5 64.796875 34.28125 64.796875 
z
M 9.8125 72.90625 
L 35.015625 72.90625 
Q 46.296875 72.90625 52.390625 68.21875 
Q 58.5 63.53125 58.5 54.890625 
Q 58.5 48.1875 55.375 44.234375 
Q 52.25 40.28125 46.1875 39.3125 
Q 53.46875 37.75 57.5 32.78125 
Q 61.53125 27.828125 61.53125 20.40625 
Q 61.53125 10.640625 54.890625 5.3125 
Q 48.25 0 35.984375 0 
L 9.8125 0 
z
" id="DejaVuSans-42"/>
    </defs>
    <g transform="translate(334.408125 16.318125)scale(0.12 -0.12)">
     <use xlink:href="#DejaVuSans-42"/>
     <use x="68.603516" xlink:href="#DejaVuSans-72"/>
     <use x="109.716797" xlink:href="#DejaVuSans-75"/>
     <use x="173.095703" xlink:href="#DejaVuSans-6b"/>
     <use x="230.958984" xlink:href="#DejaVuSans-65"/>
     <use x="292.482422" xlink:href="#DejaVuSans-72"/>
     <use x="333.595703" xlink:href="#DejaVuSans-20"/>
     <use x="365.382812" xlink:href="#DejaVuSans-46"/>
     <use x="422.902344" xlink:href="#DejaVuSans-57"/>
     <use x="521.779297" xlink:href="#DejaVuSans-48"/>
     <use x="596.974609" xlink:href="#DejaVuSans-4d"/>
    </g>
   </g>
   <g id="legend_1">
    <g id="patch_7">
     <path d="M 47.603125 452.198125 
L 112.9625 452.198125 
Q 114.9625 452.198125 114.9625 450.198125 
L 114.9625 436.52 
Q 114.9625 434.52 112.9625 434.52 
L 47.603125 434.52 
Q 45.603125 434.52 45.603125 436.52 
L 45.603125 450.198125 
Q 45.603125 452.198125 47.603125 452.198125 
z
" style="fill:#ffffff;opacity:0.8;stroke:#cccccc;stroke-linejoin:miter;"/>
    </g>
    <g id="LineCollection_9">
     <path d="M 59.603125 447.618437 
L 59.603125 437.618437 
" style="fill:none;stroke:#d62728;stroke-width:1.5;"/>
    </g>
    <g id="line2d_26"/>
    <g id="line2d_27">
     <g>
      <use style="fill:#d62728;stroke:#d62728;stroke-linejoin:miter;" x="59.603125" xlink:href="#mda221903d0" y="442.618437"/>
     </g>
    </g>
    <g id="text_21">
     <!-- Bruker -->
     <g transform="translate(77.603125 446.118437)scale(0.1 -0.1)">
      <use xlink:href="#DejaVuSans-42"/>
      <use x="68.603516" xlink:href="#DejaVuSans-72"/>
      <use x="109.716797" xlink:href="#DejaVuSans-75"/>
      <use x="173.095703" xlink:href="#DejaVuSans-6b"/>
      <use x="230.958984" xlink:href="#DejaVuSans-65"/>
      <use x="292.482422" xlink:href="#DejaVuSans-72"/>
     </g>
    </g>
   </g>
  </g>
 </g>
 <defs>
  <clipPath id="p4d7ee58d49">
   <rect height="434.88" width="669.6" x="40.603125" y="22.318125"/>
  </clipPath>
 </defs>
</svg>
