<?xml version="1.0" encoding="utf-8" standalone="no"?>
<!DOCTYPE svg PUBLIC "-//W3C//DTD SVG 1.1//EN"
  "http://www.w3.org/Graphics/SVG/1.1/DTD/svg11.dtd">
<!-- Created with matplotlib (http://matplotlib.org/) -->
<svg height="325pt" version="1.1" viewBox="0 0 439 325" width="439pt" xmlns="http://www.w3.org/2000/svg" xmlns:xlink="http://www.w3.org/1999/xlink">
 <defs>
  <style type="text/css">
*{stroke-linecap:butt;stroke-linejoin:round;}
  </style>
 </defs>
 <g id="figure_1">
  <g id="patch_1">
   <path d="M 0 325.986375 
L 439.916875 325.986375 
L 439.916875 0 
L 0 0 
z
" style="fill:#ffffff;"/>
  </g>
  <g id="axes_1">
   <g id="patch_2">
    <path d="M 59.690625 288.430125 
L 416.810625 288.430125 
L 416.810625 22.318125 
L 59.690625 22.318125 
z
" style="fill:#ffffff;"/>
   </g>
   <g id="matplotlib.axis_1">
    <g id="xtick_1">
     <g id="line2d_1">
      <path clip-path="url(#p0f3b736507)" d="M 59.690625 288.430125 
L 59.690625 22.318125 
" style="fill:none;stroke:#b0b0b0;stroke-linecap:square;stroke-width:0.8;"/>
     </g>
     <g id="line2d_2">
      <defs>
       <path d="M 0 0 
L 0 3.5 
" id="m6b8bca18de" style="stroke:#000000;stroke-width:0.8;"/>
      </defs>
      <g>
       <use style="stroke:#000000;stroke-width:0.8;" x="59.690625" xlink:href="#m6b8bca18de" y="288.430125"/>
      </g>
     </g>
     <g id="text_1">
      <!-- −80000 -->
      <defs>
       <path d="M 10.59375 35.5 
L 73.1875 35.5 
L 73.1875 27.203125 
L 10.59375 27.203125 
z
" id="DejaVuSans-2212"/>
       <path d="M 31.78125 34.625 
Q 24.75 34.625 20.71875 30.859375 
Q 16.703125 27.09375 16.703125 20.515625 
Q 16.703125 13.921875 20.71875 10.15625 
Q 24.75 6.390625 31.78125 6.390625 
Q 38.8125 6.390625 42.859375 10.171875 
Q 46.921875 13.96875 46.921875 20.515625 
Q 46.921875 27.09375 42.890625 30.859375 
Q 38.875 34.625 31.78125 34.625 
M 21.921875 38.8125 
Q 15.578125 40.375 12.03125 44.71875 
Q 8.5 49.078125 8.5 55.328125 
Q 8.5 64.0625 14.71875 69.140625 
Q 20.953125 74.21875 31.78125 74.21875 
Q 42.671875 74.21875 48.875 69.140625 
Q 55.078125 64.0625 55.078125 55.328125 
Q 55.078125 49.078125 51.53125 44.71875 
Q 48 40.375 41.703125 38.8125 
Q 48.828125 37.15625 52.796875 32.3125 
Q 56.78125 27.484375 56.78125 20.515625 
Q 56.78125 9.90625 50.3125 4.234375 
Q 43.84375 -1.421875 31.78125 -1.421875 
Q 19.734375 -1.421875 13.25 4.234375 
Q 6.78125 9.90625 6.78125 20.515625 
Q 6.78125 27.484375 10.78125 32.3125 
Q 14.796875 37.15625 21.921875 38.8125 
M 18.3125 54.390625 
Q 18.3125 48.734375 21.84375 45.5625 
Q 25.390625 42.390625 31.78125 42.390625 
Q 38.140625 42.390625 41.71875 45.5625 
Q 45.3125 48.734375 45.3125 54.390625 
Q 45.3125 60.0625 41.71875 63.234375 
Q 38.140625 66.40625 31.78125 66.40625 
Q 25.390625 66.40625 21.84375 63.234375 
Q 18.3125 60.0625 18.3125 54.390625 
" id="DejaVuSans-38"/>
       <path d="M 31.78125 66.40625 
Q 24.171875 66.40625 20.328125 58.90625 
Q 16.5 51.421875 16.5 36.375 
Q 16.5 21.390625 20.328125 13.890625 
Q 24.171875 6.390625 31.78125 6.390625 
Q 39.453125 6.390625 43.28125 13.890625 
Q 47.125 21.390625 47.125 36.375 
Q 47.125 51.421875 43.28125 58.90625 
Q 39.453125 66.40625 31.78125 66.40625 
M 31.78125 74.21875 
Q 44.046875 74.21875 50.515625 64.515625 
Q 56.984375 54.828125 56.984375 36.375 
Q 56.984375 17.96875 50.515625 8.265625 
Q 44.046875 -1.421875 31.78125 -1.421875 
Q 19.53125 -1.421875 13.0625 8.265625 
Q 6.59375 17.96875 6.59375 36.375 
Q 6.59375 54.828125 13.0625 64.515625 
Q 19.53125 74.21875 31.78125 74.21875 
" id="DejaVuSans-30"/>
      </defs>
      <g transform="translate(39.594531 303.028562)scale(0.1 -0.1)">
       <use xlink:href="#DejaVuSans-2212"/>
       <use x="83.789062" xlink:href="#DejaVuSans-38"/>
       <use x="147.412109" xlink:href="#DejaVuSans-30"/>
       <use x="211.035156" xlink:href="#DejaVuSans-30"/>
       <use x="274.658203" xlink:href="#DejaVuSans-30"/>
       <use x="338.28125" xlink:href="#DejaVuSans-30"/>
      </g>
     </g>
    </g>
    <g id="xtick_2">
     <g id="line2d_3">
      <path clip-path="url(#p0f3b736507)" d="M 104.330625 288.430125 
L 104.330625 22.318125 
" style="fill:none;stroke:#b0b0b0;stroke-linecap:square;stroke-width:0.8;"/>
     </g>
     <g id="line2d_4">
      <g>
       <use style="stroke:#000000;stroke-width:0.8;" x="104.330625" xlink:href="#m6b8bca18de" y="288.430125"/>
      </g>
     </g>
     <g id="text_2">
      <!-- −60000 -->
      <defs>
       <path d="M 33.015625 40.375 
Q 26.375 40.375 22.484375 35.828125 
Q 18.609375 31.296875 18.609375 23.390625 
Q 18.609375 15.53125 22.484375 10.953125 
Q 26.375 6.390625 33.015625 6.390625 
Q 39.65625 6.390625 43.53125 10.953125 
Q 47.40625 15.53125 47.40625 23.390625 
Q 47.40625 31.296875 43.53125 35.828125 
Q 39.65625 40.375 33.015625 40.375 
M 52.59375 71.296875 
L 52.59375 62.3125 
Q 48.875 64.0625 45.09375 64.984375 
Q 41.3125 65.921875 37.59375 65.921875 
Q 27.828125 65.921875 22.671875 59.328125 
Q 17.53125 52.734375 16.796875 39.40625 
Q 19.671875 43.65625 24.015625 45.921875 
Q 28.375 48.1875 33.59375 48.1875 
Q 44.578125 48.1875 50.953125 41.515625 
Q 57.328125 34.859375 57.328125 23.390625 
Q 57.328125 12.15625 50.6875 5.359375 
Q 44.046875 -1.421875 33.015625 -1.421875 
Q 20.359375 -1.421875 13.671875 8.265625 
Q 6.984375 17.96875 6.984375 36.375 
Q 6.984375 53.65625 15.1875 63.9375 
Q 23.390625 74.21875 37.203125 74.21875 
Q 40.921875 74.21875 44.703125 73.484375 
Q 48.484375 72.75 52.59375 71.296875 
" id="DejaVuSans-36"/>
      </defs>
      <g transform="translate(84.234531 303.028562)scale(0.1 -0.1)">
       <use xlink:href="#DejaVuSans-2212"/>
       <use x="83.789062" xlink:href="#DejaVuSans-36"/>
       <use x="147.412109" xlink:href="#DejaVuSans-30"/>
       <use x="211.035156" xlink:href="#DejaVuSans-30"/>
       <use x="274.658203" xlink:href="#DejaVuSans-30"/>
       <use x="338.28125" xlink:href="#DejaVuSans-30"/>
      </g>
     </g>
    </g>
    <g id="xtick_3">
     <g id="line2d_5">
      <path clip-path="url(#p0f3b736507)" d="M 148.970625 288.430125 
L 148.970625 22.318125 
" style="fill:none;stroke:#b0b0b0;stroke-linecap:square;stroke-width:0.8;"/>
     </g>
     <g id="line2d_6">
      <g>
       <use style="stroke:#000000;stroke-width:0.8;" x="148.970625" xlink:href="#m6b8bca18de" y="288.430125"/>
      </g>
     </g>
     <g id="text_3">
      <!-- −40000 -->
      <defs>
       <path d="M 37.796875 64.3125 
L 12.890625 25.390625 
L 37.796875 25.390625 
z
M 35.203125 72.90625 
L 47.609375 72.90625 
L 47.609375 25.390625 
L 58.015625 25.390625 
L 58.015625 17.1875 
L 47.609375 17.1875 
L 47.609375 0 
L 37.796875 0 
L 37.796875 17.1875 
L 4.890625 17.1875 
L 4.890625 26.703125 
z
" id="DejaVuSans-34"/>
      </defs>
      <g transform="translate(128.874531 303.028562)scale(0.1 -0.1)">
       <use xlink:href="#DejaVuSans-2212"/>
       <use x="83.789062" xlink:href="#DejaVuSans-34"/>
       <use x="147.412109" xlink:href="#DejaVuSans-30"/>
       <use x="211.035156" xlink:href="#DejaVuSans-30"/>
       <use x="274.658203" xlink:href="#DejaVuSans-30"/>
       <use x="338.28125" xlink:href="#DejaVuSans-30"/>
      </g>
     </g>
    </g>
    <g id="xtick_4">
     <g id="line2d_7">
      <path clip-path="url(#p0f3b736507)" d="M 193.610625 288.430125 
L 193.610625 22.318125 
" style="fill:none;stroke:#b0b0b0;stroke-linecap:square;stroke-width:0.8;"/>
     </g>
     <g id="line2d_8">
      <g>
       <use style="stroke:#000000;stroke-width:0.8;" x="193.610625" xlink:href="#m6b8bca18de" y="288.430125"/>
      </g>
     </g>
     <g id="text_4">
      <!-- −20000 -->
      <defs>
       <path d="M 19.1875 8.296875 
L 53.609375 8.296875 
L 53.609375 0 
L 7.328125 0 
L 7.328125 8.296875 
Q 12.9375 14.109375 22.625 23.890625 
Q 32.328125 33.6875 34.8125 36.53125 
Q 39.546875 41.84375 41.421875 45.53125 
Q 43.3125 49.21875 43.3125 52.78125 
Q 43.3125 58.59375 39.234375 62.25 
Q 35.15625 65.921875 28.609375 65.921875 
Q 23.96875 65.921875 18.8125 64.3125 
Q 13.671875 62.703125 7.8125 59.421875 
L 7.8125 69.390625 
Q 13.765625 71.78125 18.9375 73 
Q 24.125 74.21875 28.421875 74.21875 
Q 39.75 74.21875 46.484375 68.546875 
Q 53.21875 62.890625 53.21875 53.421875 
Q 53.21875 48.921875 51.53125 44.890625 
Q 49.859375 40.875 45.40625 35.40625 
Q 44.1875 33.984375 37.640625 27.21875 
Q 31.109375 20.453125 19.1875 8.296875 
" id="DejaVuSans-32"/>
      </defs>
      <g transform="translate(173.514531 303.028562)scale(0.1 -0.1)">
       <use xlink:href="#DejaVuSans-2212"/>
       <use x="83.789062" xlink:href="#DejaVuSans-32"/>
       <use x="147.412109" xlink:href="#DejaVuSans-30"/>
       <use x="211.035156" xlink:href="#DejaVuSans-30"/>
       <use x="274.658203" xlink:href="#DejaVuSans-30"/>
       <use x="338.28125" xlink:href="#DejaVuSans-30"/>
      </g>
     </g>
    </g>
    <g id="xtick_5">
     <g id="line2d_9">
      <path clip-path="url(#p0f3b736507)" d="M 238.250625 288.430125 
L 238.250625 22.318125 
" style="fill:none;stroke:#b0b0b0;stroke-linecap:square;stroke-width:0.8;"/>
     </g>
     <g id="line2d_10">
      <g>
       <use style="stroke:#000000;stroke-width:0.8;" x="238.250625" xlink:href="#m6b8bca18de" y="288.430125"/>
      </g>
     </g>
     <g id="text_5">
      <!-- 0 -->
      <g transform="translate(235.069375 303.028562)scale(0.1 -0.1)">
       <use xlink:href="#DejaVuSans-30"/>
      </g>
     </g>
    </g>
    <g id="xtick_6">
     <g id="line2d_11">
      <path clip-path="url(#p0f3b736507)" d="M 282.890625 288.430125 
L 282.890625 22.318125 
" style="fill:none;stroke:#b0b0b0;stroke-linecap:square;stroke-width:0.8;"/>
     </g>
     <g id="line2d_12">
      <g>
       <use style="stroke:#000000;stroke-width:0.8;" x="282.890625" xlink:href="#m6b8bca18de" y="288.430125"/>
      </g>
     </g>
     <g id="text_6">
      <!-- 20000 -->
      <g transform="translate(266.984375 303.028562)scale(0.1 -0.1)">
       <use xlink:href="#DejaVuSans-32"/>
       <use x="63.623047" xlink:href="#DejaVuSans-30"/>
       <use x="127.246094" xlink:href="#DejaVuSans-30"/>
       <use x="190.869141" xlink:href="#DejaVuSans-30"/>
       <use x="254.492188" xlink:href="#DejaVuSans-30"/>
      </g>
     </g>
    </g>
    <g id="xtick_7">
     <g id="line2d_13">
      <path clip-path="url(#p0f3b736507)" d="M 327.530625 288.430125 
L 327.530625 22.318125 
" style="fill:none;stroke:#b0b0b0;stroke-linecap:square;stroke-width:0.8;"/>
     </g>
     <g id="line2d_14">
      <g>
       <use style="stroke:#000000;stroke-width:0.8;" x="327.530625" xlink:href="#m6b8bca18de" y="288.430125"/>
      </g>
     </g>
     <g id="text_7">
      <!-- 40000 -->
      <g transform="translate(311.624375 303.028562)scale(0.1 -0.1)">
       <use xlink:href="#DejaVuSans-34"/>
       <use x="63.623047" xlink:href="#DejaVuSans-30"/>
       <use x="127.246094" xlink:href="#DejaVuSans-30"/>
       <use x="190.869141" xlink:href="#DejaVuSans-30"/>
       <use x="254.492188" xlink:href="#DejaVuSans-30"/>
      </g>
     </g>
    </g>
    <g id="xtick_8">
     <g id="line2d_15">
      <path clip-path="url(#p0f3b736507)" d="M 372.170625 288.430125 
L 372.170625 22.318125 
" style="fill:none;stroke:#b0b0b0;stroke-linecap:square;stroke-width:0.8;"/>
     </g>
     <g id="line2d_16">
      <g>
       <use style="stroke:#000000;stroke-width:0.8;" x="372.170625" xlink:href="#m6b8bca18de" y="288.430125"/>
      </g>
     </g>
     <g id="text_8">
      <!-- 60000 -->
      <g transform="translate(356.264375 303.028562)scale(0.1 -0.1)">
       <use xlink:href="#DejaVuSans-36"/>
       <use x="63.623047" xlink:href="#DejaVuSans-30"/>
       <use x="127.246094" xlink:href="#DejaVuSans-30"/>
       <use x="190.869141" xlink:href="#DejaVuSans-30"/>
       <use x="254.492188" xlink:href="#DejaVuSans-30"/>
      </g>
     </g>
    </g>
    <g id="xtick_9">
     <g id="line2d_17">
      <path clip-path="url(#p0f3b736507)" d="M 416.810625 288.430125 
L 416.810625 22.318125 
" style="fill:none;stroke:#b0b0b0;stroke-linecap:square;stroke-width:0.8;"/>
     </g>
     <g id="line2d_18">
      <g>
       <use style="stroke:#000000;stroke-width:0.8;" x="416.810625" xlink:href="#m6b8bca18de" y="288.430125"/>
      </g>
     </g>
     <g id="text_9">
      <!-- 80000 -->
      <g transform="translate(400.904375 303.028562)scale(0.1 -0.1)">
       <use xlink:href="#DejaVuSans-38"/>
       <use x="63.623047" xlink:href="#DejaVuSans-30"/>
       <use x="127.246094" xlink:href="#DejaVuSans-30"/>
       <use x="190.869141" xlink:href="#DejaVuSans-30"/>
       <use x="254.492188" xlink:href="#DejaVuSans-30"/>
      </g>
     </g>
    </g>
    <g id="text_10">
     <!-- Frequenz [kHz] -->
     <defs>
      <path d="M 9.8125 72.90625 
L 51.703125 72.90625 
L 51.703125 64.59375 
L 19.671875 64.59375 
L 19.671875 43.109375 
L 48.578125 43.109375 
L 48.578125 34.8125 
L 19.671875 34.8125 
L 19.671875 0 
L 9.8125 0 
z
" id="DejaVuSans-46"/>
      <path d="M 41.109375 46.296875 
Q 39.59375 47.171875 37.8125 47.578125 
Q 36.03125 48 33.890625 48 
Q 26.265625 48 22.1875 43.046875 
Q 18.109375 38.09375 18.109375 28.8125 
L 18.109375 0 
L 9.078125 0 
L 9.078125 54.6875 
L 18.109375 54.6875 
L 18.109375 46.1875 
Q 20.953125 51.171875 25.484375 53.578125 
Q 30.03125 56 36.53125 56 
Q 37.453125 56 38.578125 55.875 
Q 39.703125 55.765625 41.0625 55.515625 
z
" id="DejaVuSans-72"/>
      <path d="M 56.203125 29.59375 
L 56.203125 25.203125 
L 14.890625 25.203125 
Q 15.484375 15.921875 20.484375 11.0625 
Q 25.484375 6.203125 34.421875 6.203125 
Q 39.59375 6.203125 44.453125 7.46875 
Q 49.3125 8.734375 54.109375 11.28125 
L 54.109375 2.78125 
Q 49.265625 0.734375 44.1875 -0.34375 
Q 39.109375 -1.421875 33.890625 -1.421875 
Q 20.796875 -1.421875 13.15625 6.1875 
Q 5.515625 13.8125 5.515625 26.8125 
Q 5.515625 40.234375 12.765625 48.109375 
Q 20.015625 56 32.328125 56 
Q 43.359375 56 49.78125 48.890625 
Q 56.203125 41.796875 56.203125 29.59375 
M 47.21875 32.234375 
Q 47.125 39.59375 43.09375 43.984375 
Q 39.0625 48.390625 32.421875 48.390625 
Q 24.90625 48.390625 20.390625 44.140625 
Q 15.875 39.890625 15.1875 32.171875 
z
" id="DejaVuSans-65"/>
      <path d="M 14.796875 27.296875 
Q 14.796875 17.390625 18.875 11.75 
Q 22.953125 6.109375 30.078125 6.109375 
Q 37.203125 6.109375 41.296875 11.75 
Q 45.40625 17.390625 45.40625 27.296875 
Q 45.40625 37.203125 41.296875 42.84375 
Q 37.203125 48.484375 30.078125 48.484375 
Q 22.953125 48.484375 18.875 42.84375 
Q 14.796875 37.203125 14.796875 27.296875 
M 45.40625 8.203125 
Q 42.578125 3.328125 38.25 0.953125 
Q 33.9375 -1.421875 27.875 -1.421875 
Q 17.96875 -1.421875 11.734375 6.484375 
Q 5.515625 14.40625 5.515625 27.296875 
Q 5.515625 40.1875 11.734375 48.09375 
Q 17.96875 56 27.875 56 
Q 33.9375 56 38.25 53.625 
Q 42.578125 51.265625 45.40625 46.390625 
L 45.40625 54.6875 
L 54.390625 54.6875 
L 54.390625 -20.796875 
L 45.40625 -20.796875 
z
" id="DejaVuSans-71"/>
      <path d="M 8.5 21.578125 
L 8.5 54.6875 
L 17.484375 54.6875 
L 17.484375 21.921875 
Q 17.484375 14.15625 20.5 10.265625 
Q 23.53125 6.390625 29.59375 6.390625 
Q 36.859375 6.390625 41.078125 11.03125 
Q 45.3125 15.671875 45.3125 23.6875 
L 45.3125 54.6875 
L 54.296875 54.6875 
L 54.296875 0 
L 45.3125 0 
L 45.3125 8.40625 
Q 42.046875 3.421875 37.71875 1 
Q 33.40625 -1.421875 27.6875 -1.421875 
Q 18.265625 -1.421875 13.375 4.4375 
Q 8.5 10.296875 8.5 21.578125 
M 31.109375 56 
z
" id="DejaVuSans-75"/>
      <path d="M 54.890625 33.015625 
L 54.890625 0 
L 45.90625 0 
L 45.90625 32.71875 
Q 45.90625 40.484375 42.875 44.328125 
Q 39.84375 48.1875 33.796875 48.1875 
Q 26.515625 48.1875 22.3125 43.546875 
Q 18.109375 38.921875 18.109375 30.90625 
L 18.109375 0 
L 9.078125 0 
L 9.078125 54.6875 
L 18.109375 54.6875 
L 18.109375 46.1875 
Q 21.34375 51.125 25.703125 53.5625 
Q 30.078125 56 35.796875 56 
Q 45.21875 56 50.046875 50.171875 
Q 54.890625 44.34375 54.890625 33.015625 
" id="DejaVuSans-6e"/>
      <path d="M 5.515625 54.6875 
L 48.1875 54.6875 
L 48.1875 46.484375 
L 14.40625 7.171875 
L 48.1875 7.171875 
L 48.1875 0 
L 4.296875 0 
L 4.296875 8.203125 
L 38.09375 47.515625 
L 5.515625 47.515625 
z
" id="DejaVuSans-7a"/>
      <path id="DejaVuSans-20"/>
      <path d="M 8.59375 75.984375 
L 29.296875 75.984375 
L 29.296875 69 
L 17.578125 69 
L 17.578125 -6.203125 
L 29.296875 -6.203125 
L 29.296875 -13.1875 
L 8.59375 -13.1875 
z
" id="DejaVuSans-5b"/>
      <path d="M 9.078125 75.984375 
L 18.109375 75.984375 
L 18.109375 31.109375 
L 44.921875 54.6875 
L 56.390625 54.6875 
L 27.390625 29.109375 
L 57.625 0 
L 45.90625 0 
L 18.109375 26.703125 
L 18.109375 0 
L 9.078125 0 
z
" id="DejaVuSans-6b"/>
      <path d="M 9.8125 72.90625 
L 19.671875 72.90625 
L 19.671875 43.015625 
L 55.515625 43.015625 
L 55.515625 72.90625 
L 65.375 72.90625 
L 65.375 0 
L 55.515625 0 
L 55.515625 34.71875 
L 19.671875 34.71875 
L 19.671875 0 
L 9.8125 0 
z
" id="DejaVuSans-48"/>
      <path d="M 30.421875 75.984375 
L 30.421875 -13.1875 
L 9.71875 -13.1875 
L 9.71875 -6.203125 
L 21.390625 -6.203125 
L 21.390625 69 
L 9.71875 69 
L 9.71875 75.984375 
z
" id="DejaVuSans-5d"/>
     </defs>
     <g transform="translate(200.267031 316.706687)scale(0.1 -0.1)">
      <use xlink:href="#DejaVuSans-46"/>
      <use x="57.410156" xlink:href="#DejaVuSans-72"/>
      <use x="98.492188" xlink:href="#DejaVuSans-65"/>
      <use x="160.015625" xlink:href="#DejaVuSans-71"/>
      <use x="223.492188" xlink:href="#DejaVuSans-75"/>
      <use x="286.871094" xlink:href="#DejaVuSans-65"/>
      <use x="348.394531" xlink:href="#DejaVuSans-6e"/>
      <use x="411.773438" xlink:href="#DejaVuSans-7a"/>
      <use x="464.263672" xlink:href="#DejaVuSans-20"/>
      <use x="496.050781" xlink:href="#DejaVuSans-5b"/>
      <use x="535.064453" xlink:href="#DejaVuSans-6b"/>
      <use x="592.974609" xlink:href="#DejaVuSans-48"/>
      <use x="668.169922" xlink:href="#DejaVuSans-7a"/>
      <use x="720.660156" xlink:href="#DejaVuSans-5d"/>
     </g>
    </g>
   </g>
   <g id="matplotlib.axis_2">
    <g id="ytick_1">
     <g id="line2d_19">
      <path clip-path="url(#p0f3b736507)" d="M 59.690625 261.220281 
L 416.810625 261.220281 
" style="fill:none;stroke:#b0b0b0;stroke-linecap:square;stroke-width:0.8;"/>
     </g>
     <g id="line2d_20">
      <defs>
       <path d="M 0 0 
L -3.5 0 
" id="m1552a49fc6" style="stroke:#000000;stroke-width:0.8;"/>
      </defs>
      <g>
       <use style="stroke:#000000;stroke-width:0.8;" x="59.690625" xlink:href="#m1552a49fc6" y="261.220281"/>
      </g>
     </g>
     <g id="text_11">
      <!-- 0 -->
      <g transform="translate(46.328125 265.019499)scale(0.1 -0.1)">
       <use xlink:href="#DejaVuSans-30"/>
      </g>
     </g>
    </g>
    <g id="ytick_2">
     <g id="line2d_21">
      <path clip-path="url(#p0f3b736507)" d="M 59.690625 214.549894 
L 416.810625 214.549894 
" style="fill:none;stroke:#b0b0b0;stroke-linecap:square;stroke-width:0.8;"/>
     </g>
     <g id="line2d_22">
      <g>
       <use style="stroke:#000000;stroke-width:0.8;" x="59.690625" xlink:href="#m1552a49fc6" y="214.549894"/>
      </g>
     </g>
     <g id="text_12">
      <!-- 10000 -->
      <defs>
       <path d="M 12.40625 8.296875 
L 28.515625 8.296875 
L 28.515625 63.921875 
L 10.984375 60.40625 
L 10.984375 69.390625 
L 28.421875 72.90625 
L 38.28125 72.90625 
L 38.28125 8.296875 
L 54.390625 8.296875 
L 54.390625 0 
L 12.40625 0 
z
" id="DejaVuSans-31"/>
      </defs>
      <g transform="translate(20.878125 218.349113)scale(0.1 -0.1)">
       <use xlink:href="#DejaVuSans-31"/>
       <use x="63.623047" xlink:href="#DejaVuSans-30"/>
       <use x="127.246094" xlink:href="#DejaVuSans-30"/>
       <use x="190.869141" xlink:href="#DejaVuSans-30"/>
       <use x="254.492188" xlink:href="#DejaVuSans-30"/>
      </g>
     </g>
    </g>
    <g id="ytick_3">
     <g id="line2d_23">
      <path clip-path="url(#p0f3b736507)" d="M 59.690625 167.879508 
L 416.810625 167.879508 
" style="fill:none;stroke:#b0b0b0;stroke-linecap:square;stroke-width:0.8;"/>
     </g>
     <g id="line2d_24">
      <g>
       <use style="stroke:#000000;stroke-width:0.8;" x="59.690625" xlink:href="#m1552a49fc6" y="167.879508"/>
      </g>
     </g>
     <g id="text_13">
      <!-- 20000 -->
      <g transform="translate(20.878125 171.678727)scale(0.1 -0.1)">
       <use xlink:href="#DejaVuSans-32"/>
       <use x="63.623047" xlink:href="#DejaVuSans-30"/>
       <use x="127.246094" xlink:href="#DejaVuSans-30"/>
       <use x="190.869141" xlink:href="#DejaVuSans-30"/>
       <use x="254.492188" xlink:href="#DejaVuSans-30"/>
      </g>
     </g>
    </g>
    <g id="ytick_4">
     <g id="line2d_25">
      <path clip-path="url(#p0f3b736507)" d="M 59.690625 121.209122 
L 416.810625 121.209122 
" style="fill:none;stroke:#b0b0b0;stroke-linecap:square;stroke-width:0.8;"/>
     </g>
     <g id="line2d_26">
      <g>
       <use style="stroke:#000000;stroke-width:0.8;" x="59.690625" xlink:href="#m1552a49fc6" y="121.209122"/>
      </g>
     </g>
     <g id="text_14">
      <!-- 30000 -->
      <defs>
       <path d="M 40.578125 39.3125 
Q 47.65625 37.796875 51.625 33 
Q 55.609375 28.21875 55.609375 21.1875 
Q 55.609375 10.40625 48.1875 4.484375 
Q 40.765625 -1.421875 27.09375 -1.421875 
Q 22.515625 -1.421875 17.65625 -0.515625 
Q 12.796875 0.390625 7.625 2.203125 
L 7.625 11.71875 
Q 11.71875 9.328125 16.59375 8.109375 
Q 21.484375 6.890625 26.8125 6.890625 
Q 36.078125 6.890625 40.9375 10.546875 
Q 45.796875 14.203125 45.796875 21.1875 
Q 45.796875 27.640625 41.28125 31.265625 
Q 36.765625 34.90625 28.71875 34.90625 
L 20.21875 34.90625 
L 20.21875 43.015625 
L 29.109375 43.015625 
Q 36.375 43.015625 40.234375 45.921875 
Q 44.09375 48.828125 44.09375 54.296875 
Q 44.09375 59.90625 40.109375 62.90625 
Q 36.140625 65.921875 28.71875 65.921875 
Q 24.65625 65.921875 20.015625 65.03125 
Q 15.375 64.15625 9.8125 62.3125 
L 9.8125 71.09375 
Q 15.4375 72.65625 20.34375 73.4375 
Q 25.25 74.21875 29.59375 74.21875 
Q 40.828125 74.21875 47.359375 69.109375 
Q 53.90625 64.015625 53.90625 55.328125 
Q 53.90625 49.265625 50.4375 45.09375 
Q 46.96875 40.921875 40.578125 39.3125 
" id="DejaVuSans-33"/>
      </defs>
      <g transform="translate(20.878125 125.008341)scale(0.1 -0.1)">
       <use xlink:href="#DejaVuSans-33"/>
       <use x="63.623047" xlink:href="#DejaVuSans-30"/>
       <use x="127.246094" xlink:href="#DejaVuSans-30"/>
       <use x="190.869141" xlink:href="#DejaVuSans-30"/>
       <use x="254.492188" xlink:href="#DejaVuSans-30"/>
      </g>
     </g>
    </g>
    <g id="ytick_5">
     <g id="line2d_27">
      <path clip-path="url(#p0f3b736507)" d="M 59.690625 74.538736 
L 416.810625 74.538736 
" style="fill:none;stroke:#b0b0b0;stroke-linecap:square;stroke-width:0.8;"/>
     </g>
     <g id="line2d_28">
      <g>
       <use style="stroke:#000000;stroke-width:0.8;" x="59.690625" xlink:href="#m1552a49fc6" y="74.538736"/>
      </g>
     </g>
     <g id="text_15">
      <!-- 40000 -->
      <g transform="translate(20.878125 78.337954)scale(0.1 -0.1)">
       <use xlink:href="#DejaVuSans-34"/>
       <use x="63.623047" xlink:href="#DejaVuSans-30"/>
       <use x="127.246094" xlink:href="#DejaVuSans-30"/>
       <use x="190.869141" xlink:href="#DejaVuSans-30"/>
       <use x="254.492188" xlink:href="#DejaVuSans-30"/>
      </g>
     </g>
    </g>
    <g id="ytick_6">
     <g id="line2d_29">
      <path clip-path="url(#p0f3b736507)" d="M 59.690625 27.868349 
L 416.810625 27.868349 
" style="fill:none;stroke:#b0b0b0;stroke-linecap:square;stroke-width:0.8;"/>
     </g>
     <g id="line2d_30">
      <g>
       <use style="stroke:#000000;stroke-width:0.8;" x="59.690625" xlink:href="#m1552a49fc6" y="27.868349"/>
      </g>
     </g>
     <g id="text_16">
      <!-- 50000 -->
      <defs>
       <path d="M 10.796875 72.90625 
L 49.515625 72.90625 
L 49.515625 64.59375 
L 19.828125 64.59375 
L 19.828125 46.734375 
Q 21.96875 47.46875 24.109375 47.828125 
Q 26.265625 48.1875 28.421875 48.1875 
Q 40.625 48.1875 47.75 41.5 
Q 54.890625 34.8125 54.890625 23.390625 
Q 54.890625 11.625 47.5625 5.09375 
Q 40.234375 -1.421875 26.90625 -1.421875 
Q 22.3125 -1.421875 17.546875 -0.640625 
Q 12.796875 0.140625 7.71875 1.703125 
L 7.71875 11.625 
Q 12.109375 9.234375 16.796875 8.0625 
Q 21.484375 6.890625 26.703125 6.890625 
Q 35.15625 6.890625 40.078125 11.328125 
Q 45.015625 15.765625 45.015625 23.390625 
Q 45.015625 31 40.078125 35.4375 
Q 35.15625 39.890625 26.703125 39.890625 
Q 22.75 39.890625 18.8125 39.015625 
Q 14.890625 38.140625 10.796875 36.28125 
z
" id="DejaVuSans-35"/>
      </defs>
      <g transform="translate(20.878125 31.667568)scale(0.1 -0.1)">
       <use xlink:href="#DejaVuSans-35"/>
       <use x="63.623047" xlink:href="#DejaVuSans-30"/>
       <use x="127.246094" xlink:href="#DejaVuSans-30"/>
       <use x="190.869141" xlink:href="#DejaVuSans-30"/>
       <use x="254.492188" xlink:href="#DejaVuSans-30"/>
      </g>
     </g>
    </g>
    <g id="text_17">
     <!-- u.a. -->
     <defs>
      <path d="M 10.6875 12.40625 
L 21 12.40625 
L 21 0 
L 10.6875 0 
z
" id="DejaVuSans-2e"/>
      <path d="M 34.28125 27.484375 
Q 23.390625 27.484375 19.1875 25 
Q 14.984375 22.515625 14.984375 16.5 
Q 14.984375 11.71875 18.140625 8.90625 
Q 21.296875 6.109375 26.703125 6.109375 
Q 34.1875 6.109375 38.703125 11.40625 
Q 43.21875 16.703125 43.21875 25.484375 
L 43.21875 27.484375 
z
M 52.203125 31.203125 
L 52.203125 0 
L 43.21875 0 
L 43.21875 8.296875 
Q 40.140625 3.328125 35.546875 0.953125 
Q 30.953125 -1.421875 24.3125 -1.421875 
Q 15.921875 -1.421875 10.953125 3.296875 
Q 6 8.015625 6 15.921875 
Q 6 25.140625 12.171875 29.828125 
Q 18.359375 34.515625 30.609375 34.515625 
L 43.21875 34.515625 
L 43.21875 35.40625 
Q 43.21875 41.609375 39.140625 45 
Q 35.0625 48.390625 27.6875 48.390625 
Q 23 48.390625 18.546875 47.265625 
Q 14.109375 46.140625 10.015625 43.890625 
L 10.015625 52.203125 
Q 14.9375 54.109375 19.578125 55.046875 
Q 24.21875 56 28.609375 56 
Q 40.484375 56 46.34375 49.84375 
Q 52.203125 43.703125 52.203125 31.203125 
" id="DejaVuSans-61"/>
     </defs>
     <g transform="translate(14.798438 164.785062)rotate(-90)scale(0.1 -0.1)">
      <use xlink:href="#DejaVuSans-75"/>
      <use x="63.378906" xlink:href="#DejaVuSans-2e"/>
      <use x="95.166016" xlink:href="#DejaVuSans-61"/>
      <use x="156.445312" xlink:href="#DejaVuSans-2e"/>
     </g>
    </g>
   </g>
   <g id="line2d_31">
    <path clip-path="url(#p0f3b736507)" d="M 59.51625 251.101511 
L 60.061172 251.107448 
L 60.606094 250.954147 
L 62.785781 249.816092 
L 65.510391 249.414677 
L 67.690078 249.246709 
L 68.779922 249.003542 
L 69.869766 249.00981 
L 70.959609 249.038367 
L 73.139297 248.777346 
L 74.229141 248.391806 
L 75.318984 248.03535 
L 77.498672 247.745233 
L 78.588516 247.205306 
L 80.768203 245.64808 
L 81.858047 244.757575 
L 83.492813 243.710457 
L 85.6725 241.663291 
L 86.217422 241.406914 
L 86.762344 241.368061 
L 87.852188 241.538338 
L 88.942031 241.255007 
L 90.576797 240.637777 
L 91.666641 239.820695 
L 93.846328 237.91894 
L 94.936172 237.349785 
L 96.026016 236.897614 
L 97.115859 236.043299 
L 98.205703 235.184231 
L 99.295547 234.402598 
L 102.020156 231.76504 
L 102.565078 231.366903 
L 103.11 231.129865 
L 103.654922 231.128387 
L 104.744766 231.383447 
L 105.289688 231.250284 
L 105.834609 230.824683 
L 107.469375 228.804989 
L 108.014297 228.468115 
L 109.649063 228.211417 
L 110.193984 227.92385 
L 110.738906 227.446084 
L 112.918594 224.869461 
L 114.553359 223.688683 
L 116.188125 222.112885 
L 117.277969 221.435658 
L 118.912734 220.6549 
L 120.002578 219.797117 
L 121.637344 217.989838 
L 122.727188 216.540904 
L 123.817031 215.029851 
L 124.906875 213.959606 
L 129.26625 210.2539 
L 130.356094 209.24593 
L 131.445938 208.651284 
L 132.535781 208.035031 
L 134.170547 206.470834 
L 135.805313 204.942605 
L 137.985 202.291156 
L 139.074844 200.607236 
L 140.164688 198.947534 
L 141.799453 197.200949 
L 143.979141 194.924919 
L 147.248672 190.529121 
L 148.338516 189.410679 
L 149.428359 187.832008 
L 151.063125 185.237239 
L 153.787734 182.104556 
L 155.967422 180.146568 
L 157.057266 178.69017 
L 158.147109 176.930479 
L 161.416641 171.108949 
L 162.506484 169.76065 
L 164.686172 167.69515 
L 165.776016 166.069923 
L 168.500625 161.424817 
L 169.590469 159.166923 
L 171.225234 155.445619 
L 172.315078 153.771849 
L 174.494766 151.271265 
L 175.584609 149.348253 
L 177.764297 145.234284 
L 182.123672 137.259341 
L 183.758438 133.958596 
L 184.848281 132.315671 
L 185.938125 130.673515 
L 187.572891 127.528124 
L 191.387344 119.942498 
L 193.022109 117.072004 
L 194.111953 115.264646 
L 195.201797 112.884565 
L 197.381484 106.840015 
L 198.471328 103.794934 
L 199.561172 101.489971 
L 201.740859 97.620234 
L 203.375625 94.328808 
L 206.645156 86.852641 
L 208.279922 82.900406 
L 211.004531 77.091209 
L 212.639297 73.033997 
L 213.729141 69.348249 
L 214.274063 67.420216 
L 214.818984 65.927098 
L 215.363906 65.03402 
L 216.45375 64.041353 
L 216.998672 63.337389 
L 218.088516 61.272428 
L 219.723281 57.481494 
L 222.447891 50.188432 
L 224.082656 47.171569 
L 225.717422 43.993401 
L 226.807266 41.971356 
L 227.897109 39.673761 
L 228.442031 38.74702 
L 228.986953 38.084917 
L 232.801406 34.857347 
L 233.89125 34.437775 
L 234.436172 34.414125 
L 235.526016 34.882779 
L 236.615859 35.417564 
L 237.160781 36.206522 
L 237.705703 38.148222 
L 238.250625 41.552073 
L 239.885391 54.914679 
L 240.430313 58.134337 
L 240.975234 60.497835 
L 242.065078 63.880009 
L 244.244766 70.126244 
L 245.334609 73.863571 
L 251.32875 96.531678 
L 252.418594 99.635789 
L 254.053359 104.08191 
L 256.233047 111.401199 
L 258.412734 117.522454 
L 263.861953 133.85284 
L 266.586563 140.320641 
L 268.221328 144.696607 
L 269.311172 147.045045 
L 270.401016 149.225156 
L 271.490859 151.942225 
L 272.580703 154.810933 
L 274.760391 159.928726 
L 276.395156 164.361274 
L 277.485 166.271168 
L 279.664688 169.574433 
L 280.754531 171.150519 
L 281.844375 173.530481 
L 283.479141 177.695992 
L 284.568984 179.855328 
L 285.658828 181.35039 
L 286.748672 182.851874 
L 287.838516 185.162786 
L 288.928359 187.334644 
L 290.018203 188.589374 
L 291.108047 189.777276 
L 292.197891 191.758918 
L 293.287734 193.696202 
L 294.9225 195.900945 
L 299.281875 203.487054 
L 300.371719 204.397605 
L 301.461563 205.329073 
L 303.64125 207.977673 
L 306.365859 212.022126 
L 308.000625 213.675217 
L 310.725234 217.05833 
L 312.36 218.719288 
L 313.449844 219.47055 
L 314.539688 220.191971 
L 315.084609 220.808623 
L 316.174453 222.790298 
L 317.264297 224.738865 
L 317.809219 225.284142 
L 319.988906 226.684207 
L 321.07875 227.932984 
L 322.168594 229.186325 
L 323.258438 229.964497 
L 327.072891 232.050022 
L 328.707656 232.288185 
L 329.252578 232.612794 
L 330.342422 233.739117 
L 331.432266 234.849823 
L 333.067031 236.365931 
L 334.156875 237.393386 
L 335.246719 238.000197 
L 336.881484 238.659828 
L 339.061172 240.146179 
L 345.055313 242.757562 
L 347.779922 244.56155 
L 348.869766 244.44043 
L 349.414688 244.406702 
L 349.959609 244.572021 
L 351.049453 245.216547 
L 351.594375 245.39294 
L 353.229141 245.505719 
L 354.318984 246.197978 
L 355.408828 246.873222 
L 355.95375 246.98401 
L 358.133438 246.823135 
L 358.678359 247.169421 
L 359.768203 248.452975 
L 360.858047 249.712006 
L 361.402969 250.050664 
L 362.492813 250.290126 
L 363.582656 250.203498 
L 364.6725 250.181893 
L 365.762344 250.60691 
L 369.031875 252.054248 
L 369.576797 252.112604 
L 371.211563 251.806185 
L 371.756484 251.869532 
L 372.846328 252.363399 
L 373.936172 252.903299 
L 374.481094 252.926915 
L 376.115859 252.247282 
L 376.660781 252.353716 
L 377.750625 253.099807 
L 379.385391 254.178769 
L 380.475234 254.658873 
L 381.565078 254.61859 
L 382.654922 254.577272 
L 383.744766 254.87489 
L 385.379531 255.431822 
L 385.924453 255.447834 
L 388.104141 254.948387 
L 390.283828 255.796417 
L 391.373672 255.813298 
L 393.553359 255.498288 
L 394.643203 255.872426 
L 396.277969 256.454678 
L 397.367813 256.470394 
L 398.457656 256.399177 
L 399.5475 256.731309 
L 402.272109 257.876989 
L 403.361953 258.674912 
L 403.906875 258.930033 
L 404.996719 259.082349 
L 407.176406 259.174954 
L 408.26625 259.085285 
L 409.356094 259.32499 
L 410.445938 259.610808 
L 413.170547 259.725188 
L 414.260391 259.902895 
L 415.350234 259.792243 
L 416.985 259.219122 
L 416.985 259.219122 
" style="fill:none;stroke:#1f77b4;stroke-linecap:square;stroke-width:1.5;"/>
   </g>
   <g id="line2d_32">
    <path clip-path="url(#p0f3b736507)" d="M 59.51625 252.710333 
L 62.240859 251.610067 
L 64.420547 251.168363 
L 65.510391 250.960285 
L 66.600234 250.633604 
L 68.235 250.27061 
L 69.869766 249.581517 
L 72.049453 249.015967 
L 73.139297 248.099221 
L 74.229141 247.230205 
L 74.774063 247.109198 
L 75.318984 247.234203 
L 76.408828 247.678379 
L 76.95375 247.678154 
L 77.498672 247.456028 
L 78.588516 246.527741 
L 79.678359 245.522317 
L 80.223281 245.30965 
L 80.768203 245.35235 
L 82.402969 245.817211 
L 82.947891 245.750735 
L 83.492813 245.525255 
L 84.582656 244.710742 
L 87.307266 242.480549 
L 87.852188 242.093305 
L 88.397109 241.859031 
L 91.121719 241.32636 
L 96.026016 239.583291 
L 97.660781 238.536344 
L 98.750625 238.365355 
L 99.840469 238.234508 
L 101.475234 237.742881 
L 102.020156 237.820525 
L 102.565078 238.016594 
L 103.11 238.051347 
L 103.654922 237.589593 
L 104.199844 236.559632 
L 105.289688 234.120317 
L 105.834609 233.323004 
L 106.379531 232.833361 
L 107.469375 232.302977 
L 109.104141 231.538748 
L 110.738906 230.52214 
L 112.373672 229.119506 
L 115.098281 226.855558 
L 115.643203 226.525816 
L 116.733047 226.274168 
L 117.277969 226.193558 
L 117.822891 225.999337 
L 118.912734 225.289205 
L 120.002578 224.254511 
L 121.637344 222.163882 
L 122.182266 221.724625 
L 123.817031 220.776089 
L 130.356094 214.692503 
L 131.990859 213.481791 
L 139.074844 207.290077 
L 140.164688 206.040218 
L 141.799453 203.993632 
L 142.889297 202.984432 
L 143.979141 202.017402 
L 145.068984 200.605998 
L 147.248672 197.269825 
L 147.793594 196.698851 
L 148.883438 196.04748 
L 149.428359 195.709157 
L 149.973281 195.188492 
L 152.152969 192.609349 
L 153.787734 190.875489 
L 155.4225 188.848605 
L 157.602188 185.494637 
L 158.692031 184.487261 
L 159.781875 183.548532 
L 160.871719 182.282348 
L 161.961563 180.721183 
L 163.051406 178.815728 
L 164.686172 175.784687 
L 165.776016 174.338615 
L 168.500625 170.890466 
L 171.225234 166.75306 
L 172.315078 165.212436 
L 174.494766 161.311277 
L 176.129531 159.445542 
L 177.219375 158.031737 
L 179.943984 154.172103 
L 181.57875 151.641095 
L 183.213516 149.018883 
L 185.938125 143.324055 
L 188.117813 140.330251 
L 190.2975 136.138444 
L 194.111953 129.320291 
L 196.291641 125.604238 
L 197.926406 122.609888 
L 200.106094 119.625227 
L 201.740859 116.375787 
L 203.375625 112.437126 
L 205.555313 107.191931 
L 207.190078 103.543979 
L 208.824844 99.614542 
L 209.914688 97.852266 
L 211.004531 96.177855 
L 211.549453 94.948293 
L 212.639297 91.459102 
L 213.184219 89.602887 
L 213.729141 88.23401 
L 214.274063 87.674347 
L 215.363906 87.905829 
L 215.908828 87.519786 
L 216.45375 86.462077 
L 218.633438 80.852889 
L 225.1725 68.029583 
L 226.262344 65.906661 
L 227.897109 62.968125 
L 229.531875 59.790986 
L 230.076797 58.976416 
L 230.621719 58.369386 
L 231.166641 58.012758 
L 231.711563 57.913864 
L 232.256484 58.029206 
L 232.801406 58.302669 
L 233.89125 59.238247 
L 235.526016 60.94049 
L 236.615859 61.522769 
L 237.160781 62.19583 
L 237.705703 63.79885 
L 238.250625 66.575336 
L 240.430313 80.35852 
L 241.520156 84.593293 
L 242.61 87.342557 
L 243.699844 89.826482 
L 244.789688 92.990249 
L 246.424453 97.879944 
L 249.149063 105.423357 
L 250.783828 111.084226 
L 251.873672 114.645168 
L 253.508438 118.947226 
L 256.233047 125.63047 
L 258.957656 133.058292 
L 260.592422 137.01371 
L 262.772109 141.802704 
L 264.406875 145.974952 
L 266.041641 150.777757 
L 267.131484 153.090659 
L 268.76625 156.201434 
L 269.856094 158.760721 
L 272.035781 164.433635 
L 274.215469 169.190514 
L 278.029922 176.369434 
L 281.299453 182.890612 
L 282.389297 184.55896 
L 284.024063 186.492864 
L 285.658828 189.250118 
L 287.293594 191.823169 
L 288.928359 194.303094 
L 293.287734 201.848869 
L 294.9225 203.6345 
L 296.557266 205.104162 
L 297.647109 206.134734 
L 298.192031 206.891475 
L 299.281875 209.015751 
L 300.371719 211.011378 
L 300.916641 211.617911 
L 303.64125 213.81608 
L 305.820938 215.94596 
L 306.910781 217.198964 
L 308.545547 219.283686 
L 310.725234 221.273665 
L 312.904922 223.246433 
L 316.174453 226.753038 
L 319.443984 229.300411 
L 319.988906 229.95304 
L 321.623672 232.349527 
L 322.168594 232.630154 
L 323.258438 232.522959 
L 323.803359 232.661443 
L 324.348281 233.071661 
L 325.983047 234.719477 
L 327.617813 235.956431 
L 328.707656 236.56207 
L 332.522109 238.300895 
L 335.246719 240.732733 
L 336.881484 241.844241 
L 337.426406 242.050216 
L 337.971328 242.066522 
L 339.061172 241.882237 
L 339.606094 241.980079 
L 340.151016 242.30129 
L 341.785781 243.579964 
L 343.965469 244.441746 
L 345.600234 245.616208 
L 346.145156 245.777721 
L 347.779922 245.714861 
L 348.324844 245.977574 
L 349.959609 247.19783 
L 350.504531 247.370078 
L 351.594375 247.329022 
L 352.684219 247.210618 
L 353.774063 247.318605 
L 354.318984 247.52639 
L 355.408828 248.316979 
L 355.95375 248.734255 
L 356.498672 249.002175 
L 357.043594 249.077783 
L 358.678359 248.881048 
L 359.223281 248.958534 
L 360.313125 249.439559 
L 361.402969 250.370549 
L 362.492813 251.502925 
L 363.037734 251.882583 
L 363.582656 252.085974 
L 364.6725 252.190209 
L 366.852188 252.379011 
L 368.486953 252.610592 
L 370.121719 253.138411 
L 371.756484 253.171713 
L 372.846328 253.521064 
L 373.39125 253.501356 
L 375.026016 252.971286 
L 375.570938 253.067187 
L 377.205703 253.810779 
L 379.385391 254.765697 
L 381.020156 255.371536 
L 382.11 255.393633 
L 383.199844 255.45013 
L 384.834609 256.137785 
L 385.379531 256.189946 
L 387.559219 256.015523 
L 389.193984 256.063746 
L 390.82875 256.152925 
L 391.373672 256.32529 
L 392.463516 256.998828 
L 393.008438 257.371759 
L 393.553359 257.60302 
L 394.098281 257.58855 
L 395.188125 256.952057 
L 395.733047 256.634373 
L 396.277969 256.513125 
L 396.822891 256.621151 
L 397.912734 257.269307 
L 399.002578 258.04156 
L 399.5475 258.321571 
L 400.092422 258.440303 
L 401.182266 258.306809 
L 402.817031 258.146033 
L 403.906875 258.295334 
L 404.996719 258.864876 
L 406.086563 259.559824 
L 406.631484 259.787811 
L 407.176406 259.866223 
L 407.721328 259.79423 
L 408.811172 259.278945 
L 410.445938 257.981519 
L 410.990859 257.75612 
L 411.535781 257.758929 
L 413.170547 258.157282 
L 414.260391 258.242334 
L 415.895156 258.809358 
L 416.985 258.610145 
L 416.985 258.610145 
" style="fill:none;stroke:#ff7f0e;stroke-linecap:square;stroke-width:1.5;"/>
   </g>
   <g id="line2d_33">
    <path clip-path="url(#p0f3b736507)" d="M 59.51625 255.776841 
L 63.330703 256.160557 
L 64.420547 255.911787 
L 65.510391 255.559473 
L 66.600234 255.581383 
L 67.690078 255.58772 
L 68.779922 255.252769 
L 71.504531 253.995606 
L 75.318984 252.94599 
L 76.95375 252.641137 
L 78.043594 252.550212 
L 80.223281 252.709232 
L 82.402969 252.444217 
L 83.492813 251.798923 
L 84.582656 251.147866 
L 85.6725 250.888182 
L 87.307266 250.755946 
L 88.397109 250.671651 
L 89.486953 250.394172 
L 90.576797 249.915675 
L 91.666641 249.444075 
L 92.756484 249.399437 
L 93.846328 249.279525 
L 95.481094 248.642818 
L 96.026016 248.643022 
L 97.115859 248.895012 
L 97.660781 248.867166 
L 98.205703 248.629891 
L 99.295547 247.703874 
L 100.930313 246.175324 
L 102.020156 245.594484 
L 103.11 245.113436 
L 103.654922 244.996694 
L 104.199844 245.101144 
L 105.289688 245.558651 
L 105.834609 245.557092 
L 106.924453 245.075506 
L 108.014297 244.538648 
L 109.104141 244.284711 
L 111.283828 244.363783 
L 111.82875 244.139733 
L 114.553359 242.485892 
L 115.643203 242.061241 
L 116.188125 241.675429 
L 118.367813 239.593241 
L 119.457656 239.10626 
L 122.182266 238.436467 
L 123.272109 237.729373 
L 124.361953 236.807335 
L 124.906875 236.498479 
L 125.451797 236.35738 
L 127.086563 236.277594 
L 127.631484 236.024515 
L 128.721328 234.989715 
L 129.811172 233.852677 
L 130.901016 233.027582 
L 131.990859 232.554471 
L 133.080703 232.215956 
L 134.715469 231.474025 
L 136.350234 231.292441 
L 138.529922 229.991683 
L 139.619766 229.753421 
L 140.709609 229.196967 
L 141.799453 228.308256 
L 143.979141 226.133559 
L 146.158828 223.885386 
L 147.248672 222.944658 
L 148.338516 222.353639 
L 150.518203 221.818875 
L 151.063125 221.497656 
L 152.152969 220.418533 
L 153.242813 219.379422 
L 154.332656 218.847499 
L 155.4225 218.275354 
L 156.512344 217.384854 
L 159.236953 214.686079 
L 160.326797 214.138262 
L 161.961563 213.51152 
L 163.051406 212.798194 
L 165.231094 210.594451 
L 166.865859 208.851858 
L 170.135391 205.028257 
L 171.225234 204.229757 
L 172.315078 203.716893 
L 173.404922 203.342713 
L 173.949844 202.905127 
L 175.039688 201.410498 
L 176.674453 198.927243 
L 177.219375 198.410059 
L 178.854141 197.321091 
L 180.488906 195.740043 
L 182.123672 194.59855 
L 182.668594 193.850182 
L 184.303359 191.002795 
L 184.848281 190.472035 
L 185.938125 190.049388 
L 186.483047 189.828358 
L 187.027969 189.40681 
L 188.117813 187.952759 
L 190.2975 184.763735 
L 191.387344 183.441964 
L 193.567031 181.219286 
L 197.381484 176.142615 
L 199.01625 174.156944 
L 201.740859 171.657432 
L 205.555313 166.581506 
L 206.645156 165.37205 
L 207.735 163.747113 
L 209.369766 161.138063 
L 210.459609 159.71721 
L 211.004531 159.221225 
L 214.274063 157.117686 
L 214.818984 156.403273 
L 220.268203 146.746248 
L 221.358047 144.535078 
L 221.902969 143.663671 
L 222.447891 143.04047 
L 224.082656 141.718004 
L 224.627578 140.854131 
L 226.807266 135.995864 
L 227.352188 135.294744 
L 227.897109 134.908628 
L 228.986953 134.662747 
L 230.076797 134.39024 
L 231.166641 133.824833 
L 232.256484 133.177072 
L 232.801406 133.002091 
L 233.346328 133.024845 
L 234.436172 133.457635 
L 235.526016 133.983697 
L 236.070938 134.343443 
L 236.615859 134.893232 
L 237.160781 135.802587 
L 237.705703 137.243324 
L 239.885391 144.834637 
L 240.975234 147.021378 
L 242.61 149.719983 
L 243.699844 152.063787 
L 244.789688 154.519939 
L 247.514297 159.575317 
L 249.149063 162.563826 
L 250.238906 165.148628 
L 251.873672 169.387478 
L 252.963516 171.771444 
L 254.053359 173.659986 
L 257.322891 178.207785 
L 260.0475 182.523821 
L 261.682266 185.333523 
L 263.861953 189.633519 
L 264.406875 190.371781 
L 266.041641 192.025553 
L 267.131484 193.881696 
L 268.221328 195.768891 
L 270.945938 199.59181 
L 272.580703 201.745174 
L 274.215469 203.529545 
L 275.850234 205.142241 
L 276.940078 206.731061 
L 278.574844 209.485257 
L 279.664688 210.743229 
L 282.389297 212.992658 
L 284.568984 215.361049 
L 286.748672 218.424308 
L 290.018203 221.811568 
L 291.108047 222.530816 
L 292.197891 223.18802 
L 296.012344 226.207931 
L 297.102188 227.743526 
L 298.192031 229.383029 
L 298.736953 229.943294 
L 303.64125 233.250708 
L 304.731094 233.595642 
L 306.910781 234.113159 
L 307.455703 234.343018 
L 308.000625 234.809527 
L 309.090469 236.392391 
L 310.180313 237.91138 
L 311.270156 238.950348 
L 311.815078 239.252746 
L 312.36 239.35854 
L 313.449844 239.256018 
L 313.994766 239.360799 
L 314.539688 239.69773 
L 315.629531 240.661653 
L 316.174453 241.009328 
L 317.264297 241.315374 
L 318.354141 241.478524 
L 319.443984 241.931163 
L 320.533828 242.905619 
L 321.623672 244.008421 
L 322.168594 244.350814 
L 326.527969 245.966661 
L 327.072891 245.974928 
L 328.162734 245.744406 
L 328.707656 245.868643 
L 329.252578 246.290584 
L 330.342422 247.38923 
L 330.887344 247.730232 
L 331.432266 247.899823 
L 332.522109 247.938004 
L 333.611953 247.970721 
L 334.156875 248.185049 
L 336.336563 249.593323 
L 337.426406 249.41513 
L 337.971328 249.325663 
L 338.51625 249.40764 
L 339.606094 250.067922 
L 340.695938 250.638412 
L 343.965469 251.380062 
L 344.510391 251.624906 
L 345.600234 252.545778 
L 346.145156 253.057315 
L 346.690078 253.409572 
L 347.235 253.553091 
L 348.324844 253.438577 
L 349.959609 253.056047 
L 350.504531 253.103116 
L 351.594375 253.573526 
L 352.684219 254.112636 
L 353.774063 254.411808 
L 354.863906 254.321542 
L 355.95375 254.101727 
L 356.498672 254.230926 
L 358.678359 255.553412 
L 359.223281 255.489102 
L 361.402969 254.700987 
L 361.947891 254.691289 
L 362.492813 254.907663 
L 363.582656 255.970436 
L 364.127578 256.506899 
L 364.6725 256.814587 
L 365.217422 256.859363 
L 367.942031 256.17822 
L 369.031875 256.283019 
L 370.121719 256.458713 
L 371.756484 256.47995 
L 372.846328 256.924901 
L 373.936172 257.348192 
L 374.481094 257.403481 
L 375.026016 257.333422 
L 376.660781 256.800235 
L 377.205703 256.866024 
L 379.385391 257.828559 
L 381.565078 258.517471 
L 382.654922 258.413152 
L 384.834609 257.919264 
L 385.924453 257.682958 
L 386.469375 257.712917 
L 387.559219 258.07712 
L 389.738906 259.166136 
L 391.373672 259.45365 
L 393.553359 259.710233 
L 396.277969 259.952174 
L 397.912734 260.198993 
L 399.5475 260.139798 
L 400.637344 259.899599 
L 402.272109 259.492169 
L 403.361953 259.579464 
L 404.451797 259.669503 
L 406.086563 259.745884 
L 407.176406 259.8929 
L 408.26625 259.751192 
L 409.356094 259.508781 
L 410.445938 259.552512 
L 413.715469 260.323423 
L 414.805313 260.450579 
L 415.895156 260.191135 
L 416.985 259.974236 
L 416.985 259.974236 
" style="fill:none;stroke:#2ca02c;stroke-linecap:square;stroke-width:1.5;"/>
   </g>
   <g id="patch_3">
    <path d="M 59.690625 288.430125 
L 59.690625 22.318125 
" style="fill:none;stroke:#000000;stroke-linecap:square;stroke-linejoin:miter;stroke-width:0.8;"/>
   </g>
   <g id="patch_4">
    <path d="M 416.810625 288.430125 
L 416.810625 22.318125 
" style="fill:none;stroke:#000000;stroke-linecap:square;stroke-linejoin:miter;stroke-width:0.8;"/>
   </g>
   <g id="patch_5">
    <path d="M 59.690625 288.430125 
L 416.810625 288.430125 
" style="fill:none;stroke:#000000;stroke-linecap:square;stroke-linejoin:miter;stroke-width:0.8;"/>
   </g>
   <g id="patch_6">
    <path d="M 59.690625 22.318125 
L 416.810625 22.318125 
" style="fill:none;stroke:#000000;stroke-linecap:square;stroke-linejoin:miter;stroke-width:0.8;"/>
   </g>
   <g id="text_18">
    <!-- Spektrum Vergleich -->
    <defs>
     <path d="M 53.515625 70.515625 
L 53.515625 60.890625 
Q 47.90625 63.578125 42.921875 64.890625 
Q 37.9375 66.21875 33.296875 66.21875 
Q 25.25 66.21875 20.875 63.09375 
Q 16.5 59.96875 16.5 54.203125 
Q 16.5 49.359375 19.40625 46.890625 
Q 22.3125 44.4375 30.421875 42.921875 
L 36.375 41.703125 
Q 47.40625 39.59375 52.65625 34.296875 
Q 57.90625 29 57.90625 20.125 
Q 57.90625 9.515625 50.796875 4.046875 
Q 43.703125 -1.421875 29.984375 -1.421875 
Q 24.8125 -1.421875 18.96875 -0.25 
Q 13.140625 0.921875 6.890625 3.21875 
L 6.890625 13.375 
Q 12.890625 10.015625 18.65625 8.296875 
Q 24.421875 6.59375 29.984375 6.59375 
Q 38.421875 6.59375 43.015625 9.90625 
Q 47.609375 13.234375 47.609375 19.390625 
Q 47.609375 24.75 44.3125 27.78125 
Q 41.015625 30.8125 33.5 32.328125 
L 27.484375 33.5 
Q 16.453125 35.6875 11.515625 40.375 
Q 6.59375 45.0625 6.59375 53.421875 
Q 6.59375 63.09375 13.40625 68.65625 
Q 20.21875 74.21875 32.171875 74.21875 
Q 37.3125 74.21875 42.625 73.28125 
Q 47.953125 72.359375 53.515625 70.515625 
" id="DejaVuSans-53"/>
     <path d="M 18.109375 8.203125 
L 18.109375 -20.796875 
L 9.078125 -20.796875 
L 9.078125 54.6875 
L 18.109375 54.6875 
L 18.109375 46.390625 
Q 20.953125 51.265625 25.265625 53.625 
Q 29.59375 56 35.59375 56 
Q 45.5625 56 51.78125 48.09375 
Q 58.015625 40.1875 58.015625 27.296875 
Q 58.015625 14.40625 51.78125 6.484375 
Q 45.5625 -1.421875 35.59375 -1.421875 
Q 29.59375 -1.421875 25.265625 0.953125 
Q 20.953125 3.328125 18.109375 8.203125 
M 48.6875 27.296875 
Q 48.6875 37.203125 44.609375 42.84375 
Q 40.53125 48.484375 33.40625 48.484375 
Q 26.265625 48.484375 22.1875 42.84375 
Q 18.109375 37.203125 18.109375 27.296875 
Q 18.109375 17.390625 22.1875 11.75 
Q 26.265625 6.109375 33.40625 6.109375 
Q 40.53125 6.109375 44.609375 11.75 
Q 48.6875 17.390625 48.6875 27.296875 
" id="DejaVuSans-70"/>
     <path d="M 18.3125 70.21875 
L 18.3125 54.6875 
L 36.8125 54.6875 
L 36.8125 47.703125 
L 18.3125 47.703125 
L 18.3125 18.015625 
Q 18.3125 11.328125 20.140625 9.421875 
Q 21.96875 7.515625 27.59375 7.515625 
L 36.8125 7.515625 
L 36.8125 0 
L 27.59375 0 
Q 17.1875 0 13.234375 3.875 
Q 9.28125 7.765625 9.28125 18.015625 
L 9.28125 47.703125 
L 2.6875 47.703125 
L 2.6875 54.6875 
L 9.28125 54.6875 
L 9.28125 70.21875 
z
" id="DejaVuSans-74"/>
     <path d="M 52 44.1875 
Q 55.375 50.25 60.0625 53.125 
Q 64.75 56 71.09375 56 
Q 79.640625 56 84.28125 50.015625 
Q 88.921875 44.046875 88.921875 33.015625 
L 88.921875 0 
L 79.890625 0 
L 79.890625 32.71875 
Q 79.890625 40.578125 77.09375 44.375 
Q 74.3125 48.1875 68.609375 48.1875 
Q 61.625 48.1875 57.5625 43.546875 
Q 53.515625 38.921875 53.515625 30.90625 
L 53.515625 0 
L 44.484375 0 
L 44.484375 32.71875 
Q 44.484375 40.625 41.703125 44.40625 
Q 38.921875 48.1875 33.109375 48.1875 
Q 26.21875 48.1875 22.15625 43.53125 
Q 18.109375 38.875 18.109375 30.90625 
L 18.109375 0 
L 9.078125 0 
L 9.078125 54.6875 
L 18.109375 54.6875 
L 18.109375 46.1875 
Q 21.1875 51.21875 25.484375 53.609375 
Q 29.78125 56 35.6875 56 
Q 41.65625 56 45.828125 52.96875 
Q 50 49.953125 52 44.1875 
" id="DejaVuSans-6d"/>
     <path d="M 28.609375 0 
L 0.78125 72.90625 
L 11.078125 72.90625 
L 34.1875 11.53125 
L 57.328125 72.90625 
L 67.578125 72.90625 
L 39.796875 0 
z
" id="DejaVuSans-56"/>
     <path d="M 45.40625 27.984375 
Q 45.40625 37.75 41.375 43.109375 
Q 37.359375 48.484375 30.078125 48.484375 
Q 22.859375 48.484375 18.828125 43.109375 
Q 14.796875 37.75 14.796875 27.984375 
Q 14.796875 18.265625 18.828125 12.890625 
Q 22.859375 7.515625 30.078125 7.515625 
Q 37.359375 7.515625 41.375 12.890625 
Q 45.40625 18.265625 45.40625 27.984375 
M 54.390625 6.78125 
Q 54.390625 -7.171875 48.1875 -13.984375 
Q 42 -20.796875 29.203125 -20.796875 
Q 24.46875 -20.796875 20.265625 -20.09375 
Q 16.0625 -19.390625 12.109375 -17.921875 
L 12.109375 -9.1875 
Q 16.0625 -11.328125 19.921875 -12.34375 
Q 23.78125 -13.375 27.78125 -13.375 
Q 36.625 -13.375 41.015625 -8.765625 
Q 45.40625 -4.15625 45.40625 5.171875 
L 45.40625 9.625 
Q 42.625 4.78125 38.28125 2.390625 
Q 33.9375 0 27.875 0 
Q 17.828125 0 11.671875 7.65625 
Q 5.515625 15.328125 5.515625 27.984375 
Q 5.515625 40.671875 11.671875 48.328125 
Q 17.828125 56 27.875 56 
Q 33.9375 56 38.28125 53.609375 
Q 42.625 51.21875 45.40625 46.390625 
L 45.40625 54.6875 
L 54.390625 54.6875 
z
" id="DejaVuSans-67"/>
     <path d="M 9.421875 75.984375 
L 18.40625 75.984375 
L 18.40625 0 
L 9.421875 0 
z
" id="DejaVuSans-6c"/>
     <path d="M 9.421875 54.6875 
L 18.40625 54.6875 
L 18.40625 0 
L 9.421875 0 
z
M 9.421875 75.984375 
L 18.40625 75.984375 
L 18.40625 64.59375 
L 9.421875 64.59375 
z
" id="DejaVuSans-69"/>
     <path d="M 48.78125 52.59375 
L 48.78125 44.1875 
Q 44.96875 46.296875 41.140625 47.34375 
Q 37.3125 48.390625 33.40625 48.390625 
Q 24.65625 48.390625 19.8125 42.84375 
Q 14.984375 37.3125 14.984375 27.296875 
Q 14.984375 17.28125 19.8125 11.734375 
Q 24.65625 6.203125 33.40625 6.203125 
Q 37.3125 6.203125 41.140625 7.25 
Q 44.96875 8.296875 48.78125 10.40625 
L 48.78125 2.09375 
Q 45.015625 0.34375 40.984375 -0.53125 
Q 36.96875 -1.421875 32.421875 -1.421875 
Q 20.0625 -1.421875 12.78125 6.34375 
Q 5.515625 14.109375 5.515625 27.296875 
Q 5.515625 40.671875 12.859375 48.328125 
Q 20.21875 56 33.015625 56 
Q 37.15625 56 41.109375 55.140625 
Q 45.0625 54.296875 48.78125 52.59375 
" id="DejaVuSans-63"/>
     <path d="M 54.890625 33.015625 
L 54.890625 0 
L 45.90625 0 
L 45.90625 32.71875 
Q 45.90625 40.484375 42.875 44.328125 
Q 39.84375 48.1875 33.796875 48.1875 
Q 26.515625 48.1875 22.3125 43.546875 
Q 18.109375 38.921875 18.109375 30.90625 
L 18.109375 0 
L 9.078125 0 
L 9.078125 75.984375 
L 18.109375 75.984375 
L 18.109375 46.1875 
Q 21.34375 51.125 25.703125 53.5625 
Q 30.078125 56 35.796875 56 
Q 45.21875 56 50.046875 50.171875 
Q 54.890625 44.34375 54.890625 33.015625 
" id="DejaVuSans-68"/>
    </defs>
    <g transform="translate(178.902188 16.318125)scale(0.12 -0.12)">
     <use xlink:href="#DejaVuSans-53"/>
     <use x="63.476562" xlink:href="#DejaVuSans-70"/>
     <use x="126.953125" xlink:href="#DejaVuSans-65"/>
     <use x="188.476562" xlink:href="#DejaVuSans-6b"/>
     <use x="246.386719" xlink:href="#DejaVuSans-74"/>
     <use x="285.595703" xlink:href="#DejaVuSans-72"/>
     <use x="326.708984" xlink:href="#DejaVuSans-75"/>
     <use x="390.087891" xlink:href="#DejaVuSans-6d"/>
     <use x="487.5" xlink:href="#DejaVuSans-20"/>
     <use x="519.287109" xlink:href="#DejaVuSans-56"/>
     <use x="587.585938" xlink:href="#DejaVuSans-65"/>
     <use x="649.109375" xlink:href="#DejaVuSans-72"/>
     <use x="690.207031" xlink:href="#DejaVuSans-67"/>
     <use x="753.683594" xlink:href="#DejaVuSans-6c"/>
     <use x="781.466797" xlink:href="#DejaVuSans-65"/>
     <use x="842.990234" xlink:href="#DejaVuSans-69"/>
     <use x="870.773438" xlink:href="#DejaVuSans-63"/>
     <use x="925.753906" xlink:href="#DejaVuSans-68"/>
    </g>
   </g>
   <g id="legend_1">
    <g id="patch_7">
     <path d="M 331.054375 74.3525 
L 409.810625 74.3525 
Q 411.810625 74.3525 411.810625 72.3525 
L 411.810625 29.318125 
Q 411.810625 27.318125 409.810625 27.318125 
L 331.054375 27.318125 
Q 329.054375 27.318125 329.054375 29.318125 
L 329.054375 72.3525 
Q 329.054375 74.3525 331.054375 74.3525 
z
" style="fill:#ffffff;opacity:0.8;stroke:#cccccc;stroke-linejoin:miter;"/>
    </g>
    <g id="line2d_34">
     <path d="M 333.054375 35.416562 
L 353.054375 35.416562 
" style="fill:none;stroke:#1f77b4;stroke-linecap:square;stroke-width:1.5;"/>
    </g>
    <g id="line2d_35"/>
    <g id="text_19">
     <!-- 0.015 ms -->
     <defs>
      <path d="M 44.28125 53.078125 
L 44.28125 44.578125 
Q 40.484375 46.53125 36.375 47.5 
Q 32.28125 48.484375 27.875 48.484375 
Q 21.1875 48.484375 17.84375 46.4375 
Q 14.5 44.390625 14.5 40.28125 
Q 14.5 37.15625 16.890625 35.375 
Q 19.28125 33.59375 26.515625 31.984375 
L 29.59375 31.296875 
Q 39.15625 29.25 43.1875 25.515625 
Q 47.21875 21.78125 47.21875 15.09375 
Q 47.21875 7.46875 41.1875 3.015625 
Q 35.15625 -1.421875 24.609375 -1.421875 
Q 20.21875 -1.421875 15.453125 -0.5625 
Q 10.6875 0.296875 5.421875 2 
L 5.421875 11.28125 
Q 10.40625 8.6875 15.234375 7.390625 
Q 20.0625 6.109375 24.8125 6.109375 
Q 31.15625 6.109375 34.5625 8.28125 
Q 37.984375 10.453125 37.984375 14.40625 
Q 37.984375 18.0625 35.515625 20.015625 
Q 33.0625 21.96875 24.703125 23.78125 
L 21.578125 24.515625 
Q 13.234375 26.265625 9.515625 29.90625 
Q 5.8125 33.546875 5.8125 39.890625 
Q 5.8125 47.609375 11.28125 51.796875 
Q 16.75 56 26.8125 56 
Q 31.78125 56 36.171875 55.265625 
Q 40.578125 54.546875 44.28125 53.078125 
" id="DejaVuSans-73"/>
     </defs>
     <g transform="translate(361.054375 38.916562)scale(0.1 -0.1)">
      <use xlink:href="#DejaVuSans-30"/>
      <use x="63.623047" xlink:href="#DejaVuSans-2e"/>
      <use x="95.410156" xlink:href="#DejaVuSans-30"/>
      <use x="159.033203" xlink:href="#DejaVuSans-31"/>
      <use x="222.65625" xlink:href="#DejaVuSans-35"/>
      <use x="286.279297" xlink:href="#DejaVuSans-20"/>
      <use x="318.066406" xlink:href="#DejaVuSans-6d"/>
      <use x="415.478516" xlink:href="#DejaVuSans-73"/>
     </g>
    </g>
    <g id="line2d_36">
     <path d="M 333.054375 50.094688 
L 353.054375 50.094688 
" style="fill:none;stroke:#ff7f0e;stroke-linecap:square;stroke-width:1.5;"/>
    </g>
    <g id="line2d_37"/>
    <g id="text_20">
     <!-- 0.1 ms -->
     <g transform="translate(361.054375 53.594688)scale(0.1 -0.1)">
      <use xlink:href="#DejaVuSans-30"/>
      <use x="63.623047" xlink:href="#DejaVuSans-2e"/>
      <use x="95.410156" xlink:href="#DejaVuSans-31"/>
      <use x="159.033203" xlink:href="#DejaVuSans-20"/>
      <use x="190.820312" xlink:href="#DejaVuSans-6d"/>
      <use x="288.232422" xlink:href="#DejaVuSans-73"/>
     </g>
    </g>
    <g id="line2d_38">
     <path d="M 333.054375 64.772812 
L 353.054375 64.772812 
" style="fill:none;stroke:#2ca02c;stroke-linecap:square;stroke-width:1.5;"/>
    </g>
    <g id="line2d_39"/>
    <g id="text_21">
     <!-- 0.6 ms -->
     <g transform="translate(361.054375 68.272812)scale(0.1 -0.1)">
      <use xlink:href="#DejaVuSans-30"/>
      <use x="63.623047" xlink:href="#DejaVuSans-2e"/>
      <use x="95.410156" xlink:href="#DejaVuSans-36"/>
      <use x="159.033203" xlink:href="#DejaVuSans-20"/>
      <use x="190.820312" xlink:href="#DejaVuSans-6d"/>
      <use x="288.232422" xlink:href="#DejaVuSans-73"/>
     </g>
    </g>
   </g>
  </g>
 </g>
 <defs>
  <clipPath id="p0f3b736507">
   <rect height="266.112" width="357.12" x="59.690625" y="22.318125"/>
  </clipPath>
 </defs>
</svg>
