<?xml version="1.0" encoding="utf-8" standalone="no"?>
<!DOCTYPE svg PUBLIC "-//W3C//DTD SVG 1.1//EN"
  "http://www.w3.org/Graphics/SVG/1.1/DTD/svg11.dtd">
<!-- Created with matplotlib (http://matplotlib.org/) -->
<svg height="325pt" version="1.1" viewBox="0 0 424 325" width="424pt" xmlns="http://www.w3.org/2000/svg" xmlns:xlink="http://www.w3.org/1999/xlink">
 <defs>
  <style type="text/css">
*{stroke-linecap:butt;stroke-linejoin:round;}
  </style>
 </defs>
 <g id="figure_1">
  <g id="patch_1">
   <path d="M 0 325.986375 
L 424.0075 325.986375 
L 424.0075 0 
L 0 0 
z
" style="fill:#ffffff;"/>
  </g>
  <g id="axes_1">
   <g id="patch_2">
    <path d="M 43.78125 288.430125 
L 400.90125 288.430125 
L 400.90125 22.318125 
L 43.78125 22.318125 
z
" style="fill:#ffffff;"/>
   </g>
   <g id="matplotlib.axis_1">
    <g id="xtick_1">
     <g id="line2d_1">
      <path clip-path="url(#pc4a7c58ef3)" d="M 43.78125 288.430125 
L 43.78125 22.318125 
" style="fill:none;stroke:#b0b0b0;stroke-linecap:square;stroke-width:0.8;"/>
     </g>
     <g id="line2d_2">
      <defs>
       <path d="M 0 0 
L 0 3.5 
" id="mb55f7f79c0" style="stroke:#000000;stroke-width:0.8;"/>
      </defs>
      <g>
       <use style="stroke:#000000;stroke-width:0.8;" x="43.78125" xlink:href="#mb55f7f79c0" y="288.430125"/>
      </g>
     </g>
     <g id="text_1">
      <!-- −80000 -->
      <defs>
       <path d="M 10.59375 35.5 
L 73.1875 35.5 
L 73.1875 27.203125 
L 10.59375 27.203125 
z
" id="DejaVuSans-2212"/>
       <path d="M 31.78125 34.625 
Q 24.75 34.625 20.71875 30.859375 
Q 16.703125 27.09375 16.703125 20.515625 
Q 16.703125 13.921875 20.71875 10.15625 
Q 24.75 6.390625 31.78125 6.390625 
Q 38.8125 6.390625 42.859375 10.171875 
Q 46.921875 13.96875 46.921875 20.515625 
Q 46.921875 27.09375 42.890625 30.859375 
Q 38.875 34.625 31.78125 34.625 
M 21.921875 38.8125 
Q 15.578125 40.375 12.03125 44.71875 
Q 8.5 49.078125 8.5 55.328125 
Q 8.5 64.0625 14.71875 69.140625 
Q 20.953125 74.21875 31.78125 74.21875 
Q 42.671875 74.21875 48.875 69.140625 
Q 55.078125 64.0625 55.078125 55.328125 
Q 55.078125 49.078125 51.53125 44.71875 
Q 48 40.375 41.703125 38.8125 
Q 48.828125 37.15625 52.796875 32.3125 
Q 56.78125 27.484375 56.78125 20.515625 
Q 56.78125 9.90625 50.3125 4.234375 
Q 43.84375 -1.421875 31.78125 -1.421875 
Q 19.734375 -1.421875 13.25 4.234375 
Q 6.78125 9.90625 6.78125 20.515625 
Q 6.78125 27.484375 10.78125 32.3125 
Q 14.796875 37.15625 21.921875 38.8125 
M 18.3125 54.390625 
Q 18.3125 48.734375 21.84375 45.5625 
Q 25.390625 42.390625 31.78125 42.390625 
Q 38.140625 42.390625 41.71875 45.5625 
Q 45.3125 48.734375 45.3125 54.390625 
Q 45.3125 60.0625 41.71875 63.234375 
Q 38.140625 66.40625 31.78125 66.40625 
Q 25.390625 66.40625 21.84375 63.234375 
Q 18.3125 60.0625 18.3125 54.390625 
" id="DejaVuSans-38"/>
       <path d="M 31.78125 66.40625 
Q 24.171875 66.40625 20.328125 58.90625 
Q 16.5 51.421875 16.5 36.375 
Q 16.5 21.390625 20.328125 13.890625 
Q 24.171875 6.390625 31.78125 6.390625 
Q 39.453125 6.390625 43.28125 13.890625 
Q 47.125 21.390625 47.125 36.375 
Q 47.125 51.421875 43.28125 58.90625 
Q 39.453125 66.40625 31.78125 66.40625 
M 31.78125 74.21875 
Q 44.046875 74.21875 50.515625 64.515625 
Q 56.984375 54.828125 56.984375 36.375 
Q 56.984375 17.96875 50.515625 8.265625 
Q 44.046875 -1.421875 31.78125 -1.421875 
Q 19.53125 -1.421875 13.0625 8.265625 
Q 6.59375 17.96875 6.59375 36.375 
Q 6.59375 54.828125 13.0625 64.515625 
Q 19.53125 74.21875 31.78125 74.21875 
" id="DejaVuSans-30"/>
      </defs>
      <g transform="translate(23.685156 303.028562)scale(0.1 -0.1)">
       <use xlink:href="#DejaVuSans-2212"/>
       <use x="83.789062" xlink:href="#DejaVuSans-38"/>
       <use x="147.412109" xlink:href="#DejaVuSans-30"/>
       <use x="211.035156" xlink:href="#DejaVuSans-30"/>
       <use x="274.658203" xlink:href="#DejaVuSans-30"/>
       <use x="338.28125" xlink:href="#DejaVuSans-30"/>
      </g>
     </g>
    </g>
    <g id="xtick_2">
     <g id="line2d_3">
      <path clip-path="url(#pc4a7c58ef3)" d="M 88.42125 288.430125 
L 88.42125 22.318125 
" style="fill:none;stroke:#b0b0b0;stroke-linecap:square;stroke-width:0.8;"/>
     </g>
     <g id="line2d_4">
      <g>
       <use style="stroke:#000000;stroke-width:0.8;" x="88.42125" xlink:href="#mb55f7f79c0" y="288.430125"/>
      </g>
     </g>
     <g id="text_2">
      <!-- −60000 -->
      <defs>
       <path d="M 33.015625 40.375 
Q 26.375 40.375 22.484375 35.828125 
Q 18.609375 31.296875 18.609375 23.390625 
Q 18.609375 15.53125 22.484375 10.953125 
Q 26.375 6.390625 33.015625 6.390625 
Q 39.65625 6.390625 43.53125 10.953125 
Q 47.40625 15.53125 47.40625 23.390625 
Q 47.40625 31.296875 43.53125 35.828125 
Q 39.65625 40.375 33.015625 40.375 
M 52.59375 71.296875 
L 52.59375 62.3125 
Q 48.875 64.0625 45.09375 64.984375 
Q 41.3125 65.921875 37.59375 65.921875 
Q 27.828125 65.921875 22.671875 59.328125 
Q 17.53125 52.734375 16.796875 39.40625 
Q 19.671875 43.65625 24.015625 45.921875 
Q 28.375 48.1875 33.59375 48.1875 
Q 44.578125 48.1875 50.953125 41.515625 
Q 57.328125 34.859375 57.328125 23.390625 
Q 57.328125 12.15625 50.6875 5.359375 
Q 44.046875 -1.421875 33.015625 -1.421875 
Q 20.359375 -1.421875 13.671875 8.265625 
Q 6.984375 17.96875 6.984375 36.375 
Q 6.984375 53.65625 15.1875 63.9375 
Q 23.390625 74.21875 37.203125 74.21875 
Q 40.921875 74.21875 44.703125 73.484375 
Q 48.484375 72.75 52.59375 71.296875 
" id="DejaVuSans-36"/>
      </defs>
      <g transform="translate(68.325156 303.028562)scale(0.1 -0.1)">
       <use xlink:href="#DejaVuSans-2212"/>
       <use x="83.789062" xlink:href="#DejaVuSans-36"/>
       <use x="147.412109" xlink:href="#DejaVuSans-30"/>
       <use x="211.035156" xlink:href="#DejaVuSans-30"/>
       <use x="274.658203" xlink:href="#DejaVuSans-30"/>
       <use x="338.28125" xlink:href="#DejaVuSans-30"/>
      </g>
     </g>
    </g>
    <g id="xtick_3">
     <g id="line2d_5">
      <path clip-path="url(#pc4a7c58ef3)" d="M 133.06125 288.430125 
L 133.06125 22.318125 
" style="fill:none;stroke:#b0b0b0;stroke-linecap:square;stroke-width:0.8;"/>
     </g>
     <g id="line2d_6">
      <g>
       <use style="stroke:#000000;stroke-width:0.8;" x="133.06125" xlink:href="#mb55f7f79c0" y="288.430125"/>
      </g>
     </g>
     <g id="text_3">
      <!-- −40000 -->
      <defs>
       <path d="M 37.796875 64.3125 
L 12.890625 25.390625 
L 37.796875 25.390625 
z
M 35.203125 72.90625 
L 47.609375 72.90625 
L 47.609375 25.390625 
L 58.015625 25.390625 
L 58.015625 17.1875 
L 47.609375 17.1875 
L 47.609375 0 
L 37.796875 0 
L 37.796875 17.1875 
L 4.890625 17.1875 
L 4.890625 26.703125 
z
" id="DejaVuSans-34"/>
      </defs>
      <g transform="translate(112.965156 303.028562)scale(0.1 -0.1)">
       <use xlink:href="#DejaVuSans-2212"/>
       <use x="83.789062" xlink:href="#DejaVuSans-34"/>
       <use x="147.412109" xlink:href="#DejaVuSans-30"/>
       <use x="211.035156" xlink:href="#DejaVuSans-30"/>
       <use x="274.658203" xlink:href="#DejaVuSans-30"/>
       <use x="338.28125" xlink:href="#DejaVuSans-30"/>
      </g>
     </g>
    </g>
    <g id="xtick_4">
     <g id="line2d_7">
      <path clip-path="url(#pc4a7c58ef3)" d="M 177.70125 288.430125 
L 177.70125 22.318125 
" style="fill:none;stroke:#b0b0b0;stroke-linecap:square;stroke-width:0.8;"/>
     </g>
     <g id="line2d_8">
      <g>
       <use style="stroke:#000000;stroke-width:0.8;" x="177.70125" xlink:href="#mb55f7f79c0" y="288.430125"/>
      </g>
     </g>
     <g id="text_4">
      <!-- −20000 -->
      <defs>
       <path d="M 19.1875 8.296875 
L 53.609375 8.296875 
L 53.609375 0 
L 7.328125 0 
L 7.328125 8.296875 
Q 12.9375 14.109375 22.625 23.890625 
Q 32.328125 33.6875 34.8125 36.53125 
Q 39.546875 41.84375 41.421875 45.53125 
Q 43.3125 49.21875 43.3125 52.78125 
Q 43.3125 58.59375 39.234375 62.25 
Q 35.15625 65.921875 28.609375 65.921875 
Q 23.96875 65.921875 18.8125 64.3125 
Q 13.671875 62.703125 7.8125 59.421875 
L 7.8125 69.390625 
Q 13.765625 71.78125 18.9375 73 
Q 24.125 74.21875 28.421875 74.21875 
Q 39.75 74.21875 46.484375 68.546875 
Q 53.21875 62.890625 53.21875 53.421875 
Q 53.21875 48.921875 51.53125 44.890625 
Q 49.859375 40.875 45.40625 35.40625 
Q 44.1875 33.984375 37.640625 27.21875 
Q 31.109375 20.453125 19.1875 8.296875 
" id="DejaVuSans-32"/>
      </defs>
      <g transform="translate(157.605156 303.028562)scale(0.1 -0.1)">
       <use xlink:href="#DejaVuSans-2212"/>
       <use x="83.789062" xlink:href="#DejaVuSans-32"/>
       <use x="147.412109" xlink:href="#DejaVuSans-30"/>
       <use x="211.035156" xlink:href="#DejaVuSans-30"/>
       <use x="274.658203" xlink:href="#DejaVuSans-30"/>
       <use x="338.28125" xlink:href="#DejaVuSans-30"/>
      </g>
     </g>
    </g>
    <g id="xtick_5">
     <g id="line2d_9">
      <path clip-path="url(#pc4a7c58ef3)" d="M 222.34125 288.430125 
L 222.34125 22.318125 
" style="fill:none;stroke:#b0b0b0;stroke-linecap:square;stroke-width:0.8;"/>
     </g>
     <g id="line2d_10">
      <g>
       <use style="stroke:#000000;stroke-width:0.8;" x="222.34125" xlink:href="#mb55f7f79c0" y="288.430125"/>
      </g>
     </g>
     <g id="text_5">
      <!-- 0 -->
      <g transform="translate(219.16 303.028562)scale(0.1 -0.1)">
       <use xlink:href="#DejaVuSans-30"/>
      </g>
     </g>
    </g>
    <g id="xtick_6">
     <g id="line2d_11">
      <path clip-path="url(#pc4a7c58ef3)" d="M 266.98125 288.430125 
L 266.98125 22.318125 
" style="fill:none;stroke:#b0b0b0;stroke-linecap:square;stroke-width:0.8;"/>
     </g>
     <g id="line2d_12">
      <g>
       <use style="stroke:#000000;stroke-width:0.8;" x="266.98125" xlink:href="#mb55f7f79c0" y="288.430125"/>
      </g>
     </g>
     <g id="text_6">
      <!-- 20000 -->
      <g transform="translate(251.075 303.028562)scale(0.1 -0.1)">
       <use xlink:href="#DejaVuSans-32"/>
       <use x="63.623047" xlink:href="#DejaVuSans-30"/>
       <use x="127.246094" xlink:href="#DejaVuSans-30"/>
       <use x="190.869141" xlink:href="#DejaVuSans-30"/>
       <use x="254.492188" xlink:href="#DejaVuSans-30"/>
      </g>
     </g>
    </g>
    <g id="xtick_7">
     <g id="line2d_13">
      <path clip-path="url(#pc4a7c58ef3)" d="M 311.62125 288.430125 
L 311.62125 22.318125 
" style="fill:none;stroke:#b0b0b0;stroke-linecap:square;stroke-width:0.8;"/>
     </g>
     <g id="line2d_14">
      <g>
       <use style="stroke:#000000;stroke-width:0.8;" x="311.62125" xlink:href="#mb55f7f79c0" y="288.430125"/>
      </g>
     </g>
     <g id="text_7">
      <!-- 40000 -->
      <g transform="translate(295.715 303.028562)scale(0.1 -0.1)">
       <use xlink:href="#DejaVuSans-34"/>
       <use x="63.623047" xlink:href="#DejaVuSans-30"/>
       <use x="127.246094" xlink:href="#DejaVuSans-30"/>
       <use x="190.869141" xlink:href="#DejaVuSans-30"/>
       <use x="254.492188" xlink:href="#DejaVuSans-30"/>
      </g>
     </g>
    </g>
    <g id="xtick_8">
     <g id="line2d_15">
      <path clip-path="url(#pc4a7c58ef3)" d="M 356.26125 288.430125 
L 356.26125 22.318125 
" style="fill:none;stroke:#b0b0b0;stroke-linecap:square;stroke-width:0.8;"/>
     </g>
     <g id="line2d_16">
      <g>
       <use style="stroke:#000000;stroke-width:0.8;" x="356.26125" xlink:href="#mb55f7f79c0" y="288.430125"/>
      </g>
     </g>
     <g id="text_8">
      <!-- 60000 -->
      <g transform="translate(340.355 303.028562)scale(0.1 -0.1)">
       <use xlink:href="#DejaVuSans-36"/>
       <use x="63.623047" xlink:href="#DejaVuSans-30"/>
       <use x="127.246094" xlink:href="#DejaVuSans-30"/>
       <use x="190.869141" xlink:href="#DejaVuSans-30"/>
       <use x="254.492188" xlink:href="#DejaVuSans-30"/>
      </g>
     </g>
    </g>
    <g id="xtick_9">
     <g id="line2d_17">
      <path clip-path="url(#pc4a7c58ef3)" d="M 400.90125 288.430125 
L 400.90125 22.318125 
" style="fill:none;stroke:#b0b0b0;stroke-linecap:square;stroke-width:0.8;"/>
     </g>
     <g id="line2d_18">
      <g>
       <use style="stroke:#000000;stroke-width:0.8;" x="400.90125" xlink:href="#mb55f7f79c0" y="288.430125"/>
      </g>
     </g>
     <g id="text_9">
      <!-- 80000 -->
      <g transform="translate(384.995 303.028562)scale(0.1 -0.1)">
       <use xlink:href="#DejaVuSans-38"/>
       <use x="63.623047" xlink:href="#DejaVuSans-30"/>
       <use x="127.246094" xlink:href="#DejaVuSans-30"/>
       <use x="190.869141" xlink:href="#DejaVuSans-30"/>
       <use x="254.492188" xlink:href="#DejaVuSans-30"/>
      </g>
     </g>
    </g>
    <g id="text_10">
     <!-- Frequenz [kHz] -->
     <defs>
      <path d="M 9.8125 72.90625 
L 51.703125 72.90625 
L 51.703125 64.59375 
L 19.671875 64.59375 
L 19.671875 43.109375 
L 48.578125 43.109375 
L 48.578125 34.8125 
L 19.671875 34.8125 
L 19.671875 0 
L 9.8125 0 
z
" id="DejaVuSans-46"/>
      <path d="M 41.109375 46.296875 
Q 39.59375 47.171875 37.8125 47.578125 
Q 36.03125 48 33.890625 48 
Q 26.265625 48 22.1875 43.046875 
Q 18.109375 38.09375 18.109375 28.8125 
L 18.109375 0 
L 9.078125 0 
L 9.078125 54.6875 
L 18.109375 54.6875 
L 18.109375 46.1875 
Q 20.953125 51.171875 25.484375 53.578125 
Q 30.03125 56 36.53125 56 
Q 37.453125 56 38.578125 55.875 
Q 39.703125 55.765625 41.0625 55.515625 
z
" id="DejaVuSans-72"/>
      <path d="M 56.203125 29.59375 
L 56.203125 25.203125 
L 14.890625 25.203125 
Q 15.484375 15.921875 20.484375 11.0625 
Q 25.484375 6.203125 34.421875 6.203125 
Q 39.59375 6.203125 44.453125 7.46875 
Q 49.3125 8.734375 54.109375 11.28125 
L 54.109375 2.78125 
Q 49.265625 0.734375 44.1875 -0.34375 
Q 39.109375 -1.421875 33.890625 -1.421875 
Q 20.796875 -1.421875 13.15625 6.1875 
Q 5.515625 13.8125 5.515625 26.8125 
Q 5.515625 40.234375 12.765625 48.109375 
Q 20.015625 56 32.328125 56 
Q 43.359375 56 49.78125 48.890625 
Q 56.203125 41.796875 56.203125 29.59375 
M 47.21875 32.234375 
Q 47.125 39.59375 43.09375 43.984375 
Q 39.0625 48.390625 32.421875 48.390625 
Q 24.90625 48.390625 20.390625 44.140625 
Q 15.875 39.890625 15.1875 32.171875 
z
" id="DejaVuSans-65"/>
      <path d="M 14.796875 27.296875 
Q 14.796875 17.390625 18.875 11.75 
Q 22.953125 6.109375 30.078125 6.109375 
Q 37.203125 6.109375 41.296875 11.75 
Q 45.40625 17.390625 45.40625 27.296875 
Q 45.40625 37.203125 41.296875 42.84375 
Q 37.203125 48.484375 30.078125 48.484375 
Q 22.953125 48.484375 18.875 42.84375 
Q 14.796875 37.203125 14.796875 27.296875 
M 45.40625 8.203125 
Q 42.578125 3.328125 38.25 0.953125 
Q 33.9375 -1.421875 27.875 -1.421875 
Q 17.96875 -1.421875 11.734375 6.484375 
Q 5.515625 14.40625 5.515625 27.296875 
Q 5.515625 40.1875 11.734375 48.09375 
Q 17.96875 56 27.875 56 
Q 33.9375 56 38.25 53.625 
Q 42.578125 51.265625 45.40625 46.390625 
L 45.40625 54.6875 
L 54.390625 54.6875 
L 54.390625 -20.796875 
L 45.40625 -20.796875 
z
" id="DejaVuSans-71"/>
      <path d="M 8.5 21.578125 
L 8.5 54.6875 
L 17.484375 54.6875 
L 17.484375 21.921875 
Q 17.484375 14.15625 20.5 10.265625 
Q 23.53125 6.390625 29.59375 6.390625 
Q 36.859375 6.390625 41.078125 11.03125 
Q 45.3125 15.671875 45.3125 23.6875 
L 45.3125 54.6875 
L 54.296875 54.6875 
L 54.296875 0 
L 45.3125 0 
L 45.3125 8.40625 
Q 42.046875 3.421875 37.71875 1 
Q 33.40625 -1.421875 27.6875 -1.421875 
Q 18.265625 -1.421875 13.375 4.4375 
Q 8.5 10.296875 8.5 21.578125 
M 31.109375 56 
z
" id="DejaVuSans-75"/>
      <path d="M 54.890625 33.015625 
L 54.890625 0 
L 45.90625 0 
L 45.90625 32.71875 
Q 45.90625 40.484375 42.875 44.328125 
Q 39.84375 48.1875 33.796875 48.1875 
Q 26.515625 48.1875 22.3125 43.546875 
Q 18.109375 38.921875 18.109375 30.90625 
L 18.109375 0 
L 9.078125 0 
L 9.078125 54.6875 
L 18.109375 54.6875 
L 18.109375 46.1875 
Q 21.34375 51.125 25.703125 53.5625 
Q 30.078125 56 35.796875 56 
Q 45.21875 56 50.046875 50.171875 
Q 54.890625 44.34375 54.890625 33.015625 
" id="DejaVuSans-6e"/>
      <path d="M 5.515625 54.6875 
L 48.1875 54.6875 
L 48.1875 46.484375 
L 14.40625 7.171875 
L 48.1875 7.171875 
L 48.1875 0 
L 4.296875 0 
L 4.296875 8.203125 
L 38.09375 47.515625 
L 5.515625 47.515625 
z
" id="DejaVuSans-7a"/>
      <path id="DejaVuSans-20"/>
      <path d="M 8.59375 75.984375 
L 29.296875 75.984375 
L 29.296875 69 
L 17.578125 69 
L 17.578125 -6.203125 
L 29.296875 -6.203125 
L 29.296875 -13.1875 
L 8.59375 -13.1875 
z
" id="DejaVuSans-5b"/>
      <path d="M 9.078125 75.984375 
L 18.109375 75.984375 
L 18.109375 31.109375 
L 44.921875 54.6875 
L 56.390625 54.6875 
L 27.390625 29.109375 
L 57.625 0 
L 45.90625 0 
L 18.109375 26.703125 
L 18.109375 0 
L 9.078125 0 
z
" id="DejaVuSans-6b"/>
      <path d="M 9.8125 72.90625 
L 19.671875 72.90625 
L 19.671875 43.015625 
L 55.515625 43.015625 
L 55.515625 72.90625 
L 65.375 72.90625 
L 65.375 0 
L 55.515625 0 
L 55.515625 34.71875 
L 19.671875 34.71875 
L 19.671875 0 
L 9.8125 0 
z
" id="DejaVuSans-48"/>
      <path d="M 30.421875 75.984375 
L 30.421875 -13.1875 
L 9.71875 -13.1875 
L 9.71875 -6.203125 
L 21.390625 -6.203125 
L 21.390625 69 
L 9.71875 69 
L 9.71875 75.984375 
z
" id="DejaVuSans-5d"/>
     </defs>
     <g transform="translate(184.357656 316.706687)scale(0.1 -0.1)">
      <use xlink:href="#DejaVuSans-46"/>
      <use x="57.410156" xlink:href="#DejaVuSans-72"/>
      <use x="98.492188" xlink:href="#DejaVuSans-65"/>
      <use x="160.015625" xlink:href="#DejaVuSans-71"/>
      <use x="223.492188" xlink:href="#DejaVuSans-75"/>
      <use x="286.871094" xlink:href="#DejaVuSans-65"/>
      <use x="348.394531" xlink:href="#DejaVuSans-6e"/>
      <use x="411.773438" xlink:href="#DejaVuSans-7a"/>
      <use x="464.263672" xlink:href="#DejaVuSans-20"/>
      <use x="496.050781" xlink:href="#DejaVuSans-5b"/>
      <use x="535.064453" xlink:href="#DejaVuSans-6b"/>
      <use x="592.974609" xlink:href="#DejaVuSans-48"/>
      <use x="668.169922" xlink:href="#DejaVuSans-7a"/>
      <use x="720.660156" xlink:href="#DejaVuSans-5d"/>
     </g>
    </g>
   </g>
   <g id="matplotlib.axis_2">
    <g id="ytick_1">
     <g id="line2d_19">
      <path clip-path="url(#pc4a7c58ef3)" d="M 43.78125 253.328043 
L 400.90125 253.328043 
" style="fill:none;stroke:#b0b0b0;stroke-linecap:square;stroke-width:0.8;"/>
     </g>
     <g id="line2d_20">
      <defs>
       <path d="M 0 0 
L -3.5 0 
" id="mfcb431bae9" style="stroke:#000000;stroke-width:0.8;"/>
      </defs>
      <g>
       <use style="stroke:#000000;stroke-width:0.8;" x="43.78125" xlink:href="#mfcb431bae9" y="253.328043"/>
      </g>
     </g>
     <g id="text_11">
      <!-- 0.0 -->
      <defs>
       <path d="M 10.6875 12.40625 
L 21 12.40625 
L 21 0 
L 10.6875 0 
z
" id="DejaVuSans-2e"/>
      </defs>
      <g transform="translate(20.878125 257.127262)scale(0.1 -0.1)">
       <use xlink:href="#DejaVuSans-30"/>
       <use x="63.623047" xlink:href="#DejaVuSans-2e"/>
       <use x="95.410156" xlink:href="#DejaVuSans-30"/>
      </g>
     </g>
    </g>
    <g id="ytick_2">
     <g id="line2d_21">
      <path clip-path="url(#pc4a7c58ef3)" d="M 43.78125 209.54526 
L 400.90125 209.54526 
" style="fill:none;stroke:#b0b0b0;stroke-linecap:square;stroke-width:0.8;"/>
     </g>
     <g id="line2d_22">
      <g>
       <use style="stroke:#000000;stroke-width:0.8;" x="43.78125" xlink:href="#mfcb431bae9" y="209.54526"/>
      </g>
     </g>
     <g id="text_12">
      <!-- 0.2 -->
      <g transform="translate(20.878125 213.344478)scale(0.1 -0.1)">
       <use xlink:href="#DejaVuSans-30"/>
       <use x="63.623047" xlink:href="#DejaVuSans-2e"/>
       <use x="95.410156" xlink:href="#DejaVuSans-32"/>
      </g>
     </g>
    </g>
    <g id="ytick_3">
     <g id="line2d_23">
      <path clip-path="url(#pc4a7c58ef3)" d="M 43.78125 165.762476 
L 400.90125 165.762476 
" style="fill:none;stroke:#b0b0b0;stroke-linecap:square;stroke-width:0.8;"/>
     </g>
     <g id="line2d_24">
      <g>
       <use style="stroke:#000000;stroke-width:0.8;" x="43.78125" xlink:href="#mfcb431bae9" y="165.762476"/>
      </g>
     </g>
     <g id="text_13">
      <!-- 0.4 -->
      <g transform="translate(20.878125 169.561695)scale(0.1 -0.1)">
       <use xlink:href="#DejaVuSans-30"/>
       <use x="63.623047" xlink:href="#DejaVuSans-2e"/>
       <use x="95.410156" xlink:href="#DejaVuSans-34"/>
      </g>
     </g>
    </g>
    <g id="ytick_4">
     <g id="line2d_25">
      <path clip-path="url(#pc4a7c58ef3)" d="M 43.78125 121.979692 
L 400.90125 121.979692 
" style="fill:none;stroke:#b0b0b0;stroke-linecap:square;stroke-width:0.8;"/>
     </g>
     <g id="line2d_26">
      <g>
       <use style="stroke:#000000;stroke-width:0.8;" x="43.78125" xlink:href="#mfcb431bae9" y="121.979692"/>
      </g>
     </g>
     <g id="text_14">
      <!-- 0.6 -->
      <g transform="translate(20.878125 125.778911)scale(0.1 -0.1)">
       <use xlink:href="#DejaVuSans-30"/>
       <use x="63.623047" xlink:href="#DejaVuSans-2e"/>
       <use x="95.410156" xlink:href="#DejaVuSans-36"/>
      </g>
     </g>
    </g>
    <g id="ytick_5">
     <g id="line2d_27">
      <path clip-path="url(#pc4a7c58ef3)" d="M 43.78125 78.196909 
L 400.90125 78.196909 
" style="fill:none;stroke:#b0b0b0;stroke-linecap:square;stroke-width:0.8;"/>
     </g>
     <g id="line2d_28">
      <g>
       <use style="stroke:#000000;stroke-width:0.8;" x="43.78125" xlink:href="#mfcb431bae9" y="78.196909"/>
      </g>
     </g>
     <g id="text_15">
      <!-- 0.8 -->
      <g transform="translate(20.878125 81.996127)scale(0.1 -0.1)">
       <use xlink:href="#DejaVuSans-30"/>
       <use x="63.623047" xlink:href="#DejaVuSans-2e"/>
       <use x="95.410156" xlink:href="#DejaVuSans-38"/>
      </g>
     </g>
    </g>
    <g id="ytick_6">
     <g id="line2d_29">
      <path clip-path="url(#pc4a7c58ef3)" d="M 43.78125 34.414125 
L 400.90125 34.414125 
" style="fill:none;stroke:#b0b0b0;stroke-linecap:square;stroke-width:0.8;"/>
     </g>
     <g id="line2d_30">
      <g>
       <use style="stroke:#000000;stroke-width:0.8;" x="43.78125" xlink:href="#mfcb431bae9" y="34.414125"/>
      </g>
     </g>
     <g id="text_16">
      <!-- 1.0 -->
      <defs>
       <path d="M 12.40625 8.296875 
L 28.515625 8.296875 
L 28.515625 63.921875 
L 10.984375 60.40625 
L 10.984375 69.390625 
L 28.421875 72.90625 
L 38.28125 72.90625 
L 38.28125 8.296875 
L 54.390625 8.296875 
L 54.390625 0 
L 12.40625 0 
z
" id="DejaVuSans-31"/>
      </defs>
      <g transform="translate(20.878125 38.213344)scale(0.1 -0.1)">
       <use xlink:href="#DejaVuSans-31"/>
       <use x="63.623047" xlink:href="#DejaVuSans-2e"/>
       <use x="95.410156" xlink:href="#DejaVuSans-30"/>
      </g>
     </g>
    </g>
    <g id="text_17">
     <!-- u.a. -->
     <defs>
      <path d="M 34.28125 27.484375 
Q 23.390625 27.484375 19.1875 25 
Q 14.984375 22.515625 14.984375 16.5 
Q 14.984375 11.71875 18.140625 8.90625 
Q 21.296875 6.109375 26.703125 6.109375 
Q 34.1875 6.109375 38.703125 11.40625 
Q 43.21875 16.703125 43.21875 25.484375 
L 43.21875 27.484375 
z
M 52.203125 31.203125 
L 52.203125 0 
L 43.21875 0 
L 43.21875 8.296875 
Q 40.140625 3.328125 35.546875 0.953125 
Q 30.953125 -1.421875 24.3125 -1.421875 
Q 15.921875 -1.421875 10.953125 3.296875 
Q 6 8.015625 6 15.921875 
Q 6 25.140625 12.171875 29.828125 
Q 18.359375 34.515625 30.609375 34.515625 
L 43.21875 34.515625 
L 43.21875 35.40625 
Q 43.21875 41.609375 39.140625 45 
Q 35.0625 48.390625 27.6875 48.390625 
Q 23 48.390625 18.546875 47.265625 
Q 14.109375 46.140625 10.015625 43.890625 
L 10.015625 52.203125 
Q 14.9375 54.109375 19.578125 55.046875 
Q 24.21875 56 28.609375 56 
Q 40.484375 56 46.34375 49.84375 
Q 52.203125 43.703125 52.203125 31.203125 
" id="DejaVuSans-61"/>
     </defs>
     <g transform="translate(14.798438 164.785062)rotate(-90)scale(0.1 -0.1)">
      <use xlink:href="#DejaVuSans-75"/>
      <use x="63.378906" xlink:href="#DejaVuSans-2e"/>
      <use x="95.166016" xlink:href="#DejaVuSans-61"/>
      <use x="156.445312" xlink:href="#DejaVuSans-2e"/>
     </g>
    </g>
   </g>
   <g id="line2d_31">
    <path clip-path="url(#pc4a7c58ef3)" d="M 43.606875 242.939995 
L 45.786563 242.956356 
L 46.876406 242.536834 
L 47.96625 242.051835 
L 50.145938 241.528508 
L 51.235781 241.09154 
L 51.780703 241.055043 
L 55.050234 241.496649 
L 55.595156 241.495446 
L 56.140078 241.371426 
L 59.409609 239.830626 
L 61.044375 238.820497 
L 62.134219 238.666749 
L 63.224063 238.464096 
L 64.313906 237.787682 
L 65.948672 236.417141 
L 66.493594 236.169038 
L 68.673281 235.810904 
L 69.763125 235.043849 
L 70.852969 234.073363 
L 71.942813 233.40827 
L 73.032656 233.129808 
L 74.1225 232.90987 
L 75.212344 232.383779 
L 76.302188 231.72793 
L 77.392031 230.812044 
L 78.481875 229.895211 
L 81.206484 228.231015 
L 82.296328 227.969385 
L 82.84125 227.868639 
L 83.386172 227.641729 
L 84.476016 226.902904 
L 85.020938 226.729019 
L 85.565859 226.856136 
L 86.110781 227.162342 
L 86.655703 227.301178 
L 87.200625 226.863642 
L 87.745547 225.683888 
L 88.835391 222.460548 
L 89.380313 221.307233 
L 89.925234 220.587009 
L 91.015078 219.733679 
L 92.104922 219.181057 
L 93.739688 218.738463 
L 97.009219 217.142698 
L 99.188906 215.076829 
L 100.27875 214.261538 
L 104.638125 211.613081 
L 105.727969 210.656155 
L 106.817813 209.214753 
L 107.907656 207.808997 
L 108.452578 207.351549 
L 110.632266 206.140918 
L 112.267031 204.370071 
L 113.901797 202.512484 
L 116.626406 198.956534 
L 117.71625 198.240581 
L 118.806094 198.009472 
L 119.351016 197.955319 
L 119.895938 197.782236 
L 120.440859 197.350591 
L 121.530703 195.772432 
L 122.620547 194.286524 
L 124.800234 191.963869 
L 126.435 190.07624 
L 127.524844 188.807362 
L 129.159609 186.503876 
L 130.249453 185.478546 
L 131.339297 184.586397 
L 132.429141 183.372113 
L 135.15375 179.610301 
L 136.788516 177.505756 
L 138.423281 175.518335 
L 139.513125 173.597786 
L 141.147891 170.553683 
L 142.782656 168.448934 
L 144.417422 166.393831 
L 146.052188 164.45995 
L 149.866641 159.077435 
L 152.046328 155.109742 
L 153.136172 153.705004 
L 154.770938 151.92978 
L 155.860781 150.297475 
L 157.495547 147.245184 
L 159.130313 143.98431 
L 159.675234 143.249689 
L 160.765078 142.372481 
L 161.31 141.958176 
L 161.854922 141.385411 
L 162.944766 139.802696 
L 164.034609 137.902597 
L 165.124453 135.272928 
L 166.214297 132.510136 
L 167.849063 129.226562 
L 171.663516 122.276511 
L 173.843203 118.833087 
L 176.022891 114.917407 
L 182.561953 101.119991 
L 183.651797 99.362401 
L 184.741641 97.779636 
L 185.831484 95.783605 
L 186.921328 93.339039 
L 190.190859 85.164895 
L 192.370547 80.566224 
L 196.185 71.154973 
L 197.274844 69.246134 
L 197.819766 68.810506 
L 198.909609 68.595002 
L 199.454531 67.946005 
L 199.999453 66.629302 
L 202.179141 59.890621 
L 203.268984 57.296514 
L 204.90375 53.886884 
L 207.628359 47.154251 
L 209.808047 43.37561 
L 210.897891 41.071773 
L 212.532656 37.573076 
L 213.6225 35.999117 
L 214.712344 34.938977 
L 215.257266 34.583299 
L 215.802188 34.414125 
L 216.347109 34.475017 
L 217.981875 35.11443 
L 218.526797 35.011502 
L 219.616641 34.553051 
L 220.161563 34.602453 
L 220.706484 35.147717 
L 221.251406 36.478618 
L 221.796328 38.846268 
L 222.886172 46.250575 
L 223.976016 53.641094 
L 224.520938 56.23634 
L 225.065859 58.129279 
L 227.790469 65.550472 
L 228.880313 69.623189 
L 230.515078 75.930201 
L 235.964297 94.184438 
L 241.413516 110.570958 
L 250.132266 134.790065 
L 251.222109 136.867679 
L 252.311953 138.749505 
L 253.401797 141.252319 
L 257.21625 151.24079 
L 258.851016 154.516778 
L 260.485781 158.163732 
L 261.575625 160.004466 
L 262.665469 161.615256 
L 263.755313 163.576883 
L 265.390078 167.127258 
L 266.479922 169.565628 
L 267.569766 171.509609 
L 269.204531 174.219692 
L 271.929141 179.035245 
L 273.018984 181.02759 
L 275.743594 185.203112 
L 277.378359 187.44309 
L 278.468203 189.053238 
L 280.102969 191.816497 
L 287.731875 201.934247 
L 294.270938 208.448391 
L 295.360781 209.347853 
L 295.905703 209.918009 
L 296.995547 211.515479 
L 298.085391 213.199167 
L 299.720156 215.232367 
L 300.81 216.347561 
L 304.079531 219.308545 
L 305.714297 220.665923 
L 307.349063 221.970921 
L 309.52875 223.24528 
L 310.618594 224.346931 
L 312.798281 226.646816 
L 313.343203 226.935336 
L 314.977969 227.46894 
L 316.067813 228.398602 
L 317.702578 229.825059 
L 318.792422 230.395422 
L 319.337344 230.510336 
L 320.427188 230.421958 
L 320.972109 230.364985 
L 321.517031 230.479902 
L 322.061953 230.87197 
L 323.151797 232.305788 
L 324.241641 233.704495 
L 324.786563 234.222986 
L 325.331484 234.577695 
L 325.876406 234.709148 
L 327.511172 234.407469 
L 328.056094 234.531856 
L 331.325625 236.065312 
L 332.960391 236.325471 
L 333.505313 236.580094 
L 334.595156 237.454529 
L 335.685 238.408705 
L 337.319766 239.331664 
L 338.409609 239.826061 
L 340.589297 240.376084 
L 342.224063 240.678168 
L 343.313906 241.451591 
L 343.858828 241.819992 
L 344.40375 241.995493 
L 345.493594 242.045265 
L 346.038516 242.192352 
L 348.763125 243.516131 
L 349.852969 243.548283 
L 351.487734 243.360773 
L 352.577578 243.501421 
L 355.302188 244.370663 
L 355.847109 244.50643 
L 358.026797 245.520593 
L 359.661563 245.199109 
L 360.206484 245.269463 
L 361.296328 245.741946 
L 362.931094 246.76076 
L 363.476016 246.959611 
L 364.020938 247.013815 
L 365.110781 246.899592 
L 365.655703 246.986337 
L 367.835391 248.007091 
L 369.470156 248.155779 
L 371.649844 247.852357 
L 373.829531 248.079011 
L 374.919375 248.591753 
L 376.009219 249.135865 
L 376.554141 249.203549 
L 377.643984 248.906639 
L 378.733828 248.644622 
L 381.458438 248.748112 
L 382.548281 249.017271 
L 383.638125 249.695979 
L 385.272891 251.008511 
L 385.817813 251.206587 
L 386.362734 251.113218 
L 387.452578 250.537052 
L 387.9975 250.473575 
L 388.542422 250.658612 
L 390.177188 251.668363 
L 390.722109 251.861986 
L 391.267031 251.886577 
L 393.446719 251.318229 
L 396.171328 251.927264 
L 397.261172 251.691424 
L 398.351016 251.360246 
L 399.440859 251.334858 
L 400.530703 251.6805 
L 401.075625 251.94973 
L 401.075625 251.94973 
" style="fill:none;stroke:#1f77b4;stroke-linecap:square;stroke-width:1.5;"/>
   </g>
   <g id="line2d_32">
    <path clip-path="url(#pc4a7c58ef3)" d="M 43.606875 243.764676 
L 44.151797 243.805311 
L 44.696719 243.781674 
L 46.876406 243.484066 
L 48.511172 242.667745 
L 51.235781 241.074124 
L 53.960391 240.199216 
L 55.595156 239.958203 
L 57.229922 239.993298 
L 57.774844 239.803862 
L 58.319766 239.341038 
L 59.954531 237.315597 
L 60.499453 237.008122 
L 61.044375 236.968715 
L 62.134219 237.13399 
L 63.224063 236.927121 
L 65.40375 236.099848 
L 65.948672 235.651208 
L 68.673281 232.693007 
L 69.218203 232.394463 
L 69.763125 232.275336 
L 70.308047 232.370075 
L 71.942813 233.194873 
L 72.487734 233.082572 
L 73.577578 232.132707 
L 74.667422 231.299907 
L 76.847109 230.303502 
L 77.936953 229.185077 
L 78.481875 228.589301 
L 79.026797 228.178201 
L 79.571719 228.036489 
L 81.206484 228.195546 
L 81.751406 227.969123 
L 84.476016 226.197036 
L 85.020938 225.649028 
L 86.110781 223.916019 
L 86.655703 223.008683 
L 87.200625 222.47685 
L 87.745547 222.513711 
L 89.380313 223.818161 
L 89.925234 223.737884 
L 91.015078 223.016393 
L 92.649844 221.956544 
L 93.739688 221.134585 
L 96.464297 218.277438 
L 98.099063 216.920788 
L 99.188906 216.081395 
L 100.823672 215.186493 
L 103.003359 213.221984 
L 103.548281 213.149825 
L 104.638125 213.204293 
L 105.183047 212.953991 
L 105.727969 212.36353 
L 106.817813 210.476338 
L 107.907656 208.51362 
L 108.9975 207.011814 
L 109.542422 206.496168 
L 110.087344 206.140027 
L 111.177188 205.838046 
L 112.267031 205.581971 
L 112.811953 205.218487 
L 113.356875 204.643522 
L 116.081484 200.936348 
L 117.171328 200.21349 
L 118.261172 199.525245 
L 119.895938 197.762492 
L 121.530703 196.585713 
L 122.075625 195.842816 
L 123.710391 193.022002 
L 124.800234 191.717493 
L 126.979922 189.119183 
L 128.614688 187.358004 
L 130.794375 185.378644 
L 131.884219 183.700425 
L 132.974063 182.033274 
L 141.147891 171.757738 
L 142.237734 170.901822 
L 142.782656 170.275845 
L 143.8725 168.497573 
L 144.962344 166.50485 
L 146.052188 165.098584 
L 147.142031 164.085005 
L 147.686953 163.433537 
L 148.231875 162.573026 
L 149.321719 160.194003 
L 150.411563 157.603353 
L 150.956484 156.619504 
L 152.046328 155.289315 
L 153.136172 154.016005 
L 154.226016 152.350784 
L 155.315859 150.522739 
L 157.495547 147.383003 
L 159.130313 144.350917 
L 160.220156 142.961017 
L 162.399844 140.330395 
L 163.489688 138.650055 
L 164.579531 136.489366 
L 166.759219 131.542377 
L 167.849063 130.034122 
L 168.938906 128.66291 
L 170.02875 126.5822 
L 171.663516 122.939531 
L 174.388125 117.509857 
L 175.477969 115.037104 
L 184.196719 98.81624 
L 185.286563 96.735841 
L 186.921328 93.146883 
L 188.556094 89.686575 
L 189.645938 87.523057 
L 190.735781 86.063955 
L 191.280703 85.374974 
L 191.825625 84.469399 
L 192.370547 83.206084 
L 194.550234 77.084044 
L 195.095156 76.145672 
L 195.640078 75.44445 
L 196.185 74.964497 
L 197.274844 74.465294 
L 197.819766 73.744952 
L 198.364688 72.018368 
L 199.999453 63.781968 
L 200.544375 62.024667 
L 201.634219 59.76351 
L 204.358828 54.889003 
L 207.083438 49.539276 
L 208.173281 46.720464 
L 209.808047 42.256707 
L 210.897891 40.045958 
L 211.987734 38.421088 
L 213.077578 37.449999 
L 214.167422 36.486428 
L 215.802188 34.663993 
L 216.347109 34.414125 
L 216.892031 34.457675 
L 217.436953 34.766246 
L 219.071719 36.257926 
L 219.616641 36.533808 
L 220.706484 36.891508 
L 221.251406 37.677985 
L 221.796328 39.594125 
L 222.34125 42.855167 
L 223.976016 54.676161 
L 225.065859 59.551025 
L 227.245547 67.022203 
L 228.880313 71.659472 
L 231.604922 78.649405 
L 232.694766 82.387056 
L 234.329531 87.989353 
L 237.599063 97.619638 
L 240.323672 106.637382 
L 241.958438 112.246132 
L 243.048281 115.075902 
L 244.683047 118.572722 
L 245.772891 121.680053 
L 247.407656 126.476543 
L 253.401797 141.865649 
L 256.126406 148.096002 
L 257.21625 149.95783 
L 258.306094 152.503824 
L 260.485781 158.274931 
L 261.575625 160.991645 
L 262.120547 162.088716 
L 263.210391 163.520427 
L 264.300234 164.885194 
L 265.390078 166.799517 
L 268.114688 172.583504 
L 269.749453 174.823407 
L 271.384219 177.205114 
L 274.108828 181.447286 
L 276.288516 185.747845 
L 276.833438 186.512553 
L 277.923281 187.487991 
L 278.468203 187.879819 
L 279.013125 188.447491 
L 279.558047 189.323401 
L 281.737734 193.884974 
L 286.642031 201.249807 
L 287.731875 203.009005 
L 288.276797 203.68889 
L 288.821719 204.16008 
L 289.911563 204.695657 
L 291.001406 205.165776 
L 292.09125 205.919698 
L 293.726016 207.402184 
L 294.815859 208.731892 
L 296.995547 212.008218 
L 298.085391 213.174717 
L 299.175234 214.148504 
L 300.265078 215.529448 
L 301.354922 216.924159 
L 303.534609 219.173809 
L 304.079531 219.555389 
L 306.259219 220.550197 
L 308.983828 222.480356 
L 312.798281 226.618497 
L 313.343203 226.828977 
L 313.888125 226.736387 
L 314.977969 226.267842 
L 315.522891 226.189081 
L 316.067813 226.273215 
L 316.612734 226.524795 
L 317.157656 226.950208 
L 318.2475 228.222963 
L 319.882266 230.397229 
L 320.972109 231.433899 
L 322.061953 232.006864 
L 323.151797 232.130574 
L 324.241641 232.116553 
L 325.331484 232.347524 
L 326.421328 232.842268 
L 328.601016 234.32124 
L 330.235781 234.795948 
L 331.325625 235.72335 
L 332.960391 237.310806 
L 334.595156 238.409647 
L 335.685 238.88808 
L 336.229922 238.889023 
L 337.319766 238.383343 
L 337.864688 238.084848 
L 338.409609 237.924851 
L 338.954531 237.993057 
L 339.499453 238.303715 
L 341.134219 239.616451 
L 342.224063 240.128631 
L 344.948672 241.126429 
L 345.493594 241.456017 
L 347.128359 242.849429 
L 347.673281 243.031384 
L 349.308047 243.104452 
L 350.942813 243.642554 
L 352.032656 243.625065 
L 354.212344 243.454531 
L 355.302188 243.847899 
L 356.392031 244.268379 
L 357.481875 244.680347 
L 359.116641 245.713824 
L 360.751406 246.153501 
L 362.931094 246.640148 
L 364.020938 247.020417 
L 365.655703 247.293793 
L 366.745547 247.375487 
L 368.925234 247.141351 
L 371.649844 248.28167 
L 373.284609 248.609807 
L 374.374453 248.960662 
L 374.919375 248.927414 
L 376.554141 248.22951 
L 377.099063 248.220293 
L 377.643984 248.390281 
L 379.823672 249.550312 
L 380.368594 249.506615 
L 382.003359 248.890694 
L 382.548281 248.942702 
L 384.183047 249.492096 
L 388.542422 249.682302 
L 389.087344 249.868766 
L 390.722109 251.005781 
L 391.267031 251.132081 
L 391.811953 251.033666 
L 393.991641 250.168926 
L 395.081484 250.133104 
L 396.171328 250.413349 
L 397.261172 251.034724 
L 397.806094 251.374792 
L 398.351016 251.549433 
L 398.895938 251.467213 
L 399.985781 250.971095 
L 400.530703 250.960008 
L 401.075625 251.195427 
L 401.075625 251.195427 
" style="fill:none;stroke:#ff7f0e;stroke-linecap:square;stroke-width:1.5;"/>
   </g>
   <g id="line2d_33">
    <path clip-path="url(#pc4a7c58ef3)" d="M 43.606875 243.258736 
L 45.241641 244.506632 
L 45.786563 244.561122 
L 46.331484 244.312789 
L 47.421328 243.430054 
L 47.96625 243.162459 
L 49.056094 243.158767 
L 49.601016 243.13241 
L 50.145938 242.940926 
L 51.235781 242.190175 
L 53.960391 240.042875 
L 54.505313 239.626353 
L 55.050234 239.536141 
L 55.595156 239.919117 
L 56.685 241.386239 
L 57.229922 241.785335 
L 57.774844 241.750251 
L 58.319766 241.390382 
L 59.954531 239.958931 
L 60.499453 239.757201 
L 62.134219 239.552296 
L 63.224063 238.923448 
L 64.858828 237.697945 
L 65.40375 237.519303 
L 66.493594 237.422912 
L 67.038516 237.159318 
L 67.583438 236.621607 
L 69.218203 234.458059 
L 69.763125 234.001712 
L 70.852969 233.637593 
L 71.397891 233.450119 
L 73.032656 232.250164 
L 73.577578 232.146092 
L 75.212344 232.483848 
L 76.847109 232.102695 
L 77.392031 231.927226 
L 77.936953 231.622495 
L 78.481875 231.12356 
L 79.571719 229.818564 
L 80.116641 229.362757 
L 80.661563 229.213091 
L 81.206484 229.331885 
L 82.296328 229.715204 
L 82.84125 229.616446 
L 83.386172 229.221589 
L 85.020938 227.623768 
L 86.655703 226.706872 
L 87.200625 226.194531 
L 88.835391 224.063022 
L 89.380313 223.607152 
L 90.470156 223.015787 
L 92.104922 221.821705 
L 92.649844 221.776997 
L 93.739688 221.860636 
L 94.284609 221.636155 
L 95.919375 220.577187 
L 97.009219 220.275941 
L 97.554141 220.00253 
L 99.188906 218.646192 
L 100.27875 217.513823 
L 101.368594 215.974524 
L 101.913516 215.400193 
L 102.458438 215.13097 
L 103.548281 215.044718 
L 104.093203 214.741345 
L 104.638125 214.113502 
L 106.817813 210.804385 
L 107.362734 210.375695 
L 107.907656 210.246098 
L 109.542422 210.34355 
L 110.087344 210.170399 
L 110.632266 209.762999 
L 111.177188 209.107101 
L 112.267031 207.317291 
L 113.901797 204.641939 
L 115.536563 202.537161 
L 116.626406 201.44896 
L 118.261172 200.509681 
L 119.351016 199.333416 
L 120.440859 198.087986 
L 121.530703 197.138142 
L 122.620547 196.221063 
L 126.435 192.066435 
L 127.524844 190.88666 
L 129.704531 187.576667 
L 132.429141 184.495247 
L 133.518984 184.034083 
L 134.608828 183.553797 
L 136.788516 181.964617 
L 137.878359 180.721976 
L 139.513125 178.232075 
L 141.147891 175.698337 
L 142.782656 174.043516 
L 143.8725 172.241995 
L 148.776797 163.409173 
L 150.956484 160.598418 
L 152.59125 158.691142 
L 153.681094 157.395833 
L 156.405703 152.64195 
L 159.130313 147.756525 
L 160.220156 146.450978 
L 160.765078 145.912463 
L 161.31 145.187434 
L 161.854922 144.072195 
L 164.034609 138.194577 
L 166.214297 134.271268 
L 166.759219 133.236374 
L 167.304141 132.463017 
L 168.393984 131.641866 
L 168.938906 131.238162 
L 169.483828 130.618522 
L 170.573672 128.72064 
L 172.208438 125.539268 
L 174.933047 120.928046 
L 176.567813 117.19349 
L 178.202578 113.099635 
L 179.837344 108.669617 
L 181.472109 105.116689 
L 184.741641 99.044556 
L 185.831484 96.935354 
L 187.46625 94.820485 
L 188.556094 92.363538 
L 189.645938 89.844589 
L 191.280703 86.614082 
L 194.550234 79.305217 
L 195.640078 77.951811 
L 196.185 76.870922 
L 197.819766 71.767862 
L 198.364688 70.843713 
L 199.454531 70.067753 
L 199.999453 69.187567 
L 201.089297 66.180398 
L 207.083438 48.644411 
L 208.173281 46.227605 
L 209.808047 42.964264 
L 211.442813 39.034044 
L 212.532656 36.439332 
L 213.077578 35.432567 
L 213.6225 34.73297 
L 214.167422 34.414125 
L 214.712344 34.489217 
L 215.802188 35.170734 
L 216.347109 35.297737 
L 217.436953 35.028836 
L 217.981875 35.100204 
L 218.526797 35.508016 
L 219.616641 36.571254 
L 220.161563 36.849552 
L 220.706484 37.29273 
L 221.251406 38.587768 
L 221.796328 41.228546 
L 223.431094 52.798824 
L 223.976016 55.506751 
L 225.065859 59.228674 
L 230.515078 76.649205 
L 232.694766 83.680189 
L 235.419375 92.72768 
L 237.054141 97.265021 
L 238.688906 101.720971 
L 239.77875 105.741294 
L 240.868594 110.187072 
L 241.413516 111.818467 
L 242.503359 113.916495 
L 243.048281 114.913855 
L 243.593203 116.20876 
L 244.683047 119.820788 
L 246.862734 127.617933 
L 247.952578 130.731026 
L 249.042422 133.127635 
L 250.132266 135.347094 
L 251.222109 138.081179 
L 252.856875 142.525059 
L 253.946719 144.604523 
L 255.036563 146.477268 
L 256.126406 149.037244 
L 258.306094 154.194699 
L 259.940859 158.310173 
L 261.575625 162.742564 
L 262.120547 163.760917 
L 264.300234 167.037193 
L 265.390078 169.292996 
L 267.024844 172.890826 
L 268.114688 174.406099 
L 269.204531 175.868821 
L 270.839297 178.984586 
L 274.108828 185.509279 
L 275.743594 187.282891 
L 276.288516 188.25033 
L 277.378359 190.687154 
L 277.923281 191.56736 
L 278.468203 192.031355 
L 279.558047 192.597672 
L 280.102969 193.213995 
L 281.737734 195.586533 
L 283.917422 197.86285 
L 284.462344 198.415282 
L 285.007266 199.231697 
L 286.642031 202.841622 
L 287.186953 203.560289 
L 288.821719 205.013659 
L 291.546328 209.083924 
L 292.636172 210.091523 
L 294.270938 211.18965 
L 295.360781 212.172804 
L 297.540469 213.524246 
L 298.630313 214.553219 
L 301.354922 217.841019 
L 302.444766 220.097994 
L 303.534609 222.385869 
L 304.079531 223.113705 
L 304.624453 223.472178 
L 305.169375 223.518628 
L 306.259219 223.423549 
L 307.349063 223.753308 
L 307.893984 224.083894 
L 308.983828 225.145564 
L 309.52875 225.681008 
L 310.073672 226.046056 
L 312.253359 226.890562 
L 312.798281 227.37457 
L 314.433047 229.433078 
L 314.977969 229.789103 
L 315.522891 229.766172 
L 316.067813 229.565959 
L 316.612734 229.548033 
L 317.157656 229.936336 
L 318.2475 231.328744 
L 318.792422 231.781953 
L 319.337344 231.957134 
L 321.517031 232.004932 
L 322.061953 232.257577 
L 323.151797 233.189014 
L 324.241641 234.59982 
L 325.331484 236.108945 
L 325.876406 236.632863 
L 326.421328 236.918704 
L 328.056094 237.216006 
L 329.145938 237.343587 
L 330.780703 237.280427 
L 331.325625 237.491423 
L 331.870547 237.965422 
L 333.505313 239.838097 
L 334.595156 240.46558 
L 335.685 240.962334 
L 337.319766 241.851893 
L 338.409609 242.065874 
L 339.499453 242.072109 
L 340.589297 241.589274 
L 341.134219 241.330561 
L 341.679141 241.208247 
L 342.768984 241.382014 
L 343.858828 241.850116 
L 344.948672 242.594165 
L 347.128359 244.315502 
L 348.763125 245.449055 
L 349.308047 245.528752 
L 349.852969 245.357619 
L 350.942813 244.79996 
L 351.487734 244.774306 
L 353.1225 245.174456 
L 354.212344 245.195138 
L 354.757266 245.332424 
L 355.847109 246.015969 
L 356.392031 246.403347 
L 356.936953 246.589745 
L 358.026797 246.328757 
L 358.571719 246.228648 
L 361.296328 246.309207 
L 362.931094 246.955385 
L 364.020938 247.228336 
L 365.110781 247.607188 
L 365.655703 247.548889 
L 366.745547 247.132455 
L 367.290469 247.235654 
L 368.925234 248.326748 
L 369.470156 248.298886 
L 370.56 247.953029 
L 371.104922 248.043443 
L 371.649844 248.419255 
L 372.739688 249.468363 
L 373.284609 249.817507 
L 373.829531 249.940558 
L 374.374453 249.790672 
L 376.009219 248.530061 
L 376.554141 248.557775 
L 377.099063 248.93792 
L 378.188906 249.980789 
L 378.733828 250.243982 
L 379.27875 250.234644 
L 380.913516 249.629594 
L 384.183047 249.277878 
L 384.727969 249.414339 
L 385.272891 249.792442 
L 387.452578 251.901958 
L 387.9975 252.251681 
L 388.542422 252.418252 
L 389.087344 252.263781 
L 390.177188 251.140604 
L 390.722109 250.626759 
L 391.267031 250.395765 
L 391.811953 250.440782 
L 392.901797 251.038638 
L 393.991641 251.78379 
L 394.536563 251.969684 
L 395.081484 251.964503 
L 396.171328 251.589816 
L 397.261172 251.232644 
L 397.806094 251.207336 
L 398.351016 251.36148 
L 399.440859 251.900238 
L 399.985781 251.970647 
L 401.075625 251.82117 
L 401.075625 251.82117 
" style="fill:none;stroke:#2ca02c;stroke-linecap:square;stroke-width:1.5;"/>
   </g>
   <g id="patch_3">
    <path d="M 43.78125 288.430125 
L 43.78125 22.318125 
" style="fill:none;stroke:#000000;stroke-linecap:square;stroke-linejoin:miter;stroke-width:0.8;"/>
   </g>
   <g id="patch_4">
    <path d="M 400.90125 288.430125 
L 400.90125 22.318125 
" style="fill:none;stroke:#000000;stroke-linecap:square;stroke-linejoin:miter;stroke-width:0.8;"/>
   </g>
   <g id="patch_5">
    <path d="M 43.78125 288.430125 
L 400.90125 288.430125 
" style="fill:none;stroke:#000000;stroke-linecap:square;stroke-linejoin:miter;stroke-width:0.8;"/>
   </g>
   <g id="patch_6">
    <path d="M 43.78125 22.318125 
L 400.90125 22.318125 
" style="fill:none;stroke:#000000;stroke-linecap:square;stroke-linejoin:miter;stroke-width:0.8;"/>
   </g>
   <g id="text_18">
    <!-- Spektrum Vergleich -->
    <defs>
     <path d="M 53.515625 70.515625 
L 53.515625 60.890625 
Q 47.90625 63.578125 42.921875 64.890625 
Q 37.9375 66.21875 33.296875 66.21875 
Q 25.25 66.21875 20.875 63.09375 
Q 16.5 59.96875 16.5 54.203125 
Q 16.5 49.359375 19.40625 46.890625 
Q 22.3125 44.4375 30.421875 42.921875 
L 36.375 41.703125 
Q 47.40625 39.59375 52.65625 34.296875 
Q 57.90625 29 57.90625 20.125 
Q 57.90625 9.515625 50.796875 4.046875 
Q 43.703125 -1.421875 29.984375 -1.421875 
Q 24.8125 -1.421875 18.96875 -0.25 
Q 13.140625 0.921875 6.890625 3.21875 
L 6.890625 13.375 
Q 12.890625 10.015625 18.65625 8.296875 
Q 24.421875 6.59375 29.984375 6.59375 
Q 38.421875 6.59375 43.015625 9.90625 
Q 47.609375 13.234375 47.609375 19.390625 
Q 47.609375 24.75 44.3125 27.78125 
Q 41.015625 30.8125 33.5 32.328125 
L 27.484375 33.5 
Q 16.453125 35.6875 11.515625 40.375 
Q 6.59375 45.0625 6.59375 53.421875 
Q 6.59375 63.09375 13.40625 68.65625 
Q 20.21875 74.21875 32.171875 74.21875 
Q 37.3125 74.21875 42.625 73.28125 
Q 47.953125 72.359375 53.515625 70.515625 
" id="DejaVuSans-53"/>
     <path d="M 18.109375 8.203125 
L 18.109375 -20.796875 
L 9.078125 -20.796875 
L 9.078125 54.6875 
L 18.109375 54.6875 
L 18.109375 46.390625 
Q 20.953125 51.265625 25.265625 53.625 
Q 29.59375 56 35.59375 56 
Q 45.5625 56 51.78125 48.09375 
Q 58.015625 40.1875 58.015625 27.296875 
Q 58.015625 14.40625 51.78125 6.484375 
Q 45.5625 -1.421875 35.59375 -1.421875 
Q 29.59375 -1.421875 25.265625 0.953125 
Q 20.953125 3.328125 18.109375 8.203125 
M 48.6875 27.296875 
Q 48.6875 37.203125 44.609375 42.84375 
Q 40.53125 48.484375 33.40625 48.484375 
Q 26.265625 48.484375 22.1875 42.84375 
Q 18.109375 37.203125 18.109375 27.296875 
Q 18.109375 17.390625 22.1875 11.75 
Q 26.265625 6.109375 33.40625 6.109375 
Q 40.53125 6.109375 44.609375 11.75 
Q 48.6875 17.390625 48.6875 27.296875 
" id="DejaVuSans-70"/>
     <path d="M 18.3125 70.21875 
L 18.3125 54.6875 
L 36.8125 54.6875 
L 36.8125 47.703125 
L 18.3125 47.703125 
L 18.3125 18.015625 
Q 18.3125 11.328125 20.140625 9.421875 
Q 21.96875 7.515625 27.59375 7.515625 
L 36.8125 7.515625 
L 36.8125 0 
L 27.59375 0 
Q 17.1875 0 13.234375 3.875 
Q 9.28125 7.765625 9.28125 18.015625 
L 9.28125 47.703125 
L 2.6875 47.703125 
L 2.6875 54.6875 
L 9.28125 54.6875 
L 9.28125 70.21875 
z
" id="DejaVuSans-74"/>
     <path d="M 52 44.1875 
Q 55.375 50.25 60.0625 53.125 
Q 64.75 56 71.09375 56 
Q 79.640625 56 84.28125 50.015625 
Q 88.921875 44.046875 88.921875 33.015625 
L 88.921875 0 
L 79.890625 0 
L 79.890625 32.71875 
Q 79.890625 40.578125 77.09375 44.375 
Q 74.3125 48.1875 68.609375 48.1875 
Q 61.625 48.1875 57.5625 43.546875 
Q 53.515625 38.921875 53.515625 30.90625 
L 53.515625 0 
L 44.484375 0 
L 44.484375 32.71875 
Q 44.484375 40.625 41.703125 44.40625 
Q 38.921875 48.1875 33.109375 48.1875 
Q 26.21875 48.1875 22.15625 43.53125 
Q 18.109375 38.875 18.109375 30.90625 
L 18.109375 0 
L 9.078125 0 
L 9.078125 54.6875 
L 18.109375 54.6875 
L 18.109375 46.1875 
Q 21.1875 51.21875 25.484375 53.609375 
Q 29.78125 56 35.6875 56 
Q 41.65625 56 45.828125 52.96875 
Q 50 49.953125 52 44.1875 
" id="DejaVuSans-6d"/>
     <path d="M 28.609375 0 
L 0.78125 72.90625 
L 11.078125 72.90625 
L 34.1875 11.53125 
L 57.328125 72.90625 
L 67.578125 72.90625 
L 39.796875 0 
z
" id="DejaVuSans-56"/>
     <path d="M 45.40625 27.984375 
Q 45.40625 37.75 41.375 43.109375 
Q 37.359375 48.484375 30.078125 48.484375 
Q 22.859375 48.484375 18.828125 43.109375 
Q 14.796875 37.75 14.796875 27.984375 
Q 14.796875 18.265625 18.828125 12.890625 
Q 22.859375 7.515625 30.078125 7.515625 
Q 37.359375 7.515625 41.375 12.890625 
Q 45.40625 18.265625 45.40625 27.984375 
M 54.390625 6.78125 
Q 54.390625 -7.171875 48.1875 -13.984375 
Q 42 -20.796875 29.203125 -20.796875 
Q 24.46875 -20.796875 20.265625 -20.09375 
Q 16.0625 -19.390625 12.109375 -17.921875 
L 12.109375 -9.1875 
Q 16.0625 -11.328125 19.921875 -12.34375 
Q 23.78125 -13.375 27.78125 -13.375 
Q 36.625 -13.375 41.015625 -8.765625 
Q 45.40625 -4.15625 45.40625 5.171875 
L 45.40625 9.625 
Q 42.625 4.78125 38.28125 2.390625 
Q 33.9375 0 27.875 0 
Q 17.828125 0 11.671875 7.65625 
Q 5.515625 15.328125 5.515625 27.984375 
Q 5.515625 40.671875 11.671875 48.328125 
Q 17.828125 56 27.875 56 
Q 33.9375 56 38.28125 53.609375 
Q 42.625 51.21875 45.40625 46.390625 
L 45.40625 54.6875 
L 54.390625 54.6875 
z
" id="DejaVuSans-67"/>
     <path d="M 9.421875 75.984375 
L 18.40625 75.984375 
L 18.40625 0 
L 9.421875 0 
z
" id="DejaVuSans-6c"/>
     <path d="M 9.421875 54.6875 
L 18.40625 54.6875 
L 18.40625 0 
L 9.421875 0 
z
M 9.421875 75.984375 
L 18.40625 75.984375 
L 18.40625 64.59375 
L 9.421875 64.59375 
z
" id="DejaVuSans-69"/>
     <path d="M 48.78125 52.59375 
L 48.78125 44.1875 
Q 44.96875 46.296875 41.140625 47.34375 
Q 37.3125 48.390625 33.40625 48.390625 
Q 24.65625 48.390625 19.8125 42.84375 
Q 14.984375 37.3125 14.984375 27.296875 
Q 14.984375 17.28125 19.8125 11.734375 
Q 24.65625 6.203125 33.40625 6.203125 
Q 37.3125 6.203125 41.140625 7.25 
Q 44.96875 8.296875 48.78125 10.40625 
L 48.78125 2.09375 
Q 45.015625 0.34375 40.984375 -0.53125 
Q 36.96875 -1.421875 32.421875 -1.421875 
Q 20.0625 -1.421875 12.78125 6.34375 
Q 5.515625 14.109375 5.515625 27.296875 
Q 5.515625 40.671875 12.859375 48.328125 
Q 20.21875 56 33.015625 56 
Q 37.15625 56 41.109375 55.140625 
Q 45.0625 54.296875 48.78125 52.59375 
" id="DejaVuSans-63"/>
     <path d="M 54.890625 33.015625 
L 54.890625 0 
L 45.90625 0 
L 45.90625 32.71875 
Q 45.90625 40.484375 42.875 44.328125 
Q 39.84375 48.1875 33.796875 48.1875 
Q 26.515625 48.1875 22.3125 43.546875 
Q 18.109375 38.921875 18.109375 30.90625 
L 18.109375 0 
L 9.078125 0 
L 9.078125 75.984375 
L 18.109375 75.984375 
L 18.109375 46.1875 
Q 21.34375 51.125 25.703125 53.5625 
Q 30.078125 56 35.796875 56 
Q 45.21875 56 50.046875 50.171875 
Q 54.890625 44.34375 54.890625 33.015625 
" id="DejaVuSans-68"/>
    </defs>
    <g transform="translate(162.992813 16.318125)scale(0.12 -0.12)">
     <use xlink:href="#DejaVuSans-53"/>
     <use x="63.476562" xlink:href="#DejaVuSans-70"/>
     <use x="126.953125" xlink:href="#DejaVuSans-65"/>
     <use x="188.476562" xlink:href="#DejaVuSans-6b"/>
     <use x="246.386719" xlink:href="#DejaVuSans-74"/>
     <use x="285.595703" xlink:href="#DejaVuSans-72"/>
     <use x="326.708984" xlink:href="#DejaVuSans-75"/>
     <use x="390.087891" xlink:href="#DejaVuSans-6d"/>
     <use x="487.5" xlink:href="#DejaVuSans-20"/>
     <use x="519.287109" xlink:href="#DejaVuSans-56"/>
     <use x="587.585938" xlink:href="#DejaVuSans-65"/>
     <use x="649.109375" xlink:href="#DejaVuSans-72"/>
     <use x="690.207031" xlink:href="#DejaVuSans-67"/>
     <use x="753.683594" xlink:href="#DejaVuSans-6c"/>
     <use x="781.466797" xlink:href="#DejaVuSans-65"/>
     <use x="842.990234" xlink:href="#DejaVuSans-69"/>
     <use x="870.773438" xlink:href="#DejaVuSans-63"/>
     <use x="925.753906" xlink:href="#DejaVuSans-68"/>
    </g>
   </g>
   <g id="legend_1">
    <g id="patch_7">
     <path d="M 315.145 74.3525 
L 393.90125 74.3525 
Q 395.90125 74.3525 395.90125 72.3525 
L 395.90125 29.318125 
Q 395.90125 27.318125 393.90125 27.318125 
L 315.145 27.318125 
Q 313.145 27.318125 313.145 29.318125 
L 313.145 72.3525 
Q 313.145 74.3525 315.145 74.3525 
z
" style="fill:#ffffff;opacity:0.8;stroke:#cccccc;stroke-linejoin:miter;"/>
    </g>
    <g id="line2d_34">
     <path d="M 317.145 35.416562 
L 337.145 35.416562 
" style="fill:none;stroke:#1f77b4;stroke-linecap:square;stroke-width:1.5;"/>
    </g>
    <g id="line2d_35"/>
    <g id="text_19">
     <!-- 0.015 ms -->
     <defs>
      <path d="M 10.796875 72.90625 
L 49.515625 72.90625 
L 49.515625 64.59375 
L 19.828125 64.59375 
L 19.828125 46.734375 
Q 21.96875 47.46875 24.109375 47.828125 
Q 26.265625 48.1875 28.421875 48.1875 
Q 40.625 48.1875 47.75 41.5 
Q 54.890625 34.8125 54.890625 23.390625 
Q 54.890625 11.625 47.5625 5.09375 
Q 40.234375 -1.421875 26.90625 -1.421875 
Q 22.3125 -1.421875 17.546875 -0.640625 
Q 12.796875 0.140625 7.71875 1.703125 
L 7.71875 11.625 
Q 12.109375 9.234375 16.796875 8.0625 
Q 21.484375 6.890625 26.703125 6.890625 
Q 35.15625 6.890625 40.078125 11.328125 
Q 45.015625 15.765625 45.015625 23.390625 
Q 45.015625 31 40.078125 35.4375 
Q 35.15625 39.890625 26.703125 39.890625 
Q 22.75 39.890625 18.8125 39.015625 
Q 14.890625 38.140625 10.796875 36.28125 
z
" id="DejaVuSans-35"/>
      <path d="M 44.28125 53.078125 
L 44.28125 44.578125 
Q 40.484375 46.53125 36.375 47.5 
Q 32.28125 48.484375 27.875 48.484375 
Q 21.1875 48.484375 17.84375 46.4375 
Q 14.5 44.390625 14.5 40.28125 
Q 14.5 37.15625 16.890625 35.375 
Q 19.28125 33.59375 26.515625 31.984375 
L 29.59375 31.296875 
Q 39.15625 29.25 43.1875 25.515625 
Q 47.21875 21.78125 47.21875 15.09375 
Q 47.21875 7.46875 41.1875 3.015625 
Q 35.15625 -1.421875 24.609375 -1.421875 
Q 20.21875 -1.421875 15.453125 -0.5625 
Q 10.6875 0.296875 5.421875 2 
L 5.421875 11.28125 
Q 10.40625 8.6875 15.234375 7.390625 
Q 20.0625 6.109375 24.8125 6.109375 
Q 31.15625 6.109375 34.5625 8.28125 
Q 37.984375 10.453125 37.984375 14.40625 
Q 37.984375 18.0625 35.515625 20.015625 
Q 33.0625 21.96875 24.703125 23.78125 
L 21.578125 24.515625 
Q 13.234375 26.265625 9.515625 29.90625 
Q 5.8125 33.546875 5.8125 39.890625 
Q 5.8125 47.609375 11.28125 51.796875 
Q 16.75 56 26.8125 56 
Q 31.78125 56 36.171875 55.265625 
Q 40.578125 54.546875 44.28125 53.078125 
" id="DejaVuSans-73"/>
     </defs>
     <g transform="translate(345.145 38.916562)scale(0.1 -0.1)">
      <use xlink:href="#DejaVuSans-30"/>
      <use x="63.623047" xlink:href="#DejaVuSans-2e"/>
      <use x="95.410156" xlink:href="#DejaVuSans-30"/>
      <use x="159.033203" xlink:href="#DejaVuSans-31"/>
      <use x="222.65625" xlink:href="#DejaVuSans-35"/>
      <use x="286.279297" xlink:href="#DejaVuSans-20"/>
      <use x="318.066406" xlink:href="#DejaVuSans-6d"/>
      <use x="415.478516" xlink:href="#DejaVuSans-73"/>
     </g>
    </g>
    <g id="line2d_36">
     <path d="M 317.145 50.094688 
L 337.145 50.094688 
" style="fill:none;stroke:#ff7f0e;stroke-linecap:square;stroke-width:1.5;"/>
    </g>
    <g id="line2d_37"/>
    <g id="text_20">
     <!-- 0.1 ms -->
     <g transform="translate(345.145 53.594688)scale(0.1 -0.1)">
      <use xlink:href="#DejaVuSans-30"/>
      <use x="63.623047" xlink:href="#DejaVuSans-2e"/>
      <use x="95.410156" xlink:href="#DejaVuSans-31"/>
      <use x="159.033203" xlink:href="#DejaVuSans-20"/>
      <use x="190.820312" xlink:href="#DejaVuSans-6d"/>
      <use x="288.232422" xlink:href="#DejaVuSans-73"/>
     </g>
    </g>
    <g id="line2d_38">
     <path d="M 317.145 64.772812 
L 337.145 64.772812 
" style="fill:none;stroke:#2ca02c;stroke-linecap:square;stroke-width:1.5;"/>
    </g>
    <g id="line2d_39"/>
    <g id="text_21">
     <!-- 0.6 ms -->
     <g transform="translate(345.145 68.272812)scale(0.1 -0.1)">
      <use xlink:href="#DejaVuSans-30"/>
      <use x="63.623047" xlink:href="#DejaVuSans-2e"/>
      <use x="95.410156" xlink:href="#DejaVuSans-36"/>
      <use x="159.033203" xlink:href="#DejaVuSans-20"/>
      <use x="190.820312" xlink:href="#DejaVuSans-6d"/>
      <use x="288.232422" xlink:href="#DejaVuSans-73"/>
     </g>
    </g>
   </g>
  </g>
 </g>
 <defs>
  <clipPath id="pc4a7c58ef3">
   <rect height="266.112" width="357.12" x="43.78125" y="22.318125"/>
  </clipPath>
 </defs>
</svg>
