<?xml version="1.0" encoding="utf-8" standalone="no"?>
<!DOCTYPE svg PUBLIC "-//W3C//DTD SVG 1.1//EN"
  "http://www.w3.org/Graphics/SVG/1.1/DTD/svg11.dtd">
<!-- Created with matplotlib (http://matplotlib.org/) -->
<svg height="325pt" version="1.1" viewBox="0 0 439 325" width="439pt" xmlns="http://www.w3.org/2000/svg" xmlns:xlink="http://www.w3.org/1999/xlink">
 <defs>
  <style type="text/css">
*{stroke-linecap:butt;stroke-linejoin:round;}
  </style>
 </defs>
 <g id="figure_1">
  <g id="patch_1">
   <path d="M 0 325.986375 
L 439.916875 325.986375 
L 439.916875 0 
L 0 0 
z
" style="fill:#ffffff;"/>
  </g>
  <g id="axes_1">
   <g id="patch_2">
    <path d="M 59.690625 288.430125 
L 416.810625 288.430125 
L 416.810625 22.318125 
L 59.690625 22.318125 
z
" style="fill:#ffffff;"/>
   </g>
   <g id="matplotlib.axis_1">
    <g id="xtick_1">
     <g id="line2d_1">
      <path clip-path="url(#pf46e814707)" d="M 59.690625 288.430125 
L 59.690625 22.318125 
" style="fill:none;stroke:#b0b0b0;stroke-linecap:square;stroke-width:0.8;"/>
     </g>
     <g id="line2d_2">
      <defs>
       <path d="M 0 0 
L 0 3.5 
" id="m310e0af1c8" style="stroke:#000000;stroke-width:0.8;"/>
      </defs>
      <g>
       <use style="stroke:#000000;stroke-width:0.8;" x="59.690625" xlink:href="#m310e0af1c8" y="288.430125"/>
      </g>
     </g>
     <g id="text_1">
      <!-- −80000 -->
      <defs>
       <path d="M 10.59375 35.5 
L 73.1875 35.5 
L 73.1875 27.203125 
L 10.59375 27.203125 
z
" id="DejaVuSans-2212"/>
       <path d="M 31.78125 34.625 
Q 24.75 34.625 20.71875 30.859375 
Q 16.703125 27.09375 16.703125 20.515625 
Q 16.703125 13.921875 20.71875 10.15625 
Q 24.75 6.390625 31.78125 6.390625 
Q 38.8125 6.390625 42.859375 10.171875 
Q 46.921875 13.96875 46.921875 20.515625 
Q 46.921875 27.09375 42.890625 30.859375 
Q 38.875 34.625 31.78125 34.625 
M 21.921875 38.8125 
Q 15.578125 40.375 12.03125 44.71875 
Q 8.5 49.078125 8.5 55.328125 
Q 8.5 64.0625 14.71875 69.140625 
Q 20.953125 74.21875 31.78125 74.21875 
Q 42.671875 74.21875 48.875 69.140625 
Q 55.078125 64.0625 55.078125 55.328125 
Q 55.078125 49.078125 51.53125 44.71875 
Q 48 40.375 41.703125 38.8125 
Q 48.828125 37.15625 52.796875 32.3125 
Q 56.78125 27.484375 56.78125 20.515625 
Q 56.78125 9.90625 50.3125 4.234375 
Q 43.84375 -1.421875 31.78125 -1.421875 
Q 19.734375 -1.421875 13.25 4.234375 
Q 6.78125 9.90625 6.78125 20.515625 
Q 6.78125 27.484375 10.78125 32.3125 
Q 14.796875 37.15625 21.921875 38.8125 
M 18.3125 54.390625 
Q 18.3125 48.734375 21.84375 45.5625 
Q 25.390625 42.390625 31.78125 42.390625 
Q 38.140625 42.390625 41.71875 45.5625 
Q 45.3125 48.734375 45.3125 54.390625 
Q 45.3125 60.0625 41.71875 63.234375 
Q 38.140625 66.40625 31.78125 66.40625 
Q 25.390625 66.40625 21.84375 63.234375 
Q 18.3125 60.0625 18.3125 54.390625 
" id="DejaVuSans-38"/>
       <path d="M 31.78125 66.40625 
Q 24.171875 66.40625 20.328125 58.90625 
Q 16.5 51.421875 16.5 36.375 
Q 16.5 21.390625 20.328125 13.890625 
Q 24.171875 6.390625 31.78125 6.390625 
Q 39.453125 6.390625 43.28125 13.890625 
Q 47.125 21.390625 47.125 36.375 
Q 47.125 51.421875 43.28125 58.90625 
Q 39.453125 66.40625 31.78125 66.40625 
M 31.78125 74.21875 
Q 44.046875 74.21875 50.515625 64.515625 
Q 56.984375 54.828125 56.984375 36.375 
Q 56.984375 17.96875 50.515625 8.265625 
Q 44.046875 -1.421875 31.78125 -1.421875 
Q 19.53125 -1.421875 13.0625 8.265625 
Q 6.59375 17.96875 6.59375 36.375 
Q 6.59375 54.828125 13.0625 64.515625 
Q 19.53125 74.21875 31.78125 74.21875 
" id="DejaVuSans-30"/>
      </defs>
      <g transform="translate(39.594531 303.028562)scale(0.1 -0.1)">
       <use xlink:href="#DejaVuSans-2212"/>
       <use x="83.789062" xlink:href="#DejaVuSans-38"/>
       <use x="147.412109" xlink:href="#DejaVuSans-30"/>
       <use x="211.035156" xlink:href="#DejaVuSans-30"/>
       <use x="274.658203" xlink:href="#DejaVuSans-30"/>
       <use x="338.28125" xlink:href="#DejaVuSans-30"/>
      </g>
     </g>
    </g>
    <g id="xtick_2">
     <g id="line2d_3">
      <path clip-path="url(#pf46e814707)" d="M 104.330625 288.430125 
L 104.330625 22.318125 
" style="fill:none;stroke:#b0b0b0;stroke-linecap:square;stroke-width:0.8;"/>
     </g>
     <g id="line2d_4">
      <g>
       <use style="stroke:#000000;stroke-width:0.8;" x="104.330625" xlink:href="#m310e0af1c8" y="288.430125"/>
      </g>
     </g>
     <g id="text_2">
      <!-- −60000 -->
      <defs>
       <path d="M 33.015625 40.375 
Q 26.375 40.375 22.484375 35.828125 
Q 18.609375 31.296875 18.609375 23.390625 
Q 18.609375 15.53125 22.484375 10.953125 
Q 26.375 6.390625 33.015625 6.390625 
Q 39.65625 6.390625 43.53125 10.953125 
Q 47.40625 15.53125 47.40625 23.390625 
Q 47.40625 31.296875 43.53125 35.828125 
Q 39.65625 40.375 33.015625 40.375 
M 52.59375 71.296875 
L 52.59375 62.3125 
Q 48.875 64.0625 45.09375 64.984375 
Q 41.3125 65.921875 37.59375 65.921875 
Q 27.828125 65.921875 22.671875 59.328125 
Q 17.53125 52.734375 16.796875 39.40625 
Q 19.671875 43.65625 24.015625 45.921875 
Q 28.375 48.1875 33.59375 48.1875 
Q 44.578125 48.1875 50.953125 41.515625 
Q 57.328125 34.859375 57.328125 23.390625 
Q 57.328125 12.15625 50.6875 5.359375 
Q 44.046875 -1.421875 33.015625 -1.421875 
Q 20.359375 -1.421875 13.671875 8.265625 
Q 6.984375 17.96875 6.984375 36.375 
Q 6.984375 53.65625 15.1875 63.9375 
Q 23.390625 74.21875 37.203125 74.21875 
Q 40.921875 74.21875 44.703125 73.484375 
Q 48.484375 72.75 52.59375 71.296875 
" id="DejaVuSans-36"/>
      </defs>
      <g transform="translate(84.234531 303.028562)scale(0.1 -0.1)">
       <use xlink:href="#DejaVuSans-2212"/>
       <use x="83.789062" xlink:href="#DejaVuSans-36"/>
       <use x="147.412109" xlink:href="#DejaVuSans-30"/>
       <use x="211.035156" xlink:href="#DejaVuSans-30"/>
       <use x="274.658203" xlink:href="#DejaVuSans-30"/>
       <use x="338.28125" xlink:href="#DejaVuSans-30"/>
      </g>
     </g>
    </g>
    <g id="xtick_3">
     <g id="line2d_5">
      <path clip-path="url(#pf46e814707)" d="M 148.970625 288.430125 
L 148.970625 22.318125 
" style="fill:none;stroke:#b0b0b0;stroke-linecap:square;stroke-width:0.8;"/>
     </g>
     <g id="line2d_6">
      <g>
       <use style="stroke:#000000;stroke-width:0.8;" x="148.970625" xlink:href="#m310e0af1c8" y="288.430125"/>
      </g>
     </g>
     <g id="text_3">
      <!-- −40000 -->
      <defs>
       <path d="M 37.796875 64.3125 
L 12.890625 25.390625 
L 37.796875 25.390625 
z
M 35.203125 72.90625 
L 47.609375 72.90625 
L 47.609375 25.390625 
L 58.015625 25.390625 
L 58.015625 17.1875 
L 47.609375 17.1875 
L 47.609375 0 
L 37.796875 0 
L 37.796875 17.1875 
L 4.890625 17.1875 
L 4.890625 26.703125 
z
" id="DejaVuSans-34"/>
      </defs>
      <g transform="translate(128.874531 303.028562)scale(0.1 -0.1)">
       <use xlink:href="#DejaVuSans-2212"/>
       <use x="83.789062" xlink:href="#DejaVuSans-34"/>
       <use x="147.412109" xlink:href="#DejaVuSans-30"/>
       <use x="211.035156" xlink:href="#DejaVuSans-30"/>
       <use x="274.658203" xlink:href="#DejaVuSans-30"/>
       <use x="338.28125" xlink:href="#DejaVuSans-30"/>
      </g>
     </g>
    </g>
    <g id="xtick_4">
     <g id="line2d_7">
      <path clip-path="url(#pf46e814707)" d="M 193.610625 288.430125 
L 193.610625 22.318125 
" style="fill:none;stroke:#b0b0b0;stroke-linecap:square;stroke-width:0.8;"/>
     </g>
     <g id="line2d_8">
      <g>
       <use style="stroke:#000000;stroke-width:0.8;" x="193.610625" xlink:href="#m310e0af1c8" y="288.430125"/>
      </g>
     </g>
     <g id="text_4">
      <!-- −20000 -->
      <defs>
       <path d="M 19.1875 8.296875 
L 53.609375 8.296875 
L 53.609375 0 
L 7.328125 0 
L 7.328125 8.296875 
Q 12.9375 14.109375 22.625 23.890625 
Q 32.328125 33.6875 34.8125 36.53125 
Q 39.546875 41.84375 41.421875 45.53125 
Q 43.3125 49.21875 43.3125 52.78125 
Q 43.3125 58.59375 39.234375 62.25 
Q 35.15625 65.921875 28.609375 65.921875 
Q 23.96875 65.921875 18.8125 64.3125 
Q 13.671875 62.703125 7.8125 59.421875 
L 7.8125 69.390625 
Q 13.765625 71.78125 18.9375 73 
Q 24.125 74.21875 28.421875 74.21875 
Q 39.75 74.21875 46.484375 68.546875 
Q 53.21875 62.890625 53.21875 53.421875 
Q 53.21875 48.921875 51.53125 44.890625 
Q 49.859375 40.875 45.40625 35.40625 
Q 44.1875 33.984375 37.640625 27.21875 
Q 31.109375 20.453125 19.1875 8.296875 
" id="DejaVuSans-32"/>
      </defs>
      <g transform="translate(173.514531 303.028562)scale(0.1 -0.1)">
       <use xlink:href="#DejaVuSans-2212"/>
       <use x="83.789062" xlink:href="#DejaVuSans-32"/>
       <use x="147.412109" xlink:href="#DejaVuSans-30"/>
       <use x="211.035156" xlink:href="#DejaVuSans-30"/>
       <use x="274.658203" xlink:href="#DejaVuSans-30"/>
       <use x="338.28125" xlink:href="#DejaVuSans-30"/>
      </g>
     </g>
    </g>
    <g id="xtick_5">
     <g id="line2d_9">
      <path clip-path="url(#pf46e814707)" d="M 238.250625 288.430125 
L 238.250625 22.318125 
" style="fill:none;stroke:#b0b0b0;stroke-linecap:square;stroke-width:0.8;"/>
     </g>
     <g id="line2d_10">
      <g>
       <use style="stroke:#000000;stroke-width:0.8;" x="238.250625" xlink:href="#m310e0af1c8" y="288.430125"/>
      </g>
     </g>
     <g id="text_5">
      <!-- 0 -->
      <g transform="translate(235.069375 303.028562)scale(0.1 -0.1)">
       <use xlink:href="#DejaVuSans-30"/>
      </g>
     </g>
    </g>
    <g id="xtick_6">
     <g id="line2d_11">
      <path clip-path="url(#pf46e814707)" d="M 282.890625 288.430125 
L 282.890625 22.318125 
" style="fill:none;stroke:#b0b0b0;stroke-linecap:square;stroke-width:0.8;"/>
     </g>
     <g id="line2d_12">
      <g>
       <use style="stroke:#000000;stroke-width:0.8;" x="282.890625" xlink:href="#m310e0af1c8" y="288.430125"/>
      </g>
     </g>
     <g id="text_6">
      <!-- 20000 -->
      <g transform="translate(266.984375 303.028562)scale(0.1 -0.1)">
       <use xlink:href="#DejaVuSans-32"/>
       <use x="63.623047" xlink:href="#DejaVuSans-30"/>
       <use x="127.246094" xlink:href="#DejaVuSans-30"/>
       <use x="190.869141" xlink:href="#DejaVuSans-30"/>
       <use x="254.492188" xlink:href="#DejaVuSans-30"/>
      </g>
     </g>
    </g>
    <g id="xtick_7">
     <g id="line2d_13">
      <path clip-path="url(#pf46e814707)" d="M 327.530625 288.430125 
L 327.530625 22.318125 
" style="fill:none;stroke:#b0b0b0;stroke-linecap:square;stroke-width:0.8;"/>
     </g>
     <g id="line2d_14">
      <g>
       <use style="stroke:#000000;stroke-width:0.8;" x="327.530625" xlink:href="#m310e0af1c8" y="288.430125"/>
      </g>
     </g>
     <g id="text_7">
      <!-- 40000 -->
      <g transform="translate(311.624375 303.028562)scale(0.1 -0.1)">
       <use xlink:href="#DejaVuSans-34"/>
       <use x="63.623047" xlink:href="#DejaVuSans-30"/>
       <use x="127.246094" xlink:href="#DejaVuSans-30"/>
       <use x="190.869141" xlink:href="#DejaVuSans-30"/>
       <use x="254.492188" xlink:href="#DejaVuSans-30"/>
      </g>
     </g>
    </g>
    <g id="xtick_8">
     <g id="line2d_15">
      <path clip-path="url(#pf46e814707)" d="M 372.170625 288.430125 
L 372.170625 22.318125 
" style="fill:none;stroke:#b0b0b0;stroke-linecap:square;stroke-width:0.8;"/>
     </g>
     <g id="line2d_16">
      <g>
       <use style="stroke:#000000;stroke-width:0.8;" x="372.170625" xlink:href="#m310e0af1c8" y="288.430125"/>
      </g>
     </g>
     <g id="text_8">
      <!-- 60000 -->
      <g transform="translate(356.264375 303.028562)scale(0.1 -0.1)">
       <use xlink:href="#DejaVuSans-36"/>
       <use x="63.623047" xlink:href="#DejaVuSans-30"/>
       <use x="127.246094" xlink:href="#DejaVuSans-30"/>
       <use x="190.869141" xlink:href="#DejaVuSans-30"/>
       <use x="254.492188" xlink:href="#DejaVuSans-30"/>
      </g>
     </g>
    </g>
    <g id="xtick_9">
     <g id="line2d_17">
      <path clip-path="url(#pf46e814707)" d="M 416.810625 288.430125 
L 416.810625 22.318125 
" style="fill:none;stroke:#b0b0b0;stroke-linecap:square;stroke-width:0.8;"/>
     </g>
     <g id="line2d_18">
      <g>
       <use style="stroke:#000000;stroke-width:0.8;" x="416.810625" xlink:href="#m310e0af1c8" y="288.430125"/>
      </g>
     </g>
     <g id="text_9">
      <!-- 80000 -->
      <g transform="translate(400.904375 303.028562)scale(0.1 -0.1)">
       <use xlink:href="#DejaVuSans-38"/>
       <use x="63.623047" xlink:href="#DejaVuSans-30"/>
       <use x="127.246094" xlink:href="#DejaVuSans-30"/>
       <use x="190.869141" xlink:href="#DejaVuSans-30"/>
       <use x="254.492188" xlink:href="#DejaVuSans-30"/>
      </g>
     </g>
    </g>
    <g id="text_10">
     <!-- Frequenz [kHz] -->
     <defs>
      <path d="M 9.8125 72.90625 
L 51.703125 72.90625 
L 51.703125 64.59375 
L 19.671875 64.59375 
L 19.671875 43.109375 
L 48.578125 43.109375 
L 48.578125 34.8125 
L 19.671875 34.8125 
L 19.671875 0 
L 9.8125 0 
z
" id="DejaVuSans-46"/>
      <path d="M 41.109375 46.296875 
Q 39.59375 47.171875 37.8125 47.578125 
Q 36.03125 48 33.890625 48 
Q 26.265625 48 22.1875 43.046875 
Q 18.109375 38.09375 18.109375 28.8125 
L 18.109375 0 
L 9.078125 0 
L 9.078125 54.6875 
L 18.109375 54.6875 
L 18.109375 46.1875 
Q 20.953125 51.171875 25.484375 53.578125 
Q 30.03125 56 36.53125 56 
Q 37.453125 56 38.578125 55.875 
Q 39.703125 55.765625 41.0625 55.515625 
z
" id="DejaVuSans-72"/>
      <path d="M 56.203125 29.59375 
L 56.203125 25.203125 
L 14.890625 25.203125 
Q 15.484375 15.921875 20.484375 11.0625 
Q 25.484375 6.203125 34.421875 6.203125 
Q 39.59375 6.203125 44.453125 7.46875 
Q 49.3125 8.734375 54.109375 11.28125 
L 54.109375 2.78125 
Q 49.265625 0.734375 44.1875 -0.34375 
Q 39.109375 -1.421875 33.890625 -1.421875 
Q 20.796875 -1.421875 13.15625 6.1875 
Q 5.515625 13.8125 5.515625 26.8125 
Q 5.515625 40.234375 12.765625 48.109375 
Q 20.015625 56 32.328125 56 
Q 43.359375 56 49.78125 48.890625 
Q 56.203125 41.796875 56.203125 29.59375 
M 47.21875 32.234375 
Q 47.125 39.59375 43.09375 43.984375 
Q 39.0625 48.390625 32.421875 48.390625 
Q 24.90625 48.390625 20.390625 44.140625 
Q 15.875 39.890625 15.1875 32.171875 
z
" id="DejaVuSans-65"/>
      <path d="M 14.796875 27.296875 
Q 14.796875 17.390625 18.875 11.75 
Q 22.953125 6.109375 30.078125 6.109375 
Q 37.203125 6.109375 41.296875 11.75 
Q 45.40625 17.390625 45.40625 27.296875 
Q 45.40625 37.203125 41.296875 42.84375 
Q 37.203125 48.484375 30.078125 48.484375 
Q 22.953125 48.484375 18.875 42.84375 
Q 14.796875 37.203125 14.796875 27.296875 
M 45.40625 8.203125 
Q 42.578125 3.328125 38.25 0.953125 
Q 33.9375 -1.421875 27.875 -1.421875 
Q 17.96875 -1.421875 11.734375 6.484375 
Q 5.515625 14.40625 5.515625 27.296875 
Q 5.515625 40.1875 11.734375 48.09375 
Q 17.96875 56 27.875 56 
Q 33.9375 56 38.25 53.625 
Q 42.578125 51.265625 45.40625 46.390625 
L 45.40625 54.6875 
L 54.390625 54.6875 
L 54.390625 -20.796875 
L 45.40625 -20.796875 
z
" id="DejaVuSans-71"/>
      <path d="M 8.5 21.578125 
L 8.5 54.6875 
L 17.484375 54.6875 
L 17.484375 21.921875 
Q 17.484375 14.15625 20.5 10.265625 
Q 23.53125 6.390625 29.59375 6.390625 
Q 36.859375 6.390625 41.078125 11.03125 
Q 45.3125 15.671875 45.3125 23.6875 
L 45.3125 54.6875 
L 54.296875 54.6875 
L 54.296875 0 
L 45.3125 0 
L 45.3125 8.40625 
Q 42.046875 3.421875 37.71875 1 
Q 33.40625 -1.421875 27.6875 -1.421875 
Q 18.265625 -1.421875 13.375 4.4375 
Q 8.5 10.296875 8.5 21.578125 
M 31.109375 56 
z
" id="DejaVuSans-75"/>
      <path d="M 54.890625 33.015625 
L 54.890625 0 
L 45.90625 0 
L 45.90625 32.71875 
Q 45.90625 40.484375 42.875 44.328125 
Q 39.84375 48.1875 33.796875 48.1875 
Q 26.515625 48.1875 22.3125 43.546875 
Q 18.109375 38.921875 18.109375 30.90625 
L 18.109375 0 
L 9.078125 0 
L 9.078125 54.6875 
L 18.109375 54.6875 
L 18.109375 46.1875 
Q 21.34375 51.125 25.703125 53.5625 
Q 30.078125 56 35.796875 56 
Q 45.21875 56 50.046875 50.171875 
Q 54.890625 44.34375 54.890625 33.015625 
" id="DejaVuSans-6e"/>
      <path d="M 5.515625 54.6875 
L 48.1875 54.6875 
L 48.1875 46.484375 
L 14.40625 7.171875 
L 48.1875 7.171875 
L 48.1875 0 
L 4.296875 0 
L 4.296875 8.203125 
L 38.09375 47.515625 
L 5.515625 47.515625 
z
" id="DejaVuSans-7a"/>
      <path id="DejaVuSans-20"/>
      <path d="M 8.59375 75.984375 
L 29.296875 75.984375 
L 29.296875 69 
L 17.578125 69 
L 17.578125 -6.203125 
L 29.296875 -6.203125 
L 29.296875 -13.1875 
L 8.59375 -13.1875 
z
" id="DejaVuSans-5b"/>
      <path d="M 9.078125 75.984375 
L 18.109375 75.984375 
L 18.109375 31.109375 
L 44.921875 54.6875 
L 56.390625 54.6875 
L 27.390625 29.109375 
L 57.625 0 
L 45.90625 0 
L 18.109375 26.703125 
L 18.109375 0 
L 9.078125 0 
z
" id="DejaVuSans-6b"/>
      <path d="M 9.8125 72.90625 
L 19.671875 72.90625 
L 19.671875 43.015625 
L 55.515625 43.015625 
L 55.515625 72.90625 
L 65.375 72.90625 
L 65.375 0 
L 55.515625 0 
L 55.515625 34.71875 
L 19.671875 34.71875 
L 19.671875 0 
L 9.8125 0 
z
" id="DejaVuSans-48"/>
      <path d="M 30.421875 75.984375 
L 30.421875 -13.1875 
L 9.71875 -13.1875 
L 9.71875 -6.203125 
L 21.390625 -6.203125 
L 21.390625 69 
L 9.71875 69 
L 9.71875 75.984375 
z
" id="DejaVuSans-5d"/>
     </defs>
     <g transform="translate(200.267031 316.706687)scale(0.1 -0.1)">
      <use xlink:href="#DejaVuSans-46"/>
      <use x="57.410156" xlink:href="#DejaVuSans-72"/>
      <use x="98.492188" xlink:href="#DejaVuSans-65"/>
      <use x="160.015625" xlink:href="#DejaVuSans-71"/>
      <use x="223.492188" xlink:href="#DejaVuSans-75"/>
      <use x="286.871094" xlink:href="#DejaVuSans-65"/>
      <use x="348.394531" xlink:href="#DejaVuSans-6e"/>
      <use x="411.773438" xlink:href="#DejaVuSans-7a"/>
      <use x="464.263672" xlink:href="#DejaVuSans-20"/>
      <use x="496.050781" xlink:href="#DejaVuSans-5b"/>
      <use x="535.064453" xlink:href="#DejaVuSans-6b"/>
      <use x="592.974609" xlink:href="#DejaVuSans-48"/>
      <use x="668.169922" xlink:href="#DejaVuSans-7a"/>
      <use x="720.660156" xlink:href="#DejaVuSans-5d"/>
     </g>
    </g>
   </g>
   <g id="matplotlib.axis_2">
    <g id="ytick_1">
     <g id="line2d_19">
      <path clip-path="url(#pf46e814707)" d="M 59.690625 272.350202 
L 416.810625 272.350202 
" style="fill:none;stroke:#b0b0b0;stroke-linecap:square;stroke-width:0.8;"/>
     </g>
     <g id="line2d_20">
      <defs>
       <path d="M 0 0 
L -3.5 0 
" id="m4c6c6ce118" style="stroke:#000000;stroke-width:0.8;"/>
      </defs>
      <g>
       <use style="stroke:#000000;stroke-width:0.8;" x="59.690625" xlink:href="#m4c6c6ce118" y="272.350202"/>
      </g>
     </g>
     <g id="text_11">
      <!-- 0 -->
      <g transform="translate(46.328125 276.149421)scale(0.1 -0.1)">
       <use xlink:href="#DejaVuSans-30"/>
      </g>
     </g>
    </g>
    <g id="ytick_2">
     <g id="line2d_21">
      <path clip-path="url(#pf46e814707)" d="M 59.690625 222.188731 
L 416.810625 222.188731 
" style="fill:none;stroke:#b0b0b0;stroke-linecap:square;stroke-width:0.8;"/>
     </g>
     <g id="line2d_22">
      <g>
       <use style="stroke:#000000;stroke-width:0.8;" x="59.690625" xlink:href="#m4c6c6ce118" y="222.188731"/>
      </g>
     </g>
     <g id="text_12">
      <!-- 10000 -->
      <defs>
       <path d="M 12.40625 8.296875 
L 28.515625 8.296875 
L 28.515625 63.921875 
L 10.984375 60.40625 
L 10.984375 69.390625 
L 28.421875 72.90625 
L 38.28125 72.90625 
L 38.28125 8.296875 
L 54.390625 8.296875 
L 54.390625 0 
L 12.40625 0 
z
" id="DejaVuSans-31"/>
      </defs>
      <g transform="translate(20.878125 225.98795)scale(0.1 -0.1)">
       <use xlink:href="#DejaVuSans-31"/>
       <use x="63.623047" xlink:href="#DejaVuSans-30"/>
       <use x="127.246094" xlink:href="#DejaVuSans-30"/>
       <use x="190.869141" xlink:href="#DejaVuSans-30"/>
       <use x="254.492188" xlink:href="#DejaVuSans-30"/>
      </g>
     </g>
    </g>
    <g id="ytick_3">
     <g id="line2d_23">
      <path clip-path="url(#pf46e814707)" d="M 59.690625 172.02726 
L 416.810625 172.02726 
" style="fill:none;stroke:#b0b0b0;stroke-linecap:square;stroke-width:0.8;"/>
     </g>
     <g id="line2d_24">
      <g>
       <use style="stroke:#000000;stroke-width:0.8;" x="59.690625" xlink:href="#m4c6c6ce118" y="172.02726"/>
      </g>
     </g>
     <g id="text_13">
      <!-- 20000 -->
      <g transform="translate(20.878125 175.826479)scale(0.1 -0.1)">
       <use xlink:href="#DejaVuSans-32"/>
       <use x="63.623047" xlink:href="#DejaVuSans-30"/>
       <use x="127.246094" xlink:href="#DejaVuSans-30"/>
       <use x="190.869141" xlink:href="#DejaVuSans-30"/>
       <use x="254.492188" xlink:href="#DejaVuSans-30"/>
      </g>
     </g>
    </g>
    <g id="ytick_4">
     <g id="line2d_25">
      <path clip-path="url(#pf46e814707)" d="M 59.690625 121.865789 
L 416.810625 121.865789 
" style="fill:none;stroke:#b0b0b0;stroke-linecap:square;stroke-width:0.8;"/>
     </g>
     <g id="line2d_26">
      <g>
       <use style="stroke:#000000;stroke-width:0.8;" x="59.690625" xlink:href="#m4c6c6ce118" y="121.865789"/>
      </g>
     </g>
     <g id="text_14">
      <!-- 30000 -->
      <defs>
       <path d="M 40.578125 39.3125 
Q 47.65625 37.796875 51.625 33 
Q 55.609375 28.21875 55.609375 21.1875 
Q 55.609375 10.40625 48.1875 4.484375 
Q 40.765625 -1.421875 27.09375 -1.421875 
Q 22.515625 -1.421875 17.65625 -0.515625 
Q 12.796875 0.390625 7.625 2.203125 
L 7.625 11.71875 
Q 11.71875 9.328125 16.59375 8.109375 
Q 21.484375 6.890625 26.8125 6.890625 
Q 36.078125 6.890625 40.9375 10.546875 
Q 45.796875 14.203125 45.796875 21.1875 
Q 45.796875 27.640625 41.28125 31.265625 
Q 36.765625 34.90625 28.71875 34.90625 
L 20.21875 34.90625 
L 20.21875 43.015625 
L 29.109375 43.015625 
Q 36.375 43.015625 40.234375 45.921875 
Q 44.09375 48.828125 44.09375 54.296875 
Q 44.09375 59.90625 40.109375 62.90625 
Q 36.140625 65.921875 28.71875 65.921875 
Q 24.65625 65.921875 20.015625 65.03125 
Q 15.375 64.15625 9.8125 62.3125 
L 9.8125 71.09375 
Q 15.4375 72.65625 20.34375 73.4375 
Q 25.25 74.21875 29.59375 74.21875 
Q 40.828125 74.21875 47.359375 69.109375 
Q 53.90625 64.015625 53.90625 55.328125 
Q 53.90625 49.265625 50.4375 45.09375 
Q 46.96875 40.921875 40.578125 39.3125 
" id="DejaVuSans-33"/>
      </defs>
      <g transform="translate(20.878125 125.665008)scale(0.1 -0.1)">
       <use xlink:href="#DejaVuSans-33"/>
       <use x="63.623047" xlink:href="#DejaVuSans-30"/>
       <use x="127.246094" xlink:href="#DejaVuSans-30"/>
       <use x="190.869141" xlink:href="#DejaVuSans-30"/>
       <use x="254.492188" xlink:href="#DejaVuSans-30"/>
      </g>
     </g>
    </g>
    <g id="ytick_5">
     <g id="line2d_27">
      <path clip-path="url(#pf46e814707)" d="M 59.690625 71.704318 
L 416.810625 71.704318 
" style="fill:none;stroke:#b0b0b0;stroke-linecap:square;stroke-width:0.8;"/>
     </g>
     <g id="line2d_28">
      <g>
       <use style="stroke:#000000;stroke-width:0.8;" x="59.690625" xlink:href="#m4c6c6ce118" y="71.704318"/>
      </g>
     </g>
     <g id="text_15">
      <!-- 40000 -->
      <g transform="translate(20.878125 75.503537)scale(0.1 -0.1)">
       <use xlink:href="#DejaVuSans-34"/>
       <use x="63.623047" xlink:href="#DejaVuSans-30"/>
       <use x="127.246094" xlink:href="#DejaVuSans-30"/>
       <use x="190.869141" xlink:href="#DejaVuSans-30"/>
       <use x="254.492188" xlink:href="#DejaVuSans-30"/>
      </g>
     </g>
    </g>
    <g id="text_16">
     <!-- u.a. -->
     <defs>
      <path d="M 10.6875 12.40625 
L 21 12.40625 
L 21 0 
L 10.6875 0 
z
" id="DejaVuSans-2e"/>
      <path d="M 34.28125 27.484375 
Q 23.390625 27.484375 19.1875 25 
Q 14.984375 22.515625 14.984375 16.5 
Q 14.984375 11.71875 18.140625 8.90625 
Q 21.296875 6.109375 26.703125 6.109375 
Q 34.1875 6.109375 38.703125 11.40625 
Q 43.21875 16.703125 43.21875 25.484375 
L 43.21875 27.484375 
z
M 52.203125 31.203125 
L 52.203125 0 
L 43.21875 0 
L 43.21875 8.296875 
Q 40.140625 3.328125 35.546875 0.953125 
Q 30.953125 -1.421875 24.3125 -1.421875 
Q 15.921875 -1.421875 10.953125 3.296875 
Q 6 8.015625 6 15.921875 
Q 6 25.140625 12.171875 29.828125 
Q 18.359375 34.515625 30.609375 34.515625 
L 43.21875 34.515625 
L 43.21875 35.40625 
Q 43.21875 41.609375 39.140625 45 
Q 35.0625 48.390625 27.6875 48.390625 
Q 23 48.390625 18.546875 47.265625 
Q 14.109375 46.140625 10.015625 43.890625 
L 10.015625 52.203125 
Q 14.9375 54.109375 19.578125 55.046875 
Q 24.21875 56 28.609375 56 
Q 40.484375 56 46.34375 49.84375 
Q 52.203125 43.703125 52.203125 31.203125 
" id="DejaVuSans-61"/>
     </defs>
     <g transform="translate(14.798438 164.785062)rotate(-90)scale(0.1 -0.1)">
      <use xlink:href="#DejaVuSans-75"/>
      <use x="63.378906" xlink:href="#DejaVuSans-2e"/>
      <use x="95.166016" xlink:href="#DejaVuSans-61"/>
      <use x="156.445312" xlink:href="#DejaVuSans-2e"/>
     </g>
    </g>
   </g>
   <g id="line2d_29">
    <path clip-path="url(#pf46e814707)" d="M 59.51625 262.706761 
L 60.061172 262.287265 
L 60.606094 262.078698 
L 61.151016 262.173913 
L 62.240859 262.806384 
L 62.785781 262.911435 
L 65.510391 262.328528 
L 66.600234 261.742195 
L 67.145156 261.638145 
L 68.779922 261.813176 
L 69.869766 261.512055 
L 72.594375 260.36632 
L 73.139297 260.29628 
L 73.684219 260.42206 
L 75.318984 261.368167 
L 75.863906 261.274184 
L 76.408828 260.834611 
L 77.498672 259.621186 
L 78.043594 259.211752 
L 78.588516 259.008115 
L 80.768203 258.713289 
L 82.402969 258.043118 
L 83.492813 257.205401 
L 87.307266 254.03665 
L 87.852188 253.733634 
L 89.486953 253.320255 
L 90.031875 252.967069 
L 91.666641 251.286217 
L 92.211563 251.030464 
L 92.756484 251.023757 
L 93.846328 251.175724 
L 94.39125 250.934711 
L 96.026016 249.495021 
L 97.115859 249.315356 
L 97.660781 249.226426 
L 98.750625 248.664723 
L 99.840469 247.761141 
L 100.930313 246.53704 
L 102.020156 245.211955 
L 102.565078 244.801958 
L 103.11 244.668324 
L 104.199844 244.651614 
L 104.744766 244.350263 
L 105.834609 243.14983 
L 106.924453 242.01019 
L 107.469375 241.644192 
L 108.014297 241.458544 
L 109.649063 241.343288 
L 112.918594 239.979059 
L 113.463516 239.62397 
L 114.008438 239.058351 
L 115.098281 237.291551 
L 116.188125 235.596525 
L 116.733047 235.134515 
L 118.367813 234.415001 
L 119.457656 233.260176 
L 120.5475 232.167159 
L 122.727188 230.790296 
L 124.906875 228.167625 
L 125.996719 227.182708 
L 127.631484 225.174187 
L 128.721328 223.865734 
L 129.26625 223.386026 
L 130.356094 222.907944 
L 130.901016 222.704698 
L 131.445938 222.329035 
L 132.535781 220.978961 
L 134.170547 218.782833 
L 136.895156 215.793638 
L 139.619766 212.950065 
L 140.709609 211.360098 
L 142.889297 207.871677 
L 145.068984 205.527605 
L 146.70375 202.825352 
L 147.248672 202.168592 
L 148.338516 201.385325 
L 149.428359 200.765618 
L 149.973281 200.190985 
L 151.063125 198.28236 
L 152.152969 196.152738 
L 154.332656 192.72972 
L 155.4225 191.266309 
L 157.602188 189.049027 
L 158.692031 187.390312 
L 159.781875 185.648279 
L 161.961563 182.5933 
L 163.596328 180.359106 
L 164.686172 178.6794 
L 167.410781 173.708535 
L 169.045547 171.255292 
L 170.135391 169.062544 
L 172.86 162.778401 
L 173.949844 160.962916 
L 176.129531 157.636263 
L 178.309219 154.171182 
L 181.57875 148.304139 
L 182.668594 145.56805 
L 183.758438 142.799588 
L 184.848281 140.925711 
L 185.938125 139.117506 
L 187.572891 135.552142 
L 189.207656 131.796828 
L 190.2975 129.87893 
L 191.387344 127.946885 
L 192.477188 125.315841 
L 194.111953 121.009425 
L 195.201797 118.764404 
L 196.291641 116.653869 
L 199.01625 110.707249 
L 201.195938 106.305706 
L 202.285781 103.845124 
L 206.100234 93.963909 
L 207.190078 91.606213 
L 208.279922 88.716817 
L 211.004531 80.637729 
L 212.094375 78.352167 
L 213.184219 76.43529 
L 213.729141 75.074403 
L 216.45375 66.381435 
L 218.633438 60.685971 
L 220.268203 56.593382 
L 221.902969 52.637645 
L 224.082656 46.970731 
L 227.352188 38.914914 
L 227.897109 38.173758 
L 228.986953 37.238001 
L 230.621719 36.130413 
L 232.256484 34.489859 
L 232.801406 34.414125 
L 233.346328 34.709373 
L 234.436172 35.974985 
L 235.526016 37.30597 
L 236.615859 38.141065 
L 237.160781 39.126163 
L 237.705703 41.340062 
L 238.250625 45.040084 
L 239.885391 58.601641 
L 240.430313 61.645237 
L 241.520156 65.98165 
L 245.879531 82.728435 
L 249.149063 97.300032 
L 251.873672 107.12136 
L 254.053359 113.767413 
L 256.777969 123.361144 
L 258.957656 130.151902 
L 261.682266 139.885367 
L 262.772109 142.384113 
L 263.861953 144.747991 
L 264.951797 147.654024 
L 266.586563 152.897882 
L 267.676406 156.276399 
L 268.76625 158.898709 
L 270.401016 162.45959 
L 272.580703 168.432397 
L 274.760391 174.186767 
L 275.850234 176.501507 
L 277.485 179.816509 
L 281.299453 188.731322 
L 282.389297 190.442187 
L 282.934219 191.224535 
L 284.024063 193.392852 
L 285.658828 196.991745 
L 287.293594 199.798909 
L 288.383438 201.556643 
L 289.473281 203.816573 
L 290.563125 206.048315 
L 291.652969 207.48875 
L 293.287734 209.1942 
L 294.377578 210.762295 
L 295.467422 212.875857 
L 296.557266 214.9459 
L 297.102188 215.561775 
L 298.736953 216.623561 
L 299.281875 217.239819 
L 300.371719 218.910992 
L 301.461563 220.942897 
L 303.096328 224.076839 
L 304.186172 225.63987 
L 305.276016 226.863137 
L 305.820938 227.258979 
L 306.365859 227.465148 
L 307.455703 227.610821 
L 308.000625 227.847663 
L 308.545547 228.29717 
L 309.635391 229.556389 
L 310.725234 231.120645 
L 312.36 233.656004 
L 315.629531 237.808919 
L 316.719375 238.928688 
L 317.264297 239.27901 
L 319.443984 240.003586 
L 322.713516 242.49827 
L 325.438125 245.848174 
L 326.527969 247.363588 
L 327.072891 247.907282 
L 327.617813 248.171007 
L 328.707656 248.354895 
L 329.252578 248.601584 
L 331.977188 250.351355 
L 333.067031 250.452201 
L 334.156875 250.541332 
L 334.701797 250.756167 
L 335.246719 251.120552 
L 336.336563 252.316998 
L 337.971328 254.537451 
L 338.51625 255.114253 
L 339.061172 255.489062 
L 339.606094 255.624452 
L 341.240859 255.553623 
L 341.785781 255.776122 
L 343.420547 256.857157 
L 343.965469 256.986821 
L 345.600234 256.9472 
L 346.145156 257.227802 
L 347.235 258.076951 
L 347.779922 258.283021 
L 348.324844 258.233232 
L 349.414688 257.920232 
L 349.959609 257.959086 
L 351.049453 258.412906 
L 352.684219 259.392905 
L 354.863906 260.979937 
L 355.408828 261.165021 
L 357.043594 261.246444 
L 359.223281 261.453192 
L 359.768203 261.604761 
L 360.313125 261.897166 
L 361.947891 263.223497 
L 362.492813 263.435572 
L 364.127578 263.469498 
L 365.762344 264.011424 
L 367.397109 264.095851 
L 369.031875 264.47584 
L 370.666641 264.367046 
L 371.211563 264.592437 
L 372.301406 265.523814 
L 372.846328 266.031028 
L 373.39125 266.370741 
L 373.936172 266.454215 
L 376.115859 265.990157 
L 376.660781 266.17394 
L 378.295547 267.171117 
L 378.840469 267.279283 
L 379.930313 267.106679 
L 382.11 266.559733 
L 382.654922 266.658889 
L 383.199844 266.964579 
L 384.289688 267.805023 
L 384.834609 268.019606 
L 385.379531 267.990422 
L 386.469375 267.813549 
L 388.104141 268.43712 
L 388.649063 268.26638 
L 389.738906 267.487261 
L 390.283828 267.303895 
L 390.82875 267.365131 
L 392.463516 268.156219 
L 393.008438 268.174574 
L 394.643203 267.642533 
L 396.822891 267.522262 
L 397.367813 267.590596 
L 397.912734 267.793034 
L 399.002578 268.562974 
L 400.092422 269.428398 
L 401.182266 269.971035 
L 403.361953 270.610814 
L 406.086563 271.177812 
L 407.176406 271.139828 
L 408.26625 271.069103 
L 409.901016 271.121747 
L 412.625625 270.475936 
L 415.350234 270.61314 
L 416.440078 270.880908 
L 416.985 270.888407 
L 416.985 270.888407 
" style="fill:none;stroke:#1f77b4;stroke-linecap:square;stroke-width:1.5;"/>
   </g>
   <g id="line2d_30">
    <path clip-path="url(#pf46e814707)" d="M 59.51625 266.553752 
L 60.061172 266.840916 
L 60.606094 266.98793 
L 61.151016 266.890193 
L 62.240859 266.125916 
L 63.330703 265.371131 
L 63.875625 265.137476 
L 64.420547 265.065055 
L 64.965469 265.203915 
L 66.055313 265.722104 
L 66.600234 265.693189 
L 67.145156 265.328224 
L 68.779922 263.639555 
L 69.324844 263.509763 
L 70.959609 263.92753 
L 71.504531 263.791113 
L 72.049453 263.461398 
L 73.684219 262.01983 
L 74.229141 261.80953 
L 75.318984 261.972489 
L 75.863906 262.035696 
L 76.408828 261.935941 
L 81.313125 259.738299 
L 83.492813 258.752165 
L 84.037734 258.584343 
L 84.582656 258.575465 
L 86.217422 259.092446 
L 86.762344 259.057573 
L 88.942031 258.39133 
L 90.031875 257.837041 
L 90.576797 257.423421 
L 92.211563 255.654553 
L 92.756484 255.430778 
L 93.301406 255.579709 
L 94.39125 256.2773 
L 94.936172 256.421857 
L 95.481094 256.342504 
L 96.570938 255.727027 
L 98.750625 253.942935 
L 99.840469 253.086698 
L 101.475234 252.172316 
L 102.020156 251.994201 
L 102.565078 252.090157 
L 104.199844 253.208558 
L 104.744766 253.109668 
L 105.289688 252.696178 
L 107.469375 250.559582 
L 108.559219 249.91784 
L 110.193984 249.407015 
L 111.283828 248.698958 
L 112.918594 247.467989 
L 115.643203 245.908277 
L 116.188125 245.509423 
L 116.733047 245.263773 
L 118.367813 245.083348 
L 119.457656 244.507127 
L 121.637344 243.075019 
L 123.817031 241.988623 
L 124.361953 241.449019 
L 125.451797 239.732654 
L 125.996719 238.883566 
L 126.541641 238.304393 
L 127.086563 238.030398 
L 128.176406 237.781561 
L 130.356094 236.724741 
L 131.445938 236.50813 
L 131.990859 236.113924 
L 133.080703 234.715257 
L 134.170547 233.135426 
L 135.260391 231.94634 
L 136.350234 231.106546 
L 137.440078 230.574455 
L 138.529922 230.072057 
L 139.619766 229.083072 
L 140.709609 227.999634 
L 142.344375 226.55206 
L 145.068984 223.447369 
L 147.248672 221.896711 
L 148.883438 220.231075 
L 149.973281 219.544481 
L 151.063125 218.864148 
L 152.152969 217.812473 
L 153.242813 216.36318 
L 154.877578 213.805875 
L 155.4225 213.162264 
L 157.602188 211.178707 
L 159.236953 208.953375 
L 159.781875 208.579984 
L 160.871719 208.109708 
L 161.961563 207.156455 
L 163.596328 205.257272 
L 164.686172 203.302946 
L 165.776016 201.109418 
L 166.865859 199.521072 
L 168.500625 197.628729 
L 170.135391 195.436054 
L 171.770156 193.698407 
L 173.949844 190.147424 
L 175.584609 188.304746 
L 180.488906 181.324798 
L 183.758438 175.915918 
L 184.848281 174.541741 
L 185.393203 173.634744 
L 186.483047 171.198135 
L 187.572891 168.797904 
L 188.117813 167.882723 
L 188.662734 167.188851 
L 189.752578 166.312713 
L 190.2975 165.893714 
L 190.842422 165.311456 
L 191.387344 164.521451 
L 192.477188 162.310945 
L 193.567031 159.721759 
L 194.111953 158.742025 
L 195.746719 156.741236 
L 197.381484 153.734507 
L 200.651016 147.933538 
L 202.830703 143.691603 
L 203.920547 141.698642 
L 205.010391 139.355915 
L 207.735 133.105828 
L 208.824844 131.234344 
L 209.914688 128.753733 
L 211.549453 124.553484 
L 213.184219 121.19678 
L 215.908828 115.839786 
L 217.543594 113.117042 
L 218.633438 110.57782 
L 223.537734 98.603288 
L 226.262344 92.310305 
L 227.352188 90.046315 
L 228.442031 88.263867 
L 229.531875 87.019963 
L 230.076797 86.654589 
L 230.621719 86.469144 
L 231.711563 86.402909 
L 233.346328 86.523127 
L 233.89125 86.637782 
L 234.436172 86.922168 
L 236.615859 89.008373 
L 237.160781 90.031126 
L 237.705703 92.109067 
L 238.250625 95.392675 
L 239.885391 106.981978 
L 240.975234 112.054684 
L 242.065078 115.568554 
L 243.154922 118.17266 
L 244.244766 120.507343 
L 245.334609 123.595993 
L 248.604141 134.317733 
L 252.418594 144.969399 
L 255.143203 152.267611 
L 256.777969 157.182648 
L 257.867813 159.748008 
L 259.502578 163.380187 
L 262.227188 170.43855 
L 263.317031 173.211259 
L 265.496719 178.19434 
L 266.586563 180.831662 
L 267.676406 182.485043 
L 268.221328 183.303357 
L 269.311172 185.675973 
L 270.401016 188.220741 
L 271.490859 190.179394 
L 272.580703 192.033197 
L 273.670547 194.349693 
L 275.850234 199.542625 
L 276.395156 200.415726 
L 276.940078 200.961978 
L 278.029922 201.654893 
L 278.574844 202.260816 
L 279.664688 204.299973 
L 280.754531 206.281535 
L 281.844375 207.556307 
L 282.934219 208.514834 
L 283.479141 209.176502 
L 284.024063 210.17351 
L 285.658828 214.062567 
L 287.293594 216.858645 
L 288.383438 218.440569 
L 290.018203 220.37392 
L 291.652969 222.629917 
L 296.012344 227.443439 
L 298.192031 230.627231 
L 299.281875 231.551912 
L 300.916641 232.769068 
L 303.096328 234.973232 
L 305.276016 237.139847 
L 306.365859 237.866584 
L 308.000625 238.609513 
L 309.090469 239.487115 
L 310.180313 240.865605 
L 311.270156 242.152684 
L 312.904922 243.511222 
L 315.084609 246.080727 
L 315.629531 246.478824 
L 316.174453 246.659816 
L 316.719375 246.597244 
L 317.809219 246.162933 
L 318.354141 246.1869 
L 318.899063 246.554154 
L 319.443984 247.246609 
L 321.07875 249.78186 
L 321.623672 250.3238 
L 322.713516 250.986776 
L 324.348281 251.940801 
L 325.438125 252.733305 
L 326.527969 253.619429 
L 327.617813 254.163974 
L 329.7975 254.861732 
L 330.887344 254.830053 
L 331.432266 254.967016 
L 332.522109 255.725021 
L 333.611953 256.490062 
L 335.246719 257.365895 
L 335.791641 257.53258 
L 336.336563 257.505203 
L 337.426406 257.164504 
L 337.971328 257.256616 
L 338.51625 257.635298 
L 341.240859 260.252471 
L 341.785781 260.606463 
L 342.330703 260.795933 
L 342.875625 260.814094 
L 343.965469 260.497606 
L 344.510391 260.319577 
L 345.055313 260.262412 
L 346.145156 260.575854 
L 348.324844 261.489734 
L 348.869766 261.878912 
L 349.959609 262.944358 
L 350.504531 263.296358 
L 351.049453 263.340059 
L 351.594375 263.112159 
L 352.684219 262.401335 
L 353.229141 262.190966 
L 353.774063 262.217168 
L 354.318984 262.535478 
L 354.863906 263.133842 
L 356.498672 265.290798 
L 357.043594 265.519214 
L 358.678359 265.155554 
L 359.223281 265.336163 
L 360.313125 266.045472 
L 360.858047 266.218862 
L 361.402969 266.137398 
L 362.492813 265.601049 
L 363.037734 265.472495 
L 363.582656 265.537549 
L 365.217422 266.156439 
L 365.762344 266.133656 
L 367.397109 265.571031 
L 367.942031 265.683075 
L 369.031875 266.515736 
L 369.576797 266.951111 
L 370.121719 267.18136 
L 370.666641 267.154299 
L 371.756484 266.884385 
L 372.301406 267.044679 
L 373.936172 268.152007 
L 374.481094 268.163616 
L 375.570938 267.738596 
L 376.660781 267.285222 
L 377.205703 267.173329 
L 377.750625 267.2216 
L 378.295547 267.472189 
L 379.930313 268.571423 
L 381.565078 269.169634 
L 382.11 269.437553 
L 382.654922 269.527951 
L 383.199844 269.349364 
L 384.289688 268.768753 
L 384.834609 268.748458 
L 386.469375 269.15597 
L 387.559219 269.021478 
L 388.649063 268.859875 
L 389.193984 268.924175 
L 390.82875 269.422124 
L 391.918594 269.251101 
L 392.463516 269.169544 
L 393.008438 269.255298 
L 394.643203 269.975281 
L 395.188125 270.027925 
L 396.277969 269.808373 
L 397.367813 269.628448 
L 398.457656 269.895365 
L 399.5475 270.188844 
L 401.727188 270.252285 
L 402.817031 270.458292 
L 403.361953 270.295917 
L 404.451797 269.719795 
L 404.996719 269.676435 
L 405.541641 269.865087 
L 407.176406 270.735461 
L 407.721328 270.815457 
L 408.811172 270.553988 
L 409.901016 270.277914 
L 410.990859 270.344666 
L 412.080703 270.449983 
L 414.260391 270.092676 
L 415.350234 270.670658 
L 415.895156 270.979145 
L 416.440078 271.105348 
L 416.985 271.00037 
L 416.985 271.00037 
" style="fill:none;stroke:#ff7f0e;stroke-linecap:square;stroke-width:1.5;"/>
   </g>
   <g id="line2d_31">
    <path clip-path="url(#pf46e814707)" d="M 59.51625 271.418671 
L 60.606094 271.529655 
L 61.695938 271.925618 
L 62.785781 272.381615 
L 63.875625 272.437981 
L 64.965469 272.164139 
L 66.600234 271.417622 
L 67.145156 271.387371 
L 69.869766 272.029473 
L 70.414688 271.944219 
L 72.049453 271.239887 
L 72.594375 271.268167 
L 74.229141 271.958234 
L 74.774063 271.797566 
L 75.863906 271.111433 
L 76.408828 270.962295 
L 78.588516 271.098655 
L 81.313125 270.039505 
L 81.858047 270.097992 
L 84.582656 270.947645 
L 85.6725 270.940244 
L 86.762344 270.595056 
L 87.307266 270.359247 
L 87.852188 270.269701 
L 88.397109 270.388366 
L 89.486953 270.832271 
L 90.031875 270.916898 
L 91.121719 270.747131 
L 93.301406 269.842024 
L 97.115859 269.815186 
L 98.205703 269.67112 
L 98.750625 269.859719 
L 99.840469 270.741782 
L 100.385391 271.192806 
L 100.930313 271.491116 
L 101.475234 271.577423 
L 102.020156 271.398134 
L 102.565078 270.845538 
L 103.11 269.842964 
L 104.199844 267.428456 
L 104.744766 266.861412 
L 105.289688 266.911605 
L 106.379531 267.921897 
L 107.469375 269.067455 
L 108.014297 269.498587 
L 108.559219 269.753081 
L 109.104141 269.805107 
L 109.649063 269.65767 
L 111.82875 268.402279 
L 112.918594 268.348274 
L 114.553359 268.362297 
L 117.277969 268.311325 
L 118.912734 267.864391 
L 119.457656 267.942476 
L 120.5475 268.33692 
L 121.092422 268.293611 
L 122.182266 267.547258 
L 122.727188 267.195675 
L 123.272109 267.005052 
L 124.361953 266.944211 
L 126.541641 267.09957 
L 127.631484 266.937079 
L 129.811172 266.422881 
L 131.445938 266.13392 
L 133.625625 265.190276 
L 135.260391 265.237441 
L 136.350234 265.557425 
L 137.440078 266.066808 
L 137.985 266.164791 
L 138.529922 266.078326 
L 139.074844 265.79756 
L 140.709609 264.514508 
L 141.254531 264.252374 
L 141.799453 264.15548 
L 142.344375 264.250691 
L 143.979141 265.079787 
L 144.524063 265.085358 
L 145.613906 264.54256 
L 146.70375 264.093355 
L 148.883438 263.662497 
L 149.973281 263.82789 
L 150.518203 263.779436 
L 151.608047 263.247057 
L 152.697891 262.717579 
L 153.787734 262.513246 
L 154.877578 262.793164 
L 155.4225 262.944782 
L 155.967422 262.916528 
L 156.512344 262.62945 
L 158.147109 261.192492 
L 158.692031 261.022354 
L 160.871719 260.987197 
L 161.961563 261.129577 
L 162.506484 261.07425 
L 163.051406 260.854419 
L 164.14125 260.062984 
L 166.320938 258.09796 
L 167.410781 257.662704 
L 168.500625 257.53374 
L 169.045547 257.607483 
L 170.135391 258.212624 
L 170.680313 258.491461 
L 171.225234 258.493055 
L 171.770156 258.177703 
L 173.404922 256.615843 
L 173.949844 256.316875 
L 174.494766 256.259654 
L 176.129531 256.659043 
L 176.674453 256.471094 
L 177.764297 255.557607 
L 178.854141 254.768091 
L 179.943984 254.520429 
L 182.668594 254.4503 
L 183.213516 254.222257 
L 183.758438 253.665794 
L 184.848281 251.97946 
L 185.393203 251.391268 
L 185.938125 251.175246 
L 187.572891 251.183231 
L 188.662734 250.771034 
L 190.842422 249.83668 
L 193.567031 249.147346 
L 194.656875 248.56555 
L 198.471328 245.509045 
L 200.106094 244.443176 
L 201.195938 243.510861 
L 203.375625 241.306261 
L 205.010391 240.368769 
L 206.645156 239.600445 
L 207.735 239.191205 
L 208.824844 238.485323 
L 210.459609 236.982232 
L 211.549453 236.021773 
L 213.729141 234.735591 
L 218.088516 230.090215 
L 219.723281 228.050619 
L 220.268203 227.560363 
L 220.813125 227.296235 
L 221.902969 227.106631 
L 222.447891 226.769662 
L 222.992813 226.10835 
L 227.352188 219.245045 
L 227.897109 218.563122 
L 228.442031 218.104968 
L 228.986953 217.878266 
L 230.076797 217.895318 
L 231.166641 217.930776 
L 232.256484 217.617081 
L 234.981094 216.506711 
L 236.070938 215.640843 
L 236.615859 215.438796 
L 237.160781 215.921714 
L 237.705703 217.306204 
L 239.340469 223.026849 
L 239.885391 223.989205 
L 240.975234 225.005017 
L 242.61 226.160597 
L 243.154922 226.564028 
L 244.244766 227.821791 
L 245.334609 229.176358 
L 246.969375 231.033562 
L 248.059219 232.347282 
L 250.238906 234.627763 
L 251.32875 235.794032 
L 252.418594 236.663376 
L 253.508438 237.971163 
L 255.143203 240.478702 
L 255.688125 241.02351 
L 256.233047 241.317133 
L 257.322891 241.668199 
L 257.867813 242.043127 
L 260.0475 244.146715 
L 262.772109 246.231948 
L 264.951797 247.369327 
L 267.676406 249.833415 
L 269.311172 250.766935 
L 271.490859 252.433769 
L 272.035781 252.625822 
L 273.125625 252.745829 
L 273.670547 252.958257 
L 275.305313 253.965228 
L 276.395156 254.075374 
L 276.940078 254.33916 
L 279.119766 256.4139 
L 280.209609 256.897094 
L 281.299453 257.124471 
L 282.389297 257.085048 
L 282.934219 257.213981 
L 283.479141 257.552213 
L 285.113906 258.886211 
L 286.20375 259.149924 
L 287.293594 259.467816 
L 288.928359 260.22971 
L 290.563125 260.439168 
L 292.197891 261.485872 
L 293.832656 262.040345 
L 295.467422 263.041377 
L 296.557266 263.361433 
L 297.647109 263.522266 
L 299.826797 263.539841 
L 300.916641 263.581362 
L 302.006484 263.880569 
L 303.64125 264.35008 
L 305.276016 264.526765 
L 305.820938 264.72118 
L 308.000625 266.053317 
L 308.545547 266.168931 
L 309.635391 266.083127 
L 310.725234 266.00668 
L 313.449844 266.259491 
L 315.084609 266.214127 
L 315.629531 266.335599 
L 316.719375 267.047727 
L 317.809219 267.64804 
L 319.443984 267.895976 
L 320.533828 268.115476 
L 322.168594 268.759174 
L 323.258438 269.09717 
L 323.803359 268.982884 
L 325.983047 267.648036 
L 327.617813 267.736127 
L 328.162734 267.894025 
L 328.707656 268.262254 
L 329.7975 269.378074 
L 330.342422 269.735101 
L 330.887344 269.805079 
L 332.522109 269.555585 
L 333.067031 269.713953 
L 335.246719 270.872936 
L 336.336563 270.988946 
L 337.426406 270.900098 
L 337.971328 270.71151 
L 339.061172 270.10552 
L 339.606094 269.979247 
L 340.151016 270.0929 
L 341.785781 270.837885 
L 342.330703 270.829196 
L 343.420547 270.325085 
L 344.510391 269.798068 
L 345.055313 269.720552 
L 345.600234 269.776355 
L 346.690078 270.226345 
L 348.324844 271.26092 
L 348.869766 271.458172 
L 349.414688 271.481289 
L 350.504531 271.087597 
L 352.139297 270.335913 
L 353.774063 269.784542 
L 354.318984 269.708923 
L 354.863906 269.792049 
L 359.223281 271.439181 
L 359.768203 271.421787 
L 360.313125 271.174985 
L 361.947891 269.926252 
L 362.492813 269.757265 
L 363.037734 269.853277 
L 364.6725 270.857112 
L 365.217422 270.932 
L 366.307266 270.829648 
L 366.852188 270.923272 
L 368.486953 271.602693 
L 369.031875 271.634569 
L 369.576797 271.486789 
L 371.211563 270.666051 
L 371.756484 270.735822 
L 372.301406 271.153495 
L 373.39125 272.232989 
L 373.936172 272.310005 
L 374.481094 272.003345 
L 375.570938 271.060139 
L 376.115859 270.770081 
L 376.660781 270.725142 
L 377.205703 270.94043 
L 378.840469 272.060381 
L 379.385391 272.192798 
L 380.475234 272.122419 
L 381.565078 271.917481 
L 383.744766 271.195255 
L 384.289688 271.270337 
L 386.469375 272.14067 
L 387.014297 272.160961 
L 388.104141 271.833772 
L 389.193984 271.497298 
L 390.283828 271.506983 
L 391.918594 271.675571 
L 395.188125 270.821909 
L 395.733047 270.603827 
L 396.277969 270.540361 
L 396.822891 270.722328 
L 398.457656 271.678944 
L 399.5475 271.777913 
L 401.182266 271.487676 
L 402.272109 271.289186 
L 403.361953 271.261097 
L 404.451797 271.52256 
L 407.176406 272.964656 
L 407.721328 272.951639 
L 408.811172 272.542717 
L 409.901016 271.927216 
L 410.445938 271.761361 
L 410.990859 271.836575 
L 412.080703 272.568289 
L 413.170547 273.181184 
L 413.715469 273.287434 
L 414.260391 273.238523 
L 415.350234 272.73393 
L 415.895156 272.46989 
L 416.440078 272.334649 
L 416.985 272.35851 
L 416.985 272.35851 
" style="fill:none;stroke:#2ca02c;stroke-linecap:square;stroke-width:1.5;"/>
   </g>
   <g id="patch_3">
    <path d="M 59.690625 288.430125 
L 59.690625 22.318125 
" style="fill:none;stroke:#000000;stroke-linecap:square;stroke-linejoin:miter;stroke-width:0.8;"/>
   </g>
   <g id="patch_4">
    <path d="M 416.810625 288.430125 
L 416.810625 22.318125 
" style="fill:none;stroke:#000000;stroke-linecap:square;stroke-linejoin:miter;stroke-width:0.8;"/>
   </g>
   <g id="patch_5">
    <path d="M 59.690625 288.430125 
L 416.810625 288.430125 
" style="fill:none;stroke:#000000;stroke-linecap:square;stroke-linejoin:miter;stroke-width:0.8;"/>
   </g>
   <g id="patch_6">
    <path d="M 59.690625 22.318125 
L 416.810625 22.318125 
" style="fill:none;stroke:#000000;stroke-linecap:square;stroke-linejoin:miter;stroke-width:0.8;"/>
   </g>
   <g id="text_17">
    <!-- Spektrum Vergleich -->
    <defs>
     <path d="M 53.515625 70.515625 
L 53.515625 60.890625 
Q 47.90625 63.578125 42.921875 64.890625 
Q 37.9375 66.21875 33.296875 66.21875 
Q 25.25 66.21875 20.875 63.09375 
Q 16.5 59.96875 16.5 54.203125 
Q 16.5 49.359375 19.40625 46.890625 
Q 22.3125 44.4375 30.421875 42.921875 
L 36.375 41.703125 
Q 47.40625 39.59375 52.65625 34.296875 
Q 57.90625 29 57.90625 20.125 
Q 57.90625 9.515625 50.796875 4.046875 
Q 43.703125 -1.421875 29.984375 -1.421875 
Q 24.8125 -1.421875 18.96875 -0.25 
Q 13.140625 0.921875 6.890625 3.21875 
L 6.890625 13.375 
Q 12.890625 10.015625 18.65625 8.296875 
Q 24.421875 6.59375 29.984375 6.59375 
Q 38.421875 6.59375 43.015625 9.90625 
Q 47.609375 13.234375 47.609375 19.390625 
Q 47.609375 24.75 44.3125 27.78125 
Q 41.015625 30.8125 33.5 32.328125 
L 27.484375 33.5 
Q 16.453125 35.6875 11.515625 40.375 
Q 6.59375 45.0625 6.59375 53.421875 
Q 6.59375 63.09375 13.40625 68.65625 
Q 20.21875 74.21875 32.171875 74.21875 
Q 37.3125 74.21875 42.625 73.28125 
Q 47.953125 72.359375 53.515625 70.515625 
" id="DejaVuSans-53"/>
     <path d="M 18.109375 8.203125 
L 18.109375 -20.796875 
L 9.078125 -20.796875 
L 9.078125 54.6875 
L 18.109375 54.6875 
L 18.109375 46.390625 
Q 20.953125 51.265625 25.265625 53.625 
Q 29.59375 56 35.59375 56 
Q 45.5625 56 51.78125 48.09375 
Q 58.015625 40.1875 58.015625 27.296875 
Q 58.015625 14.40625 51.78125 6.484375 
Q 45.5625 -1.421875 35.59375 -1.421875 
Q 29.59375 -1.421875 25.265625 0.953125 
Q 20.953125 3.328125 18.109375 8.203125 
M 48.6875 27.296875 
Q 48.6875 37.203125 44.609375 42.84375 
Q 40.53125 48.484375 33.40625 48.484375 
Q 26.265625 48.484375 22.1875 42.84375 
Q 18.109375 37.203125 18.109375 27.296875 
Q 18.109375 17.390625 22.1875 11.75 
Q 26.265625 6.109375 33.40625 6.109375 
Q 40.53125 6.109375 44.609375 11.75 
Q 48.6875 17.390625 48.6875 27.296875 
" id="DejaVuSans-70"/>
     <path d="M 18.3125 70.21875 
L 18.3125 54.6875 
L 36.8125 54.6875 
L 36.8125 47.703125 
L 18.3125 47.703125 
L 18.3125 18.015625 
Q 18.3125 11.328125 20.140625 9.421875 
Q 21.96875 7.515625 27.59375 7.515625 
L 36.8125 7.515625 
L 36.8125 0 
L 27.59375 0 
Q 17.1875 0 13.234375 3.875 
Q 9.28125 7.765625 9.28125 18.015625 
L 9.28125 47.703125 
L 2.6875 47.703125 
L 2.6875 54.6875 
L 9.28125 54.6875 
L 9.28125 70.21875 
z
" id="DejaVuSans-74"/>
     <path d="M 52 44.1875 
Q 55.375 50.25 60.0625 53.125 
Q 64.75 56 71.09375 56 
Q 79.640625 56 84.28125 50.015625 
Q 88.921875 44.046875 88.921875 33.015625 
L 88.921875 0 
L 79.890625 0 
L 79.890625 32.71875 
Q 79.890625 40.578125 77.09375 44.375 
Q 74.3125 48.1875 68.609375 48.1875 
Q 61.625 48.1875 57.5625 43.546875 
Q 53.515625 38.921875 53.515625 30.90625 
L 53.515625 0 
L 44.484375 0 
L 44.484375 32.71875 
Q 44.484375 40.625 41.703125 44.40625 
Q 38.921875 48.1875 33.109375 48.1875 
Q 26.21875 48.1875 22.15625 43.53125 
Q 18.109375 38.875 18.109375 30.90625 
L 18.109375 0 
L 9.078125 0 
L 9.078125 54.6875 
L 18.109375 54.6875 
L 18.109375 46.1875 
Q 21.1875 51.21875 25.484375 53.609375 
Q 29.78125 56 35.6875 56 
Q 41.65625 56 45.828125 52.96875 
Q 50 49.953125 52 44.1875 
" id="DejaVuSans-6d"/>
     <path d="M 28.609375 0 
L 0.78125 72.90625 
L 11.078125 72.90625 
L 34.1875 11.53125 
L 57.328125 72.90625 
L 67.578125 72.90625 
L 39.796875 0 
z
" id="DejaVuSans-56"/>
     <path d="M 45.40625 27.984375 
Q 45.40625 37.75 41.375 43.109375 
Q 37.359375 48.484375 30.078125 48.484375 
Q 22.859375 48.484375 18.828125 43.109375 
Q 14.796875 37.75 14.796875 27.984375 
Q 14.796875 18.265625 18.828125 12.890625 
Q 22.859375 7.515625 30.078125 7.515625 
Q 37.359375 7.515625 41.375 12.890625 
Q 45.40625 18.265625 45.40625 27.984375 
M 54.390625 6.78125 
Q 54.390625 -7.171875 48.1875 -13.984375 
Q 42 -20.796875 29.203125 -20.796875 
Q 24.46875 -20.796875 20.265625 -20.09375 
Q 16.0625 -19.390625 12.109375 -17.921875 
L 12.109375 -9.1875 
Q 16.0625 -11.328125 19.921875 -12.34375 
Q 23.78125 -13.375 27.78125 -13.375 
Q 36.625 -13.375 41.015625 -8.765625 
Q 45.40625 -4.15625 45.40625 5.171875 
L 45.40625 9.625 
Q 42.625 4.78125 38.28125 2.390625 
Q 33.9375 0 27.875 0 
Q 17.828125 0 11.671875 7.65625 
Q 5.515625 15.328125 5.515625 27.984375 
Q 5.515625 40.671875 11.671875 48.328125 
Q 17.828125 56 27.875 56 
Q 33.9375 56 38.28125 53.609375 
Q 42.625 51.21875 45.40625 46.390625 
L 45.40625 54.6875 
L 54.390625 54.6875 
z
" id="DejaVuSans-67"/>
     <path d="M 9.421875 75.984375 
L 18.40625 75.984375 
L 18.40625 0 
L 9.421875 0 
z
" id="DejaVuSans-6c"/>
     <path d="M 9.421875 54.6875 
L 18.40625 54.6875 
L 18.40625 0 
L 9.421875 0 
z
M 9.421875 75.984375 
L 18.40625 75.984375 
L 18.40625 64.59375 
L 9.421875 64.59375 
z
" id="DejaVuSans-69"/>
     <path d="M 48.78125 52.59375 
L 48.78125 44.1875 
Q 44.96875 46.296875 41.140625 47.34375 
Q 37.3125 48.390625 33.40625 48.390625 
Q 24.65625 48.390625 19.8125 42.84375 
Q 14.984375 37.3125 14.984375 27.296875 
Q 14.984375 17.28125 19.8125 11.734375 
Q 24.65625 6.203125 33.40625 6.203125 
Q 37.3125 6.203125 41.140625 7.25 
Q 44.96875 8.296875 48.78125 10.40625 
L 48.78125 2.09375 
Q 45.015625 0.34375 40.984375 -0.53125 
Q 36.96875 -1.421875 32.421875 -1.421875 
Q 20.0625 -1.421875 12.78125 6.34375 
Q 5.515625 14.109375 5.515625 27.296875 
Q 5.515625 40.671875 12.859375 48.328125 
Q 20.21875 56 33.015625 56 
Q 37.15625 56 41.109375 55.140625 
Q 45.0625 54.296875 48.78125 52.59375 
" id="DejaVuSans-63"/>
     <path d="M 54.890625 33.015625 
L 54.890625 0 
L 45.90625 0 
L 45.90625 32.71875 
Q 45.90625 40.484375 42.875 44.328125 
Q 39.84375 48.1875 33.796875 48.1875 
Q 26.515625 48.1875 22.3125 43.546875 
Q 18.109375 38.921875 18.109375 30.90625 
L 18.109375 0 
L 9.078125 0 
L 9.078125 75.984375 
L 18.109375 75.984375 
L 18.109375 46.1875 
Q 21.34375 51.125 25.703125 53.5625 
Q 30.078125 56 35.796875 56 
Q 45.21875 56 50.046875 50.171875 
Q 54.890625 44.34375 54.890625 33.015625 
" id="DejaVuSans-68"/>
    </defs>
    <g transform="translate(178.902188 16.318125)scale(0.12 -0.12)">
     <use xlink:href="#DejaVuSans-53"/>
     <use x="63.476562" xlink:href="#DejaVuSans-70"/>
     <use x="126.953125" xlink:href="#DejaVuSans-65"/>
     <use x="188.476562" xlink:href="#DejaVuSans-6b"/>
     <use x="246.386719" xlink:href="#DejaVuSans-74"/>
     <use x="285.595703" xlink:href="#DejaVuSans-72"/>
     <use x="326.708984" xlink:href="#DejaVuSans-75"/>
     <use x="390.087891" xlink:href="#DejaVuSans-6d"/>
     <use x="487.5" xlink:href="#DejaVuSans-20"/>
     <use x="519.287109" xlink:href="#DejaVuSans-56"/>
     <use x="587.585938" xlink:href="#DejaVuSans-65"/>
     <use x="649.109375" xlink:href="#DejaVuSans-72"/>
     <use x="690.207031" xlink:href="#DejaVuSans-67"/>
     <use x="753.683594" xlink:href="#DejaVuSans-6c"/>
     <use x="781.466797" xlink:href="#DejaVuSans-65"/>
     <use x="842.990234" xlink:href="#DejaVuSans-69"/>
     <use x="870.773438" xlink:href="#DejaVuSans-63"/>
     <use x="925.753906" xlink:href="#DejaVuSans-68"/>
    </g>
   </g>
   <g id="legend_1">
    <g id="patch_7">
     <path d="M 331.054375 74.3525 
L 409.810625 74.3525 
Q 411.810625 74.3525 411.810625 72.3525 
L 411.810625 29.318125 
Q 411.810625 27.318125 409.810625 27.318125 
L 331.054375 27.318125 
Q 329.054375 27.318125 329.054375 29.318125 
L 329.054375 72.3525 
Q 329.054375 74.3525 331.054375 74.3525 
z
" style="fill:#ffffff;opacity:0.8;stroke:#cccccc;stroke-linejoin:miter;"/>
    </g>
    <g id="line2d_32">
     <path d="M 333.054375 35.416562 
L 353.054375 35.416562 
" style="fill:none;stroke:#1f77b4;stroke-linecap:square;stroke-width:1.5;"/>
    </g>
    <g id="line2d_33"/>
    <g id="text_18">
     <!-- 0.015 ms -->
     <defs>
      <path d="M 10.796875 72.90625 
L 49.515625 72.90625 
L 49.515625 64.59375 
L 19.828125 64.59375 
L 19.828125 46.734375 
Q 21.96875 47.46875 24.109375 47.828125 
Q 26.265625 48.1875 28.421875 48.1875 
Q 40.625 48.1875 47.75 41.5 
Q 54.890625 34.8125 54.890625 23.390625 
Q 54.890625 11.625 47.5625 5.09375 
Q 40.234375 -1.421875 26.90625 -1.421875 
Q 22.3125 -1.421875 17.546875 -0.640625 
Q 12.796875 0.140625 7.71875 1.703125 
L 7.71875 11.625 
Q 12.109375 9.234375 16.796875 8.0625 
Q 21.484375 6.890625 26.703125 6.890625 
Q 35.15625 6.890625 40.078125 11.328125 
Q 45.015625 15.765625 45.015625 23.390625 
Q 45.015625 31 40.078125 35.4375 
Q 35.15625 39.890625 26.703125 39.890625 
Q 22.75 39.890625 18.8125 39.015625 
Q 14.890625 38.140625 10.796875 36.28125 
z
" id="DejaVuSans-35"/>
      <path d="M 44.28125 53.078125 
L 44.28125 44.578125 
Q 40.484375 46.53125 36.375 47.5 
Q 32.28125 48.484375 27.875 48.484375 
Q 21.1875 48.484375 17.84375 46.4375 
Q 14.5 44.390625 14.5 40.28125 
Q 14.5 37.15625 16.890625 35.375 
Q 19.28125 33.59375 26.515625 31.984375 
L 29.59375 31.296875 
Q 39.15625 29.25 43.1875 25.515625 
Q 47.21875 21.78125 47.21875 15.09375 
Q 47.21875 7.46875 41.1875 3.015625 
Q 35.15625 -1.421875 24.609375 -1.421875 
Q 20.21875 -1.421875 15.453125 -0.5625 
Q 10.6875 0.296875 5.421875 2 
L 5.421875 11.28125 
Q 10.40625 8.6875 15.234375 7.390625 
Q 20.0625 6.109375 24.8125 6.109375 
Q 31.15625 6.109375 34.5625 8.28125 
Q 37.984375 10.453125 37.984375 14.40625 
Q 37.984375 18.0625 35.515625 20.015625 
Q 33.0625 21.96875 24.703125 23.78125 
L 21.578125 24.515625 
Q 13.234375 26.265625 9.515625 29.90625 
Q 5.8125 33.546875 5.8125 39.890625 
Q 5.8125 47.609375 11.28125 51.796875 
Q 16.75 56 26.8125 56 
Q 31.78125 56 36.171875 55.265625 
Q 40.578125 54.546875 44.28125 53.078125 
" id="DejaVuSans-73"/>
     </defs>
     <g transform="translate(361.054375 38.916562)scale(0.1 -0.1)">
      <use xlink:href="#DejaVuSans-30"/>
      <use x="63.623047" xlink:href="#DejaVuSans-2e"/>
      <use x="95.410156" xlink:href="#DejaVuSans-30"/>
      <use x="159.033203" xlink:href="#DejaVuSans-31"/>
      <use x="222.65625" xlink:href="#DejaVuSans-35"/>
      <use x="286.279297" xlink:href="#DejaVuSans-20"/>
      <use x="318.066406" xlink:href="#DejaVuSans-6d"/>
      <use x="415.478516" xlink:href="#DejaVuSans-73"/>
     </g>
    </g>
    <g id="line2d_34">
     <path d="M 333.054375 50.094688 
L 353.054375 50.094688 
" style="fill:none;stroke:#ff7f0e;stroke-linecap:square;stroke-width:1.5;"/>
    </g>
    <g id="line2d_35"/>
    <g id="text_19">
     <!-- 0.1 ms -->
     <g transform="translate(361.054375 53.594688)scale(0.1 -0.1)">
      <use xlink:href="#DejaVuSans-30"/>
      <use x="63.623047" xlink:href="#DejaVuSans-2e"/>
      <use x="95.410156" xlink:href="#DejaVuSans-31"/>
      <use x="159.033203" xlink:href="#DejaVuSans-20"/>
      <use x="190.820312" xlink:href="#DejaVuSans-6d"/>
      <use x="288.232422" xlink:href="#DejaVuSans-73"/>
     </g>
    </g>
    <g id="line2d_36">
     <path d="M 333.054375 64.772812 
L 353.054375 64.772812 
" style="fill:none;stroke:#2ca02c;stroke-linecap:square;stroke-width:1.5;"/>
    </g>
    <g id="line2d_37"/>
    <g id="text_20">
     <!-- 0.6 ms -->
     <g transform="translate(361.054375 68.272812)scale(0.1 -0.1)">
      <use xlink:href="#DejaVuSans-30"/>
      <use x="63.623047" xlink:href="#DejaVuSans-2e"/>
      <use x="95.410156" xlink:href="#DejaVuSans-36"/>
      <use x="159.033203" xlink:href="#DejaVuSans-20"/>
      <use x="190.820312" xlink:href="#DejaVuSans-6d"/>
      <use x="288.232422" xlink:href="#DejaVuSans-73"/>
     </g>
    </g>
   </g>
  </g>
 </g>
 <defs>
  <clipPath id="pf46e814707">
   <rect height="266.112" width="357.12" x="59.690625" y="22.318125"/>
  </clipPath>
 </defs>
</svg>
