<?xml version="1.0" encoding="utf-8" standalone="no"?>
<!DOCTYPE svg PUBLIC "-//W3C//DTD SVG 1.1//EN"
  "http://www.w3.org/Graphics/SVG/1.1/DTD/svg11.dtd">
<!-- Created with matplotlib (http://matplotlib.org/) -->
<svg height="325pt" version="1.1" viewBox="0 0 424 325" width="424pt" xmlns="http://www.w3.org/2000/svg" xmlns:xlink="http://www.w3.org/1999/xlink">
 <defs>
  <style type="text/css">
*{stroke-linecap:butt;stroke-linejoin:round;}
  </style>
 </defs>
 <g id="figure_1">
  <g id="patch_1">
   <path d="M 0 325.986375 
L 424.0075 325.986375 
L 424.0075 0 
L 0 0 
z
" style="fill:#ffffff;"/>
  </g>
  <g id="axes_1">
   <g id="patch_2">
    <path d="M 43.78125 288.430125 
L 400.90125 288.430125 
L 400.90125 22.318125 
L 43.78125 22.318125 
z
" style="fill:#ffffff;"/>
   </g>
   <g id="matplotlib.axis_1">
    <g id="xtick_1">
     <g id="line2d_1">
      <path clip-path="url(#p6ab219aded)" d="M 43.78125 288.430125 
L 43.78125 22.318125 
" style="fill:none;stroke:#b0b0b0;stroke-linecap:square;stroke-width:0.8;"/>
     </g>
     <g id="line2d_2">
      <defs>
       <path d="M 0 0 
L 0 3.5 
" id="m5f4186021a" style="stroke:#000000;stroke-width:0.8;"/>
      </defs>
      <g>
       <use style="stroke:#000000;stroke-width:0.8;" x="43.78125" xlink:href="#m5f4186021a" y="288.430125"/>
      </g>
     </g>
     <g id="text_1">
      <!-- −80000 -->
      <defs>
       <path d="M 10.59375 35.5 
L 73.1875 35.5 
L 73.1875 27.203125 
L 10.59375 27.203125 
z
" id="DejaVuSans-2212"/>
       <path d="M 31.78125 34.625 
Q 24.75 34.625 20.71875 30.859375 
Q 16.703125 27.09375 16.703125 20.515625 
Q 16.703125 13.921875 20.71875 10.15625 
Q 24.75 6.390625 31.78125 6.390625 
Q 38.8125 6.390625 42.859375 10.171875 
Q 46.921875 13.96875 46.921875 20.515625 
Q 46.921875 27.09375 42.890625 30.859375 
Q 38.875 34.625 31.78125 34.625 
M 21.921875 38.8125 
Q 15.578125 40.375 12.03125 44.71875 
Q 8.5 49.078125 8.5 55.328125 
Q 8.5 64.0625 14.71875 69.140625 
Q 20.953125 74.21875 31.78125 74.21875 
Q 42.671875 74.21875 48.875 69.140625 
Q 55.078125 64.0625 55.078125 55.328125 
Q 55.078125 49.078125 51.53125 44.71875 
Q 48 40.375 41.703125 38.8125 
Q 48.828125 37.15625 52.796875 32.3125 
Q 56.78125 27.484375 56.78125 20.515625 
Q 56.78125 9.90625 50.3125 4.234375 
Q 43.84375 -1.421875 31.78125 -1.421875 
Q 19.734375 -1.421875 13.25 4.234375 
Q 6.78125 9.90625 6.78125 20.515625 
Q 6.78125 27.484375 10.78125 32.3125 
Q 14.796875 37.15625 21.921875 38.8125 
M 18.3125 54.390625 
Q 18.3125 48.734375 21.84375 45.5625 
Q 25.390625 42.390625 31.78125 42.390625 
Q 38.140625 42.390625 41.71875 45.5625 
Q 45.3125 48.734375 45.3125 54.390625 
Q 45.3125 60.0625 41.71875 63.234375 
Q 38.140625 66.40625 31.78125 66.40625 
Q 25.390625 66.40625 21.84375 63.234375 
Q 18.3125 60.0625 18.3125 54.390625 
" id="DejaVuSans-38"/>
       <path d="M 31.78125 66.40625 
Q 24.171875 66.40625 20.328125 58.90625 
Q 16.5 51.421875 16.5 36.375 
Q 16.5 21.390625 20.328125 13.890625 
Q 24.171875 6.390625 31.78125 6.390625 
Q 39.453125 6.390625 43.28125 13.890625 
Q 47.125 21.390625 47.125 36.375 
Q 47.125 51.421875 43.28125 58.90625 
Q 39.453125 66.40625 31.78125 66.40625 
M 31.78125 74.21875 
Q 44.046875 74.21875 50.515625 64.515625 
Q 56.984375 54.828125 56.984375 36.375 
Q 56.984375 17.96875 50.515625 8.265625 
Q 44.046875 -1.421875 31.78125 -1.421875 
Q 19.53125 -1.421875 13.0625 8.265625 
Q 6.59375 17.96875 6.59375 36.375 
Q 6.59375 54.828125 13.0625 64.515625 
Q 19.53125 74.21875 31.78125 74.21875 
" id="DejaVuSans-30"/>
      </defs>
      <g transform="translate(23.685156 303.028562)scale(0.1 -0.1)">
       <use xlink:href="#DejaVuSans-2212"/>
       <use x="83.789062" xlink:href="#DejaVuSans-38"/>
       <use x="147.412109" xlink:href="#DejaVuSans-30"/>
       <use x="211.035156" xlink:href="#DejaVuSans-30"/>
       <use x="274.658203" xlink:href="#DejaVuSans-30"/>
       <use x="338.28125" xlink:href="#DejaVuSans-30"/>
      </g>
     </g>
    </g>
    <g id="xtick_2">
     <g id="line2d_3">
      <path clip-path="url(#p6ab219aded)" d="M 88.42125 288.430125 
L 88.42125 22.318125 
" style="fill:none;stroke:#b0b0b0;stroke-linecap:square;stroke-width:0.8;"/>
     </g>
     <g id="line2d_4">
      <g>
       <use style="stroke:#000000;stroke-width:0.8;" x="88.42125" xlink:href="#m5f4186021a" y="288.430125"/>
      </g>
     </g>
     <g id="text_2">
      <!-- −60000 -->
      <defs>
       <path d="M 33.015625 40.375 
Q 26.375 40.375 22.484375 35.828125 
Q 18.609375 31.296875 18.609375 23.390625 
Q 18.609375 15.53125 22.484375 10.953125 
Q 26.375 6.390625 33.015625 6.390625 
Q 39.65625 6.390625 43.53125 10.953125 
Q 47.40625 15.53125 47.40625 23.390625 
Q 47.40625 31.296875 43.53125 35.828125 
Q 39.65625 40.375 33.015625 40.375 
M 52.59375 71.296875 
L 52.59375 62.3125 
Q 48.875 64.0625 45.09375 64.984375 
Q 41.3125 65.921875 37.59375 65.921875 
Q 27.828125 65.921875 22.671875 59.328125 
Q 17.53125 52.734375 16.796875 39.40625 
Q 19.671875 43.65625 24.015625 45.921875 
Q 28.375 48.1875 33.59375 48.1875 
Q 44.578125 48.1875 50.953125 41.515625 
Q 57.328125 34.859375 57.328125 23.390625 
Q 57.328125 12.15625 50.6875 5.359375 
Q 44.046875 -1.421875 33.015625 -1.421875 
Q 20.359375 -1.421875 13.671875 8.265625 
Q 6.984375 17.96875 6.984375 36.375 
Q 6.984375 53.65625 15.1875 63.9375 
Q 23.390625 74.21875 37.203125 74.21875 
Q 40.921875 74.21875 44.703125 73.484375 
Q 48.484375 72.75 52.59375 71.296875 
" id="DejaVuSans-36"/>
      </defs>
      <g transform="translate(68.325156 303.028562)scale(0.1 -0.1)">
       <use xlink:href="#DejaVuSans-2212"/>
       <use x="83.789062" xlink:href="#DejaVuSans-36"/>
       <use x="147.412109" xlink:href="#DejaVuSans-30"/>
       <use x="211.035156" xlink:href="#DejaVuSans-30"/>
       <use x="274.658203" xlink:href="#DejaVuSans-30"/>
       <use x="338.28125" xlink:href="#DejaVuSans-30"/>
      </g>
     </g>
    </g>
    <g id="xtick_3">
     <g id="line2d_5">
      <path clip-path="url(#p6ab219aded)" d="M 133.06125 288.430125 
L 133.06125 22.318125 
" style="fill:none;stroke:#b0b0b0;stroke-linecap:square;stroke-width:0.8;"/>
     </g>
     <g id="line2d_6">
      <g>
       <use style="stroke:#000000;stroke-width:0.8;" x="133.06125" xlink:href="#m5f4186021a" y="288.430125"/>
      </g>
     </g>
     <g id="text_3">
      <!-- −40000 -->
      <defs>
       <path d="M 37.796875 64.3125 
L 12.890625 25.390625 
L 37.796875 25.390625 
z
M 35.203125 72.90625 
L 47.609375 72.90625 
L 47.609375 25.390625 
L 58.015625 25.390625 
L 58.015625 17.1875 
L 47.609375 17.1875 
L 47.609375 0 
L 37.796875 0 
L 37.796875 17.1875 
L 4.890625 17.1875 
L 4.890625 26.703125 
z
" id="DejaVuSans-34"/>
      </defs>
      <g transform="translate(112.965156 303.028562)scale(0.1 -0.1)">
       <use xlink:href="#DejaVuSans-2212"/>
       <use x="83.789062" xlink:href="#DejaVuSans-34"/>
       <use x="147.412109" xlink:href="#DejaVuSans-30"/>
       <use x="211.035156" xlink:href="#DejaVuSans-30"/>
       <use x="274.658203" xlink:href="#DejaVuSans-30"/>
       <use x="338.28125" xlink:href="#DejaVuSans-30"/>
      </g>
     </g>
    </g>
    <g id="xtick_4">
     <g id="line2d_7">
      <path clip-path="url(#p6ab219aded)" d="M 177.70125 288.430125 
L 177.70125 22.318125 
" style="fill:none;stroke:#b0b0b0;stroke-linecap:square;stroke-width:0.8;"/>
     </g>
     <g id="line2d_8">
      <g>
       <use style="stroke:#000000;stroke-width:0.8;" x="177.70125" xlink:href="#m5f4186021a" y="288.430125"/>
      </g>
     </g>
     <g id="text_4">
      <!-- −20000 -->
      <defs>
       <path d="M 19.1875 8.296875 
L 53.609375 8.296875 
L 53.609375 0 
L 7.328125 0 
L 7.328125 8.296875 
Q 12.9375 14.109375 22.625 23.890625 
Q 32.328125 33.6875 34.8125 36.53125 
Q 39.546875 41.84375 41.421875 45.53125 
Q 43.3125 49.21875 43.3125 52.78125 
Q 43.3125 58.59375 39.234375 62.25 
Q 35.15625 65.921875 28.609375 65.921875 
Q 23.96875 65.921875 18.8125 64.3125 
Q 13.671875 62.703125 7.8125 59.421875 
L 7.8125 69.390625 
Q 13.765625 71.78125 18.9375 73 
Q 24.125 74.21875 28.421875 74.21875 
Q 39.75 74.21875 46.484375 68.546875 
Q 53.21875 62.890625 53.21875 53.421875 
Q 53.21875 48.921875 51.53125 44.890625 
Q 49.859375 40.875 45.40625 35.40625 
Q 44.1875 33.984375 37.640625 27.21875 
Q 31.109375 20.453125 19.1875 8.296875 
" id="DejaVuSans-32"/>
      </defs>
      <g transform="translate(157.605156 303.028562)scale(0.1 -0.1)">
       <use xlink:href="#DejaVuSans-2212"/>
       <use x="83.789062" xlink:href="#DejaVuSans-32"/>
       <use x="147.412109" xlink:href="#DejaVuSans-30"/>
       <use x="211.035156" xlink:href="#DejaVuSans-30"/>
       <use x="274.658203" xlink:href="#DejaVuSans-30"/>
       <use x="338.28125" xlink:href="#DejaVuSans-30"/>
      </g>
     </g>
    </g>
    <g id="xtick_5">
     <g id="line2d_9">
      <path clip-path="url(#p6ab219aded)" d="M 222.34125 288.430125 
L 222.34125 22.318125 
" style="fill:none;stroke:#b0b0b0;stroke-linecap:square;stroke-width:0.8;"/>
     </g>
     <g id="line2d_10">
      <g>
       <use style="stroke:#000000;stroke-width:0.8;" x="222.34125" xlink:href="#m5f4186021a" y="288.430125"/>
      </g>
     </g>
     <g id="text_5">
      <!-- 0 -->
      <g transform="translate(219.16 303.028562)scale(0.1 -0.1)">
       <use xlink:href="#DejaVuSans-30"/>
      </g>
     </g>
    </g>
    <g id="xtick_6">
     <g id="line2d_11">
      <path clip-path="url(#p6ab219aded)" d="M 266.98125 288.430125 
L 266.98125 22.318125 
" style="fill:none;stroke:#b0b0b0;stroke-linecap:square;stroke-width:0.8;"/>
     </g>
     <g id="line2d_12">
      <g>
       <use style="stroke:#000000;stroke-width:0.8;" x="266.98125" xlink:href="#m5f4186021a" y="288.430125"/>
      </g>
     </g>
     <g id="text_6">
      <!-- 20000 -->
      <g transform="translate(251.075 303.028562)scale(0.1 -0.1)">
       <use xlink:href="#DejaVuSans-32"/>
       <use x="63.623047" xlink:href="#DejaVuSans-30"/>
       <use x="127.246094" xlink:href="#DejaVuSans-30"/>
       <use x="190.869141" xlink:href="#DejaVuSans-30"/>
       <use x="254.492188" xlink:href="#DejaVuSans-30"/>
      </g>
     </g>
    </g>
    <g id="xtick_7">
     <g id="line2d_13">
      <path clip-path="url(#p6ab219aded)" d="M 311.62125 288.430125 
L 311.62125 22.318125 
" style="fill:none;stroke:#b0b0b0;stroke-linecap:square;stroke-width:0.8;"/>
     </g>
     <g id="line2d_14">
      <g>
       <use style="stroke:#000000;stroke-width:0.8;" x="311.62125" xlink:href="#m5f4186021a" y="288.430125"/>
      </g>
     </g>
     <g id="text_7">
      <!-- 40000 -->
      <g transform="translate(295.715 303.028562)scale(0.1 -0.1)">
       <use xlink:href="#DejaVuSans-34"/>
       <use x="63.623047" xlink:href="#DejaVuSans-30"/>
       <use x="127.246094" xlink:href="#DejaVuSans-30"/>
       <use x="190.869141" xlink:href="#DejaVuSans-30"/>
       <use x="254.492188" xlink:href="#DejaVuSans-30"/>
      </g>
     </g>
    </g>
    <g id="xtick_8">
     <g id="line2d_15">
      <path clip-path="url(#p6ab219aded)" d="M 356.26125 288.430125 
L 356.26125 22.318125 
" style="fill:none;stroke:#b0b0b0;stroke-linecap:square;stroke-width:0.8;"/>
     </g>
     <g id="line2d_16">
      <g>
       <use style="stroke:#000000;stroke-width:0.8;" x="356.26125" xlink:href="#m5f4186021a" y="288.430125"/>
      </g>
     </g>
     <g id="text_8">
      <!-- 60000 -->
      <g transform="translate(340.355 303.028562)scale(0.1 -0.1)">
       <use xlink:href="#DejaVuSans-36"/>
       <use x="63.623047" xlink:href="#DejaVuSans-30"/>
       <use x="127.246094" xlink:href="#DejaVuSans-30"/>
       <use x="190.869141" xlink:href="#DejaVuSans-30"/>
       <use x="254.492188" xlink:href="#DejaVuSans-30"/>
      </g>
     </g>
    </g>
    <g id="xtick_9">
     <g id="line2d_17">
      <path clip-path="url(#p6ab219aded)" d="M 400.90125 288.430125 
L 400.90125 22.318125 
" style="fill:none;stroke:#b0b0b0;stroke-linecap:square;stroke-width:0.8;"/>
     </g>
     <g id="line2d_18">
      <g>
       <use style="stroke:#000000;stroke-width:0.8;" x="400.90125" xlink:href="#m5f4186021a" y="288.430125"/>
      </g>
     </g>
     <g id="text_9">
      <!-- 80000 -->
      <g transform="translate(384.995 303.028562)scale(0.1 -0.1)">
       <use xlink:href="#DejaVuSans-38"/>
       <use x="63.623047" xlink:href="#DejaVuSans-30"/>
       <use x="127.246094" xlink:href="#DejaVuSans-30"/>
       <use x="190.869141" xlink:href="#DejaVuSans-30"/>
       <use x="254.492188" xlink:href="#DejaVuSans-30"/>
      </g>
     </g>
    </g>
    <g id="text_10">
     <!-- Frequenz [kHz] -->
     <defs>
      <path d="M 9.8125 72.90625 
L 51.703125 72.90625 
L 51.703125 64.59375 
L 19.671875 64.59375 
L 19.671875 43.109375 
L 48.578125 43.109375 
L 48.578125 34.8125 
L 19.671875 34.8125 
L 19.671875 0 
L 9.8125 0 
z
" id="DejaVuSans-46"/>
      <path d="M 41.109375 46.296875 
Q 39.59375 47.171875 37.8125 47.578125 
Q 36.03125 48 33.890625 48 
Q 26.265625 48 22.1875 43.046875 
Q 18.109375 38.09375 18.109375 28.8125 
L 18.109375 0 
L 9.078125 0 
L 9.078125 54.6875 
L 18.109375 54.6875 
L 18.109375 46.1875 
Q 20.953125 51.171875 25.484375 53.578125 
Q 30.03125 56 36.53125 56 
Q 37.453125 56 38.578125 55.875 
Q 39.703125 55.765625 41.0625 55.515625 
z
" id="DejaVuSans-72"/>
      <path d="M 56.203125 29.59375 
L 56.203125 25.203125 
L 14.890625 25.203125 
Q 15.484375 15.921875 20.484375 11.0625 
Q 25.484375 6.203125 34.421875 6.203125 
Q 39.59375 6.203125 44.453125 7.46875 
Q 49.3125 8.734375 54.109375 11.28125 
L 54.109375 2.78125 
Q 49.265625 0.734375 44.1875 -0.34375 
Q 39.109375 -1.421875 33.890625 -1.421875 
Q 20.796875 -1.421875 13.15625 6.1875 
Q 5.515625 13.8125 5.515625 26.8125 
Q 5.515625 40.234375 12.765625 48.109375 
Q 20.015625 56 32.328125 56 
Q 43.359375 56 49.78125 48.890625 
Q 56.203125 41.796875 56.203125 29.59375 
M 47.21875 32.234375 
Q 47.125 39.59375 43.09375 43.984375 
Q 39.0625 48.390625 32.421875 48.390625 
Q 24.90625 48.390625 20.390625 44.140625 
Q 15.875 39.890625 15.1875 32.171875 
z
" id="DejaVuSans-65"/>
      <path d="M 14.796875 27.296875 
Q 14.796875 17.390625 18.875 11.75 
Q 22.953125 6.109375 30.078125 6.109375 
Q 37.203125 6.109375 41.296875 11.75 
Q 45.40625 17.390625 45.40625 27.296875 
Q 45.40625 37.203125 41.296875 42.84375 
Q 37.203125 48.484375 30.078125 48.484375 
Q 22.953125 48.484375 18.875 42.84375 
Q 14.796875 37.203125 14.796875 27.296875 
M 45.40625 8.203125 
Q 42.578125 3.328125 38.25 0.953125 
Q 33.9375 -1.421875 27.875 -1.421875 
Q 17.96875 -1.421875 11.734375 6.484375 
Q 5.515625 14.40625 5.515625 27.296875 
Q 5.515625 40.1875 11.734375 48.09375 
Q 17.96875 56 27.875 56 
Q 33.9375 56 38.25 53.625 
Q 42.578125 51.265625 45.40625 46.390625 
L 45.40625 54.6875 
L 54.390625 54.6875 
L 54.390625 -20.796875 
L 45.40625 -20.796875 
z
" id="DejaVuSans-71"/>
      <path d="M 8.5 21.578125 
L 8.5 54.6875 
L 17.484375 54.6875 
L 17.484375 21.921875 
Q 17.484375 14.15625 20.5 10.265625 
Q 23.53125 6.390625 29.59375 6.390625 
Q 36.859375 6.390625 41.078125 11.03125 
Q 45.3125 15.671875 45.3125 23.6875 
L 45.3125 54.6875 
L 54.296875 54.6875 
L 54.296875 0 
L 45.3125 0 
L 45.3125 8.40625 
Q 42.046875 3.421875 37.71875 1 
Q 33.40625 -1.421875 27.6875 -1.421875 
Q 18.265625 -1.421875 13.375 4.4375 
Q 8.5 10.296875 8.5 21.578125 
M 31.109375 56 
z
" id="DejaVuSans-75"/>
      <path d="M 54.890625 33.015625 
L 54.890625 0 
L 45.90625 0 
L 45.90625 32.71875 
Q 45.90625 40.484375 42.875 44.328125 
Q 39.84375 48.1875 33.796875 48.1875 
Q 26.515625 48.1875 22.3125 43.546875 
Q 18.109375 38.921875 18.109375 30.90625 
L 18.109375 0 
L 9.078125 0 
L 9.078125 54.6875 
L 18.109375 54.6875 
L 18.109375 46.1875 
Q 21.34375 51.125 25.703125 53.5625 
Q 30.078125 56 35.796875 56 
Q 45.21875 56 50.046875 50.171875 
Q 54.890625 44.34375 54.890625 33.015625 
" id="DejaVuSans-6e"/>
      <path d="M 5.515625 54.6875 
L 48.1875 54.6875 
L 48.1875 46.484375 
L 14.40625 7.171875 
L 48.1875 7.171875 
L 48.1875 0 
L 4.296875 0 
L 4.296875 8.203125 
L 38.09375 47.515625 
L 5.515625 47.515625 
z
" id="DejaVuSans-7a"/>
      <path id="DejaVuSans-20"/>
      <path d="M 8.59375 75.984375 
L 29.296875 75.984375 
L 29.296875 69 
L 17.578125 69 
L 17.578125 -6.203125 
L 29.296875 -6.203125 
L 29.296875 -13.1875 
L 8.59375 -13.1875 
z
" id="DejaVuSans-5b"/>
      <path d="M 9.078125 75.984375 
L 18.109375 75.984375 
L 18.109375 31.109375 
L 44.921875 54.6875 
L 56.390625 54.6875 
L 27.390625 29.109375 
L 57.625 0 
L 45.90625 0 
L 18.109375 26.703125 
L 18.109375 0 
L 9.078125 0 
z
" id="DejaVuSans-6b"/>
      <path d="M 9.8125 72.90625 
L 19.671875 72.90625 
L 19.671875 43.015625 
L 55.515625 43.015625 
L 55.515625 72.90625 
L 65.375 72.90625 
L 65.375 0 
L 55.515625 0 
L 55.515625 34.71875 
L 19.671875 34.71875 
L 19.671875 0 
L 9.8125 0 
z
" id="DejaVuSans-48"/>
      <path d="M 30.421875 75.984375 
L 30.421875 -13.1875 
L 9.71875 -13.1875 
L 9.71875 -6.203125 
L 21.390625 -6.203125 
L 21.390625 69 
L 9.71875 69 
L 9.71875 75.984375 
z
" id="DejaVuSans-5d"/>
     </defs>
     <g transform="translate(184.357656 316.706687)scale(0.1 -0.1)">
      <use xlink:href="#DejaVuSans-46"/>
      <use x="57.410156" xlink:href="#DejaVuSans-72"/>
      <use x="98.492188" xlink:href="#DejaVuSans-65"/>
      <use x="160.015625" xlink:href="#DejaVuSans-71"/>
      <use x="223.492188" xlink:href="#DejaVuSans-75"/>
      <use x="286.871094" xlink:href="#DejaVuSans-65"/>
      <use x="348.394531" xlink:href="#DejaVuSans-6e"/>
      <use x="411.773438" xlink:href="#DejaVuSans-7a"/>
      <use x="464.263672" xlink:href="#DejaVuSans-20"/>
      <use x="496.050781" xlink:href="#DejaVuSans-5b"/>
      <use x="535.064453" xlink:href="#DejaVuSans-6b"/>
      <use x="592.974609" xlink:href="#DejaVuSans-48"/>
      <use x="668.169922" xlink:href="#DejaVuSans-7a"/>
      <use x="720.660156" xlink:href="#DejaVuSans-5d"/>
     </g>
    </g>
   </g>
   <g id="matplotlib.axis_2">
    <g id="ytick_1">
     <g id="line2d_19">
      <path clip-path="url(#p6ab219aded)" d="M 43.78125 255.453705 
L 400.90125 255.453705 
" style="fill:none;stroke:#b0b0b0;stroke-linecap:square;stroke-width:0.8;"/>
     </g>
     <g id="line2d_20">
      <defs>
       <path d="M 0 0 
L -3.5 0 
" id="mdb1b7b1246" style="stroke:#000000;stroke-width:0.8;"/>
      </defs>
      <g>
       <use style="stroke:#000000;stroke-width:0.8;" x="43.78125" xlink:href="#mdb1b7b1246" y="255.453705"/>
      </g>
     </g>
     <g id="text_11">
      <!-- 0.0 -->
      <defs>
       <path d="M 10.6875 12.40625 
L 21 12.40625 
L 21 0 
L 10.6875 0 
z
" id="DejaVuSans-2e"/>
      </defs>
      <g transform="translate(20.878125 259.252923)scale(0.1 -0.1)">
       <use xlink:href="#DejaVuSans-30"/>
       <use x="63.623047" xlink:href="#DejaVuSans-2e"/>
       <use x="95.410156" xlink:href="#DejaVuSans-30"/>
      </g>
     </g>
    </g>
    <g id="ytick_2">
     <g id="line2d_21">
      <path clip-path="url(#p6ab219aded)" d="M 43.78125 211.245789 
L 400.90125 211.245789 
" style="fill:none;stroke:#b0b0b0;stroke-linecap:square;stroke-width:0.8;"/>
     </g>
     <g id="line2d_22">
      <g>
       <use style="stroke:#000000;stroke-width:0.8;" x="43.78125" xlink:href="#mdb1b7b1246" y="211.245789"/>
      </g>
     </g>
     <g id="text_12">
      <!-- 0.2 -->
      <g transform="translate(20.878125 215.045007)scale(0.1 -0.1)">
       <use xlink:href="#DejaVuSans-30"/>
       <use x="63.623047" xlink:href="#DejaVuSans-2e"/>
       <use x="95.410156" xlink:href="#DejaVuSans-32"/>
      </g>
     </g>
    </g>
    <g id="ytick_3">
     <g id="line2d_23">
      <path clip-path="url(#p6ab219aded)" d="M 43.78125 167.037873 
L 400.90125 167.037873 
" style="fill:none;stroke:#b0b0b0;stroke-linecap:square;stroke-width:0.8;"/>
     </g>
     <g id="line2d_24">
      <g>
       <use style="stroke:#000000;stroke-width:0.8;" x="43.78125" xlink:href="#mdb1b7b1246" y="167.037873"/>
      </g>
     </g>
     <g id="text_13">
      <!-- 0.4 -->
      <g transform="translate(20.878125 170.837091)scale(0.1 -0.1)">
       <use xlink:href="#DejaVuSans-30"/>
       <use x="63.623047" xlink:href="#DejaVuSans-2e"/>
       <use x="95.410156" xlink:href="#DejaVuSans-34"/>
      </g>
     </g>
    </g>
    <g id="ytick_4">
     <g id="line2d_25">
      <path clip-path="url(#p6ab219aded)" d="M 43.78125 122.829957 
L 400.90125 122.829957 
" style="fill:none;stroke:#b0b0b0;stroke-linecap:square;stroke-width:0.8;"/>
     </g>
     <g id="line2d_26">
      <g>
       <use style="stroke:#000000;stroke-width:0.8;" x="43.78125" xlink:href="#mdb1b7b1246" y="122.829957"/>
      </g>
     </g>
     <g id="text_14">
      <!-- 0.6 -->
      <g transform="translate(20.878125 126.629176)scale(0.1 -0.1)">
       <use xlink:href="#DejaVuSans-30"/>
       <use x="63.623047" xlink:href="#DejaVuSans-2e"/>
       <use x="95.410156" xlink:href="#DejaVuSans-36"/>
      </g>
     </g>
    </g>
    <g id="ytick_5">
     <g id="line2d_27">
      <path clip-path="url(#p6ab219aded)" d="M 43.78125 78.622041 
L 400.90125 78.622041 
" style="fill:none;stroke:#b0b0b0;stroke-linecap:square;stroke-width:0.8;"/>
     </g>
     <g id="line2d_28">
      <g>
       <use style="stroke:#000000;stroke-width:0.8;" x="43.78125" xlink:href="#mdb1b7b1246" y="78.622041"/>
      </g>
     </g>
     <g id="text_15">
      <!-- 0.8 -->
      <g transform="translate(20.878125 82.42126)scale(0.1 -0.1)">
       <use xlink:href="#DejaVuSans-30"/>
       <use x="63.623047" xlink:href="#DejaVuSans-2e"/>
       <use x="95.410156" xlink:href="#DejaVuSans-38"/>
      </g>
     </g>
    </g>
    <g id="ytick_6">
     <g id="line2d_29">
      <path clip-path="url(#p6ab219aded)" d="M 43.78125 34.414125 
L 400.90125 34.414125 
" style="fill:none;stroke:#b0b0b0;stroke-linecap:square;stroke-width:0.8;"/>
     </g>
     <g id="line2d_30">
      <g>
       <use style="stroke:#000000;stroke-width:0.8;" x="43.78125" xlink:href="#mdb1b7b1246" y="34.414125"/>
      </g>
     </g>
     <g id="text_16">
      <!-- 1.0 -->
      <defs>
       <path d="M 12.40625 8.296875 
L 28.515625 8.296875 
L 28.515625 63.921875 
L 10.984375 60.40625 
L 10.984375 69.390625 
L 28.421875 72.90625 
L 38.28125 72.90625 
L 38.28125 8.296875 
L 54.390625 8.296875 
L 54.390625 0 
L 12.40625 0 
z
" id="DejaVuSans-31"/>
      </defs>
      <g transform="translate(20.878125 38.213344)scale(0.1 -0.1)">
       <use xlink:href="#DejaVuSans-31"/>
       <use x="63.623047" xlink:href="#DejaVuSans-2e"/>
       <use x="95.410156" xlink:href="#DejaVuSans-30"/>
      </g>
     </g>
    </g>
    <g id="text_17">
     <!-- u.a. -->
     <defs>
      <path d="M 34.28125 27.484375 
Q 23.390625 27.484375 19.1875 25 
Q 14.984375 22.515625 14.984375 16.5 
Q 14.984375 11.71875 18.140625 8.90625 
Q 21.296875 6.109375 26.703125 6.109375 
Q 34.1875 6.109375 38.703125 11.40625 
Q 43.21875 16.703125 43.21875 25.484375 
L 43.21875 27.484375 
z
M 52.203125 31.203125 
L 52.203125 0 
L 43.21875 0 
L 43.21875 8.296875 
Q 40.140625 3.328125 35.546875 0.953125 
Q 30.953125 -1.421875 24.3125 -1.421875 
Q 15.921875 -1.421875 10.953125 3.296875 
Q 6 8.015625 6 15.921875 
Q 6 25.140625 12.171875 29.828125 
Q 18.359375 34.515625 30.609375 34.515625 
L 43.21875 34.515625 
L 43.21875 35.40625 
Q 43.21875 41.609375 39.140625 45 
Q 35.0625 48.390625 27.6875 48.390625 
Q 23 48.390625 18.546875 47.265625 
Q 14.109375 46.140625 10.015625 43.890625 
L 10.015625 52.203125 
Q 14.9375 54.109375 19.578125 55.046875 
Q 24.21875 56 28.609375 56 
Q 40.484375 56 46.34375 49.84375 
Q 52.203125 43.703125 52.203125 31.203125 
" id="DejaVuSans-61"/>
     </defs>
     <g transform="translate(14.798438 164.785062)rotate(-90)scale(0.1 -0.1)">
      <use xlink:href="#DejaVuSans-75"/>
      <use x="63.378906" xlink:href="#DejaVuSans-2e"/>
      <use x="95.166016" xlink:href="#DejaVuSans-61"/>
      <use x="156.445312" xlink:href="#DejaVuSans-2e"/>
     </g>
    </g>
   </g>
   <g id="line2d_31">
    <path clip-path="url(#p6ab219aded)" d="M 43.606875 245.955038 
L 46.331484 246.469614 
L 47.421328 246.213301 
L 48.511172 245.484977 
L 49.601016 244.690765 
L 50.145938 244.48573 
L 51.235781 244.419313 
L 52.325625 244.537481 
L 53.415469 244.888757 
L 54.505313 245.183967 
L 55.050234 245.098275 
L 57.229922 244.052012 
L 58.319766 243.956109 
L 59.409609 243.895175 
L 59.954531 243.689731 
L 62.134219 242.306775 
L 63.768984 241.703962 
L 66.493594 239.956621 
L 69.763125 238.809891 
L 70.852969 237.991994 
L 72.487734 236.447997 
L 73.032656 236.225948 
L 74.1225 236.086086 
L 74.667422 235.866202 
L 77.392031 234.057606 
L 78.481875 233.652764 
L 80.116641 233.36469 
L 81.206484 232.741928 
L 81.751406 232.40898 
L 82.296328 232.225866 
L 83.931094 232.080321 
L 84.476016 231.692581 
L 85.020938 231.055493 
L 86.110781 229.144135 
L 87.200625 226.713792 
L 87.745547 225.786094 
L 88.290469 225.375636 
L 88.835391 225.473294 
L 90.470156 226.517941 
L 91.015078 226.59098 
L 91.56 226.424001 
L 92.104922 226.011315 
L 94.829531 223.192727 
L 96.464297 221.856984 
L 97.554141 221.368205 
L 98.643984 220.928376 
L 99.733828 220.208309 
L 104.638125 216.310265 
L 105.727969 214.75786 
L 107.362734 212.387914 
L 107.907656 211.850983 
L 108.452578 211.513087 
L 110.087344 210.918133 
L 111.177188 209.927905 
L 112.267031 208.970803 
L 113.356875 208.579484 
L 113.901797 208.42562 
L 114.446719 208.131758 
L 114.991641 207.612408 
L 116.081484 205.911515 
L 117.71625 203.061108 
L 118.261172 202.455359 
L 119.351016 201.74639 
L 120.440859 201.066472 
L 121.530703 200.14627 
L 124.255313 197.530315 
L 124.800234 197.107212 
L 125.345156 196.54339 
L 126.435 194.76403 
L 127.524844 192.97974 
L 129.704531 190.61893 
L 131.339297 187.944934 
L 132.429141 186.741036 
L 134.063906 185.180661 
L 135.698672 183.36166 
L 136.788516 182.252626 
L 138.423281 180.143175 
L 149.321719 164.926564 
L 150.411563 163.921865 
L 151.501406 162.895775 
L 152.046328 162.129056 
L 153.136172 160.014167 
L 156.405703 153.465319 
L 157.495547 151.916508 
L 158.585391 150.503057 
L 159.675234 148.231009 
L 161.31 144.356059 
L 161.854922 143.561729 
L 163.489688 142.252065 
L 164.034609 141.471881 
L 165.124453 139.164215 
L 166.759219 135.648806 
L 168.938906 131.336165 
L 170.02875 129.204132 
L 172.753359 124.848321 
L 176.022891 118.536922 
L 177.112734 116.144306 
L 178.202578 114.51203 
L 179.292422 112.811449 
L 180.382266 110.279625 
L 182.561953 104.270479 
L 183.651797 102.055081 
L 184.741641 100.462896 
L 185.286563 99.732694 
L 185.831484 98.803546 
L 186.376406 97.539618 
L 188.556094 91.587947 
L 190.735781 87.289623 
L 193.460391 81.14821 
L 196.185 74.705687 
L 197.819766 71.553778 
L 198.909609 68.513149 
L 199.999453 65.468215 
L 202.724063 59.324626 
L 203.813906 56.283189 
L 204.90375 53.924349 
L 205.993594 51.670063 
L 209.263125 43.942149 
L 210.352969 41.93638 
L 212.532656 37.189215 
L 213.6225 35.680108 
L 214.712344 34.764951 
L 215.257266 34.530796 
L 216.347109 34.414125 
L 217.981875 34.516569 
L 219.071719 34.917404 
L 220.161563 35.537202 
L 220.706484 36.106217 
L 221.251406 37.324821 
L 221.796328 39.615409 
L 222.886172 47.051312 
L 223.976016 54.315568 
L 225.065859 59.353235 
L 226.700625 65.235427 
L 229.970156 77.083236 
L 235.964297 98.846081 
L 240.868594 114.22448 
L 242.503359 119.523712 
L 244.138125 124.23892 
L 245.227969 126.869424 
L 247.407656 131.527294 
L 248.4975 135.191555 
L 249.587344 138.888807 
L 251.222109 143.123651 
L 255.581484 154.083813 
L 256.671328 156.427449 
L 258.306094 159.636359 
L 261.030703 165.540388 
L 264.845156 172.727113 
L 265.935 174.417378 
L 267.024844 176.778769 
L 268.114688 179.110131 
L 270.294375 182.865538 
L 272.474063 187.441165 
L 273.563906 189.133415 
L 275.743594 191.586588 
L 277.923281 195.399421 
L 281.192813 200.028099 
L 282.827578 201.776513 
L 283.917422 203.424589 
L 285.552188 206.27661 
L 286.097109 206.942866 
L 291.001406 211.300279 
L 292.09125 212.867222 
L 293.181094 214.522946 
L 294.270938 215.671648 
L 295.905703 217.313952 
L 299.175234 220.925202 
L 300.81 221.74758 
L 301.354922 222.204548 
L 302.444766 223.569641 
L 304.079531 225.81287 
L 305.169375 226.709778 
L 306.259219 227.41264 
L 307.349063 228.2402 
L 307.893984 228.513043 
L 308.438906 228.621273 
L 310.073672 228.550487 
L 310.618594 228.719188 
L 312.798281 229.835293 
L 313.343203 230.114165 
L 313.888125 230.572591 
L 316.612734 233.666165 
L 319.337344 235.218015 
L 320.427188 235.894186 
L 320.972109 236.008512 
L 322.061953 236.034344 
L 322.606875 236.197864 
L 324.241641 237.218221 
L 326.421328 238.564135 
L 331.325625 240.565766 
L 332.960391 241.521483 
L 334.595156 242.868648 
L 335.140078 242.961462 
L 335.685 242.758233 
L 337.319766 241.70079 
L 337.864688 241.630812 
L 338.409609 241.757289 
L 339.499453 242.444667 
L 341.134219 243.999745 
L 342.224063 244.998777 
L 343.313906 245.648037 
L 344.40375 245.83931 
L 345.493594 245.921647 
L 349.852969 247.063986 
L 350.397891 247.028784 
L 352.032656 246.580959 
L 352.577578 246.772348 
L 353.667422 247.864031 
L 354.212344 248.37203 
L 354.757266 248.603771 
L 356.936953 248.552635 
L 358.571719 248.978685 
L 359.661563 248.889693 
L 361.296328 248.488156 
L 361.84125 248.472758 
L 362.386172 248.585857 
L 363.476016 249.180262 
L 364.565859 249.712001 
L 365.655703 249.822108 
L 368.380313 249.806954 
L 371.649844 249.943932 
L 374.374453 249.540499 
L 374.919375 249.565326 
L 375.464297 249.792203 
L 376.554141 250.816566 
L 377.099063 251.322463 
L 377.643984 251.602022 
L 380.368594 251.95946 
L 380.913516 252.093683 
L 381.458438 252.342944 
L 383.093203 253.751167 
L 383.638125 253.942847 
L 384.183047 253.858449 
L 385.272891 253.11866 
L 385.817813 252.737339 
L 386.362734 252.557979 
L 386.907656 252.626427 
L 389.632266 253.624564 
L 390.722109 253.775946 
L 392.356875 253.661737 
L 393.991641 253.733559 
L 396.71625 253.65698 
L 398.895938 253.709088 
L 399.985781 253.336624 
L 401.075625 252.880575 
L 401.075625 252.880575 
" style="fill:none;stroke:#1f77b4;stroke-linecap:square;stroke-width:1.5;"/>
   </g>
   <g id="line2d_32">
    <path clip-path="url(#p6ab219aded)" d="M 43.606875 246.670306 
L 45.241641 247.015285 
L 45.786563 246.911524 
L 46.331484 246.593929 
L 47.421328 245.729222 
L 47.96625 245.538098 
L 48.511172 245.599055 
L 49.601016 245.871481 
L 50.145938 245.800341 
L 51.235781 245.287932 
L 52.870547 244.53489 
L 56.685 243.431718 
L 57.774844 242.90656 
L 58.864688 242.303736 
L 59.954531 242.078438 
L 60.499453 242.006983 
L 61.044375 241.797446 
L 62.134219 240.905142 
L 63.224063 239.928558 
L 63.768984 239.552986 
L 64.313906 239.312387 
L 64.858828 239.250908 
L 66.493594 239.415771 
L 68.128359 238.868565 
L 69.763125 238.923106 
L 70.308047 238.648704 
L 71.942813 237.271023 
L 73.032656 236.808695 
L 74.1225 236.32576 
L 75.212344 235.726499 
L 76.302188 235.366015 
L 78.481875 234.746875 
L 79.026797 234.427949 
L 80.116641 233.298991 
L 81.206484 232.040391 
L 82.296328 231.216328 
L 83.386172 230.906661 
L 85.565859 230.623555 
L 86.110781 230.283121 
L 86.655703 229.603762 
L 87.745547 227.613507 
L 88.290469 227.025277 
L 88.835391 226.992569 
L 89.925234 227.497925 
L 90.470156 227.44529 
L 91.015078 227.1121 
L 92.104922 225.958226 
L 93.194766 224.777142 
L 93.739688 224.406403 
L 94.829531 224.128081 
L 95.374453 224.027112 
L 95.919375 223.782395 
L 96.464297 223.306057 
L 98.099063 221.270122 
L 98.643984 220.886141 
L 100.823672 220.05648 
L 101.913516 219.061053 
L 103.003359 217.66631 
L 104.093203 216.087211 
L 104.638125 215.457658 
L 105.183047 215.075388 
L 105.727969 214.955524 
L 106.817813 215.061789 
L 107.362734 214.952642 
L 107.907656 214.581805 
L 108.9975 213.230611 
L 110.087344 211.994433 
L 112.267031 210.566309 
L 113.356875 209.065254 
L 114.446719 207.355701 
L 115.536563 206.228601 
L 117.71625 204.245906 
L 118.806094 203.943553 
L 119.351016 203.531801 
L 119.895938 202.78164 
L 121.530703 200.022126 
L 122.620547 199.015847 
L 123.710391 198.184359 
L 124.800234 197.084025 
L 125.890078 195.957401 
L 128.069766 194.185929 
L 129.704531 192.112646 
L 131.339297 189.534578 
L 132.429141 187.936317 
L 137.878359 181.920183 
L 138.968203 181.28356 
L 139.513125 181.067116 
L 140.058047 180.70564 
L 140.602969 180.039526 
L 141.692813 177.867784 
L 142.782656 175.546732 
L 143.8725 173.619058 
L 144.962344 172.092543 
L 148.231875 168.241306 
L 150.411563 164.411585 
L 152.046328 162.450263 
L 153.136172 160.989213 
L 154.226016 158.872246 
L 155.315859 156.728552 
L 156.405703 154.762884 
L 158.585391 150.32918 
L 160.220156 148.376665 
L 161.31 146.401394 
L 162.944766 143.216633 
L 167.304141 135.485645 
L 168.393984 133.522064 
L 170.02875 130.92864 
L 171.663516 127.703907 
L 176.022891 118.545965 
L 180.382266 110.495632 
L 181.472109 107.475789 
L 182.561953 104.220065 
L 183.651797 101.645155 
L 184.741641 99.691839 
L 185.831484 98.305887 
L 186.921328 96.929673 
L 188.011172 95.024159 
L 189.101016 92.560057 
L 191.825625 85.478604 
L 193.460391 82.001476 
L 195.095156 77.589973 
L 198.364688 68.588637 
L 199.454531 66.795343 
L 200.544375 64.829062 
L 204.358828 55.58331 
L 206.538516 49.055448 
L 207.628359 46.67459 
L 210.352969 41.638082 
L 211.987734 38.359546 
L 213.077578 36.646815 
L 214.167422 35.200076 
L 214.712344 34.676699 
L 215.257266 34.414125 
L 215.802188 34.435648 
L 217.981875 35.27957 
L 219.071719 35.176824 
L 219.616641 35.120933 
L 220.161563 35.319752 
L 220.706484 36.092065 
L 221.251406 37.798225 
L 221.796328 40.656045 
L 223.976016 55.633982 
L 225.065859 60.23104 
L 227.790469 70.423824 
L 228.880313 73.461941 
L 229.970156 76.388856 
L 231.06 80.516512 
L 232.694766 87.566665 
L 233.784609 91.459532 
L 237.599063 103.616209 
L 243.593203 122.416153 
L 244.683047 125.482654 
L 247.407656 132.281021 
L 249.042422 137.071325 
L 253.946719 150.084752 
L 256.126406 154.77218 
L 258.851016 161.467111 
L 261.030703 165.4465 
L 262.665469 168.761772 
L 264.300234 171.489049 
L 266.479922 176.042073 
L 268.114688 178.447324 
L 269.204531 180.80981 
L 270.294375 183.47634 
L 270.839297 184.496648 
L 276.288516 192.417854 
L 278.468203 196.535485 
L 282.827578 202.654992 
L 283.917422 203.916938 
L 285.007266 205.372655 
L 286.097109 206.397983 
L 287.186953 207.41372 
L 288.821719 209.289719 
L 290.456484 211.762324 
L 292.636172 215.050455 
L 293.726016 216.158685 
L 295.905703 217.573476 
L 296.995547 218.818265 
L 298.085391 220.078697 
L 299.175234 220.886391 
L 300.81 222.06137 
L 301.899844 222.718315 
L 302.989688 223.249783 
L 303.534609 223.781455 
L 305.169375 225.684186 
L 306.804141 227.074788 
L 309.52875 230.388692 
L 310.073672 230.519002 
L 311.163516 230.211865 
L 311.708438 230.041789 
L 312.253359 230.041902 
L 312.798281 230.295551 
L 313.343203 230.813142 
L 315.522891 233.496055 
L 316.612734 234.29877 
L 318.792422 235.290358 
L 320.972109 237.040038 
L 321.517031 237.179047 
L 323.696719 237.099076 
L 324.786563 237.880243 
L 325.876406 238.661826 
L 326.421328 238.829284 
L 328.056094 239.013956 
L 329.145938 239.626261 
L 332.960391 242.415722 
L 333.505313 242.497156 
L 334.595156 242.338134 
L 335.140078 242.425197 
L 335.685 242.725321 
L 337.319766 243.993099 
L 338.409609 244.366379 
L 340.044375 244.881054 
L 341.134219 245.595295 
L 342.224063 246.361327 
L 342.768984 246.545021 
L 343.313906 246.547159 
L 344.948672 246.121376 
L 346.038516 246.197013 
L 347.128359 246.529975 
L 348.218203 247.159141 
L 349.308047 247.830347 
L 350.397891 248.21839 
L 351.487734 248.26872 
L 352.577578 248.053102 
L 353.667422 247.747333 
L 354.212344 247.779212 
L 354.757266 248.009014 
L 356.936953 249.339617 
L 358.026797 249.578663 
L 360.206484 249.668644 
L 361.296328 250.004912 
L 361.84125 249.989885 
L 362.931094 249.4844 
L 363.476016 249.229033 
L 364.020938 249.134661 
L 365.110781 249.432394 
L 365.655703 249.607431 
L 367.835391 249.844676 
L 369.470156 250.700892 
L 371.649844 251.741344 
L 372.194766 251.658052 
L 373.829531 250.856944 
L 374.374453 250.779128 
L 374.919375 250.868642 
L 376.009219 251.472806 
L 377.099063 252.071422 
L 377.643984 252.167561 
L 378.733828 252.058074 
L 380.368594 251.65888 
L 381.458438 251.325595 
L 382.548281 251.397761 
L 383.638125 251.414913 
L 384.727969 251.28216 
L 385.272891 251.330773 
L 385.817813 251.516526 
L 386.907656 252.347261 
L 387.452578 252.830063 
L 387.9975 253.154342 
L 388.542422 253.24864 
L 390.177188 253.0467 
L 391.811953 253.264303 
L 393.991641 253.556213 
L 395.081484 253.458609 
L 396.171328 253.193388 
L 396.71625 253.165072 
L 397.261172 253.293515 
L 398.895938 254.040657 
L 399.440859 254.099762 
L 400.530703 253.82431 
L 401.075625 253.660981 
L 401.075625 253.660981 
" style="fill:none;stroke:#ff7f0e;stroke-linecap:square;stroke-width:1.5;"/>
   </g>
   <g id="line2d_33">
    <path clip-path="url(#p6ab219aded)" d="M 43.606875 249.344936 
L 44.151797 248.962837 
L 45.786563 246.860916 
L 46.331484 246.801276 
L 46.876406 247.243783 
L 48.511172 249.460589 
L 49.056094 249.590475 
L 49.601016 249.258361 
L 50.690859 248.187384 
L 51.235781 247.909264 
L 52.870547 247.686592 
L 54.505313 246.985671 
L 57.229922 246.622152 
L 58.319766 246.166477 
L 59.954531 245.979695 
L 60.499453 245.502711 
L 61.589297 244.032268 
L 62.134219 243.558673 
L 62.679141 243.339554 
L 63.768984 243.287513 
L 64.858828 243.303871 
L 65.40375 242.991659 
L 67.038516 240.891671 
L 67.583438 240.781819 
L 68.128359 241.270854 
L 69.218203 242.98501 
L 69.763125 243.516308 
L 70.308047 243.574627 
L 70.852969 243.112142 
L 71.397891 242.184442 
L 72.487734 239.945379 
L 73.032656 239.199774 
L 73.577578 238.840368 
L 74.1225 238.846569 
L 74.667422 239.167984 
L 76.302188 240.661277 
L 76.847109 240.833918 
L 77.392031 240.619304 
L 78.481875 239.293344 
L 79.571719 238.061847 
L 80.661563 236.777612 
L 81.206484 236.073553 
L 81.751406 235.584216 
L 82.296328 235.477711 
L 83.931094 236.230863 
L 84.476016 235.810192 
L 85.565859 233.968358 
L 86.110781 233.475949 
L 86.655703 233.703361 
L 87.745547 235.166244 
L 88.290469 235.368287 
L 88.835391 235.000264 
L 89.925234 233.749861 
L 90.470156 233.336183 
L 92.104922 232.694338 
L 93.739688 231.39792 
L 95.374453 231.048567 
L 95.919375 230.729284 
L 97.009219 229.695052 
L 98.099063 228.547415 
L 99.188906 227.866223 
L 100.27875 227.35052 
L 100.823672 226.821225 
L 101.368594 225.953268 
L 102.458438 223.877901 
L 103.003359 223.28887 
L 103.548281 223.105488 
L 105.183047 223.279074 
L 105.727969 223.323236 
L 106.272891 223.240198 
L 106.817813 222.919406 
L 107.362734 222.303244 
L 108.452578 220.355277 
L 108.9975 219.352079 
L 109.542422 218.631106 
L 110.087344 218.320005 
L 110.632266 218.376085 
L 111.722109 218.775237 
L 112.267031 218.705531 
L 113.356875 217.950412 
L 116.626406 215.434037 
L 117.171328 215.168654 
L 118.806094 215.11204 
L 119.351016 214.74226 
L 120.440859 213.508475 
L 120.985781 213.129456 
L 121.530703 213.061018 
L 122.620547 213.1484 
L 123.165469 212.744777 
L 123.710391 211.853356 
L 124.800234 209.491176 
L 125.345156 208.592825 
L 126.979922 206.599866 
L 128.069766 204.657395 
L 129.159609 202.646168 
L 129.704531 201.897787 
L 130.249453 201.436562 
L 131.884219 200.662846 
L 132.974063 199.407756 
L 134.063906 198.204431 
L 135.15375 197.594999 
L 135.698672 197.329947 
L 136.243594 196.84616 
L 136.788516 195.972332 
L 138.423281 192.236137 
L 138.968203 191.6509 
L 139.513125 191.538407 
L 140.058047 191.573349 
L 140.602969 191.395809 
L 141.147891 190.861474 
L 143.327578 187.531309 
L 144.417422 185.956527 
L 145.507266 184.796529 
L 146.597109 183.746968 
L 147.142031 182.919195 
L 148.776797 179.503501 
L 149.321719 178.829909 
L 150.956484 177.648411 
L 152.59125 175.572969 
L 153.136172 174.65245 
L 153.681094 173.279755 
L 155.315859 167.93011 
L 155.860781 166.838067 
L 156.950625 165.715384 
L 158.585391 164.09959 
L 159.675234 163.518884 
L 160.220156 162.90788 
L 160.765078 161.874796 
L 162.399844 157.926386 
L 162.944766 156.935128 
L 163.489688 156.283253 
L 164.034609 155.950533 
L 165.124453 155.534059 
L 165.669375 154.97481 
L 166.214297 154.025848 
L 167.849063 149.992359 
L 169.483828 146.410299 
L 171.663516 142.250327 
L 173.843203 136.771695 
L 174.933047 135.008816 
L 176.022891 133.317942 
L 177.112734 131.177764 
L 178.202578 128.967919 
L 179.837344 126.103009 
L 180.382266 124.60164 
L 182.017031 119.175541 
L 183.106875 116.641725 
L 184.196719 114.900154 
L 186.376406 111.6816 
L 186.921328 110.416291 
L 188.011172 106.637046 
L 189.101016 102.61503 
L 190.190859 99.375338 
L 190.735781 98.132371 
L 192.915469 94.102454 
L 194.005313 91.560632 
L 195.095156 89.697695 
L 196.185 87.851389 
L 196.729922 86.51919 
L 197.274844 84.750189 
L 197.819766 82.408237 
L 199.454531 73.48327 
L 199.999453 71.363584 
L 201.089297 68.633374 
L 202.179141 65.893435 
L 203.268984 63.153972 
L 204.358828 61.435714 
L 204.90375 60.671543 
L 205.448672 59.675252 
L 206.538516 56.743954 
L 211.442813 40.84751 
L 211.987734 39.41029 
L 212.532656 38.364907 
L 213.077578 37.682065 
L 213.6225 37.258337 
L 215.257266 36.398112 
L 216.347109 35.135785 
L 216.892031 34.554183 
L 217.436953 34.414125 
L 217.981875 34.841499 
L 219.616641 37.386305 
L 220.161563 37.698739 
L 220.706484 37.81217 
L 221.251406 38.475616 
L 221.796328 40.572191 
L 222.34125 44.342859 
L 223.431094 53.585459 
L 223.976016 57.317014 
L 225.065859 62.755317 
L 226.700625 68.979996 
L 231.06 83.889488 
L 238.688906 110.987768 
L 239.77875 114.182921 
L 241.958438 121.804796 
L 242.503359 122.87908 
L 243.593203 124.621188 
L 244.138125 125.967726 
L 244.683047 127.890267 
L 246.317813 134.989746 
L 247.407656 138.097095 
L 248.4975 141.565658 
L 249.587344 145.322879 
L 250.132266 146.566336 
L 251.222109 148.031176 
L 251.767031 148.7861 
L 252.311953 149.758319 
L 252.856875 151.008735 
L 253.401797 152.628173 
L 254.491641 156.965312 
L 255.581484 161.067547 
L 256.126406 162.363306 
L 256.671328 163.169918 
L 257.761172 164.295299 
L 258.851016 165.872888 
L 260.485781 168.422224 
L 261.575625 171.011123 
L 262.665469 173.528612 
L 264.300234 176.63473 
L 265.390078 179.333278 
L 266.479922 182.194415 
L 267.569766 184.689998 
L 268.659609 187.878913 
L 269.204531 189.498126 
L 269.749453 190.761118 
L 270.294375 191.607519 
L 271.384219 192.565778 
L 272.474063 193.553766 
L 274.108828 195.548112 
L 275.743594 196.50371 
L 276.288516 197.144361 
L 277.923281 199.956595 
L 281.192813 205.516524 
L 282.827578 206.708117 
L 283.3725 207.501364 
L 284.462344 210.14776 
L 285.552188 212.908145 
L 286.097109 213.825386 
L 286.642031 214.354627 
L 287.731875 214.93577 
L 288.276797 215.498572 
L 289.911563 218.335995 
L 290.456484 218.785327 
L 291.001406 218.843335 
L 292.09125 218.804141 
L 292.636172 218.844768 
L 294.270938 218.586304 
L 294.815859 218.988523 
L 295.360781 219.803249 
L 296.450625 222.14124 
L 297.540469 224.556482 
L 298.085391 225.359278 
L 299.175234 226.479382 
L 300.81 228.925236 
L 301.354922 228.958976 
L 301.899844 228.746288 
L 302.444766 228.742052 
L 302.989688 229.129584 
L 304.079531 230.297875 
L 304.624453 230.506773 
L 305.169375 230.292596 
L 306.259219 229.379414 
L 306.804141 229.277693 
L 307.349063 229.53947 
L 307.893984 230.029799 
L 308.438906 230.703499 
L 308.983828 231.691253 
L 310.618594 235.882516 
L 311.163516 236.681611 
L 311.708438 236.978798 
L 312.253359 236.895198 
L 313.888125 236.017256 
L 314.433047 236.022968 
L 314.977969 236.228195 
L 315.522891 236.641783 
L 317.157656 238.571982 
L 317.702578 238.786853 
L 318.2475 238.719267 
L 320.427188 237.992741 
L 320.972109 237.972299 
L 321.517031 238.178508 
L 322.061953 238.656279 
L 322.606875 239.408036 
L 324.241641 242.195868 
L 324.786563 242.587474 
L 325.331484 242.573531 
L 325.876406 242.396716 
L 326.421328 242.354864 
L 328.056094 242.950817 
L 329.690859 242.835068 
L 330.235781 242.701429 
L 332.415469 241.672451 
L 332.960391 241.888512 
L 333.505313 242.468653 
L 335.140078 244.888303 
L 335.685 245.119111 
L 337.319766 244.865769 
L 337.864688 245.077561 
L 338.409609 245.532327 
L 340.044375 247.38779 
L 340.589297 247.600411 
L 341.134219 247.436015 
L 341.679141 247.112804 
L 342.224063 246.993508 
L 342.768984 247.313425 
L 344.40375 249.222227 
L 344.948672 249.195008 
L 345.493594 248.72414 
L 346.583438 247.510579 
L 347.128359 247.194746 
L 348.763125 246.802143 
L 349.308047 246.947187 
L 349.852969 247.42633 
L 350.942813 248.843923 
L 351.487734 249.207185 
L 352.032656 249.173881 
L 352.577578 249.002554 
L 353.1225 249.053261 
L 354.757266 250.168245 
L 355.302188 249.938765 
L 356.392031 248.855521 
L 356.936953 248.699775 
L 357.481875 248.996684 
L 358.571719 249.966281 
L 359.116641 250.162102 
L 359.661563 250.239513 
L 360.206484 250.43701 
L 360.751406 250.91638 
L 361.296328 251.713077 
L 362.386172 253.707964 
L 362.931094 254.286843 
L 363.476016 254.270697 
L 364.565859 253.444605 
L 365.110781 253.422727 
L 366.200625 253.890164 
L 366.745547 253.692229 
L 367.290469 253.073875 
L 368.380313 251.616689 
L 368.925234 251.439601 
L 369.470156 251.757316 
L 370.015078 252.227631 
L 370.56 252.395807 
L 371.104922 252.101953 
L 371.649844 251.607088 
L 372.194766 251.320269 
L 372.739688 251.446445 
L 373.829531 252.254797 
L 374.374453 252.305961 
L 374.919375 251.934794 
L 376.009219 250.901285 
L 376.554141 250.865708 
L 377.099063 251.259323 
L 378.188906 252.409921 
L 378.733828 252.736252 
L 380.913516 253.480905 
L 382.003359 253.798499 
L 382.548281 253.648058 
L 383.638125 252.657956 
L 384.183047 252.201417 
L 385.272891 251.742884 
L 385.817813 251.661133 
L 386.362734 251.782436 
L 386.907656 252.223077 
L 388.542422 254.369681 
L 389.087344 254.543874 
L 389.632266 254.330763 
L 390.177188 253.993117 
L 390.722109 253.807024 
L 392.356875 254.041749 
L 393.991641 253.42679 
L 394.536563 253.482616 
L 395.081484 253.751641 
L 396.171328 254.746561 
L 396.71625 255.230046 
L 397.261172 255.346082 
L 397.806094 254.940726 
L 398.895938 253.532629 
L 399.440859 253.219501 
L 399.985781 253.26757 
L 401.075625 253.634049 
L 401.075625 253.634049 
" style="fill:none;stroke:#2ca02c;stroke-linecap:square;stroke-width:1.5;"/>
   </g>
   <g id="patch_3">
    <path d="M 43.78125 288.430125 
L 43.78125 22.318125 
" style="fill:none;stroke:#000000;stroke-linecap:square;stroke-linejoin:miter;stroke-width:0.8;"/>
   </g>
   <g id="patch_4">
    <path d="M 400.90125 288.430125 
L 400.90125 22.318125 
" style="fill:none;stroke:#000000;stroke-linecap:square;stroke-linejoin:miter;stroke-width:0.8;"/>
   </g>
   <g id="patch_5">
    <path d="M 43.78125 288.430125 
L 400.90125 288.430125 
" style="fill:none;stroke:#000000;stroke-linecap:square;stroke-linejoin:miter;stroke-width:0.8;"/>
   </g>
   <g id="patch_6">
    <path d="M 43.78125 22.318125 
L 400.90125 22.318125 
" style="fill:none;stroke:#000000;stroke-linecap:square;stroke-linejoin:miter;stroke-width:0.8;"/>
   </g>
   <g id="text_18">
    <!-- Spektrum Vergleich -->
    <defs>
     <path d="M 53.515625 70.515625 
L 53.515625 60.890625 
Q 47.90625 63.578125 42.921875 64.890625 
Q 37.9375 66.21875 33.296875 66.21875 
Q 25.25 66.21875 20.875 63.09375 
Q 16.5 59.96875 16.5 54.203125 
Q 16.5 49.359375 19.40625 46.890625 
Q 22.3125 44.4375 30.421875 42.921875 
L 36.375 41.703125 
Q 47.40625 39.59375 52.65625 34.296875 
Q 57.90625 29 57.90625 20.125 
Q 57.90625 9.515625 50.796875 4.046875 
Q 43.703125 -1.421875 29.984375 -1.421875 
Q 24.8125 -1.421875 18.96875 -0.25 
Q 13.140625 0.921875 6.890625 3.21875 
L 6.890625 13.375 
Q 12.890625 10.015625 18.65625 8.296875 
Q 24.421875 6.59375 29.984375 6.59375 
Q 38.421875 6.59375 43.015625 9.90625 
Q 47.609375 13.234375 47.609375 19.390625 
Q 47.609375 24.75 44.3125 27.78125 
Q 41.015625 30.8125 33.5 32.328125 
L 27.484375 33.5 
Q 16.453125 35.6875 11.515625 40.375 
Q 6.59375 45.0625 6.59375 53.421875 
Q 6.59375 63.09375 13.40625 68.65625 
Q 20.21875 74.21875 32.171875 74.21875 
Q 37.3125 74.21875 42.625 73.28125 
Q 47.953125 72.359375 53.515625 70.515625 
" id="DejaVuSans-53"/>
     <path d="M 18.109375 8.203125 
L 18.109375 -20.796875 
L 9.078125 -20.796875 
L 9.078125 54.6875 
L 18.109375 54.6875 
L 18.109375 46.390625 
Q 20.953125 51.265625 25.265625 53.625 
Q 29.59375 56 35.59375 56 
Q 45.5625 56 51.78125 48.09375 
Q 58.015625 40.1875 58.015625 27.296875 
Q 58.015625 14.40625 51.78125 6.484375 
Q 45.5625 -1.421875 35.59375 -1.421875 
Q 29.59375 -1.421875 25.265625 0.953125 
Q 20.953125 3.328125 18.109375 8.203125 
M 48.6875 27.296875 
Q 48.6875 37.203125 44.609375 42.84375 
Q 40.53125 48.484375 33.40625 48.484375 
Q 26.265625 48.484375 22.1875 42.84375 
Q 18.109375 37.203125 18.109375 27.296875 
Q 18.109375 17.390625 22.1875 11.75 
Q 26.265625 6.109375 33.40625 6.109375 
Q 40.53125 6.109375 44.609375 11.75 
Q 48.6875 17.390625 48.6875 27.296875 
" id="DejaVuSans-70"/>
     <path d="M 18.3125 70.21875 
L 18.3125 54.6875 
L 36.8125 54.6875 
L 36.8125 47.703125 
L 18.3125 47.703125 
L 18.3125 18.015625 
Q 18.3125 11.328125 20.140625 9.421875 
Q 21.96875 7.515625 27.59375 7.515625 
L 36.8125 7.515625 
L 36.8125 0 
L 27.59375 0 
Q 17.1875 0 13.234375 3.875 
Q 9.28125 7.765625 9.28125 18.015625 
L 9.28125 47.703125 
L 2.6875 47.703125 
L 2.6875 54.6875 
L 9.28125 54.6875 
L 9.28125 70.21875 
z
" id="DejaVuSans-74"/>
     <path d="M 52 44.1875 
Q 55.375 50.25 60.0625 53.125 
Q 64.75 56 71.09375 56 
Q 79.640625 56 84.28125 50.015625 
Q 88.921875 44.046875 88.921875 33.015625 
L 88.921875 0 
L 79.890625 0 
L 79.890625 32.71875 
Q 79.890625 40.578125 77.09375 44.375 
Q 74.3125 48.1875 68.609375 48.1875 
Q 61.625 48.1875 57.5625 43.546875 
Q 53.515625 38.921875 53.515625 30.90625 
L 53.515625 0 
L 44.484375 0 
L 44.484375 32.71875 
Q 44.484375 40.625 41.703125 44.40625 
Q 38.921875 48.1875 33.109375 48.1875 
Q 26.21875 48.1875 22.15625 43.53125 
Q 18.109375 38.875 18.109375 30.90625 
L 18.109375 0 
L 9.078125 0 
L 9.078125 54.6875 
L 18.109375 54.6875 
L 18.109375 46.1875 
Q 21.1875 51.21875 25.484375 53.609375 
Q 29.78125 56 35.6875 56 
Q 41.65625 56 45.828125 52.96875 
Q 50 49.953125 52 44.1875 
" id="DejaVuSans-6d"/>
     <path d="M 28.609375 0 
L 0.78125 72.90625 
L 11.078125 72.90625 
L 34.1875 11.53125 
L 57.328125 72.90625 
L 67.578125 72.90625 
L 39.796875 0 
z
" id="DejaVuSans-56"/>
     <path d="M 45.40625 27.984375 
Q 45.40625 37.75 41.375 43.109375 
Q 37.359375 48.484375 30.078125 48.484375 
Q 22.859375 48.484375 18.828125 43.109375 
Q 14.796875 37.75 14.796875 27.984375 
Q 14.796875 18.265625 18.828125 12.890625 
Q 22.859375 7.515625 30.078125 7.515625 
Q 37.359375 7.515625 41.375 12.890625 
Q 45.40625 18.265625 45.40625 27.984375 
M 54.390625 6.78125 
Q 54.390625 -7.171875 48.1875 -13.984375 
Q 42 -20.796875 29.203125 -20.796875 
Q 24.46875 -20.796875 20.265625 -20.09375 
Q 16.0625 -19.390625 12.109375 -17.921875 
L 12.109375 -9.1875 
Q 16.0625 -11.328125 19.921875 -12.34375 
Q 23.78125 -13.375 27.78125 -13.375 
Q 36.625 -13.375 41.015625 -8.765625 
Q 45.40625 -4.15625 45.40625 5.171875 
L 45.40625 9.625 
Q 42.625 4.78125 38.28125 2.390625 
Q 33.9375 0 27.875 0 
Q 17.828125 0 11.671875 7.65625 
Q 5.515625 15.328125 5.515625 27.984375 
Q 5.515625 40.671875 11.671875 48.328125 
Q 17.828125 56 27.875 56 
Q 33.9375 56 38.28125 53.609375 
Q 42.625 51.21875 45.40625 46.390625 
L 45.40625 54.6875 
L 54.390625 54.6875 
z
" id="DejaVuSans-67"/>
     <path d="M 9.421875 75.984375 
L 18.40625 75.984375 
L 18.40625 0 
L 9.421875 0 
z
" id="DejaVuSans-6c"/>
     <path d="M 9.421875 54.6875 
L 18.40625 54.6875 
L 18.40625 0 
L 9.421875 0 
z
M 9.421875 75.984375 
L 18.40625 75.984375 
L 18.40625 64.59375 
L 9.421875 64.59375 
z
" id="DejaVuSans-69"/>
     <path d="M 48.78125 52.59375 
L 48.78125 44.1875 
Q 44.96875 46.296875 41.140625 47.34375 
Q 37.3125 48.390625 33.40625 48.390625 
Q 24.65625 48.390625 19.8125 42.84375 
Q 14.984375 37.3125 14.984375 27.296875 
Q 14.984375 17.28125 19.8125 11.734375 
Q 24.65625 6.203125 33.40625 6.203125 
Q 37.3125 6.203125 41.140625 7.25 
Q 44.96875 8.296875 48.78125 10.40625 
L 48.78125 2.09375 
Q 45.015625 0.34375 40.984375 -0.53125 
Q 36.96875 -1.421875 32.421875 -1.421875 
Q 20.0625 -1.421875 12.78125 6.34375 
Q 5.515625 14.109375 5.515625 27.296875 
Q 5.515625 40.671875 12.859375 48.328125 
Q 20.21875 56 33.015625 56 
Q 37.15625 56 41.109375 55.140625 
Q 45.0625 54.296875 48.78125 52.59375 
" id="DejaVuSans-63"/>
     <path d="M 54.890625 33.015625 
L 54.890625 0 
L 45.90625 0 
L 45.90625 32.71875 
Q 45.90625 40.484375 42.875 44.328125 
Q 39.84375 48.1875 33.796875 48.1875 
Q 26.515625 48.1875 22.3125 43.546875 
Q 18.109375 38.921875 18.109375 30.90625 
L 18.109375 0 
L 9.078125 0 
L 9.078125 75.984375 
L 18.109375 75.984375 
L 18.109375 46.1875 
Q 21.34375 51.125 25.703125 53.5625 
Q 30.078125 56 35.796875 56 
Q 45.21875 56 50.046875 50.171875 
Q 54.890625 44.34375 54.890625 33.015625 
" id="DejaVuSans-68"/>
    </defs>
    <g transform="translate(162.992813 16.318125)scale(0.12 -0.12)">
     <use xlink:href="#DejaVuSans-53"/>
     <use x="63.476562" xlink:href="#DejaVuSans-70"/>
     <use x="126.953125" xlink:href="#DejaVuSans-65"/>
     <use x="188.476562" xlink:href="#DejaVuSans-6b"/>
     <use x="246.386719" xlink:href="#DejaVuSans-74"/>
     <use x="285.595703" xlink:href="#DejaVuSans-72"/>
     <use x="326.708984" xlink:href="#DejaVuSans-75"/>
     <use x="390.087891" xlink:href="#DejaVuSans-6d"/>
     <use x="487.5" xlink:href="#DejaVuSans-20"/>
     <use x="519.287109" xlink:href="#DejaVuSans-56"/>
     <use x="587.585938" xlink:href="#DejaVuSans-65"/>
     <use x="649.109375" xlink:href="#DejaVuSans-72"/>
     <use x="690.207031" xlink:href="#DejaVuSans-67"/>
     <use x="753.683594" xlink:href="#DejaVuSans-6c"/>
     <use x="781.466797" xlink:href="#DejaVuSans-65"/>
     <use x="842.990234" xlink:href="#DejaVuSans-69"/>
     <use x="870.773438" xlink:href="#DejaVuSans-63"/>
     <use x="925.753906" xlink:href="#DejaVuSans-68"/>
    </g>
   </g>
   <g id="legend_1">
    <g id="patch_7">
     <path d="M 315.145 74.3525 
L 393.90125 74.3525 
Q 395.90125 74.3525 395.90125 72.3525 
L 395.90125 29.318125 
Q 395.90125 27.318125 393.90125 27.318125 
L 315.145 27.318125 
Q 313.145 27.318125 313.145 29.318125 
L 313.145 72.3525 
Q 313.145 74.3525 315.145 74.3525 
z
" style="fill:#ffffff;opacity:0.8;stroke:#cccccc;stroke-linejoin:miter;"/>
    </g>
    <g id="line2d_34">
     <path d="M 317.145 35.416562 
L 337.145 35.416562 
" style="fill:none;stroke:#1f77b4;stroke-linecap:square;stroke-width:1.5;"/>
    </g>
    <g id="line2d_35"/>
    <g id="text_19">
     <!-- 0.015 ms -->
     <defs>
      <path d="M 10.796875 72.90625 
L 49.515625 72.90625 
L 49.515625 64.59375 
L 19.828125 64.59375 
L 19.828125 46.734375 
Q 21.96875 47.46875 24.109375 47.828125 
Q 26.265625 48.1875 28.421875 48.1875 
Q 40.625 48.1875 47.75 41.5 
Q 54.890625 34.8125 54.890625 23.390625 
Q 54.890625 11.625 47.5625 5.09375 
Q 40.234375 -1.421875 26.90625 -1.421875 
Q 22.3125 -1.421875 17.546875 -0.640625 
Q 12.796875 0.140625 7.71875 1.703125 
L 7.71875 11.625 
Q 12.109375 9.234375 16.796875 8.0625 
Q 21.484375 6.890625 26.703125 6.890625 
Q 35.15625 6.890625 40.078125 11.328125 
Q 45.015625 15.765625 45.015625 23.390625 
Q 45.015625 31 40.078125 35.4375 
Q 35.15625 39.890625 26.703125 39.890625 
Q 22.75 39.890625 18.8125 39.015625 
Q 14.890625 38.140625 10.796875 36.28125 
z
" id="DejaVuSans-35"/>
      <path d="M 44.28125 53.078125 
L 44.28125 44.578125 
Q 40.484375 46.53125 36.375 47.5 
Q 32.28125 48.484375 27.875 48.484375 
Q 21.1875 48.484375 17.84375 46.4375 
Q 14.5 44.390625 14.5 40.28125 
Q 14.5 37.15625 16.890625 35.375 
Q 19.28125 33.59375 26.515625 31.984375 
L 29.59375 31.296875 
Q 39.15625 29.25 43.1875 25.515625 
Q 47.21875 21.78125 47.21875 15.09375 
Q 47.21875 7.46875 41.1875 3.015625 
Q 35.15625 -1.421875 24.609375 -1.421875 
Q 20.21875 -1.421875 15.453125 -0.5625 
Q 10.6875 0.296875 5.421875 2 
L 5.421875 11.28125 
Q 10.40625 8.6875 15.234375 7.390625 
Q 20.0625 6.109375 24.8125 6.109375 
Q 31.15625 6.109375 34.5625 8.28125 
Q 37.984375 10.453125 37.984375 14.40625 
Q 37.984375 18.0625 35.515625 20.015625 
Q 33.0625 21.96875 24.703125 23.78125 
L 21.578125 24.515625 
Q 13.234375 26.265625 9.515625 29.90625 
Q 5.8125 33.546875 5.8125 39.890625 
Q 5.8125 47.609375 11.28125 51.796875 
Q 16.75 56 26.8125 56 
Q 31.78125 56 36.171875 55.265625 
Q 40.578125 54.546875 44.28125 53.078125 
" id="DejaVuSans-73"/>
     </defs>
     <g transform="translate(345.145 38.916562)scale(0.1 -0.1)">
      <use xlink:href="#DejaVuSans-30"/>
      <use x="63.623047" xlink:href="#DejaVuSans-2e"/>
      <use x="95.410156" xlink:href="#DejaVuSans-30"/>
      <use x="159.033203" xlink:href="#DejaVuSans-31"/>
      <use x="222.65625" xlink:href="#DejaVuSans-35"/>
      <use x="286.279297" xlink:href="#DejaVuSans-20"/>
      <use x="318.066406" xlink:href="#DejaVuSans-6d"/>
      <use x="415.478516" xlink:href="#DejaVuSans-73"/>
     </g>
    </g>
    <g id="line2d_36">
     <path d="M 317.145 50.094688 
L 337.145 50.094688 
" style="fill:none;stroke:#ff7f0e;stroke-linecap:square;stroke-width:1.5;"/>
    </g>
    <g id="line2d_37"/>
    <g id="text_20">
     <!-- 0.1 ms -->
     <g transform="translate(345.145 53.594688)scale(0.1 -0.1)">
      <use xlink:href="#DejaVuSans-30"/>
      <use x="63.623047" xlink:href="#DejaVuSans-2e"/>
      <use x="95.410156" xlink:href="#DejaVuSans-31"/>
      <use x="159.033203" xlink:href="#DejaVuSans-20"/>
      <use x="190.820312" xlink:href="#DejaVuSans-6d"/>
      <use x="288.232422" xlink:href="#DejaVuSans-73"/>
     </g>
    </g>
    <g id="line2d_38">
     <path d="M 317.145 64.772812 
L 337.145 64.772812 
" style="fill:none;stroke:#2ca02c;stroke-linecap:square;stroke-width:1.5;"/>
    </g>
    <g id="line2d_39"/>
    <g id="text_21">
     <!-- 0.6 ms -->
     <g transform="translate(345.145 68.272812)scale(0.1 -0.1)">
      <use xlink:href="#DejaVuSans-30"/>
      <use x="63.623047" xlink:href="#DejaVuSans-2e"/>
      <use x="95.410156" xlink:href="#DejaVuSans-36"/>
      <use x="159.033203" xlink:href="#DejaVuSans-20"/>
      <use x="190.820312" xlink:href="#DejaVuSans-6d"/>
      <use x="288.232422" xlink:href="#DejaVuSans-73"/>
     </g>
    </g>
   </g>
  </g>
 </g>
 <defs>
  <clipPath id="p6ab219aded">
   <rect height="266.112" width="357.12" x="43.78125" y="22.318125"/>
  </clipPath>
 </defs>
</svg>
