<?xml version="1.0" encoding="utf-8" standalone="no"?>
<!DOCTYPE svg PUBLIC "-//W3C//DTD SVG 1.1//EN"
  "http://www.w3.org/Graphics/SVG/1.1/DTD/svg11.dtd">
<!-- Created with matplotlib (http://matplotlib.org/) -->
<svg height="325pt" version="1.1" viewBox="0 0 424 325" width="424pt" xmlns="http://www.w3.org/2000/svg" xmlns:xlink="http://www.w3.org/1999/xlink">
 <defs>
  <style type="text/css">
*{stroke-linecap:butt;stroke-linejoin:round;}
  </style>
 </defs>
 <g id="figure_1">
  <g id="patch_1">
   <path d="M 0 325.986375 
L 424.0075 325.986375 
L 424.0075 0 
L 0 0 
z
" style="fill:#ffffff;"/>
  </g>
  <g id="axes_1">
   <g id="patch_2">
    <path d="M 43.78125 288.430125 
L 400.90125 288.430125 
L 400.90125 22.318125 
L 43.78125 22.318125 
z
" style="fill:#ffffff;"/>
   </g>
   <g id="matplotlib.axis_1">
    <g id="xtick_1">
     <g id="line2d_1">
      <path clip-path="url(#pa982be748d)" d="M 43.78125 288.430125 
L 43.78125 22.318125 
" style="fill:none;stroke:#b0b0b0;stroke-linecap:square;stroke-width:0.8;"/>
     </g>
     <g id="line2d_2">
      <defs>
       <path d="M 0 0 
L 0 3.5 
" id="m5cd0bc1f24" style="stroke:#000000;stroke-width:0.8;"/>
      </defs>
      <g>
       <use style="stroke:#000000;stroke-width:0.8;" x="43.78125" xlink:href="#m5cd0bc1f24" y="288.430125"/>
      </g>
     </g>
     <g id="text_1">
      <!-- −80000 -->
      <defs>
       <path d="M 10.59375 35.5 
L 73.1875 35.5 
L 73.1875 27.203125 
L 10.59375 27.203125 
z
" id="DejaVuSans-2212"/>
       <path d="M 31.78125 34.625 
Q 24.75 34.625 20.71875 30.859375 
Q 16.703125 27.09375 16.703125 20.515625 
Q 16.703125 13.921875 20.71875 10.15625 
Q 24.75 6.390625 31.78125 6.390625 
Q 38.8125 6.390625 42.859375 10.171875 
Q 46.921875 13.96875 46.921875 20.515625 
Q 46.921875 27.09375 42.890625 30.859375 
Q 38.875 34.625 31.78125 34.625 
M 21.921875 38.8125 
Q 15.578125 40.375 12.03125 44.71875 
Q 8.5 49.078125 8.5 55.328125 
Q 8.5 64.0625 14.71875 69.140625 
Q 20.953125 74.21875 31.78125 74.21875 
Q 42.671875 74.21875 48.875 69.140625 
Q 55.078125 64.0625 55.078125 55.328125 
Q 55.078125 49.078125 51.53125 44.71875 
Q 48 40.375 41.703125 38.8125 
Q 48.828125 37.15625 52.796875 32.3125 
Q 56.78125 27.484375 56.78125 20.515625 
Q 56.78125 9.90625 50.3125 4.234375 
Q 43.84375 -1.421875 31.78125 -1.421875 
Q 19.734375 -1.421875 13.25 4.234375 
Q 6.78125 9.90625 6.78125 20.515625 
Q 6.78125 27.484375 10.78125 32.3125 
Q 14.796875 37.15625 21.921875 38.8125 
M 18.3125 54.390625 
Q 18.3125 48.734375 21.84375 45.5625 
Q 25.390625 42.390625 31.78125 42.390625 
Q 38.140625 42.390625 41.71875 45.5625 
Q 45.3125 48.734375 45.3125 54.390625 
Q 45.3125 60.0625 41.71875 63.234375 
Q 38.140625 66.40625 31.78125 66.40625 
Q 25.390625 66.40625 21.84375 63.234375 
Q 18.3125 60.0625 18.3125 54.390625 
" id="DejaVuSans-38"/>
       <path d="M 31.78125 66.40625 
Q 24.171875 66.40625 20.328125 58.90625 
Q 16.5 51.421875 16.5 36.375 
Q 16.5 21.390625 20.328125 13.890625 
Q 24.171875 6.390625 31.78125 6.390625 
Q 39.453125 6.390625 43.28125 13.890625 
Q 47.125 21.390625 47.125 36.375 
Q 47.125 51.421875 43.28125 58.90625 
Q 39.453125 66.40625 31.78125 66.40625 
M 31.78125 74.21875 
Q 44.046875 74.21875 50.515625 64.515625 
Q 56.984375 54.828125 56.984375 36.375 
Q 56.984375 17.96875 50.515625 8.265625 
Q 44.046875 -1.421875 31.78125 -1.421875 
Q 19.53125 -1.421875 13.0625 8.265625 
Q 6.59375 17.96875 6.59375 36.375 
Q 6.59375 54.828125 13.0625 64.515625 
Q 19.53125 74.21875 31.78125 74.21875 
" id="DejaVuSans-30"/>
      </defs>
      <g transform="translate(23.685156 303.028562)scale(0.1 -0.1)">
       <use xlink:href="#DejaVuSans-2212"/>
       <use x="83.789062" xlink:href="#DejaVuSans-38"/>
       <use x="147.412109" xlink:href="#DejaVuSans-30"/>
       <use x="211.035156" xlink:href="#DejaVuSans-30"/>
       <use x="274.658203" xlink:href="#DejaVuSans-30"/>
       <use x="338.28125" xlink:href="#DejaVuSans-30"/>
      </g>
     </g>
    </g>
    <g id="xtick_2">
     <g id="line2d_3">
      <path clip-path="url(#pa982be748d)" d="M 88.42125 288.430125 
L 88.42125 22.318125 
" style="fill:none;stroke:#b0b0b0;stroke-linecap:square;stroke-width:0.8;"/>
     </g>
     <g id="line2d_4">
      <g>
       <use style="stroke:#000000;stroke-width:0.8;" x="88.42125" xlink:href="#m5cd0bc1f24" y="288.430125"/>
      </g>
     </g>
     <g id="text_2">
      <!-- −60000 -->
      <defs>
       <path d="M 33.015625 40.375 
Q 26.375 40.375 22.484375 35.828125 
Q 18.609375 31.296875 18.609375 23.390625 
Q 18.609375 15.53125 22.484375 10.953125 
Q 26.375 6.390625 33.015625 6.390625 
Q 39.65625 6.390625 43.53125 10.953125 
Q 47.40625 15.53125 47.40625 23.390625 
Q 47.40625 31.296875 43.53125 35.828125 
Q 39.65625 40.375 33.015625 40.375 
M 52.59375 71.296875 
L 52.59375 62.3125 
Q 48.875 64.0625 45.09375 64.984375 
Q 41.3125 65.921875 37.59375 65.921875 
Q 27.828125 65.921875 22.671875 59.328125 
Q 17.53125 52.734375 16.796875 39.40625 
Q 19.671875 43.65625 24.015625 45.921875 
Q 28.375 48.1875 33.59375 48.1875 
Q 44.578125 48.1875 50.953125 41.515625 
Q 57.328125 34.859375 57.328125 23.390625 
Q 57.328125 12.15625 50.6875 5.359375 
Q 44.046875 -1.421875 33.015625 -1.421875 
Q 20.359375 -1.421875 13.671875 8.265625 
Q 6.984375 17.96875 6.984375 36.375 
Q 6.984375 53.65625 15.1875 63.9375 
Q 23.390625 74.21875 37.203125 74.21875 
Q 40.921875 74.21875 44.703125 73.484375 
Q 48.484375 72.75 52.59375 71.296875 
" id="DejaVuSans-36"/>
      </defs>
      <g transform="translate(68.325156 303.028562)scale(0.1 -0.1)">
       <use xlink:href="#DejaVuSans-2212"/>
       <use x="83.789062" xlink:href="#DejaVuSans-36"/>
       <use x="147.412109" xlink:href="#DejaVuSans-30"/>
       <use x="211.035156" xlink:href="#DejaVuSans-30"/>
       <use x="274.658203" xlink:href="#DejaVuSans-30"/>
       <use x="338.28125" xlink:href="#DejaVuSans-30"/>
      </g>
     </g>
    </g>
    <g id="xtick_3">
     <g id="line2d_5">
      <path clip-path="url(#pa982be748d)" d="M 133.06125 288.430125 
L 133.06125 22.318125 
" style="fill:none;stroke:#b0b0b0;stroke-linecap:square;stroke-width:0.8;"/>
     </g>
     <g id="line2d_6">
      <g>
       <use style="stroke:#000000;stroke-width:0.8;" x="133.06125" xlink:href="#m5cd0bc1f24" y="288.430125"/>
      </g>
     </g>
     <g id="text_3">
      <!-- −40000 -->
      <defs>
       <path d="M 37.796875 64.3125 
L 12.890625 25.390625 
L 37.796875 25.390625 
z
M 35.203125 72.90625 
L 47.609375 72.90625 
L 47.609375 25.390625 
L 58.015625 25.390625 
L 58.015625 17.1875 
L 47.609375 17.1875 
L 47.609375 0 
L 37.796875 0 
L 37.796875 17.1875 
L 4.890625 17.1875 
L 4.890625 26.703125 
z
" id="DejaVuSans-34"/>
      </defs>
      <g transform="translate(112.965156 303.028562)scale(0.1 -0.1)">
       <use xlink:href="#DejaVuSans-2212"/>
       <use x="83.789062" xlink:href="#DejaVuSans-34"/>
       <use x="147.412109" xlink:href="#DejaVuSans-30"/>
       <use x="211.035156" xlink:href="#DejaVuSans-30"/>
       <use x="274.658203" xlink:href="#DejaVuSans-30"/>
       <use x="338.28125" xlink:href="#DejaVuSans-30"/>
      </g>
     </g>
    </g>
    <g id="xtick_4">
     <g id="line2d_7">
      <path clip-path="url(#pa982be748d)" d="M 177.70125 288.430125 
L 177.70125 22.318125 
" style="fill:none;stroke:#b0b0b0;stroke-linecap:square;stroke-width:0.8;"/>
     </g>
     <g id="line2d_8">
      <g>
       <use style="stroke:#000000;stroke-width:0.8;" x="177.70125" xlink:href="#m5cd0bc1f24" y="288.430125"/>
      </g>
     </g>
     <g id="text_4">
      <!-- −20000 -->
      <defs>
       <path d="M 19.1875 8.296875 
L 53.609375 8.296875 
L 53.609375 0 
L 7.328125 0 
L 7.328125 8.296875 
Q 12.9375 14.109375 22.625 23.890625 
Q 32.328125 33.6875 34.8125 36.53125 
Q 39.546875 41.84375 41.421875 45.53125 
Q 43.3125 49.21875 43.3125 52.78125 
Q 43.3125 58.59375 39.234375 62.25 
Q 35.15625 65.921875 28.609375 65.921875 
Q 23.96875 65.921875 18.8125 64.3125 
Q 13.671875 62.703125 7.8125 59.421875 
L 7.8125 69.390625 
Q 13.765625 71.78125 18.9375 73 
Q 24.125 74.21875 28.421875 74.21875 
Q 39.75 74.21875 46.484375 68.546875 
Q 53.21875 62.890625 53.21875 53.421875 
Q 53.21875 48.921875 51.53125 44.890625 
Q 49.859375 40.875 45.40625 35.40625 
Q 44.1875 33.984375 37.640625 27.21875 
Q 31.109375 20.453125 19.1875 8.296875 
" id="DejaVuSans-32"/>
      </defs>
      <g transform="translate(157.605156 303.028562)scale(0.1 -0.1)">
       <use xlink:href="#DejaVuSans-2212"/>
       <use x="83.789062" xlink:href="#DejaVuSans-32"/>
       <use x="147.412109" xlink:href="#DejaVuSans-30"/>
       <use x="211.035156" xlink:href="#DejaVuSans-30"/>
       <use x="274.658203" xlink:href="#DejaVuSans-30"/>
       <use x="338.28125" xlink:href="#DejaVuSans-30"/>
      </g>
     </g>
    </g>
    <g id="xtick_5">
     <g id="line2d_9">
      <path clip-path="url(#pa982be748d)" d="M 222.34125 288.430125 
L 222.34125 22.318125 
" style="fill:none;stroke:#b0b0b0;stroke-linecap:square;stroke-width:0.8;"/>
     </g>
     <g id="line2d_10">
      <g>
       <use style="stroke:#000000;stroke-width:0.8;" x="222.34125" xlink:href="#m5cd0bc1f24" y="288.430125"/>
      </g>
     </g>
     <g id="text_5">
      <!-- 0 -->
      <g transform="translate(219.16 303.028562)scale(0.1 -0.1)">
       <use xlink:href="#DejaVuSans-30"/>
      </g>
     </g>
    </g>
    <g id="xtick_6">
     <g id="line2d_11">
      <path clip-path="url(#pa982be748d)" d="M 266.98125 288.430125 
L 266.98125 22.318125 
" style="fill:none;stroke:#b0b0b0;stroke-linecap:square;stroke-width:0.8;"/>
     </g>
     <g id="line2d_12">
      <g>
       <use style="stroke:#000000;stroke-width:0.8;" x="266.98125" xlink:href="#m5cd0bc1f24" y="288.430125"/>
      </g>
     </g>
     <g id="text_6">
      <!-- 20000 -->
      <g transform="translate(251.075 303.028562)scale(0.1 -0.1)">
       <use xlink:href="#DejaVuSans-32"/>
       <use x="63.623047" xlink:href="#DejaVuSans-30"/>
       <use x="127.246094" xlink:href="#DejaVuSans-30"/>
       <use x="190.869141" xlink:href="#DejaVuSans-30"/>
       <use x="254.492188" xlink:href="#DejaVuSans-30"/>
      </g>
     </g>
    </g>
    <g id="xtick_7">
     <g id="line2d_13">
      <path clip-path="url(#pa982be748d)" d="M 311.62125 288.430125 
L 311.62125 22.318125 
" style="fill:none;stroke:#b0b0b0;stroke-linecap:square;stroke-width:0.8;"/>
     </g>
     <g id="line2d_14">
      <g>
       <use style="stroke:#000000;stroke-width:0.8;" x="311.62125" xlink:href="#m5cd0bc1f24" y="288.430125"/>
      </g>
     </g>
     <g id="text_7">
      <!-- 40000 -->
      <g transform="translate(295.715 303.028562)scale(0.1 -0.1)">
       <use xlink:href="#DejaVuSans-34"/>
       <use x="63.623047" xlink:href="#DejaVuSans-30"/>
       <use x="127.246094" xlink:href="#DejaVuSans-30"/>
       <use x="190.869141" xlink:href="#DejaVuSans-30"/>
       <use x="254.492188" xlink:href="#DejaVuSans-30"/>
      </g>
     </g>
    </g>
    <g id="xtick_8">
     <g id="line2d_15">
      <path clip-path="url(#pa982be748d)" d="M 356.26125 288.430125 
L 356.26125 22.318125 
" style="fill:none;stroke:#b0b0b0;stroke-linecap:square;stroke-width:0.8;"/>
     </g>
     <g id="line2d_16">
      <g>
       <use style="stroke:#000000;stroke-width:0.8;" x="356.26125" xlink:href="#m5cd0bc1f24" y="288.430125"/>
      </g>
     </g>
     <g id="text_8">
      <!-- 60000 -->
      <g transform="translate(340.355 303.028562)scale(0.1 -0.1)">
       <use xlink:href="#DejaVuSans-36"/>
       <use x="63.623047" xlink:href="#DejaVuSans-30"/>
       <use x="127.246094" xlink:href="#DejaVuSans-30"/>
       <use x="190.869141" xlink:href="#DejaVuSans-30"/>
       <use x="254.492188" xlink:href="#DejaVuSans-30"/>
      </g>
     </g>
    </g>
    <g id="xtick_9">
     <g id="line2d_17">
      <path clip-path="url(#pa982be748d)" d="M 400.90125 288.430125 
L 400.90125 22.318125 
" style="fill:none;stroke:#b0b0b0;stroke-linecap:square;stroke-width:0.8;"/>
     </g>
     <g id="line2d_18">
      <g>
       <use style="stroke:#000000;stroke-width:0.8;" x="400.90125" xlink:href="#m5cd0bc1f24" y="288.430125"/>
      </g>
     </g>
     <g id="text_9">
      <!-- 80000 -->
      <g transform="translate(384.995 303.028562)scale(0.1 -0.1)">
       <use xlink:href="#DejaVuSans-38"/>
       <use x="63.623047" xlink:href="#DejaVuSans-30"/>
       <use x="127.246094" xlink:href="#DejaVuSans-30"/>
       <use x="190.869141" xlink:href="#DejaVuSans-30"/>
       <use x="254.492188" xlink:href="#DejaVuSans-30"/>
      </g>
     </g>
    </g>
    <g id="text_10">
     <!-- Frequenz [kHz] -->
     <defs>
      <path d="M 9.8125 72.90625 
L 51.703125 72.90625 
L 51.703125 64.59375 
L 19.671875 64.59375 
L 19.671875 43.109375 
L 48.578125 43.109375 
L 48.578125 34.8125 
L 19.671875 34.8125 
L 19.671875 0 
L 9.8125 0 
z
" id="DejaVuSans-46"/>
      <path d="M 41.109375 46.296875 
Q 39.59375 47.171875 37.8125 47.578125 
Q 36.03125 48 33.890625 48 
Q 26.265625 48 22.1875 43.046875 
Q 18.109375 38.09375 18.109375 28.8125 
L 18.109375 0 
L 9.078125 0 
L 9.078125 54.6875 
L 18.109375 54.6875 
L 18.109375 46.1875 
Q 20.953125 51.171875 25.484375 53.578125 
Q 30.03125 56 36.53125 56 
Q 37.453125 56 38.578125 55.875 
Q 39.703125 55.765625 41.0625 55.515625 
z
" id="DejaVuSans-72"/>
      <path d="M 56.203125 29.59375 
L 56.203125 25.203125 
L 14.890625 25.203125 
Q 15.484375 15.921875 20.484375 11.0625 
Q 25.484375 6.203125 34.421875 6.203125 
Q 39.59375 6.203125 44.453125 7.46875 
Q 49.3125 8.734375 54.109375 11.28125 
L 54.109375 2.78125 
Q 49.265625 0.734375 44.1875 -0.34375 
Q 39.109375 -1.421875 33.890625 -1.421875 
Q 20.796875 -1.421875 13.15625 6.1875 
Q 5.515625 13.8125 5.515625 26.8125 
Q 5.515625 40.234375 12.765625 48.109375 
Q 20.015625 56 32.328125 56 
Q 43.359375 56 49.78125 48.890625 
Q 56.203125 41.796875 56.203125 29.59375 
M 47.21875 32.234375 
Q 47.125 39.59375 43.09375 43.984375 
Q 39.0625 48.390625 32.421875 48.390625 
Q 24.90625 48.390625 20.390625 44.140625 
Q 15.875 39.890625 15.1875 32.171875 
z
" id="DejaVuSans-65"/>
      <path d="M 14.796875 27.296875 
Q 14.796875 17.390625 18.875 11.75 
Q 22.953125 6.109375 30.078125 6.109375 
Q 37.203125 6.109375 41.296875 11.75 
Q 45.40625 17.390625 45.40625 27.296875 
Q 45.40625 37.203125 41.296875 42.84375 
Q 37.203125 48.484375 30.078125 48.484375 
Q 22.953125 48.484375 18.875 42.84375 
Q 14.796875 37.203125 14.796875 27.296875 
M 45.40625 8.203125 
Q 42.578125 3.328125 38.25 0.953125 
Q 33.9375 -1.421875 27.875 -1.421875 
Q 17.96875 -1.421875 11.734375 6.484375 
Q 5.515625 14.40625 5.515625 27.296875 
Q 5.515625 40.1875 11.734375 48.09375 
Q 17.96875 56 27.875 56 
Q 33.9375 56 38.25 53.625 
Q 42.578125 51.265625 45.40625 46.390625 
L 45.40625 54.6875 
L 54.390625 54.6875 
L 54.390625 -20.796875 
L 45.40625 -20.796875 
z
" id="DejaVuSans-71"/>
      <path d="M 8.5 21.578125 
L 8.5 54.6875 
L 17.484375 54.6875 
L 17.484375 21.921875 
Q 17.484375 14.15625 20.5 10.265625 
Q 23.53125 6.390625 29.59375 6.390625 
Q 36.859375 6.390625 41.078125 11.03125 
Q 45.3125 15.671875 45.3125 23.6875 
L 45.3125 54.6875 
L 54.296875 54.6875 
L 54.296875 0 
L 45.3125 0 
L 45.3125 8.40625 
Q 42.046875 3.421875 37.71875 1 
Q 33.40625 -1.421875 27.6875 -1.421875 
Q 18.265625 -1.421875 13.375 4.4375 
Q 8.5 10.296875 8.5 21.578125 
M 31.109375 56 
z
" id="DejaVuSans-75"/>
      <path d="M 54.890625 33.015625 
L 54.890625 0 
L 45.90625 0 
L 45.90625 32.71875 
Q 45.90625 40.484375 42.875 44.328125 
Q 39.84375 48.1875 33.796875 48.1875 
Q 26.515625 48.1875 22.3125 43.546875 
Q 18.109375 38.921875 18.109375 30.90625 
L 18.109375 0 
L 9.078125 0 
L 9.078125 54.6875 
L 18.109375 54.6875 
L 18.109375 46.1875 
Q 21.34375 51.125 25.703125 53.5625 
Q 30.078125 56 35.796875 56 
Q 45.21875 56 50.046875 50.171875 
Q 54.890625 44.34375 54.890625 33.015625 
" id="DejaVuSans-6e"/>
      <path d="M 5.515625 54.6875 
L 48.1875 54.6875 
L 48.1875 46.484375 
L 14.40625 7.171875 
L 48.1875 7.171875 
L 48.1875 0 
L 4.296875 0 
L 4.296875 8.203125 
L 38.09375 47.515625 
L 5.515625 47.515625 
z
" id="DejaVuSans-7a"/>
      <path id="DejaVuSans-20"/>
      <path d="M 8.59375 75.984375 
L 29.296875 75.984375 
L 29.296875 69 
L 17.578125 69 
L 17.578125 -6.203125 
L 29.296875 -6.203125 
L 29.296875 -13.1875 
L 8.59375 -13.1875 
z
" id="DejaVuSans-5b"/>
      <path d="M 9.078125 75.984375 
L 18.109375 75.984375 
L 18.109375 31.109375 
L 44.921875 54.6875 
L 56.390625 54.6875 
L 27.390625 29.109375 
L 57.625 0 
L 45.90625 0 
L 18.109375 26.703125 
L 18.109375 0 
L 9.078125 0 
z
" id="DejaVuSans-6b"/>
      <path d="M 9.8125 72.90625 
L 19.671875 72.90625 
L 19.671875 43.015625 
L 55.515625 43.015625 
L 55.515625 72.90625 
L 65.375 72.90625 
L 65.375 0 
L 55.515625 0 
L 55.515625 34.71875 
L 19.671875 34.71875 
L 19.671875 0 
L 9.8125 0 
z
" id="DejaVuSans-48"/>
      <path d="M 30.421875 75.984375 
L 30.421875 -13.1875 
L 9.71875 -13.1875 
L 9.71875 -6.203125 
L 21.390625 -6.203125 
L 21.390625 69 
L 9.71875 69 
L 9.71875 75.984375 
z
" id="DejaVuSans-5d"/>
     </defs>
     <g transform="translate(184.357656 316.706687)scale(0.1 -0.1)">
      <use xlink:href="#DejaVuSans-46"/>
      <use x="57.410156" xlink:href="#DejaVuSans-72"/>
      <use x="98.492188" xlink:href="#DejaVuSans-65"/>
      <use x="160.015625" xlink:href="#DejaVuSans-71"/>
      <use x="223.492188" xlink:href="#DejaVuSans-75"/>
      <use x="286.871094" xlink:href="#DejaVuSans-65"/>
      <use x="348.394531" xlink:href="#DejaVuSans-6e"/>
      <use x="411.773438" xlink:href="#DejaVuSans-7a"/>
      <use x="464.263672" xlink:href="#DejaVuSans-20"/>
      <use x="496.050781" xlink:href="#DejaVuSans-5b"/>
      <use x="535.064453" xlink:href="#DejaVuSans-6b"/>
      <use x="592.974609" xlink:href="#DejaVuSans-48"/>
      <use x="668.169922" xlink:href="#DejaVuSans-7a"/>
      <use x="720.660156" xlink:href="#DejaVuSans-5d"/>
     </g>
    </g>
   </g>
   <g id="matplotlib.axis_2">
    <g id="ytick_1">
     <g id="line2d_19">
      <path clip-path="url(#pa982be748d)" d="M 43.78125 259.594189 
L 400.90125 259.594189 
" style="fill:none;stroke:#b0b0b0;stroke-linecap:square;stroke-width:0.8;"/>
     </g>
     <g id="line2d_20">
      <defs>
       <path d="M 0 0 
L -3.5 0 
" id="m54acd0da93" style="stroke:#000000;stroke-width:0.8;"/>
      </defs>
      <g>
       <use style="stroke:#000000;stroke-width:0.8;" x="43.78125" xlink:href="#m54acd0da93" y="259.594189"/>
      </g>
     </g>
     <g id="text_11">
      <!-- 0.0 -->
      <defs>
       <path d="M 10.6875 12.40625 
L 21 12.40625 
L 21 0 
L 10.6875 0 
z
" id="DejaVuSans-2e"/>
      </defs>
      <g transform="translate(20.878125 263.393408)scale(0.1 -0.1)">
       <use xlink:href="#DejaVuSans-30"/>
       <use x="63.623047" xlink:href="#DejaVuSans-2e"/>
       <use x="95.410156" xlink:href="#DejaVuSans-30"/>
      </g>
     </g>
    </g>
    <g id="ytick_2">
     <g id="line2d_21">
      <path clip-path="url(#pa982be748d)" d="M 43.78125 214.558176 
L 400.90125 214.558176 
" style="fill:none;stroke:#b0b0b0;stroke-linecap:square;stroke-width:0.8;"/>
     </g>
     <g id="line2d_22">
      <g>
       <use style="stroke:#000000;stroke-width:0.8;" x="43.78125" xlink:href="#m54acd0da93" y="214.558176"/>
      </g>
     </g>
     <g id="text_12">
      <!-- 0.2 -->
      <g transform="translate(20.878125 218.357395)scale(0.1 -0.1)">
       <use xlink:href="#DejaVuSans-30"/>
       <use x="63.623047" xlink:href="#DejaVuSans-2e"/>
       <use x="95.410156" xlink:href="#DejaVuSans-32"/>
      </g>
     </g>
    </g>
    <g id="ytick_3">
     <g id="line2d_23">
      <path clip-path="url(#pa982be748d)" d="M 43.78125 169.522163 
L 400.90125 169.522163 
" style="fill:none;stroke:#b0b0b0;stroke-linecap:square;stroke-width:0.8;"/>
     </g>
     <g id="line2d_24">
      <g>
       <use style="stroke:#000000;stroke-width:0.8;" x="43.78125" xlink:href="#m54acd0da93" y="169.522163"/>
      </g>
     </g>
     <g id="text_13">
      <!-- 0.4 -->
      <g transform="translate(20.878125 173.321382)scale(0.1 -0.1)">
       <use xlink:href="#DejaVuSans-30"/>
       <use x="63.623047" xlink:href="#DejaVuSans-2e"/>
       <use x="95.410156" xlink:href="#DejaVuSans-34"/>
      </g>
     </g>
    </g>
    <g id="ytick_4">
     <g id="line2d_25">
      <path clip-path="url(#pa982be748d)" d="M 43.78125 124.486151 
L 400.90125 124.486151 
" style="fill:none;stroke:#b0b0b0;stroke-linecap:square;stroke-width:0.8;"/>
     </g>
     <g id="line2d_26">
      <g>
       <use style="stroke:#000000;stroke-width:0.8;" x="43.78125" xlink:href="#m54acd0da93" y="124.486151"/>
      </g>
     </g>
     <g id="text_14">
      <!-- 0.6 -->
      <g transform="translate(20.878125 128.285369)scale(0.1 -0.1)">
       <use xlink:href="#DejaVuSans-30"/>
       <use x="63.623047" xlink:href="#DejaVuSans-2e"/>
       <use x="95.410156" xlink:href="#DejaVuSans-36"/>
      </g>
     </g>
    </g>
    <g id="ytick_5">
     <g id="line2d_27">
      <path clip-path="url(#pa982be748d)" d="M 43.78125 79.450138 
L 400.90125 79.450138 
" style="fill:none;stroke:#b0b0b0;stroke-linecap:square;stroke-width:0.8;"/>
     </g>
     <g id="line2d_28">
      <g>
       <use style="stroke:#000000;stroke-width:0.8;" x="43.78125" xlink:href="#m54acd0da93" y="79.450138"/>
      </g>
     </g>
     <g id="text_15">
      <!-- 0.8 -->
      <g transform="translate(20.878125 83.249357)scale(0.1 -0.1)">
       <use xlink:href="#DejaVuSans-30"/>
       <use x="63.623047" xlink:href="#DejaVuSans-2e"/>
       <use x="95.410156" xlink:href="#DejaVuSans-38"/>
      </g>
     </g>
    </g>
    <g id="ytick_6">
     <g id="line2d_29">
      <path clip-path="url(#pa982be748d)" d="M 43.78125 34.414125 
L 400.90125 34.414125 
" style="fill:none;stroke:#b0b0b0;stroke-linecap:square;stroke-width:0.8;"/>
     </g>
     <g id="line2d_30">
      <g>
       <use style="stroke:#000000;stroke-width:0.8;" x="43.78125" xlink:href="#m54acd0da93" y="34.414125"/>
      </g>
     </g>
     <g id="text_16">
      <!-- 1.0 -->
      <defs>
       <path d="M 12.40625 8.296875 
L 28.515625 8.296875 
L 28.515625 63.921875 
L 10.984375 60.40625 
L 10.984375 69.390625 
L 28.421875 72.90625 
L 38.28125 72.90625 
L 38.28125 8.296875 
L 54.390625 8.296875 
L 54.390625 0 
L 12.40625 0 
z
" id="DejaVuSans-31"/>
      </defs>
      <g transform="translate(20.878125 38.213344)scale(0.1 -0.1)">
       <use xlink:href="#DejaVuSans-31"/>
       <use x="63.623047" xlink:href="#DejaVuSans-2e"/>
       <use x="95.410156" xlink:href="#DejaVuSans-30"/>
      </g>
     </g>
    </g>
    <g id="text_17">
     <!-- u.a. -->
     <defs>
      <path d="M 34.28125 27.484375 
Q 23.390625 27.484375 19.1875 25 
Q 14.984375 22.515625 14.984375 16.5 
Q 14.984375 11.71875 18.140625 8.90625 
Q 21.296875 6.109375 26.703125 6.109375 
Q 34.1875 6.109375 38.703125 11.40625 
Q 43.21875 16.703125 43.21875 25.484375 
L 43.21875 27.484375 
z
M 52.203125 31.203125 
L 52.203125 0 
L 43.21875 0 
L 43.21875 8.296875 
Q 40.140625 3.328125 35.546875 0.953125 
Q 30.953125 -1.421875 24.3125 -1.421875 
Q 15.921875 -1.421875 10.953125 3.296875 
Q 6 8.015625 6 15.921875 
Q 6 25.140625 12.171875 29.828125 
Q 18.359375 34.515625 30.609375 34.515625 
L 43.21875 34.515625 
L 43.21875 35.40625 
Q 43.21875 41.609375 39.140625 45 
Q 35.0625 48.390625 27.6875 48.390625 
Q 23 48.390625 18.546875 47.265625 
Q 14.109375 46.140625 10.015625 43.890625 
L 10.015625 52.203125 
Q 14.9375 54.109375 19.578125 55.046875 
Q 24.21875 56 28.609375 56 
Q 40.484375 56 46.34375 49.84375 
Q 52.203125 43.703125 52.203125 31.203125 
" id="DejaVuSans-61"/>
     </defs>
     <g transform="translate(14.798438 164.785062)rotate(-90)scale(0.1 -0.1)">
      <use xlink:href="#DejaVuSans-75"/>
      <use x="63.378906" xlink:href="#DejaVuSans-2e"/>
      <use x="95.166016" xlink:href="#DejaVuSans-61"/>
      <use x="156.445312" xlink:href="#DejaVuSans-2e"/>
     </g>
    </g>
   </g>
   <g id="line2d_31">
    <path clip-path="url(#pa982be748d)" d="M 43.606875 249.547966 
L 44.151797 249.55386 
L 44.696719 249.401658 
L 46.876406 248.271762 
L 49.601016 247.873226 
L 51.780703 247.706462 
L 52.870547 247.465039 
L 53.960391 247.471261 
L 55.050234 247.499614 
L 57.229922 247.240464 
L 58.319766 246.857689 
L 59.409609 246.503788 
L 61.589297 246.215751 
L 62.679141 245.679695 
L 64.858828 244.133633 
L 65.948672 243.249513 
L 67.583438 242.209903 
L 69.763125 240.177414 
L 70.308047 239.922875 
L 70.852969 239.8843 
L 71.942813 240.053356 
L 73.032656 239.772057 
L 74.667422 239.159252 
L 75.757266 238.348028 
L 77.936953 236.459908 
L 79.026797 235.894833 
L 80.116641 235.445904 
L 81.206484 234.597714 
L 82.296328 233.744805 
L 83.386172 232.968776 
L 86.110781 230.350128 
L 86.655703 229.954846 
L 87.200625 229.719507 
L 87.745547 229.71804 
L 88.835391 229.971271 
L 89.380313 229.839062 
L 89.925234 229.416513 
L 91.56 227.411299 
L 92.104922 227.076841 
L 93.739688 226.821983 
L 94.284609 226.536478 
L 94.829531 226.062137 
L 97.009219 223.503988 
L 98.643984 222.331675 
L 100.27875 220.767175 
L 101.368594 220.094803 
L 103.003359 219.319642 
L 104.093203 218.468009 
L 105.727969 216.673688 
L 106.817813 215.235142 
L 107.907656 213.734923 
L 108.9975 212.672351 
L 113.356875 208.993213 
L 114.446719 207.99247 
L 115.536563 207.402087 
L 116.626406 206.790252 
L 118.261172 205.237269 
L 119.895938 203.719997 
L 122.075625 201.087558 
L 123.165469 199.415711 
L 124.255313 197.767908 
L 125.890078 196.033845 
L 128.069766 193.774133 
L 131.339297 189.409851 
L 132.429141 188.299428 
L 133.518984 186.732075 
L 135.15375 184.155909 
L 137.878359 181.045686 
L 140.058047 179.101736 
L 141.147891 177.65578 
L 142.237734 175.908705 
L 145.507266 170.128913 
L 146.597109 168.79028 
L 148.776797 166.739589 
L 149.866641 165.126013 
L 152.59125 160.514211 
L 153.681094 158.272505 
L 155.315859 154.577881 
L 156.405703 152.916111 
L 158.585391 150.433455 
L 159.675234 148.52423 
L 161.854922 144.439756 
L 166.214297 136.52199 
L 167.849063 133.24491 
L 168.938906 131.613764 
L 170.02875 129.983382 
L 171.663516 126.860541 
L 175.477969 119.3293 
L 177.112734 116.479386 
L 178.202578 114.684986 
L 179.292422 112.321969 
L 181.472109 106.320755 
L 182.561953 103.297507 
L 183.651797 101.009069 
L 185.831484 97.167076 
L 187.46625 93.899248 
L 190.735781 86.476682 
L 192.370547 82.552782 
L 195.095156 76.785234 
L 196.729922 72.757111 
L 197.819766 69.097788 
L 198.364688 67.183578 
L 198.909609 65.701166 
L 199.454531 64.81449 
L 200.544375 63.82894 
L 201.089297 63.130023 
L 202.179141 61.079867 
L 203.813906 57.316112 
L 206.538516 50.075338 
L 208.173281 47.080104 
L 209.808047 43.924722 
L 210.897891 41.917174 
L 211.987734 39.636052 
L 212.532656 38.715955 
L 213.077578 38.058599 
L 216.892031 34.854169 
L 217.981875 34.437606 
L 218.526797 34.414125 
L 219.616641 34.879419 
L 220.706484 35.41037 
L 221.251406 36.193671 
L 221.796328 38.12145 
L 222.34125 41.500897 
L 223.976016 54.7677 
L 224.520938 57.964275 
L 225.065859 60.310827 
L 226.155703 63.668752 
L 228.335391 69.870205 
L 229.425234 73.580737 
L 235.419375 96.086324 
L 236.509219 99.16818 
L 238.143984 103.582425 
L 240.323672 110.849239 
L 242.503359 116.926607 
L 247.952578 133.139912 
L 250.677188 139.561342 
L 252.311953 143.905935 
L 253.401797 146.237535 
L 254.491641 148.402016 
L 255.581484 151.099605 
L 256.671328 153.947745 
L 258.851016 159.028846 
L 260.485781 163.429615 
L 261.575625 165.325816 
L 263.755313 168.605398 
L 264.845156 170.170184 
L 265.935 172.533083 
L 267.569766 176.668729 
L 268.659609 178.812584 
L 269.749453 180.296927 
L 270.839297 181.787646 
L 271.929141 184.08199 
L 273.018984 186.238276 
L 274.108828 187.484011 
L 275.198672 188.663397 
L 276.288516 190.630831 
L 277.378359 192.554226 
L 279.013125 194.743161 
L 283.3725 202.274882 
L 284.462344 203.178905 
L 285.552188 204.103694 
L 287.731875 206.733306 
L 290.456484 210.748762 
L 292.09125 212.390001 
L 294.815859 215.748858 
L 296.450625 217.397908 
L 297.540469 218.143783 
L 298.630313 218.860033 
L 299.175234 219.472264 
L 300.265078 221.439731 
L 301.354922 223.374327 
L 301.899844 223.915696 
L 304.079531 225.305722 
L 305.169375 226.545547 
L 306.259219 227.789902 
L 307.349063 228.562494 
L 311.163516 230.633067 
L 312.798281 230.869523 
L 313.343203 231.191805 
L 314.433047 232.310052 
L 315.522891 233.412795 
L 317.157656 234.918033 
L 318.2475 235.938121 
L 319.337344 236.540582 
L 320.972109 237.195484 
L 323.151797 238.671178 
L 329.145938 241.263839 
L 331.870547 243.054893 
L 332.960391 242.934642 
L 333.505313 242.901156 
L 334.050234 243.065289 
L 335.140078 243.705194 
L 335.685 243.880323 
L 337.319766 243.992293 
L 338.409609 244.679589 
L 339.499453 245.349992 
L 340.044375 245.459986 
L 342.224063 245.300263 
L 342.768984 245.644067 
L 343.858828 246.918419 
L 344.948672 248.168423 
L 345.493594 248.504653 
L 346.583438 248.742398 
L 347.673281 248.656391 
L 348.763125 248.634941 
L 349.852969 249.056911 
L 353.1225 250.493872 
L 353.667422 250.55181 
L 355.302188 250.247587 
L 355.847109 250.310481 
L 356.936953 250.800806 
L 358.026797 251.336836 
L 358.571719 251.360283 
L 360.206484 250.685523 
L 360.751406 250.791193 
L 361.84125 251.531935 
L 363.476016 252.603161 
L 364.565859 253.079823 
L 365.655703 253.039829 
L 366.745547 252.998807 
L 367.835391 253.294291 
L 369.470156 253.847231 
L 370.015078 253.863128 
L 372.194766 253.367261 
L 374.374453 254.209211 
L 375.464297 254.225972 
L 377.643984 253.91322 
L 378.733828 254.284676 
L 380.368594 254.862754 
L 381.458438 254.878356 
L 382.548281 254.80765 
L 383.638125 255.137401 
L 386.362734 256.274867 
L 387.452578 257.067069 
L 387.9975 257.320361 
L 389.087344 257.471586 
L 391.267031 257.563526 
L 392.356875 257.4745 
L 393.446719 257.712486 
L 394.536563 257.996256 
L 397.261172 258.109816 
L 398.351016 258.286248 
L 399.440859 258.176389 
L 401.075625 257.607378 
L 401.075625 257.607378 
" style="fill:none;stroke:#1f77b4;stroke-linecap:square;stroke-width:1.5;"/>
   </g>
   <g id="line2d_32">
    <path clip-path="url(#pa982be748d)" d="M 43.606875 250.168659 
L 46.331484 248.950016 
L 48.511172 248.46079 
L 49.601016 248.230325 
L 50.690859 247.868497 
L 52.325625 247.466448 
L 53.960391 246.703216 
L 56.140078 246.076818 
L 57.229922 245.06144 
L 58.319766 244.098927 
L 58.864688 243.964901 
L 59.409609 244.103355 
L 60.499453 244.59532 
L 61.044375 244.59507 
L 61.589297 244.349047 
L 62.679141 243.320885 
L 63.768984 242.207289 
L 64.313906 241.971741 
L 64.858828 242.019034 
L 65.948672 242.440831 
L 66.493594 242.53391 
L 67.038516 242.460282 
L 67.583438 242.210542 
L 68.673281 241.308396 
L 71.397891 238.838258 
L 71.942813 238.40935 
L 72.487734 238.149871 
L 75.212344 237.55989 
L 80.116641 235.629285 
L 81.751406 234.469697 
L 82.84125 234.280312 
L 83.931094 234.135387 
L 85.565859 233.590866 
L 86.110781 233.676864 
L 86.655703 233.894028 
L 87.200625 233.932519 
L 87.745547 233.421085 
L 88.290469 232.280311 
L 89.380313 229.578552 
L 89.925234 228.695457 
L 90.470156 228.153133 
L 91.56 227.565685 
L 92.649844 227.044542 
L 94.284609 225.995192 
L 95.374453 225.126528 
L 99.188906 221.532181 
L 99.733828 221.166962 
L 100.27875 220.965764 
L 101.368594 220.798957 
L 101.913516 220.583839 
L 103.003359 219.797305 
L 104.093203 218.651289 
L 105.727969 216.335729 
L 106.272891 215.849213 
L 107.907656 214.798625 
L 114.446719 208.060508 
L 116.081484 206.719536 
L 123.165469 199.861658 
L 124.255313 198.477328 
L 125.890078 196.210551 
L 126.979922 195.092771 
L 128.069766 194.021699 
L 129.159609 192.458443 
L 131.339297 188.763331 
L 131.884219 188.130927 
L 132.974063 187.409475 
L 133.518984 187.034753 
L 134.063906 186.45807 
L 136.243594 183.601438 
L 137.878359 181.681033 
L 139.513125 179.436076 
L 141.692813 175.721256 
L 142.782656 174.605498 
L 143.8725 173.565771 
L 144.962344 172.163359 
L 146.052188 170.434229 
L 147.142031 168.323767 
L 148.776797 164.966617 
L 149.866641 163.364963 
L 152.046328 160.393809 
L 153.136172 158.607327 
L 154.770938 155.758797 
L 156.405703 153.256903 
L 158.585391 148.936019 
L 159.675234 147.531089 
L 160.765078 146.131706 
L 164.579531 140.155495 
L 167.304141 135.321093 
L 170.02875 129.013561 
L 172.208438 125.697655 
L 173.843203 122.205465 
L 176.567813 116.649474 
L 182.017031 106.070765 
L 184.196719 102.764986 
L 185.286563 100.448363 
L 186.376406 97.78373 
L 190.190859 87.694903 
L 191.280703 84.953564 
L 192.915469 80.60136 
L 194.005313 78.649482 
L 195.095156 76.794922 
L 195.640078 75.433071 
L 196.729922 71.568481 
L 197.274844 69.512555 
L 197.819766 67.996402 
L 198.364688 67.376525 
L 199.454531 67.632912 
L 199.999453 67.205335 
L 200.544375 66.033827 
L 202.724063 59.821149 
L 209.263125 45.618189 
L 210.352969 43.266863 
L 211.987734 40.012171 
L 213.6225 36.493206 
L 214.167422 35.590996 
L 214.712344 34.918656 
L 215.257266 34.523658 
L 215.802188 34.414125 
L 216.347109 34.541876 
L 216.892031 34.844762 
L 217.981875 35.880997 
L 219.616641 37.766384 
L 220.706484 38.411311 
L 221.251406 39.156786 
L 221.796328 40.932274 
L 222.34125 44.007481 
L 224.520938 59.273592 
L 225.610781 63.963982 
L 226.700625 67.009038 
L 227.790469 69.760207 
L 228.880313 73.264363 
L 230.515078 78.680138 
L 233.239688 87.035144 
L 234.874453 93.305063 
L 235.964297 97.249125 
L 237.599063 102.014039 
L 240.323672 109.41633 
L 243.048281 117.643308 
L 244.683047 122.024289 
L 246.862734 127.328528 
L 248.4975 131.949667 
L 250.132266 137.269203 
L 251.222109 139.830949 
L 252.856875 143.276411 
L 253.946719 146.11105 
L 256.126406 152.39431 
L 258.306094 157.66298 
L 262.120547 165.614277 
L 265.390078 172.837065 
L 266.479922 174.684911 
L 268.114688 176.826883 
L 269.749453 179.880789 
L 271.384219 182.730673 
L 273.018984 185.477412 
L 277.378359 193.835033 
L 278.468203 195.197025 
L 280.102969 196.943677 
L 281.737734 198.582013 
L 282.282656 199.420172 
L 283.3725 201.772997 
L 284.462344 203.983333 
L 285.007266 204.655122 
L 287.731875 207.089791 
L 289.911563 209.448824 
L 291.001406 210.836639 
L 292.636172 213.145655 
L 294.815859 215.349734 
L 296.995547 217.534752 
L 300.265078 221.41863 
L 303.534609 224.240074 
L 304.079531 224.96292 
L 305.714297 227.617243 
L 306.259219 227.928063 
L 307.349063 227.809335 
L 307.893984 227.962719 
L 308.438906 228.417071 
L 310.073672 230.242176 
L 311.708438 231.612212 
L 312.798281 232.283013 
L 316.612734 234.208916 
L 318.792422 236.499472 
L 320.972109 238.13349 
L 321.517031 238.361626 
L 322.061953 238.379686 
L 323.151797 238.175573 
L 323.696719 238.283942 
L 324.241641 238.639712 
L 325.876406 240.055958 
L 328.056094 241.01046 
L 329.690859 242.311281 
L 330.235781 242.490171 
L 331.870547 242.420547 
L 332.415469 242.711526 
L 334.050234 244.063069 
L 334.595156 244.253849 
L 335.685 244.208375 
L 336.774844 244.077232 
L 337.864688 244.196838 
L 338.409609 244.426979 
L 339.499453 245.302627 
L 340.044375 245.764797 
L 340.589297 246.061543 
L 341.134219 246.145285 
L 342.768984 245.927383 
L 343.313906 246.013207 
L 344.40375 246.545985 
L 345.493594 247.57714 
L 346.583438 248.831348 
L 347.128359 249.251853 
L 347.673281 249.477126 
L 348.763125 249.592575 
L 350.397891 249.731464 
L 352.577578 250.058188 
L 353.667422 250.529881 
L 354.212344 250.642794 
L 355.847109 250.67968 
L 356.936953 251.066617 
L 357.481875 251.044789 
L 359.116641 250.457689 
L 359.661563 250.563908 
L 361.296328 251.387502 
L 363.476016 252.445159 
L 365.110781 253.11618 
L 366.200625 253.140655 
L 366.745547 253.114786 
L 367.290469 253.20323 
L 368.925234 253.96487 
L 369.470156 254.022642 
L 371.649844 253.829454 
L 373.284609 253.882865 
L 374.374453 253.898155 
L 375.464297 254.172549 
L 376.554141 254.918551 
L 377.099063 255.331606 
L 377.643984 255.587749 
L 378.188906 255.571722 
L 378.733828 255.285405 
L 379.823672 254.514885 
L 380.368594 254.380592 
L 380.913516 254.500241 
L 382.003359 255.218131 
L 383.093203 256.073471 
L 383.638125 256.383608 
L 384.183047 256.515115 
L 385.272891 256.367258 
L 386.907656 256.189185 
L 387.452578 256.216156 
L 387.9975 256.354549 
L 389.087344 256.985367 
L 390.177188 257.755084 
L 390.722109 258.0076 
L 391.267031 258.094448 
L 391.811953 258.01471 
L 392.356875 257.793218 
L 393.446719 256.979215 
L 394.536563 256.00697 
L 395.081484 255.757321 
L 395.626406 255.760432 
L 397.261172 256.201643 
L 398.351016 256.295846 
L 399.985781 256.923876 
L 401.075625 256.70323 
L 401.075625 256.70323 
" style="fill:none;stroke:#ff7f0e;stroke-linecap:square;stroke-width:1.5;"/>
   </g>
   <g id="line2d_33">
    <path clip-path="url(#pa982be748d)" d="M 43.606875 250.034281 
L 44.696719 250.34827 
L 45.786563 250.59203 
L 47.421328 250.708172 
L 47.96625 250.58029 
L 49.601016 249.652534 
L 50.145938 249.607557 
L 51.235781 249.757726 
L 51.780703 249.702142 
L 52.325625 249.485278 
L 53.415469 248.633242 
L 55.050234 247.23133 
L 58.319766 245.360874 
L 59.409609 245.062668 
L 60.499453 244.750513 
L 61.589297 244.376266 
L 62.134219 244.367593 
L 63.768984 244.699027 
L 65.948672 244.397787 
L 66.493594 244.181441 
L 67.038516 243.713734 
L 68.128359 242.385223 
L 68.673281 241.904756 
L 69.763125 241.448693 
L 70.852969 241.235086 
L 72.487734 241.068415 
L 73.577578 240.5811 
L 74.667422 239.740752 
L 75.757266 238.912515 
L 76.302188 238.802762 
L 77.392031 238.821007 
L 77.936953 238.623529 
L 79.571719 237.505328 
L 80.116641 237.505686 
L 81.206484 237.948237 
L 81.751406 237.899333 
L 82.296328 237.482625 
L 83.386172 235.85633 
L 85.020938 233.171851 
L 86.110781 232.151766 
L 87.200625 231.306936 
L 87.745547 231.10191 
L 88.290469 231.285349 
L 89.380313 232.088835 
L 89.925234 232.086096 
L 90.470156 231.74272 
L 92.104922 230.297479 
L 92.649844 229.983214 
L 93.194766 229.851509 
L 95.374453 229.990376 
L 95.919375 229.596893 
L 98.099063 227.051791 
L 99.733828 225.946594 
L 100.27875 225.269021 
L 102.458438 221.612229 
L 103.003359 221.095033 
L 104.093203 220.5184 
L 105.727969 219.922736 
L 106.272891 219.580673 
L 106.817813 219.059359 
L 108.9975 216.177129 
L 109.542422 215.929327 
L 111.177188 215.789205 
L 111.722109 215.344741 
L 112.267031 214.549128 
L 113.901797 211.530504 
L 114.991641 210.08145 
L 115.536563 209.587387 
L 117.71625 208.173992 
L 118.261172 207.66629 
L 118.806094 207.353053 
L 119.895938 207.279598 
L 120.440859 207.034151 
L 121.530703 205.744034 
L 122.075625 205.12301 
L 122.620547 204.749727 
L 123.710391 204.331285 
L 124.255313 203.938508 
L 125.345156 202.624262 
L 126.979922 199.953144 
L 131.339297 192.373561 
L 131.884219 191.756254 
L 132.429141 191.335598 
L 133.518984 190.913213 
L 134.063906 190.722296 
L 134.608828 190.396433 
L 135.15375 189.8323 
L 136.243594 187.937115 
L 137.333438 186.112202 
L 138.423281 185.178027 
L 139.513125 184.173211 
L 140.602969 182.609291 
L 143.327578 177.869634 
L 144.417422 176.907543 
L 146.052188 175.806843 
L 146.597109 175.269087 
L 147.142031 174.554082 
L 148.776797 171.621123 
L 150.411563 168.721476 
L 152.046328 165.271943 
L 153.681094 161.752236 
L 154.770938 160.176016 
L 155.860781 158.960353 
L 157.495547 157.948124 
L 158.040469 157.179625 
L 158.585391 156.008312 
L 160.765078 150.193564 
L 161.31 149.285271 
L 162.944766 147.372798 
L 164.579531 144.59612 
L 165.669375 143.421951 
L 166.214297 142.591403 
L 166.759219 141.277099 
L 168.393984 136.276445 
L 168.938906 135.34431 
L 169.483828 134.873394 
L 170.573672 134.213869 
L 171.118594 133.473536 
L 171.663516 132.32977 
L 174.933047 124.086328 
L 176.022891 122.04506 
L 177.112734 120.193015 
L 178.202578 117.862978 
L 182.561953 107.728983 
L 183.651797 105.827451 
L 185.286563 103.457015 
L 186.376406 100.984311 
L 189.645938 93.387152 
L 190.735781 91.263075 
L 191.825625 88.409319 
L 193.460391 83.827239 
L 194.550234 81.331901 
L 195.095156 80.460838 
L 196.185 79.410156 
L 197.274844 78.305259 
L 197.819766 77.630416 
L 198.364688 76.76655 
L 198.909609 75.51188 
L 199.999453 71.94581 
L 201.089297 68.429252 
L 203.813906 60.542853 
L 205.448672 54.668652 
L 205.993594 53.138265 
L 206.538516 52.043783 
L 208.173281 49.721235 
L 208.718203 48.204079 
L 209.808047 43.74721 
L 210.897891 39.671866 
L 211.442813 38.440542 
L 211.987734 37.762434 
L 212.532656 37.467492 
L 213.6225 37.158644 
L 214.167422 36.852028 
L 215.257266 35.859046 
L 216.347109 34.721431 
L 216.892031 34.414125 
L 217.436953 34.454086 
L 218.526797 35.214163 
L 219.616641 36.138047 
L 220.161563 36.769843 
L 220.706484 37.735396 
L 221.251406 39.332428 
L 221.796328 41.862688 
L 223.976016 55.194746 
L 225.065859 59.035156 
L 226.700625 63.774515 
L 227.790469 67.890764 
L 228.880313 72.20432 
L 231.604922 81.082704 
L 233.239688 86.3312 
L 234.329531 90.870696 
L 235.964297 98.315072 
L 237.054141 102.501854 
L 238.143984 105.81856 
L 241.413516 113.805521 
L 243.593203 119.931624 
L 245.227969 124.578216 
L 246.317813 128.188689 
L 247.952578 133.871687 
L 248.4975 135.168242 
L 250.132266 138.072639 
L 251.222109 141.332444 
L 252.311953 144.646784 
L 254.491641 150.049956 
L 256.671328 155.142485 
L 258.306094 158.276244 
L 259.940859 161.108501 
L 261.030703 163.898828 
L 262.665469 168.735817 
L 263.755313 170.9451 
L 265.935 173.909872 
L 268.659609 179.055034 
L 270.839297 184.434807 
L 274.108828 190.3836 
L 275.198672 191.646762 
L 276.288516 192.800961 
L 280.102969 198.104605 
L 281.192813 200.801456 
L 282.282656 203.680793 
L 282.827578 204.664744 
L 283.917422 205.868425 
L 285.007266 207.166112 
L 287.186953 209.924985 
L 287.731875 210.473311 
L 288.821719 211.079093 
L 291.001406 211.987968 
L 291.546328 212.391653 
L 292.09125 213.210948 
L 293.181094 215.990814 
L 294.270938 218.658501 
L 295.360781 220.483164 
L 295.905703 221.014242 
L 296.450625 221.200041 
L 297.540469 221.01999 
L 298.085391 221.204009 
L 298.630313 221.795735 
L 299.720156 223.488602 
L 300.265078 224.099197 
L 300.81 224.453831 
L 302.989688 225.219382 
L 303.534609 225.718146 
L 304.079531 226.462863 
L 305.714297 229.366281 
L 306.259219 229.967599 
L 310.618594 232.805391 
L 311.163516 232.819911 
L 312.253359 232.415062 
L 312.798281 232.633251 
L 313.343203 233.374273 
L 314.433047 235.303744 
L 314.977969 235.90262 
L 315.522891 236.20046 
L 316.067813 236.293527 
L 317.702578 236.324973 
L 318.2475 236.701381 
L 319.882266 238.861919 
L 320.427188 239.174628 
L 320.972109 239.109908 
L 322.061953 238.704558 
L 322.606875 238.848527 
L 323.151797 239.334946 
L 324.241641 240.619521 
L 324.786563 241.01004 
L 327.511172 242.022486 
L 328.056094 242.312544 
L 328.601016 242.742547 
L 329.145938 243.440122 
L 330.235781 245.25818 
L 330.780703 245.876822 
L 331.325625 246.128875 
L 331.870547 246.103267 
L 332.960391 245.675765 
L 334.050234 245.255953 
L 334.595156 245.338617 
L 335.140078 245.676399 
L 336.774844 247.111562 
L 337.319766 247.443692 
L 337.864688 247.636976 
L 338.409609 247.651281 
L 340.044375 247.092403 
L 340.589297 247.319305 
L 341.134219 247.936007 
L 342.224063 249.373491 
L 342.768984 249.64189 
L 343.313906 249.528947 
L 345.493594 248.144838 
L 346.038516 248.127807 
L 346.583438 248.507808 
L 347.128359 249.32082 
L 348.218203 251.316427 
L 348.763125 251.856797 
L 349.308047 251.935433 
L 350.397891 251.357754 
L 351.487734 250.834221 
L 352.032656 250.739193 
L 352.577578 250.775038 
L 354.212344 251.231801 
L 355.847109 251.269099 
L 356.392031 251.581045 
L 357.481875 252.497955 
L 358.026797 252.793927 
L 358.571719 252.891028 
L 359.116641 252.767988 
L 360.751406 251.831592 
L 361.296328 251.947131 
L 363.476016 253.637561 
L 364.565859 254.305551 
L 365.110781 254.67207 
L 365.655703 254.847445 
L 366.745547 254.664237 
L 368.380313 254.068454 
L 369.470156 253.533246 
L 370.015078 253.381852 
L 370.56 253.434468 
L 371.104922 253.686575 
L 372.194766 254.560446 
L 373.284609 255.61944 
L 373.829531 255.986647 
L 374.919375 256.348004 
L 377.099063 256.872928 
L 380.368594 257.367108 
L 381.458438 257.727424 
L 382.548281 257.810104 
L 383.638125 257.696618 
L 384.727969 257.274775 
L 385.817813 256.707343 
L 386.362734 256.559235 
L 387.452578 256.712545 
L 388.542422 256.870673 
L 389.632266 256.889729 
L 391.267031 257.263009 
L 391.811953 257.209703 
L 393.991641 256.544953 
L 394.536563 256.66521 
L 397.261172 257.824462 
L 398.351016 258.200837 
L 398.895938 258.242419 
L 399.440859 258.077546 
L 400.530703 257.530308 
L 401.075625 257.405854 
L 401.075625 257.405854 
" style="fill:none;stroke:#2ca02c;stroke-linecap:square;stroke-width:1.5;"/>
   </g>
   <g id="patch_3">
    <path d="M 43.78125 288.430125 
L 43.78125 22.318125 
" style="fill:none;stroke:#000000;stroke-linecap:square;stroke-linejoin:miter;stroke-width:0.8;"/>
   </g>
   <g id="patch_4">
    <path d="M 400.90125 288.430125 
L 400.90125 22.318125 
" style="fill:none;stroke:#000000;stroke-linecap:square;stroke-linejoin:miter;stroke-width:0.8;"/>
   </g>
   <g id="patch_5">
    <path d="M 43.78125 288.430125 
L 400.90125 288.430125 
" style="fill:none;stroke:#000000;stroke-linecap:square;stroke-linejoin:miter;stroke-width:0.8;"/>
   </g>
   <g id="patch_6">
    <path d="M 43.78125 22.318125 
L 400.90125 22.318125 
" style="fill:none;stroke:#000000;stroke-linecap:square;stroke-linejoin:miter;stroke-width:0.8;"/>
   </g>
   <g id="text_18">
    <!-- Spektrum Vergleich -->
    <defs>
     <path d="M 53.515625 70.515625 
L 53.515625 60.890625 
Q 47.90625 63.578125 42.921875 64.890625 
Q 37.9375 66.21875 33.296875 66.21875 
Q 25.25 66.21875 20.875 63.09375 
Q 16.5 59.96875 16.5 54.203125 
Q 16.5 49.359375 19.40625 46.890625 
Q 22.3125 44.4375 30.421875 42.921875 
L 36.375 41.703125 
Q 47.40625 39.59375 52.65625 34.296875 
Q 57.90625 29 57.90625 20.125 
Q 57.90625 9.515625 50.796875 4.046875 
Q 43.703125 -1.421875 29.984375 -1.421875 
Q 24.8125 -1.421875 18.96875 -0.25 
Q 13.140625 0.921875 6.890625 3.21875 
L 6.890625 13.375 
Q 12.890625 10.015625 18.65625 8.296875 
Q 24.421875 6.59375 29.984375 6.59375 
Q 38.421875 6.59375 43.015625 9.90625 
Q 47.609375 13.234375 47.609375 19.390625 
Q 47.609375 24.75 44.3125 27.78125 
Q 41.015625 30.8125 33.5 32.328125 
L 27.484375 33.5 
Q 16.453125 35.6875 11.515625 40.375 
Q 6.59375 45.0625 6.59375 53.421875 
Q 6.59375 63.09375 13.40625 68.65625 
Q 20.21875 74.21875 32.171875 74.21875 
Q 37.3125 74.21875 42.625 73.28125 
Q 47.953125 72.359375 53.515625 70.515625 
" id="DejaVuSans-53"/>
     <path d="M 18.109375 8.203125 
L 18.109375 -20.796875 
L 9.078125 -20.796875 
L 9.078125 54.6875 
L 18.109375 54.6875 
L 18.109375 46.390625 
Q 20.953125 51.265625 25.265625 53.625 
Q 29.59375 56 35.59375 56 
Q 45.5625 56 51.78125 48.09375 
Q 58.015625 40.1875 58.015625 27.296875 
Q 58.015625 14.40625 51.78125 6.484375 
Q 45.5625 -1.421875 35.59375 -1.421875 
Q 29.59375 -1.421875 25.265625 0.953125 
Q 20.953125 3.328125 18.109375 8.203125 
M 48.6875 27.296875 
Q 48.6875 37.203125 44.609375 42.84375 
Q 40.53125 48.484375 33.40625 48.484375 
Q 26.265625 48.484375 22.1875 42.84375 
Q 18.109375 37.203125 18.109375 27.296875 
Q 18.109375 17.390625 22.1875 11.75 
Q 26.265625 6.109375 33.40625 6.109375 
Q 40.53125 6.109375 44.609375 11.75 
Q 48.6875 17.390625 48.6875 27.296875 
" id="DejaVuSans-70"/>
     <path d="M 18.3125 70.21875 
L 18.3125 54.6875 
L 36.8125 54.6875 
L 36.8125 47.703125 
L 18.3125 47.703125 
L 18.3125 18.015625 
Q 18.3125 11.328125 20.140625 9.421875 
Q 21.96875 7.515625 27.59375 7.515625 
L 36.8125 7.515625 
L 36.8125 0 
L 27.59375 0 
Q 17.1875 0 13.234375 3.875 
Q 9.28125 7.765625 9.28125 18.015625 
L 9.28125 47.703125 
L 2.6875 47.703125 
L 2.6875 54.6875 
L 9.28125 54.6875 
L 9.28125 70.21875 
z
" id="DejaVuSans-74"/>
     <path d="M 52 44.1875 
Q 55.375 50.25 60.0625 53.125 
Q 64.75 56 71.09375 56 
Q 79.640625 56 84.28125 50.015625 
Q 88.921875 44.046875 88.921875 33.015625 
L 88.921875 0 
L 79.890625 0 
L 79.890625 32.71875 
Q 79.890625 40.578125 77.09375 44.375 
Q 74.3125 48.1875 68.609375 48.1875 
Q 61.625 48.1875 57.5625 43.546875 
Q 53.515625 38.921875 53.515625 30.90625 
L 53.515625 0 
L 44.484375 0 
L 44.484375 32.71875 
Q 44.484375 40.625 41.703125 44.40625 
Q 38.921875 48.1875 33.109375 48.1875 
Q 26.21875 48.1875 22.15625 43.53125 
Q 18.109375 38.875 18.109375 30.90625 
L 18.109375 0 
L 9.078125 0 
L 9.078125 54.6875 
L 18.109375 54.6875 
L 18.109375 46.1875 
Q 21.1875 51.21875 25.484375 53.609375 
Q 29.78125 56 35.6875 56 
Q 41.65625 56 45.828125 52.96875 
Q 50 49.953125 52 44.1875 
" id="DejaVuSans-6d"/>
     <path d="M 28.609375 0 
L 0.78125 72.90625 
L 11.078125 72.90625 
L 34.1875 11.53125 
L 57.328125 72.90625 
L 67.578125 72.90625 
L 39.796875 0 
z
" id="DejaVuSans-56"/>
     <path d="M 45.40625 27.984375 
Q 45.40625 37.75 41.375 43.109375 
Q 37.359375 48.484375 30.078125 48.484375 
Q 22.859375 48.484375 18.828125 43.109375 
Q 14.796875 37.75 14.796875 27.984375 
Q 14.796875 18.265625 18.828125 12.890625 
Q 22.859375 7.515625 30.078125 7.515625 
Q 37.359375 7.515625 41.375 12.890625 
Q 45.40625 18.265625 45.40625 27.984375 
M 54.390625 6.78125 
Q 54.390625 -7.171875 48.1875 -13.984375 
Q 42 -20.796875 29.203125 -20.796875 
Q 24.46875 -20.796875 20.265625 -20.09375 
Q 16.0625 -19.390625 12.109375 -17.921875 
L 12.109375 -9.1875 
Q 16.0625 -11.328125 19.921875 -12.34375 
Q 23.78125 -13.375 27.78125 -13.375 
Q 36.625 -13.375 41.015625 -8.765625 
Q 45.40625 -4.15625 45.40625 5.171875 
L 45.40625 9.625 
Q 42.625 4.78125 38.28125 2.390625 
Q 33.9375 0 27.875 0 
Q 17.828125 0 11.671875 7.65625 
Q 5.515625 15.328125 5.515625 27.984375 
Q 5.515625 40.671875 11.671875 48.328125 
Q 17.828125 56 27.875 56 
Q 33.9375 56 38.28125 53.609375 
Q 42.625 51.21875 45.40625 46.390625 
L 45.40625 54.6875 
L 54.390625 54.6875 
z
" id="DejaVuSans-67"/>
     <path d="M 9.421875 75.984375 
L 18.40625 75.984375 
L 18.40625 0 
L 9.421875 0 
z
" id="DejaVuSans-6c"/>
     <path d="M 9.421875 54.6875 
L 18.40625 54.6875 
L 18.40625 0 
L 9.421875 0 
z
M 9.421875 75.984375 
L 18.40625 75.984375 
L 18.40625 64.59375 
L 9.421875 64.59375 
z
" id="DejaVuSans-69"/>
     <path d="M 48.78125 52.59375 
L 48.78125 44.1875 
Q 44.96875 46.296875 41.140625 47.34375 
Q 37.3125 48.390625 33.40625 48.390625 
Q 24.65625 48.390625 19.8125 42.84375 
Q 14.984375 37.3125 14.984375 27.296875 
Q 14.984375 17.28125 19.8125 11.734375 
Q 24.65625 6.203125 33.40625 6.203125 
Q 37.3125 6.203125 41.140625 7.25 
Q 44.96875 8.296875 48.78125 10.40625 
L 48.78125 2.09375 
Q 45.015625 0.34375 40.984375 -0.53125 
Q 36.96875 -1.421875 32.421875 -1.421875 
Q 20.0625 -1.421875 12.78125 6.34375 
Q 5.515625 14.109375 5.515625 27.296875 
Q 5.515625 40.671875 12.859375 48.328125 
Q 20.21875 56 33.015625 56 
Q 37.15625 56 41.109375 55.140625 
Q 45.0625 54.296875 48.78125 52.59375 
" id="DejaVuSans-63"/>
     <path d="M 54.890625 33.015625 
L 54.890625 0 
L 45.90625 0 
L 45.90625 32.71875 
Q 45.90625 40.484375 42.875 44.328125 
Q 39.84375 48.1875 33.796875 48.1875 
Q 26.515625 48.1875 22.3125 43.546875 
Q 18.109375 38.921875 18.109375 30.90625 
L 18.109375 0 
L 9.078125 0 
L 9.078125 75.984375 
L 18.109375 75.984375 
L 18.109375 46.1875 
Q 21.34375 51.125 25.703125 53.5625 
Q 30.078125 56 35.796875 56 
Q 45.21875 56 50.046875 50.171875 
Q 54.890625 44.34375 54.890625 33.015625 
" id="DejaVuSans-68"/>
    </defs>
    <g transform="translate(162.992813 16.318125)scale(0.12 -0.12)">
     <use xlink:href="#DejaVuSans-53"/>
     <use x="63.476562" xlink:href="#DejaVuSans-70"/>
     <use x="126.953125" xlink:href="#DejaVuSans-65"/>
     <use x="188.476562" xlink:href="#DejaVuSans-6b"/>
     <use x="246.386719" xlink:href="#DejaVuSans-74"/>
     <use x="285.595703" xlink:href="#DejaVuSans-72"/>
     <use x="326.708984" xlink:href="#DejaVuSans-75"/>
     <use x="390.087891" xlink:href="#DejaVuSans-6d"/>
     <use x="487.5" xlink:href="#DejaVuSans-20"/>
     <use x="519.287109" xlink:href="#DejaVuSans-56"/>
     <use x="587.585938" xlink:href="#DejaVuSans-65"/>
     <use x="649.109375" xlink:href="#DejaVuSans-72"/>
     <use x="690.207031" xlink:href="#DejaVuSans-67"/>
     <use x="753.683594" xlink:href="#DejaVuSans-6c"/>
     <use x="781.466797" xlink:href="#DejaVuSans-65"/>
     <use x="842.990234" xlink:href="#DejaVuSans-69"/>
     <use x="870.773438" xlink:href="#DejaVuSans-63"/>
     <use x="925.753906" xlink:href="#DejaVuSans-68"/>
    </g>
   </g>
   <g id="legend_1">
    <g id="patch_7">
     <path d="M 315.145 74.3525 
L 393.90125 74.3525 
Q 395.90125 74.3525 395.90125 72.3525 
L 395.90125 29.318125 
Q 395.90125 27.318125 393.90125 27.318125 
L 315.145 27.318125 
Q 313.145 27.318125 313.145 29.318125 
L 313.145 72.3525 
Q 313.145 74.3525 315.145 74.3525 
z
" style="fill:#ffffff;opacity:0.8;stroke:#cccccc;stroke-linejoin:miter;"/>
    </g>
    <g id="line2d_34">
     <path d="M 317.145 35.416562 
L 337.145 35.416562 
" style="fill:none;stroke:#1f77b4;stroke-linecap:square;stroke-width:1.5;"/>
    </g>
    <g id="line2d_35"/>
    <g id="text_19">
     <!-- 0.015 ms -->
     <defs>
      <path d="M 10.796875 72.90625 
L 49.515625 72.90625 
L 49.515625 64.59375 
L 19.828125 64.59375 
L 19.828125 46.734375 
Q 21.96875 47.46875 24.109375 47.828125 
Q 26.265625 48.1875 28.421875 48.1875 
Q 40.625 48.1875 47.75 41.5 
Q 54.890625 34.8125 54.890625 23.390625 
Q 54.890625 11.625 47.5625 5.09375 
Q 40.234375 -1.421875 26.90625 -1.421875 
Q 22.3125 -1.421875 17.546875 -0.640625 
Q 12.796875 0.140625 7.71875 1.703125 
L 7.71875 11.625 
Q 12.109375 9.234375 16.796875 8.0625 
Q 21.484375 6.890625 26.703125 6.890625 
Q 35.15625 6.890625 40.078125 11.328125 
Q 45.015625 15.765625 45.015625 23.390625 
Q 45.015625 31 40.078125 35.4375 
Q 35.15625 39.890625 26.703125 39.890625 
Q 22.75 39.890625 18.8125 39.015625 
Q 14.890625 38.140625 10.796875 36.28125 
z
" id="DejaVuSans-35"/>
      <path d="M 44.28125 53.078125 
L 44.28125 44.578125 
Q 40.484375 46.53125 36.375 47.5 
Q 32.28125 48.484375 27.875 48.484375 
Q 21.1875 48.484375 17.84375 46.4375 
Q 14.5 44.390625 14.5 40.28125 
Q 14.5 37.15625 16.890625 35.375 
Q 19.28125 33.59375 26.515625 31.984375 
L 29.59375 31.296875 
Q 39.15625 29.25 43.1875 25.515625 
Q 47.21875 21.78125 47.21875 15.09375 
Q 47.21875 7.46875 41.1875 3.015625 
Q 35.15625 -1.421875 24.609375 -1.421875 
Q 20.21875 -1.421875 15.453125 -0.5625 
Q 10.6875 0.296875 5.421875 2 
L 5.421875 11.28125 
Q 10.40625 8.6875 15.234375 7.390625 
Q 20.0625 6.109375 24.8125 6.109375 
Q 31.15625 6.109375 34.5625 8.28125 
Q 37.984375 10.453125 37.984375 14.40625 
Q 37.984375 18.0625 35.515625 20.015625 
Q 33.0625 21.96875 24.703125 23.78125 
L 21.578125 24.515625 
Q 13.234375 26.265625 9.515625 29.90625 
Q 5.8125 33.546875 5.8125 39.890625 
Q 5.8125 47.609375 11.28125 51.796875 
Q 16.75 56 26.8125 56 
Q 31.78125 56 36.171875 55.265625 
Q 40.578125 54.546875 44.28125 53.078125 
" id="DejaVuSans-73"/>
     </defs>
     <g transform="translate(345.145 38.916562)scale(0.1 -0.1)">
      <use xlink:href="#DejaVuSans-30"/>
      <use x="63.623047" xlink:href="#DejaVuSans-2e"/>
      <use x="95.410156" xlink:href="#DejaVuSans-30"/>
      <use x="159.033203" xlink:href="#DejaVuSans-31"/>
      <use x="222.65625" xlink:href="#DejaVuSans-35"/>
      <use x="286.279297" xlink:href="#DejaVuSans-20"/>
      <use x="318.066406" xlink:href="#DejaVuSans-6d"/>
      <use x="415.478516" xlink:href="#DejaVuSans-73"/>
     </g>
    </g>
    <g id="line2d_36">
     <path d="M 317.145 50.094688 
L 337.145 50.094688 
" style="fill:none;stroke:#ff7f0e;stroke-linecap:square;stroke-width:1.5;"/>
    </g>
    <g id="line2d_37"/>
    <g id="text_20">
     <!-- 0.1 ms -->
     <g transform="translate(345.145 53.594688)scale(0.1 -0.1)">
      <use xlink:href="#DejaVuSans-30"/>
      <use x="63.623047" xlink:href="#DejaVuSans-2e"/>
      <use x="95.410156" xlink:href="#DejaVuSans-31"/>
      <use x="159.033203" xlink:href="#DejaVuSans-20"/>
      <use x="190.820312" xlink:href="#DejaVuSans-6d"/>
      <use x="288.232422" xlink:href="#DejaVuSans-73"/>
     </g>
    </g>
    <g id="line2d_38">
     <path d="M 317.145 64.772812 
L 337.145 64.772812 
" style="fill:none;stroke:#2ca02c;stroke-linecap:square;stroke-width:1.5;"/>
    </g>
    <g id="line2d_39"/>
    <g id="text_21">
     <!-- 0.6 ms -->
     <g transform="translate(345.145 68.272812)scale(0.1 -0.1)">
      <use xlink:href="#DejaVuSans-30"/>
      <use x="63.623047" xlink:href="#DejaVuSans-2e"/>
      <use x="95.410156" xlink:href="#DejaVuSans-36"/>
      <use x="159.033203" xlink:href="#DejaVuSans-20"/>
      <use x="190.820312" xlink:href="#DejaVuSans-6d"/>
      <use x="288.232422" xlink:href="#DejaVuSans-73"/>
     </g>
    </g>
   </g>
  </g>
 </g>
 <defs>
  <clipPath id="pa982be748d">
   <rect height="266.112" width="357.12" x="43.78125" y="22.318125"/>
  </clipPath>
 </defs>
</svg>
