<?xml version="1.0" encoding="utf-8" standalone="no"?>
<!DOCTYPE svg PUBLIC "-//W3C//DTD SVG 1.1//EN"
  "http://www.w3.org/Graphics/SVG/1.1/DTD/svg11.dtd">
<!-- Created with matplotlib (http://matplotlib.org/) -->
<svg height="325pt" version="1.1" viewBox="0 0 424 325" width="424pt" xmlns="http://www.w3.org/2000/svg" xmlns:xlink="http://www.w3.org/1999/xlink">
 <defs>
  <style type="text/css">
*{stroke-linecap:butt;stroke-linejoin:round;}
  </style>
 </defs>
 <g id="figure_1">
  <g id="patch_1">
   <path d="M 0 325.986375 
L 424.0075 325.986375 
L 424.0075 0 
L 0 0 
z
" style="fill:#ffffff;"/>
  </g>
  <g id="axes_1">
   <g id="patch_2">
    <path d="M 43.78125 288.430125 
L 400.90125 288.430125 
L 400.90125 22.318125 
L 43.78125 22.318125 
z
" style="fill:#ffffff;"/>
   </g>
   <g id="matplotlib.axis_1">
    <g id="xtick_1">
     <g id="line2d_1">
      <path clip-path="url(#p368c0be996)" d="M 43.78125 288.430125 
L 43.78125 22.318125 
" style="fill:none;stroke:#b0b0b0;stroke-linecap:square;stroke-width:0.8;"/>
     </g>
     <g id="line2d_2">
      <defs>
       <path d="M 0 0 
L 0 3.5 
" id="m0ad9d2810e" style="stroke:#000000;stroke-width:0.8;"/>
      </defs>
      <g>
       <use style="stroke:#000000;stroke-width:0.8;" x="43.78125" xlink:href="#m0ad9d2810e" y="288.430125"/>
      </g>
     </g>
     <g id="text_1">
      <!-- −80000 -->
      <defs>
       <path d="M 10.59375 35.5 
L 73.1875 35.5 
L 73.1875 27.203125 
L 10.59375 27.203125 
z
" id="DejaVuSans-2212"/>
       <path d="M 31.78125 34.625 
Q 24.75 34.625 20.71875 30.859375 
Q 16.703125 27.09375 16.703125 20.515625 
Q 16.703125 13.921875 20.71875 10.15625 
Q 24.75 6.390625 31.78125 6.390625 
Q 38.8125 6.390625 42.859375 10.171875 
Q 46.921875 13.96875 46.921875 20.515625 
Q 46.921875 27.09375 42.890625 30.859375 
Q 38.875 34.625 31.78125 34.625 
M 21.921875 38.8125 
Q 15.578125 40.375 12.03125 44.71875 
Q 8.5 49.078125 8.5 55.328125 
Q 8.5 64.0625 14.71875 69.140625 
Q 20.953125 74.21875 31.78125 74.21875 
Q 42.671875 74.21875 48.875 69.140625 
Q 55.078125 64.0625 55.078125 55.328125 
Q 55.078125 49.078125 51.53125 44.71875 
Q 48 40.375 41.703125 38.8125 
Q 48.828125 37.15625 52.796875 32.3125 
Q 56.78125 27.484375 56.78125 20.515625 
Q 56.78125 9.90625 50.3125 4.234375 
Q 43.84375 -1.421875 31.78125 -1.421875 
Q 19.734375 -1.421875 13.25 4.234375 
Q 6.78125 9.90625 6.78125 20.515625 
Q 6.78125 27.484375 10.78125 32.3125 
Q 14.796875 37.15625 21.921875 38.8125 
M 18.3125 54.390625 
Q 18.3125 48.734375 21.84375 45.5625 
Q 25.390625 42.390625 31.78125 42.390625 
Q 38.140625 42.390625 41.71875 45.5625 
Q 45.3125 48.734375 45.3125 54.390625 
Q 45.3125 60.0625 41.71875 63.234375 
Q 38.140625 66.40625 31.78125 66.40625 
Q 25.390625 66.40625 21.84375 63.234375 
Q 18.3125 60.0625 18.3125 54.390625 
" id="DejaVuSans-38"/>
       <path d="M 31.78125 66.40625 
Q 24.171875 66.40625 20.328125 58.90625 
Q 16.5 51.421875 16.5 36.375 
Q 16.5 21.390625 20.328125 13.890625 
Q 24.171875 6.390625 31.78125 6.390625 
Q 39.453125 6.390625 43.28125 13.890625 
Q 47.125 21.390625 47.125 36.375 
Q 47.125 51.421875 43.28125 58.90625 
Q 39.453125 66.40625 31.78125 66.40625 
M 31.78125 74.21875 
Q 44.046875 74.21875 50.515625 64.515625 
Q 56.984375 54.828125 56.984375 36.375 
Q 56.984375 17.96875 50.515625 8.265625 
Q 44.046875 -1.421875 31.78125 -1.421875 
Q 19.53125 -1.421875 13.0625 8.265625 
Q 6.59375 17.96875 6.59375 36.375 
Q 6.59375 54.828125 13.0625 64.515625 
Q 19.53125 74.21875 31.78125 74.21875 
" id="DejaVuSans-30"/>
      </defs>
      <g transform="translate(23.685156 303.028562)scale(0.1 -0.1)">
       <use xlink:href="#DejaVuSans-2212"/>
       <use x="83.789062" xlink:href="#DejaVuSans-38"/>
       <use x="147.412109" xlink:href="#DejaVuSans-30"/>
       <use x="211.035156" xlink:href="#DejaVuSans-30"/>
       <use x="274.658203" xlink:href="#DejaVuSans-30"/>
       <use x="338.28125" xlink:href="#DejaVuSans-30"/>
      </g>
     </g>
    </g>
    <g id="xtick_2">
     <g id="line2d_3">
      <path clip-path="url(#p368c0be996)" d="M 88.42125 288.430125 
L 88.42125 22.318125 
" style="fill:none;stroke:#b0b0b0;stroke-linecap:square;stroke-width:0.8;"/>
     </g>
     <g id="line2d_4">
      <g>
       <use style="stroke:#000000;stroke-width:0.8;" x="88.42125" xlink:href="#m0ad9d2810e" y="288.430125"/>
      </g>
     </g>
     <g id="text_2">
      <!-- −60000 -->
      <defs>
       <path d="M 33.015625 40.375 
Q 26.375 40.375 22.484375 35.828125 
Q 18.609375 31.296875 18.609375 23.390625 
Q 18.609375 15.53125 22.484375 10.953125 
Q 26.375 6.390625 33.015625 6.390625 
Q 39.65625 6.390625 43.53125 10.953125 
Q 47.40625 15.53125 47.40625 23.390625 
Q 47.40625 31.296875 43.53125 35.828125 
Q 39.65625 40.375 33.015625 40.375 
M 52.59375 71.296875 
L 52.59375 62.3125 
Q 48.875 64.0625 45.09375 64.984375 
Q 41.3125 65.921875 37.59375 65.921875 
Q 27.828125 65.921875 22.671875 59.328125 
Q 17.53125 52.734375 16.796875 39.40625 
Q 19.671875 43.65625 24.015625 45.921875 
Q 28.375 48.1875 33.59375 48.1875 
Q 44.578125 48.1875 50.953125 41.515625 
Q 57.328125 34.859375 57.328125 23.390625 
Q 57.328125 12.15625 50.6875 5.359375 
Q 44.046875 -1.421875 33.015625 -1.421875 
Q 20.359375 -1.421875 13.671875 8.265625 
Q 6.984375 17.96875 6.984375 36.375 
Q 6.984375 53.65625 15.1875 63.9375 
Q 23.390625 74.21875 37.203125 74.21875 
Q 40.921875 74.21875 44.703125 73.484375 
Q 48.484375 72.75 52.59375 71.296875 
" id="DejaVuSans-36"/>
      </defs>
      <g transform="translate(68.325156 303.028562)scale(0.1 -0.1)">
       <use xlink:href="#DejaVuSans-2212"/>
       <use x="83.789062" xlink:href="#DejaVuSans-36"/>
       <use x="147.412109" xlink:href="#DejaVuSans-30"/>
       <use x="211.035156" xlink:href="#DejaVuSans-30"/>
       <use x="274.658203" xlink:href="#DejaVuSans-30"/>
       <use x="338.28125" xlink:href="#DejaVuSans-30"/>
      </g>
     </g>
    </g>
    <g id="xtick_3">
     <g id="line2d_5">
      <path clip-path="url(#p368c0be996)" d="M 133.06125 288.430125 
L 133.06125 22.318125 
" style="fill:none;stroke:#b0b0b0;stroke-linecap:square;stroke-width:0.8;"/>
     </g>
     <g id="line2d_6">
      <g>
       <use style="stroke:#000000;stroke-width:0.8;" x="133.06125" xlink:href="#m0ad9d2810e" y="288.430125"/>
      </g>
     </g>
     <g id="text_3">
      <!-- −40000 -->
      <defs>
       <path d="M 37.796875 64.3125 
L 12.890625 25.390625 
L 37.796875 25.390625 
z
M 35.203125 72.90625 
L 47.609375 72.90625 
L 47.609375 25.390625 
L 58.015625 25.390625 
L 58.015625 17.1875 
L 47.609375 17.1875 
L 47.609375 0 
L 37.796875 0 
L 37.796875 17.1875 
L 4.890625 17.1875 
L 4.890625 26.703125 
z
" id="DejaVuSans-34"/>
      </defs>
      <g transform="translate(112.965156 303.028562)scale(0.1 -0.1)">
       <use xlink:href="#DejaVuSans-2212"/>
       <use x="83.789062" xlink:href="#DejaVuSans-34"/>
       <use x="147.412109" xlink:href="#DejaVuSans-30"/>
       <use x="211.035156" xlink:href="#DejaVuSans-30"/>
       <use x="274.658203" xlink:href="#DejaVuSans-30"/>
       <use x="338.28125" xlink:href="#DejaVuSans-30"/>
      </g>
     </g>
    </g>
    <g id="xtick_4">
     <g id="line2d_7">
      <path clip-path="url(#p368c0be996)" d="M 177.70125 288.430125 
L 177.70125 22.318125 
" style="fill:none;stroke:#b0b0b0;stroke-linecap:square;stroke-width:0.8;"/>
     </g>
     <g id="line2d_8">
      <g>
       <use style="stroke:#000000;stroke-width:0.8;" x="177.70125" xlink:href="#m0ad9d2810e" y="288.430125"/>
      </g>
     </g>
     <g id="text_4">
      <!-- −20000 -->
      <defs>
       <path d="M 19.1875 8.296875 
L 53.609375 8.296875 
L 53.609375 0 
L 7.328125 0 
L 7.328125 8.296875 
Q 12.9375 14.109375 22.625 23.890625 
Q 32.328125 33.6875 34.8125 36.53125 
Q 39.546875 41.84375 41.421875 45.53125 
Q 43.3125 49.21875 43.3125 52.78125 
Q 43.3125 58.59375 39.234375 62.25 
Q 35.15625 65.921875 28.609375 65.921875 
Q 23.96875 65.921875 18.8125 64.3125 
Q 13.671875 62.703125 7.8125 59.421875 
L 7.8125 69.390625 
Q 13.765625 71.78125 18.9375 73 
Q 24.125 74.21875 28.421875 74.21875 
Q 39.75 74.21875 46.484375 68.546875 
Q 53.21875 62.890625 53.21875 53.421875 
Q 53.21875 48.921875 51.53125 44.890625 
Q 49.859375 40.875 45.40625 35.40625 
Q 44.1875 33.984375 37.640625 27.21875 
Q 31.109375 20.453125 19.1875 8.296875 
" id="DejaVuSans-32"/>
      </defs>
      <g transform="translate(157.605156 303.028562)scale(0.1 -0.1)">
       <use xlink:href="#DejaVuSans-2212"/>
       <use x="83.789062" xlink:href="#DejaVuSans-32"/>
       <use x="147.412109" xlink:href="#DejaVuSans-30"/>
       <use x="211.035156" xlink:href="#DejaVuSans-30"/>
       <use x="274.658203" xlink:href="#DejaVuSans-30"/>
       <use x="338.28125" xlink:href="#DejaVuSans-30"/>
      </g>
     </g>
    </g>
    <g id="xtick_5">
     <g id="line2d_9">
      <path clip-path="url(#p368c0be996)" d="M 222.34125 288.430125 
L 222.34125 22.318125 
" style="fill:none;stroke:#b0b0b0;stroke-linecap:square;stroke-width:0.8;"/>
     </g>
     <g id="line2d_10">
      <g>
       <use style="stroke:#000000;stroke-width:0.8;" x="222.34125" xlink:href="#m0ad9d2810e" y="288.430125"/>
      </g>
     </g>
     <g id="text_5">
      <!-- 0 -->
      <g transform="translate(219.16 303.028562)scale(0.1 -0.1)">
       <use xlink:href="#DejaVuSans-30"/>
      </g>
     </g>
    </g>
    <g id="xtick_6">
     <g id="line2d_11">
      <path clip-path="url(#p368c0be996)" d="M 266.98125 288.430125 
L 266.98125 22.318125 
" style="fill:none;stroke:#b0b0b0;stroke-linecap:square;stroke-width:0.8;"/>
     </g>
     <g id="line2d_12">
      <g>
       <use style="stroke:#000000;stroke-width:0.8;" x="266.98125" xlink:href="#m0ad9d2810e" y="288.430125"/>
      </g>
     </g>
     <g id="text_6">
      <!-- 20000 -->
      <g transform="translate(251.075 303.028562)scale(0.1 -0.1)">
       <use xlink:href="#DejaVuSans-32"/>
       <use x="63.623047" xlink:href="#DejaVuSans-30"/>
       <use x="127.246094" xlink:href="#DejaVuSans-30"/>
       <use x="190.869141" xlink:href="#DejaVuSans-30"/>
       <use x="254.492188" xlink:href="#DejaVuSans-30"/>
      </g>
     </g>
    </g>
    <g id="xtick_7">
     <g id="line2d_13">
      <path clip-path="url(#p368c0be996)" d="M 311.62125 288.430125 
L 311.62125 22.318125 
" style="fill:none;stroke:#b0b0b0;stroke-linecap:square;stroke-width:0.8;"/>
     </g>
     <g id="line2d_14">
      <g>
       <use style="stroke:#000000;stroke-width:0.8;" x="311.62125" xlink:href="#m0ad9d2810e" y="288.430125"/>
      </g>
     </g>
     <g id="text_7">
      <!-- 40000 -->
      <g transform="translate(295.715 303.028562)scale(0.1 -0.1)">
       <use xlink:href="#DejaVuSans-34"/>
       <use x="63.623047" xlink:href="#DejaVuSans-30"/>
       <use x="127.246094" xlink:href="#DejaVuSans-30"/>
       <use x="190.869141" xlink:href="#DejaVuSans-30"/>
       <use x="254.492188" xlink:href="#DejaVuSans-30"/>
      </g>
     </g>
    </g>
    <g id="xtick_8">
     <g id="line2d_15">
      <path clip-path="url(#p368c0be996)" d="M 356.26125 288.430125 
L 356.26125 22.318125 
" style="fill:none;stroke:#b0b0b0;stroke-linecap:square;stroke-width:0.8;"/>
     </g>
     <g id="line2d_16">
      <g>
       <use style="stroke:#000000;stroke-width:0.8;" x="356.26125" xlink:href="#m0ad9d2810e" y="288.430125"/>
      </g>
     </g>
     <g id="text_8">
      <!-- 60000 -->
      <g transform="translate(340.355 303.028562)scale(0.1 -0.1)">
       <use xlink:href="#DejaVuSans-36"/>
       <use x="63.623047" xlink:href="#DejaVuSans-30"/>
       <use x="127.246094" xlink:href="#DejaVuSans-30"/>
       <use x="190.869141" xlink:href="#DejaVuSans-30"/>
       <use x="254.492188" xlink:href="#DejaVuSans-30"/>
      </g>
     </g>
    </g>
    <g id="xtick_9">
     <g id="line2d_17">
      <path clip-path="url(#p368c0be996)" d="M 400.90125 288.430125 
L 400.90125 22.318125 
" style="fill:none;stroke:#b0b0b0;stroke-linecap:square;stroke-width:0.8;"/>
     </g>
     <g id="line2d_18">
      <g>
       <use style="stroke:#000000;stroke-width:0.8;" x="400.90125" xlink:href="#m0ad9d2810e" y="288.430125"/>
      </g>
     </g>
     <g id="text_9">
      <!-- 80000 -->
      <g transform="translate(384.995 303.028562)scale(0.1 -0.1)">
       <use xlink:href="#DejaVuSans-38"/>
       <use x="63.623047" xlink:href="#DejaVuSans-30"/>
       <use x="127.246094" xlink:href="#DejaVuSans-30"/>
       <use x="190.869141" xlink:href="#DejaVuSans-30"/>
       <use x="254.492188" xlink:href="#DejaVuSans-30"/>
      </g>
     </g>
    </g>
    <g id="text_10">
     <!-- Frequenz [kHz] -->
     <defs>
      <path d="M 9.8125 72.90625 
L 51.703125 72.90625 
L 51.703125 64.59375 
L 19.671875 64.59375 
L 19.671875 43.109375 
L 48.578125 43.109375 
L 48.578125 34.8125 
L 19.671875 34.8125 
L 19.671875 0 
L 9.8125 0 
z
" id="DejaVuSans-46"/>
      <path d="M 41.109375 46.296875 
Q 39.59375 47.171875 37.8125 47.578125 
Q 36.03125 48 33.890625 48 
Q 26.265625 48 22.1875 43.046875 
Q 18.109375 38.09375 18.109375 28.8125 
L 18.109375 0 
L 9.078125 0 
L 9.078125 54.6875 
L 18.109375 54.6875 
L 18.109375 46.1875 
Q 20.953125 51.171875 25.484375 53.578125 
Q 30.03125 56 36.53125 56 
Q 37.453125 56 38.578125 55.875 
Q 39.703125 55.765625 41.0625 55.515625 
z
" id="DejaVuSans-72"/>
      <path d="M 56.203125 29.59375 
L 56.203125 25.203125 
L 14.890625 25.203125 
Q 15.484375 15.921875 20.484375 11.0625 
Q 25.484375 6.203125 34.421875 6.203125 
Q 39.59375 6.203125 44.453125 7.46875 
Q 49.3125 8.734375 54.109375 11.28125 
L 54.109375 2.78125 
Q 49.265625 0.734375 44.1875 -0.34375 
Q 39.109375 -1.421875 33.890625 -1.421875 
Q 20.796875 -1.421875 13.15625 6.1875 
Q 5.515625 13.8125 5.515625 26.8125 
Q 5.515625 40.234375 12.765625 48.109375 
Q 20.015625 56 32.328125 56 
Q 43.359375 56 49.78125 48.890625 
Q 56.203125 41.796875 56.203125 29.59375 
M 47.21875 32.234375 
Q 47.125 39.59375 43.09375 43.984375 
Q 39.0625 48.390625 32.421875 48.390625 
Q 24.90625 48.390625 20.390625 44.140625 
Q 15.875 39.890625 15.1875 32.171875 
z
" id="DejaVuSans-65"/>
      <path d="M 14.796875 27.296875 
Q 14.796875 17.390625 18.875 11.75 
Q 22.953125 6.109375 30.078125 6.109375 
Q 37.203125 6.109375 41.296875 11.75 
Q 45.40625 17.390625 45.40625 27.296875 
Q 45.40625 37.203125 41.296875 42.84375 
Q 37.203125 48.484375 30.078125 48.484375 
Q 22.953125 48.484375 18.875 42.84375 
Q 14.796875 37.203125 14.796875 27.296875 
M 45.40625 8.203125 
Q 42.578125 3.328125 38.25 0.953125 
Q 33.9375 -1.421875 27.875 -1.421875 
Q 17.96875 -1.421875 11.734375 6.484375 
Q 5.515625 14.40625 5.515625 27.296875 
Q 5.515625 40.1875 11.734375 48.09375 
Q 17.96875 56 27.875 56 
Q 33.9375 56 38.25 53.625 
Q 42.578125 51.265625 45.40625 46.390625 
L 45.40625 54.6875 
L 54.390625 54.6875 
L 54.390625 -20.796875 
L 45.40625 -20.796875 
z
" id="DejaVuSans-71"/>
      <path d="M 8.5 21.578125 
L 8.5 54.6875 
L 17.484375 54.6875 
L 17.484375 21.921875 
Q 17.484375 14.15625 20.5 10.265625 
Q 23.53125 6.390625 29.59375 6.390625 
Q 36.859375 6.390625 41.078125 11.03125 
Q 45.3125 15.671875 45.3125 23.6875 
L 45.3125 54.6875 
L 54.296875 54.6875 
L 54.296875 0 
L 45.3125 0 
L 45.3125 8.40625 
Q 42.046875 3.421875 37.71875 1 
Q 33.40625 -1.421875 27.6875 -1.421875 
Q 18.265625 -1.421875 13.375 4.4375 
Q 8.5 10.296875 8.5 21.578125 
M 31.109375 56 
z
" id="DejaVuSans-75"/>
      <path d="M 54.890625 33.015625 
L 54.890625 0 
L 45.90625 0 
L 45.90625 32.71875 
Q 45.90625 40.484375 42.875 44.328125 
Q 39.84375 48.1875 33.796875 48.1875 
Q 26.515625 48.1875 22.3125 43.546875 
Q 18.109375 38.921875 18.109375 30.90625 
L 18.109375 0 
L 9.078125 0 
L 9.078125 54.6875 
L 18.109375 54.6875 
L 18.109375 46.1875 
Q 21.34375 51.125 25.703125 53.5625 
Q 30.078125 56 35.796875 56 
Q 45.21875 56 50.046875 50.171875 
Q 54.890625 44.34375 54.890625 33.015625 
" id="DejaVuSans-6e"/>
      <path d="M 5.515625 54.6875 
L 48.1875 54.6875 
L 48.1875 46.484375 
L 14.40625 7.171875 
L 48.1875 7.171875 
L 48.1875 0 
L 4.296875 0 
L 4.296875 8.203125 
L 38.09375 47.515625 
L 5.515625 47.515625 
z
" id="DejaVuSans-7a"/>
      <path id="DejaVuSans-20"/>
      <path d="M 8.59375 75.984375 
L 29.296875 75.984375 
L 29.296875 69 
L 17.578125 69 
L 17.578125 -6.203125 
L 29.296875 -6.203125 
L 29.296875 -13.1875 
L 8.59375 -13.1875 
z
" id="DejaVuSans-5b"/>
      <path d="M 9.078125 75.984375 
L 18.109375 75.984375 
L 18.109375 31.109375 
L 44.921875 54.6875 
L 56.390625 54.6875 
L 27.390625 29.109375 
L 57.625 0 
L 45.90625 0 
L 18.109375 26.703125 
L 18.109375 0 
L 9.078125 0 
z
" id="DejaVuSans-6b"/>
      <path d="M 9.8125 72.90625 
L 19.671875 72.90625 
L 19.671875 43.015625 
L 55.515625 43.015625 
L 55.515625 72.90625 
L 65.375 72.90625 
L 65.375 0 
L 55.515625 0 
L 55.515625 34.71875 
L 19.671875 34.71875 
L 19.671875 0 
L 9.8125 0 
z
" id="DejaVuSans-48"/>
      <path d="M 30.421875 75.984375 
L 30.421875 -13.1875 
L 9.71875 -13.1875 
L 9.71875 -6.203125 
L 21.390625 -6.203125 
L 21.390625 69 
L 9.71875 69 
L 9.71875 75.984375 
z
" id="DejaVuSans-5d"/>
     </defs>
     <g transform="translate(184.357656 316.706687)scale(0.1 -0.1)">
      <use xlink:href="#DejaVuSans-46"/>
      <use x="57.410156" xlink:href="#DejaVuSans-72"/>
      <use x="98.492188" xlink:href="#DejaVuSans-65"/>
      <use x="160.015625" xlink:href="#DejaVuSans-71"/>
      <use x="223.492188" xlink:href="#DejaVuSans-75"/>
      <use x="286.871094" xlink:href="#DejaVuSans-65"/>
      <use x="348.394531" xlink:href="#DejaVuSans-6e"/>
      <use x="411.773438" xlink:href="#DejaVuSans-7a"/>
      <use x="464.263672" xlink:href="#DejaVuSans-20"/>
      <use x="496.050781" xlink:href="#DejaVuSans-5b"/>
      <use x="535.064453" xlink:href="#DejaVuSans-6b"/>
      <use x="592.974609" xlink:href="#DejaVuSans-48"/>
      <use x="668.169922" xlink:href="#DejaVuSans-7a"/>
      <use x="720.660156" xlink:href="#DejaVuSans-5d"/>
     </g>
    </g>
   </g>
   <g id="matplotlib.axis_2">
    <g id="ytick_1">
     <g id="line2d_19">
      <path clip-path="url(#p368c0be996)" d="M 43.78125 259.602395 
L 400.90125 259.602395 
" style="fill:none;stroke:#b0b0b0;stroke-linecap:square;stroke-width:0.8;"/>
     </g>
     <g id="line2d_20">
      <defs>
       <path d="M 0 0 
L -3.5 0 
" id="mfe62f01d87" style="stroke:#000000;stroke-width:0.8;"/>
      </defs>
      <g>
       <use style="stroke:#000000;stroke-width:0.8;" x="43.78125" xlink:href="#mfe62f01d87" y="259.602395"/>
      </g>
     </g>
     <g id="text_11">
      <!-- 0.0 -->
      <defs>
       <path d="M 10.6875 12.40625 
L 21 12.40625 
L 21 0 
L 10.6875 0 
z
" id="DejaVuSans-2e"/>
      </defs>
      <g transform="translate(20.878125 263.401613)scale(0.1 -0.1)">
       <use xlink:href="#DejaVuSans-30"/>
       <use x="63.623047" xlink:href="#DejaVuSans-2e"/>
       <use x="95.410156" xlink:href="#DejaVuSans-30"/>
      </g>
     </g>
    </g>
    <g id="ytick_2">
     <g id="line2d_21">
      <path clip-path="url(#p368c0be996)" d="M 43.78125 214.564741 
L 400.90125 214.564741 
" style="fill:none;stroke:#b0b0b0;stroke-linecap:square;stroke-width:0.8;"/>
     </g>
     <g id="line2d_22">
      <g>
       <use style="stroke:#000000;stroke-width:0.8;" x="43.78125" xlink:href="#mfe62f01d87" y="214.564741"/>
      </g>
     </g>
     <g id="text_12">
      <!-- 0.2 -->
      <g transform="translate(20.878125 218.36396)scale(0.1 -0.1)">
       <use xlink:href="#DejaVuSans-30"/>
       <use x="63.623047" xlink:href="#DejaVuSans-2e"/>
       <use x="95.410156" xlink:href="#DejaVuSans-32"/>
      </g>
     </g>
    </g>
    <g id="ytick_3">
     <g id="line2d_23">
      <path clip-path="url(#p368c0be996)" d="M 43.78125 169.527087 
L 400.90125 169.527087 
" style="fill:none;stroke:#b0b0b0;stroke-linecap:square;stroke-width:0.8;"/>
     </g>
     <g id="line2d_24">
      <g>
       <use style="stroke:#000000;stroke-width:0.8;" x="43.78125" xlink:href="#mfe62f01d87" y="169.527087"/>
      </g>
     </g>
     <g id="text_13">
      <!-- 0.4 -->
      <g transform="translate(20.878125 173.326306)scale(0.1 -0.1)">
       <use xlink:href="#DejaVuSans-30"/>
       <use x="63.623047" xlink:href="#DejaVuSans-2e"/>
       <use x="95.410156" xlink:href="#DejaVuSans-34"/>
      </g>
     </g>
    </g>
    <g id="ytick_4">
     <g id="line2d_25">
      <path clip-path="url(#p368c0be996)" d="M 43.78125 124.489433 
L 400.90125 124.489433 
" style="fill:none;stroke:#b0b0b0;stroke-linecap:square;stroke-width:0.8;"/>
     </g>
     <g id="line2d_26">
      <g>
       <use style="stroke:#000000;stroke-width:0.8;" x="43.78125" xlink:href="#mfe62f01d87" y="124.489433"/>
      </g>
     </g>
     <g id="text_14">
      <!-- 0.6 -->
      <g transform="translate(20.878125 128.288652)scale(0.1 -0.1)">
       <use xlink:href="#DejaVuSans-30"/>
       <use x="63.623047" xlink:href="#DejaVuSans-2e"/>
       <use x="95.410156" xlink:href="#DejaVuSans-36"/>
      </g>
     </g>
    </g>
    <g id="ytick_5">
     <g id="line2d_27">
      <path clip-path="url(#p368c0be996)" d="M 43.78125 79.451779 
L 400.90125 79.451779 
" style="fill:none;stroke:#b0b0b0;stroke-linecap:square;stroke-width:0.8;"/>
     </g>
     <g id="line2d_28">
      <g>
       <use style="stroke:#000000;stroke-width:0.8;" x="43.78125" xlink:href="#mfe62f01d87" y="79.451779"/>
      </g>
     </g>
     <g id="text_15">
      <!-- 0.8 -->
      <g transform="translate(20.878125 83.250998)scale(0.1 -0.1)">
       <use xlink:href="#DejaVuSans-30"/>
       <use x="63.623047" xlink:href="#DejaVuSans-2e"/>
       <use x="95.410156" xlink:href="#DejaVuSans-38"/>
      </g>
     </g>
    </g>
    <g id="ytick_6">
     <g id="line2d_29">
      <path clip-path="url(#p368c0be996)" d="M 43.78125 34.414125 
L 400.90125 34.414125 
" style="fill:none;stroke:#b0b0b0;stroke-linecap:square;stroke-width:0.8;"/>
     </g>
     <g id="line2d_30">
      <g>
       <use style="stroke:#000000;stroke-width:0.8;" x="43.78125" xlink:href="#mfe62f01d87" y="34.414125"/>
      </g>
     </g>
     <g id="text_16">
      <!-- 1.0 -->
      <defs>
       <path d="M 12.40625 8.296875 
L 28.515625 8.296875 
L 28.515625 63.921875 
L 10.984375 60.40625 
L 10.984375 69.390625 
L 28.421875 72.90625 
L 38.28125 72.90625 
L 38.28125 8.296875 
L 54.390625 8.296875 
L 54.390625 0 
L 12.40625 0 
z
" id="DejaVuSans-31"/>
      </defs>
      <g transform="translate(20.878125 38.213344)scale(0.1 -0.1)">
       <use xlink:href="#DejaVuSans-31"/>
       <use x="63.623047" xlink:href="#DejaVuSans-2e"/>
       <use x="95.410156" xlink:href="#DejaVuSans-30"/>
      </g>
     </g>
    </g>
    <g id="text_17">
     <!-- u.a. -->
     <defs>
      <path d="M 34.28125 27.484375 
Q 23.390625 27.484375 19.1875 25 
Q 14.984375 22.515625 14.984375 16.5 
Q 14.984375 11.71875 18.140625 8.90625 
Q 21.296875 6.109375 26.703125 6.109375 
Q 34.1875 6.109375 38.703125 11.40625 
Q 43.21875 16.703125 43.21875 25.484375 
L 43.21875 27.484375 
z
M 52.203125 31.203125 
L 52.203125 0 
L 43.21875 0 
L 43.21875 8.296875 
Q 40.140625 3.328125 35.546875 0.953125 
Q 30.953125 -1.421875 24.3125 -1.421875 
Q 15.921875 -1.421875 10.953125 3.296875 
Q 6 8.015625 6 15.921875 
Q 6 25.140625 12.171875 29.828125 
Q 18.359375 34.515625 30.609375 34.515625 
L 43.21875 34.515625 
L 43.21875 35.40625 
Q 43.21875 41.609375 39.140625 45 
Q 35.0625 48.390625 27.6875 48.390625 
Q 23 48.390625 18.546875 47.265625 
Q 14.109375 46.140625 10.015625 43.890625 
L 10.015625 52.203125 
Q 14.9375 54.109375 19.578125 55.046875 
Q 24.21875 56 28.609375 56 
Q 40.484375 56 46.34375 49.84375 
Q 52.203125 43.703125 52.203125 31.203125 
" id="DejaVuSans-61"/>
     </defs>
     <g transform="translate(14.798438 164.785062)rotate(-90)scale(0.1 -0.1)">
      <use xlink:href="#DejaVuSans-75"/>
      <use x="63.378906" xlink:href="#DejaVuSans-2e"/>
      <use x="95.166016" xlink:href="#DejaVuSans-61"/>
      <use x="156.445312" xlink:href="#DejaVuSans-2e"/>
     </g>
    </g>
   </g>
   <g id="line2d_31">
    <path clip-path="url(#p368c0be996)" d="M 43.606875 249.953869 
L 46.876406 250.427165 
L 47.96625 250.333887 
L 49.056094 249.926491 
L 50.145938 249.450102 
L 51.235781 249.450751 
L 51.780703 249.442057 
L 52.325625 249.250712 
L 54.505313 248.013233 
L 55.595156 247.734457 
L 57.229922 247.5872 
L 58.319766 247.486914 
L 60.499453 246.921916 
L 62.134219 247.061627 
L 62.679141 246.939971 
L 63.768984 246.327975 
L 66.493594 244.238417 
L 69.218203 242.663974 
L 70.308047 242.016944 
L 71.397891 241.267574 
L 73.577578 240.184919 
L 77.936953 238.456425 
L 78.481875 238.37161 
L 79.026797 238.164038 
L 79.571719 237.722602 
L 81.206484 236.012925 
L 82.296328 235.589063 
L 83.386172 235.285646 
L 83.931094 234.961629 
L 84.476016 234.417233 
L 85.565859 232.924555 
L 86.110781 232.42049 
L 86.655703 232.365386 
L 88.290469 233.403965 
L 88.835391 233.077196 
L 91.56 229.491805 
L 93.194766 227.996614 
L 94.284609 227.23026 
L 97.009219 225.627409 
L 98.099063 224.646936 
L 100.823672 221.794328 
L 101.368594 221.639765 
L 103.003359 221.586296 
L 103.548281 221.402228 
L 104.093203 221.051696 
L 104.638125 220.482676 
L 105.727969 218.671298 
L 106.817813 216.75974 
L 107.362734 216.164154 
L 107.907656 215.877663 
L 109.542422 215.630791 
L 110.087344 215.23602 
L 112.811953 212.112689 
L 114.991641 209.542489 
L 116.626406 207.949611 
L 118.261172 206.214781 
L 120.985781 203.801056 
L 122.620547 201.57704 
L 123.710391 200.271268 
L 127.524844 196.4173 
L 128.614688 195.065929 
L 130.794375 191.620649 
L 131.884219 190.455136 
L 134.063906 188.401333 
L 137.878359 183.010204 
L 143.8725 176.219948 
L 144.962344 174.324062 
L 146.597109 171.256988 
L 148.231875 168.823791 
L 150.411563 165.706726 
L 153.681094 160.580989 
L 155.315859 158.402463 
L 156.950625 155.4486 
L 159.675234 150.555675 
L 161.854922 146.911509 
L 164.579531 142.465962 
L 166.214297 139.03198 
L 167.849063 135.67421 
L 168.938906 134.039022 
L 171.118594 131.219366 
L 172.208438 129.269819 
L 177.657656 117.401459 
L 179.837344 113.22551 
L 181.472109 109.791864 
L 182.561953 107.490419 
L 184.196719 103.455707 
L 186.921328 98.102851 
L 190.190859 90.328453 
L 191.825625 86.581039 
L 194.005313 81.415989 
L 195.640078 77.749554 
L 198.909609 69.22354 
L 200.544375 65.984003 
L 202.179141 61.602723 
L 203.813906 57.569703 
L 205.448672 54.423169 
L 207.083438 51.114617 
L 208.718203 47.394573 
L 210.352969 43.564463 
L 211.442813 41.920832 
L 213.077578 39.738865 
L 215.802188 35.524249 
L 216.347109 34.953519 
L 216.892031 34.573858 
L 217.436953 34.414125 
L 217.981875 34.494358 
L 218.526797 34.796759 
L 220.161563 36.256206 
L 220.706484 36.922717 
L 221.251406 38.148032 
L 221.796328 40.437301 
L 222.34125 43.984131 
L 223.976016 56.562589 
L 224.520938 59.539214 
L 225.610781 63.792863 
L 226.700625 66.904417 
L 228.335391 71.545146 
L 229.425234 75.415252 
L 232.149844 85.86035 
L 234.329531 93.813484 
L 238.688906 109.633945 
L 239.77875 112.469143 
L 241.413516 116.459577 
L 242.503359 119.692343 
L 245.772891 130.269683 
L 246.862734 133.144765 
L 249.587344 139.754502 
L 253.946719 150.711853 
L 255.036563 153.118797 
L 256.126406 155.425904 
L 258.851016 161.798035 
L 260.485781 165.658615 
L 261.575625 168.179304 
L 262.665469 170.288693 
L 265.935 175.750174 
L 269.204531 182.279057 
L 270.294375 183.842305 
L 271.384219 185.98741 
L 272.474063 188.14707 
L 273.563906 189.651687 
L 274.65375 190.948294 
L 275.743594 192.661746 
L 277.923281 196.264927 
L 279.558047 198.700062 
L 281.737734 201.54914 
L 283.3725 204.054659 
L 289.911563 212.429586 
L 292.09125 214.770704 
L 294.815859 218.509777 
L 295.905703 219.451389 
L 296.995547 219.944579 
L 297.540469 220.174413 
L 298.085391 220.552583 
L 299.175234 221.69764 
L 301.899844 224.715088 
L 303.534609 226.30445 
L 305.169375 228.195096 
L 305.714297 228.639154 
L 306.804141 229.099573 
L 307.893984 229.494132 
L 308.983828 230.313035 
L 310.073672 231.170853 
L 313.343203 233.410845 
L 314.433047 234.238776 
L 315.522891 234.60983 
L 316.067813 234.789394 
L 316.612734 235.159643 
L 318.792422 237.471762 
L 319.882266 238.047316 
L 320.972109 238.487727 
L 322.061953 239.234365 
L 323.151797 240.076552 
L 323.696719 240.386506 
L 324.241641 240.567932 
L 325.331484 240.570983 
L 325.876406 240.546017 
L 326.421328 240.652733 
L 326.96625 240.954038 
L 328.601016 242.300285 
L 332.960391 244.442417 
L 335.140078 245.157205 
L 336.229922 245.698825 
L 337.319766 245.81957 
L 338.409609 245.945342 
L 342.768984 247.673153 
L 343.858828 248.327897 
L 344.40375 248.684831 
L 344.948672 248.895328 
L 345.493594 248.874577 
L 347.128359 248.381594 
L 347.673281 248.529089 
L 350.397891 249.978902 
L 353.1225 250.857951 
L 354.212344 250.695834 
L 355.302188 250.500852 
L 355.847109 250.520054 
L 356.392031 250.683701 
L 358.026797 251.591155 
L 358.571719 251.653631 
L 360.206484 251.543453 
L 361.84125 252.000246 
L 364.020938 253.080817 
L 364.565859 253.062093 
L 365.655703 252.794803 
L 366.745547 252.872246 
L 368.380313 253.330185 
L 370.015078 254.162744 
L 371.104922 254.218334 
L 371.649844 254.23798 
L 372.739688 254.611229 
L 373.829531 254.995332 
L 374.374453 255.005135 
L 377.099063 254.460347 
L 378.188906 254.795254 
L 382.548281 256.585375 
L 383.093203 256.531935 
L 385.272891 255.894126 
L 385.817813 256.045689 
L 387.9975 257.328375 
L 391.267031 257.702791 
L 392.356875 257.470814 
L 392.901797 257.322259 
L 393.446719 257.320057 
L 395.626406 257.96344 
L 396.71625 258.134768 
L 397.806094 258.652853 
L 398.351016 258.63992 
L 398.895938 258.276755 
L 399.985781 257.241835 
L 400.530703 257.017888 
L 401.075625 257.024907 
L 401.075625 257.024907 
" style="fill:none;stroke:#1f77b4;stroke-linecap:square;stroke-width:1.5;"/>
   </g>
   <g id="line2d_32">
    <path clip-path="url(#p368c0be996)" d="M 43.606875 250.265791 
L 44.151797 250.040373 
L 44.696719 249.919686 
L 46.331484 249.96565 
L 47.421328 249.552743 
L 49.056094 248.612645 
L 50.145938 247.977256 
L 51.235781 247.891687 
L 51.780703 247.852537 
L 52.870547 247.428343 
L 53.960391 246.940772 
L 54.505313 246.875092 
L 56.140078 247.103208 
L 56.685 246.938273 
L 58.319766 246.013632 
L 59.409609 245.754451 
L 62.134219 245.343723 
L 62.679141 245.034211 
L 63.768984 244.011655 
L 65.948672 241.706982 
L 67.038516 241.183141 
L 69.763125 240.214753 
L 70.852969 239.446863 
L 71.942813 238.523354 
L 72.487734 238.232739 
L 73.032656 238.133032 
L 75.212344 238.217151 
L 76.302188 237.944966 
L 77.936953 237.288275 
L 80.661563 235.872247 
L 82.84125 234.056359 
L 83.931094 233.808887 
L 84.476016 233.553898 
L 85.020938 233.104514 
L 85.565859 232.434149 
L 86.655703 230.3575 
L 87.200625 229.341098 
L 87.745547 228.903604 
L 88.290469 229.216037 
L 89.380313 230.484101 
L 89.925234 230.504267 
L 90.470156 230.057205 
L 91.56 228.919561 
L 92.104922 228.612209 
L 93.739688 228.23847 
L 94.284609 227.931534 
L 95.374453 226.873893 
L 97.009219 224.971197 
L 98.099063 223.49867 
L 98.643984 222.931169 
L 99.733828 222.316988 
L 100.823672 221.792132 
L 101.913516 221.038969 
L 104.638125 218.905767 
L 105.727969 218.098839 
L 106.817813 216.900707 
L 108.452578 214.707555 
L 109.542422 213.736975 
L 112.267031 211.84055 
L 113.356875 211.128059 
L 114.991641 210.137046 
L 116.081484 209.0792 
L 118.261172 206.31502 
L 119.895938 203.947536 
L 120.440859 203.390576 
L 120.985781 203.069726 
L 122.075625 202.62109 
L 122.620547 202.148935 
L 128.614688 194.974096 
L 129.704531 193.744232 
L 131.884219 190.662932 
L 134.063906 188.651312 
L 137.333438 183.484317 
L 140.058047 179.675543 
L 141.147891 178.414027 
L 142.237734 177.030437 
L 144.417422 174.619565 
L 146.597109 171.216603 
L 147.686953 169.722333 
L 149.321719 166.73767 
L 152.59125 160.519398 
L 153.681094 158.969566 
L 155.860781 156.556074 
L 156.950625 154.54597 
L 159.130313 149.899939 
L 162.399844 143.977818 
L 165.124453 140.684123 
L 166.214297 138.526276 
L 167.849063 134.910823 
L 170.02875 130.339563 
L 171.118594 128.175815 
L 172.208438 126.580905 
L 173.298281 125.022001 
L 174.388125 122.825938 
L 176.022891 118.976628 
L 177.657656 114.884895 
L 178.7475 113.047492 
L 179.837344 111.465142 
L 180.927188 109.400854 
L 182.017031 107.257215 
L 183.651797 104.870675 
L 184.196719 103.748339 
L 185.286563 100.569081 
L 186.921328 95.364653 
L 188.011172 93.057244 
L 189.101016 91.132107 
L 190.190859 88.51048 
L 191.825625 84.108051 
L 192.370547 83.023467 
L 193.460391 81.534333 
L 194.005313 80.803013 
L 194.550234 79.813648 
L 195.095156 78.479291 
L 196.729922 73.25008 
L 197.819766 70.108334 
L 198.909609 67.793786 
L 201.089297 63.940547 
L 202.724063 60.30269 
L 205.993594 52.113287 
L 207.628359 47.341035 
L 209.263125 43.627579 
L 212.532656 36.322382 
L 213.077578 35.57578 
L 213.6225 35.096826 
L 214.712344 34.577552 
L 215.802188 34.421511 
L 216.892031 34.476772 
L 217.436953 34.700564 
L 217.981875 35.148792 
L 219.616641 36.850475 
L 220.706484 37.209111 
L 221.251406 37.907413 
L 221.796328 39.845683 
L 222.34125 43.35715 
L 223.976016 57.217248 
L 224.520938 60.421278 
L 225.610781 64.56338 
L 228.335391 73.112165 
L 229.970156 77.837187 
L 231.604922 84.069585 
L 232.694766 87.992676 
L 234.874453 94.57854 
L 236.509219 99.857745 
L 238.143984 105.136117 
L 240.323672 111.731895 
L 243.593203 122.523852 
L 245.772891 128.308361 
L 250.677188 142.505875 
L 251.767031 144.966449 
L 252.856875 147.177424 
L 253.946719 149.966933 
L 255.581484 154.464506 
L 261.575625 168.077443 
L 263.210391 171.607057 
L 266.479922 177.913382 
L 268.114688 180.065894 
L 269.204531 182.137488 
L 270.839297 185.784993 
L 272.474063 188.583484 
L 274.108828 191.041033 
L 276.833438 194.725357 
L 279.558047 199.349927 
L 281.192813 201.267892 
L 282.282656 202.500377 
L 283.3725 204.137871 
L 285.552188 207.844636 
L 286.642031 208.990415 
L 287.731875 210.053282 
L 288.276797 210.82772 
L 289.366641 212.896203 
L 290.456484 214.969831 
L 291.546328 216.405636 
L 292.636172 217.168662 
L 295.360781 218.303463 
L 295.905703 218.801178 
L 296.995547 220.377256 
L 298.085391 222.048176 
L 299.720156 224.131292 
L 300.81 225.13427 
L 301.899844 225.556423 
L 302.989688 225.783538 
L 303.534609 225.995012 
L 304.079531 226.341709 
L 304.624453 226.857573 
L 305.714297 228.309351 
L 307.349063 230.436028 
L 308.438906 231.556384 
L 309.52875 232.219599 
L 311.163516 232.91482 
L 312.798281 233.99341 
L 313.888125 234.376025 
L 314.977969 234.744622 
L 317.157656 235.7706 
L 318.2475 236.183658 
L 318.792422 236.505067 
L 319.337344 236.991206 
L 319.882266 237.673757 
L 320.972109 239.538997 
L 322.061953 241.285964 
L 322.606875 241.716265 
L 324.786563 242.247443 
L 325.876406 242.79294 
L 327.511172 243.127401 
L 328.601016 243.147604 
L 329.145938 243.117903 
L 329.690859 243.203911 
L 331.325625 244.014387 
L 331.870547 244.071449 
L 334.050234 243.829073 
L 334.595156 244.051303 
L 335.140078 244.568825 
L 336.774844 246.775621 
L 337.319766 247.128175 
L 337.864688 247.201478 
L 338.954531 246.989823 
L 339.499453 247.018163 
L 340.044375 247.260397 
L 341.679141 248.645494 
L 342.768984 249.444262 
L 343.858828 249.893051 
L 344.948672 249.917754 
L 347.128359 249.600515 
L 347.673281 249.80753 
L 349.308047 250.912535 
L 349.852969 250.887912 
L 351.487734 249.858383 
L 352.032656 249.955199 
L 353.1225 250.882957 
L 354.212344 251.73021 
L 356.936953 253.129003 
L 357.481875 253.16662 
L 358.571719 252.848461 
L 359.661563 252.459243 
L 360.206484 252.427249 
L 360.751406 252.565309 
L 362.931094 253.638201 
L 364.020938 253.826316 
L 365.655703 253.782586 
L 366.745547 254.338562 
L 367.290469 254.613768 
L 367.835391 254.749204 
L 372.194766 254.716683 
L 373.284609 254.772258 
L 374.374453 254.880175 
L 376.009219 254.734209 
L 376.554141 254.876082 
L 378.188906 255.81826 
L 378.733828 255.924567 
L 379.823672 255.77435 
L 380.913516 255.669548 
L 382.003359 255.972565 
L 383.093203 256.218256 
L 384.183047 256.234979 
L 385.272891 256.004794 
L 386.362734 255.501698 
L 386.907656 255.41178 
L 387.452578 255.536484 
L 388.542422 256.291478 
L 389.632266 257.22228 
L 390.177188 257.569735 
L 390.722109 257.777649 
L 391.267031 257.818183 
L 391.811953 257.679688 
L 392.901797 257.207834 
L 393.446719 257.199747 
L 395.081484 257.823728 
L 396.71625 257.972353 
L 397.261172 258.082783 
L 397.806094 258.067744 
L 398.351016 257.849835 
L 399.440859 257.123483 
L 399.985781 256.936001 
L 400.530703 257.001655 
L 401.075625 257.273169 
L 401.075625 257.273169 
" style="fill:none;stroke:#ff7f0e;stroke-linecap:square;stroke-width:1.5;"/>
   </g>
   <g id="line2d_33">
    <path clip-path="url(#p368c0be996)" d="M 43.606875 252.716182 
L 46.876406 251.114379 
L 48.511172 250.989548 
L 50.145938 250.28134 
L 52.325625 250.237633 
L 52.870547 250.167748 
L 53.415469 250.238673 
L 55.050234 250.90845 
L 55.595156 250.794112 
L 56.685 250.399574 
L 57.774844 250.231998 
L 58.864688 249.708276 
L 59.409609 249.598062 
L 61.044375 249.690423 
L 62.134219 249.154616 
L 63.224063 248.540657 
L 63.768984 248.43176 
L 64.858828 248.425322 
L 65.40375 248.213667 
L 66.493594 247.279714 
L 68.673281 245.227061 
L 70.308047 243.176266 
L 70.852969 242.714995 
L 71.397891 242.516082 
L 74.667422 242.532721 
L 75.212344 242.170182 
L 75.757266 241.43594 
L 76.847109 239.607453 
L 77.392031 239.183213 
L 77.936953 239.305537 
L 79.026797 240.166215 
L 79.571719 240.224513 
L 80.116641 239.90091 
L 81.206484 238.798811 
L 81.751406 238.436091 
L 82.296328 238.364424 
L 83.386172 238.792388 
L 84.476016 239.231608 
L 85.020938 239.231464 
L 85.565859 238.975553 
L 87.200625 237.632174 
L 87.745547 236.973819 
L 88.290469 235.949798 
L 89.380313 233.512398 
L 89.925234 232.73523 
L 90.470156 232.359627 
L 91.56 232.104974 
L 92.649844 232.139187 
L 93.739688 232.293237 
L 94.284609 232.084961 
L 95.374453 231.18743 
L 98.099063 228.843508 
L 99.188906 228.444464 
L 100.27875 227.938744 
L 104.638125 224.794505 
L 105.183047 224.250734 
L 105.727969 223.887842 
L 106.817813 223.737421 
L 107.362734 223.464849 
L 109.542422 221.256589 
L 110.087344 220.554369 
L 111.722109 217.893397 
L 112.267031 217.54002 
L 113.356875 217.44396 
L 113.901797 217.224475 
L 114.446719 216.705195 
L 115.536563 215.17895 
L 116.081484 214.675775 
L 116.626406 214.516154 
L 117.171328 214.485827 
L 117.71625 214.275274 
L 118.261172 213.774061 
L 120.440859 211.249079 
L 121.530703 210.217482 
L 122.620547 209.49614 
L 123.165469 208.962784 
L 124.800234 207.005783 
L 125.345156 206.742113 
L 126.435 206.443134 
L 126.979922 205.909981 
L 127.524844 204.965654 
L 129.159609 201.342587 
L 130.249453 199.685613 
L 130.794375 199.180618 
L 131.339297 198.921493 
L 132.429141 198.72015 
L 132.974063 198.378387 
L 133.518984 197.73872 
L 136.788516 192.772162 
L 137.878359 191.037243 
L 139.513125 188.297212 
L 141.692813 184.956013 
L 142.237734 184.461004 
L 143.8725 183.629934 
L 144.417422 182.923477 
L 146.597109 179.015947 
L 148.231875 176.723034 
L 149.866641 174.268971 
L 150.956484 173.219729 
L 152.59125 171.914714 
L 153.681094 171.221738 
L 154.226016 170.754114 
L 155.315859 169.397385 
L 156.405703 167.496567 
L 157.495547 164.853754 
L 160.220156 157.69518 
L 161.31 156.203431 
L 162.399844 154.661381 
L 163.489688 152.957416 
L 165.124453 150.879423 
L 166.214297 148.707684 
L 167.849063 145.19305 
L 169.483828 142.073188 
L 171.118594 138.400909 
L 172.753359 136.047786 
L 174.933047 131.053135 
L 176.567813 128.507926 
L 177.657656 126.011791 
L 178.7475 123.443798 
L 179.837344 121.464009 
L 180.382266 120.508025 
L 180.927188 119.294756 
L 182.561953 114.795609 
L 183.651797 112.674332 
L 184.741641 110.506145 
L 185.831484 107.698798 
L 188.011172 101.812549 
L 190.735781 95.306187 
L 191.825625 93.772646 
L 192.915469 92.550901 
L 193.460391 91.662789 
L 194.005313 90.373802 
L 197.274844 80.443332 
L 198.909609 73.724513 
L 199.999453 70.819474 
L 201.089297 68.648511 
L 202.724063 66.204835 
L 203.268984 65.093495 
L 203.813906 63.650006 
L 204.90375 59.760557 
L 205.993594 55.515388 
L 206.538516 53.812874 
L 207.083438 52.533069 
L 208.718203 49.408715 
L 211.987734 40.953667 
L 213.077578 38.93929 
L 214.167422 37.512476 
L 215.802188 36.006953 
L 217.981875 34.414125 
L 218.526797 34.429973 
L 219.071719 34.795663 
L 220.161563 35.917066 
L 220.706484 36.710416 
L 221.251406 38.334709 
L 221.796328 41.32777 
L 223.431094 53.679313 
L 223.976016 56.340524 
L 225.610781 61.923002 
L 227.790469 69.480331 
L 228.880313 74.074834 
L 232.149844 88.688494 
L 233.239688 92.401023 
L 234.329531 95.325759 
L 235.419375 98.25484 
L 242.503359 122.042708 
L 243.593203 124.656227 
L 244.138125 126.276518 
L 245.772891 132.213966 
L 246.317813 133.517234 
L 247.407656 135.341117 
L 247.952578 136.576437 
L 249.042422 139.961145 
L 250.132266 143.45519 
L 251.222109 146.278314 
L 253.946719 152.291355 
L 255.581484 156.574766 
L 257.21625 161.44451 
L 258.851016 167.148908 
L 259.395938 168.52097 
L 259.940859 169.462528 
L 262.120547 172.37906 
L 263.210391 174.329441 
L 265.935 179.755184 
L 267.024844 181.444134 
L 268.659609 182.848648 
L 269.204531 183.614407 
L 270.294375 185.680526 
L 271.929141 189.210826 
L 273.563906 192.559695 
L 277.378359 199.812592 
L 278.468203 201.185427 
L 279.558047 203.10935 
L 280.647891 205.006102 
L 281.192813 205.580549 
L 281.737734 205.881122 
L 282.827578 206.190358 
L 283.3725 206.521377 
L 283.917422 207.156092 
L 284.462344 208.169675 
L 286.642031 213.537052 
L 287.186953 214.275008 
L 287.731875 214.691412 
L 289.911563 215.532172 
L 290.456484 216.111247 
L 292.09125 218.299449 
L 294.815859 220.775338 
L 295.905703 222.3787 
L 297.540469 225.433152 
L 298.085391 226.054486 
L 299.175234 226.575668 
L 300.265078 227.189848 
L 301.354922 228.010122 
L 301.899844 228.668722 
L 302.989688 230.347936 
L 303.534609 230.833434 
L 304.624453 231.059478 
L 307.349063 231.622674 
L 308.438906 232.234955 
L 308.983828 232.755155 
L 310.618594 234.751469 
L 311.163516 234.924949 
L 312.253359 234.745203 
L 312.798281 235.007929 
L 313.343203 235.669236 
L 314.433047 237.489673 
L 314.977969 238.162431 
L 315.522891 238.434284 
L 316.067813 238.329203 
L 316.612734 238.073885 
L 317.157656 237.956526 
L 317.702578 238.135018 
L 319.337344 239.26195 
L 319.882266 239.509725 
L 320.427188 239.940249 
L 322.061953 241.92056 
L 322.606875 242.01834 
L 324.241641 241.50272 
L 324.786563 241.583804 
L 325.876406 242.137432 
L 326.421328 242.598257 
L 327.511172 244.030003 
L 328.056094 244.76597 
L 328.601016 245.206126 
L 329.145938 245.241993 
L 330.780703 244.27053 
L 331.325625 244.365996 
L 331.870547 244.917275 
L 332.960391 246.563556 
L 333.505313 247.074328 
L 335.685 248.009482 
L 336.229922 248.051049 
L 336.774844 247.792811 
L 337.864688 247.075332 
L 338.409609 247.060923 
L 338.954531 247.304388 
L 340.044375 248.140533 
L 341.134219 249.390626 
L 341.679141 250.034415 
L 342.224063 250.472668 
L 342.768984 250.65639 
L 344.948672 250.807056 
L 346.038516 251.279394 
L 347.128359 251.432413 
L 347.673281 251.511241 
L 348.763125 252.073959 
L 349.308047 252.409738 
L 349.852969 252.60579 
L 350.397891 252.612483 
L 351.487734 252.279893 
L 353.1225 251.683713 
L 353.667422 251.712252 
L 354.757266 252.241277 
L 355.847109 252.683598 
L 356.936953 252.889711 
L 358.571719 253.403177 
L 359.661563 253.131855 
L 360.751406 252.896988 
L 361.84125 252.725104 
L 362.931094 252.047661 
L 363.476016 251.708731 
L 364.020938 251.642448 
L 364.565859 251.959857 
L 365.655703 253.3992 
L 366.745547 254.791187 
L 367.290469 255.19881 
L 367.835391 255.339801 
L 368.380313 255.187749 
L 371.104922 253.257947 
L 371.649844 253.038739 
L 372.194766 252.955682 
L 372.739688 253.044606 
L 373.284609 253.34388 
L 374.374453 254.510284 
L 374.919375 255.078088 
L 375.464297 255.415075 
L 376.009219 255.519633 
L 377.099063 255.39403 
L 379.27875 255.000815 
L 380.913516 254.493984 
L 381.458438 254.552621 
L 382.003359 254.817217 
L 383.638125 256.081979 
L 385.817813 256.693006 
L 386.907656 257.548257 
L 387.452578 257.702329 
L 387.9975 257.5852 
L 389.087344 256.99325 
L 389.632266 256.853243 
L 390.177188 256.912158 
L 392.356875 257.606475 
L 392.901797 257.654353 
L 394.536563 257.396105 
L 395.081484 257.537166 
L 396.171328 257.989434 
L 396.71625 257.930295 
L 398.351016 257.141951 
L 398.895938 257.167383 
L 399.440859 257.414546 
L 401.075625 258.648722 
L 401.075625 258.648722 
" style="fill:none;stroke:#2ca02c;stroke-linecap:square;stroke-width:1.5;"/>
   </g>
   <g id="patch_3">
    <path d="M 43.78125 288.430125 
L 43.78125 22.318125 
" style="fill:none;stroke:#000000;stroke-linecap:square;stroke-linejoin:miter;stroke-width:0.8;"/>
   </g>
   <g id="patch_4">
    <path d="M 400.90125 288.430125 
L 400.90125 22.318125 
" style="fill:none;stroke:#000000;stroke-linecap:square;stroke-linejoin:miter;stroke-width:0.8;"/>
   </g>
   <g id="patch_5">
    <path d="M 43.78125 288.430125 
L 400.90125 288.430125 
" style="fill:none;stroke:#000000;stroke-linecap:square;stroke-linejoin:miter;stroke-width:0.8;"/>
   </g>
   <g id="patch_6">
    <path d="M 43.78125 22.318125 
L 400.90125 22.318125 
" style="fill:none;stroke:#000000;stroke-linecap:square;stroke-linejoin:miter;stroke-width:0.8;"/>
   </g>
   <g id="text_18">
    <!-- Spektrum Vergleich -->
    <defs>
     <path d="M 53.515625 70.515625 
L 53.515625 60.890625 
Q 47.90625 63.578125 42.921875 64.890625 
Q 37.9375 66.21875 33.296875 66.21875 
Q 25.25 66.21875 20.875 63.09375 
Q 16.5 59.96875 16.5 54.203125 
Q 16.5 49.359375 19.40625 46.890625 
Q 22.3125 44.4375 30.421875 42.921875 
L 36.375 41.703125 
Q 47.40625 39.59375 52.65625 34.296875 
Q 57.90625 29 57.90625 20.125 
Q 57.90625 9.515625 50.796875 4.046875 
Q 43.703125 -1.421875 29.984375 -1.421875 
Q 24.8125 -1.421875 18.96875 -0.25 
Q 13.140625 0.921875 6.890625 3.21875 
L 6.890625 13.375 
Q 12.890625 10.015625 18.65625 8.296875 
Q 24.421875 6.59375 29.984375 6.59375 
Q 38.421875 6.59375 43.015625 9.90625 
Q 47.609375 13.234375 47.609375 19.390625 
Q 47.609375 24.75 44.3125 27.78125 
Q 41.015625 30.8125 33.5 32.328125 
L 27.484375 33.5 
Q 16.453125 35.6875 11.515625 40.375 
Q 6.59375 45.0625 6.59375 53.421875 
Q 6.59375 63.09375 13.40625 68.65625 
Q 20.21875 74.21875 32.171875 74.21875 
Q 37.3125 74.21875 42.625 73.28125 
Q 47.953125 72.359375 53.515625 70.515625 
" id="DejaVuSans-53"/>
     <path d="M 18.109375 8.203125 
L 18.109375 -20.796875 
L 9.078125 -20.796875 
L 9.078125 54.6875 
L 18.109375 54.6875 
L 18.109375 46.390625 
Q 20.953125 51.265625 25.265625 53.625 
Q 29.59375 56 35.59375 56 
Q 45.5625 56 51.78125 48.09375 
Q 58.015625 40.1875 58.015625 27.296875 
Q 58.015625 14.40625 51.78125 6.484375 
Q 45.5625 -1.421875 35.59375 -1.421875 
Q 29.59375 -1.421875 25.265625 0.953125 
Q 20.953125 3.328125 18.109375 8.203125 
M 48.6875 27.296875 
Q 48.6875 37.203125 44.609375 42.84375 
Q 40.53125 48.484375 33.40625 48.484375 
Q 26.265625 48.484375 22.1875 42.84375 
Q 18.109375 37.203125 18.109375 27.296875 
Q 18.109375 17.390625 22.1875 11.75 
Q 26.265625 6.109375 33.40625 6.109375 
Q 40.53125 6.109375 44.609375 11.75 
Q 48.6875 17.390625 48.6875 27.296875 
" id="DejaVuSans-70"/>
     <path d="M 18.3125 70.21875 
L 18.3125 54.6875 
L 36.8125 54.6875 
L 36.8125 47.703125 
L 18.3125 47.703125 
L 18.3125 18.015625 
Q 18.3125 11.328125 20.140625 9.421875 
Q 21.96875 7.515625 27.59375 7.515625 
L 36.8125 7.515625 
L 36.8125 0 
L 27.59375 0 
Q 17.1875 0 13.234375 3.875 
Q 9.28125 7.765625 9.28125 18.015625 
L 9.28125 47.703125 
L 2.6875 47.703125 
L 2.6875 54.6875 
L 9.28125 54.6875 
L 9.28125 70.21875 
z
" id="DejaVuSans-74"/>
     <path d="M 52 44.1875 
Q 55.375 50.25 60.0625 53.125 
Q 64.75 56 71.09375 56 
Q 79.640625 56 84.28125 50.015625 
Q 88.921875 44.046875 88.921875 33.015625 
L 88.921875 0 
L 79.890625 0 
L 79.890625 32.71875 
Q 79.890625 40.578125 77.09375 44.375 
Q 74.3125 48.1875 68.609375 48.1875 
Q 61.625 48.1875 57.5625 43.546875 
Q 53.515625 38.921875 53.515625 30.90625 
L 53.515625 0 
L 44.484375 0 
L 44.484375 32.71875 
Q 44.484375 40.625 41.703125 44.40625 
Q 38.921875 48.1875 33.109375 48.1875 
Q 26.21875 48.1875 22.15625 43.53125 
Q 18.109375 38.875 18.109375 30.90625 
L 18.109375 0 
L 9.078125 0 
L 9.078125 54.6875 
L 18.109375 54.6875 
L 18.109375 46.1875 
Q 21.1875 51.21875 25.484375 53.609375 
Q 29.78125 56 35.6875 56 
Q 41.65625 56 45.828125 52.96875 
Q 50 49.953125 52 44.1875 
" id="DejaVuSans-6d"/>
     <path d="M 28.609375 0 
L 0.78125 72.90625 
L 11.078125 72.90625 
L 34.1875 11.53125 
L 57.328125 72.90625 
L 67.578125 72.90625 
L 39.796875 0 
z
" id="DejaVuSans-56"/>
     <path d="M 45.40625 27.984375 
Q 45.40625 37.75 41.375 43.109375 
Q 37.359375 48.484375 30.078125 48.484375 
Q 22.859375 48.484375 18.828125 43.109375 
Q 14.796875 37.75 14.796875 27.984375 
Q 14.796875 18.265625 18.828125 12.890625 
Q 22.859375 7.515625 30.078125 7.515625 
Q 37.359375 7.515625 41.375 12.890625 
Q 45.40625 18.265625 45.40625 27.984375 
M 54.390625 6.78125 
Q 54.390625 -7.171875 48.1875 -13.984375 
Q 42 -20.796875 29.203125 -20.796875 
Q 24.46875 -20.796875 20.265625 -20.09375 
Q 16.0625 -19.390625 12.109375 -17.921875 
L 12.109375 -9.1875 
Q 16.0625 -11.328125 19.921875 -12.34375 
Q 23.78125 -13.375 27.78125 -13.375 
Q 36.625 -13.375 41.015625 -8.765625 
Q 45.40625 -4.15625 45.40625 5.171875 
L 45.40625 9.625 
Q 42.625 4.78125 38.28125 2.390625 
Q 33.9375 0 27.875 0 
Q 17.828125 0 11.671875 7.65625 
Q 5.515625 15.328125 5.515625 27.984375 
Q 5.515625 40.671875 11.671875 48.328125 
Q 17.828125 56 27.875 56 
Q 33.9375 56 38.28125 53.609375 
Q 42.625 51.21875 45.40625 46.390625 
L 45.40625 54.6875 
L 54.390625 54.6875 
z
" id="DejaVuSans-67"/>
     <path d="M 9.421875 75.984375 
L 18.40625 75.984375 
L 18.40625 0 
L 9.421875 0 
z
" id="DejaVuSans-6c"/>
     <path d="M 9.421875 54.6875 
L 18.40625 54.6875 
L 18.40625 0 
L 9.421875 0 
z
M 9.421875 75.984375 
L 18.40625 75.984375 
L 18.40625 64.59375 
L 9.421875 64.59375 
z
" id="DejaVuSans-69"/>
     <path d="M 48.78125 52.59375 
L 48.78125 44.1875 
Q 44.96875 46.296875 41.140625 47.34375 
Q 37.3125 48.390625 33.40625 48.390625 
Q 24.65625 48.390625 19.8125 42.84375 
Q 14.984375 37.3125 14.984375 27.296875 
Q 14.984375 17.28125 19.8125 11.734375 
Q 24.65625 6.203125 33.40625 6.203125 
Q 37.3125 6.203125 41.140625 7.25 
Q 44.96875 8.296875 48.78125 10.40625 
L 48.78125 2.09375 
Q 45.015625 0.34375 40.984375 -0.53125 
Q 36.96875 -1.421875 32.421875 -1.421875 
Q 20.0625 -1.421875 12.78125 6.34375 
Q 5.515625 14.109375 5.515625 27.296875 
Q 5.515625 40.671875 12.859375 48.328125 
Q 20.21875 56 33.015625 56 
Q 37.15625 56 41.109375 55.140625 
Q 45.0625 54.296875 48.78125 52.59375 
" id="DejaVuSans-63"/>
     <path d="M 54.890625 33.015625 
L 54.890625 0 
L 45.90625 0 
L 45.90625 32.71875 
Q 45.90625 40.484375 42.875 44.328125 
Q 39.84375 48.1875 33.796875 48.1875 
Q 26.515625 48.1875 22.3125 43.546875 
Q 18.109375 38.921875 18.109375 30.90625 
L 18.109375 0 
L 9.078125 0 
L 9.078125 75.984375 
L 18.109375 75.984375 
L 18.109375 46.1875 
Q 21.34375 51.125 25.703125 53.5625 
Q 30.078125 56 35.796875 56 
Q 45.21875 56 50.046875 50.171875 
Q 54.890625 44.34375 54.890625 33.015625 
" id="DejaVuSans-68"/>
    </defs>
    <g transform="translate(162.992813 16.318125)scale(0.12 -0.12)">
     <use xlink:href="#DejaVuSans-53"/>
     <use x="63.476562" xlink:href="#DejaVuSans-70"/>
     <use x="126.953125" xlink:href="#DejaVuSans-65"/>
     <use x="188.476562" xlink:href="#DejaVuSans-6b"/>
     <use x="246.386719" xlink:href="#DejaVuSans-74"/>
     <use x="285.595703" xlink:href="#DejaVuSans-72"/>
     <use x="326.708984" xlink:href="#DejaVuSans-75"/>
     <use x="390.087891" xlink:href="#DejaVuSans-6d"/>
     <use x="487.5" xlink:href="#DejaVuSans-20"/>
     <use x="519.287109" xlink:href="#DejaVuSans-56"/>
     <use x="587.585938" xlink:href="#DejaVuSans-65"/>
     <use x="649.109375" xlink:href="#DejaVuSans-72"/>
     <use x="690.207031" xlink:href="#DejaVuSans-67"/>
     <use x="753.683594" xlink:href="#DejaVuSans-6c"/>
     <use x="781.466797" xlink:href="#DejaVuSans-65"/>
     <use x="842.990234" xlink:href="#DejaVuSans-69"/>
     <use x="870.773438" xlink:href="#DejaVuSans-63"/>
     <use x="925.753906" xlink:href="#DejaVuSans-68"/>
    </g>
   </g>
   <g id="legend_1">
    <g id="patch_7">
     <path d="M 315.145 74.3525 
L 393.90125 74.3525 
Q 395.90125 74.3525 395.90125 72.3525 
L 395.90125 29.318125 
Q 395.90125 27.318125 393.90125 27.318125 
L 315.145 27.318125 
Q 313.145 27.318125 313.145 29.318125 
L 313.145 72.3525 
Q 313.145 74.3525 315.145 74.3525 
z
" style="fill:#ffffff;opacity:0.8;stroke:#cccccc;stroke-linejoin:miter;"/>
    </g>
    <g id="line2d_34">
     <path d="M 317.145 35.416562 
L 337.145 35.416562 
" style="fill:none;stroke:#1f77b4;stroke-linecap:square;stroke-width:1.5;"/>
    </g>
    <g id="line2d_35"/>
    <g id="text_19">
     <!-- 0.015 ms -->
     <defs>
      <path d="M 10.796875 72.90625 
L 49.515625 72.90625 
L 49.515625 64.59375 
L 19.828125 64.59375 
L 19.828125 46.734375 
Q 21.96875 47.46875 24.109375 47.828125 
Q 26.265625 48.1875 28.421875 48.1875 
Q 40.625 48.1875 47.75 41.5 
Q 54.890625 34.8125 54.890625 23.390625 
Q 54.890625 11.625 47.5625 5.09375 
Q 40.234375 -1.421875 26.90625 -1.421875 
Q 22.3125 -1.421875 17.546875 -0.640625 
Q 12.796875 0.140625 7.71875 1.703125 
L 7.71875 11.625 
Q 12.109375 9.234375 16.796875 8.0625 
Q 21.484375 6.890625 26.703125 6.890625 
Q 35.15625 6.890625 40.078125 11.328125 
Q 45.015625 15.765625 45.015625 23.390625 
Q 45.015625 31 40.078125 35.4375 
Q 35.15625 39.890625 26.703125 39.890625 
Q 22.75 39.890625 18.8125 39.015625 
Q 14.890625 38.140625 10.796875 36.28125 
z
" id="DejaVuSans-35"/>
      <path d="M 44.28125 53.078125 
L 44.28125 44.578125 
Q 40.484375 46.53125 36.375 47.5 
Q 32.28125 48.484375 27.875 48.484375 
Q 21.1875 48.484375 17.84375 46.4375 
Q 14.5 44.390625 14.5 40.28125 
Q 14.5 37.15625 16.890625 35.375 
Q 19.28125 33.59375 26.515625 31.984375 
L 29.59375 31.296875 
Q 39.15625 29.25 43.1875 25.515625 
Q 47.21875 21.78125 47.21875 15.09375 
Q 47.21875 7.46875 41.1875 3.015625 
Q 35.15625 -1.421875 24.609375 -1.421875 
Q 20.21875 -1.421875 15.453125 -0.5625 
Q 10.6875 0.296875 5.421875 2 
L 5.421875 11.28125 
Q 10.40625 8.6875 15.234375 7.390625 
Q 20.0625 6.109375 24.8125 6.109375 
Q 31.15625 6.109375 34.5625 8.28125 
Q 37.984375 10.453125 37.984375 14.40625 
Q 37.984375 18.0625 35.515625 20.015625 
Q 33.0625 21.96875 24.703125 23.78125 
L 21.578125 24.515625 
Q 13.234375 26.265625 9.515625 29.90625 
Q 5.8125 33.546875 5.8125 39.890625 
Q 5.8125 47.609375 11.28125 51.796875 
Q 16.75 56 26.8125 56 
Q 31.78125 56 36.171875 55.265625 
Q 40.578125 54.546875 44.28125 53.078125 
" id="DejaVuSans-73"/>
     </defs>
     <g transform="translate(345.145 38.916562)scale(0.1 -0.1)">
      <use xlink:href="#DejaVuSans-30"/>
      <use x="63.623047" xlink:href="#DejaVuSans-2e"/>
      <use x="95.410156" xlink:href="#DejaVuSans-30"/>
      <use x="159.033203" xlink:href="#DejaVuSans-31"/>
      <use x="222.65625" xlink:href="#DejaVuSans-35"/>
      <use x="286.279297" xlink:href="#DejaVuSans-20"/>
      <use x="318.066406" xlink:href="#DejaVuSans-6d"/>
      <use x="415.478516" xlink:href="#DejaVuSans-73"/>
     </g>
    </g>
    <g id="line2d_36">
     <path d="M 317.145 50.094688 
L 337.145 50.094688 
" style="fill:none;stroke:#ff7f0e;stroke-linecap:square;stroke-width:1.5;"/>
    </g>
    <g id="line2d_37"/>
    <g id="text_20">
     <!-- 0.1 ms -->
     <g transform="translate(345.145 53.594688)scale(0.1 -0.1)">
      <use xlink:href="#DejaVuSans-30"/>
      <use x="63.623047" xlink:href="#DejaVuSans-2e"/>
      <use x="95.410156" xlink:href="#DejaVuSans-31"/>
      <use x="159.033203" xlink:href="#DejaVuSans-20"/>
      <use x="190.820312" xlink:href="#DejaVuSans-6d"/>
      <use x="288.232422" xlink:href="#DejaVuSans-73"/>
     </g>
    </g>
    <g id="line2d_38">
     <path d="M 317.145 64.772812 
L 337.145 64.772812 
" style="fill:none;stroke:#2ca02c;stroke-linecap:square;stroke-width:1.5;"/>
    </g>
    <g id="line2d_39"/>
    <g id="text_21">
     <!-- 0.6 ms -->
     <g transform="translate(345.145 68.272812)scale(0.1 -0.1)">
      <use xlink:href="#DejaVuSans-30"/>
      <use x="63.623047" xlink:href="#DejaVuSans-2e"/>
      <use x="95.410156" xlink:href="#DejaVuSans-36"/>
      <use x="159.033203" xlink:href="#DejaVuSans-20"/>
      <use x="190.820312" xlink:href="#DejaVuSans-6d"/>
      <use x="288.232422" xlink:href="#DejaVuSans-73"/>
     </g>
    </g>
   </g>
  </g>
 </g>
 <defs>
  <clipPath id="p368c0be996">
   <rect height="266.112" width="357.12" x="43.78125" y="22.318125"/>
  </clipPath>
 </defs>
</svg>
