<?xml version="1.0" encoding="utf-8" standalone="no"?>
<!DOCTYPE svg PUBLIC "-//W3C//DTD SVG 1.1//EN"
  "http://www.w3.org/Graphics/SVG/1.1/DTD/svg11.dtd">
<!-- Created with matplotlib (http://matplotlib.org/) -->
<svg height="325pt" version="1.1" viewBox="0 0 439 325" width="439pt" xmlns="http://www.w3.org/2000/svg" xmlns:xlink="http://www.w3.org/1999/xlink">
 <defs>
  <style type="text/css">
*{stroke-linecap:butt;stroke-linejoin:round;}
  </style>
 </defs>
 <g id="figure_1">
  <g id="patch_1">
   <path d="M 0 325.986375 
L 439.916875 325.986375 
L 439.916875 0 
L 0 0 
z
" style="fill:#ffffff;"/>
  </g>
  <g id="axes_1">
   <g id="patch_2">
    <path d="M 59.690625 288.430125 
L 416.810625 288.430125 
L 416.810625 22.318125 
L 59.690625 22.318125 
z
" style="fill:#ffffff;"/>
   </g>
   <g id="matplotlib.axis_1">
    <g id="xtick_1">
     <g id="line2d_1">
      <path clip-path="url(#p2cb16e9d34)" d="M 59.690625 288.430125 
L 59.690625 22.318125 
" style="fill:none;stroke:#b0b0b0;stroke-linecap:square;stroke-width:0.8;"/>
     </g>
     <g id="line2d_2">
      <defs>
       <path d="M 0 0 
L 0 3.5 
" id="m3478dcdab8" style="stroke:#000000;stroke-width:0.8;"/>
      </defs>
      <g>
       <use style="stroke:#000000;stroke-width:0.8;" x="59.690625" xlink:href="#m3478dcdab8" y="288.430125"/>
      </g>
     </g>
     <g id="text_1">
      <!-- −80000 -->
      <defs>
       <path d="M 10.59375 35.5 
L 73.1875 35.5 
L 73.1875 27.203125 
L 10.59375 27.203125 
z
" id="DejaVuSans-2212"/>
       <path d="M 31.78125 34.625 
Q 24.75 34.625 20.71875 30.859375 
Q 16.703125 27.09375 16.703125 20.515625 
Q 16.703125 13.921875 20.71875 10.15625 
Q 24.75 6.390625 31.78125 6.390625 
Q 38.8125 6.390625 42.859375 10.171875 
Q 46.921875 13.96875 46.921875 20.515625 
Q 46.921875 27.09375 42.890625 30.859375 
Q 38.875 34.625 31.78125 34.625 
M 21.921875 38.8125 
Q 15.578125 40.375 12.03125 44.71875 
Q 8.5 49.078125 8.5 55.328125 
Q 8.5 64.0625 14.71875 69.140625 
Q 20.953125 74.21875 31.78125 74.21875 
Q 42.671875 74.21875 48.875 69.140625 
Q 55.078125 64.0625 55.078125 55.328125 
Q 55.078125 49.078125 51.53125 44.71875 
Q 48 40.375 41.703125 38.8125 
Q 48.828125 37.15625 52.796875 32.3125 
Q 56.78125 27.484375 56.78125 20.515625 
Q 56.78125 9.90625 50.3125 4.234375 
Q 43.84375 -1.421875 31.78125 -1.421875 
Q 19.734375 -1.421875 13.25 4.234375 
Q 6.78125 9.90625 6.78125 20.515625 
Q 6.78125 27.484375 10.78125 32.3125 
Q 14.796875 37.15625 21.921875 38.8125 
M 18.3125 54.390625 
Q 18.3125 48.734375 21.84375 45.5625 
Q 25.390625 42.390625 31.78125 42.390625 
Q 38.140625 42.390625 41.71875 45.5625 
Q 45.3125 48.734375 45.3125 54.390625 
Q 45.3125 60.0625 41.71875 63.234375 
Q 38.140625 66.40625 31.78125 66.40625 
Q 25.390625 66.40625 21.84375 63.234375 
Q 18.3125 60.0625 18.3125 54.390625 
" id="DejaVuSans-38"/>
       <path d="M 31.78125 66.40625 
Q 24.171875 66.40625 20.328125 58.90625 
Q 16.5 51.421875 16.5 36.375 
Q 16.5 21.390625 20.328125 13.890625 
Q 24.171875 6.390625 31.78125 6.390625 
Q 39.453125 6.390625 43.28125 13.890625 
Q 47.125 21.390625 47.125 36.375 
Q 47.125 51.421875 43.28125 58.90625 
Q 39.453125 66.40625 31.78125 66.40625 
M 31.78125 74.21875 
Q 44.046875 74.21875 50.515625 64.515625 
Q 56.984375 54.828125 56.984375 36.375 
Q 56.984375 17.96875 50.515625 8.265625 
Q 44.046875 -1.421875 31.78125 -1.421875 
Q 19.53125 -1.421875 13.0625 8.265625 
Q 6.59375 17.96875 6.59375 36.375 
Q 6.59375 54.828125 13.0625 64.515625 
Q 19.53125 74.21875 31.78125 74.21875 
" id="DejaVuSans-30"/>
      </defs>
      <g transform="translate(39.594531 303.028562)scale(0.1 -0.1)">
       <use xlink:href="#DejaVuSans-2212"/>
       <use x="83.789062" xlink:href="#DejaVuSans-38"/>
       <use x="147.412109" xlink:href="#DejaVuSans-30"/>
       <use x="211.035156" xlink:href="#DejaVuSans-30"/>
       <use x="274.658203" xlink:href="#DejaVuSans-30"/>
       <use x="338.28125" xlink:href="#DejaVuSans-30"/>
      </g>
     </g>
    </g>
    <g id="xtick_2">
     <g id="line2d_3">
      <path clip-path="url(#p2cb16e9d34)" d="M 104.330625 288.430125 
L 104.330625 22.318125 
" style="fill:none;stroke:#b0b0b0;stroke-linecap:square;stroke-width:0.8;"/>
     </g>
     <g id="line2d_4">
      <g>
       <use style="stroke:#000000;stroke-width:0.8;" x="104.330625" xlink:href="#m3478dcdab8" y="288.430125"/>
      </g>
     </g>
     <g id="text_2">
      <!-- −60000 -->
      <defs>
       <path d="M 33.015625 40.375 
Q 26.375 40.375 22.484375 35.828125 
Q 18.609375 31.296875 18.609375 23.390625 
Q 18.609375 15.53125 22.484375 10.953125 
Q 26.375 6.390625 33.015625 6.390625 
Q 39.65625 6.390625 43.53125 10.953125 
Q 47.40625 15.53125 47.40625 23.390625 
Q 47.40625 31.296875 43.53125 35.828125 
Q 39.65625 40.375 33.015625 40.375 
M 52.59375 71.296875 
L 52.59375 62.3125 
Q 48.875 64.0625 45.09375 64.984375 
Q 41.3125 65.921875 37.59375 65.921875 
Q 27.828125 65.921875 22.671875 59.328125 
Q 17.53125 52.734375 16.796875 39.40625 
Q 19.671875 43.65625 24.015625 45.921875 
Q 28.375 48.1875 33.59375 48.1875 
Q 44.578125 48.1875 50.953125 41.515625 
Q 57.328125 34.859375 57.328125 23.390625 
Q 57.328125 12.15625 50.6875 5.359375 
Q 44.046875 -1.421875 33.015625 -1.421875 
Q 20.359375 -1.421875 13.671875 8.265625 
Q 6.984375 17.96875 6.984375 36.375 
Q 6.984375 53.65625 15.1875 63.9375 
Q 23.390625 74.21875 37.203125 74.21875 
Q 40.921875 74.21875 44.703125 73.484375 
Q 48.484375 72.75 52.59375 71.296875 
" id="DejaVuSans-36"/>
      </defs>
      <g transform="translate(84.234531 303.028562)scale(0.1 -0.1)">
       <use xlink:href="#DejaVuSans-2212"/>
       <use x="83.789062" xlink:href="#DejaVuSans-36"/>
       <use x="147.412109" xlink:href="#DejaVuSans-30"/>
       <use x="211.035156" xlink:href="#DejaVuSans-30"/>
       <use x="274.658203" xlink:href="#DejaVuSans-30"/>
       <use x="338.28125" xlink:href="#DejaVuSans-30"/>
      </g>
     </g>
    </g>
    <g id="xtick_3">
     <g id="line2d_5">
      <path clip-path="url(#p2cb16e9d34)" d="M 148.970625 288.430125 
L 148.970625 22.318125 
" style="fill:none;stroke:#b0b0b0;stroke-linecap:square;stroke-width:0.8;"/>
     </g>
     <g id="line2d_6">
      <g>
       <use style="stroke:#000000;stroke-width:0.8;" x="148.970625" xlink:href="#m3478dcdab8" y="288.430125"/>
      </g>
     </g>
     <g id="text_3">
      <!-- −40000 -->
      <defs>
       <path d="M 37.796875 64.3125 
L 12.890625 25.390625 
L 37.796875 25.390625 
z
M 35.203125 72.90625 
L 47.609375 72.90625 
L 47.609375 25.390625 
L 58.015625 25.390625 
L 58.015625 17.1875 
L 47.609375 17.1875 
L 47.609375 0 
L 37.796875 0 
L 37.796875 17.1875 
L 4.890625 17.1875 
L 4.890625 26.703125 
z
" id="DejaVuSans-34"/>
      </defs>
      <g transform="translate(128.874531 303.028562)scale(0.1 -0.1)">
       <use xlink:href="#DejaVuSans-2212"/>
       <use x="83.789062" xlink:href="#DejaVuSans-34"/>
       <use x="147.412109" xlink:href="#DejaVuSans-30"/>
       <use x="211.035156" xlink:href="#DejaVuSans-30"/>
       <use x="274.658203" xlink:href="#DejaVuSans-30"/>
       <use x="338.28125" xlink:href="#DejaVuSans-30"/>
      </g>
     </g>
    </g>
    <g id="xtick_4">
     <g id="line2d_7">
      <path clip-path="url(#p2cb16e9d34)" d="M 193.610625 288.430125 
L 193.610625 22.318125 
" style="fill:none;stroke:#b0b0b0;stroke-linecap:square;stroke-width:0.8;"/>
     </g>
     <g id="line2d_8">
      <g>
       <use style="stroke:#000000;stroke-width:0.8;" x="193.610625" xlink:href="#m3478dcdab8" y="288.430125"/>
      </g>
     </g>
     <g id="text_4">
      <!-- −20000 -->
      <defs>
       <path d="M 19.1875 8.296875 
L 53.609375 8.296875 
L 53.609375 0 
L 7.328125 0 
L 7.328125 8.296875 
Q 12.9375 14.109375 22.625 23.890625 
Q 32.328125 33.6875 34.8125 36.53125 
Q 39.546875 41.84375 41.421875 45.53125 
Q 43.3125 49.21875 43.3125 52.78125 
Q 43.3125 58.59375 39.234375 62.25 
Q 35.15625 65.921875 28.609375 65.921875 
Q 23.96875 65.921875 18.8125 64.3125 
Q 13.671875 62.703125 7.8125 59.421875 
L 7.8125 69.390625 
Q 13.765625 71.78125 18.9375 73 
Q 24.125 74.21875 28.421875 74.21875 
Q 39.75 74.21875 46.484375 68.546875 
Q 53.21875 62.890625 53.21875 53.421875 
Q 53.21875 48.921875 51.53125 44.890625 
Q 49.859375 40.875 45.40625 35.40625 
Q 44.1875 33.984375 37.640625 27.21875 
Q 31.109375 20.453125 19.1875 8.296875 
" id="DejaVuSans-32"/>
      </defs>
      <g transform="translate(173.514531 303.028562)scale(0.1 -0.1)">
       <use xlink:href="#DejaVuSans-2212"/>
       <use x="83.789062" xlink:href="#DejaVuSans-32"/>
       <use x="147.412109" xlink:href="#DejaVuSans-30"/>
       <use x="211.035156" xlink:href="#DejaVuSans-30"/>
       <use x="274.658203" xlink:href="#DejaVuSans-30"/>
       <use x="338.28125" xlink:href="#DejaVuSans-30"/>
      </g>
     </g>
    </g>
    <g id="xtick_5">
     <g id="line2d_9">
      <path clip-path="url(#p2cb16e9d34)" d="M 238.250625 288.430125 
L 238.250625 22.318125 
" style="fill:none;stroke:#b0b0b0;stroke-linecap:square;stroke-width:0.8;"/>
     </g>
     <g id="line2d_10">
      <g>
       <use style="stroke:#000000;stroke-width:0.8;" x="238.250625" xlink:href="#m3478dcdab8" y="288.430125"/>
      </g>
     </g>
     <g id="text_5">
      <!-- 0 -->
      <g transform="translate(235.069375 303.028562)scale(0.1 -0.1)">
       <use xlink:href="#DejaVuSans-30"/>
      </g>
     </g>
    </g>
    <g id="xtick_6">
     <g id="line2d_11">
      <path clip-path="url(#p2cb16e9d34)" d="M 282.890625 288.430125 
L 282.890625 22.318125 
" style="fill:none;stroke:#b0b0b0;stroke-linecap:square;stroke-width:0.8;"/>
     </g>
     <g id="line2d_12">
      <g>
       <use style="stroke:#000000;stroke-width:0.8;" x="282.890625" xlink:href="#m3478dcdab8" y="288.430125"/>
      </g>
     </g>
     <g id="text_6">
      <!-- 20000 -->
      <g transform="translate(266.984375 303.028562)scale(0.1 -0.1)">
       <use xlink:href="#DejaVuSans-32"/>
       <use x="63.623047" xlink:href="#DejaVuSans-30"/>
       <use x="127.246094" xlink:href="#DejaVuSans-30"/>
       <use x="190.869141" xlink:href="#DejaVuSans-30"/>
       <use x="254.492188" xlink:href="#DejaVuSans-30"/>
      </g>
     </g>
    </g>
    <g id="xtick_7">
     <g id="line2d_13">
      <path clip-path="url(#p2cb16e9d34)" d="M 327.530625 288.430125 
L 327.530625 22.318125 
" style="fill:none;stroke:#b0b0b0;stroke-linecap:square;stroke-width:0.8;"/>
     </g>
     <g id="line2d_14">
      <g>
       <use style="stroke:#000000;stroke-width:0.8;" x="327.530625" xlink:href="#m3478dcdab8" y="288.430125"/>
      </g>
     </g>
     <g id="text_7">
      <!-- 40000 -->
      <g transform="translate(311.624375 303.028562)scale(0.1 -0.1)">
       <use xlink:href="#DejaVuSans-34"/>
       <use x="63.623047" xlink:href="#DejaVuSans-30"/>
       <use x="127.246094" xlink:href="#DejaVuSans-30"/>
       <use x="190.869141" xlink:href="#DejaVuSans-30"/>
       <use x="254.492188" xlink:href="#DejaVuSans-30"/>
      </g>
     </g>
    </g>
    <g id="xtick_8">
     <g id="line2d_15">
      <path clip-path="url(#p2cb16e9d34)" d="M 372.170625 288.430125 
L 372.170625 22.318125 
" style="fill:none;stroke:#b0b0b0;stroke-linecap:square;stroke-width:0.8;"/>
     </g>
     <g id="line2d_16">
      <g>
       <use style="stroke:#000000;stroke-width:0.8;" x="372.170625" xlink:href="#m3478dcdab8" y="288.430125"/>
      </g>
     </g>
     <g id="text_8">
      <!-- 60000 -->
      <g transform="translate(356.264375 303.028562)scale(0.1 -0.1)">
       <use xlink:href="#DejaVuSans-36"/>
       <use x="63.623047" xlink:href="#DejaVuSans-30"/>
       <use x="127.246094" xlink:href="#DejaVuSans-30"/>
       <use x="190.869141" xlink:href="#DejaVuSans-30"/>
       <use x="254.492188" xlink:href="#DejaVuSans-30"/>
      </g>
     </g>
    </g>
    <g id="xtick_9">
     <g id="line2d_17">
      <path clip-path="url(#p2cb16e9d34)" d="M 416.810625 288.430125 
L 416.810625 22.318125 
" style="fill:none;stroke:#b0b0b0;stroke-linecap:square;stroke-width:0.8;"/>
     </g>
     <g id="line2d_18">
      <g>
       <use style="stroke:#000000;stroke-width:0.8;" x="416.810625" xlink:href="#m3478dcdab8" y="288.430125"/>
      </g>
     </g>
     <g id="text_9">
      <!-- 80000 -->
      <g transform="translate(400.904375 303.028562)scale(0.1 -0.1)">
       <use xlink:href="#DejaVuSans-38"/>
       <use x="63.623047" xlink:href="#DejaVuSans-30"/>
       <use x="127.246094" xlink:href="#DejaVuSans-30"/>
       <use x="190.869141" xlink:href="#DejaVuSans-30"/>
       <use x="254.492188" xlink:href="#DejaVuSans-30"/>
      </g>
     </g>
    </g>
    <g id="text_10">
     <!-- Frequenz [kHz] -->
     <defs>
      <path d="M 9.8125 72.90625 
L 51.703125 72.90625 
L 51.703125 64.59375 
L 19.671875 64.59375 
L 19.671875 43.109375 
L 48.578125 43.109375 
L 48.578125 34.8125 
L 19.671875 34.8125 
L 19.671875 0 
L 9.8125 0 
z
" id="DejaVuSans-46"/>
      <path d="M 41.109375 46.296875 
Q 39.59375 47.171875 37.8125 47.578125 
Q 36.03125 48 33.890625 48 
Q 26.265625 48 22.1875 43.046875 
Q 18.109375 38.09375 18.109375 28.8125 
L 18.109375 0 
L 9.078125 0 
L 9.078125 54.6875 
L 18.109375 54.6875 
L 18.109375 46.1875 
Q 20.953125 51.171875 25.484375 53.578125 
Q 30.03125 56 36.53125 56 
Q 37.453125 56 38.578125 55.875 
Q 39.703125 55.765625 41.0625 55.515625 
z
" id="DejaVuSans-72"/>
      <path d="M 56.203125 29.59375 
L 56.203125 25.203125 
L 14.890625 25.203125 
Q 15.484375 15.921875 20.484375 11.0625 
Q 25.484375 6.203125 34.421875 6.203125 
Q 39.59375 6.203125 44.453125 7.46875 
Q 49.3125 8.734375 54.109375 11.28125 
L 54.109375 2.78125 
Q 49.265625 0.734375 44.1875 -0.34375 
Q 39.109375 -1.421875 33.890625 -1.421875 
Q 20.796875 -1.421875 13.15625 6.1875 
Q 5.515625 13.8125 5.515625 26.8125 
Q 5.515625 40.234375 12.765625 48.109375 
Q 20.015625 56 32.328125 56 
Q 43.359375 56 49.78125 48.890625 
Q 56.203125 41.796875 56.203125 29.59375 
M 47.21875 32.234375 
Q 47.125 39.59375 43.09375 43.984375 
Q 39.0625 48.390625 32.421875 48.390625 
Q 24.90625 48.390625 20.390625 44.140625 
Q 15.875 39.890625 15.1875 32.171875 
z
" id="DejaVuSans-65"/>
      <path d="M 14.796875 27.296875 
Q 14.796875 17.390625 18.875 11.75 
Q 22.953125 6.109375 30.078125 6.109375 
Q 37.203125 6.109375 41.296875 11.75 
Q 45.40625 17.390625 45.40625 27.296875 
Q 45.40625 37.203125 41.296875 42.84375 
Q 37.203125 48.484375 30.078125 48.484375 
Q 22.953125 48.484375 18.875 42.84375 
Q 14.796875 37.203125 14.796875 27.296875 
M 45.40625 8.203125 
Q 42.578125 3.328125 38.25 0.953125 
Q 33.9375 -1.421875 27.875 -1.421875 
Q 17.96875 -1.421875 11.734375 6.484375 
Q 5.515625 14.40625 5.515625 27.296875 
Q 5.515625 40.1875 11.734375 48.09375 
Q 17.96875 56 27.875 56 
Q 33.9375 56 38.25 53.625 
Q 42.578125 51.265625 45.40625 46.390625 
L 45.40625 54.6875 
L 54.390625 54.6875 
L 54.390625 -20.796875 
L 45.40625 -20.796875 
z
" id="DejaVuSans-71"/>
      <path d="M 8.5 21.578125 
L 8.5 54.6875 
L 17.484375 54.6875 
L 17.484375 21.921875 
Q 17.484375 14.15625 20.5 10.265625 
Q 23.53125 6.390625 29.59375 6.390625 
Q 36.859375 6.390625 41.078125 11.03125 
Q 45.3125 15.671875 45.3125 23.6875 
L 45.3125 54.6875 
L 54.296875 54.6875 
L 54.296875 0 
L 45.3125 0 
L 45.3125 8.40625 
Q 42.046875 3.421875 37.71875 1 
Q 33.40625 -1.421875 27.6875 -1.421875 
Q 18.265625 -1.421875 13.375 4.4375 
Q 8.5 10.296875 8.5 21.578125 
M 31.109375 56 
z
" id="DejaVuSans-75"/>
      <path d="M 54.890625 33.015625 
L 54.890625 0 
L 45.90625 0 
L 45.90625 32.71875 
Q 45.90625 40.484375 42.875 44.328125 
Q 39.84375 48.1875 33.796875 48.1875 
Q 26.515625 48.1875 22.3125 43.546875 
Q 18.109375 38.921875 18.109375 30.90625 
L 18.109375 0 
L 9.078125 0 
L 9.078125 54.6875 
L 18.109375 54.6875 
L 18.109375 46.1875 
Q 21.34375 51.125 25.703125 53.5625 
Q 30.078125 56 35.796875 56 
Q 45.21875 56 50.046875 50.171875 
Q 54.890625 44.34375 54.890625 33.015625 
" id="DejaVuSans-6e"/>
      <path d="M 5.515625 54.6875 
L 48.1875 54.6875 
L 48.1875 46.484375 
L 14.40625 7.171875 
L 48.1875 7.171875 
L 48.1875 0 
L 4.296875 0 
L 4.296875 8.203125 
L 38.09375 47.515625 
L 5.515625 47.515625 
z
" id="DejaVuSans-7a"/>
      <path id="DejaVuSans-20"/>
      <path d="M 8.59375 75.984375 
L 29.296875 75.984375 
L 29.296875 69 
L 17.578125 69 
L 17.578125 -6.203125 
L 29.296875 -6.203125 
L 29.296875 -13.1875 
L 8.59375 -13.1875 
z
" id="DejaVuSans-5b"/>
      <path d="M 9.078125 75.984375 
L 18.109375 75.984375 
L 18.109375 31.109375 
L 44.921875 54.6875 
L 56.390625 54.6875 
L 27.390625 29.109375 
L 57.625 0 
L 45.90625 0 
L 18.109375 26.703125 
L 18.109375 0 
L 9.078125 0 
z
" id="DejaVuSans-6b"/>
      <path d="M 9.8125 72.90625 
L 19.671875 72.90625 
L 19.671875 43.015625 
L 55.515625 43.015625 
L 55.515625 72.90625 
L 65.375 72.90625 
L 65.375 0 
L 55.515625 0 
L 55.515625 34.71875 
L 19.671875 34.71875 
L 19.671875 0 
L 9.8125 0 
z
" id="DejaVuSans-48"/>
      <path d="M 30.421875 75.984375 
L 30.421875 -13.1875 
L 9.71875 -13.1875 
L 9.71875 -6.203125 
L 21.390625 -6.203125 
L 21.390625 69 
L 9.71875 69 
L 9.71875 75.984375 
z
" id="DejaVuSans-5d"/>
     </defs>
     <g transform="translate(200.267031 316.706687)scale(0.1 -0.1)">
      <use xlink:href="#DejaVuSans-46"/>
      <use x="57.410156" xlink:href="#DejaVuSans-72"/>
      <use x="98.492188" xlink:href="#DejaVuSans-65"/>
      <use x="160.015625" xlink:href="#DejaVuSans-71"/>
      <use x="223.492188" xlink:href="#DejaVuSans-75"/>
      <use x="286.871094" xlink:href="#DejaVuSans-65"/>
      <use x="348.394531" xlink:href="#DejaVuSans-6e"/>
      <use x="411.773438" xlink:href="#DejaVuSans-7a"/>
      <use x="464.263672" xlink:href="#DejaVuSans-20"/>
      <use x="496.050781" xlink:href="#DejaVuSans-5b"/>
      <use x="535.064453" xlink:href="#DejaVuSans-6b"/>
      <use x="592.974609" xlink:href="#DejaVuSans-48"/>
      <use x="668.169922" xlink:href="#DejaVuSans-7a"/>
      <use x="720.660156" xlink:href="#DejaVuSans-5d"/>
     </g>
    </g>
   </g>
   <g id="matplotlib.axis_2">
    <g id="ytick_1">
     <g id="line2d_19">
      <path clip-path="url(#p2cb16e9d34)" d="M 59.690625 262.640356 
L 416.810625 262.640356 
" style="fill:none;stroke:#b0b0b0;stroke-linecap:square;stroke-width:0.8;"/>
     </g>
     <g id="line2d_20">
      <defs>
       <path d="M 0 0 
L -3.5 0 
" id="m269f7c01b8" style="stroke:#000000;stroke-width:0.8;"/>
      </defs>
      <g>
       <use style="stroke:#000000;stroke-width:0.8;" x="59.690625" xlink:href="#m269f7c01b8" y="262.640356"/>
      </g>
     </g>
     <g id="text_11">
      <!-- 0 -->
      <g transform="translate(46.328125 266.439575)scale(0.1 -0.1)">
       <use xlink:href="#DejaVuSans-30"/>
      </g>
     </g>
    </g>
    <g id="ytick_2">
     <g id="line2d_21">
      <path clip-path="url(#p2cb16e9d34)" d="M 59.690625 215.833074 
L 416.810625 215.833074 
" style="fill:none;stroke:#b0b0b0;stroke-linecap:square;stroke-width:0.8;"/>
     </g>
     <g id="line2d_22">
      <g>
       <use style="stroke:#000000;stroke-width:0.8;" x="59.690625" xlink:href="#m269f7c01b8" y="215.833074"/>
      </g>
     </g>
     <g id="text_12">
      <!-- 10000 -->
      <defs>
       <path d="M 12.40625 8.296875 
L 28.515625 8.296875 
L 28.515625 63.921875 
L 10.984375 60.40625 
L 10.984375 69.390625 
L 28.421875 72.90625 
L 38.28125 72.90625 
L 38.28125 8.296875 
L 54.390625 8.296875 
L 54.390625 0 
L 12.40625 0 
z
" id="DejaVuSans-31"/>
      </defs>
      <g transform="translate(20.878125 219.632292)scale(0.1 -0.1)">
       <use xlink:href="#DejaVuSans-31"/>
       <use x="63.623047" xlink:href="#DejaVuSans-30"/>
       <use x="127.246094" xlink:href="#DejaVuSans-30"/>
       <use x="190.869141" xlink:href="#DejaVuSans-30"/>
       <use x="254.492188" xlink:href="#DejaVuSans-30"/>
      </g>
     </g>
    </g>
    <g id="ytick_3">
     <g id="line2d_23">
      <path clip-path="url(#p2cb16e9d34)" d="M 59.690625 169.025791 
L 416.810625 169.025791 
" style="fill:none;stroke:#b0b0b0;stroke-linecap:square;stroke-width:0.8;"/>
     </g>
     <g id="line2d_24">
      <g>
       <use style="stroke:#000000;stroke-width:0.8;" x="59.690625" xlink:href="#m269f7c01b8" y="169.025791"/>
      </g>
     </g>
     <g id="text_13">
      <!-- 20000 -->
      <g transform="translate(20.878125 172.82501)scale(0.1 -0.1)">
       <use xlink:href="#DejaVuSans-32"/>
       <use x="63.623047" xlink:href="#DejaVuSans-30"/>
       <use x="127.246094" xlink:href="#DejaVuSans-30"/>
       <use x="190.869141" xlink:href="#DejaVuSans-30"/>
       <use x="254.492188" xlink:href="#DejaVuSans-30"/>
      </g>
     </g>
    </g>
    <g id="ytick_4">
     <g id="line2d_25">
      <path clip-path="url(#p2cb16e9d34)" d="M 59.690625 122.218509 
L 416.810625 122.218509 
" style="fill:none;stroke:#b0b0b0;stroke-linecap:square;stroke-width:0.8;"/>
     </g>
     <g id="line2d_26">
      <g>
       <use style="stroke:#000000;stroke-width:0.8;" x="59.690625" xlink:href="#m269f7c01b8" y="122.218509"/>
      </g>
     </g>
     <g id="text_14">
      <!-- 30000 -->
      <defs>
       <path d="M 40.578125 39.3125 
Q 47.65625 37.796875 51.625 33 
Q 55.609375 28.21875 55.609375 21.1875 
Q 55.609375 10.40625 48.1875 4.484375 
Q 40.765625 -1.421875 27.09375 -1.421875 
Q 22.515625 -1.421875 17.65625 -0.515625 
Q 12.796875 0.390625 7.625 2.203125 
L 7.625 11.71875 
Q 11.71875 9.328125 16.59375 8.109375 
Q 21.484375 6.890625 26.8125 6.890625 
Q 36.078125 6.890625 40.9375 10.546875 
Q 45.796875 14.203125 45.796875 21.1875 
Q 45.796875 27.640625 41.28125 31.265625 
Q 36.765625 34.90625 28.71875 34.90625 
L 20.21875 34.90625 
L 20.21875 43.015625 
L 29.109375 43.015625 
Q 36.375 43.015625 40.234375 45.921875 
Q 44.09375 48.828125 44.09375 54.296875 
Q 44.09375 59.90625 40.109375 62.90625 
Q 36.140625 65.921875 28.71875 65.921875 
Q 24.65625 65.921875 20.015625 65.03125 
Q 15.375 64.15625 9.8125 62.3125 
L 9.8125 71.09375 
Q 15.4375 72.65625 20.34375 73.4375 
Q 25.25 74.21875 29.59375 74.21875 
Q 40.828125 74.21875 47.359375 69.109375 
Q 53.90625 64.015625 53.90625 55.328125 
Q 53.90625 49.265625 50.4375 45.09375 
Q 46.96875 40.921875 40.578125 39.3125 
" id="DejaVuSans-33"/>
      </defs>
      <g transform="translate(20.878125 126.017727)scale(0.1 -0.1)">
       <use xlink:href="#DejaVuSans-33"/>
       <use x="63.623047" xlink:href="#DejaVuSans-30"/>
       <use x="127.246094" xlink:href="#DejaVuSans-30"/>
       <use x="190.869141" xlink:href="#DejaVuSans-30"/>
       <use x="254.492188" xlink:href="#DejaVuSans-30"/>
      </g>
     </g>
    </g>
    <g id="ytick_5">
     <g id="line2d_27">
      <path clip-path="url(#p2cb16e9d34)" d="M 59.690625 75.411226 
L 416.810625 75.411226 
" style="fill:none;stroke:#b0b0b0;stroke-linecap:square;stroke-width:0.8;"/>
     </g>
     <g id="line2d_28">
      <g>
       <use style="stroke:#000000;stroke-width:0.8;" x="59.690625" xlink:href="#m269f7c01b8" y="75.411226"/>
      </g>
     </g>
     <g id="text_15">
      <!-- 40000 -->
      <g transform="translate(20.878125 79.210445)scale(0.1 -0.1)">
       <use xlink:href="#DejaVuSans-34"/>
       <use x="63.623047" xlink:href="#DejaVuSans-30"/>
       <use x="127.246094" xlink:href="#DejaVuSans-30"/>
       <use x="190.869141" xlink:href="#DejaVuSans-30"/>
       <use x="254.492188" xlink:href="#DejaVuSans-30"/>
      </g>
     </g>
    </g>
    <g id="ytick_6">
     <g id="line2d_29">
      <path clip-path="url(#p2cb16e9d34)" d="M 59.690625 28.603944 
L 416.810625 28.603944 
" style="fill:none;stroke:#b0b0b0;stroke-linecap:square;stroke-width:0.8;"/>
     </g>
     <g id="line2d_30">
      <g>
       <use style="stroke:#000000;stroke-width:0.8;" x="59.690625" xlink:href="#m269f7c01b8" y="28.603944"/>
      </g>
     </g>
     <g id="text_16">
      <!-- 50000 -->
      <defs>
       <path d="M 10.796875 72.90625 
L 49.515625 72.90625 
L 49.515625 64.59375 
L 19.828125 64.59375 
L 19.828125 46.734375 
Q 21.96875 47.46875 24.109375 47.828125 
Q 26.265625 48.1875 28.421875 48.1875 
Q 40.625 48.1875 47.75 41.5 
Q 54.890625 34.8125 54.890625 23.390625 
Q 54.890625 11.625 47.5625 5.09375 
Q 40.234375 -1.421875 26.90625 -1.421875 
Q 22.3125 -1.421875 17.546875 -0.640625 
Q 12.796875 0.140625 7.71875 1.703125 
L 7.71875 11.625 
Q 12.109375 9.234375 16.796875 8.0625 
Q 21.484375 6.890625 26.703125 6.890625 
Q 35.15625 6.890625 40.078125 11.328125 
Q 45.015625 15.765625 45.015625 23.390625 
Q 45.015625 31 40.078125 35.4375 
Q 35.15625 39.890625 26.703125 39.890625 
Q 22.75 39.890625 18.8125 39.015625 
Q 14.890625 38.140625 10.796875 36.28125 
z
" id="DejaVuSans-35"/>
      </defs>
      <g transform="translate(20.878125 32.403162)scale(0.1 -0.1)">
       <use xlink:href="#DejaVuSans-35"/>
       <use x="63.623047" xlink:href="#DejaVuSans-30"/>
       <use x="127.246094" xlink:href="#DejaVuSans-30"/>
       <use x="190.869141" xlink:href="#DejaVuSans-30"/>
       <use x="254.492188" xlink:href="#DejaVuSans-30"/>
      </g>
     </g>
    </g>
    <g id="text_17">
     <!-- u.a. -->
     <defs>
      <path d="M 10.6875 12.40625 
L 21 12.40625 
L 21 0 
L 10.6875 0 
z
" id="DejaVuSans-2e"/>
      <path d="M 34.28125 27.484375 
Q 23.390625 27.484375 19.1875 25 
Q 14.984375 22.515625 14.984375 16.5 
Q 14.984375 11.71875 18.140625 8.90625 
Q 21.296875 6.109375 26.703125 6.109375 
Q 34.1875 6.109375 38.703125 11.40625 
Q 43.21875 16.703125 43.21875 25.484375 
L 43.21875 27.484375 
z
M 52.203125 31.203125 
L 52.203125 0 
L 43.21875 0 
L 43.21875 8.296875 
Q 40.140625 3.328125 35.546875 0.953125 
Q 30.953125 -1.421875 24.3125 -1.421875 
Q 15.921875 -1.421875 10.953125 3.296875 
Q 6 8.015625 6 15.921875 
Q 6 25.140625 12.171875 29.828125 
Q 18.359375 34.515625 30.609375 34.515625 
L 43.21875 34.515625 
L 43.21875 35.40625 
Q 43.21875 41.609375 39.140625 45 
Q 35.0625 48.390625 27.6875 48.390625 
Q 23 48.390625 18.546875 47.265625 
Q 14.109375 46.140625 10.015625 43.890625 
L 10.015625 52.203125 
Q 14.9375 54.109375 19.578125 55.046875 
Q 24.21875 56 28.609375 56 
Q 40.484375 56 46.34375 49.84375 
Q 52.203125 43.703125 52.203125 31.203125 
" id="DejaVuSans-61"/>
     </defs>
     <g transform="translate(14.798438 164.785062)rotate(-90)scale(0.1 -0.1)">
      <use xlink:href="#DejaVuSans-75"/>
      <use x="63.378906" xlink:href="#DejaVuSans-2e"/>
      <use x="95.166016" xlink:href="#DejaVuSans-61"/>
      <use x="156.445312" xlink:href="#DejaVuSans-2e"/>
     </g>
    </g>
   </g>
   <g id="line2d_31">
    <path clip-path="url(#p2cb16e9d34)" d="M 59.51625 251.810414 
L 61.695938 251.827471 
L 62.785781 251.390103 
L 63.875625 250.884473 
L 66.055313 250.338884 
L 67.145156 249.883328 
L 67.690078 249.845279 
L 70.959609 250.30567 
L 71.504531 250.304415 
L 72.049453 250.17512 
L 75.318984 248.568777 
L 76.95375 247.515678 
L 78.043594 247.35539 
L 79.133438 247.144116 
L 80.223281 246.438928 
L 81.858047 245.010086 
L 82.402969 244.751429 
L 84.582656 244.378061 
L 85.127578 244.045275 
L 87.307266 242.168887 
L 88.397109 241.683444 
L 90.031875 241.35362 
L 91.121719 240.805151 
L 92.211563 240.121402 
L 93.301406 239.166556 
L 94.39125 238.210721 
L 97.115859 236.475733 
L 98.205703 236.202973 
L 98.750625 236.097942 
L 99.295547 235.861379 
L 100.385391 235.091126 
L 100.930313 234.909844 
L 101.475234 235.042368 
L 102.020156 235.3616 
L 102.565078 235.506342 
L 103.11 235.050194 
L 103.654922 233.820255 
L 104.744766 230.459798 
L 105.289688 229.257422 
L 105.834609 228.506561 
L 106.924453 227.616932 
L 108.014297 227.040802 
L 109.649063 226.57938 
L 112.918594 224.915734 
L 115.098281 222.761985 
L 116.188125 221.912012 
L 120.5475 219.150894 
L 121.637344 218.153261 
L 122.727188 216.650544 
L 123.817031 215.184989 
L 124.361953 214.708081 
L 126.541641 213.445952 
L 128.176406 211.599776 
L 129.811172 209.663169 
L 132.535781 205.955954 
L 133.080703 205.5095 
L 133.625625 205.209545 
L 134.715469 204.968605 
L 135.260391 204.912148 
L 135.805313 204.731702 
L 136.350234 204.281696 
L 137.440078 202.636404 
L 138.529922 201.087288 
L 140.709609 198.66583 
L 142.344375 196.697904 
L 143.434219 195.375049 
L 145.068984 192.973576 
L 146.158828 191.90463 
L 147.248672 190.97453 
L 148.338516 189.708592 
L 151.063125 185.786757 
L 152.697891 183.592688 
L 154.332656 181.520724 
L 155.4225 179.518478 
L 157.057266 176.344882 
L 158.692031 174.1506 
L 160.326797 172.008076 
L 161.961563 169.99193 
L 165.776016 164.38045 
L 167.955703 160.243977 
L 169.045547 158.779482 
L 170.680313 156.928743 
L 171.770156 155.227002 
L 173.404922 152.044871 
L 175.039688 148.645283 
L 175.584609 147.879412 
L 176.674453 146.964889 
L 177.219375 146.53296 
L 177.764297 145.93583 
L 178.854141 144.285789 
L 179.943984 142.304862 
L 181.033828 139.56333 
L 182.123672 136.683013 
L 183.758438 133.25976 
L 187.572891 126.014063 
L 189.752578 122.42416 
L 191.932266 118.341912 
L 198.471328 103.957571 
L 199.561172 102.125216 
L 200.651016 100.475123 
L 201.740859 98.394183 
L 202.830703 95.845628 
L 206.100234 87.323766 
L 208.279922 82.529474 
L 212.094375 72.717881 
L 213.184219 70.727842 
L 213.729141 70.273684 
L 214.818984 70.049012 
L 215.363906 69.372407 
L 215.908828 67.999693 
L 218.088516 60.974358 
L 219.178359 58.269901 
L 220.813125 54.71523 
L 223.537734 47.696199 
L 225.717422 43.75682 
L 226.807266 41.354981 
L 228.442031 37.707454 
L 229.531875 36.066541 
L 230.621719 34.961304 
L 231.166641 34.590496 
L 231.711563 34.414125 
L 232.256484 34.477607 
L 233.89125 35.144221 
L 234.436172 35.036914 
L 235.526016 34.55896 
L 236.070938 34.610464 
L 236.615859 35.178923 
L 237.160781 36.566439 
L 237.705703 39.034806 
L 238.795547 46.754083 
L 239.885391 54.458984 
L 240.430313 57.164629 
L 240.975234 59.138091 
L 243.699844 66.874972 
L 244.789688 71.120937 
L 246.424453 77.696241 
L 251.873672 96.726989 
L 257.322891 113.810571 
L 266.041641 139.059927 
L 267.131484 141.225919 
L 268.221328 143.187796 
L 269.311172 145.797076 
L 273.125625 156.210444 
L 274.760391 159.625789 
L 276.395156 163.427879 
L 277.485 165.346915 
L 278.574844 167.026226 
L 279.664688 169.071298 
L 281.299453 172.772702 
L 282.389297 175.314797 
L 283.479141 177.341472 
L 285.113906 180.166839 
L 287.838516 185.18724 
L 288.928359 187.264335 
L 291.652969 191.617479 
L 293.287734 193.952743 
L 294.377578 195.631384 
L 296.012344 198.512189 
L 303.64125 209.060335 
L 310.180313 215.851582 
L 311.270156 216.789306 
L 311.815078 217.383715 
L 312.904922 219.04914 
L 313.994766 220.80445 
L 315.629531 222.924139 
L 316.719375 224.086773 
L 319.988906 227.173713 
L 321.623672 228.588832 
L 323.258438 229.949342 
L 325.438125 231.277911 
L 326.527969 232.426425 
L 328.707656 234.824144 
L 329.252578 235.124937 
L 330.887344 235.681241 
L 331.977188 236.65045 
L 333.611953 238.137586 
L 334.701797 238.732211 
L 335.246719 238.852013 
L 336.336563 238.759876 
L 336.881484 238.700479 
L 337.426406 238.820285 
L 337.971328 239.229031 
L 339.061172 240.723841 
L 340.151016 242.182048 
L 340.695938 242.722595 
L 341.240859 243.092392 
L 341.785781 243.229437 
L 343.420547 242.914925 
L 343.965469 243.044604 
L 347.235 244.643291 
L 348.869766 244.914517 
L 349.414688 245.179971 
L 350.504531 246.091603 
L 351.594375 247.086369 
L 353.229141 248.04859 
L 354.318984 248.564017 
L 356.498672 249.137438 
L 358.133438 249.452372 
L 359.223281 250.258695 
L 359.768203 250.642768 
L 360.313125 250.825734 
L 361.402969 250.877623 
L 361.947891 251.030967 
L 364.6725 252.411058 
L 365.762344 252.444577 
L 367.397109 252.249092 
L 368.486953 252.395722 
L 371.211563 253.30194 
L 371.756484 253.443483 
L 372.846328 254.09297 
L 373.39125 254.401155 
L 373.936172 254.500788 
L 375.570938 254.165628 
L 376.115859 254.238974 
L 377.205703 254.731556 
L 378.840469 255.793709 
L 379.385391 256.00102 
L 379.930313 256.057529 
L 381.020156 255.938447 
L 381.565078 256.028882 
L 383.744766 257.093057 
L 385.379531 257.24807 
L 387.559219 256.931742 
L 389.738906 257.168037 
L 390.82875 257.70259 
L 391.918594 258.269849 
L 392.463516 258.340412 
L 393.553359 258.030871 
L 394.643203 257.757708 
L 397.367813 257.8656 
L 398.457656 258.14621 
L 399.5475 258.853789 
L 401.182266 260.222154 
L 401.727188 260.428656 
L 402.272109 260.331316 
L 403.361953 259.73064 
L 403.906875 259.664463 
L 404.451797 259.857371 
L 406.086563 260.910075 
L 406.631484 261.111934 
L 407.176406 261.137572 
L 409.356094 260.545047 
L 412.080703 261.17999 
L 413.170547 260.934117 
L 414.260391 260.588852 
L 414.805313 260.519276 
L 415.895156 260.705381 
L 416.985 261.203412 
L 416.985 261.203412 
" style="fill:none;stroke:#1f77b4;stroke-linecap:square;stroke-width:1.5;"/>
   </g>
   <g id="line2d_32">
    <path clip-path="url(#p2cb16e9d34)" d="M 59.51625 253.689875 
L 60.061172 253.727906 
L 60.606094 253.705784 
L 62.785781 253.427249 
L 64.420547 252.663243 
L 67.145156 251.171752 
L 69.869766 250.352914 
L 71.504531 250.127347 
L 73.139297 250.160193 
L 73.684219 249.982898 
L 74.229141 249.549735 
L 75.863906 247.654097 
L 76.408828 247.366328 
L 76.95375 247.329446 
L 78.043594 247.484129 
L 79.133438 247.290517 
L 81.313125 246.516262 
L 81.858047 246.096374 
L 84.582656 243.327755 
L 85.127578 243.048343 
L 85.6725 242.936851 
L 86.217422 243.025518 
L 87.852188 243.797458 
L 88.397109 243.692354 
L 89.486953 242.803363 
L 90.576797 242.023934 
L 92.756484 241.091386 
L 93.846328 240.044637 
L 94.39125 239.487043 
L 94.936172 239.102288 
L 95.481094 238.969658 
L 97.115859 239.118522 
L 97.660781 238.906609 
L 100.385391 237.24809 
L 100.930313 236.735202 
L 102.020156 235.113256 
L 102.565078 234.264068 
L 103.11 233.766319 
L 103.654922 233.800817 
L 105.289688 235.021669 
L 105.834609 234.946537 
L 106.924453 234.271285 
L 110.193984 231.961723 
L 111.82875 230.250326 
L 115.098281 227.780729 
L 116.733047 226.943178 
L 118.912734 225.104569 
L 119.457656 225.037034 
L 120.5475 225.088011 
L 121.092422 224.85375 
L 121.637344 224.30113 
L 122.727188 222.534883 
L 123.817031 220.697948 
L 124.906875 219.292388 
L 125.451797 218.809789 
L 125.996719 218.476472 
L 127.086563 218.193844 
L 128.176406 217.95418 
L 128.721328 217.613991 
L 129.26625 217.075873 
L 131.990859 213.60628 
L 133.080703 212.929748 
L 134.170547 212.28561 
L 135.805313 210.635826 
L 137.440078 209.534463 
L 137.985 208.839177 
L 139.619766 206.19914 
L 140.709609 204.978233 
L 142.889297 202.54644 
L 144.524063 200.89813 
L 146.70375 199.045621 
L 147.793594 197.474954 
L 148.883438 195.914644 
L 157.057266 186.297635 
L 158.147109 185.496573 
L 158.692031 184.910713 
L 159.781875 183.246404 
L 160.871719 181.381389 
L 161.961563 180.065246 
L 163.051406 179.116624 
L 163.596328 178.506907 
L 164.14125 177.701543 
L 165.231094 175.474984 
L 166.320938 173.050361 
L 166.865859 172.129564 
L 167.955703 170.884622 
L 169.045547 169.692914 
L 170.135391 168.134413 
L 171.770156 165.705013 
L 172.86 164.34601 
L 173.949844 162.496203 
L 175.039688 160.647232 
L 176.129531 159.346407 
L 178.309219 156.884373 
L 179.399063 155.311721 
L 180.488906 153.289503 
L 182.668594 148.659551 
L 183.758438 147.247955 
L 184.848281 145.96462 
L 185.938125 144.017256 
L 187.572891 140.608034 
L 190.2975 135.526332 
L 191.387344 133.212049 
L 200.106094 118.030729 
L 201.195938 116.083656 
L 202.830703 112.724704 
L 204.465469 109.486156 
L 205.555313 107.461291 
L 206.645156 106.095698 
L 207.190078 105.450872 
L 207.735 104.603332 
L 208.279922 103.420979 
L 210.459609 97.691281 
L 211.004531 96.813047 
L 211.549453 96.156764 
L 212.094375 95.707569 
L 213.184219 95.240359 
L 213.729141 94.566181 
L 214.274063 92.950249 
L 215.908828 85.241694 
L 216.45375 83.597012 
L 217.543594 81.480766 
L 220.268203 76.918651 
L 222.992813 71.911771 
L 224.082656 69.273608 
L 225.717422 65.095919 
L 226.807266 63.02685 
L 227.897109 61.506113 
L 228.986953 60.597258 
L 230.076797 59.695439 
L 231.711563 57.989799 
L 232.256484 57.755944 
L 232.801406 57.796703 
L 233.346328 58.085499 
L 234.981094 59.481581 
L 235.526016 59.739783 
L 236.615859 60.074559 
L 237.160781 60.810633 
L 237.705703 62.603974 
L 238.250625 65.656026 
L 239.885391 76.71945 
L 240.975234 81.281899 
L 243.154922 88.274273 
L 244.789688 92.614354 
L 247.514297 99.156324 
L 248.604141 102.65444 
L 250.238906 107.897704 
L 253.508438 116.910814 
L 256.233047 125.350639 
L 257.867813 130.599942 
L 258.957656 133.24836 
L 260.592422 136.521081 
L 261.682266 139.429272 
L 263.317031 143.91837 
L 269.311172 158.321237 
L 272.035781 164.152306 
L 273.125625 165.894816 
L 274.215469 168.277645 
L 276.395156 173.6789 
L 277.485 176.221508 
L 278.029922 177.248271 
L 279.119766 178.588228 
L 280.209609 179.865531 
L 281.299453 181.657171 
L 284.024063 187.070481 
L 285.658828 189.166836 
L 287.293594 191.395907 
L 290.018203 195.366211 
L 292.197891 199.39116 
L 292.742813 200.106861 
L 293.832656 201.019786 
L 294.377578 201.386504 
L 294.9225 201.917795 
L 295.467422 202.737571 
L 297.647109 207.006806 
L 303.096328 214.752796 
L 304.186172 216.18242 
L 304.731094 216.623413 
L 305.820938 217.124667 
L 306.910781 217.564657 
L 308.000625 218.270263 
L 310.180313 220.217117 
L 311.270156 221.682855 
L 312.904922 223.968589 
L 313.994766 225.060331 
L 315.084609 225.971711 
L 316.174453 227.264154 
L 317.264297 228.569483 
L 319.443984 230.67496 
L 319.988906 231.032085 
L 322.168594 231.963139 
L 324.893203 233.769601 
L 328.707656 237.642541 
L 329.252578 237.839532 
L 329.7975 237.752876 
L 330.887344 237.314358 
L 331.432266 237.240645 
L 331.977188 237.319387 
L 332.522109 237.554844 
L 333.067031 237.952994 
L 334.156875 239.144182 
L 335.791641 241.179106 
L 336.881484 242.149339 
L 337.971328 242.685584 
L 339.061172 242.801366 
L 340.151016 242.788244 
L 341.240859 243.004413 
L 342.330703 243.46745 
L 344.510391 244.85164 
L 346.145156 245.295925 
L 347.235 246.163893 
L 348.869766 247.649613 
L 350.504531 248.678033 
L 351.594375 249.125805 
L 352.139297 249.126687 
L 353.229141 248.653415 
L 353.774063 248.37405 
L 354.318984 248.224306 
L 354.863906 248.288141 
L 355.408828 248.57889 
L 357.043594 249.807497 
L 358.133438 250.286853 
L 360.858047 251.220705 
L 361.947891 251.961099 
L 363.037734 252.833283 
L 363.582656 253.003577 
L 365.217422 253.071963 
L 366.852188 253.575579 
L 367.942031 253.559211 
L 370.121719 253.399607 
L 371.211563 253.767765 
L 372.301406 254.161297 
L 373.39125 254.546863 
L 375.026016 255.514109 
L 376.660781 255.925608 
L 378.840469 256.381067 
L 380.475234 256.845186 
L 382.654922 257.069281 
L 384.834609 256.85015 
L 387.559219 257.917389 
L 389.193984 258.224497 
L 390.283828 258.552866 
L 390.82875 258.521749 
L 392.463516 257.868572 
L 393.008438 257.859946 
L 393.553359 258.019039 
L 395.733047 259.104728 
L 396.277969 259.063831 
L 397.912734 258.487383 
L 398.457656 258.536057 
L 400.092422 259.050243 
L 404.451797 259.22826 
L 404.996719 259.402773 
L 406.631484 260.466921 
L 407.176406 260.585126 
L 407.721328 260.493018 
L 409.901016 259.683697 
L 410.990859 259.65017 
L 412.080703 259.912456 
L 413.170547 260.494009 
L 413.715469 260.812282 
L 414.260391 260.975731 
L 414.805313 260.898781 
L 415.895156 260.434457 
L 416.440078 260.424081 
L 416.985 260.644413 
L 416.985 260.644413 
" style="fill:none;stroke:#ff7f0e;stroke-linecap:square;stroke-width:1.5;"/>
   </g>
   <g id="line2d_33">
    <path clip-path="url(#p2cb16e9d34)" d="M 59.51625 256.646864 
L 61.151016 257.389642 
L 61.695938 257.422076 
L 62.785781 257.012484 
L 63.875625 256.589558 
L 66.055313 256.457696 
L 68.235 255.544096 
L 70.959609 254.431087 
L 71.504531 254.659043 
L 72.594375 255.532309 
L 73.139297 255.769861 
L 73.684219 255.748978 
L 74.774063 255.228519 
L 75.863906 254.682741 
L 76.95375 254.534726 
L 78.043594 254.440703 
L 79.133438 254.066397 
L 80.768203 253.336949 
L 81.858047 253.20857 
L 82.402969 253.173243 
L 82.947891 253.016345 
L 84.037734 252.259248 
L 85.127578 251.408491 
L 85.6725 251.136863 
L 88.397109 250.309235 
L 88.942031 250.094299 
L 89.486953 250.032353 
L 91.121719 250.233394 
L 92.756484 250.006523 
L 93.846328 249.720696 
L 94.936172 249.034863 
L 96.026016 248.375646 
L 96.570938 248.286561 
L 98.750625 248.526648 
L 99.840469 247.945387 
L 100.930313 247.340558 
L 102.565078 246.7948 
L 103.654922 246.078089 
L 104.744766 245.221117 
L 105.834609 244.775889 
L 106.924453 244.346509 
L 108.014297 243.887032 
L 110.193984 243.776588 
L 111.82875 243.146265 
L 113.463516 242.804215 
L 115.643203 241.699849 
L 116.733047 240.864339 
L 117.822891 240.064795 
L 118.367813 239.904547 
L 119.457656 239.853207 
L 120.002578 239.672633 
L 121.092422 238.799249 
L 122.727188 237.32926 
L 123.272109 237.074093 
L 124.361953 237.024124 
L 125.451797 237.05496 
L 125.996719 236.951897 
L 126.541641 236.709402 
L 127.631484 235.816692 
L 129.811172 233.661225 
L 131.990859 232.045244 
L 133.080703 231.568747 
L 134.170547 231.201607 
L 135.260391 230.501466 
L 136.895156 229.455912 
L 138.529922 228.648919 
L 143.979141 224.981092 
L 145.068984 223.923799 
L 147.793594 221.956392 
L 148.883438 221.497491 
L 150.518203 221.10906 
L 153.242813 219.838858 
L 154.877578 218.458043 
L 157.057266 216.433303 
L 158.692031 215.448313 
L 159.781875 214.376006 
L 164.686172 209.118499 
L 167.410781 207.033345 
L 170.135391 204.998044 
L 174.494766 200.307028 
L 175.584609 199.370513 
L 177.219375 198.272485 
L 177.764297 197.608668 
L 179.943984 194.11017 
L 182.123672 191.774923 
L 183.213516 190.698609 
L 184.303359 190.20984 
L 184.848281 189.969546 
L 185.393203 189.600721 
L 186.483047 188.471056 
L 188.117813 186.577428 
L 190.842422 183.832719 
L 192.477188 181.609822 
L 194.111953 179.173062 
L 195.746719 176.536209 
L 197.381484 174.421422 
L 200.651016 170.807143 
L 201.740859 169.551696 
L 203.375625 168.292875 
L 204.465469 166.830442 
L 205.555313 165.331104 
L 207.735 162.656969 
L 209.914688 159.58746 
L 211.004531 158.663896 
L 211.549453 158.252238 
L 212.094375 157.608867 
L 213.729141 154.571404 
L 214.274063 154.021328 
L 215.363906 153.559459 
L 215.908828 153.035551 
L 216.998672 151.245613 
L 222.992813 140.807774 
L 224.082656 139.369234 
L 225.717422 137.426816 
L 227.352188 135.087455 
L 228.442031 133.54302 
L 228.986953 132.943769 
L 229.531875 132.527353 
L 230.076797 132.337569 
L 230.621719 132.382265 
L 231.711563 132.78792 
L 232.256484 132.863516 
L 233.89125 132.745939 
L 234.981094 133.337782 
L 236.070938 133.787193 
L 236.615859 134.050983 
L 237.160781 134.821821 
L 237.705703 136.393675 
L 239.340469 143.28058 
L 239.885391 144.892403 
L 240.975234 147.10778 
L 246.969375 158.47188 
L 249.149063 162.775616 
L 251.32875 167.047188 
L 253.508438 170.608214 
L 254.598281 172.400209 
L 255.688125 174.793202 
L 256.777969 177.439435 
L 257.322891 178.41048 
L 258.412734 179.659276 
L 258.957656 180.252929 
L 259.502578 181.023687 
L 260.592422 183.173652 
L 262.772109 187.814699 
L 263.861953 189.667686 
L 264.951797 191.094205 
L 266.041641 192.41528 
L 267.131484 194.042673 
L 268.76625 196.687776 
L 269.856094 197.925523 
L 270.945938 199.040225 
L 272.580703 201.375096 
L 275.850234 206.083452 
L 277.485 208.721718 
L 278.574844 209.788834 
L 279.664688 210.717489 
L 280.754531 211.909442 
L 282.934219 214.762205 
L 284.024063 215.664132 
L 285.113906 216.534779 
L 286.748672 218.389356 
L 290.018203 222.27301 
L 291.652969 223.328706 
L 292.742813 224.636968 
L 293.287734 225.355004 
L 293.832656 225.878924 
L 294.377578 226.155104 
L 295.467422 226.49219 
L 296.557266 227.356516 
L 297.647109 228.271231 
L 300.916641 230.44092 
L 302.551406 232.589634 
L 303.096328 233.017401 
L 304.731094 233.882482 
L 308.000625 236.644848 
L 309.090469 237.100611 
L 310.180313 237.558579 
L 311.270156 238.143776 
L 313.994766 239.235524 
L 315.629531 240.333962 
L 317.264297 241.517633 
L 318.354141 242.861038 
L 319.443984 244.222836 
L 319.988906 244.656061 
L 320.533828 244.869433 
L 321.623672 244.849154 
L 322.713516 244.908087 
L 323.803359 245.233541 
L 325.983047 246.401466 
L 328.162734 246.904137 
L 329.252578 247.578232 
L 330.342422 248.417503 
L 330.887344 248.629417 
L 332.522109 248.485927 
L 333.067031 248.717054 
L 334.156875 249.545849 
L 334.701797 249.815609 
L 335.791641 249.921199 
L 336.881484 249.886313 
L 337.971328 250.098712 
L 339.061172 250.653125 
L 340.151016 251.492871 
L 341.240859 252.391138 
L 341.785781 252.702986 
L 342.875625 252.947794 
L 345.600234 253.114146 
L 346.690078 253.088432 
L 347.235 253.214022 
L 348.324844 253.887988 
L 349.414688 254.610818 
L 350.504531 254.984311 
L 352.139297 255.481324 
L 353.229141 255.809478 
L 354.863906 255.967573 
L 355.95375 255.82574 
L 357.043594 255.499168 
L 358.133438 255.445508 
L 359.768203 255.80842 
L 360.858047 256.251296 
L 363.582656 257.52332 
L 364.6725 257.950594 
L 365.217422 257.998032 
L 366.307266 257.710794 
L 366.852188 257.564237 
L 367.397109 257.548968 
L 369.031875 257.787147 
L 370.666641 257.881173 
L 371.756484 258.288035 
L 372.846328 258.62956 
L 376.660781 258.402341 
L 377.750625 258.602401 
L 378.840469 258.847198 
L 380.475234 259.143196 
L 381.020156 259.235167 
L 382.11 259.059976 
L 382.654922 258.952594 
L 383.199844 259.014021 
L 384.834609 259.663466 
L 385.924453 259.529399 
L 386.469375 259.441019 
L 387.014297 259.494836 
L 388.104141 260.039068 
L 389.193984 260.550801 
L 389.738906 260.624044 
L 390.283828 260.534828 
L 391.918594 259.784483 
L 392.463516 259.800979 
L 393.553359 260.35512 
L 394.098281 260.64799 
L 394.643203 260.804649 
L 395.188125 260.799091 
L 397.367813 260.408639 
L 399.002578 260.344912 
L 400.092422 260.229601 
L 400.637344 260.310826 
L 401.727188 260.8674 
L 402.817031 261.531672 
L 403.906875 261.99968 
L 404.451797 262.098827 
L 404.996719 262.006882 
L 407.176406 260.894994 
L 407.721328 260.921789 
L 408.811172 261.277647 
L 409.901016 261.72118 
L 410.445938 261.831828 
L 411.535781 261.73637 
L 413.170547 261.393125 
L 414.260391 261.469811 
L 415.350234 261.790493 
L 416.440078 261.784083 
L 416.985 261.743429 
L 416.985 261.743429 
" style="fill:none;stroke:#2ca02c;stroke-linecap:square;stroke-width:1.5;"/>
   </g>
   <g id="patch_3">
    <path d="M 59.690625 288.430125 
L 59.690625 22.318125 
" style="fill:none;stroke:#000000;stroke-linecap:square;stroke-linejoin:miter;stroke-width:0.8;"/>
   </g>
   <g id="patch_4">
    <path d="M 416.810625 288.430125 
L 416.810625 22.318125 
" style="fill:none;stroke:#000000;stroke-linecap:square;stroke-linejoin:miter;stroke-width:0.8;"/>
   </g>
   <g id="patch_5">
    <path d="M 59.690625 288.430125 
L 416.810625 288.430125 
" style="fill:none;stroke:#000000;stroke-linecap:square;stroke-linejoin:miter;stroke-width:0.8;"/>
   </g>
   <g id="patch_6">
    <path d="M 59.690625 22.318125 
L 416.810625 22.318125 
" style="fill:none;stroke:#000000;stroke-linecap:square;stroke-linejoin:miter;stroke-width:0.8;"/>
   </g>
   <g id="text_18">
    <!-- Spektrum Vergleich -->
    <defs>
     <path d="M 53.515625 70.515625 
L 53.515625 60.890625 
Q 47.90625 63.578125 42.921875 64.890625 
Q 37.9375 66.21875 33.296875 66.21875 
Q 25.25 66.21875 20.875 63.09375 
Q 16.5 59.96875 16.5 54.203125 
Q 16.5 49.359375 19.40625 46.890625 
Q 22.3125 44.4375 30.421875 42.921875 
L 36.375 41.703125 
Q 47.40625 39.59375 52.65625 34.296875 
Q 57.90625 29 57.90625 20.125 
Q 57.90625 9.515625 50.796875 4.046875 
Q 43.703125 -1.421875 29.984375 -1.421875 
Q 24.8125 -1.421875 18.96875 -0.25 
Q 13.140625 0.921875 6.890625 3.21875 
L 6.890625 13.375 
Q 12.890625 10.015625 18.65625 8.296875 
Q 24.421875 6.59375 29.984375 6.59375 
Q 38.421875 6.59375 43.015625 9.90625 
Q 47.609375 13.234375 47.609375 19.390625 
Q 47.609375 24.75 44.3125 27.78125 
Q 41.015625 30.8125 33.5 32.328125 
L 27.484375 33.5 
Q 16.453125 35.6875 11.515625 40.375 
Q 6.59375 45.0625 6.59375 53.421875 
Q 6.59375 63.09375 13.40625 68.65625 
Q 20.21875 74.21875 32.171875 74.21875 
Q 37.3125 74.21875 42.625 73.28125 
Q 47.953125 72.359375 53.515625 70.515625 
" id="DejaVuSans-53"/>
     <path d="M 18.109375 8.203125 
L 18.109375 -20.796875 
L 9.078125 -20.796875 
L 9.078125 54.6875 
L 18.109375 54.6875 
L 18.109375 46.390625 
Q 20.953125 51.265625 25.265625 53.625 
Q 29.59375 56 35.59375 56 
Q 45.5625 56 51.78125 48.09375 
Q 58.015625 40.1875 58.015625 27.296875 
Q 58.015625 14.40625 51.78125 6.484375 
Q 45.5625 -1.421875 35.59375 -1.421875 
Q 29.59375 -1.421875 25.265625 0.953125 
Q 20.953125 3.328125 18.109375 8.203125 
M 48.6875 27.296875 
Q 48.6875 37.203125 44.609375 42.84375 
Q 40.53125 48.484375 33.40625 48.484375 
Q 26.265625 48.484375 22.1875 42.84375 
Q 18.109375 37.203125 18.109375 27.296875 
Q 18.109375 17.390625 22.1875 11.75 
Q 26.265625 6.109375 33.40625 6.109375 
Q 40.53125 6.109375 44.609375 11.75 
Q 48.6875 17.390625 48.6875 27.296875 
" id="DejaVuSans-70"/>
     <path d="M 18.3125 70.21875 
L 18.3125 54.6875 
L 36.8125 54.6875 
L 36.8125 47.703125 
L 18.3125 47.703125 
L 18.3125 18.015625 
Q 18.3125 11.328125 20.140625 9.421875 
Q 21.96875 7.515625 27.59375 7.515625 
L 36.8125 7.515625 
L 36.8125 0 
L 27.59375 0 
Q 17.1875 0 13.234375 3.875 
Q 9.28125 7.765625 9.28125 18.015625 
L 9.28125 47.703125 
L 2.6875 47.703125 
L 2.6875 54.6875 
L 9.28125 54.6875 
L 9.28125 70.21875 
z
" id="DejaVuSans-74"/>
     <path d="M 52 44.1875 
Q 55.375 50.25 60.0625 53.125 
Q 64.75 56 71.09375 56 
Q 79.640625 56 84.28125 50.015625 
Q 88.921875 44.046875 88.921875 33.015625 
L 88.921875 0 
L 79.890625 0 
L 79.890625 32.71875 
Q 79.890625 40.578125 77.09375 44.375 
Q 74.3125 48.1875 68.609375 48.1875 
Q 61.625 48.1875 57.5625 43.546875 
Q 53.515625 38.921875 53.515625 30.90625 
L 53.515625 0 
L 44.484375 0 
L 44.484375 32.71875 
Q 44.484375 40.625 41.703125 44.40625 
Q 38.921875 48.1875 33.109375 48.1875 
Q 26.21875 48.1875 22.15625 43.53125 
Q 18.109375 38.875 18.109375 30.90625 
L 18.109375 0 
L 9.078125 0 
L 9.078125 54.6875 
L 18.109375 54.6875 
L 18.109375 46.1875 
Q 21.1875 51.21875 25.484375 53.609375 
Q 29.78125 56 35.6875 56 
Q 41.65625 56 45.828125 52.96875 
Q 50 49.953125 52 44.1875 
" id="DejaVuSans-6d"/>
     <path d="M 28.609375 0 
L 0.78125 72.90625 
L 11.078125 72.90625 
L 34.1875 11.53125 
L 57.328125 72.90625 
L 67.578125 72.90625 
L 39.796875 0 
z
" id="DejaVuSans-56"/>
     <path d="M 45.40625 27.984375 
Q 45.40625 37.75 41.375 43.109375 
Q 37.359375 48.484375 30.078125 48.484375 
Q 22.859375 48.484375 18.828125 43.109375 
Q 14.796875 37.75 14.796875 27.984375 
Q 14.796875 18.265625 18.828125 12.890625 
Q 22.859375 7.515625 30.078125 7.515625 
Q 37.359375 7.515625 41.375 12.890625 
Q 45.40625 18.265625 45.40625 27.984375 
M 54.390625 6.78125 
Q 54.390625 -7.171875 48.1875 -13.984375 
Q 42 -20.796875 29.203125 -20.796875 
Q 24.46875 -20.796875 20.265625 -20.09375 
Q 16.0625 -19.390625 12.109375 -17.921875 
L 12.109375 -9.1875 
Q 16.0625 -11.328125 19.921875 -12.34375 
Q 23.78125 -13.375 27.78125 -13.375 
Q 36.625 -13.375 41.015625 -8.765625 
Q 45.40625 -4.15625 45.40625 5.171875 
L 45.40625 9.625 
Q 42.625 4.78125 38.28125 2.390625 
Q 33.9375 0 27.875 0 
Q 17.828125 0 11.671875 7.65625 
Q 5.515625 15.328125 5.515625 27.984375 
Q 5.515625 40.671875 11.671875 48.328125 
Q 17.828125 56 27.875 56 
Q 33.9375 56 38.28125 53.609375 
Q 42.625 51.21875 45.40625 46.390625 
L 45.40625 54.6875 
L 54.390625 54.6875 
z
" id="DejaVuSans-67"/>
     <path d="M 9.421875 75.984375 
L 18.40625 75.984375 
L 18.40625 0 
L 9.421875 0 
z
" id="DejaVuSans-6c"/>
     <path d="M 9.421875 54.6875 
L 18.40625 54.6875 
L 18.40625 0 
L 9.421875 0 
z
M 9.421875 75.984375 
L 18.40625 75.984375 
L 18.40625 64.59375 
L 9.421875 64.59375 
z
" id="DejaVuSans-69"/>
     <path d="M 48.78125 52.59375 
L 48.78125 44.1875 
Q 44.96875 46.296875 41.140625 47.34375 
Q 37.3125 48.390625 33.40625 48.390625 
Q 24.65625 48.390625 19.8125 42.84375 
Q 14.984375 37.3125 14.984375 27.296875 
Q 14.984375 17.28125 19.8125 11.734375 
Q 24.65625 6.203125 33.40625 6.203125 
Q 37.3125 6.203125 41.140625 7.25 
Q 44.96875 8.296875 48.78125 10.40625 
L 48.78125 2.09375 
Q 45.015625 0.34375 40.984375 -0.53125 
Q 36.96875 -1.421875 32.421875 -1.421875 
Q 20.0625 -1.421875 12.78125 6.34375 
Q 5.515625 14.109375 5.515625 27.296875 
Q 5.515625 40.671875 12.859375 48.328125 
Q 20.21875 56 33.015625 56 
Q 37.15625 56 41.109375 55.140625 
Q 45.0625 54.296875 48.78125 52.59375 
" id="DejaVuSans-63"/>
     <path d="M 54.890625 33.015625 
L 54.890625 0 
L 45.90625 0 
L 45.90625 32.71875 
Q 45.90625 40.484375 42.875 44.328125 
Q 39.84375 48.1875 33.796875 48.1875 
Q 26.515625 48.1875 22.3125 43.546875 
Q 18.109375 38.921875 18.109375 30.90625 
L 18.109375 0 
L 9.078125 0 
L 9.078125 75.984375 
L 18.109375 75.984375 
L 18.109375 46.1875 
Q 21.34375 51.125 25.703125 53.5625 
Q 30.078125 56 35.796875 56 
Q 45.21875 56 50.046875 50.171875 
Q 54.890625 44.34375 54.890625 33.015625 
" id="DejaVuSans-68"/>
    </defs>
    <g transform="translate(178.902188 16.318125)scale(0.12 -0.12)">
     <use xlink:href="#DejaVuSans-53"/>
     <use x="63.476562" xlink:href="#DejaVuSans-70"/>
     <use x="126.953125" xlink:href="#DejaVuSans-65"/>
     <use x="188.476562" xlink:href="#DejaVuSans-6b"/>
     <use x="246.386719" xlink:href="#DejaVuSans-74"/>
     <use x="285.595703" xlink:href="#DejaVuSans-72"/>
     <use x="326.708984" xlink:href="#DejaVuSans-75"/>
     <use x="390.087891" xlink:href="#DejaVuSans-6d"/>
     <use x="487.5" xlink:href="#DejaVuSans-20"/>
     <use x="519.287109" xlink:href="#DejaVuSans-56"/>
     <use x="587.585938" xlink:href="#DejaVuSans-65"/>
     <use x="649.109375" xlink:href="#DejaVuSans-72"/>
     <use x="690.207031" xlink:href="#DejaVuSans-67"/>
     <use x="753.683594" xlink:href="#DejaVuSans-6c"/>
     <use x="781.466797" xlink:href="#DejaVuSans-65"/>
     <use x="842.990234" xlink:href="#DejaVuSans-69"/>
     <use x="870.773438" xlink:href="#DejaVuSans-63"/>
     <use x="925.753906" xlink:href="#DejaVuSans-68"/>
    </g>
   </g>
   <g id="legend_1">
    <g id="patch_7">
     <path d="M 331.054375 74.3525 
L 409.810625 74.3525 
Q 411.810625 74.3525 411.810625 72.3525 
L 411.810625 29.318125 
Q 411.810625 27.318125 409.810625 27.318125 
L 331.054375 27.318125 
Q 329.054375 27.318125 329.054375 29.318125 
L 329.054375 72.3525 
Q 329.054375 74.3525 331.054375 74.3525 
z
" style="fill:#ffffff;opacity:0.8;stroke:#cccccc;stroke-linejoin:miter;"/>
    </g>
    <g id="line2d_34">
     <path d="M 333.054375 35.416562 
L 353.054375 35.416562 
" style="fill:none;stroke:#1f77b4;stroke-linecap:square;stroke-width:1.5;"/>
    </g>
    <g id="line2d_35"/>
    <g id="text_19">
     <!-- 0.015 ms -->
     <defs>
      <path d="M 44.28125 53.078125 
L 44.28125 44.578125 
Q 40.484375 46.53125 36.375 47.5 
Q 32.28125 48.484375 27.875 48.484375 
Q 21.1875 48.484375 17.84375 46.4375 
Q 14.5 44.390625 14.5 40.28125 
Q 14.5 37.15625 16.890625 35.375 
Q 19.28125 33.59375 26.515625 31.984375 
L 29.59375 31.296875 
Q 39.15625 29.25 43.1875 25.515625 
Q 47.21875 21.78125 47.21875 15.09375 
Q 47.21875 7.46875 41.1875 3.015625 
Q 35.15625 -1.421875 24.609375 -1.421875 
Q 20.21875 -1.421875 15.453125 -0.5625 
Q 10.6875 0.296875 5.421875 2 
L 5.421875 11.28125 
Q 10.40625 8.6875 15.234375 7.390625 
Q 20.0625 6.109375 24.8125 6.109375 
Q 31.15625 6.109375 34.5625 8.28125 
Q 37.984375 10.453125 37.984375 14.40625 
Q 37.984375 18.0625 35.515625 20.015625 
Q 33.0625 21.96875 24.703125 23.78125 
L 21.578125 24.515625 
Q 13.234375 26.265625 9.515625 29.90625 
Q 5.8125 33.546875 5.8125 39.890625 
Q 5.8125 47.609375 11.28125 51.796875 
Q 16.75 56 26.8125 56 
Q 31.78125 56 36.171875 55.265625 
Q 40.578125 54.546875 44.28125 53.078125 
" id="DejaVuSans-73"/>
     </defs>
     <g transform="translate(361.054375 38.916562)scale(0.1 -0.1)">
      <use xlink:href="#DejaVuSans-30"/>
      <use x="63.623047" xlink:href="#DejaVuSans-2e"/>
      <use x="95.410156" xlink:href="#DejaVuSans-30"/>
      <use x="159.033203" xlink:href="#DejaVuSans-31"/>
      <use x="222.65625" xlink:href="#DejaVuSans-35"/>
      <use x="286.279297" xlink:href="#DejaVuSans-20"/>
      <use x="318.066406" xlink:href="#DejaVuSans-6d"/>
      <use x="415.478516" xlink:href="#DejaVuSans-73"/>
     </g>
    </g>
    <g id="line2d_36">
     <path d="M 333.054375 50.094688 
L 353.054375 50.094688 
" style="fill:none;stroke:#ff7f0e;stroke-linecap:square;stroke-width:1.5;"/>
    </g>
    <g id="line2d_37"/>
    <g id="text_20">
     <!-- 0.1 ms -->
     <g transform="translate(361.054375 53.594688)scale(0.1 -0.1)">
      <use xlink:href="#DejaVuSans-30"/>
      <use x="63.623047" xlink:href="#DejaVuSans-2e"/>
      <use x="95.410156" xlink:href="#DejaVuSans-31"/>
      <use x="159.033203" xlink:href="#DejaVuSans-20"/>
      <use x="190.820312" xlink:href="#DejaVuSans-6d"/>
      <use x="288.232422" xlink:href="#DejaVuSans-73"/>
     </g>
    </g>
    <g id="line2d_38">
     <path d="M 333.054375 64.772812 
L 353.054375 64.772812 
" style="fill:none;stroke:#2ca02c;stroke-linecap:square;stroke-width:1.5;"/>
    </g>
    <g id="line2d_39"/>
    <g id="text_21">
     <!-- 0.6 ms -->
     <g transform="translate(361.054375 68.272812)scale(0.1 -0.1)">
      <use xlink:href="#DejaVuSans-30"/>
      <use x="63.623047" xlink:href="#DejaVuSans-2e"/>
      <use x="95.410156" xlink:href="#DejaVuSans-36"/>
      <use x="159.033203" xlink:href="#DejaVuSans-20"/>
      <use x="190.820312" xlink:href="#DejaVuSans-6d"/>
      <use x="288.232422" xlink:href="#DejaVuSans-73"/>
     </g>
    </g>
   </g>
  </g>
 </g>
 <defs>
  <clipPath id="p2cb16e9d34">
   <rect height="266.112" width="357.12" x="59.690625" y="22.318125"/>
  </clipPath>
 </defs>
</svg>
