<?xml version="1.0" encoding="utf-8" standalone="no"?>
<!DOCTYPE svg PUBLIC "-//W3C//DTD SVG 1.1//EN"
  "http://www.w3.org/Graphics/SVG/1.1/DTD/svg11.dtd">
<!-- Created with matplotlib (http://matplotlib.org/) -->
<svg height="325pt" version="1.1" viewBox="0 0 439 325" width="439pt" xmlns="http://www.w3.org/2000/svg" xmlns:xlink="http://www.w3.org/1999/xlink">
 <defs>
  <style type="text/css">
*{stroke-linecap:butt;stroke-linejoin:round;}
  </style>
 </defs>
 <g id="figure_1">
  <g id="patch_1">
   <path d="M 0 325.986375 
L 439.916875 325.986375 
L 439.916875 0 
L 0 0 
z
" style="fill:#ffffff;"/>
  </g>
  <g id="axes_1">
   <g id="patch_2">
    <path d="M 59.690625 288.430125 
L 416.810625 288.430125 
L 416.810625 22.318125 
L 59.690625 22.318125 
z
" style="fill:#ffffff;"/>
   </g>
   <g id="matplotlib.axis_1">
    <g id="xtick_1">
     <g id="line2d_1">
      <path clip-path="url(#pd0171461f7)" d="M 59.690625 288.430125 
L 59.690625 22.318125 
" style="fill:none;stroke:#b0b0b0;stroke-linecap:square;stroke-width:0.8;"/>
     </g>
     <g id="line2d_2">
      <defs>
       <path d="M 0 0 
L 0 3.5 
" id="maac6f690ca" style="stroke:#000000;stroke-width:0.8;"/>
      </defs>
      <g>
       <use style="stroke:#000000;stroke-width:0.8;" x="59.690625" xlink:href="#maac6f690ca" y="288.430125"/>
      </g>
     </g>
     <g id="text_1">
      <!-- −80000 -->
      <defs>
       <path d="M 10.59375 35.5 
L 73.1875 35.5 
L 73.1875 27.203125 
L 10.59375 27.203125 
z
" id="DejaVuSans-2212"/>
       <path d="M 31.78125 34.625 
Q 24.75 34.625 20.71875 30.859375 
Q 16.703125 27.09375 16.703125 20.515625 
Q 16.703125 13.921875 20.71875 10.15625 
Q 24.75 6.390625 31.78125 6.390625 
Q 38.8125 6.390625 42.859375 10.171875 
Q 46.921875 13.96875 46.921875 20.515625 
Q 46.921875 27.09375 42.890625 30.859375 
Q 38.875 34.625 31.78125 34.625 
M 21.921875 38.8125 
Q 15.578125 40.375 12.03125 44.71875 
Q 8.5 49.078125 8.5 55.328125 
Q 8.5 64.0625 14.71875 69.140625 
Q 20.953125 74.21875 31.78125 74.21875 
Q 42.671875 74.21875 48.875 69.140625 
Q 55.078125 64.0625 55.078125 55.328125 
Q 55.078125 49.078125 51.53125 44.71875 
Q 48 40.375 41.703125 38.8125 
Q 48.828125 37.15625 52.796875 32.3125 
Q 56.78125 27.484375 56.78125 20.515625 
Q 56.78125 9.90625 50.3125 4.234375 
Q 43.84375 -1.421875 31.78125 -1.421875 
Q 19.734375 -1.421875 13.25 4.234375 
Q 6.78125 9.90625 6.78125 20.515625 
Q 6.78125 27.484375 10.78125 32.3125 
Q 14.796875 37.15625 21.921875 38.8125 
M 18.3125 54.390625 
Q 18.3125 48.734375 21.84375 45.5625 
Q 25.390625 42.390625 31.78125 42.390625 
Q 38.140625 42.390625 41.71875 45.5625 
Q 45.3125 48.734375 45.3125 54.390625 
Q 45.3125 60.0625 41.71875 63.234375 
Q 38.140625 66.40625 31.78125 66.40625 
Q 25.390625 66.40625 21.84375 63.234375 
Q 18.3125 60.0625 18.3125 54.390625 
" id="DejaVuSans-38"/>
       <path d="M 31.78125 66.40625 
Q 24.171875 66.40625 20.328125 58.90625 
Q 16.5 51.421875 16.5 36.375 
Q 16.5 21.390625 20.328125 13.890625 
Q 24.171875 6.390625 31.78125 6.390625 
Q 39.453125 6.390625 43.28125 13.890625 
Q 47.125 21.390625 47.125 36.375 
Q 47.125 51.421875 43.28125 58.90625 
Q 39.453125 66.40625 31.78125 66.40625 
M 31.78125 74.21875 
Q 44.046875 74.21875 50.515625 64.515625 
Q 56.984375 54.828125 56.984375 36.375 
Q 56.984375 17.96875 50.515625 8.265625 
Q 44.046875 -1.421875 31.78125 -1.421875 
Q 19.53125 -1.421875 13.0625 8.265625 
Q 6.59375 17.96875 6.59375 36.375 
Q 6.59375 54.828125 13.0625 64.515625 
Q 19.53125 74.21875 31.78125 74.21875 
" id="DejaVuSans-30"/>
      </defs>
      <g transform="translate(39.594531 303.028562)scale(0.1 -0.1)">
       <use xlink:href="#DejaVuSans-2212"/>
       <use x="83.789062" xlink:href="#DejaVuSans-38"/>
       <use x="147.412109" xlink:href="#DejaVuSans-30"/>
       <use x="211.035156" xlink:href="#DejaVuSans-30"/>
       <use x="274.658203" xlink:href="#DejaVuSans-30"/>
       <use x="338.28125" xlink:href="#DejaVuSans-30"/>
      </g>
     </g>
    </g>
    <g id="xtick_2">
     <g id="line2d_3">
      <path clip-path="url(#pd0171461f7)" d="M 104.330625 288.430125 
L 104.330625 22.318125 
" style="fill:none;stroke:#b0b0b0;stroke-linecap:square;stroke-width:0.8;"/>
     </g>
     <g id="line2d_4">
      <g>
       <use style="stroke:#000000;stroke-width:0.8;" x="104.330625" xlink:href="#maac6f690ca" y="288.430125"/>
      </g>
     </g>
     <g id="text_2">
      <!-- −60000 -->
      <defs>
       <path d="M 33.015625 40.375 
Q 26.375 40.375 22.484375 35.828125 
Q 18.609375 31.296875 18.609375 23.390625 
Q 18.609375 15.53125 22.484375 10.953125 
Q 26.375 6.390625 33.015625 6.390625 
Q 39.65625 6.390625 43.53125 10.953125 
Q 47.40625 15.53125 47.40625 23.390625 
Q 47.40625 31.296875 43.53125 35.828125 
Q 39.65625 40.375 33.015625 40.375 
M 52.59375 71.296875 
L 52.59375 62.3125 
Q 48.875 64.0625 45.09375 64.984375 
Q 41.3125 65.921875 37.59375 65.921875 
Q 27.828125 65.921875 22.671875 59.328125 
Q 17.53125 52.734375 16.796875 39.40625 
Q 19.671875 43.65625 24.015625 45.921875 
Q 28.375 48.1875 33.59375 48.1875 
Q 44.578125 48.1875 50.953125 41.515625 
Q 57.328125 34.859375 57.328125 23.390625 
Q 57.328125 12.15625 50.6875 5.359375 
Q 44.046875 -1.421875 33.015625 -1.421875 
Q 20.359375 -1.421875 13.671875 8.265625 
Q 6.984375 17.96875 6.984375 36.375 
Q 6.984375 53.65625 15.1875 63.9375 
Q 23.390625 74.21875 37.203125 74.21875 
Q 40.921875 74.21875 44.703125 73.484375 
Q 48.484375 72.75 52.59375 71.296875 
" id="DejaVuSans-36"/>
      </defs>
      <g transform="translate(84.234531 303.028562)scale(0.1 -0.1)">
       <use xlink:href="#DejaVuSans-2212"/>
       <use x="83.789062" xlink:href="#DejaVuSans-36"/>
       <use x="147.412109" xlink:href="#DejaVuSans-30"/>
       <use x="211.035156" xlink:href="#DejaVuSans-30"/>
       <use x="274.658203" xlink:href="#DejaVuSans-30"/>
       <use x="338.28125" xlink:href="#DejaVuSans-30"/>
      </g>
     </g>
    </g>
    <g id="xtick_3">
     <g id="line2d_5">
      <path clip-path="url(#pd0171461f7)" d="M 148.970625 288.430125 
L 148.970625 22.318125 
" style="fill:none;stroke:#b0b0b0;stroke-linecap:square;stroke-width:0.8;"/>
     </g>
     <g id="line2d_6">
      <g>
       <use style="stroke:#000000;stroke-width:0.8;" x="148.970625" xlink:href="#maac6f690ca" y="288.430125"/>
      </g>
     </g>
     <g id="text_3">
      <!-- −40000 -->
      <defs>
       <path d="M 37.796875 64.3125 
L 12.890625 25.390625 
L 37.796875 25.390625 
z
M 35.203125 72.90625 
L 47.609375 72.90625 
L 47.609375 25.390625 
L 58.015625 25.390625 
L 58.015625 17.1875 
L 47.609375 17.1875 
L 47.609375 0 
L 37.796875 0 
L 37.796875 17.1875 
L 4.890625 17.1875 
L 4.890625 26.703125 
z
" id="DejaVuSans-34"/>
      </defs>
      <g transform="translate(128.874531 303.028562)scale(0.1 -0.1)">
       <use xlink:href="#DejaVuSans-2212"/>
       <use x="83.789062" xlink:href="#DejaVuSans-34"/>
       <use x="147.412109" xlink:href="#DejaVuSans-30"/>
       <use x="211.035156" xlink:href="#DejaVuSans-30"/>
       <use x="274.658203" xlink:href="#DejaVuSans-30"/>
       <use x="338.28125" xlink:href="#DejaVuSans-30"/>
      </g>
     </g>
    </g>
    <g id="xtick_4">
     <g id="line2d_7">
      <path clip-path="url(#pd0171461f7)" d="M 193.610625 288.430125 
L 193.610625 22.318125 
" style="fill:none;stroke:#b0b0b0;stroke-linecap:square;stroke-width:0.8;"/>
     </g>
     <g id="line2d_8">
      <g>
       <use style="stroke:#000000;stroke-width:0.8;" x="193.610625" xlink:href="#maac6f690ca" y="288.430125"/>
      </g>
     </g>
     <g id="text_4">
      <!-- −20000 -->
      <defs>
       <path d="M 19.1875 8.296875 
L 53.609375 8.296875 
L 53.609375 0 
L 7.328125 0 
L 7.328125 8.296875 
Q 12.9375 14.109375 22.625 23.890625 
Q 32.328125 33.6875 34.8125 36.53125 
Q 39.546875 41.84375 41.421875 45.53125 
Q 43.3125 49.21875 43.3125 52.78125 
Q 43.3125 58.59375 39.234375 62.25 
Q 35.15625 65.921875 28.609375 65.921875 
Q 23.96875 65.921875 18.8125 64.3125 
Q 13.671875 62.703125 7.8125 59.421875 
L 7.8125 69.390625 
Q 13.765625 71.78125 18.9375 73 
Q 24.125 74.21875 28.421875 74.21875 
Q 39.75 74.21875 46.484375 68.546875 
Q 53.21875 62.890625 53.21875 53.421875 
Q 53.21875 48.921875 51.53125 44.890625 
Q 49.859375 40.875 45.40625 35.40625 
Q 44.1875 33.984375 37.640625 27.21875 
Q 31.109375 20.453125 19.1875 8.296875 
" id="DejaVuSans-32"/>
      </defs>
      <g transform="translate(173.514531 303.028562)scale(0.1 -0.1)">
       <use xlink:href="#DejaVuSans-2212"/>
       <use x="83.789062" xlink:href="#DejaVuSans-32"/>
       <use x="147.412109" xlink:href="#DejaVuSans-30"/>
       <use x="211.035156" xlink:href="#DejaVuSans-30"/>
       <use x="274.658203" xlink:href="#DejaVuSans-30"/>
       <use x="338.28125" xlink:href="#DejaVuSans-30"/>
      </g>
     </g>
    </g>
    <g id="xtick_5">
     <g id="line2d_9">
      <path clip-path="url(#pd0171461f7)" d="M 238.250625 288.430125 
L 238.250625 22.318125 
" style="fill:none;stroke:#b0b0b0;stroke-linecap:square;stroke-width:0.8;"/>
     </g>
     <g id="line2d_10">
      <g>
       <use style="stroke:#000000;stroke-width:0.8;" x="238.250625" xlink:href="#maac6f690ca" y="288.430125"/>
      </g>
     </g>
     <g id="text_5">
      <!-- 0 -->
      <g transform="translate(235.069375 303.028562)scale(0.1 -0.1)">
       <use xlink:href="#DejaVuSans-30"/>
      </g>
     </g>
    </g>
    <g id="xtick_6">
     <g id="line2d_11">
      <path clip-path="url(#pd0171461f7)" d="M 282.890625 288.430125 
L 282.890625 22.318125 
" style="fill:none;stroke:#b0b0b0;stroke-linecap:square;stroke-width:0.8;"/>
     </g>
     <g id="line2d_12">
      <g>
       <use style="stroke:#000000;stroke-width:0.8;" x="282.890625" xlink:href="#maac6f690ca" y="288.430125"/>
      </g>
     </g>
     <g id="text_6">
      <!-- 20000 -->
      <g transform="translate(266.984375 303.028562)scale(0.1 -0.1)">
       <use xlink:href="#DejaVuSans-32"/>
       <use x="63.623047" xlink:href="#DejaVuSans-30"/>
       <use x="127.246094" xlink:href="#DejaVuSans-30"/>
       <use x="190.869141" xlink:href="#DejaVuSans-30"/>
       <use x="254.492188" xlink:href="#DejaVuSans-30"/>
      </g>
     </g>
    </g>
    <g id="xtick_7">
     <g id="line2d_13">
      <path clip-path="url(#pd0171461f7)" d="M 327.530625 288.430125 
L 327.530625 22.318125 
" style="fill:none;stroke:#b0b0b0;stroke-linecap:square;stroke-width:0.8;"/>
     </g>
     <g id="line2d_14">
      <g>
       <use style="stroke:#000000;stroke-width:0.8;" x="327.530625" xlink:href="#maac6f690ca" y="288.430125"/>
      </g>
     </g>
     <g id="text_7">
      <!-- 40000 -->
      <g transform="translate(311.624375 303.028562)scale(0.1 -0.1)">
       <use xlink:href="#DejaVuSans-34"/>
       <use x="63.623047" xlink:href="#DejaVuSans-30"/>
       <use x="127.246094" xlink:href="#DejaVuSans-30"/>
       <use x="190.869141" xlink:href="#DejaVuSans-30"/>
       <use x="254.492188" xlink:href="#DejaVuSans-30"/>
      </g>
     </g>
    </g>
    <g id="xtick_8">
     <g id="line2d_15">
      <path clip-path="url(#pd0171461f7)" d="M 372.170625 288.430125 
L 372.170625 22.318125 
" style="fill:none;stroke:#b0b0b0;stroke-linecap:square;stroke-width:0.8;"/>
     </g>
     <g id="line2d_16">
      <g>
       <use style="stroke:#000000;stroke-width:0.8;" x="372.170625" xlink:href="#maac6f690ca" y="288.430125"/>
      </g>
     </g>
     <g id="text_8">
      <!-- 60000 -->
      <g transform="translate(356.264375 303.028562)scale(0.1 -0.1)">
       <use xlink:href="#DejaVuSans-36"/>
       <use x="63.623047" xlink:href="#DejaVuSans-30"/>
       <use x="127.246094" xlink:href="#DejaVuSans-30"/>
       <use x="190.869141" xlink:href="#DejaVuSans-30"/>
       <use x="254.492188" xlink:href="#DejaVuSans-30"/>
      </g>
     </g>
    </g>
    <g id="xtick_9">
     <g id="line2d_17">
      <path clip-path="url(#pd0171461f7)" d="M 416.810625 288.430125 
L 416.810625 22.318125 
" style="fill:none;stroke:#b0b0b0;stroke-linecap:square;stroke-width:0.8;"/>
     </g>
     <g id="line2d_18">
      <g>
       <use style="stroke:#000000;stroke-width:0.8;" x="416.810625" xlink:href="#maac6f690ca" y="288.430125"/>
      </g>
     </g>
     <g id="text_9">
      <!-- 80000 -->
      <g transform="translate(400.904375 303.028562)scale(0.1 -0.1)">
       <use xlink:href="#DejaVuSans-38"/>
       <use x="63.623047" xlink:href="#DejaVuSans-30"/>
       <use x="127.246094" xlink:href="#DejaVuSans-30"/>
       <use x="190.869141" xlink:href="#DejaVuSans-30"/>
       <use x="254.492188" xlink:href="#DejaVuSans-30"/>
      </g>
     </g>
    </g>
    <g id="text_10">
     <!-- Frequenz [kHz] -->
     <defs>
      <path d="M 9.8125 72.90625 
L 51.703125 72.90625 
L 51.703125 64.59375 
L 19.671875 64.59375 
L 19.671875 43.109375 
L 48.578125 43.109375 
L 48.578125 34.8125 
L 19.671875 34.8125 
L 19.671875 0 
L 9.8125 0 
z
" id="DejaVuSans-46"/>
      <path d="M 41.109375 46.296875 
Q 39.59375 47.171875 37.8125 47.578125 
Q 36.03125 48 33.890625 48 
Q 26.265625 48 22.1875 43.046875 
Q 18.109375 38.09375 18.109375 28.8125 
L 18.109375 0 
L 9.078125 0 
L 9.078125 54.6875 
L 18.109375 54.6875 
L 18.109375 46.1875 
Q 20.953125 51.171875 25.484375 53.578125 
Q 30.03125 56 36.53125 56 
Q 37.453125 56 38.578125 55.875 
Q 39.703125 55.765625 41.0625 55.515625 
z
" id="DejaVuSans-72"/>
      <path d="M 56.203125 29.59375 
L 56.203125 25.203125 
L 14.890625 25.203125 
Q 15.484375 15.921875 20.484375 11.0625 
Q 25.484375 6.203125 34.421875 6.203125 
Q 39.59375 6.203125 44.453125 7.46875 
Q 49.3125 8.734375 54.109375 11.28125 
L 54.109375 2.78125 
Q 49.265625 0.734375 44.1875 -0.34375 
Q 39.109375 -1.421875 33.890625 -1.421875 
Q 20.796875 -1.421875 13.15625 6.1875 
Q 5.515625 13.8125 5.515625 26.8125 
Q 5.515625 40.234375 12.765625 48.109375 
Q 20.015625 56 32.328125 56 
Q 43.359375 56 49.78125 48.890625 
Q 56.203125 41.796875 56.203125 29.59375 
M 47.21875 32.234375 
Q 47.125 39.59375 43.09375 43.984375 
Q 39.0625 48.390625 32.421875 48.390625 
Q 24.90625 48.390625 20.390625 44.140625 
Q 15.875 39.890625 15.1875 32.171875 
z
" id="DejaVuSans-65"/>
      <path d="M 14.796875 27.296875 
Q 14.796875 17.390625 18.875 11.75 
Q 22.953125 6.109375 30.078125 6.109375 
Q 37.203125 6.109375 41.296875 11.75 
Q 45.40625 17.390625 45.40625 27.296875 
Q 45.40625 37.203125 41.296875 42.84375 
Q 37.203125 48.484375 30.078125 48.484375 
Q 22.953125 48.484375 18.875 42.84375 
Q 14.796875 37.203125 14.796875 27.296875 
M 45.40625 8.203125 
Q 42.578125 3.328125 38.25 0.953125 
Q 33.9375 -1.421875 27.875 -1.421875 
Q 17.96875 -1.421875 11.734375 6.484375 
Q 5.515625 14.40625 5.515625 27.296875 
Q 5.515625 40.1875 11.734375 48.09375 
Q 17.96875 56 27.875 56 
Q 33.9375 56 38.25 53.625 
Q 42.578125 51.265625 45.40625 46.390625 
L 45.40625 54.6875 
L 54.390625 54.6875 
L 54.390625 -20.796875 
L 45.40625 -20.796875 
z
" id="DejaVuSans-71"/>
      <path d="M 8.5 21.578125 
L 8.5 54.6875 
L 17.484375 54.6875 
L 17.484375 21.921875 
Q 17.484375 14.15625 20.5 10.265625 
Q 23.53125 6.390625 29.59375 6.390625 
Q 36.859375 6.390625 41.078125 11.03125 
Q 45.3125 15.671875 45.3125 23.6875 
L 45.3125 54.6875 
L 54.296875 54.6875 
L 54.296875 0 
L 45.3125 0 
L 45.3125 8.40625 
Q 42.046875 3.421875 37.71875 1 
Q 33.40625 -1.421875 27.6875 -1.421875 
Q 18.265625 -1.421875 13.375 4.4375 
Q 8.5 10.296875 8.5 21.578125 
M 31.109375 56 
z
" id="DejaVuSans-75"/>
      <path d="M 54.890625 33.015625 
L 54.890625 0 
L 45.90625 0 
L 45.90625 32.71875 
Q 45.90625 40.484375 42.875 44.328125 
Q 39.84375 48.1875 33.796875 48.1875 
Q 26.515625 48.1875 22.3125 43.546875 
Q 18.109375 38.921875 18.109375 30.90625 
L 18.109375 0 
L 9.078125 0 
L 9.078125 54.6875 
L 18.109375 54.6875 
L 18.109375 46.1875 
Q 21.34375 51.125 25.703125 53.5625 
Q 30.078125 56 35.796875 56 
Q 45.21875 56 50.046875 50.171875 
Q 54.890625 44.34375 54.890625 33.015625 
" id="DejaVuSans-6e"/>
      <path d="M 5.515625 54.6875 
L 48.1875 54.6875 
L 48.1875 46.484375 
L 14.40625 7.171875 
L 48.1875 7.171875 
L 48.1875 0 
L 4.296875 0 
L 4.296875 8.203125 
L 38.09375 47.515625 
L 5.515625 47.515625 
z
" id="DejaVuSans-7a"/>
      <path id="DejaVuSans-20"/>
      <path d="M 8.59375 75.984375 
L 29.296875 75.984375 
L 29.296875 69 
L 17.578125 69 
L 17.578125 -6.203125 
L 29.296875 -6.203125 
L 29.296875 -13.1875 
L 8.59375 -13.1875 
z
" id="DejaVuSans-5b"/>
      <path d="M 9.078125 75.984375 
L 18.109375 75.984375 
L 18.109375 31.109375 
L 44.921875 54.6875 
L 56.390625 54.6875 
L 27.390625 29.109375 
L 57.625 0 
L 45.90625 0 
L 18.109375 26.703125 
L 18.109375 0 
L 9.078125 0 
z
" id="DejaVuSans-6b"/>
      <path d="M 9.8125 72.90625 
L 19.671875 72.90625 
L 19.671875 43.015625 
L 55.515625 43.015625 
L 55.515625 72.90625 
L 65.375 72.90625 
L 65.375 0 
L 55.515625 0 
L 55.515625 34.71875 
L 19.671875 34.71875 
L 19.671875 0 
L 9.8125 0 
z
" id="DejaVuSans-48"/>
      <path d="M 30.421875 75.984375 
L 30.421875 -13.1875 
L 9.71875 -13.1875 
L 9.71875 -6.203125 
L 21.390625 -6.203125 
L 21.390625 69 
L 9.71875 69 
L 9.71875 75.984375 
z
" id="DejaVuSans-5d"/>
     </defs>
     <g transform="translate(200.267031 316.706687)scale(0.1 -0.1)">
      <use xlink:href="#DejaVuSans-46"/>
      <use x="57.410156" xlink:href="#DejaVuSans-72"/>
      <use x="98.492188" xlink:href="#DejaVuSans-65"/>
      <use x="160.015625" xlink:href="#DejaVuSans-71"/>
      <use x="223.492188" xlink:href="#DejaVuSans-75"/>
      <use x="286.871094" xlink:href="#DejaVuSans-65"/>
      <use x="348.394531" xlink:href="#DejaVuSans-6e"/>
      <use x="411.773438" xlink:href="#DejaVuSans-7a"/>
      <use x="464.263672" xlink:href="#DejaVuSans-20"/>
      <use x="496.050781" xlink:href="#DejaVuSans-5b"/>
      <use x="535.064453" xlink:href="#DejaVuSans-6b"/>
      <use x="592.974609" xlink:href="#DejaVuSans-48"/>
      <use x="668.169922" xlink:href="#DejaVuSans-7a"/>
      <use x="720.660156" xlink:href="#DejaVuSans-5d"/>
     </g>
    </g>
   </g>
   <g id="matplotlib.axis_2">
    <g id="ytick_1">
     <g id="line2d_19">
      <path clip-path="url(#pd0171461f7)" d="M 59.690625 267.391409 
L 416.810625 267.391409 
" style="fill:none;stroke:#b0b0b0;stroke-linecap:square;stroke-width:0.8;"/>
     </g>
     <g id="line2d_20">
      <defs>
       <path d="M 0 0 
L -3.5 0 
" id="m35d59f03ea" style="stroke:#000000;stroke-width:0.8;"/>
      </defs>
      <g>
       <use style="stroke:#000000;stroke-width:0.8;" x="59.690625" xlink:href="#m35d59f03ea" y="267.391409"/>
      </g>
     </g>
     <g id="text_11">
      <!-- 0 -->
      <g transform="translate(46.328125 271.190628)scale(0.1 -0.1)">
       <use xlink:href="#DejaVuSans-30"/>
      </g>
     </g>
    </g>
    <g id="ytick_2">
     <g id="line2d_21">
      <path clip-path="url(#pd0171461f7)" d="M 59.690625 218.706653 
L 416.810625 218.706653 
" style="fill:none;stroke:#b0b0b0;stroke-linecap:square;stroke-width:0.8;"/>
     </g>
     <g id="line2d_22">
      <g>
       <use style="stroke:#000000;stroke-width:0.8;" x="59.690625" xlink:href="#m35d59f03ea" y="218.706653"/>
      </g>
     </g>
     <g id="text_12">
      <!-- 10000 -->
      <defs>
       <path d="M 12.40625 8.296875 
L 28.515625 8.296875 
L 28.515625 63.921875 
L 10.984375 60.40625 
L 10.984375 69.390625 
L 28.421875 72.90625 
L 38.28125 72.90625 
L 38.28125 8.296875 
L 54.390625 8.296875 
L 54.390625 0 
L 12.40625 0 
z
" id="DejaVuSans-31"/>
      </defs>
      <g transform="translate(20.878125 222.505872)scale(0.1 -0.1)">
       <use xlink:href="#DejaVuSans-31"/>
       <use x="63.623047" xlink:href="#DejaVuSans-30"/>
       <use x="127.246094" xlink:href="#DejaVuSans-30"/>
       <use x="190.869141" xlink:href="#DejaVuSans-30"/>
       <use x="254.492188" xlink:href="#DejaVuSans-30"/>
      </g>
     </g>
    </g>
    <g id="ytick_3">
     <g id="line2d_23">
      <path clip-path="url(#pd0171461f7)" d="M 59.690625 170.021897 
L 416.810625 170.021897 
" style="fill:none;stroke:#b0b0b0;stroke-linecap:square;stroke-width:0.8;"/>
     </g>
     <g id="line2d_24">
      <g>
       <use style="stroke:#000000;stroke-width:0.8;" x="59.690625" xlink:href="#m35d59f03ea" y="170.021897"/>
      </g>
     </g>
     <g id="text_13">
      <!-- 20000 -->
      <g transform="translate(20.878125 173.821116)scale(0.1 -0.1)">
       <use xlink:href="#DejaVuSans-32"/>
       <use x="63.623047" xlink:href="#DejaVuSans-30"/>
       <use x="127.246094" xlink:href="#DejaVuSans-30"/>
       <use x="190.869141" xlink:href="#DejaVuSans-30"/>
       <use x="254.492188" xlink:href="#DejaVuSans-30"/>
      </g>
     </g>
    </g>
    <g id="ytick_4">
     <g id="line2d_25">
      <path clip-path="url(#pd0171461f7)" d="M 59.690625 121.337141 
L 416.810625 121.337141 
" style="fill:none;stroke:#b0b0b0;stroke-linecap:square;stroke-width:0.8;"/>
     </g>
     <g id="line2d_26">
      <g>
       <use style="stroke:#000000;stroke-width:0.8;" x="59.690625" xlink:href="#m35d59f03ea" y="121.337141"/>
      </g>
     </g>
     <g id="text_14">
      <!-- 30000 -->
      <defs>
       <path d="M 40.578125 39.3125 
Q 47.65625 37.796875 51.625 33 
Q 55.609375 28.21875 55.609375 21.1875 
Q 55.609375 10.40625 48.1875 4.484375 
Q 40.765625 -1.421875 27.09375 -1.421875 
Q 22.515625 -1.421875 17.65625 -0.515625 
Q 12.796875 0.390625 7.625 2.203125 
L 7.625 11.71875 
Q 11.71875 9.328125 16.59375 8.109375 
Q 21.484375 6.890625 26.8125 6.890625 
Q 36.078125 6.890625 40.9375 10.546875 
Q 45.796875 14.203125 45.796875 21.1875 
Q 45.796875 27.640625 41.28125 31.265625 
Q 36.765625 34.90625 28.71875 34.90625 
L 20.21875 34.90625 
L 20.21875 43.015625 
L 29.109375 43.015625 
Q 36.375 43.015625 40.234375 45.921875 
Q 44.09375 48.828125 44.09375 54.296875 
Q 44.09375 59.90625 40.109375 62.90625 
Q 36.140625 65.921875 28.71875 65.921875 
Q 24.65625 65.921875 20.015625 65.03125 
Q 15.375 64.15625 9.8125 62.3125 
L 9.8125 71.09375 
Q 15.4375 72.65625 20.34375 73.4375 
Q 25.25 74.21875 29.59375 74.21875 
Q 40.828125 74.21875 47.359375 69.109375 
Q 53.90625 64.015625 53.90625 55.328125 
Q 53.90625 49.265625 50.4375 45.09375 
Q 46.96875 40.921875 40.578125 39.3125 
" id="DejaVuSans-33"/>
      </defs>
      <g transform="translate(20.878125 125.13636)scale(0.1 -0.1)">
       <use xlink:href="#DejaVuSans-33"/>
       <use x="63.623047" xlink:href="#DejaVuSans-30"/>
       <use x="127.246094" xlink:href="#DejaVuSans-30"/>
       <use x="190.869141" xlink:href="#DejaVuSans-30"/>
       <use x="254.492188" xlink:href="#DejaVuSans-30"/>
      </g>
     </g>
    </g>
    <g id="ytick_5">
     <g id="line2d_27">
      <path clip-path="url(#pd0171461f7)" d="M 59.690625 72.652385 
L 416.810625 72.652385 
" style="fill:none;stroke:#b0b0b0;stroke-linecap:square;stroke-width:0.8;"/>
     </g>
     <g id="line2d_28">
      <g>
       <use style="stroke:#000000;stroke-width:0.8;" x="59.690625" xlink:href="#m35d59f03ea" y="72.652385"/>
      </g>
     </g>
     <g id="text_15">
      <!-- 40000 -->
      <g transform="translate(20.878125 76.451604)scale(0.1 -0.1)">
       <use xlink:href="#DejaVuSans-34"/>
       <use x="63.623047" xlink:href="#DejaVuSans-30"/>
       <use x="127.246094" xlink:href="#DejaVuSans-30"/>
       <use x="190.869141" xlink:href="#DejaVuSans-30"/>
       <use x="254.492188" xlink:href="#DejaVuSans-30"/>
      </g>
     </g>
    </g>
    <g id="ytick_6">
     <g id="line2d_29">
      <path clip-path="url(#pd0171461f7)" d="M 59.690625 23.96763 
L 416.810625 23.96763 
" style="fill:none;stroke:#b0b0b0;stroke-linecap:square;stroke-width:0.8;"/>
     </g>
     <g id="line2d_30">
      <g>
       <use style="stroke:#000000;stroke-width:0.8;" x="59.690625" xlink:href="#m35d59f03ea" y="23.96763"/>
      </g>
     </g>
     <g id="text_16">
      <!-- 50000 -->
      <defs>
       <path d="M 10.796875 72.90625 
L 49.515625 72.90625 
L 49.515625 64.59375 
L 19.828125 64.59375 
L 19.828125 46.734375 
Q 21.96875 47.46875 24.109375 47.828125 
Q 26.265625 48.1875 28.421875 48.1875 
Q 40.625 48.1875 47.75 41.5 
Q 54.890625 34.8125 54.890625 23.390625 
Q 54.890625 11.625 47.5625 5.09375 
Q 40.234375 -1.421875 26.90625 -1.421875 
Q 22.3125 -1.421875 17.546875 -0.640625 
Q 12.796875 0.140625 7.71875 1.703125 
L 7.71875 11.625 
Q 12.109375 9.234375 16.796875 8.0625 
Q 21.484375 6.890625 26.703125 6.890625 
Q 35.15625 6.890625 40.078125 11.328125 
Q 45.015625 15.765625 45.015625 23.390625 
Q 45.015625 31 40.078125 35.4375 
Q 35.15625 39.890625 26.703125 39.890625 
Q 22.75 39.890625 18.8125 39.015625 
Q 14.890625 38.140625 10.796875 36.28125 
z
" id="DejaVuSans-35"/>
      </defs>
      <g transform="translate(20.878125 27.766848)scale(0.1 -0.1)">
       <use xlink:href="#DejaVuSans-35"/>
       <use x="63.623047" xlink:href="#DejaVuSans-30"/>
       <use x="127.246094" xlink:href="#DejaVuSans-30"/>
       <use x="190.869141" xlink:href="#DejaVuSans-30"/>
       <use x="254.492188" xlink:href="#DejaVuSans-30"/>
      </g>
     </g>
    </g>
    <g id="text_17">
     <!-- u.a. -->
     <defs>
      <path d="M 10.6875 12.40625 
L 21 12.40625 
L 21 0 
L 10.6875 0 
z
" id="DejaVuSans-2e"/>
      <path d="M 34.28125 27.484375 
Q 23.390625 27.484375 19.1875 25 
Q 14.984375 22.515625 14.984375 16.5 
Q 14.984375 11.71875 18.140625 8.90625 
Q 21.296875 6.109375 26.703125 6.109375 
Q 34.1875 6.109375 38.703125 11.40625 
Q 43.21875 16.703125 43.21875 25.484375 
L 43.21875 27.484375 
z
M 52.203125 31.203125 
L 52.203125 0 
L 43.21875 0 
L 43.21875 8.296875 
Q 40.140625 3.328125 35.546875 0.953125 
Q 30.953125 -1.421875 24.3125 -1.421875 
Q 15.921875 -1.421875 10.953125 3.296875 
Q 6 8.015625 6 15.921875 
Q 6 25.140625 12.171875 29.828125 
Q 18.359375 34.515625 30.609375 34.515625 
L 43.21875 34.515625 
L 43.21875 35.40625 
Q 43.21875 41.609375 39.140625 45 
Q 35.0625 48.390625 27.6875 48.390625 
Q 23 48.390625 18.546875 47.265625 
Q 14.109375 46.140625 10.015625 43.890625 
L 10.015625 52.203125 
Q 14.9375 54.109375 19.578125 55.046875 
Q 24.21875 56 28.609375 56 
Q 40.484375 56 46.34375 49.84375 
Q 52.203125 43.703125 52.203125 31.203125 
" id="DejaVuSans-61"/>
     </defs>
     <g transform="translate(14.798438 164.785062)rotate(-90)scale(0.1 -0.1)">
      <use xlink:href="#DejaVuSans-75"/>
      <use x="63.378906" xlink:href="#DejaVuSans-2e"/>
      <use x="95.166016" xlink:href="#DejaVuSans-61"/>
      <use x="156.445312" xlink:href="#DejaVuSans-2e"/>
     </g>
    </g>
   </g>
   <g id="line2d_31">
    <path clip-path="url(#pd0171461f7)" d="M 59.51625 257.409151 
L 62.785781 257.898818 
L 63.875625 257.802313 
L 64.965469 257.380826 
L 66.055313 256.88796 
L 67.145156 256.888631 
L 67.690078 256.879636 
L 68.235 256.681673 
L 69.869766 255.634111 
L 70.959609 255.233757 
L 72.594375 254.977748 
L 74.229141 254.856867 
L 76.408828 254.272326 
L 78.043594 254.41687 
L 78.588516 254.291006 
L 79.678359 253.657842 
L 81.858047 251.846321 
L 85.127578 249.867107 
L 86.217422 249.197697 
L 87.307266 248.422407 
L 89.486953 247.302305 
L 93.846328 245.514024 
L 94.39125 245.426274 
L 94.936172 245.211523 
L 95.481094 244.754818 
L 97.115859 242.986006 
L 98.205703 242.547482 
L 99.295547 242.233571 
L 99.840469 241.898346 
L 100.385391 241.33512 
L 101.475234 239.790812 
L 102.020156 239.269312 
L 102.565078 239.212302 
L 104.199844 240.286805 
L 104.744766 239.948732 
L 107.469375 236.239327 
L 109.104141 234.692419 
L 110.193984 233.899558 
L 112.918594 232.241266 
L 114.008438 231.22688 
L 116.733047 228.275603 
L 117.277969 228.115693 
L 118.912734 228.060375 
L 119.457656 227.869941 
L 120.002578 227.507284 
L 120.5475 226.918582 
L 121.637344 225.04455 
L 122.727188 223.066874 
L 123.272109 222.450687 
L 123.817031 222.154286 
L 125.451797 221.898876 
L 125.996719 221.49045 
L 128.721328 218.259087 
L 130.901016 215.599987 
L 131.990859 214.566551 
L 134.170547 212.157176 
L 136.895156 209.659963 
L 138.529922 207.359021 
L 139.619766 206.008084 
L 143.434219 202.020811 
L 144.524063 200.622697 
L 146.70375 197.058249 
L 147.793594 195.852423 
L 149.973281 193.727581 
L 153.787734 188.149978 
L 159.781875 181.124855 
L 160.871719 179.163393 
L 162.506484 175.990232 
L 164.14125 173.472873 
L 166.320938 170.247992 
L 169.590469 164.944962 
L 170.680313 163.530206 
L 171.770156 161.728727 
L 176.674453 152.628353 
L 181.033828 145.086414 
L 183.758438 139.176685 
L 184.848281 137.484938 
L 187.027969 134.567753 
L 188.117813 132.550773 
L 193.567031 120.271899 
L 195.746719 115.951509 
L 197.381484 112.399097 
L 198.471328 110.018047 
L 200.106094 105.843779 
L 202.830703 100.305774 
L 206.100234 92.262468 
L 207.735 88.385435 
L 209.914688 83.041732 
L 211.549453 79.248479 
L 214.818984 70.427559 
L 216.45375 67.075971 
L 218.088516 62.543146 
L 219.723281 58.370629 
L 221.358047 55.11526 
L 222.992813 51.692269 
L 224.627578 47.843553 
L 226.262344 43.880963 
L 227.352188 42.180481 
L 228.986953 39.923042 
L 231.711563 35.562647 
L 232.256484 34.972176 
L 232.801406 34.579383 
L 233.346328 34.414125 
L 233.89125 34.497134 
L 234.436172 34.809994 
L 236.070938 36.319921 
L 236.615859 37.009486 
L 237.160781 38.277184 
L 237.705703 40.645636 
L 238.250625 44.315147 
L 239.885391 57.32868 
L 240.430313 60.408263 
L 241.520156 64.809041 
L 242.61 68.02822 
L 244.244766 72.829467 
L 245.334609 76.833436 
L 248.059219 87.639818 
L 250.238906 95.868042 
L 254.598281 112.235716 
L 255.688125 115.16898 
L 257.322891 119.297439 
L 258.412734 122.642023 
L 261.682266 133.585221 
L 262.772109 136.559749 
L 265.496719 143.398109 
L 269.856094 154.734463 
L 270.945938 157.224661 
L 272.035781 159.611569 
L 274.760391 166.204104 
L 276.395156 170.198217 
L 277.485 172.806094 
L 278.574844 174.988444 
L 281.844375 180.638832 
L 285.113906 187.393543 
L 286.20375 189.010861 
L 287.293594 191.230163 
L 288.383438 193.464523 
L 289.473281 195.021183 
L 290.563125 196.362638 
L 291.652969 198.135357 
L 293.832656 201.863168 
L 295.467422 204.382532 
L 297.647109 207.330156 
L 299.281875 209.922338 
L 305.820938 218.586944 
L 308.000625 221.009039 
L 310.725234 224.877443 
L 311.815078 225.851624 
L 312.904922 226.361873 
L 313.449844 226.599657 
L 313.994766 226.990907 
L 315.084609 228.175571 
L 317.809219 231.297388 
L 319.443984 232.941725 
L 321.07875 234.897767 
L 321.623672 235.357184 
L 322.713516 235.833528 
L 323.803359 236.241734 
L 324.893203 237.088962 
L 325.983047 237.976451 
L 329.252578 240.293922 
L 330.342422 241.150491 
L 331.432266 241.534378 
L 331.977188 241.720154 
L 332.522109 242.103209 
L 334.701797 244.495302 
L 335.791641 245.090764 
L 336.881484 245.546408 
L 337.971328 246.318872 
L 339.061172 247.190189 
L 339.606094 247.510864 
L 340.151016 247.698565 
L 341.240859 247.701722 
L 341.785781 247.675892 
L 342.330703 247.7863 
L 342.875625 248.098026 
L 344.510391 249.490838 
L 348.869766 251.707064 
L 351.049453 252.446576 
L 352.139297 253.00693 
L 353.229141 253.131852 
L 354.318984 253.261974 
L 358.678359 255.049548 
L 359.768203 255.726939 
L 360.313125 256.096218 
L 360.858047 256.313996 
L 361.402969 256.292528 
L 363.037734 255.782493 
L 363.582656 255.93509 
L 366.307266 257.43505 
L 369.031875 258.344504 
L 370.121719 258.17678 
L 371.211563 257.975054 
L 371.756484 257.99492 
L 372.301406 258.164227 
L 373.936172 259.103069 
L 374.481094 259.167707 
L 376.115859 259.053717 
L 377.750625 259.52631 
L 379.930313 260.644257 
L 380.475234 260.624886 
L 381.565078 260.34835 
L 382.654922 260.428472 
L 384.289688 260.902251 
L 385.924453 261.763606 
L 387.014297 261.82112 
L 387.559219 261.841445 
L 388.649063 262.227604 
L 389.738906 262.624992 
L 390.283828 262.635135 
L 393.008438 262.071504 
L 394.098281 262.417995 
L 398.457656 264.270033 
L 399.002578 264.214746 
L 401.182266 263.554875 
L 401.727188 263.711681 
L 402.817031 264.444276 
L 403.361953 264.814285 
L 403.906875 265.038733 
L 407.176406 265.4261 
L 408.26625 265.186099 
L 408.811172 265.032406 
L 409.356094 265.030127 
L 411.535781 265.695764 
L 412.080703 265.727897 
L 412.625625 265.873019 
L 413.715469 266.409024 
L 414.260391 266.395643 
L 414.805313 266.019917 
L 415.895156 264.949199 
L 416.440078 264.717507 
L 416.985 264.724769 
L 416.985 264.724769 
" style="fill:none;stroke:#1f77b4;stroke-linecap:square;stroke-width:1.5;"/>
   </g>
   <g id="line2d_32">
    <path clip-path="url(#pd0171461f7)" d="M 59.51625 258.90905 
L 60.061172 258.704256 
L 60.606094 258.594611 
L 62.240859 258.63637 
L 63.330703 258.261241 
L 64.965469 257.407157 
L 66.055313 256.829902 
L 67.145156 256.752162 
L 67.690078 256.716594 
L 68.779922 256.331211 
L 69.869766 255.888251 
L 70.414688 255.828579 
L 72.049453 256.035825 
L 72.594375 255.88598 
L 74.229141 255.045938 
L 75.318984 254.810471 
L 78.043594 254.437322 
L 78.588516 254.156128 
L 79.678359 253.22713 
L 81.858047 251.133321 
L 82.947891 250.657409 
L 85.6725 249.777623 
L 86.762344 249.07999 
L 87.852188 248.240977 
L 88.397109 247.976951 
L 88.942031 247.886367 
L 91.121719 247.962789 
L 92.211563 247.715508 
L 93.846328 247.1189 
L 97.115859 245.394058 
L 98.205703 244.448665 
L 98.750625 244.182685 
L 100.385391 243.726197 
L 100.930313 243.317928 
L 101.475234 242.708898 
L 102.565078 240.82225 
L 103.11 239.898844 
L 103.654922 239.501377 
L 104.199844 239.785224 
L 105.289688 240.937268 
L 105.834609 240.955589 
L 106.379531 240.549431 
L 107.469375 239.515874 
L 108.014297 239.236644 
L 109.649063 238.897099 
L 110.193984 238.618246 
L 111.283828 237.657373 
L 112.918594 235.928763 
L 114.008438 234.590964 
L 114.553359 234.075386 
L 115.643203 233.517398 
L 116.733047 233.040564 
L 117.822891 232.35631 
L 120.5475 230.418284 
L 121.637344 229.685185 
L 122.727188 228.596675 
L 124.361953 226.604183 
L 125.451797 225.722406 
L 128.176406 223.999493 
L 129.811172 223.081437 
L 130.901016 222.45185 
L 131.990859 221.49079 
L 134.170547 218.979517 
L 135.805313 216.828644 
L 136.350234 216.322642 
L 137.440078 215.858904 
L 137.985 215.62356 
L 138.529922 215.194604 
L 144.524063 208.676221 
L 145.613906 207.558882 
L 147.793594 204.759503 
L 149.973281 202.931934 
L 153.787734 197.516714 
L 155.4225 195.347624 
L 160.326797 190.18401 
L 162.506484 187.092399 
L 163.596328 185.734846 
L 165.231094 183.023262 
L 168.500625 177.373925 
L 169.590469 175.965894 
L 171.770156 173.773223 
L 172.86 171.947032 
L 175.039688 167.726085 
L 178.309219 162.345803 
L 181.033828 159.353462 
L 182.123672 157.393046 
L 183.758438 154.108385 
L 185.938125 149.955369 
L 187.027969 147.989591 
L 188.117813 146.540605 
L 189.207656 145.124333 
L 190.2975 143.129196 
L 191.932266 139.632076 
L 193.567031 135.914713 
L 194.656875 134.245421 
L 195.746719 132.807846 
L 196.836563 130.932429 
L 197.926406 128.98492 
L 199.561172 126.816734 
L 200.106094 125.797086 
L 201.195938 122.908711 
L 202.830703 118.180458 
L 203.920547 116.084164 
L 205.010391 114.335165 
L 206.100234 111.953402 
L 207.735 107.953769 
L 208.279922 106.968418 
L 209.369766 105.615531 
L 209.914688 104.951122 
L 210.459609 104.052279 
L 211.549453 101.357157 
L 213.184219 96.570753 
L 214.274063 94.094218 
L 215.363906 92.297968 
L 216.45375 90.613816 
L 218.088516 87.476474 
L 220.813125 81.489623 
L 221.902969 78.886339 
L 223.537734 74.55072 
L 225.1725 71.177023 
L 228.442031 64.540208 
L 228.986953 63.861916 
L 229.531875 63.426784 
L 230.621719 62.95502 
L 231.711563 62.813256 
L 232.801406 62.863461 
L 233.346328 63.066777 
L 233.89125 63.473995 
L 235.526016 65.019984 
L 236.615859 65.345807 
L 237.160781 65.980219 
L 237.705703 67.741148 
L 238.250625 70.931337 
L 239.885391 83.523317 
L 240.430313 86.434197 
L 241.520156 90.197321 
L 244.244766 97.963942 
L 245.879531 102.256652 
L 247.514297 107.918823 
L 248.604141 111.482973 
L 250.783828 117.46627 
L 252.418594 122.262458 
L 254.053359 127.05789 
L 256.233047 133.050193 
L 259.502578 142.854749 
L 261.682266 148.11001 
L 266.586563 161.008534 
L 267.676406 163.243981 
L 268.76625 165.252664 
L 269.856094 167.786949 
L 271.490859 171.87302 
L 278.029922 185.35129 
L 279.664688 188.401796 
L 282.389297 193.176462 
L 284.024063 195.132031 
L 285.113906 197.014087 
L 286.748672 200.327867 
L 288.383438 202.870312 
L 290.018203 205.10301 
L 292.742813 208.45024 
L 295.467422 212.651689 
L 297.102188 214.394171 
L 298.192031 215.513891 
L 299.281875 217.001564 
L 301.461563 220.369182 
L 302.551406 221.410129 
L 303.64125 222.37575 
L 304.186172 223.079331 
L 305.276016 224.95856 
L 306.365859 226.842463 
L 307.455703 228.146901 
L 308.545547 228.840114 
L 311.270156 229.871088 
L 311.815078 230.323264 
L 312.904922 231.75514 
L 313.994766 233.273181 
L 315.629531 235.165704 
L 316.719375 236.076915 
L 317.809219 236.460444 
L 318.899063 236.666779 
L 319.443984 236.858905 
L 319.988906 237.173881 
L 320.533828 237.642546 
L 322.168594 239.65998 
L 323.803359 241.437803 
L 324.893203 242.272265 
L 328.162734 243.823964 
L 329.252578 244.335272 
L 330.887344 244.807977 
L 333.067031 245.740084 
L 334.156875 246.115349 
L 334.701797 246.407351 
L 335.246719 246.849011 
L 335.791641 247.469113 
L 336.881484 249.163694 
L 337.971328 250.750824 
L 338.51625 251.141755 
L 340.695938 251.624333 
L 341.785781 252.119921 
L 343.420547 252.423781 
L 344.510391 252.442135 
L 345.600234 252.49329 
L 347.235 253.229613 
L 347.779922 253.281453 
L 349.959609 253.061254 
L 350.504531 253.263151 
L 351.049453 253.733323 
L 352.684219 255.73821 
L 353.229141 256.058507 
L 353.774063 256.125103 
L 355.408828 255.95856 
L 355.95375 256.178631 
L 359.223281 258.41836 
L 360.313125 258.620609 
L 361.402969 258.510061 
L 362.492813 258.295853 
L 363.037734 258.304643 
L 363.582656 258.492717 
L 365.217422 259.49662 
L 365.762344 259.474251 
L 367.397109 258.538917 
L 367.942031 258.626875 
L 369.031875 259.469748 
L 370.121719 260.239483 
L 372.846328 261.510295 
L 373.39125 261.54447 
L 374.481094 261.25542 
L 375.570938 260.901813 
L 376.115859 260.872747 
L 376.660781 260.998176 
L 378.840469 261.972904 
L 379.930313 262.143807 
L 381.565078 262.104079 
L 382.654922 262.609186 
L 383.199844 262.859212 
L 383.744766 262.982257 
L 390.82875 263.063403 
L 391.918594 262.968633 
L 392.463516 263.097526 
L 394.098281 263.953501 
L 394.643203 264.050081 
L 395.733047 263.913608 
L 396.822891 263.818395 
L 399.5475 264.33772 
L 400.637344 264.276376 
L 401.727188 263.885614 
L 402.272109 263.665902 
L 402.817031 263.58421 
L 403.361953 263.697505 
L 404.451797 264.383422 
L 405.541641 265.229061 
L 406.631484 265.733617 
L 407.176406 265.770442 
L 408.26625 265.411015 
L 408.811172 265.215936 
L 409.356094 265.20859 
L 410.990859 265.77548 
L 412.625625 265.910506 
L 413.170547 266.010833 
L 413.715469 265.997169 
L 414.260391 265.799198 
L 415.350234 265.139303 
L 415.895156 264.968974 
L 416.440078 265.028622 
L 416.985 265.275294 
L 416.985 265.275294 
" style="fill:none;stroke:#ff7f0e;stroke-linecap:square;stroke-width:1.5;"/>
   </g>
   <g id="line2d_33">
    <path clip-path="url(#pd0171461f7)" d="M 59.51625 263.71089 
L 63.330703 262.832986 
L 64.420547 262.788045 
L 66.055313 262.409525 
L 69.869766 262.514632 
L 70.959609 262.7447 
L 73.684219 262.383152 
L 75.318984 262.044328 
L 76.95375 262.093693 
L 78.043594 261.807317 
L 79.133438 261.47917 
L 80.223281 261.427856 
L 81.313125 261.304402 
L 83.492813 260.299781 
L 84.582656 259.708131 
L 86.762344 258.365491 
L 87.852188 258.262543 
L 90.031875 258.312475 
L 90.576797 258.26807 
L 91.121719 258.074301 
L 92.211563 257.165643 
L 92.756484 256.704583 
L 93.301406 256.477837 
L 93.846328 256.543216 
L 94.936172 257.003228 
L 95.481094 257.034387 
L 96.026016 256.861429 
L 97.660781 256.078517 
L 98.205703 256.040213 
L 100.930313 256.503626 
L 102.020156 256.135152 
L 103.654922 255.296968 
L 104.744766 254.070403 
L 105.289688 253.44692 
L 105.834609 253.031541 
L 106.924453 252.746022 
L 108.014297 252.674361 
L 109.649063 252.795307 
L 110.738906 252.465293 
L 114.008438 250.951508 
L 116.733047 250.259127 
L 121.637344 248.302821 
L 123.272109 248.076741 
L 125.996719 246.521158 
L 127.631484 245.098931 
L 128.176406 244.910059 
L 129.811172 244.741408 
L 130.356094 244.463865 
L 131.990859 243.379188 
L 133.625625 243.165129 
L 134.715469 242.546222 
L 136.895156 241.241838 
L 139.619766 239.949815 
L 140.709609 239.279757 
L 141.799453 239.084113 
L 142.344375 238.979035 
L 142.889297 238.694077 
L 143.979141 237.535099 
L 145.068984 236.252913 
L 146.158828 235.367299 
L 146.70375 235.097391 
L 147.793594 234.91192 
L 148.338516 234.851281 
L 148.883438 234.668617 
L 149.973281 233.868918 
L 151.608047 232.446155 
L 153.787734 230.744949 
L 155.4225 229.280466 
L 158.147109 227.230104 
L 159.781875 226.785916 
L 160.326797 226.408332 
L 162.506484 224.319849 
L 164.14125 223.094341 
L 165.776016 221.782702 
L 167.410781 220.978022 
L 169.045547 220.342221 
L 170.135391 219.904093 
L 171.225234 219.178954 
L 172.315078 218.163011 
L 173.404922 216.75049 
L 176.129531 212.9244 
L 177.219375 212.127095 
L 178.309219 211.302906 
L 179.399063 210.392177 
L 181.033828 209.281539 
L 182.123672 208.120795 
L 183.758438 206.242306 
L 185.393203 204.574813 
L 187.027969 202.612066 
L 188.662734 201.354378 
L 190.842422 198.684854 
L 192.477188 197.3245 
L 194.111953 195.279662 
L 195.201797 194.04947 
L 196.291641 193.048741 
L 197.381484 191.596873 
L 198.471328 189.995589 
L 201.740859 186.202511 
L 203.920547 183.056449 
L 206.645156 179.578952 
L 207.735 178.75931 
L 208.824844 178.106316 
L 209.369766 177.631641 
L 209.914688 176.942708 
L 213.184219 171.635105 
L 214.818984 168.044055 
L 215.908828 166.49138 
L 216.998672 165.331051 
L 218.633438 164.024963 
L 219.178359 163.430978 
L 220.268203 161.696344 
L 222.447891 157.401752 
L 223.537734 156.190842 
L 224.627578 155.047833 
L 227.897109 150.528808 
L 228.986953 149.452171 
L 230.076797 148.689573 
L 231.711563 147.884906 
L 233.89125 147.033577 
L 234.436172 147.042047 
L 235.526016 147.530967 
L 236.615859 148.260891 
L 237.160781 149.129037 
L 237.705703 150.728758 
L 239.340469 157.330367 
L 239.885391 158.752722 
L 241.520156 161.736425 
L 243.699844 165.775639 
L 245.334609 169.575217 
L 247.514297 174.932762 
L 249.149063 178.02621 
L 250.238906 179.589413 
L 251.32875 181.154937 
L 258.412734 193.868993 
L 259.502578 195.265857 
L 260.592422 197.194524 
L 261.682266 199.305291 
L 262.227188 200.001857 
L 263.317031 200.976679 
L 263.861953 201.636929 
L 264.951797 203.445976 
L 266.586563 206.120761 
L 267.676406 207.442739 
L 269.311172 209.323761 
L 271.490859 212.325565 
L 273.125625 214.928329 
L 274.760391 217.977196 
L 275.305313 218.710531 
L 276.395156 219.582475 
L 277.485 220.32888 
L 278.574844 221.264101 
L 282.934219 225.617657 
L 285.113906 226.777617 
L 286.748672 228.480148 
L 290.018203 232.113826 
L 293.287734 235.435166 
L 294.377578 236.168914 
L 295.467422 237.197206 
L 296.557266 238.210975 
L 297.102188 238.518003 
L 298.192031 238.75788 
L 299.281875 239.020854 
L 299.826797 239.360094 
L 300.371719 239.901831 
L 302.551406 242.770567 
L 303.096328 243.164987 
L 304.186172 243.493943 
L 305.276016 243.647876 
L 305.820938 243.836912 
L 306.910781 244.546952 
L 308.000625 245.315956 
L 310.725234 246.63926 
L 311.815078 247.49622 
L 313.449844 249.128752 
L 313.994766 249.460841 
L 317.264297 250.506082 
L 318.354141 251.322017 
L 318.899063 251.755589 
L 319.443984 252.015076 
L 321.07875 252.188941 
L 323.803359 252.570682 
L 324.893203 253.042191 
L 326.527969 254.109174 
L 327.072891 254.201894 
L 328.162734 254.105825 
L 328.707656 254.246246 
L 329.7975 255.085186 
L 330.887344 255.932253 
L 331.432266 256.077552 
L 333.611953 255.917601 
L 335.246719 256.51992 
L 336.336563 256.882455 
L 337.971328 257.940884 
L 338.51625 257.993145 
L 340.151016 257.717559 
L 341.240859 257.88005 
L 342.330703 258.303097 
L 344.510391 259.696942 
L 345.055313 259.716112 
L 346.690078 259.196888 
L 347.235 259.247912 
L 347.779922 259.542558 
L 348.869766 260.422456 
L 349.414688 260.695452 
L 351.594375 261.19527 
L 352.139297 261.217486 
L 354.318984 260.688288 
L 355.408828 261.020235 
L 356.498672 261.571473 
L 357.588516 262.277549 
L 358.133438 262.511785 
L 359.223281 262.619768 
L 360.313125 262.61747 
L 364.127578 263.185351 
L 365.762344 263.651888 
L 366.852188 263.584337 
L 369.031875 263.15906 
L 370.121719 263.290117 
L 371.756484 263.693475 
L 373.39125 263.906805 
L 374.481094 264.078073 
L 377.750625 263.715659 
L 379.930313 263.137005 
L 380.475234 263.306652 
L 381.565078 264.075947 
L 382.654922 264.819932 
L 383.199844 265.037797 
L 383.744766 265.113153 
L 384.289688 265.031884 
L 387.559219 263.883289 
L 388.649063 263.886425 
L 389.193984 264.04638 
L 391.373672 265.153385 
L 392.463516 265.190756 
L 395.733047 264.824266 
L 396.822891 264.661083 
L 397.912734 264.833844 
L 399.5475 265.509829 
L 401.727188 265.836409 
L 402.817031 266.29352 
L 403.361953 266.375868 
L 404.451797 266.155641 
L 405.541641 265.922052 
L 406.631484 266.051043 
L 408.26625 266.324637 
L 409.356094 266.315361 
L 410.445938 266.212199 
L 412.625625 266.497711 
L 414.260391 266.07636 
L 414.805313 266.089952 
L 415.895156 266.4339 
L 416.985 266.881693 
L 416.985 266.881693 
" style="fill:none;stroke:#2ca02c;stroke-linecap:square;stroke-width:1.5;"/>
   </g>
   <g id="patch_3">
    <path d="M 59.690625 288.430125 
L 59.690625 22.318125 
" style="fill:none;stroke:#000000;stroke-linecap:square;stroke-linejoin:miter;stroke-width:0.8;"/>
   </g>
   <g id="patch_4">
    <path d="M 416.810625 288.430125 
L 416.810625 22.318125 
" style="fill:none;stroke:#000000;stroke-linecap:square;stroke-linejoin:miter;stroke-width:0.8;"/>
   </g>
   <g id="patch_5">
    <path d="M 59.690625 288.430125 
L 416.810625 288.430125 
" style="fill:none;stroke:#000000;stroke-linecap:square;stroke-linejoin:miter;stroke-width:0.8;"/>
   </g>
   <g id="patch_6">
    <path d="M 59.690625 22.318125 
L 416.810625 22.318125 
" style="fill:none;stroke:#000000;stroke-linecap:square;stroke-linejoin:miter;stroke-width:0.8;"/>
   </g>
   <g id="text_18">
    <!-- Spektrum Vergleich -->
    <defs>
     <path d="M 53.515625 70.515625 
L 53.515625 60.890625 
Q 47.90625 63.578125 42.921875 64.890625 
Q 37.9375 66.21875 33.296875 66.21875 
Q 25.25 66.21875 20.875 63.09375 
Q 16.5 59.96875 16.5 54.203125 
Q 16.5 49.359375 19.40625 46.890625 
Q 22.3125 44.4375 30.421875 42.921875 
L 36.375 41.703125 
Q 47.40625 39.59375 52.65625 34.296875 
Q 57.90625 29 57.90625 20.125 
Q 57.90625 9.515625 50.796875 4.046875 
Q 43.703125 -1.421875 29.984375 -1.421875 
Q 24.8125 -1.421875 18.96875 -0.25 
Q 13.140625 0.921875 6.890625 3.21875 
L 6.890625 13.375 
Q 12.890625 10.015625 18.65625 8.296875 
Q 24.421875 6.59375 29.984375 6.59375 
Q 38.421875 6.59375 43.015625 9.90625 
Q 47.609375 13.234375 47.609375 19.390625 
Q 47.609375 24.75 44.3125 27.78125 
Q 41.015625 30.8125 33.5 32.328125 
L 27.484375 33.5 
Q 16.453125 35.6875 11.515625 40.375 
Q 6.59375 45.0625 6.59375 53.421875 
Q 6.59375 63.09375 13.40625 68.65625 
Q 20.21875 74.21875 32.171875 74.21875 
Q 37.3125 74.21875 42.625 73.28125 
Q 47.953125 72.359375 53.515625 70.515625 
" id="DejaVuSans-53"/>
     <path d="M 18.109375 8.203125 
L 18.109375 -20.796875 
L 9.078125 -20.796875 
L 9.078125 54.6875 
L 18.109375 54.6875 
L 18.109375 46.390625 
Q 20.953125 51.265625 25.265625 53.625 
Q 29.59375 56 35.59375 56 
Q 45.5625 56 51.78125 48.09375 
Q 58.015625 40.1875 58.015625 27.296875 
Q 58.015625 14.40625 51.78125 6.484375 
Q 45.5625 -1.421875 35.59375 -1.421875 
Q 29.59375 -1.421875 25.265625 0.953125 
Q 20.953125 3.328125 18.109375 8.203125 
M 48.6875 27.296875 
Q 48.6875 37.203125 44.609375 42.84375 
Q 40.53125 48.484375 33.40625 48.484375 
Q 26.265625 48.484375 22.1875 42.84375 
Q 18.109375 37.203125 18.109375 27.296875 
Q 18.109375 17.390625 22.1875 11.75 
Q 26.265625 6.109375 33.40625 6.109375 
Q 40.53125 6.109375 44.609375 11.75 
Q 48.6875 17.390625 48.6875 27.296875 
" id="DejaVuSans-70"/>
     <path d="M 18.3125 70.21875 
L 18.3125 54.6875 
L 36.8125 54.6875 
L 36.8125 47.703125 
L 18.3125 47.703125 
L 18.3125 18.015625 
Q 18.3125 11.328125 20.140625 9.421875 
Q 21.96875 7.515625 27.59375 7.515625 
L 36.8125 7.515625 
L 36.8125 0 
L 27.59375 0 
Q 17.1875 0 13.234375 3.875 
Q 9.28125 7.765625 9.28125 18.015625 
L 9.28125 47.703125 
L 2.6875 47.703125 
L 2.6875 54.6875 
L 9.28125 54.6875 
L 9.28125 70.21875 
z
" id="DejaVuSans-74"/>
     <path d="M 52 44.1875 
Q 55.375 50.25 60.0625 53.125 
Q 64.75 56 71.09375 56 
Q 79.640625 56 84.28125 50.015625 
Q 88.921875 44.046875 88.921875 33.015625 
L 88.921875 0 
L 79.890625 0 
L 79.890625 32.71875 
Q 79.890625 40.578125 77.09375 44.375 
Q 74.3125 48.1875 68.609375 48.1875 
Q 61.625 48.1875 57.5625 43.546875 
Q 53.515625 38.921875 53.515625 30.90625 
L 53.515625 0 
L 44.484375 0 
L 44.484375 32.71875 
Q 44.484375 40.625 41.703125 44.40625 
Q 38.921875 48.1875 33.109375 48.1875 
Q 26.21875 48.1875 22.15625 43.53125 
Q 18.109375 38.875 18.109375 30.90625 
L 18.109375 0 
L 9.078125 0 
L 9.078125 54.6875 
L 18.109375 54.6875 
L 18.109375 46.1875 
Q 21.1875 51.21875 25.484375 53.609375 
Q 29.78125 56 35.6875 56 
Q 41.65625 56 45.828125 52.96875 
Q 50 49.953125 52 44.1875 
" id="DejaVuSans-6d"/>
     <path d="M 28.609375 0 
L 0.78125 72.90625 
L 11.078125 72.90625 
L 34.1875 11.53125 
L 57.328125 72.90625 
L 67.578125 72.90625 
L 39.796875 0 
z
" id="DejaVuSans-56"/>
     <path d="M 45.40625 27.984375 
Q 45.40625 37.75 41.375 43.109375 
Q 37.359375 48.484375 30.078125 48.484375 
Q 22.859375 48.484375 18.828125 43.109375 
Q 14.796875 37.75 14.796875 27.984375 
Q 14.796875 18.265625 18.828125 12.890625 
Q 22.859375 7.515625 30.078125 7.515625 
Q 37.359375 7.515625 41.375 12.890625 
Q 45.40625 18.265625 45.40625 27.984375 
M 54.390625 6.78125 
Q 54.390625 -7.171875 48.1875 -13.984375 
Q 42 -20.796875 29.203125 -20.796875 
Q 24.46875 -20.796875 20.265625 -20.09375 
Q 16.0625 -19.390625 12.109375 -17.921875 
L 12.109375 -9.1875 
Q 16.0625 -11.328125 19.921875 -12.34375 
Q 23.78125 -13.375 27.78125 -13.375 
Q 36.625 -13.375 41.015625 -8.765625 
Q 45.40625 -4.15625 45.40625 5.171875 
L 45.40625 9.625 
Q 42.625 4.78125 38.28125 2.390625 
Q 33.9375 0 27.875 0 
Q 17.828125 0 11.671875 7.65625 
Q 5.515625 15.328125 5.515625 27.984375 
Q 5.515625 40.671875 11.671875 48.328125 
Q 17.828125 56 27.875 56 
Q 33.9375 56 38.28125 53.609375 
Q 42.625 51.21875 45.40625 46.390625 
L 45.40625 54.6875 
L 54.390625 54.6875 
z
" id="DejaVuSans-67"/>
     <path d="M 9.421875 75.984375 
L 18.40625 75.984375 
L 18.40625 0 
L 9.421875 0 
z
" id="DejaVuSans-6c"/>
     <path d="M 9.421875 54.6875 
L 18.40625 54.6875 
L 18.40625 0 
L 9.421875 0 
z
M 9.421875 75.984375 
L 18.40625 75.984375 
L 18.40625 64.59375 
L 9.421875 64.59375 
z
" id="DejaVuSans-69"/>
     <path d="M 48.78125 52.59375 
L 48.78125 44.1875 
Q 44.96875 46.296875 41.140625 47.34375 
Q 37.3125 48.390625 33.40625 48.390625 
Q 24.65625 48.390625 19.8125 42.84375 
Q 14.984375 37.3125 14.984375 27.296875 
Q 14.984375 17.28125 19.8125 11.734375 
Q 24.65625 6.203125 33.40625 6.203125 
Q 37.3125 6.203125 41.140625 7.25 
Q 44.96875 8.296875 48.78125 10.40625 
L 48.78125 2.09375 
Q 45.015625 0.34375 40.984375 -0.53125 
Q 36.96875 -1.421875 32.421875 -1.421875 
Q 20.0625 -1.421875 12.78125 6.34375 
Q 5.515625 14.109375 5.515625 27.296875 
Q 5.515625 40.671875 12.859375 48.328125 
Q 20.21875 56 33.015625 56 
Q 37.15625 56 41.109375 55.140625 
Q 45.0625 54.296875 48.78125 52.59375 
" id="DejaVuSans-63"/>
     <path d="M 54.890625 33.015625 
L 54.890625 0 
L 45.90625 0 
L 45.90625 32.71875 
Q 45.90625 40.484375 42.875 44.328125 
Q 39.84375 48.1875 33.796875 48.1875 
Q 26.515625 48.1875 22.3125 43.546875 
Q 18.109375 38.921875 18.109375 30.90625 
L 18.109375 0 
L 9.078125 0 
L 9.078125 75.984375 
L 18.109375 75.984375 
L 18.109375 46.1875 
Q 21.34375 51.125 25.703125 53.5625 
Q 30.078125 56 35.796875 56 
Q 45.21875 56 50.046875 50.171875 
Q 54.890625 44.34375 54.890625 33.015625 
" id="DejaVuSans-68"/>
    </defs>
    <g transform="translate(178.902188 16.318125)scale(0.12 -0.12)">
     <use xlink:href="#DejaVuSans-53"/>
     <use x="63.476562" xlink:href="#DejaVuSans-70"/>
     <use x="126.953125" xlink:href="#DejaVuSans-65"/>
     <use x="188.476562" xlink:href="#DejaVuSans-6b"/>
     <use x="246.386719" xlink:href="#DejaVuSans-74"/>
     <use x="285.595703" xlink:href="#DejaVuSans-72"/>
     <use x="326.708984" xlink:href="#DejaVuSans-75"/>
     <use x="390.087891" xlink:href="#DejaVuSans-6d"/>
     <use x="487.5" xlink:href="#DejaVuSans-20"/>
     <use x="519.287109" xlink:href="#DejaVuSans-56"/>
     <use x="587.585938" xlink:href="#DejaVuSans-65"/>
     <use x="649.109375" xlink:href="#DejaVuSans-72"/>
     <use x="690.207031" xlink:href="#DejaVuSans-67"/>
     <use x="753.683594" xlink:href="#DejaVuSans-6c"/>
     <use x="781.466797" xlink:href="#DejaVuSans-65"/>
     <use x="842.990234" xlink:href="#DejaVuSans-69"/>
     <use x="870.773438" xlink:href="#DejaVuSans-63"/>
     <use x="925.753906" xlink:href="#DejaVuSans-68"/>
    </g>
   </g>
   <g id="legend_1">
    <g id="patch_7">
     <path d="M 331.054375 74.3525 
L 409.810625 74.3525 
Q 411.810625 74.3525 411.810625 72.3525 
L 411.810625 29.318125 
Q 411.810625 27.318125 409.810625 27.318125 
L 331.054375 27.318125 
Q 329.054375 27.318125 329.054375 29.318125 
L 329.054375 72.3525 
Q 329.054375 74.3525 331.054375 74.3525 
z
" style="fill:#ffffff;opacity:0.8;stroke:#cccccc;stroke-linejoin:miter;"/>
    </g>
    <g id="line2d_34">
     <path d="M 333.054375 35.416562 
L 353.054375 35.416562 
" style="fill:none;stroke:#1f77b4;stroke-linecap:square;stroke-width:1.5;"/>
    </g>
    <g id="line2d_35"/>
    <g id="text_19">
     <!-- 0.015 ms -->
     <defs>
      <path d="M 44.28125 53.078125 
L 44.28125 44.578125 
Q 40.484375 46.53125 36.375 47.5 
Q 32.28125 48.484375 27.875 48.484375 
Q 21.1875 48.484375 17.84375 46.4375 
Q 14.5 44.390625 14.5 40.28125 
Q 14.5 37.15625 16.890625 35.375 
Q 19.28125 33.59375 26.515625 31.984375 
L 29.59375 31.296875 
Q 39.15625 29.25 43.1875 25.515625 
Q 47.21875 21.78125 47.21875 15.09375 
Q 47.21875 7.46875 41.1875 3.015625 
Q 35.15625 -1.421875 24.609375 -1.421875 
Q 20.21875 -1.421875 15.453125 -0.5625 
Q 10.6875 0.296875 5.421875 2 
L 5.421875 11.28125 
Q 10.40625 8.6875 15.234375 7.390625 
Q 20.0625 6.109375 24.8125 6.109375 
Q 31.15625 6.109375 34.5625 8.28125 
Q 37.984375 10.453125 37.984375 14.40625 
Q 37.984375 18.0625 35.515625 20.015625 
Q 33.0625 21.96875 24.703125 23.78125 
L 21.578125 24.515625 
Q 13.234375 26.265625 9.515625 29.90625 
Q 5.8125 33.546875 5.8125 39.890625 
Q 5.8125 47.609375 11.28125 51.796875 
Q 16.75 56 26.8125 56 
Q 31.78125 56 36.171875 55.265625 
Q 40.578125 54.546875 44.28125 53.078125 
" id="DejaVuSans-73"/>
     </defs>
     <g transform="translate(361.054375 38.916562)scale(0.1 -0.1)">
      <use xlink:href="#DejaVuSans-30"/>
      <use x="63.623047" xlink:href="#DejaVuSans-2e"/>
      <use x="95.410156" xlink:href="#DejaVuSans-30"/>
      <use x="159.033203" xlink:href="#DejaVuSans-31"/>
      <use x="222.65625" xlink:href="#DejaVuSans-35"/>
      <use x="286.279297" xlink:href="#DejaVuSans-20"/>
      <use x="318.066406" xlink:href="#DejaVuSans-6d"/>
      <use x="415.478516" xlink:href="#DejaVuSans-73"/>
     </g>
    </g>
    <g id="line2d_36">
     <path d="M 333.054375 50.094688 
L 353.054375 50.094688 
" style="fill:none;stroke:#ff7f0e;stroke-linecap:square;stroke-width:1.5;"/>
    </g>
    <g id="line2d_37"/>
    <g id="text_20">
     <!-- 0.1 ms -->
     <g transform="translate(361.054375 53.594688)scale(0.1 -0.1)">
      <use xlink:href="#DejaVuSans-30"/>
      <use x="63.623047" xlink:href="#DejaVuSans-2e"/>
      <use x="95.410156" xlink:href="#DejaVuSans-31"/>
      <use x="159.033203" xlink:href="#DejaVuSans-20"/>
      <use x="190.820312" xlink:href="#DejaVuSans-6d"/>
      <use x="288.232422" xlink:href="#DejaVuSans-73"/>
     </g>
    </g>
    <g id="line2d_38">
     <path d="M 333.054375 64.772812 
L 353.054375 64.772812 
" style="fill:none;stroke:#2ca02c;stroke-linecap:square;stroke-width:1.5;"/>
    </g>
    <g id="line2d_39"/>
    <g id="text_21">
     <!-- 0.6 ms -->
     <g transform="translate(361.054375 68.272812)scale(0.1 -0.1)">
      <use xlink:href="#DejaVuSans-30"/>
      <use x="63.623047" xlink:href="#DejaVuSans-2e"/>
      <use x="95.410156" xlink:href="#DejaVuSans-36"/>
      <use x="159.033203" xlink:href="#DejaVuSans-20"/>
      <use x="190.820312" xlink:href="#DejaVuSans-6d"/>
      <use x="288.232422" xlink:href="#DejaVuSans-73"/>
     </g>
    </g>
   </g>
  </g>
 </g>
 <defs>
  <clipPath id="pd0171461f7">
   <rect height="266.112" width="357.12" x="59.690625" y="22.318125"/>
  </clipPath>
 </defs>
</svg>
