<?xml version="1.0" encoding="utf-8" standalone="no"?>
<!DOCTYPE svg PUBLIC "-//W3C//DTD SVG 1.1//EN"
  "http://www.w3.org/Graphics/SVG/1.1/DTD/svg11.dtd">
<!-- Created with matplotlib (http://matplotlib.org/) -->
<svg height="325pt" version="1.1" viewBox="0 0 424 325" width="424pt" xmlns="http://www.w3.org/2000/svg" xmlns:xlink="http://www.w3.org/1999/xlink">
 <defs>
  <style type="text/css">
*{stroke-linecap:butt;stroke-linejoin:round;}
  </style>
 </defs>
 <g id="figure_1">
  <g id="patch_1">
   <path d="M 0 325.986375 
L 424.0075 325.986375 
L 424.0075 0 
L 0 0 
z
" style="fill:#ffffff;"/>
  </g>
  <g id="axes_1">
   <g id="patch_2">
    <path d="M 43.78125 288.430125 
L 400.90125 288.430125 
L 400.90125 22.318125 
L 43.78125 22.318125 
z
" style="fill:#ffffff;"/>
   </g>
   <g id="matplotlib.axis_1">
    <g id="xtick_1">
     <g id="line2d_1">
      <path clip-path="url(#p13919fd271)" d="M 43.78125 288.430125 
L 43.78125 22.318125 
" style="fill:none;stroke:#b0b0b0;stroke-linecap:square;stroke-width:0.8;"/>
     </g>
     <g id="line2d_2">
      <defs>
       <path d="M 0 0 
L 0 3.5 
" id="mb9e2c08918" style="stroke:#000000;stroke-width:0.8;"/>
      </defs>
      <g>
       <use style="stroke:#000000;stroke-width:0.8;" x="43.78125" xlink:href="#mb9e2c08918" y="288.430125"/>
      </g>
     </g>
     <g id="text_1">
      <!-- −80000 -->
      <defs>
       <path d="M 10.59375 35.5 
L 73.1875 35.5 
L 73.1875 27.203125 
L 10.59375 27.203125 
z
" id="DejaVuSans-2212"/>
       <path d="M 31.78125 34.625 
Q 24.75 34.625 20.71875 30.859375 
Q 16.703125 27.09375 16.703125 20.515625 
Q 16.703125 13.921875 20.71875 10.15625 
Q 24.75 6.390625 31.78125 6.390625 
Q 38.8125 6.390625 42.859375 10.171875 
Q 46.921875 13.96875 46.921875 20.515625 
Q 46.921875 27.09375 42.890625 30.859375 
Q 38.875 34.625 31.78125 34.625 
M 21.921875 38.8125 
Q 15.578125 40.375 12.03125 44.71875 
Q 8.5 49.078125 8.5 55.328125 
Q 8.5 64.0625 14.71875 69.140625 
Q 20.953125 74.21875 31.78125 74.21875 
Q 42.671875 74.21875 48.875 69.140625 
Q 55.078125 64.0625 55.078125 55.328125 
Q 55.078125 49.078125 51.53125 44.71875 
Q 48 40.375 41.703125 38.8125 
Q 48.828125 37.15625 52.796875 32.3125 
Q 56.78125 27.484375 56.78125 20.515625 
Q 56.78125 9.90625 50.3125 4.234375 
Q 43.84375 -1.421875 31.78125 -1.421875 
Q 19.734375 -1.421875 13.25 4.234375 
Q 6.78125 9.90625 6.78125 20.515625 
Q 6.78125 27.484375 10.78125 32.3125 
Q 14.796875 37.15625 21.921875 38.8125 
M 18.3125 54.390625 
Q 18.3125 48.734375 21.84375 45.5625 
Q 25.390625 42.390625 31.78125 42.390625 
Q 38.140625 42.390625 41.71875 45.5625 
Q 45.3125 48.734375 45.3125 54.390625 
Q 45.3125 60.0625 41.71875 63.234375 
Q 38.140625 66.40625 31.78125 66.40625 
Q 25.390625 66.40625 21.84375 63.234375 
Q 18.3125 60.0625 18.3125 54.390625 
" id="DejaVuSans-38"/>
       <path d="M 31.78125 66.40625 
Q 24.171875 66.40625 20.328125 58.90625 
Q 16.5 51.421875 16.5 36.375 
Q 16.5 21.390625 20.328125 13.890625 
Q 24.171875 6.390625 31.78125 6.390625 
Q 39.453125 6.390625 43.28125 13.890625 
Q 47.125 21.390625 47.125 36.375 
Q 47.125 51.421875 43.28125 58.90625 
Q 39.453125 66.40625 31.78125 66.40625 
M 31.78125 74.21875 
Q 44.046875 74.21875 50.515625 64.515625 
Q 56.984375 54.828125 56.984375 36.375 
Q 56.984375 17.96875 50.515625 8.265625 
Q 44.046875 -1.421875 31.78125 -1.421875 
Q 19.53125 -1.421875 13.0625 8.265625 
Q 6.59375 17.96875 6.59375 36.375 
Q 6.59375 54.828125 13.0625 64.515625 
Q 19.53125 74.21875 31.78125 74.21875 
" id="DejaVuSans-30"/>
      </defs>
      <g transform="translate(23.685156 303.028562)scale(0.1 -0.1)">
       <use xlink:href="#DejaVuSans-2212"/>
       <use x="83.789062" xlink:href="#DejaVuSans-38"/>
       <use x="147.412109" xlink:href="#DejaVuSans-30"/>
       <use x="211.035156" xlink:href="#DejaVuSans-30"/>
       <use x="274.658203" xlink:href="#DejaVuSans-30"/>
       <use x="338.28125" xlink:href="#DejaVuSans-30"/>
      </g>
     </g>
    </g>
    <g id="xtick_2">
     <g id="line2d_3">
      <path clip-path="url(#p13919fd271)" d="M 88.42125 288.430125 
L 88.42125 22.318125 
" style="fill:none;stroke:#b0b0b0;stroke-linecap:square;stroke-width:0.8;"/>
     </g>
     <g id="line2d_4">
      <g>
       <use style="stroke:#000000;stroke-width:0.8;" x="88.42125" xlink:href="#mb9e2c08918" y="288.430125"/>
      </g>
     </g>
     <g id="text_2">
      <!-- −60000 -->
      <defs>
       <path d="M 33.015625 40.375 
Q 26.375 40.375 22.484375 35.828125 
Q 18.609375 31.296875 18.609375 23.390625 
Q 18.609375 15.53125 22.484375 10.953125 
Q 26.375 6.390625 33.015625 6.390625 
Q 39.65625 6.390625 43.53125 10.953125 
Q 47.40625 15.53125 47.40625 23.390625 
Q 47.40625 31.296875 43.53125 35.828125 
Q 39.65625 40.375 33.015625 40.375 
M 52.59375 71.296875 
L 52.59375 62.3125 
Q 48.875 64.0625 45.09375 64.984375 
Q 41.3125 65.921875 37.59375 65.921875 
Q 27.828125 65.921875 22.671875 59.328125 
Q 17.53125 52.734375 16.796875 39.40625 
Q 19.671875 43.65625 24.015625 45.921875 
Q 28.375 48.1875 33.59375 48.1875 
Q 44.578125 48.1875 50.953125 41.515625 
Q 57.328125 34.859375 57.328125 23.390625 
Q 57.328125 12.15625 50.6875 5.359375 
Q 44.046875 -1.421875 33.015625 -1.421875 
Q 20.359375 -1.421875 13.671875 8.265625 
Q 6.984375 17.96875 6.984375 36.375 
Q 6.984375 53.65625 15.1875 63.9375 
Q 23.390625 74.21875 37.203125 74.21875 
Q 40.921875 74.21875 44.703125 73.484375 
Q 48.484375 72.75 52.59375 71.296875 
" id="DejaVuSans-36"/>
      </defs>
      <g transform="translate(68.325156 303.028562)scale(0.1 -0.1)">
       <use xlink:href="#DejaVuSans-2212"/>
       <use x="83.789062" xlink:href="#DejaVuSans-36"/>
       <use x="147.412109" xlink:href="#DejaVuSans-30"/>
       <use x="211.035156" xlink:href="#DejaVuSans-30"/>
       <use x="274.658203" xlink:href="#DejaVuSans-30"/>
       <use x="338.28125" xlink:href="#DejaVuSans-30"/>
      </g>
     </g>
    </g>
    <g id="xtick_3">
     <g id="line2d_5">
      <path clip-path="url(#p13919fd271)" d="M 133.06125 288.430125 
L 133.06125 22.318125 
" style="fill:none;stroke:#b0b0b0;stroke-linecap:square;stroke-width:0.8;"/>
     </g>
     <g id="line2d_6">
      <g>
       <use style="stroke:#000000;stroke-width:0.8;" x="133.06125" xlink:href="#mb9e2c08918" y="288.430125"/>
      </g>
     </g>
     <g id="text_3">
      <!-- −40000 -->
      <defs>
       <path d="M 37.796875 64.3125 
L 12.890625 25.390625 
L 37.796875 25.390625 
z
M 35.203125 72.90625 
L 47.609375 72.90625 
L 47.609375 25.390625 
L 58.015625 25.390625 
L 58.015625 17.1875 
L 47.609375 17.1875 
L 47.609375 0 
L 37.796875 0 
L 37.796875 17.1875 
L 4.890625 17.1875 
L 4.890625 26.703125 
z
" id="DejaVuSans-34"/>
      </defs>
      <g transform="translate(112.965156 303.028562)scale(0.1 -0.1)">
       <use xlink:href="#DejaVuSans-2212"/>
       <use x="83.789062" xlink:href="#DejaVuSans-34"/>
       <use x="147.412109" xlink:href="#DejaVuSans-30"/>
       <use x="211.035156" xlink:href="#DejaVuSans-30"/>
       <use x="274.658203" xlink:href="#DejaVuSans-30"/>
       <use x="338.28125" xlink:href="#DejaVuSans-30"/>
      </g>
     </g>
    </g>
    <g id="xtick_4">
     <g id="line2d_7">
      <path clip-path="url(#p13919fd271)" d="M 177.70125 288.430125 
L 177.70125 22.318125 
" style="fill:none;stroke:#b0b0b0;stroke-linecap:square;stroke-width:0.8;"/>
     </g>
     <g id="line2d_8">
      <g>
       <use style="stroke:#000000;stroke-width:0.8;" x="177.70125" xlink:href="#mb9e2c08918" y="288.430125"/>
      </g>
     </g>
     <g id="text_4">
      <!-- −20000 -->
      <defs>
       <path d="M 19.1875 8.296875 
L 53.609375 8.296875 
L 53.609375 0 
L 7.328125 0 
L 7.328125 8.296875 
Q 12.9375 14.109375 22.625 23.890625 
Q 32.328125 33.6875 34.8125 36.53125 
Q 39.546875 41.84375 41.421875 45.53125 
Q 43.3125 49.21875 43.3125 52.78125 
Q 43.3125 58.59375 39.234375 62.25 
Q 35.15625 65.921875 28.609375 65.921875 
Q 23.96875 65.921875 18.8125 64.3125 
Q 13.671875 62.703125 7.8125 59.421875 
L 7.8125 69.390625 
Q 13.765625 71.78125 18.9375 73 
Q 24.125 74.21875 28.421875 74.21875 
Q 39.75 74.21875 46.484375 68.546875 
Q 53.21875 62.890625 53.21875 53.421875 
Q 53.21875 48.921875 51.53125 44.890625 
Q 49.859375 40.875 45.40625 35.40625 
Q 44.1875 33.984375 37.640625 27.21875 
Q 31.109375 20.453125 19.1875 8.296875 
" id="DejaVuSans-32"/>
      </defs>
      <g transform="translate(157.605156 303.028562)scale(0.1 -0.1)">
       <use xlink:href="#DejaVuSans-2212"/>
       <use x="83.789062" xlink:href="#DejaVuSans-32"/>
       <use x="147.412109" xlink:href="#DejaVuSans-30"/>
       <use x="211.035156" xlink:href="#DejaVuSans-30"/>
       <use x="274.658203" xlink:href="#DejaVuSans-30"/>
       <use x="338.28125" xlink:href="#DejaVuSans-30"/>
      </g>
     </g>
    </g>
    <g id="xtick_5">
     <g id="line2d_9">
      <path clip-path="url(#p13919fd271)" d="M 222.34125 288.430125 
L 222.34125 22.318125 
" style="fill:none;stroke:#b0b0b0;stroke-linecap:square;stroke-width:0.8;"/>
     </g>
     <g id="line2d_10">
      <g>
       <use style="stroke:#000000;stroke-width:0.8;" x="222.34125" xlink:href="#mb9e2c08918" y="288.430125"/>
      </g>
     </g>
     <g id="text_5">
      <!-- 0 -->
      <g transform="translate(219.16 303.028562)scale(0.1 -0.1)">
       <use xlink:href="#DejaVuSans-30"/>
      </g>
     </g>
    </g>
    <g id="xtick_6">
     <g id="line2d_11">
      <path clip-path="url(#p13919fd271)" d="M 266.98125 288.430125 
L 266.98125 22.318125 
" style="fill:none;stroke:#b0b0b0;stroke-linecap:square;stroke-width:0.8;"/>
     </g>
     <g id="line2d_12">
      <g>
       <use style="stroke:#000000;stroke-width:0.8;" x="266.98125" xlink:href="#mb9e2c08918" y="288.430125"/>
      </g>
     </g>
     <g id="text_6">
      <!-- 20000 -->
      <g transform="translate(251.075 303.028562)scale(0.1 -0.1)">
       <use xlink:href="#DejaVuSans-32"/>
       <use x="63.623047" xlink:href="#DejaVuSans-30"/>
       <use x="127.246094" xlink:href="#DejaVuSans-30"/>
       <use x="190.869141" xlink:href="#DejaVuSans-30"/>
       <use x="254.492188" xlink:href="#DejaVuSans-30"/>
      </g>
     </g>
    </g>
    <g id="xtick_7">
     <g id="line2d_13">
      <path clip-path="url(#p13919fd271)" d="M 311.62125 288.430125 
L 311.62125 22.318125 
" style="fill:none;stroke:#b0b0b0;stroke-linecap:square;stroke-width:0.8;"/>
     </g>
     <g id="line2d_14">
      <g>
       <use style="stroke:#000000;stroke-width:0.8;" x="311.62125" xlink:href="#mb9e2c08918" y="288.430125"/>
      </g>
     </g>
     <g id="text_7">
      <!-- 40000 -->
      <g transform="translate(295.715 303.028562)scale(0.1 -0.1)">
       <use xlink:href="#DejaVuSans-34"/>
       <use x="63.623047" xlink:href="#DejaVuSans-30"/>
       <use x="127.246094" xlink:href="#DejaVuSans-30"/>
       <use x="190.869141" xlink:href="#DejaVuSans-30"/>
       <use x="254.492188" xlink:href="#DejaVuSans-30"/>
      </g>
     </g>
    </g>
    <g id="xtick_8">
     <g id="line2d_15">
      <path clip-path="url(#p13919fd271)" d="M 356.26125 288.430125 
L 356.26125 22.318125 
" style="fill:none;stroke:#b0b0b0;stroke-linecap:square;stroke-width:0.8;"/>
     </g>
     <g id="line2d_16">
      <g>
       <use style="stroke:#000000;stroke-width:0.8;" x="356.26125" xlink:href="#mb9e2c08918" y="288.430125"/>
      </g>
     </g>
     <g id="text_8">
      <!-- 60000 -->
      <g transform="translate(340.355 303.028562)scale(0.1 -0.1)">
       <use xlink:href="#DejaVuSans-36"/>
       <use x="63.623047" xlink:href="#DejaVuSans-30"/>
       <use x="127.246094" xlink:href="#DejaVuSans-30"/>
       <use x="190.869141" xlink:href="#DejaVuSans-30"/>
       <use x="254.492188" xlink:href="#DejaVuSans-30"/>
      </g>
     </g>
    </g>
    <g id="xtick_9">
     <g id="line2d_17">
      <path clip-path="url(#p13919fd271)" d="M 400.90125 288.430125 
L 400.90125 22.318125 
" style="fill:none;stroke:#b0b0b0;stroke-linecap:square;stroke-width:0.8;"/>
     </g>
     <g id="line2d_18">
      <g>
       <use style="stroke:#000000;stroke-width:0.8;" x="400.90125" xlink:href="#mb9e2c08918" y="288.430125"/>
      </g>
     </g>
     <g id="text_9">
      <!-- 80000 -->
      <g transform="translate(384.995 303.028562)scale(0.1 -0.1)">
       <use xlink:href="#DejaVuSans-38"/>
       <use x="63.623047" xlink:href="#DejaVuSans-30"/>
       <use x="127.246094" xlink:href="#DejaVuSans-30"/>
       <use x="190.869141" xlink:href="#DejaVuSans-30"/>
       <use x="254.492188" xlink:href="#DejaVuSans-30"/>
      </g>
     </g>
    </g>
    <g id="text_10">
     <!-- Frequenz [kHz] -->
     <defs>
      <path d="M 9.8125 72.90625 
L 51.703125 72.90625 
L 51.703125 64.59375 
L 19.671875 64.59375 
L 19.671875 43.109375 
L 48.578125 43.109375 
L 48.578125 34.8125 
L 19.671875 34.8125 
L 19.671875 0 
L 9.8125 0 
z
" id="DejaVuSans-46"/>
      <path d="M 41.109375 46.296875 
Q 39.59375 47.171875 37.8125 47.578125 
Q 36.03125 48 33.890625 48 
Q 26.265625 48 22.1875 43.046875 
Q 18.109375 38.09375 18.109375 28.8125 
L 18.109375 0 
L 9.078125 0 
L 9.078125 54.6875 
L 18.109375 54.6875 
L 18.109375 46.1875 
Q 20.953125 51.171875 25.484375 53.578125 
Q 30.03125 56 36.53125 56 
Q 37.453125 56 38.578125 55.875 
Q 39.703125 55.765625 41.0625 55.515625 
z
" id="DejaVuSans-72"/>
      <path d="M 56.203125 29.59375 
L 56.203125 25.203125 
L 14.890625 25.203125 
Q 15.484375 15.921875 20.484375 11.0625 
Q 25.484375 6.203125 34.421875 6.203125 
Q 39.59375 6.203125 44.453125 7.46875 
Q 49.3125 8.734375 54.109375 11.28125 
L 54.109375 2.78125 
Q 49.265625 0.734375 44.1875 -0.34375 
Q 39.109375 -1.421875 33.890625 -1.421875 
Q 20.796875 -1.421875 13.15625 6.1875 
Q 5.515625 13.8125 5.515625 26.8125 
Q 5.515625 40.234375 12.765625 48.109375 
Q 20.015625 56 32.328125 56 
Q 43.359375 56 49.78125 48.890625 
Q 56.203125 41.796875 56.203125 29.59375 
M 47.21875 32.234375 
Q 47.125 39.59375 43.09375 43.984375 
Q 39.0625 48.390625 32.421875 48.390625 
Q 24.90625 48.390625 20.390625 44.140625 
Q 15.875 39.890625 15.1875 32.171875 
z
" id="DejaVuSans-65"/>
      <path d="M 14.796875 27.296875 
Q 14.796875 17.390625 18.875 11.75 
Q 22.953125 6.109375 30.078125 6.109375 
Q 37.203125 6.109375 41.296875 11.75 
Q 45.40625 17.390625 45.40625 27.296875 
Q 45.40625 37.203125 41.296875 42.84375 
Q 37.203125 48.484375 30.078125 48.484375 
Q 22.953125 48.484375 18.875 42.84375 
Q 14.796875 37.203125 14.796875 27.296875 
M 45.40625 8.203125 
Q 42.578125 3.328125 38.25 0.953125 
Q 33.9375 -1.421875 27.875 -1.421875 
Q 17.96875 -1.421875 11.734375 6.484375 
Q 5.515625 14.40625 5.515625 27.296875 
Q 5.515625 40.1875 11.734375 48.09375 
Q 17.96875 56 27.875 56 
Q 33.9375 56 38.25 53.625 
Q 42.578125 51.265625 45.40625 46.390625 
L 45.40625 54.6875 
L 54.390625 54.6875 
L 54.390625 -20.796875 
L 45.40625 -20.796875 
z
" id="DejaVuSans-71"/>
      <path d="M 8.5 21.578125 
L 8.5 54.6875 
L 17.484375 54.6875 
L 17.484375 21.921875 
Q 17.484375 14.15625 20.5 10.265625 
Q 23.53125 6.390625 29.59375 6.390625 
Q 36.859375 6.390625 41.078125 11.03125 
Q 45.3125 15.671875 45.3125 23.6875 
L 45.3125 54.6875 
L 54.296875 54.6875 
L 54.296875 0 
L 45.3125 0 
L 45.3125 8.40625 
Q 42.046875 3.421875 37.71875 1 
Q 33.40625 -1.421875 27.6875 -1.421875 
Q 18.265625 -1.421875 13.375 4.4375 
Q 8.5 10.296875 8.5 21.578125 
M 31.109375 56 
z
" id="DejaVuSans-75"/>
      <path d="M 54.890625 33.015625 
L 54.890625 0 
L 45.90625 0 
L 45.90625 32.71875 
Q 45.90625 40.484375 42.875 44.328125 
Q 39.84375 48.1875 33.796875 48.1875 
Q 26.515625 48.1875 22.3125 43.546875 
Q 18.109375 38.921875 18.109375 30.90625 
L 18.109375 0 
L 9.078125 0 
L 9.078125 54.6875 
L 18.109375 54.6875 
L 18.109375 46.1875 
Q 21.34375 51.125 25.703125 53.5625 
Q 30.078125 56 35.796875 56 
Q 45.21875 56 50.046875 50.171875 
Q 54.890625 44.34375 54.890625 33.015625 
" id="DejaVuSans-6e"/>
      <path d="M 5.515625 54.6875 
L 48.1875 54.6875 
L 48.1875 46.484375 
L 14.40625 7.171875 
L 48.1875 7.171875 
L 48.1875 0 
L 4.296875 0 
L 4.296875 8.203125 
L 38.09375 47.515625 
L 5.515625 47.515625 
z
" id="DejaVuSans-7a"/>
      <path id="DejaVuSans-20"/>
      <path d="M 8.59375 75.984375 
L 29.296875 75.984375 
L 29.296875 69 
L 17.578125 69 
L 17.578125 -6.203125 
L 29.296875 -6.203125 
L 29.296875 -13.1875 
L 8.59375 -13.1875 
z
" id="DejaVuSans-5b"/>
      <path d="M 9.078125 75.984375 
L 18.109375 75.984375 
L 18.109375 31.109375 
L 44.921875 54.6875 
L 56.390625 54.6875 
L 27.390625 29.109375 
L 57.625 0 
L 45.90625 0 
L 18.109375 26.703125 
L 18.109375 0 
L 9.078125 0 
z
" id="DejaVuSans-6b"/>
      <path d="M 9.8125 72.90625 
L 19.671875 72.90625 
L 19.671875 43.015625 
L 55.515625 43.015625 
L 55.515625 72.90625 
L 65.375 72.90625 
L 65.375 0 
L 55.515625 0 
L 55.515625 34.71875 
L 19.671875 34.71875 
L 19.671875 0 
L 9.8125 0 
z
" id="DejaVuSans-48"/>
      <path d="M 30.421875 75.984375 
L 30.421875 -13.1875 
L 9.71875 -13.1875 
L 9.71875 -6.203125 
L 21.390625 -6.203125 
L 21.390625 69 
L 9.71875 69 
L 9.71875 75.984375 
z
" id="DejaVuSans-5d"/>
     </defs>
     <g transform="translate(184.357656 316.706687)scale(0.1 -0.1)">
      <use xlink:href="#DejaVuSans-46"/>
      <use x="57.410156" xlink:href="#DejaVuSans-72"/>
      <use x="98.492188" xlink:href="#DejaVuSans-65"/>
      <use x="160.015625" xlink:href="#DejaVuSans-71"/>
      <use x="223.492188" xlink:href="#DejaVuSans-75"/>
      <use x="286.871094" xlink:href="#DejaVuSans-65"/>
      <use x="348.394531" xlink:href="#DejaVuSans-6e"/>
      <use x="411.773438" xlink:href="#DejaVuSans-7a"/>
      <use x="464.263672" xlink:href="#DejaVuSans-20"/>
      <use x="496.050781" xlink:href="#DejaVuSans-5b"/>
      <use x="535.064453" xlink:href="#DejaVuSans-6b"/>
      <use x="592.974609" xlink:href="#DejaVuSans-48"/>
      <use x="668.169922" xlink:href="#DejaVuSans-7a"/>
      <use x="720.660156" xlink:href="#DejaVuSans-5d"/>
     </g>
    </g>
   </g>
   <g id="matplotlib.axis_2">
    <g id="ytick_1">
     <g id="line2d_19">
      <path clip-path="url(#p13919fd271)" d="M 43.78125 268.998958 
L 400.90125 268.998958 
" style="fill:none;stroke:#b0b0b0;stroke-linecap:square;stroke-width:0.8;"/>
     </g>
     <g id="line2d_20">
      <defs>
       <path d="M 0 0 
L -3.5 0 
" id="m4791aec564" style="stroke:#000000;stroke-width:0.8;"/>
      </defs>
      <g>
       <use style="stroke:#000000;stroke-width:0.8;" x="43.78125" xlink:href="#m4791aec564" y="268.998958"/>
      </g>
     </g>
     <g id="text_11">
      <!-- 0.0 -->
      <defs>
       <path d="M 10.6875 12.40625 
L 21 12.40625 
L 21 0 
L 10.6875 0 
z
" id="DejaVuSans-2e"/>
      </defs>
      <g transform="translate(20.878125 272.798177)scale(0.1 -0.1)">
       <use xlink:href="#DejaVuSans-30"/>
       <use x="63.623047" xlink:href="#DejaVuSans-2e"/>
       <use x="95.410156" xlink:href="#DejaVuSans-30"/>
      </g>
     </g>
    </g>
    <g id="ytick_2">
     <g id="line2d_21">
      <path clip-path="url(#p13919fd271)" d="M 43.78125 222.081991 
L 400.90125 222.081991 
" style="fill:none;stroke:#b0b0b0;stroke-linecap:square;stroke-width:0.8;"/>
     </g>
     <g id="line2d_22">
      <g>
       <use style="stroke:#000000;stroke-width:0.8;" x="43.78125" xlink:href="#m4791aec564" y="222.081991"/>
      </g>
     </g>
     <g id="text_12">
      <!-- 0.2 -->
      <g transform="translate(20.878125 225.88121)scale(0.1 -0.1)">
       <use xlink:href="#DejaVuSans-30"/>
       <use x="63.623047" xlink:href="#DejaVuSans-2e"/>
       <use x="95.410156" xlink:href="#DejaVuSans-32"/>
      </g>
     </g>
    </g>
    <g id="ytick_3">
     <g id="line2d_23">
      <path clip-path="url(#p13919fd271)" d="M 43.78125 175.165025 
L 400.90125 175.165025 
" style="fill:none;stroke:#b0b0b0;stroke-linecap:square;stroke-width:0.8;"/>
     </g>
     <g id="line2d_24">
      <g>
       <use style="stroke:#000000;stroke-width:0.8;" x="43.78125" xlink:href="#m4791aec564" y="175.165025"/>
      </g>
     </g>
     <g id="text_13">
      <!-- 0.4 -->
      <g transform="translate(20.878125 178.964243)scale(0.1 -0.1)">
       <use xlink:href="#DejaVuSans-30"/>
       <use x="63.623047" xlink:href="#DejaVuSans-2e"/>
       <use x="95.410156" xlink:href="#DejaVuSans-34"/>
      </g>
     </g>
    </g>
    <g id="ytick_4">
     <g id="line2d_25">
      <path clip-path="url(#p13919fd271)" d="M 43.78125 128.248058 
L 400.90125 128.248058 
" style="fill:none;stroke:#b0b0b0;stroke-linecap:square;stroke-width:0.8;"/>
     </g>
     <g id="line2d_26">
      <g>
       <use style="stroke:#000000;stroke-width:0.8;" x="43.78125" xlink:href="#m4791aec564" y="128.248058"/>
      </g>
     </g>
     <g id="text_14">
      <!-- 0.6 -->
      <g transform="translate(20.878125 132.047277)scale(0.1 -0.1)">
       <use xlink:href="#DejaVuSans-30"/>
       <use x="63.623047" xlink:href="#DejaVuSans-2e"/>
       <use x="95.410156" xlink:href="#DejaVuSans-36"/>
      </g>
     </g>
    </g>
    <g id="ytick_5">
     <g id="line2d_27">
      <path clip-path="url(#p13919fd271)" d="M 43.78125 81.331092 
L 400.90125 81.331092 
" style="fill:none;stroke:#b0b0b0;stroke-linecap:square;stroke-width:0.8;"/>
     </g>
     <g id="line2d_28">
      <g>
       <use style="stroke:#000000;stroke-width:0.8;" x="43.78125" xlink:href="#m4791aec564" y="81.331092"/>
      </g>
     </g>
     <g id="text_15">
      <!-- 0.8 -->
      <g transform="translate(20.878125 85.13031)scale(0.1 -0.1)">
       <use xlink:href="#DejaVuSans-30"/>
       <use x="63.623047" xlink:href="#DejaVuSans-2e"/>
       <use x="95.410156" xlink:href="#DejaVuSans-38"/>
      </g>
     </g>
    </g>
    <g id="ytick_6">
     <g id="line2d_29">
      <path clip-path="url(#p13919fd271)" d="M 43.78125 34.414125 
L 400.90125 34.414125 
" style="fill:none;stroke:#b0b0b0;stroke-linecap:square;stroke-width:0.8;"/>
     </g>
     <g id="line2d_30">
      <g>
       <use style="stroke:#000000;stroke-width:0.8;" x="43.78125" xlink:href="#m4791aec564" y="34.414125"/>
      </g>
     </g>
     <g id="text_16">
      <!-- 1.0 -->
      <defs>
       <path d="M 12.40625 8.296875 
L 28.515625 8.296875 
L 28.515625 63.921875 
L 10.984375 60.40625 
L 10.984375 69.390625 
L 28.421875 72.90625 
L 38.28125 72.90625 
L 38.28125 8.296875 
L 54.390625 8.296875 
L 54.390625 0 
L 12.40625 0 
z
" id="DejaVuSans-31"/>
      </defs>
      <g transform="translate(20.878125 38.213344)scale(0.1 -0.1)">
       <use xlink:href="#DejaVuSans-31"/>
       <use x="63.623047" xlink:href="#DejaVuSans-2e"/>
       <use x="95.410156" xlink:href="#DejaVuSans-30"/>
      </g>
     </g>
    </g>
    <g id="text_17">
     <!-- u.a. -->
     <defs>
      <path d="M 34.28125 27.484375 
Q 23.390625 27.484375 19.1875 25 
Q 14.984375 22.515625 14.984375 16.5 
Q 14.984375 11.71875 18.140625 8.90625 
Q 21.296875 6.109375 26.703125 6.109375 
Q 34.1875 6.109375 38.703125 11.40625 
Q 43.21875 16.703125 43.21875 25.484375 
L 43.21875 27.484375 
z
M 52.203125 31.203125 
L 52.203125 0 
L 43.21875 0 
L 43.21875 8.296875 
Q 40.140625 3.328125 35.546875 0.953125 
Q 30.953125 -1.421875 24.3125 -1.421875 
Q 15.921875 -1.421875 10.953125 3.296875 
Q 6 8.015625 6 15.921875 
Q 6 25.140625 12.171875 29.828125 
Q 18.359375 34.515625 30.609375 34.515625 
L 43.21875 34.515625 
L 43.21875 35.40625 
Q 43.21875 41.609375 39.140625 45 
Q 35.0625 48.390625 27.6875 48.390625 
Q 23 48.390625 18.546875 47.265625 
Q 14.109375 46.140625 10.015625 43.890625 
L 10.015625 52.203125 
Q 14.9375 54.109375 19.578125 55.046875 
Q 24.21875 56 28.609375 56 
Q 40.484375 56 46.34375 49.84375 
Q 52.203125 43.703125 52.203125 31.203125 
" id="DejaVuSans-61"/>
     </defs>
     <g transform="translate(14.798438 164.785062)rotate(-90)scale(0.1 -0.1)">
      <use xlink:href="#DejaVuSans-75"/>
      <use x="63.378906" xlink:href="#DejaVuSans-2e"/>
      <use x="95.166016" xlink:href="#DejaVuSans-61"/>
      <use x="156.445312" xlink:href="#DejaVuSans-2e"/>
     </g>
    </g>
   </g>
   <g id="line2d_31">
    <path clip-path="url(#p13919fd271)" d="M 43.606875 257.898864 
L 44.151797 257.861516 
L 44.696719 257.877411 
L 46.331484 257.911384 
L 47.421328 257.754891 
L 50.690859 256.827232 
L 52.325625 256.525965 
L 53.960391 256.512018 
L 55.050234 256.552791 
L 56.140078 256.241446 
L 57.229922 255.912458 
L 58.319766 256.027246 
L 60.499453 256.635674 
L 61.589297 256.629337 
L 62.134219 256.393214 
L 62.679141 255.939129 
L 65.40375 252.878228 
L 67.038516 251.293737 
L 68.128359 250.537368 
L 69.218203 250.133066 
L 70.852969 249.871724 
L 71.942813 249.206644 
L 73.577578 247.80141 
L 74.667422 246.833605 
L 75.757266 246.218475 
L 78.481875 245.330695 
L 79.571719 244.377622 
L 81.206484 242.648613 
L 81.751406 242.331428 
L 83.386172 241.951125 
L 84.476016 241.279744 
L 85.565859 240.172603 
L 87.200625 238.059488 
L 87.745547 237.7681 
L 88.290469 237.912974 
L 89.380313 238.62043 
L 89.925234 238.568323 
L 90.470156 238.147204 
L 91.56 236.945144 
L 92.649844 236.157842 
L 93.739688 235.419086 
L 95.374453 233.785205 
L 97.009219 232.078079 
L 98.099063 231.421921 
L 98.643984 231.155517 
L 99.188906 230.751551 
L 100.27875 229.440413 
L 101.368594 228.260788 
L 104.638125 225.86457 
L 107.907656 223.182121 
L 108.9975 222.231394 
L 110.087344 221.355627 
L 111.177188 220.069493 
L 112.811953 218.035521 
L 113.901797 216.886855 
L 116.626406 213.550048 
L 117.71625 212.809363 
L 118.806094 212.170888 
L 119.895938 211.089167 
L 122.075625 208.131439 
L 124.255313 205.137218 
L 125.890078 203.52313 
L 126.979922 202.371985 
L 129.159609 199.82523 
L 130.249453 198.502189 
L 131.884219 196.432469 
L 132.974063 195.172998 
L 134.063906 193.564767 
L 135.698672 190.728706 
L 136.788516 189.408957 
L 138.968203 187.481302 
L 139.513125 186.607536 
L 141.692813 182.110757 
L 142.782656 180.563682 
L 144.417422 178.405917 
L 147.142031 174.034387 
L 152.046328 167.253139 
L 153.136172 165.152695 
L 154.770938 161.741051 
L 155.860781 160.000097 
L 158.040469 157.472896 
L 159.130313 155.316661 
L 160.220156 152.933673 
L 162.944766 148.020195 
L 164.034609 145.735218 
L 166.759219 140.925104 
L 168.393984 137.596477 
L 169.483828 135.923828 
L 170.573672 134.128778 
L 177.112734 119.550076 
L 181.472109 109.472703 
L 183.106875 106.725726 
L 184.196719 104.008402 
L 185.831484 99.555105 
L 186.921328 97.298204 
L 188.556094 93.96365 
L 194.005313 81.982942 
L 195.640078 77.370155 
L 197.274844 72.400067 
L 198.364688 69.241708 
L 202.724063 60.205487 
L 203.813906 57.551852 
L 205.993594 51.973441 
L 209.808047 43.638173 
L 211.442813 39.735311 
L 212.532656 37.738907 
L 213.6225 36.232851 
L 214.712344 35.108484 
L 215.802188 34.527827 
L 216.892031 34.414125 
L 219.616641 34.911161 
L 220.161563 35.095724 
L 220.706484 35.581164 
L 221.251406 36.788553 
L 221.796328 39.188541 
L 222.886172 47.302645 
L 223.976016 55.292003 
L 225.065859 60.406445 
L 227.245547 67.946564 
L 228.880313 73.729998 
L 231.604922 84.786081 
L 233.239688 91.310981 
L 237.599063 106.078836 
L 238.688906 110.066804 
L 239.77875 113.312032 
L 241.413516 117.906648 
L 245.227969 129.803716 
L 247.407656 135.857753 
L 250.132266 144.867097 
L 251.222109 147.329714 
L 253.401797 151.295313 
L 254.491641 154.216695 
L 256.126406 159.1722 
L 258.851016 165.992609 
L 259.940859 167.978794 
L 261.030703 169.791819 
L 262.120547 172.202097 
L 263.755313 176.479471 
L 264.845156 178.639623 
L 266.479922 181.40111 
L 268.114688 184.775133 
L 269.204531 187.136096 
L 270.294375 188.967224 
L 273.018984 192.789657 
L 274.108828 194.774111 
L 276.288516 199.239019 
L 278.468203 202.330159 
L 280.647891 206.274327 
L 282.827578 209.271977 
L 285.552188 212.502393 
L 288.276797 216.798566 
L 289.366641 217.981502 
L 292.09125 220.628569 
L 293.726016 222.57914 
L 294.815859 223.827533 
L 296.450625 225.545267 
L 298.630313 228.377176 
L 299.720156 229.267809 
L 301.354922 230.560656 
L 302.444766 231.75449 
L 306.259219 236.335256 
L 308.438906 238.280319 
L 308.983828 238.466649 
L 310.618594 238.56705 
L 311.163516 238.774975 
L 311.708438 239.155659 
L 312.798281 240.339294 
L 313.888125 241.513933 
L 314.977969 242.205416 
L 316.067813 242.907216 
L 317.702578 244.466796 
L 318.792422 245.107525 
L 319.882266 245.665432 
L 320.427188 246.12526 
L 322.606875 248.65433 
L 323.151797 248.969109 
L 324.241641 249.150292 
L 325.876406 249.202632 
L 326.421328 249.306586 
L 326.96625 249.523965 
L 329.145938 251.021731 
L 330.235781 251.366195 
L 331.870547 252.402897 
L 333.505313 252.422717 
L 337.319766 254.078126 
L 338.409609 254.220599 
L 339.499453 254.246517 
L 340.044375 254.398087 
L 341.134219 255.079098 
L 342.224063 255.808131 
L 343.858828 256.63967 
L 345.493594 257.999814 
L 346.038516 258.23501 
L 347.128359 258.284817 
L 348.763125 258.135721 
L 349.308047 258.239054 
L 351.487734 259.08171 
L 353.1225 259.203493 
L 355.302188 259.232546 
L 356.936953 259.846934 
L 358.026797 260.378286 
L 360.206484 262.053618 
L 361.296328 262.152556 
L 362.931094 261.964146 
L 364.020938 261.816959 
L 365.110781 262.021512 
L 368.380313 262.839151 
L 374.374453 263.498211 
L 376.009219 263.928092 
L 377.643984 263.910854 
L 378.733828 263.867434 
L 380.368594 263.605195 
L 380.913516 263.735266 
L 381.458438 264.054115 
L 382.548281 265.122617 
L 383.638125 266.197898 
L 384.183047 266.444301 
L 385.272891 266.456384 
L 386.907656 266.524915 
L 387.9975 266.726738 
L 389.087344 267.007891 
L 391.267031 266.880061 
L 393.991641 267.617628 
L 395.081484 268.32913 
L 395.626406 268.479086 
L 396.171328 268.327752 
L 398.351016 266.711188 
L 398.895938 266.571554 
L 399.985781 266.608129 
L 401.075625 266.823278 
L 401.075625 266.823278 
" style="fill:none;stroke:#1f77b4;stroke-linecap:square;stroke-width:1.5;"/>
   </g>
   <g id="line2d_32">
    <path clip-path="url(#p13919fd271)" d="M 43.606875 259.700363 
L 44.151797 259.38429 
L 44.696719 259.164779 
L 45.786563 259.048192 
L 47.421328 259.039178 
L 47.96625 258.940411 
L 48.511172 258.667285 
L 49.601016 257.591939 
L 50.145938 257.011802 
L 50.690859 256.599009 
L 51.235781 256.4275 
L 52.870547 256.362179 
L 54.505313 255.685236 
L 56.140078 255.331908 
L 59.954531 253.689692 
L 61.589297 253.678169 
L 62.679141 253.131403 
L 63.768984 252.61054 
L 64.858828 252.260035 
L 65.948672 251.544704 
L 68.128359 249.554915 
L 69.218203 248.93087 
L 70.308047 248.428985 
L 71.942813 247.468141 
L 72.487734 247.318878 
L 73.577578 247.370663 
L 74.667422 247.442758 
L 75.212344 247.218608 
L 76.302188 246.180476 
L 77.392031 245.193559 
L 77.936953 244.950068 
L 79.571719 244.57083 
L 80.116641 244.187145 
L 81.751406 242.351726 
L 82.296328 242.058636 
L 82.84125 242.058901 
L 83.931094 242.26546 
L 84.476016 242.048535 
L 85.020938 241.498068 
L 86.110781 239.770334 
L 87.200625 237.846704 
L 87.745547 237.081357 
L 88.290469 236.676646 
L 88.835391 236.647874 
L 90.470156 237.106535 
L 91.015078 237.078508 
L 91.56 236.844924 
L 92.104922 236.360863 
L 93.739688 234.439569 
L 94.829531 233.549576 
L 95.374453 233.262464 
L 95.919375 233.160776 
L 97.554141 233.35816 
L 98.099063 233.146007 
L 99.188906 232.22366 
L 100.27875 230.933998 
L 101.368594 229.610977 
L 103.548281 227.602414 
L 106.817813 223.583122 
L 107.907656 222.536703 
L 108.9975 221.616551 
L 111.177188 219.342456 
L 112.267031 218.666274 
L 113.356875 217.635943 
L 114.991641 215.954329 
L 116.081484 214.37643 
L 117.171328 212.891077 
L 117.71625 212.480064 
L 118.806094 211.959164 
L 119.351016 211.567163 
L 121.530703 209.443584 
L 123.165469 208.634758 
L 123.710391 208.049366 
L 125.345156 205.889482 
L 126.435 204.550336 
L 126.979922 203.470537 
L 129.159609 198.172447 
L 130.249453 196.391584 
L 130.794375 195.797319 
L 131.339297 195.417923 
L 132.429141 194.940374 
L 132.974063 194.558614 
L 133.518984 193.938722 
L 134.608828 192.042443 
L 135.698672 190.118158 
L 136.243594 189.442872 
L 137.333438 188.563399 
L 138.423281 187.657763 
L 139.513125 186.305514 
L 142.237734 182.436315 
L 144.417422 179.731488 
L 145.507266 177.838308 
L 147.686953 173.606954 
L 150.956484 168.042846 
L 152.59125 165.635824 
L 154.770938 163.114762 
L 157.495547 157.757449 
L 159.130313 154.217745 
L 160.765078 150.55246 
L 161.854922 148.751878 
L 163.489688 146.443229 
L 164.579531 144.300094 
L 166.214297 140.888885 
L 168.938906 136.18083 
L 171.118594 131.624158 
L 173.298281 127.794071 
L 176.567813 121.197927 
L 178.202578 117.712048 
L 180.927188 111.20685 
L 183.651797 106.335129 
L 184.741641 103.464012 
L 185.831484 100.529337 
L 186.921328 98.397481 
L 188.556094 95.387459 
L 189.645938 93.006727 
L 190.735781 90.072648 
L 192.370547 85.441459 
L 193.460391 82.829801 
L 195.095156 79.147667 
L 196.185 76.591225 
L 196.729922 75.702485 
L 197.819766 74.354896 
L 198.364688 73.290317 
L 198.909609 71.661154 
L 201.089297 63.745809 
L 202.724063 59.474378 
L 203.813906 57.255915 
L 205.448672 54.299849 
L 206.538516 51.818299 
L 209.263125 44.297422 
L 210.897891 41.381658 
L 211.987734 39.295182 
L 213.077578 37.687944 
L 215.257266 34.853209 
L 215.802188 34.454471 
L 216.347109 34.414125 
L 216.892031 34.708858 
L 218.526797 36.11756 
L 219.071719 36.353173 
L 220.161563 36.442519 
L 220.706484 36.71357 
L 221.251406 37.749068 
L 221.796328 40.046509 
L 222.34125 43.669872 
L 223.976016 56.009506 
L 225.065859 61.356045 
L 227.245547 69.673114 
L 228.880313 75.590303 
L 232.149844 86.35748 
L 234.329531 94.301341 
L 238.688906 107.69769 
L 240.323672 112.799453 
L 243.593203 123.800094 
L 247.407656 134.981668 
L 250.132266 142.697284 
L 251.767031 147.47612 
L 254.491641 153.988091 
L 256.671328 158.458574 
L 257.761172 161.475245 
L 261.030703 171.094125 
L 261.575625 172.151749 
L 263.210391 174.52414 
L 264.300234 177.106404 
L 265.390078 179.725197 
L 267.569766 183.607052 
L 268.659609 185.959929 
L 275.743594 198.618355 
L 276.833438 200.129115 
L 280.102969 205.277935 
L 281.737734 207.201615 
L 282.282656 207.779943 
L 282.827578 208.521133 
L 285.007266 212.288834 
L 286.642031 214.040041 
L 288.276797 216.001537 
L 289.366641 217.289771 
L 291.001406 219.587782 
L 292.636172 222.507817 
L 293.726016 223.746626 
L 294.815859 225.025209 
L 296.450625 227.357672 
L 296.995547 227.8849 
L 298.085391 228.479967 
L 299.720156 229.091486 
L 301.354922 229.187518 
L 301.899844 229.563414 
L 302.444766 230.279407 
L 305.169375 234.7806 
L 308.983828 239.529789 
L 310.618594 240.32711 
L 311.708438 240.854202 
L 312.253359 241.266988 
L 313.888125 242.92017 
L 314.433047 243.212069 
L 316.612734 243.916851 
L 317.702578 244.390801 
L 320.427188 245.957404 
L 321.517031 246.291303 
L 323.151797 246.285845 
L 323.696719 246.650808 
L 324.786563 248.009002 
L 325.876406 249.324327 
L 327.511172 250.674903 
L 328.056094 251.027633 
L 328.601016 251.200322 
L 330.235781 251.280952 
L 331.325625 251.836009 
L 331.870547 251.938956 
L 332.960391 251.860325 
L 333.505313 251.991751 
L 335.685 253.227216 
L 337.864688 254.361435 
L 340.589297 255.367535 
L 341.679141 255.800957 
L 342.768984 256.49963 
L 343.858828 257.187876 
L 344.40375 257.250147 
L 345.493594 256.878796 
L 346.038516 256.667256 
L 346.583438 256.592998 
L 347.128359 256.743281 
L 347.673281 257.151942 
L 348.763125 258.541743 
L 349.308047 259.279792 
L 349.852969 259.823737 
L 350.397891 260.045813 
L 350.942813 259.966392 
L 352.032656 259.62081 
L 353.1225 259.668499 
L 354.757266 259.897881 
L 356.392031 260.286865 
L 357.481875 260.291299 
L 358.026797 260.259734 
L 358.571719 260.36096 
L 359.116641 260.682519 
L 360.751406 262.116528 
L 361.296328 262.401877 
L 361.84125 262.540227 
L 362.386172 262.51188 
L 363.476016 262.044807 
L 364.020938 261.803048 
L 364.565859 261.702059 
L 365.110781 261.788233 
L 366.200625 262.383042 
L 367.835391 263.303831 
L 368.925234 263.656878 
L 370.015078 263.629773 
L 371.649844 263.566036 
L 372.739688 263.790697 
L 373.829531 264.457619 
L 374.374453 264.816121 
L 374.919375 264.990942 
L 375.464297 264.872123 
L 377.099063 263.661011 
L 377.643984 263.513819 
L 378.733828 263.683919 
L 379.823672 263.871502 
L 381.458438 263.975095 
L 382.548281 264.442884 
L 384.727969 265.594386 
L 385.817813 265.842807 
L 387.9975 266.150216 
L 389.632266 266.592007 
L 391.267031 267.156927 
L 391.811953 267.202203 
L 392.901797 266.955694 
L 393.991641 266.567388 
L 396.71625 266.008907 
L 397.806094 265.904281 
L 398.895938 266.162335 
L 399.985781 266.598228 
L 400.530703 266.692314 
L 401.075625 266.631104 
L 401.075625 266.631104 
" style="fill:none;stroke:#ff7f0e;stroke-linecap:square;stroke-width:1.5;"/>
   </g>
   <g id="line2d_33">
    <path clip-path="url(#p13919fd271)" d="M 43.606875 260.078894 
L 44.151797 259.627463 
L 44.696719 259.428729 
L 45.241641 259.483615 
L 47.421328 260.389386 
L 47.96625 260.278952 
L 48.511172 259.859364 
L 49.601016 258.53896 
L 50.145938 258.097165 
L 50.690859 257.92207 
L 52.325625 257.972597 
L 53.415469 257.952991 
L 53.960391 257.694524 
L 54.505313 257.17115 
L 55.595156 255.756415 
L 56.140078 255.286162 
L 56.685 255.125355 
L 58.864688 255.376909 
L 59.409609 255.277603 
L 59.954531 255.010971 
L 62.134219 253.291082 
L 62.679141 253.150815 
L 63.224063 253.129567 
L 64.313906 253.406099 
L 64.858828 253.548098 
L 65.40375 253.502033 
L 65.948672 253.188182 
L 67.038516 251.972914 
L 68.128359 250.894011 
L 69.218203 250.323049 
L 69.763125 250.237488 
L 70.308047 250.35273 
L 71.397891 250.741709 
L 71.942813 250.652251 
L 73.032656 250.092469 
L 73.577578 249.991035 
L 75.212344 250.11582 
L 75.757266 249.84766 
L 77.392031 248.590819 
L 79.026797 247.597867 
L 81.751406 245.455992 
L 82.84125 244.978244 
L 83.931094 244.665719 
L 84.476016 244.395108 
L 85.020938 243.915022 
L 85.565859 243.161448 
L 86.655703 240.831858 
L 87.200625 239.653634 
L 87.745547 239.032603 
L 88.290469 239.240404 
L 89.380313 240.924278 
L 89.925234 241.40224 
L 90.470156 241.414493 
L 91.015078 241.088263 
L 92.104922 239.883834 
L 93.194766 238.772621 
L 94.829531 237.723875 
L 95.919375 236.256793 
L 97.009219 234.931935 
L 98.099063 234.063323 
L 99.188906 233.467105 
L 100.27875 233.202833 
L 101.368594 232.957374 
L 101.913516 232.608417 
L 103.003359 231.507079 
L 104.093203 230.366476 
L 104.638125 230.027551 
L 105.183047 229.98057 
L 106.272891 230.405251 
L 106.817813 230.381534 
L 107.362734 229.904519 
L 107.907656 228.948615 
L 109.542422 225.163842 
L 110.087344 224.37512 
L 110.632266 224.035429 
L 111.722109 223.999612 
L 112.267031 223.793566 
L 113.901797 222.652878 
L 114.446719 222.077002 
L 114.991641 221.165873 
L 116.626406 217.789504 
L 117.171328 217.057099 
L 118.261172 216.198973 
L 118.806094 215.799454 
L 119.351016 215.215475 
L 121.530703 212.335635 
L 124.255313 208.947448 
L 124.800234 208.656598 
L 125.345156 208.584805 
L 126.435 208.750239 
L 126.979922 208.661765 
L 127.524844 208.345764 
L 128.614688 207.241739 
L 129.704531 205.778094 
L 130.794375 203.997106 
L 132.974063 200.016261 
L 133.518984 199.299836 
L 134.063906 198.792549 
L 134.608828 198.532131 
L 135.698672 198.235751 
L 136.243594 197.739281 
L 137.333438 195.979058 
L 138.423281 193.93052 
L 140.602969 188.85167 
L 141.147891 188.185489 
L 143.327578 186.275872 
L 144.417422 184.981414 
L 145.507266 183.386214 
L 148.776797 177.789149 
L 150.411563 176.120802 
L 150.956484 175.362371 
L 152.046328 173.176168 
L 153.136172 171.053444 
L 154.226016 169.863524 
L 155.315859 168.57082 
L 156.405703 166.660854 
L 157.495547 163.723558 
L 158.585391 160.596122 
L 159.130313 159.530487 
L 159.675234 158.850522 
L 161.31 157.413492 
L 162.399844 156.017667 
L 166.759219 148.22639 
L 170.02875 140.803119 
L 171.118594 138.098311 
L 171.663516 137.291711 
L 173.298281 135.683635 
L 173.843203 134.825784 
L 174.388125 133.698663 
L 175.477969 130.501813 
L 176.567813 127.043583 
L 177.112734 125.875103 
L 178.7475 123.443916 
L 179.837344 120.302817 
L 180.927188 117.111607 
L 182.561953 113.478495 
L 183.651797 111.314921 
L 186.921328 105.640153 
L 188.011172 103.517177 
L 188.556094 101.985269 
L 189.645938 97.896506 
L 190.735781 93.790406 
L 191.280703 92.274632 
L 191.825625 91.214284 
L 193.460391 88.710122 
L 196.185 83.280669 
L 197.274844 81.546261 
L 197.819766 80.259963 
L 198.364688 78.397825 
L 199.999453 71.651504 
L 203.268984 61.518599 
L 204.90375 58.486769 
L 205.448672 57.060404 
L 208.173281 48.455799 
L 209.263125 45.911036 
L 210.897891 42.533495 
L 212.532656 38.224832 
L 213.077578 37.50109 
L 213.6225 37.338425 
L 214.167422 37.301474 
L 214.712344 36.906668 
L 216.347109 34.464836 
L 216.892031 34.414125 
L 217.436953 34.885466 
L 218.526797 36.194909 
L 219.071719 36.487208 
L 220.161563 36.515963 
L 220.706484 36.921349 
L 221.251406 38.309951 
L 221.796328 41.150984 
L 223.431094 53.813292 
L 223.976016 56.765906 
L 225.065859 60.762332 
L 227.245547 67.751216 
L 228.880313 74.238084 
L 230.515078 80.511162 
L 232.149844 86.006348 
L 234.874453 96.342997 
L 237.599063 105.004455 
L 239.233828 111.73313 
L 240.323672 115.080833 
L 243.048281 122.279951 
L 244.138125 126.368689 
L 245.227969 130.611685 
L 245.772891 132.288561 
L 247.952578 137.555511 
L 251.222109 148.609741 
L 252.311953 151.033442 
L 252.856875 151.919005 
L 253.946719 153.204739 
L 254.491641 154.251227 
L 255.036563 156.058407 
L 256.671328 163.398829 
L 257.21625 164.863347 
L 258.306094 166.481745 
L 258.851016 167.33252 
L 259.395938 168.475858 
L 260.485781 171.646744 
L 261.575625 174.969517 
L 262.120547 176.188546 
L 264.845156 181.001942 
L 267.569766 186.92981 
L 268.659609 188.512229 
L 270.294375 190.711795 
L 271.384219 192.698771 
L 273.018984 195.866553 
L 274.108828 197.216483 
L 274.65375 197.880936 
L 275.198672 198.782906 
L 276.288516 201.289042 
L 277.378359 203.832865 
L 278.468203 205.700064 
L 280.102969 208.34014 
L 281.737734 210.824196 
L 282.827578 212.015904 
L 283.917422 213.050203 
L 284.462344 213.930973 
L 286.097109 217.093893 
L 287.731875 218.997579 
L 288.821719 221.113504 
L 289.366641 222.165675 
L 289.911563 222.915153 
L 290.456484 223.340542 
L 291.546328 223.922242 
L 292.09125 224.4353 
L 293.181094 225.913288 
L 295.360781 229.117632 
L 297.540469 231.158415 
L 298.630313 232.413203 
L 299.175234 232.6896 
L 300.81 232.789163 
L 301.354922 233.057311 
L 301.899844 233.541228 
L 302.989688 235.07315 
L 304.079531 236.833133 
L 304.624453 237.444218 
L 305.169375 237.741298 
L 306.259219 238.008954 
L 306.804141 238.474035 
L 307.349063 239.290538 
L 308.983828 242.471643 
L 309.52875 243.13825 
L 310.073672 243.432913 
L 311.163516 243.365443 
L 311.708438 243.325165 
L 312.253359 243.444989 
L 312.798281 243.785894 
L 313.888125 244.804764 
L 314.433047 245.05852 
L 314.977969 244.93206 
L 316.067813 244.075289 
L 316.612734 243.908738 
L 317.157656 244.128968 
L 318.792422 245.481262 
L 319.882266 245.803871 
L 320.972109 246.163767 
L 322.061953 246.830371 
L 323.151797 247.659385 
L 323.696719 248.254405 
L 324.241641 249.109018 
L 325.331484 251.21013 
L 325.876406 251.88577 
L 326.421328 252.10651 
L 327.511172 251.855179 
L 328.601016 251.697771 
L 329.690859 252.003271 
L 330.780703 252.476851 
L 331.325625 252.823111 
L 332.415469 253.878695 
L 333.505313 254.983369 
L 335.140078 256.227943 
L 336.229922 256.726295 
L 337.319766 256.97485 
L 338.954531 257.689252 
L 340.589297 258.469154 
L 341.134219 258.500658 
L 342.224063 258.40921 
L 343.858828 258.924306 
L 345.493594 258.761393 
L 346.038516 259.108837 
L 347.128359 260.223691 
L 347.673281 260.479347 
L 348.218203 260.387661 
L 349.308047 259.930165 
L 349.852969 259.950838 
L 351.487734 260.513584 
L 352.032656 260.491597 
L 353.667422 260.093937 
L 354.212344 260.240581 
L 355.302188 261.185591 
L 355.847109 261.644054 
L 357.481875 262.612435 
L 358.026797 263.017299 
L 358.571719 263.202578 
L 359.116641 263.053617 
L 359.661563 262.749973 
L 360.206484 262.584855 
L 360.751406 262.674283 
L 362.386172 263.285205 
L 363.476016 263.422227 
L 364.565859 263.253363 
L 365.655703 262.644515 
L 366.745547 262.101941 
L 367.290469 262.120059 
L 367.835391 262.407583 
L 368.925234 263.514403 
L 371.104922 265.726278 
L 371.649844 266.121015 
L 372.194766 266.318856 
L 372.739688 266.344109 
L 373.829531 266.103459 
L 374.919375 265.88 
L 376.554141 265.913272 
L 377.643984 265.505174 
L 378.188906 265.287334 
L 378.733828 265.230016 
L 379.823672 265.576075 
L 380.368594 265.776795 
L 380.913516 265.845423 
L 381.458438 265.692654 
L 383.093203 264.639317 
L 383.638125 264.746984 
L 384.727969 265.610933 
L 385.272891 266.046057 
L 385.817813 266.292927 
L 386.362734 266.215843 
L 386.907656 265.792025 
L 387.9975 264.64124 
L 388.542422 264.404749 
L 389.087344 264.594071 
L 389.632266 265.188433 
L 390.722109 266.764386 
L 391.267031 267.201756 
L 391.811953 267.235384 
L 393.446719 266.53895 
L 394.536563 266.651227 
L 395.626406 266.947903 
L 396.171328 267.223113 
L 397.261172 268.041551 
L 397.806094 268.138868 
L 398.351016 267.74293 
L 399.440859 266.165762 
L 399.985781 265.673615 
L 400.530703 265.603776 
L 401.075625 265.844831 
L 401.075625 265.844831 
" style="fill:none;stroke:#2ca02c;stroke-linecap:square;stroke-width:1.5;"/>
   </g>
   <g id="patch_3">
    <path d="M 43.78125 288.430125 
L 43.78125 22.318125 
" style="fill:none;stroke:#000000;stroke-linecap:square;stroke-linejoin:miter;stroke-width:0.8;"/>
   </g>
   <g id="patch_4">
    <path d="M 400.90125 288.430125 
L 400.90125 22.318125 
" style="fill:none;stroke:#000000;stroke-linecap:square;stroke-linejoin:miter;stroke-width:0.8;"/>
   </g>
   <g id="patch_5">
    <path d="M 43.78125 288.430125 
L 400.90125 288.430125 
" style="fill:none;stroke:#000000;stroke-linecap:square;stroke-linejoin:miter;stroke-width:0.8;"/>
   </g>
   <g id="patch_6">
    <path d="M 43.78125 22.318125 
L 400.90125 22.318125 
" style="fill:none;stroke:#000000;stroke-linecap:square;stroke-linejoin:miter;stroke-width:0.8;"/>
   </g>
   <g id="text_18">
    <!-- Spektrum Vergleich -->
    <defs>
     <path d="M 53.515625 70.515625 
L 53.515625 60.890625 
Q 47.90625 63.578125 42.921875 64.890625 
Q 37.9375 66.21875 33.296875 66.21875 
Q 25.25 66.21875 20.875 63.09375 
Q 16.5 59.96875 16.5 54.203125 
Q 16.5 49.359375 19.40625 46.890625 
Q 22.3125 44.4375 30.421875 42.921875 
L 36.375 41.703125 
Q 47.40625 39.59375 52.65625 34.296875 
Q 57.90625 29 57.90625 20.125 
Q 57.90625 9.515625 50.796875 4.046875 
Q 43.703125 -1.421875 29.984375 -1.421875 
Q 24.8125 -1.421875 18.96875 -0.25 
Q 13.140625 0.921875 6.890625 3.21875 
L 6.890625 13.375 
Q 12.890625 10.015625 18.65625 8.296875 
Q 24.421875 6.59375 29.984375 6.59375 
Q 38.421875 6.59375 43.015625 9.90625 
Q 47.609375 13.234375 47.609375 19.390625 
Q 47.609375 24.75 44.3125 27.78125 
Q 41.015625 30.8125 33.5 32.328125 
L 27.484375 33.5 
Q 16.453125 35.6875 11.515625 40.375 
Q 6.59375 45.0625 6.59375 53.421875 
Q 6.59375 63.09375 13.40625 68.65625 
Q 20.21875 74.21875 32.171875 74.21875 
Q 37.3125 74.21875 42.625 73.28125 
Q 47.953125 72.359375 53.515625 70.515625 
" id="DejaVuSans-53"/>
     <path d="M 18.109375 8.203125 
L 18.109375 -20.796875 
L 9.078125 -20.796875 
L 9.078125 54.6875 
L 18.109375 54.6875 
L 18.109375 46.390625 
Q 20.953125 51.265625 25.265625 53.625 
Q 29.59375 56 35.59375 56 
Q 45.5625 56 51.78125 48.09375 
Q 58.015625 40.1875 58.015625 27.296875 
Q 58.015625 14.40625 51.78125 6.484375 
Q 45.5625 -1.421875 35.59375 -1.421875 
Q 29.59375 -1.421875 25.265625 0.953125 
Q 20.953125 3.328125 18.109375 8.203125 
M 48.6875 27.296875 
Q 48.6875 37.203125 44.609375 42.84375 
Q 40.53125 48.484375 33.40625 48.484375 
Q 26.265625 48.484375 22.1875 42.84375 
Q 18.109375 37.203125 18.109375 27.296875 
Q 18.109375 17.390625 22.1875 11.75 
Q 26.265625 6.109375 33.40625 6.109375 
Q 40.53125 6.109375 44.609375 11.75 
Q 48.6875 17.390625 48.6875 27.296875 
" id="DejaVuSans-70"/>
     <path d="M 18.3125 70.21875 
L 18.3125 54.6875 
L 36.8125 54.6875 
L 36.8125 47.703125 
L 18.3125 47.703125 
L 18.3125 18.015625 
Q 18.3125 11.328125 20.140625 9.421875 
Q 21.96875 7.515625 27.59375 7.515625 
L 36.8125 7.515625 
L 36.8125 0 
L 27.59375 0 
Q 17.1875 0 13.234375 3.875 
Q 9.28125 7.765625 9.28125 18.015625 
L 9.28125 47.703125 
L 2.6875 47.703125 
L 2.6875 54.6875 
L 9.28125 54.6875 
L 9.28125 70.21875 
z
" id="DejaVuSans-74"/>
     <path d="M 52 44.1875 
Q 55.375 50.25 60.0625 53.125 
Q 64.75 56 71.09375 56 
Q 79.640625 56 84.28125 50.015625 
Q 88.921875 44.046875 88.921875 33.015625 
L 88.921875 0 
L 79.890625 0 
L 79.890625 32.71875 
Q 79.890625 40.578125 77.09375 44.375 
Q 74.3125 48.1875 68.609375 48.1875 
Q 61.625 48.1875 57.5625 43.546875 
Q 53.515625 38.921875 53.515625 30.90625 
L 53.515625 0 
L 44.484375 0 
L 44.484375 32.71875 
Q 44.484375 40.625 41.703125 44.40625 
Q 38.921875 48.1875 33.109375 48.1875 
Q 26.21875 48.1875 22.15625 43.53125 
Q 18.109375 38.875 18.109375 30.90625 
L 18.109375 0 
L 9.078125 0 
L 9.078125 54.6875 
L 18.109375 54.6875 
L 18.109375 46.1875 
Q 21.1875 51.21875 25.484375 53.609375 
Q 29.78125 56 35.6875 56 
Q 41.65625 56 45.828125 52.96875 
Q 50 49.953125 52 44.1875 
" id="DejaVuSans-6d"/>
     <path d="M 28.609375 0 
L 0.78125 72.90625 
L 11.078125 72.90625 
L 34.1875 11.53125 
L 57.328125 72.90625 
L 67.578125 72.90625 
L 39.796875 0 
z
" id="DejaVuSans-56"/>
     <path d="M 45.40625 27.984375 
Q 45.40625 37.75 41.375 43.109375 
Q 37.359375 48.484375 30.078125 48.484375 
Q 22.859375 48.484375 18.828125 43.109375 
Q 14.796875 37.75 14.796875 27.984375 
Q 14.796875 18.265625 18.828125 12.890625 
Q 22.859375 7.515625 30.078125 7.515625 
Q 37.359375 7.515625 41.375 12.890625 
Q 45.40625 18.265625 45.40625 27.984375 
M 54.390625 6.78125 
Q 54.390625 -7.171875 48.1875 -13.984375 
Q 42 -20.796875 29.203125 -20.796875 
Q 24.46875 -20.796875 20.265625 -20.09375 
Q 16.0625 -19.390625 12.109375 -17.921875 
L 12.109375 -9.1875 
Q 16.0625 -11.328125 19.921875 -12.34375 
Q 23.78125 -13.375 27.78125 -13.375 
Q 36.625 -13.375 41.015625 -8.765625 
Q 45.40625 -4.15625 45.40625 5.171875 
L 45.40625 9.625 
Q 42.625 4.78125 38.28125 2.390625 
Q 33.9375 0 27.875 0 
Q 17.828125 0 11.671875 7.65625 
Q 5.515625 15.328125 5.515625 27.984375 
Q 5.515625 40.671875 11.671875 48.328125 
Q 17.828125 56 27.875 56 
Q 33.9375 56 38.28125 53.609375 
Q 42.625 51.21875 45.40625 46.390625 
L 45.40625 54.6875 
L 54.390625 54.6875 
z
" id="DejaVuSans-67"/>
     <path d="M 9.421875 75.984375 
L 18.40625 75.984375 
L 18.40625 0 
L 9.421875 0 
z
" id="DejaVuSans-6c"/>
     <path d="M 9.421875 54.6875 
L 18.40625 54.6875 
L 18.40625 0 
L 9.421875 0 
z
M 9.421875 75.984375 
L 18.40625 75.984375 
L 18.40625 64.59375 
L 9.421875 64.59375 
z
" id="DejaVuSans-69"/>
     <path d="M 48.78125 52.59375 
L 48.78125 44.1875 
Q 44.96875 46.296875 41.140625 47.34375 
Q 37.3125 48.390625 33.40625 48.390625 
Q 24.65625 48.390625 19.8125 42.84375 
Q 14.984375 37.3125 14.984375 27.296875 
Q 14.984375 17.28125 19.8125 11.734375 
Q 24.65625 6.203125 33.40625 6.203125 
Q 37.3125 6.203125 41.140625 7.25 
Q 44.96875 8.296875 48.78125 10.40625 
L 48.78125 2.09375 
Q 45.015625 0.34375 40.984375 -0.53125 
Q 36.96875 -1.421875 32.421875 -1.421875 
Q 20.0625 -1.421875 12.78125 6.34375 
Q 5.515625 14.109375 5.515625 27.296875 
Q 5.515625 40.671875 12.859375 48.328125 
Q 20.21875 56 33.015625 56 
Q 37.15625 56 41.109375 55.140625 
Q 45.0625 54.296875 48.78125 52.59375 
" id="DejaVuSans-63"/>
     <path d="M 54.890625 33.015625 
L 54.890625 0 
L 45.90625 0 
L 45.90625 32.71875 
Q 45.90625 40.484375 42.875 44.328125 
Q 39.84375 48.1875 33.796875 48.1875 
Q 26.515625 48.1875 22.3125 43.546875 
Q 18.109375 38.921875 18.109375 30.90625 
L 18.109375 0 
L 9.078125 0 
L 9.078125 75.984375 
L 18.109375 75.984375 
L 18.109375 46.1875 
Q 21.34375 51.125 25.703125 53.5625 
Q 30.078125 56 35.796875 56 
Q 45.21875 56 50.046875 50.171875 
Q 54.890625 44.34375 54.890625 33.015625 
" id="DejaVuSans-68"/>
    </defs>
    <g transform="translate(162.992813 16.318125)scale(0.12 -0.12)">
     <use xlink:href="#DejaVuSans-53"/>
     <use x="63.476562" xlink:href="#DejaVuSans-70"/>
     <use x="126.953125" xlink:href="#DejaVuSans-65"/>
     <use x="188.476562" xlink:href="#DejaVuSans-6b"/>
     <use x="246.386719" xlink:href="#DejaVuSans-74"/>
     <use x="285.595703" xlink:href="#DejaVuSans-72"/>
     <use x="326.708984" xlink:href="#DejaVuSans-75"/>
     <use x="390.087891" xlink:href="#DejaVuSans-6d"/>
     <use x="487.5" xlink:href="#DejaVuSans-20"/>
     <use x="519.287109" xlink:href="#DejaVuSans-56"/>
     <use x="587.585938" xlink:href="#DejaVuSans-65"/>
     <use x="649.109375" xlink:href="#DejaVuSans-72"/>
     <use x="690.207031" xlink:href="#DejaVuSans-67"/>
     <use x="753.683594" xlink:href="#DejaVuSans-6c"/>
     <use x="781.466797" xlink:href="#DejaVuSans-65"/>
     <use x="842.990234" xlink:href="#DejaVuSans-69"/>
     <use x="870.773438" xlink:href="#DejaVuSans-63"/>
     <use x="925.753906" xlink:href="#DejaVuSans-68"/>
    </g>
   </g>
   <g id="legend_1">
    <g id="patch_7">
     <path d="M 315.145 74.3525 
L 393.90125 74.3525 
Q 395.90125 74.3525 395.90125 72.3525 
L 395.90125 29.318125 
Q 395.90125 27.318125 393.90125 27.318125 
L 315.145 27.318125 
Q 313.145 27.318125 313.145 29.318125 
L 313.145 72.3525 
Q 313.145 74.3525 315.145 74.3525 
z
" style="fill:#ffffff;opacity:0.8;stroke:#cccccc;stroke-linejoin:miter;"/>
    </g>
    <g id="line2d_34">
     <path d="M 317.145 35.416562 
L 337.145 35.416562 
" style="fill:none;stroke:#1f77b4;stroke-linecap:square;stroke-width:1.5;"/>
    </g>
    <g id="line2d_35"/>
    <g id="text_19">
     <!-- 0.015 ms -->
     <defs>
      <path d="M 10.796875 72.90625 
L 49.515625 72.90625 
L 49.515625 64.59375 
L 19.828125 64.59375 
L 19.828125 46.734375 
Q 21.96875 47.46875 24.109375 47.828125 
Q 26.265625 48.1875 28.421875 48.1875 
Q 40.625 48.1875 47.75 41.5 
Q 54.890625 34.8125 54.890625 23.390625 
Q 54.890625 11.625 47.5625 5.09375 
Q 40.234375 -1.421875 26.90625 -1.421875 
Q 22.3125 -1.421875 17.546875 -0.640625 
Q 12.796875 0.140625 7.71875 1.703125 
L 7.71875 11.625 
Q 12.109375 9.234375 16.796875 8.0625 
Q 21.484375 6.890625 26.703125 6.890625 
Q 35.15625 6.890625 40.078125 11.328125 
Q 45.015625 15.765625 45.015625 23.390625 
Q 45.015625 31 40.078125 35.4375 
Q 35.15625 39.890625 26.703125 39.890625 
Q 22.75 39.890625 18.8125 39.015625 
Q 14.890625 38.140625 10.796875 36.28125 
z
" id="DejaVuSans-35"/>
      <path d="M 44.28125 53.078125 
L 44.28125 44.578125 
Q 40.484375 46.53125 36.375 47.5 
Q 32.28125 48.484375 27.875 48.484375 
Q 21.1875 48.484375 17.84375 46.4375 
Q 14.5 44.390625 14.5 40.28125 
Q 14.5 37.15625 16.890625 35.375 
Q 19.28125 33.59375 26.515625 31.984375 
L 29.59375 31.296875 
Q 39.15625 29.25 43.1875 25.515625 
Q 47.21875 21.78125 47.21875 15.09375 
Q 47.21875 7.46875 41.1875 3.015625 
Q 35.15625 -1.421875 24.609375 -1.421875 
Q 20.21875 -1.421875 15.453125 -0.5625 
Q 10.6875 0.296875 5.421875 2 
L 5.421875 11.28125 
Q 10.40625 8.6875 15.234375 7.390625 
Q 20.0625 6.109375 24.8125 6.109375 
Q 31.15625 6.109375 34.5625 8.28125 
Q 37.984375 10.453125 37.984375 14.40625 
Q 37.984375 18.0625 35.515625 20.015625 
Q 33.0625 21.96875 24.703125 23.78125 
L 21.578125 24.515625 
Q 13.234375 26.265625 9.515625 29.90625 
Q 5.8125 33.546875 5.8125 39.890625 
Q 5.8125 47.609375 11.28125 51.796875 
Q 16.75 56 26.8125 56 
Q 31.78125 56 36.171875 55.265625 
Q 40.578125 54.546875 44.28125 53.078125 
" id="DejaVuSans-73"/>
     </defs>
     <g transform="translate(345.145 38.916562)scale(0.1 -0.1)">
      <use xlink:href="#DejaVuSans-30"/>
      <use x="63.623047" xlink:href="#DejaVuSans-2e"/>
      <use x="95.410156" xlink:href="#DejaVuSans-30"/>
      <use x="159.033203" xlink:href="#DejaVuSans-31"/>
      <use x="222.65625" xlink:href="#DejaVuSans-35"/>
      <use x="286.279297" xlink:href="#DejaVuSans-20"/>
      <use x="318.066406" xlink:href="#DejaVuSans-6d"/>
      <use x="415.478516" xlink:href="#DejaVuSans-73"/>
     </g>
    </g>
    <g id="line2d_36">
     <path d="M 317.145 50.094688 
L 337.145 50.094688 
" style="fill:none;stroke:#ff7f0e;stroke-linecap:square;stroke-width:1.5;"/>
    </g>
    <g id="line2d_37"/>
    <g id="text_20">
     <!-- 0.1 ms -->
     <g transform="translate(345.145 53.594688)scale(0.1 -0.1)">
      <use xlink:href="#DejaVuSans-30"/>
      <use x="63.623047" xlink:href="#DejaVuSans-2e"/>
      <use x="95.410156" xlink:href="#DejaVuSans-31"/>
      <use x="159.033203" xlink:href="#DejaVuSans-20"/>
      <use x="190.820312" xlink:href="#DejaVuSans-6d"/>
      <use x="288.232422" xlink:href="#DejaVuSans-73"/>
     </g>
    </g>
    <g id="line2d_38">
     <path d="M 317.145 64.772812 
L 337.145 64.772812 
" style="fill:none;stroke:#2ca02c;stroke-linecap:square;stroke-width:1.5;"/>
    </g>
    <g id="line2d_39"/>
    <g id="text_21">
     <!-- 0.6 ms -->
     <g transform="translate(345.145 68.272812)scale(0.1 -0.1)">
      <use xlink:href="#DejaVuSans-30"/>
      <use x="63.623047" xlink:href="#DejaVuSans-2e"/>
      <use x="95.410156" xlink:href="#DejaVuSans-36"/>
      <use x="159.033203" xlink:href="#DejaVuSans-20"/>
      <use x="190.820312" xlink:href="#DejaVuSans-6d"/>
      <use x="288.232422" xlink:href="#DejaVuSans-73"/>
     </g>
    </g>
   </g>
  </g>
 </g>
 <defs>
  <clipPath id="p13919fd271">
   <rect height="266.112" width="357.12" x="43.78125" y="22.318125"/>
  </clipPath>
 </defs>
</svg>
