<?xml version="1.0" encoding="utf-8" standalone="no"?>
<!DOCTYPE svg PUBLIC "-//W3C//DTD SVG 1.1//EN"
  "http://www.w3.org/Graphics/SVG/1.1/DTD/svg11.dtd">
<!-- Created with matplotlib (http://matplotlib.org/) -->
<svg height="325pt" version="1.1" viewBox="0 0 439 325" width="439pt" xmlns="http://www.w3.org/2000/svg" xmlns:xlink="http://www.w3.org/1999/xlink">
 <defs>
  <style type="text/css">
*{stroke-linecap:butt;stroke-linejoin:round;}
  </style>
 </defs>
 <g id="figure_1">
  <g id="patch_1">
   <path d="M 0 325.986375 
L 439.916875 325.986375 
L 439.916875 0 
L 0 0 
z
" style="fill:#ffffff;"/>
  </g>
  <g id="axes_1">
   <g id="patch_2">
    <path d="M 59.690625 288.430125 
L 416.810625 288.430125 
L 416.810625 22.318125 
L 59.690625 22.318125 
z
" style="fill:#ffffff;"/>
   </g>
   <g id="matplotlib.axis_1">
    <g id="xtick_1">
     <g id="line2d_1">
      <path clip-path="url(#p2004f9d0d7)" d="M 59.690625 288.430125 
L 59.690625 22.318125 
" style="fill:none;stroke:#b0b0b0;stroke-linecap:square;stroke-width:0.8;"/>
     </g>
     <g id="line2d_2">
      <defs>
       <path d="M 0 0 
L 0 3.5 
" id="md72b1ffcd2" style="stroke:#000000;stroke-width:0.8;"/>
      </defs>
      <g>
       <use style="stroke:#000000;stroke-width:0.8;" x="59.690625" xlink:href="#md72b1ffcd2" y="288.430125"/>
      </g>
     </g>
     <g id="text_1">
      <!-- −80000 -->
      <defs>
       <path d="M 10.59375 35.5 
L 73.1875 35.5 
L 73.1875 27.203125 
L 10.59375 27.203125 
z
" id="DejaVuSans-2212"/>
       <path d="M 31.78125 34.625 
Q 24.75 34.625 20.71875 30.859375 
Q 16.703125 27.09375 16.703125 20.515625 
Q 16.703125 13.921875 20.71875 10.15625 
Q 24.75 6.390625 31.78125 6.390625 
Q 38.8125 6.390625 42.859375 10.171875 
Q 46.921875 13.96875 46.921875 20.515625 
Q 46.921875 27.09375 42.890625 30.859375 
Q 38.875 34.625 31.78125 34.625 
M 21.921875 38.8125 
Q 15.578125 40.375 12.03125 44.71875 
Q 8.5 49.078125 8.5 55.328125 
Q 8.5 64.0625 14.71875 69.140625 
Q 20.953125 74.21875 31.78125 74.21875 
Q 42.671875 74.21875 48.875 69.140625 
Q 55.078125 64.0625 55.078125 55.328125 
Q 55.078125 49.078125 51.53125 44.71875 
Q 48 40.375 41.703125 38.8125 
Q 48.828125 37.15625 52.796875 32.3125 
Q 56.78125 27.484375 56.78125 20.515625 
Q 56.78125 9.90625 50.3125 4.234375 
Q 43.84375 -1.421875 31.78125 -1.421875 
Q 19.734375 -1.421875 13.25 4.234375 
Q 6.78125 9.90625 6.78125 20.515625 
Q 6.78125 27.484375 10.78125 32.3125 
Q 14.796875 37.15625 21.921875 38.8125 
M 18.3125 54.390625 
Q 18.3125 48.734375 21.84375 45.5625 
Q 25.390625 42.390625 31.78125 42.390625 
Q 38.140625 42.390625 41.71875 45.5625 
Q 45.3125 48.734375 45.3125 54.390625 
Q 45.3125 60.0625 41.71875 63.234375 
Q 38.140625 66.40625 31.78125 66.40625 
Q 25.390625 66.40625 21.84375 63.234375 
Q 18.3125 60.0625 18.3125 54.390625 
" id="DejaVuSans-38"/>
       <path d="M 31.78125 66.40625 
Q 24.171875 66.40625 20.328125 58.90625 
Q 16.5 51.421875 16.5 36.375 
Q 16.5 21.390625 20.328125 13.890625 
Q 24.171875 6.390625 31.78125 6.390625 
Q 39.453125 6.390625 43.28125 13.890625 
Q 47.125 21.390625 47.125 36.375 
Q 47.125 51.421875 43.28125 58.90625 
Q 39.453125 66.40625 31.78125 66.40625 
M 31.78125 74.21875 
Q 44.046875 74.21875 50.515625 64.515625 
Q 56.984375 54.828125 56.984375 36.375 
Q 56.984375 17.96875 50.515625 8.265625 
Q 44.046875 -1.421875 31.78125 -1.421875 
Q 19.53125 -1.421875 13.0625 8.265625 
Q 6.59375 17.96875 6.59375 36.375 
Q 6.59375 54.828125 13.0625 64.515625 
Q 19.53125 74.21875 31.78125 74.21875 
" id="DejaVuSans-30"/>
      </defs>
      <g transform="translate(39.594531 303.028562)scale(0.1 -0.1)">
       <use xlink:href="#DejaVuSans-2212"/>
       <use x="83.789062" xlink:href="#DejaVuSans-38"/>
       <use x="147.412109" xlink:href="#DejaVuSans-30"/>
       <use x="211.035156" xlink:href="#DejaVuSans-30"/>
       <use x="274.658203" xlink:href="#DejaVuSans-30"/>
       <use x="338.28125" xlink:href="#DejaVuSans-30"/>
      </g>
     </g>
    </g>
    <g id="xtick_2">
     <g id="line2d_3">
      <path clip-path="url(#p2004f9d0d7)" d="M 104.330625 288.430125 
L 104.330625 22.318125 
" style="fill:none;stroke:#b0b0b0;stroke-linecap:square;stroke-width:0.8;"/>
     </g>
     <g id="line2d_4">
      <g>
       <use style="stroke:#000000;stroke-width:0.8;" x="104.330625" xlink:href="#md72b1ffcd2" y="288.430125"/>
      </g>
     </g>
     <g id="text_2">
      <!-- −60000 -->
      <defs>
       <path d="M 33.015625 40.375 
Q 26.375 40.375 22.484375 35.828125 
Q 18.609375 31.296875 18.609375 23.390625 
Q 18.609375 15.53125 22.484375 10.953125 
Q 26.375 6.390625 33.015625 6.390625 
Q 39.65625 6.390625 43.53125 10.953125 
Q 47.40625 15.53125 47.40625 23.390625 
Q 47.40625 31.296875 43.53125 35.828125 
Q 39.65625 40.375 33.015625 40.375 
M 52.59375 71.296875 
L 52.59375 62.3125 
Q 48.875 64.0625 45.09375 64.984375 
Q 41.3125 65.921875 37.59375 65.921875 
Q 27.828125 65.921875 22.671875 59.328125 
Q 17.53125 52.734375 16.796875 39.40625 
Q 19.671875 43.65625 24.015625 45.921875 
Q 28.375 48.1875 33.59375 48.1875 
Q 44.578125 48.1875 50.953125 41.515625 
Q 57.328125 34.859375 57.328125 23.390625 
Q 57.328125 12.15625 50.6875 5.359375 
Q 44.046875 -1.421875 33.015625 -1.421875 
Q 20.359375 -1.421875 13.671875 8.265625 
Q 6.984375 17.96875 6.984375 36.375 
Q 6.984375 53.65625 15.1875 63.9375 
Q 23.390625 74.21875 37.203125 74.21875 
Q 40.921875 74.21875 44.703125 73.484375 
Q 48.484375 72.75 52.59375 71.296875 
" id="DejaVuSans-36"/>
      </defs>
      <g transform="translate(84.234531 303.028562)scale(0.1 -0.1)">
       <use xlink:href="#DejaVuSans-2212"/>
       <use x="83.789062" xlink:href="#DejaVuSans-36"/>
       <use x="147.412109" xlink:href="#DejaVuSans-30"/>
       <use x="211.035156" xlink:href="#DejaVuSans-30"/>
       <use x="274.658203" xlink:href="#DejaVuSans-30"/>
       <use x="338.28125" xlink:href="#DejaVuSans-30"/>
      </g>
     </g>
    </g>
    <g id="xtick_3">
     <g id="line2d_5">
      <path clip-path="url(#p2004f9d0d7)" d="M 148.970625 288.430125 
L 148.970625 22.318125 
" style="fill:none;stroke:#b0b0b0;stroke-linecap:square;stroke-width:0.8;"/>
     </g>
     <g id="line2d_6">
      <g>
       <use style="stroke:#000000;stroke-width:0.8;" x="148.970625" xlink:href="#md72b1ffcd2" y="288.430125"/>
      </g>
     </g>
     <g id="text_3">
      <!-- −40000 -->
      <defs>
       <path d="M 37.796875 64.3125 
L 12.890625 25.390625 
L 37.796875 25.390625 
z
M 35.203125 72.90625 
L 47.609375 72.90625 
L 47.609375 25.390625 
L 58.015625 25.390625 
L 58.015625 17.1875 
L 47.609375 17.1875 
L 47.609375 0 
L 37.796875 0 
L 37.796875 17.1875 
L 4.890625 17.1875 
L 4.890625 26.703125 
z
" id="DejaVuSans-34"/>
      </defs>
      <g transform="translate(128.874531 303.028562)scale(0.1 -0.1)">
       <use xlink:href="#DejaVuSans-2212"/>
       <use x="83.789062" xlink:href="#DejaVuSans-34"/>
       <use x="147.412109" xlink:href="#DejaVuSans-30"/>
       <use x="211.035156" xlink:href="#DejaVuSans-30"/>
       <use x="274.658203" xlink:href="#DejaVuSans-30"/>
       <use x="338.28125" xlink:href="#DejaVuSans-30"/>
      </g>
     </g>
    </g>
    <g id="xtick_4">
     <g id="line2d_7">
      <path clip-path="url(#p2004f9d0d7)" d="M 193.610625 288.430125 
L 193.610625 22.318125 
" style="fill:none;stroke:#b0b0b0;stroke-linecap:square;stroke-width:0.8;"/>
     </g>
     <g id="line2d_8">
      <g>
       <use style="stroke:#000000;stroke-width:0.8;" x="193.610625" xlink:href="#md72b1ffcd2" y="288.430125"/>
      </g>
     </g>
     <g id="text_4">
      <!-- −20000 -->
      <defs>
       <path d="M 19.1875 8.296875 
L 53.609375 8.296875 
L 53.609375 0 
L 7.328125 0 
L 7.328125 8.296875 
Q 12.9375 14.109375 22.625 23.890625 
Q 32.328125 33.6875 34.8125 36.53125 
Q 39.546875 41.84375 41.421875 45.53125 
Q 43.3125 49.21875 43.3125 52.78125 
Q 43.3125 58.59375 39.234375 62.25 
Q 35.15625 65.921875 28.609375 65.921875 
Q 23.96875 65.921875 18.8125 64.3125 
Q 13.671875 62.703125 7.8125 59.421875 
L 7.8125 69.390625 
Q 13.765625 71.78125 18.9375 73 
Q 24.125 74.21875 28.421875 74.21875 
Q 39.75 74.21875 46.484375 68.546875 
Q 53.21875 62.890625 53.21875 53.421875 
Q 53.21875 48.921875 51.53125 44.890625 
Q 49.859375 40.875 45.40625 35.40625 
Q 44.1875 33.984375 37.640625 27.21875 
Q 31.109375 20.453125 19.1875 8.296875 
" id="DejaVuSans-32"/>
      </defs>
      <g transform="translate(173.514531 303.028562)scale(0.1 -0.1)">
       <use xlink:href="#DejaVuSans-2212"/>
       <use x="83.789062" xlink:href="#DejaVuSans-32"/>
       <use x="147.412109" xlink:href="#DejaVuSans-30"/>
       <use x="211.035156" xlink:href="#DejaVuSans-30"/>
       <use x="274.658203" xlink:href="#DejaVuSans-30"/>
       <use x="338.28125" xlink:href="#DejaVuSans-30"/>
      </g>
     </g>
    </g>
    <g id="xtick_5">
     <g id="line2d_9">
      <path clip-path="url(#p2004f9d0d7)" d="M 238.250625 288.430125 
L 238.250625 22.318125 
" style="fill:none;stroke:#b0b0b0;stroke-linecap:square;stroke-width:0.8;"/>
     </g>
     <g id="line2d_10">
      <g>
       <use style="stroke:#000000;stroke-width:0.8;" x="238.250625" xlink:href="#md72b1ffcd2" y="288.430125"/>
      </g>
     </g>
     <g id="text_5">
      <!-- 0 -->
      <g transform="translate(235.069375 303.028562)scale(0.1 -0.1)">
       <use xlink:href="#DejaVuSans-30"/>
      </g>
     </g>
    </g>
    <g id="xtick_6">
     <g id="line2d_11">
      <path clip-path="url(#p2004f9d0d7)" d="M 282.890625 288.430125 
L 282.890625 22.318125 
" style="fill:none;stroke:#b0b0b0;stroke-linecap:square;stroke-width:0.8;"/>
     </g>
     <g id="line2d_12">
      <g>
       <use style="stroke:#000000;stroke-width:0.8;" x="282.890625" xlink:href="#md72b1ffcd2" y="288.430125"/>
      </g>
     </g>
     <g id="text_6">
      <!-- 20000 -->
      <g transform="translate(266.984375 303.028562)scale(0.1 -0.1)">
       <use xlink:href="#DejaVuSans-32"/>
       <use x="63.623047" xlink:href="#DejaVuSans-30"/>
       <use x="127.246094" xlink:href="#DejaVuSans-30"/>
       <use x="190.869141" xlink:href="#DejaVuSans-30"/>
       <use x="254.492188" xlink:href="#DejaVuSans-30"/>
      </g>
     </g>
    </g>
    <g id="xtick_7">
     <g id="line2d_13">
      <path clip-path="url(#p2004f9d0d7)" d="M 327.530625 288.430125 
L 327.530625 22.318125 
" style="fill:none;stroke:#b0b0b0;stroke-linecap:square;stroke-width:0.8;"/>
     </g>
     <g id="line2d_14">
      <g>
       <use style="stroke:#000000;stroke-width:0.8;" x="327.530625" xlink:href="#md72b1ffcd2" y="288.430125"/>
      </g>
     </g>
     <g id="text_7">
      <!-- 40000 -->
      <g transform="translate(311.624375 303.028562)scale(0.1 -0.1)">
       <use xlink:href="#DejaVuSans-34"/>
       <use x="63.623047" xlink:href="#DejaVuSans-30"/>
       <use x="127.246094" xlink:href="#DejaVuSans-30"/>
       <use x="190.869141" xlink:href="#DejaVuSans-30"/>
       <use x="254.492188" xlink:href="#DejaVuSans-30"/>
      </g>
     </g>
    </g>
    <g id="xtick_8">
     <g id="line2d_15">
      <path clip-path="url(#p2004f9d0d7)" d="M 372.170625 288.430125 
L 372.170625 22.318125 
" style="fill:none;stroke:#b0b0b0;stroke-linecap:square;stroke-width:0.8;"/>
     </g>
     <g id="line2d_16">
      <g>
       <use style="stroke:#000000;stroke-width:0.8;" x="372.170625" xlink:href="#md72b1ffcd2" y="288.430125"/>
      </g>
     </g>
     <g id="text_8">
      <!-- 60000 -->
      <g transform="translate(356.264375 303.028562)scale(0.1 -0.1)">
       <use xlink:href="#DejaVuSans-36"/>
       <use x="63.623047" xlink:href="#DejaVuSans-30"/>
       <use x="127.246094" xlink:href="#DejaVuSans-30"/>
       <use x="190.869141" xlink:href="#DejaVuSans-30"/>
       <use x="254.492188" xlink:href="#DejaVuSans-30"/>
      </g>
     </g>
    </g>
    <g id="xtick_9">
     <g id="line2d_17">
      <path clip-path="url(#p2004f9d0d7)" d="M 416.810625 288.430125 
L 416.810625 22.318125 
" style="fill:none;stroke:#b0b0b0;stroke-linecap:square;stroke-width:0.8;"/>
     </g>
     <g id="line2d_18">
      <g>
       <use style="stroke:#000000;stroke-width:0.8;" x="416.810625" xlink:href="#md72b1ffcd2" y="288.430125"/>
      </g>
     </g>
     <g id="text_9">
      <!-- 80000 -->
      <g transform="translate(400.904375 303.028562)scale(0.1 -0.1)">
       <use xlink:href="#DejaVuSans-38"/>
       <use x="63.623047" xlink:href="#DejaVuSans-30"/>
       <use x="127.246094" xlink:href="#DejaVuSans-30"/>
       <use x="190.869141" xlink:href="#DejaVuSans-30"/>
       <use x="254.492188" xlink:href="#DejaVuSans-30"/>
      </g>
     </g>
    </g>
    <g id="text_10">
     <!-- Frequenz [kHz] -->
     <defs>
      <path d="M 9.8125 72.90625 
L 51.703125 72.90625 
L 51.703125 64.59375 
L 19.671875 64.59375 
L 19.671875 43.109375 
L 48.578125 43.109375 
L 48.578125 34.8125 
L 19.671875 34.8125 
L 19.671875 0 
L 9.8125 0 
z
" id="DejaVuSans-46"/>
      <path d="M 41.109375 46.296875 
Q 39.59375 47.171875 37.8125 47.578125 
Q 36.03125 48 33.890625 48 
Q 26.265625 48 22.1875 43.046875 
Q 18.109375 38.09375 18.109375 28.8125 
L 18.109375 0 
L 9.078125 0 
L 9.078125 54.6875 
L 18.109375 54.6875 
L 18.109375 46.1875 
Q 20.953125 51.171875 25.484375 53.578125 
Q 30.03125 56 36.53125 56 
Q 37.453125 56 38.578125 55.875 
Q 39.703125 55.765625 41.0625 55.515625 
z
" id="DejaVuSans-72"/>
      <path d="M 56.203125 29.59375 
L 56.203125 25.203125 
L 14.890625 25.203125 
Q 15.484375 15.921875 20.484375 11.0625 
Q 25.484375 6.203125 34.421875 6.203125 
Q 39.59375 6.203125 44.453125 7.46875 
Q 49.3125 8.734375 54.109375 11.28125 
L 54.109375 2.78125 
Q 49.265625 0.734375 44.1875 -0.34375 
Q 39.109375 -1.421875 33.890625 -1.421875 
Q 20.796875 -1.421875 13.15625 6.1875 
Q 5.515625 13.8125 5.515625 26.8125 
Q 5.515625 40.234375 12.765625 48.109375 
Q 20.015625 56 32.328125 56 
Q 43.359375 56 49.78125 48.890625 
Q 56.203125 41.796875 56.203125 29.59375 
M 47.21875 32.234375 
Q 47.125 39.59375 43.09375 43.984375 
Q 39.0625 48.390625 32.421875 48.390625 
Q 24.90625 48.390625 20.390625 44.140625 
Q 15.875 39.890625 15.1875 32.171875 
z
" id="DejaVuSans-65"/>
      <path d="M 14.796875 27.296875 
Q 14.796875 17.390625 18.875 11.75 
Q 22.953125 6.109375 30.078125 6.109375 
Q 37.203125 6.109375 41.296875 11.75 
Q 45.40625 17.390625 45.40625 27.296875 
Q 45.40625 37.203125 41.296875 42.84375 
Q 37.203125 48.484375 30.078125 48.484375 
Q 22.953125 48.484375 18.875 42.84375 
Q 14.796875 37.203125 14.796875 27.296875 
M 45.40625 8.203125 
Q 42.578125 3.328125 38.25 0.953125 
Q 33.9375 -1.421875 27.875 -1.421875 
Q 17.96875 -1.421875 11.734375 6.484375 
Q 5.515625 14.40625 5.515625 27.296875 
Q 5.515625 40.1875 11.734375 48.09375 
Q 17.96875 56 27.875 56 
Q 33.9375 56 38.25 53.625 
Q 42.578125 51.265625 45.40625 46.390625 
L 45.40625 54.6875 
L 54.390625 54.6875 
L 54.390625 -20.796875 
L 45.40625 -20.796875 
z
" id="DejaVuSans-71"/>
      <path d="M 8.5 21.578125 
L 8.5 54.6875 
L 17.484375 54.6875 
L 17.484375 21.921875 
Q 17.484375 14.15625 20.5 10.265625 
Q 23.53125 6.390625 29.59375 6.390625 
Q 36.859375 6.390625 41.078125 11.03125 
Q 45.3125 15.671875 45.3125 23.6875 
L 45.3125 54.6875 
L 54.296875 54.6875 
L 54.296875 0 
L 45.3125 0 
L 45.3125 8.40625 
Q 42.046875 3.421875 37.71875 1 
Q 33.40625 -1.421875 27.6875 -1.421875 
Q 18.265625 -1.421875 13.375 4.4375 
Q 8.5 10.296875 8.5 21.578125 
M 31.109375 56 
z
" id="DejaVuSans-75"/>
      <path d="M 54.890625 33.015625 
L 54.890625 0 
L 45.90625 0 
L 45.90625 32.71875 
Q 45.90625 40.484375 42.875 44.328125 
Q 39.84375 48.1875 33.796875 48.1875 
Q 26.515625 48.1875 22.3125 43.546875 
Q 18.109375 38.921875 18.109375 30.90625 
L 18.109375 0 
L 9.078125 0 
L 9.078125 54.6875 
L 18.109375 54.6875 
L 18.109375 46.1875 
Q 21.34375 51.125 25.703125 53.5625 
Q 30.078125 56 35.796875 56 
Q 45.21875 56 50.046875 50.171875 
Q 54.890625 44.34375 54.890625 33.015625 
" id="DejaVuSans-6e"/>
      <path d="M 5.515625 54.6875 
L 48.1875 54.6875 
L 48.1875 46.484375 
L 14.40625 7.171875 
L 48.1875 7.171875 
L 48.1875 0 
L 4.296875 0 
L 4.296875 8.203125 
L 38.09375 47.515625 
L 5.515625 47.515625 
z
" id="DejaVuSans-7a"/>
      <path id="DejaVuSans-20"/>
      <path d="M 8.59375 75.984375 
L 29.296875 75.984375 
L 29.296875 69 
L 17.578125 69 
L 17.578125 -6.203125 
L 29.296875 -6.203125 
L 29.296875 -13.1875 
L 8.59375 -13.1875 
z
" id="DejaVuSans-5b"/>
      <path d="M 9.078125 75.984375 
L 18.109375 75.984375 
L 18.109375 31.109375 
L 44.921875 54.6875 
L 56.390625 54.6875 
L 27.390625 29.109375 
L 57.625 0 
L 45.90625 0 
L 18.109375 26.703125 
L 18.109375 0 
L 9.078125 0 
z
" id="DejaVuSans-6b"/>
      <path d="M 9.8125 72.90625 
L 19.671875 72.90625 
L 19.671875 43.015625 
L 55.515625 43.015625 
L 55.515625 72.90625 
L 65.375 72.90625 
L 65.375 0 
L 55.515625 0 
L 55.515625 34.71875 
L 19.671875 34.71875 
L 19.671875 0 
L 9.8125 0 
z
" id="DejaVuSans-48"/>
      <path d="M 30.421875 75.984375 
L 30.421875 -13.1875 
L 9.71875 -13.1875 
L 9.71875 -6.203125 
L 21.390625 -6.203125 
L 21.390625 69 
L 9.71875 69 
L 9.71875 75.984375 
z
" id="DejaVuSans-5d"/>
     </defs>
     <g transform="translate(200.267031 316.706687)scale(0.1 -0.1)">
      <use xlink:href="#DejaVuSans-46"/>
      <use x="57.410156" xlink:href="#DejaVuSans-72"/>
      <use x="98.492188" xlink:href="#DejaVuSans-65"/>
      <use x="160.015625" xlink:href="#DejaVuSans-71"/>
      <use x="223.492188" xlink:href="#DejaVuSans-75"/>
      <use x="286.871094" xlink:href="#DejaVuSans-65"/>
      <use x="348.394531" xlink:href="#DejaVuSans-6e"/>
      <use x="411.773438" xlink:href="#DejaVuSans-7a"/>
      <use x="464.263672" xlink:href="#DejaVuSans-20"/>
      <use x="496.050781" xlink:href="#DejaVuSans-5b"/>
      <use x="535.064453" xlink:href="#DejaVuSans-6b"/>
      <use x="592.974609" xlink:href="#DejaVuSans-48"/>
      <use x="668.169922" xlink:href="#DejaVuSans-7a"/>
      <use x="720.660156" xlink:href="#DejaVuSans-5d"/>
     </g>
    </g>
   </g>
   <g id="matplotlib.axis_2">
    <g id="ytick_1">
     <g id="line2d_19">
      <path clip-path="url(#p2004f9d0d7)" d="M 59.690625 271.368623 
L 416.810625 271.368623 
" style="fill:none;stroke:#b0b0b0;stroke-linecap:square;stroke-width:0.8;"/>
     </g>
     <g id="line2d_20">
      <defs>
       <path d="M 0 0 
L -3.5 0 
" id="m736f3645e9" style="stroke:#000000;stroke-width:0.8;"/>
      </defs>
      <g>
       <use style="stroke:#000000;stroke-width:0.8;" x="59.690625" xlink:href="#m736f3645e9" y="271.368623"/>
      </g>
     </g>
     <g id="text_11">
      <!-- 0 -->
      <g transform="translate(46.328125 275.167841)scale(0.1 -0.1)">
       <use xlink:href="#DejaVuSans-30"/>
      </g>
     </g>
    </g>
    <g id="ytick_2">
     <g id="line2d_21">
      <path clip-path="url(#p2004f9d0d7)" d="M 59.690625 221.961253 
L 416.810625 221.961253 
" style="fill:none;stroke:#b0b0b0;stroke-linecap:square;stroke-width:0.8;"/>
     </g>
     <g id="line2d_22">
      <g>
       <use style="stroke:#000000;stroke-width:0.8;" x="59.690625" xlink:href="#m736f3645e9" y="221.961253"/>
      </g>
     </g>
     <g id="text_12">
      <!-- 10000 -->
      <defs>
       <path d="M 12.40625 8.296875 
L 28.515625 8.296875 
L 28.515625 63.921875 
L 10.984375 60.40625 
L 10.984375 69.390625 
L 28.421875 72.90625 
L 38.28125 72.90625 
L 38.28125 8.296875 
L 54.390625 8.296875 
L 54.390625 0 
L 12.40625 0 
z
" id="DejaVuSans-31"/>
      </defs>
      <g transform="translate(20.878125 225.760472)scale(0.1 -0.1)">
       <use xlink:href="#DejaVuSans-31"/>
       <use x="63.623047" xlink:href="#DejaVuSans-30"/>
       <use x="127.246094" xlink:href="#DejaVuSans-30"/>
       <use x="190.869141" xlink:href="#DejaVuSans-30"/>
       <use x="254.492188" xlink:href="#DejaVuSans-30"/>
      </g>
     </g>
    </g>
    <g id="ytick_3">
     <g id="line2d_23">
      <path clip-path="url(#p2004f9d0d7)" d="M 59.690625 172.553884 
L 416.810625 172.553884 
" style="fill:none;stroke:#b0b0b0;stroke-linecap:square;stroke-width:0.8;"/>
     </g>
     <g id="line2d_24">
      <g>
       <use style="stroke:#000000;stroke-width:0.8;" x="59.690625" xlink:href="#m736f3645e9" y="172.553884"/>
      </g>
     </g>
     <g id="text_13">
      <!-- 20000 -->
      <g transform="translate(20.878125 176.353103)scale(0.1 -0.1)">
       <use xlink:href="#DejaVuSans-32"/>
       <use x="63.623047" xlink:href="#DejaVuSans-30"/>
       <use x="127.246094" xlink:href="#DejaVuSans-30"/>
       <use x="190.869141" xlink:href="#DejaVuSans-30"/>
       <use x="254.492188" xlink:href="#DejaVuSans-30"/>
      </g>
     </g>
    </g>
    <g id="ytick_4">
     <g id="line2d_25">
      <path clip-path="url(#p2004f9d0d7)" d="M 59.690625 123.146515 
L 416.810625 123.146515 
" style="fill:none;stroke:#b0b0b0;stroke-linecap:square;stroke-width:0.8;"/>
     </g>
     <g id="line2d_26">
      <g>
       <use style="stroke:#000000;stroke-width:0.8;" x="59.690625" xlink:href="#m736f3645e9" y="123.146515"/>
      </g>
     </g>
     <g id="text_14">
      <!-- 30000 -->
      <defs>
       <path d="M 40.578125 39.3125 
Q 47.65625 37.796875 51.625 33 
Q 55.609375 28.21875 55.609375 21.1875 
Q 55.609375 10.40625 48.1875 4.484375 
Q 40.765625 -1.421875 27.09375 -1.421875 
Q 22.515625 -1.421875 17.65625 -0.515625 
Q 12.796875 0.390625 7.625 2.203125 
L 7.625 11.71875 
Q 11.71875 9.328125 16.59375 8.109375 
Q 21.484375 6.890625 26.8125 6.890625 
Q 36.078125 6.890625 40.9375 10.546875 
Q 45.796875 14.203125 45.796875 21.1875 
Q 45.796875 27.640625 41.28125 31.265625 
Q 36.765625 34.90625 28.71875 34.90625 
L 20.21875 34.90625 
L 20.21875 43.015625 
L 29.109375 43.015625 
Q 36.375 43.015625 40.234375 45.921875 
Q 44.09375 48.828125 44.09375 54.296875 
Q 44.09375 59.90625 40.109375 62.90625 
Q 36.140625 65.921875 28.71875 65.921875 
Q 24.65625 65.921875 20.015625 65.03125 
Q 15.375 64.15625 9.8125 62.3125 
L 9.8125 71.09375 
Q 15.4375 72.65625 20.34375 73.4375 
Q 25.25 74.21875 29.59375 74.21875 
Q 40.828125 74.21875 47.359375 69.109375 
Q 53.90625 64.015625 53.90625 55.328125 
Q 53.90625 49.265625 50.4375 45.09375 
Q 46.96875 40.921875 40.578125 39.3125 
" id="DejaVuSans-33"/>
      </defs>
      <g transform="translate(20.878125 126.945733)scale(0.1 -0.1)">
       <use xlink:href="#DejaVuSans-33"/>
       <use x="63.623047" xlink:href="#DejaVuSans-30"/>
       <use x="127.246094" xlink:href="#DejaVuSans-30"/>
       <use x="190.869141" xlink:href="#DejaVuSans-30"/>
       <use x="254.492188" xlink:href="#DejaVuSans-30"/>
      </g>
     </g>
    </g>
    <g id="ytick_5">
     <g id="line2d_27">
      <path clip-path="url(#p2004f9d0d7)" d="M 59.690625 73.739145 
L 416.810625 73.739145 
" style="fill:none;stroke:#b0b0b0;stroke-linecap:square;stroke-width:0.8;"/>
     </g>
     <g id="line2d_28">
      <g>
       <use style="stroke:#000000;stroke-width:0.8;" x="59.690625" xlink:href="#m736f3645e9" y="73.739145"/>
      </g>
     </g>
     <g id="text_15">
      <!-- 40000 -->
      <g transform="translate(20.878125 77.538364)scale(0.1 -0.1)">
       <use xlink:href="#DejaVuSans-34"/>
       <use x="63.623047" xlink:href="#DejaVuSans-30"/>
       <use x="127.246094" xlink:href="#DejaVuSans-30"/>
       <use x="190.869141" xlink:href="#DejaVuSans-30"/>
       <use x="254.492188" xlink:href="#DejaVuSans-30"/>
      </g>
     </g>
    </g>
    <g id="ytick_6">
     <g id="line2d_29">
      <path clip-path="url(#p2004f9d0d7)" d="M 59.690625 24.331776 
L 416.810625 24.331776 
" style="fill:none;stroke:#b0b0b0;stroke-linecap:square;stroke-width:0.8;"/>
     </g>
     <g id="line2d_30">
      <g>
       <use style="stroke:#000000;stroke-width:0.8;" x="59.690625" xlink:href="#m736f3645e9" y="24.331776"/>
      </g>
     </g>
     <g id="text_16">
      <!-- 50000 -->
      <defs>
       <path d="M 10.796875 72.90625 
L 49.515625 72.90625 
L 49.515625 64.59375 
L 19.828125 64.59375 
L 19.828125 46.734375 
Q 21.96875 47.46875 24.109375 47.828125 
Q 26.265625 48.1875 28.421875 48.1875 
Q 40.625 48.1875 47.75 41.5 
Q 54.890625 34.8125 54.890625 23.390625 
Q 54.890625 11.625 47.5625 5.09375 
Q 40.234375 -1.421875 26.90625 -1.421875 
Q 22.3125 -1.421875 17.546875 -0.640625 
Q 12.796875 0.140625 7.71875 1.703125 
L 7.71875 11.625 
Q 12.109375 9.234375 16.796875 8.0625 
Q 21.484375 6.890625 26.703125 6.890625 
Q 35.15625 6.890625 40.078125 11.328125 
Q 45.015625 15.765625 45.015625 23.390625 
Q 45.015625 31 40.078125 35.4375 
Q 35.15625 39.890625 26.703125 39.890625 
Q 22.75 39.890625 18.8125 39.015625 
Q 14.890625 38.140625 10.796875 36.28125 
z
" id="DejaVuSans-35"/>
      </defs>
      <g transform="translate(20.878125 28.130995)scale(0.1 -0.1)">
       <use xlink:href="#DejaVuSans-35"/>
       <use x="63.623047" xlink:href="#DejaVuSans-30"/>
       <use x="127.246094" xlink:href="#DejaVuSans-30"/>
       <use x="190.869141" xlink:href="#DejaVuSans-30"/>
       <use x="254.492188" xlink:href="#DejaVuSans-30"/>
      </g>
     </g>
    </g>
    <g id="text_17">
     <!-- u.a. -->
     <defs>
      <path d="M 10.6875 12.40625 
L 21 12.40625 
L 21 0 
L 10.6875 0 
z
" id="DejaVuSans-2e"/>
      <path d="M 34.28125 27.484375 
Q 23.390625 27.484375 19.1875 25 
Q 14.984375 22.515625 14.984375 16.5 
Q 14.984375 11.71875 18.140625 8.90625 
Q 21.296875 6.109375 26.703125 6.109375 
Q 34.1875 6.109375 38.703125 11.40625 
Q 43.21875 16.703125 43.21875 25.484375 
L 43.21875 27.484375 
z
M 52.203125 31.203125 
L 52.203125 0 
L 43.21875 0 
L 43.21875 8.296875 
Q 40.140625 3.328125 35.546875 0.953125 
Q 30.953125 -1.421875 24.3125 -1.421875 
Q 15.921875 -1.421875 10.953125 3.296875 
Q 6 8.015625 6 15.921875 
Q 6 25.140625 12.171875 29.828125 
Q 18.359375 34.515625 30.609375 34.515625 
L 43.21875 34.515625 
L 43.21875 35.40625 
Q 43.21875 41.609375 39.140625 45 
Q 35.0625 48.390625 27.6875 48.390625 
Q 23 48.390625 18.546875 47.265625 
Q 14.109375 46.140625 10.015625 43.890625 
L 10.015625 52.203125 
Q 14.9375 54.109375 19.578125 55.046875 
Q 24.21875 56 28.609375 56 
Q 40.484375 56 46.34375 49.84375 
Q 52.203125 43.703125 52.203125 31.203125 
" id="DejaVuSans-61"/>
     </defs>
     <g transform="translate(14.798438 164.785062)rotate(-90)scale(0.1 -0.1)">
      <use xlink:href="#DejaVuSans-75"/>
      <use x="63.378906" xlink:href="#DejaVuSans-2e"/>
      <use x="95.166016" xlink:href="#DejaVuSans-61"/>
      <use x="156.445312" xlink:href="#DejaVuSans-2e"/>
     </g>
    </g>
   </g>
   <g id="line2d_31">
    <path clip-path="url(#p2004f9d0d7)" d="M 59.51625 260.156401 
L 60.061172 260.118675 
L 60.606094 260.134731 
L 62.240859 260.169047 
L 63.330703 260.010974 
L 66.600234 259.073944 
L 68.235 258.769633 
L 69.869766 258.755546 
L 70.959609 258.796731 
L 72.049453 258.48224 
L 73.139297 258.149929 
L 74.229141 258.265876 
L 76.408828 258.880451 
L 77.498672 258.874049 
L 78.043594 258.635542 
L 78.588516 258.176869 
L 81.313125 255.085049 
L 82.947891 253.484552 
L 84.037734 252.720543 
L 85.127578 252.312157 
L 86.762344 252.048175 
L 87.852188 251.376377 
L 89.486953 249.956947 
L 90.576797 248.979366 
L 91.666641 248.358022 
L 94.39125 247.461275 
L 95.481094 246.498573 
L 97.115859 244.752099 
L 97.660781 244.43171 
L 99.295547 244.047566 
L 100.385391 243.369403 
L 101.475234 242.251078 
L 103.11 240.116617 
L 103.654922 239.822285 
L 104.199844 239.968623 
L 105.289688 240.683226 
L 105.834609 240.630592 
L 106.379531 240.205219 
L 107.469375 238.991017 
L 108.559219 238.195762 
L 109.649063 237.449543 
L 111.283828 235.799157 
L 112.918594 234.074786 
L 114.008438 233.412 
L 114.553359 233.142905 
L 115.098281 232.734859 
L 116.188125 231.410476 
L 117.277969 230.218935 
L 120.5475 227.798512 
L 123.817031 225.088966 
L 124.906875 224.128635 
L 125.996719 223.244021 
L 127.086563 221.944896 
L 128.721328 219.890377 
L 129.811172 218.730108 
L 132.535781 215.359594 
L 133.625625 214.611427 
L 134.715469 213.966503 
L 135.805313 212.873855 
L 137.985 209.886249 
L 140.164688 206.861782 
L 141.799453 205.231389 
L 142.889297 204.068616 
L 145.068984 201.496135 
L 146.158828 200.159729 
L 147.793594 198.069101 
L 148.883438 196.796908 
L 149.973281 195.172431 
L 151.608047 192.307721 
L 152.697891 190.974642 
L 154.877578 189.027514 
L 155.4225 188.144922 
L 157.602188 183.602718 
L 158.692031 182.040016 
L 160.326797 179.860454 
L 163.051406 175.444764 
L 167.955703 168.595016 
L 169.045547 166.473354 
L 170.680313 163.027248 
L 171.770156 161.268707 
L 173.949844 158.715978 
L 175.039688 156.537961 
L 176.129531 154.130901 
L 178.854141 149.167789 
L 179.943984 146.859731 
L 182.668594 142.001027 
L 184.303359 138.638777 
L 185.393203 136.949231 
L 186.483047 135.136048 
L 193.022109 120.410079 
L 197.381484 110.230909 
L 199.01625 107.456183 
L 200.106094 104.71141 
L 201.740859 100.213128 
L 202.830703 97.933429 
L 204.465469 94.565191 
L 209.914688 82.463459 
L 211.549453 77.804076 
L 213.184219 72.783783 
L 214.274063 69.59352 
L 218.633438 60.466019 
L 219.723281 57.785579 
L 221.902969 52.150817 
L 225.717422 43.73135 
L 227.352188 39.789063 
L 228.442031 37.772492 
L 229.531875 36.251223 
L 230.621719 35.115498 
L 231.711563 34.528975 
L 232.256484 34.414546 
L 233.346328 34.505367 
L 236.070938 35.102609 
L 236.615859 35.592953 
L 237.160781 36.812538 
L 237.705703 39.23677 
L 238.795547 47.432838 
L 239.885391 55.502901 
L 240.975234 60.669007 
L 243.154922 68.285292 
L 244.789688 74.127149 
L 247.514297 85.294914 
L 249.149063 91.885726 
L 253.508438 106.802759 
L 254.598281 110.831011 
L 255.688125 114.109021 
L 257.322891 118.75005 
L 261.137344 130.767296 
L 263.317031 136.882488 
L 266.041641 145.98284 
L 267.131484 148.470334 
L 269.311172 152.475992 
L 270.401016 155.426884 
L 272.035781 160.432447 
L 274.760391 167.321752 
L 275.850234 169.328001 
L 276.940078 171.15934 
L 278.029922 173.593965 
L 279.664688 177.914548 
L 280.754531 180.09652 
L 282.389297 182.885903 
L 284.024063 186.294009 
L 285.113906 188.678821 
L 286.20375 190.528446 
L 288.928359 194.389492 
L 290.018203 196.393992 
L 292.197891 200.904002 
L 294.377578 204.026367 
L 296.557266 208.010377 
L 298.736953 211.038308 
L 301.461563 214.301356 
L 304.186172 218.640927 
L 305.276016 219.835813 
L 308.000625 222.509619 
L 309.635391 224.479893 
L 310.725234 225.740897 
L 312.36 227.475983 
L 314.539688 230.336498 
L 315.629531 231.236129 
L 317.264297 232.542036 
L 318.354141 233.747929 
L 322.168594 238.374967 
L 324.348281 240.339679 
L 324.893203 240.527891 
L 326.527969 240.629307 
L 327.072891 240.839332 
L 327.617813 241.22386 
L 328.707656 242.419452 
L 329.7975 243.605957 
L 330.887344 244.304425 
L 331.977188 245.013314 
L 333.611953 246.588649 
L 334.701797 247.235849 
L 335.791641 247.799392 
L 336.336563 248.263865 
L 338.51625 250.818483 
L 339.061172 251.136441 
L 340.151016 251.319455 
L 341.785781 251.372324 
L 342.330703 251.477328 
L 342.875625 251.696903 
L 343.965469 252.547531 
L 344.510391 252.962882 
L 345.600234 253.349114 
L 346.145156 253.557742 
L 347.779922 254.604916 
L 349.414688 254.624936 
L 353.229141 256.297068 
L 354.318984 256.44098 
L 355.408828 256.467159 
L 355.95375 256.620261 
L 357.043594 257.308151 
L 358.133438 258.044548 
L 359.768203 258.884487 
L 361.402969 260.258371 
L 361.947891 260.495942 
L 363.037734 260.546253 
L 364.6725 260.395651 
L 365.217422 260.500027 
L 367.397109 261.351195 
L 369.031875 261.474209 
L 371.211563 261.503555 
L 372.846328 262.12415 
L 373.936172 262.660869 
L 376.115859 264.353124 
L 377.205703 264.453061 
L 378.840469 264.262749 
L 379.930313 264.114074 
L 381.020156 264.320694 
L 384.289688 265.146592 
L 390.283828 265.81231 
L 391.918594 266.246533 
L 393.553359 266.229121 
L 394.643203 266.185263 
L 396.277969 265.920374 
L 396.822891 266.051759 
L 397.367813 266.373829 
L 398.457656 267.453125 
L 399.5475 268.539268 
L 400.092422 268.78816 
L 401.182266 268.800365 
L 402.817031 268.869588 
L 403.906875 269.07345 
L 404.996719 269.357443 
L 407.176406 269.228322 
L 409.901016 269.973339 
L 410.990859 270.692028 
L 411.535781 270.8435 
L 412.080703 270.690637 
L 414.260391 269.057743 
L 414.805313 268.916699 
L 415.895156 268.953642 
L 416.985 269.170965 
L 416.985 269.170965 
" style="fill:none;stroke:#1f77b4;stroke-linecap:square;stroke-width:1.5;"/>
   </g>
   <g id="line2d_32">
    <path clip-path="url(#p2004f9d0d7)" d="M 59.51625 263.010608 
L 60.061172 262.726507 
L 60.606094 262.5292 
L 61.695938 262.424405 
L 63.875625 262.327528 
L 64.420547 262.082029 
L 65.510391 261.115457 
L 66.600234 260.222965 
L 67.145156 260.068804 
L 68.779922 260.010091 
L 70.414688 259.401622 
L 72.049453 259.084035 
L 75.863906 257.607933 
L 77.498672 257.597576 
L 78.588516 257.106117 
L 79.678359 256.637941 
L 80.768203 256.322891 
L 81.858047 255.679917 
L 84.037734 253.891402 
L 85.127578 253.330481 
L 86.762344 252.581014 
L 87.852188 252.015711 
L 88.397109 251.881546 
L 89.486953 251.928093 
L 90.576797 251.992896 
L 91.121719 251.791419 
L 92.211563 250.858297 
L 93.301406 249.971209 
L 93.846328 249.752348 
L 95.481094 249.411471 
L 96.026016 249.066597 
L 97.660781 247.416836 
L 98.205703 247.153393 
L 98.750625 247.153632 
L 99.840469 247.339297 
L 100.385391 247.144314 
L 100.930313 246.649528 
L 102.020156 245.096559 
L 103.11 243.36751 
L 103.654922 242.67958 
L 104.199844 242.315807 
L 104.744766 242.289945 
L 106.379531 242.702211 
L 106.924453 242.677019 
L 107.469375 242.467063 
L 108.014297 242.031967 
L 109.649063 240.305017 
L 110.738906 239.50505 
L 111.283828 239.24698 
L 111.82875 239.155577 
L 113.463516 239.332996 
L 114.008438 239.142303 
L 115.098281 238.313254 
L 116.733047 236.52239 
L 117.822891 235.522198 
L 118.912734 234.697719 
L 120.002578 233.540708 
L 122.182266 231.096081 
L 123.272109 230.04612 
L 125.451797 228.269518 
L 126.541641 227.145462 
L 127.631484 226.437868 
L 128.721328 225.706689 
L 131.445938 223.036055 
L 132.535781 221.522146 
L 133.080703 220.936218 
L 133.625625 220.56678 
L 134.715469 220.098571 
L 135.260391 219.746222 
L 137.440078 217.837449 
L 139.074844 217.110438 
L 140.164688 215.904989 
L 141.254531 214.642854 
L 142.344375 213.439167 
L 142.889297 212.468592 
L 145.068984 207.70642 
L 146.158828 206.105696 
L 146.70375 205.571544 
L 147.793594 205.01557 
L 148.338516 204.801281 
L 148.883438 204.458137 
L 149.428359 203.900949 
L 150.518203 202.196484 
L 151.608047 200.466846 
L 152.152969 199.859867 
L 153.242813 199.069355 
L 154.332656 198.255327 
L 155.4225 197.039862 
L 158.147109 193.562043 
L 160.871719 190.343852 
L 166.320938 181.394432 
L 168.500625 178.460971 
L 170.680313 176.194923 
L 173.404922 171.379517 
L 175.039688 168.197865 
L 176.674453 164.903334 
L 177.764297 163.284886 
L 179.399063 161.209764 
L 180.488906 159.283412 
L 182.123672 156.217258 
L 184.848281 151.985436 
L 187.027969 147.889685 
L 189.207656 144.447022 
L 192.477188 138.518097 
L 194.111953 135.384825 
L 196.836563 129.537647 
L 199.561172 125.158715 
L 200.651016 122.578019 
L 201.740859 119.940196 
L 202.830703 118.023983 
L 204.465469 115.318433 
L 205.555313 113.178519 
L 206.645156 110.541231 
L 208.279922 106.3785 
L 209.369766 104.031019 
L 211.004531 100.721344 
L 212.094375 98.423494 
L 212.639297 97.624652 
L 213.729141 96.413375 
L 214.274063 95.456482 
L 214.818984 93.992114 
L 216.998672 86.877429 
L 218.633438 83.038066 
L 219.723281 81.044007 
L 221.358047 78.386955 
L 222.447891 76.156421 
L 225.1725 69.396303 
L 226.807266 66.775477 
L 227.897109 64.900054 
L 228.986953 63.455392 
L 231.166641 60.9074 
L 231.711563 60.548995 
L 232.256484 60.51273 
L 232.801406 60.77765 
L 234.436172 62.043858 
L 234.981094 62.255637 
L 236.070938 62.335946 
L 236.615859 62.579579 
L 237.160781 63.510334 
L 237.705703 65.575382 
L 238.250625 68.832231 
L 239.885391 79.923675 
L 240.975234 84.729397 
L 243.154922 92.20517 
L 244.789688 97.523818 
L 248.059219 107.201863 
L 250.238906 114.342179 
L 254.598281 126.383448 
L 256.233047 130.969153 
L 259.502578 140.857048 
L 263.317031 150.907572 
L 266.586563 159.347908 
L 267.676406 162.138175 
L 270.401016 167.991441 
L 272.580703 172.009721 
L 273.670547 174.721247 
L 276.940078 183.36715 
L 277.485 184.317792 
L 279.119766 186.450208 
L 280.209609 188.771269 
L 281.299453 191.125163 
L 283.479141 194.614358 
L 284.568984 196.729234 
L 291.652969 208.107223 
L 292.742813 209.465165 
L 296.012344 214.093167 
L 297.647109 215.822261 
L 298.736953 217.008306 
L 300.916641 220.394893 
L 302.551406 221.968961 
L 304.186172 223.732046 
L 305.276016 224.889971 
L 306.910781 226.955531 
L 308.545547 229.580196 
L 309.635391 230.693696 
L 310.725234 231.842947 
L 312.36 233.939475 
L 312.904922 234.413372 
L 313.994766 234.948246 
L 315.629531 235.497908 
L 317.264297 235.584226 
L 317.809219 235.922099 
L 318.354141 236.565668 
L 321.07875 240.611552 
L 324.893203 244.880346 
L 326.527969 245.597016 
L 327.617813 246.070791 
L 328.162734 246.441822 
L 329.7975 247.927781 
L 330.342422 248.190153 
L 332.522109 248.823644 
L 333.611953 249.249653 
L 336.336563 250.657789 
L 337.426406 250.957913 
L 339.061172 250.953008 
L 339.606094 251.281053 
L 340.695938 252.501862 
L 341.785781 253.684138 
L 343.420547 254.898099 
L 343.965469 255.21515 
L 344.510391 255.370371 
L 346.145156 255.442845 
L 347.235 255.941756 
L 347.779922 256.03429 
L 348.869766 255.963613 
L 349.414688 256.081744 
L 351.594375 257.192239 
L 353.774063 258.211728 
L 357.043594 259.299575 
L 358.133438 259.778968 
L 359.768203 260.752266 
L 360.313125 260.808238 
L 361.402969 260.47445 
L 361.947891 260.284309 
L 362.492813 260.217562 
L 363.037734 260.352644 
L 363.582656 260.719967 
L 364.6725 261.969185 
L 365.762344 263.121502 
L 366.307266 263.321114 
L 366.852188 263.249727 
L 367.942031 262.939102 
L 369.031875 262.981967 
L 371.211563 263.313515 
L 372.301406 263.537783 
L 373.39125 263.541769 
L 373.936172 263.513397 
L 374.481094 263.604383 
L 375.026016 263.893416 
L 376.660781 265.182371 
L 377.205703 265.438856 
L 377.750625 265.563211 
L 378.295547 265.537732 
L 379.385391 265.117905 
L 379.930313 264.9006 
L 380.475234 264.809827 
L 381.020156 264.887284 
L 382.11 265.421926 
L 383.744766 266.249574 
L 384.834609 266.56691 
L 385.924453 266.542547 
L 387.559219 266.485257 
L 388.649063 266.687193 
L 389.738906 267.286654 
L 390.283828 267.608892 
L 390.82875 267.766029 
L 391.373672 267.659229 
L 393.008438 266.570625 
L 393.553359 266.438322 
L 394.643203 266.591215 
L 395.733047 266.759824 
L 397.367813 266.852938 
L 398.457656 267.273409 
L 400.637344 268.308433 
L 401.727188 268.531726 
L 403.906875 268.808039 
L 405.541641 269.205142 
L 407.176406 269.712919 
L 408.26625 269.689097 
L 410.445938 269.102512 
L 411.535781 268.967092 
L 413.170547 268.592363 
L 414.260391 268.665208 
L 416.440078 269.295303 
L 416.985 269.240284 
L 416.985 269.240284 
" style="fill:none;stroke:#ff7f0e;stroke-linecap:square;stroke-width:1.5;"/>
   </g>
   <g id="line2d_33">
    <path clip-path="url(#p2004f9d0d7)" d="M 59.51625 266.425094 
L 60.061172 266.17491 
L 60.606094 266.06477 
L 61.695938 266.225245 
L 62.785781 266.529076 
L 63.330703 266.59717 
L 63.875625 266.535967 
L 64.420547 266.30343 
L 66.055313 265.326814 
L 67.145156 265.21903 
L 69.324844 265.246911 
L 69.869766 265.103668 
L 70.959609 264.417732 
L 72.049453 263.768946 
L 72.594375 263.679827 
L 75.318984 263.764203 
L 76.408828 263.369537 
L 77.498672 262.825216 
L 78.588516 262.58553 
L 79.678359 262.627129 
L 80.768203 262.805706 
L 81.313125 262.780176 
L 81.858047 262.606239 
L 84.582656 261.148263 
L 85.6725 260.970955 
L 87.852188 261.200817 
L 89.486953 260.83437 
L 91.121719 260.903526 
L 92.211563 260.516564 
L 93.846328 259.882146 
L 95.481094 259.27076 
L 97.115859 258.503255 
L 98.750625 258.056265 
L 100.385391 257.733089 
L 100.930313 257.467023 
L 101.475234 257.04939 
L 102.565078 255.758324 
L 103.11 255.105348 
L 103.654922 254.761171 
L 104.199844 254.876335 
L 105.289688 255.809543 
L 105.834609 256.074431 
L 106.379531 256.081222 
L 106.924453 255.900424 
L 109.649063 254.44407 
L 110.738906 254.035869 
L 113.463516 252.227423 
L 115.098281 251.676753 
L 117.822891 251.200866 
L 120.5475 249.770541 
L 121.092422 249.744504 
L 122.727188 249.96672 
L 123.272109 249.702356 
L 123.817031 249.172592 
L 125.451797 247.075058 
L 125.996719 246.637946 
L 126.541641 246.449688 
L 128.176406 246.315646 
L 129.811172 245.683473 
L 130.356094 245.364321 
L 131.445938 244.20723 
L 132.535781 242.988176 
L 133.625625 242.307594 
L 134.715469 241.885283 
L 135.805313 241.141836 
L 137.440078 239.965624 
L 140.164688 238.087879 
L 140.709609 237.926689 
L 141.799453 237.933846 
L 142.889297 237.929552 
L 143.979141 237.47987 
L 145.068984 236.758682 
L 146.70375 235.344383 
L 148.883438 233.138186 
L 149.973281 232.460001 
L 151.063125 232.257667 
L 151.608047 232.151421 
L 152.152969 231.876276 
L 153.242813 230.900755 
L 154.332656 229.765448 
L 156.512344 226.950733 
L 157.602188 226.333863 
L 158.692031 225.837832 
L 160.326797 224.805824 
L 161.416641 223.921759 
L 164.686172 220.819848 
L 166.865859 219.474919 
L 167.955703 218.263319 
L 169.045547 217.086898 
L 171.770156 215.23791 
L 172.86 213.910569 
L 174.494766 211.291416 
L 175.039688 210.700838 
L 176.129531 210.064074 
L 177.219375 209.527592 
L 178.309219 208.754021 
L 183.213516 203.761604 
L 185.938125 200.322069 
L 187.027969 198.823055 
L 187.572891 198.376035 
L 189.207656 197.484834 
L 189.752578 197.00941 
L 190.2975 196.384756 
L 191.387344 194.613051 
L 192.477188 192.696489 
L 193.022109 192.048913 
L 194.656875 190.701542 
L 195.746719 188.960734 
L 196.836563 187.192155 
L 199.01625 184.548721 
L 200.651016 182.991412 
L 202.285781 181.378615 
L 203.920547 179.658078 
L 204.465469 178.809089 
L 205.555313 176.543083 
L 206.645156 174.267469 
L 207.190078 173.427423 
L 208.279922 172.404872 
L 209.369766 171.451959 
L 212.094375 168.442939 
L 213.184219 167.481724 
L 213.729141 166.768853 
L 214.274063 165.73685 
L 215.908828 161.998017 
L 219.178359 156.382328 
L 221.358047 153.911582 
L 224.082656 149.142881 
L 225.1725 147.732566 
L 226.807266 145.860721 
L 228.442031 143.472846 
L 228.986953 143.071746 
L 230.621719 142.742315 
L 232.256484 141.389044 
L 232.801406 141.36094 
L 233.346328 141.622159 
L 234.436172 142.347856 
L 234.981094 142.509849 
L 236.070938 142.525785 
L 236.615859 142.750452 
L 237.160781 143.520019 
L 237.705703 145.094529 
L 239.340469 152.112022 
L 239.885391 153.74837 
L 240.975234 155.963202 
L 243.154922 159.836465 
L 244.789688 163.431508 
L 246.424453 166.908069 
L 248.059219 169.953519 
L 250.783828 175.682123 
L 253.508438 180.482332 
L 255.143203 184.211386 
L 256.233047 186.066694 
L 258.957656 190.056468 
L 260.0475 192.32246 
L 261.137344 194.673942 
L 262.227188 196.324739 
L 263.317031 197.650961 
L 264.406875 199.568571 
L 266.041641 202.899579 
L 267.131484 204.648524 
L 268.221328 205.991747 
L 269.311172 206.843299 
L 269.856094 207.195087 
L 270.401016 207.775054 
L 270.945938 208.7766 
L 272.580703 212.844685 
L 273.125625 213.656326 
L 275.305313 215.658391 
L 276.395156 217.415707 
L 277.485 219.257198 
L 278.574844 220.442385 
L 279.664688 221.393711 
L 280.754531 222.600388 
L 283.479141 225.885632 
L 285.113906 227.15122 
L 286.20375 227.981621 
L 287.293594 229.082809 
L 288.928359 230.838404 
L 291.108047 232.454657 
L 292.197891 233.843565 
L 293.287734 235.25336 
L 294.377578 236.288168 
L 298.736953 239.788428 
L 299.826797 240.36164 
L 300.916641 241.46938 
L 302.006484 242.602665 
L 303.64125 243.657695 
L 305.820938 245.828827 
L 306.910781 246.209911 
L 308.000625 246.671297 
L 309.635391 247.94192 
L 311.270156 249.266261 
L 315.084609 251.245857 
L 316.719375 251.301036 
L 317.264297 251.449644 
L 318.354141 252.09898 
L 320.533828 253.880882 
L 321.623672 254.100749 
L 322.168594 254.193861 
L 322.713516 254.45161 
L 323.803359 255.494083 
L 324.893203 256.667098 
L 325.438125 257.036533 
L 325.983047 257.199837 
L 328.162734 257.206529 
L 329.252578 257.680906 
L 329.7975 257.960121 
L 330.342422 258.100753 
L 330.887344 258.030669 
L 331.977188 257.555843 
L 332.522109 257.46354 
L 333.067031 257.585593 
L 334.701797 258.335039 
L 337.971328 259.082719 
L 339.061172 259.542161 
L 339.606094 259.871923 
L 340.695938 260.93966 
L 341.240859 261.509996 
L 341.785781 261.884438 
L 342.330703 262.006773 
L 345.055313 261.838446 
L 346.690078 262.212017 
L 347.779922 262.671571 
L 349.959609 263.853101 
L 351.594375 264.462151 
L 355.408828 265.254134 
L 356.498672 265.532971 
L 359.223281 265.71988 
L 360.313125 265.744403 
L 361.402969 265.694931 
L 361.947891 265.887485 
L 363.037734 266.505341 
L 363.582656 266.647026 
L 364.6725 266.448588 
L 365.217422 266.342668 
L 366.307266 266.462921 
L 367.397109 266.666001 
L 368.486953 266.574179 
L 369.576797 266.433431 
L 370.121719 266.514701 
L 373.936172 268.053568 
L 374.481094 268.15625 
L 376.660781 267.863467 
L 378.295547 268.202042 
L 379.930313 268.26112 
L 381.020156 268.038946 
L 382.654922 267.546273 
L 383.199844 267.556314 
L 383.744766 267.715661 
L 385.924453 268.956031 
L 387.559219 269.773657 
L 388.649063 269.897297 
L 395.188125 269.348707 
L 396.822891 269.620923 
L 397.367813 269.536258 
L 399.002578 268.952495 
L 399.5475 269.012165 
L 401.727188 269.868931 
L 402.272109 269.826211 
L 403.361953 269.252354 
L 403.906875 268.953561 
L 404.451797 268.822497 
L 404.996719 268.92742 
L 406.086563 269.710789 
L 406.631484 270.130216 
L 407.176406 270.372608 
L 407.721328 270.391244 
L 409.356094 270.005278 
L 410.445938 270.067503 
L 412.080703 270.384443 
L 413.170547 270.838025 
L 413.715469 270.891958 
L 414.260391 270.672528 
L 415.350234 269.798456 
L 415.895156 269.525707 
L 416.440078 269.487002 
L 416.985 269.620595 
L 416.985 269.620595 
" style="fill:none;stroke:#2ca02c;stroke-linecap:square;stroke-width:1.5;"/>
   </g>
   <g id="patch_3">
    <path d="M 59.690625 288.430125 
L 59.690625 22.318125 
" style="fill:none;stroke:#000000;stroke-linecap:square;stroke-linejoin:miter;stroke-width:0.8;"/>
   </g>
   <g id="patch_4">
    <path d="M 416.810625 288.430125 
L 416.810625 22.318125 
" style="fill:none;stroke:#000000;stroke-linecap:square;stroke-linejoin:miter;stroke-width:0.8;"/>
   </g>
   <g id="patch_5">
    <path d="M 59.690625 288.430125 
L 416.810625 288.430125 
" style="fill:none;stroke:#000000;stroke-linecap:square;stroke-linejoin:miter;stroke-width:0.8;"/>
   </g>
   <g id="patch_6">
    <path d="M 59.690625 22.318125 
L 416.810625 22.318125 
" style="fill:none;stroke:#000000;stroke-linecap:square;stroke-linejoin:miter;stroke-width:0.8;"/>
   </g>
   <g id="text_18">
    <!-- Spektrum Vergleich -->
    <defs>
     <path d="M 53.515625 70.515625 
L 53.515625 60.890625 
Q 47.90625 63.578125 42.921875 64.890625 
Q 37.9375 66.21875 33.296875 66.21875 
Q 25.25 66.21875 20.875 63.09375 
Q 16.5 59.96875 16.5 54.203125 
Q 16.5 49.359375 19.40625 46.890625 
Q 22.3125 44.4375 30.421875 42.921875 
L 36.375 41.703125 
Q 47.40625 39.59375 52.65625 34.296875 
Q 57.90625 29 57.90625 20.125 
Q 57.90625 9.515625 50.796875 4.046875 
Q 43.703125 -1.421875 29.984375 -1.421875 
Q 24.8125 -1.421875 18.96875 -0.25 
Q 13.140625 0.921875 6.890625 3.21875 
L 6.890625 13.375 
Q 12.890625 10.015625 18.65625 8.296875 
Q 24.421875 6.59375 29.984375 6.59375 
Q 38.421875 6.59375 43.015625 9.90625 
Q 47.609375 13.234375 47.609375 19.390625 
Q 47.609375 24.75 44.3125 27.78125 
Q 41.015625 30.8125 33.5 32.328125 
L 27.484375 33.5 
Q 16.453125 35.6875 11.515625 40.375 
Q 6.59375 45.0625 6.59375 53.421875 
Q 6.59375 63.09375 13.40625 68.65625 
Q 20.21875 74.21875 32.171875 74.21875 
Q 37.3125 74.21875 42.625 73.28125 
Q 47.953125 72.359375 53.515625 70.515625 
" id="DejaVuSans-53"/>
     <path d="M 18.109375 8.203125 
L 18.109375 -20.796875 
L 9.078125 -20.796875 
L 9.078125 54.6875 
L 18.109375 54.6875 
L 18.109375 46.390625 
Q 20.953125 51.265625 25.265625 53.625 
Q 29.59375 56 35.59375 56 
Q 45.5625 56 51.78125 48.09375 
Q 58.015625 40.1875 58.015625 27.296875 
Q 58.015625 14.40625 51.78125 6.484375 
Q 45.5625 -1.421875 35.59375 -1.421875 
Q 29.59375 -1.421875 25.265625 0.953125 
Q 20.953125 3.328125 18.109375 8.203125 
M 48.6875 27.296875 
Q 48.6875 37.203125 44.609375 42.84375 
Q 40.53125 48.484375 33.40625 48.484375 
Q 26.265625 48.484375 22.1875 42.84375 
Q 18.109375 37.203125 18.109375 27.296875 
Q 18.109375 17.390625 22.1875 11.75 
Q 26.265625 6.109375 33.40625 6.109375 
Q 40.53125 6.109375 44.609375 11.75 
Q 48.6875 17.390625 48.6875 27.296875 
" id="DejaVuSans-70"/>
     <path d="M 18.3125 70.21875 
L 18.3125 54.6875 
L 36.8125 54.6875 
L 36.8125 47.703125 
L 18.3125 47.703125 
L 18.3125 18.015625 
Q 18.3125 11.328125 20.140625 9.421875 
Q 21.96875 7.515625 27.59375 7.515625 
L 36.8125 7.515625 
L 36.8125 0 
L 27.59375 0 
Q 17.1875 0 13.234375 3.875 
Q 9.28125 7.765625 9.28125 18.015625 
L 9.28125 47.703125 
L 2.6875 47.703125 
L 2.6875 54.6875 
L 9.28125 54.6875 
L 9.28125 70.21875 
z
" id="DejaVuSans-74"/>
     <path d="M 52 44.1875 
Q 55.375 50.25 60.0625 53.125 
Q 64.75 56 71.09375 56 
Q 79.640625 56 84.28125 50.015625 
Q 88.921875 44.046875 88.921875 33.015625 
L 88.921875 0 
L 79.890625 0 
L 79.890625 32.71875 
Q 79.890625 40.578125 77.09375 44.375 
Q 74.3125 48.1875 68.609375 48.1875 
Q 61.625 48.1875 57.5625 43.546875 
Q 53.515625 38.921875 53.515625 30.90625 
L 53.515625 0 
L 44.484375 0 
L 44.484375 32.71875 
Q 44.484375 40.625 41.703125 44.40625 
Q 38.921875 48.1875 33.109375 48.1875 
Q 26.21875 48.1875 22.15625 43.53125 
Q 18.109375 38.875 18.109375 30.90625 
L 18.109375 0 
L 9.078125 0 
L 9.078125 54.6875 
L 18.109375 54.6875 
L 18.109375 46.1875 
Q 21.1875 51.21875 25.484375 53.609375 
Q 29.78125 56 35.6875 56 
Q 41.65625 56 45.828125 52.96875 
Q 50 49.953125 52 44.1875 
" id="DejaVuSans-6d"/>
     <path d="M 28.609375 0 
L 0.78125 72.90625 
L 11.078125 72.90625 
L 34.1875 11.53125 
L 57.328125 72.90625 
L 67.578125 72.90625 
L 39.796875 0 
z
" id="DejaVuSans-56"/>
     <path d="M 45.40625 27.984375 
Q 45.40625 37.75 41.375 43.109375 
Q 37.359375 48.484375 30.078125 48.484375 
Q 22.859375 48.484375 18.828125 43.109375 
Q 14.796875 37.75 14.796875 27.984375 
Q 14.796875 18.265625 18.828125 12.890625 
Q 22.859375 7.515625 30.078125 7.515625 
Q 37.359375 7.515625 41.375 12.890625 
Q 45.40625 18.265625 45.40625 27.984375 
M 54.390625 6.78125 
Q 54.390625 -7.171875 48.1875 -13.984375 
Q 42 -20.796875 29.203125 -20.796875 
Q 24.46875 -20.796875 20.265625 -20.09375 
Q 16.0625 -19.390625 12.109375 -17.921875 
L 12.109375 -9.1875 
Q 16.0625 -11.328125 19.921875 -12.34375 
Q 23.78125 -13.375 27.78125 -13.375 
Q 36.625 -13.375 41.015625 -8.765625 
Q 45.40625 -4.15625 45.40625 5.171875 
L 45.40625 9.625 
Q 42.625 4.78125 38.28125 2.390625 
Q 33.9375 0 27.875 0 
Q 17.828125 0 11.671875 7.65625 
Q 5.515625 15.328125 5.515625 27.984375 
Q 5.515625 40.671875 11.671875 48.328125 
Q 17.828125 56 27.875 56 
Q 33.9375 56 38.28125 53.609375 
Q 42.625 51.21875 45.40625 46.390625 
L 45.40625 54.6875 
L 54.390625 54.6875 
z
" id="DejaVuSans-67"/>
     <path d="M 9.421875 75.984375 
L 18.40625 75.984375 
L 18.40625 0 
L 9.421875 0 
z
" id="DejaVuSans-6c"/>
     <path d="M 9.421875 54.6875 
L 18.40625 54.6875 
L 18.40625 0 
L 9.421875 0 
z
M 9.421875 75.984375 
L 18.40625 75.984375 
L 18.40625 64.59375 
L 9.421875 64.59375 
z
" id="DejaVuSans-69"/>
     <path d="M 48.78125 52.59375 
L 48.78125 44.1875 
Q 44.96875 46.296875 41.140625 47.34375 
Q 37.3125 48.390625 33.40625 48.390625 
Q 24.65625 48.390625 19.8125 42.84375 
Q 14.984375 37.3125 14.984375 27.296875 
Q 14.984375 17.28125 19.8125 11.734375 
Q 24.65625 6.203125 33.40625 6.203125 
Q 37.3125 6.203125 41.140625 7.25 
Q 44.96875 8.296875 48.78125 10.40625 
L 48.78125 2.09375 
Q 45.015625 0.34375 40.984375 -0.53125 
Q 36.96875 -1.421875 32.421875 -1.421875 
Q 20.0625 -1.421875 12.78125 6.34375 
Q 5.515625 14.109375 5.515625 27.296875 
Q 5.515625 40.671875 12.859375 48.328125 
Q 20.21875 56 33.015625 56 
Q 37.15625 56 41.109375 55.140625 
Q 45.0625 54.296875 48.78125 52.59375 
" id="DejaVuSans-63"/>
     <path d="M 54.890625 33.015625 
L 54.890625 0 
L 45.90625 0 
L 45.90625 32.71875 
Q 45.90625 40.484375 42.875 44.328125 
Q 39.84375 48.1875 33.796875 48.1875 
Q 26.515625 48.1875 22.3125 43.546875 
Q 18.109375 38.921875 18.109375 30.90625 
L 18.109375 0 
L 9.078125 0 
L 9.078125 75.984375 
L 18.109375 75.984375 
L 18.109375 46.1875 
Q 21.34375 51.125 25.703125 53.5625 
Q 30.078125 56 35.796875 56 
Q 45.21875 56 50.046875 50.171875 
Q 54.890625 44.34375 54.890625 33.015625 
" id="DejaVuSans-68"/>
    </defs>
    <g transform="translate(178.902188 16.318125)scale(0.12 -0.12)">
     <use xlink:href="#DejaVuSans-53"/>
     <use x="63.476562" xlink:href="#DejaVuSans-70"/>
     <use x="126.953125" xlink:href="#DejaVuSans-65"/>
     <use x="188.476562" xlink:href="#DejaVuSans-6b"/>
     <use x="246.386719" xlink:href="#DejaVuSans-74"/>
     <use x="285.595703" xlink:href="#DejaVuSans-72"/>
     <use x="326.708984" xlink:href="#DejaVuSans-75"/>
     <use x="390.087891" xlink:href="#DejaVuSans-6d"/>
     <use x="487.5" xlink:href="#DejaVuSans-20"/>
     <use x="519.287109" xlink:href="#DejaVuSans-56"/>
     <use x="587.585938" xlink:href="#DejaVuSans-65"/>
     <use x="649.109375" xlink:href="#DejaVuSans-72"/>
     <use x="690.207031" xlink:href="#DejaVuSans-67"/>
     <use x="753.683594" xlink:href="#DejaVuSans-6c"/>
     <use x="781.466797" xlink:href="#DejaVuSans-65"/>
     <use x="842.990234" xlink:href="#DejaVuSans-69"/>
     <use x="870.773438" xlink:href="#DejaVuSans-63"/>
     <use x="925.753906" xlink:href="#DejaVuSans-68"/>
    </g>
   </g>
   <g id="legend_1">
    <g id="patch_7">
     <path d="M 331.054375 74.3525 
L 409.810625 74.3525 
Q 411.810625 74.3525 411.810625 72.3525 
L 411.810625 29.318125 
Q 411.810625 27.318125 409.810625 27.318125 
L 331.054375 27.318125 
Q 329.054375 27.318125 329.054375 29.318125 
L 329.054375 72.3525 
Q 329.054375 74.3525 331.054375 74.3525 
z
" style="fill:#ffffff;opacity:0.8;stroke:#cccccc;stroke-linejoin:miter;"/>
    </g>
    <g id="line2d_34">
     <path d="M 333.054375 35.416562 
L 353.054375 35.416562 
" style="fill:none;stroke:#1f77b4;stroke-linecap:square;stroke-width:1.5;"/>
    </g>
    <g id="line2d_35"/>
    <g id="text_19">
     <!-- 0.015 ms -->
     <defs>
      <path d="M 44.28125 53.078125 
L 44.28125 44.578125 
Q 40.484375 46.53125 36.375 47.5 
Q 32.28125 48.484375 27.875 48.484375 
Q 21.1875 48.484375 17.84375 46.4375 
Q 14.5 44.390625 14.5 40.28125 
Q 14.5 37.15625 16.890625 35.375 
Q 19.28125 33.59375 26.515625 31.984375 
L 29.59375 31.296875 
Q 39.15625 29.25 43.1875 25.515625 
Q 47.21875 21.78125 47.21875 15.09375 
Q 47.21875 7.46875 41.1875 3.015625 
Q 35.15625 -1.421875 24.609375 -1.421875 
Q 20.21875 -1.421875 15.453125 -0.5625 
Q 10.6875 0.296875 5.421875 2 
L 5.421875 11.28125 
Q 10.40625 8.6875 15.234375 7.390625 
Q 20.0625 6.109375 24.8125 6.109375 
Q 31.15625 6.109375 34.5625 8.28125 
Q 37.984375 10.453125 37.984375 14.40625 
Q 37.984375 18.0625 35.515625 20.015625 
Q 33.0625 21.96875 24.703125 23.78125 
L 21.578125 24.515625 
Q 13.234375 26.265625 9.515625 29.90625 
Q 5.8125 33.546875 5.8125 39.890625 
Q 5.8125 47.609375 11.28125 51.796875 
Q 16.75 56 26.8125 56 
Q 31.78125 56 36.171875 55.265625 
Q 40.578125 54.546875 44.28125 53.078125 
" id="DejaVuSans-73"/>
     </defs>
     <g transform="translate(361.054375 38.916562)scale(0.1 -0.1)">
      <use xlink:href="#DejaVuSans-30"/>
      <use x="63.623047" xlink:href="#DejaVuSans-2e"/>
      <use x="95.410156" xlink:href="#DejaVuSans-30"/>
      <use x="159.033203" xlink:href="#DejaVuSans-31"/>
      <use x="222.65625" xlink:href="#DejaVuSans-35"/>
      <use x="286.279297" xlink:href="#DejaVuSans-20"/>
      <use x="318.066406" xlink:href="#DejaVuSans-6d"/>
      <use x="415.478516" xlink:href="#DejaVuSans-73"/>
     </g>
    </g>
    <g id="line2d_36">
     <path d="M 333.054375 50.094688 
L 353.054375 50.094688 
" style="fill:none;stroke:#ff7f0e;stroke-linecap:square;stroke-width:1.5;"/>
    </g>
    <g id="line2d_37"/>
    <g id="text_20">
     <!-- 0.1 ms -->
     <g transform="translate(361.054375 53.594688)scale(0.1 -0.1)">
      <use xlink:href="#DejaVuSans-30"/>
      <use x="63.623047" xlink:href="#DejaVuSans-2e"/>
      <use x="95.410156" xlink:href="#DejaVuSans-31"/>
      <use x="159.033203" xlink:href="#DejaVuSans-20"/>
      <use x="190.820312" xlink:href="#DejaVuSans-6d"/>
      <use x="288.232422" xlink:href="#DejaVuSans-73"/>
     </g>
    </g>
    <g id="line2d_38">
     <path d="M 333.054375 64.772812 
L 353.054375 64.772812 
" style="fill:none;stroke:#2ca02c;stroke-linecap:square;stroke-width:1.5;"/>
    </g>
    <g id="line2d_39"/>
    <g id="text_21">
     <!-- 0.6 ms -->
     <g transform="translate(361.054375 68.272812)scale(0.1 -0.1)">
      <use xlink:href="#DejaVuSans-30"/>
      <use x="63.623047" xlink:href="#DejaVuSans-2e"/>
      <use x="95.410156" xlink:href="#DejaVuSans-36"/>
      <use x="159.033203" xlink:href="#DejaVuSans-20"/>
      <use x="190.820312" xlink:href="#DejaVuSans-6d"/>
      <use x="288.232422" xlink:href="#DejaVuSans-73"/>
     </g>
    </g>
   </g>
  </g>
 </g>
 <defs>
  <clipPath id="p2004f9d0d7">
   <rect height="266.112" width="357.12" x="59.690625" y="22.318125"/>
  </clipPath>
 </defs>
</svg>
