<?xml version="1.0" encoding="utf-8" standalone="no"?>
<!DOCTYPE svg PUBLIC "-//W3C//DTD SVG 1.1//EN"
  "http://www.w3.org/Graphics/SVG/1.1/DTD/svg11.dtd">
<!-- Created with matplotlib (http://matplotlib.org/) -->
<svg height="325pt" version="1.1" viewBox="0 0 424 325" width="424pt" xmlns="http://www.w3.org/2000/svg" xmlns:xlink="http://www.w3.org/1999/xlink">
 <defs>
  <style type="text/css">
*{stroke-linecap:butt;stroke-linejoin:round;}
  </style>
 </defs>
 <g id="figure_1">
  <g id="patch_1">
   <path d="M 0 325.986375 
L 424.0075 325.986375 
L 424.0075 0 
L 0 0 
z
" style="fill:#ffffff;"/>
  </g>
  <g id="axes_1">
   <g id="patch_2">
    <path d="M 43.78125 288.430125 
L 400.90125 288.430125 
L 400.90125 22.318125 
L 43.78125 22.318125 
z
" style="fill:#ffffff;"/>
   </g>
   <g id="matplotlib.axis_1">
    <g id="xtick_1">
     <g id="line2d_1">
      <path clip-path="url(#p66f19f98b1)" d="M 43.78125 288.430125 
L 43.78125 22.318125 
" style="fill:none;stroke:#b0b0b0;stroke-linecap:square;stroke-width:0.8;"/>
     </g>
     <g id="line2d_2">
      <defs>
       <path d="M 0 0 
L 0 3.5 
" id="mb413a8b36e" style="stroke:#000000;stroke-width:0.8;"/>
      </defs>
      <g>
       <use style="stroke:#000000;stroke-width:0.8;" x="43.78125" xlink:href="#mb413a8b36e" y="288.430125"/>
      </g>
     </g>
     <g id="text_1">
      <!-- −80000 -->
      <defs>
       <path d="M 10.59375 35.5 
L 73.1875 35.5 
L 73.1875 27.203125 
L 10.59375 27.203125 
z
" id="DejaVuSans-2212"/>
       <path d="M 31.78125 34.625 
Q 24.75 34.625 20.71875 30.859375 
Q 16.703125 27.09375 16.703125 20.515625 
Q 16.703125 13.921875 20.71875 10.15625 
Q 24.75 6.390625 31.78125 6.390625 
Q 38.8125 6.390625 42.859375 10.171875 
Q 46.921875 13.96875 46.921875 20.515625 
Q 46.921875 27.09375 42.890625 30.859375 
Q 38.875 34.625 31.78125 34.625 
M 21.921875 38.8125 
Q 15.578125 40.375 12.03125 44.71875 
Q 8.5 49.078125 8.5 55.328125 
Q 8.5 64.0625 14.71875 69.140625 
Q 20.953125 74.21875 31.78125 74.21875 
Q 42.671875 74.21875 48.875 69.140625 
Q 55.078125 64.0625 55.078125 55.328125 
Q 55.078125 49.078125 51.53125 44.71875 
Q 48 40.375 41.703125 38.8125 
Q 48.828125 37.15625 52.796875 32.3125 
Q 56.78125 27.484375 56.78125 20.515625 
Q 56.78125 9.90625 50.3125 4.234375 
Q 43.84375 -1.421875 31.78125 -1.421875 
Q 19.734375 -1.421875 13.25 4.234375 
Q 6.78125 9.90625 6.78125 20.515625 
Q 6.78125 27.484375 10.78125 32.3125 
Q 14.796875 37.15625 21.921875 38.8125 
M 18.3125 54.390625 
Q 18.3125 48.734375 21.84375 45.5625 
Q 25.390625 42.390625 31.78125 42.390625 
Q 38.140625 42.390625 41.71875 45.5625 
Q 45.3125 48.734375 45.3125 54.390625 
Q 45.3125 60.0625 41.71875 63.234375 
Q 38.140625 66.40625 31.78125 66.40625 
Q 25.390625 66.40625 21.84375 63.234375 
Q 18.3125 60.0625 18.3125 54.390625 
" id="DejaVuSans-38"/>
       <path d="M 31.78125 66.40625 
Q 24.171875 66.40625 20.328125 58.90625 
Q 16.5 51.421875 16.5 36.375 
Q 16.5 21.390625 20.328125 13.890625 
Q 24.171875 6.390625 31.78125 6.390625 
Q 39.453125 6.390625 43.28125 13.890625 
Q 47.125 21.390625 47.125 36.375 
Q 47.125 51.421875 43.28125 58.90625 
Q 39.453125 66.40625 31.78125 66.40625 
M 31.78125 74.21875 
Q 44.046875 74.21875 50.515625 64.515625 
Q 56.984375 54.828125 56.984375 36.375 
Q 56.984375 17.96875 50.515625 8.265625 
Q 44.046875 -1.421875 31.78125 -1.421875 
Q 19.53125 -1.421875 13.0625 8.265625 
Q 6.59375 17.96875 6.59375 36.375 
Q 6.59375 54.828125 13.0625 64.515625 
Q 19.53125 74.21875 31.78125 74.21875 
" id="DejaVuSans-30"/>
      </defs>
      <g transform="translate(23.685156 303.028562)scale(0.1 -0.1)">
       <use xlink:href="#DejaVuSans-2212"/>
       <use x="83.789062" xlink:href="#DejaVuSans-38"/>
       <use x="147.412109" xlink:href="#DejaVuSans-30"/>
       <use x="211.035156" xlink:href="#DejaVuSans-30"/>
       <use x="274.658203" xlink:href="#DejaVuSans-30"/>
       <use x="338.28125" xlink:href="#DejaVuSans-30"/>
      </g>
     </g>
    </g>
    <g id="xtick_2">
     <g id="line2d_3">
      <path clip-path="url(#p66f19f98b1)" d="M 88.42125 288.430125 
L 88.42125 22.318125 
" style="fill:none;stroke:#b0b0b0;stroke-linecap:square;stroke-width:0.8;"/>
     </g>
     <g id="line2d_4">
      <g>
       <use style="stroke:#000000;stroke-width:0.8;" x="88.42125" xlink:href="#mb413a8b36e" y="288.430125"/>
      </g>
     </g>
     <g id="text_2">
      <!-- −60000 -->
      <defs>
       <path d="M 33.015625 40.375 
Q 26.375 40.375 22.484375 35.828125 
Q 18.609375 31.296875 18.609375 23.390625 
Q 18.609375 15.53125 22.484375 10.953125 
Q 26.375 6.390625 33.015625 6.390625 
Q 39.65625 6.390625 43.53125 10.953125 
Q 47.40625 15.53125 47.40625 23.390625 
Q 47.40625 31.296875 43.53125 35.828125 
Q 39.65625 40.375 33.015625 40.375 
M 52.59375 71.296875 
L 52.59375 62.3125 
Q 48.875 64.0625 45.09375 64.984375 
Q 41.3125 65.921875 37.59375 65.921875 
Q 27.828125 65.921875 22.671875 59.328125 
Q 17.53125 52.734375 16.796875 39.40625 
Q 19.671875 43.65625 24.015625 45.921875 
Q 28.375 48.1875 33.59375 48.1875 
Q 44.578125 48.1875 50.953125 41.515625 
Q 57.328125 34.859375 57.328125 23.390625 
Q 57.328125 12.15625 50.6875 5.359375 
Q 44.046875 -1.421875 33.015625 -1.421875 
Q 20.359375 -1.421875 13.671875 8.265625 
Q 6.984375 17.96875 6.984375 36.375 
Q 6.984375 53.65625 15.1875 63.9375 
Q 23.390625 74.21875 37.203125 74.21875 
Q 40.921875 74.21875 44.703125 73.484375 
Q 48.484375 72.75 52.59375 71.296875 
" id="DejaVuSans-36"/>
      </defs>
      <g transform="translate(68.325156 303.028562)scale(0.1 -0.1)">
       <use xlink:href="#DejaVuSans-2212"/>
       <use x="83.789062" xlink:href="#DejaVuSans-36"/>
       <use x="147.412109" xlink:href="#DejaVuSans-30"/>
       <use x="211.035156" xlink:href="#DejaVuSans-30"/>
       <use x="274.658203" xlink:href="#DejaVuSans-30"/>
       <use x="338.28125" xlink:href="#DejaVuSans-30"/>
      </g>
     </g>
    </g>
    <g id="xtick_3">
     <g id="line2d_5">
      <path clip-path="url(#p66f19f98b1)" d="M 133.06125 288.430125 
L 133.06125 22.318125 
" style="fill:none;stroke:#b0b0b0;stroke-linecap:square;stroke-width:0.8;"/>
     </g>
     <g id="line2d_6">
      <g>
       <use style="stroke:#000000;stroke-width:0.8;" x="133.06125" xlink:href="#mb413a8b36e" y="288.430125"/>
      </g>
     </g>
     <g id="text_3">
      <!-- −40000 -->
      <defs>
       <path d="M 37.796875 64.3125 
L 12.890625 25.390625 
L 37.796875 25.390625 
z
M 35.203125 72.90625 
L 47.609375 72.90625 
L 47.609375 25.390625 
L 58.015625 25.390625 
L 58.015625 17.1875 
L 47.609375 17.1875 
L 47.609375 0 
L 37.796875 0 
L 37.796875 17.1875 
L 4.890625 17.1875 
L 4.890625 26.703125 
z
" id="DejaVuSans-34"/>
      </defs>
      <g transform="translate(112.965156 303.028562)scale(0.1 -0.1)">
       <use xlink:href="#DejaVuSans-2212"/>
       <use x="83.789062" xlink:href="#DejaVuSans-34"/>
       <use x="147.412109" xlink:href="#DejaVuSans-30"/>
       <use x="211.035156" xlink:href="#DejaVuSans-30"/>
       <use x="274.658203" xlink:href="#DejaVuSans-30"/>
       <use x="338.28125" xlink:href="#DejaVuSans-30"/>
      </g>
     </g>
    </g>
    <g id="xtick_4">
     <g id="line2d_7">
      <path clip-path="url(#p66f19f98b1)" d="M 177.70125 288.430125 
L 177.70125 22.318125 
" style="fill:none;stroke:#b0b0b0;stroke-linecap:square;stroke-width:0.8;"/>
     </g>
     <g id="line2d_8">
      <g>
       <use style="stroke:#000000;stroke-width:0.8;" x="177.70125" xlink:href="#mb413a8b36e" y="288.430125"/>
      </g>
     </g>
     <g id="text_4">
      <!-- −20000 -->
      <defs>
       <path d="M 19.1875 8.296875 
L 53.609375 8.296875 
L 53.609375 0 
L 7.328125 0 
L 7.328125 8.296875 
Q 12.9375 14.109375 22.625 23.890625 
Q 32.328125 33.6875 34.8125 36.53125 
Q 39.546875 41.84375 41.421875 45.53125 
Q 43.3125 49.21875 43.3125 52.78125 
Q 43.3125 58.59375 39.234375 62.25 
Q 35.15625 65.921875 28.609375 65.921875 
Q 23.96875 65.921875 18.8125 64.3125 
Q 13.671875 62.703125 7.8125 59.421875 
L 7.8125 69.390625 
Q 13.765625 71.78125 18.9375 73 
Q 24.125 74.21875 28.421875 74.21875 
Q 39.75 74.21875 46.484375 68.546875 
Q 53.21875 62.890625 53.21875 53.421875 
Q 53.21875 48.921875 51.53125 44.890625 
Q 49.859375 40.875 45.40625 35.40625 
Q 44.1875 33.984375 37.640625 27.21875 
Q 31.109375 20.453125 19.1875 8.296875 
" id="DejaVuSans-32"/>
      </defs>
      <g transform="translate(157.605156 303.028562)scale(0.1 -0.1)">
       <use xlink:href="#DejaVuSans-2212"/>
       <use x="83.789062" xlink:href="#DejaVuSans-32"/>
       <use x="147.412109" xlink:href="#DejaVuSans-30"/>
       <use x="211.035156" xlink:href="#DejaVuSans-30"/>
       <use x="274.658203" xlink:href="#DejaVuSans-30"/>
       <use x="338.28125" xlink:href="#DejaVuSans-30"/>
      </g>
     </g>
    </g>
    <g id="xtick_5">
     <g id="line2d_9">
      <path clip-path="url(#p66f19f98b1)" d="M 222.34125 288.430125 
L 222.34125 22.318125 
" style="fill:none;stroke:#b0b0b0;stroke-linecap:square;stroke-width:0.8;"/>
     </g>
     <g id="line2d_10">
      <g>
       <use style="stroke:#000000;stroke-width:0.8;" x="222.34125" xlink:href="#mb413a8b36e" y="288.430125"/>
      </g>
     </g>
     <g id="text_5">
      <!-- 0 -->
      <g transform="translate(219.16 303.028562)scale(0.1 -0.1)">
       <use xlink:href="#DejaVuSans-30"/>
      </g>
     </g>
    </g>
    <g id="xtick_6">
     <g id="line2d_11">
      <path clip-path="url(#p66f19f98b1)" d="M 266.98125 288.430125 
L 266.98125 22.318125 
" style="fill:none;stroke:#b0b0b0;stroke-linecap:square;stroke-width:0.8;"/>
     </g>
     <g id="line2d_12">
      <g>
       <use style="stroke:#000000;stroke-width:0.8;" x="266.98125" xlink:href="#mb413a8b36e" y="288.430125"/>
      </g>
     </g>
     <g id="text_6">
      <!-- 20000 -->
      <g transform="translate(251.075 303.028562)scale(0.1 -0.1)">
       <use xlink:href="#DejaVuSans-32"/>
       <use x="63.623047" xlink:href="#DejaVuSans-30"/>
       <use x="127.246094" xlink:href="#DejaVuSans-30"/>
       <use x="190.869141" xlink:href="#DejaVuSans-30"/>
       <use x="254.492188" xlink:href="#DejaVuSans-30"/>
      </g>
     </g>
    </g>
    <g id="xtick_7">
     <g id="line2d_13">
      <path clip-path="url(#p66f19f98b1)" d="M 311.62125 288.430125 
L 311.62125 22.318125 
" style="fill:none;stroke:#b0b0b0;stroke-linecap:square;stroke-width:0.8;"/>
     </g>
     <g id="line2d_14">
      <g>
       <use style="stroke:#000000;stroke-width:0.8;" x="311.62125" xlink:href="#mb413a8b36e" y="288.430125"/>
      </g>
     </g>
     <g id="text_7">
      <!-- 40000 -->
      <g transform="translate(295.715 303.028562)scale(0.1 -0.1)">
       <use xlink:href="#DejaVuSans-34"/>
       <use x="63.623047" xlink:href="#DejaVuSans-30"/>
       <use x="127.246094" xlink:href="#DejaVuSans-30"/>
       <use x="190.869141" xlink:href="#DejaVuSans-30"/>
       <use x="254.492188" xlink:href="#DejaVuSans-30"/>
      </g>
     </g>
    </g>
    <g id="xtick_8">
     <g id="line2d_15">
      <path clip-path="url(#p66f19f98b1)" d="M 356.26125 288.430125 
L 356.26125 22.318125 
" style="fill:none;stroke:#b0b0b0;stroke-linecap:square;stroke-width:0.8;"/>
     </g>
     <g id="line2d_16">
      <g>
       <use style="stroke:#000000;stroke-width:0.8;" x="356.26125" xlink:href="#mb413a8b36e" y="288.430125"/>
      </g>
     </g>
     <g id="text_8">
      <!-- 60000 -->
      <g transform="translate(340.355 303.028562)scale(0.1 -0.1)">
       <use xlink:href="#DejaVuSans-36"/>
       <use x="63.623047" xlink:href="#DejaVuSans-30"/>
       <use x="127.246094" xlink:href="#DejaVuSans-30"/>
       <use x="190.869141" xlink:href="#DejaVuSans-30"/>
       <use x="254.492188" xlink:href="#DejaVuSans-30"/>
      </g>
     </g>
    </g>
    <g id="xtick_9">
     <g id="line2d_17">
      <path clip-path="url(#p66f19f98b1)" d="M 400.90125 288.430125 
L 400.90125 22.318125 
" style="fill:none;stroke:#b0b0b0;stroke-linecap:square;stroke-width:0.8;"/>
     </g>
     <g id="line2d_18">
      <g>
       <use style="stroke:#000000;stroke-width:0.8;" x="400.90125" xlink:href="#mb413a8b36e" y="288.430125"/>
      </g>
     </g>
     <g id="text_9">
      <!-- 80000 -->
      <g transform="translate(384.995 303.028562)scale(0.1 -0.1)">
       <use xlink:href="#DejaVuSans-38"/>
       <use x="63.623047" xlink:href="#DejaVuSans-30"/>
       <use x="127.246094" xlink:href="#DejaVuSans-30"/>
       <use x="190.869141" xlink:href="#DejaVuSans-30"/>
       <use x="254.492188" xlink:href="#DejaVuSans-30"/>
      </g>
     </g>
    </g>
    <g id="text_10">
     <!-- Frequenz [kHz] -->
     <defs>
      <path d="M 9.8125 72.90625 
L 51.703125 72.90625 
L 51.703125 64.59375 
L 19.671875 64.59375 
L 19.671875 43.109375 
L 48.578125 43.109375 
L 48.578125 34.8125 
L 19.671875 34.8125 
L 19.671875 0 
L 9.8125 0 
z
" id="DejaVuSans-46"/>
      <path d="M 41.109375 46.296875 
Q 39.59375 47.171875 37.8125 47.578125 
Q 36.03125 48 33.890625 48 
Q 26.265625 48 22.1875 43.046875 
Q 18.109375 38.09375 18.109375 28.8125 
L 18.109375 0 
L 9.078125 0 
L 9.078125 54.6875 
L 18.109375 54.6875 
L 18.109375 46.1875 
Q 20.953125 51.171875 25.484375 53.578125 
Q 30.03125 56 36.53125 56 
Q 37.453125 56 38.578125 55.875 
Q 39.703125 55.765625 41.0625 55.515625 
z
" id="DejaVuSans-72"/>
      <path d="M 56.203125 29.59375 
L 56.203125 25.203125 
L 14.890625 25.203125 
Q 15.484375 15.921875 20.484375 11.0625 
Q 25.484375 6.203125 34.421875 6.203125 
Q 39.59375 6.203125 44.453125 7.46875 
Q 49.3125 8.734375 54.109375 11.28125 
L 54.109375 2.78125 
Q 49.265625 0.734375 44.1875 -0.34375 
Q 39.109375 -1.421875 33.890625 -1.421875 
Q 20.796875 -1.421875 13.15625 6.1875 
Q 5.515625 13.8125 5.515625 26.8125 
Q 5.515625 40.234375 12.765625 48.109375 
Q 20.015625 56 32.328125 56 
Q 43.359375 56 49.78125 48.890625 
Q 56.203125 41.796875 56.203125 29.59375 
M 47.21875 32.234375 
Q 47.125 39.59375 43.09375 43.984375 
Q 39.0625 48.390625 32.421875 48.390625 
Q 24.90625 48.390625 20.390625 44.140625 
Q 15.875 39.890625 15.1875 32.171875 
z
" id="DejaVuSans-65"/>
      <path d="M 14.796875 27.296875 
Q 14.796875 17.390625 18.875 11.75 
Q 22.953125 6.109375 30.078125 6.109375 
Q 37.203125 6.109375 41.296875 11.75 
Q 45.40625 17.390625 45.40625 27.296875 
Q 45.40625 37.203125 41.296875 42.84375 
Q 37.203125 48.484375 30.078125 48.484375 
Q 22.953125 48.484375 18.875 42.84375 
Q 14.796875 37.203125 14.796875 27.296875 
M 45.40625 8.203125 
Q 42.578125 3.328125 38.25 0.953125 
Q 33.9375 -1.421875 27.875 -1.421875 
Q 17.96875 -1.421875 11.734375 6.484375 
Q 5.515625 14.40625 5.515625 27.296875 
Q 5.515625 40.1875 11.734375 48.09375 
Q 17.96875 56 27.875 56 
Q 33.9375 56 38.25 53.625 
Q 42.578125 51.265625 45.40625 46.390625 
L 45.40625 54.6875 
L 54.390625 54.6875 
L 54.390625 -20.796875 
L 45.40625 -20.796875 
z
" id="DejaVuSans-71"/>
      <path d="M 8.5 21.578125 
L 8.5 54.6875 
L 17.484375 54.6875 
L 17.484375 21.921875 
Q 17.484375 14.15625 20.5 10.265625 
Q 23.53125 6.390625 29.59375 6.390625 
Q 36.859375 6.390625 41.078125 11.03125 
Q 45.3125 15.671875 45.3125 23.6875 
L 45.3125 54.6875 
L 54.296875 54.6875 
L 54.296875 0 
L 45.3125 0 
L 45.3125 8.40625 
Q 42.046875 3.421875 37.71875 1 
Q 33.40625 -1.421875 27.6875 -1.421875 
Q 18.265625 -1.421875 13.375 4.4375 
Q 8.5 10.296875 8.5 21.578125 
M 31.109375 56 
z
" id="DejaVuSans-75"/>
      <path d="M 54.890625 33.015625 
L 54.890625 0 
L 45.90625 0 
L 45.90625 32.71875 
Q 45.90625 40.484375 42.875 44.328125 
Q 39.84375 48.1875 33.796875 48.1875 
Q 26.515625 48.1875 22.3125 43.546875 
Q 18.109375 38.921875 18.109375 30.90625 
L 18.109375 0 
L 9.078125 0 
L 9.078125 54.6875 
L 18.109375 54.6875 
L 18.109375 46.1875 
Q 21.34375 51.125 25.703125 53.5625 
Q 30.078125 56 35.796875 56 
Q 45.21875 56 50.046875 50.171875 
Q 54.890625 44.34375 54.890625 33.015625 
" id="DejaVuSans-6e"/>
      <path d="M 5.515625 54.6875 
L 48.1875 54.6875 
L 48.1875 46.484375 
L 14.40625 7.171875 
L 48.1875 7.171875 
L 48.1875 0 
L 4.296875 0 
L 4.296875 8.203125 
L 38.09375 47.515625 
L 5.515625 47.515625 
z
" id="DejaVuSans-7a"/>
      <path id="DejaVuSans-20"/>
      <path d="M 8.59375 75.984375 
L 29.296875 75.984375 
L 29.296875 69 
L 17.578125 69 
L 17.578125 -6.203125 
L 29.296875 -6.203125 
L 29.296875 -13.1875 
L 8.59375 -13.1875 
z
" id="DejaVuSans-5b"/>
      <path d="M 9.078125 75.984375 
L 18.109375 75.984375 
L 18.109375 31.109375 
L 44.921875 54.6875 
L 56.390625 54.6875 
L 27.390625 29.109375 
L 57.625 0 
L 45.90625 0 
L 18.109375 26.703125 
L 18.109375 0 
L 9.078125 0 
z
" id="DejaVuSans-6b"/>
      <path d="M 9.8125 72.90625 
L 19.671875 72.90625 
L 19.671875 43.015625 
L 55.515625 43.015625 
L 55.515625 72.90625 
L 65.375 72.90625 
L 65.375 0 
L 55.515625 0 
L 55.515625 34.71875 
L 19.671875 34.71875 
L 19.671875 0 
L 9.8125 0 
z
" id="DejaVuSans-48"/>
      <path d="M 30.421875 75.984375 
L 30.421875 -13.1875 
L 9.71875 -13.1875 
L 9.71875 -6.203125 
L 21.390625 -6.203125 
L 21.390625 69 
L 9.71875 69 
L 9.71875 75.984375 
z
" id="DejaVuSans-5d"/>
     </defs>
     <g transform="translate(184.357656 316.706687)scale(0.1 -0.1)">
      <use xlink:href="#DejaVuSans-46"/>
      <use x="57.410156" xlink:href="#DejaVuSans-72"/>
      <use x="98.492188" xlink:href="#DejaVuSans-65"/>
      <use x="160.015625" xlink:href="#DejaVuSans-71"/>
      <use x="223.492188" xlink:href="#DejaVuSans-75"/>
      <use x="286.871094" xlink:href="#DejaVuSans-65"/>
      <use x="348.394531" xlink:href="#DejaVuSans-6e"/>
      <use x="411.773438" xlink:href="#DejaVuSans-7a"/>
      <use x="464.263672" xlink:href="#DejaVuSans-20"/>
      <use x="496.050781" xlink:href="#DejaVuSans-5b"/>
      <use x="535.064453" xlink:href="#DejaVuSans-6b"/>
      <use x="592.974609" xlink:href="#DejaVuSans-48"/>
      <use x="668.169922" xlink:href="#DejaVuSans-7a"/>
      <use x="720.660156" xlink:href="#DejaVuSans-5d"/>
     </g>
    </g>
   </g>
   <g id="matplotlib.axis_2">
    <g id="ytick_1">
     <g id="line2d_19">
      <path clip-path="url(#p66f19f98b1)" d="M 43.78125 262.761776 
L 400.90125 262.761776 
" style="fill:none;stroke:#b0b0b0;stroke-linecap:square;stroke-width:0.8;"/>
     </g>
     <g id="line2d_20">
      <defs>
       <path d="M 0 0 
L -3.5 0 
" id="medaef8e518" style="stroke:#000000;stroke-width:0.8;"/>
      </defs>
      <g>
       <use style="stroke:#000000;stroke-width:0.8;" x="43.78125" xlink:href="#medaef8e518" y="262.761776"/>
      </g>
     </g>
     <g id="text_11">
      <!-- 0.0 -->
      <defs>
       <path d="M 10.6875 12.40625 
L 21 12.40625 
L 21 0 
L 10.6875 0 
z
" id="DejaVuSans-2e"/>
      </defs>
      <g transform="translate(20.878125 266.560995)scale(0.1 -0.1)">
       <use xlink:href="#DejaVuSans-30"/>
       <use x="63.623047" xlink:href="#DejaVuSans-2e"/>
       <use x="95.410156" xlink:href="#DejaVuSans-30"/>
      </g>
     </g>
    </g>
    <g id="ytick_2">
     <g id="line2d_21">
      <path clip-path="url(#p66f19f98b1)" d="M 43.78125 217.092246 
L 400.90125 217.092246 
" style="fill:none;stroke:#b0b0b0;stroke-linecap:square;stroke-width:0.8;"/>
     </g>
     <g id="line2d_22">
      <g>
       <use style="stroke:#000000;stroke-width:0.8;" x="43.78125" xlink:href="#medaef8e518" y="217.092246"/>
      </g>
     </g>
     <g id="text_12">
      <!-- 0.2 -->
      <g transform="translate(20.878125 220.891465)scale(0.1 -0.1)">
       <use xlink:href="#DejaVuSans-30"/>
       <use x="63.623047" xlink:href="#DejaVuSans-2e"/>
       <use x="95.410156" xlink:href="#DejaVuSans-32"/>
      </g>
     </g>
    </g>
    <g id="ytick_3">
     <g id="line2d_23">
      <path clip-path="url(#p66f19f98b1)" d="M 43.78125 171.422716 
L 400.90125 171.422716 
" style="fill:none;stroke:#b0b0b0;stroke-linecap:square;stroke-width:0.8;"/>
     </g>
     <g id="line2d_24">
      <g>
       <use style="stroke:#000000;stroke-width:0.8;" x="43.78125" xlink:href="#medaef8e518" y="171.422716"/>
      </g>
     </g>
     <g id="text_13">
      <!-- 0.4 -->
      <g transform="translate(20.878125 175.221934)scale(0.1 -0.1)">
       <use xlink:href="#DejaVuSans-30"/>
       <use x="63.623047" xlink:href="#DejaVuSans-2e"/>
       <use x="95.410156" xlink:href="#DejaVuSans-34"/>
      </g>
     </g>
    </g>
    <g id="ytick_4">
     <g id="line2d_25">
      <path clip-path="url(#p66f19f98b1)" d="M 43.78125 125.753185 
L 400.90125 125.753185 
" style="fill:none;stroke:#b0b0b0;stroke-linecap:square;stroke-width:0.8;"/>
     </g>
     <g id="line2d_26">
      <g>
       <use style="stroke:#000000;stroke-width:0.8;" x="43.78125" xlink:href="#medaef8e518" y="125.753185"/>
      </g>
     </g>
     <g id="text_14">
      <!-- 0.6 -->
      <g transform="translate(20.878125 129.552404)scale(0.1 -0.1)">
       <use xlink:href="#DejaVuSans-30"/>
       <use x="63.623047" xlink:href="#DejaVuSans-2e"/>
       <use x="95.410156" xlink:href="#DejaVuSans-36"/>
      </g>
     </g>
    </g>
    <g id="ytick_5">
     <g id="line2d_27">
      <path clip-path="url(#p66f19f98b1)" d="M 43.78125 80.083655 
L 400.90125 80.083655 
" style="fill:none;stroke:#b0b0b0;stroke-linecap:square;stroke-width:0.8;"/>
     </g>
     <g id="line2d_28">
      <g>
       <use style="stroke:#000000;stroke-width:0.8;" x="43.78125" xlink:href="#medaef8e518" y="80.083655"/>
      </g>
     </g>
     <g id="text_15">
      <!-- 0.8 -->
      <g transform="translate(20.878125 83.882874)scale(0.1 -0.1)">
       <use xlink:href="#DejaVuSans-30"/>
       <use x="63.623047" xlink:href="#DejaVuSans-2e"/>
       <use x="95.410156" xlink:href="#DejaVuSans-38"/>
      </g>
     </g>
    </g>
    <g id="ytick_6">
     <g id="line2d_29">
      <path clip-path="url(#p66f19f98b1)" d="M 43.78125 34.414125 
L 400.90125 34.414125 
" style="fill:none;stroke:#b0b0b0;stroke-linecap:square;stroke-width:0.8;"/>
     </g>
     <g id="line2d_30">
      <g>
       <use style="stroke:#000000;stroke-width:0.8;" x="43.78125" xlink:href="#medaef8e518" y="34.414125"/>
      </g>
     </g>
     <g id="text_16">
      <!-- 1.0 -->
      <defs>
       <path d="M 12.40625 8.296875 
L 28.515625 8.296875 
L 28.515625 63.921875 
L 10.984375 60.40625 
L 10.984375 69.390625 
L 28.421875 72.90625 
L 38.28125 72.90625 
L 38.28125 8.296875 
L 54.390625 8.296875 
L 54.390625 0 
L 12.40625 0 
z
" id="DejaVuSans-31"/>
      </defs>
      <g transform="translate(20.878125 38.213344)scale(0.1 -0.1)">
       <use xlink:href="#DejaVuSans-31"/>
       <use x="63.623047" xlink:href="#DejaVuSans-2e"/>
       <use x="95.410156" xlink:href="#DejaVuSans-30"/>
      </g>
     </g>
    </g>
    <g id="text_17">
     <!-- u.a. -->
     <defs>
      <path d="M 34.28125 27.484375 
Q 23.390625 27.484375 19.1875 25 
Q 14.984375 22.515625 14.984375 16.5 
Q 14.984375 11.71875 18.140625 8.90625 
Q 21.296875 6.109375 26.703125 6.109375 
Q 34.1875 6.109375 38.703125 11.40625 
Q 43.21875 16.703125 43.21875 25.484375 
L 43.21875 27.484375 
z
M 52.203125 31.203125 
L 52.203125 0 
L 43.21875 0 
L 43.21875 8.296875 
Q 40.140625 3.328125 35.546875 0.953125 
Q 30.953125 -1.421875 24.3125 -1.421875 
Q 15.921875 -1.421875 10.953125 3.296875 
Q 6 8.015625 6 15.921875 
Q 6 25.140625 12.171875 29.828125 
Q 18.359375 34.515625 30.609375 34.515625 
L 43.21875 34.515625 
L 43.21875 35.40625 
Q 43.21875 41.609375 39.140625 45 
Q 35.0625 48.390625 27.6875 48.390625 
Q 23 48.390625 18.546875 47.265625 
Q 14.109375 46.140625 10.015625 43.890625 
L 10.015625 52.203125 
Q 14.9375 54.109375 19.578125 55.046875 
Q 24.21875 56 28.609375 56 
Q 40.484375 56 46.34375 49.84375 
Q 52.203125 43.703125 52.203125 31.203125 
" id="DejaVuSans-61"/>
     </defs>
     <g transform="translate(14.798438 164.785062)rotate(-90)scale(0.1 -0.1)">
      <use xlink:href="#DejaVuSans-75"/>
      <use x="63.378906" xlink:href="#DejaVuSans-2e"/>
      <use x="95.166016" xlink:href="#DejaVuSans-61"/>
      <use x="156.445312" xlink:href="#DejaVuSans-2e"/>
     </g>
    </g>
   </g>
   <g id="line2d_31">
    <path clip-path="url(#p66f19f98b1)" d="M 43.606875 253.506949 
L 44.151797 253.104359 
L 44.696719 252.904196 
L 45.241641 252.995574 
L 46.331484 253.602558 
L 46.876406 253.703375 
L 49.601016 253.143958 
L 50.690859 252.581254 
L 51.235781 252.481397 
L 52.870547 252.649375 
L 53.960391 252.360388 
L 56.685 251.260824 
L 57.229922 251.193607 
L 57.774844 251.314319 
L 59.409609 252.222299 
L 59.954531 252.132103 
L 60.499453 251.710244 
L 61.589297 250.545718 
L 62.134219 250.152784 
L 62.679141 249.957353 
L 64.858828 249.674407 
L 66.493594 249.031243 
L 67.583438 248.227285 
L 71.397891 245.18623 
L 71.942813 244.895424 
L 74.1225 244.159751 
L 75.757266 242.546635 
L 76.302188 242.301188 
L 76.847109 242.294751 
L 77.936953 242.440594 
L 78.481875 242.209293 
L 80.116641 240.82762 
L 81.206484 240.655196 
L 81.751406 240.56985 
L 82.84125 240.030782 
L 83.931094 239.163614 
L 85.020938 237.988841 
L 86.110781 236.717155 
L 86.655703 236.32368 
L 87.200625 236.195431 
L 88.290469 236.179395 
L 88.835391 235.890187 
L 89.925234 234.73813 
L 91.015078 233.644416 
L 91.56 233.293167 
L 92.104922 233.115 
L 93.739688 233.004388 
L 97.009219 231.695136 
L 97.554141 231.354357 
L 98.099063 230.811531 
L 99.188906 229.11593 
L 100.27875 227.489211 
L 100.823672 227.045819 
L 102.458438 226.3553 
L 103.548281 225.247013 
L 104.638125 224.198043 
L 106.817813 222.876665 
L 108.9975 220.359683 
L 110.087344 219.414457 
L 111.722109 217.486875 
L 112.811953 216.231151 
L 113.356875 215.770775 
L 114.446719 215.311959 
L 114.991641 215.116903 
L 115.536563 214.756379 
L 116.626406 213.46071 
L 118.261172 211.353083 
L 120.985781 208.484347 
L 123.710391 205.755366 
L 124.800234 204.229471 
L 126.979922 200.881628 
L 129.159609 198.632018 
L 130.794375 196.038661 
L 131.339297 195.408367 
L 132.429141 194.656665 
L 133.518984 194.061931 
L 134.063906 193.510455 
L 135.15375 191.678745 
L 136.243594 189.634943 
L 138.423281 186.349866 
L 139.513125 184.945429 
L 141.692813 182.817499 
L 142.782656 181.225628 
L 143.8725 179.553796 
L 146.052188 176.621927 
L 147.686953 174.477767 
L 148.776797 172.865751 
L 151.501406 168.095203 
L 153.136172 165.740822 
L 154.226016 163.636438 
L 156.950625 157.605535 
L 158.040469 155.863212 
L 160.220156 152.670617 
L 162.399844 149.345173 
L 165.669375 143.714562 
L 166.759219 141.088733 
L 167.849063 138.431835 
L 168.938906 136.633472 
L 170.02875 134.898135 
L 171.663516 131.47645 
L 173.298281 127.872468 
L 174.388125 126.031858 
L 175.477969 124.177671 
L 176.567813 121.652654 
L 178.202578 117.519779 
L 179.292422 115.365229 
L 180.382266 113.339745 
L 183.106875 107.632764 
L 185.286563 103.408596 
L 186.376406 101.047171 
L 190.190859 91.564153 
L 191.280703 89.301468 
L 192.370547 86.52851 
L 195.095156 78.774995 
L 196.185 76.581538 
L 197.274844 74.741907 
L 197.819766 73.435862 
L 200.544375 65.093206 
L 202.724063 59.62726 
L 204.358828 55.699595 
L 205.993594 51.903267 
L 208.173281 46.464721 
L 211.442813 38.733539 
L 211.987734 38.022251 
L 213.077578 37.124204 
L 214.712344 36.06125 
L 216.347109 34.486808 
L 216.892031 34.414125 
L 217.436953 34.697475 
L 218.526797 35.912085 
L 219.616641 37.189434 
L 220.706484 37.990876 
L 221.251406 38.936276 
L 221.796328 41.060958 
L 222.34125 44.611875 
L 223.976016 57.626924 
L 224.520938 60.547868 
L 225.610781 64.709531 
L 229.970156 80.781449 
L 233.239688 94.765835 
L 235.964297 104.19138 
L 238.143984 110.569609 
L 240.868594 119.776728 
L 243.048281 126.29383 
L 245.772891 135.635052 
L 246.862734 138.033103 
L 247.952578 140.301721 
L 249.042422 143.090645 
L 250.677188 148.123185 
L 251.767031 151.365553 
L 252.856875 153.882189 
L 254.491641 157.299571 
L 256.671328 163.031685 
L 258.851016 168.554163 
L 259.940859 170.775623 
L 261.575625 173.957036 
L 265.390078 182.512597 
L 266.479922 184.154517 
L 267.569766 185.843284 
L 270.294375 191.408392 
L 273.018984 195.843908 
L 274.65375 199.131744 
L 275.743594 200.514132 
L 277.378359 202.150856 
L 278.468203 203.655759 
L 279.558047 205.684148 
L 280.647891 207.670772 
L 281.192813 208.261827 
L 282.827578 209.280826 
L 283.917422 210.624686 
L 285.007266 212.407356 
L 287.186953 216.433749 
L 288.276797 217.933793 
L 289.366641 219.107764 
L 289.911563 219.487654 
L 290.456484 219.685515 
L 291.546328 219.825317 
L 292.09125 220.052615 
L 293.181094 221.055555 
L 294.270938 222.394708 
L 296.995547 226.30419 
L 299.720156 229.612449 
L 300.81 230.687093 
L 301.354922 231.023297 
L 303.534609 231.718675 
L 306.804141 234.112827 
L 309.52875 237.327736 
L 310.618594 238.782081 
L 311.163516 239.303865 
L 311.708438 239.556963 
L 312.798281 239.73344 
L 313.888125 240.328059 
L 315.522891 241.422123 
L 316.067813 241.649446 
L 317.157656 241.746228 
L 318.2475 241.831767 
L 318.792422 242.037945 
L 319.337344 242.387646 
L 320.427188 243.535876 
L 322.061953 245.666849 
L 322.606875 246.220407 
L 323.151797 246.580112 
L 323.696719 246.710046 
L 325.331484 246.642071 
L 325.876406 246.855603 
L 327.511172 247.893075 
L 328.056094 248.017514 
L 329.690859 247.979489 
L 330.235781 248.248783 
L 331.325625 249.063714 
L 331.870547 249.261479 
L 332.415469 249.213696 
L 333.505313 248.913309 
L 334.050234 248.950598 
L 335.140078 249.386129 
L 337.319766 250.695072 
L 338.954531 251.849714 
L 340.044375 252.089094 
L 342.768984 252.238106 
L 343.858828 252.449358 
L 344.40375 252.72998 
L 346.038516 254.002862 
L 346.583438 254.206391 
L 348.218203 254.238949 
L 349.852969 254.759037 
L 351.487734 254.840062 
L 353.1225 255.204737 
L 354.757266 255.100327 
L 355.302188 255.316636 
L 356.392031 256.21048 
L 356.936953 256.697254 
L 357.481875 257.023277 
L 358.026797 257.103388 
L 360.206484 256.65803 
L 360.751406 256.834408 
L 362.386172 257.791399 
L 362.931094 257.895207 
L 364.020938 257.729558 
L 366.200625 257.204654 
L 366.745547 257.299813 
L 367.835391 258.009969 
L 368.380313 258.399761 
L 368.925234 258.605696 
L 370.015078 258.44034 
L 370.56 258.407943 
L 372.194766 259.006384 
L 372.739688 258.842525 
L 373.829531 258.094804 
L 374.374453 257.918827 
L 374.919375 257.977595 
L 376.554141 258.736804 
L 377.099063 258.754419 
L 378.733828 258.243818 
L 380.913516 258.128394 
L 381.458438 258.193975 
L 382.003359 258.388254 
L 383.093203 259.127167 
L 384.183047 259.957716 
L 385.272891 260.478486 
L 387.452578 261.092482 
L 390.177188 261.636631 
L 391.267031 261.600178 
L 392.356875 261.532304 
L 393.991641 261.582825 
L 396.71625 260.96304 
L 399.440859 261.094715 
L 400.530703 261.351692 
L 401.075625 261.358889 
L 401.075625 261.358889 
" style="fill:none;stroke:#1f77b4;stroke-linecap:square;stroke-width:1.5;"/>
   </g>
   <g id="line2d_32">
    <path clip-path="url(#p66f19f98b1)" d="M 43.606875 255.6436 
L 44.151797 255.996243 
L 44.696719 256.176779 
L 45.241641 256.056756 
L 46.331484 255.118206 
L 47.421328 254.191312 
L 47.96625 253.904378 
L 48.511172 253.815444 
L 49.056094 253.985967 
L 50.145938 254.622315 
L 50.690859 254.586808 
L 51.235781 254.138622 
L 52.870547 252.064897 
L 53.415469 251.905509 
L 55.050234 252.418536 
L 55.595156 252.251013 
L 56.140078 251.846116 
L 57.774844 250.075837 
L 58.319766 249.817583 
L 58.864688 249.853183 
L 59.954531 250.09532 
L 60.499453 249.972818 
L 62.679141 248.718317 
L 68.128359 245.856977 
L 68.673281 245.846075 
L 70.308047 246.480939 
L 70.852969 246.438115 
L 73.032656 245.619953 
L 74.1225 244.939273 
L 74.667422 244.431338 
L 76.302188 242.259126 
L 76.847109 241.984325 
L 77.392031 242.167216 
L 78.481875 243.023874 
L 79.026797 243.201394 
L 79.571719 243.103946 
L 80.116641 242.792653 
L 81.206484 241.8375 
L 84.476016 238.717214 
L 85.565859 237.982858 
L 86.110781 237.764128 
L 86.655703 237.881964 
L 88.290469 239.255387 
L 88.835391 239.133948 
L 89.380313 238.626173 
L 91.56 236.002382 
L 92.104922 235.526986 
L 93.194766 235.017085 
L 94.284609 234.587003 
L 95.374453 233.717491 
L 97.009219 232.205834 
L 99.188906 230.801679 
L 100.27875 229.800668 
L 100.823672 229.499004 
L 102.458438 229.277437 
L 103.548281 228.569824 
L 105.727969 226.811162 
L 107.907656 225.477043 
L 108.452578 224.814396 
L 109.542422 222.706659 
L 110.087344 221.66396 
L 110.632266 220.952721 
L 111.177188 220.61625 
L 112.267031 220.310672 
L 114.446719 219.012871 
L 114.991641 218.94551 
L 115.536563 218.746868 
L 116.081484 218.262774 
L 117.171328 216.545178 
L 118.261172 214.605108 
L 119.351016 213.144883 
L 120.440859 212.113596 
L 121.530703 211.460176 
L 122.620547 210.843219 
L 123.710391 209.628723 
L 124.800234 208.298235 
L 126.435 206.52058 
L 128.614688 203.27882 
L 129.704531 202.251359 
L 130.794375 201.378916 
L 131.884219 200.110796 
L 132.974063 198.758262 
L 134.063906 197.915108 
L 135.15375 197.079643 
L 136.243594 195.788162 
L 137.333438 194.008396 
L 138.968203 190.867965 
L 139.513125 190.077595 
L 141.692813 187.641741 
L 143.327578 184.90898 
L 143.8725 184.450447 
L 144.962344 183.872938 
L 145.507266 183.36557 
L 147.142031 181.242115 
L 147.686953 180.370079 
L 148.776797 177.970121 
L 149.866641 175.276417 
L 150.956484 173.325891 
L 152.59125 171.00205 
L 154.226016 168.309392 
L 155.860781 166.175522 
L 158.040469 161.81483 
L 159.675234 159.551979 
L 164.579531 150.980438 
L 167.849063 144.338206 
L 168.938906 142.650685 
L 169.483828 141.536871 
L 170.573672 138.544658 
L 171.663516 135.597118 
L 172.208438 134.473254 
L 172.753359 133.621162 
L 173.843203 132.545244 
L 174.388125 132.030704 
L 174.933047 131.315677 
L 175.477969 130.345533 
L 176.567813 127.630979 
L 177.657656 124.451398 
L 178.202578 123.248261 
L 179.837344 120.791246 
L 180.927188 118.360091 
L 182.561953 114.802032 
L 184.741641 109.975185 
L 186.921328 104.765989 
L 188.011172 102.318586 
L 189.101016 99.441662 
L 191.825625 91.766409 
L 192.915469 89.468182 
L 194.005313 86.421933 
L 195.640078 81.263929 
L 197.274844 77.141817 
L 199.999453 70.563303 
L 201.634219 67.219709 
L 202.724063 64.101485 
L 207.628359 49.396477 
L 210.352969 41.668547 
L 211.442813 38.888314 
L 212.532656 36.699425 
L 213.6225 35.171882 
L 214.167422 34.723195 
L 214.712344 34.495464 
L 215.802188 34.414125 
L 217.436953 34.561756 
L 217.981875 34.702555 
L 218.526797 35.051787 
L 220.706484 37.613696 
L 221.251406 38.869661 
L 221.796328 41.421421 
L 222.34125 45.453769 
L 223.976016 59.685706 
L 225.065859 65.915108 
L 226.155703 70.230224 
L 227.245547 73.428127 
L 228.335391 76.295173 
L 229.425234 80.088107 
L 232.694766 93.254656 
L 236.509219 106.335153 
L 239.233828 115.297529 
L 240.868594 121.33331 
L 241.958438 124.483633 
L 243.593203 128.944034 
L 246.317813 137.61187 
L 247.407656 141.016822 
L 249.587344 147.136162 
L 250.677188 150.374856 
L 251.767031 152.405246 
L 252.311953 153.410156 
L 253.401797 156.323783 
L 254.491641 159.448818 
L 255.581484 161.854091 
L 256.671328 164.130604 
L 257.761172 166.975316 
L 259.940859 173.352359 
L 260.485781 174.424547 
L 261.030703 175.095358 
L 262.120547 175.946274 
L 262.665469 176.690361 
L 263.755313 179.194493 
L 264.845156 181.627898 
L 265.935 183.193348 
L 267.024844 184.370442 
L 267.569766 185.182986 
L 268.114688 186.407336 
L 269.749453 191.183189 
L 271.384219 194.616838 
L 272.474063 196.559479 
L 274.108828 198.933679 
L 275.743594 201.704097 
L 280.102969 207.615214 
L 282.282656 211.524985 
L 283.3725 212.660516 
L 285.007266 214.155212 
L 287.186953 216.861978 
L 289.366641 219.522632 
L 290.456484 220.415082 
L 292.09125 221.327416 
L 292.636172 221.792127 
L 293.181094 222.405132 
L 294.270938 224.09795 
L 295.360781 225.678513 
L 296.995547 227.34683 
L 299.175234 230.502243 
L 299.720156 230.991115 
L 300.265078 231.213378 
L 300.81 231.136537 
L 301.899844 230.603194 
L 302.444766 230.632626 
L 302.989688 231.083622 
L 303.534609 231.933973 
L 305.169375 235.047321 
L 305.714297 235.712837 
L 306.804141 236.526986 
L 308.438906 237.698551 
L 309.52875 238.671765 
L 310.618594 239.759946 
L 311.708438 240.428661 
L 313.888125 241.285523 
L 314.977969 241.246621 
L 315.522891 241.414815 
L 316.612734 242.345663 
L 317.702578 243.285151 
L 319.337344 244.360695 
L 319.882266 244.565388 
L 320.427188 244.531768 
L 321.517031 244.113381 
L 322.061953 244.226498 
L 322.606875 244.691528 
L 325.331484 247.905478 
L 325.876406 248.340188 
L 326.421328 248.572862 
L 326.96625 248.595164 
L 328.056094 248.20651 
L 328.601016 247.987885 
L 329.145938 247.917685 
L 329.690859 248.043668 
L 332.415469 249.424865 
L 332.960391 249.902786 
L 334.050234 251.211178 
L 334.595156 251.643443 
L 335.140078 251.697108 
L 335.685 251.417242 
L 336.774844 250.544334 
L 337.319766 250.285996 
L 337.864688 250.318172 
L 338.409609 250.709064 
L 338.954531 251.443869 
L 340.044375 253.37676 
L 340.589297 254.092662 
L 341.134219 254.373163 
L 341.679141 254.258489 
L 342.224063 254.008906 
L 342.768984 253.926579 
L 343.313906 254.148371 
L 344.40375 255.01942 
L 344.948672 255.232346 
L 345.493594 255.132307 
L 346.583438 254.473657 
L 347.128359 254.315789 
L 347.673281 254.395678 
L 349.308047 255.15569 
L 349.852969 255.127712 
L 351.487734 254.436795 
L 352.032656 254.574387 
L 352.577578 255.006141 
L 353.667422 256.131565 
L 354.212344 256.414316 
L 354.757266 256.381085 
L 355.847109 256.049624 
L 356.392031 256.24647 
L 358.026797 257.606294 
L 358.571719 257.62055 
L 359.661563 257.098615 
L 360.751406 256.541862 
L 361.296328 256.404454 
L 361.84125 256.463732 
L 362.386172 256.771462 
L 364.020938 258.121347 
L 365.655703 258.855964 
L 366.200625 259.184975 
L 366.745547 259.295985 
L 367.290469 259.076676 
L 368.380313 258.363672 
L 368.925234 258.33875 
L 370.56 258.839184 
L 371.649844 258.674025 
L 372.739688 258.475572 
L 373.284609 258.554534 
L 374.919375 259.166028 
L 375.464297 259.11951 
L 376.554141 258.855854 
L 377.099063 258.961161 
L 378.733828 259.845317 
L 379.27875 259.909965 
L 380.368594 259.64035 
L 381.458438 259.419398 
L 382.003359 259.522484 
L 383.638125 260.107577 
L 385.272891 260.038164 
L 386.907656 260.438467 
L 387.452578 260.239066 
L 388.542422 259.531574 
L 389.087344 259.478327 
L 389.632266 259.709996 
L 391.267031 260.778836 
L 391.811953 260.877073 
L 392.356875 260.773719 
L 393.991641 260.216957 
L 395.081484 260.298931 
L 396.171328 260.428262 
L 398.351016 259.989481 
L 398.895938 260.272942 
L 399.985781 261.078086 
L 400.530703 261.233066 
L 401.075625 261.10415 
L 401.075625 261.10415 
" style="fill:none;stroke:#ff7f0e;stroke-linecap:square;stroke-width:1.5;"/>
   </g>
   <g id="line2d_33">
    <path clip-path="url(#p66f19f98b1)" d="M 43.606875 259.024161 
L 44.151797 259.161422 
L 44.696719 259.469467 
L 45.241641 260.101319 
L 46.876406 262.887817 
L 47.421328 263.207083 
L 47.96625 263.113974 
L 48.511172 262.720256 
L 49.056094 262.015231 
L 50.690859 259.019954 
L 51.235781 258.898574 
L 51.780703 259.459827 
L 52.870547 261.023592 
L 53.415469 261.412179 
L 53.960391 261.474904 
L 54.505313 261.132836 
L 55.050234 260.279609 
L 55.595156 259.127524 
L 56.140078 258.306819 
L 56.685 258.420287 
L 57.774844 260.688772 
L 58.319766 261.189068 
L 58.864688 260.544417 
L 59.954531 257.791421 
L 60.499453 257.193027 
L 61.044375 257.408748 
L 61.589297 257.935275 
L 62.134219 258.144004 
L 62.679141 257.74015 
L 63.224063 256.835529 
L 64.313906 254.625946 
L 64.858828 253.819184 
L 65.40375 253.490483 
L 65.948672 253.725154 
L 66.493594 254.442221 
L 67.583438 256.315703 
L 68.128359 256.893627 
L 68.673281 257.134248 
L 69.218203 257.20005 
L 69.763125 257.104552 
L 70.308047 256.632333 
L 71.397891 254.773395 
L 71.942813 254.414109 
L 72.487734 254.890231 
L 73.577578 256.671329 
L 74.1225 257.010878 
L 74.667422 256.865913 
L 75.212344 256.329716 
L 75.757266 255.410715 
L 76.847109 253.186583 
L 77.392031 252.698123 
L 77.936953 252.734388 
L 79.026797 252.997501 
L 80.116641 253.097579 
L 80.661563 252.999178 
L 81.751406 252.087915 
L 82.296328 252.012402 
L 82.84125 252.769122 
L 83.386172 254.338275 
L 84.476016 258.117914 
L 85.020938 259.314837 
L 85.565859 259.661129 
L 86.110781 258.941761 
L 86.655703 256.72456 
L 87.200625 252.701897 
L 88.290469 243.014081 
L 88.835391 240.738911 
L 89.380313 240.940301 
L 89.925234 242.6823 
L 91.56 249.590292 
L 92.104922 251.32014 
L 92.649844 252.341256 
L 93.194766 252.549999 
L 93.739688 251.958436 
L 94.284609 250.725299 
L 95.374453 247.813301 
L 95.919375 246.921385 
L 96.464297 246.617072 
L 98.099063 246.840649 
L 98.643984 246.760965 
L 99.188906 246.794614 
L 100.27875 247.156614 
L 100.823672 247.049717 
L 101.368594 246.556446 
L 102.458438 245.093507 
L 103.003359 244.763197 
L 103.548281 245.076501 
L 104.638125 246.659143 
L 105.183047 246.485371 
L 105.727969 245.223456 
L 106.817813 242.080085 
L 107.362734 241.315243 
L 107.907656 241.052205 
L 108.452578 241.071126 
L 110.087344 241.715866 
L 110.632266 241.694481 
L 111.177188 241.460606 
L 111.722109 241.042512 
L 113.356875 239.327209 
L 114.446719 238.736105 
L 114.991641 238.419567 
L 115.536563 237.819966 
L 116.081484 236.822121 
L 117.171328 234.544531 
L 117.71625 234.03375 
L 118.261172 233.981616 
L 119.351016 234.222994 
L 119.895938 234.64467 
L 120.440859 235.506876 
L 121.530703 237.550691 
L 122.075625 237.943834 
L 122.620547 237.596904 
L 123.165469 236.470377 
L 124.800234 231.322344 
L 125.345156 230.270576 
L 125.890078 229.881802 
L 126.435 230.26382 
L 126.979922 231.339142 
L 127.524844 232.668771 
L 128.069766 233.590434 
L 128.614688 233.612783 
L 129.159609 232.733539 
L 130.249453 230.319425 
L 130.794375 229.632537 
L 132.429141 228.057111 
L 132.974063 227.903789 
L 134.063906 228.567402 
L 134.608828 228.372989 
L 135.15375 227.481197 
L 136.243594 225.054243 
L 136.788516 224.112462 
L 137.333438 223.477713 
L 137.878359 223.292609 
L 138.423281 223.667059 
L 139.513125 225.024076 
L 140.058047 224.910712 
L 140.602969 223.758856 
L 142.237734 217.993302 
L 142.782656 217.31065 
L 144.417422 217.10186 
L 144.962344 217.169589 
L 146.052188 217.740867 
L 146.597109 217.518874 
L 147.142031 216.636839 
L 147.686953 215.220636 
L 148.776797 211.462287 
L 149.866641 207.254851 
L 150.411563 205.577001 
L 150.956484 204.463778 
L 151.501406 203.830605 
L 152.046328 203.464338 
L 152.59125 203.313161 
L 153.136172 203.609043 
L 153.681094 204.592667 
L 154.226016 206.037071 
L 154.770938 207.155857 
L 155.315859 207.162256 
L 155.860781 205.896956 
L 157.495547 199.630251 
L 158.040469 198.430688 
L 158.585391 198.201101 
L 159.130313 198.783889 
L 159.675234 199.569538 
L 160.220156 199.803581 
L 160.765078 199.049467 
L 161.31 197.411369 
L 162.399844 193.53133 
L 162.944766 192.216451 
L 163.489688 191.50212 
L 164.034609 191.222746 
L 165.669375 191.038049 
L 166.214297 191.071393 
L 166.759219 190.941363 
L 167.304141 190.026381 
L 167.849063 187.793664 
L 168.938906 181.027524 
L 169.483828 178.667501 
L 170.02875 177.800749 
L 171.118594 178.10837 
L 171.663516 177.832786 
L 172.208438 177.105557 
L 173.843203 174.133974 
L 174.388125 173.16106 
L 174.933047 172.429973 
L 177.112734 170.341809 
L 177.657656 169.664136 
L 178.202578 168.724588 
L 178.7475 167.329772 
L 179.837344 163.464574 
L 180.927188 159.58585 
L 182.017031 156.429352 
L 184.196719 150.789426 
L 185.286563 147.048665 
L 187.46625 138.203072 
L 188.556094 135.612789 
L 190.190859 132.219888 
L 191.825625 129.716755 
L 192.370547 128.491817 
L 193.460391 125.018958 
L 195.640078 116.999933 
L 196.185 115.74665 
L 197.274844 113.608412 
L 197.819766 111.83934 
L 202.179141 93.200531 
L 203.813906 85.016989 
L 204.358828 83.049915 
L 204.90375 81.990148 
L 205.993594 81.229393 
L 206.538516 79.877357 
L 207.083438 77.223953 
L 209.263125 63.626426 
L 210.352969 56.764598 
L 211.442813 49.68607 
L 211.987734 46.949967 
L 212.532656 45.111701 
L 213.077578 44.202097 
L 213.6225 44.036684 
L 214.712344 44.498352 
L 215.257266 44.412783 
L 215.802188 43.93093 
L 216.892031 42.236214 
L 217.981875 40.519579 
L 218.526797 39.751013 
L 219.071719 38.698957 
L 220.161563 35.224806 
L 220.706484 34.414125 
L 221.251406 36.351753 
L 221.796328 41.90679 
L 223.431094 64.859938 
L 223.976016 68.721231 
L 225.065859 72.797011 
L 226.155703 76.066849 
L 227.245547 79.052286 
L 227.790469 81.304991 
L 229.425234 89.533832 
L 231.06 96.985557 
L 232.149844 102.256642 
L 233.784609 108.775539 
L 234.874453 113.975221 
L 235.964297 117.79345 
L 236.509219 119.57426 
L 237.054141 121.876436 
L 238.143984 128.246252 
L 239.233828 134.882626 
L 239.77875 137.068581 
L 240.323672 138.246693 
L 240.868594 138.863963 
L 241.413516 139.655289 
L 241.958438 141.159626 
L 244.138125 149.599927 
L 246.862734 157.966579 
L 248.4975 160.980448 
L 249.042422 162.530125 
L 251.222109 170.965513 
L 252.311953 173.630349 
L 253.401797 176.162468 
L 254.491641 179.62027 
L 255.036563 181.430302 
L 255.581484 182.850365 
L 256.126406 183.620946 
L 257.21625 184.102457 
L 257.761172 184.954787 
L 258.851016 188.054649 
L 259.395938 188.995093 
L 260.485781 189.437035 
L 261.030703 190.495435 
L 262.120547 195.143153 
L 262.665469 197.317437 
L 263.210391 198.819988 
L 264.300234 200.758722 
L 264.845156 201.416165 
L 265.390078 201.671037 
L 266.479922 201.512859 
L 267.024844 202.03018 
L 267.569766 203.387281 
L 268.659609 207.330196 
L 269.204531 208.739727 
L 269.749453 209.450369 
L 270.839297 210.250471 
L 271.384219 211.073322 
L 272.474063 213.387354 
L 273.018984 214.130297 
L 273.563906 214.302369 
L 274.108828 214.345532 
L 274.65375 214.970711 
L 276.288516 219.17044 
L 277.378359 220.335103 
L 277.923281 221.395171 
L 279.013125 224.323535 
L 279.558047 225.411649 
L 280.102969 226.151803 
L 281.192813 227.100194 
L 281.737734 227.341135 
L 282.827578 227.472865 
L 284.462344 227.397037 
L 285.007266 227.578249 
L 285.552188 228.059586 
L 287.186953 230.213464 
L 287.731875 230.662604 
L 289.366641 231.371522 
L 289.911563 232.151579 
L 291.001406 234.972588 
L 291.546328 236.443263 
L 292.09125 237.496561 
L 292.636172 237.960442 
L 293.181094 237.91365 
L 294.270938 237.349294 
L 294.815859 237.309438 
L 295.360781 237.551055 
L 296.450625 238.243114 
L 296.995547 238.34372 
L 298.085391 238.261578 
L 299.175234 238.141783 
L 299.720156 238.629173 
L 300.265078 239.845314 
L 301.354922 242.954199 
L 301.899844 243.895125 
L 302.444766 244.375175 
L 304.079531 245.242339 
L 304.624453 245.770634 
L 305.714297 247.369343 
L 306.804141 249.264183 
L 307.349063 249.709519 
L 307.893984 249.250968 
L 308.438906 247.822155 
L 308.983828 245.967454 
L 309.52875 244.511761 
L 310.073672 243.895111 
L 310.618594 243.894697 
L 311.708438 244.248561 
L 312.253359 244.882097 
L 312.798281 246.359558 
L 313.888125 250.836601 
L 314.433047 252.269113 
L 314.977969 252.549888 
L 316.067813 251.559038 
L 316.612734 251.548837 
L 317.157656 252.184261 
L 318.2475 254.669587 
L 318.792422 255.938314 
L 319.337344 256.834489 
L 319.882266 257.238735 
L 320.427188 257.29996 
L 320.972109 257.224534 
L 321.517031 256.943473 
L 322.061953 256.186796 
L 323.151797 253.755358 
L 323.696719 253.24871 
L 324.241641 253.704722 
L 325.331484 255.988309 
L 325.876406 256.693853 
L 326.421328 256.658988 
L 326.96625 255.880946 
L 328.056094 253.38409 
L 328.601016 252.521757 
L 329.145938 252.210738 
L 329.690859 252.434638 
L 330.235781 253.13503 
L 330.780703 254.24015 
L 332.415469 258.39121 
L 332.960391 259.182653 
L 333.505313 259.275407 
L 334.050234 258.699709 
L 336.229922 254.679775 
L 337.864688 252.46749 
L 338.409609 252.16408 
L 338.954531 252.497607 
L 340.589297 254.923865 
L 341.679141 256.336801 
L 342.768984 258.403953 
L 343.313906 259.106455 
L 343.858828 259.036665 
L 344.40375 258.046413 
L 346.038516 253.036077 
L 346.583438 252.358043 
L 347.128359 252.743274 
L 347.673281 254.044889 
L 348.218203 255.641881 
L 348.763125 256.770998 
L 349.308047 257.071474 
L 350.397891 256.660805 
L 350.942813 257.036453 
L 352.577578 259.762519 
L 353.1225 259.890416 
L 353.667422 259.297474 
L 355.302188 256.004399 
L 355.847109 256.284342 
L 356.392031 257.960188 
L 356.936953 260.404382 
L 357.481875 262.291478 
L 358.026797 262.600491 
L 358.571719 261.370068 
L 359.661563 257.585609 
L 360.206484 256.4218 
L 360.751406 256.241489 
L 361.296328 257.105298 
L 362.931094 261.598915 
L 363.476016 262.130219 
L 364.020938 262.116074 
L 365.110781 261.497948 
L 365.655703 261.025555 
L 366.200625 260.308826 
L 367.290469 258.513696 
L 367.835391 258.12774 
L 368.380313 258.428997 
L 368.925234 259.28443 
L 370.015078 261.315488 
L 370.56 261.921062 
L 371.104922 262.002478 
L 371.649844 261.526773 
L 372.739688 259.859075 
L 373.284609 259.339639 
L 373.829531 259.205292 
L 374.374453 259.378498 
L 375.464297 260.076086 
L 376.009219 260.054929 
L 376.554141 259.532128 
L 377.643984 258.207824 
L 378.733828 257.448172 
L 379.823672 255.754735 
L 380.368594 255.500089 
L 380.913516 256.230199 
L 382.003359 259.095065 
L 382.548281 260.068463 
L 383.093203 260.470416 
L 383.638125 260.465563 
L 384.183047 260.223057 
L 385.272891 259.301031 
L 385.817813 258.824581 
L 386.362734 258.504624 
L 386.907656 258.360913 
L 387.452578 258.39192 
L 387.9975 258.697777 
L 388.542422 259.441001 
L 389.087344 260.661216 
L 390.177188 263.598258 
L 390.722109 264.679081 
L 391.267031 265.227171 
L 391.811953 265.174943 
L 392.356875 264.565625 
L 393.446719 262.267479 
L 393.991641 261.064616 
L 394.536563 260.399147 
L 395.081484 260.700933 
L 395.626406 261.957045 
L 396.71625 265.116743 
L 397.261172 266.095953 
L 397.806094 266.522267 
L 398.351016 266.32602 
L 398.895938 265.492772 
L 399.985781 263.242004 
L 400.530703 262.699374 
L 401.075625 262.795111 
L 401.075625 262.795111 
" style="fill:none;stroke:#2ca02c;stroke-linecap:square;stroke-width:1.5;"/>
   </g>
   <g id="patch_3">
    <path d="M 43.78125 288.430125 
L 43.78125 22.318125 
" style="fill:none;stroke:#000000;stroke-linecap:square;stroke-linejoin:miter;stroke-width:0.8;"/>
   </g>
   <g id="patch_4">
    <path d="M 400.90125 288.430125 
L 400.90125 22.318125 
" style="fill:none;stroke:#000000;stroke-linecap:square;stroke-linejoin:miter;stroke-width:0.8;"/>
   </g>
   <g id="patch_5">
    <path d="M 43.78125 288.430125 
L 400.90125 288.430125 
" style="fill:none;stroke:#000000;stroke-linecap:square;stroke-linejoin:miter;stroke-width:0.8;"/>
   </g>
   <g id="patch_6">
    <path d="M 43.78125 22.318125 
L 400.90125 22.318125 
" style="fill:none;stroke:#000000;stroke-linecap:square;stroke-linejoin:miter;stroke-width:0.8;"/>
   </g>
   <g id="text_18">
    <!-- Spektrum Vergleich -->
    <defs>
     <path d="M 53.515625 70.515625 
L 53.515625 60.890625 
Q 47.90625 63.578125 42.921875 64.890625 
Q 37.9375 66.21875 33.296875 66.21875 
Q 25.25 66.21875 20.875 63.09375 
Q 16.5 59.96875 16.5 54.203125 
Q 16.5 49.359375 19.40625 46.890625 
Q 22.3125 44.4375 30.421875 42.921875 
L 36.375 41.703125 
Q 47.40625 39.59375 52.65625 34.296875 
Q 57.90625 29 57.90625 20.125 
Q 57.90625 9.515625 50.796875 4.046875 
Q 43.703125 -1.421875 29.984375 -1.421875 
Q 24.8125 -1.421875 18.96875 -0.25 
Q 13.140625 0.921875 6.890625 3.21875 
L 6.890625 13.375 
Q 12.890625 10.015625 18.65625 8.296875 
Q 24.421875 6.59375 29.984375 6.59375 
Q 38.421875 6.59375 43.015625 9.90625 
Q 47.609375 13.234375 47.609375 19.390625 
Q 47.609375 24.75 44.3125 27.78125 
Q 41.015625 30.8125 33.5 32.328125 
L 27.484375 33.5 
Q 16.453125 35.6875 11.515625 40.375 
Q 6.59375 45.0625 6.59375 53.421875 
Q 6.59375 63.09375 13.40625 68.65625 
Q 20.21875 74.21875 32.171875 74.21875 
Q 37.3125 74.21875 42.625 73.28125 
Q 47.953125 72.359375 53.515625 70.515625 
" id="DejaVuSans-53"/>
     <path d="M 18.109375 8.203125 
L 18.109375 -20.796875 
L 9.078125 -20.796875 
L 9.078125 54.6875 
L 18.109375 54.6875 
L 18.109375 46.390625 
Q 20.953125 51.265625 25.265625 53.625 
Q 29.59375 56 35.59375 56 
Q 45.5625 56 51.78125 48.09375 
Q 58.015625 40.1875 58.015625 27.296875 
Q 58.015625 14.40625 51.78125 6.484375 
Q 45.5625 -1.421875 35.59375 -1.421875 
Q 29.59375 -1.421875 25.265625 0.953125 
Q 20.953125 3.328125 18.109375 8.203125 
M 48.6875 27.296875 
Q 48.6875 37.203125 44.609375 42.84375 
Q 40.53125 48.484375 33.40625 48.484375 
Q 26.265625 48.484375 22.1875 42.84375 
Q 18.109375 37.203125 18.109375 27.296875 
Q 18.109375 17.390625 22.1875 11.75 
Q 26.265625 6.109375 33.40625 6.109375 
Q 40.53125 6.109375 44.609375 11.75 
Q 48.6875 17.390625 48.6875 27.296875 
" id="DejaVuSans-70"/>
     <path d="M 18.3125 70.21875 
L 18.3125 54.6875 
L 36.8125 54.6875 
L 36.8125 47.703125 
L 18.3125 47.703125 
L 18.3125 18.015625 
Q 18.3125 11.328125 20.140625 9.421875 
Q 21.96875 7.515625 27.59375 7.515625 
L 36.8125 7.515625 
L 36.8125 0 
L 27.59375 0 
Q 17.1875 0 13.234375 3.875 
Q 9.28125 7.765625 9.28125 18.015625 
L 9.28125 47.703125 
L 2.6875 47.703125 
L 2.6875 54.6875 
L 9.28125 54.6875 
L 9.28125 70.21875 
z
" id="DejaVuSans-74"/>
     <path d="M 52 44.1875 
Q 55.375 50.25 60.0625 53.125 
Q 64.75 56 71.09375 56 
Q 79.640625 56 84.28125 50.015625 
Q 88.921875 44.046875 88.921875 33.015625 
L 88.921875 0 
L 79.890625 0 
L 79.890625 32.71875 
Q 79.890625 40.578125 77.09375 44.375 
Q 74.3125 48.1875 68.609375 48.1875 
Q 61.625 48.1875 57.5625 43.546875 
Q 53.515625 38.921875 53.515625 30.90625 
L 53.515625 0 
L 44.484375 0 
L 44.484375 32.71875 
Q 44.484375 40.625 41.703125 44.40625 
Q 38.921875 48.1875 33.109375 48.1875 
Q 26.21875 48.1875 22.15625 43.53125 
Q 18.109375 38.875 18.109375 30.90625 
L 18.109375 0 
L 9.078125 0 
L 9.078125 54.6875 
L 18.109375 54.6875 
L 18.109375 46.1875 
Q 21.1875 51.21875 25.484375 53.609375 
Q 29.78125 56 35.6875 56 
Q 41.65625 56 45.828125 52.96875 
Q 50 49.953125 52 44.1875 
" id="DejaVuSans-6d"/>
     <path d="M 28.609375 0 
L 0.78125 72.90625 
L 11.078125 72.90625 
L 34.1875 11.53125 
L 57.328125 72.90625 
L 67.578125 72.90625 
L 39.796875 0 
z
" id="DejaVuSans-56"/>
     <path d="M 45.40625 27.984375 
Q 45.40625 37.75 41.375 43.109375 
Q 37.359375 48.484375 30.078125 48.484375 
Q 22.859375 48.484375 18.828125 43.109375 
Q 14.796875 37.75 14.796875 27.984375 
Q 14.796875 18.265625 18.828125 12.890625 
Q 22.859375 7.515625 30.078125 7.515625 
Q 37.359375 7.515625 41.375 12.890625 
Q 45.40625 18.265625 45.40625 27.984375 
M 54.390625 6.78125 
Q 54.390625 -7.171875 48.1875 -13.984375 
Q 42 -20.796875 29.203125 -20.796875 
Q 24.46875 -20.796875 20.265625 -20.09375 
Q 16.0625 -19.390625 12.109375 -17.921875 
L 12.109375 -9.1875 
Q 16.0625 -11.328125 19.921875 -12.34375 
Q 23.78125 -13.375 27.78125 -13.375 
Q 36.625 -13.375 41.015625 -8.765625 
Q 45.40625 -4.15625 45.40625 5.171875 
L 45.40625 9.625 
Q 42.625 4.78125 38.28125 2.390625 
Q 33.9375 0 27.875 0 
Q 17.828125 0 11.671875 7.65625 
Q 5.515625 15.328125 5.515625 27.984375 
Q 5.515625 40.671875 11.671875 48.328125 
Q 17.828125 56 27.875 56 
Q 33.9375 56 38.28125 53.609375 
Q 42.625 51.21875 45.40625 46.390625 
L 45.40625 54.6875 
L 54.390625 54.6875 
z
" id="DejaVuSans-67"/>
     <path d="M 9.421875 75.984375 
L 18.40625 75.984375 
L 18.40625 0 
L 9.421875 0 
z
" id="DejaVuSans-6c"/>
     <path d="M 9.421875 54.6875 
L 18.40625 54.6875 
L 18.40625 0 
L 9.421875 0 
z
M 9.421875 75.984375 
L 18.40625 75.984375 
L 18.40625 64.59375 
L 9.421875 64.59375 
z
" id="DejaVuSans-69"/>
     <path d="M 48.78125 52.59375 
L 48.78125 44.1875 
Q 44.96875 46.296875 41.140625 47.34375 
Q 37.3125 48.390625 33.40625 48.390625 
Q 24.65625 48.390625 19.8125 42.84375 
Q 14.984375 37.3125 14.984375 27.296875 
Q 14.984375 17.28125 19.8125 11.734375 
Q 24.65625 6.203125 33.40625 6.203125 
Q 37.3125 6.203125 41.140625 7.25 
Q 44.96875 8.296875 48.78125 10.40625 
L 48.78125 2.09375 
Q 45.015625 0.34375 40.984375 -0.53125 
Q 36.96875 -1.421875 32.421875 -1.421875 
Q 20.0625 -1.421875 12.78125 6.34375 
Q 5.515625 14.109375 5.515625 27.296875 
Q 5.515625 40.671875 12.859375 48.328125 
Q 20.21875 56 33.015625 56 
Q 37.15625 56 41.109375 55.140625 
Q 45.0625 54.296875 48.78125 52.59375 
" id="DejaVuSans-63"/>
     <path d="M 54.890625 33.015625 
L 54.890625 0 
L 45.90625 0 
L 45.90625 32.71875 
Q 45.90625 40.484375 42.875 44.328125 
Q 39.84375 48.1875 33.796875 48.1875 
Q 26.515625 48.1875 22.3125 43.546875 
Q 18.109375 38.921875 18.109375 30.90625 
L 18.109375 0 
L 9.078125 0 
L 9.078125 75.984375 
L 18.109375 75.984375 
L 18.109375 46.1875 
Q 21.34375 51.125 25.703125 53.5625 
Q 30.078125 56 35.796875 56 
Q 45.21875 56 50.046875 50.171875 
Q 54.890625 44.34375 54.890625 33.015625 
" id="DejaVuSans-68"/>
    </defs>
    <g transform="translate(162.992813 16.318125)scale(0.12 -0.12)">
     <use xlink:href="#DejaVuSans-53"/>
     <use x="63.476562" xlink:href="#DejaVuSans-70"/>
     <use x="126.953125" xlink:href="#DejaVuSans-65"/>
     <use x="188.476562" xlink:href="#DejaVuSans-6b"/>
     <use x="246.386719" xlink:href="#DejaVuSans-74"/>
     <use x="285.595703" xlink:href="#DejaVuSans-72"/>
     <use x="326.708984" xlink:href="#DejaVuSans-75"/>
     <use x="390.087891" xlink:href="#DejaVuSans-6d"/>
     <use x="487.5" xlink:href="#DejaVuSans-20"/>
     <use x="519.287109" xlink:href="#DejaVuSans-56"/>
     <use x="587.585938" xlink:href="#DejaVuSans-65"/>
     <use x="649.109375" xlink:href="#DejaVuSans-72"/>
     <use x="690.207031" xlink:href="#DejaVuSans-67"/>
     <use x="753.683594" xlink:href="#DejaVuSans-6c"/>
     <use x="781.466797" xlink:href="#DejaVuSans-65"/>
     <use x="842.990234" xlink:href="#DejaVuSans-69"/>
     <use x="870.773438" xlink:href="#DejaVuSans-63"/>
     <use x="925.753906" xlink:href="#DejaVuSans-68"/>
    </g>
   </g>
   <g id="legend_1">
    <g id="patch_7">
     <path d="M 315.145 74.3525 
L 393.90125 74.3525 
Q 395.90125 74.3525 395.90125 72.3525 
L 395.90125 29.318125 
Q 395.90125 27.318125 393.90125 27.318125 
L 315.145 27.318125 
Q 313.145 27.318125 313.145 29.318125 
L 313.145 72.3525 
Q 313.145 74.3525 315.145 74.3525 
z
" style="fill:#ffffff;opacity:0.8;stroke:#cccccc;stroke-linejoin:miter;"/>
    </g>
    <g id="line2d_34">
     <path d="M 317.145 35.416562 
L 337.145 35.416562 
" style="fill:none;stroke:#1f77b4;stroke-linecap:square;stroke-width:1.5;"/>
    </g>
    <g id="line2d_35"/>
    <g id="text_19">
     <!-- 0.015 ms -->
     <defs>
      <path d="M 10.796875 72.90625 
L 49.515625 72.90625 
L 49.515625 64.59375 
L 19.828125 64.59375 
L 19.828125 46.734375 
Q 21.96875 47.46875 24.109375 47.828125 
Q 26.265625 48.1875 28.421875 48.1875 
Q 40.625 48.1875 47.75 41.5 
Q 54.890625 34.8125 54.890625 23.390625 
Q 54.890625 11.625 47.5625 5.09375 
Q 40.234375 -1.421875 26.90625 -1.421875 
Q 22.3125 -1.421875 17.546875 -0.640625 
Q 12.796875 0.140625 7.71875 1.703125 
L 7.71875 11.625 
Q 12.109375 9.234375 16.796875 8.0625 
Q 21.484375 6.890625 26.703125 6.890625 
Q 35.15625 6.890625 40.078125 11.328125 
Q 45.015625 15.765625 45.015625 23.390625 
Q 45.015625 31 40.078125 35.4375 
Q 35.15625 39.890625 26.703125 39.890625 
Q 22.75 39.890625 18.8125 39.015625 
Q 14.890625 38.140625 10.796875 36.28125 
z
" id="DejaVuSans-35"/>
      <path d="M 44.28125 53.078125 
L 44.28125 44.578125 
Q 40.484375 46.53125 36.375 47.5 
Q 32.28125 48.484375 27.875 48.484375 
Q 21.1875 48.484375 17.84375 46.4375 
Q 14.5 44.390625 14.5 40.28125 
Q 14.5 37.15625 16.890625 35.375 
Q 19.28125 33.59375 26.515625 31.984375 
L 29.59375 31.296875 
Q 39.15625 29.25 43.1875 25.515625 
Q 47.21875 21.78125 47.21875 15.09375 
Q 47.21875 7.46875 41.1875 3.015625 
Q 35.15625 -1.421875 24.609375 -1.421875 
Q 20.21875 -1.421875 15.453125 -0.5625 
Q 10.6875 0.296875 5.421875 2 
L 5.421875 11.28125 
Q 10.40625 8.6875 15.234375 7.390625 
Q 20.0625 6.109375 24.8125 6.109375 
Q 31.15625 6.109375 34.5625 8.28125 
Q 37.984375 10.453125 37.984375 14.40625 
Q 37.984375 18.0625 35.515625 20.015625 
Q 33.0625 21.96875 24.703125 23.78125 
L 21.578125 24.515625 
Q 13.234375 26.265625 9.515625 29.90625 
Q 5.8125 33.546875 5.8125 39.890625 
Q 5.8125 47.609375 11.28125 51.796875 
Q 16.75 56 26.8125 56 
Q 31.78125 56 36.171875 55.265625 
Q 40.578125 54.546875 44.28125 53.078125 
" id="DejaVuSans-73"/>
     </defs>
     <g transform="translate(345.145 38.916562)scale(0.1 -0.1)">
      <use xlink:href="#DejaVuSans-30"/>
      <use x="63.623047" xlink:href="#DejaVuSans-2e"/>
      <use x="95.410156" xlink:href="#DejaVuSans-30"/>
      <use x="159.033203" xlink:href="#DejaVuSans-31"/>
      <use x="222.65625" xlink:href="#DejaVuSans-35"/>
      <use x="286.279297" xlink:href="#DejaVuSans-20"/>
      <use x="318.066406" xlink:href="#DejaVuSans-6d"/>
      <use x="415.478516" xlink:href="#DejaVuSans-73"/>
     </g>
    </g>
    <g id="line2d_36">
     <path d="M 317.145 50.094688 
L 337.145 50.094688 
" style="fill:none;stroke:#ff7f0e;stroke-linecap:square;stroke-width:1.5;"/>
    </g>
    <g id="line2d_37"/>
    <g id="text_20">
     <!-- 0.1 ms -->
     <g transform="translate(345.145 53.594688)scale(0.1 -0.1)">
      <use xlink:href="#DejaVuSans-30"/>
      <use x="63.623047" xlink:href="#DejaVuSans-2e"/>
      <use x="95.410156" xlink:href="#DejaVuSans-31"/>
      <use x="159.033203" xlink:href="#DejaVuSans-20"/>
      <use x="190.820312" xlink:href="#DejaVuSans-6d"/>
      <use x="288.232422" xlink:href="#DejaVuSans-73"/>
     </g>
    </g>
    <g id="line2d_38">
     <path d="M 317.145 64.772812 
L 337.145 64.772812 
" style="fill:none;stroke:#2ca02c;stroke-linecap:square;stroke-width:1.5;"/>
    </g>
    <g id="line2d_39"/>
    <g id="text_21">
     <!-- 0.6 ms -->
     <g transform="translate(345.145 68.272812)scale(0.1 -0.1)">
      <use xlink:href="#DejaVuSans-30"/>
      <use x="63.623047" xlink:href="#DejaVuSans-2e"/>
      <use x="95.410156" xlink:href="#DejaVuSans-36"/>
      <use x="159.033203" xlink:href="#DejaVuSans-20"/>
      <use x="190.820312" xlink:href="#DejaVuSans-6d"/>
      <use x="288.232422" xlink:href="#DejaVuSans-73"/>
     </g>
    </g>
   </g>
  </g>
 </g>
 <defs>
  <clipPath id="p66f19f98b1">
   <rect height="266.112" width="357.12" x="43.78125" y="22.318125"/>
  </clipPath>
 </defs>
</svg>
