<?xml version="1.0" encoding="utf-8" standalone="no"?>
<!DOCTYPE svg PUBLIC "-//W3C//DTD SVG 1.1//EN"
  "http://www.w3.org/Graphics/SVG/1.1/DTD/svg11.dtd">
<!-- Created with matplotlib (http://matplotlib.org/) -->
<svg height="325pt" version="1.1" viewBox="0 0 424 325" width="424pt" xmlns="http://www.w3.org/2000/svg" xmlns:xlink="http://www.w3.org/1999/xlink">
 <defs>
  <style type="text/css">
*{stroke-linecap:butt;stroke-linejoin:round;}
  </style>
 </defs>
 <g id="figure_1">
  <g id="patch_1">
   <path d="M 0 325.986375 
L 424.0075 325.986375 
L 424.0075 0 
L 0 0 
z
" style="fill:#ffffff;"/>
  </g>
  <g id="axes_1">
   <g id="patch_2">
    <path d="M 43.78125 288.430125 
L 400.90125 288.430125 
L 400.90125 22.318125 
L 43.78125 22.318125 
z
" style="fill:#ffffff;"/>
   </g>
   <g id="matplotlib.axis_1">
    <g id="xtick_1">
     <g id="line2d_1">
      <path clip-path="url(#pae5a382c32)" d="M 43.78125 288.430125 
L 43.78125 22.318125 
" style="fill:none;stroke:#b0b0b0;stroke-linecap:square;stroke-width:0.8;"/>
     </g>
     <g id="line2d_2">
      <defs>
       <path d="M 0 0 
L 0 3.5 
" id="ma740459043" style="stroke:#000000;stroke-width:0.8;"/>
      </defs>
      <g>
       <use style="stroke:#000000;stroke-width:0.8;" x="43.78125" xlink:href="#ma740459043" y="288.430125"/>
      </g>
     </g>
     <g id="text_1">
      <!-- −80000 -->
      <defs>
       <path d="M 10.59375 35.5 
L 73.1875 35.5 
L 73.1875 27.203125 
L 10.59375 27.203125 
z
" id="DejaVuSans-2212"/>
       <path d="M 31.78125 34.625 
Q 24.75 34.625 20.71875 30.859375 
Q 16.703125 27.09375 16.703125 20.515625 
Q 16.703125 13.921875 20.71875 10.15625 
Q 24.75 6.390625 31.78125 6.390625 
Q 38.8125 6.390625 42.859375 10.171875 
Q 46.921875 13.96875 46.921875 20.515625 
Q 46.921875 27.09375 42.890625 30.859375 
Q 38.875 34.625 31.78125 34.625 
M 21.921875 38.8125 
Q 15.578125 40.375 12.03125 44.71875 
Q 8.5 49.078125 8.5 55.328125 
Q 8.5 64.0625 14.71875 69.140625 
Q 20.953125 74.21875 31.78125 74.21875 
Q 42.671875 74.21875 48.875 69.140625 
Q 55.078125 64.0625 55.078125 55.328125 
Q 55.078125 49.078125 51.53125 44.71875 
Q 48 40.375 41.703125 38.8125 
Q 48.828125 37.15625 52.796875 32.3125 
Q 56.78125 27.484375 56.78125 20.515625 
Q 56.78125 9.90625 50.3125 4.234375 
Q 43.84375 -1.421875 31.78125 -1.421875 
Q 19.734375 -1.421875 13.25 4.234375 
Q 6.78125 9.90625 6.78125 20.515625 
Q 6.78125 27.484375 10.78125 32.3125 
Q 14.796875 37.15625 21.921875 38.8125 
M 18.3125 54.390625 
Q 18.3125 48.734375 21.84375 45.5625 
Q 25.390625 42.390625 31.78125 42.390625 
Q 38.140625 42.390625 41.71875 45.5625 
Q 45.3125 48.734375 45.3125 54.390625 
Q 45.3125 60.0625 41.71875 63.234375 
Q 38.140625 66.40625 31.78125 66.40625 
Q 25.390625 66.40625 21.84375 63.234375 
Q 18.3125 60.0625 18.3125 54.390625 
" id="DejaVuSans-38"/>
       <path d="M 31.78125 66.40625 
Q 24.171875 66.40625 20.328125 58.90625 
Q 16.5 51.421875 16.5 36.375 
Q 16.5 21.390625 20.328125 13.890625 
Q 24.171875 6.390625 31.78125 6.390625 
Q 39.453125 6.390625 43.28125 13.890625 
Q 47.125 21.390625 47.125 36.375 
Q 47.125 51.421875 43.28125 58.90625 
Q 39.453125 66.40625 31.78125 66.40625 
M 31.78125 74.21875 
Q 44.046875 74.21875 50.515625 64.515625 
Q 56.984375 54.828125 56.984375 36.375 
Q 56.984375 17.96875 50.515625 8.265625 
Q 44.046875 -1.421875 31.78125 -1.421875 
Q 19.53125 -1.421875 13.0625 8.265625 
Q 6.59375 17.96875 6.59375 36.375 
Q 6.59375 54.828125 13.0625 64.515625 
Q 19.53125 74.21875 31.78125 74.21875 
" id="DejaVuSans-30"/>
      </defs>
      <g transform="translate(23.685156 303.028562)scale(0.1 -0.1)">
       <use xlink:href="#DejaVuSans-2212"/>
       <use x="83.789062" xlink:href="#DejaVuSans-38"/>
       <use x="147.412109" xlink:href="#DejaVuSans-30"/>
       <use x="211.035156" xlink:href="#DejaVuSans-30"/>
       <use x="274.658203" xlink:href="#DejaVuSans-30"/>
       <use x="338.28125" xlink:href="#DejaVuSans-30"/>
      </g>
     </g>
    </g>
    <g id="xtick_2">
     <g id="line2d_3">
      <path clip-path="url(#pae5a382c32)" d="M 88.42125 288.430125 
L 88.42125 22.318125 
" style="fill:none;stroke:#b0b0b0;stroke-linecap:square;stroke-width:0.8;"/>
     </g>
     <g id="line2d_4">
      <g>
       <use style="stroke:#000000;stroke-width:0.8;" x="88.42125" xlink:href="#ma740459043" y="288.430125"/>
      </g>
     </g>
     <g id="text_2">
      <!-- −60000 -->
      <defs>
       <path d="M 33.015625 40.375 
Q 26.375 40.375 22.484375 35.828125 
Q 18.609375 31.296875 18.609375 23.390625 
Q 18.609375 15.53125 22.484375 10.953125 
Q 26.375 6.390625 33.015625 6.390625 
Q 39.65625 6.390625 43.53125 10.953125 
Q 47.40625 15.53125 47.40625 23.390625 
Q 47.40625 31.296875 43.53125 35.828125 
Q 39.65625 40.375 33.015625 40.375 
M 52.59375 71.296875 
L 52.59375 62.3125 
Q 48.875 64.0625 45.09375 64.984375 
Q 41.3125 65.921875 37.59375 65.921875 
Q 27.828125 65.921875 22.671875 59.328125 
Q 17.53125 52.734375 16.796875 39.40625 
Q 19.671875 43.65625 24.015625 45.921875 
Q 28.375 48.1875 33.59375 48.1875 
Q 44.578125 48.1875 50.953125 41.515625 
Q 57.328125 34.859375 57.328125 23.390625 
Q 57.328125 12.15625 50.6875 5.359375 
Q 44.046875 -1.421875 33.015625 -1.421875 
Q 20.359375 -1.421875 13.671875 8.265625 
Q 6.984375 17.96875 6.984375 36.375 
Q 6.984375 53.65625 15.1875 63.9375 
Q 23.390625 74.21875 37.203125 74.21875 
Q 40.921875 74.21875 44.703125 73.484375 
Q 48.484375 72.75 52.59375 71.296875 
" id="DejaVuSans-36"/>
      </defs>
      <g transform="translate(68.325156 303.028562)scale(0.1 -0.1)">
       <use xlink:href="#DejaVuSans-2212"/>
       <use x="83.789062" xlink:href="#DejaVuSans-36"/>
       <use x="147.412109" xlink:href="#DejaVuSans-30"/>
       <use x="211.035156" xlink:href="#DejaVuSans-30"/>
       <use x="274.658203" xlink:href="#DejaVuSans-30"/>
       <use x="338.28125" xlink:href="#DejaVuSans-30"/>
      </g>
     </g>
    </g>
    <g id="xtick_3">
     <g id="line2d_5">
      <path clip-path="url(#pae5a382c32)" d="M 133.06125 288.430125 
L 133.06125 22.318125 
" style="fill:none;stroke:#b0b0b0;stroke-linecap:square;stroke-width:0.8;"/>
     </g>
     <g id="line2d_6">
      <g>
       <use style="stroke:#000000;stroke-width:0.8;" x="133.06125" xlink:href="#ma740459043" y="288.430125"/>
      </g>
     </g>
     <g id="text_3">
      <!-- −40000 -->
      <defs>
       <path d="M 37.796875 64.3125 
L 12.890625 25.390625 
L 37.796875 25.390625 
z
M 35.203125 72.90625 
L 47.609375 72.90625 
L 47.609375 25.390625 
L 58.015625 25.390625 
L 58.015625 17.1875 
L 47.609375 17.1875 
L 47.609375 0 
L 37.796875 0 
L 37.796875 17.1875 
L 4.890625 17.1875 
L 4.890625 26.703125 
z
" id="DejaVuSans-34"/>
      </defs>
      <g transform="translate(112.965156 303.028562)scale(0.1 -0.1)">
       <use xlink:href="#DejaVuSans-2212"/>
       <use x="83.789062" xlink:href="#DejaVuSans-34"/>
       <use x="147.412109" xlink:href="#DejaVuSans-30"/>
       <use x="211.035156" xlink:href="#DejaVuSans-30"/>
       <use x="274.658203" xlink:href="#DejaVuSans-30"/>
       <use x="338.28125" xlink:href="#DejaVuSans-30"/>
      </g>
     </g>
    </g>
    <g id="xtick_4">
     <g id="line2d_7">
      <path clip-path="url(#pae5a382c32)" d="M 177.70125 288.430125 
L 177.70125 22.318125 
" style="fill:none;stroke:#b0b0b0;stroke-linecap:square;stroke-width:0.8;"/>
     </g>
     <g id="line2d_8">
      <g>
       <use style="stroke:#000000;stroke-width:0.8;" x="177.70125" xlink:href="#ma740459043" y="288.430125"/>
      </g>
     </g>
     <g id="text_4">
      <!-- −20000 -->
      <defs>
       <path d="M 19.1875 8.296875 
L 53.609375 8.296875 
L 53.609375 0 
L 7.328125 0 
L 7.328125 8.296875 
Q 12.9375 14.109375 22.625 23.890625 
Q 32.328125 33.6875 34.8125 36.53125 
Q 39.546875 41.84375 41.421875 45.53125 
Q 43.3125 49.21875 43.3125 52.78125 
Q 43.3125 58.59375 39.234375 62.25 
Q 35.15625 65.921875 28.609375 65.921875 
Q 23.96875 65.921875 18.8125 64.3125 
Q 13.671875 62.703125 7.8125 59.421875 
L 7.8125 69.390625 
Q 13.765625 71.78125 18.9375 73 
Q 24.125 74.21875 28.421875 74.21875 
Q 39.75 74.21875 46.484375 68.546875 
Q 53.21875 62.890625 53.21875 53.421875 
Q 53.21875 48.921875 51.53125 44.890625 
Q 49.859375 40.875 45.40625 35.40625 
Q 44.1875 33.984375 37.640625 27.21875 
Q 31.109375 20.453125 19.1875 8.296875 
" id="DejaVuSans-32"/>
      </defs>
      <g transform="translate(157.605156 303.028562)scale(0.1 -0.1)">
       <use xlink:href="#DejaVuSans-2212"/>
       <use x="83.789062" xlink:href="#DejaVuSans-32"/>
       <use x="147.412109" xlink:href="#DejaVuSans-30"/>
       <use x="211.035156" xlink:href="#DejaVuSans-30"/>
       <use x="274.658203" xlink:href="#DejaVuSans-30"/>
       <use x="338.28125" xlink:href="#DejaVuSans-30"/>
      </g>
     </g>
    </g>
    <g id="xtick_5">
     <g id="line2d_9">
      <path clip-path="url(#pae5a382c32)" d="M 222.34125 288.430125 
L 222.34125 22.318125 
" style="fill:none;stroke:#b0b0b0;stroke-linecap:square;stroke-width:0.8;"/>
     </g>
     <g id="line2d_10">
      <g>
       <use style="stroke:#000000;stroke-width:0.8;" x="222.34125" xlink:href="#ma740459043" y="288.430125"/>
      </g>
     </g>
     <g id="text_5">
      <!-- 0 -->
      <g transform="translate(219.16 303.028562)scale(0.1 -0.1)">
       <use xlink:href="#DejaVuSans-30"/>
      </g>
     </g>
    </g>
    <g id="xtick_6">
     <g id="line2d_11">
      <path clip-path="url(#pae5a382c32)" d="M 266.98125 288.430125 
L 266.98125 22.318125 
" style="fill:none;stroke:#b0b0b0;stroke-linecap:square;stroke-width:0.8;"/>
     </g>
     <g id="line2d_12">
      <g>
       <use style="stroke:#000000;stroke-width:0.8;" x="266.98125" xlink:href="#ma740459043" y="288.430125"/>
      </g>
     </g>
     <g id="text_6">
      <!-- 20000 -->
      <g transform="translate(251.075 303.028562)scale(0.1 -0.1)">
       <use xlink:href="#DejaVuSans-32"/>
       <use x="63.623047" xlink:href="#DejaVuSans-30"/>
       <use x="127.246094" xlink:href="#DejaVuSans-30"/>
       <use x="190.869141" xlink:href="#DejaVuSans-30"/>
       <use x="254.492188" xlink:href="#DejaVuSans-30"/>
      </g>
     </g>
    </g>
    <g id="xtick_7">
     <g id="line2d_13">
      <path clip-path="url(#pae5a382c32)" d="M 311.62125 288.430125 
L 311.62125 22.318125 
" style="fill:none;stroke:#b0b0b0;stroke-linecap:square;stroke-width:0.8;"/>
     </g>
     <g id="line2d_14">
      <g>
       <use style="stroke:#000000;stroke-width:0.8;" x="311.62125" xlink:href="#ma740459043" y="288.430125"/>
      </g>
     </g>
     <g id="text_7">
      <!-- 40000 -->
      <g transform="translate(295.715 303.028562)scale(0.1 -0.1)">
       <use xlink:href="#DejaVuSans-34"/>
       <use x="63.623047" xlink:href="#DejaVuSans-30"/>
       <use x="127.246094" xlink:href="#DejaVuSans-30"/>
       <use x="190.869141" xlink:href="#DejaVuSans-30"/>
       <use x="254.492188" xlink:href="#DejaVuSans-30"/>
      </g>
     </g>
    </g>
    <g id="xtick_8">
     <g id="line2d_15">
      <path clip-path="url(#pae5a382c32)" d="M 356.26125 288.430125 
L 356.26125 22.318125 
" style="fill:none;stroke:#b0b0b0;stroke-linecap:square;stroke-width:0.8;"/>
     </g>
     <g id="line2d_16">
      <g>
       <use style="stroke:#000000;stroke-width:0.8;" x="356.26125" xlink:href="#ma740459043" y="288.430125"/>
      </g>
     </g>
     <g id="text_8">
      <!-- 60000 -->
      <g transform="translate(340.355 303.028562)scale(0.1 -0.1)">
       <use xlink:href="#DejaVuSans-36"/>
       <use x="63.623047" xlink:href="#DejaVuSans-30"/>
       <use x="127.246094" xlink:href="#DejaVuSans-30"/>
       <use x="190.869141" xlink:href="#DejaVuSans-30"/>
       <use x="254.492188" xlink:href="#DejaVuSans-30"/>
      </g>
     </g>
    </g>
    <g id="xtick_9">
     <g id="line2d_17">
      <path clip-path="url(#pae5a382c32)" d="M 400.90125 288.430125 
L 400.90125 22.318125 
" style="fill:none;stroke:#b0b0b0;stroke-linecap:square;stroke-width:0.8;"/>
     </g>
     <g id="line2d_18">
      <g>
       <use style="stroke:#000000;stroke-width:0.8;" x="400.90125" xlink:href="#ma740459043" y="288.430125"/>
      </g>
     </g>
     <g id="text_9">
      <!-- 80000 -->
      <g transform="translate(384.995 303.028562)scale(0.1 -0.1)">
       <use xlink:href="#DejaVuSans-38"/>
       <use x="63.623047" xlink:href="#DejaVuSans-30"/>
       <use x="127.246094" xlink:href="#DejaVuSans-30"/>
       <use x="190.869141" xlink:href="#DejaVuSans-30"/>
       <use x="254.492188" xlink:href="#DejaVuSans-30"/>
      </g>
     </g>
    </g>
    <g id="text_10">
     <!-- Frequenz [kHz] -->
     <defs>
      <path d="M 9.8125 72.90625 
L 51.703125 72.90625 
L 51.703125 64.59375 
L 19.671875 64.59375 
L 19.671875 43.109375 
L 48.578125 43.109375 
L 48.578125 34.8125 
L 19.671875 34.8125 
L 19.671875 0 
L 9.8125 0 
z
" id="DejaVuSans-46"/>
      <path d="M 41.109375 46.296875 
Q 39.59375 47.171875 37.8125 47.578125 
Q 36.03125 48 33.890625 48 
Q 26.265625 48 22.1875 43.046875 
Q 18.109375 38.09375 18.109375 28.8125 
L 18.109375 0 
L 9.078125 0 
L 9.078125 54.6875 
L 18.109375 54.6875 
L 18.109375 46.1875 
Q 20.953125 51.171875 25.484375 53.578125 
Q 30.03125 56 36.53125 56 
Q 37.453125 56 38.578125 55.875 
Q 39.703125 55.765625 41.0625 55.515625 
z
" id="DejaVuSans-72"/>
      <path d="M 56.203125 29.59375 
L 56.203125 25.203125 
L 14.890625 25.203125 
Q 15.484375 15.921875 20.484375 11.0625 
Q 25.484375 6.203125 34.421875 6.203125 
Q 39.59375 6.203125 44.453125 7.46875 
Q 49.3125 8.734375 54.109375 11.28125 
L 54.109375 2.78125 
Q 49.265625 0.734375 44.1875 -0.34375 
Q 39.109375 -1.421875 33.890625 -1.421875 
Q 20.796875 -1.421875 13.15625 6.1875 
Q 5.515625 13.8125 5.515625 26.8125 
Q 5.515625 40.234375 12.765625 48.109375 
Q 20.015625 56 32.328125 56 
Q 43.359375 56 49.78125 48.890625 
Q 56.203125 41.796875 56.203125 29.59375 
M 47.21875 32.234375 
Q 47.125 39.59375 43.09375 43.984375 
Q 39.0625 48.390625 32.421875 48.390625 
Q 24.90625 48.390625 20.390625 44.140625 
Q 15.875 39.890625 15.1875 32.171875 
z
" id="DejaVuSans-65"/>
      <path d="M 14.796875 27.296875 
Q 14.796875 17.390625 18.875 11.75 
Q 22.953125 6.109375 30.078125 6.109375 
Q 37.203125 6.109375 41.296875 11.75 
Q 45.40625 17.390625 45.40625 27.296875 
Q 45.40625 37.203125 41.296875 42.84375 
Q 37.203125 48.484375 30.078125 48.484375 
Q 22.953125 48.484375 18.875 42.84375 
Q 14.796875 37.203125 14.796875 27.296875 
M 45.40625 8.203125 
Q 42.578125 3.328125 38.25 0.953125 
Q 33.9375 -1.421875 27.875 -1.421875 
Q 17.96875 -1.421875 11.734375 6.484375 
Q 5.515625 14.40625 5.515625 27.296875 
Q 5.515625 40.1875 11.734375 48.09375 
Q 17.96875 56 27.875 56 
Q 33.9375 56 38.25 53.625 
Q 42.578125 51.265625 45.40625 46.390625 
L 45.40625 54.6875 
L 54.390625 54.6875 
L 54.390625 -20.796875 
L 45.40625 -20.796875 
z
" id="DejaVuSans-71"/>
      <path d="M 8.5 21.578125 
L 8.5 54.6875 
L 17.484375 54.6875 
L 17.484375 21.921875 
Q 17.484375 14.15625 20.5 10.265625 
Q 23.53125 6.390625 29.59375 6.390625 
Q 36.859375 6.390625 41.078125 11.03125 
Q 45.3125 15.671875 45.3125 23.6875 
L 45.3125 54.6875 
L 54.296875 54.6875 
L 54.296875 0 
L 45.3125 0 
L 45.3125 8.40625 
Q 42.046875 3.421875 37.71875 1 
Q 33.40625 -1.421875 27.6875 -1.421875 
Q 18.265625 -1.421875 13.375 4.4375 
Q 8.5 10.296875 8.5 21.578125 
M 31.109375 56 
z
" id="DejaVuSans-75"/>
      <path d="M 54.890625 33.015625 
L 54.890625 0 
L 45.90625 0 
L 45.90625 32.71875 
Q 45.90625 40.484375 42.875 44.328125 
Q 39.84375 48.1875 33.796875 48.1875 
Q 26.515625 48.1875 22.3125 43.546875 
Q 18.109375 38.921875 18.109375 30.90625 
L 18.109375 0 
L 9.078125 0 
L 9.078125 54.6875 
L 18.109375 54.6875 
L 18.109375 46.1875 
Q 21.34375 51.125 25.703125 53.5625 
Q 30.078125 56 35.796875 56 
Q 45.21875 56 50.046875 50.171875 
Q 54.890625 44.34375 54.890625 33.015625 
" id="DejaVuSans-6e"/>
      <path d="M 5.515625 54.6875 
L 48.1875 54.6875 
L 48.1875 46.484375 
L 14.40625 7.171875 
L 48.1875 7.171875 
L 48.1875 0 
L 4.296875 0 
L 4.296875 8.203125 
L 38.09375 47.515625 
L 5.515625 47.515625 
z
" id="DejaVuSans-7a"/>
      <path id="DejaVuSans-20"/>
      <path d="M 8.59375 75.984375 
L 29.296875 75.984375 
L 29.296875 69 
L 17.578125 69 
L 17.578125 -6.203125 
L 29.296875 -6.203125 
L 29.296875 -13.1875 
L 8.59375 -13.1875 
z
" id="DejaVuSans-5b"/>
      <path d="M 9.078125 75.984375 
L 18.109375 75.984375 
L 18.109375 31.109375 
L 44.921875 54.6875 
L 56.390625 54.6875 
L 27.390625 29.109375 
L 57.625 0 
L 45.90625 0 
L 18.109375 26.703125 
L 18.109375 0 
L 9.078125 0 
z
" id="DejaVuSans-6b"/>
      <path d="M 9.8125 72.90625 
L 19.671875 72.90625 
L 19.671875 43.015625 
L 55.515625 43.015625 
L 55.515625 72.90625 
L 65.375 72.90625 
L 65.375 0 
L 55.515625 0 
L 55.515625 34.71875 
L 19.671875 34.71875 
L 19.671875 0 
L 9.8125 0 
z
" id="DejaVuSans-48"/>
      <path d="M 30.421875 75.984375 
L 30.421875 -13.1875 
L 9.71875 -13.1875 
L 9.71875 -6.203125 
L 21.390625 -6.203125 
L 21.390625 69 
L 9.71875 69 
L 9.71875 75.984375 
z
" id="DejaVuSans-5d"/>
     </defs>
     <g transform="translate(184.357656 316.706687)scale(0.1 -0.1)">
      <use xlink:href="#DejaVuSans-46"/>
      <use x="57.410156" xlink:href="#DejaVuSans-72"/>
      <use x="98.492188" xlink:href="#DejaVuSans-65"/>
      <use x="160.015625" xlink:href="#DejaVuSans-71"/>
      <use x="223.492188" xlink:href="#DejaVuSans-75"/>
      <use x="286.871094" xlink:href="#DejaVuSans-65"/>
      <use x="348.394531" xlink:href="#DejaVuSans-6e"/>
      <use x="411.773438" xlink:href="#DejaVuSans-7a"/>
      <use x="464.263672" xlink:href="#DejaVuSans-20"/>
      <use x="496.050781" xlink:href="#DejaVuSans-5b"/>
      <use x="535.064453" xlink:href="#DejaVuSans-6b"/>
      <use x="592.974609" xlink:href="#DejaVuSans-48"/>
      <use x="668.169922" xlink:href="#DejaVuSans-7a"/>
      <use x="720.660156" xlink:href="#DejaVuSans-5d"/>
     </g>
    </g>
   </g>
   <g id="matplotlib.axis_2">
    <g id="ytick_1">
     <g id="line2d_19">
      <path clip-path="url(#pae5a382c32)" d="M 43.78125 264.419465 
L 400.90125 264.419465 
" style="fill:none;stroke:#b0b0b0;stroke-linecap:square;stroke-width:0.8;"/>
     </g>
     <g id="line2d_20">
      <defs>
       <path d="M 0 0 
L -3.5 0 
" id="m7761d76621" style="stroke:#000000;stroke-width:0.8;"/>
      </defs>
      <g>
       <use style="stroke:#000000;stroke-width:0.8;" x="43.78125" xlink:href="#m7761d76621" y="264.419465"/>
      </g>
     </g>
     <g id="text_11">
      <!-- 0.0 -->
      <defs>
       <path d="M 10.6875 12.40625 
L 21 12.40625 
L 21 0 
L 10.6875 0 
z
" id="DejaVuSans-2e"/>
      </defs>
      <g transform="translate(20.878125 268.218684)scale(0.1 -0.1)">
       <use xlink:href="#DejaVuSans-30"/>
       <use x="63.623047" xlink:href="#DejaVuSans-2e"/>
       <use x="95.410156" xlink:href="#DejaVuSans-30"/>
      </g>
     </g>
    </g>
    <g id="ytick_2">
     <g id="line2d_21">
      <path clip-path="url(#pae5a382c32)" d="M 43.78125 218.418397 
L 400.90125 218.418397 
" style="fill:none;stroke:#b0b0b0;stroke-linecap:square;stroke-width:0.8;"/>
     </g>
     <g id="line2d_22">
      <g>
       <use style="stroke:#000000;stroke-width:0.8;" x="43.78125" xlink:href="#m7761d76621" y="218.418397"/>
      </g>
     </g>
     <g id="text_12">
      <!-- 0.2 -->
      <g transform="translate(20.878125 222.217616)scale(0.1 -0.1)">
       <use xlink:href="#DejaVuSans-30"/>
       <use x="63.623047" xlink:href="#DejaVuSans-2e"/>
       <use x="95.410156" xlink:href="#DejaVuSans-32"/>
      </g>
     </g>
    </g>
    <g id="ytick_3">
     <g id="line2d_23">
      <path clip-path="url(#pae5a382c32)" d="M 43.78125 172.417329 
L 400.90125 172.417329 
" style="fill:none;stroke:#b0b0b0;stroke-linecap:square;stroke-width:0.8;"/>
     </g>
     <g id="line2d_24">
      <g>
       <use style="stroke:#000000;stroke-width:0.8;" x="43.78125" xlink:href="#m7761d76621" y="172.417329"/>
      </g>
     </g>
     <g id="text_13">
      <!-- 0.4 -->
      <g transform="translate(20.878125 176.216548)scale(0.1 -0.1)">
       <use xlink:href="#DejaVuSans-30"/>
       <use x="63.623047" xlink:href="#DejaVuSans-2e"/>
       <use x="95.410156" xlink:href="#DejaVuSans-34"/>
      </g>
     </g>
    </g>
    <g id="ytick_4">
     <g id="line2d_25">
      <path clip-path="url(#pae5a382c32)" d="M 43.78125 126.416261 
L 400.90125 126.416261 
" style="fill:none;stroke:#b0b0b0;stroke-linecap:square;stroke-width:0.8;"/>
     </g>
     <g id="line2d_26">
      <g>
       <use style="stroke:#000000;stroke-width:0.8;" x="43.78125" xlink:href="#m7761d76621" y="126.416261"/>
      </g>
     </g>
     <g id="text_14">
      <!-- 0.6 -->
      <g transform="translate(20.878125 130.21548)scale(0.1 -0.1)">
       <use xlink:href="#DejaVuSans-30"/>
       <use x="63.623047" xlink:href="#DejaVuSans-2e"/>
       <use x="95.410156" xlink:href="#DejaVuSans-36"/>
      </g>
     </g>
    </g>
    <g id="ytick_5">
     <g id="line2d_27">
      <path clip-path="url(#pae5a382c32)" d="M 43.78125 80.415193 
L 400.90125 80.415193 
" style="fill:none;stroke:#b0b0b0;stroke-linecap:square;stroke-width:0.8;"/>
     </g>
     <g id="line2d_28">
      <g>
       <use style="stroke:#000000;stroke-width:0.8;" x="43.78125" xlink:href="#m7761d76621" y="80.415193"/>
      </g>
     </g>
     <g id="text_15">
      <!-- 0.8 -->
      <g transform="translate(20.878125 84.214412)scale(0.1 -0.1)">
       <use xlink:href="#DejaVuSans-30"/>
       <use x="63.623047" xlink:href="#DejaVuSans-2e"/>
       <use x="95.410156" xlink:href="#DejaVuSans-38"/>
      </g>
     </g>
    </g>
    <g id="ytick_6">
     <g id="line2d_29">
      <path clip-path="url(#pae5a382c32)" d="M 43.78125 34.414125 
L 400.90125 34.414125 
" style="fill:none;stroke:#b0b0b0;stroke-linecap:square;stroke-width:0.8;"/>
     </g>
     <g id="line2d_30">
      <g>
       <use style="stroke:#000000;stroke-width:0.8;" x="43.78125" xlink:href="#m7761d76621" y="34.414125"/>
      </g>
     </g>
     <g id="text_16">
      <!-- 1.0 -->
      <defs>
       <path d="M 12.40625 8.296875 
L 28.515625 8.296875 
L 28.515625 63.921875 
L 10.984375 60.40625 
L 10.984375 69.390625 
L 28.421875 72.90625 
L 38.28125 72.90625 
L 38.28125 8.296875 
L 54.390625 8.296875 
L 54.390625 0 
L 12.40625 0 
z
" id="DejaVuSans-31"/>
      </defs>
      <g transform="translate(20.878125 38.213344)scale(0.1 -0.1)">
       <use xlink:href="#DejaVuSans-31"/>
       <use x="63.623047" xlink:href="#DejaVuSans-2e"/>
       <use x="95.410156" xlink:href="#DejaVuSans-30"/>
      </g>
     </g>
    </g>
    <g id="text_17">
     <!-- u.a. -->
     <defs>
      <path d="M 34.28125 27.484375 
Q 23.390625 27.484375 19.1875 25 
Q 14.984375 22.515625 14.984375 16.5 
Q 14.984375 11.71875 18.140625 8.90625 
Q 21.296875 6.109375 26.703125 6.109375 
Q 34.1875 6.109375 38.703125 11.40625 
Q 43.21875 16.703125 43.21875 25.484375 
L 43.21875 27.484375 
z
M 52.203125 31.203125 
L 52.203125 0 
L 43.21875 0 
L 43.21875 8.296875 
Q 40.140625 3.328125 35.546875 0.953125 
Q 30.953125 -1.421875 24.3125 -1.421875 
Q 15.921875 -1.421875 10.953125 3.296875 
Q 6 8.015625 6 15.921875 
Q 6 25.140625 12.171875 29.828125 
Q 18.359375 34.515625 30.609375 34.515625 
L 43.21875 34.515625 
L 43.21875 35.40625 
Q 43.21875 41.609375 39.140625 45 
Q 35.0625 48.390625 27.6875 48.390625 
Q 23 48.390625 18.546875 47.265625 
Q 14.109375 46.140625 10.015625 43.890625 
L 10.015625 52.203125 
Q 14.9375 54.109375 19.578125 55.046875 
Q 24.21875 56 28.609375 56 
Q 40.484375 56 46.34375 49.84375 
Q 52.203125 43.703125 52.203125 31.203125 
" id="DejaVuSans-61"/>
     </defs>
     <g transform="translate(14.798438 164.785062)rotate(-90)scale(0.1 -0.1)">
      <use xlink:href="#DejaVuSans-75"/>
      <use x="63.378906" xlink:href="#DejaVuSans-2e"/>
      <use x="95.166016" xlink:href="#DejaVuSans-61"/>
      <use x="156.445312" xlink:href="#DejaVuSans-2e"/>
     </g>
    </g>
   </g>
   <g id="line2d_31">
    <path clip-path="url(#pae5a382c32)" d="M 43.606875 254.412302 
L 45.241641 254.339721 
L 47.96625 253.815771 
L 50.690859 252.321157 
L 51.780703 252.036074 
L 52.325625 252.0353 
L 53.415469 252.420422 
L 53.960391 252.619376 
L 54.505313 252.680501 
L 55.050234 252.578663 
L 56.140078 251.969528 
L 57.229922 251.126734 
L 57.774844 250.821168 
L 58.864688 250.565176 
L 59.954531 250.204905 
L 62.134219 248.723008 
L 64.858828 246.494251 
L 65.948672 246.313488 
L 67.038516 246.119153 
L 68.673281 245.275438 
L 69.763125 244.500767 
L 74.667422 240.336834 
L 76.847109 239.324721 
L 78.481875 237.668026 
L 79.026797 237.427472 
L 80.661563 237.642171 
L 81.751406 237.199629 
L 82.84125 236.600838 
L 84.476016 235.494214 
L 86.110781 234.960756 
L 87.200625 234.765874 
L 87.745547 234.708669 
L 88.290469 234.468354 
L 89.380313 233.305997 
L 90.470156 232.179711 
L 93.739688 229.343354 
L 97.009219 226.427112 
L 98.099063 225.342639 
L 103.003359 221.302567 
L 105.183047 219.14784 
L 106.272891 217.951616 
L 106.817813 217.522964 
L 108.452578 216.733908 
L 109.542422 215.592717 
L 110.632266 214.328234 
L 115.536563 209.620604 
L 118.261172 206.49364 
L 119.895938 205.091176 
L 123.165469 201.517545 
L 124.800234 198.943011 
L 127.524844 195.494155 
L 128.614688 194.099803 
L 132.429141 190.753323 
L 134.063906 188.462515 
L 135.698672 185.774188 
L 136.788516 184.09736 
L 137.878359 182.989516 
L 138.968203 181.914482 
L 139.513125 181.158565 
L 140.602969 179.109078 
L 141.692813 176.858297 
L 142.782656 175.208475 
L 146.052188 171.574029 
L 147.142031 169.808025 
L 148.231875 167.920767 
L 149.866641 165.253311 
L 151.501406 161.965733 
L 152.59125 160.311724 
L 154.770938 157.543627 
L 159.130313 150.467856 
L 160.765078 147.152848 
L 162.399844 144.463795 
L 163.489688 142.697016 
L 164.579531 140.45539 
L 166.214297 136.924756 
L 167.849063 133.900114 
L 170.573672 129.458826 
L 172.208438 125.85817 
L 174.933047 119.599663 
L 176.567813 116.674184 
L 178.7475 112.264609 
L 181.472109 107.480225 
L 183.106875 103.648212 
L 184.741641 100.077886 
L 186.376406 96.569536 
L 189.645938 89.296122 
L 190.735781 86.698345 
L 192.370547 81.926166 
L 193.460391 78.814763 
L 194.005313 77.697716 
L 194.550234 77.003671 
L 196.185 75.621395 
L 196.729922 75.127473 
L 197.819766 74.611956 
L 198.364688 73.956705 
L 198.909609 72.470468 
L 201.634219 61.246943 
L 202.724063 58.260309 
L 204.358828 54.970215 
L 205.448672 52.770343 
L 206.538516 50.074077 
L 207.628359 47.32228 
L 208.718203 45.372965 
L 209.808047 43.657673 
L 212.532656 38.81221 
L 214.167422 36.117507 
L 215.257266 34.882382 
L 215.802188 34.550765 
L 216.347109 34.414125 
L 216.892031 34.457863 
L 217.981875 34.926052 
L 218.526797 35.179605 
L 219.071719 35.290552 
L 219.616641 35.17915 
L 220.161563 34.899183 
L 220.706484 34.759711 
L 221.251406 35.358718 
L 221.796328 37.330046 
L 222.34125 40.840347 
L 223.431094 49.686064 
L 223.976016 53.241913 
L 224.520938 55.846546 
L 225.610781 59.592629 
L 227.245547 65.000356 
L 230.515078 77.364244 
L 232.694766 85.659072 
L 234.329531 91.288812 
L 235.964297 96.464516 
L 237.599063 101.625635 
L 239.233828 106.083775 
L 241.413516 112.843112 
L 244.138125 120.294868 
L 246.317813 127.04228 
L 248.4975 132.477067 
L 250.677188 139.423259 
L 253.401797 146.148367 
L 255.036563 150.127662 
L 259.395938 159.940249 
L 262.120547 166.321349 
L 263.210391 168.604758 
L 265.935 173.337145 
L 268.114688 177.998119 
L 270.294375 181.980854 
L 275.198672 190.165015 
L 276.833438 192.942934 
L 283.3725 202.944294 
L 284.462344 204.19406 
L 286.097109 205.855346 
L 287.186953 207.552251 
L 288.276797 209.50039 
L 291.546328 214.21104 
L 292.636172 215.677978 
L 293.181094 216.079336 
L 294.815859 216.885087 
L 296.450625 218.256552 
L 296.995547 218.877151 
L 298.085391 220.659327 
L 299.175234 222.643795 
L 299.720156 223.383692 
L 300.265078 223.860348 
L 301.899844 224.627956 
L 302.444766 225.166276 
L 305.714297 229.592029 
L 306.804141 230.450358 
L 307.893984 231.175238 
L 310.073672 233.111095 
L 311.708438 234.039078 
L 313.343203 234.808484 
L 314.977969 235.832942 
L 316.612734 236.585844 
L 318.792422 238.103193 
L 319.882266 238.793638 
L 321.517031 240.597158 
L 323.151797 242.138012 
L 324.786563 243.365914 
L 326.421328 244.297363 
L 327.511172 244.63357 
L 328.601016 244.918495 
L 329.690859 245.529926 
L 331.870547 247.294124 
L 332.960391 247.644506 
L 334.050234 247.767187 
L 335.685 247.779619 
L 336.774844 248.066629 
L 340.589297 249.52728 
L 342.768984 251.057417 
L 343.858828 251.465962 
L 346.038516 251.637608 
L 347.128359 252.242701 
L 348.763125 253.386478 
L 349.852969 253.604884 
L 350.942813 253.783847 
L 352.577578 254.139335 
L 354.212344 254.10302 
L 355.302188 254.037823 
L 355.847109 254.142027 
L 356.936953 254.7625 
L 358.026797 255.437461 
L 358.571719 255.581407 
L 360.751406 255.652233 
L 364.020938 257.084135 
L 365.655703 258.18406 
L 366.200625 258.236014 
L 367.290469 257.733136 
L 367.835391 257.518847 
L 368.380313 257.505447 
L 370.015078 257.804518 
L 371.649844 257.64139 
L 372.739688 257.956912 
L 374.374453 258.375198 
L 375.464297 258.478818 
L 377.099063 258.322615 
L 379.27875 258.896549 
L 380.913516 259.36516 
L 382.003359 259.89687 
L 383.638125 260.944593 
L 385.272891 261.639044 
L 386.362734 261.904585 
L 387.9975 262.089272 
L 389.632266 262.599294 
L 390.177188 262.568984 
L 391.811953 262.19678 
L 392.901797 262.499321 
L 393.446719 262.671738 
L 393.991641 262.676859 
L 395.081484 262.162954 
L 395.626406 261.902956 
L 396.171328 261.795721 
L 398.351016 261.75587 
L 399.440859 261.81807 
L 400.530703 261.91499 
L 401.075625 261.893267 
L 401.075625 261.893267 
" style="fill:none;stroke:#1f77b4;stroke-linecap:square;stroke-width:1.5;"/>
   </g>
   <g id="line2d_32">
    <path clip-path="url(#pae5a382c32)" d="M 43.606875 254.246413 
L 46.876406 252.581386 
L 47.96625 252.249564 
L 50.145938 252.21914 
L 50.690859 251.910218 
L 51.780703 251.027343 
L 52.325625 250.767293 
L 52.870547 250.765747 
L 54.505313 251.390808 
L 55.050234 251.347931 
L 55.595156 251.102213 
L 57.774844 249.468783 
L 58.864688 248.369536 
L 59.954531 247.134274 
L 60.499453 246.784354 
L 61.589297 246.594046 
L 63.768984 246.567737 
L 64.858828 246.188962 
L 66.493594 245.617083 
L 68.673281 244.893009 
L 70.852969 243.977956 
L 71.942813 243.368272 
L 73.032656 242.560089 
L 73.577578 242.28838 
L 74.1225 242.198887 
L 75.757266 242.286109 
L 76.302188 242.134682 
L 77.392031 241.448788 
L 78.481875 240.308842 
L 81.206484 236.847201 
L 82.296328 236.341712 
L 83.386172 236.017889 
L 84.476016 235.35759 
L 85.565859 234.277647 
L 87.745547 231.529748 
L 88.290469 231.275836 
L 88.835391 231.317021 
L 89.380313 231.509957 
L 89.925234 231.583048 
L 90.470156 231.245056 
L 91.015078 230.387805 
L 92.104922 228.221749 
L 92.649844 227.62833 
L 93.739688 227.263417 
L 97.554141 226.127677 
L 98.099063 225.77657 
L 98.643984 225.232869 
L 100.823672 222.542542 
L 101.913516 221.878448 
L 103.003359 221.355256 
L 104.093203 220.422127 
L 105.183047 219.386361 
L 106.272891 218.85695 
L 107.362734 218.336292 
L 107.907656 217.839164 
L 108.9975 216.427172 
L 111.722109 212.335562 
L 112.811953 211.804163 
L 113.901797 211.248624 
L 114.991641 210.203573 
L 116.626406 208.36545 
L 118.261172 206.91455 
L 119.351016 205.490805 
L 120.985781 203.104564 
L 122.075625 201.888157 
L 123.710391 200.17394 
L 125.345156 198.412402 
L 128.069766 196.111254 
L 129.159609 194.454445 
L 130.794375 191.771927 
L 131.884219 190.409883 
L 133.518984 188.477196 
L 134.608828 187.054671 
L 136.788516 184.837429 
L 137.878359 182.952493 
L 138.968203 181.061935 
L 140.058047 179.675388 
L 141.147891 178.577497 
L 142.237734 176.968465 
L 143.8725 174.39731 
L 145.507266 171.820955 
L 147.686953 168.002561 
L 148.776797 166.196029 
L 150.956484 163.280188 
L 153.136172 159.234839 
L 154.226016 157.562228 
L 155.315859 155.264173 
L 156.405703 153.015631 
L 157.495547 151.491886 
L 159.130313 149.391869 
L 160.220156 147.383173 
L 161.31 145.307636 
L 162.399844 143.97224 
L 163.489688 142.516589 
L 165.669375 138.550159 
L 167.849063 134.330483 
L 169.483828 131.487003 
L 170.573672 129.27923 
L 172.753359 124.449099 
L 174.388125 121.398064 
L 176.567813 116.610381 
L 180.382266 109.373325 
L 182.017031 106.517863 
L 183.651797 103.780838 
L 185.286563 100.140548 
L 186.921328 96.014725 
L 188.556094 91.540777 
L 191.280703 85.540838 
L 192.915469 81.778429 
L 194.550234 78.408716 
L 195.640078 75.436126 
L 196.729922 71.69924 
L 197.819766 68.043497 
L 198.364688 67.0779 
L 198.909609 66.844434 
L 199.454531 66.862903 
L 199.999453 66.52387 
L 200.544375 65.602718 
L 203.813906 57.734837 
L 205.993594 51.45602 
L 207.083438 49.50363 
L 208.173281 47.941377 
L 209.263125 45.934386 
L 210.897891 42.046947 
L 211.987734 39.661357 
L 214.712344 34.710522 
L 215.257266 34.436467 
L 216.892031 34.418129 
L 217.436953 34.481969 
L 217.981875 34.699562 
L 219.616641 35.815266 
L 220.161563 36.253043 
L 220.706484 37.024444 
L 221.251406 38.581464 
L 221.796328 41.288173 
L 223.976016 56.414977 
L 225.065859 60.791536 
L 229.425234 74.28302 
L 233.239688 85.60122 
L 235.964297 94.884727 
L 238.688906 104.689489 
L 240.323672 109.311405 
L 243.048281 116.77654 
L 245.227969 123.66609 
L 246.862734 128.567922 
L 249.042422 134.699987 
L 250.677188 139.731349 
L 251.767031 142.392066 
L 252.856875 144.60673 
L 253.946719 147.433857 
L 255.036563 150.38995 
L 258.306094 157.543444 
L 262.665469 166.710701 
L 266.479922 175.30175 
L 267.569766 177.717696 
L 268.659609 179.240225 
L 269.749453 180.758135 
L 277.378359 194.15626 
L 280.102969 197.517634 
L 281.192813 199.373885 
L 282.827578 202.402535 
L 285.007266 205.706534 
L 286.642031 208.466864 
L 287.731875 209.839485 
L 289.911563 211.515499 
L 293.726016 216.514491 
L 295.905703 218.471996 
L 296.995547 219.717755 
L 298.630313 221.110576 
L 300.81 223.933485 
L 301.899844 224.509184 
L 302.444766 225.024987 
L 304.624453 227.645931 
L 306.804141 229.083505 
L 308.438906 230.704979 
L 311.163516 233.838882 
L 313.343203 234.684348 
L 314.977969 236.181016 
L 317.157656 237.642317 
L 318.2475 238.424427 
L 319.882266 239.231872 
L 322.061953 241.082 
L 322.606875 241.13684 
L 324.241641 240.831547 
L 324.786563 241.031834 
L 325.876406 241.869768 
L 328.056094 243.821779 
L 329.145938 244.747658 
L 332.960391 246.629032 
L 335.140078 247.318716 
L 335.685 247.749461 
L 337.319766 249.410341 
L 337.864688 249.549959 
L 338.409609 249.385643 
L 339.499453 248.767658 
L 340.044375 248.663081 
L 340.589297 248.790052 
L 341.679141 249.513155 
L 343.858828 251.133939 
L 344.948672 251.810218 
L 346.583438 252.477148 
L 347.128359 252.65415 
L 347.673281 252.690983 
L 349.308047 252.074219 
L 349.852969 252.200564 
L 350.397891 252.634021 
L 352.032656 254.402533 
L 352.577578 254.828918 
L 353.1225 255.104911 
L 354.212344 255.22624 
L 355.302188 255.219439 
L 356.392031 255.444487 
L 357.481875 256.080341 
L 358.571719 256.853 
L 359.116641 257.071028 
L 359.661563 257.131861 
L 360.751406 256.858717 
L 361.84125 256.456773 
L 362.386172 256.40615 
L 364.565859 256.632929 
L 365.655703 256.583277 
L 366.745547 256.952076 
L 367.835391 257.338898 
L 368.925234 257.674059 
L 370.56 258.287614 
L 372.194766 258.458602 
L 373.284609 258.515484 
L 373.829531 258.373529 
L 375.464297 257.603784 
L 376.009219 257.659158 
L 377.099063 258.298952 
L 378.188906 258.953666 
L 379.27875 259.189508 
L 380.368594 259.352171 
L 381.458438 259.786343 
L 382.548281 260.284611 
L 384.727969 260.902321 
L 385.817813 260.925469 
L 386.907656 260.979057 
L 387.9975 261.02972 
L 390.177188 260.689042 
L 391.267031 260.890132 
L 392.356875 261.193831 
L 393.446719 261.143149 
L 395.626406 260.882397 
L 396.71625 260.995001 
L 398.351016 261.386724 
L 399.440859 261.371283 
L 401.075625 261.294934 
L 401.075625 261.294934 
" style="fill:none;stroke:#ff7f0e;stroke-linecap:square;stroke-width:1.5;"/>
   </g>
   <g id="line2d_33">
    <path clip-path="url(#pae5a382c32)" d="M 43.606875 255.46745 
L 45.241641 256.136183 
L 45.786563 255.910485 
L 46.331484 255.298192 
L 47.96625 252.891898 
L 48.511172 252.492164 
L 49.056094 252.34427 
L 50.145938 252.44363 
L 51.235781 252.55014 
L 51.780703 252.445673 
L 52.325625 252.157671 
L 53.960391 250.90621 
L 54.505313 250.810439 
L 56.140078 251.062003 
L 56.685 250.994393 
L 57.774844 250.480193 
L 58.319766 250.148681 
L 58.864688 249.948199 
L 59.409609 249.991159 
L 60.499453 250.519151 
L 61.044375 250.601128 
L 61.589297 250.394665 
L 62.679141 249.644466 
L 63.768984 249.311487 
L 65.40375 248.949505 
L 65.948672 248.63778 
L 66.493594 248.096098 
L 67.583438 246.717164 
L 68.128359 246.229327 
L 73.032656 243.379906 
L 74.1225 242.981842 
L 75.212344 242.723176 
L 76.302188 242.128512 
L 77.392031 241.395426 
L 77.936953 241.228111 
L 78.481875 241.303593 
L 80.116641 242.001333 
L 80.661563 241.850384 
L 81.206484 241.453347 
L 83.931094 238.831667 
L 85.020938 238.191503 
L 86.655703 237.586177 
L 87.200625 236.874427 
L 87.745547 235.522866 
L 88.835391 232.350214 
L 89.380313 231.650222 
L 89.925234 231.714777 
L 91.015078 232.643161 
L 91.56 232.767062 
L 92.104922 232.427768 
L 93.739688 230.426273 
L 94.284609 230.35895 
L 95.374453 230.909233 
L 95.919375 230.897191 
L 96.464297 230.470576 
L 97.554141 229.124887 
L 98.643984 228.323011 
L 99.733828 227.408153 
L 104.093203 222.34487 
L 105.183047 220.475708 
L 105.727969 219.810279 
L 106.272891 219.430944 
L 108.452578 218.681254 
L 108.9975 218.278212 
L 110.632266 216.728651 
L 111.722109 216.134872 
L 113.356875 214.69787 
L 114.991641 213.22039 
L 116.081484 212.232294 
L 117.171328 211.681689 
L 117.71625 211.195045 
L 118.806094 209.573127 
L 121.530703 205.169726 
L 122.620547 203.321171 
L 123.710391 201.968001 
L 124.255313 201.518359 
L 125.345156 201.053407 
L 126.435 200.720109 
L 126.979922 200.381398 
L 127.524844 199.83378 
L 128.614688 198.074424 
L 129.704531 196.160402 
L 133.518984 191.371947 
L 134.608828 190.244279 
L 136.243594 188.178391 
L 137.333438 187.193471 
L 137.878359 186.529436 
L 138.968203 184.720309 
L 140.058047 182.775204 
L 141.147891 181.423669 
L 142.782656 179.7619 
L 145.507266 176.324231 
L 146.597109 174.673546 
L 147.686953 172.158157 
L 148.776797 169.313034 
L 149.321719 168.159908 
L 149.866641 167.303942 
L 152.046328 164.821378 
L 153.136172 162.431983 
L 154.770938 158.337933 
L 155.315859 157.643917 
L 155.860781 157.446405 
L 156.405703 157.484065 
L 156.950625 157.337462 
L 157.495547 156.676196 
L 158.040469 155.463864 
L 159.675234 151.222796 
L 160.220156 150.34258 
L 161.31 149.050464 
L 162.399844 147.163253 
L 162.944766 146.205594 
L 163.489688 145.517797 
L 164.579531 144.509774 
L 165.124453 143.727993 
L 166.759219 140.758126 
L 168.393984 138.577949 
L 168.938906 137.405189 
L 170.573672 133.193275 
L 172.208438 130.272075 
L 174.388125 124.781312 
L 176.022891 121.471204 
L 177.657656 117.671326 
L 178.202578 116.789028 
L 178.7475 116.217237 
L 179.837344 115.470337 
L 180.382266 114.816303 
L 180.927188 113.708678 
L 183.106875 107.565234 
L 184.196719 105.789072 
L 185.286563 104.006425 
L 185.831484 102.733293 
L 186.921328 99.160073 
L 188.556094 93.593283 
L 189.101016 92.200247 
L 190.190859 90.227702 
L 191.280703 88.204687 
L 193.460391 83.307145 
L 195.095156 80.651576 
L 196.185 78.142359 
L 198.364688 72.931752 
L 199.999453 67.546874 
L 200.544375 66.302616 
L 201.089297 65.504768 
L 202.179141 64.486163 
L 202.724063 63.725379 
L 203.268984 62.479575 
L 204.358828 58.649818 
L 205.993594 52.464518 
L 206.538516 50.882072 
L 207.628359 48.625229 
L 208.718203 46.431023 
L 209.808047 44.243349 
L 215.257266 35.966973 
L 216.347109 34.719603 
L 216.892031 34.414125 
L 217.436953 34.474847 
L 217.981875 34.903411 
L 219.616641 36.8928 
L 220.161563 37.305972 
L 220.706484 37.919951 
L 221.251406 39.320505 
L 221.796328 41.928371 
L 223.431094 52.925455 
L 223.976016 55.382152 
L 225.065859 58.471805 
L 226.700625 62.473884 
L 227.790469 66.238446 
L 230.515078 77.405344 
L 234.329531 90.524895 
L 235.964297 96.119139 
L 238.143984 103.40979 
L 241.958438 116.79764 
L 250.132266 138.348383 
L 251.222109 141.072608 
L 253.401797 147.684305 
L 254.491641 149.858524 
L 255.581484 152.131729 
L 258.851016 160.998883 
L 259.940859 163.086209 
L 262.120547 166.338441 
L 263.210391 168.782768 
L 264.845156 172.769535 
L 266.479922 176.363541 
L 268.659609 182.164972 
L 269.204531 183.133035 
L 270.294375 184.41465 
L 270.839297 185.053798 
L 271.384219 185.928501 
L 274.108828 191.780339 
L 276.288516 196.880423 
L 276.833438 197.37504 
L 277.378359 197.452587 
L 277.923281 197.416461 
L 278.468203 197.618061 
L 279.013125 198.239712 
L 281.192813 202.228507 
L 281.737734 202.774716 
L 282.827578 203.352414 
L 283.3725 203.916567 
L 283.917422 204.901869 
L 285.007266 207.302042 
L 285.552188 208.164133 
L 286.642031 209.236098 
L 288.821719 211.185378 
L 289.911563 212.111326 
L 290.456484 212.873765 
L 293.726016 218.535311 
L 294.270938 219.295835 
L 294.815859 219.793312 
L 295.905703 220.429954 
L 296.450625 220.942075 
L 298.085391 222.922975 
L 299.175234 223.976635 
L 299.720156 224.706937 
L 300.265078 225.770014 
L 301.899844 230.010444 
L 302.444766 230.948975 
L 302.989688 231.452404 
L 303.534609 231.624872 
L 304.079531 231.556418 
L 305.714297 230.649405 
L 306.259219 230.743267 
L 306.804141 231.242194 
L 307.893984 232.891552 
L 308.983828 234.721009 
L 309.52875 235.440427 
L 310.073672 235.798556 
L 310.618594 235.747388 
L 311.708438 235.218071 
L 312.253359 235.39894 
L 312.798281 236.117304 
L 313.888125 238.160692 
L 314.433047 238.792049 
L 314.977969 239.047183 
L 316.067813 239.319794 
L 316.612734 239.761494 
L 318.2475 241.655555 
L 318.792422 241.913828 
L 319.882266 242.093115 
L 320.427188 242.336841 
L 322.061953 243.538184 
L 322.606875 243.559284 
L 324.241641 242.943206 
L 324.786563 243.084914 
L 325.331484 243.487357 
L 326.421328 244.550103 
L 327.511172 245.202134 
L 328.601016 245.909411 
L 330.235781 247.155106 
L 330.780703 247.405556 
L 331.325625 247.444084 
L 332.960391 246.73013 
L 333.505313 246.781891 
L 336.774844 248.111064 
L 337.864688 248.64197 
L 338.954531 249.195954 
L 340.044375 250.202905 
L 341.134219 251.213643 
L 342.224063 251.798754 
L 343.313906 252.065986 
L 344.40375 252.35217 
L 344.948672 252.761668 
L 346.583438 254.319086 
L 348.763125 255.76432 
L 349.308047 255.862358 
L 351.487734 255.776913 
L 354.212344 256.465802 
L 354.757266 256.304206 
L 355.847109 255.704651 
L 356.392031 255.622391 
L 356.936953 255.833683 
L 358.571719 257.069466 
L 359.116641 257.203848 
L 359.661563 257.107727 
L 360.751406 256.575893 
L 361.296328 256.473222 
L 361.84125 256.666185 
L 362.386172 257.152526 
L 363.476016 258.431513 
L 364.020938 258.895301 
L 364.565859 259.094148 
L 365.110781 258.982471 
L 366.745547 257.972743 
L 369.470156 257.81277 
L 370.015078 258.104383 
L 371.649844 259.47377 
L 372.739688 259.764414 
L 375.464297 259.81764 
L 376.009219 259.616164 
L 377.099063 258.762327 
L 377.643984 258.556494 
L 378.188906 258.798435 
L 379.823672 260.54233 
L 381.458438 261.438936 
L 382.003359 261.698459 
L 382.548281 261.807884 
L 384.727969 261.5429 
L 385.817813 261.638541 
L 387.452578 261.075881 
L 387.9975 261.165728 
L 389.632266 262.115868 
L 390.177188 262.030664 
L 390.722109 261.625207 
L 391.811953 260.574413 
L 392.356875 260.470489 
L 392.901797 260.820017 
L 393.991641 262.145782 
L 394.536563 262.541526 
L 395.081484 262.529605 
L 396.171328 262.000736 
L 396.71625 262.08116 
L 398.351016 263.17209 
L 400.530703 263.799472 
L 401.075625 263.673304 
L 401.075625 263.673304 
" style="fill:none;stroke:#2ca02c;stroke-linecap:square;stroke-width:1.5;"/>
   </g>
   <g id="patch_3">
    <path d="M 43.78125 288.430125 
L 43.78125 22.318125 
" style="fill:none;stroke:#000000;stroke-linecap:square;stroke-linejoin:miter;stroke-width:0.8;"/>
   </g>
   <g id="patch_4">
    <path d="M 400.90125 288.430125 
L 400.90125 22.318125 
" style="fill:none;stroke:#000000;stroke-linecap:square;stroke-linejoin:miter;stroke-width:0.8;"/>
   </g>
   <g id="patch_5">
    <path d="M 43.78125 288.430125 
L 400.90125 288.430125 
" style="fill:none;stroke:#000000;stroke-linecap:square;stroke-linejoin:miter;stroke-width:0.8;"/>
   </g>
   <g id="patch_6">
    <path d="M 43.78125 22.318125 
L 400.90125 22.318125 
" style="fill:none;stroke:#000000;stroke-linecap:square;stroke-linejoin:miter;stroke-width:0.8;"/>
   </g>
   <g id="text_18">
    <!-- Spektrum Vergleich -->
    <defs>
     <path d="M 53.515625 70.515625 
L 53.515625 60.890625 
Q 47.90625 63.578125 42.921875 64.890625 
Q 37.9375 66.21875 33.296875 66.21875 
Q 25.25 66.21875 20.875 63.09375 
Q 16.5 59.96875 16.5 54.203125 
Q 16.5 49.359375 19.40625 46.890625 
Q 22.3125 44.4375 30.421875 42.921875 
L 36.375 41.703125 
Q 47.40625 39.59375 52.65625 34.296875 
Q 57.90625 29 57.90625 20.125 
Q 57.90625 9.515625 50.796875 4.046875 
Q 43.703125 -1.421875 29.984375 -1.421875 
Q 24.8125 -1.421875 18.96875 -0.25 
Q 13.140625 0.921875 6.890625 3.21875 
L 6.890625 13.375 
Q 12.890625 10.015625 18.65625 8.296875 
Q 24.421875 6.59375 29.984375 6.59375 
Q 38.421875 6.59375 43.015625 9.90625 
Q 47.609375 13.234375 47.609375 19.390625 
Q 47.609375 24.75 44.3125 27.78125 
Q 41.015625 30.8125 33.5 32.328125 
L 27.484375 33.5 
Q 16.453125 35.6875 11.515625 40.375 
Q 6.59375 45.0625 6.59375 53.421875 
Q 6.59375 63.09375 13.40625 68.65625 
Q 20.21875 74.21875 32.171875 74.21875 
Q 37.3125 74.21875 42.625 73.28125 
Q 47.953125 72.359375 53.515625 70.515625 
" id="DejaVuSans-53"/>
     <path d="M 18.109375 8.203125 
L 18.109375 -20.796875 
L 9.078125 -20.796875 
L 9.078125 54.6875 
L 18.109375 54.6875 
L 18.109375 46.390625 
Q 20.953125 51.265625 25.265625 53.625 
Q 29.59375 56 35.59375 56 
Q 45.5625 56 51.78125 48.09375 
Q 58.015625 40.1875 58.015625 27.296875 
Q 58.015625 14.40625 51.78125 6.484375 
Q 45.5625 -1.421875 35.59375 -1.421875 
Q 29.59375 -1.421875 25.265625 0.953125 
Q 20.953125 3.328125 18.109375 8.203125 
M 48.6875 27.296875 
Q 48.6875 37.203125 44.609375 42.84375 
Q 40.53125 48.484375 33.40625 48.484375 
Q 26.265625 48.484375 22.1875 42.84375 
Q 18.109375 37.203125 18.109375 27.296875 
Q 18.109375 17.390625 22.1875 11.75 
Q 26.265625 6.109375 33.40625 6.109375 
Q 40.53125 6.109375 44.609375 11.75 
Q 48.6875 17.390625 48.6875 27.296875 
" id="DejaVuSans-70"/>
     <path d="M 18.3125 70.21875 
L 18.3125 54.6875 
L 36.8125 54.6875 
L 36.8125 47.703125 
L 18.3125 47.703125 
L 18.3125 18.015625 
Q 18.3125 11.328125 20.140625 9.421875 
Q 21.96875 7.515625 27.59375 7.515625 
L 36.8125 7.515625 
L 36.8125 0 
L 27.59375 0 
Q 17.1875 0 13.234375 3.875 
Q 9.28125 7.765625 9.28125 18.015625 
L 9.28125 47.703125 
L 2.6875 47.703125 
L 2.6875 54.6875 
L 9.28125 54.6875 
L 9.28125 70.21875 
z
" id="DejaVuSans-74"/>
     <path d="M 52 44.1875 
Q 55.375 50.25 60.0625 53.125 
Q 64.75 56 71.09375 56 
Q 79.640625 56 84.28125 50.015625 
Q 88.921875 44.046875 88.921875 33.015625 
L 88.921875 0 
L 79.890625 0 
L 79.890625 32.71875 
Q 79.890625 40.578125 77.09375 44.375 
Q 74.3125 48.1875 68.609375 48.1875 
Q 61.625 48.1875 57.5625 43.546875 
Q 53.515625 38.921875 53.515625 30.90625 
L 53.515625 0 
L 44.484375 0 
L 44.484375 32.71875 
Q 44.484375 40.625 41.703125 44.40625 
Q 38.921875 48.1875 33.109375 48.1875 
Q 26.21875 48.1875 22.15625 43.53125 
Q 18.109375 38.875 18.109375 30.90625 
L 18.109375 0 
L 9.078125 0 
L 9.078125 54.6875 
L 18.109375 54.6875 
L 18.109375 46.1875 
Q 21.1875 51.21875 25.484375 53.609375 
Q 29.78125 56 35.6875 56 
Q 41.65625 56 45.828125 52.96875 
Q 50 49.953125 52 44.1875 
" id="DejaVuSans-6d"/>
     <path d="M 28.609375 0 
L 0.78125 72.90625 
L 11.078125 72.90625 
L 34.1875 11.53125 
L 57.328125 72.90625 
L 67.578125 72.90625 
L 39.796875 0 
z
" id="DejaVuSans-56"/>
     <path d="M 45.40625 27.984375 
Q 45.40625 37.75 41.375 43.109375 
Q 37.359375 48.484375 30.078125 48.484375 
Q 22.859375 48.484375 18.828125 43.109375 
Q 14.796875 37.75 14.796875 27.984375 
Q 14.796875 18.265625 18.828125 12.890625 
Q 22.859375 7.515625 30.078125 7.515625 
Q 37.359375 7.515625 41.375 12.890625 
Q 45.40625 18.265625 45.40625 27.984375 
M 54.390625 6.78125 
Q 54.390625 -7.171875 48.1875 -13.984375 
Q 42 -20.796875 29.203125 -20.796875 
Q 24.46875 -20.796875 20.265625 -20.09375 
Q 16.0625 -19.390625 12.109375 -17.921875 
L 12.109375 -9.1875 
Q 16.0625 -11.328125 19.921875 -12.34375 
Q 23.78125 -13.375 27.78125 -13.375 
Q 36.625 -13.375 41.015625 -8.765625 
Q 45.40625 -4.15625 45.40625 5.171875 
L 45.40625 9.625 
Q 42.625 4.78125 38.28125 2.390625 
Q 33.9375 0 27.875 0 
Q 17.828125 0 11.671875 7.65625 
Q 5.515625 15.328125 5.515625 27.984375 
Q 5.515625 40.671875 11.671875 48.328125 
Q 17.828125 56 27.875 56 
Q 33.9375 56 38.28125 53.609375 
Q 42.625 51.21875 45.40625 46.390625 
L 45.40625 54.6875 
L 54.390625 54.6875 
z
" id="DejaVuSans-67"/>
     <path d="M 9.421875 75.984375 
L 18.40625 75.984375 
L 18.40625 0 
L 9.421875 0 
z
" id="DejaVuSans-6c"/>
     <path d="M 9.421875 54.6875 
L 18.40625 54.6875 
L 18.40625 0 
L 9.421875 0 
z
M 9.421875 75.984375 
L 18.40625 75.984375 
L 18.40625 64.59375 
L 9.421875 64.59375 
z
" id="DejaVuSans-69"/>
     <path d="M 48.78125 52.59375 
L 48.78125 44.1875 
Q 44.96875 46.296875 41.140625 47.34375 
Q 37.3125 48.390625 33.40625 48.390625 
Q 24.65625 48.390625 19.8125 42.84375 
Q 14.984375 37.3125 14.984375 27.296875 
Q 14.984375 17.28125 19.8125 11.734375 
Q 24.65625 6.203125 33.40625 6.203125 
Q 37.3125 6.203125 41.140625 7.25 
Q 44.96875 8.296875 48.78125 10.40625 
L 48.78125 2.09375 
Q 45.015625 0.34375 40.984375 -0.53125 
Q 36.96875 -1.421875 32.421875 -1.421875 
Q 20.0625 -1.421875 12.78125 6.34375 
Q 5.515625 14.109375 5.515625 27.296875 
Q 5.515625 40.671875 12.859375 48.328125 
Q 20.21875 56 33.015625 56 
Q 37.15625 56 41.109375 55.140625 
Q 45.0625 54.296875 48.78125 52.59375 
" id="DejaVuSans-63"/>
     <path d="M 54.890625 33.015625 
L 54.890625 0 
L 45.90625 0 
L 45.90625 32.71875 
Q 45.90625 40.484375 42.875 44.328125 
Q 39.84375 48.1875 33.796875 48.1875 
Q 26.515625 48.1875 22.3125 43.546875 
Q 18.109375 38.921875 18.109375 30.90625 
L 18.109375 0 
L 9.078125 0 
L 9.078125 75.984375 
L 18.109375 75.984375 
L 18.109375 46.1875 
Q 21.34375 51.125 25.703125 53.5625 
Q 30.078125 56 35.796875 56 
Q 45.21875 56 50.046875 50.171875 
Q 54.890625 44.34375 54.890625 33.015625 
" id="DejaVuSans-68"/>
    </defs>
    <g transform="translate(162.992813 16.318125)scale(0.12 -0.12)">
     <use xlink:href="#DejaVuSans-53"/>
     <use x="63.476562" xlink:href="#DejaVuSans-70"/>
     <use x="126.953125" xlink:href="#DejaVuSans-65"/>
     <use x="188.476562" xlink:href="#DejaVuSans-6b"/>
     <use x="246.386719" xlink:href="#DejaVuSans-74"/>
     <use x="285.595703" xlink:href="#DejaVuSans-72"/>
     <use x="326.708984" xlink:href="#DejaVuSans-75"/>
     <use x="390.087891" xlink:href="#DejaVuSans-6d"/>
     <use x="487.5" xlink:href="#DejaVuSans-20"/>
     <use x="519.287109" xlink:href="#DejaVuSans-56"/>
     <use x="587.585938" xlink:href="#DejaVuSans-65"/>
     <use x="649.109375" xlink:href="#DejaVuSans-72"/>
     <use x="690.207031" xlink:href="#DejaVuSans-67"/>
     <use x="753.683594" xlink:href="#DejaVuSans-6c"/>
     <use x="781.466797" xlink:href="#DejaVuSans-65"/>
     <use x="842.990234" xlink:href="#DejaVuSans-69"/>
     <use x="870.773438" xlink:href="#DejaVuSans-63"/>
     <use x="925.753906" xlink:href="#DejaVuSans-68"/>
    </g>
   </g>
   <g id="legend_1">
    <g id="patch_7">
     <path d="M 315.145 74.3525 
L 393.90125 74.3525 
Q 395.90125 74.3525 395.90125 72.3525 
L 395.90125 29.318125 
Q 395.90125 27.318125 393.90125 27.318125 
L 315.145 27.318125 
Q 313.145 27.318125 313.145 29.318125 
L 313.145 72.3525 
Q 313.145 74.3525 315.145 74.3525 
z
" style="fill:#ffffff;opacity:0.8;stroke:#cccccc;stroke-linejoin:miter;"/>
    </g>
    <g id="line2d_34">
     <path d="M 317.145 35.416562 
L 337.145 35.416562 
" style="fill:none;stroke:#1f77b4;stroke-linecap:square;stroke-width:1.5;"/>
    </g>
    <g id="line2d_35"/>
    <g id="text_19">
     <!-- 0.015 ms -->
     <defs>
      <path d="M 10.796875 72.90625 
L 49.515625 72.90625 
L 49.515625 64.59375 
L 19.828125 64.59375 
L 19.828125 46.734375 
Q 21.96875 47.46875 24.109375 47.828125 
Q 26.265625 48.1875 28.421875 48.1875 
Q 40.625 48.1875 47.75 41.5 
Q 54.890625 34.8125 54.890625 23.390625 
Q 54.890625 11.625 47.5625 5.09375 
Q 40.234375 -1.421875 26.90625 -1.421875 
Q 22.3125 -1.421875 17.546875 -0.640625 
Q 12.796875 0.140625 7.71875 1.703125 
L 7.71875 11.625 
Q 12.109375 9.234375 16.796875 8.0625 
Q 21.484375 6.890625 26.703125 6.890625 
Q 35.15625 6.890625 40.078125 11.328125 
Q 45.015625 15.765625 45.015625 23.390625 
Q 45.015625 31 40.078125 35.4375 
Q 35.15625 39.890625 26.703125 39.890625 
Q 22.75 39.890625 18.8125 39.015625 
Q 14.890625 38.140625 10.796875 36.28125 
z
" id="DejaVuSans-35"/>
      <path d="M 44.28125 53.078125 
L 44.28125 44.578125 
Q 40.484375 46.53125 36.375 47.5 
Q 32.28125 48.484375 27.875 48.484375 
Q 21.1875 48.484375 17.84375 46.4375 
Q 14.5 44.390625 14.5 40.28125 
Q 14.5 37.15625 16.890625 35.375 
Q 19.28125 33.59375 26.515625 31.984375 
L 29.59375 31.296875 
Q 39.15625 29.25 43.1875 25.515625 
Q 47.21875 21.78125 47.21875 15.09375 
Q 47.21875 7.46875 41.1875 3.015625 
Q 35.15625 -1.421875 24.609375 -1.421875 
Q 20.21875 -1.421875 15.453125 -0.5625 
Q 10.6875 0.296875 5.421875 2 
L 5.421875 11.28125 
Q 10.40625 8.6875 15.234375 7.390625 
Q 20.0625 6.109375 24.8125 6.109375 
Q 31.15625 6.109375 34.5625 8.28125 
Q 37.984375 10.453125 37.984375 14.40625 
Q 37.984375 18.0625 35.515625 20.015625 
Q 33.0625 21.96875 24.703125 23.78125 
L 21.578125 24.515625 
Q 13.234375 26.265625 9.515625 29.90625 
Q 5.8125 33.546875 5.8125 39.890625 
Q 5.8125 47.609375 11.28125 51.796875 
Q 16.75 56 26.8125 56 
Q 31.78125 56 36.171875 55.265625 
Q 40.578125 54.546875 44.28125 53.078125 
" id="DejaVuSans-73"/>
     </defs>
     <g transform="translate(345.145 38.916562)scale(0.1 -0.1)">
      <use xlink:href="#DejaVuSans-30"/>
      <use x="63.623047" xlink:href="#DejaVuSans-2e"/>
      <use x="95.410156" xlink:href="#DejaVuSans-30"/>
      <use x="159.033203" xlink:href="#DejaVuSans-31"/>
      <use x="222.65625" xlink:href="#DejaVuSans-35"/>
      <use x="286.279297" xlink:href="#DejaVuSans-20"/>
      <use x="318.066406" xlink:href="#DejaVuSans-6d"/>
      <use x="415.478516" xlink:href="#DejaVuSans-73"/>
     </g>
    </g>
    <g id="line2d_36">
     <path d="M 317.145 50.094688 
L 337.145 50.094688 
" style="fill:none;stroke:#ff7f0e;stroke-linecap:square;stroke-width:1.5;"/>
    </g>
    <g id="line2d_37"/>
    <g id="text_20">
     <!-- 0.1 ms -->
     <g transform="translate(345.145 53.594688)scale(0.1 -0.1)">
      <use xlink:href="#DejaVuSans-30"/>
      <use x="63.623047" xlink:href="#DejaVuSans-2e"/>
      <use x="95.410156" xlink:href="#DejaVuSans-31"/>
      <use x="159.033203" xlink:href="#DejaVuSans-20"/>
      <use x="190.820312" xlink:href="#DejaVuSans-6d"/>
      <use x="288.232422" xlink:href="#DejaVuSans-73"/>
     </g>
    </g>
    <g id="line2d_38">
     <path d="M 317.145 64.772812 
L 337.145 64.772812 
" style="fill:none;stroke:#2ca02c;stroke-linecap:square;stroke-width:1.5;"/>
    </g>
    <g id="line2d_39"/>
    <g id="text_21">
     <!-- 0.6 ms -->
     <g transform="translate(345.145 68.272812)scale(0.1 -0.1)">
      <use xlink:href="#DejaVuSans-30"/>
      <use x="63.623047" xlink:href="#DejaVuSans-2e"/>
      <use x="95.410156" xlink:href="#DejaVuSans-36"/>
      <use x="159.033203" xlink:href="#DejaVuSans-20"/>
      <use x="190.820312" xlink:href="#DejaVuSans-6d"/>
      <use x="288.232422" xlink:href="#DejaVuSans-73"/>
     </g>
    </g>
   </g>
  </g>
 </g>
 <defs>
  <clipPath id="pae5a382c32">
   <rect height="266.112" width="357.12" x="43.78125" y="22.318125"/>
  </clipPath>
 </defs>
</svg>
