<?xml version="1.0" encoding="utf-8" standalone="no"?>
<!DOCTYPE svg PUBLIC "-//W3C//DTD SVG 1.1//EN"
  "http://www.w3.org/Graphics/SVG/1.1/DTD/svg11.dtd">
<!-- Created with matplotlib (http://matplotlib.org/) -->
<svg height="325pt" version="1.1" viewBox="0 0 439 325" width="439pt" xmlns="http://www.w3.org/2000/svg" xmlns:xlink="http://www.w3.org/1999/xlink">
 <defs>
  <style type="text/css">
*{stroke-linecap:butt;stroke-linejoin:round;}
  </style>
 </defs>
 <g id="figure_1">
  <g id="patch_1">
   <path d="M 0 325.986375 
L 439.916875 325.986375 
L 439.916875 0 
L 0 0 
z
" style="fill:#ffffff;"/>
  </g>
  <g id="axes_1">
   <g id="patch_2">
    <path d="M 59.690625 288.430125 
L 416.810625 288.430125 
L 416.810625 22.318125 
L 59.690625 22.318125 
z
" style="fill:#ffffff;"/>
   </g>
   <g id="matplotlib.axis_1">
    <g id="xtick_1">
     <g id="line2d_1">
      <path clip-path="url(#p0d80e87147)" d="M 59.690625 288.430125 
L 59.690625 22.318125 
" style="fill:none;stroke:#b0b0b0;stroke-linecap:square;stroke-width:0.8;"/>
     </g>
     <g id="line2d_2">
      <defs>
       <path d="M 0 0 
L 0 3.5 
" id="mfab573c8f2" style="stroke:#000000;stroke-width:0.8;"/>
      </defs>
      <g>
       <use style="stroke:#000000;stroke-width:0.8;" x="59.690625" xlink:href="#mfab573c8f2" y="288.430125"/>
      </g>
     </g>
     <g id="text_1">
      <!-- −80000 -->
      <defs>
       <path d="M 10.59375 35.5 
L 73.1875 35.5 
L 73.1875 27.203125 
L 10.59375 27.203125 
z
" id="DejaVuSans-2212"/>
       <path d="M 31.78125 34.625 
Q 24.75 34.625 20.71875 30.859375 
Q 16.703125 27.09375 16.703125 20.515625 
Q 16.703125 13.921875 20.71875 10.15625 
Q 24.75 6.390625 31.78125 6.390625 
Q 38.8125 6.390625 42.859375 10.171875 
Q 46.921875 13.96875 46.921875 20.515625 
Q 46.921875 27.09375 42.890625 30.859375 
Q 38.875 34.625 31.78125 34.625 
M 21.921875 38.8125 
Q 15.578125 40.375 12.03125 44.71875 
Q 8.5 49.078125 8.5 55.328125 
Q 8.5 64.0625 14.71875 69.140625 
Q 20.953125 74.21875 31.78125 74.21875 
Q 42.671875 74.21875 48.875 69.140625 
Q 55.078125 64.0625 55.078125 55.328125 
Q 55.078125 49.078125 51.53125 44.71875 
Q 48 40.375 41.703125 38.8125 
Q 48.828125 37.15625 52.796875 32.3125 
Q 56.78125 27.484375 56.78125 20.515625 
Q 56.78125 9.90625 50.3125 4.234375 
Q 43.84375 -1.421875 31.78125 -1.421875 
Q 19.734375 -1.421875 13.25 4.234375 
Q 6.78125 9.90625 6.78125 20.515625 
Q 6.78125 27.484375 10.78125 32.3125 
Q 14.796875 37.15625 21.921875 38.8125 
M 18.3125 54.390625 
Q 18.3125 48.734375 21.84375 45.5625 
Q 25.390625 42.390625 31.78125 42.390625 
Q 38.140625 42.390625 41.71875 45.5625 
Q 45.3125 48.734375 45.3125 54.390625 
Q 45.3125 60.0625 41.71875 63.234375 
Q 38.140625 66.40625 31.78125 66.40625 
Q 25.390625 66.40625 21.84375 63.234375 
Q 18.3125 60.0625 18.3125 54.390625 
" id="DejaVuSans-38"/>
       <path d="M 31.78125 66.40625 
Q 24.171875 66.40625 20.328125 58.90625 
Q 16.5 51.421875 16.5 36.375 
Q 16.5 21.390625 20.328125 13.890625 
Q 24.171875 6.390625 31.78125 6.390625 
Q 39.453125 6.390625 43.28125 13.890625 
Q 47.125 21.390625 47.125 36.375 
Q 47.125 51.421875 43.28125 58.90625 
Q 39.453125 66.40625 31.78125 66.40625 
M 31.78125 74.21875 
Q 44.046875 74.21875 50.515625 64.515625 
Q 56.984375 54.828125 56.984375 36.375 
Q 56.984375 17.96875 50.515625 8.265625 
Q 44.046875 -1.421875 31.78125 -1.421875 
Q 19.53125 -1.421875 13.0625 8.265625 
Q 6.59375 17.96875 6.59375 36.375 
Q 6.59375 54.828125 13.0625 64.515625 
Q 19.53125 74.21875 31.78125 74.21875 
" id="DejaVuSans-30"/>
      </defs>
      <g transform="translate(39.594531 303.028562)scale(0.1 -0.1)">
       <use xlink:href="#DejaVuSans-2212"/>
       <use x="83.789062" xlink:href="#DejaVuSans-38"/>
       <use x="147.412109" xlink:href="#DejaVuSans-30"/>
       <use x="211.035156" xlink:href="#DejaVuSans-30"/>
       <use x="274.658203" xlink:href="#DejaVuSans-30"/>
       <use x="338.28125" xlink:href="#DejaVuSans-30"/>
      </g>
     </g>
    </g>
    <g id="xtick_2">
     <g id="line2d_3">
      <path clip-path="url(#p0d80e87147)" d="M 104.330625 288.430125 
L 104.330625 22.318125 
" style="fill:none;stroke:#b0b0b0;stroke-linecap:square;stroke-width:0.8;"/>
     </g>
     <g id="line2d_4">
      <g>
       <use style="stroke:#000000;stroke-width:0.8;" x="104.330625" xlink:href="#mfab573c8f2" y="288.430125"/>
      </g>
     </g>
     <g id="text_2">
      <!-- −60000 -->
      <defs>
       <path d="M 33.015625 40.375 
Q 26.375 40.375 22.484375 35.828125 
Q 18.609375 31.296875 18.609375 23.390625 
Q 18.609375 15.53125 22.484375 10.953125 
Q 26.375 6.390625 33.015625 6.390625 
Q 39.65625 6.390625 43.53125 10.953125 
Q 47.40625 15.53125 47.40625 23.390625 
Q 47.40625 31.296875 43.53125 35.828125 
Q 39.65625 40.375 33.015625 40.375 
M 52.59375 71.296875 
L 52.59375 62.3125 
Q 48.875 64.0625 45.09375 64.984375 
Q 41.3125 65.921875 37.59375 65.921875 
Q 27.828125 65.921875 22.671875 59.328125 
Q 17.53125 52.734375 16.796875 39.40625 
Q 19.671875 43.65625 24.015625 45.921875 
Q 28.375 48.1875 33.59375 48.1875 
Q 44.578125 48.1875 50.953125 41.515625 
Q 57.328125 34.859375 57.328125 23.390625 
Q 57.328125 12.15625 50.6875 5.359375 
Q 44.046875 -1.421875 33.015625 -1.421875 
Q 20.359375 -1.421875 13.671875 8.265625 
Q 6.984375 17.96875 6.984375 36.375 
Q 6.984375 53.65625 15.1875 63.9375 
Q 23.390625 74.21875 37.203125 74.21875 
Q 40.921875 74.21875 44.703125 73.484375 
Q 48.484375 72.75 52.59375 71.296875 
" id="DejaVuSans-36"/>
      </defs>
      <g transform="translate(84.234531 303.028562)scale(0.1 -0.1)">
       <use xlink:href="#DejaVuSans-2212"/>
       <use x="83.789062" xlink:href="#DejaVuSans-36"/>
       <use x="147.412109" xlink:href="#DejaVuSans-30"/>
       <use x="211.035156" xlink:href="#DejaVuSans-30"/>
       <use x="274.658203" xlink:href="#DejaVuSans-30"/>
       <use x="338.28125" xlink:href="#DejaVuSans-30"/>
      </g>
     </g>
    </g>
    <g id="xtick_3">
     <g id="line2d_5">
      <path clip-path="url(#p0d80e87147)" d="M 148.970625 288.430125 
L 148.970625 22.318125 
" style="fill:none;stroke:#b0b0b0;stroke-linecap:square;stroke-width:0.8;"/>
     </g>
     <g id="line2d_6">
      <g>
       <use style="stroke:#000000;stroke-width:0.8;" x="148.970625" xlink:href="#mfab573c8f2" y="288.430125"/>
      </g>
     </g>
     <g id="text_3">
      <!-- −40000 -->
      <defs>
       <path d="M 37.796875 64.3125 
L 12.890625 25.390625 
L 37.796875 25.390625 
z
M 35.203125 72.90625 
L 47.609375 72.90625 
L 47.609375 25.390625 
L 58.015625 25.390625 
L 58.015625 17.1875 
L 47.609375 17.1875 
L 47.609375 0 
L 37.796875 0 
L 37.796875 17.1875 
L 4.890625 17.1875 
L 4.890625 26.703125 
z
" id="DejaVuSans-34"/>
      </defs>
      <g transform="translate(128.874531 303.028562)scale(0.1 -0.1)">
       <use xlink:href="#DejaVuSans-2212"/>
       <use x="83.789062" xlink:href="#DejaVuSans-34"/>
       <use x="147.412109" xlink:href="#DejaVuSans-30"/>
       <use x="211.035156" xlink:href="#DejaVuSans-30"/>
       <use x="274.658203" xlink:href="#DejaVuSans-30"/>
       <use x="338.28125" xlink:href="#DejaVuSans-30"/>
      </g>
     </g>
    </g>
    <g id="xtick_4">
     <g id="line2d_7">
      <path clip-path="url(#p0d80e87147)" d="M 193.610625 288.430125 
L 193.610625 22.318125 
" style="fill:none;stroke:#b0b0b0;stroke-linecap:square;stroke-width:0.8;"/>
     </g>
     <g id="line2d_8">
      <g>
       <use style="stroke:#000000;stroke-width:0.8;" x="193.610625" xlink:href="#mfab573c8f2" y="288.430125"/>
      </g>
     </g>
     <g id="text_4">
      <!-- −20000 -->
      <defs>
       <path d="M 19.1875 8.296875 
L 53.609375 8.296875 
L 53.609375 0 
L 7.328125 0 
L 7.328125 8.296875 
Q 12.9375 14.109375 22.625 23.890625 
Q 32.328125 33.6875 34.8125 36.53125 
Q 39.546875 41.84375 41.421875 45.53125 
Q 43.3125 49.21875 43.3125 52.78125 
Q 43.3125 58.59375 39.234375 62.25 
Q 35.15625 65.921875 28.609375 65.921875 
Q 23.96875 65.921875 18.8125 64.3125 
Q 13.671875 62.703125 7.8125 59.421875 
L 7.8125 69.390625 
Q 13.765625 71.78125 18.9375 73 
Q 24.125 74.21875 28.421875 74.21875 
Q 39.75 74.21875 46.484375 68.546875 
Q 53.21875 62.890625 53.21875 53.421875 
Q 53.21875 48.921875 51.53125 44.890625 
Q 49.859375 40.875 45.40625 35.40625 
Q 44.1875 33.984375 37.640625 27.21875 
Q 31.109375 20.453125 19.1875 8.296875 
" id="DejaVuSans-32"/>
      </defs>
      <g transform="translate(173.514531 303.028562)scale(0.1 -0.1)">
       <use xlink:href="#DejaVuSans-2212"/>
       <use x="83.789062" xlink:href="#DejaVuSans-32"/>
       <use x="147.412109" xlink:href="#DejaVuSans-30"/>
       <use x="211.035156" xlink:href="#DejaVuSans-30"/>
       <use x="274.658203" xlink:href="#DejaVuSans-30"/>
       <use x="338.28125" xlink:href="#DejaVuSans-30"/>
      </g>
     </g>
    </g>
    <g id="xtick_5">
     <g id="line2d_9">
      <path clip-path="url(#p0d80e87147)" d="M 238.250625 288.430125 
L 238.250625 22.318125 
" style="fill:none;stroke:#b0b0b0;stroke-linecap:square;stroke-width:0.8;"/>
     </g>
     <g id="line2d_10">
      <g>
       <use style="stroke:#000000;stroke-width:0.8;" x="238.250625" xlink:href="#mfab573c8f2" y="288.430125"/>
      </g>
     </g>
     <g id="text_5">
      <!-- 0 -->
      <g transform="translate(235.069375 303.028562)scale(0.1 -0.1)">
       <use xlink:href="#DejaVuSans-30"/>
      </g>
     </g>
    </g>
    <g id="xtick_6">
     <g id="line2d_11">
      <path clip-path="url(#p0d80e87147)" d="M 282.890625 288.430125 
L 282.890625 22.318125 
" style="fill:none;stroke:#b0b0b0;stroke-linecap:square;stroke-width:0.8;"/>
     </g>
     <g id="line2d_12">
      <g>
       <use style="stroke:#000000;stroke-width:0.8;" x="282.890625" xlink:href="#mfab573c8f2" y="288.430125"/>
      </g>
     </g>
     <g id="text_6">
      <!-- 20000 -->
      <g transform="translate(266.984375 303.028562)scale(0.1 -0.1)">
       <use xlink:href="#DejaVuSans-32"/>
       <use x="63.623047" xlink:href="#DejaVuSans-30"/>
       <use x="127.246094" xlink:href="#DejaVuSans-30"/>
       <use x="190.869141" xlink:href="#DejaVuSans-30"/>
       <use x="254.492188" xlink:href="#DejaVuSans-30"/>
      </g>
     </g>
    </g>
    <g id="xtick_7">
     <g id="line2d_13">
      <path clip-path="url(#p0d80e87147)" d="M 327.530625 288.430125 
L 327.530625 22.318125 
" style="fill:none;stroke:#b0b0b0;stroke-linecap:square;stroke-width:0.8;"/>
     </g>
     <g id="line2d_14">
      <g>
       <use style="stroke:#000000;stroke-width:0.8;" x="327.530625" xlink:href="#mfab573c8f2" y="288.430125"/>
      </g>
     </g>
     <g id="text_7">
      <!-- 40000 -->
      <g transform="translate(311.624375 303.028562)scale(0.1 -0.1)">
       <use xlink:href="#DejaVuSans-34"/>
       <use x="63.623047" xlink:href="#DejaVuSans-30"/>
       <use x="127.246094" xlink:href="#DejaVuSans-30"/>
       <use x="190.869141" xlink:href="#DejaVuSans-30"/>
       <use x="254.492188" xlink:href="#DejaVuSans-30"/>
      </g>
     </g>
    </g>
    <g id="xtick_8">
     <g id="line2d_15">
      <path clip-path="url(#p0d80e87147)" d="M 372.170625 288.430125 
L 372.170625 22.318125 
" style="fill:none;stroke:#b0b0b0;stroke-linecap:square;stroke-width:0.8;"/>
     </g>
     <g id="line2d_16">
      <g>
       <use style="stroke:#000000;stroke-width:0.8;" x="372.170625" xlink:href="#mfab573c8f2" y="288.430125"/>
      </g>
     </g>
     <g id="text_8">
      <!-- 60000 -->
      <g transform="translate(356.264375 303.028562)scale(0.1 -0.1)">
       <use xlink:href="#DejaVuSans-36"/>
       <use x="63.623047" xlink:href="#DejaVuSans-30"/>
       <use x="127.246094" xlink:href="#DejaVuSans-30"/>
       <use x="190.869141" xlink:href="#DejaVuSans-30"/>
       <use x="254.492188" xlink:href="#DejaVuSans-30"/>
      </g>
     </g>
    </g>
    <g id="xtick_9">
     <g id="line2d_17">
      <path clip-path="url(#p0d80e87147)" d="M 416.810625 288.430125 
L 416.810625 22.318125 
" style="fill:none;stroke:#b0b0b0;stroke-linecap:square;stroke-width:0.8;"/>
     </g>
     <g id="line2d_18">
      <g>
       <use style="stroke:#000000;stroke-width:0.8;" x="416.810625" xlink:href="#mfab573c8f2" y="288.430125"/>
      </g>
     </g>
     <g id="text_9">
      <!-- 80000 -->
      <g transform="translate(400.904375 303.028562)scale(0.1 -0.1)">
       <use xlink:href="#DejaVuSans-38"/>
       <use x="63.623047" xlink:href="#DejaVuSans-30"/>
       <use x="127.246094" xlink:href="#DejaVuSans-30"/>
       <use x="190.869141" xlink:href="#DejaVuSans-30"/>
       <use x="254.492188" xlink:href="#DejaVuSans-30"/>
      </g>
     </g>
    </g>
    <g id="text_10">
     <!-- Frequenz [kHz] -->
     <defs>
      <path d="M 9.8125 72.90625 
L 51.703125 72.90625 
L 51.703125 64.59375 
L 19.671875 64.59375 
L 19.671875 43.109375 
L 48.578125 43.109375 
L 48.578125 34.8125 
L 19.671875 34.8125 
L 19.671875 0 
L 9.8125 0 
z
" id="DejaVuSans-46"/>
      <path d="M 41.109375 46.296875 
Q 39.59375 47.171875 37.8125 47.578125 
Q 36.03125 48 33.890625 48 
Q 26.265625 48 22.1875 43.046875 
Q 18.109375 38.09375 18.109375 28.8125 
L 18.109375 0 
L 9.078125 0 
L 9.078125 54.6875 
L 18.109375 54.6875 
L 18.109375 46.1875 
Q 20.953125 51.171875 25.484375 53.578125 
Q 30.03125 56 36.53125 56 
Q 37.453125 56 38.578125 55.875 
Q 39.703125 55.765625 41.0625 55.515625 
z
" id="DejaVuSans-72"/>
      <path d="M 56.203125 29.59375 
L 56.203125 25.203125 
L 14.890625 25.203125 
Q 15.484375 15.921875 20.484375 11.0625 
Q 25.484375 6.203125 34.421875 6.203125 
Q 39.59375 6.203125 44.453125 7.46875 
Q 49.3125 8.734375 54.109375 11.28125 
L 54.109375 2.78125 
Q 49.265625 0.734375 44.1875 -0.34375 
Q 39.109375 -1.421875 33.890625 -1.421875 
Q 20.796875 -1.421875 13.15625 6.1875 
Q 5.515625 13.8125 5.515625 26.8125 
Q 5.515625 40.234375 12.765625 48.109375 
Q 20.015625 56 32.328125 56 
Q 43.359375 56 49.78125 48.890625 
Q 56.203125 41.796875 56.203125 29.59375 
M 47.21875 32.234375 
Q 47.125 39.59375 43.09375 43.984375 
Q 39.0625 48.390625 32.421875 48.390625 
Q 24.90625 48.390625 20.390625 44.140625 
Q 15.875 39.890625 15.1875 32.171875 
z
" id="DejaVuSans-65"/>
      <path d="M 14.796875 27.296875 
Q 14.796875 17.390625 18.875 11.75 
Q 22.953125 6.109375 30.078125 6.109375 
Q 37.203125 6.109375 41.296875 11.75 
Q 45.40625 17.390625 45.40625 27.296875 
Q 45.40625 37.203125 41.296875 42.84375 
Q 37.203125 48.484375 30.078125 48.484375 
Q 22.953125 48.484375 18.875 42.84375 
Q 14.796875 37.203125 14.796875 27.296875 
M 45.40625 8.203125 
Q 42.578125 3.328125 38.25 0.953125 
Q 33.9375 -1.421875 27.875 -1.421875 
Q 17.96875 -1.421875 11.734375 6.484375 
Q 5.515625 14.40625 5.515625 27.296875 
Q 5.515625 40.1875 11.734375 48.09375 
Q 17.96875 56 27.875 56 
Q 33.9375 56 38.25 53.625 
Q 42.578125 51.265625 45.40625 46.390625 
L 45.40625 54.6875 
L 54.390625 54.6875 
L 54.390625 -20.796875 
L 45.40625 -20.796875 
z
" id="DejaVuSans-71"/>
      <path d="M 8.5 21.578125 
L 8.5 54.6875 
L 17.484375 54.6875 
L 17.484375 21.921875 
Q 17.484375 14.15625 20.5 10.265625 
Q 23.53125 6.390625 29.59375 6.390625 
Q 36.859375 6.390625 41.078125 11.03125 
Q 45.3125 15.671875 45.3125 23.6875 
L 45.3125 54.6875 
L 54.296875 54.6875 
L 54.296875 0 
L 45.3125 0 
L 45.3125 8.40625 
Q 42.046875 3.421875 37.71875 1 
Q 33.40625 -1.421875 27.6875 -1.421875 
Q 18.265625 -1.421875 13.375 4.4375 
Q 8.5 10.296875 8.5 21.578125 
M 31.109375 56 
z
" id="DejaVuSans-75"/>
      <path d="M 54.890625 33.015625 
L 54.890625 0 
L 45.90625 0 
L 45.90625 32.71875 
Q 45.90625 40.484375 42.875 44.328125 
Q 39.84375 48.1875 33.796875 48.1875 
Q 26.515625 48.1875 22.3125 43.546875 
Q 18.109375 38.921875 18.109375 30.90625 
L 18.109375 0 
L 9.078125 0 
L 9.078125 54.6875 
L 18.109375 54.6875 
L 18.109375 46.1875 
Q 21.34375 51.125 25.703125 53.5625 
Q 30.078125 56 35.796875 56 
Q 45.21875 56 50.046875 50.171875 
Q 54.890625 44.34375 54.890625 33.015625 
" id="DejaVuSans-6e"/>
      <path d="M 5.515625 54.6875 
L 48.1875 54.6875 
L 48.1875 46.484375 
L 14.40625 7.171875 
L 48.1875 7.171875 
L 48.1875 0 
L 4.296875 0 
L 4.296875 8.203125 
L 38.09375 47.515625 
L 5.515625 47.515625 
z
" id="DejaVuSans-7a"/>
      <path id="DejaVuSans-20"/>
      <path d="M 8.59375 75.984375 
L 29.296875 75.984375 
L 29.296875 69 
L 17.578125 69 
L 17.578125 -6.203125 
L 29.296875 -6.203125 
L 29.296875 -13.1875 
L 8.59375 -13.1875 
z
" id="DejaVuSans-5b"/>
      <path d="M 9.078125 75.984375 
L 18.109375 75.984375 
L 18.109375 31.109375 
L 44.921875 54.6875 
L 56.390625 54.6875 
L 27.390625 29.109375 
L 57.625 0 
L 45.90625 0 
L 18.109375 26.703125 
L 18.109375 0 
L 9.078125 0 
z
" id="DejaVuSans-6b"/>
      <path d="M 9.8125 72.90625 
L 19.671875 72.90625 
L 19.671875 43.015625 
L 55.515625 43.015625 
L 55.515625 72.90625 
L 65.375 72.90625 
L 65.375 0 
L 55.515625 0 
L 55.515625 34.71875 
L 19.671875 34.71875 
L 19.671875 0 
L 9.8125 0 
z
" id="DejaVuSans-48"/>
      <path d="M 30.421875 75.984375 
L 30.421875 -13.1875 
L 9.71875 -13.1875 
L 9.71875 -6.203125 
L 21.390625 -6.203125 
L 21.390625 69 
L 9.71875 69 
L 9.71875 75.984375 
z
" id="DejaVuSans-5d"/>
     </defs>
     <g transform="translate(200.267031 316.706687)scale(0.1 -0.1)">
      <use xlink:href="#DejaVuSans-46"/>
      <use x="57.410156" xlink:href="#DejaVuSans-72"/>
      <use x="98.492188" xlink:href="#DejaVuSans-65"/>
      <use x="160.015625" xlink:href="#DejaVuSans-71"/>
      <use x="223.492188" xlink:href="#DejaVuSans-75"/>
      <use x="286.871094" xlink:href="#DejaVuSans-65"/>
      <use x="348.394531" xlink:href="#DejaVuSans-6e"/>
      <use x="411.773438" xlink:href="#DejaVuSans-7a"/>
      <use x="464.263672" xlink:href="#DejaVuSans-20"/>
      <use x="496.050781" xlink:href="#DejaVuSans-5b"/>
      <use x="535.064453" xlink:href="#DejaVuSans-6b"/>
      <use x="592.974609" xlink:href="#DejaVuSans-48"/>
      <use x="668.169922" xlink:href="#DejaVuSans-7a"/>
      <use x="720.660156" xlink:href="#DejaVuSans-5d"/>
     </g>
    </g>
   </g>
   <g id="matplotlib.axis_2">
    <g id="ytick_1">
     <g id="line2d_19">
      <path clip-path="url(#p0d80e87147)" d="M 59.690625 264.419465 
L 416.810625 264.419465 
" style="fill:none;stroke:#b0b0b0;stroke-linecap:square;stroke-width:0.8;"/>
     </g>
     <g id="line2d_20">
      <defs>
       <path d="M 0 0 
L -3.5 0 
" id="m5298fc3c7a" style="stroke:#000000;stroke-width:0.8;"/>
      </defs>
      <g>
       <use style="stroke:#000000;stroke-width:0.8;" x="59.690625" xlink:href="#m5298fc3c7a" y="264.419465"/>
      </g>
     </g>
     <g id="text_11">
      <!-- 0 -->
      <g transform="translate(46.328125 268.218684)scale(0.1 -0.1)">
       <use xlink:href="#DejaVuSans-30"/>
      </g>
     </g>
    </g>
    <g id="ytick_2">
     <g id="line2d_21">
      <path clip-path="url(#p0d80e87147)" d="M 59.690625 217.905492 
L 416.810625 217.905492 
" style="fill:none;stroke:#b0b0b0;stroke-linecap:square;stroke-width:0.8;"/>
     </g>
     <g id="line2d_22">
      <g>
       <use style="stroke:#000000;stroke-width:0.8;" x="59.690625" xlink:href="#m5298fc3c7a" y="217.905492"/>
      </g>
     </g>
     <g id="text_12">
      <!-- 10000 -->
      <defs>
       <path d="M 12.40625 8.296875 
L 28.515625 8.296875 
L 28.515625 63.921875 
L 10.984375 60.40625 
L 10.984375 69.390625 
L 28.421875 72.90625 
L 38.28125 72.90625 
L 38.28125 8.296875 
L 54.390625 8.296875 
L 54.390625 0 
L 12.40625 0 
z
" id="DejaVuSans-31"/>
      </defs>
      <g transform="translate(20.878125 221.704711)scale(0.1 -0.1)">
       <use xlink:href="#DejaVuSans-31"/>
       <use x="63.623047" xlink:href="#DejaVuSans-30"/>
       <use x="127.246094" xlink:href="#DejaVuSans-30"/>
       <use x="190.869141" xlink:href="#DejaVuSans-30"/>
       <use x="254.492188" xlink:href="#DejaVuSans-30"/>
      </g>
     </g>
    </g>
    <g id="ytick_3">
     <g id="line2d_23">
      <path clip-path="url(#p0d80e87147)" d="M 59.690625 171.391519 
L 416.810625 171.391519 
" style="fill:none;stroke:#b0b0b0;stroke-linecap:square;stroke-width:0.8;"/>
     </g>
     <g id="line2d_24">
      <g>
       <use style="stroke:#000000;stroke-width:0.8;" x="59.690625" xlink:href="#m5298fc3c7a" y="171.391519"/>
      </g>
     </g>
     <g id="text_13">
      <!-- 20000 -->
      <g transform="translate(20.878125 175.190738)scale(0.1 -0.1)">
       <use xlink:href="#DejaVuSans-32"/>
       <use x="63.623047" xlink:href="#DejaVuSans-30"/>
       <use x="127.246094" xlink:href="#DejaVuSans-30"/>
       <use x="190.869141" xlink:href="#DejaVuSans-30"/>
       <use x="254.492188" xlink:href="#DejaVuSans-30"/>
      </g>
     </g>
    </g>
    <g id="ytick_4">
     <g id="line2d_25">
      <path clip-path="url(#p0d80e87147)" d="M 59.690625 124.877546 
L 416.810625 124.877546 
" style="fill:none;stroke:#b0b0b0;stroke-linecap:square;stroke-width:0.8;"/>
     </g>
     <g id="line2d_26">
      <g>
       <use style="stroke:#000000;stroke-width:0.8;" x="59.690625" xlink:href="#m5298fc3c7a" y="124.877546"/>
      </g>
     </g>
     <g id="text_14">
      <!-- 30000 -->
      <defs>
       <path d="M 40.578125 39.3125 
Q 47.65625 37.796875 51.625 33 
Q 55.609375 28.21875 55.609375 21.1875 
Q 55.609375 10.40625 48.1875 4.484375 
Q 40.765625 -1.421875 27.09375 -1.421875 
Q 22.515625 -1.421875 17.65625 -0.515625 
Q 12.796875 0.390625 7.625 2.203125 
L 7.625 11.71875 
Q 11.71875 9.328125 16.59375 8.109375 
Q 21.484375 6.890625 26.8125 6.890625 
Q 36.078125 6.890625 40.9375 10.546875 
Q 45.796875 14.203125 45.796875 21.1875 
Q 45.796875 27.640625 41.28125 31.265625 
Q 36.765625 34.90625 28.71875 34.90625 
L 20.21875 34.90625 
L 20.21875 43.015625 
L 29.109375 43.015625 
Q 36.375 43.015625 40.234375 45.921875 
Q 44.09375 48.828125 44.09375 54.296875 
Q 44.09375 59.90625 40.109375 62.90625 
Q 36.140625 65.921875 28.71875 65.921875 
Q 24.65625 65.921875 20.015625 65.03125 
Q 15.375 64.15625 9.8125 62.3125 
L 9.8125 71.09375 
Q 15.4375 72.65625 20.34375 73.4375 
Q 25.25 74.21875 29.59375 74.21875 
Q 40.828125 74.21875 47.359375 69.109375 
Q 53.90625 64.015625 53.90625 55.328125 
Q 53.90625 49.265625 50.4375 45.09375 
Q 46.96875 40.921875 40.578125 39.3125 
" id="DejaVuSans-33"/>
      </defs>
      <g transform="translate(20.878125 128.676765)scale(0.1 -0.1)">
       <use xlink:href="#DejaVuSans-33"/>
       <use x="63.623047" xlink:href="#DejaVuSans-30"/>
       <use x="127.246094" xlink:href="#DejaVuSans-30"/>
       <use x="190.869141" xlink:href="#DejaVuSans-30"/>
       <use x="254.492188" xlink:href="#DejaVuSans-30"/>
      </g>
     </g>
    </g>
    <g id="ytick_5">
     <g id="line2d_27">
      <path clip-path="url(#p0d80e87147)" d="M 59.690625 78.363574 
L 416.810625 78.363574 
" style="fill:none;stroke:#b0b0b0;stroke-linecap:square;stroke-width:0.8;"/>
     </g>
     <g id="line2d_28">
      <g>
       <use style="stroke:#000000;stroke-width:0.8;" x="59.690625" xlink:href="#m5298fc3c7a" y="78.363574"/>
      </g>
     </g>
     <g id="text_15">
      <!-- 40000 -->
      <g transform="translate(20.878125 82.162792)scale(0.1 -0.1)">
       <use xlink:href="#DejaVuSans-34"/>
       <use x="63.623047" xlink:href="#DejaVuSans-30"/>
       <use x="127.246094" xlink:href="#DejaVuSans-30"/>
       <use x="190.869141" xlink:href="#DejaVuSans-30"/>
       <use x="254.492188" xlink:href="#DejaVuSans-30"/>
      </g>
     </g>
    </g>
    <g id="ytick_6">
     <g id="line2d_29">
      <path clip-path="url(#p0d80e87147)" d="M 59.690625 31.849601 
L 416.810625 31.849601 
" style="fill:none;stroke:#b0b0b0;stroke-linecap:square;stroke-width:0.8;"/>
     </g>
     <g id="line2d_30">
      <g>
       <use style="stroke:#000000;stroke-width:0.8;" x="59.690625" xlink:href="#m5298fc3c7a" y="31.849601"/>
      </g>
     </g>
     <g id="text_16">
      <!-- 50000 -->
      <defs>
       <path d="M 10.796875 72.90625 
L 49.515625 72.90625 
L 49.515625 64.59375 
L 19.828125 64.59375 
L 19.828125 46.734375 
Q 21.96875 47.46875 24.109375 47.828125 
Q 26.265625 48.1875 28.421875 48.1875 
Q 40.625 48.1875 47.75 41.5 
Q 54.890625 34.8125 54.890625 23.390625 
Q 54.890625 11.625 47.5625 5.09375 
Q 40.234375 -1.421875 26.90625 -1.421875 
Q 22.3125 -1.421875 17.546875 -0.640625 
Q 12.796875 0.140625 7.71875 1.703125 
L 7.71875 11.625 
Q 12.109375 9.234375 16.796875 8.0625 
Q 21.484375 6.890625 26.703125 6.890625 
Q 35.15625 6.890625 40.078125 11.328125 
Q 45.015625 15.765625 45.015625 23.390625 
Q 45.015625 31 40.078125 35.4375 
Q 35.15625 39.890625 26.703125 39.890625 
Q 22.75 39.890625 18.8125 39.015625 
Q 14.890625 38.140625 10.796875 36.28125 
z
" id="DejaVuSans-35"/>
      </defs>
      <g transform="translate(20.878125 35.64882)scale(0.1 -0.1)">
       <use xlink:href="#DejaVuSans-35"/>
       <use x="63.623047" xlink:href="#DejaVuSans-30"/>
       <use x="127.246094" xlink:href="#DejaVuSans-30"/>
       <use x="190.869141" xlink:href="#DejaVuSans-30"/>
       <use x="254.492188" xlink:href="#DejaVuSans-30"/>
      </g>
     </g>
    </g>
    <g id="text_17">
     <!-- u.a. -->
     <defs>
      <path d="M 10.6875 12.40625 
L 21 12.40625 
L 21 0 
L 10.6875 0 
z
" id="DejaVuSans-2e"/>
      <path d="M 34.28125 27.484375 
Q 23.390625 27.484375 19.1875 25 
Q 14.984375 22.515625 14.984375 16.5 
Q 14.984375 11.71875 18.140625 8.90625 
Q 21.296875 6.109375 26.703125 6.109375 
Q 34.1875 6.109375 38.703125 11.40625 
Q 43.21875 16.703125 43.21875 25.484375 
L 43.21875 27.484375 
z
M 52.203125 31.203125 
L 52.203125 0 
L 43.21875 0 
L 43.21875 8.296875 
Q 40.140625 3.328125 35.546875 0.953125 
Q 30.953125 -1.421875 24.3125 -1.421875 
Q 15.921875 -1.421875 10.953125 3.296875 
Q 6 8.015625 6 15.921875 
Q 6 25.140625 12.171875 29.828125 
Q 18.359375 34.515625 30.609375 34.515625 
L 43.21875 34.515625 
L 43.21875 35.40625 
Q 43.21875 41.609375 39.140625 45 
Q 35.0625 48.390625 27.6875 48.390625 
Q 23 48.390625 18.546875 47.265625 
Q 14.109375 46.140625 10.015625 43.890625 
L 10.015625 52.203125 
Q 14.9375 54.109375 19.578125 55.046875 
Q 24.21875 56 28.609375 56 
Q 40.484375 56 46.34375 49.84375 
Q 52.203125 43.703125 52.203125 31.203125 
" id="DejaVuSans-61"/>
     </defs>
     <g transform="translate(14.798438 164.785062)rotate(-90)scale(0.1 -0.1)">
      <use xlink:href="#DejaVuSans-75"/>
      <use x="63.378906" xlink:href="#DejaVuSans-2e"/>
      <use x="95.166016" xlink:href="#DejaVuSans-61"/>
      <use x="156.445312" xlink:href="#DejaVuSans-2e"/>
     </g>
    </g>
   </g>
   <g id="line2d_31">
    <path clip-path="url(#p0d80e87147)" d="M 59.51625 254.412302 
L 61.151016 254.339721 
L 63.875625 253.815771 
L 66.600234 252.321157 
L 67.690078 252.036074 
L 68.235 252.0353 
L 69.324844 252.420422 
L 69.869766 252.619376 
L 70.414688 252.680501 
L 70.959609 252.578663 
L 72.049453 251.969528 
L 73.139297 251.126734 
L 73.684219 250.821168 
L 74.774063 250.565176 
L 75.863906 250.204905 
L 78.043594 248.723008 
L 80.768203 246.494251 
L 81.858047 246.313488 
L 82.947891 246.119153 
L 84.582656 245.275438 
L 85.6725 244.500767 
L 90.576797 240.336834 
L 92.756484 239.324721 
L 94.39125 237.668026 
L 94.936172 237.427472 
L 96.570938 237.642171 
L 97.660781 237.199629 
L 98.750625 236.600838 
L 100.385391 235.494214 
L 102.020156 234.960756 
L 103.11 234.765874 
L 103.654922 234.708669 
L 104.199844 234.468354 
L 105.289688 233.305997 
L 106.379531 232.179711 
L 109.649063 229.343354 
L 112.918594 226.427112 
L 114.008438 225.342639 
L 118.912734 221.302567 
L 121.092422 219.14784 
L 122.182266 217.951616 
L 122.727188 217.522964 
L 124.361953 216.733908 
L 125.451797 215.592717 
L 126.541641 214.328234 
L 131.445938 209.620604 
L 134.170547 206.49364 
L 135.805313 205.091176 
L 139.074844 201.517545 
L 140.709609 198.943011 
L 143.434219 195.494155 
L 144.524063 194.099803 
L 148.338516 190.753323 
L 149.973281 188.462515 
L 151.608047 185.774188 
L 152.697891 184.09736 
L 153.787734 182.989516 
L 154.877578 181.914482 
L 155.4225 181.158565 
L 156.512344 179.109078 
L 157.602188 176.858297 
L 158.692031 175.208475 
L 161.961563 171.574029 
L 163.051406 169.808025 
L 164.14125 167.920767 
L 165.776016 165.253311 
L 167.410781 161.965733 
L 168.500625 160.311724 
L 170.680313 157.543627 
L 175.039688 150.467856 
L 176.674453 147.152848 
L 178.309219 144.463795 
L 179.399063 142.697016 
L 180.488906 140.45539 
L 182.123672 136.924756 
L 183.758438 133.900114 
L 186.483047 129.458826 
L 188.117813 125.85817 
L 190.842422 119.599663 
L 192.477188 116.674184 
L 194.656875 112.264609 
L 197.381484 107.480225 
L 199.01625 103.648212 
L 200.651016 100.077886 
L 202.285781 96.569536 
L 205.555313 89.296122 
L 206.645156 86.698345 
L 208.279922 81.926166 
L 209.369766 78.814763 
L 209.914688 77.697716 
L 210.459609 77.003671 
L 212.094375 75.621395 
L 212.639297 75.127473 
L 213.729141 74.611956 
L 214.274063 73.956705 
L 214.818984 72.470468 
L 217.543594 61.246943 
L 218.633438 58.260309 
L 220.268203 54.970215 
L 221.358047 52.770343 
L 222.447891 50.074077 
L 223.537734 47.32228 
L 224.627578 45.372965 
L 225.717422 43.657673 
L 228.442031 38.81221 
L 230.076797 36.117507 
L 231.166641 34.882382 
L 231.711563 34.550765 
L 232.256484 34.414125 
L 232.801406 34.457863 
L 233.89125 34.926052 
L 234.436172 35.179605 
L 234.981094 35.290552 
L 235.526016 35.17915 
L 236.070938 34.899183 
L 236.615859 34.759711 
L 237.160781 35.358718 
L 237.705703 37.330046 
L 238.250625 40.840347 
L 239.340469 49.686064 
L 239.885391 53.241913 
L 240.430313 55.846546 
L 241.520156 59.592629 
L 243.154922 65.000356 
L 246.424453 77.364244 
L 248.604141 85.659072 
L 250.238906 91.288812 
L 251.873672 96.464516 
L 253.508438 101.625635 
L 255.143203 106.083775 
L 257.322891 112.843112 
L 260.0475 120.294868 
L 262.227188 127.04228 
L 264.406875 132.477067 
L 266.586563 139.423259 
L 269.311172 146.148367 
L 270.945938 150.127662 
L 275.305313 159.940249 
L 278.029922 166.321349 
L 279.119766 168.604758 
L 281.844375 173.337145 
L 284.024063 177.998119 
L 286.20375 181.980854 
L 291.108047 190.165015 
L 292.742813 192.942934 
L 299.281875 202.944294 
L 300.371719 204.19406 
L 302.006484 205.855346 
L 303.096328 207.552251 
L 304.186172 209.50039 
L 307.455703 214.21104 
L 308.545547 215.677978 
L 309.090469 216.079336 
L 310.725234 216.885087 
L 312.36 218.256552 
L 312.904922 218.877151 
L 313.994766 220.659327 
L 315.084609 222.643795 
L 315.629531 223.383692 
L 316.174453 223.860348 
L 317.809219 224.627956 
L 318.354141 225.166276 
L 321.623672 229.592029 
L 322.713516 230.450358 
L 323.803359 231.175238 
L 325.983047 233.111095 
L 327.617813 234.039078 
L 329.252578 234.808484 
L 330.887344 235.832942 
L 332.522109 236.585844 
L 334.701797 238.103193 
L 335.791641 238.793638 
L 337.426406 240.597158 
L 339.061172 242.138012 
L 340.695938 243.365914 
L 342.330703 244.297363 
L 343.420547 244.63357 
L 344.510391 244.918495 
L 345.600234 245.529926 
L 347.779922 247.294124 
L 348.869766 247.644506 
L 349.959609 247.767187 
L 351.594375 247.779619 
L 352.684219 248.066629 
L 356.498672 249.52728 
L 358.678359 251.057417 
L 359.768203 251.465962 
L 361.947891 251.637608 
L 363.037734 252.242701 
L 364.6725 253.386478 
L 365.762344 253.604884 
L 366.852188 253.783847 
L 368.486953 254.139335 
L 370.121719 254.10302 
L 371.211563 254.037823 
L 371.756484 254.142027 
L 372.846328 254.7625 
L 373.936172 255.437461 
L 374.481094 255.581407 
L 376.660781 255.652233 
L 379.930313 257.084135 
L 381.565078 258.18406 
L 382.11 258.236014 
L 383.199844 257.733136 
L 383.744766 257.518847 
L 384.289688 257.505447 
L 385.924453 257.804518 
L 387.559219 257.64139 
L 388.649063 257.956912 
L 390.283828 258.375198 
L 391.373672 258.478818 
L 393.008438 258.322615 
L 395.188125 258.896549 
L 396.822891 259.36516 
L 397.912734 259.89687 
L 399.5475 260.944593 
L 401.182266 261.639044 
L 402.272109 261.904585 
L 403.906875 262.089272 
L 405.541641 262.599294 
L 406.086563 262.568984 
L 407.721328 262.19678 
L 408.811172 262.499321 
L 409.356094 262.671738 
L 409.901016 262.676859 
L 410.990859 262.162954 
L 411.535781 261.902956 
L 412.080703 261.795721 
L 414.260391 261.75587 
L 415.350234 261.81807 
L 416.440078 261.91499 
L 416.985 261.893267 
L 416.985 261.893267 
" style="fill:none;stroke:#1f77b4;stroke-linecap:square;stroke-width:1.5;"/>
   </g>
   <g id="line2d_32">
    <path clip-path="url(#p0d80e87147)" d="M 59.51625 255.312939 
L 62.785781 253.82247 
L 63.875625 253.525436 
L 66.055313 253.498201 
L 67.145156 252.82122 
L 67.690078 252.43135 
L 68.235 252.198564 
L 68.779922 252.19718 
L 70.414688 252.75671 
L 70.959609 252.718329 
L 71.504531 252.498371 
L 73.684219 251.036187 
L 74.774063 250.052184 
L 75.863906 248.946425 
L 76.408828 248.63319 
L 77.498672 248.462833 
L 79.678359 248.439283 
L 80.768203 248.100218 
L 82.402969 247.588293 
L 85.127578 246.752005 
L 87.307266 245.882121 
L 89.486953 244.608566 
L 90.031875 244.528456 
L 91.666641 244.606533 
L 92.211563 244.470982 
L 93.301406 243.856996 
L 94.39125 242.836559 
L 97.115859 239.737831 
L 98.205703 239.285337 
L 99.295547 238.995463 
L 100.385391 238.404388 
L 101.475234 237.437665 
L 103.654922 234.977851 
L 104.199844 234.750559 
L 104.744766 234.787426 
L 105.834609 235.025563 
L 106.379531 234.723006 
L 106.924453 233.955627 
L 108.014297 232.016658 
L 108.559219 231.485451 
L 109.649063 231.158795 
L 113.463516 230.142124 
L 114.008438 229.827827 
L 114.553359 229.341126 
L 116.733047 226.932849 
L 117.822891 226.338377 
L 118.912734 225.870036 
L 120.002578 225.034735 
L 121.092422 224.107557 
L 122.182266 223.633648 
L 123.272109 223.167575 
L 124.361953 222.138995 
L 125.451797 220.692545 
L 127.086563 218.288414 
L 127.631484 217.795951 
L 128.721328 217.320263 
L 129.811172 216.822966 
L 130.901016 215.887477 
L 132.535781 214.242059 
L 134.170547 212.943269 
L 135.260391 211.668787 
L 136.895156 209.532716 
L 138.529922 207.956287 
L 142.344375 204.577458 
L 143.434219 203.802624 
L 144.524063 202.590389 
L 147.248672 198.737895 
L 151.608047 194.247519 
L 152.152969 193.792093 
L 152.697891 193.180677 
L 153.787734 191.493355 
L 154.877578 189.801 
L 155.967422 188.559816 
L 157.057266 187.577026 
L 158.147109 186.136682 
L 159.781875 183.835082 
L 161.416641 181.528828 
L 163.596328 178.110748 
L 164.686172 176.49361 
L 166.865859 173.883461 
L 169.045547 170.26222 
L 170.135391 168.764963 
L 171.225234 166.707832 
L 172.315078 164.695023 
L 173.404922 163.331025 
L 175.039688 161.45117 
L 176.129531 159.653063 
L 177.219375 157.795121 
L 178.309219 156.599726 
L 179.399063 155.296684 
L 181.57875 151.746087 
L 183.758438 147.968795 
L 185.938125 144.474719 
L 187.572891 141.185526 
L 188.662734 139.123358 
L 190.2975 136.392189 
L 192.477188 132.106439 
L 196.291641 125.628103 
L 197.926406 123.072004 
L 199.561172 120.621924 
L 201.195938 117.363276 
L 202.830703 113.669997 
L 204.465469 109.665091 
L 207.190078 104.294175 
L 208.824844 100.926211 
L 210.459609 97.909773 
L 211.549453 95.248825 
L 212.639297 91.903707 
L 213.729141 88.631226 
L 214.274063 87.766861 
L 214.818984 87.557871 
L 215.363906 87.574403 
L 215.908828 87.270914 
L 216.45375 86.446335 
L 219.723281 79.403309 
L 221.902969 73.782752 
L 222.992813 72.035048 
L 224.082656 70.636579 
L 225.1725 68.839997 
L 226.807266 65.360111 
L 227.897109 63.224622 
L 230.621719 58.792825 
L 231.166641 58.547501 
L 232.801406 58.531086 
L 233.346328 58.588233 
L 234.436172 59.092866 
L 236.070938 60.17363 
L 236.615859 60.864159 
L 237.160781 62.257944 
L 237.705703 64.680885 
L 239.885391 78.221821 
L 240.975234 82.139549 
L 245.334609 94.216608 
L 249.149063 104.348227 
L 251.873672 112.658466 
L 254.598281 121.435313 
L 256.233047 125.572676 
L 258.957656 132.255178 
L 261.137344 138.422439 
L 262.772109 142.810371 
L 264.951797 148.299561 
L 267.131484 154.087797 
L 269.856094 159.698433 
L 270.945938 162.344614 
L 274.215469 168.748148 
L 278.574844 176.954325 
L 282.389297 184.644703 
L 283.479141 186.807365 
L 284.568984 188.170274 
L 285.658828 189.529049 
L 293.287734 201.522538 
L 296.012344 204.53151 
L 297.102188 206.193156 
L 298.736953 208.904287 
L 300.916641 211.8619 
L 302.551406 214.332842 
L 303.64125 215.561559 
L 305.820938 217.061863 
L 309.635391 221.536768 
L 311.815078 223.289052 
L 312.904922 224.404208 
L 314.539688 225.651008 
L 316.719375 228.177967 
L 317.809219 228.693311 
L 318.354141 229.155038 
L 320.533828 231.501207 
L 322.713516 232.788068 
L 324.348281 234.239549 
L 327.072891 237.0449 
L 329.252578 237.801728 
L 330.887344 239.141488 
L 333.067031 240.449589 
L 334.156875 241.149703 
L 335.791641 241.872497 
L 337.971328 243.528661 
L 338.51625 243.577752 
L 340.151016 243.304465 
L 340.695938 243.483754 
L 341.785781 244.23384 
L 343.965469 245.981206 
L 345.055313 246.810017 
L 348.869766 248.494151 
L 351.049453 249.11153 
L 351.594375 249.497116 
L 353.229141 250.983873 
L 353.774063 251.108853 
L 354.318984 250.961764 
L 355.408828 250.408567 
L 355.95375 250.314954 
L 356.498672 250.428613 
L 357.588516 251.075908 
L 359.768203 252.526771 
L 360.858047 253.132151 
L 363.037734 253.887606 
L 363.582656 253.920577 
L 365.217422 253.368474 
L 365.762344 253.481573 
L 366.307266 253.869588 
L 367.942031 255.452692 
L 369.031875 256.081433 
L 370.121719 256.190043 
L 371.211563 256.183955 
L 372.301406 256.385409 
L 373.39125 256.954601 
L 374.481094 257.646256 
L 375.026016 257.841426 
L 375.570938 257.895882 
L 376.660781 257.651373 
L 377.750625 257.291568 
L 378.840469 257.306654 
L 379.930313 257.467959 
L 381.565078 257.40481 
L 382.654922 257.734945 
L 384.289688 258.213981 
L 387.014297 259.008831 
L 389.193984 259.134447 
L 389.738906 259.007374 
L 391.373672 258.318329 
L 391.918594 258.367897 
L 393.008438 258.940616 
L 394.098281 259.526691 
L 395.188125 259.737808 
L 396.277969 259.883418 
L 397.367813 260.272071 
L 398.457656 260.718102 
L 400.637344 261.271052 
L 403.361953 261.391952 
L 404.451797 261.310654 
L 406.086563 261.080133 
L 407.176406 261.260142 
L 408.26625 261.532001 
L 409.356094 261.486632 
L 412.080703 261.264365 
L 415.350234 261.690849 
L 416.985 261.622504 
L 416.985 261.622504 
" style="fill:none;stroke:#ff7f0e;stroke-linecap:square;stroke-width:1.5;"/>
   </g>
   <g id="line2d_33">
    <path clip-path="url(#p0d80e87147)" d="M 59.51625 259.273311 
L 61.151016 259.657739 
L 61.695938 259.527994 
L 62.240859 259.176011 
L 63.875625 257.79273 
L 64.420547 257.562939 
L 65.510391 257.486588 
L 67.145156 257.596267 
L 68.235 257.370652 
L 69.869766 256.651237 
L 70.959609 256.640985 
L 72.049453 256.740796 
L 73.139297 256.585807 
L 74.774063 256.100515 
L 75.318984 256.125212 
L 76.95375 256.475858 
L 78.043594 256.134071 
L 79.133438 255.799933 
L 81.313125 255.526406 
L 81.858047 255.347208 
L 82.947891 254.629884 
L 84.037734 253.962685 
L 89.486953 252.185738 
L 91.666641 251.80567 
L 93.846328 251.087687 
L 94.39125 251.131079 
L 96.026016 251.532181 
L 96.570938 251.445407 
L 97.660781 250.907281 
L 99.295547 249.957273 
L 100.385391 249.50568 
L 101.475234 249.226323 
L 102.565078 248.994086 
L 103.11 248.584929 
L 103.654922 247.807971 
L 104.744766 245.98414 
L 105.289688 245.581743 
L 105.834609 245.618854 
L 106.924453 246.152544 
L 107.469375 246.22377 
L 108.014297 246.028723 
L 109.649063 244.878144 
L 110.193984 244.839443 
L 111.283828 245.155778 
L 111.82875 245.148856 
L 112.373672 244.903612 
L 113.463516 244.130029 
L 116.733047 242.428581 
L 120.002578 240.23247 
L 121.092422 239.157964 
L 121.637344 238.775436 
L 122.727188 238.438675 
L 124.361953 238.126404 
L 125.451797 237.570537 
L 126.541641 237.003932 
L 128.176406 236.413119 
L 131.990859 234.419156 
L 133.080703 234.102636 
L 133.625625 233.822884 
L 135.260391 232.400017 
L 136.895156 230.937909 
L 138.529922 229.29651 
L 139.619766 228.518627 
L 140.709609 228.093404 
L 142.889297 227.606552 
L 143.434219 227.291749 
L 144.524063 226.280366 
L 145.613906 225.180072 
L 149.428359 222.427381 
L 150.518203 221.77913 
L 152.152969 220.591534 
L 153.787734 219.643616 
L 154.877578 218.603621 
L 155.967422 217.485459 
L 157.057266 216.708516 
L 158.692031 215.753231 
L 161.416641 213.777053 
L 162.506484 212.828141 
L 163.596328 211.382145 
L 164.686172 209.746598 
L 165.776016 208.591652 
L 167.955703 207.164525 
L 169.045547 205.790958 
L 170.680313 203.437453 
L 171.225234 203.038491 
L 171.770156 202.924949 
L 172.86 202.862323 
L 173.404922 202.482187 
L 174.494766 200.911843 
L 175.584609 199.347247 
L 176.674453 198.472019 
L 177.764297 197.605505 
L 178.854141 196.463059 
L 179.943984 195.792185 
L 180.488906 195.4882 
L 181.57875 194.454922 
L 182.668594 193.331528 
L 184.303359 192.078232 
L 185.393203 190.566748 
L 186.483047 188.982799 
L 188.117813 187.303519 
L 190.842422 183.548281 
L 191.932266 182.244251 
L 193.567031 180.059854 
L 194.111953 179.552657 
L 195.201797 179.013681 
L 195.746719 178.794594 
L 196.291641 178.418616 
L 196.836563 177.781887 
L 199.01625 174.250268 
L 200.106094 173.229224 
L 201.195938 172.204452 
L 201.740859 171.472579 
L 202.830703 169.418478 
L 204.465469 166.218355 
L 205.555313 164.795358 
L 207.190078 163.120667 
L 209.369766 160.305267 
L 211.004531 158.778687 
L 212.639297 156.574384 
L 214.274063 154.34087 
L 215.908828 151.24532 
L 216.45375 150.530046 
L 216.998672 150.071395 
L 218.633438 149.048496 
L 219.178359 148.332333 
L 220.268203 146.13076 
L 221.902969 142.575079 
L 222.992813 140.956494 
L 224.627578 139.106665 
L 225.717422 137.84906 
L 231.166641 133.091304 
L 232.256484 132.37424 
L 232.801406 132.198633 
L 233.346328 132.23354 
L 233.89125 132.479904 
L 235.526016 133.623524 
L 236.615859 134.213992 
L 237.160781 135.019114 
L 237.705703 136.518271 
L 239.340469 142.840054 
L 239.885391 144.25231 
L 240.975234 146.028427 
L 242.61 148.329062 
L 243.699844 150.493157 
L 246.424453 156.912558 
L 250.238906 164.454461 
L 251.873672 167.670367 
L 254.053359 171.86147 
L 257.867813 179.557607 
L 266.041641 191.946264 
L 267.131484 193.512311 
L 269.311172 197.31311 
L 270.401016 198.562982 
L 271.490859 199.869756 
L 274.760391 204.967127 
L 275.850234 206.167046 
L 278.029922 208.036624 
L 279.119766 209.441769 
L 280.754531 211.733601 
L 282.389297 213.799651 
L 284.568984 217.134661 
L 285.658828 218.098237 
L 286.748672 218.795331 
L 287.838516 219.949432 
L 292.197891 225.593983 
L 292.742813 225.878318 
L 294.377578 226.018021 
L 294.9225 226.375383 
L 297.102188 228.668381 
L 297.647109 228.982375 
L 298.736953 229.31447 
L 299.281875 229.638779 
L 300.371719 230.917472 
L 301.461563 232.080534 
L 303.096328 232.98952 
L 304.731094 233.817326 
L 305.820938 234.349617 
L 306.910781 235.341518 
L 309.090469 237.519409 
L 310.180313 238.479703 
L 311.270156 238.941882 
L 312.36 239.42606 
L 314.539688 240.862566 
L 315.629531 241.590328 
L 316.174453 242.201448 
L 317.809219 244.639101 
L 318.354141 245.178625 
L 318.899063 245.468026 
L 319.443984 245.567171 
L 319.988906 245.527819 
L 321.623672 245.006414 
L 322.168594 245.060371 
L 322.713516 245.347184 
L 323.803359 246.295334 
L 325.438125 247.76058 
L 325.983047 247.966454 
L 326.527969 247.937039 
L 327.617813 247.632757 
L 328.162734 247.736731 
L 328.707656 248.149689 
L 329.7975 249.324351 
L 330.342422 249.687293 
L 331.432266 249.884482 
L 331.977188 249.990672 
L 332.522109 250.244588 
L 334.156875 251.333407 
L 335.246719 251.531631 
L 336.336563 251.725051 
L 337.971328 252.415655 
L 338.51625 252.427785 
L 340.151016 252.073626 
L 340.695938 252.155089 
L 341.785781 252.700665 
L 342.875625 253.213181 
L 344.510391 253.778778 
L 346.145156 254.494878 
L 346.690078 254.638852 
L 347.235 254.661 
L 349.414688 254.280332 
L 353.229141 255.215171 
L 354.863906 255.66808 
L 358.133438 257.164325 
L 360.858047 257.717866 
L 362.492813 258.613163 
L 364.6725 259.44397 
L 365.762344 259.480621 
L 367.397109 259.451209 
L 370.121719 259.847223 
L 371.211563 259.577595 
L 371.756484 259.409668 
L 372.301406 259.36238 
L 372.846328 259.483844 
L 374.481094 260.194246 
L 375.026016 260.271497 
L 376.115859 260.067053 
L 377.205703 259.851489 
L 377.750625 259.962416 
L 378.840469 260.614898 
L 379.930313 261.243845 
L 380.475234 261.358154 
L 381.020156 261.293956 
L 382.654922 260.713503 
L 385.379531 260.621541 
L 385.924453 260.789178 
L 387.559219 261.576383 
L 388.649063 261.743463 
L 391.373672 261.774061 
L 391.918594 261.65824 
L 393.553359 261.049078 
L 394.098281 261.188161 
L 395.733047 262.190656 
L 397.912734 262.855268 
L 399.002578 262.873725 
L 400.092422 262.735493 
L 401.727188 262.820823 
L 403.906875 262.549022 
L 405.541641 263.095219 
L 406.086563 263.046239 
L 407.176406 262.481267 
L 407.721328 262.209099 
L 408.26625 262.149357 
L 408.811172 262.350287 
L 409.901016 263.112416 
L 410.445938 263.339913 
L 410.990859 263.33306 
L 412.080703 263.029035 
L 412.625625 263.075268 
L 414.260391 263.702399 
L 416.440078 264.063056 
L 416.985 263.990527 
L 416.985 263.990527 
" style="fill:none;stroke:#2ca02c;stroke-linecap:square;stroke-width:1.5;"/>
   </g>
   <g id="patch_3">
    <path d="M 59.690625 288.430125 
L 59.690625 22.318125 
" style="fill:none;stroke:#000000;stroke-linecap:square;stroke-linejoin:miter;stroke-width:0.8;"/>
   </g>
   <g id="patch_4">
    <path d="M 416.810625 288.430125 
L 416.810625 22.318125 
" style="fill:none;stroke:#000000;stroke-linecap:square;stroke-linejoin:miter;stroke-width:0.8;"/>
   </g>
   <g id="patch_5">
    <path d="M 59.690625 288.430125 
L 416.810625 288.430125 
" style="fill:none;stroke:#000000;stroke-linecap:square;stroke-linejoin:miter;stroke-width:0.8;"/>
   </g>
   <g id="patch_6">
    <path d="M 59.690625 22.318125 
L 416.810625 22.318125 
" style="fill:none;stroke:#000000;stroke-linecap:square;stroke-linejoin:miter;stroke-width:0.8;"/>
   </g>
   <g id="text_18">
    <!-- Spektrum Vergleich -->
    <defs>
     <path d="M 53.515625 70.515625 
L 53.515625 60.890625 
Q 47.90625 63.578125 42.921875 64.890625 
Q 37.9375 66.21875 33.296875 66.21875 
Q 25.25 66.21875 20.875 63.09375 
Q 16.5 59.96875 16.5 54.203125 
Q 16.5 49.359375 19.40625 46.890625 
Q 22.3125 44.4375 30.421875 42.921875 
L 36.375 41.703125 
Q 47.40625 39.59375 52.65625 34.296875 
Q 57.90625 29 57.90625 20.125 
Q 57.90625 9.515625 50.796875 4.046875 
Q 43.703125 -1.421875 29.984375 -1.421875 
Q 24.8125 -1.421875 18.96875 -0.25 
Q 13.140625 0.921875 6.890625 3.21875 
L 6.890625 13.375 
Q 12.890625 10.015625 18.65625 8.296875 
Q 24.421875 6.59375 29.984375 6.59375 
Q 38.421875 6.59375 43.015625 9.90625 
Q 47.609375 13.234375 47.609375 19.390625 
Q 47.609375 24.75 44.3125 27.78125 
Q 41.015625 30.8125 33.5 32.328125 
L 27.484375 33.5 
Q 16.453125 35.6875 11.515625 40.375 
Q 6.59375 45.0625 6.59375 53.421875 
Q 6.59375 63.09375 13.40625 68.65625 
Q 20.21875 74.21875 32.171875 74.21875 
Q 37.3125 74.21875 42.625 73.28125 
Q 47.953125 72.359375 53.515625 70.515625 
" id="DejaVuSans-53"/>
     <path d="M 18.109375 8.203125 
L 18.109375 -20.796875 
L 9.078125 -20.796875 
L 9.078125 54.6875 
L 18.109375 54.6875 
L 18.109375 46.390625 
Q 20.953125 51.265625 25.265625 53.625 
Q 29.59375 56 35.59375 56 
Q 45.5625 56 51.78125 48.09375 
Q 58.015625 40.1875 58.015625 27.296875 
Q 58.015625 14.40625 51.78125 6.484375 
Q 45.5625 -1.421875 35.59375 -1.421875 
Q 29.59375 -1.421875 25.265625 0.953125 
Q 20.953125 3.328125 18.109375 8.203125 
M 48.6875 27.296875 
Q 48.6875 37.203125 44.609375 42.84375 
Q 40.53125 48.484375 33.40625 48.484375 
Q 26.265625 48.484375 22.1875 42.84375 
Q 18.109375 37.203125 18.109375 27.296875 
Q 18.109375 17.390625 22.1875 11.75 
Q 26.265625 6.109375 33.40625 6.109375 
Q 40.53125 6.109375 44.609375 11.75 
Q 48.6875 17.390625 48.6875 27.296875 
" id="DejaVuSans-70"/>
     <path d="M 18.3125 70.21875 
L 18.3125 54.6875 
L 36.8125 54.6875 
L 36.8125 47.703125 
L 18.3125 47.703125 
L 18.3125 18.015625 
Q 18.3125 11.328125 20.140625 9.421875 
Q 21.96875 7.515625 27.59375 7.515625 
L 36.8125 7.515625 
L 36.8125 0 
L 27.59375 0 
Q 17.1875 0 13.234375 3.875 
Q 9.28125 7.765625 9.28125 18.015625 
L 9.28125 47.703125 
L 2.6875 47.703125 
L 2.6875 54.6875 
L 9.28125 54.6875 
L 9.28125 70.21875 
z
" id="DejaVuSans-74"/>
     <path d="M 52 44.1875 
Q 55.375 50.25 60.0625 53.125 
Q 64.75 56 71.09375 56 
Q 79.640625 56 84.28125 50.015625 
Q 88.921875 44.046875 88.921875 33.015625 
L 88.921875 0 
L 79.890625 0 
L 79.890625 32.71875 
Q 79.890625 40.578125 77.09375 44.375 
Q 74.3125 48.1875 68.609375 48.1875 
Q 61.625 48.1875 57.5625 43.546875 
Q 53.515625 38.921875 53.515625 30.90625 
L 53.515625 0 
L 44.484375 0 
L 44.484375 32.71875 
Q 44.484375 40.625 41.703125 44.40625 
Q 38.921875 48.1875 33.109375 48.1875 
Q 26.21875 48.1875 22.15625 43.53125 
Q 18.109375 38.875 18.109375 30.90625 
L 18.109375 0 
L 9.078125 0 
L 9.078125 54.6875 
L 18.109375 54.6875 
L 18.109375 46.1875 
Q 21.1875 51.21875 25.484375 53.609375 
Q 29.78125 56 35.6875 56 
Q 41.65625 56 45.828125 52.96875 
Q 50 49.953125 52 44.1875 
" id="DejaVuSans-6d"/>
     <path d="M 28.609375 0 
L 0.78125 72.90625 
L 11.078125 72.90625 
L 34.1875 11.53125 
L 57.328125 72.90625 
L 67.578125 72.90625 
L 39.796875 0 
z
" id="DejaVuSans-56"/>
     <path d="M 45.40625 27.984375 
Q 45.40625 37.75 41.375 43.109375 
Q 37.359375 48.484375 30.078125 48.484375 
Q 22.859375 48.484375 18.828125 43.109375 
Q 14.796875 37.75 14.796875 27.984375 
Q 14.796875 18.265625 18.828125 12.890625 
Q 22.859375 7.515625 30.078125 7.515625 
Q 37.359375 7.515625 41.375 12.890625 
Q 45.40625 18.265625 45.40625 27.984375 
M 54.390625 6.78125 
Q 54.390625 -7.171875 48.1875 -13.984375 
Q 42 -20.796875 29.203125 -20.796875 
Q 24.46875 -20.796875 20.265625 -20.09375 
Q 16.0625 -19.390625 12.109375 -17.921875 
L 12.109375 -9.1875 
Q 16.0625 -11.328125 19.921875 -12.34375 
Q 23.78125 -13.375 27.78125 -13.375 
Q 36.625 -13.375 41.015625 -8.765625 
Q 45.40625 -4.15625 45.40625 5.171875 
L 45.40625 9.625 
Q 42.625 4.78125 38.28125 2.390625 
Q 33.9375 0 27.875 0 
Q 17.828125 0 11.671875 7.65625 
Q 5.515625 15.328125 5.515625 27.984375 
Q 5.515625 40.671875 11.671875 48.328125 
Q 17.828125 56 27.875 56 
Q 33.9375 56 38.28125 53.609375 
Q 42.625 51.21875 45.40625 46.390625 
L 45.40625 54.6875 
L 54.390625 54.6875 
z
" id="DejaVuSans-67"/>
     <path d="M 9.421875 75.984375 
L 18.40625 75.984375 
L 18.40625 0 
L 9.421875 0 
z
" id="DejaVuSans-6c"/>
     <path d="M 9.421875 54.6875 
L 18.40625 54.6875 
L 18.40625 0 
L 9.421875 0 
z
M 9.421875 75.984375 
L 18.40625 75.984375 
L 18.40625 64.59375 
L 9.421875 64.59375 
z
" id="DejaVuSans-69"/>
     <path d="M 48.78125 52.59375 
L 48.78125 44.1875 
Q 44.96875 46.296875 41.140625 47.34375 
Q 37.3125 48.390625 33.40625 48.390625 
Q 24.65625 48.390625 19.8125 42.84375 
Q 14.984375 37.3125 14.984375 27.296875 
Q 14.984375 17.28125 19.8125 11.734375 
Q 24.65625 6.203125 33.40625 6.203125 
Q 37.3125 6.203125 41.140625 7.25 
Q 44.96875 8.296875 48.78125 10.40625 
L 48.78125 2.09375 
Q 45.015625 0.34375 40.984375 -0.53125 
Q 36.96875 -1.421875 32.421875 -1.421875 
Q 20.0625 -1.421875 12.78125 6.34375 
Q 5.515625 14.109375 5.515625 27.296875 
Q 5.515625 40.671875 12.859375 48.328125 
Q 20.21875 56 33.015625 56 
Q 37.15625 56 41.109375 55.140625 
Q 45.0625 54.296875 48.78125 52.59375 
" id="DejaVuSans-63"/>
     <path d="M 54.890625 33.015625 
L 54.890625 0 
L 45.90625 0 
L 45.90625 32.71875 
Q 45.90625 40.484375 42.875 44.328125 
Q 39.84375 48.1875 33.796875 48.1875 
Q 26.515625 48.1875 22.3125 43.546875 
Q 18.109375 38.921875 18.109375 30.90625 
L 18.109375 0 
L 9.078125 0 
L 9.078125 75.984375 
L 18.109375 75.984375 
L 18.109375 46.1875 
Q 21.34375 51.125 25.703125 53.5625 
Q 30.078125 56 35.796875 56 
Q 45.21875 56 50.046875 50.171875 
Q 54.890625 44.34375 54.890625 33.015625 
" id="DejaVuSans-68"/>
    </defs>
    <g transform="translate(178.902188 16.318125)scale(0.12 -0.12)">
     <use xlink:href="#DejaVuSans-53"/>
     <use x="63.476562" xlink:href="#DejaVuSans-70"/>
     <use x="126.953125" xlink:href="#DejaVuSans-65"/>
     <use x="188.476562" xlink:href="#DejaVuSans-6b"/>
     <use x="246.386719" xlink:href="#DejaVuSans-74"/>
     <use x="285.595703" xlink:href="#DejaVuSans-72"/>
     <use x="326.708984" xlink:href="#DejaVuSans-75"/>
     <use x="390.087891" xlink:href="#DejaVuSans-6d"/>
     <use x="487.5" xlink:href="#DejaVuSans-20"/>
     <use x="519.287109" xlink:href="#DejaVuSans-56"/>
     <use x="587.585938" xlink:href="#DejaVuSans-65"/>
     <use x="649.109375" xlink:href="#DejaVuSans-72"/>
     <use x="690.207031" xlink:href="#DejaVuSans-67"/>
     <use x="753.683594" xlink:href="#DejaVuSans-6c"/>
     <use x="781.466797" xlink:href="#DejaVuSans-65"/>
     <use x="842.990234" xlink:href="#DejaVuSans-69"/>
     <use x="870.773438" xlink:href="#DejaVuSans-63"/>
     <use x="925.753906" xlink:href="#DejaVuSans-68"/>
    </g>
   </g>
   <g id="legend_1">
    <g id="patch_7">
     <path d="M 331.054375 74.3525 
L 409.810625 74.3525 
Q 411.810625 74.3525 411.810625 72.3525 
L 411.810625 29.318125 
Q 411.810625 27.318125 409.810625 27.318125 
L 331.054375 27.318125 
Q 329.054375 27.318125 329.054375 29.318125 
L 329.054375 72.3525 
Q 329.054375 74.3525 331.054375 74.3525 
z
" style="fill:#ffffff;opacity:0.8;stroke:#cccccc;stroke-linejoin:miter;"/>
    </g>
    <g id="line2d_34">
     <path d="M 333.054375 35.416562 
L 353.054375 35.416562 
" style="fill:none;stroke:#1f77b4;stroke-linecap:square;stroke-width:1.5;"/>
    </g>
    <g id="line2d_35"/>
    <g id="text_19">
     <!-- 0.015 ms -->
     <defs>
      <path d="M 44.28125 53.078125 
L 44.28125 44.578125 
Q 40.484375 46.53125 36.375 47.5 
Q 32.28125 48.484375 27.875 48.484375 
Q 21.1875 48.484375 17.84375 46.4375 
Q 14.5 44.390625 14.5 40.28125 
Q 14.5 37.15625 16.890625 35.375 
Q 19.28125 33.59375 26.515625 31.984375 
L 29.59375 31.296875 
Q 39.15625 29.25 43.1875 25.515625 
Q 47.21875 21.78125 47.21875 15.09375 
Q 47.21875 7.46875 41.1875 3.015625 
Q 35.15625 -1.421875 24.609375 -1.421875 
Q 20.21875 -1.421875 15.453125 -0.5625 
Q 10.6875 0.296875 5.421875 2 
L 5.421875 11.28125 
Q 10.40625 8.6875 15.234375 7.390625 
Q 20.0625 6.109375 24.8125 6.109375 
Q 31.15625 6.109375 34.5625 8.28125 
Q 37.984375 10.453125 37.984375 14.40625 
Q 37.984375 18.0625 35.515625 20.015625 
Q 33.0625 21.96875 24.703125 23.78125 
L 21.578125 24.515625 
Q 13.234375 26.265625 9.515625 29.90625 
Q 5.8125 33.546875 5.8125 39.890625 
Q 5.8125 47.609375 11.28125 51.796875 
Q 16.75 56 26.8125 56 
Q 31.78125 56 36.171875 55.265625 
Q 40.578125 54.546875 44.28125 53.078125 
" id="DejaVuSans-73"/>
     </defs>
     <g transform="translate(361.054375 38.916562)scale(0.1 -0.1)">
      <use xlink:href="#DejaVuSans-30"/>
      <use x="63.623047" xlink:href="#DejaVuSans-2e"/>
      <use x="95.410156" xlink:href="#DejaVuSans-30"/>
      <use x="159.033203" xlink:href="#DejaVuSans-31"/>
      <use x="222.65625" xlink:href="#DejaVuSans-35"/>
      <use x="286.279297" xlink:href="#DejaVuSans-20"/>
      <use x="318.066406" xlink:href="#DejaVuSans-6d"/>
      <use x="415.478516" xlink:href="#DejaVuSans-73"/>
     </g>
    </g>
    <g id="line2d_36">
     <path d="M 333.054375 50.094688 
L 353.054375 50.094688 
" style="fill:none;stroke:#ff7f0e;stroke-linecap:square;stroke-width:1.5;"/>
    </g>
    <g id="line2d_37"/>
    <g id="text_20">
     <!-- 0.1 ms -->
     <g transform="translate(361.054375 53.594688)scale(0.1 -0.1)">
      <use xlink:href="#DejaVuSans-30"/>
      <use x="63.623047" xlink:href="#DejaVuSans-2e"/>
      <use x="95.410156" xlink:href="#DejaVuSans-31"/>
      <use x="159.033203" xlink:href="#DejaVuSans-20"/>
      <use x="190.820312" xlink:href="#DejaVuSans-6d"/>
      <use x="288.232422" xlink:href="#DejaVuSans-73"/>
     </g>
    </g>
    <g id="line2d_38">
     <path d="M 333.054375 64.772812 
L 353.054375 64.772812 
" style="fill:none;stroke:#2ca02c;stroke-linecap:square;stroke-width:1.5;"/>
    </g>
    <g id="line2d_39"/>
    <g id="text_21">
     <!-- 0.6 ms -->
     <g transform="translate(361.054375 68.272812)scale(0.1 -0.1)">
      <use xlink:href="#DejaVuSans-30"/>
      <use x="63.623047" xlink:href="#DejaVuSans-2e"/>
      <use x="95.410156" xlink:href="#DejaVuSans-36"/>
      <use x="159.033203" xlink:href="#DejaVuSans-20"/>
      <use x="190.820312" xlink:href="#DejaVuSans-6d"/>
      <use x="288.232422" xlink:href="#DejaVuSans-73"/>
     </g>
    </g>
   </g>
  </g>
 </g>
 <defs>
  <clipPath id="p0d80e87147">
   <rect height="266.112" width="357.12" x="59.690625" y="22.318125"/>
  </clipPath>
 </defs>
</svg>
