<?xml version="1.0" encoding="utf-8" standalone="no"?>
<!DOCTYPE svg PUBLIC "-//W3C//DTD SVG 1.1//EN"
  "http://www.w3.org/Graphics/SVG/1.1/DTD/svg11.dtd">
<!-- Created with matplotlib (http://matplotlib.org/) -->
<svg height="325pt" version="1.1" viewBox="0 0 439 325" width="439pt" xmlns="http://www.w3.org/2000/svg" xmlns:xlink="http://www.w3.org/1999/xlink">
 <defs>
  <style type="text/css">
*{stroke-linecap:butt;stroke-linejoin:round;}
  </style>
 </defs>
 <g id="figure_1">
  <g id="patch_1">
   <path d="M 0 325.986375 
L 439.916875 325.986375 
L 439.916875 0 
L 0 0 
z
" style="fill:#ffffff;"/>
  </g>
  <g id="axes_1">
   <g id="patch_2">
    <path d="M 59.690625 288.430125 
L 416.810625 288.430125 
L 416.810625 22.318125 
L 59.690625 22.318125 
z
" style="fill:#ffffff;"/>
   </g>
   <g id="matplotlib.axis_1">
    <g id="xtick_1">
     <g id="line2d_1">
      <path clip-path="url(#p33cf1bd01f)" d="M 59.690625 288.430125 
L 59.690625 22.318125 
" style="fill:none;stroke:#b0b0b0;stroke-linecap:square;stroke-width:0.8;"/>
     </g>
     <g id="line2d_2">
      <defs>
       <path d="M 0 0 
L 0 3.5 
" id="m08a5580886" style="stroke:#000000;stroke-width:0.8;"/>
      </defs>
      <g>
       <use style="stroke:#000000;stroke-width:0.8;" x="59.690625" xlink:href="#m08a5580886" y="288.430125"/>
      </g>
     </g>
     <g id="text_1">
      <!-- −80000 -->
      <defs>
       <path d="M 10.59375 35.5 
L 73.1875 35.5 
L 73.1875 27.203125 
L 10.59375 27.203125 
z
" id="DejaVuSans-2212"/>
       <path d="M 31.78125 34.625 
Q 24.75 34.625 20.71875 30.859375 
Q 16.703125 27.09375 16.703125 20.515625 
Q 16.703125 13.921875 20.71875 10.15625 
Q 24.75 6.390625 31.78125 6.390625 
Q 38.8125 6.390625 42.859375 10.171875 
Q 46.921875 13.96875 46.921875 20.515625 
Q 46.921875 27.09375 42.890625 30.859375 
Q 38.875 34.625 31.78125 34.625 
M 21.921875 38.8125 
Q 15.578125 40.375 12.03125 44.71875 
Q 8.5 49.078125 8.5 55.328125 
Q 8.5 64.0625 14.71875 69.140625 
Q 20.953125 74.21875 31.78125 74.21875 
Q 42.671875 74.21875 48.875 69.140625 
Q 55.078125 64.0625 55.078125 55.328125 
Q 55.078125 49.078125 51.53125 44.71875 
Q 48 40.375 41.703125 38.8125 
Q 48.828125 37.15625 52.796875 32.3125 
Q 56.78125 27.484375 56.78125 20.515625 
Q 56.78125 9.90625 50.3125 4.234375 
Q 43.84375 -1.421875 31.78125 -1.421875 
Q 19.734375 -1.421875 13.25 4.234375 
Q 6.78125 9.90625 6.78125 20.515625 
Q 6.78125 27.484375 10.78125 32.3125 
Q 14.796875 37.15625 21.921875 38.8125 
M 18.3125 54.390625 
Q 18.3125 48.734375 21.84375 45.5625 
Q 25.390625 42.390625 31.78125 42.390625 
Q 38.140625 42.390625 41.71875 45.5625 
Q 45.3125 48.734375 45.3125 54.390625 
Q 45.3125 60.0625 41.71875 63.234375 
Q 38.140625 66.40625 31.78125 66.40625 
Q 25.390625 66.40625 21.84375 63.234375 
Q 18.3125 60.0625 18.3125 54.390625 
" id="DejaVuSans-38"/>
       <path d="M 31.78125 66.40625 
Q 24.171875 66.40625 20.328125 58.90625 
Q 16.5 51.421875 16.5 36.375 
Q 16.5 21.390625 20.328125 13.890625 
Q 24.171875 6.390625 31.78125 6.390625 
Q 39.453125 6.390625 43.28125 13.890625 
Q 47.125 21.390625 47.125 36.375 
Q 47.125 51.421875 43.28125 58.90625 
Q 39.453125 66.40625 31.78125 66.40625 
M 31.78125 74.21875 
Q 44.046875 74.21875 50.515625 64.515625 
Q 56.984375 54.828125 56.984375 36.375 
Q 56.984375 17.96875 50.515625 8.265625 
Q 44.046875 -1.421875 31.78125 -1.421875 
Q 19.53125 -1.421875 13.0625 8.265625 
Q 6.59375 17.96875 6.59375 36.375 
Q 6.59375 54.828125 13.0625 64.515625 
Q 19.53125 74.21875 31.78125 74.21875 
" id="DejaVuSans-30"/>
      </defs>
      <g transform="translate(39.594531 303.028562)scale(0.1 -0.1)">
       <use xlink:href="#DejaVuSans-2212"/>
       <use x="83.789062" xlink:href="#DejaVuSans-38"/>
       <use x="147.412109" xlink:href="#DejaVuSans-30"/>
       <use x="211.035156" xlink:href="#DejaVuSans-30"/>
       <use x="274.658203" xlink:href="#DejaVuSans-30"/>
       <use x="338.28125" xlink:href="#DejaVuSans-30"/>
      </g>
     </g>
    </g>
    <g id="xtick_2">
     <g id="line2d_3">
      <path clip-path="url(#p33cf1bd01f)" d="M 104.330625 288.430125 
L 104.330625 22.318125 
" style="fill:none;stroke:#b0b0b0;stroke-linecap:square;stroke-width:0.8;"/>
     </g>
     <g id="line2d_4">
      <g>
       <use style="stroke:#000000;stroke-width:0.8;" x="104.330625" xlink:href="#m08a5580886" y="288.430125"/>
      </g>
     </g>
     <g id="text_2">
      <!-- −60000 -->
      <defs>
       <path d="M 33.015625 40.375 
Q 26.375 40.375 22.484375 35.828125 
Q 18.609375 31.296875 18.609375 23.390625 
Q 18.609375 15.53125 22.484375 10.953125 
Q 26.375 6.390625 33.015625 6.390625 
Q 39.65625 6.390625 43.53125 10.953125 
Q 47.40625 15.53125 47.40625 23.390625 
Q 47.40625 31.296875 43.53125 35.828125 
Q 39.65625 40.375 33.015625 40.375 
M 52.59375 71.296875 
L 52.59375 62.3125 
Q 48.875 64.0625 45.09375 64.984375 
Q 41.3125 65.921875 37.59375 65.921875 
Q 27.828125 65.921875 22.671875 59.328125 
Q 17.53125 52.734375 16.796875 39.40625 
Q 19.671875 43.65625 24.015625 45.921875 
Q 28.375 48.1875 33.59375 48.1875 
Q 44.578125 48.1875 50.953125 41.515625 
Q 57.328125 34.859375 57.328125 23.390625 
Q 57.328125 12.15625 50.6875 5.359375 
Q 44.046875 -1.421875 33.015625 -1.421875 
Q 20.359375 -1.421875 13.671875 8.265625 
Q 6.984375 17.96875 6.984375 36.375 
Q 6.984375 53.65625 15.1875 63.9375 
Q 23.390625 74.21875 37.203125 74.21875 
Q 40.921875 74.21875 44.703125 73.484375 
Q 48.484375 72.75 52.59375 71.296875 
" id="DejaVuSans-36"/>
      </defs>
      <g transform="translate(84.234531 303.028562)scale(0.1 -0.1)">
       <use xlink:href="#DejaVuSans-2212"/>
       <use x="83.789062" xlink:href="#DejaVuSans-36"/>
       <use x="147.412109" xlink:href="#DejaVuSans-30"/>
       <use x="211.035156" xlink:href="#DejaVuSans-30"/>
       <use x="274.658203" xlink:href="#DejaVuSans-30"/>
       <use x="338.28125" xlink:href="#DejaVuSans-30"/>
      </g>
     </g>
    </g>
    <g id="xtick_3">
     <g id="line2d_5">
      <path clip-path="url(#p33cf1bd01f)" d="M 148.970625 288.430125 
L 148.970625 22.318125 
" style="fill:none;stroke:#b0b0b0;stroke-linecap:square;stroke-width:0.8;"/>
     </g>
     <g id="line2d_6">
      <g>
       <use style="stroke:#000000;stroke-width:0.8;" x="148.970625" xlink:href="#m08a5580886" y="288.430125"/>
      </g>
     </g>
     <g id="text_3">
      <!-- −40000 -->
      <defs>
       <path d="M 37.796875 64.3125 
L 12.890625 25.390625 
L 37.796875 25.390625 
z
M 35.203125 72.90625 
L 47.609375 72.90625 
L 47.609375 25.390625 
L 58.015625 25.390625 
L 58.015625 17.1875 
L 47.609375 17.1875 
L 47.609375 0 
L 37.796875 0 
L 37.796875 17.1875 
L 4.890625 17.1875 
L 4.890625 26.703125 
z
" id="DejaVuSans-34"/>
      </defs>
      <g transform="translate(128.874531 303.028562)scale(0.1 -0.1)">
       <use xlink:href="#DejaVuSans-2212"/>
       <use x="83.789062" xlink:href="#DejaVuSans-34"/>
       <use x="147.412109" xlink:href="#DejaVuSans-30"/>
       <use x="211.035156" xlink:href="#DejaVuSans-30"/>
       <use x="274.658203" xlink:href="#DejaVuSans-30"/>
       <use x="338.28125" xlink:href="#DejaVuSans-30"/>
      </g>
     </g>
    </g>
    <g id="xtick_4">
     <g id="line2d_7">
      <path clip-path="url(#p33cf1bd01f)" d="M 193.610625 288.430125 
L 193.610625 22.318125 
" style="fill:none;stroke:#b0b0b0;stroke-linecap:square;stroke-width:0.8;"/>
     </g>
     <g id="line2d_8">
      <g>
       <use style="stroke:#000000;stroke-width:0.8;" x="193.610625" xlink:href="#m08a5580886" y="288.430125"/>
      </g>
     </g>
     <g id="text_4">
      <!-- −20000 -->
      <defs>
       <path d="M 19.1875 8.296875 
L 53.609375 8.296875 
L 53.609375 0 
L 7.328125 0 
L 7.328125 8.296875 
Q 12.9375 14.109375 22.625 23.890625 
Q 32.328125 33.6875 34.8125 36.53125 
Q 39.546875 41.84375 41.421875 45.53125 
Q 43.3125 49.21875 43.3125 52.78125 
Q 43.3125 58.59375 39.234375 62.25 
Q 35.15625 65.921875 28.609375 65.921875 
Q 23.96875 65.921875 18.8125 64.3125 
Q 13.671875 62.703125 7.8125 59.421875 
L 7.8125 69.390625 
Q 13.765625 71.78125 18.9375 73 
Q 24.125 74.21875 28.421875 74.21875 
Q 39.75 74.21875 46.484375 68.546875 
Q 53.21875 62.890625 53.21875 53.421875 
Q 53.21875 48.921875 51.53125 44.890625 
Q 49.859375 40.875 45.40625 35.40625 
Q 44.1875 33.984375 37.640625 27.21875 
Q 31.109375 20.453125 19.1875 8.296875 
" id="DejaVuSans-32"/>
      </defs>
      <g transform="translate(173.514531 303.028562)scale(0.1 -0.1)">
       <use xlink:href="#DejaVuSans-2212"/>
       <use x="83.789062" xlink:href="#DejaVuSans-32"/>
       <use x="147.412109" xlink:href="#DejaVuSans-30"/>
       <use x="211.035156" xlink:href="#DejaVuSans-30"/>
       <use x="274.658203" xlink:href="#DejaVuSans-30"/>
       <use x="338.28125" xlink:href="#DejaVuSans-30"/>
      </g>
     </g>
    </g>
    <g id="xtick_5">
     <g id="line2d_9">
      <path clip-path="url(#p33cf1bd01f)" d="M 238.250625 288.430125 
L 238.250625 22.318125 
" style="fill:none;stroke:#b0b0b0;stroke-linecap:square;stroke-width:0.8;"/>
     </g>
     <g id="line2d_10">
      <g>
       <use style="stroke:#000000;stroke-width:0.8;" x="238.250625" xlink:href="#m08a5580886" y="288.430125"/>
      </g>
     </g>
     <g id="text_5">
      <!-- 0 -->
      <g transform="translate(235.069375 303.028562)scale(0.1 -0.1)">
       <use xlink:href="#DejaVuSans-30"/>
      </g>
     </g>
    </g>
    <g id="xtick_6">
     <g id="line2d_11">
      <path clip-path="url(#p33cf1bd01f)" d="M 282.890625 288.430125 
L 282.890625 22.318125 
" style="fill:none;stroke:#b0b0b0;stroke-linecap:square;stroke-width:0.8;"/>
     </g>
     <g id="line2d_12">
      <g>
       <use style="stroke:#000000;stroke-width:0.8;" x="282.890625" xlink:href="#m08a5580886" y="288.430125"/>
      </g>
     </g>
     <g id="text_6">
      <!-- 20000 -->
      <g transform="translate(266.984375 303.028562)scale(0.1 -0.1)">
       <use xlink:href="#DejaVuSans-32"/>
       <use x="63.623047" xlink:href="#DejaVuSans-30"/>
       <use x="127.246094" xlink:href="#DejaVuSans-30"/>
       <use x="190.869141" xlink:href="#DejaVuSans-30"/>
       <use x="254.492188" xlink:href="#DejaVuSans-30"/>
      </g>
     </g>
    </g>
    <g id="xtick_7">
     <g id="line2d_13">
      <path clip-path="url(#p33cf1bd01f)" d="M 327.530625 288.430125 
L 327.530625 22.318125 
" style="fill:none;stroke:#b0b0b0;stroke-linecap:square;stroke-width:0.8;"/>
     </g>
     <g id="line2d_14">
      <g>
       <use style="stroke:#000000;stroke-width:0.8;" x="327.530625" xlink:href="#m08a5580886" y="288.430125"/>
      </g>
     </g>
     <g id="text_7">
      <!-- 40000 -->
      <g transform="translate(311.624375 303.028562)scale(0.1 -0.1)">
       <use xlink:href="#DejaVuSans-34"/>
       <use x="63.623047" xlink:href="#DejaVuSans-30"/>
       <use x="127.246094" xlink:href="#DejaVuSans-30"/>
       <use x="190.869141" xlink:href="#DejaVuSans-30"/>
       <use x="254.492188" xlink:href="#DejaVuSans-30"/>
      </g>
     </g>
    </g>
    <g id="xtick_8">
     <g id="line2d_15">
      <path clip-path="url(#p33cf1bd01f)" d="M 372.170625 288.430125 
L 372.170625 22.318125 
" style="fill:none;stroke:#b0b0b0;stroke-linecap:square;stroke-width:0.8;"/>
     </g>
     <g id="line2d_16">
      <g>
       <use style="stroke:#000000;stroke-width:0.8;" x="372.170625" xlink:href="#m08a5580886" y="288.430125"/>
      </g>
     </g>
     <g id="text_8">
      <!-- 60000 -->
      <g transform="translate(356.264375 303.028562)scale(0.1 -0.1)">
       <use xlink:href="#DejaVuSans-36"/>
       <use x="63.623047" xlink:href="#DejaVuSans-30"/>
       <use x="127.246094" xlink:href="#DejaVuSans-30"/>
       <use x="190.869141" xlink:href="#DejaVuSans-30"/>
       <use x="254.492188" xlink:href="#DejaVuSans-30"/>
      </g>
     </g>
    </g>
    <g id="xtick_9">
     <g id="line2d_17">
      <path clip-path="url(#p33cf1bd01f)" d="M 416.810625 288.430125 
L 416.810625 22.318125 
" style="fill:none;stroke:#b0b0b0;stroke-linecap:square;stroke-width:0.8;"/>
     </g>
     <g id="line2d_18">
      <g>
       <use style="stroke:#000000;stroke-width:0.8;" x="416.810625" xlink:href="#m08a5580886" y="288.430125"/>
      </g>
     </g>
     <g id="text_9">
      <!-- 80000 -->
      <g transform="translate(400.904375 303.028562)scale(0.1 -0.1)">
       <use xlink:href="#DejaVuSans-38"/>
       <use x="63.623047" xlink:href="#DejaVuSans-30"/>
       <use x="127.246094" xlink:href="#DejaVuSans-30"/>
       <use x="190.869141" xlink:href="#DejaVuSans-30"/>
       <use x="254.492188" xlink:href="#DejaVuSans-30"/>
      </g>
     </g>
    </g>
    <g id="text_10">
     <!-- Frequenz [kHz] -->
     <defs>
      <path d="M 9.8125 72.90625 
L 51.703125 72.90625 
L 51.703125 64.59375 
L 19.671875 64.59375 
L 19.671875 43.109375 
L 48.578125 43.109375 
L 48.578125 34.8125 
L 19.671875 34.8125 
L 19.671875 0 
L 9.8125 0 
z
" id="DejaVuSans-46"/>
      <path d="M 41.109375 46.296875 
Q 39.59375 47.171875 37.8125 47.578125 
Q 36.03125 48 33.890625 48 
Q 26.265625 48 22.1875 43.046875 
Q 18.109375 38.09375 18.109375 28.8125 
L 18.109375 0 
L 9.078125 0 
L 9.078125 54.6875 
L 18.109375 54.6875 
L 18.109375 46.1875 
Q 20.953125 51.171875 25.484375 53.578125 
Q 30.03125 56 36.53125 56 
Q 37.453125 56 38.578125 55.875 
Q 39.703125 55.765625 41.0625 55.515625 
z
" id="DejaVuSans-72"/>
      <path d="M 56.203125 29.59375 
L 56.203125 25.203125 
L 14.890625 25.203125 
Q 15.484375 15.921875 20.484375 11.0625 
Q 25.484375 6.203125 34.421875 6.203125 
Q 39.59375 6.203125 44.453125 7.46875 
Q 49.3125 8.734375 54.109375 11.28125 
L 54.109375 2.78125 
Q 49.265625 0.734375 44.1875 -0.34375 
Q 39.109375 -1.421875 33.890625 -1.421875 
Q 20.796875 -1.421875 13.15625 6.1875 
Q 5.515625 13.8125 5.515625 26.8125 
Q 5.515625 40.234375 12.765625 48.109375 
Q 20.015625 56 32.328125 56 
Q 43.359375 56 49.78125 48.890625 
Q 56.203125 41.796875 56.203125 29.59375 
M 47.21875 32.234375 
Q 47.125 39.59375 43.09375 43.984375 
Q 39.0625 48.390625 32.421875 48.390625 
Q 24.90625 48.390625 20.390625 44.140625 
Q 15.875 39.890625 15.1875 32.171875 
z
" id="DejaVuSans-65"/>
      <path d="M 14.796875 27.296875 
Q 14.796875 17.390625 18.875 11.75 
Q 22.953125 6.109375 30.078125 6.109375 
Q 37.203125 6.109375 41.296875 11.75 
Q 45.40625 17.390625 45.40625 27.296875 
Q 45.40625 37.203125 41.296875 42.84375 
Q 37.203125 48.484375 30.078125 48.484375 
Q 22.953125 48.484375 18.875 42.84375 
Q 14.796875 37.203125 14.796875 27.296875 
M 45.40625 8.203125 
Q 42.578125 3.328125 38.25 0.953125 
Q 33.9375 -1.421875 27.875 -1.421875 
Q 17.96875 -1.421875 11.734375 6.484375 
Q 5.515625 14.40625 5.515625 27.296875 
Q 5.515625 40.1875 11.734375 48.09375 
Q 17.96875 56 27.875 56 
Q 33.9375 56 38.25 53.625 
Q 42.578125 51.265625 45.40625 46.390625 
L 45.40625 54.6875 
L 54.390625 54.6875 
L 54.390625 -20.796875 
L 45.40625 -20.796875 
z
" id="DejaVuSans-71"/>
      <path d="M 8.5 21.578125 
L 8.5 54.6875 
L 17.484375 54.6875 
L 17.484375 21.921875 
Q 17.484375 14.15625 20.5 10.265625 
Q 23.53125 6.390625 29.59375 6.390625 
Q 36.859375 6.390625 41.078125 11.03125 
Q 45.3125 15.671875 45.3125 23.6875 
L 45.3125 54.6875 
L 54.296875 54.6875 
L 54.296875 0 
L 45.3125 0 
L 45.3125 8.40625 
Q 42.046875 3.421875 37.71875 1 
Q 33.40625 -1.421875 27.6875 -1.421875 
Q 18.265625 -1.421875 13.375 4.4375 
Q 8.5 10.296875 8.5 21.578125 
M 31.109375 56 
z
" id="DejaVuSans-75"/>
      <path d="M 54.890625 33.015625 
L 54.890625 0 
L 45.90625 0 
L 45.90625 32.71875 
Q 45.90625 40.484375 42.875 44.328125 
Q 39.84375 48.1875 33.796875 48.1875 
Q 26.515625 48.1875 22.3125 43.546875 
Q 18.109375 38.921875 18.109375 30.90625 
L 18.109375 0 
L 9.078125 0 
L 9.078125 54.6875 
L 18.109375 54.6875 
L 18.109375 46.1875 
Q 21.34375 51.125 25.703125 53.5625 
Q 30.078125 56 35.796875 56 
Q 45.21875 56 50.046875 50.171875 
Q 54.890625 44.34375 54.890625 33.015625 
" id="DejaVuSans-6e"/>
      <path d="M 5.515625 54.6875 
L 48.1875 54.6875 
L 48.1875 46.484375 
L 14.40625 7.171875 
L 48.1875 7.171875 
L 48.1875 0 
L 4.296875 0 
L 4.296875 8.203125 
L 38.09375 47.515625 
L 5.515625 47.515625 
z
" id="DejaVuSans-7a"/>
      <path id="DejaVuSans-20"/>
      <path d="M 8.59375 75.984375 
L 29.296875 75.984375 
L 29.296875 69 
L 17.578125 69 
L 17.578125 -6.203125 
L 29.296875 -6.203125 
L 29.296875 -13.1875 
L 8.59375 -13.1875 
z
" id="DejaVuSans-5b"/>
      <path d="M 9.078125 75.984375 
L 18.109375 75.984375 
L 18.109375 31.109375 
L 44.921875 54.6875 
L 56.390625 54.6875 
L 27.390625 29.109375 
L 57.625 0 
L 45.90625 0 
L 18.109375 26.703125 
L 18.109375 0 
L 9.078125 0 
z
" id="DejaVuSans-6b"/>
      <path d="M 9.8125 72.90625 
L 19.671875 72.90625 
L 19.671875 43.015625 
L 55.515625 43.015625 
L 55.515625 72.90625 
L 65.375 72.90625 
L 65.375 0 
L 55.515625 0 
L 55.515625 34.71875 
L 19.671875 34.71875 
L 19.671875 0 
L 9.8125 0 
z
" id="DejaVuSans-48"/>
      <path d="M 30.421875 75.984375 
L 30.421875 -13.1875 
L 9.71875 -13.1875 
L 9.71875 -6.203125 
L 21.390625 -6.203125 
L 21.390625 69 
L 9.71875 69 
L 9.71875 75.984375 
z
" id="DejaVuSans-5d"/>
     </defs>
     <g transform="translate(200.267031 316.706687)scale(0.1 -0.1)">
      <use xlink:href="#DejaVuSans-46"/>
      <use x="57.410156" xlink:href="#DejaVuSans-72"/>
      <use x="98.492188" xlink:href="#DejaVuSans-65"/>
      <use x="160.015625" xlink:href="#DejaVuSans-71"/>
      <use x="223.492188" xlink:href="#DejaVuSans-75"/>
      <use x="286.871094" xlink:href="#DejaVuSans-65"/>
      <use x="348.394531" xlink:href="#DejaVuSans-6e"/>
      <use x="411.773438" xlink:href="#DejaVuSans-7a"/>
      <use x="464.263672" xlink:href="#DejaVuSans-20"/>
      <use x="496.050781" xlink:href="#DejaVuSans-5b"/>
      <use x="535.064453" xlink:href="#DejaVuSans-6b"/>
      <use x="592.974609" xlink:href="#DejaVuSans-48"/>
      <use x="668.169922" xlink:href="#DejaVuSans-7a"/>
      <use x="720.660156" xlink:href="#DejaVuSans-5d"/>
     </g>
    </g>
   </g>
   <g id="matplotlib.axis_2">
    <g id="ytick_1">
     <g id="line2d_19">
      <path clip-path="url(#p33cf1bd01f)" d="M 59.690625 265.936462 
L 416.810625 265.936462 
" style="fill:none;stroke:#b0b0b0;stroke-linecap:square;stroke-width:0.8;"/>
     </g>
     <g id="line2d_20">
      <defs>
       <path d="M 0 0 
L -3.5 0 
" id="mb6100393a2" style="stroke:#000000;stroke-width:0.8;"/>
      </defs>
      <g>
       <use style="stroke:#000000;stroke-width:0.8;" x="59.690625" xlink:href="#mb6100393a2" y="265.936462"/>
      </g>
     </g>
     <g id="text_11">
      <!-- 0 -->
      <g transform="translate(46.328125 269.735681)scale(0.1 -0.1)">
       <use xlink:href="#DejaVuSans-30"/>
      </g>
     </g>
    </g>
    <g id="ytick_2">
     <g id="line2d_21">
      <path clip-path="url(#p33cf1bd01f)" d="M 59.690625 216.96159 
L 416.810625 216.96159 
" style="fill:none;stroke:#b0b0b0;stroke-linecap:square;stroke-width:0.8;"/>
     </g>
     <g id="line2d_22">
      <g>
       <use style="stroke:#000000;stroke-width:0.8;" x="59.690625" xlink:href="#mb6100393a2" y="216.96159"/>
      </g>
     </g>
     <g id="text_12">
      <!-- 10000 -->
      <defs>
       <path d="M 12.40625 8.296875 
L 28.515625 8.296875 
L 28.515625 63.921875 
L 10.984375 60.40625 
L 10.984375 69.390625 
L 28.421875 72.90625 
L 38.28125 72.90625 
L 38.28125 8.296875 
L 54.390625 8.296875 
L 54.390625 0 
L 12.40625 0 
z
" id="DejaVuSans-31"/>
      </defs>
      <g transform="translate(20.878125 220.760809)scale(0.1 -0.1)">
       <use xlink:href="#DejaVuSans-31"/>
       <use x="63.623047" xlink:href="#DejaVuSans-30"/>
       <use x="127.246094" xlink:href="#DejaVuSans-30"/>
       <use x="190.869141" xlink:href="#DejaVuSans-30"/>
       <use x="254.492188" xlink:href="#DejaVuSans-30"/>
      </g>
     </g>
    </g>
    <g id="ytick_3">
     <g id="line2d_23">
      <path clip-path="url(#p33cf1bd01f)" d="M 59.690625 167.986718 
L 416.810625 167.986718 
" style="fill:none;stroke:#b0b0b0;stroke-linecap:square;stroke-width:0.8;"/>
     </g>
     <g id="line2d_24">
      <g>
       <use style="stroke:#000000;stroke-width:0.8;" x="59.690625" xlink:href="#mb6100393a2" y="167.986718"/>
      </g>
     </g>
     <g id="text_13">
      <!-- 20000 -->
      <g transform="translate(20.878125 171.785937)scale(0.1 -0.1)">
       <use xlink:href="#DejaVuSans-32"/>
       <use x="63.623047" xlink:href="#DejaVuSans-30"/>
       <use x="127.246094" xlink:href="#DejaVuSans-30"/>
       <use x="190.869141" xlink:href="#DejaVuSans-30"/>
       <use x="254.492188" xlink:href="#DejaVuSans-30"/>
      </g>
     </g>
    </g>
    <g id="ytick_4">
     <g id="line2d_25">
      <path clip-path="url(#p33cf1bd01f)" d="M 59.690625 119.011846 
L 416.810625 119.011846 
" style="fill:none;stroke:#b0b0b0;stroke-linecap:square;stroke-width:0.8;"/>
     </g>
     <g id="line2d_26">
      <g>
       <use style="stroke:#000000;stroke-width:0.8;" x="59.690625" xlink:href="#mb6100393a2" y="119.011846"/>
      </g>
     </g>
     <g id="text_14">
      <!-- 30000 -->
      <defs>
       <path d="M 40.578125 39.3125 
Q 47.65625 37.796875 51.625 33 
Q 55.609375 28.21875 55.609375 21.1875 
Q 55.609375 10.40625 48.1875 4.484375 
Q 40.765625 -1.421875 27.09375 -1.421875 
Q 22.515625 -1.421875 17.65625 -0.515625 
Q 12.796875 0.390625 7.625 2.203125 
L 7.625 11.71875 
Q 11.71875 9.328125 16.59375 8.109375 
Q 21.484375 6.890625 26.8125 6.890625 
Q 36.078125 6.890625 40.9375 10.546875 
Q 45.796875 14.203125 45.796875 21.1875 
Q 45.796875 27.640625 41.28125 31.265625 
Q 36.765625 34.90625 28.71875 34.90625 
L 20.21875 34.90625 
L 20.21875 43.015625 
L 29.109375 43.015625 
Q 36.375 43.015625 40.234375 45.921875 
Q 44.09375 48.828125 44.09375 54.296875 
Q 44.09375 59.90625 40.109375 62.90625 
Q 36.140625 65.921875 28.71875 65.921875 
Q 24.65625 65.921875 20.015625 65.03125 
Q 15.375 64.15625 9.8125 62.3125 
L 9.8125 71.09375 
Q 15.4375 72.65625 20.34375 73.4375 
Q 25.25 74.21875 29.59375 74.21875 
Q 40.828125 74.21875 47.359375 69.109375 
Q 53.90625 64.015625 53.90625 55.328125 
Q 53.90625 49.265625 50.4375 45.09375 
Q 46.96875 40.921875 40.578125 39.3125 
" id="DejaVuSans-33"/>
      </defs>
      <g transform="translate(20.878125 122.811065)scale(0.1 -0.1)">
       <use xlink:href="#DejaVuSans-33"/>
       <use x="63.623047" xlink:href="#DejaVuSans-30"/>
       <use x="127.246094" xlink:href="#DejaVuSans-30"/>
       <use x="190.869141" xlink:href="#DejaVuSans-30"/>
       <use x="254.492188" xlink:href="#DejaVuSans-30"/>
      </g>
     </g>
    </g>
    <g id="ytick_5">
     <g id="line2d_27">
      <path clip-path="url(#p33cf1bd01f)" d="M 59.690625 70.036974 
L 416.810625 70.036974 
" style="fill:none;stroke:#b0b0b0;stroke-linecap:square;stroke-width:0.8;"/>
     </g>
     <g id="line2d_28">
      <g>
       <use style="stroke:#000000;stroke-width:0.8;" x="59.690625" xlink:href="#mb6100393a2" y="70.036974"/>
      </g>
     </g>
     <g id="text_15">
      <!-- 40000 -->
      <g transform="translate(20.878125 73.836193)scale(0.1 -0.1)">
       <use xlink:href="#DejaVuSans-34"/>
       <use x="63.623047" xlink:href="#DejaVuSans-30"/>
       <use x="127.246094" xlink:href="#DejaVuSans-30"/>
       <use x="190.869141" xlink:href="#DejaVuSans-30"/>
       <use x="254.492188" xlink:href="#DejaVuSans-30"/>
      </g>
     </g>
    </g>
    <g id="text_16">
     <!-- u.a. -->
     <defs>
      <path d="M 10.6875 12.40625 
L 21 12.40625 
L 21 0 
L 10.6875 0 
z
" id="DejaVuSans-2e"/>
      <path d="M 34.28125 27.484375 
Q 23.390625 27.484375 19.1875 25 
Q 14.984375 22.515625 14.984375 16.5 
Q 14.984375 11.71875 18.140625 8.90625 
Q 21.296875 6.109375 26.703125 6.109375 
Q 34.1875 6.109375 38.703125 11.40625 
Q 43.21875 16.703125 43.21875 25.484375 
L 43.21875 27.484375 
z
M 52.203125 31.203125 
L 52.203125 0 
L 43.21875 0 
L 43.21875 8.296875 
Q 40.140625 3.328125 35.546875 0.953125 
Q 30.953125 -1.421875 24.3125 -1.421875 
Q 15.921875 -1.421875 10.953125 3.296875 
Q 6 8.015625 6 15.921875 
Q 6 25.140625 12.171875 29.828125 
Q 18.359375 34.515625 30.609375 34.515625 
L 43.21875 34.515625 
L 43.21875 35.40625 
Q 43.21875 41.609375 39.140625 45 
Q 35.0625 48.390625 27.6875 48.390625 
Q 23 48.390625 18.546875 47.265625 
Q 14.109375 46.140625 10.015625 43.890625 
L 10.015625 52.203125 
Q 14.9375 54.109375 19.578125 55.046875 
Q 24.21875 56 28.609375 56 
Q 40.484375 56 46.34375 49.84375 
Q 52.203125 43.703125 52.203125 31.203125 
" id="DejaVuSans-61"/>
     </defs>
     <g transform="translate(14.798438 164.785062)rotate(-90)scale(0.1 -0.1)">
      <use xlink:href="#DejaVuSans-75"/>
      <use x="63.378906" xlink:href="#DejaVuSans-2e"/>
      <use x="95.166016" xlink:href="#DejaVuSans-61"/>
      <use x="156.445312" xlink:href="#DejaVuSans-2e"/>
     </g>
    </g>
   </g>
   <g id="line2d_29">
    <path clip-path="url(#p33cf1bd01f)" d="M 59.51625 255.987324 
L 62.240859 256.526303 
L 63.330703 256.257835 
L 64.420547 255.494969 
L 65.510391 254.663092 
L 66.055313 254.448334 
L 67.145156 254.378767 
L 68.235 254.502538 
L 69.324844 254.870474 
L 70.414688 255.179684 
L 70.959609 255.089929 
L 73.139297 253.994047 
L 74.229141 253.893595 
L 75.318984 253.829772 
L 75.863906 253.614585 
L 78.043594 252.166042 
L 79.678359 251.534641 
L 82.402969 249.704433 
L 83.492813 249.402264 
L 84.582656 249.097239 
L 85.6725 248.50332 
L 86.762344 247.646634 
L 88.397109 246.029413 
L 88.942031 245.796833 
L 90.031875 245.650338 
L 90.576797 245.420026 
L 93.301406 243.525658 
L 94.39125 243.101617 
L 96.026016 242.79988 
L 97.115859 242.147584 
L 97.660781 241.798846 
L 98.205703 241.607048 
L 99.840469 241.454601 
L 100.385391 241.048472 
L 100.930313 240.381171 
L 102.020156 238.379166 
L 103.11 235.833565 
L 103.654922 234.861871 
L 104.199844 234.431948 
L 104.744766 234.534236 
L 106.379531 235.628426 
L 106.924453 235.704929 
L 107.469375 235.530031 
L 108.014297 235.097773 
L 110.738906 232.145515 
L 112.373672 230.746424 
L 113.463516 230.234465 
L 114.553359 229.773777 
L 115.643203 229.019561 
L 120.5475 224.936653 
L 121.637344 223.310625 
L 123.272109 220.828286 
L 123.817031 220.265891 
L 124.361953 219.911969 
L 125.996719 219.2888 
L 127.086563 218.25161 
L 128.176406 217.249119 
L 129.26625 216.839241 
L 129.811172 216.678081 
L 130.356094 216.370282 
L 130.901016 215.826302 
L 131.990859 214.044744 
L 133.625625 211.059157 
L 134.170547 210.424681 
L 135.260391 209.682089 
L 136.350234 208.969926 
L 137.440078 208.006083 
L 140.164688 205.266068 
L 140.709609 204.822899 
L 141.254531 204.232338 
L 142.344375 202.368592 
L 143.434219 200.499682 
L 145.613906 198.026911 
L 147.248672 195.226102 
L 148.338516 193.965109 
L 149.973281 192.330734 
L 151.608047 190.425467 
L 152.697891 189.263837 
L 154.332656 187.054345 
L 165.231094 171.11609 
L 166.320938 170.063744 
L 167.410781 168.988992 
L 167.955703 168.185911 
L 169.045547 165.970724 
L 172.315078 159.111298 
L 173.404922 157.489035 
L 174.494766 156.008551 
L 175.584609 153.628752 
L 177.219375 149.570033 
L 177.764297 148.738033 
L 179.399063 147.366258 
L 179.943984 146.549074 
L 181.033828 144.131967 
L 182.668594 140.44984 
L 184.848281 135.932673 
L 185.938125 133.699529 
L 188.662734 129.137144 
L 191.932266 122.526429 
L 193.022109 120.020343 
L 194.111953 118.310657 
L 195.201797 116.529427 
L 196.291641 113.877531 
L 198.471328 107.583403 
L 199.561172 105.26294 
L 200.651016 103.595246 
L 201.195938 102.830414 
L 201.740859 101.857201 
L 202.285781 100.533331 
L 204.465469 94.299403 
L 206.645156 89.797233 
L 209.369766 83.364565 
L 212.094375 76.616506 
L 213.729141 73.315118 
L 214.818984 70.130288 
L 215.908828 66.940949 
L 218.633438 60.506002 
L 219.723281 57.320325 
L 220.813125 54.849617 
L 221.902969 52.488423 
L 225.1725 44.394013 
L 226.262344 42.293121 
L 228.442031 37.320823 
L 229.531875 35.740147 
L 230.621719 34.781589 
L 231.166641 34.536329 
L 232.256484 34.414125 
L 233.89125 34.521428 
L 234.981094 34.941272 
L 236.070938 35.590464 
L 236.615859 36.186464 
L 237.160781 37.46286 
L 237.705703 39.862078 
L 238.795547 47.650628 
L 239.885391 55.25939 
L 240.975234 60.535968 
L 242.61 66.697121 
L 245.879531 79.106811 
L 251.873672 101.901753 
L 256.777969 118.00947 
L 258.412734 123.560017 
L 260.0475 128.498843 
L 261.137344 131.254098 
L 263.317031 136.132866 
L 264.406875 139.970905 
L 265.496719 143.843498 
L 267.131484 148.279178 
L 271.490859 159.759123 
L 272.580703 162.213906 
L 274.215469 165.574998 
L 276.940078 171.759025 
L 280.754531 179.286578 
L 281.844375 181.057004 
L 282.934219 183.530384 
L 284.024063 185.97231 
L 286.20375 189.905817 
L 288.383438 194.698442 
L 289.473281 196.470947 
L 291.652969 199.040461 
L 293.832656 203.034117 
L 297.102188 207.882309 
L 298.736953 209.71364 
L 299.826797 211.439877 
L 301.461563 214.427154 
L 302.006484 215.125007 
L 306.910781 219.68907 
L 308.000625 221.330324 
L 309.090469 223.064571 
L 310.180313 224.26775 
L 311.815078 225.98794 
L 315.084609 229.770452 
L 316.719375 230.631832 
L 317.264297 231.110471 
L 318.354141 232.540303 
L 319.988906 234.889917 
L 321.07875 235.82936 
L 322.168594 236.565555 
L 323.258438 237.432362 
L 323.803359 237.718145 
L 324.348281 237.831508 
L 325.983047 237.757365 
L 326.527969 237.934067 
L 328.707656 239.103103 
L 329.252578 239.3952 
L 329.7975 239.875367 
L 332.522109 243.115653 
L 335.246719 244.741099 
L 336.336563 245.449338 
L 336.881484 245.569085 
L 337.971328 245.596142 
L 338.51625 245.767417 
L 339.606094 246.457935 
L 342.330703 248.245908 
L 347.235 250.342466 
L 348.869766 251.343508 
L 350.504531 252.754562 
L 351.049453 252.851777 
L 351.594375 252.638911 
L 353.229141 251.531318 
L 353.774063 251.458022 
L 354.318984 251.590497 
L 355.408828 252.310474 
L 357.043594 253.939301 
L 358.133438 254.985712 
L 359.223281 255.665763 
L 360.313125 255.866107 
L 361.402969 255.952349 
L 365.762344 257.148863 
L 366.307266 257.111991 
L 367.942031 256.642928 
L 368.486953 256.843394 
L 369.576797 257.98685 
L 370.121719 258.51894 
L 370.666641 258.761672 
L 372.846328 258.70811 
L 374.481094 259.154366 
L 375.570938 259.061154 
L 377.205703 258.640573 
L 377.750625 258.624445 
L 378.295547 258.742908 
L 379.385391 259.365503 
L 380.475234 259.922459 
L 381.565078 260.037788 
L 384.289688 260.021916 
L 387.559219 260.165389 
L 390.283828 259.742824 
L 390.82875 259.768828 
L 391.373672 260.006465 
L 392.463516 261.079408 
L 393.008438 261.609298 
L 393.553359 261.902115 
L 395.733047 262.132726 
L 397.367813 262.678175 
L 399.002578 264.153183 
L 399.5475 264.353953 
L 400.092422 264.265552 
L 401.182266 263.490678 
L 401.727188 263.091273 
L 402.272109 262.903408 
L 402.817031 262.975102 
L 405.541641 264.020575 
L 406.631484 264.179136 
L 408.26625 264.059511 
L 409.901016 264.13474 
L 412.625625 264.054529 
L 414.805313 264.109108 
L 415.895156 263.71898 
L 416.985 263.241302 
L 416.985 263.241302 
" style="fill:none;stroke:#1f77b4;stroke-linecap:square;stroke-width:1.5;"/>
   </g>
   <g id="line2d_30">
    <path clip-path="url(#p33cf1bd01f)" d="M 59.51625 257.970645 
L 61.151016 258.283512 
L 61.695938 258.18941 
L 62.785781 257.490144 
L 63.330703 257.11716 
L 63.875625 256.943826 
L 64.965469 257.155987 
L 65.510391 257.246176 
L 66.055313 257.181658 
L 67.145156 256.716946 
L 68.779922 256.033999 
L 72.594375 255.033513 
L 73.684219 254.557238 
L 74.774063 254.010527 
L 75.863906 253.806199 
L 76.408828 253.741395 
L 76.95375 253.551363 
L 78.043594 252.742117 
L 79.133438 251.856436 
L 80.223281 251.297619 
L 80.768203 251.241864 
L 82.402969 251.39138 
L 84.037734 250.89511 
L 85.6725 250.944574 
L 86.217422 250.695714 
L 87.852188 249.446272 
L 88.942031 249.026978 
L 90.031875 248.588996 
L 91.666641 247.853877 
L 94.39125 247.157077 
L 94.936172 246.867838 
L 96.026016 245.843966 
L 97.115859 244.702519 
L 98.205703 243.955162 
L 99.295547 243.67432 
L 101.475234 243.417567 
L 102.020156 243.108821 
L 102.565078 242.492698 
L 103.654922 240.687702 
L 104.199844 240.154226 
L 104.744766 240.124562 
L 105.834609 240.582878 
L 106.379531 240.535143 
L 106.924453 240.232966 
L 108.014297 239.186498 
L 109.104141 238.115353 
L 109.649063 237.779123 
L 110.738906 237.526708 
L 111.283828 237.435137 
L 111.82875 237.213199 
L 112.373672 236.7812 
L 114.008438 234.934775 
L 114.553359 234.586536 
L 116.733047 233.834102 
L 117.822891 232.931332 
L 118.912734 231.666415 
L 120.5475 229.66335 
L 121.092422 229.316663 
L 121.637344 229.207956 
L 122.727188 229.30433 
L 123.272109 229.205342 
L 123.817031 228.869024 
L 124.906875 227.643602 
L 125.996719 226.522491 
L 128.176406 225.2273 
L 129.26625 223.865968 
L 130.356094 222.315544 
L 131.445938 221.293358 
L 133.625625 219.495217 
L 134.715469 219.221007 
L 135.260391 218.847583 
L 135.805313 218.167248 
L 137.440078 215.664597 
L 138.529922 214.751985 
L 139.619766 213.997894 
L 141.254531 212.456366 
L 142.344375 211.595773 
L 143.434219 210.865741 
L 144.524063 209.787848 
L 146.158828 207.770595 
L 148.338516 204.703766 
L 153.787734 199.247629 
L 154.877578 198.670265 
L 155.4225 198.473968 
L 155.967422 198.146139 
L 156.512344 197.542028 
L 157.602188 195.572438 
L 159.236953 192.548135 
L 160.326797 190.981645 
L 161.416641 189.762514 
L 163.596328 187.588595 
L 164.686172 185.954711 
L 165.776016 184.124009 
L 166.865859 182.725282 
L 169.045547 180.264968 
L 170.135391 178.345054 
L 171.225234 176.400899 
L 172.315078 174.618201 
L 174.494766 170.597198 
L 176.129531 168.826428 
L 177.219375 167.03502 
L 178.854141 164.146705 
L 183.213516 157.135337 
L 184.303359 155.354532 
L 185.938125 153.00251 
L 187.572891 150.077944 
L 191.932266 141.772446 
L 196.291641 134.471459 
L 197.381484 131.73271 
L 198.471328 128.780037 
L 199.561172 126.444807 
L 200.651016 124.67331 
L 201.740859 123.416366 
L 202.830703 122.168254 
L 203.920547 120.44011 
L 205.010391 118.205372 
L 207.735 111.78308 
L 209.369766 108.629612 
L 211.004531 104.628742 
L 214.274063 96.465274 
L 215.363906 94.838904 
L 216.45375 93.05565 
L 220.268203 84.670516 
L 222.447891 78.750284 
L 223.537734 76.591043 
L 226.262344 72.023346 
L 227.897109 69.049984 
L 228.986953 67.496679 
L 230.076797 66.184605 
L 230.621719 65.709946 
L 231.166641 65.471813 
L 231.711563 65.491333 
L 233.89125 66.256701 
L 234.981094 66.163518 
L 235.526016 66.11283 
L 236.070938 66.293142 
L 236.615859 66.993566 
L 237.160781 68.540913 
L 237.705703 71.132719 
L 239.885391 84.716471 
L 240.975234 88.885624 
L 243.699844 98.129637 
L 244.789688 100.884958 
L 245.879531 103.539429 
L 246.969375 107.282871 
L 248.604141 113.676778 
L 249.693984 117.207288 
L 256.233047 135.870862 
L 259.502578 145.282387 
L 260.592422 148.06345 
L 263.317031 154.229008 
L 264.951797 158.573417 
L 269.856094 170.375522 
L 272.035781 174.626632 
L 274.760391 180.698382 
L 276.940078 184.307359 
L 278.574844 187.314037 
L 280.209609 189.787452 
L 282.389297 193.916669 
L 284.024063 196.098033 
L 285.113906 198.240613 
L 286.20375 200.658935 
L 286.748672 201.58427 
L 292.197891 208.768151 
L 294.377578 212.502502 
L 298.736953 218.052389 
L 299.826797 219.19687 
L 300.916641 220.517085 
L 302.006484 221.446973 
L 303.096328 222.368162 
L 304.731094 224.069539 
L 306.365859 226.311987 
L 308.545547 229.29405 
L 309.635391 230.299123 
L 311.815078 231.582223 
L 312.904922 232.711143 
L 313.994766 233.854251 
L 315.084609 234.586762 
L 316.719375 235.652372 
L 317.809219 236.248167 
L 318.899063 236.730164 
L 319.988906 237.839204 
L 321.07875 238.937966 
L 322.713516 240.199128 
L 325.438125 243.204565 
L 325.983047 243.322745 
L 327.072891 243.044198 
L 327.617813 242.889953 
L 328.162734 242.890056 
L 328.707656 243.120094 
L 329.252578 243.589507 
L 331.432266 246.022687 
L 332.522109 246.750683 
L 334.701797 247.649972 
L 336.881484 249.236787 
L 337.426406 249.362856 
L 339.606094 249.290329 
L 340.695938 249.998783 
L 341.785781 250.707615 
L 342.875625 250.901534 
L 343.965469 251.026967 
L 345.055313 251.582277 
L 348.869766 254.112088 
L 349.414688 254.185943 
L 350.504531 254.041723 
L 351.049453 254.120681 
L 351.594375 254.392869 
L 353.229141 255.54264 
L 354.318984 255.881173 
L 355.95375 256.347941 
L 357.043594 256.995699 
L 358.133438 257.690426 
L 358.678359 257.857022 
L 359.223281 257.858961 
L 361.402969 257.469391 
L 362.492813 257.662901 
L 363.582656 258.099715 
L 365.762344 259.239561 
L 366.852188 259.430447 
L 367.942031 259.351846 
L 369.576797 258.947419 
L 370.121719 258.976331 
L 371.211563 259.508744 
L 372.301406 260.153789 
L 373.39125 260.544431 
L 374.481094 260.605725 
L 375.570938 260.590126 
L 377.750625 260.981229 
L 378.840469 260.522795 
L 379.385391 260.291199 
L 379.930313 260.205612 
L 381.020156 260.475631 
L 381.565078 260.634375 
L 383.744766 260.849536 
L 387.014297 262.430583 
L 387.559219 262.569658 
L 388.104141 262.494119 
L 389.738906 261.76758 
L 390.283828 261.697008 
L 390.82875 261.778189 
L 391.918594 262.326116 
L 393.008438 262.869011 
L 394.098281 262.93279 
L 395.733047 262.654544 
L 397.367813 262.192608 
L 398.457656 262.258056 
L 399.5475 262.273611 
L 400.637344 262.153216 
L 401.182266 262.197304 
L 401.727188 262.365766 
L 402.817031 263.119174 
L 403.361953 263.557036 
L 403.906875 263.85113 
L 404.451797 263.936651 
L 406.086563 263.753507 
L 407.721328 263.950855 
L 409.901016 264.215594 
L 410.990859 264.127075 
L 412.625625 263.860862 
L 413.170547 263.977348 
L 414.805313 264.654944 
L 415.350234 264.708548 
L 416.440078 264.458736 
L 416.985 264.31061 
L 416.985 264.31061 
" style="fill:none;stroke:#ff7f0e;stroke-linecap:square;stroke-width:1.5;"/>
   </g>
   <g id="line2d_31">
    <path clip-path="url(#p33cf1bd01f)" d="M 59.51625 263.039824 
L 60.061172 262.858641 
L 61.695938 261.861959 
L 62.240859 261.833679 
L 62.785781 262.043506 
L 64.420547 263.094664 
L 64.965469 263.156253 
L 66.055313 262.731573 
L 67.145156 262.359061 
L 69.324844 262.134577 
L 70.414688 261.921115 
L 73.684219 261.637558 
L 74.774063 261.494649 
L 75.863906 261.444104 
L 76.408828 261.217929 
L 77.498672 260.520679 
L 78.043594 260.296111 
L 79.133438 260.159708 
L 80.768203 260.175289 
L 81.313125 260.027246 
L 82.947891 259.03148 
L 83.492813 258.97939 
L 84.037734 259.211279 
L 85.127578 260.024093 
L 85.6725 260.276022 
L 86.217422 260.303676 
L 86.762344 260.084376 
L 87.852188 259.091572 
L 88.397109 258.582769 
L 88.942031 258.229221 
L 89.486953 258.058799 
L 90.031875 258.061739 
L 91.121719 258.458831 
L 92.211563 258.922232 
L 92.756484 259.004094 
L 93.301406 258.902329 
L 96.026016 257.411206 
L 97.660781 256.514806 
L 98.205703 256.464304 
L 99.840469 256.821431 
L 100.385391 256.621958 
L 101.475234 255.748603 
L 102.020156 255.515114 
L 102.565078 255.622947 
L 103.654922 256.316613 
L 104.199844 256.412417 
L 104.744766 256.237909 
L 105.834609 255.644997 
L 106.924453 255.343474 
L 108.014297 255.144492 
L 109.649063 254.52976 
L 111.82875 254.212709 
L 113.463516 253.43613 
L 114.553359 252.985017 
L 116.733047 252.359596 
L 117.822891 251.430469 
L 118.367813 250.96394 
L 118.912734 250.684635 
L 120.002578 250.610192 
L 122.182266 250.661555 
L 122.727188 250.509443 
L 123.272109 250.217273 
L 125.451797 248.476029 
L 125.996719 248.328512 
L 127.086563 248.465581 
L 128.176406 248.51132 
L 129.26625 248.15326 
L 132.535781 246.960053 
L 133.625625 246.813707 
L 134.715469 246.807369 
L 135.805313 246.340423 
L 136.895156 245.867273 
L 139.074844 245.684867 
L 139.619766 245.262175 
L 141.254531 243.716106 
L 142.889297 242.771091 
L 144.524063 241.351361 
L 145.613906 240.541473 
L 146.70375 240.212932 
L 147.793594 239.955892 
L 150.518203 238.618021 
L 151.608047 238.375508 
L 152.152969 238.146107 
L 152.697891 237.731758 
L 154.332656 235.96014 
L 154.877578 235.682634 
L 156.512344 235.561676 
L 157.602188 234.936506 
L 160.326797 232.982493 
L 161.416641 232.432448 
L 162.506484 231.93477 
L 163.051406 231.542259 
L 164.686172 229.922615 
L 165.231094 229.603214 
L 166.865859 229.042974 
L 168.500625 228.058847 
L 169.045547 227.622358 
L 169.590469 226.971458 
L 171.225234 224.434778 
L 171.770156 223.916957 
L 173.404922 223.123176 
L 174.494766 222.618434 
L 175.584609 222.343076 
L 176.129531 222.053352 
L 177.219375 220.938111 
L 178.309219 219.691242 
L 178.854141 219.22121 
L 179.399063 218.912106 
L 180.488906 218.675285 
L 181.033828 218.556855 
L 181.57875 218.291672 
L 182.123672 217.841696 
L 185.938125 213.738079 
L 187.572891 212.258014 
L 189.752578 209.660172 
L 191.387344 208.442096 
L 192.477188 207.542633 
L 194.656875 205.534777 
L 195.746719 204.601325 
L 196.836563 203.022525 
L 197.926406 201.316479 
L 199.01625 200.115001 
L 200.651016 198.923137 
L 202.285781 197.763023 
L 202.830703 197.163043 
L 203.920547 195.371011 
L 205.010391 193.463864 
L 206.100234 191.927676 
L 207.190078 190.887046 
L 208.279922 190.010982 
L 210.459609 187.740422 
L 212.094375 186.463283 
L 212.639297 185.831585 
L 213.184219 184.992765 
L 213.729141 183.882266 
L 215.363906 179.65025 
L 215.908828 178.645144 
L 216.998672 177.350541 
L 219.723281 174.293196 
L 221.358047 173.102805 
L 222.447891 171.71285 
L 227.352188 164.175121 
L 227.897109 163.493624 
L 228.442031 162.997927 
L 229.531875 162.473217 
L 231.166641 162.065318 
L 233.346328 161.124557 
L 233.89125 161.327208 
L 235.526016 162.533896 
L 237.160781 163.050423 
L 237.705703 164.044571 
L 238.250625 165.832535 
L 239.340469 170.215164 
L 240.430313 173.388748 
L 241.520156 175.61264 
L 243.154922 178.376602 
L 245.334609 181.737802 
L 250.783828 191.108516 
L 252.418594 193.690569 
L 254.053359 196.667219 
L 256.233047 199.879489 
L 257.322891 201.82568 
L 257.867813 202.563211 
L 258.957656 203.460399 
L 259.502578 203.89868 
L 260.0475 204.537177 
L 260.592422 205.448802 
L 262.227188 208.815213 
L 266.041641 214.304566 
L 268.221328 215.818132 
L 268.76625 216.41105 
L 269.311172 217.17895 
L 270.401016 219.235522 
L 271.490859 221.180708 
L 272.035781 221.795128 
L 273.125625 222.440082 
L 274.215469 223.059848 
L 276.395156 224.668128 
L 281.299453 229.8419 
L 282.934219 231.78433 
L 284.024063 233.08941 
L 285.113906 234.661838 
L 285.658828 235.26072 
L 286.20375 235.662064 
L 287.293594 236.116448 
L 288.383438 236.584929 
L 290.018203 237.530602 
L 291.652969 237.983725 
L 292.742813 238.703373 
L 297.102188 242.257395 
L 299.281875 243.198561 
L 300.371719 244.453421 
L 301.461563 245.762332 
L 302.006484 246.197267 
L 303.096328 246.582134 
L 303.64125 246.723786 
L 304.186172 246.990653 
L 305.820938 248.336095 
L 306.365859 248.549157 
L 308.545547 248.577343 
L 310.180313 248.454785 
L 310.725234 248.645508 
L 311.815078 249.550623 
L 313.449844 251.285707 
L 314.539688 251.917575 
L 315.084609 252.197502 
L 316.719375 253.35727 
L 317.264297 253.373269 
L 318.354141 253.270408 
L 319.443984 253.748947 
L 319.988906 254.008144 
L 320.533828 254.107199 
L 321.07875 254.005641 
L 322.168594 253.572631 
L 322.713516 253.524397 
L 323.803359 253.881029 
L 324.348281 254.200482 
L 324.893203 254.668852 
L 326.527969 256.656253 
L 327.072891 257.035165 
L 327.617813 257.176085 
L 328.707656 256.988021 
L 329.7975 256.720144 
L 330.887344 256.820166 
L 331.977188 257.318735 
L 333.067031 257.931536 
L 333.611953 258.033423 
L 334.701797 257.915812 
L 336.881484 257.64718 
L 337.426406 257.74496 
L 337.971328 257.971508 
L 339.061172 258.786911 
L 340.151016 259.6499 
L 340.695938 259.83559 
L 342.875625 259.815933 
L 343.965469 260.007879 
L 346.145156 259.889625 
L 348.324844 259.401707 
L 348.869766 259.504158 
L 349.414688 259.779248 
L 351.049453 260.926591 
L 351.594375 261.036035 
L 353.229141 260.915906 
L 353.774063 261.016333 
L 354.863906 261.530795 
L 355.95375 262.11179 
L 356.498672 262.21261 
L 358.133438 261.924831 
L 358.678359 262.076528 
L 360.313125 262.981638 
L 360.858047 262.968732 
L 361.947891 262.432221 
L 363.037734 262.020253 
L 364.6725 261.83409 
L 365.217422 261.902866 
L 366.307266 262.473712 
L 366.852188 262.802255 
L 367.397109 262.974506 
L 369.031875 262.901519 
L 370.666641 263.430218 
L 371.211563 263.321404 
L 372.301406 262.807755 
L 372.846328 262.733903 
L 373.936172 263.12648 
L 375.026016 263.427305 
L 376.115859 263.557661 
L 376.660781 263.784967 
L 377.750625 264.645491 
L 378.295547 265.108672 
L 378.840469 265.383163 
L 379.385391 265.375507 
L 380.475234 264.983793 
L 381.020156 264.973419 
L 382.11 265.195067 
L 382.654922 265.101211 
L 384.834609 264.033066 
L 386.469375 264.486477 
L 388.649063 264.036311 
L 389.738906 264.419613 
L 390.283828 264.443874 
L 391.373672 263.989218 
L 391.918594 263.777809 
L 392.463516 263.760939 
L 393.553359 264.236158 
L 394.643203 264.647908 
L 397.912734 265.151602 
L 398.457656 265.080266 
L 400.637344 264.259766 
L 401.727188 264.138112 
L 402.272109 264.195631 
L 402.817031 264.404573 
L 404.451797 265.422443 
L 404.996719 265.505042 
L 407.176406 265.17926 
L 408.26625 265.266945 
L 410.445938 265.001817 
L 411.535781 265.338247 
L 412.625625 265.830408 
L 413.170547 265.88543 
L 413.715469 265.69322 
L 414.805313 265.025532 
L 415.350234 264.877054 
L 416.440078 264.997922 
L 416.985 265.073623 
L 416.985 265.073623 
" style="fill:none;stroke:#2ca02c;stroke-linecap:square;stroke-width:1.5;"/>
   </g>
   <g id="patch_3">
    <path d="M 59.690625 288.430125 
L 59.690625 22.318125 
" style="fill:none;stroke:#000000;stroke-linecap:square;stroke-linejoin:miter;stroke-width:0.8;"/>
   </g>
   <g id="patch_4">
    <path d="M 416.810625 288.430125 
L 416.810625 22.318125 
" style="fill:none;stroke:#000000;stroke-linecap:square;stroke-linejoin:miter;stroke-width:0.8;"/>
   </g>
   <g id="patch_5">
    <path d="M 59.690625 288.430125 
L 416.810625 288.430125 
" style="fill:none;stroke:#000000;stroke-linecap:square;stroke-linejoin:miter;stroke-width:0.8;"/>
   </g>
   <g id="patch_6">
    <path d="M 59.690625 22.318125 
L 416.810625 22.318125 
" style="fill:none;stroke:#000000;stroke-linecap:square;stroke-linejoin:miter;stroke-width:0.8;"/>
   </g>
   <g id="text_17">
    <!-- Spektrum Vergleich -->
    <defs>
     <path d="M 53.515625 70.515625 
L 53.515625 60.890625 
Q 47.90625 63.578125 42.921875 64.890625 
Q 37.9375 66.21875 33.296875 66.21875 
Q 25.25 66.21875 20.875 63.09375 
Q 16.5 59.96875 16.5 54.203125 
Q 16.5 49.359375 19.40625 46.890625 
Q 22.3125 44.4375 30.421875 42.921875 
L 36.375 41.703125 
Q 47.40625 39.59375 52.65625 34.296875 
Q 57.90625 29 57.90625 20.125 
Q 57.90625 9.515625 50.796875 4.046875 
Q 43.703125 -1.421875 29.984375 -1.421875 
Q 24.8125 -1.421875 18.96875 -0.25 
Q 13.140625 0.921875 6.890625 3.21875 
L 6.890625 13.375 
Q 12.890625 10.015625 18.65625 8.296875 
Q 24.421875 6.59375 29.984375 6.59375 
Q 38.421875 6.59375 43.015625 9.90625 
Q 47.609375 13.234375 47.609375 19.390625 
Q 47.609375 24.75 44.3125 27.78125 
Q 41.015625 30.8125 33.5 32.328125 
L 27.484375 33.5 
Q 16.453125 35.6875 11.515625 40.375 
Q 6.59375 45.0625 6.59375 53.421875 
Q 6.59375 63.09375 13.40625 68.65625 
Q 20.21875 74.21875 32.171875 74.21875 
Q 37.3125 74.21875 42.625 73.28125 
Q 47.953125 72.359375 53.515625 70.515625 
" id="DejaVuSans-53"/>
     <path d="M 18.109375 8.203125 
L 18.109375 -20.796875 
L 9.078125 -20.796875 
L 9.078125 54.6875 
L 18.109375 54.6875 
L 18.109375 46.390625 
Q 20.953125 51.265625 25.265625 53.625 
Q 29.59375 56 35.59375 56 
Q 45.5625 56 51.78125 48.09375 
Q 58.015625 40.1875 58.015625 27.296875 
Q 58.015625 14.40625 51.78125 6.484375 
Q 45.5625 -1.421875 35.59375 -1.421875 
Q 29.59375 -1.421875 25.265625 0.953125 
Q 20.953125 3.328125 18.109375 8.203125 
M 48.6875 27.296875 
Q 48.6875 37.203125 44.609375 42.84375 
Q 40.53125 48.484375 33.40625 48.484375 
Q 26.265625 48.484375 22.1875 42.84375 
Q 18.109375 37.203125 18.109375 27.296875 
Q 18.109375 17.390625 22.1875 11.75 
Q 26.265625 6.109375 33.40625 6.109375 
Q 40.53125 6.109375 44.609375 11.75 
Q 48.6875 17.390625 48.6875 27.296875 
" id="DejaVuSans-70"/>
     <path d="M 18.3125 70.21875 
L 18.3125 54.6875 
L 36.8125 54.6875 
L 36.8125 47.703125 
L 18.3125 47.703125 
L 18.3125 18.015625 
Q 18.3125 11.328125 20.140625 9.421875 
Q 21.96875 7.515625 27.59375 7.515625 
L 36.8125 7.515625 
L 36.8125 0 
L 27.59375 0 
Q 17.1875 0 13.234375 3.875 
Q 9.28125 7.765625 9.28125 18.015625 
L 9.28125 47.703125 
L 2.6875 47.703125 
L 2.6875 54.6875 
L 9.28125 54.6875 
L 9.28125 70.21875 
z
" id="DejaVuSans-74"/>
     <path d="M 52 44.1875 
Q 55.375 50.25 60.0625 53.125 
Q 64.75 56 71.09375 56 
Q 79.640625 56 84.28125 50.015625 
Q 88.921875 44.046875 88.921875 33.015625 
L 88.921875 0 
L 79.890625 0 
L 79.890625 32.71875 
Q 79.890625 40.578125 77.09375 44.375 
Q 74.3125 48.1875 68.609375 48.1875 
Q 61.625 48.1875 57.5625 43.546875 
Q 53.515625 38.921875 53.515625 30.90625 
L 53.515625 0 
L 44.484375 0 
L 44.484375 32.71875 
Q 44.484375 40.625 41.703125 44.40625 
Q 38.921875 48.1875 33.109375 48.1875 
Q 26.21875 48.1875 22.15625 43.53125 
Q 18.109375 38.875 18.109375 30.90625 
L 18.109375 0 
L 9.078125 0 
L 9.078125 54.6875 
L 18.109375 54.6875 
L 18.109375 46.1875 
Q 21.1875 51.21875 25.484375 53.609375 
Q 29.78125 56 35.6875 56 
Q 41.65625 56 45.828125 52.96875 
Q 50 49.953125 52 44.1875 
" id="DejaVuSans-6d"/>
     <path d="M 28.609375 0 
L 0.78125 72.90625 
L 11.078125 72.90625 
L 34.1875 11.53125 
L 57.328125 72.90625 
L 67.578125 72.90625 
L 39.796875 0 
z
" id="DejaVuSans-56"/>
     <path d="M 45.40625 27.984375 
Q 45.40625 37.75 41.375 43.109375 
Q 37.359375 48.484375 30.078125 48.484375 
Q 22.859375 48.484375 18.828125 43.109375 
Q 14.796875 37.75 14.796875 27.984375 
Q 14.796875 18.265625 18.828125 12.890625 
Q 22.859375 7.515625 30.078125 7.515625 
Q 37.359375 7.515625 41.375 12.890625 
Q 45.40625 18.265625 45.40625 27.984375 
M 54.390625 6.78125 
Q 54.390625 -7.171875 48.1875 -13.984375 
Q 42 -20.796875 29.203125 -20.796875 
Q 24.46875 -20.796875 20.265625 -20.09375 
Q 16.0625 -19.390625 12.109375 -17.921875 
L 12.109375 -9.1875 
Q 16.0625 -11.328125 19.921875 -12.34375 
Q 23.78125 -13.375 27.78125 -13.375 
Q 36.625 -13.375 41.015625 -8.765625 
Q 45.40625 -4.15625 45.40625 5.171875 
L 45.40625 9.625 
Q 42.625 4.78125 38.28125 2.390625 
Q 33.9375 0 27.875 0 
Q 17.828125 0 11.671875 7.65625 
Q 5.515625 15.328125 5.515625 27.984375 
Q 5.515625 40.671875 11.671875 48.328125 
Q 17.828125 56 27.875 56 
Q 33.9375 56 38.28125 53.609375 
Q 42.625 51.21875 45.40625 46.390625 
L 45.40625 54.6875 
L 54.390625 54.6875 
z
" id="DejaVuSans-67"/>
     <path d="M 9.421875 75.984375 
L 18.40625 75.984375 
L 18.40625 0 
L 9.421875 0 
z
" id="DejaVuSans-6c"/>
     <path d="M 9.421875 54.6875 
L 18.40625 54.6875 
L 18.40625 0 
L 9.421875 0 
z
M 9.421875 75.984375 
L 18.40625 75.984375 
L 18.40625 64.59375 
L 9.421875 64.59375 
z
" id="DejaVuSans-69"/>
     <path d="M 48.78125 52.59375 
L 48.78125 44.1875 
Q 44.96875 46.296875 41.140625 47.34375 
Q 37.3125 48.390625 33.40625 48.390625 
Q 24.65625 48.390625 19.8125 42.84375 
Q 14.984375 37.3125 14.984375 27.296875 
Q 14.984375 17.28125 19.8125 11.734375 
Q 24.65625 6.203125 33.40625 6.203125 
Q 37.3125 6.203125 41.140625 7.25 
Q 44.96875 8.296875 48.78125 10.40625 
L 48.78125 2.09375 
Q 45.015625 0.34375 40.984375 -0.53125 
Q 36.96875 -1.421875 32.421875 -1.421875 
Q 20.0625 -1.421875 12.78125 6.34375 
Q 5.515625 14.109375 5.515625 27.296875 
Q 5.515625 40.671875 12.859375 48.328125 
Q 20.21875 56 33.015625 56 
Q 37.15625 56 41.109375 55.140625 
Q 45.0625 54.296875 48.78125 52.59375 
" id="DejaVuSans-63"/>
     <path d="M 54.890625 33.015625 
L 54.890625 0 
L 45.90625 0 
L 45.90625 32.71875 
Q 45.90625 40.484375 42.875 44.328125 
Q 39.84375 48.1875 33.796875 48.1875 
Q 26.515625 48.1875 22.3125 43.546875 
Q 18.109375 38.921875 18.109375 30.90625 
L 18.109375 0 
L 9.078125 0 
L 9.078125 75.984375 
L 18.109375 75.984375 
L 18.109375 46.1875 
Q 21.34375 51.125 25.703125 53.5625 
Q 30.078125 56 35.796875 56 
Q 45.21875 56 50.046875 50.171875 
Q 54.890625 44.34375 54.890625 33.015625 
" id="DejaVuSans-68"/>
    </defs>
    <g transform="translate(178.902188 16.318125)scale(0.12 -0.12)">
     <use xlink:href="#DejaVuSans-53"/>
     <use x="63.476562" xlink:href="#DejaVuSans-70"/>
     <use x="126.953125" xlink:href="#DejaVuSans-65"/>
     <use x="188.476562" xlink:href="#DejaVuSans-6b"/>
     <use x="246.386719" xlink:href="#DejaVuSans-74"/>
     <use x="285.595703" xlink:href="#DejaVuSans-72"/>
     <use x="326.708984" xlink:href="#DejaVuSans-75"/>
     <use x="390.087891" xlink:href="#DejaVuSans-6d"/>
     <use x="487.5" xlink:href="#DejaVuSans-20"/>
     <use x="519.287109" xlink:href="#DejaVuSans-56"/>
     <use x="587.585938" xlink:href="#DejaVuSans-65"/>
     <use x="649.109375" xlink:href="#DejaVuSans-72"/>
     <use x="690.207031" xlink:href="#DejaVuSans-67"/>
     <use x="753.683594" xlink:href="#DejaVuSans-6c"/>
     <use x="781.466797" xlink:href="#DejaVuSans-65"/>
     <use x="842.990234" xlink:href="#DejaVuSans-69"/>
     <use x="870.773438" xlink:href="#DejaVuSans-63"/>
     <use x="925.753906" xlink:href="#DejaVuSans-68"/>
    </g>
   </g>
   <g id="legend_1">
    <g id="patch_7">
     <path d="M 331.054375 74.3525 
L 409.810625 74.3525 
Q 411.810625 74.3525 411.810625 72.3525 
L 411.810625 29.318125 
Q 411.810625 27.318125 409.810625 27.318125 
L 331.054375 27.318125 
Q 329.054375 27.318125 329.054375 29.318125 
L 329.054375 72.3525 
Q 329.054375 74.3525 331.054375 74.3525 
z
" style="fill:#ffffff;opacity:0.8;stroke:#cccccc;stroke-linejoin:miter;"/>
    </g>
    <g id="line2d_32">
     <path d="M 333.054375 35.416562 
L 353.054375 35.416562 
" style="fill:none;stroke:#1f77b4;stroke-linecap:square;stroke-width:1.5;"/>
    </g>
    <g id="line2d_33"/>
    <g id="text_18">
     <!-- 0.015 ms -->
     <defs>
      <path d="M 10.796875 72.90625 
L 49.515625 72.90625 
L 49.515625 64.59375 
L 19.828125 64.59375 
L 19.828125 46.734375 
Q 21.96875 47.46875 24.109375 47.828125 
Q 26.265625 48.1875 28.421875 48.1875 
Q 40.625 48.1875 47.75 41.5 
Q 54.890625 34.8125 54.890625 23.390625 
Q 54.890625 11.625 47.5625 5.09375 
Q 40.234375 -1.421875 26.90625 -1.421875 
Q 22.3125 -1.421875 17.546875 -0.640625 
Q 12.796875 0.140625 7.71875 1.703125 
L 7.71875 11.625 
Q 12.109375 9.234375 16.796875 8.0625 
Q 21.484375 6.890625 26.703125 6.890625 
Q 35.15625 6.890625 40.078125 11.328125 
Q 45.015625 15.765625 45.015625 23.390625 
Q 45.015625 31 40.078125 35.4375 
Q 35.15625 39.890625 26.703125 39.890625 
Q 22.75 39.890625 18.8125 39.015625 
Q 14.890625 38.140625 10.796875 36.28125 
z
" id="DejaVuSans-35"/>
      <path d="M 44.28125 53.078125 
L 44.28125 44.578125 
Q 40.484375 46.53125 36.375 47.5 
Q 32.28125 48.484375 27.875 48.484375 
Q 21.1875 48.484375 17.84375 46.4375 
Q 14.5 44.390625 14.5 40.28125 
Q 14.5 37.15625 16.890625 35.375 
Q 19.28125 33.59375 26.515625 31.984375 
L 29.59375 31.296875 
Q 39.15625 29.25 43.1875 25.515625 
Q 47.21875 21.78125 47.21875 15.09375 
Q 47.21875 7.46875 41.1875 3.015625 
Q 35.15625 -1.421875 24.609375 -1.421875 
Q 20.21875 -1.421875 15.453125 -0.5625 
Q 10.6875 0.296875 5.421875 2 
L 5.421875 11.28125 
Q 10.40625 8.6875 15.234375 7.390625 
Q 20.0625 6.109375 24.8125 6.109375 
Q 31.15625 6.109375 34.5625 8.28125 
Q 37.984375 10.453125 37.984375 14.40625 
Q 37.984375 18.0625 35.515625 20.015625 
Q 33.0625 21.96875 24.703125 23.78125 
L 21.578125 24.515625 
Q 13.234375 26.265625 9.515625 29.90625 
Q 5.8125 33.546875 5.8125 39.890625 
Q 5.8125 47.609375 11.28125 51.796875 
Q 16.75 56 26.8125 56 
Q 31.78125 56 36.171875 55.265625 
Q 40.578125 54.546875 44.28125 53.078125 
" id="DejaVuSans-73"/>
     </defs>
     <g transform="translate(361.054375 38.916562)scale(0.1 -0.1)">
      <use xlink:href="#DejaVuSans-30"/>
      <use x="63.623047" xlink:href="#DejaVuSans-2e"/>
      <use x="95.410156" xlink:href="#DejaVuSans-30"/>
      <use x="159.033203" xlink:href="#DejaVuSans-31"/>
      <use x="222.65625" xlink:href="#DejaVuSans-35"/>
      <use x="286.279297" xlink:href="#DejaVuSans-20"/>
      <use x="318.066406" xlink:href="#DejaVuSans-6d"/>
      <use x="415.478516" xlink:href="#DejaVuSans-73"/>
     </g>
    </g>
    <g id="line2d_34">
     <path d="M 333.054375 50.094688 
L 353.054375 50.094688 
" style="fill:none;stroke:#ff7f0e;stroke-linecap:square;stroke-width:1.5;"/>
    </g>
    <g id="line2d_35"/>
    <g id="text_19">
     <!-- 0.1 ms -->
     <g transform="translate(361.054375 53.594688)scale(0.1 -0.1)">
      <use xlink:href="#DejaVuSans-30"/>
      <use x="63.623047" xlink:href="#DejaVuSans-2e"/>
      <use x="95.410156" xlink:href="#DejaVuSans-31"/>
      <use x="159.033203" xlink:href="#DejaVuSans-20"/>
      <use x="190.820312" xlink:href="#DejaVuSans-6d"/>
      <use x="288.232422" xlink:href="#DejaVuSans-73"/>
     </g>
    </g>
    <g id="line2d_36">
     <path d="M 333.054375 64.772812 
L 353.054375 64.772812 
" style="fill:none;stroke:#2ca02c;stroke-linecap:square;stroke-width:1.5;"/>
    </g>
    <g id="line2d_37"/>
    <g id="text_20">
     <!-- 0.6 ms -->
     <g transform="translate(361.054375 68.272812)scale(0.1 -0.1)">
      <use xlink:href="#DejaVuSans-30"/>
      <use x="63.623047" xlink:href="#DejaVuSans-2e"/>
      <use x="95.410156" xlink:href="#DejaVuSans-36"/>
      <use x="159.033203" xlink:href="#DejaVuSans-20"/>
      <use x="190.820312" xlink:href="#DejaVuSans-6d"/>
      <use x="288.232422" xlink:href="#DejaVuSans-73"/>
     </g>
    </g>
   </g>
  </g>
 </g>
 <defs>
  <clipPath id="p33cf1bd01f">
   <rect height="266.112" width="357.12" x="59.690625" y="22.318125"/>
  </clipPath>
 </defs>
</svg>
