<?xml version="1.0" encoding="utf-8" standalone="no"?>
<!DOCTYPE svg PUBLIC "-//W3C//DTD SVG 1.1//EN"
  "http://www.w3.org/Graphics/SVG/1.1/DTD/svg11.dtd">
<!-- Created with matplotlib (http://matplotlib.org/) -->
<svg height="258.69625pt" version="1.1" viewBox="0 0 400.204687 258.69625" width="400.204687pt" xmlns="http://www.w3.org/2000/svg" xmlns:xlink="http://www.w3.org/1999/xlink">
 <defs>
  <style type="text/css">
*{stroke-linecap:butt;stroke-linejoin:round;}
  </style>
 </defs>
 <g id="figure_1">
  <g id="patch_1">
   <path d="M 0 258.69625 
L 400.204687 258.69625 
L 400.204687 0 
L 0 0 
z
" style="fill:#ffffff;"/>
  </g>
  <g id="axes_1">
   <g id="patch_2">
    <path d="M 48.660938 224.64 
L 383.460938 224.64 
L 383.460938 7.2 
L 48.660938 7.2 
z
" style="fill:#ffffff;"/>
   </g>
   <g id="matplotlib.axis_1">
    <g id="xtick_1">
     <g id="line2d_1">
      <defs>
       <path d="M 0 0 
L 0 -3.5 
" id="m84a69cfa20" style="stroke:#000000;stroke-width:0.8;"/>
      </defs>
      <g>
       <use style="stroke:#000000;stroke-width:0.8;" x="48.660938" xlink:href="#m84a69cfa20" y="224.64"/>
      </g>
     </g>
     <g id="line2d_2">
      <defs>
       <path d="M 0 0 
L 0 3.5 
" id="mec57e9245f" style="stroke:#000000;stroke-width:0.8;"/>
      </defs>
      <g>
       <use style="stroke:#000000;stroke-width:0.8;" x="48.660938" xlink:href="#mec57e9245f" y="7.2"/>
      </g>
     </g>
     <g id="text_1">
      <!-- −100 -->
      <defs>
       <path d="M 10.59375 35.5 
L 73.1875 35.5 
L 73.1875 27.203125 
L 10.59375 27.203125 
z
" id="DejaVuSans-2212"/>
       <path d="M 12.40625 8.296875 
L 28.515625 8.296875 
L 28.515625 63.921875 
L 10.984375 60.40625 
L 10.984375 69.390625 
L 28.421875 72.90625 
L 38.28125 72.90625 
L 38.28125 8.296875 
L 54.390625 8.296875 
L 54.390625 0 
L 12.40625 0 
z
" id="DejaVuSans-31"/>
       <path d="M 31.78125 66.40625 
Q 24.171875 66.40625 20.328125 58.90625 
Q 16.5 51.421875 16.5 36.375 
Q 16.5 21.390625 20.328125 13.890625 
Q 24.171875 6.390625 31.78125 6.390625 
Q 39.453125 6.390625 43.28125 13.890625 
Q 47.125 21.390625 47.125 36.375 
Q 47.125 51.421875 43.28125 58.90625 
Q 39.453125 66.40625 31.78125 66.40625 
z
M 31.78125 74.21875 
Q 44.046875 74.21875 50.515625 64.515625 
Q 56.984375 54.828125 56.984375 36.375 
Q 56.984375 17.96875 50.515625 8.265625 
Q 44.046875 -1.421875 31.78125 -1.421875 
Q 19.53125 -1.421875 13.0625 8.265625 
Q 6.59375 17.96875 6.59375 36.375 
Q 6.59375 54.828125 13.0625 64.515625 
Q 19.53125 74.21875 31.78125 74.21875 
z
" id="DejaVuSans-30"/>
      </defs>
      <g transform="translate(34.927344 235.738437)scale(0.1 -0.1)">
       <use xlink:href="#DejaVuSans-2212"/>
       <use x="83.789062" xlink:href="#DejaVuSans-31"/>
       <use x="147.412109" xlink:href="#DejaVuSans-30"/>
       <use x="211.035156" xlink:href="#DejaVuSans-30"/>
      </g>
     </g>
    </g>
    <g id="xtick_2">
     <g id="line2d_3">
      <g>
       <use style="stroke:#000000;stroke-width:0.8;" x="90.510938" xlink:href="#m84a69cfa20" y="224.64"/>
      </g>
     </g>
     <g id="line2d_4">
      <g>
       <use style="stroke:#000000;stroke-width:0.8;" x="90.510938" xlink:href="#mec57e9245f" y="7.2"/>
      </g>
     </g>
     <g id="text_2">
      <!-- −75 -->
      <defs>
       <path d="M 8.203125 72.90625 
L 55.078125 72.90625 
L 55.078125 68.703125 
L 28.609375 0 
L 18.3125 0 
L 43.21875 64.59375 
L 8.203125 64.59375 
z
" id="DejaVuSans-37"/>
       <path d="M 10.796875 72.90625 
L 49.515625 72.90625 
L 49.515625 64.59375 
L 19.828125 64.59375 
L 19.828125 46.734375 
Q 21.96875 47.46875 24.109375 47.828125 
Q 26.265625 48.1875 28.421875 48.1875 
Q 40.625 48.1875 47.75 41.5 
Q 54.890625 34.8125 54.890625 23.390625 
Q 54.890625 11.625 47.5625 5.09375 
Q 40.234375 -1.421875 26.90625 -1.421875 
Q 22.3125 -1.421875 17.546875 -0.640625 
Q 12.796875 0.140625 7.71875 1.703125 
L 7.71875 11.625 
Q 12.109375 9.234375 16.796875 8.0625 
Q 21.484375 6.890625 26.703125 6.890625 
Q 35.15625 6.890625 40.078125 11.328125 
Q 45.015625 15.765625 45.015625 23.390625 
Q 45.015625 31 40.078125 35.4375 
Q 35.15625 39.890625 26.703125 39.890625 
Q 22.75 39.890625 18.8125 39.015625 
Q 14.890625 38.140625 10.796875 36.28125 
z
" id="DejaVuSans-35"/>
      </defs>
      <g transform="translate(79.958594 235.738437)scale(0.1 -0.1)">
       <use xlink:href="#DejaVuSans-2212"/>
       <use x="83.789062" xlink:href="#DejaVuSans-37"/>
       <use x="147.412109" xlink:href="#DejaVuSans-35"/>
      </g>
     </g>
    </g>
    <g id="xtick_3">
     <g id="line2d_5">
      <g>
       <use style="stroke:#000000;stroke-width:0.8;" x="132.360938" xlink:href="#m84a69cfa20" y="224.64"/>
      </g>
     </g>
     <g id="line2d_6">
      <g>
       <use style="stroke:#000000;stroke-width:0.8;" x="132.360938" xlink:href="#mec57e9245f" y="7.2"/>
      </g>
     </g>
     <g id="text_3">
      <!-- −50 -->
      <g transform="translate(121.808594 235.738437)scale(0.1 -0.1)">
       <use xlink:href="#DejaVuSans-2212"/>
       <use x="83.789062" xlink:href="#DejaVuSans-35"/>
       <use x="147.412109" xlink:href="#DejaVuSans-30"/>
      </g>
     </g>
    </g>
    <g id="xtick_4">
     <g id="line2d_7">
      <g>
       <use style="stroke:#000000;stroke-width:0.8;" x="174.210938" xlink:href="#m84a69cfa20" y="224.64"/>
      </g>
     </g>
     <g id="line2d_8">
      <g>
       <use style="stroke:#000000;stroke-width:0.8;" x="174.210938" xlink:href="#mec57e9245f" y="7.2"/>
      </g>
     </g>
     <g id="text_4">
      <!-- −25 -->
      <defs>
       <path d="M 19.1875 8.296875 
L 53.609375 8.296875 
L 53.609375 0 
L 7.328125 0 
L 7.328125 8.296875 
Q 12.9375 14.109375 22.625 23.890625 
Q 32.328125 33.6875 34.8125 36.53125 
Q 39.546875 41.84375 41.421875 45.53125 
Q 43.3125 49.21875 43.3125 52.78125 
Q 43.3125 58.59375 39.234375 62.25 
Q 35.15625 65.921875 28.609375 65.921875 
Q 23.96875 65.921875 18.8125 64.3125 
Q 13.671875 62.703125 7.8125 59.421875 
L 7.8125 69.390625 
Q 13.765625 71.78125 18.9375 73 
Q 24.125 74.21875 28.421875 74.21875 
Q 39.75 74.21875 46.484375 68.546875 
Q 53.21875 62.890625 53.21875 53.421875 
Q 53.21875 48.921875 51.53125 44.890625 
Q 49.859375 40.875 45.40625 35.40625 
Q 44.1875 33.984375 37.640625 27.21875 
Q 31.109375 20.453125 19.1875 8.296875 
z
" id="DejaVuSans-32"/>
      </defs>
      <g transform="translate(163.658594 235.738437)scale(0.1 -0.1)">
       <use xlink:href="#DejaVuSans-2212"/>
       <use x="83.789062" xlink:href="#DejaVuSans-32"/>
       <use x="147.412109" xlink:href="#DejaVuSans-35"/>
      </g>
     </g>
    </g>
    <g id="xtick_5">
     <g id="line2d_9">
      <g>
       <use style="stroke:#000000;stroke-width:0.8;" x="216.060938" xlink:href="#m84a69cfa20" y="224.64"/>
      </g>
     </g>
     <g id="line2d_10">
      <g>
       <use style="stroke:#000000;stroke-width:0.8;" x="216.060938" xlink:href="#mec57e9245f" y="7.2"/>
      </g>
     </g>
     <g id="text_5">
      <!-- 0 -->
      <g transform="translate(212.879688 235.738437)scale(0.1 -0.1)">
       <use xlink:href="#DejaVuSans-30"/>
      </g>
     </g>
    </g>
    <g id="xtick_6">
     <g id="line2d_11">
      <g>
       <use style="stroke:#000000;stroke-width:0.8;" x="257.910938" xlink:href="#m84a69cfa20" y="224.64"/>
      </g>
     </g>
     <g id="line2d_12">
      <g>
       <use style="stroke:#000000;stroke-width:0.8;" x="257.910938" xlink:href="#mec57e9245f" y="7.2"/>
      </g>
     </g>
     <g id="text_6">
      <!-- 25 -->
      <g transform="translate(251.548438 235.738437)scale(0.1 -0.1)">
       <use xlink:href="#DejaVuSans-32"/>
       <use x="63.623047" xlink:href="#DejaVuSans-35"/>
      </g>
     </g>
    </g>
    <g id="xtick_7">
     <g id="line2d_13">
      <g>
       <use style="stroke:#000000;stroke-width:0.8;" x="299.760938" xlink:href="#m84a69cfa20" y="224.64"/>
      </g>
     </g>
     <g id="line2d_14">
      <g>
       <use style="stroke:#000000;stroke-width:0.8;" x="299.760938" xlink:href="#mec57e9245f" y="7.2"/>
      </g>
     </g>
     <g id="text_7">
      <!-- 50 -->
      <g transform="translate(293.398438 235.738437)scale(0.1 -0.1)">
       <use xlink:href="#DejaVuSans-35"/>
       <use x="63.623047" xlink:href="#DejaVuSans-30"/>
      </g>
     </g>
    </g>
    <g id="xtick_8">
     <g id="line2d_15">
      <g>
       <use style="stroke:#000000;stroke-width:0.8;" x="341.610938" xlink:href="#m84a69cfa20" y="224.64"/>
      </g>
     </g>
     <g id="line2d_16">
      <g>
       <use style="stroke:#000000;stroke-width:0.8;" x="341.610938" xlink:href="#mec57e9245f" y="7.2"/>
      </g>
     </g>
     <g id="text_8">
      <!-- 75 -->
      <g transform="translate(335.248438 235.738437)scale(0.1 -0.1)">
       <use xlink:href="#DejaVuSans-37"/>
       <use x="63.623047" xlink:href="#DejaVuSans-35"/>
      </g>
     </g>
    </g>
    <g id="xtick_9">
     <g id="line2d_17">
      <g>
       <use style="stroke:#000000;stroke-width:0.8;" x="383.460938" xlink:href="#m84a69cfa20" y="224.64"/>
      </g>
     </g>
     <g id="line2d_18">
      <g>
       <use style="stroke:#000000;stroke-width:0.8;" x="383.460938" xlink:href="#mec57e9245f" y="7.2"/>
      </g>
     </g>
     <g id="text_9">
      <!-- 100 -->
      <g transform="translate(373.917188 235.738437)scale(0.1 -0.1)">
       <use xlink:href="#DejaVuSans-31"/>
       <use x="63.623047" xlink:href="#DejaVuSans-30"/>
       <use x="127.246094" xlink:href="#DejaVuSans-30"/>
      </g>
     </g>
    </g>
    <g id="text_10">
     <!-- Frequenz [kHz] -->
     <defs>
      <path d="M 9.8125 72.90625 
L 51.703125 72.90625 
L 51.703125 64.59375 
L 19.671875 64.59375 
L 19.671875 43.109375 
L 48.578125 43.109375 
L 48.578125 34.8125 
L 19.671875 34.8125 
L 19.671875 0 
L 9.8125 0 
z
" id="DejaVuSans-46"/>
      <path d="M 41.109375 46.296875 
Q 39.59375 47.171875 37.8125 47.578125 
Q 36.03125 48 33.890625 48 
Q 26.265625 48 22.1875 43.046875 
Q 18.109375 38.09375 18.109375 28.8125 
L 18.109375 0 
L 9.078125 0 
L 9.078125 54.6875 
L 18.109375 54.6875 
L 18.109375 46.1875 
Q 20.953125 51.171875 25.484375 53.578125 
Q 30.03125 56 36.53125 56 
Q 37.453125 56 38.578125 55.875 
Q 39.703125 55.765625 41.0625 55.515625 
z
" id="DejaVuSans-72"/>
      <path d="M 56.203125 29.59375 
L 56.203125 25.203125 
L 14.890625 25.203125 
Q 15.484375 15.921875 20.484375 11.0625 
Q 25.484375 6.203125 34.421875 6.203125 
Q 39.59375 6.203125 44.453125 7.46875 
Q 49.3125 8.734375 54.109375 11.28125 
L 54.109375 2.78125 
Q 49.265625 0.734375 44.1875 -0.34375 
Q 39.109375 -1.421875 33.890625 -1.421875 
Q 20.796875 -1.421875 13.15625 6.1875 
Q 5.515625 13.8125 5.515625 26.8125 
Q 5.515625 40.234375 12.765625 48.109375 
Q 20.015625 56 32.328125 56 
Q 43.359375 56 49.78125 48.890625 
Q 56.203125 41.796875 56.203125 29.59375 
z
M 47.21875 32.234375 
Q 47.125 39.59375 43.09375 43.984375 
Q 39.0625 48.390625 32.421875 48.390625 
Q 24.90625 48.390625 20.390625 44.140625 
Q 15.875 39.890625 15.1875 32.171875 
z
" id="DejaVuSans-65"/>
      <path d="M 14.796875 27.296875 
Q 14.796875 17.390625 18.875 11.75 
Q 22.953125 6.109375 30.078125 6.109375 
Q 37.203125 6.109375 41.296875 11.75 
Q 45.40625 17.390625 45.40625 27.296875 
Q 45.40625 37.203125 41.296875 42.84375 
Q 37.203125 48.484375 30.078125 48.484375 
Q 22.953125 48.484375 18.875 42.84375 
Q 14.796875 37.203125 14.796875 27.296875 
z
M 45.40625 8.203125 
Q 42.578125 3.328125 38.25 0.953125 
Q 33.9375 -1.421875 27.875 -1.421875 
Q 17.96875 -1.421875 11.734375 6.484375 
Q 5.515625 14.40625 5.515625 27.296875 
Q 5.515625 40.1875 11.734375 48.09375 
Q 17.96875 56 27.875 56 
Q 33.9375 56 38.25 53.625 
Q 42.578125 51.265625 45.40625 46.390625 
L 45.40625 54.6875 
L 54.390625 54.6875 
L 54.390625 -20.796875 
L 45.40625 -20.796875 
z
" id="DejaVuSans-71"/>
      <path d="M 8.5 21.578125 
L 8.5 54.6875 
L 17.484375 54.6875 
L 17.484375 21.921875 
Q 17.484375 14.15625 20.5 10.265625 
Q 23.53125 6.390625 29.59375 6.390625 
Q 36.859375 6.390625 41.078125 11.03125 
Q 45.3125 15.671875 45.3125 23.6875 
L 45.3125 54.6875 
L 54.296875 54.6875 
L 54.296875 0 
L 45.3125 0 
L 45.3125 8.40625 
Q 42.046875 3.421875 37.71875 1 
Q 33.40625 -1.421875 27.6875 -1.421875 
Q 18.265625 -1.421875 13.375 4.4375 
Q 8.5 10.296875 8.5 21.578125 
z
M 31.109375 56 
z
" id="DejaVuSans-75"/>
      <path d="M 54.890625 33.015625 
L 54.890625 0 
L 45.90625 0 
L 45.90625 32.71875 
Q 45.90625 40.484375 42.875 44.328125 
Q 39.84375 48.1875 33.796875 48.1875 
Q 26.515625 48.1875 22.3125 43.546875 
Q 18.109375 38.921875 18.109375 30.90625 
L 18.109375 0 
L 9.078125 0 
L 9.078125 54.6875 
L 18.109375 54.6875 
L 18.109375 46.1875 
Q 21.34375 51.125 25.703125 53.5625 
Q 30.078125 56 35.796875 56 
Q 45.21875 56 50.046875 50.171875 
Q 54.890625 44.34375 54.890625 33.015625 
z
" id="DejaVuSans-6e"/>
      <path d="M 5.515625 54.6875 
L 48.1875 54.6875 
L 48.1875 46.484375 
L 14.40625 7.171875 
L 48.1875 7.171875 
L 48.1875 0 
L 4.296875 0 
L 4.296875 8.203125 
L 38.09375 47.515625 
L 5.515625 47.515625 
z
" id="DejaVuSans-7a"/>
      <path id="DejaVuSans-20"/>
      <path d="M 8.59375 75.984375 
L 29.296875 75.984375 
L 29.296875 69 
L 17.578125 69 
L 17.578125 -6.203125 
L 29.296875 -6.203125 
L 29.296875 -13.1875 
L 8.59375 -13.1875 
z
" id="DejaVuSans-5b"/>
      <path d="M 9.078125 75.984375 
L 18.109375 75.984375 
L 18.109375 31.109375 
L 44.921875 54.6875 
L 56.390625 54.6875 
L 27.390625 29.109375 
L 57.625 0 
L 45.90625 0 
L 18.109375 26.703125 
L 18.109375 0 
L 9.078125 0 
z
" id="DejaVuSans-6b"/>
      <path d="M 9.8125 72.90625 
L 19.671875 72.90625 
L 19.671875 43.015625 
L 55.515625 43.015625 
L 55.515625 72.90625 
L 65.375 72.90625 
L 65.375 0 
L 55.515625 0 
L 55.515625 34.71875 
L 19.671875 34.71875 
L 19.671875 0 
L 9.8125 0 
z
" id="DejaVuSans-48"/>
      <path d="M 30.421875 75.984375 
L 30.421875 -13.1875 
L 9.71875 -13.1875 
L 9.71875 -6.203125 
L 21.390625 -6.203125 
L 21.390625 69 
L 9.71875 69 
L 9.71875 75.984375 
z
" id="DejaVuSans-5d"/>
     </defs>
     <g transform="translate(178.077344 249.416562)scale(0.1 -0.1)">
      <use xlink:href="#DejaVuSans-46"/>
      <use x="57.410156" xlink:href="#DejaVuSans-72"/>
      <use x="98.492188" xlink:href="#DejaVuSans-65"/>
      <use x="160.015625" xlink:href="#DejaVuSans-71"/>
      <use x="223.492188" xlink:href="#DejaVuSans-75"/>
      <use x="286.871094" xlink:href="#DejaVuSans-65"/>
      <use x="348.394531" xlink:href="#DejaVuSans-6e"/>
      <use x="411.773438" xlink:href="#DejaVuSans-7a"/>
      <use x="464.263672" xlink:href="#DejaVuSans-20"/>
      <use x="496.050781" xlink:href="#DejaVuSans-5b"/>
      <use x="535.064453" xlink:href="#DejaVuSans-6b"/>
      <use x="592.974609" xlink:href="#DejaVuSans-48"/>
      <use x="668.169922" xlink:href="#DejaVuSans-7a"/>
      <use x="720.660156" xlink:href="#DejaVuSans-5d"/>
     </g>
    </g>
   </g>
   <g id="matplotlib.axis_2">
    <g id="ytick_1">
     <g id="line2d_19">
      <defs>
       <path d="M 0 0 
L 3.5 0 
" id="mfc872d76a7" style="stroke:#000000;stroke-width:0.8;"/>
      </defs>
      <g>
       <use style="stroke:#000000;stroke-width:0.8;" x="48.660938" xlink:href="#mfc872d76a7" y="224.64"/>
      </g>
     </g>
     <g id="line2d_20">
      <defs>
       <path d="M 0 0 
L -3.5 0 
" id="meb1192f19a" style="stroke:#000000;stroke-width:0.8;"/>
      </defs>
      <g>
       <use style="stroke:#000000;stroke-width:0.8;" x="383.460938" xlink:href="#meb1192f19a" y="224.64"/>
      </g>
     </g>
     <g id="text_11">
      <!-- −0.2 -->
      <defs>
       <path d="M 10.6875 12.40625 
L 21 12.40625 
L 21 0 
L 10.6875 0 
z
" id="DejaVuSans-2e"/>
      </defs>
      <g transform="translate(20.878125 228.439219)scale(0.1 -0.1)">
       <use xlink:href="#DejaVuSans-2212"/>
       <use x="83.789062" xlink:href="#DejaVuSans-30"/>
       <use x="147.412109" xlink:href="#DejaVuSans-2e"/>
       <use x="179.199219" xlink:href="#DejaVuSans-32"/>
      </g>
     </g>
    </g>
    <g id="ytick_2">
     <g id="line2d_21">
      <g>
       <use style="stroke:#000000;stroke-width:0.8;" x="48.660938" xlink:href="#mfc872d76a7" y="191.187692"/>
      </g>
     </g>
     <g id="line2d_22">
      <g>
       <use style="stroke:#000000;stroke-width:0.8;" x="383.460938" xlink:href="#meb1192f19a" y="191.187692"/>
      </g>
     </g>
     <g id="text_12">
      <!-- 0.0 -->
      <g transform="translate(29.257813 194.986911)scale(0.1 -0.1)">
       <use xlink:href="#DejaVuSans-30"/>
       <use x="63.623047" xlink:href="#DejaVuSans-2e"/>
       <use x="95.410156" xlink:href="#DejaVuSans-30"/>
      </g>
     </g>
    </g>
    <g id="ytick_3">
     <g id="line2d_23">
      <g>
       <use style="stroke:#000000;stroke-width:0.8;" x="48.660938" xlink:href="#mfc872d76a7" y="157.735385"/>
      </g>
     </g>
     <g id="line2d_24">
      <g>
       <use style="stroke:#000000;stroke-width:0.8;" x="383.460938" xlink:href="#meb1192f19a" y="157.735385"/>
      </g>
     </g>
     <g id="text_13">
      <!-- 0.2 -->
      <g transform="translate(29.257813 161.534603)scale(0.1 -0.1)">
       <use xlink:href="#DejaVuSans-30"/>
       <use x="63.623047" xlink:href="#DejaVuSans-2e"/>
       <use x="95.410156" xlink:href="#DejaVuSans-32"/>
      </g>
     </g>
    </g>
    <g id="ytick_4">
     <g id="line2d_25">
      <g>
       <use style="stroke:#000000;stroke-width:0.8;" x="48.660938" xlink:href="#mfc872d76a7" y="124.283077"/>
      </g>
     </g>
     <g id="line2d_26">
      <g>
       <use style="stroke:#000000;stroke-width:0.8;" x="383.460938" xlink:href="#meb1192f19a" y="124.283077"/>
      </g>
     </g>
     <g id="text_14">
      <!-- 0.4 -->
      <defs>
       <path d="M 37.796875 64.3125 
L 12.890625 25.390625 
L 37.796875 25.390625 
z
M 35.203125 72.90625 
L 47.609375 72.90625 
L 47.609375 25.390625 
L 58.015625 25.390625 
L 58.015625 17.1875 
L 47.609375 17.1875 
L 47.609375 0 
L 37.796875 0 
L 37.796875 17.1875 
L 4.890625 17.1875 
L 4.890625 26.703125 
z
" id="DejaVuSans-34"/>
      </defs>
      <g transform="translate(29.257813 128.082296)scale(0.1 -0.1)">
       <use xlink:href="#DejaVuSans-30"/>
       <use x="63.623047" xlink:href="#DejaVuSans-2e"/>
       <use x="95.410156" xlink:href="#DejaVuSans-34"/>
      </g>
     </g>
    </g>
    <g id="ytick_5">
     <g id="line2d_27">
      <g>
       <use style="stroke:#000000;stroke-width:0.8;" x="48.660938" xlink:href="#mfc872d76a7" y="90.830769"/>
      </g>
     </g>
     <g id="line2d_28">
      <g>
       <use style="stroke:#000000;stroke-width:0.8;" x="383.460938" xlink:href="#meb1192f19a" y="90.830769"/>
      </g>
     </g>
     <g id="text_15">
      <!-- 0.6 -->
      <defs>
       <path d="M 33.015625 40.375 
Q 26.375 40.375 22.484375 35.828125 
Q 18.609375 31.296875 18.609375 23.390625 
Q 18.609375 15.53125 22.484375 10.953125 
Q 26.375 6.390625 33.015625 6.390625 
Q 39.65625 6.390625 43.53125 10.953125 
Q 47.40625 15.53125 47.40625 23.390625 
Q 47.40625 31.296875 43.53125 35.828125 
Q 39.65625 40.375 33.015625 40.375 
z
M 52.59375 71.296875 
L 52.59375 62.3125 
Q 48.875 64.0625 45.09375 64.984375 
Q 41.3125 65.921875 37.59375 65.921875 
Q 27.828125 65.921875 22.671875 59.328125 
Q 17.53125 52.734375 16.796875 39.40625 
Q 19.671875 43.65625 24.015625 45.921875 
Q 28.375 48.1875 33.59375 48.1875 
Q 44.578125 48.1875 50.953125 41.515625 
Q 57.328125 34.859375 57.328125 23.390625 
Q 57.328125 12.15625 50.6875 5.359375 
Q 44.046875 -1.421875 33.015625 -1.421875 
Q 20.359375 -1.421875 13.671875 8.265625 
Q 6.984375 17.96875 6.984375 36.375 
Q 6.984375 53.65625 15.1875 63.9375 
Q 23.390625 74.21875 37.203125 74.21875 
Q 40.921875 74.21875 44.703125 73.484375 
Q 48.484375 72.75 52.59375 71.296875 
z
" id="DejaVuSans-36"/>
      </defs>
      <g transform="translate(29.257813 94.629988)scale(0.1 -0.1)">
       <use xlink:href="#DejaVuSans-30"/>
       <use x="63.623047" xlink:href="#DejaVuSans-2e"/>
       <use x="95.410156" xlink:href="#DejaVuSans-36"/>
      </g>
     </g>
    </g>
    <g id="ytick_6">
     <g id="line2d_29">
      <g>
       <use style="stroke:#000000;stroke-width:0.8;" x="48.660938" xlink:href="#mfc872d76a7" y="57.378462"/>
      </g>
     </g>
     <g id="line2d_30">
      <g>
       <use style="stroke:#000000;stroke-width:0.8;" x="383.460938" xlink:href="#meb1192f19a" y="57.378462"/>
      </g>
     </g>
     <g id="text_16">
      <!-- 0.8 -->
      <defs>
       <path d="M 31.78125 34.625 
Q 24.75 34.625 20.71875 30.859375 
Q 16.703125 27.09375 16.703125 20.515625 
Q 16.703125 13.921875 20.71875 10.15625 
Q 24.75 6.390625 31.78125 6.390625 
Q 38.8125 6.390625 42.859375 10.171875 
Q 46.921875 13.96875 46.921875 20.515625 
Q 46.921875 27.09375 42.890625 30.859375 
Q 38.875 34.625 31.78125 34.625 
z
M 21.921875 38.8125 
Q 15.578125 40.375 12.03125 44.71875 
Q 8.5 49.078125 8.5 55.328125 
Q 8.5 64.0625 14.71875 69.140625 
Q 20.953125 74.21875 31.78125 74.21875 
Q 42.671875 74.21875 48.875 69.140625 
Q 55.078125 64.0625 55.078125 55.328125 
Q 55.078125 49.078125 51.53125 44.71875 
Q 48 40.375 41.703125 38.8125 
Q 48.828125 37.15625 52.796875 32.3125 
Q 56.78125 27.484375 56.78125 20.515625 
Q 56.78125 9.90625 50.3125 4.234375 
Q 43.84375 -1.421875 31.78125 -1.421875 
Q 19.734375 -1.421875 13.25 4.234375 
Q 6.78125 9.90625 6.78125 20.515625 
Q 6.78125 27.484375 10.78125 32.3125 
Q 14.796875 37.15625 21.921875 38.8125 
z
M 18.3125 54.390625 
Q 18.3125 48.734375 21.84375 45.5625 
Q 25.390625 42.390625 31.78125 42.390625 
Q 38.140625 42.390625 41.71875 45.5625 
Q 45.3125 48.734375 45.3125 54.390625 
Q 45.3125 60.0625 41.71875 63.234375 
Q 38.140625 66.40625 31.78125 66.40625 
Q 25.390625 66.40625 21.84375 63.234375 
Q 18.3125 60.0625 18.3125 54.390625 
z
" id="DejaVuSans-38"/>
      </defs>
      <g transform="translate(29.257813 61.17768)scale(0.1 -0.1)">
       <use xlink:href="#DejaVuSans-30"/>
       <use x="63.623047" xlink:href="#DejaVuSans-2e"/>
       <use x="95.410156" xlink:href="#DejaVuSans-38"/>
      </g>
     </g>
    </g>
    <g id="ytick_7">
     <g id="line2d_31">
      <g>
       <use style="stroke:#000000;stroke-width:0.8;" x="48.660938" xlink:href="#mfc872d76a7" y="23.926154"/>
      </g>
     </g>
     <g id="line2d_32">
      <g>
       <use style="stroke:#000000;stroke-width:0.8;" x="383.460938" xlink:href="#meb1192f19a" y="23.926154"/>
      </g>
     </g>
     <g id="text_17">
      <!-- 1.0 -->
      <g transform="translate(29.257813 27.725373)scale(0.1 -0.1)">
       <use xlink:href="#DejaVuSans-31"/>
       <use x="63.623047" xlink:href="#DejaVuSans-2e"/>
       <use x="95.410156" xlink:href="#DejaVuSans-30"/>
      </g>
     </g>
    </g>
    <g id="text_18">
     <!-- Amplitude [normiert] -->
     <defs>
      <path d="M 34.1875 63.1875 
L 20.796875 26.90625 
L 47.609375 26.90625 
z
M 28.609375 72.90625 
L 39.796875 72.90625 
L 67.578125 0 
L 57.328125 0 
L 50.6875 18.703125 
L 17.828125 18.703125 
L 11.1875 0 
L 0.78125 0 
z
" id="DejaVuSans-41"/>
      <path d="M 52 44.1875 
Q 55.375 50.25 60.0625 53.125 
Q 64.75 56 71.09375 56 
Q 79.640625 56 84.28125 50.015625 
Q 88.921875 44.046875 88.921875 33.015625 
L 88.921875 0 
L 79.890625 0 
L 79.890625 32.71875 
Q 79.890625 40.578125 77.09375 44.375 
Q 74.3125 48.1875 68.609375 48.1875 
Q 61.625 48.1875 57.5625 43.546875 
Q 53.515625 38.921875 53.515625 30.90625 
L 53.515625 0 
L 44.484375 0 
L 44.484375 32.71875 
Q 44.484375 40.625 41.703125 44.40625 
Q 38.921875 48.1875 33.109375 48.1875 
Q 26.21875 48.1875 22.15625 43.53125 
Q 18.109375 38.875 18.109375 30.90625 
L 18.109375 0 
L 9.078125 0 
L 9.078125 54.6875 
L 18.109375 54.6875 
L 18.109375 46.1875 
Q 21.1875 51.21875 25.484375 53.609375 
Q 29.78125 56 35.6875 56 
Q 41.65625 56 45.828125 52.96875 
Q 50 49.953125 52 44.1875 
z
" id="DejaVuSans-6d"/>
      <path d="M 18.109375 8.203125 
L 18.109375 -20.796875 
L 9.078125 -20.796875 
L 9.078125 54.6875 
L 18.109375 54.6875 
L 18.109375 46.390625 
Q 20.953125 51.265625 25.265625 53.625 
Q 29.59375 56 35.59375 56 
Q 45.5625 56 51.78125 48.09375 
Q 58.015625 40.1875 58.015625 27.296875 
Q 58.015625 14.40625 51.78125 6.484375 
Q 45.5625 -1.421875 35.59375 -1.421875 
Q 29.59375 -1.421875 25.265625 0.953125 
Q 20.953125 3.328125 18.109375 8.203125 
z
M 48.6875 27.296875 
Q 48.6875 37.203125 44.609375 42.84375 
Q 40.53125 48.484375 33.40625 48.484375 
Q 26.265625 48.484375 22.1875 42.84375 
Q 18.109375 37.203125 18.109375 27.296875 
Q 18.109375 17.390625 22.1875 11.75 
Q 26.265625 6.109375 33.40625 6.109375 
Q 40.53125 6.109375 44.609375 11.75 
Q 48.6875 17.390625 48.6875 27.296875 
z
" id="DejaVuSans-70"/>
      <path d="M 9.421875 75.984375 
L 18.40625 75.984375 
L 18.40625 0 
L 9.421875 0 
z
" id="DejaVuSans-6c"/>
      <path d="M 9.421875 54.6875 
L 18.40625 54.6875 
L 18.40625 0 
L 9.421875 0 
z
M 9.421875 75.984375 
L 18.40625 75.984375 
L 18.40625 64.59375 
L 9.421875 64.59375 
z
" id="DejaVuSans-69"/>
      <path d="M 18.3125 70.21875 
L 18.3125 54.6875 
L 36.8125 54.6875 
L 36.8125 47.703125 
L 18.3125 47.703125 
L 18.3125 18.015625 
Q 18.3125 11.328125 20.140625 9.421875 
Q 21.96875 7.515625 27.59375 7.515625 
L 36.8125 7.515625 
L 36.8125 0 
L 27.59375 0 
Q 17.1875 0 13.234375 3.875 
Q 9.28125 7.765625 9.28125 18.015625 
L 9.28125 47.703125 
L 2.6875 47.703125 
L 2.6875 54.6875 
L 9.28125 54.6875 
L 9.28125 70.21875 
z
" id="DejaVuSans-74"/>
      <path d="M 45.40625 46.390625 
L 45.40625 75.984375 
L 54.390625 75.984375 
L 54.390625 0 
L 45.40625 0 
L 45.40625 8.203125 
Q 42.578125 3.328125 38.25 0.953125 
Q 33.9375 -1.421875 27.875 -1.421875 
Q 17.96875 -1.421875 11.734375 6.484375 
Q 5.515625 14.40625 5.515625 27.296875 
Q 5.515625 40.1875 11.734375 48.09375 
Q 17.96875 56 27.875 56 
Q 33.9375 56 38.25 53.625 
Q 42.578125 51.265625 45.40625 46.390625 
z
M 14.796875 27.296875 
Q 14.796875 17.390625 18.875 11.75 
Q 22.953125 6.109375 30.078125 6.109375 
Q 37.203125 6.109375 41.296875 11.75 
Q 45.40625 17.390625 45.40625 27.296875 
Q 45.40625 37.203125 41.296875 42.84375 
Q 37.203125 48.484375 30.078125 48.484375 
Q 22.953125 48.484375 18.875 42.84375 
Q 14.796875 37.203125 14.796875 27.296875 
z
" id="DejaVuSans-64"/>
      <path d="M 30.609375 48.390625 
Q 23.390625 48.390625 19.1875 42.75 
Q 14.984375 37.109375 14.984375 27.296875 
Q 14.984375 17.484375 19.15625 11.84375 
Q 23.34375 6.203125 30.609375 6.203125 
Q 37.796875 6.203125 41.984375 11.859375 
Q 46.1875 17.53125 46.1875 27.296875 
Q 46.1875 37.015625 41.984375 42.703125 
Q 37.796875 48.390625 30.609375 48.390625 
z
M 30.609375 56 
Q 42.328125 56 49.015625 48.375 
Q 55.71875 40.765625 55.71875 27.296875 
Q 55.71875 13.875 49.015625 6.21875 
Q 42.328125 -1.421875 30.609375 -1.421875 
Q 18.84375 -1.421875 12.171875 6.21875 
Q 5.515625 13.875 5.515625 27.296875 
Q 5.515625 40.765625 12.171875 48.375 
Q 18.84375 56 30.609375 56 
z
" id="DejaVuSans-6f"/>
     </defs>
     <g transform="translate(14.798438 168.667656)rotate(-90)scale(0.1 -0.1)">
      <use xlink:href="#DejaVuSans-41"/>
      <use x="68.408203" xlink:href="#DejaVuSans-6d"/>
      <use x="165.820312" xlink:href="#DejaVuSans-70"/>
      <use x="229.296875" xlink:href="#DejaVuSans-6c"/>
      <use x="257.080078" xlink:href="#DejaVuSans-69"/>
      <use x="284.863281" xlink:href="#DejaVuSans-74"/>
      <use x="324.072266" xlink:href="#DejaVuSans-75"/>
      <use x="387.451172" xlink:href="#DejaVuSans-64"/>
      <use x="450.927734" xlink:href="#DejaVuSans-65"/>
      <use x="512.451172" xlink:href="#DejaVuSans-20"/>
      <use x="544.238281" xlink:href="#DejaVuSans-5b"/>
      <use x="583.251953" xlink:href="#DejaVuSans-6e"/>
      <use x="646.630859" xlink:href="#DejaVuSans-6f"/>
      <use x="707.8125" xlink:href="#DejaVuSans-72"/>
      <use x="748.910156" xlink:href="#DejaVuSans-6d"/>
      <use x="846.322266" xlink:href="#DejaVuSans-69"/>
      <use x="874.105469" xlink:href="#DejaVuSans-65"/>
      <use x="935.628906" xlink:href="#DejaVuSans-72"/>
      <use x="976.742188" xlink:href="#DejaVuSans-74"/>
      <use x="1015.951172" xlink:href="#DejaVuSans-5d"/>
     </g>
    </g>
   </g>
   <g id="line2d_33">
    <path clip-path="url(#p6f1221e3bb)" d="M 48.497461 189.623982 
L 50.132227 189.577868 
L 52.993066 189.299386 
L 60.349512 188.479291 
L 62.80166 188.060121 
L 64.436426 187.706402 
L 65.6625 187.439755 
L 68.114648 187.307787 
L 70.158105 186.606224 
L 70.975488 186.323387 
L 71.792871 186.292848 
L 73.427637 186.569861 
L 74.24502 186.273287 
L 75.062402 185.887503 
L 77.923242 185.159792 
L 80.784082 184.637219 
L 82.010156 184.270913 
L 86.505762 183.723924 
L 88.140527 183.113316 
L 91.81875 182.533626 
L 94.270898 182.700649 
L 95.088281 182.233993 
L 97.949121 179.892626 
L 100.40127 178.742003 
L 102.444727 177.975561 
L 103.670801 177.381636 
L 104.896875 176.606087 
L 106.122949 176.106302 
L 107.349023 175.120481 
L 108.575098 174.265946 
L 109.39248 173.898707 
L 111.844629 173.103148 
L 112.662012 172.614043 
L 113.888086 171.483085 
L 114.705469 170.804991 
L 117.566309 169.218684 
L 120.427148 166.970352 
L 121.653223 166.180241 
L 122.470605 165.598376 
L 124.514063 163.885607 
L 125.740137 162.96552 
L 130.235742 159.094841 
L 131.461816 157.91174 
L 133.096582 156.598798 
L 134.731348 154.797195 
L 137.183496 152.217114 
L 140.044336 149.546072 
L 141.27041 148.632388 
L 142.087793 147.763575 
L 145.357324 143.603157 
L 146.583398 142.288269 
L 150.670313 137.126442 
L 151.487695 136.287004 
L 152.305078 135.036461 
L 153.531152 133.179467 
L 155.165918 131.07005 
L 156.391992 129.527957 
L 157.209375 128.506678 
L 162.113672 121.091743 
L 164.157129 117.639499 
L 167.835352 111.842899 
L 173.965723 101.450027 
L 178.052637 93.657235 
L 179.278711 91.291815 
L 180.504785 89.070879 
L 182.956934 83.707999 
L 185.000391 79.66114 
L 186.226465 77.028744 
L 188.269922 73.006038 
L 189.904688 69.03607 
L 191.130762 66.114112 
L 192.765527 62.544017 
L 193.991602 59.717824 
L 196.035059 55.425861 
L 197.261133 52.608145 
L 198.895898 49.412442 
L 200.939355 44.278873 
L 202.16543 41.296347 
L 204.617578 34.888517 
L 206.661035 30.612007 
L 208.295801 27.492002 
L 209.113184 26.442334 
L 211.565332 24.199388 
L 211.974023 23.969643 
L 212.382715 23.926154 
L 212.791406 24.068887 
L 214.834863 25.364215 
L 215.243555 25.965995 
L 215.652246 27.385618 
L 216.060938 29.797078 
L 217.287012 38.855602 
L 218.104395 42.490893 
L 220.147852 48.734941 
L 226.686914 72.17405 
L 231.18252 86.232374 
L 236.495508 100.80076 
L 243.443262 116.918495 
L 245.486719 121.023385 
L 247.530176 125.388818 
L 249.573633 129.695364 
L 251.208398 132.526699 
L 253.251855 136.357843 
L 255.704004 140.188109 
L 257.33877 142.536426 
L 259.790918 146.396301 
L 262.243066 149.540084 
L 263.469141 151.051028 
L 265.103906 153.282915 
L 267.147363 155.430679 
L 269.19082 158.106301 
L 271.234277 160.161385 
L 272.869043 161.772358 
L 274.095117 163.135597 
L 274.9125 164.075553 
L 276.138574 165.086195 
L 277.364648 165.910149 
L 278.590723 166.694421 
L 280.225488 168.251434 
L 281.860254 170.117915 
L 282.677637 170.556127 
L 283.903711 170.936114 
L 284.721094 171.510989 
L 285.947168 172.410899 
L 287.173242 173.155785 
L 288.399316 174.146264 
L 291.260156 175.789497 
L 292.48623 176.308839 
L 294.938379 177.206579 
L 297.390527 178.594377 
L 298.616602 179.367764 
L 299.433984 179.463626 
L 300.251367 179.413216 
L 301.06875 179.617891 
L 301.886133 180.071997 
L 303.112207 180.851891 
L 303.92959 181.074357 
L 305.973047 181.240423 
L 306.79043 181.669315 
L 308.833887 183.03733 
L 309.65127 183.139558 
L 310.877344 183.241136 
L 312.512109 183.66848 
L 314.146875 184.2387 
L 316.599023 184.800181 
L 317.416406 184.76062 
L 318.233789 184.995064 
L 319.459863 185.60887 
L 320.685938 185.852284 
L 321.50332 185.914323 
L 323.138086 185.873982 
L 325.590234 186.400412 
L 326.816309 186.807523 
L 328.042383 187.001651 
L 329.268457 187.1612 
L 330.903223 187.830851 
L 331.720605 187.793156 
L 334.990137 187.398913 
L 335.80752 187.501038 
L 337.442285 188.168992 
L 340.303125 189.337555 
L 341.120508 189.500672 
L 342.346582 189.376228 
L 343.572656 189.316107 
L 346.433496 189.589384 
L 348.885645 189.931874 
L 350.929102 189.635761 
L 353.789941 190.07997 
L 355.424707 189.89888 
L 358.694238 190.234883 
L 362.372461 190.137243 
L 363.598535 190.385554 
L 364.415918 190.131759 
L 365.233301 189.885552 
L 366.459375 189.979571 
L 368.911523 190.389052 
L 371.363672 190.334257 
L 373.81582 190.192824 
L 375.450586 190.762539 
L 376.267969 190.618683 
L 377.494043 190.289299 
L 378.720117 190.35349 
L 379.946191 190.317339 
L 381.172266 190.189198 
L 381.989648 190.273501 
L 383.624414 190.661016 
L 383.624414 190.661016 
" style="fill:none;stroke:#1f77b4;stroke-linecap:square;stroke-width:1.5;"/>
   </g>
   <g id="line2d_34">
    <path clip-path="url(#p6f1221e3bb)" d="M 48.497461 191.004171 
L 49.314844 190.592724 
L 50.132227 190.60215 
L 50.949609 190.665713 
L 52.175684 190.298902 
L 55.036523 189.312304 
L 56.671289 188.559965 
L 57.07998 188.591952 
L 57.897363 188.997733 
L 58.714746 189.312618 
L 59.532129 189.168528 
L 60.349512 188.933429 
L 60.758203 188.957311 
L 62.80166 189.628425 
L 63.619043 189.570202 
L 65.6625 188.704595 
L 66.479883 188.56734 
L 66.888574 188.62991 
L 67.705957 189.159694 
L 68.114648 189.453006 
L 68.52334 189.603342 
L 68.932031 189.544244 
L 69.749414 188.925425 
L 70.566797 188.260675 
L 71.38418 187.921313 
L 73.018945 187.455025 
L 74.24502 187.546427 
L 75.471094 186.967882 
L 76.288477 187.080449 
L 77.105859 187.16702 
L 77.923242 187.079026 
L 78.740625 186.772334 
L 79.966699 186.099092 
L 81.192773 185.805053 
L 82.418848 185.487459 
L 83.23623 185.295771 
L 84.462305 185.501428 
L 86.505762 185.784718 
L 87.731836 185.637174 
L 88.95791 185.201703 
L 90.183984 184.434563 
L 91.001367 183.887582 
L 91.81875 183.657665 
L 93.044824 183.686727 
L 93.862207 183.427498 
L 94.67959 182.883418 
L 95.905664 181.796677 
L 96.314355 181.744184 
L 96.723047 181.912868 
L 97.949121 182.750024 
L 98.357813 182.780409 
L 98.766504 182.624574 
L 99.175195 182.293529 
L 100.809961 180.350141 
L 101.627344 180.156078 
L 102.853418 179.912052 
L 104.896875 179.281919 
L 105.714258 179.315635 
L 106.122949 179.178973 
L 108.166406 177.733404 
L 109.39248 177.278357 
L 110.209863 177.320249 
L 110.618555 177.358356 
L 111.027246 177.270611 
L 111.844629 176.721442 
L 113.479395 175.532949 
L 113.888086 175.442731 
L 114.296777 175.673191 
L 115.11416 176.427346 
L 115.522852 176.280075 
L 116.748926 174.426732 
L 117.566309 174.019841 
L 117.975 173.830761 
L 119.609766 172.581355 
L 120.83584 172.177033 
L 121.653223 171.561101 
L 123.287988 169.725654 
L 123.69668 169.536628 
L 124.105371 169.522154 
L 125.740137 170.068015 
L 126.148828 169.92142 
L 126.55752 169.579595 
L 127.374902 168.390282 
L 128.600977 166.113945 
L 129.009668 165.680087 
L 129.418359 165.531352 
L 130.235742 165.472841 
L 130.644434 165.227205 
L 131.461816 164.26874 
L 132.279199 163.300434 
L 135.140039 160.899945 
L 137.183496 159.476543 
L 138.000879 158.748734 
L 139.635645 157.061313 
L 140.453027 156.491256 
L 141.27041 155.523179 
L 142.905176 153.485927 
L 143.722559 152.598882 
L 145.357324 151.619065 
L 146.99209 149.994095 
L 147.809473 149.015141 
L 149.035547 146.875392 
L 149.85293 145.54826 
L 150.670313 144.676222 
L 151.896387 143.752164 
L 153.939844 141.389695 
L 156.391992 138.281334 
L 157.209375 137.145946 
L 158.844141 134.379135 
L 159.661523 133.651986 
L 160.478906 133.072614 
L 161.296289 132.10993 
L 162.113672 130.67989 
L 163.748438 127.49412 
L 165.791895 124.338713 
L 170.2875 117.420735 
L 171.513574 115.052519 
L 172.739648 112.374913 
L 173.557031 111.17447 
L 174.783105 109.924937 
L 175.600488 108.593944 
L 177.643945 104.234128 
L 178.87002 102.015638 
L 179.687402 99.87257 
L 180.504785 97.642128 
L 181.322168 95.979571 
L 183.774316 91.839303 
L 189.495996 77.836576 
L 190.313379 76.301336 
L 191.130762 75.015634 
L 191.948145 73.302025 
L 194.400293 67.030117 
L 196.035059 62.414803 
L 197.669824 59.089899 
L 198.487207 56.139601 
L 199.30459 53.053402 
L 201.756738 45.773393 
L 202.574121 44.071208 
L 204.617578 38.484992 
L 205.434961 35.924638 
L 206.661035 31.93263 
L 208.295801 27.834391 
L 209.113184 26.114295 
L 209.930566 24.838927 
L 210.747949 24.07876 
L 211.156641 23.926154 
L 211.565332 23.960896 
L 211.974023 24.174805 
L 213.200098 25.202575 
L 213.608789 25.289247 
L 214.426172 25.04433 
L 214.834863 25.33318 
L 215.243555 26.536357 
L 215.652246 28.935015 
L 216.87832 38.84436 
L 217.287012 41.01367 
L 218.104395 43.648989 
L 219.330469 47.043801 
L 220.556543 51.607861 
L 222.191309 57.695626 
L 224.234766 65.362822 
L 225.869531 71.519944 
L 228.730371 80.302292 
L 229.547754 82.578301 
L 230.773828 86.877321 
L 232.817285 94.377584 
L 234.043359 97.440287 
L 235.269434 100.416212 
L 239.765039 112.400051 
L 243.851953 121.687978 
L 245.078027 124.502193 
L 247.121484 128.138187 
L 248.347559 130.591569 
L 249.573633 132.994149 
L 250.799707 135.649579 
L 252.434473 138.44379 
L 254.069238 141.720944 
L 256.112695 144.976801 
L 257.747461 147.27314 
L 258.564844 148.440453 
L 259.382227 149.255952 
L 260.608301 150.213553 
L 261.016992 150.777438 
L 261.834375 152.480698 
L 262.651758 154.287545 
L 263.469141 155.414389 
L 265.921289 157.943933 
L 266.738672 158.954237 
L 268.373438 160.261317 
L 272.05166 164.440362 
L 273.277734 165.691799 
L 274.095117 166.570501 
L 274.503809 166.766234 
L 274.9125 166.739362 
L 275.729883 166.483375 
L 276.138574 166.600505 
L 276.547266 167.024296 
L 277.364648 168.690697 
L 277.77334 169.605239 
L 278.182031 170.22417 
L 278.590723 170.419896 
L 279.408105 170.26816 
L 279.816797 170.479019 
L 281.451563 172.502203 
L 282.677637 172.98053 
L 283.49502 173.848523 
L 284.312402 174.64056 
L 286.355859 175.553216 
L 287.581934 176.224998 
L 289.625391 176.966783 
L 290.851465 177.765671 
L 292.077539 178.048158 
L 293.712305 179.389646 
L 294.529688 179.469186 
L 296.164453 179.213504 
L 296.573145 179.46898 
L 296.981836 179.995225 
L 298.20791 182.039365 
L 298.616602 182.375338 
L 299.025293 182.462016 
L 300.660059 182.220947 
L 301.886133 182.638559 
L 303.112207 183.06821 
L 303.92959 183.047485 
L 305.155664 182.884627 
L 305.564355 183.030366 
L 306.381738 183.766664 
L 307.199121 184.552321 
L 307.607813 184.661861 
L 309.242578 184.38473 
L 310.877344 184.412673 
L 312.920801 185.214659 
L 314.146875 185.393058 
L 314.555566 185.626651 
L 316.190332 186.966531 
L 317.416406 187.335743 
L 317.825098 187.287232 
L 319.459863 186.593058 
L 320.277246 186.821811 
L 321.094629 187.148837 
L 321.50332 187.21193 
L 322.320703 186.973367 
L 322.729395 186.806534 
L 323.138086 186.770543 
L 323.546777 186.928388 
L 324.772852 187.841093 
L 326.816309 188.60389 
L 327.225 188.552491 
L 328.451074 187.848583 
L 328.859766 187.889873 
L 330.08584 188.572972 
L 330.903223 188.635864 
L 332.129297 188.501181 
L 333.355371 188.027988 
L 333.764063 188.004221 
L 334.581445 188.34215 
L 335.398828 188.839711 
L 336.216211 189.002671 
L 338.259668 188.604045 
L 339.077051 188.80498 
L 340.711816 189.537818 
L 341.529199 189.305108 
L 342.346582 189.048964 
L 343.163965 189.054198 
L 344.79873 189.350664 
L 346.024805 189.335338 
L 346.842188 189.561585 
L 347.65957 189.841368 
L 348.068262 189.845322 
L 349.294336 189.441306 
L 349.703027 189.629021 
L 350.929102 190.692692 
L 351.337793 190.681037 
L 352.563867 190.176638 
L 353.38125 190.405012 
L 353.789941 190.541906 
L 354.607324 190.478187 
L 355.424707 190.376016 
L 357.468164 190.580993 
L 358.285547 190.94969 
L 359.10293 191.450168 
L 359.511621 191.561458 
L 360.329004 191.401243 
L 361.96377 190.853179 
L 366.868066 189.780394 
L 367.276758 189.960824 
L 368.911523 191.11929 
L 369.728906 191.147865 
L 370.95498 190.900441 
L 372.589746 191.205929 
L 373.407129 190.923109 
L 375.041895 189.936897 
L 375.859277 190.072082 
L 376.67666 190.155511 
L 377.494043 190.153725 
L 378.720117 190.472378 
L 379.946191 191.096058 
L 380.354883 191.132939 
L 381.580957 190.884081 
L 382.39834 191.211669 
L 383.215723 191.533402 
L 383.624414 191.506991 
L 383.624414 191.506991 
" style="fill:none;stroke:#ff7f0e;stroke-linecap:square;stroke-width:1.5;"/>
   </g>
   <g id="line2d_35">
    <path clip-path="url(#p6f1221e3bb)" d="M 48.497461 192.025755 
L 49.723535 191.574961 
L 50.132227 191.557422 
L 50.540918 191.808668 
L 51.358301 192.608997 
L 51.766992 192.564068 
L 52.584375 191.87661 
L 52.993066 191.727585 
L 53.810449 191.888597 
L 54.627832 192.130988 
L 55.445215 192.126984 
L 55.853906 191.93159 
L 56.262598 191.427269 
L 57.488672 189.082652 
L 58.306055 188.327867 
L 58.714746 188.112731 
L 59.123437 188.188566 
L 60.349512 189.696606 
L 60.758203 189.839689 
L 61.984277 189.671105 
L 62.392969 189.88263 
L 62.80166 190.557418 
L 63.619043 192.622727 
L 64.027734 192.877183 
L 64.436426 192.174533 
L 65.253809 189.603198 
L 65.6625 188.738493 
L 66.071191 188.312796 
L 66.479883 188.173045 
L 66.888574 188.204559 
L 67.705957 188.457336 
L 68.114648 188.231094 
L 68.52334 187.484945 
L 69.340723 185.645676 
L 69.749414 185.448232 
L 70.158105 185.808248 
L 70.975488 187.262531 
L 71.792871 188.716594 
L 73.018945 190.317693 
L 73.427637 190.731545 
L 73.836328 190.819529 
L 75.062402 190.043381 
L 75.471094 190.243236 
L 75.879785 190.719029 
L 77.105859 192.564593 
L 77.514551 192.635092 
L 77.923242 192.281069 
L 78.740625 191.023988 
L 79.149316 190.071799 
L 79.966699 187.479583 
L 80.375391 186.714801 
L 80.784082 186.686728 
L 81.192773 187.026877 
L 81.601465 187.193981 
L 82.010156 186.978731 
L 82.827539 186.178583 
L 83.23623 186.06539 
L 83.644922 186.353768 
L 84.870996 188.422641 
L 85.279688 188.492713 
L 85.688379 188.089698 
L 86.505762 186.934362 
L 86.914453 186.780351 
L 87.323145 187.034591 
L 88.140527 187.865524 
L 88.95791 188.336296 
L 89.366602 188.889324 
L 90.183984 190.450969 
L 90.592676 190.874225 
L 91.001367 190.881839 
L 91.410059 190.505373 
L 92.227441 189.209977 
L 92.636133 188.855995 
L 93.044824 188.95072 
L 93.453516 189.41383 
L 94.270898 191.006454 
L 95.088281 192.718556 
L 95.496973 192.815854 
L 95.905664 192.198687 
L 97.131738 189.358656 
L 97.54043 188.971774 
L 97.949121 189.034571 
L 99.175195 190.143598 
L 99.583887 190.057021 
L 99.992578 189.68676 
L 101.218652 187.92352 
L 101.627344 187.640318 
L 102.036035 187.513971 
L 102.444727 187.261017 
L 102.853418 186.68621 
L 104.488184 183.249296 
L 104.896875 182.720333 
L 105.305566 182.520652 
L 105.714258 182.673576 
L 107.349023 184.240644 
L 107.757715 184.23483 
L 108.575098 183.771579 
L 108.983789 184.066916 
L 109.801172 185.218806 
L 110.209863 184.948476 
L 111.435938 182.424032 
L 111.844629 182.381283 
L 112.662012 182.978196 
L 113.479395 183.529502 
L 113.888086 183.346568 
L 114.296777 182.311873 
L 115.11416 177.540333 
L 115.522852 175.398644 
L 115.931543 174.709022 
L 116.340234 175.368055 
L 116.748926 176.396698 
L 117.157617 176.909789 
L 117.975 176.710407 
L 118.383691 176.981933 
L 119.201074 178.167046 
L 120.018457 178.823848 
L 121.653223 179.929516 
L 122.061914 179.940307 
L 122.470605 179.73395 
L 122.879297 179.267382 
L 123.69668 177.627948 
L 124.514063 175.953902 
L 124.922754 175.686615 
L 125.331445 175.961287 
L 126.148828 177.09296 
L 126.55752 177.320569 
L 128.600977 177.014439 
L 130.235742 176.321702 
L 130.644434 175.939428 
L 131.461816 174.567281 
L 131.870508 173.813248 
L 132.279199 173.302926 
L 132.687891 173.217405 
L 133.096582 173.555043 
L 134.322656 175.171145 
L 134.731348 175.401411 
L 135.140039 175.170001 
L 135.54873 174.187746 
L 136.366113 170.139138 
L 136.774805 168.065283 
L 137.183496 166.68077 
L 137.592188 166.111592 
L 138.818262 165.981374 
L 140.861719 163.371976 
L 141.679102 161.606717 
L 142.087793 161.349198 
L 142.496484 161.771912 
L 142.905176 162.422728 
L 143.313867 162.669129 
L 143.722559 162.267448 
L 144.13125 161.564104 
L 144.539941 161.19305 
L 144.948633 161.592464 
L 145.766016 163.813996 
L 146.174707 164.250906 
L 146.583398 163.661208 
L 147.809473 159.819853 
L 148.218164 159.12271 
L 148.626855 158.873779 
L 149.035547 158.871565 
L 149.444238 158.732264 
L 150.261621 157.717709 
L 150.670313 157.615833 
L 151.079004 158.190748 
L 151.896387 160.123474 
L 152.305078 160.638951 
L 152.71377 160.704814 
L 153.122461 160.413981 
L 153.531152 159.779038 
L 154.348535 157.549897 
L 155.165918 155.195983 
L 155.574609 154.35508 
L 155.983301 153.938062 
L 156.391992 154.064868 
L 156.800684 154.528221 
L 157.209375 154.725199 
L 157.618066 154.055659 
L 158.435449 150.404067 
L 158.844141 148.702128 
L 159.252832 147.85971 
L 159.661523 147.924042 
L 160.070215 148.457565 
L 160.478906 148.796705 
L 160.887598 148.461506 
L 161.296289 147.418553 
L 162.113672 144.836622 
L 162.522363 144.221644 
L 162.931055 144.227921 
L 163.748438 144.977403 
L 164.974512 146.276467 
L 165.383203 146.260483 
L 165.791895 145.692417 
L 167.835352 140.539669 
L 168.652734 137.028092 
L 169.470117 133.812411 
L 169.878809 133.217788 
L 170.2875 133.498318 
L 171.513574 136.090043 
L 171.922266 136.130208 
L 172.330957 135.454154 
L 173.14834 132.709498 
L 174.783105 127.437899 
L 175.191797 126.263486 
L 175.600488 125.636926 
L 176.00918 125.60454 
L 176.417871 125.819866 
L 176.826563 125.86929 
L 177.235254 125.6158 
L 178.052637 124.704287 
L 178.87002 123.485128 
L 180.096094 121.176921 
L 180.913477 118.946304 
L 181.730859 116.669066 
L 182.956934 114.622867 
L 183.774316 112.326164 
L 184.183008 111.520933 
L 185.000391 110.488892 
L 186.635156 107.60746 
L 187.043848 107.200294 
L 187.452539 106.610775 
L 187.86123 105.559629 
L 188.678613 102.214978 
L 190.313379 93.986411 
L 190.72207 93.417689 
L 191.130762 93.350217 
L 191.539453 93.161105 
L 191.948145 92.603266 
L 192.765527 91.036576 
L 193.174219 89.963332 
L 193.991602 86.31825 
L 194.400293 84.440515 
L 194.808984 83.215529 
L 196.035059 81.445778 
L 196.44375 79.951054 
L 196.852441 77.576715 
L 198.078516 68.651016 
L 198.487207 67.575876 
L 198.895898 67.720904 
L 199.713281 68.794719 
L 200.121973 68.80926 
L 200.530664 68.291667 
L 201.348047 66.092006 
L 202.16543 64.087408 
L 202.982813 61.997289 
L 203.800195 58.74898 
L 204.617578 54.944988 
L 205.434961 49.401744 
L 206.252344 42.609892 
L 206.661035 40.106934 
L 207.069727 38.612224 
L 207.478418 37.909649 
L 207.887109 37.490179 
L 208.295801 36.812682 
L 209.113184 34.158795 
L 209.521875 32.861228 
L 209.930566 32.019858 
L 210.339258 31.579817 
L 211.565332 30.685373 
L 212.382715 29.676531 
L 213.200098 28.229153 
L 214.01748 25.731508 
L 214.426172 24.344277 
L 214.834863 23.926154 
L 215.243555 25.91232 
L 215.652246 31.163343 
L 216.469629 46.273526 
L 216.87832 51.37259 
L 217.287012 53.491866 
L 217.695703 53.608773 
L 218.104395 53.148515 
L 218.513086 53.193411 
L 218.921777 54.262318 
L 219.73916 58.934094 
L 220.556543 63.66094 
L 221.373926 66.614145 
L 222.191309 68.485601 
L 223.008691 70.19287 
L 224.643457 74.839499 
L 225.46084 75.135688 
L 225.869531 75.776695 
L 226.278223 77.399803 
L 227.095605 83.332291 
L 227.912988 89.878927 
L 228.32168 92.101256 
L 228.730371 93.370328 
L 229.547754 94.783343 
L 229.956445 95.976451 
L 231.591211 102.882253 
L 231.999902 103.898891 
L 232.408594 104.535526 
L 233.634668 105.953002 
L 235.269434 108.730453 
L 235.678125 109.18316 
L 236.086816 109.344743 
L 236.495508 109.326665 
L 236.904199 109.619822 
L 237.312891 110.730119 
L 238.538965 116.772905 
L 238.947656 117.869981 
L 239.356348 118.297283 
L 239.765039 118.401024 
L 240.17373 118.619626 
L 240.582422 119.36757 
L 240.991113 120.844096 
L 241.808496 124.766998 
L 242.217188 126.061062 
L 242.625879 126.544415 
L 243.03457 126.562338 
L 243.443262 126.748935 
L 243.851953 127.64329 
L 244.260645 129.396196 
L 245.89541 138.156178 
L 246.304102 139.105408 
L 246.712793 139.290352 
L 247.121484 139.117961 
L 247.530176 139.184045 
L 248.347559 140.177232 
L 248.75625 140.028575 
L 249.164941 139.085021 
L 249.573633 137.85265 
L 249.982324 137.107872 
L 250.391016 137.34163 
L 250.799707 138.458398 
L 251.61709 141.107994 
L 252.843164 143.355135 
L 253.660547 146.672269 
L 254.069238 148.223748 
L 254.47793 148.912034 
L 255.295313 148.617133 
L 255.704004 148.949027 
L 256.930078 151.598946 
L 258.156152 152.822756 
L 258.564844 153.760108 
L 260.608301 159.807815 
L 261.016992 160.227157 
L 262.243066 160.414889 
L 263.469141 161.798509 
L 263.877832 161.673809 
L 264.695215 160.69328 
L 265.103906 160.510904 
L 265.512598 160.859693 
L 266.738672 163.423205 
L 267.556055 165.353265 
L 269.599512 170.934873 
L 270.008203 171.059449 
L 270.416895 170.454889 
L 271.234277 168.781356 
L 272.460352 167.312207 
L 272.869043 166.566091 
L 273.277734 166.121387 
L 273.686426 166.47447 
L 274.095117 167.862042 
L 275.321191 174.566843 
L 275.729883 175.796679 
L 276.138574 176.135716 
L 276.547266 175.711475 
L 277.77334 172.921731 
L 278.182031 172.741619 
L 278.999414 173.194803 
L 279.408105 173.133644 
L 280.63418 172.212415 
L 281.042871 172.377935 
L 281.451563 173.103231 
L 282.268945 176.01364 
L 283.086328 179.023085 
L 283.903711 180.953345 
L 284.312402 181.572607 
L 284.721094 181.88539 
L 285.129785 181.786108 
L 285.538477 181.270621 
L 286.764551 179.093147 
L 287.173242 178.770565 
L 287.581934 178.725265 
L 287.990625 178.943365 
L 288.399316 179.407804 
L 289.625391 181.209905 
L 290.034082 181.328638 
L 290.442773 180.924045 
L 290.851465 180.021022 
L 291.668848 177.692924 
L 292.077539 176.91396 
L 292.48623 176.762124 
L 292.894922 177.248224 
L 293.712305 178.666306 
L 294.120996 178.897148 
L 294.938379 178.70464 
L 295.34707 178.969288 
L 295.755762 179.815357 
L 296.981836 183.428276 
L 297.390527 183.935889 
L 297.799219 183.936741 
L 298.20791 183.492423 
L 299.025293 182.085936 
L 299.433984 181.711597 
L 299.842676 181.809787 
L 300.660059 182.95344 
L 301.886133 184.698663 
L 302.703516 186.297247 
L 303.112207 186.465556 
L 303.520898 186.069978 
L 304.338281 185.078386 
L 305.564355 184.457023 
L 307.199121 183.105472 
L 308.425195 182.558775 
L 308.833887 183.048428 
L 309.242578 184.314151 
L 310.059961 187.34696 
L 310.468652 188.009827 
L 311.286035 188.48769 
L 312.103418 189.813526 
L 312.512109 190.037017 
L 312.920801 189.623472 
L 313.738184 188.237735 
L 314.555566 187.523713 
L 314.964258 187.421025 
L 315.372949 187.604454 
L 316.190332 188.61396 
L 316.599023 188.766225 
L 317.007715 188.307955 
L 317.825098 186.388728 
L 318.233789 185.798467 
L 318.64248 185.889191 
L 319.051172 186.625107 
L 319.868555 188.522103 
L 320.277246 188.989143 
L 320.685938 189.052969 
L 321.094629 188.753564 
L 322.320703 186.564426 
L 322.729395 186.441079 
L 324.36416 187.665982 
L 325.590234 189.328301 
L 326.407617 189.40705 
L 326.816309 189.720926 
L 327.225 190.236961 
L 327.633691 190.566721 
L 328.042383 190.490027 
L 328.451074 190.256123 
L 328.859766 190.283922 
L 329.677148 190.921945 
L 330.08584 190.866989 
L 330.903223 190.286093 
L 331.311914 190.211815 
L 332.537988 190.289946 
L 332.94668 190.021482 
L 334.172754 188.206392 
L 334.581445 188.192858 
L 334.990137 188.751007 
L 335.398828 189.511977 
L 335.80752 189.943662 
L 336.216211 189.775378 
L 337.850977 187.290727 
L 338.668359 185.097809 
L 339.077051 184.469207 
L 339.485742 184.841174 
L 340.711816 188.557885 
L 341.120508 188.727739 
L 341.937891 187.974607 
L 342.346582 187.923715 
L 342.755273 188.335793 
L 343.572656 189.728151 
L 344.390039 190.495022 
L 345.207422 191.237587 
L 345.616113 191.369651 
L 346.024805 190.964206 
L 347.250879 188.556946 
L 347.65957 188.54479 
L 348.476953 189.158183 
L 348.885645 188.989017 
L 350.111719 187.086532 
L 350.52041 187.519986 
L 351.337793 189.41903 
L 351.746484 189.610406 
L 352.155176 189.040639 
L 352.972559 187.502486 
L 353.38125 187.430338 
L 353.789941 187.848599 
L 354.607324 189.0941 
L 355.016016 189.526976 
L 355.424707 189.65669 
L 356.24209 189.383305 
L 356.650781 189.51396 
L 357.468164 190.51752 
L 358.285547 191.422168 
L 358.694238 191.661828 
L 359.10293 191.715333 
L 359.511621 191.547725 
L 359.920313 191.125572 
L 360.737695 189.505745 
L 361.146387 188.639962 
L 361.555078 188.111393 
L 361.96377 187.980854 
L 362.372461 188.085132 
L 362.781152 188.315041 
L 363.189844 188.769851 
L 363.598535 189.603336 
L 364.824609 192.797296 
L 365.233301 193.144818 
L 366.459375 193.348831 
L 367.685449 193.074151 
L 368.094141 193.408023 
L 368.911523 194.323557 
L 369.728906 194.684586 
L 370.95498 195.723471 
L 371.363672 195.375336 
L 372.589746 192.995177 
L 373.407129 191.977738 
L 375.041895 189.412529 
L 375.450586 189.495616 
L 376.267969 190.05541 
L 376.67666 189.936819 
L 377.494043 188.924464 
L 378.311426 187.465346 
L 378.720117 186.689343 
L 379.128809 186.230146 
L 379.5375 186.327516 
L 379.946191 186.986382 
L 380.763574 189.281622 
L 381.580957 191.454181 
L 381.989648 192.021494 
L 382.39834 192.106417 
L 382.807031 191.652624 
L 383.215723 190.635671 
L 383.624414 189.224794 
L 383.624414 189.224794 
" style="fill:none;stroke:#2ca02c;stroke-linecap:square;stroke-width:1.5;"/>
   </g>
   <g id="line2d_36">
    <path clip-path="url(#p6f1221e3bb)" d="M 48.497461 186.060611 
L 48.906152 185.361295 
L 50.132227 182.075253 
L 50.540918 183.198922 
L 51.766992 193.314926 
L 52.175684 194.417091 
L 52.584375 193.547607 
L 53.401758 190.246503 
L 53.810449 190.605537 
L 54.219141 192.915601 
L 54.627832 195.892938 
L 55.036523 197.68311 
L 55.445215 197.272875 
L 55.853906 194.986588 
L 57.07998 185.780913 
L 57.488672 184.37935 
L 57.897363 184.783708 
L 58.306055 186.803084 
L 59.123437 191.536312 
L 59.532129 191.972837 
L 60.349512 189.631428 
L 60.758203 189.348442 
L 61.575586 190.828699 
L 61.984277 190.46472 
L 63.210352 186.403825 
L 63.619043 186.156236 
L 64.027734 186.57573 
L 64.436426 187.284272 
L 64.845117 187.443947 
L 65.253809 186.22172 
L 66.071191 181.519926 
L 66.479883 180.878654 
L 66.888574 182.548548 
L 67.297266 186.237659 
L 68.114648 195.589767 
L 68.52334 199.078642 
L 68.932031 200.977144 
L 69.340723 201.103132 
L 69.749414 199.357108 
L 70.566797 191.711208 
L 70.975488 187.833546 
L 71.38418 185.165222 
L 71.792871 183.746142 
L 72.610254 182.395466 
L 73.018945 181.924978 
L 73.427637 182.06716 
L 73.836328 183.243149 
L 74.653711 188.019719 
L 75.062402 190.424566 
L 75.471094 192.07207 
L 75.879785 192.746421 
L 76.288477 192.55081 
L 76.697168 191.713357 
L 77.105859 190.347933 
L 77.514551 188.371897 
L 78.740625 180.529056 
L 79.149316 179.848183 
L 79.558008 181.138053 
L 81.192773 192.224077 
L 81.601465 192.694201 
L 82.010156 192.635314 
L 82.418848 192.811853 
L 82.827539 193.251105 
L 83.23623 193.306469 
L 83.644922 192.405684 
L 84.462305 188.290046 
L 84.870996 186.128155 
L 85.279688 184.694181 
L 85.688379 184.562247 
L 86.09707 185.965919 
L 86.914453 191.085088 
L 87.323145 192.681494 
L 87.731836 192.860783 
L 88.140527 192.209759 
L 88.549219 191.874276 
L 88.95791 192.740907 
L 89.775293 196.773522 
L 90.183984 197.128074 
L 90.592676 194.901668 
L 91.410059 186.462386 
L 91.81875 183.868088 
L 92.227441 183.535932 
L 93.453516 187.318292 
L 93.862207 187.880062 
L 94.67959 188.620398 
L 95.088281 189.437164 
L 95.496973 190.953616 
L 96.314355 195.077616 
L 96.723047 196.338078 
L 97.131738 196.660243 
L 97.54043 196.206447 
L 97.949121 194.96863 
L 98.357813 192.82206 
L 99.175195 187.259126 
L 99.583887 185.293942 
L 99.992578 184.536631 
L 100.40127 185.073592 
L 100.809961 186.720342 
L 101.627344 191.213913 
L 102.036035 192.644348 
L 102.444727 192.8209 
L 102.853418 191.723493 
L 103.670801 187.997349 
L 104.079492 186.867447 
L 104.488184 186.717472 
L 104.896875 187.176316 
L 105.305566 187.415475 
L 105.714258 186.798492 
L 106.531641 184.284247 
L 106.940332 184.148226 
L 107.349023 185.514083 
L 108.166406 190.815805 
L 108.575098 192.400231 
L 108.983789 191.78086 
L 109.39248 188.850864 
L 110.209863 181.277747 
L 110.618555 179.839467 
L 111.027246 180.560644 
L 112.662012 188.088578 
L 113.070703 188.511814 
L 113.479395 188.23948 
L 113.888086 187.631509 
L 114.296777 186.815479 
L 114.705469 185.533146 
L 115.11416 183.824647 
L 115.522852 182.704203 
L 115.931543 183.554549 
L 117.157617 191.853354 
L 117.566309 190.531057 
L 118.383691 184.125643 
L 118.792383 183.206398 
L 119.201074 184.505272 
L 119.609766 186.569743 
L 120.018457 187.722318 
L 120.427148 187.218629 
L 120.83584 185.332766 
L 122.061914 178.114345 
L 122.470605 177.59986 
L 122.879297 178.677007 
L 123.287988 180.477351 
L 123.69668 181.620832 
L 124.105371 181.376727 
L 124.922754 179.330678 
L 125.331445 179.425116 
L 125.740137 180.638255 
L 126.966211 186.793986 
L 127.374902 187.15382 
L 127.783594 185.379324 
L 129.009668 175.028658 
L 129.418359 174.312305 
L 130.235742 175.609746 
L 130.644434 175.813002 
L 131.053125 175.79716 
L 131.461816 176.077518 
L 131.870508 176.661538 
L 132.279199 176.925238 
L 132.687891 176.217806 
L 133.505273 173.017083 
L 133.913965 172.471515 
L 134.322656 173.310014 
L 135.140039 176.414134 
L 135.54873 176.882415 
L 135.957422 176.253957 
L 136.774805 173.753743 
L 137.183496 173.075292 
L 137.592188 173.253864 
L 138.000879 174.003915 
L 138.40957 174.461691 
L 138.818262 173.902226 
L 139.635645 170.998239 
L 140.044336 170.258031 
L 140.453027 170.434827 
L 141.679102 173.045712 
L 142.087793 173.376144 
L 142.496484 173.080137 
L 143.313867 171.289623 
L 143.722559 170.84719 
L 144.13125 171.210495 
L 144.948633 172.811552 
L 145.357324 172.99174 
L 145.766016 172.660741 
L 146.583398 171.496128 
L 146.99209 170.350759 
L 147.400781 168.177329 
L 148.626855 158.638305 
L 149.035547 157.342885 
L 149.85293 157.069449 
L 150.261621 156.228446 
L 150.670313 155.051912 
L 151.079004 154.4761 
L 151.487695 155.016413 
L 152.71377 159.283161 
L 153.122461 159.543534 
L 153.531152 159.169443 
L 154.348535 158.252234 
L 154.757227 158.383894 
L 155.165918 159.447443 
L 155.983301 164.235487 
L 156.391992 166.511117 
L 156.800684 167.562481 
L 157.209375 167.225951 
L 158.026758 165.250945 
L 158.844141 164.214866 
L 159.252832 163.181211 
L 160.070215 160.365377 
L 160.478906 159.655153 
L 160.887598 159.858573 
L 161.296289 160.52473 
L 161.70498 160.619869 
L 162.113672 159.35171 
L 163.339746 151.512625 
L 163.748438 150.379918 
L 164.157129 150.905632 
L 165.383203 156.181868 
L 165.791895 155.429032 
L 166.609277 151.656328 
L 167.017969 151.182579 
L 167.42666 152.037907 
L 167.835352 153.187689 
L 168.244043 153.288989 
L 168.652734 151.698344 
L 169.470117 146.273753 
L 169.878809 144.560758 
L 170.2875 144.012456 
L 170.696191 144.337293 
L 171.513574 145.537585 
L 171.922266 145.344595 
L 172.739648 143.942294 
L 173.14834 144.025991 
L 173.965723 145.57946 
L 174.374414 146.027336 
L 175.191797 146.568266 
L 175.600488 146.582578 
L 176.00918 145.643553 
L 176.826563 142.051013 
L 177.235254 141.375924 
L 177.643945 141.754214 
L 178.461328 143.147725 
L 178.87002 143.6625 
L 179.278711 143.958425 
L 179.687402 143.611533 
L 180.096094 142.308038 
L 181.322168 135.859389 
L 182.139551 130.21754 
L 182.956934 125.022807 
L 183.774316 121.516273 
L 184.591699 116.583909 
L 185.000391 115.685631 
L 185.409082 116.702319 
L 185.817773 118.621539 
L 186.226465 119.917442 
L 186.635156 119.717912 
L 187.043848 118.200757 
L 189.087305 107.906058 
L 189.495996 106.700287 
L 189.904688 107.283156 
L 190.72207 111.535096 
L 191.130762 112.621504 
L 191.539453 111.997999 
L 191.948145 109.875482 
L 192.765527 104.820873 
L 193.174219 104.00527 
L 193.991602 105.044324 
L 194.400293 104.454848 
L 195.626367 99.353262 
L 196.035059 98.545817 
L 196.44375 98.361563 
L 196.852441 98.875977 
L 197.261133 99.720623 
L 197.669824 100.031545 
L 198.078516 99.275877 
L 198.895898 96.060708 
L 199.30459 94.263161 
L 199.713281 91.903261 
L 200.939355 81.637378 
L 201.348047 80.189884 
L 201.756738 80.680992 
L 202.574121 83.957324 
L 202.982813 84.652997 
L 203.391504 84.284938 
L 203.800195 83.193842 
L 204.208887 81.497298 
L 204.617578 78.835056 
L 205.434961 70.262061 
L 205.843652 66.022834 
L 206.252344 63.467479 
L 206.661035 63.154468 
L 207.069727 64.664535 
L 207.887109 69.258444 
L 208.295801 70.519123 
L 208.704492 69.813429 
L 209.113184 66.544905 
L 210.339258 52.109434 
L 210.747949 49.651381 
L 211.156641 48.299375 
L 211.565332 47.818766 
L 212.382715 48.301351 
L 212.791406 47.558941 
L 213.200098 44.854061 
L 213.608789 39.964616 
L 214.426172 27.506231 
L 214.834863 23.926154 
L 215.243555 25.784911 
L 215.652246 34.88046 
L 216.87832 75.097225 
L 217.287012 80.019405 
L 217.695703 81.767846 
L 218.921777 85.05242 
L 219.330469 84.734815 
L 220.556543 81.162366 
L 220.965234 80.392858 
L 221.782617 78.174961 
L 222.191309 78.000211 
L 222.6 79.722196 
L 223.826074 89.073367 
L 224.643457 92.484808 
L 225.869531 99.033277 
L 226.278223 99.467143 
L 226.686914 99.625105 
L 227.095605 100.644349 
L 227.912988 104.611437 
L 228.32168 105.87126 
L 228.730371 106.621835 
L 229.139063 107.643246 
L 230.365137 112.103234 
L 231.18252 112.45387 
L 231.591211 113.51822 
L 232.817285 120.795029 
L 233.225977 121.532328 
L 233.634668 121.366311 
L 234.043359 121.024687 
L 234.452051 121.038943 
L 234.860742 121.792823 
L 235.269434 123.727109 
L 235.678125 127.180186 
L 236.904199 140.680671 
L 237.312891 142.220323 
L 237.721582 141.623297 
L 238.947656 136.36844 
L 239.765039 132.406453 
L 240.17373 131.141028 
L 240.582422 131.350001 
L 240.991113 133.258356 
L 241.808496 139.347806 
L 242.217188 141.193373 
L 242.625879 141.422072 
L 243.443262 139.727927 
L 243.851953 139.849289 
L 244.260645 141.313753 
L 245.486719 148.933321 
L 246.712793 153.183345 
L 247.121484 155.216941 
L 247.530176 156.664785 
L 247.938867 156.333145 
L 248.347559 153.764854 
L 249.164941 145.478972 
L 249.573633 142.919241 
L 249.982324 142.782081 
L 250.391016 144.689292 
L 252.843164 160.933615 
L 253.251855 162.149293 
L 253.660547 162.142724 
L 254.069238 160.908136 
L 255.295313 153.688035 
L 255.704004 152.945222 
L 256.112695 153.818936 
L 257.33877 159.543317 
L 257.747461 160.139683 
L 258.156152 159.703509 
L 258.564844 158.843047 
L 258.973535 158.68341 
L 259.382227 160.116665 
L 261.016992 171.001889 
L 261.425684 172.478249 
L 261.834375 173.446105 
L 262.243066 173.771547 
L 262.651758 173.578624 
L 263.877832 172.375714 
L 264.695215 170.52253 
L 265.103906 170.155403 
L 265.512598 171.326858 
L 266.738672 180.663822 
L 267.147363 181.142388 
L 267.556055 179.192552 
L 269.19082 164.442376 
L 269.599512 162.843437 
L 270.008203 162.687823 
L 270.416895 163.498902 
L 271.642969 166.748295 
L 272.05166 166.997482 
L 272.460352 166.138635 
L 273.277734 162.213332 
L 273.686426 161.486628 
L 274.095117 162.811662 
L 275.729883 174.902083 
L 276.547266 182.473755 
L 277.364648 190.135892 
L 277.77334 191.528185 
L 278.182031 190.25033 
L 279.408105 180.650634 
L 279.816797 181.254935 
L 280.63418 185.926029 
L 281.042871 186.381665 
L 281.451563 184.939176 
L 281.860254 182.816393 
L 282.268945 181.303628 
L 282.677637 180.750469 
L 284.312402 180.55843 
L 284.721094 180.849887 
L 285.129785 181.654921 
L 285.538477 183.146902 
L 286.355859 188.240142 
L 286.764551 190.88741 
L 287.173242 192.620407 
L 287.581934 193.207177 
L 287.990625 193.15295 
L 288.399316 193.347642 
L 289.216699 195.182164 
L 289.625391 194.920836 
L 290.034082 192.713064 
L 291.668848 177.957152 
L 292.077539 177.158812 
L 292.48623 178.457262 
L 293.303613 183.469183 
L 293.712305 184.714318 
L 294.120996 184.520532 
L 294.938379 182.358613 
L 295.34707 181.861199 
L 296.164453 181.642001 
L 296.573145 181.345004 
L 296.981836 181.485555 
L 297.390527 182.539796 
L 297.799219 184.086331 
L 298.20791 185.035916 
L 298.616602 184.714877 
L 299.025293 183.678035 
L 299.433984 183.420386 
L 299.842676 185.187972 
L 301.06875 195.827827 
L 301.477441 196.10133 
L 302.703516 191.504812 
L 303.112207 191.663098 
L 303.92959 192.83977 
L 304.338281 192.560587 
L 304.746973 191.111626 
L 305.973047 183.699484 
L 306.381738 182.96386 
L 306.79043 183.188165 
L 307.607813 184.235105 
L 308.016504 185.022731 
L 308.833887 187.389725 
L 309.242578 188.095135 
L 309.65127 188.309649 
L 310.059961 188.699349 
L 310.468652 189.913809 
L 311.694727 196.005082 
L 312.103418 197.310078 
L 312.512109 198.004841 
L 312.920801 198.057976 
L 313.329492 197.375937 
L 315.372949 190.241387 
L 316.190332 185.268036 
L 316.599023 183.737901 
L 317.007715 183.546225 
L 318.233789 185.506845 
L 319.051172 187.098579 
L 319.868555 188.978923 
L 320.277246 190.745047 
L 321.50332 199.190809 
L 321.912012 198.520611 
L 322.729395 192.893912 
L 323.138086 191.856274 
L 323.546777 192.726314 
L 323.955469 194.131311 
L 324.36416 194.482854 
L 324.772852 193.208224 
L 325.590234 189.312293 
L 325.998926 188.895289 
L 326.407617 189.770738 
L 327.225 192.263291 
L 327.633691 192.265409 
L 328.042383 191.022655 
L 329.268457 185.138329 
L 329.677148 185.131425 
L 330.903223 188.770575 
L 331.311914 189.366103 
L 331.720605 190.375383 
L 332.94668 195.64344 
L 333.355371 196.180841 
L 333.764063 195.794745 
L 334.581445 193.62905 
L 334.990137 191.964742 
L 335.398828 189.386422 
L 336.216211 182.946416 
L 336.624902 181.71813 
L 337.033594 183.071633 
L 337.442285 186.589946 
L 338.668359 199.274649 
L 339.077051 201.409524 
L 339.485742 201.887251 
L 339.894434 200.916561 
L 340.711816 196.474269 
L 341.937891 188.34728 
L 342.346582 186.937703 
L 342.755273 186.860392 
L 343.163965 188.01555 
L 343.572656 190.200562 
L 344.79873 198.954968 
L 345.207422 199.69464 
L 345.616113 198.216241 
L 346.433496 192.825692 
L 346.842188 191.838601 
L 347.250879 192.500612 
L 348.068262 195.016011 
L 348.476953 195.202155 
L 348.885645 194.484088 
L 350.111719 190.558465 
L 350.52041 190.300042 
L 350.929102 190.62771 
L 351.337793 190.69465 
L 351.746484 190.002311 
L 352.155176 189.082354 
L 352.563867 189.032038 
L 352.972559 190.413402 
L 353.789941 194.45475 
L 354.198633 195.054745 
L 354.607324 194.944076 
L 355.016016 195.342183 
L 356.24209 199.320344 
L 356.650781 198.875962 
L 357.468164 196.694333 
L 358.285547 195.673926 
L 358.694238 194.697846 
L 359.10293 192.967622 
L 359.920313 188.518458 
L 360.329004 187.290554 
L 360.737695 187.603031 
L 361.96377 192.464218 
L 362.372461 192.561791 
L 363.189844 191.21396 
L 363.598535 191.672547 
L 364.824609 196.661712 
L 365.233301 195.860367 
L 366.050684 192.427913 
L 366.459375 192.545292 
L 366.868066 194.258549 
L 367.685449 198.644688 
L 368.094141 199.814923 
L 368.502832 200.268156 
L 369.320215 200.415636 
L 369.728906 200.691853 
L 370.137598 201.155504 
L 370.546289 201.33252 
L 370.95498 200.566961 
L 371.363672 198.580845 
L 372.181055 193.037135 
L 372.589746 191.328155 
L 372.998438 191.134872 
L 373.81582 193.39079 
L 374.224512 193.82906 
L 375.041895 192.958092 
L 375.450586 194.203822 
L 376.67666 202.783883 
L 377.085352 203.04504 
L 378.311426 201.569322 
L 378.720117 199.993026 
L 380.354883 188.947521 
L 380.763574 188.794509 
L 381.172266 189.195191 
L 381.580957 189.101762 
L 381.989648 187.829054 
L 382.807031 183.526955 
L 383.215723 182.811188 
L 383.624414 183.771674 
L 383.624414 183.771674 
" style="fill:none;stroke:#d62728;stroke-linecap:square;stroke-width:1.5;"/>
   </g>
   <g id="patch_3">
    <path d="M 48.660938 224.64 
L 48.660938 7.2 
" style="fill:none;stroke:#000000;stroke-linecap:square;stroke-linejoin:miter;stroke-width:0.8;"/>
   </g>
   <g id="patch_4">
    <path d="M 383.460938 224.64 
L 383.460938 7.2 
" style="fill:none;stroke:#000000;stroke-linecap:square;stroke-linejoin:miter;stroke-width:0.8;"/>
   </g>
   <g id="patch_5">
    <path d="M 48.660938 224.64 
L 383.460938 224.64 
" style="fill:none;stroke:#000000;stroke-linecap:square;stroke-linejoin:miter;stroke-width:0.8;"/>
   </g>
   <g id="patch_6">
    <path d="M 48.660938 7.2 
L 383.460938 7.2 
" style="fill:none;stroke:#000000;stroke-linecap:square;stroke-linejoin:miter;stroke-width:0.8;"/>
   </g>
   <g id="legend_1">
    <g id="patch_7">
     <path d="M 274.260938 77.99375 
L 376.460938 77.99375 
Q 378.460938 77.99375 378.460938 75.99375 
L 378.460938 14.2 
Q 378.460938 12.2 376.460938 12.2 
L 274.260938 12.2 
Q 272.260938 12.2 272.260938 14.2 
L 272.260938 75.99375 
Q 272.260938 77.99375 274.260938 77.99375 
z
" style="fill:#ffffff;opacity:0.8;stroke:#cccccc;stroke-linejoin:miter;"/>
    </g>
    <g id="line2d_37">
     <path d="M 276.260938 20.298437 
L 296.260938 20.298437 
" style="fill:none;stroke:#1f77b4;stroke-linecap:square;stroke-width:1.5;"/>
    </g>
    <g id="line2d_38"/>
    <g id="text_19">
     <!-- $t_p$ = 1.5e-05 s -->
     <defs>
      <path d="M 42.28125 54.6875 
L 40.921875 47.703125 
L 23 47.703125 
L 17.1875 18.015625 
Q 16.890625 16.359375 16.75 15.234375 
Q 16.609375 14.109375 16.609375 13.484375 
Q 16.609375 10.359375 18.484375 8.9375 
Q 20.359375 7.515625 24.515625 7.515625 
L 33.59375 7.515625 
L 32.078125 0 
L 23.484375 0 
Q 15.484375 0 11.546875 3.125 
Q 7.625 6.25 7.625 12.59375 
Q 7.625 13.71875 7.765625 15.0625 
Q 7.90625 16.40625 8.203125 18.015625 
L 14.015625 47.703125 
L 6.390625 47.703125 
L 7.8125 54.6875 
L 15.28125 54.6875 
L 18.3125 70.21875 
L 27.296875 70.21875 
L 24.3125 54.6875 
z
" id="DejaVuSans-Oblique-74"/>
      <path d="M 49.609375 33.6875 
Q 49.609375 40.875 46.484375 44.671875 
Q 43.359375 48.484375 37.5 48.484375 
Q 33.5 48.484375 29.859375 46.4375 
Q 26.21875 44.390625 23.390625 40.484375 
Q 20.609375 36.625 18.9375 31.15625 
Q 17.28125 25.6875 17.28125 20.3125 
Q 17.28125 13.484375 20.40625 9.796875 
Q 23.53125 6.109375 29.296875 6.109375 
Q 33.546875 6.109375 37.1875 8.109375 
Q 40.828125 10.109375 43.40625 13.921875 
Q 46.1875 17.921875 47.890625 23.34375 
Q 49.609375 28.765625 49.609375 33.6875 
z
M 21.78125 46.390625 
Q 25.390625 51.125 30.296875 53.5625 
Q 35.203125 56 41.21875 56 
Q 49.609375 56 54.25 50.5 
Q 58.890625 45.015625 58.890625 35.109375 
Q 58.890625 27 56 19.65625 
Q 53.125 12.3125 47.703125 6.5 
Q 44.09375 2.640625 39.546875 0.609375 
Q 35.015625 -1.421875 29.984375 -1.421875 
Q 24.171875 -1.421875 20.21875 1 
Q 16.265625 3.421875 14.3125 8.203125 
L 8.6875 -20.796875 
L -0.296875 -20.796875 
L 14.40625 54.6875 
L 23.390625 54.6875 
z
" id="DejaVuSans-Oblique-70"/>
      <path d="M 10.59375 45.40625 
L 73.1875 45.40625 
L 73.1875 37.203125 
L 10.59375 37.203125 
z
M 10.59375 25.484375 
L 73.1875 25.484375 
L 73.1875 17.1875 
L 10.59375 17.1875 
z
" id="DejaVuSans-3d"/>
      <path d="M 4.890625 31.390625 
L 31.203125 31.390625 
L 31.203125 23.390625 
L 4.890625 23.390625 
z
" id="DejaVuSans-2d"/>
      <path d="M 44.28125 53.078125 
L 44.28125 44.578125 
Q 40.484375 46.53125 36.375 47.5 
Q 32.28125 48.484375 27.875 48.484375 
Q 21.1875 48.484375 17.84375 46.4375 
Q 14.5 44.390625 14.5 40.28125 
Q 14.5 37.15625 16.890625 35.375 
Q 19.28125 33.59375 26.515625 31.984375 
L 29.59375 31.296875 
Q 39.15625 29.25 43.1875 25.515625 
Q 47.21875 21.78125 47.21875 15.09375 
Q 47.21875 7.46875 41.1875 3.015625 
Q 35.15625 -1.421875 24.609375 -1.421875 
Q 20.21875 -1.421875 15.453125 -0.5625 
Q 10.6875 0.296875 5.421875 2 
L 5.421875 11.28125 
Q 10.40625 8.6875 15.234375 7.390625 
Q 20.0625 6.109375 24.8125 6.109375 
Q 31.15625 6.109375 34.5625 8.28125 
Q 37.984375 10.453125 37.984375 14.40625 
Q 37.984375 18.0625 35.515625 20.015625 
Q 33.0625 21.96875 24.703125 23.78125 
L 21.578125 24.515625 
Q 13.234375 26.265625 9.515625 29.90625 
Q 5.8125 33.546875 5.8125 39.890625 
Q 5.8125 47.609375 11.28125 51.796875 
Q 16.75 56 26.8125 56 
Q 31.78125 56 36.171875 55.265625 
Q 40.578125 54.546875 44.28125 53.078125 
z
" id="DejaVuSans-73"/>
     </defs>
     <g transform="translate(304.260938 23.798437)scale(0.1 -0.1)">
      <use transform="translate(0 0.78125)" xlink:href="#DejaVuSans-Oblique-74"/>
      <use transform="translate(39.208984 -15.625)scale(0.7)" xlink:href="#DejaVuSans-Oblique-70"/>
      <use transform="translate(86.376953 0.78125)" xlink:href="#DejaVuSans-20"/>
      <use transform="translate(118.164062 0.78125)" xlink:href="#DejaVuSans-3d"/>
      <use transform="translate(201.953125 0.78125)" xlink:href="#DejaVuSans-20"/>
      <use transform="translate(233.740234 0.78125)" xlink:href="#DejaVuSans-31"/>
      <use transform="translate(297.363281 0.78125)" xlink:href="#DejaVuSans-2e"/>
      <use transform="translate(329.150391 0.78125)" xlink:href="#DejaVuSans-35"/>
      <use transform="translate(392.773438 0.78125)" xlink:href="#DejaVuSans-65"/>
      <use transform="translate(454.296875 0.78125)" xlink:href="#DejaVuSans-2d"/>
      <use transform="translate(490.380859 0.78125)" xlink:href="#DejaVuSans-30"/>
      <use transform="translate(554.003906 0.78125)" xlink:href="#DejaVuSans-35"/>
      <use transform="translate(617.626953 0.78125)" xlink:href="#DejaVuSans-20"/>
      <use transform="translate(649.414062 0.78125)" xlink:href="#DejaVuSans-73"/>
     </g>
    </g>
    <g id="line2d_39">
     <path d="M 276.260938 35.996875 
L 296.260938 35.996875 
" style="fill:none;stroke:#ff7f0e;stroke-linecap:square;stroke-width:1.5;"/>
    </g>
    <g id="line2d_40"/>
    <g id="text_20">
     <!-- $t_p$ = 9.0e-04 s -->
     <defs>
      <path d="M 10.984375 1.515625 
L 10.984375 10.5 
Q 14.703125 8.734375 18.5 7.8125 
Q 22.3125 6.890625 25.984375 6.890625 
Q 35.75 6.890625 40.890625 13.453125 
Q 46.046875 20.015625 46.78125 33.40625 
Q 43.953125 29.203125 39.59375 26.953125 
Q 35.25 24.703125 29.984375 24.703125 
Q 19.046875 24.703125 12.671875 31.3125 
Q 6.296875 37.9375 6.296875 49.421875 
Q 6.296875 60.640625 12.9375 67.421875 
Q 19.578125 74.21875 30.609375 74.21875 
Q 43.265625 74.21875 49.921875 64.515625 
Q 56.59375 54.828125 56.59375 36.375 
Q 56.59375 19.140625 48.40625 8.859375 
Q 40.234375 -1.421875 26.421875 -1.421875 
Q 22.703125 -1.421875 18.890625 -0.6875 
Q 15.09375 0.046875 10.984375 1.515625 
z
M 30.609375 32.421875 
Q 37.25 32.421875 41.125 36.953125 
Q 45.015625 41.5 45.015625 49.421875 
Q 45.015625 57.28125 41.125 61.84375 
Q 37.25 66.40625 30.609375 66.40625 
Q 23.96875 66.40625 20.09375 61.84375 
Q 16.21875 57.28125 16.21875 49.421875 
Q 16.21875 41.5 20.09375 36.953125 
Q 23.96875 32.421875 30.609375 32.421875 
z
" id="DejaVuSans-39"/>
     </defs>
     <g transform="translate(304.260938 39.496875)scale(0.1 -0.1)">
      <use transform="translate(0 0.78125)" xlink:href="#DejaVuSans-Oblique-74"/>
      <use transform="translate(39.208984 -15.625)scale(0.7)" xlink:href="#DejaVuSans-Oblique-70"/>
      <use transform="translate(86.376953 0.78125)" xlink:href="#DejaVuSans-20"/>
      <use transform="translate(118.164062 0.78125)" xlink:href="#DejaVuSans-3d"/>
      <use transform="translate(201.953125 0.78125)" xlink:href="#DejaVuSans-20"/>
      <use transform="translate(233.740234 0.78125)" xlink:href="#DejaVuSans-39"/>
      <use transform="translate(297.363281 0.78125)" xlink:href="#DejaVuSans-2e"/>
      <use transform="translate(329.150391 0.78125)" xlink:href="#DejaVuSans-30"/>
      <use transform="translate(392.773438 0.78125)" xlink:href="#DejaVuSans-65"/>
      <use transform="translate(454.296875 0.78125)" xlink:href="#DejaVuSans-2d"/>
      <use transform="translate(490.380859 0.78125)" xlink:href="#DejaVuSans-30"/>
      <use transform="translate(554.003906 0.78125)" xlink:href="#DejaVuSans-34"/>
      <use transform="translate(617.626953 0.78125)" xlink:href="#DejaVuSans-20"/>
      <use transform="translate(649.414062 0.78125)" xlink:href="#DejaVuSans-73"/>
     </g>
    </g>
    <g id="line2d_41">
     <path d="M 276.260938 51.695312 
L 296.260938 51.695312 
" style="fill:none;stroke:#2ca02c;stroke-linecap:square;stroke-width:1.5;"/>
    </g>
    <g id="line2d_42"/>
    <g id="text_21">
     <!-- $t_p$ = 2.0e-03 s -->
     <defs>
      <path d="M 40.578125 39.3125 
Q 47.65625 37.796875 51.625 33 
Q 55.609375 28.21875 55.609375 21.1875 
Q 55.609375 10.40625 48.1875 4.484375 
Q 40.765625 -1.421875 27.09375 -1.421875 
Q 22.515625 -1.421875 17.65625 -0.515625 
Q 12.796875 0.390625 7.625 2.203125 
L 7.625 11.71875 
Q 11.71875 9.328125 16.59375 8.109375 
Q 21.484375 6.890625 26.8125 6.890625 
Q 36.078125 6.890625 40.9375 10.546875 
Q 45.796875 14.203125 45.796875 21.1875 
Q 45.796875 27.640625 41.28125 31.265625 
Q 36.765625 34.90625 28.71875 34.90625 
L 20.21875 34.90625 
L 20.21875 43.015625 
L 29.109375 43.015625 
Q 36.375 43.015625 40.234375 45.921875 
Q 44.09375 48.828125 44.09375 54.296875 
Q 44.09375 59.90625 40.109375 62.90625 
Q 36.140625 65.921875 28.71875 65.921875 
Q 24.65625 65.921875 20.015625 65.03125 
Q 15.375 64.15625 9.8125 62.3125 
L 9.8125 71.09375 
Q 15.4375 72.65625 20.34375 73.4375 
Q 25.25 74.21875 29.59375 74.21875 
Q 40.828125 74.21875 47.359375 69.109375 
Q 53.90625 64.015625 53.90625 55.328125 
Q 53.90625 49.265625 50.4375 45.09375 
Q 46.96875 40.921875 40.578125 39.3125 
z
" id="DejaVuSans-33"/>
     </defs>
     <g transform="translate(304.260938 55.195312)scale(0.1 -0.1)">
      <use transform="translate(0 0.78125)" xlink:href="#DejaVuSans-Oblique-74"/>
      <use transform="translate(39.208984 -15.625)scale(0.7)" xlink:href="#DejaVuSans-Oblique-70"/>
      <use transform="translate(86.376953 0.78125)" xlink:href="#DejaVuSans-20"/>
      <use transform="translate(118.164062 0.78125)" xlink:href="#DejaVuSans-3d"/>
      <use transform="translate(201.953125 0.78125)" xlink:href="#DejaVuSans-20"/>
      <use transform="translate(233.740234 0.78125)" xlink:href="#DejaVuSans-32"/>
      <use transform="translate(297.363281 0.78125)" xlink:href="#DejaVuSans-2e"/>
      <use transform="translate(329.150391 0.78125)" xlink:href="#DejaVuSans-30"/>
      <use transform="translate(392.773438 0.78125)" xlink:href="#DejaVuSans-65"/>
      <use transform="translate(454.296875 0.78125)" xlink:href="#DejaVuSans-2d"/>
      <use transform="translate(490.380859 0.78125)" xlink:href="#DejaVuSans-30"/>
      <use transform="translate(554.003906 0.78125)" xlink:href="#DejaVuSans-33"/>
      <use transform="translate(617.626953 0.78125)" xlink:href="#DejaVuSans-20"/>
      <use transform="translate(649.414062 0.78125)" xlink:href="#DejaVuSans-73"/>
     </g>
    </g>
    <g id="line2d_43">
     <path d="M 276.260938 67.39375 
L 296.260938 67.39375 
" style="fill:none;stroke:#d62728;stroke-linecap:square;stroke-width:1.5;"/>
    </g>
    <g id="line2d_44"/>
    <g id="text_22">
     <!-- $t_p$ = 2.8e-03 s -->
     <g transform="translate(304.260938 70.89375)scale(0.1 -0.1)">
      <use transform="translate(0 0.78125)" xlink:href="#DejaVuSans-Oblique-74"/>
      <use transform="translate(39.208984 -15.625)scale(0.7)" xlink:href="#DejaVuSans-Oblique-70"/>
      <use transform="translate(86.376953 0.78125)" xlink:href="#DejaVuSans-20"/>
      <use transform="translate(118.164062 0.78125)" xlink:href="#DejaVuSans-3d"/>
      <use transform="translate(201.953125 0.78125)" xlink:href="#DejaVuSans-20"/>
      <use transform="translate(233.740234 0.78125)" xlink:href="#DejaVuSans-32"/>
      <use transform="translate(297.363281 0.78125)" xlink:href="#DejaVuSans-2e"/>
      <use transform="translate(329.119141 0.78125)" xlink:href="#DejaVuSans-38"/>
      <use transform="translate(392.742188 0.78125)" xlink:href="#DejaVuSans-65"/>
      <use transform="translate(454.265625 0.78125)" xlink:href="#DejaVuSans-2d"/>
      <use transform="translate(490.349609 0.78125)" xlink:href="#DejaVuSans-30"/>
      <use transform="translate(553.972656 0.78125)" xlink:href="#DejaVuSans-33"/>
      <use transform="translate(617.595703 0.78125)" xlink:href="#DejaVuSans-20"/>
      <use transform="translate(649.382812 0.78125)" xlink:href="#DejaVuSans-73"/>
     </g>
    </g>
   </g>
  </g>
 </g>
 <defs>
  <clipPath id="p6f1221e3bb">
   <rect height="217.44" width="334.8" x="48.660938" y="7.2"/>
  </clipPath>
 </defs>
</svg>
