<?xml version="1.0" encoding="utf-8" standalone="no"?>
<!DOCTYPE svg PUBLIC "-//W3C//DTD SVG 1.1//EN"
  "http://www.w3.org/Graphics/SVG/1.1/DTD/svg11.dtd">
<!-- Created with matplotlib (http://matplotlib.org/) -->
<svg height="277.314375pt" version="1.1" viewBox="0 0 413.248438 277.314375" width="413.248438pt" xmlns="http://www.w3.org/2000/svg" xmlns:xlink="http://www.w3.org/1999/xlink">
 <defs>
  <style type="text/css">
*{stroke-linecap:butt;stroke-linejoin:round;}
  </style>
 </defs>
 <g id="figure_1">
  <g id="patch_1">
   <path d="M 0 277.314375 
L 413.248438 277.314375 
L 413.248438 0 
L 0 0 
z
" style="fill:#ffffff;"/>
  </g>
  <g id="axes_1">
   <g id="patch_2">
    <path d="M 52.160938 239.758125 
L 386.960938 239.758125 
L 386.960938 22.318125 
L 52.160938 22.318125 
z
" style="fill:#ffffff;"/>
   </g>
   <g id="matplotlib.axis_1">
    <g id="xtick_1">
     <g id="line2d_1">
      <defs>
       <path d="M 0 0 
L 0 3.5 
" id="me563599118" style="stroke:#000000;stroke-width:0.8;"/>
      </defs>
      <g>
       <use style="stroke:#000000;stroke-width:0.8;" x="52.160938" xlink:href="#me563599118" y="239.758125"/>
      </g>
     </g>
     <g id="text_1">
      <!-- −100000 -->
      <defs>
       <path d="M 10.59375 35.5 
L 73.1875 35.5 
L 73.1875 27.203125 
L 10.59375 27.203125 
z
" id="DejaVuSans-2212"/>
       <path d="M 12.40625 8.296875 
L 28.515625 8.296875 
L 28.515625 63.921875 
L 10.984375 60.40625 
L 10.984375 69.390625 
L 28.421875 72.90625 
L 38.28125 72.90625 
L 38.28125 8.296875 
L 54.390625 8.296875 
L 54.390625 0 
L 12.40625 0 
z
" id="DejaVuSans-31"/>
       <path d="M 31.78125 66.40625 
Q 24.171875 66.40625 20.328125 58.90625 
Q 16.5 51.421875 16.5 36.375 
Q 16.5 21.390625 20.328125 13.890625 
Q 24.171875 6.390625 31.78125 6.390625 
Q 39.453125 6.390625 43.28125 13.890625 
Q 47.125 21.390625 47.125 36.375 
Q 47.125 51.421875 43.28125 58.90625 
Q 39.453125 66.40625 31.78125 66.40625 
z
M 31.78125 74.21875 
Q 44.046875 74.21875 50.515625 64.515625 
Q 56.984375 54.828125 56.984375 36.375 
Q 56.984375 17.96875 50.515625 8.265625 
Q 44.046875 -1.421875 31.78125 -1.421875 
Q 19.53125 -1.421875 13.0625 8.265625 
Q 6.59375 17.96875 6.59375 36.375 
Q 6.59375 54.828125 13.0625 64.515625 
Q 19.53125 74.21875 31.78125 74.21875 
z
" id="DejaVuSans-30"/>
      </defs>
      <g transform="translate(28.883594 254.356562)scale(0.1 -0.1)">
       <use xlink:href="#DejaVuSans-2212"/>
       <use x="83.789062" xlink:href="#DejaVuSans-31"/>
       <use x="147.412109" xlink:href="#DejaVuSans-30"/>
       <use x="211.035156" xlink:href="#DejaVuSans-30"/>
       <use x="274.658203" xlink:href="#DejaVuSans-30"/>
       <use x="338.28125" xlink:href="#DejaVuSans-30"/>
       <use x="401.904297" xlink:href="#DejaVuSans-30"/>
      </g>
     </g>
    </g>
    <g id="xtick_2">
     <g id="line2d_2">
      <g>
       <use style="stroke:#000000;stroke-width:0.8;" x="94.010938" xlink:href="#me563599118" y="239.758125"/>
      </g>
     </g>
     <g id="text_2">
      <!-- −75000 -->
      <defs>
       <path d="M 8.203125 72.90625 
L 55.078125 72.90625 
L 55.078125 68.703125 
L 28.609375 0 
L 18.3125 0 
L 43.21875 64.59375 
L 8.203125 64.59375 
z
" id="DejaVuSans-37"/>
       <path d="M 10.796875 72.90625 
L 49.515625 72.90625 
L 49.515625 64.59375 
L 19.828125 64.59375 
L 19.828125 46.734375 
Q 21.96875 47.46875 24.109375 47.828125 
Q 26.265625 48.1875 28.421875 48.1875 
Q 40.625 48.1875 47.75 41.5 
Q 54.890625 34.8125 54.890625 23.390625 
Q 54.890625 11.625 47.5625 5.09375 
Q 40.234375 -1.421875 26.90625 -1.421875 
Q 22.3125 -1.421875 17.546875 -0.640625 
Q 12.796875 0.140625 7.71875 1.703125 
L 7.71875 11.625 
Q 12.109375 9.234375 16.796875 8.0625 
Q 21.484375 6.890625 26.703125 6.890625 
Q 35.15625 6.890625 40.078125 11.328125 
Q 45.015625 15.765625 45.015625 23.390625 
Q 45.015625 31 40.078125 35.4375 
Q 35.15625 39.890625 26.703125 39.890625 
Q 22.75 39.890625 18.8125 39.015625 
Q 14.890625 38.140625 10.796875 36.28125 
z
" id="DejaVuSans-35"/>
      </defs>
      <g transform="translate(73.914844 254.356562)scale(0.1 -0.1)">
       <use xlink:href="#DejaVuSans-2212"/>
       <use x="83.789062" xlink:href="#DejaVuSans-37"/>
       <use x="147.412109" xlink:href="#DejaVuSans-35"/>
       <use x="211.035156" xlink:href="#DejaVuSans-30"/>
       <use x="274.658203" xlink:href="#DejaVuSans-30"/>
       <use x="338.28125" xlink:href="#DejaVuSans-30"/>
      </g>
     </g>
    </g>
    <g id="xtick_3">
     <g id="line2d_3">
      <g>
       <use style="stroke:#000000;stroke-width:0.8;" x="135.860938" xlink:href="#me563599118" y="239.758125"/>
      </g>
     </g>
     <g id="text_3">
      <!-- −50000 -->
      <g transform="translate(115.764844 254.356562)scale(0.1 -0.1)">
       <use xlink:href="#DejaVuSans-2212"/>
       <use x="83.789062" xlink:href="#DejaVuSans-35"/>
       <use x="147.412109" xlink:href="#DejaVuSans-30"/>
       <use x="211.035156" xlink:href="#DejaVuSans-30"/>
       <use x="274.658203" xlink:href="#DejaVuSans-30"/>
       <use x="338.28125" xlink:href="#DejaVuSans-30"/>
      </g>
     </g>
    </g>
    <g id="xtick_4">
     <g id="line2d_4">
      <g>
       <use style="stroke:#000000;stroke-width:0.8;" x="177.710938" xlink:href="#me563599118" y="239.758125"/>
      </g>
     </g>
     <g id="text_4">
      <!-- −25000 -->
      <defs>
       <path d="M 19.1875 8.296875 
L 53.609375 8.296875 
L 53.609375 0 
L 7.328125 0 
L 7.328125 8.296875 
Q 12.9375 14.109375 22.625 23.890625 
Q 32.328125 33.6875 34.8125 36.53125 
Q 39.546875 41.84375 41.421875 45.53125 
Q 43.3125 49.21875 43.3125 52.78125 
Q 43.3125 58.59375 39.234375 62.25 
Q 35.15625 65.921875 28.609375 65.921875 
Q 23.96875 65.921875 18.8125 64.3125 
Q 13.671875 62.703125 7.8125 59.421875 
L 7.8125 69.390625 
Q 13.765625 71.78125 18.9375 73 
Q 24.125 74.21875 28.421875 74.21875 
Q 39.75 74.21875 46.484375 68.546875 
Q 53.21875 62.890625 53.21875 53.421875 
Q 53.21875 48.921875 51.53125 44.890625 
Q 49.859375 40.875 45.40625 35.40625 
Q 44.1875 33.984375 37.640625 27.21875 
Q 31.109375 20.453125 19.1875 8.296875 
z
" id="DejaVuSans-32"/>
      </defs>
      <g transform="translate(157.614844 254.356562)scale(0.1 -0.1)">
       <use xlink:href="#DejaVuSans-2212"/>
       <use x="83.789062" xlink:href="#DejaVuSans-32"/>
       <use x="147.412109" xlink:href="#DejaVuSans-35"/>
       <use x="211.035156" xlink:href="#DejaVuSans-30"/>
       <use x="274.658203" xlink:href="#DejaVuSans-30"/>
       <use x="338.28125" xlink:href="#DejaVuSans-30"/>
      </g>
     </g>
    </g>
    <g id="xtick_5">
     <g id="line2d_5">
      <g>
       <use style="stroke:#000000;stroke-width:0.8;" x="219.560938" xlink:href="#me563599118" y="239.758125"/>
      </g>
     </g>
     <g id="text_5">
      <!-- 0 -->
      <g transform="translate(216.379688 254.356562)scale(0.1 -0.1)">
       <use xlink:href="#DejaVuSans-30"/>
      </g>
     </g>
    </g>
    <g id="xtick_6">
     <g id="line2d_6">
      <g>
       <use style="stroke:#000000;stroke-width:0.8;" x="261.410938" xlink:href="#me563599118" y="239.758125"/>
      </g>
     </g>
     <g id="text_6">
      <!-- 25000 -->
      <g transform="translate(245.504688 254.356562)scale(0.1 -0.1)">
       <use xlink:href="#DejaVuSans-32"/>
       <use x="63.623047" xlink:href="#DejaVuSans-35"/>
       <use x="127.246094" xlink:href="#DejaVuSans-30"/>
       <use x="190.869141" xlink:href="#DejaVuSans-30"/>
       <use x="254.492188" xlink:href="#DejaVuSans-30"/>
      </g>
     </g>
    </g>
    <g id="xtick_7">
     <g id="line2d_7">
      <g>
       <use style="stroke:#000000;stroke-width:0.8;" x="303.260938" xlink:href="#me563599118" y="239.758125"/>
      </g>
     </g>
     <g id="text_7">
      <!-- 50000 -->
      <g transform="translate(287.354688 254.356562)scale(0.1 -0.1)">
       <use xlink:href="#DejaVuSans-35"/>
       <use x="63.623047" xlink:href="#DejaVuSans-30"/>
       <use x="127.246094" xlink:href="#DejaVuSans-30"/>
       <use x="190.869141" xlink:href="#DejaVuSans-30"/>
       <use x="254.492188" xlink:href="#DejaVuSans-30"/>
      </g>
     </g>
    </g>
    <g id="xtick_8">
     <g id="line2d_8">
      <g>
       <use style="stroke:#000000;stroke-width:0.8;" x="345.110938" xlink:href="#me563599118" y="239.758125"/>
      </g>
     </g>
     <g id="text_8">
      <!-- 75000 -->
      <g transform="translate(329.204688 254.356562)scale(0.1 -0.1)">
       <use xlink:href="#DejaVuSans-37"/>
       <use x="63.623047" xlink:href="#DejaVuSans-35"/>
       <use x="127.246094" xlink:href="#DejaVuSans-30"/>
       <use x="190.869141" xlink:href="#DejaVuSans-30"/>
       <use x="254.492188" xlink:href="#DejaVuSans-30"/>
      </g>
     </g>
    </g>
    <g id="xtick_9">
     <g id="line2d_9">
      <g>
       <use style="stroke:#000000;stroke-width:0.8;" x="386.960938" xlink:href="#me563599118" y="239.758125"/>
      </g>
     </g>
     <g id="text_9">
      <!-- 100000 -->
      <g transform="translate(367.873438 254.356562)scale(0.1 -0.1)">
       <use xlink:href="#DejaVuSans-31"/>
       <use x="63.623047" xlink:href="#DejaVuSans-30"/>
       <use x="127.246094" xlink:href="#DejaVuSans-30"/>
       <use x="190.869141" xlink:href="#DejaVuSans-30"/>
       <use x="254.492188" xlink:href="#DejaVuSans-30"/>
       <use x="318.115234" xlink:href="#DejaVuSans-30"/>
      </g>
     </g>
    </g>
    <g id="text_10">
     <!-- Frequenz [Hz] -->
     <defs>
      <path d="M 9.8125 72.90625 
L 51.703125 72.90625 
L 51.703125 64.59375 
L 19.671875 64.59375 
L 19.671875 43.109375 
L 48.578125 43.109375 
L 48.578125 34.8125 
L 19.671875 34.8125 
L 19.671875 0 
L 9.8125 0 
z
" id="DejaVuSans-46"/>
      <path d="M 41.109375 46.296875 
Q 39.59375 47.171875 37.8125 47.578125 
Q 36.03125 48 33.890625 48 
Q 26.265625 48 22.1875 43.046875 
Q 18.109375 38.09375 18.109375 28.8125 
L 18.109375 0 
L 9.078125 0 
L 9.078125 54.6875 
L 18.109375 54.6875 
L 18.109375 46.1875 
Q 20.953125 51.171875 25.484375 53.578125 
Q 30.03125 56 36.53125 56 
Q 37.453125 56 38.578125 55.875 
Q 39.703125 55.765625 41.0625 55.515625 
z
" id="DejaVuSans-72"/>
      <path d="M 56.203125 29.59375 
L 56.203125 25.203125 
L 14.890625 25.203125 
Q 15.484375 15.921875 20.484375 11.0625 
Q 25.484375 6.203125 34.421875 6.203125 
Q 39.59375 6.203125 44.453125 7.46875 
Q 49.3125 8.734375 54.109375 11.28125 
L 54.109375 2.78125 
Q 49.265625 0.734375 44.1875 -0.34375 
Q 39.109375 -1.421875 33.890625 -1.421875 
Q 20.796875 -1.421875 13.15625 6.1875 
Q 5.515625 13.8125 5.515625 26.8125 
Q 5.515625 40.234375 12.765625 48.109375 
Q 20.015625 56 32.328125 56 
Q 43.359375 56 49.78125 48.890625 
Q 56.203125 41.796875 56.203125 29.59375 
z
M 47.21875 32.234375 
Q 47.125 39.59375 43.09375 43.984375 
Q 39.0625 48.390625 32.421875 48.390625 
Q 24.90625 48.390625 20.390625 44.140625 
Q 15.875 39.890625 15.1875 32.171875 
z
" id="DejaVuSans-65"/>
      <path d="M 14.796875 27.296875 
Q 14.796875 17.390625 18.875 11.75 
Q 22.953125 6.109375 30.078125 6.109375 
Q 37.203125 6.109375 41.296875 11.75 
Q 45.40625 17.390625 45.40625 27.296875 
Q 45.40625 37.203125 41.296875 42.84375 
Q 37.203125 48.484375 30.078125 48.484375 
Q 22.953125 48.484375 18.875 42.84375 
Q 14.796875 37.203125 14.796875 27.296875 
z
M 45.40625 8.203125 
Q 42.578125 3.328125 38.25 0.953125 
Q 33.9375 -1.421875 27.875 -1.421875 
Q 17.96875 -1.421875 11.734375 6.484375 
Q 5.515625 14.40625 5.515625 27.296875 
Q 5.515625 40.1875 11.734375 48.09375 
Q 17.96875 56 27.875 56 
Q 33.9375 56 38.25 53.625 
Q 42.578125 51.265625 45.40625 46.390625 
L 45.40625 54.6875 
L 54.390625 54.6875 
L 54.390625 -20.796875 
L 45.40625 -20.796875 
z
" id="DejaVuSans-71"/>
      <path d="M 8.5 21.578125 
L 8.5 54.6875 
L 17.484375 54.6875 
L 17.484375 21.921875 
Q 17.484375 14.15625 20.5 10.265625 
Q 23.53125 6.390625 29.59375 6.390625 
Q 36.859375 6.390625 41.078125 11.03125 
Q 45.3125 15.671875 45.3125 23.6875 
L 45.3125 54.6875 
L 54.296875 54.6875 
L 54.296875 0 
L 45.3125 0 
L 45.3125 8.40625 
Q 42.046875 3.421875 37.71875 1 
Q 33.40625 -1.421875 27.6875 -1.421875 
Q 18.265625 -1.421875 13.375 4.4375 
Q 8.5 10.296875 8.5 21.578125 
z
M 31.109375 56 
z
" id="DejaVuSans-75"/>
      <path d="M 54.890625 33.015625 
L 54.890625 0 
L 45.90625 0 
L 45.90625 32.71875 
Q 45.90625 40.484375 42.875 44.328125 
Q 39.84375 48.1875 33.796875 48.1875 
Q 26.515625 48.1875 22.3125 43.546875 
Q 18.109375 38.921875 18.109375 30.90625 
L 18.109375 0 
L 9.078125 0 
L 9.078125 54.6875 
L 18.109375 54.6875 
L 18.109375 46.1875 
Q 21.34375 51.125 25.703125 53.5625 
Q 30.078125 56 35.796875 56 
Q 45.21875 56 50.046875 50.171875 
Q 54.890625 44.34375 54.890625 33.015625 
z
" id="DejaVuSans-6e"/>
      <path d="M 5.515625 54.6875 
L 48.1875 54.6875 
L 48.1875 46.484375 
L 14.40625 7.171875 
L 48.1875 7.171875 
L 48.1875 0 
L 4.296875 0 
L 4.296875 8.203125 
L 38.09375 47.515625 
L 5.515625 47.515625 
z
" id="DejaVuSans-7a"/>
      <path id="DejaVuSans-20"/>
      <path d="M 8.59375 75.984375 
L 29.296875 75.984375 
L 29.296875 69 
L 17.578125 69 
L 17.578125 -6.203125 
L 29.296875 -6.203125 
L 29.296875 -13.1875 
L 8.59375 -13.1875 
z
" id="DejaVuSans-5b"/>
      <path d="M 9.8125 72.90625 
L 19.671875 72.90625 
L 19.671875 43.015625 
L 55.515625 43.015625 
L 55.515625 72.90625 
L 65.375 72.90625 
L 65.375 0 
L 55.515625 0 
L 55.515625 34.71875 
L 19.671875 34.71875 
L 19.671875 0 
L 9.8125 0 
z
" id="DejaVuSans-48"/>
      <path d="M 30.421875 75.984375 
L 30.421875 -13.1875 
L 9.71875 -13.1875 
L 9.71875 -6.203125 
L 21.390625 -6.203125 
L 21.390625 69 
L 9.71875 69 
L 9.71875 75.984375 
z
" id="DejaVuSans-5d"/>
     </defs>
     <g transform="translate(184.472656 268.034687)scale(0.1 -0.1)">
      <use xlink:href="#DejaVuSans-46"/>
      <use x="57.410156" xlink:href="#DejaVuSans-72"/>
      <use x="98.492188" xlink:href="#DejaVuSans-65"/>
      <use x="160.015625" xlink:href="#DejaVuSans-71"/>
      <use x="223.492188" xlink:href="#DejaVuSans-75"/>
      <use x="286.871094" xlink:href="#DejaVuSans-65"/>
      <use x="348.394531" xlink:href="#DejaVuSans-6e"/>
      <use x="411.773438" xlink:href="#DejaVuSans-7a"/>
      <use x="464.263672" xlink:href="#DejaVuSans-20"/>
      <use x="496.050781" xlink:href="#DejaVuSans-5b"/>
      <use x="535.064453" xlink:href="#DejaVuSans-48"/>
      <use x="610.259766" xlink:href="#DejaVuSans-7a"/>
      <use x="662.75" xlink:href="#DejaVuSans-5d"/>
     </g>
    </g>
   </g>
   <g id="matplotlib.axis_2">
    <g id="ytick_1">
     <g id="line2d_10">
      <defs>
       <path d="M 0 0 
L -3.5 0 
" id="m7e021351f7" style="stroke:#000000;stroke-width:0.8;"/>
      </defs>
      <g>
       <use style="stroke:#000000;stroke-width:0.8;" x="52.160938" xlink:href="#m7e021351f7" y="239.758125"/>
      </g>
     </g>
     <g id="text_11">
      <!-- −0.2 -->
      <defs>
       <path d="M 10.6875 12.40625 
L 21 12.40625 
L 21 0 
L 10.6875 0 
z
" id="DejaVuSans-2e"/>
      </defs>
      <g transform="translate(20.878125 243.557344)scale(0.1 -0.1)">
       <use xlink:href="#DejaVuSans-2212"/>
       <use x="83.789062" xlink:href="#DejaVuSans-30"/>
       <use x="147.412109" xlink:href="#DejaVuSans-2e"/>
       <use x="179.199219" xlink:href="#DejaVuSans-32"/>
      </g>
     </g>
    </g>
    <g id="ytick_2">
     <g id="line2d_11">
      <g>
       <use style="stroke:#000000;stroke-width:0.8;" x="52.160938" xlink:href="#m7e021351f7" y="206.305817"/>
      </g>
     </g>
     <g id="text_12">
      <!-- 0.0 -->
      <g transform="translate(29.257813 210.105036)scale(0.1 -0.1)">
       <use xlink:href="#DejaVuSans-30"/>
       <use x="63.623047" xlink:href="#DejaVuSans-2e"/>
       <use x="95.410156" xlink:href="#DejaVuSans-30"/>
      </g>
     </g>
    </g>
    <g id="ytick_3">
     <g id="line2d_12">
      <g>
       <use style="stroke:#000000;stroke-width:0.8;" x="52.160938" xlink:href="#m7e021351f7" y="172.85351"/>
      </g>
     </g>
     <g id="text_13">
      <!-- 0.2 -->
      <g transform="translate(29.257813 176.652728)scale(0.1 -0.1)">
       <use xlink:href="#DejaVuSans-30"/>
       <use x="63.623047" xlink:href="#DejaVuSans-2e"/>
       <use x="95.410156" xlink:href="#DejaVuSans-32"/>
      </g>
     </g>
    </g>
    <g id="ytick_4">
     <g id="line2d_13">
      <g>
       <use style="stroke:#000000;stroke-width:0.8;" x="52.160938" xlink:href="#m7e021351f7" y="139.401202"/>
      </g>
     </g>
     <g id="text_14">
      <!-- 0.4 -->
      <defs>
       <path d="M 37.796875 64.3125 
L 12.890625 25.390625 
L 37.796875 25.390625 
z
M 35.203125 72.90625 
L 47.609375 72.90625 
L 47.609375 25.390625 
L 58.015625 25.390625 
L 58.015625 17.1875 
L 47.609375 17.1875 
L 47.609375 0 
L 37.796875 0 
L 37.796875 17.1875 
L 4.890625 17.1875 
L 4.890625 26.703125 
z
" id="DejaVuSans-34"/>
      </defs>
      <g transform="translate(29.257813 143.200421)scale(0.1 -0.1)">
       <use xlink:href="#DejaVuSans-30"/>
       <use x="63.623047" xlink:href="#DejaVuSans-2e"/>
       <use x="95.410156" xlink:href="#DejaVuSans-34"/>
      </g>
     </g>
    </g>
    <g id="ytick_5">
     <g id="line2d_14">
      <g>
       <use style="stroke:#000000;stroke-width:0.8;" x="52.160938" xlink:href="#m7e021351f7" y="105.948894"/>
      </g>
     </g>
     <g id="text_15">
      <!-- 0.6 -->
      <defs>
       <path d="M 33.015625 40.375 
Q 26.375 40.375 22.484375 35.828125 
Q 18.609375 31.296875 18.609375 23.390625 
Q 18.609375 15.53125 22.484375 10.953125 
Q 26.375 6.390625 33.015625 6.390625 
Q 39.65625 6.390625 43.53125 10.953125 
Q 47.40625 15.53125 47.40625 23.390625 
Q 47.40625 31.296875 43.53125 35.828125 
Q 39.65625 40.375 33.015625 40.375 
z
M 52.59375 71.296875 
L 52.59375 62.3125 
Q 48.875 64.0625 45.09375 64.984375 
Q 41.3125 65.921875 37.59375 65.921875 
Q 27.828125 65.921875 22.671875 59.328125 
Q 17.53125 52.734375 16.796875 39.40625 
Q 19.671875 43.65625 24.015625 45.921875 
Q 28.375 48.1875 33.59375 48.1875 
Q 44.578125 48.1875 50.953125 41.515625 
Q 57.328125 34.859375 57.328125 23.390625 
Q 57.328125 12.15625 50.6875 5.359375 
Q 44.046875 -1.421875 33.015625 -1.421875 
Q 20.359375 -1.421875 13.671875 8.265625 
Q 6.984375 17.96875 6.984375 36.375 
Q 6.984375 53.65625 15.1875 63.9375 
Q 23.390625 74.21875 37.203125 74.21875 
Q 40.921875 74.21875 44.703125 73.484375 
Q 48.484375 72.75 52.59375 71.296875 
z
" id="DejaVuSans-36"/>
      </defs>
      <g transform="translate(29.257813 109.748113)scale(0.1 -0.1)">
       <use xlink:href="#DejaVuSans-30"/>
       <use x="63.623047" xlink:href="#DejaVuSans-2e"/>
       <use x="95.410156" xlink:href="#DejaVuSans-36"/>
      </g>
     </g>
    </g>
    <g id="ytick_6">
     <g id="line2d_15">
      <g>
       <use style="stroke:#000000;stroke-width:0.8;" x="52.160938" xlink:href="#m7e021351f7" y="72.496587"/>
      </g>
     </g>
     <g id="text_16">
      <!-- 0.8 -->
      <defs>
       <path d="M 31.78125 34.625 
Q 24.75 34.625 20.71875 30.859375 
Q 16.703125 27.09375 16.703125 20.515625 
Q 16.703125 13.921875 20.71875 10.15625 
Q 24.75 6.390625 31.78125 6.390625 
Q 38.8125 6.390625 42.859375 10.171875 
Q 46.921875 13.96875 46.921875 20.515625 
Q 46.921875 27.09375 42.890625 30.859375 
Q 38.875 34.625 31.78125 34.625 
z
M 21.921875 38.8125 
Q 15.578125 40.375 12.03125 44.71875 
Q 8.5 49.078125 8.5 55.328125 
Q 8.5 64.0625 14.71875 69.140625 
Q 20.953125 74.21875 31.78125 74.21875 
Q 42.671875 74.21875 48.875 69.140625 
Q 55.078125 64.0625 55.078125 55.328125 
Q 55.078125 49.078125 51.53125 44.71875 
Q 48 40.375 41.703125 38.8125 
Q 48.828125 37.15625 52.796875 32.3125 
Q 56.78125 27.484375 56.78125 20.515625 
Q 56.78125 9.90625 50.3125 4.234375 
Q 43.84375 -1.421875 31.78125 -1.421875 
Q 19.734375 -1.421875 13.25 4.234375 
Q 6.78125 9.90625 6.78125 20.515625 
Q 6.78125 27.484375 10.78125 32.3125 
Q 14.796875 37.15625 21.921875 38.8125 
z
M 18.3125 54.390625 
Q 18.3125 48.734375 21.84375 45.5625 
Q 25.390625 42.390625 31.78125 42.390625 
Q 38.140625 42.390625 41.71875 45.5625 
Q 45.3125 48.734375 45.3125 54.390625 
Q 45.3125 60.0625 41.71875 63.234375 
Q 38.140625 66.40625 31.78125 66.40625 
Q 25.390625 66.40625 21.84375 63.234375 
Q 18.3125 60.0625 18.3125 54.390625 
z
" id="DejaVuSans-38"/>
      </defs>
      <g transform="translate(29.257813 76.295805)scale(0.1 -0.1)">
       <use xlink:href="#DejaVuSans-30"/>
       <use x="63.623047" xlink:href="#DejaVuSans-2e"/>
       <use x="95.410156" xlink:href="#DejaVuSans-38"/>
      </g>
     </g>
    </g>
    <g id="ytick_7">
     <g id="line2d_16">
      <g>
       <use style="stroke:#000000;stroke-width:0.8;" x="52.160938" xlink:href="#m7e021351f7" y="39.044279"/>
      </g>
     </g>
     <g id="text_17">
      <!-- 1.0 -->
      <g transform="translate(29.257813 42.843498)scale(0.1 -0.1)">
       <use xlink:href="#DejaVuSans-31"/>
       <use x="63.623047" xlink:href="#DejaVuSans-2e"/>
       <use x="95.410156" xlink:href="#DejaVuSans-30"/>
      </g>
     </g>
    </g>
    <g id="text_18">
     <!-- Amplitude [normiert] -->
     <defs>
      <path d="M 34.1875 63.1875 
L 20.796875 26.90625 
L 47.609375 26.90625 
z
M 28.609375 72.90625 
L 39.796875 72.90625 
L 67.578125 0 
L 57.328125 0 
L 50.6875 18.703125 
L 17.828125 18.703125 
L 11.1875 0 
L 0.78125 0 
z
" id="DejaVuSans-41"/>
      <path d="M 52 44.1875 
Q 55.375 50.25 60.0625 53.125 
Q 64.75 56 71.09375 56 
Q 79.640625 56 84.28125 50.015625 
Q 88.921875 44.046875 88.921875 33.015625 
L 88.921875 0 
L 79.890625 0 
L 79.890625 32.71875 
Q 79.890625 40.578125 77.09375 44.375 
Q 74.3125 48.1875 68.609375 48.1875 
Q 61.625 48.1875 57.5625 43.546875 
Q 53.515625 38.921875 53.515625 30.90625 
L 53.515625 0 
L 44.484375 0 
L 44.484375 32.71875 
Q 44.484375 40.625 41.703125 44.40625 
Q 38.921875 48.1875 33.109375 48.1875 
Q 26.21875 48.1875 22.15625 43.53125 
Q 18.109375 38.875 18.109375 30.90625 
L 18.109375 0 
L 9.078125 0 
L 9.078125 54.6875 
L 18.109375 54.6875 
L 18.109375 46.1875 
Q 21.1875 51.21875 25.484375 53.609375 
Q 29.78125 56 35.6875 56 
Q 41.65625 56 45.828125 52.96875 
Q 50 49.953125 52 44.1875 
z
" id="DejaVuSans-6d"/>
      <path d="M 18.109375 8.203125 
L 18.109375 -20.796875 
L 9.078125 -20.796875 
L 9.078125 54.6875 
L 18.109375 54.6875 
L 18.109375 46.390625 
Q 20.953125 51.265625 25.265625 53.625 
Q 29.59375 56 35.59375 56 
Q 45.5625 56 51.78125 48.09375 
Q 58.015625 40.1875 58.015625 27.296875 
Q 58.015625 14.40625 51.78125 6.484375 
Q 45.5625 -1.421875 35.59375 -1.421875 
Q 29.59375 -1.421875 25.265625 0.953125 
Q 20.953125 3.328125 18.109375 8.203125 
z
M 48.6875 27.296875 
Q 48.6875 37.203125 44.609375 42.84375 
Q 40.53125 48.484375 33.40625 48.484375 
Q 26.265625 48.484375 22.1875 42.84375 
Q 18.109375 37.203125 18.109375 27.296875 
Q 18.109375 17.390625 22.1875 11.75 
Q 26.265625 6.109375 33.40625 6.109375 
Q 40.53125 6.109375 44.609375 11.75 
Q 48.6875 17.390625 48.6875 27.296875 
z
" id="DejaVuSans-70"/>
      <path d="M 9.421875 75.984375 
L 18.40625 75.984375 
L 18.40625 0 
L 9.421875 0 
z
" id="DejaVuSans-6c"/>
      <path d="M 9.421875 54.6875 
L 18.40625 54.6875 
L 18.40625 0 
L 9.421875 0 
z
M 9.421875 75.984375 
L 18.40625 75.984375 
L 18.40625 64.59375 
L 9.421875 64.59375 
z
" id="DejaVuSans-69"/>
      <path d="M 18.3125 70.21875 
L 18.3125 54.6875 
L 36.8125 54.6875 
L 36.8125 47.703125 
L 18.3125 47.703125 
L 18.3125 18.015625 
Q 18.3125 11.328125 20.140625 9.421875 
Q 21.96875 7.515625 27.59375 7.515625 
L 36.8125 7.515625 
L 36.8125 0 
L 27.59375 0 
Q 17.1875 0 13.234375 3.875 
Q 9.28125 7.765625 9.28125 18.015625 
L 9.28125 47.703125 
L 2.6875 47.703125 
L 2.6875 54.6875 
L 9.28125 54.6875 
L 9.28125 70.21875 
z
" id="DejaVuSans-74"/>
      <path d="M 45.40625 46.390625 
L 45.40625 75.984375 
L 54.390625 75.984375 
L 54.390625 0 
L 45.40625 0 
L 45.40625 8.203125 
Q 42.578125 3.328125 38.25 0.953125 
Q 33.9375 -1.421875 27.875 -1.421875 
Q 17.96875 -1.421875 11.734375 6.484375 
Q 5.515625 14.40625 5.515625 27.296875 
Q 5.515625 40.1875 11.734375 48.09375 
Q 17.96875 56 27.875 56 
Q 33.9375 56 38.25 53.625 
Q 42.578125 51.265625 45.40625 46.390625 
z
M 14.796875 27.296875 
Q 14.796875 17.390625 18.875 11.75 
Q 22.953125 6.109375 30.078125 6.109375 
Q 37.203125 6.109375 41.296875 11.75 
Q 45.40625 17.390625 45.40625 27.296875 
Q 45.40625 37.203125 41.296875 42.84375 
Q 37.203125 48.484375 30.078125 48.484375 
Q 22.953125 48.484375 18.875 42.84375 
Q 14.796875 37.203125 14.796875 27.296875 
z
" id="DejaVuSans-64"/>
      <path d="M 30.609375 48.390625 
Q 23.390625 48.390625 19.1875 42.75 
Q 14.984375 37.109375 14.984375 27.296875 
Q 14.984375 17.484375 19.15625 11.84375 
Q 23.34375 6.203125 30.609375 6.203125 
Q 37.796875 6.203125 41.984375 11.859375 
Q 46.1875 17.53125 46.1875 27.296875 
Q 46.1875 37.015625 41.984375 42.703125 
Q 37.796875 48.390625 30.609375 48.390625 
z
M 30.609375 56 
Q 42.328125 56 49.015625 48.375 
Q 55.71875 40.765625 55.71875 27.296875 
Q 55.71875 13.875 49.015625 6.21875 
Q 42.328125 -1.421875 30.609375 -1.421875 
Q 18.84375 -1.421875 12.171875 6.21875 
Q 5.515625 13.875 5.515625 27.296875 
Q 5.515625 40.765625 12.171875 48.375 
Q 18.84375 56 30.609375 56 
z
" id="DejaVuSans-6f"/>
     </defs>
     <g transform="translate(14.798438 183.785781)rotate(-90)scale(0.1 -0.1)">
      <use xlink:href="#DejaVuSans-41"/>
      <use x="68.408203" xlink:href="#DejaVuSans-6d"/>
      <use x="165.820312" xlink:href="#DejaVuSans-70"/>
      <use x="229.296875" xlink:href="#DejaVuSans-6c"/>
      <use x="257.080078" xlink:href="#DejaVuSans-69"/>
      <use x="284.863281" xlink:href="#DejaVuSans-74"/>
      <use x="324.072266" xlink:href="#DejaVuSans-75"/>
      <use x="387.451172" xlink:href="#DejaVuSans-64"/>
      <use x="450.927734" xlink:href="#DejaVuSans-65"/>
      <use x="512.451172" xlink:href="#DejaVuSans-20"/>
      <use x="544.238281" xlink:href="#DejaVuSans-5b"/>
      <use x="583.251953" xlink:href="#DejaVuSans-6e"/>
      <use x="646.630859" xlink:href="#DejaVuSans-6f"/>
      <use x="707.8125" xlink:href="#DejaVuSans-72"/>
      <use x="748.910156" xlink:href="#DejaVuSans-6d"/>
      <use x="846.322266" xlink:href="#DejaVuSans-69"/>
      <use x="874.105469" xlink:href="#DejaVuSans-65"/>
      <use x="935.628906" xlink:href="#DejaVuSans-72"/>
      <use x="976.742188" xlink:href="#DejaVuSans-74"/>
      <use x="1015.951172" xlink:href="#DejaVuSans-5d"/>
     </g>
    </g>
   </g>
   <g id="line2d_17">
    <path clip-path="url(#p2ee19c6108)" d="M 51.997461 204.992477 
L 53.632227 205.256496 
L 55.675684 204.937776 
L 56.901758 204.890222 
L 58.945215 204.465668 
L 60.988672 203.798615 
L 63.44082 203.634643 
L 64.666895 203.240766 
L 65.484277 203.146555 
L 67.119043 203.080476 
L 70.797266 202.724141 
L 72.840723 202.356377 
L 74.066797 202.145296 
L 76.110254 201.512718 
L 78.153711 201.265674 
L 79.788477 200.887248 
L 81.014551 200.798672 
L 82.240625 200.743373 
L 83.466699 200.289132 
L 84.284082 200.318752 
L 85.101465 200.375569 
L 85.918848 200.062353 
L 87.962305 198.797225 
L 88.779688 198.714523 
L 90.414453 198.729838 
L 91.640527 198.590177 
L 92.866602 198.266754 
L 96.136133 198.140975 
L 97.362207 198.337555 
L 98.17959 198.296503 
L 98.996973 198.081104 
L 99.814355 197.670249 
L 101.04043 196.703534 
L 102.675195 195.327217 
L 105.944727 193.275292 
L 110.031641 192.039975 
L 112.89248 190.170222 
L 114.527246 188.976254 
L 118.205469 186.483147 
L 119.840234 185.626669 
L 121.066309 185.128195 
L 121.883691 184.893203 
L 122.701074 184.404565 
L 125.970605 181.690838 
L 127.605371 180.282753 
L 128.831445 179.161645 
L 130.466211 177.697926 
L 132.509668 176.113087 
L 134.144434 174.677964 
L 135.779199 173.699353 
L 136.596582 172.932684 
L 140.274805 168.910695 
L 141.90957 167.488603 
L 143.544336 166.120005 
L 144.361719 165.02424 
L 145.587793 163.34018 
L 148.039941 160.892879 
L 150.900781 157.066553 
L 152.944238 154.911755 
L 154.170313 153.163039 
L 155.396387 151.45395 
L 157.848535 148.555398 
L 159.483301 146.043324 
L 160.709375 144.292088 
L 162.752832 141.650851 
L 165.20498 138.14493 
L 166.431055 136.150053 
L 168.06582 133.820368 
L 171.744043 127.29053 
L 173.7875 124.209806 
L 179.50918 113.694742 
L 186.048242 100.674809 
L 189.726465 92.850887 
L 190.952539 90.146856 
L 193.813379 83.461409 
L 197.491602 75.909349 
L 199.535059 70.625 
L 201.578516 66.344939 
L 203.213281 61.158417 
L 206.482813 53.301926 
L 207.708887 50.592448 
L 210.161035 44.917031 
L 211.387109 42.55305 
L 212.204492 41.284151 
L 213.430566 39.840202 
L 214.247949 39.304087 
L 215.065332 39.077317 
L 215.474023 39.044279 
L 215.882715 39.134414 
L 216.291406 39.399925 
L 217.51748 40.673609 
L 218.334863 40.994238 
L 218.743555 41.431451 
L 219.152246 42.629679 
L 219.560938 44.804031 
L 221.195703 56.445352 
L 222.013086 59.854063 
L 224.056543 65.956537 
L 226.1 74.022225 
L 227.734766 80.263319 
L 231.004297 91.84732 
L 233.047754 98.173324 
L 235.908594 106.499574 
L 237.543359 111.382722 
L 239.178125 115.767665 
L 241.221582 120.871369 
L 242.856348 125.020962 
L 247.760645 136.230484 
L 249.804102 140.635351 
L 259.612695 158.290957 
L 262.064844 161.912836 
L 263.290918 163.547024 
L 265.334375 166.446745 
L 269.421289 171.602023 
L 270.647363 172.964898 
L 272.282129 174.574855 
L 275.960352 178.702892 
L 278.003809 180.288859 
L 278.821191 180.913492 
L 280.455957 182.582525 
L 282.090723 183.361975 
L 284.542871 185.752834 
L 286.99502 187.316989 
L 288.629785 188.791734 
L 289.447168 189.185296 
L 291.490625 189.728863 
L 292.716699 190.67763 
L 293.942773 191.594435 
L 295.98623 192.742447 
L 296.803613 192.919886 
L 297.620996 193.062809 
L 298.438379 193.565071 
L 299.255762 194.231481 
L 300.073145 194.59254 
L 300.890527 194.854159 
L 302.525293 195.582487 
L 303.342676 195.848582 
L 305.386133 196.803533 
L 310.699121 198.131521 
L 311.925195 198.287128 
L 316.012109 199.575871 
L 317.238184 199.86049 
L 318.464258 199.996231 
L 320.507715 200.492969 
L 321.733789 200.56279 
L 322.959863 200.986795 
L 324.185938 201.392758 
L 325.00332 201.460505 
L 326.638086 201.362363 
L 329.498926 202.175705 
L 334.811914 203.159531 
L 336.855371 202.785736 
L 338.081445 203.02357 
L 339.30752 203.582696 
L 340.124902 203.948402 
L 341.759668 204.31129 
L 342.985742 204.421235 
L 344.620508 204.346281 
L 345.437891 204.714966 
L 346.663965 205.302344 
L 347.481348 205.436469 
L 350.750879 205.463789 
L 351.568262 205.360358 
L 353.203027 204.765811 
L 354.429102 204.79018 
L 356.88125 205.058164 
L 359.74209 205.234863 
L 360.559473 205.223156 
L 362.194238 205.373961 
L 363.420313 205.51062 
L 364.237695 205.609128 
L 365.055078 205.472028 
L 366.689844 205.125678 
L 367.507227 205.028332 
L 368.324609 205.200096 
L 369.550684 205.653868 
L 370.368066 205.633394 
L 372.002832 205.262547 
L 372.820215 205.331153 
L 374.046289 205.580854 
L 375.681055 205.657616 
L 376.907129 205.988578 
L 377.724512 205.957164 
L 380.994043 205.443156 
L 382.220117 205.683877 
L 383.0375 205.746476 
L 384.672266 205.660841 
L 385.89834 205.758957 
L 387.124414 205.616154 
L 387.124414 205.616154 
" style="fill:none;stroke:#1f77b4;stroke-linecap:square;stroke-width:1.5;"/>
   </g>
   <g id="line2d_18">
    <path clip-path="url(#p2ee19c6108)" d="M 51.997461 205.364567 
L 52.406152 205.722703 
L 52.814844 205.852343 
L 53.223535 205.698377 
L 54.040918 205.228781 
L 54.449609 205.264647 
L 55.266992 205.938175 
L 55.675684 206.24569 
L 56.084375 206.237964 
L 56.493066 205.82828 
L 57.310449 204.527112 
L 57.719141 204.186215 
L 58.127832 204.172276 
L 59.353906 204.517289 
L 59.762598 204.572406 
L 60.171289 204.74322 
L 61.397363 205.581319 
L 61.806055 205.517857 
L 62.214746 205.198617 
L 63.44082 203.932664 
L 63.849512 203.74832 
L 64.258203 203.730814 
L 64.666895 203.933666 
L 65.484277 205.0248 
L 65.892969 205.585035 
L 66.30166 205.875992 
L 66.710352 205.870283 
L 68.753809 204.868512 
L 69.571191 204.019343 
L 69.979883 203.823739 
L 71.205957 204.00593 
L 72.432031 203.283298 
L 72.840723 203.426304 
L 73.658105 204.155805 
L 74.066797 204.143444 
L 75.292871 203.032129 
L 75.701563 203.115148 
L 77.336328 204.553416 
L 77.74502 204.59303 
L 78.562402 204.222727 
L 78.971094 204.023981 
L 79.379785 203.985088 
L 80.605859 204.32587 
L 82.240625 203.808872 
L 83.058008 203.725732 
L 83.466699 203.55345 
L 84.284082 202.816083 
L 85.101465 202.023596 
L 85.918848 201.430436 
L 86.327539 201.268407 
L 86.73623 201.294908 
L 87.962305 201.707818 
L 89.59707 201.712162 
L 90.005762 201.501547 
L 90.823145 200.605781 
L 91.231836 200.145099 
L 91.640527 199.919387 
L 92.049219 200.061884 
L 92.45791 200.571023 
L 93.275293 201.981441 
L 93.683984 202.423314 
L 94.092676 202.520024 
L 94.501367 202.316571 
L 96.136133 200.990848 
L 97.362207 200.297474 
L 97.770898 200.174903 
L 98.588281 200.269916 
L 100.223047 200.614278 
L 101.449121 200.326961 
L 102.266504 200.005024 
L 103.492578 198.984438 
L 103.90127 198.975239 
L 104.309961 199.25095 
L 105.127344 200.106014 
L 105.536035 200.262317 
L 105.944727 200.065963 
L 107.170801 198.748948 
L 107.579492 198.607094 
L 108.805566 198.480751 
L 110.031641 198.114715 
L 111.257715 198.05885 
L 112.89248 197.36712 
L 113.709863 196.884759 
L 114.118555 196.793556 
L 114.527246 196.917333 
L 117.388086 198.972095 
L 117.796777 198.819347 
L 118.205469 198.07726 
L 119.431543 194.731856 
L 119.840234 194.299324 
L 120.657617 194.074739 
L 121.883691 193.971935 
L 122.292383 193.74785 
L 123.109766 192.727713 
L 123.518457 192.201116 
L 123.927148 191.86574 
L 124.33584 191.798243 
L 125.561914 192.309049 
L 125.970605 192.189495 
L 127.19668 191.335996 
L 128.422754 191.037715 
L 129.240137 190.993403 
L 130.466211 191.346429 
L 130.874902 191.141744 
L 131.283594 190.686361 
L 132.918359 187.958544 
L 133.327051 187.71385 
L 134.144434 187.565558 
L 134.553125 187.277016 
L 136.187891 185.324441 
L 137.005273 184.787634 
L 137.822656 183.929498 
L 138.231348 183.7353 
L 139.457422 183.883508 
L 140.274805 183.50916 
L 142.318262 183.550697 
L 142.726953 183.442334 
L 143.135645 183.173488 
L 143.953027 181.989813 
L 144.77041 180.801749 
L 145.587793 179.787661 
L 146.405176 178.453724 
L 146.813867 178.074687 
L 147.222559 177.995848 
L 148.039941 178.154077 
L 148.448633 178.123775 
L 148.857324 177.909991 
L 149.266016 177.44202 
L 150.083398 175.84199 
L 150.900781 174.184917 
L 151.309473 173.659802 
L 151.718164 173.467147 
L 152.126855 173.596062 
L 153.35293 174.463939 
L 153.761621 174.424351 
L 154.170313 174.14015 
L 154.987695 173.118153 
L 156.622461 170.49956 
L 157.031152 170.145033 
L 158.257227 169.509369 
L 158.665918 168.922152 
L 159.891992 166.415587 
L 160.300684 165.892727 
L 160.709375 165.65299 
L 161.935449 165.400176 
L 162.752832 164.69354 
L 164.387598 162.953711 
L 166.022363 161.395409 
L 166.839746 159.51322 
L 167.657129 157.667392 
L 168.474512 156.129696 
L 169.291895 154.3909 
L 169.700586 153.877988 
L 170.109277 153.776206 
L 170.92666 154.081985 
L 171.335352 153.946224 
L 171.744043 153.383871 
L 172.561426 151.128268 
L 173.378809 148.646567 
L 174.196191 146.980498 
L 175.422266 144.576882 
L 175.830957 144.132779 
L 176.239648 144.089309 
L 176.64834 144.182299 
L 177.057031 143.960021 
L 177.465723 143.114682 
L 178.691797 138.94665 
L 179.100488 138.114446 
L 179.917871 136.953629 
L 180.735254 135.172464 
L 181.552637 133.109578 
L 181.961328 132.418963 
L 182.778711 131.706201 
L 183.596094 130.964573 
L 184.413477 129.697491 
L 186.048242 126.570709 
L 186.865625 124.343865 
L 188.091699 120.823854 
L 190.952539 114.442473 
L 191.36123 113.805439 
L 192.178613 112.902547 
L 192.587305 112.058888 
L 193.404688 109.131678 
L 195.039453 102.345066 
L 195.856836 100.038447 
L 197.08291 97.841295 
L 197.900293 95.430742 
L 198.717676 92.974762 
L 199.94375 90.232098 
L 200.352441 88.570345 
L 201.169824 83.140512 
L 201.578516 80.334958 
L 201.987207 78.462926 
L 202.395898 77.684572 
L 203.213281 77.179843 
L 203.621973 76.554242 
L 204.439355 74.632241 
L 205.256738 72.142796 
L 206.074121 69.093654 
L 209.343652 55.433451 
L 211.387109 47.363018 
L 212.204492 44.073101 
L 213.021875 41.777425 
L 213.839258 40.430629 
L 214.656641 39.636221 
L 215.474023 39.127873 
L 215.882715 39.044279 
L 216.291406 39.13985 
L 217.108789 39.549532 
L 217.926172 39.687568 
L 218.334863 40.351258 
L 218.743555 42.308461 
L 219.152246 45.962249 
L 220.37832 59.451278 
L 220.787012 61.725377 
L 221.604395 64.292478 
L 223.23916 68.997332 
L 224.056543 72.182933 
L 226.508691 83.272955 
L 228.96084 92.409654 
L 230.186914 97.869992 
L 233.456445 108.707655 
L 236.725977 120.833724 
L 238.360742 126.078956 
L 239.178125 128.05597 
L 239.995508 129.393842 
L 240.812891 130.404381 
L 241.221582 131.216368 
L 242.038965 133.719043 
L 243.265039 137.819476 
L 244.491113 140.564842 
L 246.53457 146.769455 
L 247.351953 148.765013 
L 248.169336 149.982649 
L 248.986719 151.105373 
L 250.212793 153.631612 
L 251.847559 156.929104 
L 254.299707 160.825301 
L 255.11709 161.836588 
L 255.525781 162.559554 
L 256.343164 164.945756 
L 256.751855 166.198989 
L 257.160547 167.047483 
L 257.569238 167.394767 
L 258.386621 167.467535 
L 258.795313 167.669306 
L 259.612695 168.54639 
L 260.430078 169.670096 
L 261.247461 171.282967 
L 262.882227 175.006517 
L 263.290918 175.672888 
L 263.699609 176.119756 
L 264.516992 176.517928 
L 265.334375 176.796625 
L 265.743066 177.109292 
L 266.560449 178.270071 
L 267.377832 179.28908 
L 268.603906 180.025997 
L 270.238672 181.530902 
L 271.056055 182.316322 
L 272.282129 183.798503 
L 273.916895 185.247915 
L 274.734277 186.286002 
L 275.55166 187.489908 
L 275.960352 187.829298 
L 276.369043 187.84402 
L 276.777734 187.561492 
L 277.595117 186.695073 
L 278.003809 186.43973 
L 278.4125 186.449656 
L 278.821191 186.81818 
L 279.229883 187.615873 
L 280.864648 192.238092 
L 281.27334 192.414418 
L 281.682031 191.879837 
L 282.499414 190.131873 
L 282.908105 189.842787 
L 283.316797 190.151745 
L 284.13418 191.786285 
L 284.542871 192.588638 
L 284.951563 193.08913 
L 285.360254 193.226811 
L 286.177637 193.116797 
L 286.586328 193.301612 
L 287.403711 193.826329 
L 287.812402 193.820035 
L 288.629785 193.657393 
L 289.038477 193.878868 
L 289.855859 195.061266 
L 290.673242 196.267408 
L 291.081934 196.569697 
L 291.490625 196.640486 
L 293.125391 196.222402 
L 294.760156 196.617093 
L 295.577539 196.397017 
L 295.98623 196.487715 
L 296.803613 197.193262 
L 297.620996 197.861009 
L 298.438379 198.484814 
L 299.664453 199.712758 
L 300.481836 200.169714 
L 301.70791 200.761947 
L 302.525293 201.205618 
L 303.342676 201.422376 
L 304.56875 201.496686 
L 305.386133 201.141351 
L 306.203516 200.673776 
L 306.612207 200.616258 
L 307.020898 200.763744 
L 308.246973 201.726222 
L 308.655664 201.741028 
L 311.925195 200.333913 
L 312.333887 200.417669 
L 313.15127 201.036842 
L 314.377344 202.17678 
L 316.829492 203.505589 
L 318.055566 202.971999 
L 318.464258 203.271262 
L 319.690332 205.029402 
L 320.099023 205.16005 
L 320.916406 204.819842 
L 321.733789 204.288077 
L 322.551172 203.688349 
L 322.959863 203.584524 
L 323.777246 203.849894 
L 325.00332 204.572477 
L 325.820703 205.005448 
L 326.229395 204.909059 
L 327.046777 204.236139 
L 327.455469 204.105828 
L 327.86416 204.274137 
L 328.681543 204.752625 
L 329.907617 204.434718 
L 330.316309 204.651826 
L 331.133691 205.352689 
L 331.542383 205.457095 
L 331.951074 205.240541 
L 332.768457 204.27395 
L 333.177148 204.021561 
L 333.58584 204.120702 
L 335.220605 205.50918 
L 335.629297 205.568453 
L 336.44668 205.363731 
L 337.264063 204.860057 
L 339.30752 203.395919 
L 339.716211 203.199011 
L 340.124902 203.14951 
L 340.533594 203.288973 
L 341.759668 204.274713 
L 342.168359 204.328532 
L 342.985742 204.183513 
L 343.394434 204.505022 
L 345.029199 207.097524 
L 345.437891 207.268587 
L 345.846582 207.221597 
L 346.663965 206.696527 
L 347.481348 206.232598 
L 347.890039 206.233235 
L 349.116113 206.540143 
L 351.15957 206.128279 
L 352.385645 206.39738 
L 353.203027 206.666285 
L 353.611719 206.654802 
L 354.02041 206.426479 
L 354.837793 205.314672 
L 355.246484 204.706744 
L 355.655176 204.372375 
L 356.063867 204.450426 
L 356.472559 204.888488 
L 357.698633 206.626434 
L 358.107324 206.902069 
L 358.516016 206.858686 
L 359.333398 206.073624 
L 359.74209 205.705703 
L 360.150781 205.52156 
L 360.559473 205.519354 
L 361.376855 205.862682 
L 362.194238 206.295701 
L 363.011621 206.451338 
L 363.829004 206.541207 
L 364.646387 206.768335 
L 365.055078 206.681816 
L 366.281152 205.809287 
L 366.689844 205.933076 
L 367.915918 206.984693 
L 369.959375 207.823113 
L 370.368066 207.828805 
L 370.776758 207.588322 
L 372.411523 205.842251 
L 372.820215 205.910397 
L 374.046289 207.0988 
L 374.45498 207.140059 
L 375.681055 206.338476 
L 376.089746 206.33136 
L 376.907129 206.775113 
L 378.133203 207.423839 
L 378.541895 207.51444 
L 378.950586 207.476508 
L 379.359277 207.262498 
L 379.767969 206.845707 
L 380.585352 205.680863 
L 380.994043 205.317134 
L 381.402734 205.305469 
L 382.628809 206.112869 
L 383.446191 206.184172 
L 383.854883 206.21916 
L 385.080957 206.741523 
L 385.489648 206.644479 
L 386.307031 206.01472 
L 386.715723 205.912645 
L 387.124414 206.103249 
L 387.124414 206.103249 
" style="fill:none;stroke:#ff7f0e;stroke-linecap:square;stroke-width:1.5;"/>
   </g>
   <g id="line2d_19">
    <path clip-path="url(#p2ee19c6108)" d="M 51.997461 204.389053 
L 52.406152 205.96094 
L 53.632227 213.842997 
L 54.040918 214.78329 
L 54.449609 214.396854 
L 54.858301 212.981903 
L 55.266992 210.744096 
L 56.084375 204.992486 
L 56.493066 203.167756 
L 56.901758 203.179857 
L 58.127832 208.083358 
L 58.536523 208.134039 
L 59.353906 206.372226 
L 60.57998 203.553772 
L 60.988672 203.430296 
L 61.397363 204.328483 
L 62.214746 207.486061 
L 62.623438 208.045161 
L 63.032129 207.403493 
L 64.258203 202.907361 
L 65.484277 197.265921 
L 65.892969 196.401331 
L 66.30166 196.272289 
L 66.710352 196.715561 
L 67.119043 197.811751 
L 68.345117 202.906876 
L 68.753809 203.454863 
L 69.1625 203.376566 
L 69.571191 203.163131 
L 69.979883 203.100744 
L 70.797266 203.200153 
L 71.205957 202.999063 
L 72.432031 201.288184 
L 72.840723 201.206569 
L 73.249414 201.482742 
L 73.658105 202.209515 
L 74.066797 203.725614 
L 75.292871 210.62269 
L 75.701563 211.117568 
L 76.110254 210.31807 
L 76.927637 207.521201 
L 77.336328 206.765688 
L 77.74502 206.621369 
L 78.153711 206.892241 
L 78.562402 207.503652 
L 78.971094 208.54834 
L 79.788477 211.059928 
L 80.197168 210.872769 
L 80.605859 208.780827 
L 81.423242 202.410062 
L 81.831934 201.46315 
L 82.240625 202.833315 
L 82.649316 205.250274 
L 83.058008 206.962966 
L 83.466699 207.006689 
L 83.875391 205.603032 
L 84.692773 201.82575 
L 85.510156 199.059562 
L 85.918848 198.074324 
L 86.327539 197.865005 
L 86.73623 198.874972 
L 88.370996 207.01429 
L 88.779688 206.89663 
L 89.188379 205.92172 
L 90.005762 202.595118 
L 90.414453 200.886294 
L 90.823145 199.956816 
L 91.231836 200.276292 
L 92.049219 203.510175 
L 92.45791 204.951008 
L 92.866602 205.670047 
L 93.275293 205.751825 
L 93.683984 205.344956 
L 94.092676 204.46133 
L 95.31875 200.211605 
L 95.727441 199.801225 
L 96.136133 200.531892 
L 96.953516 202.99562 
L 97.770898 204.485441 
L 98.588281 207.098644 
L 99.405664 210.476244 
L 100.631738 217.745873 
L 101.04043 218.50211 
L 101.449121 217.959025 
L 102.675195 213.984854 
L 103.492578 212.581097 
L 103.90127 211.425676 
L 105.127344 205.909082 
L 105.536035 205.293632 
L 105.944727 205.70056 
L 106.353418 207.056774 
L 107.170801 211.085997 
L 107.579492 212.379074 
L 107.988184 212.467249 
L 108.396875 211.132893 
L 108.805566 208.412935 
L 109.622949 201.747412 
L 110.031641 199.91895 
L 110.440332 199.364853 
L 111.257715 199.255746 
L 111.666406 199.339709 
L 112.483789 200.187267 
L 112.89248 199.919895 
L 113.301172 198.636556 
L 113.709863 196.822702 
L 114.118555 195.520812 
L 114.527246 195.590895 
L 114.935938 197.173371 
L 116.162012 205.073986 
L 116.570703 206.413768 
L 116.979395 206.344806 
L 117.388086 204.983309 
L 118.205469 200.822744 
L 118.61416 199.827116 
L 119.022852 200.367797 
L 120.248926 204.879416 
L 120.657617 205.49572 
L 121.066309 205.784701 
L 121.475 205.448354 
L 121.883691 203.987645 
L 122.701074 199.486744 
L 123.109766 198.753353 
L 123.518457 199.792924 
L 124.744531 206.963014 
L 125.153223 207.336007 
L 125.561914 206.085132 
L 126.379297 202.816745 
L 126.787988 202.264381 
L 127.19668 202.055379 
L 128.422754 200.934481 
L 129.240137 201.793788 
L 129.648828 201.644434 
L 130.05752 200.738508 
L 130.466211 199.555517 
L 130.874902 198.839369 
L 131.283594 199.076782 
L 132.100977 201.203803 
L 132.509668 201.424602 
L 132.918359 200.456509 
L 133.327051 198.918567 
L 133.735742 197.922696 
L 134.144434 198.176847 
L 134.553125 199.597844 
L 135.779199 205.799446 
L 136.187891 207.148195 
L 136.596582 207.644296 
L 137.005273 207.011684 
L 137.413965 205.078204 
L 138.640039 196.674122 
L 139.04873 195.983079 
L 139.457422 196.912108 
L 140.683496 203.46307 
L 141.092188 203.923617 
L 141.500879 203.043349 
L 141.90957 201.696079 
L 142.318262 200.779235 
L 142.726953 200.613455 
L 143.544336 201.247538 
L 143.953027 201.117117 
L 144.361719 200.437135 
L 146.405176 195.369287 
L 146.813867 194.7938 
L 147.222559 194.923495 
L 147.63125 195.796826 
L 148.448633 197.874018 
L 148.857324 198.281872 
L 149.266016 198.288773 
L 150.49209 197.5551 
L 150.900781 197.242929 
L 151.309473 196.443527 
L 152.126855 193.72819 
L 152.535547 193.258029 
L 152.944238 193.887373 
L 154.170313 197.256787 
L 154.987695 198.502155 
L 155.396387 198.507351 
L 155.805078 197.719354 
L 156.622461 195.087439 
L 157.031152 194.372574 
L 157.439844 194.175523 
L 157.848535 194.129906 
L 158.257227 193.853188 
L 158.665918 193.00889 
L 159.074609 191.307157 
L 159.891992 185.341151 
L 160.300684 182.077641 
L 160.709375 179.908864 
L 161.118066 179.887238 
L 161.526758 182.363852 
L 162.344141 189.69354 
L 162.752832 190.701878 
L 163.161523 189.142957 
L 163.978906 184.286607 
L 164.387598 184.096541 
L 164.796289 185.956317 
L 165.613672 192.175068 
L 166.022363 193.924818 
L 166.431055 193.355903 
L 166.839746 190.301295 
L 167.657129 181.483391 
L 168.06582 179.374854 
L 168.474512 179.856382 
L 169.291895 183.171548 
L 169.700586 183.404328 
L 170.517969 182.096485 
L 171.335352 180.495825 
L 172.561426 177.37643 
L 173.7875 174.952557 
L 174.604883 171.911053 
L 175.013574 171.262848 
L 175.422266 172.497482 
L 176.64834 182.653392 
L 177.057031 183.485433 
L 177.465723 182.644378 
L 178.283105 179.368807 
L 179.100488 174.191298 
L 179.50918 171.681466 
L 179.917871 170.619007 
L 180.326563 171.279419 
L 180.735254 172.785059 
L 181.143945 173.833467 
L 181.552637 173.685846 
L 181.961328 172.441389 
L 183.596094 165.122839 
L 184.004785 164.643326 
L 184.413477 164.860654 
L 185.230859 165.854194 
L 185.639551 166.656713 
L 186.048242 168.081696 
L 186.865625 171.513768 
L 187.274316 171.710215 
L 187.683008 170.028184 
L 188.500391 162.806921 
L 189.317773 156.092531 
L 189.726465 154.169132 
L 190.135156 153.612632 
L 190.543848 154.621544 
L 191.769922 161.617296 
L 192.178613 161.963379 
L 192.587305 160.17197 
L 192.995996 156.250685 
L 194.22207 141.292667 
L 195.448145 133.029304 
L 195.856836 130.668736 
L 196.265527 129.307494 
L 196.674219 129.174215 
L 197.08291 130.046537 
L 198.308984 134.796089 
L 198.717676 135.1772 
L 199.126367 134.782854 
L 199.94375 133.535212 
L 200.352441 132.31065 
L 200.761133 129.629956 
L 201.169824 124.970225 
L 201.987207 113.561622 
L 202.395898 110.664547 
L 202.80459 110.636796 
L 203.621973 113.73116 
L 204.030664 114.299644 
L 204.439355 113.695378 
L 205.66543 109.556534 
L 206.074121 109.752548 
L 206.482813 110.388073 
L 206.891504 110.014373 
L 207.300195 107.782175 
L 208.117578 101.078551 
L 208.52627 99.107893 
L 209.343652 97.087527 
L 209.752344 95.366406 
L 210.569727 90.154395 
L 211.387109 81.960804 
L 212.204492 73.509185 
L 212.613184 71.549198 
L 213.430566 69.773812 
L 213.839258 67.943674 
L 215.065332 60.795872 
L 215.474023 59.746461 
L 215.882715 59.528417 
L 216.291406 59.626982 
L 216.700098 59.032153 
L 217.108789 56.419173 
L 217.51748 51.036303 
L 217.926172 44.021548 
L 218.334863 39.044279 
L 218.743555 41.05173 
L 219.152246 52.962378 
L 219.969629 92.489919 
L 220.37832 105.885258 
L 220.787012 110.114444 
L 221.195703 107.581213 
L 222.013086 98.338779 
L 222.421777 96.332638 
L 222.830469 96.432566 
L 223.23916 97.875159 
L 225.282617 108.223088 
L 226.1 111.470912 
L 226.917383 115.2927 
L 227.326074 115.934177 
L 227.734766 115.489362 
L 228.143457 114.747268 
L 228.552148 114.578052 
L 228.96084 115.301156 
L 229.778223 118.298511 
L 231.004297 123.680506 
L 231.82168 128.53341 
L 233.047754 137.517282 
L 233.456445 138.993836 
L 233.865137 139.589377 
L 234.273828 139.971964 
L 234.68252 140.6099 
L 235.499902 142.708736 
L 235.908594 144.229967 
L 236.725977 148.863802 
L 237.134668 151.344759 
L 237.543359 153.086596 
L 237.952051 153.625351 
L 238.360742 152.895426 
L 239.586816 148.107232 
L 239.995508 148.202472 
L 240.404199 149.961509 
L 241.630273 158.844989 
L 242.038965 159.972047 
L 242.447656 160.087138 
L 242.856348 160.372583 
L 243.265039 161.811927 
L 244.491113 169.032243 
L 244.899805 169.428545 
L 245.717188 167.895957 
L 246.125879 168.212772 
L 246.943262 170.779006 
L 247.351953 170.978122 
L 248.169336 169.802946 
L 248.578027 170.38966 
L 248.986719 172.43495 
L 250.212793 181.836741 
L 250.621484 183.105559 
L 251.030176 182.822315 
L 251.438867 181.514838 
L 252.25625 178.286727 
L 252.664941 177.502914 
L 253.073633 177.799124 
L 253.891016 179.943129 
L 254.299707 180.642351 
L 255.11709 181.503917 
L 256.751855 183.665394 
L 257.160547 184.01776 
L 257.569238 183.918191 
L 258.386621 182.460887 
L 258.795313 182.486489 
L 259.204004 183.558697 
L 260.021387 186.269494 
L 260.430078 186.800545 
L 261.247461 187.07157 
L 261.656152 187.881264 
L 262.473535 190.307166 
L 262.882227 190.243414 
L 263.290918 189.012848 
L 264.108301 186.146882 
L 264.516992 186.028586 
L 264.925684 187.328421 
L 265.334375 189.976562 
L 266.151758 196.400903 
L 266.560449 198.024545 
L 266.969141 197.848637 
L 267.786523 195.412288 
L 268.195215 195.327858 
L 268.603906 196.457237 
L 269.421289 201.175093 
L 269.82998 203.694185 
L 270.238672 205.059868 
L 270.647363 204.404454 
L 271.056055 201.763122 
L 271.873438 195.05842 
L 272.282129 193.1494 
L 272.69082 192.472345 
L 273.099512 192.667525 
L 273.508203 193.394849 
L 274.734277 196.280453 
L 275.142969 196.625558 
L 275.55166 196.24025 
L 275.960352 195.614908 
L 276.369043 195.792359 
L 276.777734 197.264756 
L 277.186426 199.285587 
L 277.595117 200.487496 
L 278.003809 200.030112 
L 278.821191 196.400608 
L 279.229883 196.052435 
L 279.638574 197.789155 
L 280.455957 202.950402 
L 280.864648 203.15618 
L 282.090723 198.150019 
L 282.499414 198.128749 
L 283.316797 199.124982 
L 284.13418 199.119382 
L 284.542871 199.504204 
L 286.586328 203.9133 
L 287.812402 209.244063 
L 288.221094 209.465009 
L 288.629785 208.370459 
L 289.038477 206.234655 
L 290.264551 197.673145 
L 290.673242 196.889745 
L 291.081934 197.862571 
L 291.899316 201.415598 
L 292.308008 202.539851 
L 293.125391 203.82211 
L 293.534082 204.038716 
L 293.942773 203.548926 
L 295.168848 199.557224 
L 295.577539 199.040012 
L 295.98623 199.428606 
L 297.212305 203.261789 
L 297.620996 203.012965 
L 298.438379 201.116643 
L 298.84707 201.196786 
L 299.664453 202.653289 
L 300.073145 202.95515 
L 300.481836 202.59591 
L 301.70791 199.634369 
L 302.116602 200.339901 
L 302.933984 203.616113 
L 303.342676 204.528386 
L 303.751367 204.516664 
L 304.160059 203.653196 
L 304.977441 200.602769 
L 305.386133 199.943979 
L 305.794824 200.926982 
L 307.020898 208.628744 
L 307.42959 209.624883 
L 307.838281 209.374048 
L 308.246973 208.169246 
L 309.881738 201.449638 
L 310.699121 199.190057 
L 311.107813 198.693948 
L 311.516504 198.997386 
L 311.925195 200.391767 
L 313.559961 210.009975 
L 313.968652 210.37552 
L 314.377344 209.945496 
L 314.786035 208.884289 
L 316.012109 203.659664 
L 316.420801 202.774022 
L 316.829492 202.310082 
L 317.238184 201.66311 
L 317.646875 200.73308 
L 318.055566 200.135099 
L 318.464258 200.573684 
L 319.281641 203.648124 
L 319.690332 204.234142 
L 320.099023 203.296112 
L 321.733789 195.109567 
L 322.14248 194.213147 
L 322.551172 193.804369 
L 322.959863 193.692516 
L 323.368555 193.775808 
L 323.777246 194.108152 
L 325.00332 196.216938 
L 325.412012 196.125903 
L 326.229395 194.799358 
L 326.638086 195.017231 
L 327.046777 196.406091 
L 328.681543 205.545887 
L 329.090234 206.739751 
L 329.498926 207.085929 
L 329.907617 206.399978 
L 330.316309 204.743101 
L 331.133691 200.691799 
L 331.542383 199.714723 
L 331.951074 199.89158 
L 332.359766 200.957675 
L 334.403223 208.222199 
L 334.811914 208.892003 
L 335.220605 208.81551 
L 335.629297 208.061741 
L 336.037988 206.998948 
L 336.44668 206.277773 
L 336.855371 206.432272 
L 337.672754 208.00876 
L 338.081445 207.688142 
L 338.490137 206.186157 
L 338.898828 204.248306 
L 339.30752 203.060479 
L 339.716211 203.414389 
L 340.124902 205.126248 
L 340.942285 209.411452 
L 341.350977 211.108691 
L 341.759668 212.122451 
L 342.168359 211.866704 
L 343.394434 206.944981 
L 343.803125 206.736187 
L 344.211816 206.901698 
L 344.620508 206.755074 
L 345.437891 205.856807 
L 345.846582 206.116678 
L 346.663965 208.415213 
L 347.072656 208.744706 
L 347.481348 207.541043 
L 348.29873 203.612625 
L 348.707422 203.257671 
L 349.116113 204.199124 
L 349.933496 206.535589 
L 350.750879 207.932658 
L 351.15957 208.420329 
L 351.568262 208.37141 
L 351.976953 208.062232 
L 352.385645 208.396224 
L 352.794336 209.97972 
L 353.611719 214.421856 
L 354.02041 215.06831 
L 354.429102 214.326026 
L 354.837793 213.168407 
L 355.246484 212.593159 
L 355.655176 212.648049 
L 356.063867 212.509397 
L 356.472559 211.533059 
L 357.289941 208.632735 
L 357.698633 207.931968 
L 358.107324 207.908093 
L 358.516016 208.592151 
L 358.924707 210.067347 
L 359.74209 213.418116 
L 360.150781 213.425326 
L 360.559473 211.786584 
L 361.376855 207.093146 
L 361.785547 206.531093 
L 362.194238 207.600449 
L 362.60293 209.196726 
L 363.011621 210.065694 
L 363.420313 209.957335 
L 363.829004 209.724558 
L 364.237695 210.298562 
L 365.055078 212.977933 
L 365.46377 213.225612 
L 365.872461 212.210854 
L 366.689844 208.958556 
L 367.098535 207.930129 
L 367.507227 207.388061 
L 367.915918 207.159908 
L 368.733301 207.200154 
L 369.550684 207.344441 
L 370.776758 207.978683 
L 371.185449 207.610948 
L 371.594141 206.417496 
L 372.411523 202.712078 
L 372.820215 201.791593 
L 373.228906 202.18171 
L 374.45498 206.489496 
L 374.863672 206.658687 
L 375.681055 205.202162 
L 376.089746 205.036017 
L 376.498438 205.545434 
L 377.724512 207.868596 
L 378.541895 210.494801 
L 378.950586 210.986288 
L 379.359277 210.315742 
L 380.17666 207.947875 
L 380.585352 207.426976 
L 380.994043 207.087683 
L 381.811426 206.050117 
L 382.220117 206.086071 
L 383.446191 208.024511 
L 383.854883 207.5747 
L 384.672266 205.731699 
L 385.080957 205.582809 
L 385.489648 206.426517 
L 385.89834 207.763415 
L 386.307031 208.675239 
L 386.715723 208.740217 
L 387.124414 208.417809 
L 387.124414 208.417809 
" style="fill:none;stroke:#2ca02c;stroke-linecap:square;stroke-width:1.5;"/>
   </g>
   <g id="line2d_20">
    <path clip-path="url(#p2ee19c6108)" d="M 51.997461 199.099733 
L 52.814844 211.422473 
L 53.223535 213.462381 
L 53.632227 210.762093 
L 54.449609 199.91946 
L 54.858301 197.551407 
L 55.266992 198.565143 
L 55.675684 202.459623 
L 57.310449 226.200985 
L 57.719141 226.255369 
L 58.127832 225.042321 
L 58.536523 224.489778 
L 58.945215 224.539335 
L 59.353906 223.879248 
L 60.171289 219.457537 
L 60.57998 217.424863 
L 61.397363 214.834266 
L 61.806055 214.167705 
L 62.623438 214.125358 
L 63.032129 212.531204 
L 63.44082 209.588808 
L 63.849512 208.058977 
L 64.258203 210.781297 
L 65.075586 223.706331 
L 65.484277 226.642188 
L 65.892969 225.433197 
L 67.119043 214.828786 
L 67.527734 213.705474 
L 67.936426 214.243746 
L 68.345117 215.307321 
L 68.753809 215.440431 
L 69.571191 212.836163 
L 69.979883 212.654409 
L 70.388574 213.970579 
L 71.614648 219.46011 
L 72.432031 222.521389 
L 72.840723 223.108064 
L 73.249414 222.503919 
L 74.066797 220.347986 
L 74.475488 220.247349 
L 74.88418 220.473148 
L 75.292871 219.78877 
L 75.701563 217.119688 
L 76.518945 208.371848 
L 76.927637 205.650365 
L 77.336328 204.936195 
L 77.74502 205.542272 
L 78.971094 208.932919 
L 79.379785 211.657237 
L 80.605859 225.07201 
L 81.014551 226.154347 
L 81.423242 225.135574 
L 81.831934 222.64147 
L 82.240625 218.399294 
L 83.058008 205.773023 
L 83.466699 201.774431 
L 83.875391 201.671033 
L 84.284082 203.903602 
L 84.692773 205.253332 
L 85.101465 203.507167 
L 85.918848 195.075378 
L 86.327539 194.405851 
L 86.73623 197.625459 
L 87.144922 201.851108 
L 87.553613 203.289751 
L 87.962305 200.450565 
L 88.779688 190.24252 
L 89.188379 188.586635 
L 89.59707 190.234611 
L 90.414453 195.826917 
L 90.823145 197.844922 
L 91.231836 200.544845 
L 92.049219 206.88713 
L 92.45791 208.017506 
L 92.866602 208.367736 
L 93.275293 209.680107 
L 94.092676 214.635063 
L 94.501367 215.418704 
L 94.910059 215.022091 
L 95.31875 215.232263 
L 95.727441 217.644283 
L 96.136133 222.661793 
L 96.953516 235.30659 
L 97.362207 238.177688 
L 97.770898 236.761794 
L 98.588281 228.377674 
L 98.996973 227.535229 
L 99.814355 233.520634 
L 100.223047 233.239714 
L 100.631738 226.74407 
L 101.857813 189.083684 
L 102.266504 183.483722 
L 102.675195 183.990953 
L 103.492578 191.967234 
L 103.90127 194.226136 
L 104.309961 194.779736 
L 104.718652 194.622914 
L 105.127344 194.655807 
L 105.536035 195.381182 
L 106.353418 198.770587 
L 106.762109 200.387119 
L 107.579492 202.535807 
L 107.988184 203.35775 
L 108.396875 203.279819 
L 108.805566 201.803115 
L 109.214258 199.614388 
L 109.622949 198.159483 
L 110.031641 198.592546 
L 110.440332 201.345293 
L 111.666406 215.922041 
L 112.075098 217.246349 
L 112.483789 214.733637 
L 113.709863 197.21239 
L 114.118555 195.277139 
L 114.527246 197.23164 
L 115.75332 210.657321 
L 116.162012 210.420748 
L 116.570703 206.740746 
L 117.388086 195.393339 
L 117.796777 192.613972 
L 118.205469 194.634135 
L 119.431543 213.012524 
L 119.840234 214.021797 
L 120.248926 213.286288 
L 120.657617 213.323715 
L 121.066309 215.220789 
L 121.883691 220.893517 
L 122.292383 220.691786 
L 122.701074 216.112442 
L 123.109766 207.004189 
L 123.927148 185.350214 
L 124.33584 181.401912 
L 124.744531 185.763451 
L 125.970605 219.984657 
L 126.379297 224.441812 
L 126.787988 223.91897 
L 127.19668 221.446498 
L 127.605371 219.897989 
L 128.014063 220.03637 
L 128.831445 222.147838 
L 129.648828 226.289416 
L 130.05752 227.034079 
L 130.466211 224.109312 
L 131.692285 202.854708 
L 132.100977 200.110276 
L 132.509668 201.350424 
L 133.735742 212.181743 
L 134.553125 215.010676 
L 134.961816 217.617694 
L 135.370508 221.235162 
L 135.779199 223.224449 
L 136.187891 220.745516 
L 137.005273 206.429938 
L 137.413965 202.185152 
L 137.822656 202.14561 
L 138.640039 206.17032 
L 139.457422 208.11229 
L 139.866113 208.67326 
L 140.274805 208.518324 
L 140.683496 207.549038 
L 141.092188 206.075584 
L 141.90957 201.657084 
L 142.318262 199.617497 
L 142.726953 199.484263 
L 143.135645 201.598932 
L 143.953027 207.131193 
L 144.77041 210.428293 
L 145.587793 212.949819 
L 145.996484 213.573697 
L 146.405176 213.913511 
L 146.813867 213.863513 
L 147.222559 212.67934 
L 147.63125 209.324748 
L 148.857324 190.04189 
L 149.266016 187.534611 
L 149.674707 189.157604 
L 150.49209 197.273809 
L 150.900781 199.48347 
L 151.309473 199.740346 
L 151.718164 198.67416 
L 152.944238 193.134001 
L 153.35293 194.756316 
L 153.761621 200.560346 
L 154.579004 218.676787 
L 154.987695 224.478153 
L 155.396387 225.222452 
L 156.21377 217.648412 
L 156.622461 216.342159 
L 157.031152 219.041488 
L 157.439844 223.413124 
L 157.848535 226.091298 
L 158.257227 225.606825 
L 159.891992 214.005838 
L 160.300684 210.337818 
L 160.709375 204.458517 
L 161.526758 188.81617 
L 161.935449 184.551291 
L 162.344141 185.635447 
L 162.752832 191.093724 
L 163.570215 204.801604 
L 163.978906 209.843193 
L 164.387598 212.981636 
L 164.796289 214.07854 
L 165.20498 213.443926 
L 166.431055 209.131182 
L 166.839746 205.738967 
L 167.248438 199.254207 
L 168.06582 184.040552 
L 168.474512 181.168862 
L 168.883203 182.283251 
L 169.291895 184.840896 
L 169.700586 185.517616 
L 170.109277 182.197748 
L 171.335352 162.068298 
L 171.744043 161.406691 
L 172.152734 165.504437 
L 173.7875 193.704508 
L 174.196191 194.375013 
L 174.604883 192.369605 
L 175.013574 189.554209 
L 175.422266 187.521696 
L 175.830957 186.984762 
L 176.239648 187.726895 
L 177.057031 190.593374 
L 177.874414 194.890984 
L 178.283105 197.02636 
L 178.691797 198.083061 
L 179.100488 197.973959 
L 179.50918 197.099384 
L 180.326563 194.573153 
L 180.735254 195.025629 
L 181.143945 198.352049 
L 182.778711 219.962378 
L 183.187402 223.759004 
L 183.596094 225.304917 
L 184.004785 223.020785 
L 184.413477 216.826223 
L 186.048242 180.867269 
L 186.456934 179.179411 
L 186.865625 182.895512 
L 187.683008 196.383639 
L 188.091699 200.966179 
L 188.500391 203.184299 
L 188.909082 203.792467 
L 189.317773 202.993664 
L 189.726465 199.966601 
L 190.543848 186.905914 
L 190.952539 180.801355 
L 191.36123 178.100654 
L 191.769922 178.767394 
L 192.178613 180.523406 
L 192.587305 180.619478 
L 192.995996 177.707727 
L 194.22207 162.297197 
L 194.630762 159.415953 
L 195.039453 157.715592 
L 195.448145 157.327506 
L 195.856836 159.154531 
L 197.08291 173.105849 
L 197.491602 174.347778 
L 197.900293 172.365805 
L 199.535059 155.901276 
L 199.94375 156.833851 
L 200.352441 161.634654 
L 201.169824 175.084138 
L 201.578516 175.916877 
L 201.987207 170.644468 
L 202.80459 156.433834 
L 203.213281 153.255309 
L 204.030664 150.323938 
L 204.439355 149.542479 
L 204.848047 150.207807 
L 205.66543 154.573941 
L 206.074121 155.708827 
L 206.482813 154.634848 
L 207.300195 147.59833 
L 208.117578 140.818486 
L 208.934961 136.254267 
L 209.343652 135.246455 
L 210.161035 134.491065 
L 210.569727 133.686938 
L 210.978418 132.013597 
L 211.387109 128.846508 
L 211.795801 123.487229 
L 213.021875 100.881004 
L 213.430566 98.684393 
L 214.247949 101.853325 
L 214.656641 100.877036 
L 215.065332 96.52716 
L 215.882715 86.734145 
L 216.700098 83.294036 
L 217.108789 77.623188 
L 217.51748 65.907347 
L 218.334863 39.044279 
L 218.743555 40.995222 
L 219.152246 63.08383 
L 220.37832 168.804973 
L 220.787012 175.353205 
L 222.013086 158.069021 
L 222.421777 158.654027 
L 222.830469 159.980175 
L 223.23916 159.700516 
L 223.647852 157.346948 
L 224.465234 151.518005 
L 225.691309 146.982036 
L 226.508691 143.239002 
L 226.917383 142.679185 
L 227.326074 144.320819 
L 227.734766 148.524237 
L 228.552148 158.570235 
L 228.96084 160.458988 
L 229.369531 160.022284 
L 229.778223 159.334105 
L 230.186914 160.59636 
L 230.595605 164.454186 
L 231.412988 174.381655 
L 231.82168 177.035477 
L 232.230371 177.505876 
L 233.047754 175.885805 
L 233.456445 174.612146 
L 233.865137 171.65228 
L 234.273828 166.052992 
L 235.499902 143.961069 
L 235.908594 140.404399 
L 236.317285 140.454003 
L 236.725977 144.839703 
L 237.134668 154.040818 
L 237.952051 180.083235 
L 238.360742 189.074084 
L 238.769434 191.824744 
L 239.178125 189.83638 
L 241.221582 171.139226 
L 241.630273 170.20973 
L 242.038965 172.52705 
L 242.856348 180.86389 
L 243.67373 191.794724 
L 244.082422 197.130494 
L 244.491113 198.241212 
L 244.899805 193.836405 
L 245.308496 186.984159 
L 245.717188 182.630476 
L 246.125879 183.33854 
L 246.943262 192.198575 
L 247.351953 194.455208 
L 247.760645 194.476592 
L 248.169336 194.169059 
L 248.578027 195.317764 
L 249.39541 199.820938 
L 249.804102 199.985674 
L 250.212793 198.561724 
L 251.030176 194.456833 
L 251.847559 188.575678 
L 252.25625 185.652783 
L 252.664941 184.662363 
L 253.073633 186.692445 
L 253.482324 191.469648 
L 254.299707 203.64475 
L 254.708398 207.727339 
L 255.11709 208.760056 
L 255.525781 206.702747 
L 256.343164 199.819506 
L 256.751855 199.136066 
L 257.160547 201.172878 
L 257.97793 209.515235 
L 258.795313 217.179089 
L 259.204004 218.047992 
L 259.612695 215.439748 
L 260.021387 209.100161 
L 260.83877 192.097783 
L 261.247461 186.640908 
L 261.656152 184.582469 
L 262.064844 184.925946 
L 262.473535 186.415183 
L 262.882227 188.370565 
L 263.290918 191.000093 
L 263.699609 195.068944 
L 264.516992 205.594601 
L 264.925684 207.792807 
L 265.334375 206.725676 
L 265.743066 204.619724 
L 266.151758 204.111144 
L 266.969141 207.217516 
L 267.377832 206.671387 
L 268.195215 201.030082 
L 268.603906 200.250716 
L 269.012598 202.110849 
L 269.82998 207.525627 
L 270.238672 208.121426 
L 270.647363 207.41944 
L 271.056055 206.140088 
L 271.464746 204.276408 
L 271.873438 201.303461 
L 273.099512 188.486541 
L 273.508203 186.002889 
L 273.916895 184.639869 
L 274.325586 183.854696 
L 274.734277 183.94471 
L 275.142969 185.909622 
L 275.55166 190.174457 
L 276.369043 201.253092 
L 277.186426 208.469642 
L 277.595117 212.423289 
L 278.821191 230.677319 
L 279.229883 227.922797 
L 280.047266 212.429733 
L 280.455957 209.904764 
L 280.864648 211.5311 
L 281.27334 213.689687 
L 281.682031 214.287231 
L 282.090723 214.062184 
L 282.499414 214.522296 
L 283.316797 217.514262 
L 283.725488 217.9379 
L 284.13418 216.29016 
L 285.360254 204.369718 
L 285.768945 203.729013 
L 286.177637 205.872844 
L 286.586328 209.348876 
L 286.99502 211.627627 
L 287.403711 209.891555 
L 287.812402 202.811057 
L 288.629785 181.987253 
L 289.038477 175.931756 
L 289.447168 174.86733 
L 289.855859 177.39791 
L 290.673242 186.680068 
L 291.490625 198.175624 
L 292.716699 216.535254 
L 293.125391 219.48305 
L 293.942773 223.062231 
L 294.351465 225.294988 
L 294.760156 226.222664 
L 295.168848 224.302459 
L 296.803613 207.634699 
L 297.212305 206.457526 
L 297.620996 206.719173 
L 298.029688 208.462182 
L 298.84707 214.053209 
L 299.255762 215.308793 
L 299.664453 214.906375 
L 300.481836 212.394167 
L 300.890527 209.734036 
L 301.299219 204.691957 
L 302.116602 192.210652 
L 302.525293 189.762913 
L 302.933984 191.136684 
L 303.751367 198.075246 
L 304.160059 199.600946 
L 304.56875 199.917381 
L 304.977441 200.777226 
L 305.794824 204.042951 
L 306.203516 203.699251 
L 306.612207 202.272271 
L 307.020898 201.36598 
L 307.42959 201.707524 
L 308.246973 204.533216 
L 308.655664 205.836298 
L 309.064355 206.134164 
L 309.473047 204.879261 
L 310.29043 199.84983 
L 310.699121 199.090198 
L 311.107813 201.055754 
L 312.333887 213.567674 
L 312.742578 214.390626 
L 313.15127 212.776374 
L 314.377344 202.923877 
L 314.786035 203.537809 
L 315.194727 208.286735 
L 316.012109 222.584659 
L 316.420801 226.363514 
L 316.829492 224.947811 
L 317.238184 218.492809 
L 318.055566 203.8765 
L 318.464258 202.018936 
L 318.872949 203.380669 
L 319.281641 205.460388 
L 319.690332 206.419384 
L 320.099023 205.450143 
L 320.507715 202.318126 
L 321.325098 192.226377 
L 321.733789 189.07489 
L 322.14248 189.595579 
L 323.368555 200.23926 
L 324.594629 204.285956 
L 325.00332 205.185083 
L 325.412012 205.294309 
L 325.820703 205.580008 
L 326.229395 207.139263 
L 327.046777 211.591103 
L 327.455469 211.840004 
L 327.86416 210.372912 
L 328.681543 204.379684 
L 329.090234 200.963255 
L 329.498926 198.498034 
L 329.907617 198.140042 
L 330.316309 200.375299 
L 331.133691 208.367458 
L 331.542383 210.042496 
L 331.951074 208.419927 
L 332.768457 201.650761 
L 333.177148 201.238267 
L 333.58584 202.454417 
L 333.994531 202.357702 
L 334.403223 199.112173 
L 335.220605 189.284241 
L 335.629297 187.855241 
L 336.037988 189.862574 
L 336.855371 197.968558 
L 337.264063 199.568666 
L 337.672754 197.720973 
L 338.490137 189.759519 
L 338.898828 189.816879 
L 339.30752 194.973477 
L 340.124902 212.490897 
L 340.533594 218.508264 
L 340.942285 220.633493 
L 341.350977 219.930004 
L 342.168359 216.026392 
L 342.577051 212.507167 
L 343.394434 200.408267 
L 344.211816 188.110424 
L 344.620508 183.399115 
L 345.029199 181.458743 
L 345.437891 183.807557 
L 346.663965 201.488927 
L 347.072656 203.285689 
L 347.481348 201.715525 
L 347.890039 197.398692 
L 349.524805 173.723753 
L 349.933496 174.626978 
L 350.342188 180.044285 
L 351.568262 200.738065 
L 351.976953 204.577972 
L 352.385645 205.965341 
L 352.794336 205.864052 
L 353.203027 206.652478 
L 353.611719 209.964215 
L 354.02041 214.715028 
L 354.429102 217.804987 
L 354.837793 216.873893 
L 355.655176 208.330351 
L 356.063867 208.3033 
L 356.472559 213.447639 
L 356.88125 220.166163 
L 357.289941 223.112513 
L 357.698633 220.116955 
L 358.516016 208.652138 
L 358.924707 206.808633 
L 359.333398 208.244803 
L 359.74209 212.459036 
L 360.968164 232.098734 
L 361.376855 233.503844 
L 361.785547 230.878289 
L 362.60293 222.996363 
L 363.420313 219.750379 
L 363.829004 216.50639 
L 364.237695 210.266597 
L 365.055078 195.466863 
L 365.46377 193.130432 
L 365.872461 196.727231 
L 366.689844 212.106061 
L 367.098535 214.115135 
L 367.507227 209.010576 
L 368.324609 192.351158 
L 368.733301 188.97906 
L 369.141992 188.933262 
L 369.550684 189.505632 
L 369.959375 189.06501 
L 370.368066 187.992015 
L 370.776758 187.74143 
L 371.185449 189.313899 
L 372.411523 198.904818 
L 372.820215 200.807919 
L 373.637598 202.734233 
L 374.046289 204.311544 
L 374.863672 208.531771 
L 375.272363 208.607966 
L 375.681055 206.432368 
L 376.498438 200.641231 
L 376.907129 200.131784 
L 377.31582 201.588224 
L 378.133203 206.430358 
L 379.767969 213.695556 
L 380.17666 215.045576 
L 380.585352 214.548096 
L 380.994043 211.525909 
L 381.811426 202.434564 
L 382.220117 201.278413 
L 382.628809 203.657292 
L 383.0375 206.760255 
L 383.446191 206.794473 
L 383.854883 202.65039 
L 384.263574 196.96972 
L 384.672266 193.436377 
L 385.080957 193.307929 
L 385.489648 194.763219 
L 385.89834 195.262675 
L 386.307031 193.894415 
L 387.124414 188.312355 
L 387.124414 188.312355 
" style="fill:none;stroke:#d62728;stroke-linecap:square;stroke-width:1.5;"/>
   </g>
   <g id="patch_3">
    <path d="M 52.160938 239.758125 
L 52.160938 22.318125 
" style="fill:none;stroke:#000000;stroke-linecap:square;stroke-linejoin:miter;stroke-width:0.8;"/>
   </g>
   <g id="patch_4">
    <path d="M 386.960938 239.758125 
L 386.960938 22.318125 
" style="fill:none;stroke:#000000;stroke-linecap:square;stroke-linejoin:miter;stroke-width:0.8;"/>
   </g>
   <g id="patch_5">
    <path d="M 52.160938 239.758125 
L 386.960938 239.758125 
" style="fill:none;stroke:#000000;stroke-linecap:square;stroke-linejoin:miter;stroke-width:0.8;"/>
   </g>
   <g id="patch_6">
    <path d="M 52.160938 22.318125 
L 386.960938 22.318125 
" style="fill:none;stroke:#000000;stroke-linecap:square;stroke-linejoin:miter;stroke-width:0.8;"/>
   </g>
   <g id="text_19">
    <!-- Spektren 325K -->
    <defs>
     <path d="M 53.515625 70.515625 
L 53.515625 60.890625 
Q 47.90625 63.578125 42.921875 64.890625 
Q 37.9375 66.21875 33.296875 66.21875 
Q 25.25 66.21875 20.875 63.09375 
Q 16.5 59.96875 16.5 54.203125 
Q 16.5 49.359375 19.40625 46.890625 
Q 22.3125 44.4375 30.421875 42.921875 
L 36.375 41.703125 
Q 47.40625 39.59375 52.65625 34.296875 
Q 57.90625 29 57.90625 20.125 
Q 57.90625 9.515625 50.796875 4.046875 
Q 43.703125 -1.421875 29.984375 -1.421875 
Q 24.8125 -1.421875 18.96875 -0.25 
Q 13.140625 0.921875 6.890625 3.21875 
L 6.890625 13.375 
Q 12.890625 10.015625 18.65625 8.296875 
Q 24.421875 6.59375 29.984375 6.59375 
Q 38.421875 6.59375 43.015625 9.90625 
Q 47.609375 13.234375 47.609375 19.390625 
Q 47.609375 24.75 44.3125 27.78125 
Q 41.015625 30.8125 33.5 32.328125 
L 27.484375 33.5 
Q 16.453125 35.6875 11.515625 40.375 
Q 6.59375 45.0625 6.59375 53.421875 
Q 6.59375 63.09375 13.40625 68.65625 
Q 20.21875 74.21875 32.171875 74.21875 
Q 37.3125 74.21875 42.625 73.28125 
Q 47.953125 72.359375 53.515625 70.515625 
z
" id="DejaVuSans-53"/>
     <path d="M 9.078125 75.984375 
L 18.109375 75.984375 
L 18.109375 31.109375 
L 44.921875 54.6875 
L 56.390625 54.6875 
L 27.390625 29.109375 
L 57.625 0 
L 45.90625 0 
L 18.109375 26.703125 
L 18.109375 0 
L 9.078125 0 
z
" id="DejaVuSans-6b"/>
     <path d="M 40.578125 39.3125 
Q 47.65625 37.796875 51.625 33 
Q 55.609375 28.21875 55.609375 21.1875 
Q 55.609375 10.40625 48.1875 4.484375 
Q 40.765625 -1.421875 27.09375 -1.421875 
Q 22.515625 -1.421875 17.65625 -0.515625 
Q 12.796875 0.390625 7.625 2.203125 
L 7.625 11.71875 
Q 11.71875 9.328125 16.59375 8.109375 
Q 21.484375 6.890625 26.8125 6.890625 
Q 36.078125 6.890625 40.9375 10.546875 
Q 45.796875 14.203125 45.796875 21.1875 
Q 45.796875 27.640625 41.28125 31.265625 
Q 36.765625 34.90625 28.71875 34.90625 
L 20.21875 34.90625 
L 20.21875 43.015625 
L 29.109375 43.015625 
Q 36.375 43.015625 40.234375 45.921875 
Q 44.09375 48.828125 44.09375 54.296875 
Q 44.09375 59.90625 40.109375 62.90625 
Q 36.140625 65.921875 28.71875 65.921875 
Q 24.65625 65.921875 20.015625 65.03125 
Q 15.375 64.15625 9.8125 62.3125 
L 9.8125 71.09375 
Q 15.4375 72.65625 20.34375 73.4375 
Q 25.25 74.21875 29.59375 74.21875 
Q 40.828125 74.21875 47.359375 69.109375 
Q 53.90625 64.015625 53.90625 55.328125 
Q 53.90625 49.265625 50.4375 45.09375 
Q 46.96875 40.921875 40.578125 39.3125 
z
" id="DejaVuSans-33"/>
     <path d="M 9.8125 72.90625 
L 19.671875 72.90625 
L 19.671875 42.09375 
L 52.390625 72.90625 
L 65.09375 72.90625 
L 28.90625 38.921875 
L 67.671875 0 
L 54.6875 0 
L 19.671875 35.109375 
L 19.671875 0 
L 9.8125 0 
z
" id="DejaVuSans-4b"/>
    </defs>
    <g transform="translate(175.17125 16.318125)scale(0.12 -0.12)">
     <use xlink:href="#DejaVuSans-53"/>
     <use x="63.476562" xlink:href="#DejaVuSans-70"/>
     <use x="126.953125" xlink:href="#DejaVuSans-65"/>
     <use x="188.476562" xlink:href="#DejaVuSans-6b"/>
     <use x="246.386719" xlink:href="#DejaVuSans-74"/>
     <use x="285.595703" xlink:href="#DejaVuSans-72"/>
     <use x="326.677734" xlink:href="#DejaVuSans-65"/>
     <use x="388.201172" xlink:href="#DejaVuSans-6e"/>
     <use x="451.580078" xlink:href="#DejaVuSans-20"/>
     <use x="483.367188" xlink:href="#DejaVuSans-33"/>
     <use x="546.990234" xlink:href="#DejaVuSans-32"/>
     <use x="610.613281" xlink:href="#DejaVuSans-35"/>
     <use x="674.236328" xlink:href="#DejaVuSans-4b"/>
    </g>
   </g>
   <g id="legend_1">
    <g id="patch_7">
     <path d="M 300.245313 89.030625 
L 379.960938 89.030625 
Q 381.960938 89.030625 381.960938 87.030625 
L 381.960938 29.318125 
Q 381.960938 27.318125 379.960938 27.318125 
L 300.245313 27.318125 
Q 298.245313 27.318125 298.245313 29.318125 
L 298.245313 87.030625 
Q 298.245313 89.030625 300.245313 89.030625 
z
" style="fill:#ffffff;opacity:0.8;stroke:#cccccc;stroke-linejoin:miter;"/>
    </g>
    <g id="line2d_21">
     <path d="M 302.245313 35.416562 
L 322.245313 35.416562 
" style="fill:none;stroke:#1f77b4;stroke-linecap:square;stroke-width:1.5;"/>
    </g>
    <g id="line2d_22"/>
    <g id="text_20">
     <!-- 1.5e-05 -->
     <defs>
      <path d="M 4.890625 31.390625 
L 31.203125 31.390625 
L 31.203125 23.390625 
L 4.890625 23.390625 
z
" id="DejaVuSans-2d"/>
     </defs>
     <g transform="translate(330.245313 38.916562)scale(0.1 -0.1)">
      <use xlink:href="#DejaVuSans-31"/>
      <use x="63.623047" xlink:href="#DejaVuSans-2e"/>
      <use x="95.410156" xlink:href="#DejaVuSans-35"/>
      <use x="159.033203" xlink:href="#DejaVuSans-65"/>
      <use x="220.556641" xlink:href="#DejaVuSans-2d"/>
      <use x="256.640625" xlink:href="#DejaVuSans-30"/>
      <use x="320.263672" xlink:href="#DejaVuSans-35"/>
     </g>
    </g>
    <g id="line2d_23">
     <path d="M 302.245313 50.094687 
L 322.245313 50.094687 
" style="fill:none;stroke:#ff7f0e;stroke-linecap:square;stroke-width:1.5;"/>
    </g>
    <g id="line2d_24"/>
    <g id="text_21">
     <!-- 0.0009 -->
     <defs>
      <path d="M 10.984375 1.515625 
L 10.984375 10.5 
Q 14.703125 8.734375 18.5 7.8125 
Q 22.3125 6.890625 25.984375 6.890625 
Q 35.75 6.890625 40.890625 13.453125 
Q 46.046875 20.015625 46.78125 33.40625 
Q 43.953125 29.203125 39.59375 26.953125 
Q 35.25 24.703125 29.984375 24.703125 
Q 19.046875 24.703125 12.671875 31.3125 
Q 6.296875 37.9375 6.296875 49.421875 
Q 6.296875 60.640625 12.9375 67.421875 
Q 19.578125 74.21875 30.609375 74.21875 
Q 43.265625 74.21875 49.921875 64.515625 
Q 56.59375 54.828125 56.59375 36.375 
Q 56.59375 19.140625 48.40625 8.859375 
Q 40.234375 -1.421875 26.421875 -1.421875 
Q 22.703125 -1.421875 18.890625 -0.6875 
Q 15.09375 0.046875 10.984375 1.515625 
z
M 30.609375 32.421875 
Q 37.25 32.421875 41.125 36.953125 
Q 45.015625 41.5 45.015625 49.421875 
Q 45.015625 57.28125 41.125 61.84375 
Q 37.25 66.40625 30.609375 66.40625 
Q 23.96875 66.40625 20.09375 61.84375 
Q 16.21875 57.28125 16.21875 49.421875 
Q 16.21875 41.5 20.09375 36.953125 
Q 23.96875 32.421875 30.609375 32.421875 
z
" id="DejaVuSans-39"/>
     </defs>
     <g transform="translate(330.245313 53.594687)scale(0.1 -0.1)">
      <use xlink:href="#DejaVuSans-30"/>
      <use x="63.623047" xlink:href="#DejaVuSans-2e"/>
      <use x="95.410156" xlink:href="#DejaVuSans-30"/>
      <use x="159.033203" xlink:href="#DejaVuSans-30"/>
      <use x="222.65625" xlink:href="#DejaVuSans-30"/>
      <use x="286.279297" xlink:href="#DejaVuSans-39"/>
     </g>
    </g>
    <g id="line2d_25">
     <path d="M 302.245313 64.772812 
L 322.245313 64.772812 
" style="fill:none;stroke:#2ca02c;stroke-linecap:square;stroke-width:1.5;"/>
    </g>
    <g id="line2d_26"/>
    <g id="text_22">
     <!-- 0.002041 -->
     <g transform="translate(330.245313 68.272812)scale(0.1 -0.1)">
      <use xlink:href="#DejaVuSans-30"/>
      <use x="63.623047" xlink:href="#DejaVuSans-2e"/>
      <use x="95.410156" xlink:href="#DejaVuSans-30"/>
      <use x="159.033203" xlink:href="#DejaVuSans-30"/>
      <use x="222.65625" xlink:href="#DejaVuSans-32"/>
      <use x="286.279297" xlink:href="#DejaVuSans-30"/>
      <use x="349.902344" xlink:href="#DejaVuSans-34"/>
      <use x="413.525391" xlink:href="#DejaVuSans-31"/>
     </g>
    </g>
    <g id="line2d_27">
     <path d="M 302.245313 79.450938 
L 322.245313 79.450938 
" style="fill:none;stroke:#d62728;stroke-linecap:square;stroke-width:1.5;"/>
    </g>
    <g id="line2d_28"/>
    <g id="text_23">
     <!-- 0.002778 -->
     <g transform="translate(330.245313 82.950938)scale(0.1 -0.1)">
      <use xlink:href="#DejaVuSans-30"/>
      <use x="63.623047" xlink:href="#DejaVuSans-2e"/>
      <use x="95.410156" xlink:href="#DejaVuSans-30"/>
      <use x="159.033203" xlink:href="#DejaVuSans-30"/>
      <use x="222.65625" xlink:href="#DejaVuSans-32"/>
      <use x="286.279297" xlink:href="#DejaVuSans-37"/>
      <use x="349.902344" xlink:href="#DejaVuSans-37"/>
      <use x="413.525391" xlink:href="#DejaVuSans-38"/>
     </g>
    </g>
   </g>
  </g>
 </g>
 <defs>
  <clipPath id="p2ee19c6108">
   <rect height="217.44" width="334.8" x="52.160938" y="22.318125"/>
  </clipPath>
 </defs>
</svg>
