<?xml version="1.0" encoding="utf-8" standalone="no"?>
<!DOCTYPE svg PUBLIC "-//W3C//DTD SVG 1.1//EN"
  "http://www.w3.org/Graphics/SVG/1.1/DTD/svg11.dtd">
<!-- Created with matplotlib (http://matplotlib.org/) -->
<svg height="549pt" version="1.1" viewBox="0 0 464 549" width="464pt" xmlns="http://www.w3.org/2000/svg" xmlns:xlink="http://www.w3.org/1999/xlink">
 <defs>
  <style type="text/css">
*{stroke-linecap:butt;stroke-linejoin:round;}
  </style>
 </defs>
 <g id="figure_1">
  <g id="patch_1">
   <path d="M 0 549.1236 
L 464.030052 549.1236 
L 464.030052 0 
L 0 0 
z
" style="fill:#ffffff;"/>
  </g>
  <g id="axes_1">
   <g id="patch_2">
    <path d="M 74.420625 499.58235 
L 456.830052 499.58235 
L 456.830052 13.788191 
L 74.420625 13.788191 
z
" style="fill:#ffffff;"/>
   </g>
   <g id="PathCollection_1">
    <defs>
     <path d="M 0 3 
C 0.795609 3 1.55874 2.683901 2.12132 2.12132 
C 2.683901 1.55874 3 0.795609 3 0 
C 3 -0.795609 2.683901 -1.55874 2.12132 -2.12132 
C 1.55874 -2.683901 0.795609 -3 0 -3 
C -0.795609 -3 -1.55874 -2.683901 -2.12132 -2.12132 
C -2.683901 -1.55874 -3 -0.795609 -3 0 
C -3 0.795609 -2.683901 1.55874 -2.12132 2.12132 
C -1.55874 2.683901 -0.795609 3 0 3 
z
" id="me2887732f6" style="stroke:#1f77b4;"/>
    </defs>
    <g clip-path="url(#pe2f51e6ef6)">
     <use style="fill:#1f77b4;stroke:#1f77b4;" x="91.810046" xlink:href="#me2887732f6" y="476.889874"/>
     <use style="fill:#1f77b4;stroke:#1f77b4;" x="93.646783" xlink:href="#me2887732f6" y="453.496254"/>
     <use style="fill:#1f77b4;stroke:#1f77b4;" x="95.766094" xlink:href="#me2887732f6" y="417.783273"/>
     <use style="fill:#1f77b4;stroke:#1f77b4;" x="96.472531" xlink:href="#me2887732f6" y="416.225447"/>
     <use style="fill:#1f77b4;stroke:#1f77b4;" x="101.629523" xlink:href="#me2887732f6" y="373.748228"/>
     <use style="fill:#1f77b4;stroke:#1f77b4;" x="107.422309" xlink:href="#me2887732f6" y="337.769086"/>
     <use style="fill:#1f77b4;stroke:#1f77b4;" x="113.356381" xlink:href="#me2887732f6" y="321.262975"/>
     <use style="fill:#1f77b4;stroke:#1f77b4;" x="118.018867" xlink:href="#me2887732f6" y="294.543371"/>
     <use style="fill:#1f77b4;stroke:#1f77b4;" x="124.376802" xlink:href="#me2887732f6" y="275.270757"/>
     <use style="fill:#1f77b4;stroke:#1f77b4;" x="130.734737" xlink:href="#me2887732f6" y="261.822547"/>
     <use style="fill:#1f77b4;stroke:#1f77b4;" x="140.318561" xlink:href="#me2887732f6" y="254.24629"/>
     <use style="fill:#1f77b4;stroke:#1f77b4;" x="143.252805" xlink:href="#me2887732f6" y="242.488981"/>
     <use style="fill:#1f77b4;stroke:#1f77b4;" x="148.888733" xlink:href="#me2887732f6" y="235.353857"/>
     <use style="fill:#1f77b4;stroke:#1f77b4;" x="155.573451" xlink:href="#me2887732f6" y="238.396162"/>
     <use style="fill:#1f77b4;stroke:#1f77b4;" x="160.000799" xlink:href="#me2887732f6" y="232.767505"/>
     <use style="fill:#1f77b4;stroke:#1f77b4;" x="163.515325" xlink:href="#me2887732f6" y="224.729734"/>
     <use style="fill:#1f77b4;stroke:#1f77b4;" x="166.161208" xlink:href="#me2887732f6" y="227.489382"/>
     <use style="fill:#1f77b4;stroke:#1f77b4;" x="172.749279" xlink:href="#me2887732f6" y="221.825355"/>
     <use style="fill:#1f77b4;stroke:#1f77b4;" x="176.437693" xlink:href="#me2887732f6" y="225.065933"/>
     <use style="fill:#1f77b4;stroke:#1f77b4;" x="178.550485" xlink:href="#me2887732f6" y="229.46187"/>
     <use style="fill:#1f77b4;stroke:#1f77b4;" x="183.355346" xlink:href="#me2887732f6" y="226.859375"/>
     <use style="fill:#1f77b4;stroke:#1f77b4;" x="186.829929" xlink:href="#me2887732f6" y="225.315978"/>
     <use style="fill:#1f77b4;stroke:#1f77b4;" x="190.320541" xlink:href="#me2887732f6" y="220.706397"/>
     <use style="fill:#1f77b4;stroke:#1f77b4;" x="193.808716" xlink:href="#me2887732f6" y="218.354959"/>
     <use style="fill:#1f77b4;stroke:#1f77b4;" x="197.296065" xlink:href="#me2887732f6" y="226.700083"/>
     <use style="fill:#1f77b4;stroke:#1f77b4;" x="200.798637" xlink:href="#me2887732f6" y="218.758012"/>
     <use style="fill:#1f77b4;stroke:#1f77b4;" x="204.306911" xlink:href="#me2887732f6" y="229.388028"/>
     <use style="fill:#1f77b4;stroke:#1f77b4;" x="207.937461" xlink:href="#me2887732f6" y="227.09696"/>
     <use style="fill:#1f77b4;stroke:#1f77b4;" x="211.359605" xlink:href="#me2887732f6" y="223.263685"/>
     <use style="fill:#1f77b4;stroke:#1f77b4;" x="214.876299" xlink:href="#me2887732f6" y="219.156472"/>
     <use style="fill:#1f77b4;stroke:#1f77b4;" x="218.280783" xlink:href="#me2887732f6" y="232.021388"/>
     <use style="fill:#1f77b4;stroke:#1f77b4;" x="221.678477" xlink:href="#me2887732f6" y="229.755691"/>
     <use style="fill:#1f77b4;stroke:#1f77b4;" x="225.104422" xlink:href="#me2887732f6" y="232.968259"/>
     <use style="fill:#1f77b4;stroke:#1f77b4;" x="231.959859" xlink:href="#me2887732f6" y="224.560414"/>
     <use style="fill:#1f77b4;stroke:#1f77b4;" x="249.004692" xlink:href="#me2887732f6" y="235.725822"/>
     <use style="fill:#1f77b4;stroke:#1f77b4;" x="262.677918" xlink:href="#me2887732f6" y="238.166886"/>
     <use style="fill:#1f77b4;stroke:#1f77b4;" x="294.840105" xlink:href="#me2887732f6" y="237.411183"/>
     <use style="fill:#1f77b4;stroke:#1f77b4;" x="160.751255" xlink:href="#me2887732f6" y="225.14948"/>
     <use style="fill:#1f77b4;stroke:#1f77b4;" x="181.598217" xlink:href="#me2887732f6" y="221.456333"/>
     <use style="fill:#1f77b4;stroke:#1f77b4;" x="195.726962" xlink:href="#me2887732f6" y="221.733464"/>
     <use style="fill:#1f77b4;stroke:#1f77b4;" x="209.855706" xlink:href="#me2887732f6" y="224.39027"/>
     <use style="fill:#1f77b4;stroke:#1f77b4;" x="278.980589" xlink:href="#me2887732f6" y="239.575798"/>
     <use style="fill:#1f77b4;stroke:#1f77b4;" x="320.271845" xlink:href="#me2887732f6" y="216.800727"/>
     <use style="fill:#1f77b4;stroke:#1f77b4;" x="301.692546" xlink:href="#me2887732f6" y="242.641111"/>
     <use style="fill:#1f77b4;stroke:#1f77b4;" x="303.543412" xlink:href="#me2887732f6" y="229.974448"/>
     <use style="fill:#1f77b4;stroke:#1f77b4;" x="317.234165" xlink:href="#me2887732f6" y="236.878268"/>
     <use style="fill:#1f77b4;stroke:#1f77b4;" x="322.179226" xlink:href="#me2887732f6" y="213.468258"/>
     <use style="fill:#1f77b4;stroke:#1f77b4;" x="325.259292" xlink:href="#me2887732f6" y="196.753996"/>
     <use style="fill:#1f77b4;stroke:#1f77b4;" x="289.683113" xlink:href="#me2887732f6" y="248.965249"/>
     <use style="fill:#1f77b4;stroke:#1f77b4;" x="297.100704" xlink:href="#me2887732f6" y="246.966736"/>
     <use style="fill:#1f77b4;stroke:#1f77b4;" x="309.604643" xlink:href="#me2887732f6" y="242.182721"/>
     <use style="fill:#1f77b4;stroke:#1f77b4;" x="342.595262" xlink:href="#me2887732f6" y="78.573483"/>
     <use style="fill:#1f77b4;stroke:#1f77b4;" x="320.201201" xlink:href="#me2887732f6" y="223.526906"/>
     <use style="fill:#1f77b4;stroke:#1f77b4;" x="325.711412" xlink:href="#me2887732f6" y="200.662722"/>
     <use style="fill:#1f77b4;stroke:#1f77b4;" x="334.824452" xlink:href="#me2887732f6" y="131.403739"/>
     <use style="fill:#1f77b4;stroke:#1f77b4;" x="338.144707" xlink:href="#me2887732f6" y="96.49474"/>
     <use style="fill:#1f77b4;stroke:#1f77b4;" x="345.915516" xlink:href="#me2887732f6" y="68.148279"/>
     <use style="fill:#1f77b4;stroke:#1f77b4;" x="351.143152" xlink:href="#me2887732f6" y="60.693357"/>
     <use style="fill:#1f77b4;stroke:#1f77b4;" x="351.778945" xlink:href="#me2887732f6" y="52.450977"/>
     <use style="fill:#1f77b4;stroke:#1f77b4;" x="355.311132" xlink:href="#me2887732f6" y="62.509625"/>
     <use style="fill:#1f77b4;stroke:#1f77b4;" x="356.653362" xlink:href="#me2887732f6" y="36.480667"/>
     <use style="fill:#1f77b4;stroke:#1f77b4;" x="357.218512" xlink:href="#me2887732f6" y="36.480667"/>
     <use style="fill:#1f77b4;stroke:#1f77b4;" x="358.772674" xlink:href="#me2887732f6" y="52.450977"/>
     <use style="fill:#1f77b4;stroke:#1f77b4;" x="378.425051" xlink:href="#me2887732f6" y="57.647133"/>
     <use style="fill:#1f77b4;stroke:#1f77b4;" x="374.987528" xlink:href="#me2887732f6" y="52.701819"/>
     <use style="fill:#1f77b4;stroke:#1f77b4;" x="371.551417" xlink:href="#me2887732f6" y="50.421559"/>
     <use style="fill:#1f77b4;stroke:#1f77b4;" x="403.656163" xlink:href="#me2887732f6" y="85.979042"/>
     <use style="fill:#1f77b4;stroke:#1f77b4;" x="429.845911" xlink:href="#me2887732f6" y="105.259685"/>
     <use style="fill:#1f77b4;stroke:#1f77b4;" x="428.686647" xlink:href="#me2887732f6" y="92.255045"/>
     <use style="fill:#1f77b4;stroke:#1f77b4;" x="425.636958" xlink:href="#me2887732f6" y="93.193482"/>
     <use style="fill:#1f77b4;stroke:#1f77b4;" x="422.409952" xlink:href="#me2887732f6" y="95.641453"/>
     <use style="fill:#1f77b4;stroke:#1f77b4;" x="419.106652" xlink:href="#me2887732f6" y="96.465957"/>
     <use style="fill:#1f77b4;stroke:#1f77b4;" x="415.788516" xlink:href="#me2887732f6" y="91.173669"/>
     <use style="fill:#1f77b4;stroke:#1f77b4;" x="412.370773" xlink:href="#me2887732f6" y="90.345647"/>
     <use style="fill:#1f77b4;stroke:#1f77b4;" x="408.54259" xlink:href="#me2887732f6" y="93.725284"/>
     <use style="fill:#1f77b4;stroke:#1f77b4;" x="403.656163" xlink:href="#me2887732f6" y="83.401241"/>
     <use style="fill:#1f77b4;stroke:#1f77b4;" x="405.579085" xlink:href="#me2887732f6" y="88.008934"/>
     <use style="fill:#1f77b4;stroke:#1f77b4;" x="402.293446" xlink:href="#me2887732f6" y="85.248918"/>
     <use style="fill:#1f77b4;stroke:#1f77b4;" x="398.909612" xlink:href="#me2887732f6" y="82.1269"/>
     <use style="fill:#1f77b4;stroke:#1f77b4;" x="395.532842" xlink:href="#me2887732f6" y="81.541965"/>
     <use style="fill:#1f77b4;stroke:#1f77b4;" x="392.122869" xlink:href="#me2887732f6" y="75.302246"/>
     <use style="fill:#1f77b4;stroke:#1f77b4;" x="388.710777" xlink:href="#me2887732f6" y="71.561471"/>
     <use style="fill:#1f77b4;stroke:#1f77b4;" x="385.292328" xlink:href="#me2887732f6" y="67.073394"/>
     <use style="fill:#1f77b4;stroke:#1f77b4;" x="381.873171" xlink:href="#me2887732f6" y="62.239533"/>
     <use style="fill:#1f77b4;stroke:#1f77b4;" x="378.425051" xlink:href="#me2887732f6" y="57.647133"/>
     <use style="fill:#1f77b4;stroke:#1f77b4;" x="374.987528" xlink:href="#me2887732f6" y="52.701819"/>
     <use style="fill:#1f77b4;stroke:#1f77b4;" x="371.551417" xlink:href="#me2887732f6" y="50.421559"/>
     <use style="fill:#1f77b4;stroke:#1f77b4;" x="403.656163" xlink:href="#me2887732f6" y="85.979042"/>
    </g>
   </g>
   <g id="matplotlib.axis_1">
    <g id="xtick_1">
     <g id="line2d_1">
      <defs>
       <path d="M 0 0 
L 0 -3.5 
" id="m8beab79273" style="stroke:#000000;stroke-width:0.8;"/>
      </defs>
      <g>
       <use style="stroke:#000000;stroke-width:0.8;" x="86.229192" xlink:href="#m8beab79273" y="499.58235"/>
      </g>
     </g>
     <g id="text_1">
      <!-- 0 -->
      <defs>
       <path d="M 31.78125 66.40625 
Q 24.171875 66.40625 20.328125 58.90625 
Q 16.5 51.421875 16.5 36.375 
Q 16.5 21.390625 20.328125 13.890625 
Q 24.171875 6.390625 31.78125 6.390625 
Q 39.453125 6.390625 43.28125 13.890625 
Q 47.125 21.390625 47.125 36.375 
Q 47.125 51.421875 43.28125 58.90625 
Q 39.453125 66.40625 31.78125 66.40625 
M 31.78125 74.21875 
Q 44.046875 74.21875 50.515625 64.515625 
Q 56.984375 54.828125 56.984375 36.375 
Q 56.984375 17.96875 50.515625 8.265625 
Q 44.046875 -1.421875 31.78125 -1.421875 
Q 19.53125 -1.421875 13.0625 8.265625 
Q 6.59375 17.96875 6.59375 36.375 
Q 6.59375 54.828125 13.0625 64.515625 
Q 19.53125 74.21875 31.78125 74.21875 
" id="DejaVuSans-30"/>
      </defs>
      <g transform="translate(80.502942 516.759538)scale(0.18 -0.18)">
       <use xlink:href="#DejaVuSans-30"/>
      </g>
     </g>
    </g>
    <g id="xtick_2">
     <g id="line2d_2">
      <g>
       <use style="stroke:#000000;stroke-width:0.8;" x="156.872914" xlink:href="#m8beab79273" y="499.58235"/>
      </g>
     </g>
     <g id="text_2">
      <!-- 100 -->
      <defs>
       <path d="M 12.40625 8.296875 
L 28.515625 8.296875 
L 28.515625 63.921875 
L 10.984375 60.40625 
L 10.984375 69.390625 
L 28.421875 72.90625 
L 38.28125 72.90625 
L 38.28125 8.296875 
L 54.390625 8.296875 
L 54.390625 0 
L 12.40625 0 
z
" id="DejaVuSans-31"/>
      </defs>
      <g transform="translate(139.694164 516.759538)scale(0.18 -0.18)">
       <use xlink:href="#DejaVuSans-31"/>
       <use x="63.623047" xlink:href="#DejaVuSans-30"/>
       <use x="127.246094" xlink:href="#DejaVuSans-30"/>
      </g>
     </g>
    </g>
    <g id="xtick_3">
     <g id="line2d_3">
      <g>
       <use style="stroke:#000000;stroke-width:0.8;" x="227.516637" xlink:href="#m8beab79273" y="499.58235"/>
      </g>
     </g>
     <g id="text_3">
      <!-- 200 -->
      <defs>
       <path d="M 19.1875 8.296875 
L 53.609375 8.296875 
L 53.609375 0 
L 7.328125 0 
L 7.328125 8.296875 
Q 12.9375 14.109375 22.625 23.890625 
Q 32.328125 33.6875 34.8125 36.53125 
Q 39.546875 41.84375 41.421875 45.53125 
Q 43.3125 49.21875 43.3125 52.78125 
Q 43.3125 58.59375 39.234375 62.25 
Q 35.15625 65.921875 28.609375 65.921875 
Q 23.96875 65.921875 18.8125 64.3125 
Q 13.671875 62.703125 7.8125 59.421875 
L 7.8125 69.390625 
Q 13.765625 71.78125 18.9375 73 
Q 24.125 74.21875 28.421875 74.21875 
Q 39.75 74.21875 46.484375 68.546875 
Q 53.21875 62.890625 53.21875 53.421875 
Q 53.21875 48.921875 51.53125 44.890625 
Q 49.859375 40.875 45.40625 35.40625 
Q 44.1875 33.984375 37.640625 27.21875 
Q 31.109375 20.453125 19.1875 8.296875 
" id="DejaVuSans-32"/>
      </defs>
      <g transform="translate(210.337887 516.759538)scale(0.18 -0.18)">
       <use xlink:href="#DejaVuSans-32"/>
       <use x="63.623047" xlink:href="#DejaVuSans-30"/>
       <use x="127.246094" xlink:href="#DejaVuSans-30"/>
      </g>
     </g>
    </g>
    <g id="xtick_4">
     <g id="line2d_4">
      <g>
       <use style="stroke:#000000;stroke-width:0.8;" x="298.16036" xlink:href="#m8beab79273" y="499.58235"/>
      </g>
     </g>
     <g id="text_4">
      <!-- 300 -->
      <defs>
       <path d="M 40.578125 39.3125 
Q 47.65625 37.796875 51.625 33 
Q 55.609375 28.21875 55.609375 21.1875 
Q 55.609375 10.40625 48.1875 4.484375 
Q 40.765625 -1.421875 27.09375 -1.421875 
Q 22.515625 -1.421875 17.65625 -0.515625 
Q 12.796875 0.390625 7.625 2.203125 
L 7.625 11.71875 
Q 11.71875 9.328125 16.59375 8.109375 
Q 21.484375 6.890625 26.8125 6.890625 
Q 36.078125 6.890625 40.9375 10.546875 
Q 45.796875 14.203125 45.796875 21.1875 
Q 45.796875 27.640625 41.28125 31.265625 
Q 36.765625 34.90625 28.71875 34.90625 
L 20.21875 34.90625 
L 20.21875 43.015625 
L 29.109375 43.015625 
Q 36.375 43.015625 40.234375 45.921875 
Q 44.09375 48.828125 44.09375 54.296875 
Q 44.09375 59.90625 40.109375 62.90625 
Q 36.140625 65.921875 28.71875 65.921875 
Q 24.65625 65.921875 20.015625 65.03125 
Q 15.375 64.15625 9.8125 62.3125 
L 9.8125 71.09375 
Q 15.4375 72.65625 20.34375 73.4375 
Q 25.25 74.21875 29.59375 74.21875 
Q 40.828125 74.21875 47.359375 69.109375 
Q 53.90625 64.015625 53.90625 55.328125 
Q 53.90625 49.265625 50.4375 45.09375 
Q 46.96875 40.921875 40.578125 39.3125 
" id="DejaVuSans-33"/>
      </defs>
      <g transform="translate(280.98161 516.759538)scale(0.18 -0.18)">
       <use xlink:href="#DejaVuSans-33"/>
       <use x="63.623047" xlink:href="#DejaVuSans-30"/>
       <use x="127.246094" xlink:href="#DejaVuSans-30"/>
      </g>
     </g>
    </g>
    <g id="xtick_5">
     <g id="line2d_5">
      <g>
       <use style="stroke:#000000;stroke-width:0.8;" x="368.804083" xlink:href="#m8beab79273" y="499.58235"/>
      </g>
     </g>
     <g id="text_5">
      <!-- 400 -->
      <defs>
       <path d="M 37.796875 64.3125 
L 12.890625 25.390625 
L 37.796875 25.390625 
z
M 35.203125 72.90625 
L 47.609375 72.90625 
L 47.609375 25.390625 
L 58.015625 25.390625 
L 58.015625 17.1875 
L 47.609375 17.1875 
L 47.609375 0 
L 37.796875 0 
L 37.796875 17.1875 
L 4.890625 17.1875 
L 4.890625 26.703125 
z
" id="DejaVuSans-34"/>
      </defs>
      <g transform="translate(351.625333 516.759538)scale(0.18 -0.18)">
       <use xlink:href="#DejaVuSans-34"/>
       <use x="63.623047" xlink:href="#DejaVuSans-30"/>
       <use x="127.246094" xlink:href="#DejaVuSans-30"/>
      </g>
     </g>
    </g>
    <g id="xtick_6">
     <g id="line2d_6">
      <g>
       <use style="stroke:#000000;stroke-width:0.8;" x="439.447805" xlink:href="#m8beab79273" y="499.58235"/>
      </g>
     </g>
     <g id="text_6">
      <!-- 500 -->
      <defs>
       <path d="M 10.796875 72.90625 
L 49.515625 72.90625 
L 49.515625 64.59375 
L 19.828125 64.59375 
L 19.828125 46.734375 
Q 21.96875 47.46875 24.109375 47.828125 
Q 26.265625 48.1875 28.421875 48.1875 
Q 40.625 48.1875 47.75 41.5 
Q 54.890625 34.8125 54.890625 23.390625 
Q 54.890625 11.625 47.5625 5.09375 
Q 40.234375 -1.421875 26.90625 -1.421875 
Q 22.3125 -1.421875 17.546875 -0.640625 
Q 12.796875 0.140625 7.71875 1.703125 
L 7.71875 11.625 
Q 12.109375 9.234375 16.796875 8.0625 
Q 21.484375 6.890625 26.703125 6.890625 
Q 35.15625 6.890625 40.078125 11.328125 
Q 45.015625 15.765625 45.015625 23.390625 
Q 45.015625 31 40.078125 35.4375 
Q 35.15625 39.890625 26.703125 39.890625 
Q 22.75 39.890625 18.8125 39.015625 
Q 14.890625 38.140625 10.796875 36.28125 
z
" id="DejaVuSans-35"/>
      </defs>
      <g transform="translate(422.269055 516.759538)scale(0.18 -0.18)">
       <use xlink:href="#DejaVuSans-35"/>
       <use x="63.623047" xlink:href="#DejaVuSans-30"/>
       <use x="127.246094" xlink:href="#DejaVuSans-30"/>
      </g>
     </g>
    </g>
    <g id="text_7">
     <!-- Temperatur [K] -->
     <defs>
      <path d="M -0.296875 72.90625 
L 61.375 72.90625 
L 61.375 64.59375 
L 35.5 64.59375 
L 35.5 0 
L 25.59375 0 
L 25.59375 64.59375 
L -0.296875 64.59375 
z
" id="DejaVuSans-54"/>
      <path d="M 56.203125 29.59375 
L 56.203125 25.203125 
L 14.890625 25.203125 
Q 15.484375 15.921875 20.484375 11.0625 
Q 25.484375 6.203125 34.421875 6.203125 
Q 39.59375 6.203125 44.453125 7.46875 
Q 49.3125 8.734375 54.109375 11.28125 
L 54.109375 2.78125 
Q 49.265625 0.734375 44.1875 -0.34375 
Q 39.109375 -1.421875 33.890625 -1.421875 
Q 20.796875 -1.421875 13.15625 6.1875 
Q 5.515625 13.8125 5.515625 26.8125 
Q 5.515625 40.234375 12.765625 48.109375 
Q 20.015625 56 32.328125 56 
Q 43.359375 56 49.78125 48.890625 
Q 56.203125 41.796875 56.203125 29.59375 
M 47.21875 32.234375 
Q 47.125 39.59375 43.09375 43.984375 
Q 39.0625 48.390625 32.421875 48.390625 
Q 24.90625 48.390625 20.390625 44.140625 
Q 15.875 39.890625 15.1875 32.171875 
z
" id="DejaVuSans-65"/>
      <path d="M 52 44.1875 
Q 55.375 50.25 60.0625 53.125 
Q 64.75 56 71.09375 56 
Q 79.640625 56 84.28125 50.015625 
Q 88.921875 44.046875 88.921875 33.015625 
L 88.921875 0 
L 79.890625 0 
L 79.890625 32.71875 
Q 79.890625 40.578125 77.09375 44.375 
Q 74.3125 48.1875 68.609375 48.1875 
Q 61.625 48.1875 57.5625 43.546875 
Q 53.515625 38.921875 53.515625 30.90625 
L 53.515625 0 
L 44.484375 0 
L 44.484375 32.71875 
Q 44.484375 40.625 41.703125 44.40625 
Q 38.921875 48.1875 33.109375 48.1875 
Q 26.21875 48.1875 22.15625 43.53125 
Q 18.109375 38.875 18.109375 30.90625 
L 18.109375 0 
L 9.078125 0 
L 9.078125 54.6875 
L 18.109375 54.6875 
L 18.109375 46.1875 
Q 21.1875 51.21875 25.484375 53.609375 
Q 29.78125 56 35.6875 56 
Q 41.65625 56 45.828125 52.96875 
Q 50 49.953125 52 44.1875 
" id="DejaVuSans-6d"/>
      <path d="M 18.109375 8.203125 
L 18.109375 -20.796875 
L 9.078125 -20.796875 
L 9.078125 54.6875 
L 18.109375 54.6875 
L 18.109375 46.390625 
Q 20.953125 51.265625 25.265625 53.625 
Q 29.59375 56 35.59375 56 
Q 45.5625 56 51.78125 48.09375 
Q 58.015625 40.1875 58.015625 27.296875 
Q 58.015625 14.40625 51.78125 6.484375 
Q 45.5625 -1.421875 35.59375 -1.421875 
Q 29.59375 -1.421875 25.265625 0.953125 
Q 20.953125 3.328125 18.109375 8.203125 
M 48.6875 27.296875 
Q 48.6875 37.203125 44.609375 42.84375 
Q 40.53125 48.484375 33.40625 48.484375 
Q 26.265625 48.484375 22.1875 42.84375 
Q 18.109375 37.203125 18.109375 27.296875 
Q 18.109375 17.390625 22.1875 11.75 
Q 26.265625 6.109375 33.40625 6.109375 
Q 40.53125 6.109375 44.609375 11.75 
Q 48.6875 17.390625 48.6875 27.296875 
" id="DejaVuSans-70"/>
      <path d="M 41.109375 46.296875 
Q 39.59375 47.171875 37.8125 47.578125 
Q 36.03125 48 33.890625 48 
Q 26.265625 48 22.1875 43.046875 
Q 18.109375 38.09375 18.109375 28.8125 
L 18.109375 0 
L 9.078125 0 
L 9.078125 54.6875 
L 18.109375 54.6875 
L 18.109375 46.1875 
Q 20.953125 51.171875 25.484375 53.578125 
Q 30.03125 56 36.53125 56 
Q 37.453125 56 38.578125 55.875 
Q 39.703125 55.765625 41.0625 55.515625 
z
" id="DejaVuSans-72"/>
      <path d="M 34.28125 27.484375 
Q 23.390625 27.484375 19.1875 25 
Q 14.984375 22.515625 14.984375 16.5 
Q 14.984375 11.71875 18.140625 8.90625 
Q 21.296875 6.109375 26.703125 6.109375 
Q 34.1875 6.109375 38.703125 11.40625 
Q 43.21875 16.703125 43.21875 25.484375 
L 43.21875 27.484375 
z
M 52.203125 31.203125 
L 52.203125 0 
L 43.21875 0 
L 43.21875 8.296875 
Q 40.140625 3.328125 35.546875 0.953125 
Q 30.953125 -1.421875 24.3125 -1.421875 
Q 15.921875 -1.421875 10.953125 3.296875 
Q 6 8.015625 6 15.921875 
Q 6 25.140625 12.171875 29.828125 
Q 18.359375 34.515625 30.609375 34.515625 
L 43.21875 34.515625 
L 43.21875 35.40625 
Q 43.21875 41.609375 39.140625 45 
Q 35.0625 48.390625 27.6875 48.390625 
Q 23 48.390625 18.546875 47.265625 
Q 14.109375 46.140625 10.015625 43.890625 
L 10.015625 52.203125 
Q 14.9375 54.109375 19.578125 55.046875 
Q 24.21875 56 28.609375 56 
Q 40.484375 56 46.34375 49.84375 
Q 52.203125 43.703125 52.203125 31.203125 
" id="DejaVuSans-61"/>
      <path d="M 18.3125 70.21875 
L 18.3125 54.6875 
L 36.8125 54.6875 
L 36.8125 47.703125 
L 18.3125 47.703125 
L 18.3125 18.015625 
Q 18.3125 11.328125 20.140625 9.421875 
Q 21.96875 7.515625 27.59375 7.515625 
L 36.8125 7.515625 
L 36.8125 0 
L 27.59375 0 
Q 17.1875 0 13.234375 3.875 
Q 9.28125 7.765625 9.28125 18.015625 
L 9.28125 47.703125 
L 2.6875 47.703125 
L 2.6875 54.6875 
L 9.28125 54.6875 
L 9.28125 70.21875 
z
" id="DejaVuSans-74"/>
      <path d="M 8.5 21.578125 
L 8.5 54.6875 
L 17.484375 54.6875 
L 17.484375 21.921875 
Q 17.484375 14.15625 20.5 10.265625 
Q 23.53125 6.390625 29.59375 6.390625 
Q 36.859375 6.390625 41.078125 11.03125 
Q 45.3125 15.671875 45.3125 23.6875 
L 45.3125 54.6875 
L 54.296875 54.6875 
L 54.296875 0 
L 45.3125 0 
L 45.3125 8.40625 
Q 42.046875 3.421875 37.71875 1 
Q 33.40625 -1.421875 27.6875 -1.421875 
Q 18.265625 -1.421875 13.375 4.4375 
Q 8.5 10.296875 8.5 21.578125 
M 31.109375 56 
z
" id="DejaVuSans-75"/>
      <path id="DejaVuSans-20"/>
      <path d="M 8.59375 75.984375 
L 29.296875 75.984375 
L 29.296875 69 
L 17.578125 69 
L 17.578125 -6.203125 
L 29.296875 -6.203125 
L 29.296875 -13.1875 
L 8.59375 -13.1875 
z
" id="DejaVuSans-5b"/>
      <path d="M 9.8125 72.90625 
L 19.671875 72.90625 
L 19.671875 42.09375 
L 52.390625 72.90625 
L 65.09375 72.90625 
L 28.90625 38.921875 
L 67.671875 0 
L 54.6875 0 
L 19.671875 35.109375 
L 19.671875 0 
L 9.8125 0 
z
" id="DejaVuSans-4b"/>
      <path d="M 30.421875 75.984375 
L 30.421875 -13.1875 
L 9.71875 -13.1875 
L 9.71875 -6.203125 
L 21.390625 -6.203125 
L 21.390625 69 
L 9.71875 69 
L 9.71875 75.984375 
z
" id="DejaVuSans-5d"/>
     </defs>
     <g transform="translate(196.664245 538.180163)scale(0.18 -0.18)">
      <use xlink:href="#DejaVuSans-54"/>
      <use x="60.818359" xlink:href="#DejaVuSans-65"/>
      <use x="122.341797" xlink:href="#DejaVuSans-6d"/>
      <use x="219.753906" xlink:href="#DejaVuSans-70"/>
      <use x="283.230469" xlink:href="#DejaVuSans-65"/>
      <use x="344.753906" xlink:href="#DejaVuSans-72"/>
      <use x="385.867188" xlink:href="#DejaVuSans-61"/>
      <use x="447.146484" xlink:href="#DejaVuSans-74"/>
      <use x="486.355469" xlink:href="#DejaVuSans-75"/>
      <use x="549.734375" xlink:href="#DejaVuSans-72"/>
      <use x="590.847656" xlink:href="#DejaVuSans-20"/>
      <use x="622.634766" xlink:href="#DejaVuSans-5b"/>
      <use x="661.648438" xlink:href="#DejaVuSans-4b"/>
      <use x="727.224609" xlink:href="#DejaVuSans-5d"/>
     </g>
    </g>
   </g>
   <g id="matplotlib.axis_2">
    <g id="ytick_1">
     <g id="line2d_7">
      <defs>
       <path d="M 0 0 
L 3.5 0 
" id="m3dfea7fbc8" style="stroke:#000000;stroke-width:0.8;"/>
      </defs>
      <g>
       <use style="stroke:#000000;stroke-width:0.8;" x="74.420625" xlink:href="#m3dfea7fbc8" y="497.090437"/>
      </g>
     </g>
     <g id="text_8">
      <!-- ${10^{-1}}$ -->
      <defs>
       <path d="M 10.59375 35.5 
L 73.1875 35.5 
L 73.1875 27.203125 
L 10.59375 27.203125 
z
" id="DejaVuSans-2212"/>
      </defs>
      <g transform="translate(28.620625 503.929031)scale(0.18 -0.18)">
       <use transform="translate(0 0.684375)" xlink:href="#DejaVuSans-31"/>
       <use transform="translate(63.623047 0.684375)" xlink:href="#DejaVuSans-30"/>
       <use transform="translate(128.203125 38.965625)scale(0.7)" xlink:href="#DejaVuSans-2212"/>
       <use transform="translate(186.855469 38.965625)scale(0.7)" xlink:href="#DejaVuSans-31"/>
      </g>
     </g>
    </g>
    <g id="ytick_2">
     <g id="line2d_8">
      <g>
       <use style="stroke:#000000;stroke-width:0.8;" x="74.420625" xlink:href="#m3dfea7fbc8" y="416.581797"/>
      </g>
     </g>
     <g id="text_9">
      <!-- ${10^{0}}$ -->
      <g transform="translate(39.240625 423.42039)scale(0.18 -0.18)">
       <use transform="translate(0 0.765625)" xlink:href="#DejaVuSans-31"/>
       <use transform="translate(63.623047 0.765625)" xlink:href="#DejaVuSans-30"/>
       <use transform="translate(128.203125 39.046875)scale(0.7)" xlink:href="#DejaVuSans-30"/>
      </g>
     </g>
    </g>
    <g id="ytick_3">
     <g id="line2d_9">
      <g>
       <use style="stroke:#000000;stroke-width:0.8;" x="74.420625" xlink:href="#m3dfea7fbc8" y="336.073156"/>
      </g>
     </g>
     <g id="text_10">
      <!-- ${10^{1}}$ -->
      <g transform="translate(39.240625 342.91175)scale(0.18 -0.18)">
       <use transform="translate(0 0.684375)" xlink:href="#DejaVuSans-31"/>
       <use transform="translate(63.623047 0.684375)" xlink:href="#DejaVuSans-30"/>
       <use transform="translate(128.203125 38.965625)scale(0.7)" xlink:href="#DejaVuSans-31"/>
      </g>
     </g>
    </g>
    <g id="ytick_4">
     <g id="line2d_10">
      <g>
       <use style="stroke:#000000;stroke-width:0.8;" x="74.420625" xlink:href="#m3dfea7fbc8" y="255.564515"/>
      </g>
     </g>
     <g id="text_11">
      <!-- ${10^{2}}$ -->
      <g transform="translate(39.240625 262.403109)scale(0.18 -0.18)">
       <use transform="translate(0 0.765625)" xlink:href="#DejaVuSans-31"/>
       <use transform="translate(63.623047 0.765625)" xlink:href="#DejaVuSans-30"/>
       <use transform="translate(128.203125 39.046875)scale(0.7)" xlink:href="#DejaVuSans-32"/>
      </g>
     </g>
    </g>
    <g id="ytick_5">
     <g id="line2d_11">
      <g>
       <use style="stroke:#000000;stroke-width:0.8;" x="74.420625" xlink:href="#m3dfea7fbc8" y="175.055875"/>
      </g>
     </g>
     <g id="text_12">
      <!-- ${10^{3}}$ -->
      <g transform="translate(39.240625 181.894469)scale(0.18 -0.18)">
       <use transform="translate(0 0.765625)" xlink:href="#DejaVuSans-31"/>
       <use transform="translate(63.623047 0.765625)" xlink:href="#DejaVuSans-30"/>
       <use transform="translate(128.203125 39.046875)scale(0.7)" xlink:href="#DejaVuSans-33"/>
      </g>
     </g>
    </g>
    <g id="ytick_6">
     <g id="line2d_12">
      <g>
       <use style="stroke:#000000;stroke-width:0.8;" x="74.420625" xlink:href="#m3dfea7fbc8" y="94.547234"/>
      </g>
     </g>
     <g id="text_13">
      <!-- ${10^{4}}$ -->
      <g transform="translate(39.240625 101.385828)scale(0.18 -0.18)">
       <use transform="translate(0 0.684375)" xlink:href="#DejaVuSans-31"/>
       <use transform="translate(63.623047 0.684375)" xlink:href="#DejaVuSans-30"/>
       <use transform="translate(128.203125 38.965625)scale(0.7)" xlink:href="#DejaVuSans-34"/>
      </g>
     </g>
    </g>
    <g id="ytick_7">
     <g id="line2d_13">
      <g>
       <use style="stroke:#000000;stroke-width:0.8;" x="74.420625" xlink:href="#m3dfea7fbc8" y="14.038594"/>
      </g>
     </g>
     <g id="text_14">
      <!-- ${10^{5}}$ -->
      <g transform="translate(39.240625 20.877187)scale(0.18 -0.18)">
       <use transform="translate(0 0.684375)" xlink:href="#DejaVuSans-31"/>
       <use transform="translate(63.623047 0.684375)" xlink:href="#DejaVuSans-30"/>
       <use transform="translate(128.203125 38.965625)scale(0.7)" xlink:href="#DejaVuSans-35"/>
      </g>
     </g>
    </g>
    <g id="ytick_8">
     <g id="line2d_14">
      <defs>
       <path d="M 0 0 
L 2 0 
" id="mce2bf6a0bb" style="stroke:#000000;stroke-width:0.6;"/>
      </defs>
      <g>
       <use style="stroke:#000000;stroke-width:0.6;" x="74.420625" xlink:href="#mce2bf6a0bb" y="472.854921"/>
      </g>
     </g>
    </g>
    <g id="ytick_9">
     <g id="line2d_15">
      <g>
       <use style="stroke:#000000;stroke-width:0.6;" x="74.420625" xlink:href="#mce2bf6a0bb" y="448.619406"/>
      </g>
     </g>
    </g>
    <g id="ytick_10">
     <g id="line2d_16">
      <g>
       <use style="stroke:#000000;stroke-width:0.6;" x="74.420625" xlink:href="#mce2bf6a0bb" y="434.442538"/>
      </g>
     </g>
    </g>
    <g id="ytick_11">
     <g id="line2d_17">
      <g>
       <use style="stroke:#000000;stroke-width:0.6;" x="74.420625" xlink:href="#mce2bf6a0bb" y="424.38389"/>
      </g>
     </g>
    </g>
    <g id="ytick_12">
     <g id="line2d_18">
      <g>
       <use style="stroke:#000000;stroke-width:0.6;" x="74.420625" xlink:href="#mce2bf6a0bb" y="392.346281"/>
      </g>
     </g>
    </g>
    <g id="ytick_13">
     <g id="line2d_19">
      <g>
       <use style="stroke:#000000;stroke-width:0.6;" x="74.420625" xlink:href="#mce2bf6a0bb" y="368.110765"/>
      </g>
     </g>
    </g>
    <g id="ytick_14">
     <g id="line2d_20">
      <g>
       <use style="stroke:#000000;stroke-width:0.6;" x="74.420625" xlink:href="#mce2bf6a0bb" y="353.933897"/>
      </g>
     </g>
    </g>
    <g id="ytick_15">
     <g id="line2d_21">
      <g>
       <use style="stroke:#000000;stroke-width:0.6;" x="74.420625" xlink:href="#mce2bf6a0bb" y="343.875249"/>
      </g>
     </g>
    </g>
    <g id="ytick_16">
     <g id="line2d_22">
      <g>
       <use style="stroke:#000000;stroke-width:0.6;" x="74.420625" xlink:href="#mce2bf6a0bb" y="311.83764"/>
      </g>
     </g>
    </g>
    <g id="ytick_17">
     <g id="line2d_23">
      <g>
       <use style="stroke:#000000;stroke-width:0.6;" x="74.420625" xlink:href="#mce2bf6a0bb" y="287.602125"/>
      </g>
     </g>
    </g>
    <g id="ytick_18">
     <g id="line2d_24">
      <g>
       <use style="stroke:#000000;stroke-width:0.6;" x="74.420625" xlink:href="#mce2bf6a0bb" y="273.425257"/>
      </g>
     </g>
    </g>
    <g id="ytick_19">
     <g id="line2d_25">
      <g>
       <use style="stroke:#000000;stroke-width:0.6;" x="74.420625" xlink:href="#mce2bf6a0bb" y="263.366609"/>
      </g>
     </g>
    </g>
    <g id="ytick_20">
     <g id="line2d_26">
      <g>
       <use style="stroke:#000000;stroke-width:0.6;" x="74.420625" xlink:href="#mce2bf6a0bb" y="231.329"/>
      </g>
     </g>
    </g>
    <g id="ytick_21">
     <g id="line2d_27">
      <g>
       <use style="stroke:#000000;stroke-width:0.6;" x="74.420625" xlink:href="#mce2bf6a0bb" y="207.093484"/>
      </g>
     </g>
    </g>
    <g id="ytick_22">
     <g id="line2d_28">
      <g>
       <use style="stroke:#000000;stroke-width:0.6;" x="74.420625" xlink:href="#mce2bf6a0bb" y="192.916616"/>
      </g>
     </g>
    </g>
    <g id="ytick_23">
     <g id="line2d_29">
      <g>
       <use style="stroke:#000000;stroke-width:0.6;" x="74.420625" xlink:href="#mce2bf6a0bb" y="182.857968"/>
      </g>
     </g>
    </g>
    <g id="ytick_24">
     <g id="line2d_30">
      <g>
       <use style="stroke:#000000;stroke-width:0.6;" x="74.420625" xlink:href="#mce2bf6a0bb" y="150.820359"/>
      </g>
     </g>
    </g>
    <g id="ytick_25">
     <g id="line2d_31">
      <g>
       <use style="stroke:#000000;stroke-width:0.6;" x="74.420625" xlink:href="#mce2bf6a0bb" y="126.584843"/>
      </g>
     </g>
    </g>
    <g id="ytick_26">
     <g id="line2d_32">
      <g>
       <use style="stroke:#000000;stroke-width:0.6;" x="74.420625" xlink:href="#mce2bf6a0bb" y="112.407976"/>
      </g>
     </g>
    </g>
    <g id="ytick_27">
     <g id="line2d_33">
      <g>
       <use style="stroke:#000000;stroke-width:0.6;" x="74.420625" xlink:href="#mce2bf6a0bb" y="102.349328"/>
      </g>
     </g>
    </g>
    <g id="ytick_28">
     <g id="line2d_34">
      <g>
       <use style="stroke:#000000;stroke-width:0.6;" x="74.420625" xlink:href="#mce2bf6a0bb" y="70.311719"/>
      </g>
     </g>
    </g>
    <g id="ytick_29">
     <g id="line2d_35">
      <g>
       <use style="stroke:#000000;stroke-width:0.6;" x="74.420625" xlink:href="#mce2bf6a0bb" y="46.076203"/>
      </g>
     </g>
    </g>
    <g id="ytick_30">
     <g id="line2d_36">
      <g>
       <use style="stroke:#000000;stroke-width:0.6;" x="74.420625" xlink:href="#mce2bf6a0bb" y="31.899335"/>
      </g>
     </g>
    </g>
    <g id="ytick_31">
     <g id="line2d_37">
      <g>
       <use style="stroke:#000000;stroke-width:0.6;" x="74.420625" xlink:href="#mce2bf6a0bb" y="21.840687"/>
      </g>
     </g>
    </g>
    <g id="text_15">
     <!-- 1/$T_1$ [1/s] -->
     <defs>
      <path d="M 25.390625 72.90625 
L 33.6875 72.90625 
L 8.296875 -9.28125 
L 0 -9.28125 
z
" id="DejaVuSans-2f"/>
      <path d="M 5.90625 72.90625 
L 67.578125 72.90625 
L 66.015625 64.59375 
L 39.984375 64.59375 
L 27.484375 0 
L 17.578125 0 
L 30.078125 64.59375 
L 4.296875 64.59375 
z
" id="DejaVuSans-Oblique-54"/>
      <path d="M 44.28125 53.078125 
L 44.28125 44.578125 
Q 40.484375 46.53125 36.375 47.5 
Q 32.28125 48.484375 27.875 48.484375 
Q 21.1875 48.484375 17.84375 46.4375 
Q 14.5 44.390625 14.5 40.28125 
Q 14.5 37.15625 16.890625 35.375 
Q 19.28125 33.59375 26.515625 31.984375 
L 29.59375 31.296875 
Q 39.15625 29.25 43.1875 25.515625 
Q 47.21875 21.78125 47.21875 15.09375 
Q 47.21875 7.46875 41.1875 3.015625 
Q 35.15625 -1.421875 24.609375 -1.421875 
Q 20.21875 -1.421875 15.453125 -0.5625 
Q 10.6875 0.296875 5.421875 2 
L 5.421875 11.28125 
Q 10.40625 8.6875 15.234375 7.390625 
Q 20.0625 6.109375 24.8125 6.109375 
Q 31.15625 6.109375 34.5625 8.28125 
Q 37.984375 10.453125 37.984375 14.40625 
Q 37.984375 18.0625 35.515625 20.015625 
Q 33.0625 21.96875 24.703125 23.78125 
L 21.578125 24.515625 
Q 13.234375 26.265625 9.515625 29.90625 
Q 5.8125 33.546875 5.8125 39.890625 
Q 5.8125 47.609375 11.28125 51.796875 
Q 16.75 56 26.8125 56 
Q 31.78125 56 36.171875 55.265625 
Q 40.578125 54.546875 44.28125 53.078125 
" id="DejaVuSans-73"/>
     </defs>
     <g transform="translate(20.877188 298.53527)rotate(-90)scale(0.18 -0.18)">
      <use transform="translate(0 0.015625)" xlink:href="#DejaVuSans-31"/>
      <use transform="translate(63.623047 0.015625)" xlink:href="#DejaVuSans-2f"/>
      <use transform="translate(97.314453 0.015625)" xlink:href="#DejaVuSans-Oblique-54"/>
      <use transform="translate(158.398438 -16.390625)scale(0.7)" xlink:href="#DejaVuSans-31"/>
      <use transform="translate(205.668945 0.015625)" xlink:href="#DejaVuSans-20"/>
      <use transform="translate(237.456055 0.015625)" xlink:href="#DejaVuSans-5b"/>
      <use transform="translate(276.469727 0.015625)" xlink:href="#DejaVuSans-31"/>
      <use transform="translate(340.092773 0.015625)" xlink:href="#DejaVuSans-2f"/>
      <use transform="translate(373.78418 0.015625)" xlink:href="#DejaVuSans-73"/>
      <use transform="translate(425.883789 0.015625)" xlink:href="#DejaVuSans-5d"/>
     </g>
    </g>
   </g>
   <g id="line2d_38">
    <path clip-path="url(#pe2f51e6ef6)" d="M 333.482221 202.111957 
L 335.603654 177.290525 
L 337.831159 153.860292 
L 340.058664 132.805493 
L 342.180097 114.767825 
L 344.30153 98.612721 
L 346.21082 85.695994 
L 348.014038 74.97242 
L 349.605113 66.766383 
L 351.090116 60.215536 
L 352.469048 55.109147 
L 353.741908 51.224926 
L 354.908696 48.343181 
L 355.969412 46.259902 
L 357.030129 44.65536 
L 357.984774 43.590093 
L 358.939419 42.852912 
L 359.894064 42.412535 
L 360.848708 42.237172 
L 361.803353 42.295439 
L 362.86407 42.59751 
L 364.030858 43.173661 
L 365.40979 44.122112 
L 367.000865 45.493813 
L 369.016226 47.532119 
L 371.880161 50.772338 
L 386.199834 67.432819 
L 390.548772 71.931083 
L 394.791638 76.005528 
L 399.140576 79.876676 
L 403.595586 83.546669 
L 408.262739 87.099877 
L 413.035963 90.455886 
L 418.021331 93.692304 
L 423.324914 96.866488 
L 428.84064 99.906406 
L 434.674581 102.864953 
L 439.447805 105.110452 
L 439.447805 105.110452 
" style="fill:none;stroke:#ff7f0e;stroke-linecap:square;stroke-width:1.5;"/>
   </g>
   <g id="patch_3">
    <path d="M 74.420625 499.58235 
L 74.420625 13.788191 
" style="fill:none;stroke:#000000;stroke-linecap:square;stroke-linejoin:miter;stroke-width:0.8;"/>
   </g>
   <g id="patch_4">
    <path d="M 456.830052 499.58235 
L 456.830052 13.788191 
" style="fill:none;stroke:#000000;stroke-linecap:square;stroke-linejoin:miter;stroke-width:0.8;"/>
   </g>
   <g id="patch_5">
    <path d="M 74.420625 499.58235 
L 456.830052 499.58235 
" style="fill:none;stroke:#000000;stroke-linecap:square;stroke-linejoin:miter;stroke-width:0.8;"/>
   </g>
   <g id="patch_6">
    <path d="M 74.420625 13.788191 
L 456.830052 13.788191 
" style="fill:none;stroke:#000000;stroke-linecap:square;stroke-linejoin:miter;stroke-width:0.8;"/>
   </g>
  </g>
 </g>
 <defs>
  <clipPath id="pe2f51e6ef6">
   <rect height="485.794159" width="382.409427" x="74.420625" y="13.788191"/>
  </clipPath>
 </defs>
</svg>
