<?xml version="1.0" encoding="utf-8" standalone="no"?>
<!DOCTYPE svg PUBLIC "-//W3C//DTD SVG 1.1//EN"
  "http://www.w3.org/Graphics/SVG/1.1/DTD/svg11.dtd">
<!-- Created with matplotlib (http://matplotlib.org/) -->
<svg height="325pt" version="1.1" viewBox="0 0 405 325" width="405pt" xmlns="http://www.w3.org/2000/svg" xmlns:xlink="http://www.w3.org/1999/xlink">
 <defs>
  <style type="text/css">
*{stroke-linecap:butt;stroke-linejoin:round;}
  </style>
 </defs>
 <g id="figure_1">
  <g id="patch_1">
   <path d="M 0 325.986375 
L 405.52 325.986375 
L 405.52 0 
L 0 0 
z
" style="fill:#ffffff;"/>
  </g>
  <g id="axes_1">
   <g id="patch_2">
    <path d="M 37.7 288.430125 
L 394.82 288.430125 
L 394.82 22.318125 
L 37.7 22.318125 
z
" style="fill:#ffffff;"/>
   </g>
   <g id="matplotlib.axis_1">
    <g id="xtick_1">
     <g id="line2d_1">
      <path clip-path="url(#p669e8a7d8f)" d="M 39.143341 288.430125 
L 39.143341 22.318125 
" style="fill:none;stroke:#b0b0b0;stroke-linecap:square;stroke-width:0.8;"/>
     </g>
     <g id="line2d_2">
      <defs>
       <path d="M 0 0 
L 0 3.5 
" id="m1ec362d273" style="stroke:#000000;stroke-width:0.8;"/>
      </defs>
      <g>
       <use style="stroke:#000000;stroke-width:0.8;" x="39.143341" xlink:href="#m1ec362d273" y="288.430125"/>
      </g>
     </g>
     <g id="text_1">
      <!-- 225 -->
      <defs>
       <path d="M 19.1875 8.296875 
L 53.609375 8.296875 
L 53.609375 0 
L 7.328125 0 
L 7.328125 8.296875 
Q 12.9375 14.109375 22.625 23.890625 
Q 32.328125 33.6875 34.8125 36.53125 
Q 39.546875 41.84375 41.421875 45.53125 
Q 43.3125 49.21875 43.3125 52.78125 
Q 43.3125 58.59375 39.234375 62.25 
Q 35.15625 65.921875 28.609375 65.921875 
Q 23.96875 65.921875 18.8125 64.3125 
Q 13.671875 62.703125 7.8125 59.421875 
L 7.8125 69.390625 
Q 13.765625 71.78125 18.9375 73 
Q 24.125 74.21875 28.421875 74.21875 
Q 39.75 74.21875 46.484375 68.546875 
Q 53.21875 62.890625 53.21875 53.421875 
Q 53.21875 48.921875 51.53125 44.890625 
Q 49.859375 40.875 45.40625 35.40625 
Q 44.1875 33.984375 37.640625 27.21875 
Q 31.109375 20.453125 19.1875 8.296875 
z
" id="DejaVuSans-32"/>
       <path d="M 10.796875 72.90625 
L 49.515625 72.90625 
L 49.515625 64.59375 
L 19.828125 64.59375 
L 19.828125 46.734375 
Q 21.96875 47.46875 24.109375 47.828125 
Q 26.265625 48.1875 28.421875 48.1875 
Q 40.625 48.1875 47.75 41.5 
Q 54.890625 34.8125 54.890625 23.390625 
Q 54.890625 11.625 47.5625 5.09375 
Q 40.234375 -1.421875 26.90625 -1.421875 
Q 22.3125 -1.421875 17.546875 -0.640625 
Q 12.796875 0.140625 7.71875 1.703125 
L 7.71875 11.625 
Q 12.109375 9.234375 16.796875 8.0625 
Q 21.484375 6.890625 26.703125 6.890625 
Q 35.15625 6.890625 40.078125 11.328125 
Q 45.015625 15.765625 45.015625 23.390625 
Q 45.015625 31 40.078125 35.4375 
Q 35.15625 39.890625 26.703125 39.890625 
Q 22.75 39.890625 18.8125 39.015625 
Q 14.890625 38.140625 10.796875 36.28125 
z
" id="DejaVuSans-35"/>
      </defs>
      <g transform="translate(29.599591 303.028562)scale(0.1 -0.1)">
       <use xlink:href="#DejaVuSans-32"/>
       <use x="63.623047" xlink:href="#DejaVuSans-32"/>
       <use x="127.246094" xlink:href="#DejaVuSans-35"/>
      </g>
     </g>
    </g>
    <g id="xtick_2">
     <g id="line2d_3">
      <path clip-path="url(#p669e8a7d8f)" d="M 79.595711 288.430125 
L 79.595711 22.318125 
" style="fill:none;stroke:#b0b0b0;stroke-linecap:square;stroke-width:0.8;"/>
     </g>
     <g id="line2d_4">
      <g>
       <use style="stroke:#000000;stroke-width:0.8;" x="79.595711" xlink:href="#m1ec362d273" y="288.430125"/>
      </g>
     </g>
     <g id="text_2">
      <!-- 250 -->
      <defs>
       <path d="M 31.78125 66.40625 
Q 24.171875 66.40625 20.328125 58.90625 
Q 16.5 51.421875 16.5 36.375 
Q 16.5 21.390625 20.328125 13.890625 
Q 24.171875 6.390625 31.78125 6.390625 
Q 39.453125 6.390625 43.28125 13.890625 
Q 47.125 21.390625 47.125 36.375 
Q 47.125 51.421875 43.28125 58.90625 
Q 39.453125 66.40625 31.78125 66.40625 
z
M 31.78125 74.21875 
Q 44.046875 74.21875 50.515625 64.515625 
Q 56.984375 54.828125 56.984375 36.375 
Q 56.984375 17.96875 50.515625 8.265625 
Q 44.046875 -1.421875 31.78125 -1.421875 
Q 19.53125 -1.421875 13.0625 8.265625 
Q 6.59375 17.96875 6.59375 36.375 
Q 6.59375 54.828125 13.0625 64.515625 
Q 19.53125 74.21875 31.78125 74.21875 
z
" id="DejaVuSans-30"/>
      </defs>
      <g transform="translate(70.051961 303.028562)scale(0.1 -0.1)">
       <use xlink:href="#DejaVuSans-32"/>
       <use x="63.623047" xlink:href="#DejaVuSans-35"/>
       <use x="127.246094" xlink:href="#DejaVuSans-30"/>
      </g>
     </g>
    </g>
    <g id="xtick_3">
     <g id="line2d_5">
      <path clip-path="url(#p669e8a7d8f)" d="M 120.048082 288.430125 
L 120.048082 22.318125 
" style="fill:none;stroke:#b0b0b0;stroke-linecap:square;stroke-width:0.8;"/>
     </g>
     <g id="line2d_6">
      <g>
       <use style="stroke:#000000;stroke-width:0.8;" x="120.048082" xlink:href="#m1ec362d273" y="288.430125"/>
      </g>
     </g>
     <g id="text_3">
      <!-- 275 -->
      <defs>
       <path d="M 8.203125 72.90625 
L 55.078125 72.90625 
L 55.078125 68.703125 
L 28.609375 0 
L 18.3125 0 
L 43.21875 64.59375 
L 8.203125 64.59375 
z
" id="DejaVuSans-37"/>
      </defs>
      <g transform="translate(110.504332 303.028562)scale(0.1 -0.1)">
       <use xlink:href="#DejaVuSans-32"/>
       <use x="63.623047" xlink:href="#DejaVuSans-37"/>
       <use x="127.246094" xlink:href="#DejaVuSans-35"/>
      </g>
     </g>
    </g>
    <g id="xtick_4">
     <g id="line2d_7">
      <path clip-path="url(#p669e8a7d8f)" d="M 160.500452 288.430125 
L 160.500452 22.318125 
" style="fill:none;stroke:#b0b0b0;stroke-linecap:square;stroke-width:0.8;"/>
     </g>
     <g id="line2d_8">
      <g>
       <use style="stroke:#000000;stroke-width:0.8;" x="160.500452" xlink:href="#m1ec362d273" y="288.430125"/>
      </g>
     </g>
     <g id="text_4">
      <!-- 300 -->
      <defs>
       <path d="M 40.578125 39.3125 
Q 47.65625 37.796875 51.625 33 
Q 55.609375 28.21875 55.609375 21.1875 
Q 55.609375 10.40625 48.1875 4.484375 
Q 40.765625 -1.421875 27.09375 -1.421875 
Q 22.515625 -1.421875 17.65625 -0.515625 
Q 12.796875 0.390625 7.625 2.203125 
L 7.625 11.71875 
Q 11.71875 9.328125 16.59375 8.109375 
Q 21.484375 6.890625 26.8125 6.890625 
Q 36.078125 6.890625 40.9375 10.546875 
Q 45.796875 14.203125 45.796875 21.1875 
Q 45.796875 27.640625 41.28125 31.265625 
Q 36.765625 34.90625 28.71875 34.90625 
L 20.21875 34.90625 
L 20.21875 43.015625 
L 29.109375 43.015625 
Q 36.375 43.015625 40.234375 45.921875 
Q 44.09375 48.828125 44.09375 54.296875 
Q 44.09375 59.90625 40.109375 62.90625 
Q 36.140625 65.921875 28.71875 65.921875 
Q 24.65625 65.921875 20.015625 65.03125 
Q 15.375 64.15625 9.8125 62.3125 
L 9.8125 71.09375 
Q 15.4375 72.65625 20.34375 73.4375 
Q 25.25 74.21875 29.59375 74.21875 
Q 40.828125 74.21875 47.359375 69.109375 
Q 53.90625 64.015625 53.90625 55.328125 
Q 53.90625 49.265625 50.4375 45.09375 
Q 46.96875 40.921875 40.578125 39.3125 
z
" id="DejaVuSans-33"/>
      </defs>
      <g transform="translate(150.956702 303.028562)scale(0.1 -0.1)">
       <use xlink:href="#DejaVuSans-33"/>
       <use x="63.623047" xlink:href="#DejaVuSans-30"/>
       <use x="127.246094" xlink:href="#DejaVuSans-30"/>
      </g>
     </g>
    </g>
    <g id="xtick_5">
     <g id="line2d_9">
      <path clip-path="url(#p669e8a7d8f)" d="M 200.952823 288.430125 
L 200.952823 22.318125 
" style="fill:none;stroke:#b0b0b0;stroke-linecap:square;stroke-width:0.8;"/>
     </g>
     <g id="line2d_10">
      <g>
       <use style="stroke:#000000;stroke-width:0.8;" x="200.952823" xlink:href="#m1ec362d273" y="288.430125"/>
      </g>
     </g>
     <g id="text_5">
      <!-- 325 -->
      <g transform="translate(191.409073 303.028562)scale(0.1 -0.1)">
       <use xlink:href="#DejaVuSans-33"/>
       <use x="63.623047" xlink:href="#DejaVuSans-32"/>
       <use x="127.246094" xlink:href="#DejaVuSans-35"/>
      </g>
     </g>
    </g>
    <g id="xtick_6">
     <g id="line2d_11">
      <path clip-path="url(#p669e8a7d8f)" d="M 241.405194 288.430125 
L 241.405194 22.318125 
" style="fill:none;stroke:#b0b0b0;stroke-linecap:square;stroke-width:0.8;"/>
     </g>
     <g id="line2d_12">
      <g>
       <use style="stroke:#000000;stroke-width:0.8;" x="241.405194" xlink:href="#m1ec362d273" y="288.430125"/>
      </g>
     </g>
     <g id="text_6">
      <!-- 350 -->
      <g transform="translate(231.861444 303.028562)scale(0.1 -0.1)">
       <use xlink:href="#DejaVuSans-33"/>
       <use x="63.623047" xlink:href="#DejaVuSans-35"/>
       <use x="127.246094" xlink:href="#DejaVuSans-30"/>
      </g>
     </g>
    </g>
    <g id="xtick_7">
     <g id="line2d_13">
      <path clip-path="url(#p669e8a7d8f)" d="M 281.857564 288.430125 
L 281.857564 22.318125 
" style="fill:none;stroke:#b0b0b0;stroke-linecap:square;stroke-width:0.8;"/>
     </g>
     <g id="line2d_14">
      <g>
       <use style="stroke:#000000;stroke-width:0.8;" x="281.857564" xlink:href="#m1ec362d273" y="288.430125"/>
      </g>
     </g>
     <g id="text_7">
      <!-- 375 -->
      <g transform="translate(272.313814 303.028562)scale(0.1 -0.1)">
       <use xlink:href="#DejaVuSans-33"/>
       <use x="63.623047" xlink:href="#DejaVuSans-37"/>
       <use x="127.246094" xlink:href="#DejaVuSans-35"/>
      </g>
     </g>
    </g>
    <g id="xtick_8">
     <g id="line2d_15">
      <path clip-path="url(#p669e8a7d8f)" d="M 322.309935 288.430125 
L 322.309935 22.318125 
" style="fill:none;stroke:#b0b0b0;stroke-linecap:square;stroke-width:0.8;"/>
     </g>
     <g id="line2d_16">
      <g>
       <use style="stroke:#000000;stroke-width:0.8;" x="322.309935" xlink:href="#m1ec362d273" y="288.430125"/>
      </g>
     </g>
     <g id="text_8">
      <!-- 400 -->
      <defs>
       <path d="M 37.796875 64.3125 
L 12.890625 25.390625 
L 37.796875 25.390625 
z
M 35.203125 72.90625 
L 47.609375 72.90625 
L 47.609375 25.390625 
L 58.015625 25.390625 
L 58.015625 17.1875 
L 47.609375 17.1875 
L 47.609375 0 
L 37.796875 0 
L 37.796875 17.1875 
L 4.890625 17.1875 
L 4.890625 26.703125 
z
" id="DejaVuSans-34"/>
      </defs>
      <g transform="translate(312.766185 303.028562)scale(0.1 -0.1)">
       <use xlink:href="#DejaVuSans-34"/>
       <use x="63.623047" xlink:href="#DejaVuSans-30"/>
       <use x="127.246094" xlink:href="#DejaVuSans-30"/>
      </g>
     </g>
    </g>
    <g id="xtick_9">
     <g id="line2d_17">
      <path clip-path="url(#p669e8a7d8f)" d="M 362.762305 288.430125 
L 362.762305 22.318125 
" style="fill:none;stroke:#b0b0b0;stroke-linecap:square;stroke-width:0.8;"/>
     </g>
     <g id="line2d_18">
      <g>
       <use style="stroke:#000000;stroke-width:0.8;" x="362.762305" xlink:href="#m1ec362d273" y="288.430125"/>
      </g>
     </g>
     <g id="text_9">
      <!-- 425 -->
      <g transform="translate(353.218555 303.028562)scale(0.1 -0.1)">
       <use xlink:href="#DejaVuSans-34"/>
       <use x="63.623047" xlink:href="#DejaVuSans-32"/>
       <use x="127.246094" xlink:href="#DejaVuSans-35"/>
      </g>
     </g>
    </g>
    <g id="text_10">
     <!-- Temperatur [K] -->
     <defs>
      <path d="M -0.296875 72.90625 
L 61.375 72.90625 
L 61.375 64.59375 
L 35.5 64.59375 
L 35.5 0 
L 25.59375 0 
L 25.59375 64.59375 
L -0.296875 64.59375 
z
" id="DejaVuSans-54"/>
      <path d="M 56.203125 29.59375 
L 56.203125 25.203125 
L 14.890625 25.203125 
Q 15.484375 15.921875 20.484375 11.0625 
Q 25.484375 6.203125 34.421875 6.203125 
Q 39.59375 6.203125 44.453125 7.46875 
Q 49.3125 8.734375 54.109375 11.28125 
L 54.109375 2.78125 
Q 49.265625 0.734375 44.1875 -0.34375 
Q 39.109375 -1.421875 33.890625 -1.421875 
Q 20.796875 -1.421875 13.15625 6.1875 
Q 5.515625 13.8125 5.515625 26.8125 
Q 5.515625 40.234375 12.765625 48.109375 
Q 20.015625 56 32.328125 56 
Q 43.359375 56 49.78125 48.890625 
Q 56.203125 41.796875 56.203125 29.59375 
z
M 47.21875 32.234375 
Q 47.125 39.59375 43.09375 43.984375 
Q 39.0625 48.390625 32.421875 48.390625 
Q 24.90625 48.390625 20.390625 44.140625 
Q 15.875 39.890625 15.1875 32.171875 
z
" id="DejaVuSans-65"/>
      <path d="M 52 44.1875 
Q 55.375 50.25 60.0625 53.125 
Q 64.75 56 71.09375 56 
Q 79.640625 56 84.28125 50.015625 
Q 88.921875 44.046875 88.921875 33.015625 
L 88.921875 0 
L 79.890625 0 
L 79.890625 32.71875 
Q 79.890625 40.578125 77.09375 44.375 
Q 74.3125 48.1875 68.609375 48.1875 
Q 61.625 48.1875 57.5625 43.546875 
Q 53.515625 38.921875 53.515625 30.90625 
L 53.515625 0 
L 44.484375 0 
L 44.484375 32.71875 
Q 44.484375 40.625 41.703125 44.40625 
Q 38.921875 48.1875 33.109375 48.1875 
Q 26.21875 48.1875 22.15625 43.53125 
Q 18.109375 38.875 18.109375 30.90625 
L 18.109375 0 
L 9.078125 0 
L 9.078125 54.6875 
L 18.109375 54.6875 
L 18.109375 46.1875 
Q 21.1875 51.21875 25.484375 53.609375 
Q 29.78125 56 35.6875 56 
Q 41.65625 56 45.828125 52.96875 
Q 50 49.953125 52 44.1875 
z
" id="DejaVuSans-6d"/>
      <path d="M 18.109375 8.203125 
L 18.109375 -20.796875 
L 9.078125 -20.796875 
L 9.078125 54.6875 
L 18.109375 54.6875 
L 18.109375 46.390625 
Q 20.953125 51.265625 25.265625 53.625 
Q 29.59375 56 35.59375 56 
Q 45.5625 56 51.78125 48.09375 
Q 58.015625 40.1875 58.015625 27.296875 
Q 58.015625 14.40625 51.78125 6.484375 
Q 45.5625 -1.421875 35.59375 -1.421875 
Q 29.59375 -1.421875 25.265625 0.953125 
Q 20.953125 3.328125 18.109375 8.203125 
z
M 48.6875 27.296875 
Q 48.6875 37.203125 44.609375 42.84375 
Q 40.53125 48.484375 33.40625 48.484375 
Q 26.265625 48.484375 22.1875 42.84375 
Q 18.109375 37.203125 18.109375 27.296875 
Q 18.109375 17.390625 22.1875 11.75 
Q 26.265625 6.109375 33.40625 6.109375 
Q 40.53125 6.109375 44.609375 11.75 
Q 48.6875 17.390625 48.6875 27.296875 
z
" id="DejaVuSans-70"/>
      <path d="M 41.109375 46.296875 
Q 39.59375 47.171875 37.8125 47.578125 
Q 36.03125 48 33.890625 48 
Q 26.265625 48 22.1875 43.046875 
Q 18.109375 38.09375 18.109375 28.8125 
L 18.109375 0 
L 9.078125 0 
L 9.078125 54.6875 
L 18.109375 54.6875 
L 18.109375 46.1875 
Q 20.953125 51.171875 25.484375 53.578125 
Q 30.03125 56 36.53125 56 
Q 37.453125 56 38.578125 55.875 
Q 39.703125 55.765625 41.0625 55.515625 
z
" id="DejaVuSans-72"/>
      <path d="M 34.28125 27.484375 
Q 23.390625 27.484375 19.1875 25 
Q 14.984375 22.515625 14.984375 16.5 
Q 14.984375 11.71875 18.140625 8.90625 
Q 21.296875 6.109375 26.703125 6.109375 
Q 34.1875 6.109375 38.703125 11.40625 
Q 43.21875 16.703125 43.21875 25.484375 
L 43.21875 27.484375 
z
M 52.203125 31.203125 
L 52.203125 0 
L 43.21875 0 
L 43.21875 8.296875 
Q 40.140625 3.328125 35.546875 0.953125 
Q 30.953125 -1.421875 24.3125 -1.421875 
Q 15.921875 -1.421875 10.953125 3.296875 
Q 6 8.015625 6 15.921875 
Q 6 25.140625 12.171875 29.828125 
Q 18.359375 34.515625 30.609375 34.515625 
L 43.21875 34.515625 
L 43.21875 35.40625 
Q 43.21875 41.609375 39.140625 45 
Q 35.0625 48.390625 27.6875 48.390625 
Q 23 48.390625 18.546875 47.265625 
Q 14.109375 46.140625 10.015625 43.890625 
L 10.015625 52.203125 
Q 14.9375 54.109375 19.578125 55.046875 
Q 24.21875 56 28.609375 56 
Q 40.484375 56 46.34375 49.84375 
Q 52.203125 43.703125 52.203125 31.203125 
z
" id="DejaVuSans-61"/>
      <path d="M 18.3125 70.21875 
L 18.3125 54.6875 
L 36.8125 54.6875 
L 36.8125 47.703125 
L 18.3125 47.703125 
L 18.3125 18.015625 
Q 18.3125 11.328125 20.140625 9.421875 
Q 21.96875 7.515625 27.59375 7.515625 
L 36.8125 7.515625 
L 36.8125 0 
L 27.59375 0 
Q 17.1875 0 13.234375 3.875 
Q 9.28125 7.765625 9.28125 18.015625 
L 9.28125 47.703125 
L 2.6875 47.703125 
L 2.6875 54.6875 
L 9.28125 54.6875 
L 9.28125 70.21875 
z
" id="DejaVuSans-74"/>
      <path d="M 8.5 21.578125 
L 8.5 54.6875 
L 17.484375 54.6875 
L 17.484375 21.921875 
Q 17.484375 14.15625 20.5 10.265625 
Q 23.53125 6.390625 29.59375 6.390625 
Q 36.859375 6.390625 41.078125 11.03125 
Q 45.3125 15.671875 45.3125 23.6875 
L 45.3125 54.6875 
L 54.296875 54.6875 
L 54.296875 0 
L 45.3125 0 
L 45.3125 8.40625 
Q 42.046875 3.421875 37.71875 1 
Q 33.40625 -1.421875 27.6875 -1.421875 
Q 18.265625 -1.421875 13.375 4.4375 
Q 8.5 10.296875 8.5 21.578125 
z
M 31.109375 56 
z
" id="DejaVuSans-75"/>
      <path id="DejaVuSans-20"/>
      <path d="M 8.59375 75.984375 
L 29.296875 75.984375 
L 29.296875 69 
L 17.578125 69 
L 17.578125 -6.203125 
L 29.296875 -6.203125 
L 29.296875 -13.1875 
L 8.59375 -13.1875 
z
" id="DejaVuSans-5b"/>
      <path d="M 9.8125 72.90625 
L 19.671875 72.90625 
L 19.671875 42.09375 
L 52.390625 72.90625 
L 65.09375 72.90625 
L 28.90625 38.921875 
L 67.671875 0 
L 54.6875 0 
L 19.671875 35.109375 
L 19.671875 0 
L 9.8125 0 
z
" id="DejaVuSans-4b"/>
      <path d="M 30.421875 75.984375 
L 30.421875 -13.1875 
L 9.71875 -13.1875 
L 9.71875 -6.203125 
L 21.390625 -6.203125 
L 21.390625 69 
L 9.71875 69 
L 9.71875 75.984375 
z
" id="DejaVuSans-5d"/>
     </defs>
     <g transform="translate(177.948281 316.706687)scale(0.1 -0.1)">
      <use xlink:href="#DejaVuSans-54"/>
      <use x="60.818359" xlink:href="#DejaVuSans-65"/>
      <use x="122.341797" xlink:href="#DejaVuSans-6d"/>
      <use x="219.753906" xlink:href="#DejaVuSans-70"/>
      <use x="283.230469" xlink:href="#DejaVuSans-65"/>
      <use x="344.753906" xlink:href="#DejaVuSans-72"/>
      <use x="385.867188" xlink:href="#DejaVuSans-61"/>
      <use x="447.146484" xlink:href="#DejaVuSans-74"/>
      <use x="486.355469" xlink:href="#DejaVuSans-75"/>
      <use x="549.734375" xlink:href="#DejaVuSans-72"/>
      <use x="590.847656" xlink:href="#DejaVuSans-20"/>
      <use x="622.634766" xlink:href="#DejaVuSans-5b"/>
      <use x="661.648438" xlink:href="#DejaVuSans-4b"/>
      <use x="727.224609" xlink:href="#DejaVuSans-5d"/>
     </g>
    </g>
   </g>
   <g id="matplotlib.axis_2">
    <g id="ytick_1">
     <g id="line2d_19">
      <path clip-path="url(#p669e8a7d8f)" d="M 37.7 265.833411 
L 394.82 265.833411 
" style="fill:none;stroke:#b0b0b0;stroke-linecap:square;stroke-width:0.8;"/>
     </g>
     <g id="line2d_20">
      <defs>
       <path d="M 0 0 
L -3.5 0 
" id="mda770335dc" style="stroke:#000000;stroke-width:0.8;"/>
      </defs>
      <g>
       <use style="stroke:#000000;stroke-width:0.8;" x="37.7" xlink:href="#mda770335dc" y="265.833411"/>
      </g>
     </g>
     <g id="text_11">
      <!-- $\mathdefault{10^{-5}}$ -->
      <defs>
       <path d="M 12.40625 8.296875 
L 28.515625 8.296875 
L 28.515625 63.921875 
L 10.984375 60.40625 
L 10.984375 69.390625 
L 28.421875 72.90625 
L 38.28125 72.90625 
L 38.28125 8.296875 
L 54.390625 8.296875 
L 54.390625 0 
L 12.40625 0 
z
" id="DejaVuSans-31"/>
       <path d="M 10.59375 35.5 
L 73.1875 35.5 
L 73.1875 27.203125 
L 10.59375 27.203125 
z
" id="DejaVuSans-2212"/>
      </defs>
      <g transform="translate(7.2 269.63263)scale(0.1 -0.1)">
       <use transform="translate(0 0.684375)" xlink:href="#DejaVuSans-31"/>
       <use transform="translate(63.623047 0.684375)" xlink:href="#DejaVuSans-30"/>
       <use transform="translate(128.203125 38.965625)scale(0.7)" xlink:href="#DejaVuSans-2212"/>
       <use transform="translate(186.855469 38.965625)scale(0.7)" xlink:href="#DejaVuSans-35"/>
      </g>
     </g>
    </g>
    <g id="ytick_2">
     <g id="line2d_21">
      <path clip-path="url(#p669e8a7d8f)" d="M 37.7 165.56112 
L 394.82 165.56112 
" style="fill:none;stroke:#b0b0b0;stroke-linecap:square;stroke-width:0.8;"/>
     </g>
     <g id="line2d_22">
      <g>
       <use style="stroke:#000000;stroke-width:0.8;" x="37.7" xlink:href="#mda770335dc" y="165.56112"/>
      </g>
     </g>
     <g id="text_12">
      <!-- $\mathdefault{10^{-4}}$ -->
      <g transform="translate(7.2 169.360338)scale(0.1 -0.1)">
       <use transform="translate(0 0.684375)" xlink:href="#DejaVuSans-31"/>
       <use transform="translate(63.623047 0.684375)" xlink:href="#DejaVuSans-30"/>
       <use transform="translate(128.203125 38.965625)scale(0.7)" xlink:href="#DejaVuSans-2212"/>
       <use transform="translate(186.855469 38.965625)scale(0.7)" xlink:href="#DejaVuSans-34"/>
      </g>
     </g>
    </g>
    <g id="ytick_3">
     <g id="line2d_23">
      <path clip-path="url(#p669e8a7d8f)" d="M 37.7 65.288828 
L 394.82 65.288828 
" style="fill:none;stroke:#b0b0b0;stroke-linecap:square;stroke-width:0.8;"/>
     </g>
     <g id="line2d_24">
      <g>
       <use style="stroke:#000000;stroke-width:0.8;" x="37.7" xlink:href="#mda770335dc" y="65.288828"/>
      </g>
     </g>
     <g id="text_13">
      <!-- $\mathdefault{10^{-3}}$ -->
      <g transform="translate(7.2 69.088047)scale(0.1 -0.1)">
       <use transform="translate(0 0.765625)" xlink:href="#DejaVuSans-31"/>
       <use transform="translate(63.623047 0.765625)" xlink:href="#DejaVuSans-30"/>
       <use transform="translate(128.203125 39.046875)scale(0.7)" xlink:href="#DejaVuSans-2212"/>
       <use transform="translate(186.855469 39.046875)scale(0.7)" xlink:href="#DejaVuSans-33"/>
      </g>
     </g>
    </g>
    <g id="ytick_4">
     <g id="line2d_25">
      <defs>
       <path d="M 0 0 
L -2 0 
" id="m5846daa89e" style="stroke:#000000;stroke-width:0.6;"/>
      </defs>
      <g>
       <use style="stroke:#000000;stroke-width:0.6;" x="37.7" xlink:href="#m5846daa89e" y="288.078693"/>
      </g>
     </g>
    </g>
    <g id="ytick_5">
     <g id="line2d_26">
      <g>
       <use style="stroke:#000000;stroke-width:0.6;" x="37.7" xlink:href="#m5846daa89e" y="281.365785"/>
      </g>
     </g>
    </g>
    <g id="ytick_6">
     <g id="line2d_27">
      <g>
       <use style="stroke:#000000;stroke-width:0.6;" x="37.7" xlink:href="#m5846daa89e" y="275.5508"/>
      </g>
     </g>
    </g>
    <g id="ytick_7">
     <g id="line2d_28">
      <g>
       <use style="stroke:#000000;stroke-width:0.6;" x="37.7" xlink:href="#m5846daa89e" y="270.421619"/>
      </g>
     </g>
    </g>
    <g id="ytick_8">
     <g id="line2d_29">
      <g>
       <use style="stroke:#000000;stroke-width:0.6;" x="37.7" xlink:href="#m5846daa89e" y="235.648444"/>
      </g>
     </g>
    </g>
    <g id="ytick_9">
     <g id="line2d_30">
      <g>
       <use style="stroke:#000000;stroke-width:0.6;" x="37.7" xlink:href="#m5846daa89e" y="217.99137"/>
      </g>
     </g>
    </g>
    <g id="ytick_10">
     <g id="line2d_31">
      <g>
       <use style="stroke:#000000;stroke-width:0.6;" x="37.7" xlink:href="#m5846daa89e" y="205.463476"/>
      </g>
     </g>
    </g>
    <g id="ytick_11">
     <g id="line2d_32">
      <g>
       <use style="stroke:#000000;stroke-width:0.6;" x="37.7" xlink:href="#m5846daa89e" y="195.746087"/>
      </g>
     </g>
    </g>
    <g id="ytick_12">
     <g id="line2d_33">
      <g>
       <use style="stroke:#000000;stroke-width:0.6;" x="37.7" xlink:href="#m5846daa89e" y="187.806402"/>
      </g>
     </g>
    </g>
    <g id="ytick_13">
     <g id="line2d_34">
      <g>
       <use style="stroke:#000000;stroke-width:0.6;" x="37.7" xlink:href="#m5846daa89e" y="181.093494"/>
      </g>
     </g>
    </g>
    <g id="ytick_14">
     <g id="line2d_35">
      <g>
       <use style="stroke:#000000;stroke-width:0.6;" x="37.7" xlink:href="#m5846daa89e" y="175.278509"/>
      </g>
     </g>
    </g>
    <g id="ytick_15">
     <g id="line2d_36">
      <g>
       <use style="stroke:#000000;stroke-width:0.6;" x="37.7" xlink:href="#m5846daa89e" y="170.149328"/>
      </g>
     </g>
    </g>
    <g id="ytick_16">
     <g id="line2d_37">
      <g>
       <use style="stroke:#000000;stroke-width:0.6;" x="37.7" xlink:href="#m5846daa89e" y="135.376152"/>
      </g>
     </g>
    </g>
    <g id="ytick_17">
     <g id="line2d_38">
      <g>
       <use style="stroke:#000000;stroke-width:0.6;" x="37.7" xlink:href="#m5846daa89e" y="117.719078"/>
      </g>
     </g>
    </g>
    <g id="ytick_18">
     <g id="line2d_39">
      <g>
       <use style="stroke:#000000;stroke-width:0.6;" x="37.7" xlink:href="#m5846daa89e" y="105.191185"/>
      </g>
     </g>
    </g>
    <g id="ytick_19">
     <g id="line2d_40">
      <g>
       <use style="stroke:#000000;stroke-width:0.6;" x="37.7" xlink:href="#m5846daa89e" y="95.473796"/>
      </g>
     </g>
    </g>
    <g id="ytick_20">
     <g id="line2d_41">
      <g>
       <use style="stroke:#000000;stroke-width:0.6;" x="37.7" xlink:href="#m5846daa89e" y="87.534111"/>
      </g>
     </g>
    </g>
    <g id="ytick_21">
     <g id="line2d_42">
      <g>
       <use style="stroke:#000000;stroke-width:0.6;" x="37.7" xlink:href="#m5846daa89e" y="80.821203"/>
      </g>
     </g>
    </g>
    <g id="ytick_22">
     <g id="line2d_43">
      <g>
       <use style="stroke:#000000;stroke-width:0.6;" x="37.7" xlink:href="#m5846daa89e" y="75.006217"/>
      </g>
     </g>
    </g>
    <g id="ytick_23">
     <g id="line2d_44">
      <g>
       <use style="stroke:#000000;stroke-width:0.6;" x="37.7" xlink:href="#m5846daa89e" y="69.877037"/>
      </g>
     </g>
    </g>
    <g id="ytick_24">
     <g id="line2d_45">
      <g>
       <use style="stroke:#000000;stroke-width:0.6;" x="37.7" xlink:href="#m5846daa89e" y="35.103861"/>
      </g>
     </g>
    </g>
   </g>
   <g id="LineCollection_1">
    <path clip-path="url(#p669e8a7d8f)" d="M 53.932727 41.941203 
L 53.932727 37.388112 
" style="fill:none;stroke:#1f77b4;stroke-width:1.5;"/>
    <path clip-path="url(#p669e8a7d8f)" d="M 68.641209 40.343381 
L 68.641209 36.584771 
" style="fill:none;stroke:#1f77b4;stroke-width:1.5;"/>
    <path clip-path="url(#p669e8a7d8f)" d="M 84.045472 39.745284 
L 84.045472 35.564623 
" style="fill:none;stroke:#1f77b4;stroke-width:1.5;"/>
    <path clip-path="url(#p669e8a7d8f)" d="M 99.417373 39.974325 
L 99.417373 34.838608 
" style="fill:none;stroke:#1f77b4;stroke-width:1.5;"/>
    <path clip-path="url(#p669e8a7d8f)" d="M 114.853997 39.531972 
L 114.853997 34.87013 
" style="fill:none;stroke:#1f77b4;stroke-width:1.5;"/>
    <path clip-path="url(#p669e8a7d8f)" d="M 130.306803 41.129018 
L 130.306803 36.130117 
" style="fill:none;stroke:#1f77b4;stroke-width:1.5;"/>
   </g>
   <g id="LineCollection_2">
    <path clip-path="url(#p669e8a7d8f)" d="M 161.6493 40.173689 
L 161.6493 36.052224 
" style="fill:none;stroke:#ff7f0e;stroke-width:1.5;"/>
    <path clip-path="url(#p669e8a7d8f)" d="M 176.713763 45.057366 
L 176.713763 40.654585 
" style="fill:none;stroke:#ff7f0e;stroke-width:1.5;"/>
   </g>
   <g id="LineCollection_3">
    <path clip-path="url(#p669e8a7d8f)" d="M 378.587273 208.012972 
L 378.587273 205.069794 
" style="fill:none;stroke:#2ca02c;stroke-width:1.5;"/>
    <path clip-path="url(#p669e8a7d8f)" d="M 371.144037 213.858377 
L 371.144037 209.876431 
" style="fill:none;stroke:#2ca02c;stroke-width:1.5;"/>
    <path clip-path="url(#p669e8a7d8f)" d="M 363.441905 224.855666 
L 363.441905 217.367939 
" style="fill:none;stroke:#2ca02c;stroke-width:1.5;"/>
    <path clip-path="url(#p669e8a7d8f)" d="M 355.723593 236.972121 
L 355.723593 221.475924 
" style="fill:none;stroke:#2ca02c;stroke-width:1.5;"/>
    <path clip-path="url(#p669e8a7d8f)" d="M 347.940557 239.529829 
L 347.940557 217.419297 
" style="fill:none;stroke:#2ca02c;stroke-width:1.5;"/>
    <path clip-path="url(#p669e8a7d8f)" d="M 340.189883 285.101377 
L 340.189883 218.894486 
" style="fill:none;stroke:#2ca02c;stroke-width:1.5;"/>
    <path clip-path="url(#p669e8a7d8f)" d="M 332.423027 212.42071 
" style="fill:none;stroke:#2ca02c;stroke-width:1.5;"/>
    <path clip-path="url(#p669e8a7d8f)" d="M 324.591448 224.1708 
" style="fill:none;stroke:#2ca02c;stroke-width:1.5;"/>
    <path clip-path="url(#p669e8a7d8f)" d="M 316.905498 249.048245 
L 316.905498 222.053809 
" style="fill:none;stroke:#2ca02c;stroke-width:1.5;"/>
    <path clip-path="url(#p669e8a7d8f)" d="M 309.203367 232.262917 
L 309.203367 217.372873 
" style="fill:none;stroke:#2ca02c;stroke-width:1.5;"/>
    <path clip-path="url(#p669e8a7d8f)" d="M 301.485054 218.510923 
L 301.485054 213.413228 
" style="fill:none;stroke:#2ca02c;stroke-width:1.5;"/>
    <path clip-path="url(#p669e8a7d8f)" d="M 293.766742 208.415448 
L 293.766742 205.535676 
" style="fill:none;stroke:#2ca02c;stroke-width:1.5;"/>
    <path clip-path="url(#p669e8a7d8f)" d="M 286.145515 204.317913 
L 286.145515 201.68156 
" style="fill:none;stroke:#2ca02c;stroke-width:1.5;"/>
    <path clip-path="url(#p669e8a7d8f)" d="M 285.935163 204.539258 
L 285.935163 202.54015 
" style="fill:none;stroke:#2ca02c;stroke-width:1.5;"/>
    <path clip-path="url(#p669e8a7d8f)" d="M 278.281575 202.632665 
L 278.281575 200.761232 
" style="fill:none;stroke:#2ca02c;stroke-width:1.5;"/>
    <path clip-path="url(#p669e8a7d8f)" d="M 270.5309 209.851449 
L 270.5309 207.42035 
" style="fill:none;stroke:#2ca02c;stroke-width:1.5;"/>
    <path clip-path="url(#p669e8a7d8f)" d="M 262.796407 219.434104 
L 262.796407 216.312127 
" style="fill:none;stroke:#2ca02c;stroke-width:1.5;"/>
    <path clip-path="url(#p669e8a7d8f)" d="M 254.981009 219.611408 
L 254.981009 216.290509 
" style="fill:none;stroke:#2ca02c;stroke-width:1.5;"/>
   </g>
   <g id="LineCollection_4">
    <path clip-path="url(#p669e8a7d8f)" d="M 286.080792 211.564039 
L 286.080792 207.270938 
" style="fill:none;stroke:#d62728;stroke-width:1.5;"/>
    <path clip-path="url(#p669e8a7d8f)" d="M 279.91585 205.228581 
L 279.91585 202.216132 
" style="fill:none;stroke:#d62728;stroke-width:1.5;"/>
    <path clip-path="url(#p669e8a7d8f)" d="M 275.239556 208.575727 
L 275.239556 205.100092 
" style="fill:none;stroke:#d62728;stroke-width:1.5;"/>
    <path clip-path="url(#p669e8a7d8f)" d="M 270.579443 215.95384 
L 270.579443 211.230627 
" style="fill:none;stroke:#d62728;stroke-width:1.5;"/>
    <path clip-path="url(#p669e8a7d8f)" d="M 267.440339 221.348066 
L 267.440339 214.714857 
" style="fill:none;stroke:#d62728;stroke-width:1.5;"/>
    <path clip-path="url(#p669e8a7d8f)" d="M 264.333597 232.480027 
L 264.333597 222.220897 
" style="fill:none;stroke:#d62728;stroke-width:1.5;"/>
    <path clip-path="url(#p669e8a7d8f)" d="M 261.226855 249.193275 
L 261.226855 231.570278 
" style="fill:none;stroke:#d62728;stroke-width:1.5;"/>
    <path clip-path="url(#p669e8a7d8f)" d="M 258.087751 234.854101 
L 258.087751 222.615375 
" style="fill:none;stroke:#d62728;stroke-width:1.5;"/>
    <path clip-path="url(#p669e8a7d8f)" d="M 254.948647 239.958868 
L 254.948647 225.896395 
" style="fill:none;stroke:#d62728;stroke-width:1.5;"/>
    <path clip-path="url(#p669e8a7d8f)" d="M 250.353258 238.711805 
L 250.353258 223.677345 
" style="fill:none;stroke:#d62728;stroke-width:1.5;"/>
    <path clip-path="url(#p669e8a7d8f)" d="M 245.709326 243.760654 
L 245.709326 225.841666 
" style="fill:none;stroke:#d62728;stroke-width:1.5;"/>
    <path clip-path="url(#p669e8a7d8f)" d="M 241.065394 215.282204 
L 241.065394 204.614509 
" style="fill:none;stroke:#d62728;stroke-width:1.5;"/>
    <path clip-path="url(#p669e8a7d8f)" d="M 236.421462 195.274744 
L 236.421462 188.95402 
" style="fill:none;stroke:#d62728;stroke-width:1.5;"/>
    <path clip-path="url(#p669e8a7d8f)" d="M 231.79371 175.881921 
L 231.79371 170.22862 
" style="fill:none;stroke:#d62728;stroke-width:1.5;"/>
    <path clip-path="url(#p669e8a7d8f)" d="M 236.3891 196.233998 
L 236.3891 189.88046 
" style="fill:none;stroke:#d62728;stroke-width:1.5;"/>
    <path clip-path="url(#p669e8a7d8f)" d="M 227.149778 151.747406 
L 227.149778 149.016116 
" style="fill:none;stroke:#d62728;stroke-width:1.5;"/>
   </g>
   <g id="LineCollection_5">
    <path clip-path="url(#p669e8a7d8f)" d="M 115.387969 35.077526 
L 115.387969 34.414125 
" style="fill:none;stroke:#9467bd;stroke-width:1.5;"/>
    <path clip-path="url(#p669e8a7d8f)" d="M 130.565698 35.733145 
L 130.565698 35.024573 
" style="fill:none;stroke:#9467bd;stroke-width:1.5;"/>
    <path clip-path="url(#p669e8a7d8f)" d="M 146.099408 36.637345 
L 146.099408 35.870875 
" style="fill:none;stroke:#9467bd;stroke-width:1.5;"/>
    <path clip-path="url(#p669e8a7d8f)" d="M 161.568395 39.351048 
L 161.568395 38.591491 
" style="fill:none;stroke:#9467bd;stroke-width:1.5;"/>
    <path clip-path="url(#p669e8a7d8f)" d="M 177.085924 45.407004 
L 177.085924 44.79924 
" style="fill:none;stroke:#9467bd;stroke-width:1.5;"/>
    <path clip-path="url(#p669e8a7d8f)" d="M 192.53873 54.819492 
L 192.53873 54.18381 
" style="fill:none;stroke:#9467bd;stroke-width:1.5;"/>
    <path clip-path="url(#p669e8a7d8f)" d="M 208.104802 84.708595 
L 208.104802 83.920176 
" style="fill:none;stroke:#9467bd;stroke-width:1.5;"/>
   </g>
   <g id="LineCollection_6">
    <path clip-path="url(#p669e8a7d8f)" d="M 169.529421 45.804952 
L 169.529421 45.091824 
" style="fill:none;stroke:#8c564b;stroke-width:1.5;"/>
    <path clip-path="url(#p669e8a7d8f)" d="M 177.053562 47.242438 
L 177.053562 46.501409 
" style="fill:none;stroke:#8c564b;stroke-width:1.5;"/>
    <path clip-path="url(#p669e8a7d8f)" d="M 184.739513 49.315838 
L 184.739513 48.570819 
" style="fill:none;stroke:#8c564b;stroke-width:1.5;"/>
    <path clip-path="url(#p669e8a7d8f)" d="M 192.571092 53.493876 
L 192.571092 52.740775 
" style="fill:none;stroke:#8c564b;stroke-width:1.5;"/>
    <path clip-path="url(#p669e8a7d8f)" d="M 200.337947 62.078669 
L 200.337947 61.317699 
" style="fill:none;stroke:#8c564b;stroke-width:1.5;"/>
    <path clip-path="url(#p669e8a7d8f)" d="M 208.088621 84.784028 
L 208.088621 83.930534 
" style="fill:none;stroke:#8c564b;stroke-width:1.5;"/>
    <path clip-path="url(#p669e8a7d8f)" d="M 215.871657 110.311815 
L 215.871657 109.280786 
" style="fill:none;stroke:#8c564b;stroke-width:1.5;"/>
    <path clip-path="url(#p669e8a7d8f)" d="M 223.638512 139.651798 
L 223.638512 137.866501 
" style="fill:none;stroke:#8c564b;stroke-width:1.5;"/>
    <path clip-path="url(#p669e8a7d8f)" d="M 231.340644 175.210307 
L 231.340644 171.300507 
" style="fill:none;stroke:#8c564b;stroke-width:1.5;"/>
   </g>
   <g id="LineCollection_7">
    <path clip-path="url(#p669e8a7d8f)" d="M 169.529421 45.755871 
L 169.529421 45.112847 
" style="fill:none;stroke:#e377c2;stroke-width:1.5;"/>
    <path clip-path="url(#p669e8a7d8f)" d="M 177.021201 47.648365 
L 177.021201 46.992495 
" style="fill:none;stroke:#e377c2;stroke-width:1.5;"/>
    <path clip-path="url(#p669e8a7d8f)" d="M 184.755694 49.36736 
L 184.755694 48.644907 
" style="fill:none;stroke:#e377c2;stroke-width:1.5;"/>
    <path clip-path="url(#p669e8a7d8f)" d="M 192.571092 53.358562 
L 192.571092 52.627913 
" style="fill:none;stroke:#e377c2;stroke-width:1.5;"/>
    <path clip-path="url(#p669e8a7d8f)" d="M 200.337947 62.036407 
L 200.337947 61.340511 
" style="fill:none;stroke:#e377c2;stroke-width:1.5;"/>
   </g>
   <g id="line2d_46">
    <defs>
     <path d="M -3 3 
L 3 -3 
M -3 -3 
L 3 3 
" id="m57b275b468" style="stroke:#1f77b4;"/>
    </defs>
    <g clip-path="url(#p669e8a7d8f)">
     <use style="fill:#1f77b4;stroke:#1f77b4;" x="53.932727" xlink:href="#m57b275b468" y="39.605179"/>
     <use style="fill:#1f77b4;stroke:#1f77b4;" x="68.641209" xlink:href="#m57b275b468" y="38.423538"/>
     <use style="fill:#1f77b4;stroke:#1f77b4;" x="84.045472" xlink:href="#m57b275b468" y="37.604803"/>
     <use style="fill:#1f77b4;stroke:#1f77b4;" x="99.417373" xlink:href="#m57b275b468" y="37.330801"/>
     <use style="fill:#1f77b4;stroke:#1f77b4;" x="114.853997" xlink:href="#m57b275b468" y="37.138699"/>
     <use style="fill:#1f77b4;stroke:#1f77b4;" x="130.306803" xlink:href="#m57b275b468" y="38.557878"/>
    </g>
   </g>
   <g id="line2d_47">
    <defs>
     <path d="M -3 3 
L 3 -3 
M -3 -3 
L 3 3 
" id="m073b3d1ce3" style="stroke:#ff7f0e;"/>
    </defs>
    <g clip-path="url(#p669e8a7d8f)">
     <use style="fill:#ff7f0e;stroke:#ff7f0e;" x="161.6493" xlink:href="#m073b3d1ce3" y="38.064217"/>
     <use style="fill:#ff7f0e;stroke:#ff7f0e;" x="176.713763" xlink:href="#m073b3d1ce3" y="42.800358"/>
    </g>
   </g>
   <g id="line2d_48">
    <defs>
     <path d="M -3 3 
L 3 -3 
M -3 -3 
L 3 3 
" id="m7e1bf6a9aa" style="stroke:#2ca02c;"/>
    </defs>
    <g clip-path="url(#p669e8a7d8f)">
     <use style="fill:#2ca02c;stroke:#2ca02c;" x="378.587273" xlink:href="#m7e1bf6a9aa" y="206.516523"/>
     <use style="fill:#2ca02c;stroke:#2ca02c;" x="371.144037" xlink:href="#m7e1bf6a9aa" y="211.821907"/>
     <use style="fill:#2ca02c;stroke:#2ca02c;" x="363.441905" xlink:href="#m7e1bf6a9aa" y="220.951068"/>
     <use style="fill:#2ca02c;stroke:#2ca02c;" x="355.723593" xlink:href="#m7e1bf6a9aa" y="228.53835"/>
     <use style="fill:#2ca02c;stroke:#2ca02c;" x="347.940557" xlink:href="#m7e1bf6a9aa" y="227.086106"/>
     <use style="fill:#2ca02c;stroke:#2ca02c;" x="340.189883" xlink:href="#m7e1bf6a9aa" y="240.46854"/>
     <use style="fill:#2ca02c;stroke:#2ca02c;" x="332.423027" xlink:href="#m7e1bf6a9aa" y="251.71785"/>
     <use style="fill:#2ca02c;stroke:#2ca02c;" x="324.591448" xlink:href="#m7e1bf6a9aa" y="276.334125"/>
     <use style="fill:#2ca02c;stroke:#2ca02c;" x="316.905498" xlink:href="#m7e1bf6a9aa" y="233.492012"/>
     <use style="fill:#2ca02c;stroke:#2ca02c;" x="309.203367" xlink:href="#m7e1bf6a9aa" y="224.184562"/>
     <use style="fill:#2ca02c;stroke:#2ca02c;" x="301.485054" xlink:href="#m7e1bf6a9aa" y="215.887526"/>
     <use style="fill:#2ca02c;stroke:#2ca02c;" x="293.766742" xlink:href="#m7e1bf6a9aa" y="206.951762"/>
     <use style="fill:#2ca02c;stroke:#2ca02c;" x="286.145515" xlink:href="#m7e1bf6a9aa" y="202.979789"/>
     <use style="fill:#2ca02c;stroke:#2ca02c;" x="285.935163" xlink:href="#m7e1bf6a9aa" y="203.528234"/>
     <use style="fill:#2ca02c;stroke:#2ca02c;" x="278.281575" xlink:href="#m7e1bf6a9aa" y="201.686896"/>
     <use style="fill:#2ca02c;stroke:#2ca02c;" x="270.5309" xlink:href="#m7e1bf6a9aa" y="208.618937"/>
     <use style="fill:#2ca02c;stroke:#2ca02c;" x="262.796407" xlink:href="#m7e1bf6a9aa" y="217.845144"/>
     <use style="fill:#2ca02c;stroke:#2ca02c;" x="254.981009" xlink:href="#m7e1bf6a9aa" y="217.91931"/>
    </g>
   </g>
   <g id="line2d_49">
    <defs>
     <path d="M -3 3 
L 3 -3 
M -3 -3 
L 3 3 
" id="m97c60ea3a4" style="stroke:#d62728;"/>
    </defs>
    <g clip-path="url(#p669e8a7d8f)">
     <use style="fill:#d62728;stroke:#d62728;" x="286.080792" xlink:href="#m97c60ea3a4" y="209.364606"/>
     <use style="fill:#d62728;stroke:#d62728;" x="279.91585" xlink:href="#m97c60ea3a4" y="203.696313"/>
     <use style="fill:#d62728;stroke:#d62728;" x="275.239556" xlink:href="#m97c60ea3a4" y="206.803244"/>
     <use style="fill:#d62728;stroke:#d62728;" x="270.579443" xlink:href="#m97c60ea3a4" y="213.52823"/>
     <use style="fill:#d62728;stroke:#d62728;" x="267.440339" xlink:href="#m97c60ea3a4" y="217.905287"/>
     <use style="fill:#d62728;stroke:#d62728;" x="264.333597" xlink:href="#m97c60ea3a4" y="227.049048"/>
     <use style="fill:#d62728;stroke:#d62728;" x="261.226855" xlink:href="#m97c60ea3a4" y="239.496329"/>
     <use style="fill:#d62728;stroke:#d62728;" x="258.087751" xlink:href="#m97c60ea3a4" y="228.306196"/>
     <use style="fill:#d62728;stroke:#d62728;" x="254.948647" xlink:href="#m97c60ea3a4" y="232.362447"/>
     <use style="fill:#d62728;stroke:#d62728;" x="250.353258" xlink:href="#m97c60ea3a4" y="230.548958"/>
     <use style="fill:#d62728;stroke:#d62728;" x="245.709326" xlink:href="#m97c60ea3a4" y="233.885927"/>
     <use style="fill:#d62728;stroke:#d62728;" x="241.065394" xlink:href="#m97c60ea3a4" y="209.622518"/>
     <use style="fill:#d62728;stroke:#d62728;" x="236.421462" xlink:href="#m97c60ea3a4" y="191.999805"/>
     <use style="fill:#d62728;stroke:#d62728;" x="231.79371" xlink:href="#m97c60ea3a4" y="172.963597"/>
     <use style="fill:#d62728;stroke:#d62728;" x="236.3891" xlink:href="#m97c60ea3a4" y="192.94146"/>
     <use style="fill:#d62728;stroke:#d62728;" x="227.149778" xlink:href="#m97c60ea3a4" y="150.360351"/>
    </g>
   </g>
   <g id="line2d_50">
    <defs>
     <path d="M -3 3 
L 3 -3 
M -3 -3 
L 3 3 
" id="m48efe6c50f" style="stroke:#9467bd;"/>
    </defs>
    <g clip-path="url(#p669e8a7d8f)">
     <use style="fill:#9467bd;stroke:#9467bd;" x="115.387969" xlink:href="#m48efe6c50f" y="34.744562"/>
     <use style="fill:#9467bd;stroke:#9467bd;" x="130.565698" xlink:href="#m48efe6c50f" y="35.377417"/>
     <use style="fill:#9467bd;stroke:#9467bd;" x="146.099408" xlink:href="#m48efe6c50f" y="36.252423"/>
     <use style="fill:#9467bd;stroke:#9467bd;" x="161.568395" xlink:href="#m48efe6c50f" y="38.969614"/>
     <use style="fill:#9467bd;stroke:#9467bd;" x="177.085924" xlink:href="#m48efe6c50f" y="45.102062"/>
     <use style="fill:#9467bd;stroke:#9467bd;" x="192.53873" xlink:href="#m48efe6c50f" y="54.500491"/>
     <use style="fill:#9467bd;stroke:#9467bd;" x="208.104802" xlink:href="#m48efe6c50f" y="84.312601"/>
    </g>
   </g>
   <g id="line2d_51">
    <defs>
     <path d="M -3 3 
L 3 -3 
M -3 -3 
L 3 3 
" id="m6d76eef7cf" style="stroke:#8c564b;"/>
    </defs>
    <g clip-path="url(#p669e8a7d8f)">
     <use style="fill:#8c564b;stroke:#8c564b;" x="169.529421" xlink:href="#m6d76eef7cf" y="45.446928"/>
     <use style="fill:#8c564b;stroke:#8c564b;" x="177.053562" xlink:href="#m6d76eef7cf" y="46.870347"/>
     <use style="fill:#8c564b;stroke:#8c564b;" x="184.739513" xlink:href="#m6d76eef7cf" y="48.941735"/>
     <use style="fill:#8c564b;stroke:#8c564b;" x="192.571092" xlink:href="#m6d76eef7cf" y="53.115698"/>
     <use style="fill:#8c564b;stroke:#8c564b;" x="200.337947" xlink:href="#m6d76eef7cf" y="61.696522"/>
     <use style="fill:#8c564b;stroke:#8c564b;" x="208.088621" xlink:href="#m6d76eef7cf" y="84.35519"/>
     <use style="fill:#8c564b;stroke:#8c564b;" x="215.871657" xlink:href="#m6d76eef7cf" y="109.793249"/>
     <use style="fill:#8c564b;stroke:#8c564b;" x="223.638512" xlink:href="#m6d76eef7cf" y="138.750002"/>
     <use style="fill:#8c564b;stroke:#8c564b;" x="231.340644" xlink:href="#m6d76eef7cf" y="173.211543"/>
    </g>
   </g>
   <g id="line2d_52">
    <defs>
     <path d="M -3 3 
L 3 -3 
M -3 -3 
L 3 3 
" id="m372576a3e7" style="stroke:#e377c2;"/>
    </defs>
    <g clip-path="url(#p669e8a7d8f)">
     <use style="fill:#e377c2;stroke:#e377c2;" x="169.529421" xlink:href="#m372576a3e7" y="45.433172"/>
     <use style="fill:#e377c2;stroke:#e377c2;" x="177.021201" xlink:href="#m372576a3e7" y="47.319195"/>
     <use style="fill:#e377c2;stroke:#e377c2;" x="184.755694" xlink:href="#m372576a3e7" y="49.004636"/>
     <use style="fill:#e377c2;stroke:#e377c2;" x="192.571092" xlink:href="#m372576a3e7" y="52.991705"/>
     <use style="fill:#e377c2;stroke:#e377c2;" x="200.337947" xlink:href="#m372576a3e7" y="61.687069"/>
    </g>
   </g>
   <g id="patch_3">
    <path d="M 37.7 288.430125 
L 37.7 22.318125 
" style="fill:none;stroke:#000000;stroke-linecap:square;stroke-linejoin:miter;stroke-width:0.8;"/>
   </g>
   <g id="patch_4">
    <path d="M 394.82 288.430125 
L 394.82 22.318125 
" style="fill:none;stroke:#000000;stroke-linecap:square;stroke-linejoin:miter;stroke-width:0.8;"/>
   </g>
   <g id="patch_5">
    <path d="M 37.7 288.430125 
L 394.82 288.430125 
" style="fill:none;stroke:#000000;stroke-linecap:square;stroke-linejoin:miter;stroke-width:0.8;"/>
   </g>
   <g id="patch_6">
    <path d="M 37.7 22.318125 
L 394.82 22.318125 
" style="fill:none;stroke:#000000;stroke-linecap:square;stroke-linejoin:miter;stroke-width:0.8;"/>
   </g>
   <g id="text_14">
    <!-- CRN $T_2$ -->
    <defs>
     <path d="M 64.40625 67.28125 
L 64.40625 56.890625 
Q 59.421875 61.53125 53.78125 63.8125 
Q 48.140625 66.109375 41.796875 66.109375 
Q 29.296875 66.109375 22.65625 58.46875 
Q 16.015625 50.828125 16.015625 36.375 
Q 16.015625 21.96875 22.65625 14.328125 
Q 29.296875 6.6875 41.796875 6.6875 
Q 48.140625 6.6875 53.78125 8.984375 
Q 59.421875 11.28125 64.40625 15.921875 
L 64.40625 5.609375 
Q 59.234375 2.09375 53.4375 0.328125 
Q 47.65625 -1.421875 41.21875 -1.421875 
Q 24.65625 -1.421875 15.125 8.703125 
Q 5.609375 18.84375 5.609375 36.375 
Q 5.609375 53.953125 15.125 64.078125 
Q 24.65625 74.21875 41.21875 74.21875 
Q 47.75 74.21875 53.53125 72.484375 
Q 59.328125 70.75 64.40625 67.28125 
z
" id="DejaVuSans-43"/>
     <path d="M 44.390625 34.1875 
Q 47.5625 33.109375 50.5625 29.59375 
Q 53.5625 26.078125 56.59375 19.921875 
L 66.609375 0 
L 56 0 
L 46.6875 18.703125 
Q 43.0625 26.03125 39.671875 28.421875 
Q 36.28125 30.8125 30.421875 30.8125 
L 19.671875 30.8125 
L 19.671875 0 
L 9.8125 0 
L 9.8125 72.90625 
L 32.078125 72.90625 
Q 44.578125 72.90625 50.734375 67.671875 
Q 56.890625 62.453125 56.890625 51.90625 
Q 56.890625 45.015625 53.6875 40.46875 
Q 50.484375 35.9375 44.390625 34.1875 
z
M 19.671875 64.796875 
L 19.671875 38.921875 
L 32.078125 38.921875 
Q 39.203125 38.921875 42.84375 42.21875 
Q 46.484375 45.515625 46.484375 51.90625 
Q 46.484375 58.296875 42.84375 61.546875 
Q 39.203125 64.796875 32.078125 64.796875 
z
" id="DejaVuSans-52"/>
     <path d="M 9.8125 72.90625 
L 23.09375 72.90625 
L 55.421875 11.921875 
L 55.421875 72.90625 
L 64.984375 72.90625 
L 64.984375 0 
L 51.703125 0 
L 19.390625 60.984375 
L 19.390625 0 
L 9.8125 0 
z
" id="DejaVuSans-4e"/>
     <path d="M 5.90625 72.90625 
L 67.578125 72.90625 
L 66.015625 64.59375 
L 39.984375 64.59375 
L 27.484375 0 
L 17.578125 0 
L 30.078125 64.59375 
L 4.296875 64.59375 
z
" id="DejaVuSans-Oblique-54"/>
    </defs>
    <g transform="translate(194.96 16.318125)scale(0.12 -0.12)">
     <use transform="translate(0 0.78125)" xlink:href="#DejaVuSans-43"/>
     <use transform="translate(69.824219 0.78125)" xlink:href="#DejaVuSans-52"/>
     <use transform="translate(139.306641 0.78125)" xlink:href="#DejaVuSans-4e"/>
     <use transform="translate(214.111328 0.78125)" xlink:href="#DejaVuSans-20"/>
     <use transform="translate(245.898438 0.78125)" xlink:href="#DejaVuSans-Oblique-54"/>
     <use transform="translate(306.982422 -15.625)scale(0.7)" xlink:href="#DejaVuSans-32"/>
    </g>
   </g>
  </g>
 </g>
 <defs>
  <clipPath id="p669e8a7d8f">
   <rect height="266.112" width="357.12" x="37.7" y="22.318125"/>
  </clipPath>
 </defs>
</svg>
