<?xml version="1.0" encoding="utf-8" standalone="no"?>
<!DOCTYPE svg PUBLIC "-//W3C//DTD SVG 1.1//EN"
  "http://www.w3.org/Graphics/SVG/1.1/DTD/svg11.dtd">
<!-- Created with matplotlib (http://matplotlib.org/) -->
<svg height="325pt" version="1.1" viewBox="0 0 408 325" width="408pt" xmlns="http://www.w3.org/2000/svg" xmlns:xlink="http://www.w3.org/1999/xlink">
 <defs>
  <style type="text/css">
*{stroke-linecap:butt;stroke-linejoin:round;}
  </style>
 </defs>
 <g id="figure_1">
  <g id="patch_1">
   <path d="M 0 325.986375 
L 408.423125 325.986375 
L 408.423125 0 
L 0 0 
z
" style="fill:#ffffff;"/>
  </g>
  <g id="axes_1">
   <g id="patch_2">
    <path d="M 40.603125 288.430125 
L 397.723125 288.430125 
L 397.723125 22.318125 
L 40.603125 22.318125 
z
" style="fill:#ffffff;"/>
   </g>
   <g id="matplotlib.axis_1">
    <g id="xtick_1">
     <g id="line2d_1">
      <path clip-path="url(#p794cbe3c4c)" d="M 42.111083 288.430125 
L 42.111083 22.318125 
" style="fill:none;stroke:#b0b0b0;stroke-linecap:square;stroke-width:0.8;"/>
     </g>
     <g id="line2d_2">
      <defs>
       <path d="M 0 0 
L 0 3.5 
" id="mb2a902f53c" style="stroke:#000000;stroke-width:0.8;"/>
      </defs>
      <g>
       <use style="stroke:#000000;stroke-width:0.8;" x="42.111083" xlink:href="#mb2a902f53c" y="288.430125"/>
      </g>
     </g>
     <g id="text_1">
      <!-- 225 -->
      <defs>
       <path d="M 19.1875 8.296875 
L 53.609375 8.296875 
L 53.609375 0 
L 7.328125 0 
L 7.328125 8.296875 
Q 12.9375 14.109375 22.625 23.890625 
Q 32.328125 33.6875 34.8125 36.53125 
Q 39.546875 41.84375 41.421875 45.53125 
Q 43.3125 49.21875 43.3125 52.78125 
Q 43.3125 58.59375 39.234375 62.25 
Q 35.15625 65.921875 28.609375 65.921875 
Q 23.96875 65.921875 18.8125 64.3125 
Q 13.671875 62.703125 7.8125 59.421875 
L 7.8125 69.390625 
Q 13.765625 71.78125 18.9375 73 
Q 24.125 74.21875 28.421875 74.21875 
Q 39.75 74.21875 46.484375 68.546875 
Q 53.21875 62.890625 53.21875 53.421875 
Q 53.21875 48.921875 51.53125 44.890625 
Q 49.859375 40.875 45.40625 35.40625 
Q 44.1875 33.984375 37.640625 27.21875 
Q 31.109375 20.453125 19.1875 8.296875 
z
" id="DejaVuSans-32"/>
       <path d="M 10.796875 72.90625 
L 49.515625 72.90625 
L 49.515625 64.59375 
L 19.828125 64.59375 
L 19.828125 46.734375 
Q 21.96875 47.46875 24.109375 47.828125 
Q 26.265625 48.1875 28.421875 48.1875 
Q 40.625 48.1875 47.75 41.5 
Q 54.890625 34.8125 54.890625 23.390625 
Q 54.890625 11.625 47.5625 5.09375 
Q 40.234375 -1.421875 26.90625 -1.421875 
Q 22.3125 -1.421875 17.546875 -0.640625 
Q 12.796875 0.140625 7.71875 1.703125 
L 7.71875 11.625 
Q 12.109375 9.234375 16.796875 8.0625 
Q 21.484375 6.890625 26.703125 6.890625 
Q 35.15625 6.890625 40.078125 11.328125 
Q 45.015625 15.765625 45.015625 23.390625 
Q 45.015625 31 40.078125 35.4375 
Q 35.15625 39.890625 26.703125 39.890625 
Q 22.75 39.890625 18.8125 39.015625 
Q 14.890625 38.140625 10.796875 36.28125 
z
" id="DejaVuSans-35"/>
      </defs>
      <g transform="translate(32.567333 303.028562)scale(0.1 -0.1)">
       <use xlink:href="#DejaVuSans-32"/>
       <use x="63.623047" xlink:href="#DejaVuSans-32"/>
       <use x="127.246094" xlink:href="#DejaVuSans-35"/>
      </g>
     </g>
    </g>
    <g id="xtick_2">
     <g id="line2d_3">
      <path clip-path="url(#p794cbe3c4c)" d="M 82.430823 288.430125 
L 82.430823 22.318125 
" style="fill:none;stroke:#b0b0b0;stroke-linecap:square;stroke-width:0.8;"/>
     </g>
     <g id="line2d_4">
      <g>
       <use style="stroke:#000000;stroke-width:0.8;" x="82.430823" xlink:href="#mb2a902f53c" y="288.430125"/>
      </g>
     </g>
     <g id="text_2">
      <!-- 250 -->
      <defs>
       <path d="M 31.78125 66.40625 
Q 24.171875 66.40625 20.328125 58.90625 
Q 16.5 51.421875 16.5 36.375 
Q 16.5 21.390625 20.328125 13.890625 
Q 24.171875 6.390625 31.78125 6.390625 
Q 39.453125 6.390625 43.28125 13.890625 
Q 47.125 21.390625 47.125 36.375 
Q 47.125 51.421875 43.28125 58.90625 
Q 39.453125 66.40625 31.78125 66.40625 
z
M 31.78125 74.21875 
Q 44.046875 74.21875 50.515625 64.515625 
Q 56.984375 54.828125 56.984375 36.375 
Q 56.984375 17.96875 50.515625 8.265625 
Q 44.046875 -1.421875 31.78125 -1.421875 
Q 19.53125 -1.421875 13.0625 8.265625 
Q 6.59375 17.96875 6.59375 36.375 
Q 6.59375 54.828125 13.0625 64.515625 
Q 19.53125 74.21875 31.78125 74.21875 
z
" id="DejaVuSans-30"/>
      </defs>
      <g transform="translate(72.887073 303.028562)scale(0.1 -0.1)">
       <use xlink:href="#DejaVuSans-32"/>
       <use x="63.623047" xlink:href="#DejaVuSans-35"/>
       <use x="127.246094" xlink:href="#DejaVuSans-30"/>
      </g>
     </g>
    </g>
    <g id="xtick_3">
     <g id="line2d_5">
      <path clip-path="url(#p794cbe3c4c)" d="M 122.750563 288.430125 
L 122.750563 22.318125 
" style="fill:none;stroke:#b0b0b0;stroke-linecap:square;stroke-width:0.8;"/>
     </g>
     <g id="line2d_6">
      <g>
       <use style="stroke:#000000;stroke-width:0.8;" x="122.750563" xlink:href="#mb2a902f53c" y="288.430125"/>
      </g>
     </g>
     <g id="text_3">
      <!-- 275 -->
      <defs>
       <path d="M 8.203125 72.90625 
L 55.078125 72.90625 
L 55.078125 68.703125 
L 28.609375 0 
L 18.3125 0 
L 43.21875 64.59375 
L 8.203125 64.59375 
z
" id="DejaVuSans-37"/>
      </defs>
      <g transform="translate(113.206813 303.028562)scale(0.1 -0.1)">
       <use xlink:href="#DejaVuSans-32"/>
       <use x="63.623047" xlink:href="#DejaVuSans-37"/>
       <use x="127.246094" xlink:href="#DejaVuSans-35"/>
      </g>
     </g>
    </g>
    <g id="xtick_4">
     <g id="line2d_7">
      <path clip-path="url(#p794cbe3c4c)" d="M 163.070303 288.430125 
L 163.070303 22.318125 
" style="fill:none;stroke:#b0b0b0;stroke-linecap:square;stroke-width:0.8;"/>
     </g>
     <g id="line2d_8">
      <g>
       <use style="stroke:#000000;stroke-width:0.8;" x="163.070303" xlink:href="#mb2a902f53c" y="288.430125"/>
      </g>
     </g>
     <g id="text_4">
      <!-- 300 -->
      <defs>
       <path d="M 40.578125 39.3125 
Q 47.65625 37.796875 51.625 33 
Q 55.609375 28.21875 55.609375 21.1875 
Q 55.609375 10.40625 48.1875 4.484375 
Q 40.765625 -1.421875 27.09375 -1.421875 
Q 22.515625 -1.421875 17.65625 -0.515625 
Q 12.796875 0.390625 7.625 2.203125 
L 7.625 11.71875 
Q 11.71875 9.328125 16.59375 8.109375 
Q 21.484375 6.890625 26.8125 6.890625 
Q 36.078125 6.890625 40.9375 10.546875 
Q 45.796875 14.203125 45.796875 21.1875 
Q 45.796875 27.640625 41.28125 31.265625 
Q 36.765625 34.90625 28.71875 34.90625 
L 20.21875 34.90625 
L 20.21875 43.015625 
L 29.109375 43.015625 
Q 36.375 43.015625 40.234375 45.921875 
Q 44.09375 48.828125 44.09375 54.296875 
Q 44.09375 59.90625 40.109375 62.90625 
Q 36.140625 65.921875 28.71875 65.921875 
Q 24.65625 65.921875 20.015625 65.03125 
Q 15.375 64.15625 9.8125 62.3125 
L 9.8125 71.09375 
Q 15.4375 72.65625 20.34375 73.4375 
Q 25.25 74.21875 29.59375 74.21875 
Q 40.828125 74.21875 47.359375 69.109375 
Q 53.90625 64.015625 53.90625 55.328125 
Q 53.90625 49.265625 50.4375 45.09375 
Q 46.96875 40.921875 40.578125 39.3125 
z
" id="DejaVuSans-33"/>
      </defs>
      <g transform="translate(153.526553 303.028562)scale(0.1 -0.1)">
       <use xlink:href="#DejaVuSans-33"/>
       <use x="63.623047" xlink:href="#DejaVuSans-30"/>
       <use x="127.246094" xlink:href="#DejaVuSans-30"/>
      </g>
     </g>
    </g>
    <g id="xtick_5">
     <g id="line2d_9">
      <path clip-path="url(#p794cbe3c4c)" d="M 203.390043 288.430125 
L 203.390043 22.318125 
" style="fill:none;stroke:#b0b0b0;stroke-linecap:square;stroke-width:0.8;"/>
     </g>
     <g id="line2d_10">
      <g>
       <use style="stroke:#000000;stroke-width:0.8;" x="203.390043" xlink:href="#mb2a902f53c" y="288.430125"/>
      </g>
     </g>
     <g id="text_5">
      <!-- 325 -->
      <g transform="translate(193.846293 303.028562)scale(0.1 -0.1)">
       <use xlink:href="#DejaVuSans-33"/>
       <use x="63.623047" xlink:href="#DejaVuSans-32"/>
       <use x="127.246094" xlink:href="#DejaVuSans-35"/>
      </g>
     </g>
    </g>
    <g id="xtick_6">
     <g id="line2d_11">
      <path clip-path="url(#p794cbe3c4c)" d="M 243.709783 288.430125 
L 243.709783 22.318125 
" style="fill:none;stroke:#b0b0b0;stroke-linecap:square;stroke-width:0.8;"/>
     </g>
     <g id="line2d_12">
      <g>
       <use style="stroke:#000000;stroke-width:0.8;" x="243.709783" xlink:href="#mb2a902f53c" y="288.430125"/>
      </g>
     </g>
     <g id="text_6">
      <!-- 350 -->
      <g transform="translate(234.166033 303.028562)scale(0.1 -0.1)">
       <use xlink:href="#DejaVuSans-33"/>
       <use x="63.623047" xlink:href="#DejaVuSans-35"/>
       <use x="127.246094" xlink:href="#DejaVuSans-30"/>
      </g>
     </g>
    </g>
    <g id="xtick_7">
     <g id="line2d_13">
      <path clip-path="url(#p794cbe3c4c)" d="M 284.029523 288.430125 
L 284.029523 22.318125 
" style="fill:none;stroke:#b0b0b0;stroke-linecap:square;stroke-width:0.8;"/>
     </g>
     <g id="line2d_14">
      <g>
       <use style="stroke:#000000;stroke-width:0.8;" x="284.029523" xlink:href="#mb2a902f53c" y="288.430125"/>
      </g>
     </g>
     <g id="text_7">
      <!-- 375 -->
      <g transform="translate(274.485773 303.028562)scale(0.1 -0.1)">
       <use xlink:href="#DejaVuSans-33"/>
       <use x="63.623047" xlink:href="#DejaVuSans-37"/>
       <use x="127.246094" xlink:href="#DejaVuSans-35"/>
      </g>
     </g>
    </g>
    <g id="xtick_8">
     <g id="line2d_15">
      <path clip-path="url(#p794cbe3c4c)" d="M 324.349262 288.430125 
L 324.349262 22.318125 
" style="fill:none;stroke:#b0b0b0;stroke-linecap:square;stroke-width:0.8;"/>
     </g>
     <g id="line2d_16">
      <g>
       <use style="stroke:#000000;stroke-width:0.8;" x="324.349262" xlink:href="#mb2a902f53c" y="288.430125"/>
      </g>
     </g>
     <g id="text_8">
      <!-- 400 -->
      <defs>
       <path d="M 37.796875 64.3125 
L 12.890625 25.390625 
L 37.796875 25.390625 
z
M 35.203125 72.90625 
L 47.609375 72.90625 
L 47.609375 25.390625 
L 58.015625 25.390625 
L 58.015625 17.1875 
L 47.609375 17.1875 
L 47.609375 0 
L 37.796875 0 
L 37.796875 17.1875 
L 4.890625 17.1875 
L 4.890625 26.703125 
z
" id="DejaVuSans-34"/>
      </defs>
      <g transform="translate(314.805512 303.028562)scale(0.1 -0.1)">
       <use xlink:href="#DejaVuSans-34"/>
       <use x="63.623047" xlink:href="#DejaVuSans-30"/>
       <use x="127.246094" xlink:href="#DejaVuSans-30"/>
      </g>
     </g>
    </g>
    <g id="xtick_9">
     <g id="line2d_17">
      <path clip-path="url(#p794cbe3c4c)" d="M 364.669002 288.430125 
L 364.669002 22.318125 
" style="fill:none;stroke:#b0b0b0;stroke-linecap:square;stroke-width:0.8;"/>
     </g>
     <g id="line2d_18">
      <g>
       <use style="stroke:#000000;stroke-width:0.8;" x="364.669002" xlink:href="#mb2a902f53c" y="288.430125"/>
      </g>
     </g>
     <g id="text_9">
      <!-- 425 -->
      <g transform="translate(355.125252 303.028562)scale(0.1 -0.1)">
       <use xlink:href="#DejaVuSans-34"/>
       <use x="63.623047" xlink:href="#DejaVuSans-32"/>
       <use x="127.246094" xlink:href="#DejaVuSans-35"/>
      </g>
     </g>
    </g>
    <g id="text_10">
     <!-- Temperatur [K] -->
     <defs>
      <path d="M -0.296875 72.90625 
L 61.375 72.90625 
L 61.375 64.59375 
L 35.5 64.59375 
L 35.5 0 
L 25.59375 0 
L 25.59375 64.59375 
L -0.296875 64.59375 
z
" id="DejaVuSans-54"/>
      <path d="M 56.203125 29.59375 
L 56.203125 25.203125 
L 14.890625 25.203125 
Q 15.484375 15.921875 20.484375 11.0625 
Q 25.484375 6.203125 34.421875 6.203125 
Q 39.59375 6.203125 44.453125 7.46875 
Q 49.3125 8.734375 54.109375 11.28125 
L 54.109375 2.78125 
Q 49.265625 0.734375 44.1875 -0.34375 
Q 39.109375 -1.421875 33.890625 -1.421875 
Q 20.796875 -1.421875 13.15625 6.1875 
Q 5.515625 13.8125 5.515625 26.8125 
Q 5.515625 40.234375 12.765625 48.109375 
Q 20.015625 56 32.328125 56 
Q 43.359375 56 49.78125 48.890625 
Q 56.203125 41.796875 56.203125 29.59375 
z
M 47.21875 32.234375 
Q 47.125 39.59375 43.09375 43.984375 
Q 39.0625 48.390625 32.421875 48.390625 
Q 24.90625 48.390625 20.390625 44.140625 
Q 15.875 39.890625 15.1875 32.171875 
z
" id="DejaVuSans-65"/>
      <path d="M 52 44.1875 
Q 55.375 50.25 60.0625 53.125 
Q 64.75 56 71.09375 56 
Q 79.640625 56 84.28125 50.015625 
Q 88.921875 44.046875 88.921875 33.015625 
L 88.921875 0 
L 79.890625 0 
L 79.890625 32.71875 
Q 79.890625 40.578125 77.09375 44.375 
Q 74.3125 48.1875 68.609375 48.1875 
Q 61.625 48.1875 57.5625 43.546875 
Q 53.515625 38.921875 53.515625 30.90625 
L 53.515625 0 
L 44.484375 0 
L 44.484375 32.71875 
Q 44.484375 40.625 41.703125 44.40625 
Q 38.921875 48.1875 33.109375 48.1875 
Q 26.21875 48.1875 22.15625 43.53125 
Q 18.109375 38.875 18.109375 30.90625 
L 18.109375 0 
L 9.078125 0 
L 9.078125 54.6875 
L 18.109375 54.6875 
L 18.109375 46.1875 
Q 21.1875 51.21875 25.484375 53.609375 
Q 29.78125 56 35.6875 56 
Q 41.65625 56 45.828125 52.96875 
Q 50 49.953125 52 44.1875 
z
" id="DejaVuSans-6d"/>
      <path d="M 18.109375 8.203125 
L 18.109375 -20.796875 
L 9.078125 -20.796875 
L 9.078125 54.6875 
L 18.109375 54.6875 
L 18.109375 46.390625 
Q 20.953125 51.265625 25.265625 53.625 
Q 29.59375 56 35.59375 56 
Q 45.5625 56 51.78125 48.09375 
Q 58.015625 40.1875 58.015625 27.296875 
Q 58.015625 14.40625 51.78125 6.484375 
Q 45.5625 -1.421875 35.59375 -1.421875 
Q 29.59375 -1.421875 25.265625 0.953125 
Q 20.953125 3.328125 18.109375 8.203125 
z
M 48.6875 27.296875 
Q 48.6875 37.203125 44.609375 42.84375 
Q 40.53125 48.484375 33.40625 48.484375 
Q 26.265625 48.484375 22.1875 42.84375 
Q 18.109375 37.203125 18.109375 27.296875 
Q 18.109375 17.390625 22.1875 11.75 
Q 26.265625 6.109375 33.40625 6.109375 
Q 40.53125 6.109375 44.609375 11.75 
Q 48.6875 17.390625 48.6875 27.296875 
z
" id="DejaVuSans-70"/>
      <path d="M 41.109375 46.296875 
Q 39.59375 47.171875 37.8125 47.578125 
Q 36.03125 48 33.890625 48 
Q 26.265625 48 22.1875 43.046875 
Q 18.109375 38.09375 18.109375 28.8125 
L 18.109375 0 
L 9.078125 0 
L 9.078125 54.6875 
L 18.109375 54.6875 
L 18.109375 46.1875 
Q 20.953125 51.171875 25.484375 53.578125 
Q 30.03125 56 36.53125 56 
Q 37.453125 56 38.578125 55.875 
Q 39.703125 55.765625 41.0625 55.515625 
z
" id="DejaVuSans-72"/>
      <path d="M 34.28125 27.484375 
Q 23.390625 27.484375 19.1875 25 
Q 14.984375 22.515625 14.984375 16.5 
Q 14.984375 11.71875 18.140625 8.90625 
Q 21.296875 6.109375 26.703125 6.109375 
Q 34.1875 6.109375 38.703125 11.40625 
Q 43.21875 16.703125 43.21875 25.484375 
L 43.21875 27.484375 
z
M 52.203125 31.203125 
L 52.203125 0 
L 43.21875 0 
L 43.21875 8.296875 
Q 40.140625 3.328125 35.546875 0.953125 
Q 30.953125 -1.421875 24.3125 -1.421875 
Q 15.921875 -1.421875 10.953125 3.296875 
Q 6 8.015625 6 15.921875 
Q 6 25.140625 12.171875 29.828125 
Q 18.359375 34.515625 30.609375 34.515625 
L 43.21875 34.515625 
L 43.21875 35.40625 
Q 43.21875 41.609375 39.140625 45 
Q 35.0625 48.390625 27.6875 48.390625 
Q 23 48.390625 18.546875 47.265625 
Q 14.109375 46.140625 10.015625 43.890625 
L 10.015625 52.203125 
Q 14.9375 54.109375 19.578125 55.046875 
Q 24.21875 56 28.609375 56 
Q 40.484375 56 46.34375 49.84375 
Q 52.203125 43.703125 52.203125 31.203125 
z
" id="DejaVuSans-61"/>
      <path d="M 18.3125 70.21875 
L 18.3125 54.6875 
L 36.8125 54.6875 
L 36.8125 47.703125 
L 18.3125 47.703125 
L 18.3125 18.015625 
Q 18.3125 11.328125 20.140625 9.421875 
Q 21.96875 7.515625 27.59375 7.515625 
L 36.8125 7.515625 
L 36.8125 0 
L 27.59375 0 
Q 17.1875 0 13.234375 3.875 
Q 9.28125 7.765625 9.28125 18.015625 
L 9.28125 47.703125 
L 2.6875 47.703125 
L 2.6875 54.6875 
L 9.28125 54.6875 
L 9.28125 70.21875 
z
" id="DejaVuSans-74"/>
      <path d="M 8.5 21.578125 
L 8.5 54.6875 
L 17.484375 54.6875 
L 17.484375 21.921875 
Q 17.484375 14.15625 20.5 10.265625 
Q 23.53125 6.390625 29.59375 6.390625 
Q 36.859375 6.390625 41.078125 11.03125 
Q 45.3125 15.671875 45.3125 23.6875 
L 45.3125 54.6875 
L 54.296875 54.6875 
L 54.296875 0 
L 45.3125 0 
L 45.3125 8.40625 
Q 42.046875 3.421875 37.71875 1 
Q 33.40625 -1.421875 27.6875 -1.421875 
Q 18.265625 -1.421875 13.375 4.4375 
Q 8.5 10.296875 8.5 21.578125 
z
M 31.109375 56 
z
" id="DejaVuSans-75"/>
      <path id="DejaVuSans-20"/>
      <path d="M 8.59375 75.984375 
L 29.296875 75.984375 
L 29.296875 69 
L 17.578125 69 
L 17.578125 -6.203125 
L 29.296875 -6.203125 
L 29.296875 -13.1875 
L 8.59375 -13.1875 
z
" id="DejaVuSans-5b"/>
      <path d="M 9.8125 72.90625 
L 19.671875 72.90625 
L 19.671875 42.09375 
L 52.390625 72.90625 
L 65.09375 72.90625 
L 28.90625 38.921875 
L 67.671875 0 
L 54.6875 0 
L 19.671875 35.109375 
L 19.671875 0 
L 9.8125 0 
z
" id="DejaVuSans-4b"/>
      <path d="M 30.421875 75.984375 
L 30.421875 -13.1875 
L 9.71875 -13.1875 
L 9.71875 -6.203125 
L 21.390625 -6.203125 
L 21.390625 69 
L 9.71875 69 
L 9.71875 75.984375 
z
" id="DejaVuSans-5d"/>
     </defs>
     <g transform="translate(180.851406 316.706687)scale(0.1 -0.1)">
      <use xlink:href="#DejaVuSans-54"/>
      <use x="60.818359" xlink:href="#DejaVuSans-65"/>
      <use x="122.341797" xlink:href="#DejaVuSans-6d"/>
      <use x="219.753906" xlink:href="#DejaVuSans-70"/>
      <use x="283.230469" xlink:href="#DejaVuSans-65"/>
      <use x="344.753906" xlink:href="#DejaVuSans-72"/>
      <use x="385.867188" xlink:href="#DejaVuSans-61"/>
      <use x="447.146484" xlink:href="#DejaVuSans-74"/>
      <use x="486.355469" xlink:href="#DejaVuSans-75"/>
      <use x="549.734375" xlink:href="#DejaVuSans-72"/>
      <use x="590.847656" xlink:href="#DejaVuSans-20"/>
      <use x="622.634766" xlink:href="#DejaVuSans-5b"/>
      <use x="661.648438" xlink:href="#DejaVuSans-4b"/>
      <use x="727.224609" xlink:href="#DejaVuSans-5d"/>
     </g>
    </g>
   </g>
   <g id="matplotlib.axis_2">
    <g id="ytick_1">
     <g id="line2d_19">
      <path clip-path="url(#p794cbe3c4c)" d="M 40.603125 281.920994 
L 397.723125 281.920994 
" style="fill:none;stroke:#b0b0b0;stroke-linecap:square;stroke-width:0.8;"/>
     </g>
     <g id="line2d_20">
      <defs>
       <path d="M 0 0 
L -3.5 0 
" id="ma36a64ecb8" style="stroke:#000000;stroke-width:0.8;"/>
      </defs>
      <g>
       <use style="stroke:#000000;stroke-width:0.8;" x="40.603125" xlink:href="#ma36a64ecb8" y="281.920994"/>
      </g>
     </g>
     <g id="text_11">
      <!-- 10 -->
      <defs>
       <path d="M 12.40625 8.296875 
L 28.515625 8.296875 
L 28.515625 63.921875 
L 10.984375 60.40625 
L 10.984375 69.390625 
L 28.421875 72.90625 
L 38.28125 72.90625 
L 38.28125 8.296875 
L 54.390625 8.296875 
L 54.390625 0 
L 12.40625 0 
z
" id="DejaVuSans-31"/>
      </defs>
      <g transform="translate(20.878125 285.720213)scale(0.1 -0.1)">
       <use xlink:href="#DejaVuSans-31"/>
       <use x="63.623047" xlink:href="#DejaVuSans-30"/>
      </g>
     </g>
    </g>
    <g id="ytick_2">
     <g id="line2d_21">
      <path clip-path="url(#p794cbe3c4c)" d="M 40.603125 247.712188 
L 397.723125 247.712188 
" style="fill:none;stroke:#b0b0b0;stroke-linecap:square;stroke-width:0.8;"/>
     </g>
     <g id="line2d_22">
      <g>
       <use style="stroke:#000000;stroke-width:0.8;" x="40.603125" xlink:href="#ma36a64ecb8" y="247.712188"/>
      </g>
     </g>
     <g id="text_12">
      <!-- 15 -->
      <g transform="translate(20.878125 251.511407)scale(0.1 -0.1)">
       <use xlink:href="#DejaVuSans-31"/>
       <use x="63.623047" xlink:href="#DejaVuSans-35"/>
      </g>
     </g>
    </g>
    <g id="ytick_3">
     <g id="line2d_23">
      <path clip-path="url(#p794cbe3c4c)" d="M 40.603125 213.503382 
L 397.723125 213.503382 
" style="fill:none;stroke:#b0b0b0;stroke-linecap:square;stroke-width:0.8;"/>
     </g>
     <g id="line2d_24">
      <g>
       <use style="stroke:#000000;stroke-width:0.8;" x="40.603125" xlink:href="#ma36a64ecb8" y="213.503382"/>
      </g>
     </g>
     <g id="text_13">
      <!-- 20 -->
      <g transform="translate(20.878125 217.302601)scale(0.1 -0.1)">
       <use xlink:href="#DejaVuSans-32"/>
       <use x="63.623047" xlink:href="#DejaVuSans-30"/>
      </g>
     </g>
    </g>
    <g id="ytick_4">
     <g id="line2d_25">
      <path clip-path="url(#p794cbe3c4c)" d="M 40.603125 179.294576 
L 397.723125 179.294576 
" style="fill:none;stroke:#b0b0b0;stroke-linecap:square;stroke-width:0.8;"/>
     </g>
     <g id="line2d_26">
      <g>
       <use style="stroke:#000000;stroke-width:0.8;" x="40.603125" xlink:href="#ma36a64ecb8" y="179.294576"/>
      </g>
     </g>
     <g id="text_14">
      <!-- 25 -->
      <g transform="translate(20.878125 183.093795)scale(0.1 -0.1)">
       <use xlink:href="#DejaVuSans-32"/>
       <use x="63.623047" xlink:href="#DejaVuSans-35"/>
      </g>
     </g>
    </g>
    <g id="ytick_5">
     <g id="line2d_27">
      <path clip-path="url(#p794cbe3c4c)" d="M 40.603125 145.08577 
L 397.723125 145.08577 
" style="fill:none;stroke:#b0b0b0;stroke-linecap:square;stroke-width:0.8;"/>
     </g>
     <g id="line2d_28">
      <g>
       <use style="stroke:#000000;stroke-width:0.8;" x="40.603125" xlink:href="#ma36a64ecb8" y="145.08577"/>
      </g>
     </g>
     <g id="text_15">
      <!-- 30 -->
      <g transform="translate(20.878125 148.884989)scale(0.1 -0.1)">
       <use xlink:href="#DejaVuSans-33"/>
       <use x="63.623047" xlink:href="#DejaVuSans-30"/>
      </g>
     </g>
    </g>
    <g id="ytick_6">
     <g id="line2d_29">
      <path clip-path="url(#p794cbe3c4c)" d="M 40.603125 110.876964 
L 397.723125 110.876964 
" style="fill:none;stroke:#b0b0b0;stroke-linecap:square;stroke-width:0.8;"/>
     </g>
     <g id="line2d_30">
      <g>
       <use style="stroke:#000000;stroke-width:0.8;" x="40.603125" xlink:href="#ma36a64ecb8" y="110.876964"/>
      </g>
     </g>
     <g id="text_16">
      <!-- 35 -->
      <g transform="translate(20.878125 114.676183)scale(0.1 -0.1)">
       <use xlink:href="#DejaVuSans-33"/>
       <use x="63.623047" xlink:href="#DejaVuSans-35"/>
      </g>
     </g>
    </g>
    <g id="ytick_7">
     <g id="line2d_31">
      <path clip-path="url(#p794cbe3c4c)" d="M 40.603125 76.668158 
L 397.723125 76.668158 
" style="fill:none;stroke:#b0b0b0;stroke-linecap:square;stroke-width:0.8;"/>
     </g>
     <g id="line2d_32">
      <g>
       <use style="stroke:#000000;stroke-width:0.8;" x="40.603125" xlink:href="#ma36a64ecb8" y="76.668158"/>
      </g>
     </g>
     <g id="text_17">
      <!-- 40 -->
      <g transform="translate(20.878125 80.467377)scale(0.1 -0.1)">
       <use xlink:href="#DejaVuSans-34"/>
       <use x="63.623047" xlink:href="#DejaVuSans-30"/>
      </g>
     </g>
    </g>
    <g id="ytick_8">
     <g id="line2d_33">
      <path clip-path="url(#p794cbe3c4c)" d="M 40.603125 42.459352 
L 397.723125 42.459352 
" style="fill:none;stroke:#b0b0b0;stroke-linecap:square;stroke-width:0.8;"/>
     </g>
     <g id="line2d_34">
      <g>
       <use style="stroke:#000000;stroke-width:0.8;" x="40.603125" xlink:href="#ma36a64ecb8" y="42.459352"/>
      </g>
     </g>
     <g id="text_18">
      <!-- 45 -->
      <g transform="translate(20.878125 46.258571)scale(0.1 -0.1)">
       <use xlink:href="#DejaVuSans-34"/>
       <use x="63.623047" xlink:href="#DejaVuSans-35"/>
      </g>
     </g>
    </g>
    <g id="text_19">
     <!-- FWHM [kHz] -->
     <defs>
      <path d="M 9.8125 72.90625 
L 51.703125 72.90625 
L 51.703125 64.59375 
L 19.671875 64.59375 
L 19.671875 43.109375 
L 48.578125 43.109375 
L 48.578125 34.8125 
L 19.671875 34.8125 
L 19.671875 0 
L 9.8125 0 
z
" id="DejaVuSans-46"/>
      <path d="M 3.328125 72.90625 
L 13.28125 72.90625 
L 28.609375 11.28125 
L 43.890625 72.90625 
L 54.984375 72.90625 
L 70.3125 11.28125 
L 85.59375 72.90625 
L 95.609375 72.90625 
L 77.296875 0 
L 64.890625 0 
L 49.515625 63.28125 
L 33.984375 0 
L 21.578125 0 
z
" id="DejaVuSans-57"/>
      <path d="M 9.8125 72.90625 
L 19.671875 72.90625 
L 19.671875 43.015625 
L 55.515625 43.015625 
L 55.515625 72.90625 
L 65.375 72.90625 
L 65.375 0 
L 55.515625 0 
L 55.515625 34.71875 
L 19.671875 34.71875 
L 19.671875 0 
L 9.8125 0 
z
" id="DejaVuSans-48"/>
      <path d="M 9.8125 72.90625 
L 24.515625 72.90625 
L 43.109375 23.296875 
L 61.8125 72.90625 
L 76.515625 72.90625 
L 76.515625 0 
L 66.890625 0 
L 66.890625 64.015625 
L 48.09375 14.015625 
L 38.1875 14.015625 
L 19.390625 64.015625 
L 19.390625 0 
L 9.8125 0 
z
" id="DejaVuSans-4d"/>
      <path d="M 9.078125 75.984375 
L 18.109375 75.984375 
L 18.109375 31.109375 
L 44.921875 54.6875 
L 56.390625 54.6875 
L 27.390625 29.109375 
L 57.625 0 
L 45.90625 0 
L 18.109375 26.703125 
L 18.109375 0 
L 9.078125 0 
z
" id="DejaVuSans-6b"/>
      <path d="M 5.515625 54.6875 
L 48.1875 54.6875 
L 48.1875 46.484375 
L 14.40625 7.171875 
L 48.1875 7.171875 
L 48.1875 0 
L 4.296875 0 
L 4.296875 8.203125 
L 38.09375 47.515625 
L 5.515625 47.515625 
z
" id="DejaVuSans-7a"/>
     </defs>
     <g transform="translate(14.798438 186.038187)rotate(-90)scale(0.1 -0.1)">
      <use xlink:href="#DejaVuSans-46"/>
      <use x="57.519531" xlink:href="#DejaVuSans-57"/>
      <use x="156.396484" xlink:href="#DejaVuSans-48"/>
      <use x="231.591797" xlink:href="#DejaVuSans-4d"/>
      <use x="317.871094" xlink:href="#DejaVuSans-20"/>
      <use x="349.658203" xlink:href="#DejaVuSans-5b"/>
      <use x="388.671875" xlink:href="#DejaVuSans-6b"/>
      <use x="446.582031" xlink:href="#DejaVuSans-48"/>
      <use x="521.777344" xlink:href="#DejaVuSans-7a"/>
      <use x="574.267578" xlink:href="#DejaVuSans-5d"/>
     </g>
    </g>
   </g>
   <g id="LineCollection_1">
    <path clip-path="url(#p794cbe3c4c)" d="M 56.835852 34.414125 
L 56.835852 34.414125 
" style="fill:none;stroke:#1f77b4;stroke-width:1.5;"/>
    <path clip-path="url(#p794cbe3c4c)" d="M 71.544493 41.791596 
L 71.544493 41.791596 
" style="fill:none;stroke:#1f77b4;stroke-width:1.5;"/>
    <path clip-path="url(#p794cbe3c4c)" d="M 86.89825 39.96553 
L 86.89825 39.96553 
" style="fill:none;stroke:#1f77b4;stroke-width:1.5;"/>
    <path clip-path="url(#p794cbe3c4c)" d="M 102.219751 48.088753 
L 102.219751 48.088753 
" style="fill:none;stroke:#1f77b4;stroke-width:1.5;"/>
    <path clip-path="url(#p794cbe3c4c)" d="M 117.605764 53.801624 
L 117.605764 53.801624 
" style="fill:none;stroke:#1f77b4;stroke-width:1.5;"/>
    <path clip-path="url(#p794cbe3c4c)" d="M 133.024033 56.45828 
L 133.024033 56.45828 
" style="fill:none;stroke:#1f77b4;stroke-width:1.5;"/>
   </g>
   <g id="LineCollection_2">
    <path clip-path="url(#p794cbe3c4c)" d="M 118.02509 58.854264 
L 118.02509 58.854264 
" style="fill:none;stroke:#ff7f0e;stroke-width:1.5;"/>
    <path clip-path="url(#p794cbe3c4c)" d="M 133.314335 58.521755 
L 133.314335 58.521755 
" style="fill:none;stroke:#ff7f0e;stroke-width:1.5;"/>
    <path clip-path="url(#p794cbe3c4c)" d="M 148.764859 64.129262 
L 148.764859 64.129262 
" style="fill:none;stroke:#ff7f0e;stroke-width:1.5;"/>
    <path clip-path="url(#p794cbe3c4c)" d="M 164.199256 66.403464 
L 164.199256 66.403464 
" style="fill:none;stroke:#ff7f0e;stroke-width:1.5;"/>
    <path clip-path="url(#p794cbe3c4c)" d="M 179.665908 72.374269 
L 179.665908 72.374269 
" style="fill:none;stroke:#ff7f0e;stroke-width:1.5;"/>
    <path clip-path="url(#p794cbe3c4c)" d="M 195.100304 71.545731 
L 195.100304 71.545731 
" style="fill:none;stroke:#ff7f0e;stroke-width:1.5;"/>
    <path clip-path="url(#p794cbe3c4c)" d="M 210.583084 80.08767 
L 210.583084 80.08767 
" style="fill:none;stroke:#ff7f0e;stroke-width:1.5;"/>
   </g>
   <g id="LineCollection_3">
    <path clip-path="url(#p794cbe3c4c)" d="M 164.231511 64.205206 
L 164.231511 64.205206 
" style="fill:none;stroke:#2ca02c;stroke-width:1.5;"/>
    <path clip-path="url(#p794cbe3c4c)" d="M 179.278838 69.192166 
L 179.278838 69.192166 
" style="fill:none;stroke:#2ca02c;stroke-width:1.5;"/>
   </g>
   <g id="LineCollection_4">
    <path clip-path="url(#p794cbe3c4c)" d="M 249.40293 127.325926 
L 249.40293 127.325926 
" style="fill:none;stroke:#d62728;stroke-width:1.5;"/>
    <path clip-path="url(#p794cbe3c4c)" d="M 241.693796 117.446423 
L 241.693796 117.446423 
" style="fill:none;stroke:#d62728;stroke-width:1.5;"/>
    <path clip-path="url(#p794cbe3c4c)" d="M 233.968533 102.120194 
L 233.968533 102.120194 
" style="fill:none;stroke:#d62728;stroke-width:1.5;"/>
    <path clip-path="url(#p794cbe3c4c)" d="M 226.275527 90.668454 
L 226.275527 90.668454 
" style="fill:none;stroke:#d62728;stroke-width:1.5;"/>
    <path clip-path="url(#p794cbe3c4c)" d="M 218.598649 80.866947 
L 218.598649 80.866947 
" style="fill:none;stroke:#d62728;stroke-width:1.5;"/>
    <path clip-path="url(#p794cbe3c4c)" d="M 210.808875 75.945668 
L 210.808875 75.945668 
" style="fill:none;stroke:#d62728;stroke-width:1.5;"/>
    <path clip-path="url(#p794cbe3c4c)" d="M 203.067485 71.593624 
L 203.067485 71.593624 
" style="fill:none;stroke:#d62728;stroke-width:1.5;"/>
    <path clip-path="url(#p794cbe3c4c)" d="M 195.309967 69.000596 
L 195.309967 69.000596 
" style="fill:none;stroke:#d62728;stroke-width:1.5;"/>
    <path clip-path="url(#p794cbe3c4c)" d="M 187.504065 67.927124 
L 187.504065 67.927124 
" style="fill:none;stroke:#d62728;stroke-width:1.5;"/>
    <path clip-path="url(#p794cbe3c4c)" d="M 179.827187 64.781282 
L 179.827187 64.781282 
" style="fill:none;stroke:#d62728;stroke-width:1.5;"/>
   </g>
   <g id="LineCollection_5">
    <path clip-path="url(#p794cbe3c4c)" d="M 288.158264 274.570697 
L 288.158264 274.569225 
" style="fill:none;stroke:#9467bd;stroke-width:1.5;"/>
    <path clip-path="url(#p794cbe3c4c)" d="M 281.98128 276.334125 
L 281.98128 276.332954 
" style="fill:none;stroke:#9467bd;stroke-width:1.5;"/>
    <path clip-path="url(#p794cbe3c4c)" d="M 277.336446 273.367362 
L 277.336446 273.36607 
" style="fill:none;stroke:#9467bd;stroke-width:1.5;"/>
    <path clip-path="url(#p794cbe3c4c)" d="M 272.691612 260.25664 
L 272.691612 260.254654 
" style="fill:none;stroke:#9467bd;stroke-width:1.5;"/>
    <path clip-path="url(#p794cbe3c4c)" d="M 269.578928 245.472916 
L 269.578928 245.469934 
" style="fill:none;stroke:#9467bd;stroke-width:1.5;"/>
    <path clip-path="url(#p794cbe3c4c)" d="M 266.482372 226.286866 
L 266.482372 226.281884 
" style="fill:none;stroke:#9467bd;stroke-width:1.5;"/>
    <path clip-path="url(#p794cbe3c4c)" d="M 263.369688 206.844305 
L 263.369688 206.836582 
" style="fill:none;stroke:#9467bd;stroke-width:1.5;"/>
    <path clip-path="url(#p794cbe3c4c)" d="M 260.240876 177.355971 
L 260.240876 177.344084 
" style="fill:none;stroke:#9467bd;stroke-width:1.5;"/>
    <path clip-path="url(#p794cbe3c4c)" d="M 257.128192 142.949824 
L 257.128192 142.934801 
" style="fill:none;stroke:#9467bd;stroke-width:1.5;"/>
    <path clip-path="url(#p794cbe3c4c)" d="M 252.515614 128.850035 
L 252.515614 128.838338 
" style="fill:none;stroke:#9467bd;stroke-width:1.5;"/>
    <path clip-path="url(#p794cbe3c4c)" d="M 247.886908 132.489054 
L 247.886908 132.48226 
" style="fill:none;stroke:#9467bd;stroke-width:1.5;"/>
    <path clip-path="url(#p794cbe3c4c)" d="M 243.258202 114.408073 
L 243.258202 114.403317 
" style="fill:none;stroke:#9467bd;stroke-width:1.5;"/>
    <path clip-path="url(#p794cbe3c4c)" d="M 238.629495 104.211326 
L 238.629495 104.207677 
" style="fill:none;stroke:#9467bd;stroke-width:1.5;"/>
    <path clip-path="url(#p794cbe3c4c)" d="M 234.016917 98.913079 
L 234.016917 98.910041 
" style="fill:none;stroke:#9467bd;stroke-width:1.5;"/>
    <path clip-path="url(#p794cbe3c4c)" d="M 243.129178 114.220161 
L 243.129178 114.215291 
" style="fill:none;stroke:#9467bd;stroke-width:1.5;"/>
    <path clip-path="url(#p794cbe3c4c)" d="M 238.629495 106.780831 
L 238.629495 106.777217 
" style="fill:none;stroke:#9467bd;stroke-width:1.5;"/>
    <path clip-path="url(#p794cbe3c4c)" d="M 234.000789 97.765763 
L 234.000789 97.76272 
" style="fill:none;stroke:#9467bd;stroke-width:1.5;"/>
    <path clip-path="url(#p794cbe3c4c)" d="M 229.388211 90.328567 
L 229.388211 90.325838 
" style="fill:none;stroke:#9467bd;stroke-width:1.5;"/>
   </g>
   <g id="LineCollection_6">
    <path clip-path="url(#p794cbe3c4c)" d="M 381.490398 245.131784 
L 381.490398 245.128876 
" style="fill:none;stroke:#8c564b;stroke-width:1.5;"/>
    <path clip-path="url(#p794cbe3c4c)" d="M 374.184461 223.495404 
L 374.184461 223.489692 
" style="fill:none;stroke:#8c564b;stroke-width:1.5;"/>
    <path clip-path="url(#p794cbe3c4c)" d="M 366.52371 198.536828 
L 366.52371 198.524443 
" style="fill:none;stroke:#8c564b;stroke-width:1.5;"/>
    <path clip-path="url(#p794cbe3c4c)" d="M 358.798448 184.732139 
L 358.798448 184.706714 
" style="fill:none;stroke:#8c564b;stroke-width:1.5;"/>
    <path clip-path="url(#p794cbe3c4c)" d="M 350.976419 162.564214 
L 350.976419 162.516134 
" style="fill:none;stroke:#8c564b;stroke-width:1.5;"/>
    <path clip-path="url(#p794cbe3c4c)" d="M 343.218901 168.235365 
L 343.218901 168.175038 
" style="fill:none;stroke:#8c564b;stroke-width:1.5;"/>
    <path clip-path="url(#p794cbe3c4c)" d="M 335.445255 155.101073 
L 335.445255 155.035388 
" style="fill:none;stroke:#8c564b;stroke-width:1.5;"/>
    <path clip-path="url(#p794cbe3c4c)" d="M 327.639353 136.505724 
L 327.639353 136.444767 
" style="fill:none;stroke:#8c564b;stroke-width:1.5;"/>
    <path clip-path="url(#p794cbe3c4c)" d="M 319.881835 168.752831 
L 319.881835 168.717706 
" style="fill:none;stroke:#8c564b;stroke-width:1.5;"/>
    <path clip-path="url(#p794cbe3c4c)" d="M 312.221085 193.893036 
L 312.221085 193.875917 
" style="fill:none;stroke:#8c564b;stroke-width:1.5;"/>
    <path clip-path="url(#p794cbe3c4c)" d="M 304.495822 224.902536 
L 304.495822 224.895248 
" style="fill:none;stroke:#8c564b;stroke-width:1.5;"/>
    <path clip-path="url(#p794cbe3c4c)" d="M 296.77056 249.560578 
L 296.77056 249.557367 
" style="fill:none;stroke:#8c564b;stroke-width:1.5;"/>
    <path clip-path="url(#p794cbe3c4c)" d="M 289.158193 269.167961 
L 289.158193 269.166369 
" style="fill:none;stroke:#8c564b;stroke-width:1.5;"/>
    <path clip-path="url(#p794cbe3c4c)" d="M 281.239397 275.658116 
L 281.239397 275.656906 
" style="fill:none;stroke:#8c564b;stroke-width:1.5;"/>
    <path clip-path="url(#p794cbe3c4c)" d="M 273.514134 260.319241 
L 273.514134 260.317231 
" style="fill:none;stroke:#8c564b;stroke-width:1.5;"/>
    <path clip-path="url(#p794cbe3c4c)" d="M 265.740489 217.838273 
L 265.740489 217.831916 
" style="fill:none;stroke:#8c564b;stroke-width:1.5;"/>
    <path clip-path="url(#p794cbe3c4c)" d="M 257.918459 145.163584 
L 257.918459 145.147772 
" style="fill:none;stroke:#8c564b;stroke-width:1.5;"/>
   </g>
   <g id="LineCollection_7">
    <path clip-path="url(#p794cbe3c4c)" d="M 172.053541 69.1258 
L 172.053541 69.1258 
" style="fill:none;stroke:#e377c2;stroke-width:1.5;"/>
    <path clip-path="url(#p794cbe3c4c)" d="M 179.633652 70.095962 
L 179.633652 70.095962 
" style="fill:none;stroke:#e377c2;stroke-width:1.5;"/>
    <path clip-path="url(#p794cbe3c4c)" d="M 187.310531 69.659458 
L 187.310531 69.659458 
" style="fill:none;stroke:#e377c2;stroke-width:1.5;"/>
    <path clip-path="url(#p794cbe3c4c)" d="M 195.100304 72.727304 
L 195.100304 72.727304 
" style="fill:none;stroke:#e377c2;stroke-width:1.5;"/>
    <path clip-path="url(#p794cbe3c4c)" d="M 202.841694 75.334015 
L 202.841694 75.334015 
" style="fill:none;stroke:#e377c2;stroke-width:1.5;"/>
    <path clip-path="url(#p794cbe3c4c)" d="M 210.583084 79.261186 
L 210.583084 79.261186 
" style="fill:none;stroke:#e377c2;stroke-width:1.5;"/>
    <path clip-path="url(#p794cbe3c4c)" d="M 218.340602 83.379242 
L 218.340602 83.379242 
" style="fill:none;stroke:#e377c2;stroke-width:1.5;"/>
    <path clip-path="url(#p794cbe3c4c)" d="M 226.065864 95.075917 
L 226.065864 95.075917 
" style="fill:none;stroke:#e377c2;stroke-width:1.5;"/>
    <path clip-path="url(#p794cbe3c4c)" d="M 233.742743 106.583759 
L 233.742743 106.583759 
" style="fill:none;stroke:#e377c2;stroke-width:1.5;"/>
   </g>
   <g id="line2d_35">
    <defs>
     <path d="M 0 1.5 
C 0.397805 1.5 0.77937 1.341951 1.06066 1.06066 
C 1.341951 0.77937 1.5 0.397805 1.5 0 
C 1.5 -0.397805 1.341951 -0.77937 1.06066 -1.06066 
C 0.77937 -1.341951 0.397805 -1.5 0 -1.5 
C -0.397805 -1.5 -0.77937 -1.341951 -1.06066 -1.06066 
C -1.341951 -0.77937 -1.5 -0.397805 -1.5 0 
C -1.5 0.397805 -1.341951 0.77937 -1.06066 1.06066 
C -0.77937 1.341951 -0.397805 1.5 0 1.5 
z
" id="m3d406bedc6" style="stroke:#1f77b4;"/>
    </defs>
    <g clip-path="url(#p794cbe3c4c)">
     <use style="fill:#1f77b4;stroke:#1f77b4;" x="56.835852" xlink:href="#m3d406bedc6" y="34.414125"/>
     <use style="fill:#1f77b4;stroke:#1f77b4;" x="71.544493" xlink:href="#m3d406bedc6" y="41.791596"/>
     <use style="fill:#1f77b4;stroke:#1f77b4;" x="86.89825" xlink:href="#m3d406bedc6" y="39.96553"/>
     <use style="fill:#1f77b4;stroke:#1f77b4;" x="102.219751" xlink:href="#m3d406bedc6" y="48.088753"/>
     <use style="fill:#1f77b4;stroke:#1f77b4;" x="117.605764" xlink:href="#m3d406bedc6" y="53.801624"/>
     <use style="fill:#1f77b4;stroke:#1f77b4;" x="133.024033" xlink:href="#m3d406bedc6" y="56.45828"/>
    </g>
   </g>
   <g id="line2d_36">
    <defs>
     <path d="M 0 1.5 
C 0.397805 1.5 0.77937 1.341951 1.06066 1.06066 
C 1.341951 0.77937 1.5 0.397805 1.5 0 
C 1.5 -0.397805 1.341951 -0.77937 1.06066 -1.06066 
C 0.77937 -1.341951 0.397805 -1.5 0 -1.5 
C -0.397805 -1.5 -0.77937 -1.341951 -1.06066 -1.06066 
C -1.341951 -0.77937 -1.5 -0.397805 -1.5 0 
C -1.5 0.397805 -1.341951 0.77937 -1.06066 1.06066 
C -0.77937 1.341951 -0.397805 1.5 0 1.5 
z
" id="m39c24360bc" style="stroke:#ff7f0e;"/>
    </defs>
    <g clip-path="url(#p794cbe3c4c)">
     <use style="fill:#ff7f0e;stroke:#ff7f0e;" x="118.02509" xlink:href="#m39c24360bc" y="58.854264"/>
     <use style="fill:#ff7f0e;stroke:#ff7f0e;" x="133.314335" xlink:href="#m39c24360bc" y="58.521755"/>
     <use style="fill:#ff7f0e;stroke:#ff7f0e;" x="148.764859" xlink:href="#m39c24360bc" y="64.129262"/>
     <use style="fill:#ff7f0e;stroke:#ff7f0e;" x="164.199256" xlink:href="#m39c24360bc" y="66.403464"/>
     <use style="fill:#ff7f0e;stroke:#ff7f0e;" x="179.665908" xlink:href="#m39c24360bc" y="72.374269"/>
     <use style="fill:#ff7f0e;stroke:#ff7f0e;" x="195.100304" xlink:href="#m39c24360bc" y="71.545731"/>
     <use style="fill:#ff7f0e;stroke:#ff7f0e;" x="210.583084" xlink:href="#m39c24360bc" y="80.08767"/>
    </g>
   </g>
   <g id="line2d_37">
    <defs>
     <path d="M 0 1.5 
C 0.397805 1.5 0.77937 1.341951 1.06066 1.06066 
C 1.341951 0.77937 1.5 0.397805 1.5 0 
C 1.5 -0.397805 1.341951 -0.77937 1.06066 -1.06066 
C 0.77937 -1.341951 0.397805 -1.5 0 -1.5 
C -0.397805 -1.5 -0.77937 -1.341951 -1.06066 -1.06066 
C -1.341951 -0.77937 -1.5 -0.397805 -1.5 0 
C -1.5 0.397805 -1.341951 0.77937 -1.06066 1.06066 
C -0.77937 1.341951 -0.397805 1.5 0 1.5 
z
" id="m33d725a7fc" style="stroke:#2ca02c;"/>
    </defs>
    <g clip-path="url(#p794cbe3c4c)">
     <use style="fill:#2ca02c;stroke:#2ca02c;" x="164.231511" xlink:href="#m33d725a7fc" y="64.205206"/>
     <use style="fill:#2ca02c;stroke:#2ca02c;" x="179.278838" xlink:href="#m33d725a7fc" y="69.192166"/>
    </g>
   </g>
   <g id="line2d_38">
    <defs>
     <path d="M 0 1.5 
C 0.397805 1.5 0.77937 1.341951 1.06066 1.06066 
C 1.341951 0.77937 1.5 0.397805 1.5 0 
C 1.5 -0.397805 1.341951 -0.77937 1.06066 -1.06066 
C 0.77937 -1.341951 0.397805 -1.5 0 -1.5 
C -0.397805 -1.5 -0.77937 -1.341951 -1.06066 -1.06066 
C -1.341951 -0.77937 -1.5 -0.397805 -1.5 0 
C -1.5 0.397805 -1.341951 0.77937 -1.06066 1.06066 
C -0.77937 1.341951 -0.397805 1.5 0 1.5 
z
" id="mb082185405" style="stroke:#d62728;"/>
    </defs>
    <g clip-path="url(#p794cbe3c4c)">
     <use style="fill:#d62728;stroke:#d62728;" x="249.40293" xlink:href="#mb082185405" y="127.325926"/>
     <use style="fill:#d62728;stroke:#d62728;" x="241.693796" xlink:href="#mb082185405" y="117.446423"/>
     <use style="fill:#d62728;stroke:#d62728;" x="233.968533" xlink:href="#mb082185405" y="102.120194"/>
     <use style="fill:#d62728;stroke:#d62728;" x="226.275527" xlink:href="#mb082185405" y="90.668454"/>
     <use style="fill:#d62728;stroke:#d62728;" x="218.598649" xlink:href="#mb082185405" y="80.866947"/>
     <use style="fill:#d62728;stroke:#d62728;" x="210.808875" xlink:href="#mb082185405" y="75.945668"/>
     <use style="fill:#d62728;stroke:#d62728;" x="203.067485" xlink:href="#mb082185405" y="71.593624"/>
     <use style="fill:#d62728;stroke:#d62728;" x="195.309967" xlink:href="#mb082185405" y="69.000596"/>
     <use style="fill:#d62728;stroke:#d62728;" x="187.504065" xlink:href="#mb082185405" y="67.927124"/>
     <use style="fill:#d62728;stroke:#d62728;" x="179.827187" xlink:href="#mb082185405" y="64.781282"/>
    </g>
   </g>
   <g id="line2d_39">
    <defs>
     <path d="M 0 1.5 
C 0.397805 1.5 0.77937 1.341951 1.06066 1.06066 
C 1.341951 0.77937 1.5 0.397805 1.5 0 
C 1.5 -0.397805 1.341951 -0.77937 1.06066 -1.06066 
C 0.77937 -1.341951 0.397805 -1.5 0 -1.5 
C -0.397805 -1.5 -0.77937 -1.341951 -1.06066 -1.06066 
C -1.341951 -0.77937 -1.5 -0.397805 -1.5 0 
C -1.5 0.397805 -1.341951 0.77937 -1.06066 1.06066 
C -0.77937 1.341951 -0.397805 1.5 0 1.5 
z
" id="m0cc252a96c" style="stroke:#9467bd;"/>
    </defs>
    <g clip-path="url(#p794cbe3c4c)">
     <use style="fill:#9467bd;stroke:#9467bd;" x="288.158264" xlink:href="#m0cc252a96c" y="274.569961"/>
     <use style="fill:#9467bd;stroke:#9467bd;" x="281.98128" xlink:href="#m0cc252a96c" y="276.33354"/>
     <use style="fill:#9467bd;stroke:#9467bd;" x="277.336446" xlink:href="#m0cc252a96c" y="273.366716"/>
     <use style="fill:#9467bd;stroke:#9467bd;" x="272.691612" xlink:href="#m0cc252a96c" y="260.255647"/>
     <use style="fill:#9467bd;stroke:#9467bd;" x="269.578928" xlink:href="#m0cc252a96c" y="245.471425"/>
     <use style="fill:#9467bd;stroke:#9467bd;" x="266.482372" xlink:href="#m0cc252a96c" y="226.284375"/>
     <use style="fill:#9467bd;stroke:#9467bd;" x="263.369688" xlink:href="#m0cc252a96c" y="206.840444"/>
     <use style="fill:#9467bd;stroke:#9467bd;" x="260.240876" xlink:href="#m0cc252a96c" y="177.350027"/>
     <use style="fill:#9467bd;stroke:#9467bd;" x="257.128192" xlink:href="#m0cc252a96c" y="142.942312"/>
     <use style="fill:#9467bd;stroke:#9467bd;" x="252.515614" xlink:href="#m0cc252a96c" y="128.844187"/>
     <use style="fill:#9467bd;stroke:#9467bd;" x="247.886908" xlink:href="#m0cc252a96c" y="132.485657"/>
     <use style="fill:#9467bd;stroke:#9467bd;" x="243.258202" xlink:href="#m0cc252a96c" y="114.405695"/>
     <use style="fill:#9467bd;stroke:#9467bd;" x="238.629495" xlink:href="#m0cc252a96c" y="104.209502"/>
     <use style="fill:#9467bd;stroke:#9467bd;" x="234.016917" xlink:href="#m0cc252a96c" y="98.91156"/>
     <use style="fill:#9467bd;stroke:#9467bd;" x="243.129178" xlink:href="#m0cc252a96c" y="114.217726"/>
     <use style="fill:#9467bd;stroke:#9467bd;" x="238.629495" xlink:href="#m0cc252a96c" y="106.779024"/>
     <use style="fill:#9467bd;stroke:#9467bd;" x="234.000789" xlink:href="#m0cc252a96c" y="97.764242"/>
     <use style="fill:#9467bd;stroke:#9467bd;" x="229.388211" xlink:href="#m0cc252a96c" y="90.327202"/>
    </g>
   </g>
   <g id="line2d_40">
    <defs>
     <path d="M 0 1.5 
C 0.397805 1.5 0.77937 1.341951 1.06066 1.06066 
C 1.341951 0.77937 1.5 0.397805 1.5 0 
C 1.5 -0.397805 1.341951 -0.77937 1.06066 -1.06066 
C 0.77937 -1.341951 0.397805 -1.5 0 -1.5 
C -0.397805 -1.5 -0.77937 -1.341951 -1.06066 -1.06066 
C -1.341951 -0.77937 -1.5 -0.397805 -1.5 0 
C -1.5 0.397805 -1.341951 0.77937 -1.06066 1.06066 
C -0.77937 1.341951 -0.397805 1.5 0 1.5 
z
" id="m5900451862" style="stroke:#8c564b;"/>
    </defs>
    <g clip-path="url(#p794cbe3c4c)">
     <use style="fill:#8c564b;stroke:#8c564b;" x="381.490398" xlink:href="#m5900451862" y="245.13033"/>
     <use style="fill:#8c564b;stroke:#8c564b;" x="374.184461" xlink:href="#m5900451862" y="223.492548"/>
     <use style="fill:#8c564b;stroke:#8c564b;" x="366.52371" xlink:href="#m5900451862" y="198.530635"/>
     <use style="fill:#8c564b;stroke:#8c564b;" x="358.798448" xlink:href="#m5900451862" y="184.719426"/>
     <use style="fill:#8c564b;stroke:#8c564b;" x="350.976419" xlink:href="#m5900451862" y="162.540174"/>
     <use style="fill:#8c564b;stroke:#8c564b;" x="343.218901" xlink:href="#m5900451862" y="168.205201"/>
     <use style="fill:#8c564b;stroke:#8c564b;" x="335.445255" xlink:href="#m5900451862" y="155.06823"/>
     <use style="fill:#8c564b;stroke:#8c564b;" x="327.639353" xlink:href="#m5900451862" y="136.475246"/>
     <use style="fill:#8c564b;stroke:#8c564b;" x="319.881835" xlink:href="#m5900451862" y="168.735268"/>
     <use style="fill:#8c564b;stroke:#8c564b;" x="312.221085" xlink:href="#m5900451862" y="193.884476"/>
     <use style="fill:#8c564b;stroke:#8c564b;" x="304.495822" xlink:href="#m5900451862" y="224.898892"/>
     <use style="fill:#8c564b;stroke:#8c564b;" x="296.77056" xlink:href="#m5900451862" y="249.558973"/>
     <use style="fill:#8c564b;stroke:#8c564b;" x="289.158193" xlink:href="#m5900451862" y="269.167165"/>
     <use style="fill:#8c564b;stroke:#8c564b;" x="281.239397" xlink:href="#m5900451862" y="275.657511"/>
     <use style="fill:#8c564b;stroke:#8c564b;" x="273.514134" xlink:href="#m5900451862" y="260.318236"/>
     <use style="fill:#8c564b;stroke:#8c564b;" x="265.740489" xlink:href="#m5900451862" y="217.835094"/>
     <use style="fill:#8c564b;stroke:#8c564b;" x="257.918459" xlink:href="#m5900451862" y="145.155678"/>
    </g>
   </g>
   <g id="line2d_41">
    <defs>
     <path d="M 0 1.5 
C 0.397805 1.5 0.77937 1.341951 1.06066 1.06066 
C 1.341951 0.77937 1.5 0.397805 1.5 0 
C 1.5 -0.397805 1.341951 -0.77937 1.06066 -1.06066 
C 0.77937 -1.341951 0.397805 -1.5 0 -1.5 
C -0.397805 -1.5 -0.77937 -1.341951 -1.06066 -1.06066 
C -1.341951 -0.77937 -1.5 -0.397805 -1.5 0 
C -1.5 0.397805 -1.341951 0.77937 -1.06066 1.06066 
C -0.77937 1.341951 -0.397805 1.5 0 1.5 
z
" id="mcd1d412f3b" style="stroke:#e377c2;"/>
    </defs>
    <g clip-path="url(#p794cbe3c4c)">
     <use style="fill:#e377c2;stroke:#e377c2;" x="172.053541" xlink:href="#mcd1d412f3b" y="69.1258"/>
     <use style="fill:#e377c2;stroke:#e377c2;" x="179.633652" xlink:href="#mcd1d412f3b" y="70.095962"/>
     <use style="fill:#e377c2;stroke:#e377c2;" x="187.310531" xlink:href="#mcd1d412f3b" y="69.659458"/>
     <use style="fill:#e377c2;stroke:#e377c2;" x="195.100304" xlink:href="#mcd1d412f3b" y="72.727304"/>
     <use style="fill:#e377c2;stroke:#e377c2;" x="202.841694" xlink:href="#mcd1d412f3b" y="75.334015"/>
     <use style="fill:#e377c2;stroke:#e377c2;" x="210.583084" xlink:href="#mcd1d412f3b" y="79.261186"/>
     <use style="fill:#e377c2;stroke:#e377c2;" x="218.340602" xlink:href="#mcd1d412f3b" y="83.379242"/>
     <use style="fill:#e377c2;stroke:#e377c2;" x="226.065864" xlink:href="#mcd1d412f3b" y="95.075917"/>
     <use style="fill:#e377c2;stroke:#e377c2;" x="233.742743" xlink:href="#mcd1d412f3b" y="106.583759"/>
    </g>
   </g>
   <g id="patch_3">
    <path d="M 40.603125 288.430125 
L 40.603125 22.318125 
" style="fill:none;stroke:#000000;stroke-linecap:square;stroke-linejoin:miter;stroke-width:0.8;"/>
   </g>
   <g id="patch_4">
    <path d="M 397.723125 288.430125 
L 397.723125 22.318125 
" style="fill:none;stroke:#000000;stroke-linecap:square;stroke-linejoin:miter;stroke-width:0.8;"/>
   </g>
   <g id="patch_5">
    <path d="M 40.603125 288.430125 
L 397.723125 288.430125 
" style="fill:none;stroke:#000000;stroke-linecap:square;stroke-linejoin:miter;stroke-width:0.8;"/>
   </g>
   <g id="patch_6">
    <path d="M 40.603125 22.318125 
L 397.723125 22.318125 
" style="fill:none;stroke:#000000;stroke-linecap:square;stroke-linejoin:miter;stroke-width:0.8;"/>
   </g>
   <g id="text_20">
    <!-- FWHM -->
    <g transform="translate(200.090625 16.318125)scale(0.12 -0.12)">
     <use xlink:href="#DejaVuSans-46"/>
     <use x="57.519531" xlink:href="#DejaVuSans-57"/>
     <use x="156.396484" xlink:href="#DejaVuSans-48"/>
     <use x="231.591797" xlink:href="#DejaVuSans-4d"/>
    </g>
   </g>
   <g id="legend_1">
    <g id="patch_7">
     <path d="M 47.603125 283.430125 
L 204.36875 283.430125 
Q 206.36875 283.430125 206.36875 281.430125 
L 206.36875 179.68325 
Q 206.36875 177.68325 204.36875 177.68325 
L 47.603125 177.68325 
Q 45.603125 177.68325 45.603125 179.68325 
L 45.603125 281.430125 
Q 45.603125 283.430125 47.603125 283.430125 
z
" style="fill:#ffffff;opacity:0.8;stroke:#cccccc;stroke-linejoin:miter;"/>
    </g>
    <g id="LineCollection_8">
     <path d="M 59.603125 190.781687 
L 59.603125 180.781687 
" style="fill:none;stroke:#1f77b4;stroke-width:1.5;"/>
    </g>
    <g id="line2d_42"/>
    <g id="line2d_43">
     <g>
      <use style="fill:#1f77b4;stroke:#1f77b4;" x="59.603125" xlink:href="#m3d406bedc6" y="185.781687"/>
     </g>
    </g>
    <g id="text_21">
     <!-- Messung 1 -->
     <defs>
      <path d="M 44.28125 53.078125 
L 44.28125 44.578125 
Q 40.484375 46.53125 36.375 47.5 
Q 32.28125 48.484375 27.875 48.484375 
Q 21.1875 48.484375 17.84375 46.4375 
Q 14.5 44.390625 14.5 40.28125 
Q 14.5 37.15625 16.890625 35.375 
Q 19.28125 33.59375 26.515625 31.984375 
L 29.59375 31.296875 
Q 39.15625 29.25 43.1875 25.515625 
Q 47.21875 21.78125 47.21875 15.09375 
Q 47.21875 7.46875 41.1875 3.015625 
Q 35.15625 -1.421875 24.609375 -1.421875 
Q 20.21875 -1.421875 15.453125 -0.5625 
Q 10.6875 0.296875 5.421875 2 
L 5.421875 11.28125 
Q 10.40625 8.6875 15.234375 7.390625 
Q 20.0625 6.109375 24.8125 6.109375 
Q 31.15625 6.109375 34.5625 8.28125 
Q 37.984375 10.453125 37.984375 14.40625 
Q 37.984375 18.0625 35.515625 20.015625 
Q 33.0625 21.96875 24.703125 23.78125 
L 21.578125 24.515625 
Q 13.234375 26.265625 9.515625 29.90625 
Q 5.8125 33.546875 5.8125 39.890625 
Q 5.8125 47.609375 11.28125 51.796875 
Q 16.75 56 26.8125 56 
Q 31.78125 56 36.171875 55.265625 
Q 40.578125 54.546875 44.28125 53.078125 
z
" id="DejaVuSans-73"/>
      <path d="M 54.890625 33.015625 
L 54.890625 0 
L 45.90625 0 
L 45.90625 32.71875 
Q 45.90625 40.484375 42.875 44.328125 
Q 39.84375 48.1875 33.796875 48.1875 
Q 26.515625 48.1875 22.3125 43.546875 
Q 18.109375 38.921875 18.109375 30.90625 
L 18.109375 0 
L 9.078125 0 
L 9.078125 54.6875 
L 18.109375 54.6875 
L 18.109375 46.1875 
Q 21.34375 51.125 25.703125 53.5625 
Q 30.078125 56 35.796875 56 
Q 45.21875 56 50.046875 50.171875 
Q 54.890625 44.34375 54.890625 33.015625 
z
" id="DejaVuSans-6e"/>
      <path d="M 45.40625 27.984375 
Q 45.40625 37.75 41.375 43.109375 
Q 37.359375 48.484375 30.078125 48.484375 
Q 22.859375 48.484375 18.828125 43.109375 
Q 14.796875 37.75 14.796875 27.984375 
Q 14.796875 18.265625 18.828125 12.890625 
Q 22.859375 7.515625 30.078125 7.515625 
Q 37.359375 7.515625 41.375 12.890625 
Q 45.40625 18.265625 45.40625 27.984375 
z
M 54.390625 6.78125 
Q 54.390625 -7.171875 48.1875 -13.984375 
Q 42 -20.796875 29.203125 -20.796875 
Q 24.46875 -20.796875 20.265625 -20.09375 
Q 16.0625 -19.390625 12.109375 -17.921875 
L 12.109375 -9.1875 
Q 16.0625 -11.328125 19.921875 -12.34375 
Q 23.78125 -13.375 27.78125 -13.375 
Q 36.625 -13.375 41.015625 -8.765625 
Q 45.40625 -4.15625 45.40625 5.171875 
L 45.40625 9.625 
Q 42.625 4.78125 38.28125 2.390625 
Q 33.9375 0 27.875 0 
Q 17.828125 0 11.671875 7.65625 
Q 5.515625 15.328125 5.515625 27.984375 
Q 5.515625 40.671875 11.671875 48.328125 
Q 17.828125 56 27.875 56 
Q 33.9375 56 38.28125 53.609375 
Q 42.625 51.21875 45.40625 46.390625 
L 45.40625 54.6875 
L 54.390625 54.6875 
z
" id="DejaVuSans-67"/>
     </defs>
     <g transform="translate(77.603125 189.281687)scale(0.1 -0.1)">
      <use xlink:href="#DejaVuSans-4d"/>
      <use x="86.279297" xlink:href="#DejaVuSans-65"/>
      <use x="147.802734" xlink:href="#DejaVuSans-73"/>
      <use x="199.902344" xlink:href="#DejaVuSans-73"/>
      <use x="252.001953" xlink:href="#DejaVuSans-75"/>
      <use x="315.380859" xlink:href="#DejaVuSans-6e"/>
      <use x="378.759766" xlink:href="#DejaVuSans-67"/>
      <use x="442.236328" xlink:href="#DejaVuSans-20"/>
      <use x="474.023438" xlink:href="#DejaVuSans-31"/>
     </g>
    </g>
    <g id="LineCollection_9">
     <path d="M 59.603125 205.459812 
L 59.603125 195.459812 
" style="fill:none;stroke:#ff7f0e;stroke-width:1.5;"/>
    </g>
    <g id="line2d_44"/>
    <g id="line2d_45">
     <g>
      <use style="fill:#ff7f0e;stroke:#ff7f0e;" x="59.603125" xlink:href="#m39c24360bc" y="200.459812"/>
     </g>
    </g>
    <g id="text_22">
     <!-- Lehrstuhlv 2 -->
     <defs>
      <path d="M 9.8125 72.90625 
L 19.671875 72.90625 
L 19.671875 8.296875 
L 55.171875 8.296875 
L 55.171875 0 
L 9.8125 0 
z
" id="DejaVuSans-4c"/>
      <path d="M 54.890625 33.015625 
L 54.890625 0 
L 45.90625 0 
L 45.90625 32.71875 
Q 45.90625 40.484375 42.875 44.328125 
Q 39.84375 48.1875 33.796875 48.1875 
Q 26.515625 48.1875 22.3125 43.546875 
Q 18.109375 38.921875 18.109375 30.90625 
L 18.109375 0 
L 9.078125 0 
L 9.078125 75.984375 
L 18.109375 75.984375 
L 18.109375 46.1875 
Q 21.34375 51.125 25.703125 53.5625 
Q 30.078125 56 35.796875 56 
Q 45.21875 56 50.046875 50.171875 
Q 54.890625 44.34375 54.890625 33.015625 
z
" id="DejaVuSans-68"/>
      <path d="M 9.421875 75.984375 
L 18.40625 75.984375 
L 18.40625 0 
L 9.421875 0 
z
" id="DejaVuSans-6c"/>
      <path d="M 2.984375 54.6875 
L 12.5 54.6875 
L 29.59375 8.796875 
L 46.6875 54.6875 
L 56.203125 54.6875 
L 35.6875 0 
L 23.484375 0 
z
" id="DejaVuSans-76"/>
     </defs>
     <g transform="translate(77.603125 203.959812)scale(0.1 -0.1)">
      <use xlink:href="#DejaVuSans-4c"/>
      <use x="55.697266" xlink:href="#DejaVuSans-65"/>
      <use x="117.220703" xlink:href="#DejaVuSans-68"/>
      <use x="180.599609" xlink:href="#DejaVuSans-72"/>
      <use x="221.712891" xlink:href="#DejaVuSans-73"/>
      <use x="273.8125" xlink:href="#DejaVuSans-74"/>
      <use x="313.021484" xlink:href="#DejaVuSans-75"/>
      <use x="376.400391" xlink:href="#DejaVuSans-68"/>
      <use x="439.779297" xlink:href="#DejaVuSans-6c"/>
      <use x="467.5625" xlink:href="#DejaVuSans-76"/>
      <use x="526.742188" xlink:href="#DejaVuSans-20"/>
      <use x="558.529297" xlink:href="#DejaVuSans-32"/>
     </g>
    </g>
    <g id="LineCollection_10">
     <path d="M 59.603125 220.137937 
L 59.603125 210.137937 
" style="fill:none;stroke:#2ca02c;stroke-width:1.5;"/>
    </g>
    <g id="line2d_46"/>
    <g id="line2d_47">
     <g>
      <use style="fill:#2ca02c;stroke:#2ca02c;" x="59.603125" xlink:href="#m33d725a7fc" y="215.137937"/>
     </g>
    </g>
    <g id="text_23">
     <!-- F2 Suche -->
     <defs>
      <path d="M 53.515625 70.515625 
L 53.515625 60.890625 
Q 47.90625 63.578125 42.921875 64.890625 
Q 37.9375 66.21875 33.296875 66.21875 
Q 25.25 66.21875 20.875 63.09375 
Q 16.5 59.96875 16.5 54.203125 
Q 16.5 49.359375 19.40625 46.890625 
Q 22.3125 44.4375 30.421875 42.921875 
L 36.375 41.703125 
Q 47.40625 39.59375 52.65625 34.296875 
Q 57.90625 29 57.90625 20.125 
Q 57.90625 9.515625 50.796875 4.046875 
Q 43.703125 -1.421875 29.984375 -1.421875 
Q 24.8125 -1.421875 18.96875 -0.25 
Q 13.140625 0.921875 6.890625 3.21875 
L 6.890625 13.375 
Q 12.890625 10.015625 18.65625 8.296875 
Q 24.421875 6.59375 29.984375 6.59375 
Q 38.421875 6.59375 43.015625 9.90625 
Q 47.609375 13.234375 47.609375 19.390625 
Q 47.609375 24.75 44.3125 27.78125 
Q 41.015625 30.8125 33.5 32.328125 
L 27.484375 33.5 
Q 16.453125 35.6875 11.515625 40.375 
Q 6.59375 45.0625 6.59375 53.421875 
Q 6.59375 63.09375 13.40625 68.65625 
Q 20.21875 74.21875 32.171875 74.21875 
Q 37.3125 74.21875 42.625 73.28125 
Q 47.953125 72.359375 53.515625 70.515625 
z
" id="DejaVuSans-53"/>
      <path d="M 48.78125 52.59375 
L 48.78125 44.1875 
Q 44.96875 46.296875 41.140625 47.34375 
Q 37.3125 48.390625 33.40625 48.390625 
Q 24.65625 48.390625 19.8125 42.84375 
Q 14.984375 37.3125 14.984375 27.296875 
Q 14.984375 17.28125 19.8125 11.734375 
Q 24.65625 6.203125 33.40625 6.203125 
Q 37.3125 6.203125 41.140625 7.25 
Q 44.96875 8.296875 48.78125 10.40625 
L 48.78125 2.09375 
Q 45.015625 0.34375 40.984375 -0.53125 
Q 36.96875 -1.421875 32.421875 -1.421875 
Q 20.0625 -1.421875 12.78125 6.34375 
Q 5.515625 14.109375 5.515625 27.296875 
Q 5.515625 40.671875 12.859375 48.328125 
Q 20.21875 56 33.015625 56 
Q 37.15625 56 41.109375 55.140625 
Q 45.0625 54.296875 48.78125 52.59375 
z
" id="DejaVuSans-63"/>
     </defs>
     <g transform="translate(77.603125 218.637937)scale(0.1 -0.1)">
      <use xlink:href="#DejaVuSans-46"/>
      <use x="57.519531" xlink:href="#DejaVuSans-32"/>
      <use x="121.142578" xlink:href="#DejaVuSans-20"/>
      <use x="152.929688" xlink:href="#DejaVuSans-53"/>
      <use x="216.40625" xlink:href="#DejaVuSans-75"/>
      <use x="279.785156" xlink:href="#DejaVuSans-63"/>
      <use x="334.765625" xlink:href="#DejaVuSans-68"/>
      <use x="398.144531" xlink:href="#DejaVuSans-65"/>
     </g>
    </g>
    <g id="LineCollection_11">
     <path d="M 59.603125 234.816062 
L 59.603125 224.816062 
" style="fill:none;stroke:#d62728;stroke-width:1.5;"/>
    </g>
    <g id="line2d_48"/>
    <g id="line2d_49">
     <g>
      <use style="fill:#d62728;stroke:#d62728;" x="59.603125" xlink:href="#mb082185405" y="229.816062"/>
     </g>
    </g>
    <g id="LineCollection_12">
     <path d="M 59.603125 249.494187 
L 59.603125 239.494187 
" style="fill:none;stroke:#9467bd;stroke-width:1.5;"/>
    </g>
    <g id="line2d_50"/>
    <g id="line2d_51">
     <g>
      <use style="fill:#9467bd;stroke:#9467bd;" x="59.603125" xlink:href="#m0cc252a96c" y="244.494187"/>
     </g>
    </g>
    <g id="text_24">
     <!-- Lehrstuhlv 1 -->
     <g transform="translate(77.603125 247.994187)scale(0.1 -0.1)">
      <use xlink:href="#DejaVuSans-4c"/>
      <use x="55.697266" xlink:href="#DejaVuSans-65"/>
      <use x="117.220703" xlink:href="#DejaVuSans-68"/>
      <use x="180.599609" xlink:href="#DejaVuSans-72"/>
      <use x="221.712891" xlink:href="#DejaVuSans-73"/>
      <use x="273.8125" xlink:href="#DejaVuSans-74"/>
      <use x="313.021484" xlink:href="#DejaVuSans-75"/>
      <use x="376.400391" xlink:href="#DejaVuSans-68"/>
      <use x="439.779297" xlink:href="#DejaVuSans-6c"/>
      <use x="467.5625" xlink:href="#DejaVuSans-76"/>
      <use x="526.742188" xlink:href="#DejaVuSans-20"/>
      <use x="558.529297" xlink:href="#DejaVuSans-31"/>
     </g>
    </g>
    <g id="LineCollection_13">
     <path d="M 59.603125 264.172312 
L 59.603125 254.172312 
" style="fill:none;stroke:#8c564b;stroke-width:1.5;"/>
    </g>
    <g id="line2d_52"/>
    <g id="line2d_53">
     <g>
      <use style="fill:#8c564b;stroke:#8c564b;" x="59.603125" xlink:href="#m5900451862" y="259.172312"/>
     </g>
    </g>
    <g id="text_25">
     <!-- Hochtemperatur -->
     <defs>
      <path d="M 30.609375 48.390625 
Q 23.390625 48.390625 19.1875 42.75 
Q 14.984375 37.109375 14.984375 27.296875 
Q 14.984375 17.484375 19.15625 11.84375 
Q 23.34375 6.203125 30.609375 6.203125 
Q 37.796875 6.203125 41.984375 11.859375 
Q 46.1875 17.53125 46.1875 27.296875 
Q 46.1875 37.015625 41.984375 42.703125 
Q 37.796875 48.390625 30.609375 48.390625 
z
M 30.609375 56 
Q 42.328125 56 49.015625 48.375 
Q 55.71875 40.765625 55.71875 27.296875 
Q 55.71875 13.875 49.015625 6.21875 
Q 42.328125 -1.421875 30.609375 -1.421875 
Q 18.84375 -1.421875 12.171875 6.21875 
Q 5.515625 13.875 5.515625 27.296875 
Q 5.515625 40.765625 12.171875 48.375 
Q 18.84375 56 30.609375 56 
z
" id="DejaVuSans-6f"/>
     </defs>
     <g transform="translate(77.603125 262.672312)scale(0.1 -0.1)">
      <use xlink:href="#DejaVuSans-48"/>
      <use x="75.195312" xlink:href="#DejaVuSans-6f"/>
      <use x="136.376953" xlink:href="#DejaVuSans-63"/>
      <use x="191.357422" xlink:href="#DejaVuSans-68"/>
      <use x="254.736328" xlink:href="#DejaVuSans-74"/>
      <use x="293.945312" xlink:href="#DejaVuSans-65"/>
      <use x="355.46875" xlink:href="#DejaVuSans-6d"/>
      <use x="452.880859" xlink:href="#DejaVuSans-70"/>
      <use x="516.357422" xlink:href="#DejaVuSans-65"/>
      <use x="577.880859" xlink:href="#DejaVuSans-72"/>
      <use x="618.994141" xlink:href="#DejaVuSans-61"/>
      <use x="680.273438" xlink:href="#DejaVuSans-74"/>
      <use x="719.482422" xlink:href="#DejaVuSans-75"/>
      <use x="782.861328" xlink:href="#DejaVuSans-72"/>
     </g>
    </g>
    <g id="LineCollection_14">
     <path d="M 59.603125 278.850437 
L 59.603125 268.850437 
" style="fill:none;stroke:#e377c2;stroke-width:1.5;"/>
    </g>
    <g id="line2d_54"/>
    <g id="line2d_55">
     <g>
      <use style="fill:#e377c2;stroke:#e377c2;" x="59.603125" xlink:href="#mcd1d412f3b" y="273.850437"/>
     </g>
    </g>
    <g id="text_26">
     <!-- Pulslngenabh. Spektren -->
     <defs>
      <path d="M 19.671875 64.796875 
L 19.671875 37.40625 
L 32.078125 37.40625 
Q 38.96875 37.40625 42.71875 40.96875 
Q 46.484375 44.53125 46.484375 51.125 
Q 46.484375 57.671875 42.71875 61.234375 
Q 38.96875 64.796875 32.078125 64.796875 
z
M 9.8125 72.90625 
L 32.078125 72.90625 
Q 44.34375 72.90625 50.609375 67.359375 
Q 56.890625 61.8125 56.890625 51.125 
Q 56.890625 40.328125 50.609375 34.8125 
Q 44.34375 29.296875 32.078125 29.296875 
L 19.671875 29.296875 
L 19.671875 0 
L 9.8125 0 
z
" id="DejaVuSans-50"/>
      <path d="M 34.28125 27.484375 
Q 23.390625 27.484375 19.1875 25 
Q 14.984375 22.515625 14.984375 16.5 
Q 14.984375 11.71875 18.140625 8.90625 
Q 21.296875 6.109375 26.703125 6.109375 
Q 34.1875 6.109375 38.703125 11.40625 
Q 43.21875 16.703125 43.21875 25.484375 
L 43.21875 27.484375 
z
M 52.203125 31.203125 
L 52.203125 0 
L 43.21875 0 
L 43.21875 8.296875 
Q 40.140625 3.328125 35.546875 0.953125 
Q 30.953125 -1.421875 24.3125 -1.421875 
Q 15.921875 -1.421875 10.953125 3.296875 
Q 6 8.015625 6 15.921875 
Q 6 25.140625 12.171875 29.828125 
Q 18.359375 34.515625 30.609375 34.515625 
L 43.21875 34.515625 
L 43.21875 35.40625 
Q 43.21875 41.609375 39.140625 45 
Q 35.0625 48.390625 27.6875 48.390625 
Q 23 48.390625 18.546875 47.265625 
Q 14.109375 46.140625 10.015625 43.890625 
L 10.015625 52.203125 
Q 14.9375 54.109375 19.578125 55.046875 
Q 24.21875 56 28.609375 56 
Q 40.484375 56 46.34375 49.84375 
Q 52.203125 43.703125 52.203125 31.203125 
z
M 33.59375 75.78125 
L 43.5 75.78125 
L 43.5 65.921875 
L 33.59375 65.921875 
z
M 14.5 75.78125 
L 24.40625 75.78125 
L 24.40625 65.921875 
L 14.5 65.921875 
z
" id="DejaVuSans-e4"/>
      <path d="M 48.6875 27.296875 
Q 48.6875 37.203125 44.609375 42.84375 
Q 40.53125 48.484375 33.40625 48.484375 
Q 26.265625 48.484375 22.1875 42.84375 
Q 18.109375 37.203125 18.109375 27.296875 
Q 18.109375 17.390625 22.1875 11.75 
Q 26.265625 6.109375 33.40625 6.109375 
Q 40.53125 6.109375 44.609375 11.75 
Q 48.6875 17.390625 48.6875 27.296875 
z
M 18.109375 46.390625 
Q 20.953125 51.265625 25.265625 53.625 
Q 29.59375 56 35.59375 56 
Q 45.5625 56 51.78125 48.09375 
Q 58.015625 40.1875 58.015625 27.296875 
Q 58.015625 14.40625 51.78125 6.484375 
Q 45.5625 -1.421875 35.59375 -1.421875 
Q 29.59375 -1.421875 25.265625 0.953125 
Q 20.953125 3.328125 18.109375 8.203125 
L 18.109375 0 
L 9.078125 0 
L 9.078125 75.984375 
L 18.109375 75.984375 
z
" id="DejaVuSans-62"/>
      <path d="M 10.6875 12.40625 
L 21 12.40625 
L 21 0 
L 10.6875 0 
z
" id="DejaVuSans-2e"/>
     </defs>
     <g transform="translate(77.603125 277.350437)scale(0.1 -0.1)">
      <use xlink:href="#DejaVuSans-50"/>
      <use x="60.287109" xlink:href="#DejaVuSans-75"/>
      <use x="123.666016" xlink:href="#DejaVuSans-6c"/>
      <use x="151.449219" xlink:href="#DejaVuSans-73"/>
      <use x="203.548828" xlink:href="#DejaVuSans-6c"/>
      <use x="231.332031" xlink:href="#DejaVuSans-e4"/>
      <use x="292.611328" xlink:href="#DejaVuSans-6e"/>
      <use x="355.990234" xlink:href="#DejaVuSans-67"/>
      <use x="419.466797" xlink:href="#DejaVuSans-65"/>
      <use x="480.990234" xlink:href="#DejaVuSans-6e"/>
      <use x="544.369141" xlink:href="#DejaVuSans-61"/>
      <use x="605.648438" xlink:href="#DejaVuSans-62"/>
      <use x="669.125" xlink:href="#DejaVuSans-68"/>
      <use x="732.503906" xlink:href="#DejaVuSans-2e"/>
      <use x="764.291016" xlink:href="#DejaVuSans-20"/>
      <use x="796.078125" xlink:href="#DejaVuSans-53"/>
      <use x="859.554688" xlink:href="#DejaVuSans-70"/>
      <use x="923.03125" xlink:href="#DejaVuSans-65"/>
      <use x="984.554688" xlink:href="#DejaVuSans-6b"/>
      <use x="1042.464844" xlink:href="#DejaVuSans-74"/>
      <use x="1081.673828" xlink:href="#DejaVuSans-72"/>
      <use x="1122.755859" xlink:href="#DejaVuSans-65"/>
      <use x="1184.279297" xlink:href="#DejaVuSans-6e"/>
     </g>
    </g>
   </g>
  </g>
 </g>
 <defs>
  <clipPath id="p794cbe3c4c">
   <rect height="266.112" width="357.12" x="40.603125" y="22.318125"/>
  </clipPath>
 </defs>
</svg>
