<?xml version="1.0" encoding="utf-8" standalone="no"?>
<!DOCTYPE svg PUBLIC "-//W3C//DTD SVG 1.1//EN"
  "http://www.w3.org/Graphics/SVG/1.1/DTD/svg11.dtd">
<!-- Created with matplotlib (http://matplotlib.org/) -->
<svg height="329pt" version="1.1" viewBox="0 0 410 329" width="410pt" xmlns="http://www.w3.org/2000/svg" xmlns:xlink="http://www.w3.org/1999/xlink">
 <defs>
  <style type="text/css">
*{stroke-linecap:butt;stroke-linejoin:round;}
  </style>
 </defs>
 <g id="figure_1">
  <g id="patch_1">
   <path d="M 0 329.745625 
L 410.04 329.745625 
L 410.04 0 
L 0 0 
z
" style="fill:#ffffff;"/>
  </g>
  <g id="axes_1">
   <g id="patch_2">
    <path d="M 36.17625 290.25375 
L 393.29625 290.25375 
L 393.29625 24.14175 
L 36.17625 24.14175 
z
" style="fill:#e5e5e5;"/>
   </g>
   <g id="matplotlib.axis_1">
    <g id="xtick_1">
     <g id="line2d_1">
      <path clip-path="url(#pc2fc6f533c)" d="M 36.17625 290.25375 
L 36.17625 24.14175 
" style="fill:none;stroke:#ffffff;stroke-linecap:square;stroke-width:0.8;"/>
     </g>
     <g id="line2d_2">
      <defs>
       <path d="M 0 0 
L 0 3.5 
" id="mf2e5db0635" style="stroke:#555555;stroke-width:0.8;"/>
      </defs>
      <g>
       <use style="fill:#555555;stroke:#555555;stroke-width:0.8;" x="36.17625" xlink:href="#mf2e5db0635" y="290.25375"/>
      </g>
     </g>
     <g id="text_1">
      <!-- −100 -->
      <defs>
       <path d="M 10.59375 35.5 
L 73.1875 35.5 
L 73.1875 27.203125 
L 10.59375 27.203125 
z
" id="DejaVuSans-2212"/>
       <path d="M 12.40625 8.296875 
L 28.515625 8.296875 
L 28.515625 63.921875 
L 10.984375 60.40625 
L 10.984375 69.390625 
L 28.421875 72.90625 
L 38.28125 72.90625 
L 38.28125 8.296875 
L 54.390625 8.296875 
L 54.390625 0 
L 12.40625 0 
z
" id="DejaVuSans-31"/>
       <path d="M 31.78125 66.40625 
Q 24.171875 66.40625 20.328125 58.90625 
Q 16.5 51.421875 16.5 36.375 
Q 16.5 21.390625 20.328125 13.890625 
Q 24.171875 6.390625 31.78125 6.390625 
Q 39.453125 6.390625 43.28125 13.890625 
Q 47.125 21.390625 47.125 36.375 
Q 47.125 51.421875 43.28125 58.90625 
Q 39.453125 66.40625 31.78125 66.40625 
M 31.78125 74.21875 
Q 44.046875 74.21875 50.515625 64.515625 
Q 56.984375 54.828125 56.984375 36.375 
Q 56.984375 17.96875 50.515625 8.265625 
Q 44.046875 -1.421875 31.78125 -1.421875 
Q 19.53125 -1.421875 13.0625 8.265625 
Q 6.59375 17.96875 6.59375 36.375 
Q 6.59375 54.828125 13.0625 64.515625 
Q 19.53125 74.21875 31.78125 74.21875 
" id="DejaVuSans-30"/>
      </defs>
      <g style="fill:#555555;" transform="translate(22.442656 304.852187)scale(0.1 -0.1)">
       <use xlink:href="#DejaVuSans-2212"/>
       <use x="83.789062" xlink:href="#DejaVuSans-31"/>
       <use x="147.412109" xlink:href="#DejaVuSans-30"/>
       <use x="211.035156" xlink:href="#DejaVuSans-30"/>
      </g>
     </g>
    </g>
    <g id="xtick_2">
     <g id="line2d_3">
      <path clip-path="url(#pc2fc6f533c)" d="M 80.81625 290.25375 
L 80.81625 24.14175 
" style="fill:none;stroke:#ffffff;stroke-linecap:square;stroke-width:0.8;"/>
     </g>
     <g id="line2d_4">
      <g>
       <use style="fill:#555555;stroke:#555555;stroke-width:0.8;" x="80.81625" xlink:href="#mf2e5db0635" y="290.25375"/>
      </g>
     </g>
     <g id="text_2">
      <!-- −75 -->
      <defs>
       <path d="M 8.203125 72.90625 
L 55.078125 72.90625 
L 55.078125 68.703125 
L 28.609375 0 
L 18.3125 0 
L 43.21875 64.59375 
L 8.203125 64.59375 
z
" id="DejaVuSans-37"/>
       <path d="M 10.796875 72.90625 
L 49.515625 72.90625 
L 49.515625 64.59375 
L 19.828125 64.59375 
L 19.828125 46.734375 
Q 21.96875 47.46875 24.109375 47.828125 
Q 26.265625 48.1875 28.421875 48.1875 
Q 40.625 48.1875 47.75 41.5 
Q 54.890625 34.8125 54.890625 23.390625 
Q 54.890625 11.625 47.5625 5.09375 
Q 40.234375 -1.421875 26.90625 -1.421875 
Q 22.3125 -1.421875 17.546875 -0.640625 
Q 12.796875 0.140625 7.71875 1.703125 
L 7.71875 11.625 
Q 12.109375 9.234375 16.796875 8.0625 
Q 21.484375 6.890625 26.703125 6.890625 
Q 35.15625 6.890625 40.078125 11.328125 
Q 45.015625 15.765625 45.015625 23.390625 
Q 45.015625 31 40.078125 35.4375 
Q 35.15625 39.890625 26.703125 39.890625 
Q 22.75 39.890625 18.8125 39.015625 
Q 14.890625 38.140625 10.796875 36.28125 
z
" id="DejaVuSans-35"/>
      </defs>
      <g style="fill:#555555;" transform="translate(70.263906 304.852187)scale(0.1 -0.1)">
       <use xlink:href="#DejaVuSans-2212"/>
       <use x="83.789062" xlink:href="#DejaVuSans-37"/>
       <use x="147.412109" xlink:href="#DejaVuSans-35"/>
      </g>
     </g>
    </g>
    <g id="xtick_3">
     <g id="line2d_5">
      <path clip-path="url(#pc2fc6f533c)" d="M 125.45625 290.25375 
L 125.45625 24.14175 
" style="fill:none;stroke:#ffffff;stroke-linecap:square;stroke-width:0.8;"/>
     </g>
     <g id="line2d_6">
      <g>
       <use style="fill:#555555;stroke:#555555;stroke-width:0.8;" x="125.45625" xlink:href="#mf2e5db0635" y="290.25375"/>
      </g>
     </g>
     <g id="text_3">
      <!-- −50 -->
      <g style="fill:#555555;" transform="translate(114.903906 304.852187)scale(0.1 -0.1)">
       <use xlink:href="#DejaVuSans-2212"/>
       <use x="83.789062" xlink:href="#DejaVuSans-35"/>
       <use x="147.412109" xlink:href="#DejaVuSans-30"/>
      </g>
     </g>
    </g>
    <g id="xtick_4">
     <g id="line2d_7">
      <path clip-path="url(#pc2fc6f533c)" d="M 170.09625 290.25375 
L 170.09625 24.14175 
" style="fill:none;stroke:#ffffff;stroke-linecap:square;stroke-width:0.8;"/>
     </g>
     <g id="line2d_8">
      <g>
       <use style="fill:#555555;stroke:#555555;stroke-width:0.8;" x="170.09625" xlink:href="#mf2e5db0635" y="290.25375"/>
      </g>
     </g>
     <g id="text_4">
      <!-- −25 -->
      <defs>
       <path d="M 19.1875 8.296875 
L 53.609375 8.296875 
L 53.609375 0 
L 7.328125 0 
L 7.328125 8.296875 
Q 12.9375 14.109375 22.625 23.890625 
Q 32.328125 33.6875 34.8125 36.53125 
Q 39.546875 41.84375 41.421875 45.53125 
Q 43.3125 49.21875 43.3125 52.78125 
Q 43.3125 58.59375 39.234375 62.25 
Q 35.15625 65.921875 28.609375 65.921875 
Q 23.96875 65.921875 18.8125 64.3125 
Q 13.671875 62.703125 7.8125 59.421875 
L 7.8125 69.390625 
Q 13.765625 71.78125 18.9375 73 
Q 24.125 74.21875 28.421875 74.21875 
Q 39.75 74.21875 46.484375 68.546875 
Q 53.21875 62.890625 53.21875 53.421875 
Q 53.21875 48.921875 51.53125 44.890625 
Q 49.859375 40.875 45.40625 35.40625 
Q 44.1875 33.984375 37.640625 27.21875 
Q 31.109375 20.453125 19.1875 8.296875 
" id="DejaVuSans-32"/>
      </defs>
      <g style="fill:#555555;" transform="translate(159.543906 304.852187)scale(0.1 -0.1)">
       <use xlink:href="#DejaVuSans-2212"/>
       <use x="83.789062" xlink:href="#DejaVuSans-32"/>
       <use x="147.412109" xlink:href="#DejaVuSans-35"/>
      </g>
     </g>
    </g>
    <g id="xtick_5">
     <g id="line2d_9">
      <path clip-path="url(#pc2fc6f533c)" d="M 214.73625 290.25375 
L 214.73625 24.14175 
" style="fill:none;stroke:#ffffff;stroke-linecap:square;stroke-width:0.8;"/>
     </g>
     <g id="line2d_10">
      <g>
       <use style="fill:#555555;stroke:#555555;stroke-width:0.8;" x="214.73625" xlink:href="#mf2e5db0635" y="290.25375"/>
      </g>
     </g>
     <g id="text_5">
      <!-- 0 -->
      <g style="fill:#555555;" transform="translate(211.555 304.852187)scale(0.1 -0.1)">
       <use xlink:href="#DejaVuSans-30"/>
      </g>
     </g>
    </g>
    <g id="xtick_6">
     <g id="line2d_11">
      <path clip-path="url(#pc2fc6f533c)" d="M 259.37625 290.25375 
L 259.37625 24.14175 
" style="fill:none;stroke:#ffffff;stroke-linecap:square;stroke-width:0.8;"/>
     </g>
     <g id="line2d_12">
      <g>
       <use style="fill:#555555;stroke:#555555;stroke-width:0.8;" x="259.37625" xlink:href="#mf2e5db0635" y="290.25375"/>
      </g>
     </g>
     <g id="text_6">
      <!-- 25 -->
      <g style="fill:#555555;" transform="translate(253.01375 304.852187)scale(0.1 -0.1)">
       <use xlink:href="#DejaVuSans-32"/>
       <use x="63.623047" xlink:href="#DejaVuSans-35"/>
      </g>
     </g>
    </g>
    <g id="xtick_7">
     <g id="line2d_13">
      <path clip-path="url(#pc2fc6f533c)" d="M 304.01625 290.25375 
L 304.01625 24.14175 
" style="fill:none;stroke:#ffffff;stroke-linecap:square;stroke-width:0.8;"/>
     </g>
     <g id="line2d_14">
      <g>
       <use style="fill:#555555;stroke:#555555;stroke-width:0.8;" x="304.01625" xlink:href="#mf2e5db0635" y="290.25375"/>
      </g>
     </g>
     <g id="text_7">
      <!-- 50 -->
      <g style="fill:#555555;" transform="translate(297.65375 304.852187)scale(0.1 -0.1)">
       <use xlink:href="#DejaVuSans-35"/>
       <use x="63.623047" xlink:href="#DejaVuSans-30"/>
      </g>
     </g>
    </g>
    <g id="xtick_8">
     <g id="line2d_15">
      <path clip-path="url(#pc2fc6f533c)" d="M 348.65625 290.25375 
L 348.65625 24.14175 
" style="fill:none;stroke:#ffffff;stroke-linecap:square;stroke-width:0.8;"/>
     </g>
     <g id="line2d_16">
      <g>
       <use style="fill:#555555;stroke:#555555;stroke-width:0.8;" x="348.65625" xlink:href="#mf2e5db0635" y="290.25375"/>
      </g>
     </g>
     <g id="text_8">
      <!-- 75 -->
      <g style="fill:#555555;" transform="translate(342.29375 304.852187)scale(0.1 -0.1)">
       <use xlink:href="#DejaVuSans-37"/>
       <use x="63.623047" xlink:href="#DejaVuSans-35"/>
      </g>
     </g>
    </g>
    <g id="xtick_9">
     <g id="line2d_17">
      <path clip-path="url(#pc2fc6f533c)" d="M 393.29625 290.25375 
L 393.29625 24.14175 
" style="fill:none;stroke:#ffffff;stroke-linecap:square;stroke-width:0.8;"/>
     </g>
     <g id="line2d_18">
      <g>
       <use style="fill:#555555;stroke:#555555;stroke-width:0.8;" x="393.29625" xlink:href="#mf2e5db0635" y="290.25375"/>
      </g>
     </g>
     <g id="text_9">
      <!-- 100 -->
      <g style="fill:#555555;" transform="translate(383.7525 304.852187)scale(0.1 -0.1)">
       <use xlink:href="#DejaVuSans-31"/>
       <use x="63.623047" xlink:href="#DejaVuSans-30"/>
       <use x="127.246094" xlink:href="#DejaVuSans-30"/>
      </g>
     </g>
    </g>
    <g id="text_10">
     <!-- Frequenz [kHz] -->
     <defs>
      <path d="M 9.8125 72.90625 
L 51.703125 72.90625 
L 51.703125 64.59375 
L 19.671875 64.59375 
L 19.671875 43.109375 
L 48.578125 43.109375 
L 48.578125 34.8125 
L 19.671875 34.8125 
L 19.671875 0 
L 9.8125 0 
z
" id="DejaVuSans-46"/>
      <path d="M 41.109375 46.296875 
Q 39.59375 47.171875 37.8125 47.578125 
Q 36.03125 48 33.890625 48 
Q 26.265625 48 22.1875 43.046875 
Q 18.109375 38.09375 18.109375 28.8125 
L 18.109375 0 
L 9.078125 0 
L 9.078125 54.6875 
L 18.109375 54.6875 
L 18.109375 46.1875 
Q 20.953125 51.171875 25.484375 53.578125 
Q 30.03125 56 36.53125 56 
Q 37.453125 56 38.578125 55.875 
Q 39.703125 55.765625 41.0625 55.515625 
z
" id="DejaVuSans-72"/>
      <path d="M 56.203125 29.59375 
L 56.203125 25.203125 
L 14.890625 25.203125 
Q 15.484375 15.921875 20.484375 11.0625 
Q 25.484375 6.203125 34.421875 6.203125 
Q 39.59375 6.203125 44.453125 7.46875 
Q 49.3125 8.734375 54.109375 11.28125 
L 54.109375 2.78125 
Q 49.265625 0.734375 44.1875 -0.34375 
Q 39.109375 -1.421875 33.890625 -1.421875 
Q 20.796875 -1.421875 13.15625 6.1875 
Q 5.515625 13.8125 5.515625 26.8125 
Q 5.515625 40.234375 12.765625 48.109375 
Q 20.015625 56 32.328125 56 
Q 43.359375 56 49.78125 48.890625 
Q 56.203125 41.796875 56.203125 29.59375 
M 47.21875 32.234375 
Q 47.125 39.59375 43.09375 43.984375 
Q 39.0625 48.390625 32.421875 48.390625 
Q 24.90625 48.390625 20.390625 44.140625 
Q 15.875 39.890625 15.1875 32.171875 
z
" id="DejaVuSans-65"/>
      <path d="M 14.796875 27.296875 
Q 14.796875 17.390625 18.875 11.75 
Q 22.953125 6.109375 30.078125 6.109375 
Q 37.203125 6.109375 41.296875 11.75 
Q 45.40625 17.390625 45.40625 27.296875 
Q 45.40625 37.203125 41.296875 42.84375 
Q 37.203125 48.484375 30.078125 48.484375 
Q 22.953125 48.484375 18.875 42.84375 
Q 14.796875 37.203125 14.796875 27.296875 
M 45.40625 8.203125 
Q 42.578125 3.328125 38.25 0.953125 
Q 33.9375 -1.421875 27.875 -1.421875 
Q 17.96875 -1.421875 11.734375 6.484375 
Q 5.515625 14.40625 5.515625 27.296875 
Q 5.515625 40.1875 11.734375 48.09375 
Q 17.96875 56 27.875 56 
Q 33.9375 56 38.25 53.625 
Q 42.578125 51.265625 45.40625 46.390625 
L 45.40625 54.6875 
L 54.390625 54.6875 
L 54.390625 -20.796875 
L 45.40625 -20.796875 
z
" id="DejaVuSans-71"/>
      <path d="M 8.5 21.578125 
L 8.5 54.6875 
L 17.484375 54.6875 
L 17.484375 21.921875 
Q 17.484375 14.15625 20.5 10.265625 
Q 23.53125 6.390625 29.59375 6.390625 
Q 36.859375 6.390625 41.078125 11.03125 
Q 45.3125 15.671875 45.3125 23.6875 
L 45.3125 54.6875 
L 54.296875 54.6875 
L 54.296875 0 
L 45.3125 0 
L 45.3125 8.40625 
Q 42.046875 3.421875 37.71875 1 
Q 33.40625 -1.421875 27.6875 -1.421875 
Q 18.265625 -1.421875 13.375 4.4375 
Q 8.5 10.296875 8.5 21.578125 
M 31.109375 56 
z
" id="DejaVuSans-75"/>
      <path d="M 54.890625 33.015625 
L 54.890625 0 
L 45.90625 0 
L 45.90625 32.71875 
Q 45.90625 40.484375 42.875 44.328125 
Q 39.84375 48.1875 33.796875 48.1875 
Q 26.515625 48.1875 22.3125 43.546875 
Q 18.109375 38.921875 18.109375 30.90625 
L 18.109375 0 
L 9.078125 0 
L 9.078125 54.6875 
L 18.109375 54.6875 
L 18.109375 46.1875 
Q 21.34375 51.125 25.703125 53.5625 
Q 30.078125 56 35.796875 56 
Q 45.21875 56 50.046875 50.171875 
Q 54.890625 44.34375 54.890625 33.015625 
" id="DejaVuSans-6e"/>
      <path d="M 5.515625 54.6875 
L 48.1875 54.6875 
L 48.1875 46.484375 
L 14.40625 7.171875 
L 48.1875 7.171875 
L 48.1875 0 
L 4.296875 0 
L 4.296875 8.203125 
L 38.09375 47.515625 
L 5.515625 47.515625 
z
" id="DejaVuSans-7a"/>
      <path id="DejaVuSans-20"/>
      <path d="M 8.59375 75.984375 
L 29.296875 75.984375 
L 29.296875 69 
L 17.578125 69 
L 17.578125 -6.203125 
L 29.296875 -6.203125 
L 29.296875 -13.1875 
L 8.59375 -13.1875 
z
" id="DejaVuSans-5b"/>
      <path d="M 9.078125 75.984375 
L 18.109375 75.984375 
L 18.109375 31.109375 
L 44.921875 54.6875 
L 56.390625 54.6875 
L 27.390625 29.109375 
L 57.625 0 
L 45.90625 0 
L 18.109375 26.703125 
L 18.109375 0 
L 9.078125 0 
z
" id="DejaVuSans-6b"/>
      <path d="M 9.8125 72.90625 
L 19.671875 72.90625 
L 19.671875 43.015625 
L 55.515625 43.015625 
L 55.515625 72.90625 
L 65.375 72.90625 
L 65.375 0 
L 55.515625 0 
L 55.515625 34.71875 
L 19.671875 34.71875 
L 19.671875 0 
L 9.8125 0 
z
" id="DejaVuSans-48"/>
      <path d="M 30.421875 75.984375 
L 30.421875 -13.1875 
L 9.71875 -13.1875 
L 9.71875 -6.203125 
L 21.390625 -6.203125 
L 21.390625 69 
L 9.71875 69 
L 9.71875 75.984375 
z
" id="DejaVuSans-5d"/>
     </defs>
     <g style="fill:#555555;" transform="translate(169.155938 320.05)scale(0.12 -0.12)">
      <use xlink:href="#DejaVuSans-46"/>
      <use x="57.410156" xlink:href="#DejaVuSans-72"/>
      <use x="98.492188" xlink:href="#DejaVuSans-65"/>
      <use x="160.015625" xlink:href="#DejaVuSans-71"/>
      <use x="223.492188" xlink:href="#DejaVuSans-75"/>
      <use x="286.871094" xlink:href="#DejaVuSans-65"/>
      <use x="348.394531" xlink:href="#DejaVuSans-6e"/>
      <use x="411.773438" xlink:href="#DejaVuSans-7a"/>
      <use x="464.263672" xlink:href="#DejaVuSans-20"/>
      <use x="496.050781" xlink:href="#DejaVuSans-5b"/>
      <use x="535.064453" xlink:href="#DejaVuSans-6b"/>
      <use x="592.974609" xlink:href="#DejaVuSans-48"/>
      <use x="668.169922" xlink:href="#DejaVuSans-7a"/>
      <use x="720.660156" xlink:href="#DejaVuSans-5d"/>
     </g>
    </g>
   </g>
   <g id="matplotlib.axis_2">
    <g id="ytick_1">
     <g id="line2d_19">
      <path clip-path="url(#pc2fc6f533c)" d="M 36.17625 275.046923 
L 393.29625 275.046923 
" style="fill:none;stroke:#ffffff;stroke-linecap:square;stroke-width:0.8;"/>
     </g>
     <g id="line2d_20">
      <defs>
       <path d="M 0 0 
L -3.5 0 
" id="m9dd556109f" style="stroke:#555555;stroke-width:0.8;"/>
      </defs>
      <g>
       <use style="fill:#555555;stroke:#555555;stroke-width:0.8;" x="36.17625" xlink:href="#m9dd556109f" y="275.046923"/>
      </g>
     </g>
     <g id="text_11">
      <!-- 0 -->
      <g style="fill:#555555;" transform="translate(22.81375 278.846142)scale(0.1 -0.1)">
       <use xlink:href="#DejaVuSans-30"/>
      </g>
     </g>
    </g>
    <g id="ytick_2">
     <g id="line2d_21">
      <path clip-path="url(#pc2fc6f533c)" d="M 36.17625 221.978218 
L 393.29625 221.978218 
" style="fill:none;stroke:#ffffff;stroke-linecap:square;stroke-width:0.8;"/>
     </g>
     <g id="line2d_22">
      <g>
       <use style="fill:#555555;stroke:#555555;stroke-width:0.8;" x="36.17625" xlink:href="#m9dd556109f" y="221.978218"/>
      </g>
     </g>
     <g id="text_12">
      <!-- 1 -->
      <g style="fill:#555555;" transform="translate(22.81375 225.777437)scale(0.1 -0.1)">
       <use xlink:href="#DejaVuSans-31"/>
      </g>
     </g>
    </g>
    <g id="ytick_3">
     <g id="line2d_23">
      <path clip-path="url(#pc2fc6f533c)" d="M 36.17625 168.909513 
L 393.29625 168.909513 
" style="fill:none;stroke:#ffffff;stroke-linecap:square;stroke-width:0.8;"/>
     </g>
     <g id="line2d_24">
      <g>
       <use style="fill:#555555;stroke:#555555;stroke-width:0.8;" x="36.17625" xlink:href="#m9dd556109f" y="168.909513"/>
      </g>
     </g>
     <g id="text_13">
      <!-- 2 -->
      <g style="fill:#555555;" transform="translate(22.81375 172.708732)scale(0.1 -0.1)">
       <use xlink:href="#DejaVuSans-32"/>
      </g>
     </g>
    </g>
    <g id="ytick_4">
     <g id="line2d_25">
      <path clip-path="url(#pc2fc6f533c)" d="M 36.17625 115.840808 
L 393.29625 115.840808 
" style="fill:none;stroke:#ffffff;stroke-linecap:square;stroke-width:0.8;"/>
     </g>
     <g id="line2d_26">
      <g>
       <use style="fill:#555555;stroke:#555555;stroke-width:0.8;" x="36.17625" xlink:href="#m9dd556109f" y="115.840808"/>
      </g>
     </g>
     <g id="text_14">
      <!-- 3 -->
      <defs>
       <path d="M 40.578125 39.3125 
Q 47.65625 37.796875 51.625 33 
Q 55.609375 28.21875 55.609375 21.1875 
Q 55.609375 10.40625 48.1875 4.484375 
Q 40.765625 -1.421875 27.09375 -1.421875 
Q 22.515625 -1.421875 17.65625 -0.515625 
Q 12.796875 0.390625 7.625 2.203125 
L 7.625 11.71875 
Q 11.71875 9.328125 16.59375 8.109375 
Q 21.484375 6.890625 26.8125 6.890625 
Q 36.078125 6.890625 40.9375 10.546875 
Q 45.796875 14.203125 45.796875 21.1875 
Q 45.796875 27.640625 41.28125 31.265625 
Q 36.765625 34.90625 28.71875 34.90625 
L 20.21875 34.90625 
L 20.21875 43.015625 
L 29.109375 43.015625 
Q 36.375 43.015625 40.234375 45.921875 
Q 44.09375 48.828125 44.09375 54.296875 
Q 44.09375 59.90625 40.109375 62.90625 
Q 36.140625 65.921875 28.71875 65.921875 
Q 24.65625 65.921875 20.015625 65.03125 
Q 15.375 64.15625 9.8125 62.3125 
L 9.8125 71.09375 
Q 15.4375 72.65625 20.34375 73.4375 
Q 25.25 74.21875 29.59375 74.21875 
Q 40.828125 74.21875 47.359375 69.109375 
Q 53.90625 64.015625 53.90625 55.328125 
Q 53.90625 49.265625 50.4375 45.09375 
Q 46.96875 40.921875 40.578125 39.3125 
" id="DejaVuSans-33"/>
      </defs>
      <g style="fill:#555555;" transform="translate(22.81375 119.640027)scale(0.1 -0.1)">
       <use xlink:href="#DejaVuSans-33"/>
      </g>
     </g>
    </g>
    <g id="ytick_5">
     <g id="line2d_27">
      <path clip-path="url(#pc2fc6f533c)" d="M 36.17625 62.772103 
L 393.29625 62.772103 
" style="fill:none;stroke:#ffffff;stroke-linecap:square;stroke-width:0.8;"/>
     </g>
     <g id="line2d_28">
      <g>
       <use style="fill:#555555;stroke:#555555;stroke-width:0.8;" x="36.17625" xlink:href="#m9dd556109f" y="62.772103"/>
      </g>
     </g>
     <g id="text_15">
      <!-- 4 -->
      <defs>
       <path d="M 37.796875 64.3125 
L 12.890625 25.390625 
L 37.796875 25.390625 
z
M 35.203125 72.90625 
L 47.609375 72.90625 
L 47.609375 25.390625 
L 58.015625 25.390625 
L 58.015625 17.1875 
L 47.609375 17.1875 
L 47.609375 0 
L 37.796875 0 
L 37.796875 17.1875 
L 4.890625 17.1875 
L 4.890625 26.703125 
z
" id="DejaVuSans-34"/>
      </defs>
      <g style="fill:#555555;" transform="translate(22.81375 66.571321)scale(0.1 -0.1)">
       <use xlink:href="#DejaVuSans-34"/>
      </g>
     </g>
    </g>
    <g id="text_16">
     <!-- a.u. -->
     <defs>
      <path d="M 34.28125 27.484375 
Q 23.390625 27.484375 19.1875 25 
Q 14.984375 22.515625 14.984375 16.5 
Q 14.984375 11.71875 18.140625 8.90625 
Q 21.296875 6.109375 26.703125 6.109375 
Q 34.1875 6.109375 38.703125 11.40625 
Q 43.21875 16.703125 43.21875 25.484375 
L 43.21875 27.484375 
z
M 52.203125 31.203125 
L 52.203125 0 
L 43.21875 0 
L 43.21875 8.296875 
Q 40.140625 3.328125 35.546875 0.953125 
Q 30.953125 -1.421875 24.3125 -1.421875 
Q 15.921875 -1.421875 10.953125 3.296875 
Q 6 8.015625 6 15.921875 
Q 6 25.140625 12.171875 29.828125 
Q 18.359375 34.515625 30.609375 34.515625 
L 43.21875 34.515625 
L 43.21875 35.40625 
Q 43.21875 41.609375 39.140625 45 
Q 35.0625 48.390625 27.6875 48.390625 
Q 23 48.390625 18.546875 47.265625 
Q 14.109375 46.140625 10.015625 43.890625 
L 10.015625 52.203125 
Q 14.9375 54.109375 19.578125 55.046875 
Q 24.21875 56 28.609375 56 
Q 40.484375 56 46.34375 49.84375 
Q 52.203125 43.703125 52.203125 31.203125 
" id="DejaVuSans-61"/>
      <path d="M 10.6875 12.40625 
L 21 12.40625 
L 21 0 
L 10.6875 0 
z
" id="DejaVuSans-2e"/>
     </defs>
     <g style="fill:#555555;" transform="translate(16.318125 168.490875)rotate(-90)scale(0.12 -0.12)">
      <use xlink:href="#DejaVuSans-61"/>
      <use x="61.279297" xlink:href="#DejaVuSans-2e"/>
      <use x="93.066406" xlink:href="#DejaVuSans-75"/>
      <use x="156.445312" xlink:href="#DejaVuSans-2e"/>
     </g>
    </g>
   </g>
   <g id="line2d_29">
    <path clip-path="url(#pc2fc6f533c)" d="M 36.001875 274.594328 
L 38.181563 274.532526 
L 41.233125 274.568408 
L 44.720625 274.904386 
L 47.772188 274.937372 
L 49.951875 275.001158 
L 55.183125 274.707441 
L 57.362813 274.878572 
L 59.106562 274.908016 
L 63.901875 274.590048 
L 66.081563 274.647266 
L 70.876875 274.374915 
L 75.672188 274.651116 
L 78.287813 274.673482 
L 80.903437 274.831239 
L 84.826875 275.032142 
L 87.4425 275.217719 
L 88.750313 275.134667 
L 93.109688 274.468533 
L 95.289375 274.545169 
L 98.776875 274.990962 
L 104.444063 274.446137 
L 105.315938 274.064472 
L 106.187813 273.188712 
L 107.059688 272.174686 
L 107.495625 271.855065 
L 107.931563 271.748907 
L 108.3675 271.849778 
L 109.675313 272.714248 
L 110.547188 273.172445 
L 111.855 273.544818 
L 113.162813 273.677214 
L 115.3425 273.846796 
L 117.08625 273.997419 
L 120.137813 274.162201 
L 121.445625 274.225583 
L 124.06125 273.988196 
L 127.984688 273.563849 
L 130.164375 273.292084 
L 131.908125 273.419309 
L 133.215937 273.450217 
L 135.831563 273.208802 
L 138.447188 272.95098 
L 140.626875 273.182434 
L 142.370625 273.250268 
L 144.114375 273.120767 
L 148.47375 272.633552 
L 149.781563 272.743884 
L 151.525313 272.949388 
L 152.833125 272.83935 
L 159.808125 271.723066 
L 161.987813 271.601203 
L 165.91125 270.944576 
L 170.706563 269.868899 
L 172.450312 269.648424 
L 174.63 268.962836 
L 181.169062 266.811644 
L 182.912813 265.821273 
L 184.656563 264.682053 
L 186.400313 263.213443 
L 191.195625 258.913241 
L 192.503438 257.259586 
L 197.734688 249.604113 
L 199.0425 246.887848 
L 201.222188 241.661898 
L 204.27375 233.622545 
L 206.0175 229.106249 
L 207.325313 226.35538 
L 208.633125 224.288903 
L 209.505 223.249561 
L 210.376875 222.491843 
L 211.24875 222.057596 
L 212.120625 222.000116 
L 212.9925 222.372965 
L 213.864375 223.201086 
L 214.73625 224.442692 
L 216.044063 226.858058 
L 217.787813 230.681622 
L 224.326875 245.732108 
L 227.378438 251.629708 
L 228.68625 253.580804 
L 231.301875 257.025317 
L 232.609688 258.848338 
L 233.481563 259.784521 
L 234.789375 260.78868 
L 236.533125 262.073925 
L 239.584688 264.732189 
L 240.8925 265.482437 
L 243.072188 266.440537 
L 246.12375 267.459712 
L 249.175313 268.41752 
L 250.919063 268.89556 
L 254.8425 270.463691 
L 259.637812 270.972001 
L 262.689375 270.733998 
L 263.997187 270.948712 
L 265.740938 271.594364 
L 267.04875 272.015081 
L 268.356562 272.178207 
L 270.972188 272.294994 
L 272.715937 272.479002 
L 274.459688 272.626223 
L 278.383125 273.288942 
L 279.690938 273.179116 
L 282.7425 272.603231 
L 284.050313 272.822743 
L 285.794062 273.072264 
L 288.845625 273.166811 
L 291.897188 273.133563 
L 295.820625 273.505223 
L 299.744063 273.083049 
L 301.92375 273.139245 
L 303.231562 273.391777 
L 305.847188 273.975647 
L 307.155 274.058689 
L 308.462813 273.887569 
L 310.6425 273.467666 
L 311.950312 273.459555 
L 315.87375 273.849896 
L 319.36125 273.691835 
L 321.540938 273.866588 
L 325.028437 273.660022 
L 326.772188 273.831429 
L 328.951875 274.051174 
L 332.875313 274.096207 
L 335.926875 274.208374 
L 339.414375 274.252251 
L 342.03 274.207322 
L 344.209688 274.230573 
L 347.697188 274.442369 
L 350.74875 274.876486 
L 358.595625 274.6903 
L 360.775313 274.467627 
L 364.69875 274.302338 
L 366.006563 274.417641 
L 368.622187 274.774359 
L 371.237813 274.92445 
L 376.033125 274.931686 
L 379.520625 275.017838 
L 381.700312 274.971929 
L 384.315938 274.695371 
L 385.62375 274.894707 
L 387.3675 275.207836 
L 388.675313 275.130213 
L 390.855 274.988647 
L 393.470625 274.821959 
L 393.470625 274.821959 
" style="fill:none;stroke:#e24a33;stroke-linecap:square;stroke-width:1.5;"/>
   </g>
   <g id="line2d_30">
    <path clip-path="url(#pc2fc6f533c)" d="M 36.001875 247.703504 
L 38.6175 247.824293 
L 40.797188 247.891074 
L 46.028437 247.618677 
L 48.644063 247.447206 
L 50.387812 247.633864 
L 53.003438 247.958415 
L 54.747187 247.919589 
L 57.79875 247.732696 
L 61.722188 247.892955 
L 63.901875 247.782287 
L 67.825312 247.816175 
L 70.876875 247.752604 
L 73.4925 247.834915 
L 79.595625 248.561372 
L 81.339375 248.491809 
L 87.4425 247.850409 
L 88.750313 247.888665 
L 91.801875 248.178265 
L 93.545625 247.965894 
L 97.033125 247.167124 
L 100.084688 246.510485 
L 104.444063 246.10942 
L 105.315938 246.289916 
L 106.187813 246.777209 
L 108.3675 248.460059 
L 109.239375 248.718192 
L 110.11125 248.616599 
L 111.419063 248.081804 
L 112.726875 247.569032 
L 114.034688 247.364627 
L 117.522188 247.242262 
L 119.265938 247.015154 
L 120.57375 247.077662 
L 122.753438 247.306265 
L 124.06125 247.192917 
L 127.112813 246.738159 
L 131.472188 246.482122 
L 137.575312 245.504532 
L 139.319063 245.667798 
L 141.062813 245.820514 
L 142.370625 245.738205 
L 144.114375 245.333542 
L 145.858125 244.886446 
L 147.165938 244.805278 
L 148.909688 245.037801 
L 150.2175 245.169052 
L 151.525313 245.069927 
L 160.244063 243.696047 
L 162.42375 243.48814 
L 164.1675 243.045299 
L 166.783125 242.384158 
L 168.962813 241.82999 
L 171.1425 240.951288 
L 173.758125 239.918211 
L 175.501875 239.484213 
L 178.989375 238.898435 
L 179.86125 238.46316 
L 181.169062 237.500069 
L 188.58 231.071577 
L 190.759688 229.014989 
L 192.0675 227.437715 
L 192.939375 226.11264 
L 194.247188 223.639653 
L 196.862813 218.221954 
L 202.965938 207.095449 
L 205.145625 203.267236 
L 207.325313 199.879089 
L 209.069063 197.501754 
L 209.940938 196.527308 
L 210.812813 195.820117 
L 211.684688 195.47096 
L 212.556563 195.513035 
L 213.428438 195.914377 
L 214.300313 196.617218 
L 215.172188 197.579095 
L 216.48 199.446337 
L 218.22375 202.491442 
L 220.403438 206.749245 
L 225.19875 216.453718 
L 228.250313 221.833635 
L 229.994063 224.599949 
L 231.301875 226.308101 
L 232.609688 227.683402 
L 240.020625 234.595171 
L 242.63625 236.559122 
L 245.251875 238.241143 
L 247.431563 239.405298 
L 249.175313 240.09849 
L 252.226875 241.002819 
L 254.8425 241.748172 
L 257.458125 242.699402 
L 258.765938 242.919237 
L 262.689375 243.268288 
L 265.740938 244.110611 
L 267.484688 244.216706 
L 269.664375 244.3276 
L 271.844063 244.680008 
L 274.02375 245.263788 
L 277.51125 246.419123 
L 278.819063 246.469798 
L 280.126875 246.249649 
L 284.050313 245.27572 
L 285.794062 245.421356 
L 289.281563 245.734975 
L 294.076875 246.228749 
L 297.128438 246.747851 
L 298.872187 246.749553 
L 301.051875 246.663104 
L 302.795625 246.871934 
L 304.975313 247.138178 
L 307.590937 247.190858 
L 309.334688 247.039972 
L 312.38625 246.660508 
L 314.13 246.731025 
L 318.925313 247.101326 
L 326.33625 247.162168 
L 328.08 246.922754 
L 330.259688 246.540688 
L 331.5675 246.549033 
L 335.926875 246.833048 
L 338.5425 247.021086 
L 350.74875 248.270501 
L 352.928438 248.297172 
L 354.672188 248.066011 
L 356.415938 247.84998 
L 357.72375 247.967425 
L 360.775313 248.535951 
L 363.390938 248.567646 
L 369.494063 248.666097 
L 373.853438 248.217944 
L 381.264375 248.327054 
L 392.59875 247.994728 
L 393.470625 248.065521 
L 393.470625 248.065521 
" style="fill:none;stroke:#348abd;stroke-linecap:square;stroke-width:1.5;"/>
   </g>
   <g id="line2d_31">
    <path clip-path="url(#pc2fc6f533c)" d="M 36.001875 220.74301 
L 36.437813 220.713556 
L 38.181563 220.976191 
L 38.6175 220.759956 
L 40.797188 219.087939 
L 41.669062 218.972189 
L 42.540938 219.214151 
L 43.84875 219.834448 
L 44.284688 219.899381 
L 45.156563 219.644182 
L 46.028437 219.24091 
L 46.464375 219.179915 
L 46.900313 219.266058 
L 47.772188 219.802369 
L 50.387812 221.898787 
L 50.82375 221.928269 
L 51.259688 221.777407 
L 53.003438 220.609563 
L 53.439375 220.566144 
L 53.875313 220.695599 
L 55.619063 221.751563 
L 56.055 221.718006 
L 56.490938 221.489273 
L 57.79875 220.475836 
L 58.234688 220.401934 
L 58.670625 220.569381 
L 59.5425 221.4584 
L 60.414375 222.427223 
L 60.850313 222.719785 
L 61.28625 222.834272 
L 61.722188 222.772777 
L 62.594063 222.224448 
L 63.901875 221.145723 
L 64.337813 220.972314 
L 65.209688 220.984674 
L 66.081563 221.033338 
L 66.5175 220.876034 
L 67.389375 220.134964 
L 68.26125 219.332217 
L 68.697188 219.138692 
L 69.133125 219.139752 
L 69.569063 219.321196 
L 70.440938 220.092844 
L 71.312813 221.287949 
L 72.620625 223.436858 
L 73.056563 223.955559 
L 73.4925 224.242519 
L 73.928438 224.280513 
L 74.364375 224.108523 
L 75.672188 223.046342 
L 76.544062 222.365234 
L 76.98 222.131612 
L 77.415938 222.044559 
L 77.851875 222.168648 
L 78.287813 222.538002 
L 79.159688 223.832107 
L 80.031563 224.9867 
L 80.4675 225.156041 
L 80.903437 224.981245 
L 81.775313 223.916216 
L 82.647188 222.773702 
L 83.519063 222.058203 
L 84.390938 221.614855 
L 84.826875 221.511736 
L 85.262812 221.54345 
L 85.69875 221.727041 
L 87.878438 223.197492 
L 88.750313 223.29012 
L 91.365938 223.075267 
L 93.545625 223.235517 
L 94.4175 223.814305 
L 95.289375 224.356674 
L 95.725313 224.317351 
L 96.16125 223.970369 
L 96.597188 223.329483 
L 97.469063 221.468815 
L 98.776875 218.43327 
L 99.64875 217.077202 
L 100.084688 216.776069 
L 100.520625 216.702524 
L 102.700313 216.926832 
L 103.13625 216.767324 
L 103.572188 216.291748 
L 104.008125 215.177841 
L 104.444063 213.034001 
L 104.88 209.540094 
L 105.751875 198.730283 
L 106.62375 187.775627 
L 107.059688 185.15069 
L 107.495625 185.516199 
L 107.931563 188.781686 
L 108.803438 200.29543 
L 109.675313 211.022623 
L 110.11125 214.605159 
L 110.547188 217.072795 
L 110.983125 218.747646 
L 111.855 220.89458 
L 112.726875 222.335792 
L 113.162813 222.805143 
L 113.59875 223.069342 
L 114.034688 223.145008 
L 117.08625 222.696077 
L 117.958125 222.014493 
L 119.265938 220.817455 
L 120.57375 219.743023 
L 121.445625 218.626087 
L 122.3175 217.429124 
L 122.753438 217.046891 
L 123.189375 216.912445 
L 123.625313 217.03303 
L 124.497188 217.789162 
L 125.369063 218.612564 
L 125.805 218.871286 
L 126.240938 218.992216 
L 127.112813 218.861683 
L 128.420625 218.174366 
L 129.2925 217.754324 
L 130.164375 217.574062 
L 131.03625 217.702686 
L 131.908125 218.111919 
L 133.215937 218.78063 
L 134.087813 218.805521 
L 135.831563 218.505504 
L 136.703438 218.408507 
L 137.139375 218.236135 
L 138.01125 217.515222 
L 139.319063 216.082489 
L 139.755 215.839154 
L 140.190938 215.841149 
L 140.626875 216.10532 
L 141.49875 217.191688 
L 142.370625 218.272423 
L 142.806563 218.544781 
L 143.2425 218.570435 
L 143.678438 218.357677 
L 144.550313 217.451004 
L 145.422188 216.512182 
L 145.858125 216.230609 
L 146.294062 216.10521 
L 147.601875 216.20142 
L 148.47375 216.132404 
L 150.653437 215.603856 
L 151.525313 215.658257 
L 152.833125 216.002387 
L 154.140938 216.432082 
L 155.012812 216.402384 
L 156.320625 215.860749 
L 157.1925 215.633409 
L 158.064375 215.759614 
L 158.93625 215.934774 
L 159.372187 215.895931 
L 160.244063 215.453733 
L 161.551875 214.476187 
L 161.987813 214.400405 
L 162.42375 214.583131 
L 162.859688 215.027168 
L 164.1675 216.80155 
L 164.603438 217.014018 
L 165.039375 216.89061 
L 165.475313 216.484597 
L 166.783125 214.817678 
L 167.655 214.133033 
L 171.1425 212.303141 
L 172.014375 211.406783 
L 173.322188 209.311212 
L 174.63 207.415043 
L 175.501875 206.198351 
L 177.245625 203.358403 
L 177.681563 202.919533 
L 178.1175 202.701862 
L 178.553438 202.707262 
L 178.989375 202.916735 
L 179.425313 203.304127 
L 180.297188 204.487198 
L 181.605 206.416401 
L 182.040938 206.726442 
L 182.476875 206.677075 
L 182.912813 206.167523 
L 183.34875 205.145347 
L 184.220625 201.791943 
L 185.0925 198.055993 
L 185.528437 196.732178 
L 185.964375 196.037175 
L 186.400313 195.994226 
L 186.83625 196.464374 
L 187.708125 197.861718 
L 188.144063 198.236176 
L 188.58 198.185135 
L 189.015938 197.742435 
L 189.887813 196.481987 
L 190.32375 196.199298 
L 190.759688 196.431376 
L 191.195625 197.237037 
L 192.0675 200.088824 
L 192.939375 202.964944 
L 193.375313 203.762155 
L 193.81125 203.8229 
L 194.247188 202.937668 
L 194.683125 200.955534 
L 195.119063 197.870401 
L 196.862813 181.77626 
L 197.29875 179.359145 
L 197.734688 178.126302 
L 198.170625 177.926463 
L 198.606563 178.450461 
L 199.914375 181.092647 
L 200.350313 181.655803 
L 200.78625 181.975671 
L 201.222188 182.087457 
L 201.658125 182.029468 
L 202.53 181.521446 
L 204.27375 180.127614 
L 205.581563 179.530733 
L 206.0175 179.186572 
L 206.889375 178.107082 
L 207.76125 177.018685 
L 208.197188 176.692583 
L 209.505 176.175117 
L 209.940938 175.756919 
L 210.376875 175.072611 
L 211.24875 173.030722 
L 212.120625 170.775282 
L 212.556563 169.86372 
L 212.9925 169.222368 
L 213.428438 168.909513 
L 213.864375 168.946718 
L 214.300313 169.310387 
L 215.172188 170.672699 
L 216.044063 172.01808 
L 216.48 172.431568 
L 217.351875 172.796199 
L 218.22375 173.186166 
L 218.659688 173.602816 
L 219.531563 174.962555 
L 220.403438 176.902486 
L 223.019063 183.575312 
L 223.890938 184.807665 
L 225.19875 186.453907 
L 226.070625 187.894151 
L 226.9425 189.847282 
L 228.250313 192.936318 
L 229.122188 194.224023 
L 230.865938 196.210532 
L 232.17375 197.745147 
L 232.609688 198.088647 
L 233.045625 198.270106 
L 233.481563 198.225242 
L 233.9175 197.912972 
L 235.66125 195.727913 
L 236.097188 195.725069 
L 236.533125 196.073443 
L 237.405 197.453286 
L 238.712813 200.166494 
L 240.8925 205.314655 
L 241.328438 206.019404 
L 241.764375 206.460617 
L 242.200313 206.591936 
L 242.63625 206.40364 
L 243.072188 205.937407 
L 244.815938 203.535506 
L 245.251875 203.3721 
L 245.687813 203.471828 
L 246.559688 204.165555 
L 247.431563 204.743723 
L 247.8675 204.761206 
L 248.303438 204.581609 
L 249.61125 203.772173 
L 250.047188 203.831066 
L 250.483125 204.19608 
L 250.919063 204.858634 
L 251.790938 206.782554 
L 253.09875 209.686313 
L 253.534688 210.267665 
L 253.970625 210.514665 
L 254.406563 210.403834 
L 254.8425 209.992138 
L 255.714375 208.855209 
L 256.150313 208.478711 
L 256.58625 208.398332 
L 257.022188 208.651051 
L 257.458125 209.208402 
L 258.33 210.921767 
L 259.201875 212.728614 
L 259.637812 213.410301 
L 260.07375 213.866389 
L 260.509688 214.104351 
L 261.381563 214.163461 
L 262.253438 214.142282 
L 262.689375 214.244554 
L 263.125313 214.480862 
L 263.997187 215.361964 
L 264.433125 215.847026 
L 264.869063 216.152602 
L 265.305 216.125844 
L 265.740938 215.713232 
L 267.04875 213.592801 
L 267.484688 213.287086 
L 267.920625 213.306666 
L 268.7925 213.669331 
L 269.228438 213.606141 
L 269.664375 213.22771 
L 270.100313 212.554232 
L 272.28 208.105068 
L 272.715937 207.63341 
L 273.151875 207.489264 
L 273.587813 207.693974 
L 274.459688 208.846632 
L 275.331563 209.966398 
L 275.7675 210.194758 
L 276.203438 210.191224 
L 277.075312 209.968766 
L 277.51125 210.067177 
L 277.947188 210.457797 
L 278.819063 212.018002 
L 279.690938 213.604838 
L 280.126875 213.985 
L 280.562813 214.013687 
L 281.434687 213.424106 
L 281.870625 213.130166 
L 282.306563 213.012918 
L 282.7425 213.122194 
L 283.178438 213.445656 
L 284.050313 214.509211 
L 284.922188 215.607077 
L 285.358125 215.969597 
L 285.794062 216.138219 
L 286.23 216.108786 
L 287.101875 215.632389 
L 287.97375 215.060645 
L 288.845625 214.758746 
L 290.153437 214.636861 
L 291.025313 214.719732 
L 292.333125 215.10942 
L 292.769063 215.049883 
L 293.205 214.786604 
L 295.384688 212.699268 
L 296.6925 212.360961 
L 297.128438 212.365786 
L 297.564375 212.550088 
L 298.000313 212.991251 
L 298.872187 214.526914 
L 299.308125 215.319288 
L 299.744063 215.857558 
L 300.18 216.002455 
L 300.615938 215.738416 
L 302.359688 213.65248 
L 302.795625 213.599983 
L 303.6675 213.997495 
L 305.41125 215.186715 
L 306.283125 216.282233 
L 307.155 217.473097 
L 307.590937 217.876794 
L 308.026875 218.079373 
L 308.462813 218.090099 
L 309.334688 217.74646 
L 310.6425 217.144548 
L 311.514375 217.074798 
L 312.38625 217.377263 
L 313.258125 217.989078 
L 314.13 218.703353 
L 314.565938 218.940425 
L 315.001875 218.973205 
L 315.437813 218.72944 
L 315.87375 218.198567 
L 317.6175 215.352635 
L 318.053438 215.115205 
L 318.489375 215.155143 
L 319.36125 215.738043 
L 320.233125 216.329467 
L 320.669062 216.461315 
L 321.105 216.456476 
L 321.976875 216.103626 
L 323.284688 215.332401 
L 324.156563 215.119806 
L 324.5925 215.181131 
L 325.464375 215.687538 
L 326.772188 216.734011 
L 327.644063 216.975453 
L 329.387812 216.988412 
L 329.82375 216.765001 
L 330.259688 216.338648 
L 332.003438 214.077743 
L 332.439375 213.979256 
L 332.875313 214.204951 
L 333.31125 214.731524 
L 334.183125 216.432436 
L 335.490938 219.267738 
L 335.926875 219.889824 
L 336.362813 220.206672 
L 336.79875 220.183659 
L 337.234688 219.847357 
L 338.5425 218.148977 
L 338.978438 217.874264 
L 339.414375 217.921341 
L 339.850313 218.278874 
L 342.03 221.019139 
L 343.337813 221.880893 
L 344.209688 222.97007 
L 345.081563 224.079957 
L 345.5175 224.370053 
L 345.953438 224.438867 
L 347.26125 224.318612 
L 347.697188 224.579031 
L 348.569063 225.716938 
L 349.440938 227.075227 
L 350.312813 227.946554 
L 350.74875 228.117925 
L 351.184687 228.117345 
L 351.620625 227.953797 
L 352.056563 227.635465 
L 352.928438 226.610479 
L 354.23625 224.921654 
L 354.672188 224.592661 
L 355.544062 224.363675 
L 358.159688 224.430761 
L 359.903437 225.056579 
L 360.775313 225.038429 
L 361.647188 224.600068 
L 362.955 223.707234 
L 363.390938 223.639918 
L 364.69875 223.829929 
L 365.134688 223.611609 
L 365.570625 223.115395 
L 367.314375 220.262832 
L 367.750313 220.056078 
L 368.18625 220.185406 
L 369.058125 221.084253 
L 369.93 221.918298 
L 370.365938 222.095528 
L 371.237813 222.104439 
L 372.545625 222.084085 
L 373.853438 222.043869 
L 375.16125 222.007729 
L 376.033125 222.375379 
L 376.905 223.152517 
L 377.776875 224.019918 
L 378.212813 224.327977 
L 378.64875 224.495867 
L 379.520625 224.471024 
L 380.3925 224.33749 
L 382.13625 224.343398 
L 382.572188 224.139792 
L 383.444063 223.354356 
L 385.187813 221.590777 
L 386.495625 220.538258 
L 387.3675 220.165885 
L 388.239375 220.202643 
L 389.547188 220.685563 
L 392.59875 221.927689 
L 393.470625 222.000261 
L 393.470625 222.000261 
" style="fill:none;stroke:#988ed5;stroke-linecap:square;stroke-width:1.5;"/>
   </g>
   <g id="line2d_32">
    <path clip-path="url(#pc2fc6f533c)" d="M 36.001875 194.062054 
L 36.437813 193.984805 
L 36.87375 193.968438 
L 38.181563 194.173344 
L 40.36125 194.636219 
L 42.540938 194.861339 
L 44.284688 194.90099 
L 45.156563 194.722005 
L 47.33625 193.881788 
L 48.208125 194.018702 
L 49.515938 194.421905 
L 51.695625 194.770527 
L 52.5675 195.290654 
L 53.875313 196.225225 
L 54.747187 196.55881 
L 55.619063 196.497426 
L 56.490938 196.106875 
L 58.234688 194.924226 
L 59.978438 193.663028 
L 60.414375 193.564779 
L 60.850313 193.62613 
L 61.722188 194.093522 
L 62.594063 194.542389 
L 63.465937 194.652016 
L 64.77375 194.70995 
L 66.081563 194.901265 
L 66.953438 194.762687 
L 68.26125 194.442961 
L 69.133125 194.55842 
L 70.440938 195.012725 
L 70.876875 195.046413 
L 71.74875 194.795251 
L 73.056563 194.257271 
L 73.928438 194.316478 
L 75.23625 194.891908 
L 76.98 195.655422 
L 78.72375 196.107472 
L 80.031563 196.236424 
L 80.903437 196.099123 
L 82.21125 195.778464 
L 83.083125 195.859087 
L 83.955 196.279797 
L 84.826875 196.746344 
L 85.262812 196.847908 
L 85.69875 196.798499 
L 86.134688 196.584 
L 87.006563 195.761999 
L 88.314375 194.390229 
L 89.18625 193.953561 
L 89.622188 193.934384 
L 90.494063 194.224866 
L 91.801875 194.912122 
L 92.67375 195.122858 
L 95.725313 195.304089 
L 96.597188 195.723374 
L 99.212813 197.272388 
L 99.64875 197.195626 
L 100.084688 196.924678 
L 101.828438 195.262147 
L 102.264375 195.185893 
L 102.700313 195.356402 
L 103.13625 195.758209 
L 104.008125 197.033913 
L 104.88 198.255766 
L 105.315938 198.454052 
L 105.751875 198.130341 
L 106.187813 197.159897 
L 106.62375 195.551707 
L 107.931563 189.3553 
L 108.3675 187.942567 
L 108.803438 187.171032 
L 109.239375 186.961968 
L 109.675313 187.112128 
L 110.547188 187.613916 
L 110.983125 187.692921 
L 111.855 187.466886 
L 112.290938 187.324427 
L 112.726875 187.304171 
L 113.162813 187.494565 
L 113.59875 187.940582 
L 114.470625 189.51434 
L 116.214375 193.206665 
L 116.650313 193.787328 
L 117.08625 194.132452 
L 117.522188 194.241196 
L 117.958125 194.14933 
L 118.83 193.620093 
L 120.57375 192.475717 
L 121.881563 191.830731 
L 124.497188 190.928635 
L 126.676875 190.425942 
L 127.984688 190.208355 
L 128.856562 190.306138 
L 130.164375 190.488764 
L 131.03625 190.298606 
L 132.344063 189.947331 
L 133.215937 190.075909 
L 134.52375 190.457962 
L 135.395625 190.486667 
L 136.703438 190.252782 
L 137.575312 189.938008 
L 139.755 188.771593 
L 140.626875 188.737789 
L 141.934687 188.953672 
L 144.114375 188.921831 
L 144.98625 189.462172 
L 146.294062 190.398695 
L 146.73 190.515151 
L 147.165938 190.471488 
L 147.601875 190.267834 
L 148.47375 189.511431 
L 149.781563 188.333281 
L 150.653437 187.993993 
L 152.397188 187.713722 
L 156.320625 186.22395 
L 158.93625 184.539373 
L 160.68 184.000453 
L 161.987813 183.756127 
L 163.295625 183.553474 
L 164.1675 183.164151 
L 165.039375 182.432418 
L 167.655 179.650744 
L 168.962813 178.48491 
L 172.450312 174.853669 
L 174.194063 173.509892 
L 175.065938 172.368704 
L 175.937813 170.636013 
L 177.245625 167.717 
L 178.1175 166.332522 
L 178.989375 165.518548 
L 179.86125 164.790695 
L 180.297188 164.252469 
L 181.169062 162.602369 
L 184.220625 155.269324 
L 185.528437 153.243802 
L 186.83625 151.186185 
L 188.58 147.889177 
L 189.015938 147.312298 
L 189.451875 146.950681 
L 189.887813 146.794467 
L 191.631563 146.790918 
L 192.0675 146.588334 
L 192.939375 145.825625 
L 194.247188 144.201514 
L 195.555 142.62746 
L 195.990938 142.37516 
L 196.426875 142.402676 
L 196.862813 142.758916 
L 197.29875 143.430066 
L 199.478438 147.960796 
L 200.350313 148.985995 
L 201.658125 150.416985 
L 202.53 151.768396 
L 204.27375 154.599481 
L 205.145625 155.56771 
L 206.0175 156.200504 
L 206.889375 156.761113 
L 207.76125 157.601107 
L 208.633125 158.809982 
L 211.684688 163.76534 
L 213.428438 166.923839 
L 214.300313 167.819366 
L 215.172188 168.204795 
L 216.044063 168.540267 
L 216.915938 169.081555 
L 219.095625 170.882487 
L 220.403438 172.23351 
L 222.147188 174.181168 
L 226.506563 178.160126 
L 228.250313 179.492535 
L 229.122188 179.947169 
L 230.43 180.565977 
L 230.865938 180.959987 
L 231.737813 182.187621 
L 233.045625 184.366384 
L 233.9175 185.291689 
L 234.789375 185.679458 
L 235.66125 185.731397 
L 236.533125 185.514693 
L 237.405 185.015342 
L 238.276875 184.468175 
L 238.712813 184.32652 
L 239.14875 184.345608 
L 239.584688 184.545594 
L 240.456563 185.375476 
L 241.328438 186.298841 
L 241.764375 186.597651 
L 242.200313 186.731352 
L 243.072188 186.591784 
L 243.944063 186.333246 
L 244.815938 186.375183 
L 251.355 188.520899 
L 252.226875 189.063565 
L 253.534688 189.970411 
L 254.406563 190.202997 
L 255.278438 190.025899 
L 256.58625 189.306492 
L 257.458125 188.847509 
L 258.33 188.700694 
L 259.201875 188.958873 
L 260.509688 189.586513 
L 261.381563 189.755251 
L 262.253438 189.690408 
L 264.433125 189.364291 
L 265.305 189.657943 
L 266.176875 190.334175 
L 267.484688 191.429955 
L 267.920625 191.623398 
L 268.356562 191.674929 
L 268.7925 191.581452 
L 269.664375 191.083296 
L 270.53625 190.569041 
L 270.972188 190.460247 
L 271.408125 190.498059 
L 272.28 190.983361 
L 273.587813 192.041015 
L 274.459688 192.446248 
L 275.331563 192.569314 
L 276.203438 192.439899 
L 277.075312 191.996642 
L 277.947188 191.486105 
L 278.383125 191.384123 
L 278.819063 191.460617 
L 279.255 191.723353 
L 280.126875 192.638609 
L 280.99875 193.608666 
L 281.870625 194.171508 
L 282.7425 194.243072 
L 285.358125 193.733991 
L 286.23 193.227547 
L 287.101875 192.692409 
L 287.537813 192.566058 
L 288.409688 192.678136 
L 289.7175 193.081921 
L 292.769063 193.367136 
L 295.820625 193.66349 
L 298.872187 194.324923 
L 299.744063 194.098291 
L 301.051875 193.207441 
L 301.92375 192.714774 
L 302.795625 192.600256 
L 305.41125 192.936454 
L 306.283125 192.905357 
L 307.155 193.079885 
L 308.462813 193.523751 
L 309.334688 193.530233 
L 310.206563 193.246546 
L 311.514375 192.533674 
L 312.822188 191.822877 
L 313.694063 191.629306 
L 314.565938 191.766567 
L 315.437813 192.231197 
L 318.053438 194.218238 
L 318.925313 194.364089 
L 321.976875 194.086898 
L 323.284688 193.603864 
L 325.028437 192.666329 
L 325.900313 192.170825 
L 326.33625 192.054119 
L 326.772188 192.092675 
L 327.644063 192.607718 
L 328.515938 193.259845 
L 329.387812 193.531941 
L 330.695625 193.544531 
L 331.5675 193.833713 
L 332.875313 194.336609 
L 334.619063 194.551434 
L 335.490938 194.960527 
L 336.362813 195.424808 
L 336.79875 195.554032 
L 337.234688 195.562105 
L 337.670625 195.434908 
L 338.5425 194.857443 
L 339.414375 194.225719 
L 339.850313 194.055186 
L 340.28625 194.035314 
L 341.158125 194.405317 
L 342.901875 195.505696 
L 344.209688 196.260647 
L 346.389375 198.190101 
L 346.825312 198.322101 
L 347.697188 198.18976 
L 349.440938 197.485237 
L 350.74875 197.306977 
L 352.056563 197.149474 
L 353.364375 196.658708 
L 354.23625 196.341296 
L 355.108125 196.274815 
L 356.851875 196.519192 
L 357.72375 196.315171 
L 358.595625 195.80155 
L 359.903437 194.893789 
L 360.775313 194.610361 
L 361.647188 194.766913 
L 362.955 195.211952 
L 363.390938 195.175305 
L 364.262812 194.703379 
L 365.134688 194.043235 
L 365.570625 193.821752 
L 366.006563 193.739403 
L 366.4425 193.809238 
L 367.314375 194.336321 
L 368.622187 195.6551 
L 369.93 196.934005 
L 370.365938 197.140998 
L 370.801875 197.153209 
L 371.237813 196.958079 
L 372.109688 196.101043 
L 372.981562 195.126518 
L 373.853438 194.557993 
L 374.725313 194.482812 
L 378.212813 194.934667 
L 379.084688 194.888537 
L 380.828438 194.648496 
L 383.008125 194.864148 
L 383.88 194.526541 
L 385.187813 193.914119 
L 389.11125 192.649746 
L 389.983125 192.854655 
L 391.726875 193.713494 
L 393.470625 194.821527 
L 393.470625 194.821527 
" style="fill:none;stroke:#777777;stroke-linecap:square;stroke-width:1.5;"/>
   </g>
   <g id="line2d_33">
    <path clip-path="url(#pc2fc6f533c)" d="M 36.001875 169.023535 
L 37.745625 168.918818 
L 40.36125 168.725774 
L 42.540938 168.557151 
L 44.284688 168.421204 
L 45.5925 168.617441 
L 47.33625 169.072617 
L 48.208125 169.070826 
L 51.695625 168.514823 
L 54.31125 168.789782 
L 56.926875 169.001564 
L 58.234688 168.867194 
L 60.414375 168.547966 
L 63.901875 168.539114 
L 66.5175 168.633155 
L 68.697188 168.476413 
L 70.005 168.680274 
L 71.74875 168.991485 
L 73.056563 168.970035 
L 76.98 168.437898 
L 78.287813 168.593658 
L 81.775313 169.244058 
L 83.519063 169.166064 
L 85.262812 168.841912 
L 87.4425 168.30807 
L 88.750313 168.223592 
L 90.93 168.220436 
L 93.545625 168.049899 
L 96.597188 168.2081 
L 98.340938 168.299451 
L 101.3925 168.150375 
L 104.444063 168.709107 
L 105.315938 168.551633 
L 106.187813 168.018202 
L 107.495625 166.915126 
L 107.931563 166.694143 
L 108.803438 166.627459 
L 112.726875 167.357186 
L 114.034688 167.487848 
L 115.778438 167.358155 
L 117.522188 167.318472 
L 120.137813 167.296053 
L 127.984688 166.891363 
L 129.2925 166.912752 
L 131.908125 166.670977 
L 135.395625 166.04387 
L 137.575312 165.916713 
L 138.883125 165.636711 
L 141.062813 165.111126 
L 144.98625 164.817378 
L 147.165938 164.859531 
L 148.47375 164.581794 
L 152.397188 163.287182 
L 155.884688 161.785495 
L 158.500313 161.016116 
L 160.68 159.941881 
L 163.295625 158.49716 
L 164.603438 157.480235 
L 166.347188 155.701288 
L 169.834688 151.800942 
L 171.1425 149.897015 
L 173.758125 145.53809 
L 175.065938 143.015253 
L 177.245625 138.146035 
L 179.425313 132.819262 
L 183.784688 121.330003 
L 185.0925 118.790745 
L 185.964375 117.461323 
L 186.83625 116.49597 
L 187.708125 115.951035 
L 188.58 115.840808 
L 189.015938 115.953966 
L 189.451875 116.187669 
L 190.32375 117.03655 
L 191.195625 118.354632 
L 192.503438 120.909081 
L 193.81125 123.942163 
L 195.555 128.713493 
L 197.29875 133.272249 
L 200.350313 140.114732 
L 202.094063 143.695987 
L 203.401875 145.913331 
L 206.0175 149.651595 
L 207.76125 152.087204 
L 209.069063 153.502393 
L 210.376875 154.51136 
L 213.428438 156.571574 
L 214.73625 157.502907 
L 216.044063 158.191959 
L 220.839375 160.24356 
L 223.019063 160.920869 
L 224.762813 161.432304 
L 228.250313 162.820005 
L 229.994063 162.972523 
L 232.17375 163.215081 
L 237.405 164.09383 
L 243.508125 165.521656 
L 248.303438 166.23716 
L 250.919063 166.506705 
L 253.534688 166.940976 
L 256.150313 167.163964 
L 258.765938 167.69724 
L 259.637812 167.635126 
L 261.381563 167.169242 
L 262.689375 166.9193 
L 263.56125 166.927504 
L 265.305 167.268632 
L 267.04875 167.502467 
L 271.408125 167.754384 
L 273.151875 167.710349 
L 274.459688 167.942222 
L 276.203438 168.364555 
L 277.51125 168.409219 
L 278.819063 168.157129 
L 280.562813 167.714119 
L 281.434687 167.691299 
L 282.7425 167.966683 
L 283.614375 168.125018 
L 284.48625 168.099206 
L 287.101875 167.769365 
L 288.409688 167.914273 
L 291.46125 168.402168 
L 292.769063 168.344172 
L 296.256563 167.916613 
L 298.000313 168.044503 
L 301.487813 168.493574 
L 304.539375 168.362385 
L 307.155 168.217445 
L 310.6425 168.61723 
L 315.001875 168.384045 
L 316.309687 168.311681 
L 318.925313 168.447301 
L 320.669062 168.207567 
L 322.412813 167.953206 
L 323.720625 167.974967 
L 328.08 168.414033 
L 330.259688 168.351429 
L 332.439375 168.288542 
L 333.747187 168.250895 
L 337.670625 168.454999 
L 339.850313 168.479916 
L 342.901875 168.705698 
L 345.953438 169.220749 
L 351.184687 169.453786 
L 353.800313 169.373228 
L 355.544062 169.119401 
L 356.851875 168.921542 
L 358.159688 168.986398 
L 360.339375 169.234825 
L 362.083125 169.061284 
L 366.878438 168.631803 
L 369.494063 168.825669 
L 373.4175 168.666047 
L 376.905 168.30389 
L 379.084688 168.299069 
L 381.700312 168.50791 
L 383.88 168.712851 
L 385.62375 168.5747 
L 387.3675 168.426708 
L 389.11125 168.537039 
L 392.162813 168.825787 
L 393.470625 168.660978 
L 393.470625 168.660978 
" style="fill:none;stroke:#fbc15e;stroke-linecap:square;stroke-width:1.5;"/>
   </g>
   <g id="line2d_34">
    <path clip-path="url(#pc2fc6f533c)" d="M 36.001875 142.003508 
L 41.669062 142.06538 
L 43.84875 142.248499 
L 47.33625 142.121663 
L 49.951875 141.984646 
L 57.79875 142.215035 
L 59.106562 142.28153 
L 65.645625 141.966505 
L 67.389375 141.835956 
L 76.98 141.968904 
L 80.903437 141.908929 
L 83.083125 142.133511 
L 85.262812 142.03531 
L 90.93 141.461303 
L 95.725313 141.353328 
L 99.212813 141.4295 
L 100.956563 141.292734 
L 103.572188 141.001902 
L 104.88 141.097244 
L 105.751875 141.326889 
L 107.931563 142.251932 
L 108.803438 142.258413 
L 114.470625 141.53857 
L 117.958125 141.364008 
L 120.137813 141.000227 
L 121.881563 140.739057 
L 133.215937 140.216284 
L 135.395625 139.946348 
L 138.447188 139.678626 
L 141.062813 139.278508 
L 145.422188 138.372207 
L 147.165938 138.174024 
L 148.47375 137.815474 
L 156.320625 134.806778 
L 158.500313 133.581462 
L 160.68 132.044242 
L 163.731562 129.503262 
L 165.039375 128.046132 
L 166.783125 125.627728 
L 168.962813 122.33813 
L 170.270625 119.870574 
L 171.578438 116.86376 
L 174.194063 110.188877 
L 175.937813 105.177818 
L 178.989375 96.12244 
L 180.297188 92.957846 
L 181.169062 91.300843 
L 182.040938 90.099571 
L 182.912813 89.429062 
L 183.34875 89.306455 
L 183.784688 89.324071 
L 184.220625 89.476195 
L 185.0925 90.161245 
L 185.964375 91.334524 
L 186.83625 92.963624 
L 188.144063 96.071955 
L 189.887813 100.933853 
L 193.375313 110.766567 
L 195.990938 117.161566 
L 197.29875 119.783635 
L 199.0425 122.645682 
L 200.78625 125.064921 
L 202.53 127.106673 
L 204.27375 128.817537 
L 206.0175 130.146852 
L 209.940938 132.793659 
L 211.24875 133.269621 
L 213.428438 133.95447 
L 217.351875 135.547744 
L 219.531563 135.990962 
L 221.275313 136.368408 
L 223.019063 136.997622 
L 224.762813 137.57053 
L 229.122188 138.298939 
L 231.301875 138.556972 
L 233.045625 138.502664 
L 235.225313 138.351109 
L 236.533125 138.556663 
L 239.14875 139.183931 
L 240.456563 139.207122 
L 242.63625 139.091147 
L 243.944063 139.347486 
L 246.12375 139.875813 
L 249.175313 140.310463 
L 252.662813 141.03467 
L 260.07375 141.258068 
L 263.125313 141.235784 
L 267.484688 141.542216 
L 269.664375 141.398576 
L 273.151875 141.606658 
L 277.075312 141.982259 
L 280.562813 141.570739 
L 283.614375 141.787953 
L 287.537813 141.610687 
L 290.589375 141.9481 
L 293.205 141.841421 
L 297.564375 141.688305 
L 302.795625 141.928513 
L 310.206563 141.684549 
L 313.694063 142.006096 
L 315.437813 141.817694 
L 317.181563 141.664151 
L 320.233125 141.821771 
L 322.84875 142.005103 
L 325.900313 141.80097 
L 328.951875 142.153815 
L 330.695625 142.011551 
L 332.875313 141.816503 
L 335.926875 141.85491 
L 340.28625 142.04577 
L 342.03 142.044627 
L 343.337813 142.292331 
L 345.081563 142.664073 
L 346.825312 142.734805 
L 349.440938 142.662442 
L 352.056563 142.495055 
L 355.544062 142.38673 
L 357.287813 142.360699 
L 360.339375 142.428144 
L 363.390938 142.266058 
L 365.570625 142.425347 
L 367.314375 142.494594 
L 370.365938 142.3136 
L 372.545625 142.228349 
L 375.16125 142.090747 
L 377.776875 142.128423 
L 380.3925 142.183878 
L 384.315938 142.148636 
L 386.931563 142.027761 
L 388.675313 141.881645 
L 390.419062 141.965722 
L 393.470625 142.182827 
L 393.470625 142.182827 
" style="fill:none;stroke:#8eba42;stroke-linecap:square;stroke-width:1.5;"/>
   </g>
   <g id="line2d_35">
    <path clip-path="url(#pc2fc6f533c)" d="M 36.001875 116.243583 
L 36.87375 115.941711 
L 37.745625 115.600539 
L 38.6175 115.530493 
L 39.925313 115.845227 
L 41.233125 116.066168 
L 42.976875 116.030727 
L 44.720625 116.065911 
L 45.5925 116.053884 
L 46.464375 115.77157 
L 47.33625 115.165289 
L 48.208125 114.498445 
L 48.644063 114.283105 
L 49.08 114.209584 
L 49.515938 114.291481 
L 50.387812 114.80519 
L 51.259688 115.408623 
L 52.131563 115.751869 
L 53.003438 115.782618 
L 55.183125 115.564973 
L 57.362813 115.745463 
L 59.978438 115.568535 
L 61.28625 115.256788 
L 63.465937 114.577747 
L 64.337813 114.626946 
L 65.645625 115.182828 
L 66.5175 115.495956 
L 67.389375 115.549242 
L 68.697188 115.235244 
L 69.569063 115.047284 
L 70.440938 115.092137 
L 73.4925 115.783446 
L 74.364375 115.62332 
L 76.544062 114.884378 
L 77.415938 114.950425 
L 80.4675 115.718979 
L 82.21125 116.056375 
L 83.519063 116.299546 
L 84.826875 116.646675 
L 85.262812 116.602165 
L 85.69875 116.391908 
L 86.570625 115.49113 
L 87.4425 114.415235 
L 87.878438 114.058196 
L 88.314375 113.915469 
L 88.750313 113.997186 
L 89.622188 114.633087 
L 90.494063 115.350055 
L 91.365938 115.699933 
L 92.237813 115.724093 
L 93.981563 115.505426 
L 95.725313 114.968488 
L 97.905 114.246919 
L 99.212813 113.431611 
L 100.084688 112.922064 
L 100.956563 112.753289 
L 101.3925 112.8502 
L 101.828438 113.075216 
L 102.700313 113.89767 
L 103.572188 115.195196 
L 104.88 117.543959 
L 105.315938 118.007685 
L 105.751875 118.012443 
L 106.187813 117.417829 
L 106.62375 116.212941 
L 108.3675 109.97749 
L 108.803438 109.372093 
L 109.239375 109.254424 
L 109.675313 109.45192 
L 110.983125 110.301829 
L 112.290938 110.615573 
L 114.470625 111.017808 
L 115.3425 110.793403 
L 116.650313 109.997788 
L 118.394063 108.878859 
L 119.265938 108.575373 
L 120.137813 108.628523 
L 121.881563 109.097537 
L 122.753438 108.939916 
L 123.625313 108.673824 
L 124.497188 108.696587 
L 126.240938 109.341671 
L 126.676875 109.311062 
L 127.54875 108.916141 
L 128.420625 108.44173 
L 129.2925 108.258648 
L 130.164375 108.366766 
L 131.908125 108.699298 
L 132.78 108.553332 
L 133.651875 108.096451 
L 135.395625 107.006772 
L 136.2675 106.67365 
L 137.139375 106.506848 
L 142.370625 106.07098 
L 143.2425 105.795916 
L 145.422188 104.590361 
L 149.781563 103.580924 
L 150.653437 103.173917 
L 151.525313 102.504728 
L 152.833125 101.054425 
L 154.140938 99.705278 
L 155.44875 98.686338 
L 156.320625 98.229799 
L 157.628438 97.9766 
L 158.500313 97.683977 
L 159.372187 97.067354 
L 162.42375 94.449695 
L 163.731562 93.688985 
L 164.603438 93.169683 
L 165.475313 92.385213 
L 166.783125 90.715331 
L 169.834688 86.55845 
L 173.322188 82.69703 
L 174.63 80.685685 
L 177.681563 75.463619 
L 180.733125 70.988315 
L 182.476875 69.099534 
L 183.784688 67.945773 
L 185.0925 67.156907 
L 186.83625 66.206558 
L 190.32375 63.784531 
L 193.375313 62.772103 
L 193.81125 62.772939 
L 194.247188 62.933028 
L 194.683125 63.270399 
L 195.555 64.352711 
L 196.862813 66.067623 
L 197.734688 66.858471 
L 198.606563 67.324285 
L 199.478438 67.459727 
L 200.78625 67.470542 
L 201.222188 67.602534 
L 201.658125 67.86174 
L 202.53 68.772781 
L 204.27375 71.018217 
L 205.145625 71.738292 
L 206.453438 72.73679 
L 207.325313 73.738797 
L 209.069063 75.926185 
L 209.940938 76.502768 
L 210.812813 76.588022 
L 212.120625 76.416122 
L 212.556563 76.521381 
L 212.9925 76.771789 
L 213.864375 77.647195 
L 216.044063 80.206433 
L 217.351875 81.602548 
L 218.659688 83.449324 
L 219.9675 85.257875 
L 221.71125 87.360601 
L 223.019063 89.513012 
L 223.890938 90.969692 
L 224.762813 91.970473 
L 225.634688 92.453369 
L 226.9425 92.967582 
L 228.68625 93.978217 
L 229.994063 94.971485 
L 232.17375 97.028351 
L 233.9175 98.210008 
L 234.789375 98.674265 
L 235.66125 98.928406 
L 236.969063 99.18907 
L 237.840938 99.697558 
L 239.14875 101.015524 
L 240.020625 101.787514 
L 240.8925 102.154999 
L 243.072188 102.532636 
L 249.61125 105.310243 
L 252.226875 106.656173 
L 253.534688 107.054748 
L 255.278438 107.573307 
L 257.022188 108.237884 
L 257.894063 108.216922 
L 259.201875 108.002327 
L 260.07375 108.109829 
L 262.689375 108.839417 
L 264.869063 109.08311 
L 265.740938 109.566333 
L 267.484688 110.820484 
L 267.920625 110.947438 
L 268.356562 110.936295 
L 269.228438 110.53356 
L 270.100313 109.944771 
L 270.53625 109.753972 
L 270.972188 109.706294 
L 271.408125 109.818559 
L 272.28 110.409117 
L 273.151875 111.04999 
L 273.587813 111.19775 
L 274.02375 111.15283 
L 274.459688 110.898732 
L 275.331563 109.931659 
L 276.203438 108.998778 
L 276.639375 108.805877 
L 277.075312 108.871003 
L 277.51125 109.182756 
L 279.690938 111.576571 
L 280.562813 111.803965 
L 281.434687 111.889905 
L 282.306563 112.277727 
L 283.614375 113.448515 
L 284.48625 114.104751 
L 285.358125 114.345943 
L 286.23 114.192355 
L 287.101875 113.747941 
L 288.845625 112.693779 
L 290.153437 112.304599 
L 291.46125 111.995191 
L 292.333125 112.02299 
L 293.640938 112.497178 
L 294.512812 112.77063 
L 295.820625 112.925076 
L 300.615938 113.14237 
L 302.795625 112.819442 
L 304.103438 112.830069 
L 306.283125 112.460998 
L 307.155 112.661129 
L 308.026875 113.146814 
L 308.89875 113.899318 
L 310.206563 115.141316 
L 310.6425 115.386621 
L 311.078438 115.480407 
L 311.514375 115.422153 
L 312.38625 114.967855 
L 315.001875 113.213396 
L 315.87375 112.830802 
L 316.745625 112.727378 
L 317.6175 112.976942 
L 319.797188 113.926362 
L 321.540938 114.471565 
L 322.412813 114.534739 
L 325.464375 114.237974 
L 332.003438 114.863042 
L 335.490938 115.653321 
L 336.362813 115.513208 
L 337.234688 115.039995 
L 338.5425 114.070171 
L 339.414375 113.772584 
L 340.28625 113.959664 
L 343.337813 115.391837 
L 344.645625 115.974982 
L 345.953438 116.842307 
L 347.697188 118.000337 
L 348.569063 118.177226 
L 349.440938 117.881772 
L 351.184687 116.778509 
L 352.056563 116.572688 
L 352.928438 116.670914 
L 354.23625 116.852765 
L 355.108125 116.668914 
L 355.98 116.172002 
L 358.159688 114.429824 
L 358.595625 114.308782 
L 359.031563 114.327142 
L 359.903437 114.696647 
L 361.647188 115.723777 
L 362.519063 115.985606 
L 363.390938 115.978231 
L 365.570625 115.63271 
L 367.750313 115.766815 
L 369.93 115.293835 
L 370.801875 115.468018 
L 372.981562 116.422719 
L 373.4175 116.372437 
L 374.289375 115.929736 
L 375.16125 115.377486 
L 376.033125 115.094365 
L 376.905 115.108271 
L 378.212813 115.202326 
L 379.084688 115.073064 
L 380.828438 114.695325 
L 381.700312 114.725453 
L 383.008125 115.067247 
L 384.751875 115.585491 
L 385.62375 115.544232 
L 386.495625 115.215257 
L 387.803438 114.627612 
L 388.675313 114.492073 
L 391.290938 114.466367 
L 393.470625 113.689376 
L 393.470625 113.689376 
" style="fill:none;stroke:#ffb5b8;stroke-linecap:square;stroke-width:1.5;"/>
   </g>
   <g id="line2d_36">
    <path clip-path="url(#pc2fc6f533c)" d="M 36.001875 88.669292 
L 38.181563 88.485311 
L 39.925313 88.429843 
L 41.233125 88.631003 
L 42.976875 88.951805 
L 43.84875 88.945063 
L 45.156563 88.651051 
L 46.464375 88.38374 
L 47.772188 88.452117 
L 49.08 88.453005 
L 52.131563 88.044561 
L 55.619063 87.811077 
L 56.926875 87.806325 
L 59.978438 88.193848 
L 63.03 88.912874 
L 63.901875 88.813197 
L 65.645625 88.391985 
L 66.5175 88.435598 
L 68.26125 88.837257 
L 69.133125 88.721808 
L 70.440938 88.357521 
L 71.312813 88.386734 
L 73.4925 88.898733 
L 74.364375 88.833837 
L 76.98 88.38261 
L 78.287813 88.421274 
L 80.4675 88.608682 
L 84.390938 88.309174 
L 85.69875 88.035547 
L 88.750313 87.243123 
L 90.494063 87.058679 
L 92.237813 87.152175 
L 94.853438 87.374479 
L 96.16125 87.308909 
L 100.520625 86.692631 
L 103.13625 86.428954 
L 106.187813 86.756972 
L 107.059688 87.142951 
L 107.931563 87.582116 
L 108.803438 87.754093 
L 109.675313 87.618491 
L 111.855 87.093616 
L 114.034688 86.659462 
L 115.778438 86.228359 
L 117.08625 86.172553 
L 123.189375 86.314175 
L 124.06125 86.037007 
L 125.369063 85.326205 
L 126.676875 84.657685 
L 127.54875 84.473302 
L 128.856562 84.52479 
L 130.164375 84.529762 
L 131.472188 84.271102 
L 134.52375 83.384984 
L 136.2675 83.29134 
L 138.447188 83.504104 
L 139.755 83.494112 
L 141.062813 83.17788 
L 144.114375 81.972935 
L 149.781563 79.208524 
L 151.089375 79.008539 
L 152.397188 78.875661 
L 153.269063 78.598009 
L 154.140938 78.114706 
L 155.44875 77.045509 
L 160.68 72.194417 
L 161.987813 71.285157 
L 162.859688 70.444883 
L 164.1675 68.794069 
L 166.783125 65.146688 
L 168.090937 62.909719 
L 170.706563 57.841874 
L 174.194063 50.835696 
L 177.681563 43.470977 
L 179.425313 40.327578 
L 180.733125 38.512963 
L 181.605 37.61846 
L 182.476875 36.980314 
L 183.34875 36.580317 
L 184.656563 36.277686 
L 185.528437 36.242915 
L 186.400313 36.461767 
L 187.272188 37.013827 
L 188.58 38.216865 
L 189.887813 39.690346 
L 190.759688 41.039622 
L 192.0675 43.628432 
L 193.375313 46.287822 
L 194.247188 47.689586 
L 195.990938 49.993856 
L 196.862813 51.71401 
L 199.914375 58.733648 
L 201.222188 60.851145 
L 206.453438 68.25625 
L 208.197188 70.129442 
L 209.940938 71.791845 
L 210.812813 72.36396 
L 213.864375 73.985007 
L 216.044063 75.358061 
L 217.351875 75.794683 
L 219.095625 76.237098 
L 220.403438 76.913838 
L 226.506563 80.576144 
L 228.68625 81.463847 
L 229.558125 81.674689 
L 230.43 81.708629 
L 233.045625 81.585998 
L 233.9175 81.774471 
L 234.789375 82.144546 
L 237.405 83.591656 
L 238.712813 83.876655 
L 240.456563 84.084944 
L 243.072188 84.694594 
L 244.815938 84.870863 
L 247.431563 85.471531 
L 248.739375 85.649346 
L 251.355 86.367191 
L 253.534688 86.315848 
L 254.8425 86.421613 
L 255.714375 86.303374 
L 257.458125 85.950745 
L 258.33 86.066003 
L 261.381563 87.029444 
L 266.176875 87.192648 
L 268.7925 87.316597 
L 270.100313 87.453315 
L 271.844063 87.682015 
L 273.151875 87.516845 
L 274.895625 87.31936 
L 276.203438 87.408775 
L 277.51125 87.769171 
L 278.383125 87.981157 
L 279.255 87.950589 
L 280.562813 87.761102 
L 281.434687 87.914958 
L 283.614375 88.648708 
L 284.922188 88.69587 
L 286.665938 88.419406 
L 287.97375 88.271385 
L 289.281563 88.416174 
L 291.025313 88.654182 
L 291.897188 88.575881 
L 293.205 88.1686 
L 294.512812 87.814279 
L 295.384688 87.833511 
L 298.872187 88.45165 
L 301.051875 88.223543 
L 302.795625 88.138146 
L 306.283125 88.286143 
L 309.334688 88.10385 
L 310.206563 88.210877 
L 312.38625 88.733691 
L 313.694063 88.586624 
L 314.565938 88.500238 
L 315.87375 88.678055 
L 318.053438 89.046769 
L 320.233125 89.147084 
L 321.540938 89.140679 
L 322.84875 88.871342 
L 324.5925 88.41473 
L 326.772188 88.148971 
L 328.951875 88.098392 
L 330.695625 88.256976 
L 333.747187 88.778236 
L 335.490938 89.260688 
L 336.79875 89.634146 
L 337.670625 89.666079 
L 338.5425 89.431583 
L 340.722188 88.406816 
L 341.594063 88.405546 
L 342.465937 88.832514 
L 344.645625 90.507232 
L 345.5175 90.794488 
L 346.389375 90.760947 
L 349.440938 90.149341 
L 351.620625 90.235009 
L 352.928438 90.276104 
L 353.800313 90.107457 
L 355.544062 89.595191 
L 356.415938 89.545033 
L 359.903437 89.73167 
L 364.69875 89.234881 
L 367.750313 88.310424 
L 369.058125 88.366416 
L 370.365938 88.741714 
L 371.67375 89.106546 
L 372.545625 89.075946 
L 374.725313 88.752787 
L 377.340937 88.796466 
L 379.084688 88.622791 
L 382.13625 88.829581 
L 384.315938 88.49537 
L 385.62375 88.622682 
L 386.931563 88.843543 
L 388.239375 88.80078 
L 390.419062 88.679909 
L 393.470625 88.606384 
L 393.470625 88.606384 
" style="fill:none;stroke:#e24a33;stroke-linecap:square;stroke-width:1.5;"/>
   </g>
   <g id="patch_3">
    <path d="M 36.17625 290.25375 
L 36.17625 24.14175 
" style="fill:none;stroke:#ffffff;stroke-linecap:square;stroke-linejoin:miter;"/>
   </g>
   <g id="patch_4">
    <path d="M 393.29625 290.25375 
L 393.29625 24.14175 
" style="fill:none;stroke:#ffffff;stroke-linecap:square;stroke-linejoin:miter;"/>
   </g>
   <g id="patch_5">
    <path d="M 36.17625 290.25375 
L 393.29625 290.25375 
" style="fill:none;stroke:#ffffff;stroke-linecap:square;stroke-linejoin:miter;"/>
   </g>
   <g id="patch_6">
    <path d="M 36.17625 24.14175 
L 393.29625 24.14175 
" style="fill:none;stroke:#ffffff;stroke-linecap:square;stroke-linejoin:miter;"/>
   </g>
   <g id="text_17">
    <!-- CRN Spektrum -->
    <defs>
     <path d="M 64.40625 67.28125 
L 64.40625 56.890625 
Q 59.421875 61.53125 53.78125 63.8125 
Q 48.140625 66.109375 41.796875 66.109375 
Q 29.296875 66.109375 22.65625 58.46875 
Q 16.015625 50.828125 16.015625 36.375 
Q 16.015625 21.96875 22.65625 14.328125 
Q 29.296875 6.6875 41.796875 6.6875 
Q 48.140625 6.6875 53.78125 8.984375 
Q 59.421875 11.28125 64.40625 15.921875 
L 64.40625 5.609375 
Q 59.234375 2.09375 53.4375 0.328125 
Q 47.65625 -1.421875 41.21875 -1.421875 
Q 24.65625 -1.421875 15.125 8.703125 
Q 5.609375 18.84375 5.609375 36.375 
Q 5.609375 53.953125 15.125 64.078125 
Q 24.65625 74.21875 41.21875 74.21875 
Q 47.75 74.21875 53.53125 72.484375 
Q 59.328125 70.75 64.40625 67.28125 
" id="DejaVuSans-43"/>
     <path d="M 44.390625 34.1875 
Q 47.5625 33.109375 50.5625 29.59375 
Q 53.5625 26.078125 56.59375 19.921875 
L 66.609375 0 
L 56 0 
L 46.6875 18.703125 
Q 43.0625 26.03125 39.671875 28.421875 
Q 36.28125 30.8125 30.421875 30.8125 
L 19.671875 30.8125 
L 19.671875 0 
L 9.8125 0 
L 9.8125 72.90625 
L 32.078125 72.90625 
Q 44.578125 72.90625 50.734375 67.671875 
Q 56.890625 62.453125 56.890625 51.90625 
Q 56.890625 45.015625 53.6875 40.46875 
Q 50.484375 35.9375 44.390625 34.1875 
M 19.671875 64.796875 
L 19.671875 38.921875 
L 32.078125 38.921875 
Q 39.203125 38.921875 42.84375 42.21875 
Q 46.484375 45.515625 46.484375 51.90625 
Q 46.484375 58.296875 42.84375 61.546875 
Q 39.203125 64.796875 32.078125 64.796875 
z
" id="DejaVuSans-52"/>
     <path d="M 9.8125 72.90625 
L 23.09375 72.90625 
L 55.421875 11.921875 
L 55.421875 72.90625 
L 64.984375 72.90625 
L 64.984375 0 
L 51.703125 0 
L 19.390625 60.984375 
L 19.390625 0 
L 9.8125 0 
z
" id="DejaVuSans-4e"/>
     <path d="M 53.515625 70.515625 
L 53.515625 60.890625 
Q 47.90625 63.578125 42.921875 64.890625 
Q 37.9375 66.21875 33.296875 66.21875 
Q 25.25 66.21875 20.875 63.09375 
Q 16.5 59.96875 16.5 54.203125 
Q 16.5 49.359375 19.40625 46.890625 
Q 22.3125 44.4375 30.421875 42.921875 
L 36.375 41.703125 
Q 47.40625 39.59375 52.65625 34.296875 
Q 57.90625 29 57.90625 20.125 
Q 57.90625 9.515625 50.796875 4.046875 
Q 43.703125 -1.421875 29.984375 -1.421875 
Q 24.8125 -1.421875 18.96875 -0.25 
Q 13.140625 0.921875 6.890625 3.21875 
L 6.890625 13.375 
Q 12.890625 10.015625 18.65625 8.296875 
Q 24.421875 6.59375 29.984375 6.59375 
Q 38.421875 6.59375 43.015625 9.90625 
Q 47.609375 13.234375 47.609375 19.390625 
Q 47.609375 24.75 44.3125 27.78125 
Q 41.015625 30.8125 33.5 32.328125 
L 27.484375 33.5 
Q 16.453125 35.6875 11.515625 40.375 
Q 6.59375 45.0625 6.59375 53.421875 
Q 6.59375 63.09375 13.40625 68.65625 
Q 20.21875 74.21875 32.171875 74.21875 
Q 37.3125 74.21875 42.625 73.28125 
Q 47.953125 72.359375 53.515625 70.515625 
" id="DejaVuSans-53"/>
     <path d="M 18.109375 8.203125 
L 18.109375 -20.796875 
L 9.078125 -20.796875 
L 9.078125 54.6875 
L 18.109375 54.6875 
L 18.109375 46.390625 
Q 20.953125 51.265625 25.265625 53.625 
Q 29.59375 56 35.59375 56 
Q 45.5625 56 51.78125 48.09375 
Q 58.015625 40.1875 58.015625 27.296875 
Q 58.015625 14.40625 51.78125 6.484375 
Q 45.5625 -1.421875 35.59375 -1.421875 
Q 29.59375 -1.421875 25.265625 0.953125 
Q 20.953125 3.328125 18.109375 8.203125 
M 48.6875 27.296875 
Q 48.6875 37.203125 44.609375 42.84375 
Q 40.53125 48.484375 33.40625 48.484375 
Q 26.265625 48.484375 22.1875 42.84375 
Q 18.109375 37.203125 18.109375 27.296875 
Q 18.109375 17.390625 22.1875 11.75 
Q 26.265625 6.109375 33.40625 6.109375 
Q 40.53125 6.109375 44.609375 11.75 
Q 48.6875 17.390625 48.6875 27.296875 
" id="DejaVuSans-70"/>
     <path d="M 18.3125 70.21875 
L 18.3125 54.6875 
L 36.8125 54.6875 
L 36.8125 47.703125 
L 18.3125 47.703125 
L 18.3125 18.015625 
Q 18.3125 11.328125 20.140625 9.421875 
Q 21.96875 7.515625 27.59375 7.515625 
L 36.8125 7.515625 
L 36.8125 0 
L 27.59375 0 
Q 17.1875 0 13.234375 3.875 
Q 9.28125 7.765625 9.28125 18.015625 
L 9.28125 47.703125 
L 2.6875 47.703125 
L 2.6875 54.6875 
L 9.28125 54.6875 
L 9.28125 70.21875 
z
" id="DejaVuSans-74"/>
     <path d="M 52 44.1875 
Q 55.375 50.25 60.0625 53.125 
Q 64.75 56 71.09375 56 
Q 79.640625 56 84.28125 50.015625 
Q 88.921875 44.046875 88.921875 33.015625 
L 88.921875 0 
L 79.890625 0 
L 79.890625 32.71875 
Q 79.890625 40.578125 77.09375 44.375 
Q 74.3125 48.1875 68.609375 48.1875 
Q 61.625 48.1875 57.5625 43.546875 
Q 53.515625 38.921875 53.515625 30.90625 
L 53.515625 0 
L 44.484375 0 
L 44.484375 32.71875 
Q 44.484375 40.625 41.703125 44.40625 
Q 38.921875 48.1875 33.109375 48.1875 
Q 26.21875 48.1875 22.15625 43.53125 
Q 18.109375 38.875 18.109375 30.90625 
L 18.109375 0 
L 9.078125 0 
L 9.078125 54.6875 
L 18.109375 54.6875 
L 18.109375 46.1875 
Q 21.1875 51.21875 25.484375 53.609375 
Q 29.78125 56 35.6875 56 
Q 41.65625 56 45.828125 52.96875 
Q 50 49.953125 52 44.1875 
" id="DejaVuSans-6d"/>
    </defs>
    <g transform="translate(161.931 18.14175)scale(0.144 -0.144)">
     <use xlink:href="#DejaVuSans-43"/>
     <use x="69.824219" xlink:href="#DejaVuSans-52"/>
     <use x="139.306641" xlink:href="#DejaVuSans-4e"/>
     <use x="214.111328" xlink:href="#DejaVuSans-20"/>
     <use x="245.898438" xlink:href="#DejaVuSans-53"/>
     <use x="309.375" xlink:href="#DejaVuSans-70"/>
     <use x="372.851562" xlink:href="#DejaVuSans-65"/>
     <use x="434.375" xlink:href="#DejaVuSans-6b"/>
     <use x="492.285156" xlink:href="#DejaVuSans-74"/>
     <use x="531.494141" xlink:href="#DejaVuSans-72"/>
     <use x="572.607422" xlink:href="#DejaVuSans-75"/>
     <use x="635.986328" xlink:href="#DejaVuSans-6d"/>
    </g>
   </g>
   <g id="legend_1">
    <g id="patch_7">
     <path d="M 325.472813 149.56675 
L 386.29625 149.56675 
Q 388.29625 149.56675 388.29625 147.56675 
L 388.29625 31.14175 
Q 388.29625 29.14175 386.29625 29.14175 
L 325.472813 29.14175 
Q 323.472813 29.14175 323.472813 31.14175 
L 323.472813 147.56675 
Q 323.472813 149.56675 325.472813 149.56675 
z
" style="fill:#e5e5e5;opacity:0.8;stroke:#cccccc;stroke-linejoin:miter;stroke-width:0.5;"/>
    </g>
    <g id="line2d_37">
     <path d="M 327.472813 37.240187 
L 347.472813 37.240187 
" style="fill:none;stroke:#e24a33;stroke-linecap:square;stroke-width:1.5;"/>
    </g>
    <g id="line2d_38"/>
    <g id="text_18">
     <!-- 440 K -->
     <defs>
      <path d="M 9.8125 72.90625 
L 19.671875 72.90625 
L 19.671875 42.09375 
L 52.390625 72.90625 
L 65.09375 72.90625 
L 28.90625 38.921875 
L 67.671875 0 
L 54.6875 0 
L 19.671875 35.109375 
L 19.671875 0 
L 9.8125 0 
z
" id="DejaVuSans-4b"/>
     </defs>
     <g transform="translate(355.472813 40.740187)scale(0.1 -0.1)">
      <use xlink:href="#DejaVuSans-34"/>
      <use x="63.623047" xlink:href="#DejaVuSans-34"/>
      <use x="127.246094" xlink:href="#DejaVuSans-30"/>
      <use x="190.869141" xlink:href="#DejaVuSans-20"/>
      <use x="222.65625" xlink:href="#DejaVuSans-4b"/>
     </g>
    </g>
    <g id="line2d_39">
     <path d="M 327.472813 51.918312 
L 347.472813 51.918312 
" style="fill:none;stroke:#348abd;stroke-linecap:square;stroke-width:1.5;"/>
    </g>
    <g id="line2d_40"/>
    <g id="text_19">
     <!-- 435 K -->
     <g transform="translate(355.472813 55.418312)scale(0.1 -0.1)">
      <use xlink:href="#DejaVuSans-34"/>
      <use x="63.623047" xlink:href="#DejaVuSans-33"/>
      <use x="127.246094" xlink:href="#DejaVuSans-35"/>
      <use x="190.869141" xlink:href="#DejaVuSans-20"/>
      <use x="222.65625" xlink:href="#DejaVuSans-4b"/>
     </g>
    </g>
    <g id="line2d_41">
     <path d="M 327.472813 66.596437 
L 347.472813 66.596437 
" style="fill:none;stroke:#988ed5;stroke-linecap:square;stroke-width:1.5;"/>
    </g>
    <g id="line2d_42"/>
    <g id="text_20">
     <!-- 420 K -->
     <g transform="translate(355.472813 70.096437)scale(0.1 -0.1)">
      <use xlink:href="#DejaVuSans-34"/>
      <use x="63.623047" xlink:href="#DejaVuSans-32"/>
      <use x="127.246094" xlink:href="#DejaVuSans-30"/>
      <use x="190.869141" xlink:href="#DejaVuSans-20"/>
      <use x="222.65625" xlink:href="#DejaVuSans-4b"/>
     </g>
    </g>
    <g id="line2d_43">
     <path d="M 327.472813 81.274562 
L 347.472813 81.274562 
" style="fill:none;stroke:#777777;stroke-linecap:square;stroke-width:1.5;"/>
    </g>
    <g id="line2d_44"/>
    <g id="text_21">
     <!-- 395 K -->
     <defs>
      <path d="M 10.984375 1.515625 
L 10.984375 10.5 
Q 14.703125 8.734375 18.5 7.8125 
Q 22.3125 6.890625 25.984375 6.890625 
Q 35.75 6.890625 40.890625 13.453125 
Q 46.046875 20.015625 46.78125 33.40625 
Q 43.953125 29.203125 39.59375 26.953125 
Q 35.25 24.703125 29.984375 24.703125 
Q 19.046875 24.703125 12.671875 31.3125 
Q 6.296875 37.9375 6.296875 49.421875 
Q 6.296875 60.640625 12.9375 67.421875 
Q 19.578125 74.21875 30.609375 74.21875 
Q 43.265625 74.21875 49.921875 64.515625 
Q 56.59375 54.828125 56.59375 36.375 
Q 56.59375 19.140625 48.40625 8.859375 
Q 40.234375 -1.421875 26.421875 -1.421875 
Q 22.703125 -1.421875 18.890625 -0.6875 
Q 15.09375 0.046875 10.984375 1.515625 
M 30.609375 32.421875 
Q 37.25 32.421875 41.125 36.953125 
Q 45.015625 41.5 45.015625 49.421875 
Q 45.015625 57.28125 41.125 61.84375 
Q 37.25 66.40625 30.609375 66.40625 
Q 23.96875 66.40625 20.09375 61.84375 
Q 16.21875 57.28125 16.21875 49.421875 
Q 16.21875 41.5 20.09375 36.953125 
Q 23.96875 32.421875 30.609375 32.421875 
" id="DejaVuSans-39"/>
     </defs>
     <g transform="translate(355.472813 84.774562)scale(0.1 -0.1)">
      <use xlink:href="#DejaVuSans-33"/>
      <use x="63.623047" xlink:href="#DejaVuSans-39"/>
      <use x="127.246094" xlink:href="#DejaVuSans-35"/>
      <use x="190.869141" xlink:href="#DejaVuSans-20"/>
      <use x="222.65625" xlink:href="#DejaVuSans-4b"/>
     </g>
    </g>
    <g id="line2d_45">
     <path d="M 327.472813 95.952687 
L 347.472813 95.952687 
" style="fill:none;stroke:#fbc15e;stroke-linecap:square;stroke-width:1.5;"/>
    </g>
    <g id="line2d_46"/>
    <g id="text_22">
     <!-- 385 K -->
     <defs>
      <path d="M 31.78125 34.625 
Q 24.75 34.625 20.71875 30.859375 
Q 16.703125 27.09375 16.703125 20.515625 
Q 16.703125 13.921875 20.71875 10.15625 
Q 24.75 6.390625 31.78125 6.390625 
Q 38.8125 6.390625 42.859375 10.171875 
Q 46.921875 13.96875 46.921875 20.515625 
Q 46.921875 27.09375 42.890625 30.859375 
Q 38.875 34.625 31.78125 34.625 
M 21.921875 38.8125 
Q 15.578125 40.375 12.03125 44.71875 
Q 8.5 49.078125 8.5 55.328125 
Q 8.5 64.0625 14.71875 69.140625 
Q 20.953125 74.21875 31.78125 74.21875 
Q 42.671875 74.21875 48.875 69.140625 
Q 55.078125 64.0625 55.078125 55.328125 
Q 55.078125 49.078125 51.53125 44.71875 
Q 48 40.375 41.703125 38.8125 
Q 48.828125 37.15625 52.796875 32.3125 
Q 56.78125 27.484375 56.78125 20.515625 
Q 56.78125 9.90625 50.3125 4.234375 
Q 43.84375 -1.421875 31.78125 -1.421875 
Q 19.734375 -1.421875 13.25 4.234375 
Q 6.78125 9.90625 6.78125 20.515625 
Q 6.78125 27.484375 10.78125 32.3125 
Q 14.796875 37.15625 21.921875 38.8125 
M 18.3125 54.390625 
Q 18.3125 48.734375 21.84375 45.5625 
Q 25.390625 42.390625 31.78125 42.390625 
Q 38.140625 42.390625 41.71875 45.5625 
Q 45.3125 48.734375 45.3125 54.390625 
Q 45.3125 60.0625 41.71875 63.234375 
Q 38.140625 66.40625 31.78125 66.40625 
Q 25.390625 66.40625 21.84375 63.234375 
Q 18.3125 60.0625 18.3125 54.390625 
" id="DejaVuSans-38"/>
     </defs>
     <g transform="translate(355.472813 99.452687)scale(0.1 -0.1)">
      <use xlink:href="#DejaVuSans-33"/>
      <use x="63.623047" xlink:href="#DejaVuSans-38"/>
      <use x="127.246094" xlink:href="#DejaVuSans-35"/>
      <use x="190.869141" xlink:href="#DejaVuSans-20"/>
      <use x="222.65625" xlink:href="#DejaVuSans-4b"/>
     </g>
    </g>
    <g id="line2d_47">
     <path d="M 327.472813 110.630812 
L 347.472813 110.630812 
" style="fill:none;stroke:#8eba42;stroke-linecap:square;stroke-width:1.5;"/>
    </g>
    <g id="line2d_48"/>
    <g id="text_23">
     <!-- 370 K -->
     <g transform="translate(355.472813 114.130812)scale(0.1 -0.1)">
      <use xlink:href="#DejaVuSans-33"/>
      <use x="63.623047" xlink:href="#DejaVuSans-37"/>
      <use x="127.246094" xlink:href="#DejaVuSans-30"/>
      <use x="190.869141" xlink:href="#DejaVuSans-20"/>
      <use x="222.65625" xlink:href="#DejaVuSans-4b"/>
     </g>
    </g>
    <g id="line2d_49">
     <path d="M 327.472813 125.308937 
L 347.472813 125.308937 
" style="fill:none;stroke:#ffb5b8;stroke-linecap:square;stroke-width:1.5;"/>
    </g>
    <g id="line2d_50"/>
    <g id="text_24">
     <!-- 365 K -->
     <defs>
      <path d="M 33.015625 40.375 
Q 26.375 40.375 22.484375 35.828125 
Q 18.609375 31.296875 18.609375 23.390625 
Q 18.609375 15.53125 22.484375 10.953125 
Q 26.375 6.390625 33.015625 6.390625 
Q 39.65625 6.390625 43.53125 10.953125 
Q 47.40625 15.53125 47.40625 23.390625 
Q 47.40625 31.296875 43.53125 35.828125 
Q 39.65625 40.375 33.015625 40.375 
M 52.59375 71.296875 
L 52.59375 62.3125 
Q 48.875 64.0625 45.09375 64.984375 
Q 41.3125 65.921875 37.59375 65.921875 
Q 27.828125 65.921875 22.671875 59.328125 
Q 17.53125 52.734375 16.796875 39.40625 
Q 19.671875 43.65625 24.015625 45.921875 
Q 28.375 48.1875 33.59375 48.1875 
Q 44.578125 48.1875 50.953125 41.515625 
Q 57.328125 34.859375 57.328125 23.390625 
Q 57.328125 12.15625 50.6875 5.359375 
Q 44.046875 -1.421875 33.015625 -1.421875 
Q 20.359375 -1.421875 13.671875 8.265625 
Q 6.984375 17.96875 6.984375 36.375 
Q 6.984375 53.65625 15.1875 63.9375 
Q 23.390625 74.21875 37.203125 74.21875 
Q 40.921875 74.21875 44.703125 73.484375 
Q 48.484375 72.75 52.59375 71.296875 
" id="DejaVuSans-36"/>
     </defs>
     <g transform="translate(355.472813 128.808937)scale(0.1 -0.1)">
      <use xlink:href="#DejaVuSans-33"/>
      <use x="63.623047" xlink:href="#DejaVuSans-36"/>
      <use x="127.246094" xlink:href="#DejaVuSans-35"/>
      <use x="190.869141" xlink:href="#DejaVuSans-20"/>
      <use x="222.65625" xlink:href="#DejaVuSans-4b"/>
     </g>
    </g>
    <g id="line2d_51">
     <path d="M 327.472813 139.987062 
L 347.472813 139.987062 
" style="fill:none;stroke:#e24a33;stroke-linecap:square;stroke-width:1.5;"/>
    </g>
    <g id="line2d_52"/>
    <g id="text_25">
     <!-- 360 K -->
     <g transform="translate(355.472813 143.487062)scale(0.1 -0.1)">
      <use xlink:href="#DejaVuSans-33"/>
      <use x="63.623047" xlink:href="#DejaVuSans-36"/>
      <use x="127.246094" xlink:href="#DejaVuSans-30"/>
      <use x="190.869141" xlink:href="#DejaVuSans-20"/>
      <use x="222.65625" xlink:href="#DejaVuSans-4b"/>
     </g>
    </g>
   </g>
  </g>
 </g>
 <defs>
  <clipPath id="pc2fc6f533c">
   <rect height="266.112" width="357.12" x="36.17625" y="24.14175"/>
  </clipPath>
 </defs>
</svg>
