<?xml version="1.0" encoding="utf-8" standalone="no"?>
<!DOCTYPE svg PUBLIC "-//W3C//DTD SVG 1.1//EN"
  "http://www.w3.org/Graphics/SVG/1.1/DTD/svg11.dtd">
<!-- Created with matplotlib (http://matplotlib.org/) -->
<svg height="329pt" version="1.1" viewBox="0 0 437 329" width="437pt" xmlns="http://www.w3.org/2000/svg" xmlns:xlink="http://www.w3.org/1999/xlink">
 <defs>
  <style type="text/css">
*{stroke-linecap:butt;stroke-linejoin:round;}
  </style>
 </defs>
 <g id="figure_1">
  <g id="patch_1">
   <path d="M 0 329.745625 
L 437.507187 329.745625 
L 437.507187 0 
L 0 0 
z
" style="fill:#ffffff;"/>
  </g>
  <g id="axes_1">
   <g id="patch_2">
    <path d="M 63.643437 290.25375 
L 420.763438 290.25375 
L 420.763438 24.14175 
L 63.643437 24.14175 
z
" style="fill:#e5e5e5;"/>
   </g>
   <g id="matplotlib.axis_1">
    <g id="xtick_1">
     <g id="line2d_1">
      <path clip-path="url(#p1a610f5159)" d="M 63.643437 290.25375 
L 63.643437 24.14175 
" style="fill:none;stroke:#ffffff;stroke-linecap:square;stroke-width:0.8;"/>
     </g>
     <g id="line2d_2">
      <defs>
       <path d="M 0 0 
L 0 3.5 
" id="m1142ced286" style="stroke:#555555;stroke-width:0.8;"/>
      </defs>
      <g>
       <use style="fill:#555555;stroke:#555555;stroke-width:0.8;" x="63.643437" xlink:href="#m1142ced286" y="290.25375"/>
      </g>
     </g>
     <g id="text_1">
      <!-- −300 -->
      <defs>
       <path d="M 10.59375 35.5 
L 73.1875 35.5 
L 73.1875 27.203125 
L 10.59375 27.203125 
z
" id="DejaVuSans-2212"/>
       <path d="M 40.578125 39.3125 
Q 47.65625 37.796875 51.625 33 
Q 55.609375 28.21875 55.609375 21.1875 
Q 55.609375 10.40625 48.1875 4.484375 
Q 40.765625 -1.421875 27.09375 -1.421875 
Q 22.515625 -1.421875 17.65625 -0.515625 
Q 12.796875 0.390625 7.625 2.203125 
L 7.625 11.71875 
Q 11.71875 9.328125 16.59375 8.109375 
Q 21.484375 6.890625 26.8125 6.890625 
Q 36.078125 6.890625 40.9375 10.546875 
Q 45.796875 14.203125 45.796875 21.1875 
Q 45.796875 27.640625 41.28125 31.265625 
Q 36.765625 34.90625 28.71875 34.90625 
L 20.21875 34.90625 
L 20.21875 43.015625 
L 29.109375 43.015625 
Q 36.375 43.015625 40.234375 45.921875 
Q 44.09375 48.828125 44.09375 54.296875 
Q 44.09375 59.90625 40.109375 62.90625 
Q 36.140625 65.921875 28.71875 65.921875 
Q 24.65625 65.921875 20.015625 65.03125 
Q 15.375 64.15625 9.8125 62.3125 
L 9.8125 71.09375 
Q 15.4375 72.65625 20.34375 73.4375 
Q 25.25 74.21875 29.59375 74.21875 
Q 40.828125 74.21875 47.359375 69.109375 
Q 53.90625 64.015625 53.90625 55.328125 
Q 53.90625 49.265625 50.4375 45.09375 
Q 46.96875 40.921875 40.578125 39.3125 
" id="DejaVuSans-33"/>
       <path d="M 31.78125 66.40625 
Q 24.171875 66.40625 20.328125 58.90625 
Q 16.5 51.421875 16.5 36.375 
Q 16.5 21.390625 20.328125 13.890625 
Q 24.171875 6.390625 31.78125 6.390625 
Q 39.453125 6.390625 43.28125 13.890625 
Q 47.125 21.390625 47.125 36.375 
Q 47.125 51.421875 43.28125 58.90625 
Q 39.453125 66.40625 31.78125 66.40625 
M 31.78125 74.21875 
Q 44.046875 74.21875 50.515625 64.515625 
Q 56.984375 54.828125 56.984375 36.375 
Q 56.984375 17.96875 50.515625 8.265625 
Q 44.046875 -1.421875 31.78125 -1.421875 
Q 19.53125 -1.421875 13.0625 8.265625 
Q 6.59375 17.96875 6.59375 36.375 
Q 6.59375 54.828125 13.0625 64.515625 
Q 19.53125 74.21875 31.78125 74.21875 
" id="DejaVuSans-30"/>
      </defs>
      <g style="fill:#555555;" transform="translate(49.909844 304.852187)scale(0.1 -0.1)">
       <use xlink:href="#DejaVuSans-2212"/>
       <use x="83.789062" xlink:href="#DejaVuSans-33"/>
       <use x="147.412109" xlink:href="#DejaVuSans-30"/>
       <use x="211.035156" xlink:href="#DejaVuSans-30"/>
      </g>
     </g>
    </g>
    <g id="xtick_2">
     <g id="line2d_3">
      <path clip-path="url(#p1a610f5159)" d="M 123.163438 290.25375 
L 123.163438 24.14175 
" style="fill:none;stroke:#ffffff;stroke-linecap:square;stroke-width:0.8;"/>
     </g>
     <g id="line2d_4">
      <g>
       <use style="fill:#555555;stroke:#555555;stroke-width:0.8;" x="123.163438" xlink:href="#m1142ced286" y="290.25375"/>
      </g>
     </g>
     <g id="text_2">
      <!-- −200 -->
      <defs>
       <path d="M 19.1875 8.296875 
L 53.609375 8.296875 
L 53.609375 0 
L 7.328125 0 
L 7.328125 8.296875 
Q 12.9375 14.109375 22.625 23.890625 
Q 32.328125 33.6875 34.8125 36.53125 
Q 39.546875 41.84375 41.421875 45.53125 
Q 43.3125 49.21875 43.3125 52.78125 
Q 43.3125 58.59375 39.234375 62.25 
Q 35.15625 65.921875 28.609375 65.921875 
Q 23.96875 65.921875 18.8125 64.3125 
Q 13.671875 62.703125 7.8125 59.421875 
L 7.8125 69.390625 
Q 13.765625 71.78125 18.9375 73 
Q 24.125 74.21875 28.421875 74.21875 
Q 39.75 74.21875 46.484375 68.546875 
Q 53.21875 62.890625 53.21875 53.421875 
Q 53.21875 48.921875 51.53125 44.890625 
Q 49.859375 40.875 45.40625 35.40625 
Q 44.1875 33.984375 37.640625 27.21875 
Q 31.109375 20.453125 19.1875 8.296875 
" id="DejaVuSans-32"/>
      </defs>
      <g style="fill:#555555;" transform="translate(109.429844 304.852187)scale(0.1 -0.1)">
       <use xlink:href="#DejaVuSans-2212"/>
       <use x="83.789062" xlink:href="#DejaVuSans-32"/>
       <use x="147.412109" xlink:href="#DejaVuSans-30"/>
       <use x="211.035156" xlink:href="#DejaVuSans-30"/>
      </g>
     </g>
    </g>
    <g id="xtick_3">
     <g id="line2d_5">
      <path clip-path="url(#p1a610f5159)" d="M 182.683437 290.25375 
L 182.683437 24.14175 
" style="fill:none;stroke:#ffffff;stroke-linecap:square;stroke-width:0.8;"/>
     </g>
     <g id="line2d_6">
      <g>
       <use style="fill:#555555;stroke:#555555;stroke-width:0.8;" x="182.683437" xlink:href="#m1142ced286" y="290.25375"/>
      </g>
     </g>
     <g id="text_3">
      <!-- −100 -->
      <defs>
       <path d="M 12.40625 8.296875 
L 28.515625 8.296875 
L 28.515625 63.921875 
L 10.984375 60.40625 
L 10.984375 69.390625 
L 28.421875 72.90625 
L 38.28125 72.90625 
L 38.28125 8.296875 
L 54.390625 8.296875 
L 54.390625 0 
L 12.40625 0 
z
" id="DejaVuSans-31"/>
      </defs>
      <g style="fill:#555555;" transform="translate(168.949844 304.852187)scale(0.1 -0.1)">
       <use xlink:href="#DejaVuSans-2212"/>
       <use x="83.789062" xlink:href="#DejaVuSans-31"/>
       <use x="147.412109" xlink:href="#DejaVuSans-30"/>
       <use x="211.035156" xlink:href="#DejaVuSans-30"/>
      </g>
     </g>
    </g>
    <g id="xtick_4">
     <g id="line2d_7">
      <path clip-path="url(#p1a610f5159)" d="M 242.203438 290.25375 
L 242.203438 24.14175 
" style="fill:none;stroke:#ffffff;stroke-linecap:square;stroke-width:0.8;"/>
     </g>
     <g id="line2d_8">
      <g>
       <use style="fill:#555555;stroke:#555555;stroke-width:0.8;" x="242.203438" xlink:href="#m1142ced286" y="290.25375"/>
      </g>
     </g>
     <g id="text_4">
      <!-- 0 -->
      <g style="fill:#555555;" transform="translate(239.022188 304.852187)scale(0.1 -0.1)">
       <use xlink:href="#DejaVuSans-30"/>
      </g>
     </g>
    </g>
    <g id="xtick_5">
     <g id="line2d_9">
      <path clip-path="url(#p1a610f5159)" d="M 301.723437 290.25375 
L 301.723437 24.14175 
" style="fill:none;stroke:#ffffff;stroke-linecap:square;stroke-width:0.8;"/>
     </g>
     <g id="line2d_10">
      <g>
       <use style="fill:#555555;stroke:#555555;stroke-width:0.8;" x="301.723437" xlink:href="#m1142ced286" y="290.25375"/>
      </g>
     </g>
     <g id="text_5">
      <!-- 100 -->
      <g style="fill:#555555;" transform="translate(292.179688 304.852187)scale(0.1 -0.1)">
       <use xlink:href="#DejaVuSans-31"/>
       <use x="63.623047" xlink:href="#DejaVuSans-30"/>
       <use x="127.246094" xlink:href="#DejaVuSans-30"/>
      </g>
     </g>
    </g>
    <g id="xtick_6">
     <g id="line2d_11">
      <path clip-path="url(#p1a610f5159)" d="M 361.243438 290.25375 
L 361.243438 24.14175 
" style="fill:none;stroke:#ffffff;stroke-linecap:square;stroke-width:0.8;"/>
     </g>
     <g id="line2d_12">
      <g>
       <use style="fill:#555555;stroke:#555555;stroke-width:0.8;" x="361.243438" xlink:href="#m1142ced286" y="290.25375"/>
      </g>
     </g>
     <g id="text_6">
      <!-- 200 -->
      <g style="fill:#555555;" transform="translate(351.699688 304.852187)scale(0.1 -0.1)">
       <use xlink:href="#DejaVuSans-32"/>
       <use x="63.623047" xlink:href="#DejaVuSans-30"/>
       <use x="127.246094" xlink:href="#DejaVuSans-30"/>
      </g>
     </g>
    </g>
    <g id="xtick_7">
     <g id="line2d_13">
      <path clip-path="url(#p1a610f5159)" d="M 420.763438 290.25375 
L 420.763438 24.14175 
" style="fill:none;stroke:#ffffff;stroke-linecap:square;stroke-width:0.8;"/>
     </g>
     <g id="line2d_14">
      <g>
       <use style="fill:#555555;stroke:#555555;stroke-width:0.8;" x="420.763438" xlink:href="#m1142ced286" y="290.25375"/>
      </g>
     </g>
     <g id="text_7">
      <!-- 300 -->
      <g style="fill:#555555;" transform="translate(411.219688 304.852187)scale(0.1 -0.1)">
       <use xlink:href="#DejaVuSans-33"/>
       <use x="63.623047" xlink:href="#DejaVuSans-30"/>
       <use x="127.246094" xlink:href="#DejaVuSans-30"/>
      </g>
     </g>
    </g>
    <g id="text_8">
     <!-- Frequenz [kHz] -->
     <defs>
      <path d="M 9.8125 72.90625 
L 51.703125 72.90625 
L 51.703125 64.59375 
L 19.671875 64.59375 
L 19.671875 43.109375 
L 48.578125 43.109375 
L 48.578125 34.8125 
L 19.671875 34.8125 
L 19.671875 0 
L 9.8125 0 
z
" id="DejaVuSans-46"/>
      <path d="M 41.109375 46.296875 
Q 39.59375 47.171875 37.8125 47.578125 
Q 36.03125 48 33.890625 48 
Q 26.265625 48 22.1875 43.046875 
Q 18.109375 38.09375 18.109375 28.8125 
L 18.109375 0 
L 9.078125 0 
L 9.078125 54.6875 
L 18.109375 54.6875 
L 18.109375 46.1875 
Q 20.953125 51.171875 25.484375 53.578125 
Q 30.03125 56 36.53125 56 
Q 37.453125 56 38.578125 55.875 
Q 39.703125 55.765625 41.0625 55.515625 
z
" id="DejaVuSans-72"/>
      <path d="M 56.203125 29.59375 
L 56.203125 25.203125 
L 14.890625 25.203125 
Q 15.484375 15.921875 20.484375 11.0625 
Q 25.484375 6.203125 34.421875 6.203125 
Q 39.59375 6.203125 44.453125 7.46875 
Q 49.3125 8.734375 54.109375 11.28125 
L 54.109375 2.78125 
Q 49.265625 0.734375 44.1875 -0.34375 
Q 39.109375 -1.421875 33.890625 -1.421875 
Q 20.796875 -1.421875 13.15625 6.1875 
Q 5.515625 13.8125 5.515625 26.8125 
Q 5.515625 40.234375 12.765625 48.109375 
Q 20.015625 56 32.328125 56 
Q 43.359375 56 49.78125 48.890625 
Q 56.203125 41.796875 56.203125 29.59375 
M 47.21875 32.234375 
Q 47.125 39.59375 43.09375 43.984375 
Q 39.0625 48.390625 32.421875 48.390625 
Q 24.90625 48.390625 20.390625 44.140625 
Q 15.875 39.890625 15.1875 32.171875 
z
" id="DejaVuSans-65"/>
      <path d="M 14.796875 27.296875 
Q 14.796875 17.390625 18.875 11.75 
Q 22.953125 6.109375 30.078125 6.109375 
Q 37.203125 6.109375 41.296875 11.75 
Q 45.40625 17.390625 45.40625 27.296875 
Q 45.40625 37.203125 41.296875 42.84375 
Q 37.203125 48.484375 30.078125 48.484375 
Q 22.953125 48.484375 18.875 42.84375 
Q 14.796875 37.203125 14.796875 27.296875 
M 45.40625 8.203125 
Q 42.578125 3.328125 38.25 0.953125 
Q 33.9375 -1.421875 27.875 -1.421875 
Q 17.96875 -1.421875 11.734375 6.484375 
Q 5.515625 14.40625 5.515625 27.296875 
Q 5.515625 40.1875 11.734375 48.09375 
Q 17.96875 56 27.875 56 
Q 33.9375 56 38.25 53.625 
Q 42.578125 51.265625 45.40625 46.390625 
L 45.40625 54.6875 
L 54.390625 54.6875 
L 54.390625 -20.796875 
L 45.40625 -20.796875 
z
" id="DejaVuSans-71"/>
      <path d="M 8.5 21.578125 
L 8.5 54.6875 
L 17.484375 54.6875 
L 17.484375 21.921875 
Q 17.484375 14.15625 20.5 10.265625 
Q 23.53125 6.390625 29.59375 6.390625 
Q 36.859375 6.390625 41.078125 11.03125 
Q 45.3125 15.671875 45.3125 23.6875 
L 45.3125 54.6875 
L 54.296875 54.6875 
L 54.296875 0 
L 45.3125 0 
L 45.3125 8.40625 
Q 42.046875 3.421875 37.71875 1 
Q 33.40625 -1.421875 27.6875 -1.421875 
Q 18.265625 -1.421875 13.375 4.4375 
Q 8.5 10.296875 8.5 21.578125 
M 31.109375 56 
z
" id="DejaVuSans-75"/>
      <path d="M 54.890625 33.015625 
L 54.890625 0 
L 45.90625 0 
L 45.90625 32.71875 
Q 45.90625 40.484375 42.875 44.328125 
Q 39.84375 48.1875 33.796875 48.1875 
Q 26.515625 48.1875 22.3125 43.546875 
Q 18.109375 38.921875 18.109375 30.90625 
L 18.109375 0 
L 9.078125 0 
L 9.078125 54.6875 
L 18.109375 54.6875 
L 18.109375 46.1875 
Q 21.34375 51.125 25.703125 53.5625 
Q 30.078125 56 35.796875 56 
Q 45.21875 56 50.046875 50.171875 
Q 54.890625 44.34375 54.890625 33.015625 
" id="DejaVuSans-6e"/>
      <path d="M 5.515625 54.6875 
L 48.1875 54.6875 
L 48.1875 46.484375 
L 14.40625 7.171875 
L 48.1875 7.171875 
L 48.1875 0 
L 4.296875 0 
L 4.296875 8.203125 
L 38.09375 47.515625 
L 5.515625 47.515625 
z
" id="DejaVuSans-7a"/>
      <path id="DejaVuSans-20"/>
      <path d="M 8.59375 75.984375 
L 29.296875 75.984375 
L 29.296875 69 
L 17.578125 69 
L 17.578125 -6.203125 
L 29.296875 -6.203125 
L 29.296875 -13.1875 
L 8.59375 -13.1875 
z
" id="DejaVuSans-5b"/>
      <path d="M 9.078125 75.984375 
L 18.109375 75.984375 
L 18.109375 31.109375 
L 44.921875 54.6875 
L 56.390625 54.6875 
L 27.390625 29.109375 
L 57.625 0 
L 45.90625 0 
L 18.109375 26.703125 
L 18.109375 0 
L 9.078125 0 
z
" id="DejaVuSans-6b"/>
      <path d="M 9.8125 72.90625 
L 19.671875 72.90625 
L 19.671875 43.015625 
L 55.515625 43.015625 
L 55.515625 72.90625 
L 65.375 72.90625 
L 65.375 0 
L 55.515625 0 
L 55.515625 34.71875 
L 19.671875 34.71875 
L 19.671875 0 
L 9.8125 0 
z
" id="DejaVuSans-48"/>
      <path d="M 30.421875 75.984375 
L 30.421875 -13.1875 
L 9.71875 -13.1875 
L 9.71875 -6.203125 
L 21.390625 -6.203125 
L 21.390625 69 
L 9.71875 69 
L 9.71875 75.984375 
z
" id="DejaVuSans-5d"/>
     </defs>
     <g style="fill:#555555;" transform="translate(196.623125 320.05)scale(0.12 -0.12)">
      <use xlink:href="#DejaVuSans-46"/>
      <use x="57.410156" xlink:href="#DejaVuSans-72"/>
      <use x="98.492188" xlink:href="#DejaVuSans-65"/>
      <use x="160.015625" xlink:href="#DejaVuSans-71"/>
      <use x="223.492188" xlink:href="#DejaVuSans-75"/>
      <use x="286.871094" xlink:href="#DejaVuSans-65"/>
      <use x="348.394531" xlink:href="#DejaVuSans-6e"/>
      <use x="411.773438" xlink:href="#DejaVuSans-7a"/>
      <use x="464.263672" xlink:href="#DejaVuSans-20"/>
      <use x="496.050781" xlink:href="#DejaVuSans-5b"/>
      <use x="535.064453" xlink:href="#DejaVuSans-6b"/>
      <use x="592.974609" xlink:href="#DejaVuSans-48"/>
      <use x="668.169922" xlink:href="#DejaVuSans-7a"/>
      <use x="720.660156" xlink:href="#DejaVuSans-5d"/>
     </g>
    </g>
   </g>
   <g id="matplotlib.axis_2">
    <g id="ytick_1">
     <g id="line2d_15">
      <path clip-path="url(#p1a610f5159)" d="M 63.643437 267.965524 
L 420.763438 267.965524 
" style="fill:none;stroke:#ffffff;stroke-linecap:square;stroke-width:0.8;"/>
     </g>
     <g id="line2d_16">
      <defs>
       <path d="M 0 0 
L -3.5 0 
" id="m9e9f6ccba9" style="stroke:#555555;stroke-width:0.8;"/>
      </defs>
      <g>
       <use style="fill:#555555;stroke:#555555;stroke-width:0.8;" x="63.643437" xlink:href="#m9e9f6ccba9" y="267.965524"/>
      </g>
     </g>
     <g id="text_9">
      <!-- −5000 -->
      <defs>
       <path d="M 10.796875 72.90625 
L 49.515625 72.90625 
L 49.515625 64.59375 
L 19.828125 64.59375 
L 19.828125 46.734375 
Q 21.96875 47.46875 24.109375 47.828125 
Q 26.265625 48.1875 28.421875 48.1875 
Q 40.625 48.1875 47.75 41.5 
Q 54.890625 34.8125 54.890625 23.390625 
Q 54.890625 11.625 47.5625 5.09375 
Q 40.234375 -1.421875 26.90625 -1.421875 
Q 22.3125 -1.421875 17.546875 -0.640625 
Q 12.796875 0.140625 7.71875 1.703125 
L 7.71875 11.625 
Q 12.109375 9.234375 16.796875 8.0625 
Q 21.484375 6.890625 26.703125 6.890625 
Q 35.15625 6.890625 40.078125 11.328125 
Q 45.015625 15.765625 45.015625 23.390625 
Q 45.015625 31 40.078125 35.4375 
Q 35.15625 39.890625 26.703125 39.890625 
Q 22.75 39.890625 18.8125 39.015625 
Q 14.890625 38.140625 10.796875 36.28125 
z
" id="DejaVuSans-35"/>
      </defs>
      <g style="fill:#555555;" transform="translate(22.81375 271.764742)scale(0.1 -0.1)">
       <use xlink:href="#DejaVuSans-2212"/>
       <use x="83.789062" xlink:href="#DejaVuSans-35"/>
       <use x="147.412109" xlink:href="#DejaVuSans-30"/>
       <use x="211.035156" xlink:href="#DejaVuSans-30"/>
       <use x="274.658203" xlink:href="#DejaVuSans-30"/>
      </g>
     </g>
    </g>
    <g id="ytick_2">
     <g id="line2d_17">
      <path clip-path="url(#p1a610f5159)" d="M 63.643437 232.919108 
L 420.763438 232.919108 
" style="fill:none;stroke:#ffffff;stroke-linecap:square;stroke-width:0.8;"/>
     </g>
     <g id="line2d_18">
      <g>
       <use style="fill:#555555;stroke:#555555;stroke-width:0.8;" x="63.643437" xlink:href="#m9e9f6ccba9" y="232.919108"/>
      </g>
     </g>
     <g id="text_10">
      <!-- −2500 -->
      <g style="fill:#555555;" transform="translate(22.81375 236.718327)scale(0.1 -0.1)">
       <use xlink:href="#DejaVuSans-2212"/>
       <use x="83.789062" xlink:href="#DejaVuSans-32"/>
       <use x="147.412109" xlink:href="#DejaVuSans-35"/>
       <use x="211.035156" xlink:href="#DejaVuSans-30"/>
       <use x="274.658203" xlink:href="#DejaVuSans-30"/>
      </g>
     </g>
    </g>
    <g id="ytick_3">
     <g id="line2d_19">
      <path clip-path="url(#p1a610f5159)" d="M 63.643437 197.872692 
L 420.763438 197.872692 
" style="fill:none;stroke:#ffffff;stroke-linecap:square;stroke-width:0.8;"/>
     </g>
     <g id="line2d_20">
      <g>
       <use style="fill:#555555;stroke:#555555;stroke-width:0.8;" x="63.643437" xlink:href="#m9e9f6ccba9" y="197.872692"/>
      </g>
     </g>
     <g id="text_11">
      <!-- 0 -->
      <g style="fill:#555555;" transform="translate(50.280937 201.671911)scale(0.1 -0.1)">
       <use xlink:href="#DejaVuSans-30"/>
      </g>
     </g>
    </g>
    <g id="ytick_4">
     <g id="line2d_21">
      <path clip-path="url(#p1a610f5159)" d="M 63.643437 162.826276 
L 420.763438 162.826276 
" style="fill:none;stroke:#ffffff;stroke-linecap:square;stroke-width:0.8;"/>
     </g>
     <g id="line2d_22">
      <g>
       <use style="fill:#555555;stroke:#555555;stroke-width:0.8;" x="63.643437" xlink:href="#m9e9f6ccba9" y="162.826276"/>
      </g>
     </g>
     <g id="text_12">
      <!-- 2500 -->
      <g style="fill:#555555;" transform="translate(31.193437 166.625495)scale(0.1 -0.1)">
       <use xlink:href="#DejaVuSans-32"/>
       <use x="63.623047" xlink:href="#DejaVuSans-35"/>
       <use x="127.246094" xlink:href="#DejaVuSans-30"/>
       <use x="190.869141" xlink:href="#DejaVuSans-30"/>
      </g>
     </g>
    </g>
    <g id="ytick_5">
     <g id="line2d_23">
      <path clip-path="url(#p1a610f5159)" d="M 63.643437 127.77986 
L 420.763438 127.77986 
" style="fill:none;stroke:#ffffff;stroke-linecap:square;stroke-width:0.8;"/>
     </g>
     <g id="line2d_24">
      <g>
       <use style="fill:#555555;stroke:#555555;stroke-width:0.8;" x="63.643437" xlink:href="#m9e9f6ccba9" y="127.77986"/>
      </g>
     </g>
     <g id="text_13">
      <!-- 5000 -->
      <g style="fill:#555555;" transform="translate(31.193437 131.579079)scale(0.1 -0.1)">
       <use xlink:href="#DejaVuSans-35"/>
       <use x="63.623047" xlink:href="#DejaVuSans-30"/>
       <use x="127.246094" xlink:href="#DejaVuSans-30"/>
       <use x="190.869141" xlink:href="#DejaVuSans-30"/>
      </g>
     </g>
    </g>
    <g id="ytick_6">
     <g id="line2d_25">
      <path clip-path="url(#p1a610f5159)" d="M 63.643437 92.733444 
L 420.763438 92.733444 
" style="fill:none;stroke:#ffffff;stroke-linecap:square;stroke-width:0.8;"/>
     </g>
     <g id="line2d_26">
      <g>
       <use style="fill:#555555;stroke:#555555;stroke-width:0.8;" x="63.643437" xlink:href="#m9e9f6ccba9" y="92.733444"/>
      </g>
     </g>
     <g id="text_14">
      <!-- 7500 -->
      <defs>
       <path d="M 8.203125 72.90625 
L 55.078125 72.90625 
L 55.078125 68.703125 
L 28.609375 0 
L 18.3125 0 
L 43.21875 64.59375 
L 8.203125 64.59375 
z
" id="DejaVuSans-37"/>
      </defs>
      <g style="fill:#555555;" transform="translate(31.193437 96.532663)scale(0.1 -0.1)">
       <use xlink:href="#DejaVuSans-37"/>
       <use x="63.623047" xlink:href="#DejaVuSans-35"/>
       <use x="127.246094" xlink:href="#DejaVuSans-30"/>
       <use x="190.869141" xlink:href="#DejaVuSans-30"/>
      </g>
     </g>
    </g>
    <g id="ytick_7">
     <g id="line2d_27">
      <path clip-path="url(#p1a610f5159)" d="M 63.643437 57.687029 
L 420.763438 57.687029 
" style="fill:none;stroke:#ffffff;stroke-linecap:square;stroke-width:0.8;"/>
     </g>
     <g id="line2d_28">
      <g>
       <use style="fill:#555555;stroke:#555555;stroke-width:0.8;" x="63.643437" xlink:href="#m9e9f6ccba9" y="57.687029"/>
      </g>
     </g>
     <g id="text_15">
      <!-- 10000 -->
      <g style="fill:#555555;" transform="translate(24.830937 61.486247)scale(0.1 -0.1)">
       <use xlink:href="#DejaVuSans-31"/>
       <use x="63.623047" xlink:href="#DejaVuSans-30"/>
       <use x="127.246094" xlink:href="#DejaVuSans-30"/>
       <use x="190.869141" xlink:href="#DejaVuSans-30"/>
       <use x="254.492188" xlink:href="#DejaVuSans-30"/>
      </g>
     </g>
    </g>
    <g id="text_16">
     <!-- a.u. -->
     <defs>
      <path d="M 34.28125 27.484375 
Q 23.390625 27.484375 19.1875 25 
Q 14.984375 22.515625 14.984375 16.5 
Q 14.984375 11.71875 18.140625 8.90625 
Q 21.296875 6.109375 26.703125 6.109375 
Q 34.1875 6.109375 38.703125 11.40625 
Q 43.21875 16.703125 43.21875 25.484375 
L 43.21875 27.484375 
z
M 52.203125 31.203125 
L 52.203125 0 
L 43.21875 0 
L 43.21875 8.296875 
Q 40.140625 3.328125 35.546875 0.953125 
Q 30.953125 -1.421875 24.3125 -1.421875 
Q 15.921875 -1.421875 10.953125 3.296875 
Q 6 8.015625 6 15.921875 
Q 6 25.140625 12.171875 29.828125 
Q 18.359375 34.515625 30.609375 34.515625 
L 43.21875 34.515625 
L 43.21875 35.40625 
Q 43.21875 41.609375 39.140625 45 
Q 35.0625 48.390625 27.6875 48.390625 
Q 23 48.390625 18.546875 47.265625 
Q 14.109375 46.140625 10.015625 43.890625 
L 10.015625 52.203125 
Q 14.9375 54.109375 19.578125 55.046875 
Q 24.21875 56 28.609375 56 
Q 40.484375 56 46.34375 49.84375 
Q 52.203125 43.703125 52.203125 31.203125 
" id="DejaVuSans-61"/>
      <path d="M 10.6875 12.40625 
L 21 12.40625 
L 21 0 
L 10.6875 0 
z
" id="DejaVuSans-2e"/>
     </defs>
     <g style="fill:#555555;" transform="translate(16.318125 168.490875)rotate(-90)scale(0.12 -0.12)">
      <use xlink:href="#DejaVuSans-61"/>
      <use x="61.279297" xlink:href="#DejaVuSans-2e"/>
      <use x="93.066406" xlink:href="#DejaVuSans-75"/>
      <use x="156.445312" xlink:href="#DejaVuSans-2e"/>
     </g>
    </g>
   </g>
   <g id="line2d_29">
    <path clip-path="url(#p1a610f5159)" d="M 63.614375 198.582279 
L 64.050312 198.557736 
L 64.48625 198.829683 
L 64.922187 199.15421 
L 65.212812 199.155541 
L 65.503437 198.889292 
L 65.939375 198.082831 
L 66.665937 196.662166 
L 66.956562 196.39067 
L 67.247187 196.374099 
L 67.537813 196.587661 
L 68.409687 197.44794 
L 68.845625 197.483457 
L 69.426875 197.495554 
L 70.153437 197.865446 
L 71.606562 198.635627 
L 71.897188 198.504327 
L 72.333125 197.960834 
L 73.059687 197.052621 
L 73.640937 196.653753 
L 74.3675 196.444809 
L 75.384687 196.391 
L 76.11125 196.627865 
L 76.983125 197.016512 
L 77.419062 196.874367 
L 78.290937 196.334299 
L 78.581562 196.385593 
L 79.0175 196.768649 
L 79.59875 197.291653 
L 80.034687 197.318104 
L 80.470625 197.292134 
L 80.906562 197.537713 
L 81.633125 198.068181 
L 82.069063 198.050726 
L 83.08625 197.69813 
L 84.684687 197.918583 
L 85.701875 198.171645 
L 85.9925 197.941726 
L 87.300312 196.444304 
L 87.73625 196.618432 
L 88.89875 197.247742 
L 90.933125 197.866484 
L 91.369062 197.59673 
L 91.950312 197.194552 
L 92.38625 197.212066 
L 92.9675 197.310791 
L 93.403437 197.101192 
L 94.565937 196.099896 
L 94.856562 196.21706 
L 95.728437 197.036329 
L 96.164375 197.61377 
L 96.890937 199.185058 
L 97.326875 199.837006 
L 97.6175 199.908966 
L 97.908125 199.726996 
L 99.36125 198.25276 
L 99.9425 197.900897 
L 100.52375 197.184539 
L 100.959688 196.723718 
L 101.250312 196.71193 
L 101.540937 196.963808 
L 102.122187 197.602018 
L 102.412813 197.622049 
L 102.703437 197.384225 
L 103.720625 196.252216 
L 104.01125 196.232131 
L 104.301875 196.40095 
L 105.464375 197.50665 
L 105.755 197.345166 
L 106.9175 196.220792 
L 107.353437 196.329687 
L 108.66125 197.019942 
L 110.405 197.592584 
L 111.422188 198.306682 
L 111.858125 198.202439 
L 113.165937 197.49313 
L 114.037813 197.303136 
L 115.200312 196.851799 
L 115.781562 196.931961 
L 116.653437 197.171417 
L 116.944062 196.997259 
L 117.38 196.343744 
L 117.96125 195.384385 
L 118.833125 194.504632 
L 119.269062 193.243257 
L 119.705 192.069362 
L 119.850312 192.030346 
L 119.995625 192.245249 
L 120.28625 193.356248 
L 121.012812 196.780794 
L 121.303438 197.347646 
L 121.594062 197.510166 
L 122.465937 197.538006 
L 122.901875 197.927629 
L 123.628437 198.940712 
L 124.500312 200.30398 
L 124.790937 200.394182 
L 125.081562 200.204508 
L 126.389375 198.874873 
L 126.970625 198.582412 
L 127.406562 198.660482 
L 128.569063 199.328596 
L 128.859688 199.069556 
L 129.295625 198.231133 
L 130.022188 196.696113 
L 130.458125 196.291959 
L 130.74875 196.269868 
L 131.184687 196.549357 
L 131.765938 197.37 
L 132.347187 198.204159 
L 132.637812 198.402084 
L 132.928438 198.403303 
L 133.945625 198.049006 
L 134.962812 198.319804 
L 135.253437 198.076264 
L 135.834688 197.143999 
L 136.415937 196.358693 
L 136.851875 196.208081 
L 138.014375 196.292001 
L 138.450312 196.618355 
L 139.031563 197.535225 
L 139.612812 198.362399 
L 139.903437 198.436467 
L 140.194063 198.261544 
L 140.920625 197.574059 
L 141.21125 197.55038 
L 142.083125 197.842062 
L 142.37375 197.50187 
L 143.100313 196.366741 
L 143.390938 196.285048 
L 143.826875 196.499977 
L 144.69875 197.227106 
L 145.425312 197.939313 
L 145.715937 197.968299 
L 146.151875 197.648648 
L 146.878437 196.970941 
L 147.459688 196.784708 
L 148.18625 196.570817 
L 149.058125 196.231991 
L 149.494062 196.117412 
L 149.784688 195.879145 
L 150.220625 195.177279 
L 151.237813 193.336963 
L 152.400312 191.792213 
L 152.83625 191.588029 
L 154.144063 191.64081 
L 154.434687 191.766068 
L 154.725313 192.148281 
L 155.306562 193.576716 
L 155.7425 194.515474 
L 156.033125 194.735419 
L 156.32375 194.595802 
L 157.340937 193.532521 
L 157.922188 193.537141 
L 158.503438 193.683268 
L 158.939375 194.068306 
L 159.956563 195.141936 
L 161.409688 195.847466 
L 161.845625 195.889585 
L 162.426875 195.655414 
L 162.862813 195.510159 
L 163.29875 195.622542 
L 163.88 196.156347 
L 164.46125 196.704618 
L 164.751875 196.764578 
L 165.0425 196.597983 
L 166.059687 195.616584 
L 167.3675 195.452742 
L 167.803438 195.343456 
L 168.239375 195.482683 
L 169.401875 196.208679 
L 169.837812 196.035738 
L 170.419062 195.756278 
L 170.709688 195.810083 
L 171.290937 196.260733 
L 171.872187 196.941022 
L 172.453438 198.11531 
L 172.889375 198.881911 
L 173.18 198.946756 
L 173.470625 198.604376 
L 174.778437 196.182632 
L 175.069063 196.057601 
L 175.359688 196.275056 
L 175.650312 196.880908 
L 176.522188 199.363648 
L 176.6675 199.417765 
L 176.812813 199.261791 
L 177.103437 198.341295 
L 177.83 195.116912 
L 178.120625 194.757182 
L 178.265938 194.84318 
L 178.556562 195.373186 
L 179.428438 197.275265 
L 179.719063 197.457275 
L 180.009687 197.26918 
L 180.445625 196.44497 
L 181.026875 195.440455 
L 181.3175 195.313159 
L 183.206563 195.583458 
L 183.933125 195.985434 
L 184.369062 195.934607 
L 185.9675 195.1501 
L 186.54875 194.662136 
L 186.839375 194.627838 
L 187.13 194.82017 
L 188.437813 196.214295 
L 188.87375 196.066607 
L 189.745625 195.47462 
L 190.03625 195.573696 
L 190.762812 196.125302 
L 191.053438 196.076269 
L 191.925313 195.648418 
L 192.9425 195.888836 
L 193.814375 195.575617 
L 194.831563 195.596488 
L 195.122187 195.808709 
L 195.558125 196.453725 
L 196.284688 197.546927 
L 196.865938 197.931627 
L 197.301875 198.028879 
L 197.5925 197.926608 
L 198.028437 197.474541 
L 198.755 196.680475 
L 199.9175 195.829468 
L 200.208125 195.972421 
L 201.08 196.863391 
L 201.370625 196.776711 
L 201.806563 196.207642 
L 202.678438 194.417841 
L 203.98625 191.774805 
L 205.294062 190.558478 
L 205.439375 190.553253 
L 205.584688 190.718695 
L 205.875313 191.729646 
L 206.31125 194.761539 
L 206.747187 197.712754 
L 207.037813 198.498968 
L 207.183125 198.464204 
L 207.47375 197.735372 
L 208.345625 194.677516 
L 208.63625 194.376322 
L 209.072188 194.442587 
L 209.362813 194.442443 
L 209.653437 194.202725 
L 210.38 193.31191 
L 210.670625 193.365767 
L 211.5425 194.198564 
L 211.833125 194.039769 
L 212.414375 193.114716 
L 212.850313 192.560413 
L 213.28625 192.395475 
L 213.8675 192.294461 
L 214.303438 191.893489 
L 215.03 190.696752 
L 216.1925 188.798418 
L 216.483125 188.710906 
L 216.77375 188.883264 
L 217.645625 189.673312 
L 217.93625 189.577057 
L 218.226875 189.197801 
L 218.808125 187.801213 
L 219.244063 186.828358 
L 219.534688 186.565955 
L 219.825312 186.684462 
L 220.697188 187.689112 
L 220.987813 187.561937 
L 221.42375 186.915733 
L 223.1675 184.078891 
L 223.74875 183.371309 
L 224.620625 182.784851 
L 225.056563 181.970929 
L 226.364375 178.932658 
L 226.800313 177.943859 
L 227.381563 175.979572 
L 228.689375 171.284341 
L 229.125313 170.374414 
L 229.706563 169.760705 
L 229.997187 169.365768 
L 230.287813 168.590268 
L 230.72375 166.392301 
L 231.595625 159.750013 
L 234.21125 138.48759 
L 234.7925 131.763933 
L 235.37375 122.115564 
L 236.681563 98.75148 
L 237.69875 81.879926 
L 239.151875 57.897783 
L 240.314375 42.505599 
L 240.895625 37.383724 
L 241.18625 36.320272 
L 241.331563 36.23775 
L 241.476875 36.448424 
L 241.7675 37.67082 
L 242.203438 41.18305 
L 242.784688 48.428347 
L 243.801875 65.3391 
L 246.853438 118.833216 
L 247.725313 130.243036 
L 248.597188 138.170582 
L 251.0675 158.568585 
L 252.23 165.800585 
L 253.247187 170.727783 
L 253.97375 173.117802 
L 254.845625 175.32021 
L 255.426875 176.793961 
L 256.589375 180.467783 
L 256.88 180.836698 
L 257.315938 180.978677 
L 257.751875 181.146071 
L 258.0425 181.56988 
L 258.62375 183.164209 
L 259.059687 184.242901 
L 259.495625 184.70891 
L 260.512812 185.126244 
L 260.94875 185.690935 
L 261.53 186.809552 
L 262.11125 188.444727 
L 262.983125 191.238969 
L 263.27375 191.650813 
L 263.564375 191.650882 
L 263.855 191.282175 
L 264.290937 190.197099 
L 265.0175 188.250901 
L 265.308125 188.013998 
L 265.59875 188.144477 
L 266.76125 189.200689 
L 268.359688 190.462858 
L 269.08625 191.71531 
L 269.6675 192.497767 
L 269.958125 192.59771 
L 270.394063 192.412338 
L 270.83 192.214764 
L 271.120625 192.327078 
L 271.556562 192.875694 
L 272.137812 193.587503 
L 272.57375 193.811413 
L 273.155 193.847062 
L 273.590937 193.557266 
L 274.753438 192.23174 
L 275.044062 192.252594 
L 275.48 192.579806 
L 276.351875 193.314963 
L 276.933125 193.574368 
L 278.38625 193.759505 
L 279.258125 193.81846 
L 279.54875 193.653968 
L 279.984688 193.03048 
L 280.71125 191.866796 
L 281.001875 191.816572 
L 281.437813 192.154708 
L 282.019063 192.60978 
L 283.326875 193.189692 
L 284.489375 194.436515 
L 285.9425 196.117911 
L 287.105 196.897792 
L 287.976875 197.279544 
L 288.2675 197.216638 
L 288.558125 196.949742 
L 289.43 195.854596 
L 289.720625 196.004326 
L 290.156563 196.790004 
L 290.737813 197.818942 
L 291.028437 198.013164 
L 292.33625 198.319706 
L 293.062813 198.67483 
L 293.49875 198.577821 
L 293.934687 198.17566 
L 294.951875 197.018505 
L 295.2425 196.975328 
L 295.82375 197.222111 
L 296.405 197.360816 
L 297.858125 197.261039 
L 298.73 196.972088 
L 299.747187 196.869708 
L 301.055 196.080721 
L 301.490938 196.295464 
L 302.072188 196.626014 
L 302.362813 196.536566 
L 302.79875 196.048543 
L 303.38 195.381327 
L 303.670625 195.316247 
L 303.96125 195.485167 
L 304.5425 196.265903 
L 304.978438 196.770924 
L 305.414375 196.970696 
L 305.995625 197.214383 
L 307.303438 198.188885 
L 307.739375 197.946996 
L 308.61125 197.301483 
L 309.337813 197.225484 
L 310.209688 197.087055 
L 311.226875 196.596315 
L 311.662813 196.945339 
L 312.09875 197.195748 
L 312.389375 197.074293 
L 312.825312 196.773346 
L 313.115938 196.825051 
L 313.551875 197.376872 
L 313.987813 197.956024 
L 314.278437 198.092105 
L 314.569063 198.01975 
L 315.440938 197.360782 
L 317.039375 196.256154 
L 318.201875 196.12192 
L 318.928438 195.575568 
L 319.219063 195.726217 
L 320.381563 196.940522 
L 320.8175 197.187547 
L 321.689375 198.038365 
L 321.98 197.981388 
L 322.415938 197.53604 
L 323.72375 195.850086 
L 324.305 195.597644 
L 325.031563 195.541074 
L 325.758125 195.740192 
L 326.194063 195.773352 
L 326.484688 195.553446 
L 327.065938 194.58328 
L 327.501875 194.028134 
L 327.7925 193.98856 
L 328.228438 194.318579 
L 328.955 194.91566 
L 329.53625 195.070188 
L 329.972188 195.027969 
L 330.408125 194.743187 
L 330.844063 194.024223 
L 331.425313 192.324992 
L 332.151875 190.283327 
L 332.4425 189.924776 
L 332.733125 189.914298 
L 333.02375 190.242462 
L 333.459688 191.211147 
L 334.18625 192.934486 
L 334.7675 193.711515 
L 335.34875 194.56226 
L 336.801875 197.269305 
L 337.237813 197.516706 
L 337.819063 197.535345 
L 338.83625 197.366491 
L 339.272188 197.023075 
L 339.99875 196.258309 
L 340.289375 196.216342 
L 340.725313 196.467771 
L 341.306563 196.795814 
L 341.7425 196.727798 
L 342.759688 196.092992 
L 344.0675 195.3491 
L 344.503438 195.539129 
L 345.956563 196.659043 
L 347.264375 196.680501 
L 347.700312 196.482239 
L 348.572188 195.941512 
L 348.862813 195.971996 
L 349.153437 196.191817 
L 350.46125 197.704722 
L 350.751875 197.63943 
L 351.0425 197.335973 
L 352.350313 195.381088 
L 352.640938 195.446715 
L 352.931563 195.770243 
L 353.222188 196.386675 
L 353.658125 197.880489 
L 354.239375 199.968571 
L 354.53 200.366719 
L 354.675313 200.343538 
L 354.965937 199.96403 
L 355.547188 198.985838 
L 355.837813 198.817084 
L 356.419062 198.915448 
L 356.855 198.885048 
L 357.43625 198.774604 
L 358.0175 198.97164 
L 358.453438 199.057915 
L 358.744063 198.926428 
L 359.18 198.445252 
L 359.906563 197.548718 
L 360.3425 197.341705 
L 360.778437 197.415911 
L 362.08625 198.10264 
L 362.812813 198.420221 
L 363.83 198.530706 
L 364.556563 198.885021 
L 364.847188 198.78741 
L 366.009688 197.97806 
L 366.445625 198.059741 
L 367.608125 198.50442 
L 368.044062 198.246462 
L 370.078438 196.302253 
L 370.514375 196.12652 
L 370.950312 196.234051 
L 371.676875 196.700291 
L 372.112813 197.181568 
L 373.420625 199.118833 
L 373.71125 199.078826 
L 374.001875 198.758101 
L 374.583125 197.521586 
L 375.019063 196.684217 
L 375.309687 196.455415 
L 375.600313 196.479535 
L 376.181563 196.605093 
L 377.053438 196.320029 
L 377.344063 196.540688 
L 378.36125 197.608073 
L 379.087813 198.070199 
L 379.814375 198.682228 
L 380.105 198.688808 
L 380.68625 198.332608 
L 381.122187 198.221101 
L 381.558125 198.430081 
L 381.994063 198.611087 
L 382.284688 198.51053 
L 382.720625 197.997893 
L 383.301875 197.277925 
L 383.5925 197.185078 
L 384.028437 197.358086 
L 384.609688 197.621932 
L 385.481562 197.905837 
L 386.062813 198.502209 
L 386.789375 199.38413 
L 387.08 199.507736 
L 387.370625 199.378655 
L 387.806563 198.730297 
L 388.533125 197.439317 
L 388.969063 197.076515 
L 389.840937 196.777137 
L 390.276875 196.862067 
L 391.294062 197.442464 
L 391.73 197.301916 
L 392.165938 197.123712 
L 392.456563 197.180518 
L 392.747187 197.444039 
L 393.619063 198.51067 
L 393.909688 198.443058 
L 394.345625 197.861483 
L 394.781563 197.266828 
L 395.072188 197.168887 
L 395.362813 197.358441 
L 396.38 198.495767 
L 396.815938 198.546111 
L 397.687813 198.317612 
L 398.559687 197.8011 
L 399.140938 197.6033 
L 399.8675 197.687585 
L 401.465937 198.069951 
L 402.047188 198.591989 
L 403.209688 199.923758 
L 403.500313 199.954998 
L 403.93625 199.709122 
L 404.372187 199.204939 
L 405.825312 197.134732 
L 406.115938 197.000537 
L 406.406563 197.076621 
L 406.697188 197.462845 
L 407.714375 199.441603 
L 408.005 199.228344 
L 408.440938 198.297346 
L 409.022188 197.057825 
L 409.458125 196.612595 
L 409.894063 196.557777 
L 410.33 196.759995 
L 411.4925 197.471289 
L 412.509688 197.890147 
L 412.945625 198.015991 
L 413.526875 197.900777 
L 414.108125 197.853022 
L 414.98 198.115159 
L 416.1425 198.505016 
L 416.578438 198.299214 
L 417.305 197.843657 
L 417.740938 197.844364 
L 418.322188 197.868321 
L 419.775313 197.358895 
L 420.356562 197.011823 
L 420.7925 196.637867 
L 420.7925 196.637867 
" style="fill:none;stroke:#0000ff;stroke-linecap:square;stroke-width:1.5;"/>
   </g>
   <g id="line2d_30">
    <path clip-path="url(#p1a610f5159)" d="M 63.614375 192.908729 
L 64.195625 192.884406 
L 64.48625 192.808568 
L 64.776875 192.538603 
L 65.358125 191.528883 
L 65.794062 190.893641 
L 66.084688 190.760915 
L 66.375312 190.898914 
L 66.81125 191.51046 
L 67.683125 192.895524 
L 67.97375 193.013463 
L 68.409687 192.880938 
L 68.990938 192.733506 
L 70.29875 192.875724 
L 71.025312 192.596251 
L 71.46125 192.138913 
L 72.333125 191.023912 
L 72.62375 190.96381 
L 73.205 191.173551 
L 76.256563 192.735108 
L 76.6925 192.676752 
L 77.709688 192.310958 
L 78.145625 192.576085 
L 79.0175 193.389598 
L 79.308125 193.390412 
L 80.325312 193.083181 
L 81.051875 193.273528 
L 81.487812 193.039119 
L 82.359687 192.388706 
L 82.795625 192.359675 
L 83.6675 192.426038 
L 85.265937 192.022639 
L 86.428438 190.968731 
L 86.719062 191.111805 
L 88.172187 192.474584 
L 88.89875 192.498013 
L 90.497187 192.234274 
L 91.514375 191.52821 
L 91.950312 191.663553 
L 92.531562 191.832302 
L 92.9675 191.683518 
L 93.54875 191.410951 
L 93.839375 191.452793 
L 94.13 191.69495 
L 95.583125 193.425269 
L 96.455 193.905089 
L 96.745625 193.747252 
L 97.03625 193.291773 
L 98.344062 190.642326 
L 98.78 190.412274 
L 99.797187 190.165346 
L 100.378437 189.990766 
L 100.669062 190.140136 
L 101.250312 190.915917 
L 101.540937 191.223153 
L 101.831562 191.256909 
L 102.122187 191.013944 
L 102.84875 190.239316 
L 103.139375 190.235882 
L 103.575312 190.590902 
L 104.5925 191.696137 
L 104.883125 191.680844 
L 105.17375 191.436644 
L 106.045625 190.506694 
L 106.33625 190.545201 
L 106.772188 190.92605 
L 107.49875 191.620104 
L 107.934687 191.758083 
L 109.387812 191.68882 
L 110.98625 191.530765 
L 112.439375 190.219457 
L 114.764375 189.96956 
L 115.781562 190.167574 
L 116.2175 190.043236 
L 116.653437 189.622361 
L 117.38 188.844235 
L 117.670625 188.856119 
L 118.687812 189.322826 
L 118.978437 189.299142 
L 119.12375 189.39251 
L 119.414375 190.045918 
L 119.850312 192.299418 
L 120.28625 194.606136 
L 120.576875 195.189557 
L 120.722187 195.155019 
L 121.012812 194.663514 
L 121.594062 193.451486 
L 121.884687 193.156715 
L 122.175312 193.092047 
L 123.483125 193.264522 
L 123.919062 192.987398 
L 124.355 192.280265 
L 125.372187 190.110571 
L 125.808125 189.800236 
L 126.389375 189.669946 
L 126.970625 189.772106 
L 127.551875 189.934206 
L 127.8425 189.838609 
L 128.133125 189.545579 
L 128.714375 188.497708 
L 129.150312 187.785403 
L 129.440937 187.60415 
L 129.731562 187.715551 
L 130.1675 188.292364 
L 131.33 190.122148 
L 131.765938 190.377469 
L 132.056562 190.296076 
L 132.4925 189.843941 
L 133.219063 189.00104 
L 133.655 188.894271 
L 134.23625 188.850301 
L 134.672188 188.465655 
L 135.544062 187.389424 
L 135.834688 187.320804 
L 136.125313 187.476183 
L 138.450312 189.595051 
L 138.88625 189.805361 
L 139.176875 189.679098 
L 139.612812 189.057883 
L 140.339375 187.888056 
L 140.63 187.743169 
L 141.065937 187.847136 
L 141.501875 187.888029 
L 141.7925 187.640902 
L 142.519062 186.72293 
L 142.809687 186.778087 
L 143.245625 187.300211 
L 143.826875 187.890365 
L 144.408125 188.06686 
L 144.844063 188.006393 
L 145.134687 187.779266 
L 145.715937 186.892397 
L 146.297188 186.165687 
L 146.733125 186.017554 
L 147.605 185.903227 
L 149.34875 185.069172 
L 150.365938 184.055363 
L 150.656563 184.068564 
L 151.237813 184.410135 
L 151.819063 184.907679 
L 152.400312 185.762073 
L 153.4175 187.383458 
L 154.144063 188.357825 
L 155.015938 189.950768 
L 155.306562 190.036271 
L 155.597188 189.751283 
L 156.614375 188.109819 
L 156.905 188.13305 
L 157.631563 188.741596 
L 159.23 189.906653 
L 159.665937 189.808824 
L 161.990938 188.591397 
L 162.426875 188.442399 
L 162.862813 188.555376 
L 163.589375 188.871432 
L 164.025312 188.769008 
L 164.46125 188.31194 
L 165.333125 187.171605 
L 165.62375 187.144704 
L 166.640938 187.491872 
L 167.3675 187.457373 
L 167.94875 187.790727 
L 168.53 188.074178 
L 168.965937 187.983478 
L 169.983125 187.439327 
L 170.419062 187.670823 
L 171.290937 188.27231 
L 172.0175 188.470301 
L 172.308125 188.361142 
L 172.59875 187.942551 
L 173.034688 186.738047 
L 173.615938 185.168484 
L 173.906563 184.818322 
L 174.197187 184.76367 
L 174.487813 184.938974 
L 174.92375 185.556301 
L 175.650312 186.831675 
L 175.795625 186.912031 
L 175.940938 186.865253 
L 176.231562 186.315135 
L 176.6675 184.462743 
L 177.103437 182.525789 
L 177.394063 182.050153 
L 177.539375 182.152141 
L 177.83 182.905767 
L 178.556562 185.18596 
L 178.847187 185.416613 
L 179.137812 185.228703 
L 179.57375 184.395197 
L 180.300312 182.829652 
L 180.590937 182.677942 
L 180.881563 182.853147 
L 181.608125 183.540297 
L 182.044062 183.597546 
L 182.625313 183.657058 
L 183.351875 183.813277 
L 183.787813 183.605108 
L 184.805 182.903405 
L 186.112813 182.575713 
L 186.403437 182.739162 
L 187.565938 183.769647 
L 187.856562 183.612812 
L 188.437813 182.896195 
L 189.019063 182.268506 
L 189.309687 182.16872 
L 189.745625 182.336075 
L 190.181562 182.526793 
L 190.472188 182.419378 
L 191.489375 181.559493 
L 192.36125 181.635015 
L 193.52375 181.067626 
L 194.68625 181.25831 
L 195.412813 181.643143 
L 195.703438 181.553211 
L 196.139375 181.035977 
L 197.156563 179.239988 
L 198.17375 177.395391 
L 198.755 177.001523 
L 199.481562 176.685851 
L 199.9175 176.828075 
L 200.353438 176.931115 
L 200.644063 176.685256 
L 201.08 175.792868 
L 201.951875 173.790225 
L 202.387812 173.233631 
L 202.82375 172.956545 
L 203.259688 172.946953 
L 203.550313 173.14799 
L 204.276875 174.138768 
L 205.003438 175.135467 
L 205.294062 175.983888 
L 206.165938 179.357295 
L 206.31125 179.324703 
L 206.456563 178.971576 
L 206.747187 177.412659 
L 207.619063 171.687356 
L 207.909688 171.002558 
L 208.200312 170.917784 
L 208.926875 171.206896 
L 209.2175 170.920896 
L 209.944063 169.95356 
L 210.234688 169.943565 
L 210.815938 170.138003 
L 211.106562 169.885604 
L 211.5425 168.918963 
L 212.12375 167.500258 
L 212.559687 166.998035 
L 213.431563 166.471122 
L 213.8675 165.783343 
L 214.884688 164.063016 
L 215.465937 163.588509 
L 215.756563 163.535582 
L 216.1925 163.741417 
L 216.77375 164.056641 
L 217.064375 163.896778 
L 217.355 163.439561 
L 217.93625 161.914501 
L 218.5175 160.428044 
L 218.808125 160.047485 
L 219.09875 159.999393 
L 219.970625 160.480625 
L 220.26125 160.147122 
L 220.697188 158.962279 
L 221.569063 156.39114 
L 223.022188 153.61251 
L 224.184687 151.739599 
L 224.765938 149.926217 
L 225.4925 147.710673 
L 226.509688 145.200938 
L 227.672188 141.589396 
L 228.253438 140.509341 
L 229.270625 138.998017 
L 229.706563 137.554944 
L 230.1425 135.124992 
L 231.305 127.923246 
L 232.031563 125.341419 
L 233.04875 122.509233 
L 233.775313 120.304513 
L 234.356562 117.693756 
L 235.228438 113.279192 
L 235.519063 112.796122 
L 235.664375 112.933488 
L 235.955 113.959602 
L 236.681563 118.563924 
L 237.553438 124.50852 
L 238.134688 130.740997 
L 238.86125 141.307011 
L 239.733125 157.371815 
L 240.459688 174.268504 
L 241.476875 204.184208 
L 242.639375 236.304304 
L 243.51125 254.324561 
L 244.237813 265.200529 
L 244.819063 271.208016 
L 245.400313 274.893767 
L 245.981562 277.054206 
L 246.4175 277.966622 
L 246.708125 278.15775 
L 246.99875 277.943555 
L 247.289375 277.340012 
L 248.451875 274.185345 
L 249.614375 272.413949 
L 250.340937 270.398147 
L 251.64875 266.018757 
L 253.101875 260.187303 
L 254.119063 256.13929 
L 254.990938 253.487116 
L 256.008125 251.122641 
L 257.46125 246.06794 
L 257.897188 245.638334 
L 258.333125 245.301479 
L 258.62375 244.782185 
L 259.205 243.02526 
L 259.78625 241.451174 
L 260.222188 240.827862 
L 260.94875 240.306105 
L 261.820625 239.640579 
L 262.256563 238.994514 
L 262.6925 237.694169 
L 263.419062 234.19267 
L 264.145625 231.079525 
L 264.43625 230.401343 
L 264.726875 230.182447 
L 265.0175 230.367247 
L 265.744062 231.114058 
L 266.034688 231.090268 
L 267.3425 230.359393 
L 268.069063 230.05595 
L 268.650312 229.887607 
L 269.08625 229.437726 
L 269.6675 228.281163 
L 270.394063 226.889859 
L 270.684687 226.686608 
L 271.556562 226.501987 
L 271.9925 225.886569 
L 274.026875 222.399044 
L 274.3175 222.324862 
L 274.753438 222.53891 
L 275.334688 222.874756 
L 275.770625 222.809891 
L 276.351875 222.401287 
L 279.403437 219.518176 
L 279.984688 218.818469 
L 280.275313 218.807302 
L 280.565938 219.095386 
L 281.437813 220.269024 
L 281.87375 220.343607 
L 282.455 220.348391 
L 283.181563 220.684226 
L 283.762812 220.854468 
L 284.634688 220.831655 
L 285.070625 220.653807 
L 285.797188 220.0349 
L 287.68625 218.063902 
L 288.84875 216.487816 
L 289.139375 216.592117 
L 289.575312 217.216807 
L 290.01125 217.736534 
L 290.301875 217.709916 
L 290.5925 217.382021 
L 291.464375 216.120751 
L 292.772188 214.998034 
L 294.225313 212.916518 
L 294.515938 212.844708 
L 294.951875 213.011417 
L 295.533125 213.262343 
L 295.969063 213.151227 
L 298.439375 211.855731 
L 299.165938 211.687249 
L 300.328438 211.09669 
L 300.764375 211.26331 
L 301.490938 211.625099 
L 301.781563 211.534163 
L 302.362813 210.951369 
L 302.79875 210.689234 
L 303.089375 210.797429 
L 303.525313 211.327039 
L 304.251875 212.245109 
L 304.5425 212.321699 
L 304.978438 212.110942 
L 305.559687 211.797579 
L 306.431563 211.625707 
L 306.8675 211.17328 
L 307.884688 209.78637 
L 308.320625 209.631154 
L 309.483125 209.523671 
L 310.790938 209.171406 
L 311.662813 209.647959 
L 311.953438 209.46096 
L 312.389375 209.0868 
L 312.68 209.084687 
L 313.551875 209.622274 
L 313.8425 209.386648 
L 315.150313 207.662742 
L 315.876875 207.337321 
L 316.458125 207.311316 
L 317.765938 207.611565 
L 318.347188 207.452708 
L 318.637812 207.619508 
L 319.655 208.677059 
L 320.090937 208.456561 
L 320.526875 208.25248 
L 321.108125 208.077041 
L 321.39875 207.730245 
L 322.706563 205.607364 
L 323.1425 205.465864 
L 323.578438 205.596527 
L 324.740938 206.089007 
L 325.4675 206.191692 
L 325.903437 206.001369 
L 326.920625 205.14566 
L 327.21125 205.33965 
L 328.37375 206.717302 
L 328.809687 206.623236 
L 329.53625 206.110999 
L 330.262812 205.285925 
L 330.989375 204.349279 
L 331.28 204.251364 
L 331.570625 204.485953 
L 331.86125 205.081429 
L 332.4425 207.050756 
L 333.314375 210.078362 
L 333.750313 210.801639 
L 334.18625 210.975093 
L 334.7675 211.077504 
L 335.784688 211.497285 
L 336.075312 211.302965 
L 336.656563 210.489485 
L 337.67375 208.949606 
L 339.126875 207.455442 
L 339.562813 207.226867 
L 339.853438 207.319346 
L 340.725313 207.851381 
L 341.015938 207.761695 
L 342.469063 206.897978 
L 343.195625 206.928385 
L 343.631563 207.165534 
L 344.939375 208.297967 
L 345.375313 208.231889 
L 346.828438 207.584281 
L 347.990938 207.226109 
L 348.426875 207.479718 
L 349.444063 208.458613 
L 349.734688 208.437903 
L 350.025313 208.209817 
L 350.606562 207.357726 
L 351.187813 206.573384 
L 351.478438 206.493781 
L 351.769063 206.717085 
L 352.205 207.511533 
L 353.512812 210.339423 
L 353.658125 210.405303 
L 353.803438 210.340586 
L 354.094063 209.789226 
L 355.11125 206.627912 
L 355.401875 206.444276 
L 356.419062 206.520619 
L 357.145625 206.194478 
L 358.0175 206.005374 
L 358.453438 205.565651 
L 359.18 204.836189 
L 359.470625 204.793447 
L 359.906563 205.028088 
L 361.069063 205.964914 
L 361.650313 206.088966 
L 362.231562 206.050391 
L 362.958125 205.719105 
L 363.394063 205.608277 
L 364.120625 205.49851 
L 364.556563 205.075195 
L 365.137812 204.51999 
L 365.57375 204.486992 
L 366.73625 204.844539 
L 367.172188 204.630485 
L 368.625313 203.484053 
L 369.206563 203.623451 
L 369.933125 203.993516 
L 370.514375 204.654613 
L 371.240938 205.448048 
L 372.258125 206.183682 
L 372.54875 206.18847 
L 372.839375 205.967214 
L 373.275313 205.224492 
L 374.2925 203.193144 
L 374.583125 203.073592 
L 374.87375 203.2786 
L 375.890938 204.481559 
L 376.6175 204.709308 
L 377.19875 205.457669 
L 377.634688 205.850763 
L 378.070625 205.826543 
L 378.651875 205.707008 
L 379.233125 205.659419 
L 379.669062 205.320953 
L 380.395625 204.527497 
L 380.68625 204.435907 
L 381.703438 204.442884 
L 382.284688 203.796644 
L 382.720625 203.461993 
L 383.01125 203.520109 
L 383.447188 203.957688 
L 384.028437 204.505163 
L 384.609688 204.62055 
L 385.190938 204.772623 
L 385.9175 205.015472 
L 386.208125 204.949262 
L 386.49875 204.711336 
L 386.934687 204.01844 
L 387.806563 202.434363 
L 388.097188 202.288637 
L 388.387812 202.387668 
L 389.98625 203.701226 
L 390.5675 204.148344 
L 391.003438 204.143312 
L 391.73 203.926885 
L 392.020625 204.045802 
L 393.037813 204.771693 
L 393.328438 204.575341 
L 394.345625 203.285385 
L 394.63625 203.419674 
L 395.79875 204.622782 
L 396.089375 204.482219 
L 397.397188 203.496185 
L 398.12375 203.222399 
L 398.559687 203.25384 
L 402.1925 204.514476 
L 402.483125 204.41239 
L 402.919062 203.954368 
L 404.5175 201.563516 
L 404.808125 201.426099 
L 405.09875 201.473461 
L 405.534688 201.831061 
L 406.115938 202.647041 
L 406.8425 203.826095 
L 407.133125 203.826518 
L 407.42375 203.356672 
L 408.295625 201.220732 
L 408.58625 201.048293 
L 408.876875 201.198602 
L 409.458125 201.974208 
L 410.184687 202.916719 
L 410.620625 203.23289 
L 411.056563 203.328471 
L 412.655 203.226667 
L 413.526875 202.902474 
L 415.415938 202.966441 
L 415.851875 202.72118 
L 416.72375 202.087925 
L 417.159688 202.113709 
L 417.88625 202.254434 
L 419.484688 202.019109 
L 420.647188 202.089271 
L 420.7925 202.190606 
L 420.7925 202.190606 
" style="fill:none;stroke:#ff0000;stroke-linecap:square;stroke-width:1.5;"/>
   </g>
   <g id="patch_3">
    <path d="M 63.643437 290.25375 
L 63.643437 24.14175 
" style="fill:none;stroke:#ffffff;stroke-linecap:square;stroke-linejoin:miter;"/>
   </g>
   <g id="patch_4">
    <path d="M 420.763438 290.25375 
L 420.763438 24.14175 
" style="fill:none;stroke:#ffffff;stroke-linecap:square;stroke-linejoin:miter;"/>
   </g>
   <g id="patch_5">
    <path d="M 63.643437 290.25375 
L 420.763438 290.25375 
" style="fill:none;stroke:#ffffff;stroke-linecap:square;stroke-linejoin:miter;"/>
   </g>
   <g id="patch_6">
    <path d="M 63.643437 24.14175 
L 420.763438 24.14175 
" style="fill:none;stroke:#ffffff;stroke-linecap:square;stroke-linejoin:miter;"/>
   </g>
   <g id="text_17">
    <!-- CRN Spektrum -->
    <defs>
     <path d="M 64.40625 67.28125 
L 64.40625 56.890625 
Q 59.421875 61.53125 53.78125 63.8125 
Q 48.140625 66.109375 41.796875 66.109375 
Q 29.296875 66.109375 22.65625 58.46875 
Q 16.015625 50.828125 16.015625 36.375 
Q 16.015625 21.96875 22.65625 14.328125 
Q 29.296875 6.6875 41.796875 6.6875 
Q 48.140625 6.6875 53.78125 8.984375 
Q 59.421875 11.28125 64.40625 15.921875 
L 64.40625 5.609375 
Q 59.234375 2.09375 53.4375 0.328125 
Q 47.65625 -1.421875 41.21875 -1.421875 
Q 24.65625 -1.421875 15.125 8.703125 
Q 5.609375 18.84375 5.609375 36.375 
Q 5.609375 53.953125 15.125 64.078125 
Q 24.65625 74.21875 41.21875 74.21875 
Q 47.75 74.21875 53.53125 72.484375 
Q 59.328125 70.75 64.40625 67.28125 
" id="DejaVuSans-43"/>
     <path d="M 44.390625 34.1875 
Q 47.5625 33.109375 50.5625 29.59375 
Q 53.5625 26.078125 56.59375 19.921875 
L 66.609375 0 
L 56 0 
L 46.6875 18.703125 
Q 43.0625 26.03125 39.671875 28.421875 
Q 36.28125 30.8125 30.421875 30.8125 
L 19.671875 30.8125 
L 19.671875 0 
L 9.8125 0 
L 9.8125 72.90625 
L 32.078125 72.90625 
Q 44.578125 72.90625 50.734375 67.671875 
Q 56.890625 62.453125 56.890625 51.90625 
Q 56.890625 45.015625 53.6875 40.46875 
Q 50.484375 35.9375 44.390625 34.1875 
M 19.671875 64.796875 
L 19.671875 38.921875 
L 32.078125 38.921875 
Q 39.203125 38.921875 42.84375 42.21875 
Q 46.484375 45.515625 46.484375 51.90625 
Q 46.484375 58.296875 42.84375 61.546875 
Q 39.203125 64.796875 32.078125 64.796875 
z
" id="DejaVuSans-52"/>
     <path d="M 9.8125 72.90625 
L 23.09375 72.90625 
L 55.421875 11.921875 
L 55.421875 72.90625 
L 64.984375 72.90625 
L 64.984375 0 
L 51.703125 0 
L 19.390625 60.984375 
L 19.390625 0 
L 9.8125 0 
z
" id="DejaVuSans-4e"/>
     <path d="M 53.515625 70.515625 
L 53.515625 60.890625 
Q 47.90625 63.578125 42.921875 64.890625 
Q 37.9375 66.21875 33.296875 66.21875 
Q 25.25 66.21875 20.875 63.09375 
Q 16.5 59.96875 16.5 54.203125 
Q 16.5 49.359375 19.40625 46.890625 
Q 22.3125 44.4375 30.421875 42.921875 
L 36.375 41.703125 
Q 47.40625 39.59375 52.65625 34.296875 
Q 57.90625 29 57.90625 20.125 
Q 57.90625 9.515625 50.796875 4.046875 
Q 43.703125 -1.421875 29.984375 -1.421875 
Q 24.8125 -1.421875 18.96875 -0.25 
Q 13.140625 0.921875 6.890625 3.21875 
L 6.890625 13.375 
Q 12.890625 10.015625 18.65625 8.296875 
Q 24.421875 6.59375 29.984375 6.59375 
Q 38.421875 6.59375 43.015625 9.90625 
Q 47.609375 13.234375 47.609375 19.390625 
Q 47.609375 24.75 44.3125 27.78125 
Q 41.015625 30.8125 33.5 32.328125 
L 27.484375 33.5 
Q 16.453125 35.6875 11.515625 40.375 
Q 6.59375 45.0625 6.59375 53.421875 
Q 6.59375 63.09375 13.40625 68.65625 
Q 20.21875 74.21875 32.171875 74.21875 
Q 37.3125 74.21875 42.625 73.28125 
Q 47.953125 72.359375 53.515625 70.515625 
" id="DejaVuSans-53"/>
     <path d="M 18.109375 8.203125 
L 18.109375 -20.796875 
L 9.078125 -20.796875 
L 9.078125 54.6875 
L 18.109375 54.6875 
L 18.109375 46.390625 
Q 20.953125 51.265625 25.265625 53.625 
Q 29.59375 56 35.59375 56 
Q 45.5625 56 51.78125 48.09375 
Q 58.015625 40.1875 58.015625 27.296875 
Q 58.015625 14.40625 51.78125 6.484375 
Q 45.5625 -1.421875 35.59375 -1.421875 
Q 29.59375 -1.421875 25.265625 0.953125 
Q 20.953125 3.328125 18.109375 8.203125 
M 48.6875 27.296875 
Q 48.6875 37.203125 44.609375 42.84375 
Q 40.53125 48.484375 33.40625 48.484375 
Q 26.265625 48.484375 22.1875 42.84375 
Q 18.109375 37.203125 18.109375 27.296875 
Q 18.109375 17.390625 22.1875 11.75 
Q 26.265625 6.109375 33.40625 6.109375 
Q 40.53125 6.109375 44.609375 11.75 
Q 48.6875 17.390625 48.6875 27.296875 
" id="DejaVuSans-70"/>
     <path d="M 18.3125 70.21875 
L 18.3125 54.6875 
L 36.8125 54.6875 
L 36.8125 47.703125 
L 18.3125 47.703125 
L 18.3125 18.015625 
Q 18.3125 11.328125 20.140625 9.421875 
Q 21.96875 7.515625 27.59375 7.515625 
L 36.8125 7.515625 
L 36.8125 0 
L 27.59375 0 
Q 17.1875 0 13.234375 3.875 
Q 9.28125 7.765625 9.28125 18.015625 
L 9.28125 47.703125 
L 2.6875 47.703125 
L 2.6875 54.6875 
L 9.28125 54.6875 
L 9.28125 70.21875 
z
" id="DejaVuSans-74"/>
     <path d="M 52 44.1875 
Q 55.375 50.25 60.0625 53.125 
Q 64.75 56 71.09375 56 
Q 79.640625 56 84.28125 50.015625 
Q 88.921875 44.046875 88.921875 33.015625 
L 88.921875 0 
L 79.890625 0 
L 79.890625 32.71875 
Q 79.890625 40.578125 77.09375 44.375 
Q 74.3125 48.1875 68.609375 48.1875 
Q 61.625 48.1875 57.5625 43.546875 
Q 53.515625 38.921875 53.515625 30.90625 
L 53.515625 0 
L 44.484375 0 
L 44.484375 32.71875 
Q 44.484375 40.625 41.703125 44.40625 
Q 38.921875 48.1875 33.109375 48.1875 
Q 26.21875 48.1875 22.15625 43.53125 
Q 18.109375 38.875 18.109375 30.90625 
L 18.109375 0 
L 9.078125 0 
L 9.078125 54.6875 
L 18.109375 54.6875 
L 18.109375 46.1875 
Q 21.1875 51.21875 25.484375 53.609375 
Q 29.78125 56 35.6875 56 
Q 41.65625 56 45.828125 52.96875 
Q 50 49.953125 52 44.1875 
" id="DejaVuSans-6d"/>
    </defs>
    <g transform="translate(189.398188 18.14175)scale(0.144 -0.144)">
     <use xlink:href="#DejaVuSans-43"/>
     <use x="69.824219" xlink:href="#DejaVuSans-52"/>
     <use x="139.306641" xlink:href="#DejaVuSans-4e"/>
     <use x="214.111328" xlink:href="#DejaVuSans-20"/>
     <use x="245.898438" xlink:href="#DejaVuSans-53"/>
     <use x="309.375" xlink:href="#DejaVuSans-70"/>
     <use x="372.851562" xlink:href="#DejaVuSans-65"/>
     <use x="434.375" xlink:href="#DejaVuSans-6b"/>
     <use x="492.285156" xlink:href="#DejaVuSans-74"/>
     <use x="531.494141" xlink:href="#DejaVuSans-72"/>
     <use x="572.607422" xlink:href="#DejaVuSans-75"/>
     <use x="635.986328" xlink:href="#DejaVuSans-6d"/>
    </g>
   </g>
   <g id="legend_1">
    <g id="patch_7">
     <path d="M 353.59 61.498 
L 413.763438 61.498 
Q 415.763438 61.498 415.763438 59.498 
L 415.763438 31.14175 
Q 415.763438 29.14175 413.763438 29.14175 
L 353.59 29.14175 
Q 351.59 29.14175 351.59 31.14175 
L 351.59 59.498 
Q 351.59 61.498 353.59 61.498 
z
" style="fill:#e5e5e5;opacity:0.8;stroke:#cccccc;stroke-linejoin:miter;stroke-width:0.5;"/>
    </g>
    <g id="line2d_31">
     <path d="M 355.59 37.240187 
L 375.59 37.240187 
" style="fill:none;stroke:#0000ff;stroke-linecap:square;stroke-width:1.5;"/>
    </g>
    <g id="line2d_32"/>
    <g id="text_18">
     <!--  real -->
     <defs>
      <path d="M 9.421875 75.984375 
L 18.40625 75.984375 
L 18.40625 0 
L 9.421875 0 
z
" id="DejaVuSans-6c"/>
     </defs>
     <g transform="translate(383.59 40.740187)scale(0.1 -0.1)">
      <use xlink:href="#DejaVuSans-20"/>
      <use x="31.787109" xlink:href="#DejaVuSans-72"/>
      <use x="72.869141" xlink:href="#DejaVuSans-65"/>
      <use x="134.392578" xlink:href="#DejaVuSans-61"/>
      <use x="195.671875" xlink:href="#DejaVuSans-6c"/>
     </g>
    </g>
    <g id="line2d_33">
     <path d="M 355.59 51.918312 
L 375.59 51.918312 
" style="fill:none;stroke:#ff0000;stroke-linecap:square;stroke-width:1.5;"/>
    </g>
    <g id="line2d_34"/>
    <g id="text_19">
     <!--  imag -->
     <defs>
      <path d="M 9.421875 54.6875 
L 18.40625 54.6875 
L 18.40625 0 
L 9.421875 0 
z
M 9.421875 75.984375 
L 18.40625 75.984375 
L 18.40625 64.59375 
L 9.421875 64.59375 
z
" id="DejaVuSans-69"/>
      <path d="M 45.40625 27.984375 
Q 45.40625 37.75 41.375 43.109375 
Q 37.359375 48.484375 30.078125 48.484375 
Q 22.859375 48.484375 18.828125 43.109375 
Q 14.796875 37.75 14.796875 27.984375 
Q 14.796875 18.265625 18.828125 12.890625 
Q 22.859375 7.515625 30.078125 7.515625 
Q 37.359375 7.515625 41.375 12.890625 
Q 45.40625 18.265625 45.40625 27.984375 
M 54.390625 6.78125 
Q 54.390625 -7.171875 48.1875 -13.984375 
Q 42 -20.796875 29.203125 -20.796875 
Q 24.46875 -20.796875 20.265625 -20.09375 
Q 16.0625 -19.390625 12.109375 -17.921875 
L 12.109375 -9.1875 
Q 16.0625 -11.328125 19.921875 -12.34375 
Q 23.78125 -13.375 27.78125 -13.375 
Q 36.625 -13.375 41.015625 -8.765625 
Q 45.40625 -4.15625 45.40625 5.171875 
L 45.40625 9.625 
Q 42.625 4.78125 38.28125 2.390625 
Q 33.9375 0 27.875 0 
Q 17.828125 0 11.671875 7.65625 
Q 5.515625 15.328125 5.515625 27.984375 
Q 5.515625 40.671875 11.671875 48.328125 
Q 17.828125 56 27.875 56 
Q 33.9375 56 38.28125 53.609375 
Q 42.625 51.21875 45.40625 46.390625 
L 45.40625 54.6875 
L 54.390625 54.6875 
z
" id="DejaVuSans-67"/>
     </defs>
     <g transform="translate(383.59 55.418312)scale(0.1 -0.1)">
      <use xlink:href="#DejaVuSans-20"/>
      <use x="31.787109" xlink:href="#DejaVuSans-69"/>
      <use x="59.570312" xlink:href="#DejaVuSans-6d"/>
      <use x="156.982422" xlink:href="#DejaVuSans-61"/>
      <use x="218.261719" xlink:href="#DejaVuSans-67"/>
     </g>
    </g>
   </g>
  </g>
 </g>
 <defs>
  <clipPath id="p1a610f5159">
   <rect height="266.112" width="357.12" x="63.643437" y="24.14175"/>
  </clipPath>
 </defs>
</svg>
