<?xml version="1.0" encoding="utf-8" standalone="no"?>
<!DOCTYPE svg PUBLIC "-//W3C//DTD SVG 1.1//EN"
  "http://www.w3.org/Graphics/SVG/1.1/DTD/svg11.dtd">
<!-- Created with matplotlib (http://matplotlib.org/) -->
<svg height="329pt" version="1.1" viewBox="0 0 413 329" width="413pt" xmlns="http://www.w3.org/2000/svg" xmlns:xlink="http://www.w3.org/1999/xlink">
 <defs>
  <style type="text/css">
*{stroke-linecap:butt;stroke-linejoin:round;}
  </style>
 </defs>
 <g id="figure_1">
  <g id="patch_1">
   <path d="M 0 329.745625 
L 413.536875 329.745625 
L 413.536875 0 
L 0 0 
z
" style="fill:#ffffff;"/>
  </g>
  <g id="axes_1">
   <g id="patch_2">
    <path d="M 45.716875 290.25375 
L 402.836875 290.25375 
L 402.836875 24.14175 
L 45.716875 24.14175 
z
" style="fill:#e5e5e5;"/>
   </g>
   <g id="matplotlib.axis_1">
    <g id="xtick_1">
     <g id="line2d_1">
      <path clip-path="url(#p383229c453)" d="M 56.867352 290.25375 
L 56.867352 24.14175 
" style="fill:none;stroke:#ffffff;stroke-linecap:square;stroke-width:0.8;"/>
     </g>
     <g id="line2d_2">
      <defs>
       <path d="M 0 0 
L 0 3.5 
" id="mb352eaf980" style="stroke:#555555;stroke-width:0.8;"/>
      </defs>
      <g>
       <use style="fill:#555555;stroke:#555555;stroke-width:0.8;" x="56.867352" xlink:href="#mb352eaf980" y="290.25375"/>
      </g>
     </g>
     <g id="text_1">
      <!-- ${10^{-5}}$ -->
      <defs>
       <path d="M 12.40625 8.296875 
L 28.515625 8.296875 
L 28.515625 63.921875 
L 10.984375 60.40625 
L 10.984375 69.390625 
L 28.421875 72.90625 
L 38.28125 72.90625 
L 38.28125 8.296875 
L 54.390625 8.296875 
L 54.390625 0 
L 12.40625 0 
z
" id="DejaVuSans-31"/>
       <path d="M 31.78125 66.40625 
Q 24.171875 66.40625 20.328125 58.90625 
Q 16.5 51.421875 16.5 36.375 
Q 16.5 21.390625 20.328125 13.890625 
Q 24.171875 6.390625 31.78125 6.390625 
Q 39.453125 6.390625 43.28125 13.890625 
Q 47.125 21.390625 47.125 36.375 
Q 47.125 51.421875 43.28125 58.90625 
Q 39.453125 66.40625 31.78125 66.40625 
M 31.78125 74.21875 
Q 44.046875 74.21875 50.515625 64.515625 
Q 56.984375 54.828125 56.984375 36.375 
Q 56.984375 17.96875 50.515625 8.265625 
Q 44.046875 -1.421875 31.78125 -1.421875 
Q 19.53125 -1.421875 13.0625 8.265625 
Q 6.59375 17.96875 6.59375 36.375 
Q 6.59375 54.828125 13.0625 64.515625 
Q 19.53125 74.21875 31.78125 74.21875 
" id="DejaVuSans-30"/>
       <path d="M 10.59375 35.5 
L 73.1875 35.5 
L 73.1875 27.203125 
L 10.59375 27.203125 
z
" id="DejaVuSans-2212"/>
       <path d="M 10.796875 72.90625 
L 49.515625 72.90625 
L 49.515625 64.59375 
L 19.828125 64.59375 
L 19.828125 46.734375 
Q 21.96875 47.46875 24.109375 47.828125 
Q 26.265625 48.1875 28.421875 48.1875 
Q 40.625 48.1875 47.75 41.5 
Q 54.890625 34.8125 54.890625 23.390625 
Q 54.890625 11.625 47.5625 5.09375 
Q 40.234375 -1.421875 26.90625 -1.421875 
Q 22.3125 -1.421875 17.546875 -0.640625 
Q 12.796875 0.140625 7.71875 1.703125 
L 7.71875 11.625 
Q 12.109375 9.234375 16.796875 8.0625 
Q 21.484375 6.890625 26.703125 6.890625 
Q 35.15625 6.890625 40.078125 11.328125 
Q 45.015625 15.765625 45.015625 23.390625 
Q 45.015625 31 40.078125 35.4375 
Q 35.15625 39.890625 26.703125 39.890625 
Q 22.75 39.890625 18.8125 39.015625 
Q 14.890625 38.140625 10.796875 36.28125 
z
" id="DejaVuSans-35"/>
      </defs>
      <g style="fill:#555555;" transform="translate(45.117352 304.852187)scale(0.1 -0.1)">
       <use transform="translate(0 0.684375)" xlink:href="#DejaVuSans-31"/>
       <use transform="translate(63.623047 0.684375)" xlink:href="#DejaVuSans-30"/>
       <use transform="translate(128.203125 38.965625)scale(0.7)" xlink:href="#DejaVuSans-2212"/>
       <use transform="translate(186.855469 38.965625)scale(0.7)" xlink:href="#DejaVuSans-35"/>
      </g>
     </g>
    </g>
    <g id="xtick_2">
     <g id="line2d_3">
      <path clip-path="url(#p383229c453)" d="M 126.940279 290.25375 
L 126.940279 24.14175 
" style="fill:none;stroke:#ffffff;stroke-linecap:square;stroke-width:0.8;"/>
     </g>
     <g id="line2d_4">
      <g>
       <use style="fill:#555555;stroke:#555555;stroke-width:0.8;" x="126.940279" xlink:href="#mb352eaf980" y="290.25375"/>
      </g>
     </g>
     <g id="text_2">
      <!-- ${10^{-4}}$ -->
      <defs>
       <path d="M 37.796875 64.3125 
L 12.890625 25.390625 
L 37.796875 25.390625 
z
M 35.203125 72.90625 
L 47.609375 72.90625 
L 47.609375 25.390625 
L 58.015625 25.390625 
L 58.015625 17.1875 
L 47.609375 17.1875 
L 47.609375 0 
L 37.796875 0 
L 37.796875 17.1875 
L 4.890625 17.1875 
L 4.890625 26.703125 
z
" id="DejaVuSans-34"/>
      </defs>
      <g style="fill:#555555;" transform="translate(115.190279 304.852187)scale(0.1 -0.1)">
       <use transform="translate(0 0.684375)" xlink:href="#DejaVuSans-31"/>
       <use transform="translate(63.623047 0.684375)" xlink:href="#DejaVuSans-30"/>
       <use transform="translate(128.203125 38.965625)scale(0.7)" xlink:href="#DejaVuSans-2212"/>
       <use transform="translate(186.855469 38.965625)scale(0.7)" xlink:href="#DejaVuSans-34"/>
      </g>
     </g>
    </g>
    <g id="xtick_3">
     <g id="line2d_5">
      <path clip-path="url(#p383229c453)" d="M 197.013207 290.25375 
L 197.013207 24.14175 
" style="fill:none;stroke:#ffffff;stroke-linecap:square;stroke-width:0.8;"/>
     </g>
     <g id="line2d_6">
      <g>
       <use style="fill:#555555;stroke:#555555;stroke-width:0.8;" x="197.013207" xlink:href="#mb352eaf980" y="290.25375"/>
      </g>
     </g>
     <g id="text_3">
      <!-- ${10^{-3}}$ -->
      <defs>
       <path d="M 40.578125 39.3125 
Q 47.65625 37.796875 51.625 33 
Q 55.609375 28.21875 55.609375 21.1875 
Q 55.609375 10.40625 48.1875 4.484375 
Q 40.765625 -1.421875 27.09375 -1.421875 
Q 22.515625 -1.421875 17.65625 -0.515625 
Q 12.796875 0.390625 7.625 2.203125 
L 7.625 11.71875 
Q 11.71875 9.328125 16.59375 8.109375 
Q 21.484375 6.890625 26.8125 6.890625 
Q 36.078125 6.890625 40.9375 10.546875 
Q 45.796875 14.203125 45.796875 21.1875 
Q 45.796875 27.640625 41.28125 31.265625 
Q 36.765625 34.90625 28.71875 34.90625 
L 20.21875 34.90625 
L 20.21875 43.015625 
L 29.109375 43.015625 
Q 36.375 43.015625 40.234375 45.921875 
Q 44.09375 48.828125 44.09375 54.296875 
Q 44.09375 59.90625 40.109375 62.90625 
Q 36.140625 65.921875 28.71875 65.921875 
Q 24.65625 65.921875 20.015625 65.03125 
Q 15.375 64.15625 9.8125 62.3125 
L 9.8125 71.09375 
Q 15.4375 72.65625 20.34375 73.4375 
Q 25.25 74.21875 29.59375 74.21875 
Q 40.828125 74.21875 47.359375 69.109375 
Q 53.90625 64.015625 53.90625 55.328125 
Q 53.90625 49.265625 50.4375 45.09375 
Q 46.96875 40.921875 40.578125 39.3125 
" id="DejaVuSans-33"/>
      </defs>
      <g style="fill:#555555;" transform="translate(185.263207 304.852187)scale(0.1 -0.1)">
       <use transform="translate(0 0.765625)" xlink:href="#DejaVuSans-31"/>
       <use transform="translate(63.623047 0.765625)" xlink:href="#DejaVuSans-30"/>
       <use transform="translate(128.203125 39.046875)scale(0.7)" xlink:href="#DejaVuSans-2212"/>
       <use transform="translate(186.855469 39.046875)scale(0.7)" xlink:href="#DejaVuSans-33"/>
      </g>
     </g>
    </g>
    <g id="xtick_4">
     <g id="line2d_7">
      <path clip-path="url(#p383229c453)" d="M 267.086135 290.25375 
L 267.086135 24.14175 
" style="fill:none;stroke:#ffffff;stroke-linecap:square;stroke-width:0.8;"/>
     </g>
     <g id="line2d_8">
      <g>
       <use style="fill:#555555;stroke:#555555;stroke-width:0.8;" x="267.086135" xlink:href="#mb352eaf980" y="290.25375"/>
      </g>
     </g>
     <g id="text_4">
      <!-- ${10^{-2}}$ -->
      <defs>
       <path d="M 19.1875 8.296875 
L 53.609375 8.296875 
L 53.609375 0 
L 7.328125 0 
L 7.328125 8.296875 
Q 12.9375 14.109375 22.625 23.890625 
Q 32.328125 33.6875 34.8125 36.53125 
Q 39.546875 41.84375 41.421875 45.53125 
Q 43.3125 49.21875 43.3125 52.78125 
Q 43.3125 58.59375 39.234375 62.25 
Q 35.15625 65.921875 28.609375 65.921875 
Q 23.96875 65.921875 18.8125 64.3125 
Q 13.671875 62.703125 7.8125 59.421875 
L 7.8125 69.390625 
Q 13.765625 71.78125 18.9375 73 
Q 24.125 74.21875 28.421875 74.21875 
Q 39.75 74.21875 46.484375 68.546875 
Q 53.21875 62.890625 53.21875 53.421875 
Q 53.21875 48.921875 51.53125 44.890625 
Q 49.859375 40.875 45.40625 35.40625 
Q 44.1875 33.984375 37.640625 27.21875 
Q 31.109375 20.453125 19.1875 8.296875 
" id="DejaVuSans-32"/>
      </defs>
      <g style="fill:#555555;" transform="translate(255.336135 304.852187)scale(0.1 -0.1)">
       <use transform="translate(0 0.765625)" xlink:href="#DejaVuSans-31"/>
       <use transform="translate(63.623047 0.765625)" xlink:href="#DejaVuSans-30"/>
       <use transform="translate(128.203125 39.046875)scale(0.7)" xlink:href="#DejaVuSans-2212"/>
       <use transform="translate(186.855469 39.046875)scale(0.7)" xlink:href="#DejaVuSans-32"/>
      </g>
     </g>
    </g>
    <g id="xtick_5">
     <g id="line2d_9">
      <path clip-path="url(#p383229c453)" d="M 337.159062 290.25375 
L 337.159062 24.14175 
" style="fill:none;stroke:#ffffff;stroke-linecap:square;stroke-width:0.8;"/>
     </g>
     <g id="line2d_10">
      <g>
       <use style="fill:#555555;stroke:#555555;stroke-width:0.8;" x="337.159062" xlink:href="#mb352eaf980" y="290.25375"/>
      </g>
     </g>
     <g id="text_5">
      <!-- ${10^{-1}}$ -->
      <g style="fill:#555555;" transform="translate(325.409062 304.852187)scale(0.1 -0.1)">
       <use transform="translate(0 0.684375)" xlink:href="#DejaVuSans-31"/>
       <use transform="translate(63.623047 0.684375)" xlink:href="#DejaVuSans-30"/>
       <use transform="translate(128.203125 38.965625)scale(0.7)" xlink:href="#DejaVuSans-2212"/>
       <use transform="translate(186.855469 38.965625)scale(0.7)" xlink:href="#DejaVuSans-31"/>
      </g>
     </g>
    </g>
    <g id="xtick_6">
     <g id="line2d_11">
      <defs>
       <path d="M 0 0 
L 0 2 
" id="mba5a8b7ebb" style="stroke:#555555;stroke-width:0.6;"/>
      </defs>
      <g>
       <use style="fill:#555555;stroke:#555555;stroke-width:0.6;" x="46.012918" xlink:href="#mba5a8b7ebb" y="290.25375"/>
      </g>
     </g>
    </g>
    <g id="xtick_7">
     <g id="line2d_12">
      <g>
       <use style="fill:#555555;stroke:#555555;stroke-width:0.6;" x="50.076583" xlink:href="#mba5a8b7ebb" y="290.25375"/>
      </g>
     </g>
    </g>
    <g id="xtick_8">
     <g id="line2d_13">
      <g>
       <use style="fill:#555555;stroke:#555555;stroke-width:0.6;" x="53.66099" xlink:href="#mba5a8b7ebb" y="290.25375"/>
      </g>
     </g>
    </g>
    <g id="xtick_9">
     <g id="line2d_14">
      <g>
       <use style="fill:#555555;stroke:#555555;stroke-width:0.6;" x="77.961405" xlink:href="#mba5a8b7ebb" y="290.25375"/>
      </g>
     </g>
    </g>
    <g id="xtick_10">
     <g id="line2d_15">
      <g>
       <use style="fill:#555555;stroke:#555555;stroke-width:0.6;" x="90.300635" xlink:href="#mba5a8b7ebb" y="290.25375"/>
      </g>
     </g>
    </g>
    <g id="xtick_11">
     <g id="line2d_16">
      <g>
       <use style="fill:#555555;stroke:#555555;stroke-width:0.6;" x="99.055458" xlink:href="#mba5a8b7ebb" y="290.25375"/>
      </g>
     </g>
    </g>
    <g id="xtick_12">
     <g id="line2d_17">
      <g>
       <use style="fill:#555555;stroke:#555555;stroke-width:0.6;" x="105.846226" xlink:href="#mba5a8b7ebb" y="290.25375"/>
      </g>
     </g>
    </g>
    <g id="xtick_13">
     <g id="line2d_18">
      <g>
       <use style="fill:#555555;stroke:#555555;stroke-width:0.6;" x="111.394688" xlink:href="#mba5a8b7ebb" y="290.25375"/>
      </g>
     </g>
    </g>
    <g id="xtick_14">
     <g id="line2d_19">
      <g>
       <use style="fill:#555555;stroke:#555555;stroke-width:0.6;" x="116.085845" xlink:href="#mba5a8b7ebb" y="290.25375"/>
      </g>
     </g>
    </g>
    <g id="xtick_15">
     <g id="line2d_20">
      <g>
       <use style="fill:#555555;stroke:#555555;stroke-width:0.6;" x="120.149511" xlink:href="#mba5a8b7ebb" y="290.25375"/>
      </g>
     </g>
    </g>
    <g id="xtick_16">
     <g id="line2d_21">
      <g>
       <use style="fill:#555555;stroke:#555555;stroke-width:0.6;" x="123.733918" xlink:href="#mba5a8b7ebb" y="290.25375"/>
      </g>
     </g>
    </g>
    <g id="xtick_17">
     <g id="line2d_22">
      <g>
       <use style="fill:#555555;stroke:#555555;stroke-width:0.6;" x="148.034332" xlink:href="#mba5a8b7ebb" y="290.25375"/>
      </g>
     </g>
    </g>
    <g id="xtick_18">
     <g id="line2d_23">
      <g>
       <use style="fill:#555555;stroke:#555555;stroke-width:0.6;" x="160.373562" xlink:href="#mba5a8b7ebb" y="290.25375"/>
      </g>
     </g>
    </g>
    <g id="xtick_19">
     <g id="line2d_24">
      <g>
       <use style="fill:#555555;stroke:#555555;stroke-width:0.6;" x="169.128385" xlink:href="#mba5a8b7ebb" y="290.25375"/>
      </g>
     </g>
    </g>
    <g id="xtick_20">
     <g id="line2d_25">
      <g>
       <use style="fill:#555555;stroke:#555555;stroke-width:0.6;" x="175.919154" xlink:href="#mba5a8b7ebb" y="290.25375"/>
      </g>
     </g>
    </g>
    <g id="xtick_21">
     <g id="line2d_26">
      <g>
       <use style="fill:#555555;stroke:#555555;stroke-width:0.6;" x="181.467615" xlink:href="#mba5a8b7ebb" y="290.25375"/>
      </g>
     </g>
    </g>
    <g id="xtick_22">
     <g id="line2d_27">
      <g>
       <use style="fill:#555555;stroke:#555555;stroke-width:0.6;" x="186.158773" xlink:href="#mba5a8b7ebb" y="290.25375"/>
      </g>
     </g>
    </g>
    <g id="xtick_23">
     <g id="line2d_28">
      <g>
       <use style="fill:#555555;stroke:#555555;stroke-width:0.6;" x="190.222439" xlink:href="#mba5a8b7ebb" y="290.25375"/>
      </g>
     </g>
    </g>
    <g id="xtick_24">
     <g id="line2d_29">
      <g>
       <use style="fill:#555555;stroke:#555555;stroke-width:0.6;" x="193.806846" xlink:href="#mba5a8b7ebb" y="290.25375"/>
      </g>
     </g>
    </g>
    <g id="xtick_25">
     <g id="line2d_30">
      <g>
       <use style="fill:#555555;stroke:#555555;stroke-width:0.6;" x="218.10726" xlink:href="#mba5a8b7ebb" y="290.25375"/>
      </g>
     </g>
    </g>
    <g id="xtick_26">
     <g id="line2d_31">
      <g>
       <use style="fill:#555555;stroke:#555555;stroke-width:0.6;" x="230.44649" xlink:href="#mba5a8b7ebb" y="290.25375"/>
      </g>
     </g>
    </g>
    <g id="xtick_27">
     <g id="line2d_32">
      <g>
       <use style="fill:#555555;stroke:#555555;stroke-width:0.6;" x="239.201313" xlink:href="#mba5a8b7ebb" y="290.25375"/>
      </g>
     </g>
    </g>
    <g id="xtick_28">
     <g id="line2d_33">
      <g>
       <use style="fill:#555555;stroke:#555555;stroke-width:0.6;" x="245.992081" xlink:href="#mba5a8b7ebb" y="290.25375"/>
      </g>
     </g>
    </g>
    <g id="xtick_29">
     <g id="line2d_34">
      <g>
       <use style="fill:#555555;stroke:#555555;stroke-width:0.6;" x="251.540543" xlink:href="#mba5a8b7ebb" y="290.25375"/>
      </g>
     </g>
    </g>
    <g id="xtick_30">
     <g id="line2d_35">
      <g>
       <use style="fill:#555555;stroke:#555555;stroke-width:0.6;" x="256.231701" xlink:href="#mba5a8b7ebb" y="290.25375"/>
      </g>
     </g>
    </g>
    <g id="xtick_31">
     <g id="line2d_36">
      <g>
       <use style="fill:#555555;stroke:#555555;stroke-width:0.6;" x="260.295366" xlink:href="#mba5a8b7ebb" y="290.25375"/>
      </g>
     </g>
    </g>
    <g id="xtick_32">
     <g id="line2d_37">
      <g>
       <use style="fill:#555555;stroke:#555555;stroke-width:0.6;" x="263.879773" xlink:href="#mba5a8b7ebb" y="290.25375"/>
      </g>
     </g>
    </g>
    <g id="xtick_33">
     <g id="line2d_38">
      <g>
       <use style="fill:#555555;stroke:#555555;stroke-width:0.6;" x="288.180188" xlink:href="#mba5a8b7ebb" y="290.25375"/>
      </g>
     </g>
    </g>
    <g id="xtick_34">
     <g id="line2d_39">
      <g>
       <use style="fill:#555555;stroke:#555555;stroke-width:0.6;" x="300.519418" xlink:href="#mba5a8b7ebb" y="290.25375"/>
      </g>
     </g>
    </g>
    <g id="xtick_35">
     <g id="line2d_40">
      <g>
       <use style="fill:#555555;stroke:#555555;stroke-width:0.6;" x="309.274241" xlink:href="#mba5a8b7ebb" y="290.25375"/>
      </g>
     </g>
    </g>
    <g id="xtick_36">
     <g id="line2d_41">
      <g>
       <use style="fill:#555555;stroke:#555555;stroke-width:0.6;" x="316.065009" xlink:href="#mba5a8b7ebb" y="290.25375"/>
      </g>
     </g>
    </g>
    <g id="xtick_37">
     <g id="line2d_42">
      <g>
       <use style="fill:#555555;stroke:#555555;stroke-width:0.6;" x="321.613471" xlink:href="#mba5a8b7ebb" y="290.25375"/>
      </g>
     </g>
    </g>
    <g id="xtick_38">
     <g id="line2d_43">
      <g>
       <use style="fill:#555555;stroke:#555555;stroke-width:0.6;" x="326.304628" xlink:href="#mba5a8b7ebb" y="290.25375"/>
      </g>
     </g>
    </g>
    <g id="xtick_39">
     <g id="line2d_44">
      <g>
       <use style="fill:#555555;stroke:#555555;stroke-width:0.6;" x="330.368294" xlink:href="#mba5a8b7ebb" y="290.25375"/>
      </g>
     </g>
    </g>
    <g id="xtick_40">
     <g id="line2d_45">
      <g>
       <use style="fill:#555555;stroke:#555555;stroke-width:0.6;" x="333.952701" xlink:href="#mba5a8b7ebb" y="290.25375"/>
      </g>
     </g>
    </g>
    <g id="xtick_41">
     <g id="line2d_46">
      <g>
       <use style="fill:#555555;stroke:#555555;stroke-width:0.6;" x="358.253115" xlink:href="#mba5a8b7ebb" y="290.25375"/>
      </g>
     </g>
    </g>
    <g id="xtick_42">
     <g id="line2d_47">
      <g>
       <use style="fill:#555555;stroke:#555555;stroke-width:0.6;" x="370.592345" xlink:href="#mba5a8b7ebb" y="290.25375"/>
      </g>
     </g>
    </g>
    <g id="xtick_43">
     <g id="line2d_48">
      <g>
       <use style="fill:#555555;stroke:#555555;stroke-width:0.6;" x="379.347168" xlink:href="#mba5a8b7ebb" y="290.25375"/>
      </g>
     </g>
    </g>
    <g id="xtick_44">
     <g id="line2d_49">
      <g>
       <use style="fill:#555555;stroke:#555555;stroke-width:0.6;" x="386.137937" xlink:href="#mba5a8b7ebb" y="290.25375"/>
      </g>
     </g>
    </g>
    <g id="xtick_45">
     <g id="line2d_50">
      <g>
       <use style="fill:#555555;stroke:#555555;stroke-width:0.6;" x="391.686398" xlink:href="#mba5a8b7ebb" y="290.25375"/>
      </g>
     </g>
    </g>
    <g id="xtick_46">
     <g id="line2d_51">
      <g>
       <use style="fill:#555555;stroke:#555555;stroke-width:0.6;" x="396.377556" xlink:href="#mba5a8b7ebb" y="290.25375"/>
      </g>
     </g>
    </g>
    <g id="xtick_47">
     <g id="line2d_52">
      <g>
       <use style="fill:#555555;stroke:#555555;stroke-width:0.6;" x="400.441221" xlink:href="#mba5a8b7ebb" y="290.25375"/>
      </g>
     </g>
    </g>
    <g id="text_6">
     <!-- Zeit [s] -->
     <defs>
      <path d="M 5.609375 72.90625 
L 62.890625 72.90625 
L 62.890625 65.375 
L 16.796875 8.296875 
L 64.015625 8.296875 
L 64.015625 0 
L 4.5 0 
L 4.5 7.515625 
L 50.59375 64.59375 
L 5.609375 64.59375 
z
" id="DejaVuSans-5a"/>
      <path d="M 56.203125 29.59375 
L 56.203125 25.203125 
L 14.890625 25.203125 
Q 15.484375 15.921875 20.484375 11.0625 
Q 25.484375 6.203125 34.421875 6.203125 
Q 39.59375 6.203125 44.453125 7.46875 
Q 49.3125 8.734375 54.109375 11.28125 
L 54.109375 2.78125 
Q 49.265625 0.734375 44.1875 -0.34375 
Q 39.109375 -1.421875 33.890625 -1.421875 
Q 20.796875 -1.421875 13.15625 6.1875 
Q 5.515625 13.8125 5.515625 26.8125 
Q 5.515625 40.234375 12.765625 48.109375 
Q 20.015625 56 32.328125 56 
Q 43.359375 56 49.78125 48.890625 
Q 56.203125 41.796875 56.203125 29.59375 
M 47.21875 32.234375 
Q 47.125 39.59375 43.09375 43.984375 
Q 39.0625 48.390625 32.421875 48.390625 
Q 24.90625 48.390625 20.390625 44.140625 
Q 15.875 39.890625 15.1875 32.171875 
z
" id="DejaVuSans-65"/>
      <path d="M 9.421875 54.6875 
L 18.40625 54.6875 
L 18.40625 0 
L 9.421875 0 
z
M 9.421875 75.984375 
L 18.40625 75.984375 
L 18.40625 64.59375 
L 9.421875 64.59375 
z
" id="DejaVuSans-69"/>
      <path d="M 18.3125 70.21875 
L 18.3125 54.6875 
L 36.8125 54.6875 
L 36.8125 47.703125 
L 18.3125 47.703125 
L 18.3125 18.015625 
Q 18.3125 11.328125 20.140625 9.421875 
Q 21.96875 7.515625 27.59375 7.515625 
L 36.8125 7.515625 
L 36.8125 0 
L 27.59375 0 
Q 17.1875 0 13.234375 3.875 
Q 9.28125 7.765625 9.28125 18.015625 
L 9.28125 47.703125 
L 2.6875 47.703125 
L 2.6875 54.6875 
L 9.28125 54.6875 
L 9.28125 70.21875 
z
" id="DejaVuSans-74"/>
      <path id="DejaVuSans-20"/>
      <path d="M 8.59375 75.984375 
L 29.296875 75.984375 
L 29.296875 69 
L 17.578125 69 
L 17.578125 -6.203125 
L 29.296875 -6.203125 
L 29.296875 -13.1875 
L 8.59375 -13.1875 
z
" id="DejaVuSans-5b"/>
      <path d="M 44.28125 53.078125 
L 44.28125 44.578125 
Q 40.484375 46.53125 36.375 47.5 
Q 32.28125 48.484375 27.875 48.484375 
Q 21.1875 48.484375 17.84375 46.4375 
Q 14.5 44.390625 14.5 40.28125 
Q 14.5 37.15625 16.890625 35.375 
Q 19.28125 33.59375 26.515625 31.984375 
L 29.59375 31.296875 
Q 39.15625 29.25 43.1875 25.515625 
Q 47.21875 21.78125 47.21875 15.09375 
Q 47.21875 7.46875 41.1875 3.015625 
Q 35.15625 -1.421875 24.609375 -1.421875 
Q 20.21875 -1.421875 15.453125 -0.5625 
Q 10.6875 0.296875 5.421875 2 
L 5.421875 11.28125 
Q 10.40625 8.6875 15.234375 7.390625 
Q 20.0625 6.109375 24.8125 6.109375 
Q 31.15625 6.109375 34.5625 8.28125 
Q 37.984375 10.453125 37.984375 14.40625 
Q 37.984375 18.0625 35.515625 20.015625 
Q 33.0625 21.96875 24.703125 23.78125 
L 21.578125 24.515625 
Q 13.234375 26.265625 9.515625 29.90625 
Q 5.8125 33.546875 5.8125 39.890625 
Q 5.8125 47.609375 11.28125 51.796875 
Q 16.75 56 26.8125 56 
Q 31.78125 56 36.171875 55.265625 
Q 40.578125 54.546875 44.28125 53.078125 
" id="DejaVuSans-73"/>
      <path d="M 30.421875 75.984375 
L 30.421875 -13.1875 
L 9.71875 -13.1875 
L 9.71875 -6.203125 
L 21.390625 -6.203125 
L 21.390625 69 
L 9.71875 69 
L 9.71875 75.984375 
z
" id="DejaVuSans-5d"/>
     </defs>
     <g style="fill:#555555;" transform="translate(202.741563 320.05)scale(0.12 -0.12)">
      <use xlink:href="#DejaVuSans-5a"/>
      <use x="68.505859" xlink:href="#DejaVuSans-65"/>
      <use x="130.029297" xlink:href="#DejaVuSans-69"/>
      <use x="157.8125" xlink:href="#DejaVuSans-74"/>
      <use x="197.021484" xlink:href="#DejaVuSans-20"/>
      <use x="228.808594" xlink:href="#DejaVuSans-5b"/>
      <use x="267.822266" xlink:href="#DejaVuSans-73"/>
      <use x="319.921875" xlink:href="#DejaVuSans-5d"/>
     </g>
    </g>
   </g>
   <g id="matplotlib.axis_2">
    <g id="ytick_1">
     <g id="line2d_53">
      <path clip-path="url(#p383229c453)" d="M 45.716875 290.25375 
L 402.836875 290.25375 
" style="fill:none;stroke:#ffffff;stroke-linecap:square;stroke-width:0.8;"/>
     </g>
     <g id="line2d_54">
      <defs>
       <path d="M 0 0 
L -3.5 0 
" id="m4b6f99f3cb" style="stroke:#555555;stroke-width:0.8;"/>
      </defs>
      <g>
       <use style="fill:#555555;stroke:#555555;stroke-width:0.8;" x="45.716875" xlink:href="#m4b6f99f3cb" y="290.25375"/>
      </g>
     </g>
     <g id="text_7">
      <!-- 0.0 -->
      <defs>
       <path d="M 10.6875 12.40625 
L 21 12.40625 
L 21 0 
L 10.6875 0 
z
" id="DejaVuSans-2e"/>
      </defs>
      <g style="fill:#555555;" transform="translate(22.81375 294.052969)scale(0.1 -0.1)">
       <use xlink:href="#DejaVuSans-30"/>
       <use x="63.623047" xlink:href="#DejaVuSans-2e"/>
       <use x="95.410156" xlink:href="#DejaVuSans-30"/>
      </g>
     </g>
    </g>
    <g id="ytick_2">
     <g id="line2d_55">
      <path clip-path="url(#p383229c453)" d="M 45.716875 241.86975 
L 402.836875 241.86975 
" style="fill:none;stroke:#ffffff;stroke-linecap:square;stroke-width:0.8;"/>
     </g>
     <g id="line2d_56">
      <g>
       <use style="fill:#555555;stroke:#555555;stroke-width:0.8;" x="45.716875" xlink:href="#m4b6f99f3cb" y="241.86975"/>
      </g>
     </g>
     <g id="text_8">
      <!-- 0.2 -->
      <g style="fill:#555555;" transform="translate(22.81375 245.668969)scale(0.1 -0.1)">
       <use xlink:href="#DejaVuSans-30"/>
       <use x="63.623047" xlink:href="#DejaVuSans-2e"/>
       <use x="95.410156" xlink:href="#DejaVuSans-32"/>
      </g>
     </g>
    </g>
    <g id="ytick_3">
     <g id="line2d_57">
      <path clip-path="url(#p383229c453)" d="M 45.716875 193.48575 
L 402.836875 193.48575 
" style="fill:none;stroke:#ffffff;stroke-linecap:square;stroke-width:0.8;"/>
     </g>
     <g id="line2d_58">
      <g>
       <use style="fill:#555555;stroke:#555555;stroke-width:0.8;" x="45.716875" xlink:href="#m4b6f99f3cb" y="193.48575"/>
      </g>
     </g>
     <g id="text_9">
      <!-- 0.4 -->
      <g style="fill:#555555;" transform="translate(22.81375 197.284969)scale(0.1 -0.1)">
       <use xlink:href="#DejaVuSans-30"/>
       <use x="63.623047" xlink:href="#DejaVuSans-2e"/>
       <use x="95.410156" xlink:href="#DejaVuSans-34"/>
      </g>
     </g>
    </g>
    <g id="ytick_4">
     <g id="line2d_59">
      <path clip-path="url(#p383229c453)" d="M 45.716875 145.10175 
L 402.836875 145.10175 
" style="fill:none;stroke:#ffffff;stroke-linecap:square;stroke-width:0.8;"/>
     </g>
     <g id="line2d_60">
      <g>
       <use style="fill:#555555;stroke:#555555;stroke-width:0.8;" x="45.716875" xlink:href="#m4b6f99f3cb" y="145.10175"/>
      </g>
     </g>
     <g id="text_10">
      <!-- 0.6 -->
      <defs>
       <path d="M 33.015625 40.375 
Q 26.375 40.375 22.484375 35.828125 
Q 18.609375 31.296875 18.609375 23.390625 
Q 18.609375 15.53125 22.484375 10.953125 
Q 26.375 6.390625 33.015625 6.390625 
Q 39.65625 6.390625 43.53125 10.953125 
Q 47.40625 15.53125 47.40625 23.390625 
Q 47.40625 31.296875 43.53125 35.828125 
Q 39.65625 40.375 33.015625 40.375 
M 52.59375 71.296875 
L 52.59375 62.3125 
Q 48.875 64.0625 45.09375 64.984375 
Q 41.3125 65.921875 37.59375 65.921875 
Q 27.828125 65.921875 22.671875 59.328125 
Q 17.53125 52.734375 16.796875 39.40625 
Q 19.671875 43.65625 24.015625 45.921875 
Q 28.375 48.1875 33.59375 48.1875 
Q 44.578125 48.1875 50.953125 41.515625 
Q 57.328125 34.859375 57.328125 23.390625 
Q 57.328125 12.15625 50.6875 5.359375 
Q 44.046875 -1.421875 33.015625 -1.421875 
Q 20.359375 -1.421875 13.671875 8.265625 
Q 6.984375 17.96875 6.984375 36.375 
Q 6.984375 53.65625 15.1875 63.9375 
Q 23.390625 74.21875 37.203125 74.21875 
Q 40.921875 74.21875 44.703125 73.484375 
Q 48.484375 72.75 52.59375 71.296875 
" id="DejaVuSans-36"/>
      </defs>
      <g style="fill:#555555;" transform="translate(22.81375 148.900969)scale(0.1 -0.1)">
       <use xlink:href="#DejaVuSans-30"/>
       <use x="63.623047" xlink:href="#DejaVuSans-2e"/>
       <use x="95.410156" xlink:href="#DejaVuSans-36"/>
      </g>
     </g>
    </g>
    <g id="ytick_5">
     <g id="line2d_61">
      <path clip-path="url(#p383229c453)" d="M 45.716875 96.71775 
L 402.836875 96.71775 
" style="fill:none;stroke:#ffffff;stroke-linecap:square;stroke-width:0.8;"/>
     </g>
     <g id="line2d_62">
      <g>
       <use style="fill:#555555;stroke:#555555;stroke-width:0.8;" x="45.716875" xlink:href="#m4b6f99f3cb" y="96.71775"/>
      </g>
     </g>
     <g id="text_11">
      <!-- 0.8 -->
      <defs>
       <path d="M 31.78125 34.625 
Q 24.75 34.625 20.71875 30.859375 
Q 16.703125 27.09375 16.703125 20.515625 
Q 16.703125 13.921875 20.71875 10.15625 
Q 24.75 6.390625 31.78125 6.390625 
Q 38.8125 6.390625 42.859375 10.171875 
Q 46.921875 13.96875 46.921875 20.515625 
Q 46.921875 27.09375 42.890625 30.859375 
Q 38.875 34.625 31.78125 34.625 
M 21.921875 38.8125 
Q 15.578125 40.375 12.03125 44.71875 
Q 8.5 49.078125 8.5 55.328125 
Q 8.5 64.0625 14.71875 69.140625 
Q 20.953125 74.21875 31.78125 74.21875 
Q 42.671875 74.21875 48.875 69.140625 
Q 55.078125 64.0625 55.078125 55.328125 
Q 55.078125 49.078125 51.53125 44.71875 
Q 48 40.375 41.703125 38.8125 
Q 48.828125 37.15625 52.796875 32.3125 
Q 56.78125 27.484375 56.78125 20.515625 
Q 56.78125 9.90625 50.3125 4.234375 
Q 43.84375 -1.421875 31.78125 -1.421875 
Q 19.734375 -1.421875 13.25 4.234375 
Q 6.78125 9.90625 6.78125 20.515625 
Q 6.78125 27.484375 10.78125 32.3125 
Q 14.796875 37.15625 21.921875 38.8125 
M 18.3125 54.390625 
Q 18.3125 48.734375 21.84375 45.5625 
Q 25.390625 42.390625 31.78125 42.390625 
Q 38.140625 42.390625 41.71875 45.5625 
Q 45.3125 48.734375 45.3125 54.390625 
Q 45.3125 60.0625 41.71875 63.234375 
Q 38.140625 66.40625 31.78125 66.40625 
Q 25.390625 66.40625 21.84375 63.234375 
Q 18.3125 60.0625 18.3125 54.390625 
" id="DejaVuSans-38"/>
      </defs>
      <g style="fill:#555555;" transform="translate(22.81375 100.516969)scale(0.1 -0.1)">
       <use xlink:href="#DejaVuSans-30"/>
       <use x="63.623047" xlink:href="#DejaVuSans-2e"/>
       <use x="95.410156" xlink:href="#DejaVuSans-38"/>
      </g>
     </g>
    </g>
    <g id="ytick_6">
     <g id="line2d_63">
      <path clip-path="url(#p383229c453)" d="M 45.716875 48.33375 
L 402.836875 48.33375 
" style="fill:none;stroke:#ffffff;stroke-linecap:square;stroke-width:0.8;"/>
     </g>
     <g id="line2d_64">
      <g>
       <use style="fill:#555555;stroke:#555555;stroke-width:0.8;" x="45.716875" xlink:href="#m4b6f99f3cb" y="48.33375"/>
      </g>
     </g>
     <g id="text_12">
      <!-- 1.0 -->
      <g style="fill:#555555;" transform="translate(22.81375 52.132969)scale(0.1 -0.1)">
       <use xlink:href="#DejaVuSans-31"/>
       <use x="63.623047" xlink:href="#DejaVuSans-2e"/>
       <use x="95.410156" xlink:href="#DejaVuSans-30"/>
      </g>
     </g>
    </g>
    <g id="text_13">
     <!-- a.u. -->
     <defs>
      <path d="M 34.28125 27.484375 
Q 23.390625 27.484375 19.1875 25 
Q 14.984375 22.515625 14.984375 16.5 
Q 14.984375 11.71875 18.140625 8.90625 
Q 21.296875 6.109375 26.703125 6.109375 
Q 34.1875 6.109375 38.703125 11.40625 
Q 43.21875 16.703125 43.21875 25.484375 
L 43.21875 27.484375 
z
M 52.203125 31.203125 
L 52.203125 0 
L 43.21875 0 
L 43.21875 8.296875 
Q 40.140625 3.328125 35.546875 0.953125 
Q 30.953125 -1.421875 24.3125 -1.421875 
Q 15.921875 -1.421875 10.953125 3.296875 
Q 6 8.015625 6 15.921875 
Q 6 25.140625 12.171875 29.828125 
Q 18.359375 34.515625 30.609375 34.515625 
L 43.21875 34.515625 
L 43.21875 35.40625 
Q 43.21875 41.609375 39.140625 45 
Q 35.0625 48.390625 27.6875 48.390625 
Q 23 48.390625 18.546875 47.265625 
Q 14.109375 46.140625 10.015625 43.890625 
L 10.015625 52.203125 
Q 14.9375 54.109375 19.578125 55.046875 
Q 24.21875 56 28.609375 56 
Q 40.484375 56 46.34375 49.84375 
Q 52.203125 43.703125 52.203125 31.203125 
" id="DejaVuSans-61"/>
      <path d="M 8.5 21.578125 
L 8.5 54.6875 
L 17.484375 54.6875 
L 17.484375 21.921875 
Q 17.484375 14.15625 20.5 10.265625 
Q 23.53125 6.390625 29.59375 6.390625 
Q 36.859375 6.390625 41.078125 11.03125 
Q 45.3125 15.671875 45.3125 23.6875 
L 45.3125 54.6875 
L 54.296875 54.6875 
L 54.296875 0 
L 45.3125 0 
L 45.3125 8.40625 
Q 42.046875 3.421875 37.71875 1 
Q 33.40625 -1.421875 27.6875 -1.421875 
Q 18.265625 -1.421875 13.375 4.4375 
Q 8.5 10.296875 8.5 21.578125 
M 31.109375 56 
z
" id="DejaVuSans-75"/>
     </defs>
     <g style="fill:#555555;" transform="translate(16.318125 168.490875)rotate(-90)scale(0.12 -0.12)">
      <use xlink:href="#DejaVuSans-61"/>
      <use x="61.279297" xlink:href="#DejaVuSans-2e"/>
      <use x="93.066406" xlink:href="#DejaVuSans-75"/>
      <use x="156.445312" xlink:href="#DejaVuSans-2e"/>
     </g>
    </g>
   </g>
   <g id="PathCollection_1">
    <defs>
     <path d="M -3 3 
L 3 -3 
M -3 -3 
L 3 3 
" id="m498db25d0d" style="stroke:#e24a33;stroke-width:1.5;"/>
    </defs>
    <g clip-path="url(#p383229c453)">
     <use style="fill:#e24a33;stroke:#e24a33;stroke-width:1.5;" x="62.415813" xlink:href="#m498db25d0d" y="46.652889"/>
     <use style="fill:#e24a33;stroke:#e24a33;stroke-width:1.5;" x="73.578645" xlink:href="#m498db25d0d" y="52.648471"/>
     <use style="fill:#e24a33;stroke:#e24a33;stroke-width:1.5;" x="84.741477" xlink:href="#m498db25d0d" y="52.534713"/>
     <use style="fill:#e24a33;stroke:#e24a33;stroke-width:1.5;" x="95.904309" xlink:href="#m498db25d0d" y="52.861363"/>
     <use style="fill:#e24a33;stroke:#e24a33;stroke-width:1.5;" x="107.067141" xlink:href="#m498db25d0d" y="47.046449"/>
     <use style="fill:#e24a33;stroke:#e24a33;stroke-width:1.5;" x="118.229972" xlink:href="#m498db25d0d" y="51.109786"/>
     <use style="fill:#e24a33;stroke:#e24a33;stroke-width:1.5;" x="129.392804" xlink:href="#m498db25d0d" y="47.042983"/>
     <use style="fill:#e24a33;stroke:#e24a33;stroke-width:1.5;" x="140.555636" xlink:href="#m498db25d0d" y="51.13415"/>
     <use style="fill:#e24a33;stroke:#e24a33;stroke-width:1.5;" x="151.718468" xlink:href="#m498db25d0d" y="53.939824"/>
     <use style="fill:#e24a33;stroke:#e24a33;stroke-width:1.5;" x="162.8813" xlink:href="#m498db25d0d" y="59.856412"/>
     <use style="fill:#e24a33;stroke:#e24a33;stroke-width:1.5;" x="174.044132" xlink:href="#m498db25d0d" y="58.778012"/>
     <use style="fill:#e24a33;stroke:#e24a33;stroke-width:1.5;" x="185.206964" xlink:href="#m498db25d0d" y="65.517449"/>
     <use style="fill:#e24a33;stroke:#e24a33;stroke-width:1.5;" x="196.369795" xlink:href="#m498db25d0d" y="65.83801"/>
     <use style="fill:#e24a33;stroke:#e24a33;stroke-width:1.5;" x="207.532627" xlink:href="#m498db25d0d" y="85.704029"/>
     <use style="fill:#e24a33;stroke:#e24a33;stroke-width:1.5;" x="218.695459" xlink:href="#m498db25d0d" y="94.552684"/>
     <use style="fill:#e24a33;stroke:#e24a33;stroke-width:1.5;" x="229.858291" xlink:href="#m498db25d0d" y="109.634343"/>
     <use style="fill:#e24a33;stroke:#e24a33;stroke-width:1.5;" x="241.021123" xlink:href="#m498db25d0d" y="121.489192"/>
     <use style="fill:#e24a33;stroke:#e24a33;stroke-width:1.5;" x="252.183955" xlink:href="#m498db25d0d" y="144.091426"/>
     <use style="fill:#e24a33;stroke:#e24a33;stroke-width:1.5;" x="263.346786" xlink:href="#m498db25d0d" y="151.315647"/>
     <use style="fill:#e24a33;stroke:#e24a33;stroke-width:1.5;" x="274.509618" xlink:href="#m498db25d0d" y="169.35917"/>
     <use style="fill:#e24a33;stroke:#e24a33;stroke-width:1.5;" x="285.67245" xlink:href="#m498db25d0d" y="179.810931"/>
     <use style="fill:#e24a33;stroke:#e24a33;stroke-width:1.5;" x="296.835282" xlink:href="#m498db25d0d" y="231.165212"/>
     <use style="fill:#e24a33;stroke:#e24a33;stroke-width:1.5;" x="307.998114" xlink:href="#m498db25d0d" y="192.124929"/>
     <use style="fill:#e24a33;stroke:#e24a33;stroke-width:1.5;" x="319.160946" xlink:href="#m498db25d0d" y="144.196483"/>
     <use style="fill:#e24a33;stroke:#e24a33;stroke-width:1.5;" x="323.535649" xlink:href="#m498db25d0d" y="-1"/>
     <use style="fill:#e24a33;stroke:#e24a33;stroke-width:1.5;" x="331.321789" xlink:href="#m498db25d0d" y="-1"/>
     <use style="fill:#e24a33;stroke:#e24a33;stroke-width:1.5;" x="341.486609" xlink:href="#m498db25d0d" y="2293.678629"/>
     <use style="fill:#e24a33;stroke:#e24a33;stroke-width:1.5;" x="343.31573" xlink:href="#m498db25d0d" y="-1"/>
     <use style="fill:#e24a33;stroke:#e24a33;stroke-width:1.5;" x="364.196796" xlink:href="#m498db25d0d" y="-1"/>
     <use style="fill:#e24a33;stroke:#e24a33;stroke-width:1.5;" x="364.430969" xlink:href="#m498db25d0d" y="23742.685"/>
    </g>
   </g>
   <g id="PathCollection_2">
    <defs>
     <path d="M -3 3 
L 3 -3 
M -3 -3 
L 3 3 
" id="m6816867c4c" style="stroke:#348abd;stroke-width:1.5;"/>
    </defs>
    <g clip-path="url(#p383229c453)">
     <use style="fill:#348abd;stroke:#348abd;stroke-width:1.5;" x="62.415813" xlink:href="#m6816867c4c" y="52.245867"/>
     <use style="fill:#348abd;stroke:#348abd;stroke-width:1.5;" x="73.578645" xlink:href="#m6816867c4c" y="50.515333"/>
     <use style="fill:#348abd;stroke:#348abd;stroke-width:1.5;" x="84.741477" xlink:href="#m6816867c4c" y="43.988316"/>
     <use style="fill:#348abd;stroke:#348abd;stroke-width:1.5;" x="95.904309" xlink:href="#m6816867c4c" y="51.401535"/>
     <use style="fill:#348abd;stroke:#348abd;stroke-width:1.5;" x="107.067141" xlink:href="#m6816867c4c" y="50.164928"/>
     <use style="fill:#348abd;stroke:#348abd;stroke-width:1.5;" x="118.229972" xlink:href="#m6816867c4c" y="51.281045"/>
     <use style="fill:#348abd;stroke:#348abd;stroke-width:1.5;" x="129.392804" xlink:href="#m6816867c4c" y="47.28926"/>
     <use style="fill:#348abd;stroke:#348abd;stroke-width:1.5;" x="140.555636" xlink:href="#m6816867c4c" y="48.446109"/>
     <use style="fill:#348abd;stroke:#348abd;stroke-width:1.5;" x="151.718468" xlink:href="#m6816867c4c" y="57.009803"/>
     <use style="fill:#348abd;stroke:#348abd;stroke-width:1.5;" x="162.8813" xlink:href="#m6816867c4c" y="58.280347"/>
     <use style="fill:#348abd;stroke:#348abd;stroke-width:1.5;" x="174.044132" xlink:href="#m6816867c4c" y="60.47451"/>
     <use style="fill:#348abd;stroke:#348abd;stroke-width:1.5;" x="185.206964" xlink:href="#m6816867c4c" y="69.678424"/>
     <use style="fill:#348abd;stroke:#348abd;stroke-width:1.5;" x="196.369795" xlink:href="#m6816867c4c" y="74.76868"/>
     <use style="fill:#348abd;stroke:#348abd;stroke-width:1.5;" x="207.532627" xlink:href="#m6816867c4c" y="96.792441"/>
     <use style="fill:#348abd;stroke:#348abd;stroke-width:1.5;" x="218.695459" xlink:href="#m6816867c4c" y="111.851484"/>
     <use style="fill:#348abd;stroke:#348abd;stroke-width:1.5;" x="229.858291" xlink:href="#m6816867c4c" y="127.514827"/>
     <use style="fill:#348abd;stroke:#348abd;stroke-width:1.5;" x="241.021123" xlink:href="#m6816867c4c" y="142.449266"/>
     <use style="fill:#348abd;stroke:#348abd;stroke-width:1.5;" x="252.183955" xlink:href="#m6816867c4c" y="150.113414"/>
     <use style="fill:#348abd;stroke:#348abd;stroke-width:1.5;" x="263.346786" xlink:href="#m6816867c4c" y="191.400635"/>
     <use style="fill:#348abd;stroke:#348abd;stroke-width:1.5;" x="274.509618" xlink:href="#m6816867c4c" y="199.786081"/>
     <use style="fill:#348abd;stroke:#348abd;stroke-width:1.5;" x="285.67245" xlink:href="#m6816867c4c" y="192.977392"/>
     <use style="fill:#348abd;stroke:#348abd;stroke-width:1.5;" x="296.835282" xlink:href="#m6816867c4c" y="203.418133"/>
     <use style="fill:#348abd;stroke:#348abd;stroke-width:1.5;" x="307.998114" xlink:href="#m6816867c4c" y="64.102644"/>
     <use style="fill:#348abd;stroke:#348abd;stroke-width:1.5;" x="319.160946" xlink:href="#m6816867c4c" y="246.726399"/>
     <use style="fill:#348abd;stroke:#348abd;stroke-width:1.5;" x="330.323778" xlink:href="#m6816867c4c" y="296.888521"/>
     <use style="fill:#348abd;stroke:#348abd;stroke-width:1.5;" x="341.486609" xlink:href="#m6816867c4c" y="7.317899"/>
     <use style="fill:#348abd;stroke:#348abd;stroke-width:1.5;" x="352.649441" xlink:href="#m6816867c4c" y="3333.640811"/>
     <use style="fill:#348abd;stroke:#348abd;stroke-width:1.5;" x="363.812273" xlink:href="#m6816867c4c" y="22092.401183"/>
     <use style="fill:#348abd;stroke:#348abd;stroke-width:1.5;" x="373.428402" xlink:href="#m6816867c4c" y="-1"/>
    </g>
   </g>
   <g id="patch_3">
    <path d="M 45.716875 290.25375 
L 45.716875 24.14175 
" style="fill:none;stroke:#ffffff;stroke-linecap:square;stroke-linejoin:miter;"/>
   </g>
   <g id="patch_4">
    <path d="M 402.836875 290.25375 
L 402.836875 24.14175 
" style="fill:none;stroke:#ffffff;stroke-linecap:square;stroke-linejoin:miter;"/>
   </g>
   <g id="patch_5">
    <path d="M 45.716875 290.25375 
L 402.836875 290.25375 
" style="fill:none;stroke:#ffffff;stroke-linecap:square;stroke-linejoin:miter;"/>
   </g>
   <g id="patch_6">
    <path d="M 45.716875 24.14175 
L 402.836875 24.14175 
" style="fill:none;stroke:#ffffff;stroke-linecap:square;stroke-linejoin:miter;"/>
   </g>
   <g id="text_14">
    <!-- CRN $T_1$ an F2, sinsin -->
    <defs>
     <path d="M 64.40625 67.28125 
L 64.40625 56.890625 
Q 59.421875 61.53125 53.78125 63.8125 
Q 48.140625 66.109375 41.796875 66.109375 
Q 29.296875 66.109375 22.65625 58.46875 
Q 16.015625 50.828125 16.015625 36.375 
Q 16.015625 21.96875 22.65625 14.328125 
Q 29.296875 6.6875 41.796875 6.6875 
Q 48.140625 6.6875 53.78125 8.984375 
Q 59.421875 11.28125 64.40625 15.921875 
L 64.40625 5.609375 
Q 59.234375 2.09375 53.4375 0.328125 
Q 47.65625 -1.421875 41.21875 -1.421875 
Q 24.65625 -1.421875 15.125 8.703125 
Q 5.609375 18.84375 5.609375 36.375 
Q 5.609375 53.953125 15.125 64.078125 
Q 24.65625 74.21875 41.21875 74.21875 
Q 47.75 74.21875 53.53125 72.484375 
Q 59.328125 70.75 64.40625 67.28125 
" id="DejaVuSans-43"/>
     <path d="M 44.390625 34.1875 
Q 47.5625 33.109375 50.5625 29.59375 
Q 53.5625 26.078125 56.59375 19.921875 
L 66.609375 0 
L 56 0 
L 46.6875 18.703125 
Q 43.0625 26.03125 39.671875 28.421875 
Q 36.28125 30.8125 30.421875 30.8125 
L 19.671875 30.8125 
L 19.671875 0 
L 9.8125 0 
L 9.8125 72.90625 
L 32.078125 72.90625 
Q 44.578125 72.90625 50.734375 67.671875 
Q 56.890625 62.453125 56.890625 51.90625 
Q 56.890625 45.015625 53.6875 40.46875 
Q 50.484375 35.9375 44.390625 34.1875 
M 19.671875 64.796875 
L 19.671875 38.921875 
L 32.078125 38.921875 
Q 39.203125 38.921875 42.84375 42.21875 
Q 46.484375 45.515625 46.484375 51.90625 
Q 46.484375 58.296875 42.84375 61.546875 
Q 39.203125 64.796875 32.078125 64.796875 
z
" id="DejaVuSans-52"/>
     <path d="M 9.8125 72.90625 
L 23.09375 72.90625 
L 55.421875 11.921875 
L 55.421875 72.90625 
L 64.984375 72.90625 
L 64.984375 0 
L 51.703125 0 
L 19.390625 60.984375 
L 19.390625 0 
L 9.8125 0 
z
" id="DejaVuSans-4e"/>
     <path d="M 5.90625 72.90625 
L 67.578125 72.90625 
L 66.015625 64.59375 
L 39.984375 64.59375 
L 27.484375 0 
L 17.578125 0 
L 30.078125 64.59375 
L 4.296875 64.59375 
z
" id="DejaVuSans-Oblique-54"/>
     <path d="M 54.890625 33.015625 
L 54.890625 0 
L 45.90625 0 
L 45.90625 32.71875 
Q 45.90625 40.484375 42.875 44.328125 
Q 39.84375 48.1875 33.796875 48.1875 
Q 26.515625 48.1875 22.3125 43.546875 
Q 18.109375 38.921875 18.109375 30.90625 
L 18.109375 0 
L 9.078125 0 
L 9.078125 54.6875 
L 18.109375 54.6875 
L 18.109375 46.1875 
Q 21.34375 51.125 25.703125 53.5625 
Q 30.078125 56 35.796875 56 
Q 45.21875 56 50.046875 50.171875 
Q 54.890625 44.34375 54.890625 33.015625 
" id="DejaVuSans-6e"/>
     <path d="M 9.8125 72.90625 
L 51.703125 72.90625 
L 51.703125 64.59375 
L 19.671875 64.59375 
L 19.671875 43.109375 
L 48.578125 43.109375 
L 48.578125 34.8125 
L 19.671875 34.8125 
L 19.671875 0 
L 9.8125 0 
z
" id="DejaVuSans-46"/>
     <path d="M 11.71875 12.40625 
L 22.015625 12.40625 
L 22.015625 4 
L 14.015625 -11.625 
L 7.71875 -11.625 
L 11.71875 4 
z
" id="DejaVuSans-2c"/>
    </defs>
    <g transform="translate(151.268875 18.14175)scale(0.144 -0.144)">
     <use transform="translate(0 0.015625)" xlink:href="#DejaVuSans-43"/>
     <use transform="translate(69.824219 0.015625)" xlink:href="#DejaVuSans-52"/>
     <use transform="translate(139.306641 0.015625)" xlink:href="#DejaVuSans-4e"/>
     <use transform="translate(214.111328 0.015625)" xlink:href="#DejaVuSans-20"/>
     <use transform="translate(245.898438 0.015625)" xlink:href="#DejaVuSans-Oblique-54"/>
     <use transform="translate(306.982422 -16.390625)scale(0.7)" xlink:href="#DejaVuSans-31"/>
     <use transform="translate(354.25293 0.015625)" xlink:href="#DejaVuSans-20"/>
     <use transform="translate(386.040039 0.015625)" xlink:href="#DejaVuSans-61"/>
     <use transform="translate(447.319336 0.015625)" xlink:href="#DejaVuSans-6e"/>
     <use transform="translate(510.698242 0.015625)" xlink:href="#DejaVuSans-20"/>
     <use transform="translate(542.485352 0.015625)" xlink:href="#DejaVuSans-46"/>
     <use transform="translate(600.004883 0.015625)" xlink:href="#DejaVuSans-32"/>
     <use transform="translate(663.62793 0.015625)" xlink:href="#DejaVuSans-2c"/>
     <use transform="translate(695.415039 0.015625)" xlink:href="#DejaVuSans-20"/>
     <use transform="translate(727.202148 0.015625)" xlink:href="#DejaVuSans-73"/>
     <use transform="translate(779.301758 0.015625)" xlink:href="#DejaVuSans-69"/>
     <use transform="translate(807.084961 0.015625)" xlink:href="#DejaVuSans-6e"/>
     <use transform="translate(870.463867 0.015625)" xlink:href="#DejaVuSans-73"/>
     <use transform="translate(922.563477 0.015625)" xlink:href="#DejaVuSans-69"/>
     <use transform="translate(950.34668 0.015625)" xlink:href="#DejaVuSans-6e"/>
    </g>
   </g>
   <g id="legend_1">
    <g id="patch_7">
     <path d="M 314.136875 61.498 
L 395.836875 61.498 
Q 397.836875 61.498 397.836875 59.498 
L 397.836875 31.14175 
Q 397.836875 29.14175 395.836875 29.14175 
L 314.136875 29.14175 
Q 312.136875 29.14175 312.136875 31.14175 
L 312.136875 59.498 
Q 312.136875 61.498 314.136875 61.498 
z
" style="fill:#e5e5e5;opacity:0.8;stroke:#cccccc;stroke-linejoin:miter;stroke-width:0.5;"/>
    </g>
    <g id="PathCollection_3">
     <g>
      <use style="fill:#e24a33;stroke:#e24a33;stroke-width:1.5;" x="326.136875" xlink:href="#m498db25d0d" y="38.115187"/>
     </g>
    </g>
    <g id="text_15">
     <!-- $T$ = 300 K -->
     <defs>
      <path d="M 10.59375 45.40625 
L 73.1875 45.40625 
L 73.1875 37.203125 
L 10.59375 37.203125 
z
M 10.59375 25.484375 
L 73.1875 25.484375 
L 73.1875 17.1875 
L 10.59375 17.1875 
z
" id="DejaVuSans-3d"/>
      <path d="M 9.8125 72.90625 
L 19.671875 72.90625 
L 19.671875 42.09375 
L 52.390625 72.90625 
L 65.09375 72.90625 
L 28.90625 38.921875 
L 67.671875 0 
L 54.6875 0 
L 19.671875 35.109375 
L 19.671875 0 
L 9.8125 0 
z
" id="DejaVuSans-4b"/>
     </defs>
     <g transform="translate(344.136875 40.740187)scale(0.1 -0.1)">
      <use transform="translate(0 0.78125)" xlink:href="#DejaVuSans-Oblique-54"/>
      <use transform="translate(61.083984 0.78125)" xlink:href="#DejaVuSans-20"/>
      <use transform="translate(92.871094 0.78125)" xlink:href="#DejaVuSans-3d"/>
      <use transform="translate(176.660156 0.78125)" xlink:href="#DejaVuSans-20"/>
      <use transform="translate(208.447266 0.78125)" xlink:href="#DejaVuSans-33"/>
      <use transform="translate(272.070312 0.78125)" xlink:href="#DejaVuSans-30"/>
      <use transform="translate(335.693359 0.78125)" xlink:href="#DejaVuSans-30"/>
      <use transform="translate(399.316406 0.78125)" xlink:href="#DejaVuSans-20"/>
      <use transform="translate(431.103516 0.78125)" xlink:href="#DejaVuSans-4b"/>
     </g>
    </g>
    <g id="PathCollection_4">
     <g>
      <use style="fill:#348abd;stroke:#348abd;stroke-width:1.5;" x="326.136875" xlink:href="#m6816867c4c" y="52.793312"/>
     </g>
    </g>
    <g id="text_16">
     <!-- $T$ = 310 K -->
     <g transform="translate(344.136875 55.418312)scale(0.1 -0.1)">
      <use transform="translate(0 0.78125)" xlink:href="#DejaVuSans-Oblique-54"/>
      <use transform="translate(61.083984 0.78125)" xlink:href="#DejaVuSans-20"/>
      <use transform="translate(92.871094 0.78125)" xlink:href="#DejaVuSans-3d"/>
      <use transform="translate(176.660156 0.78125)" xlink:href="#DejaVuSans-20"/>
      <use transform="translate(208.447266 0.78125)" xlink:href="#DejaVuSans-33"/>
      <use transform="translate(272.070312 0.78125)" xlink:href="#DejaVuSans-31"/>
      <use transform="translate(335.693359 0.78125)" xlink:href="#DejaVuSans-30"/>
      <use transform="translate(399.316406 0.78125)" xlink:href="#DejaVuSans-20"/>
      <use transform="translate(431.103516 0.78125)" xlink:href="#DejaVuSans-4b"/>
     </g>
    </g>
   </g>
  </g>
 </g>
 <defs>
  <clipPath id="p383229c453">
   <rect height="266.112" width="357.12" x="45.716875" y="24.14175"/>
  </clipPath>
 </defs>
</svg>
