<?xml version="1.0" encoding="utf-8" standalone="no"?>
<!DOCTYPE svg PUBLIC "-//W3C//DTD SVG 1.1//EN"
  "http://www.w3.org/Graphics/SVG/1.1/DTD/svg11.dtd">
<!-- Created with matplotlib (http://matplotlib.org/) -->
<svg height="329pt" version="1.1" viewBox="0 0 416 329" width="416pt" xmlns="http://www.w3.org/2000/svg" xmlns:xlink="http://www.w3.org/1999/xlink">
 <defs>
  <style type="text/css">
*{stroke-linecap:butt;stroke-linejoin:round;}
  </style>
 </defs>
 <g id="figure_1">
  <g id="patch_1">
   <path d="M 0 329.745625 
L 416.72125 329.745625 
L 416.72125 0 
L 0 0 
z
" style="fill:#ffffff;"/>
  </g>
  <g id="axes_1">
   <g id="patch_2">
    <path d="M 48.90125 290.25375 
L 406.02125 290.25375 
L 406.02125 24.14175 
L 48.90125 24.14175 
z
" style="fill:#e5e5e5;"/>
   </g>
   <g id="matplotlib.axis_1">
    <g id="xtick_1">
     <g id="line2d_1">
      <path clip-path="url(#pd58c2371d1)" d="M 59.569534 290.25375 
L 59.569534 24.14175 
" style="fill:none;stroke:#ffffff;stroke-linecap:square;stroke-width:0.8;"/>
     </g>
     <g id="line2d_2">
      <defs>
       <path d="M 0 0 
L 0 3.5 
" id="mdb3f8fae28" style="stroke:#555555;stroke-width:0.8;"/>
      </defs>
      <g>
       <use style="fill:#555555;stroke:#555555;stroke-width:0.8;" x="59.569534" xlink:href="#mdb3f8fae28" y="290.25375"/>
      </g>
     </g>
     <g id="text_1">
      <!-- ${10^{-5}}$ -->
      <defs>
       <path d="M 12.40625 8.296875 
L 28.515625 8.296875 
L 28.515625 63.921875 
L 10.984375 60.40625 
L 10.984375 69.390625 
L 28.421875 72.90625 
L 38.28125 72.90625 
L 38.28125 8.296875 
L 54.390625 8.296875 
L 54.390625 0 
L 12.40625 0 
z
" id="DejaVuSans-31"/>
       <path d="M 31.78125 66.40625 
Q 24.171875 66.40625 20.328125 58.90625 
Q 16.5 51.421875 16.5 36.375 
Q 16.5 21.390625 20.328125 13.890625 
Q 24.171875 6.390625 31.78125 6.390625 
Q 39.453125 6.390625 43.28125 13.890625 
Q 47.125 21.390625 47.125 36.375 
Q 47.125 51.421875 43.28125 58.90625 
Q 39.453125 66.40625 31.78125 66.40625 
M 31.78125 74.21875 
Q 44.046875 74.21875 50.515625 64.515625 
Q 56.984375 54.828125 56.984375 36.375 
Q 56.984375 17.96875 50.515625 8.265625 
Q 44.046875 -1.421875 31.78125 -1.421875 
Q 19.53125 -1.421875 13.0625 8.265625 
Q 6.59375 17.96875 6.59375 36.375 
Q 6.59375 54.828125 13.0625 64.515625 
Q 19.53125 74.21875 31.78125 74.21875 
" id="DejaVuSans-30"/>
       <path d="M 10.59375 35.5 
L 73.1875 35.5 
L 73.1875 27.203125 
L 10.59375 27.203125 
z
" id="DejaVuSans-2212"/>
       <path d="M 10.796875 72.90625 
L 49.515625 72.90625 
L 49.515625 64.59375 
L 19.828125 64.59375 
L 19.828125 46.734375 
Q 21.96875 47.46875 24.109375 47.828125 
Q 26.265625 48.1875 28.421875 48.1875 
Q 40.625 48.1875 47.75 41.5 
Q 54.890625 34.8125 54.890625 23.390625 
Q 54.890625 11.625 47.5625 5.09375 
Q 40.234375 -1.421875 26.90625 -1.421875 
Q 22.3125 -1.421875 17.546875 -0.640625 
Q 12.796875 0.140625 7.71875 1.703125 
L 7.71875 11.625 
Q 12.109375 9.234375 16.796875 8.0625 
Q 21.484375 6.890625 26.703125 6.890625 
Q 35.15625 6.890625 40.078125 11.328125 
Q 45.015625 15.765625 45.015625 23.390625 
Q 45.015625 31 40.078125 35.4375 
Q 35.15625 39.890625 26.703125 39.890625 
Q 22.75 39.890625 18.8125 39.015625 
Q 14.890625 38.140625 10.796875 36.28125 
z
" id="DejaVuSans-35"/>
      </defs>
      <g style="fill:#555555;" transform="translate(47.819534 304.852187)scale(0.1 -0.1)">
       <use transform="translate(0 0.684375)" xlink:href="#DejaVuSans-31"/>
       <use transform="translate(63.623047 0.684375)" xlink:href="#DejaVuSans-30"/>
       <use transform="translate(128.203125 38.965625)scale(0.7)" xlink:href="#DejaVuSans-2212"/>
       <use transform="translate(186.855469 38.965625)scale(0.7)" xlink:href="#DejaVuSans-35"/>
      </g>
     </g>
    </g>
    <g id="xtick_2">
     <g id="line2d_3">
      <path clip-path="url(#pd58c2371d1)" d="M 129.844294 290.25375 
L 129.844294 24.14175 
" style="fill:none;stroke:#ffffff;stroke-linecap:square;stroke-width:0.8;"/>
     </g>
     <g id="line2d_4">
      <g>
       <use style="fill:#555555;stroke:#555555;stroke-width:0.8;" x="129.844294" xlink:href="#mdb3f8fae28" y="290.25375"/>
      </g>
     </g>
     <g id="text_2">
      <!-- ${10^{-4}}$ -->
      <defs>
       <path d="M 37.796875 64.3125 
L 12.890625 25.390625 
L 37.796875 25.390625 
z
M 35.203125 72.90625 
L 47.609375 72.90625 
L 47.609375 25.390625 
L 58.015625 25.390625 
L 58.015625 17.1875 
L 47.609375 17.1875 
L 47.609375 0 
L 37.796875 0 
L 37.796875 17.1875 
L 4.890625 17.1875 
L 4.890625 26.703125 
z
" id="DejaVuSans-34"/>
      </defs>
      <g style="fill:#555555;" transform="translate(118.094294 304.852187)scale(0.1 -0.1)">
       <use transform="translate(0 0.684375)" xlink:href="#DejaVuSans-31"/>
       <use transform="translate(63.623047 0.684375)" xlink:href="#DejaVuSans-30"/>
       <use transform="translate(128.203125 38.965625)scale(0.7)" xlink:href="#DejaVuSans-2212"/>
       <use transform="translate(186.855469 38.965625)scale(0.7)" xlink:href="#DejaVuSans-34"/>
      </g>
     </g>
    </g>
    <g id="xtick_3">
     <g id="line2d_5">
      <path clip-path="url(#pd58c2371d1)" d="M 200.119054 290.25375 
L 200.119054 24.14175 
" style="fill:none;stroke:#ffffff;stroke-linecap:square;stroke-width:0.8;"/>
     </g>
     <g id="line2d_6">
      <g>
       <use style="fill:#555555;stroke:#555555;stroke-width:0.8;" x="200.119054" xlink:href="#mdb3f8fae28" y="290.25375"/>
      </g>
     </g>
     <g id="text_3">
      <!-- ${10^{-3}}$ -->
      <defs>
       <path d="M 40.578125 39.3125 
Q 47.65625 37.796875 51.625 33 
Q 55.609375 28.21875 55.609375 21.1875 
Q 55.609375 10.40625 48.1875 4.484375 
Q 40.765625 -1.421875 27.09375 -1.421875 
Q 22.515625 -1.421875 17.65625 -0.515625 
Q 12.796875 0.390625 7.625 2.203125 
L 7.625 11.71875 
Q 11.71875 9.328125 16.59375 8.109375 
Q 21.484375 6.890625 26.8125 6.890625 
Q 36.078125 6.890625 40.9375 10.546875 
Q 45.796875 14.203125 45.796875 21.1875 
Q 45.796875 27.640625 41.28125 31.265625 
Q 36.765625 34.90625 28.71875 34.90625 
L 20.21875 34.90625 
L 20.21875 43.015625 
L 29.109375 43.015625 
Q 36.375 43.015625 40.234375 45.921875 
Q 44.09375 48.828125 44.09375 54.296875 
Q 44.09375 59.90625 40.109375 62.90625 
Q 36.140625 65.921875 28.71875 65.921875 
Q 24.65625 65.921875 20.015625 65.03125 
Q 15.375 64.15625 9.8125 62.3125 
L 9.8125 71.09375 
Q 15.4375 72.65625 20.34375 73.4375 
Q 25.25 74.21875 29.59375 74.21875 
Q 40.828125 74.21875 47.359375 69.109375 
Q 53.90625 64.015625 53.90625 55.328125 
Q 53.90625 49.265625 50.4375 45.09375 
Q 46.96875 40.921875 40.578125 39.3125 
" id="DejaVuSans-33"/>
      </defs>
      <g style="fill:#555555;" transform="translate(188.369054 304.852187)scale(0.1 -0.1)">
       <use transform="translate(0 0.765625)" xlink:href="#DejaVuSans-31"/>
       <use transform="translate(63.623047 0.765625)" xlink:href="#DejaVuSans-30"/>
       <use transform="translate(128.203125 39.046875)scale(0.7)" xlink:href="#DejaVuSans-2212"/>
       <use transform="translate(186.855469 39.046875)scale(0.7)" xlink:href="#DejaVuSans-33"/>
      </g>
     </g>
    </g>
    <g id="xtick_4">
     <g id="line2d_7">
      <path clip-path="url(#pd58c2371d1)" d="M 270.393814 290.25375 
L 270.393814 24.14175 
" style="fill:none;stroke:#ffffff;stroke-linecap:square;stroke-width:0.8;"/>
     </g>
     <g id="line2d_8">
      <g>
       <use style="fill:#555555;stroke:#555555;stroke-width:0.8;" x="270.393814" xlink:href="#mdb3f8fae28" y="290.25375"/>
      </g>
     </g>
     <g id="text_4">
      <!-- ${10^{-2}}$ -->
      <defs>
       <path d="M 19.1875 8.296875 
L 53.609375 8.296875 
L 53.609375 0 
L 7.328125 0 
L 7.328125 8.296875 
Q 12.9375 14.109375 22.625 23.890625 
Q 32.328125 33.6875 34.8125 36.53125 
Q 39.546875 41.84375 41.421875 45.53125 
Q 43.3125 49.21875 43.3125 52.78125 
Q 43.3125 58.59375 39.234375 62.25 
Q 35.15625 65.921875 28.609375 65.921875 
Q 23.96875 65.921875 18.8125 64.3125 
Q 13.671875 62.703125 7.8125 59.421875 
L 7.8125 69.390625 
Q 13.765625 71.78125 18.9375 73 
Q 24.125 74.21875 28.421875 74.21875 
Q 39.75 74.21875 46.484375 68.546875 
Q 53.21875 62.890625 53.21875 53.421875 
Q 53.21875 48.921875 51.53125 44.890625 
Q 49.859375 40.875 45.40625 35.40625 
Q 44.1875 33.984375 37.640625 27.21875 
Q 31.109375 20.453125 19.1875 8.296875 
" id="DejaVuSans-32"/>
      </defs>
      <g style="fill:#555555;" transform="translate(258.643814 304.852187)scale(0.1 -0.1)">
       <use transform="translate(0 0.765625)" xlink:href="#DejaVuSans-31"/>
       <use transform="translate(63.623047 0.765625)" xlink:href="#DejaVuSans-30"/>
       <use transform="translate(128.203125 39.046875)scale(0.7)" xlink:href="#DejaVuSans-2212"/>
       <use transform="translate(186.855469 39.046875)scale(0.7)" xlink:href="#DejaVuSans-32"/>
      </g>
     </g>
    </g>
    <g id="xtick_5">
     <g id="line2d_9">
      <path clip-path="url(#pd58c2371d1)" d="M 340.668574 290.25375 
L 340.668574 24.14175 
" style="fill:none;stroke:#ffffff;stroke-linecap:square;stroke-width:0.8;"/>
     </g>
     <g id="line2d_10">
      <g>
       <use style="fill:#555555;stroke:#555555;stroke-width:0.8;" x="340.668574" xlink:href="#mdb3f8fae28" y="290.25375"/>
      </g>
     </g>
     <g id="text_5">
      <!-- ${10^{-1}}$ -->
      <g style="fill:#555555;" transform="translate(328.918574 304.852187)scale(0.1 -0.1)">
       <use transform="translate(0 0.684375)" xlink:href="#DejaVuSans-31"/>
       <use transform="translate(63.623047 0.684375)" xlink:href="#DejaVuSans-30"/>
       <use transform="translate(128.203125 38.965625)scale(0.7)" xlink:href="#DejaVuSans-2212"/>
       <use transform="translate(186.855469 38.965625)scale(0.7)" xlink:href="#DejaVuSans-31"/>
      </g>
     </g>
    </g>
    <g id="xtick_6">
     <g id="line2d_11">
      <defs>
       <path d="M 0 0 
L 0 2 
" id="me5eb26bce4" style="stroke:#555555;stroke-width:0.6;"/>
      </defs>
      <g>
       <use style="fill:#555555;stroke:#555555;stroke-width:0.6;" x="48.683836" xlink:href="#me5eb26bce4" y="290.25375"/>
      </g>
     </g>
    </g>
    <g id="xtick_7">
     <g id="line2d_12">
      <g>
       <use style="fill:#555555;stroke:#555555;stroke-width:0.6;" x="52.759206" xlink:href="#me5eb26bce4" y="290.25375"/>
      </g>
     </g>
    </g>
    <g id="xtick_8">
     <g id="line2d_13">
      <g>
       <use style="fill:#555555;stroke:#555555;stroke-width:0.6;" x="56.353938" xlink:href="#me5eb26bce4" y="290.25375"/>
      </g>
     </g>
    </g>
    <g id="xtick_9">
     <g id="line2d_14">
      <g>
       <use style="fill:#555555;stroke:#555555;stroke-width:0.6;" x="80.724345" xlink:href="#me5eb26bce4" y="290.25375"/>
      </g>
     </g>
    </g>
    <g id="xtick_10">
     <g id="line2d_15">
      <g>
       <use style="fill:#555555;stroke:#555555;stroke-width:0.6;" x="93.099116" xlink:href="#me5eb26bce4" y="290.25375"/>
      </g>
     </g>
    </g>
    <g id="xtick_11">
     <g id="line2d_16">
      <g>
       <use style="fill:#555555;stroke:#555555;stroke-width:0.6;" x="101.879156" xlink:href="#me5eb26bce4" y="290.25375"/>
      </g>
     </g>
    </g>
    <g id="xtick_12">
     <g id="line2d_17">
      <g>
       <use style="fill:#555555;stroke:#555555;stroke-width:0.6;" x="108.689483" xlink:href="#me5eb26bce4" y="290.25375"/>
      </g>
     </g>
    </g>
    <g id="xtick_13">
     <g id="line2d_18">
      <g>
       <use style="fill:#555555;stroke:#555555;stroke-width:0.6;" x="114.253926" xlink:href="#me5eb26bce4" y="290.25375"/>
      </g>
     </g>
    </g>
    <g id="xtick_14">
     <g id="line2d_19">
      <g>
       <use style="fill:#555555;stroke:#555555;stroke-width:0.6;" x="118.958596" xlink:href="#me5eb26bce4" y="290.25375"/>
      </g>
     </g>
    </g>
    <g id="xtick_15">
     <g id="line2d_20">
      <g>
       <use style="fill:#555555;stroke:#555555;stroke-width:0.6;" x="123.033966" xlink:href="#me5eb26bce4" y="290.25375"/>
      </g>
     </g>
    </g>
    <g id="xtick_16">
     <g id="line2d_21">
      <g>
       <use style="fill:#555555;stroke:#555555;stroke-width:0.6;" x="126.628697" xlink:href="#me5eb26bce4" y="290.25375"/>
      </g>
     </g>
    </g>
    <g id="xtick_17">
     <g id="line2d_22">
      <g>
       <use style="fill:#555555;stroke:#555555;stroke-width:0.6;" x="150.999105" xlink:href="#me5eb26bce4" y="290.25375"/>
      </g>
     </g>
    </g>
    <g id="xtick_18">
     <g id="line2d_23">
      <g>
       <use style="fill:#555555;stroke:#555555;stroke-width:0.6;" x="163.373876" xlink:href="#me5eb26bce4" y="290.25375"/>
      </g>
     </g>
    </g>
    <g id="xtick_19">
     <g id="line2d_24">
      <g>
       <use style="fill:#555555;stroke:#555555;stroke-width:0.6;" x="172.153915" xlink:href="#me5eb26bce4" y="290.25375"/>
      </g>
     </g>
    </g>
    <g id="xtick_20">
     <g id="line2d_25">
      <g>
       <use style="fill:#555555;stroke:#555555;stroke-width:0.6;" x="178.964243" xlink:href="#me5eb26bce4" y="290.25375"/>
      </g>
     </g>
    </g>
    <g id="xtick_21">
     <g id="line2d_26">
      <g>
       <use style="fill:#555555;stroke:#555555;stroke-width:0.6;" x="184.528686" xlink:href="#me5eb26bce4" y="290.25375"/>
      </g>
     </g>
    </g>
    <g id="xtick_22">
     <g id="line2d_27">
      <g>
       <use style="fill:#555555;stroke:#555555;stroke-width:0.6;" x="189.233356" xlink:href="#me5eb26bce4" y="290.25375"/>
      </g>
     </g>
    </g>
    <g id="xtick_23">
     <g id="line2d_28">
      <g>
       <use style="fill:#555555;stroke:#555555;stroke-width:0.6;" x="193.308726" xlink:href="#me5eb26bce4" y="290.25375"/>
      </g>
     </g>
    </g>
    <g id="xtick_24">
     <g id="line2d_29">
      <g>
       <use style="fill:#555555;stroke:#555555;stroke-width:0.6;" x="196.903457" xlink:href="#me5eb26bce4" y="290.25375"/>
      </g>
     </g>
    </g>
    <g id="xtick_25">
     <g id="line2d_30">
      <g>
       <use style="fill:#555555;stroke:#555555;stroke-width:0.6;" x="221.273865" xlink:href="#me5eb26bce4" y="290.25375"/>
      </g>
     </g>
    </g>
    <g id="xtick_26">
     <g id="line2d_31">
      <g>
       <use style="fill:#555555;stroke:#555555;stroke-width:0.6;" x="233.648635" xlink:href="#me5eb26bce4" y="290.25375"/>
      </g>
     </g>
    </g>
    <g id="xtick_27">
     <g id="line2d_32">
      <g>
       <use style="fill:#555555;stroke:#555555;stroke-width:0.6;" x="242.428675" xlink:href="#me5eb26bce4" y="290.25375"/>
      </g>
     </g>
    </g>
    <g id="xtick_28">
     <g id="line2d_33">
      <g>
       <use style="fill:#555555;stroke:#555555;stroke-width:0.6;" x="249.239003" xlink:href="#me5eb26bce4" y="290.25375"/>
      </g>
     </g>
    </g>
    <g id="xtick_29">
     <g id="line2d_34">
      <g>
       <use style="fill:#555555;stroke:#555555;stroke-width:0.6;" x="254.803446" xlink:href="#me5eb26bce4" y="290.25375"/>
      </g>
     </g>
    </g>
    <g id="xtick_30">
     <g id="line2d_35">
      <g>
       <use style="fill:#555555;stroke:#555555;stroke-width:0.6;" x="259.508116" xlink:href="#me5eb26bce4" y="290.25375"/>
      </g>
     </g>
    </g>
    <g id="xtick_31">
     <g id="line2d_36">
      <g>
       <use style="fill:#555555;stroke:#555555;stroke-width:0.6;" x="263.583486" xlink:href="#me5eb26bce4" y="290.25375"/>
      </g>
     </g>
    </g>
    <g id="xtick_32">
     <g id="line2d_37">
      <g>
       <use style="fill:#555555;stroke:#555555;stroke-width:0.6;" x="267.178217" xlink:href="#me5eb26bce4" y="290.25375"/>
      </g>
     </g>
    </g>
    <g id="xtick_33">
     <g id="line2d_38">
      <g>
       <use style="fill:#555555;stroke:#555555;stroke-width:0.6;" x="291.548624" xlink:href="#me5eb26bce4" y="290.25375"/>
      </g>
     </g>
    </g>
    <g id="xtick_34">
     <g id="line2d_39">
      <g>
       <use style="fill:#555555;stroke:#555555;stroke-width:0.6;" x="303.923395" xlink:href="#me5eb26bce4" y="290.25375"/>
      </g>
     </g>
    </g>
    <g id="xtick_35">
     <g id="line2d_40">
      <g>
       <use style="fill:#555555;stroke:#555555;stroke-width:0.6;" x="312.703435" xlink:href="#me5eb26bce4" y="290.25375"/>
      </g>
     </g>
    </g>
    <g id="xtick_36">
     <g id="line2d_41">
      <g>
       <use style="fill:#555555;stroke:#555555;stroke-width:0.6;" x="319.513763" xlink:href="#me5eb26bce4" y="290.25375"/>
      </g>
     </g>
    </g>
    <g id="xtick_37">
     <g id="line2d_42">
      <g>
       <use style="fill:#555555;stroke:#555555;stroke-width:0.6;" x="325.078206" xlink:href="#me5eb26bce4" y="290.25375"/>
      </g>
     </g>
    </g>
    <g id="xtick_38">
     <g id="line2d_43">
      <g>
       <use style="fill:#555555;stroke:#555555;stroke-width:0.6;" x="329.782876" xlink:href="#me5eb26bce4" y="290.25375"/>
      </g>
     </g>
    </g>
    <g id="xtick_39">
     <g id="line2d_44">
      <g>
       <use style="fill:#555555;stroke:#555555;stroke-width:0.6;" x="333.858246" xlink:href="#me5eb26bce4" y="290.25375"/>
      </g>
     </g>
    </g>
    <g id="xtick_40">
     <g id="line2d_45">
      <g>
       <use style="fill:#555555;stroke:#555555;stroke-width:0.6;" x="337.452977" xlink:href="#me5eb26bce4" y="290.25375"/>
      </g>
     </g>
    </g>
    <g id="xtick_41">
     <g id="line2d_46">
      <g>
       <use style="fill:#555555;stroke:#555555;stroke-width:0.6;" x="361.823384" xlink:href="#me5eb26bce4" y="290.25375"/>
      </g>
     </g>
    </g>
    <g id="xtick_42">
     <g id="line2d_47">
      <g>
       <use style="fill:#555555;stroke:#555555;stroke-width:0.6;" x="374.198155" xlink:href="#me5eb26bce4" y="290.25375"/>
      </g>
     </g>
    </g>
    <g id="xtick_43">
     <g id="line2d_48">
      <g>
       <use style="fill:#555555;stroke:#555555;stroke-width:0.6;" x="382.978195" xlink:href="#me5eb26bce4" y="290.25375"/>
      </g>
     </g>
    </g>
    <g id="xtick_44">
     <g id="line2d_49">
      <g>
       <use style="fill:#555555;stroke:#555555;stroke-width:0.6;" x="389.788523" xlink:href="#me5eb26bce4" y="290.25375"/>
      </g>
     </g>
    </g>
    <g id="xtick_45">
     <g id="line2d_50">
      <g>
       <use style="fill:#555555;stroke:#555555;stroke-width:0.6;" x="395.352966" xlink:href="#me5eb26bce4" y="290.25375"/>
      </g>
     </g>
    </g>
    <g id="xtick_46">
     <g id="line2d_51">
      <g>
       <use style="fill:#555555;stroke:#555555;stroke-width:0.6;" x="400.057635" xlink:href="#me5eb26bce4" y="290.25375"/>
      </g>
     </g>
    </g>
    <g id="xtick_47">
     <g id="line2d_52">
      <g>
       <use style="fill:#555555;stroke:#555555;stroke-width:0.6;" x="404.133005" xlink:href="#me5eb26bce4" y="290.25375"/>
      </g>
     </g>
    </g>
    <g id="text_6">
     <!-- Zeit [s] -->
     <defs>
      <path d="M 5.609375 72.90625 
L 62.890625 72.90625 
L 62.890625 65.375 
L 16.796875 8.296875 
L 64.015625 8.296875 
L 64.015625 0 
L 4.5 0 
L 4.5 7.515625 
L 50.59375 64.59375 
L 5.609375 64.59375 
z
" id="DejaVuSans-5a"/>
      <path d="M 56.203125 29.59375 
L 56.203125 25.203125 
L 14.890625 25.203125 
Q 15.484375 15.921875 20.484375 11.0625 
Q 25.484375 6.203125 34.421875 6.203125 
Q 39.59375 6.203125 44.453125 7.46875 
Q 49.3125 8.734375 54.109375 11.28125 
L 54.109375 2.78125 
Q 49.265625 0.734375 44.1875 -0.34375 
Q 39.109375 -1.421875 33.890625 -1.421875 
Q 20.796875 -1.421875 13.15625 6.1875 
Q 5.515625 13.8125 5.515625 26.8125 
Q 5.515625 40.234375 12.765625 48.109375 
Q 20.015625 56 32.328125 56 
Q 43.359375 56 49.78125 48.890625 
Q 56.203125 41.796875 56.203125 29.59375 
M 47.21875 32.234375 
Q 47.125 39.59375 43.09375 43.984375 
Q 39.0625 48.390625 32.421875 48.390625 
Q 24.90625 48.390625 20.390625 44.140625 
Q 15.875 39.890625 15.1875 32.171875 
z
" id="DejaVuSans-65"/>
      <path d="M 9.421875 54.6875 
L 18.40625 54.6875 
L 18.40625 0 
L 9.421875 0 
z
M 9.421875 75.984375 
L 18.40625 75.984375 
L 18.40625 64.59375 
L 9.421875 64.59375 
z
" id="DejaVuSans-69"/>
      <path d="M 18.3125 70.21875 
L 18.3125 54.6875 
L 36.8125 54.6875 
L 36.8125 47.703125 
L 18.3125 47.703125 
L 18.3125 18.015625 
Q 18.3125 11.328125 20.140625 9.421875 
Q 21.96875 7.515625 27.59375 7.515625 
L 36.8125 7.515625 
L 36.8125 0 
L 27.59375 0 
Q 17.1875 0 13.234375 3.875 
Q 9.28125 7.765625 9.28125 18.015625 
L 9.28125 47.703125 
L 2.6875 47.703125 
L 2.6875 54.6875 
L 9.28125 54.6875 
L 9.28125 70.21875 
z
" id="DejaVuSans-74"/>
      <path id="DejaVuSans-20"/>
      <path d="M 8.59375 75.984375 
L 29.296875 75.984375 
L 29.296875 69 
L 17.578125 69 
L 17.578125 -6.203125 
L 29.296875 -6.203125 
L 29.296875 -13.1875 
L 8.59375 -13.1875 
z
" id="DejaVuSans-5b"/>
      <path d="M 44.28125 53.078125 
L 44.28125 44.578125 
Q 40.484375 46.53125 36.375 47.5 
Q 32.28125 48.484375 27.875 48.484375 
Q 21.1875 48.484375 17.84375 46.4375 
Q 14.5 44.390625 14.5 40.28125 
Q 14.5 37.15625 16.890625 35.375 
Q 19.28125 33.59375 26.515625 31.984375 
L 29.59375 31.296875 
Q 39.15625 29.25 43.1875 25.515625 
Q 47.21875 21.78125 47.21875 15.09375 
Q 47.21875 7.46875 41.1875 3.015625 
Q 35.15625 -1.421875 24.609375 -1.421875 
Q 20.21875 -1.421875 15.453125 -0.5625 
Q 10.6875 0.296875 5.421875 2 
L 5.421875 11.28125 
Q 10.40625 8.6875 15.234375 7.390625 
Q 20.0625 6.109375 24.8125 6.109375 
Q 31.15625 6.109375 34.5625 8.28125 
Q 37.984375 10.453125 37.984375 14.40625 
Q 37.984375 18.0625 35.515625 20.015625 
Q 33.0625 21.96875 24.703125 23.78125 
L 21.578125 24.515625 
Q 13.234375 26.265625 9.515625 29.90625 
Q 5.8125 33.546875 5.8125 39.890625 
Q 5.8125 47.609375 11.28125 51.796875 
Q 16.75 56 26.8125 56 
Q 31.78125 56 36.171875 55.265625 
Q 40.578125 54.546875 44.28125 53.078125 
" id="DejaVuSans-73"/>
      <path d="M 30.421875 75.984375 
L 30.421875 -13.1875 
L 9.71875 -13.1875 
L 9.71875 -6.203125 
L 21.390625 -6.203125 
L 21.390625 69 
L 9.71875 69 
L 9.71875 75.984375 
z
" id="DejaVuSans-5d"/>
     </defs>
     <g style="fill:#555555;" transform="translate(205.925938 320.05)scale(0.12 -0.12)">
      <use xlink:href="#DejaVuSans-5a"/>
      <use x="68.505859" xlink:href="#DejaVuSans-65"/>
      <use x="130.029297" xlink:href="#DejaVuSans-69"/>
      <use x="157.8125" xlink:href="#DejaVuSans-74"/>
      <use x="197.021484" xlink:href="#DejaVuSans-20"/>
      <use x="228.808594" xlink:href="#DejaVuSans-5b"/>
      <use x="267.822266" xlink:href="#DejaVuSans-73"/>
      <use x="319.921875" xlink:href="#DejaVuSans-5d"/>
     </g>
    </g>
   </g>
   <g id="matplotlib.axis_2">
    <g id="ytick_1">
     <g id="line2d_53">
      <path clip-path="url(#pd58c2371d1)" d="M 48.90125 258.605966 
L 406.02125 258.605966 
" style="fill:none;stroke:#ffffff;stroke-linecap:square;stroke-width:0.8;"/>
     </g>
     <g id="line2d_54">
      <defs>
       <path d="M 0 0 
L -3.5 0 
" id="m84ec99846c" style="stroke:#555555;stroke-width:0.8;"/>
      </defs>
      <g>
       <use style="fill:#555555;stroke:#555555;stroke-width:0.8;" x="48.90125" xlink:href="#m84ec99846c" y="258.605966"/>
      </g>
     </g>
     <g id="text_7">
      <!-- 0 -->
      <g style="fill:#555555;" transform="translate(35.53875 262.405185)scale(0.1 -0.1)">
       <use xlink:href="#DejaVuSans-30"/>
      </g>
     </g>
    </g>
    <g id="ytick_2">
     <g id="line2d_55">
      <path clip-path="url(#pd58c2371d1)" d="M 48.90125 220.877279 
L 406.02125 220.877279 
" style="fill:none;stroke:#ffffff;stroke-linecap:square;stroke-width:0.8;"/>
     </g>
     <g id="line2d_56">
      <g>
       <use style="fill:#555555;stroke:#555555;stroke-width:0.8;" x="48.90125" xlink:href="#m84ec99846c" y="220.877279"/>
      </g>
     </g>
     <g id="text_8">
      <!-- 100 -->
      <g style="fill:#555555;" transform="translate(22.81375 224.676498)scale(0.1 -0.1)">
       <use xlink:href="#DejaVuSans-31"/>
       <use x="63.623047" xlink:href="#DejaVuSans-30"/>
       <use x="127.246094" xlink:href="#DejaVuSans-30"/>
      </g>
     </g>
    </g>
    <g id="ytick_3">
     <g id="line2d_57">
      <path clip-path="url(#pd58c2371d1)" d="M 48.90125 183.148592 
L 406.02125 183.148592 
" style="fill:none;stroke:#ffffff;stroke-linecap:square;stroke-width:0.8;"/>
     </g>
     <g id="line2d_58">
      <g>
       <use style="fill:#555555;stroke:#555555;stroke-width:0.8;" x="48.90125" xlink:href="#m84ec99846c" y="183.148592"/>
      </g>
     </g>
     <g id="text_9">
      <!-- 200 -->
      <g style="fill:#555555;" transform="translate(22.81375 186.947811)scale(0.1 -0.1)">
       <use xlink:href="#DejaVuSans-32"/>
       <use x="63.623047" xlink:href="#DejaVuSans-30"/>
       <use x="127.246094" xlink:href="#DejaVuSans-30"/>
      </g>
     </g>
    </g>
    <g id="ytick_4">
     <g id="line2d_59">
      <path clip-path="url(#pd58c2371d1)" d="M 48.90125 145.419905 
L 406.02125 145.419905 
" style="fill:none;stroke:#ffffff;stroke-linecap:square;stroke-width:0.8;"/>
     </g>
     <g id="line2d_60">
      <g>
       <use style="fill:#555555;stroke:#555555;stroke-width:0.8;" x="48.90125" xlink:href="#m84ec99846c" y="145.419905"/>
      </g>
     </g>
     <g id="text_10">
      <!-- 300 -->
      <g style="fill:#555555;" transform="translate(22.81375 149.219124)scale(0.1 -0.1)">
       <use xlink:href="#DejaVuSans-33"/>
       <use x="63.623047" xlink:href="#DejaVuSans-30"/>
       <use x="127.246094" xlink:href="#DejaVuSans-30"/>
      </g>
     </g>
    </g>
    <g id="ytick_5">
     <g id="line2d_61">
      <path clip-path="url(#pd58c2371d1)" d="M 48.90125 107.691218 
L 406.02125 107.691218 
" style="fill:none;stroke:#ffffff;stroke-linecap:square;stroke-width:0.8;"/>
     </g>
     <g id="line2d_62">
      <g>
       <use style="fill:#555555;stroke:#555555;stroke-width:0.8;" x="48.90125" xlink:href="#m84ec99846c" y="107.691218"/>
      </g>
     </g>
     <g id="text_11">
      <!-- 400 -->
      <g style="fill:#555555;" transform="translate(22.81375 111.490437)scale(0.1 -0.1)">
       <use xlink:href="#DejaVuSans-34"/>
       <use x="63.623047" xlink:href="#DejaVuSans-30"/>
       <use x="127.246094" xlink:href="#DejaVuSans-30"/>
      </g>
     </g>
    </g>
    <g id="ytick_6">
     <g id="line2d_63">
      <path clip-path="url(#pd58c2371d1)" d="M 48.90125 69.962531 
L 406.02125 69.962531 
" style="fill:none;stroke:#ffffff;stroke-linecap:square;stroke-width:0.8;"/>
     </g>
     <g id="line2d_64">
      <g>
       <use style="fill:#555555;stroke:#555555;stroke-width:0.8;" x="48.90125" xlink:href="#m84ec99846c" y="69.962531"/>
      </g>
     </g>
     <g id="text_12">
      <!-- 500 -->
      <g style="fill:#555555;" transform="translate(22.81375 73.76175)scale(0.1 -0.1)">
       <use xlink:href="#DejaVuSans-35"/>
       <use x="63.623047" xlink:href="#DejaVuSans-30"/>
       <use x="127.246094" xlink:href="#DejaVuSans-30"/>
      </g>
     </g>
    </g>
    <g id="ytick_7">
     <g id="line2d_65">
      <path clip-path="url(#pd58c2371d1)" d="M 48.90125 32.233844 
L 406.02125 32.233844 
" style="fill:none;stroke:#ffffff;stroke-linecap:square;stroke-width:0.8;"/>
     </g>
     <g id="line2d_66">
      <g>
       <use style="fill:#555555;stroke:#555555;stroke-width:0.8;" x="48.90125" xlink:href="#m84ec99846c" y="32.233844"/>
      </g>
     </g>
     <g id="text_13">
      <!-- 600 -->
      <defs>
       <path d="M 33.015625 40.375 
Q 26.375 40.375 22.484375 35.828125 
Q 18.609375 31.296875 18.609375 23.390625 
Q 18.609375 15.53125 22.484375 10.953125 
Q 26.375 6.390625 33.015625 6.390625 
Q 39.65625 6.390625 43.53125 10.953125 
Q 47.40625 15.53125 47.40625 23.390625 
Q 47.40625 31.296875 43.53125 35.828125 
Q 39.65625 40.375 33.015625 40.375 
M 52.59375 71.296875 
L 52.59375 62.3125 
Q 48.875 64.0625 45.09375 64.984375 
Q 41.3125 65.921875 37.59375 65.921875 
Q 27.828125 65.921875 22.671875 59.328125 
Q 17.53125 52.734375 16.796875 39.40625 
Q 19.671875 43.65625 24.015625 45.921875 
Q 28.375 48.1875 33.59375 48.1875 
Q 44.578125 48.1875 50.953125 41.515625 
Q 57.328125 34.859375 57.328125 23.390625 
Q 57.328125 12.15625 50.6875 5.359375 
Q 44.046875 -1.421875 33.015625 -1.421875 
Q 20.359375 -1.421875 13.671875 8.265625 
Q 6.984375 17.96875 6.984375 36.375 
Q 6.984375 53.65625 15.1875 63.9375 
Q 23.390625 74.21875 37.203125 74.21875 
Q 40.921875 74.21875 44.703125 73.484375 
Q 48.484375 72.75 52.59375 71.296875 
" id="DejaVuSans-36"/>
      </defs>
      <g style="fill:#555555;" transform="translate(22.81375 36.033063)scale(0.1 -0.1)">
       <use xlink:href="#DejaVuSans-36"/>
       <use x="63.623047" xlink:href="#DejaVuSans-30"/>
       <use x="127.246094" xlink:href="#DejaVuSans-30"/>
      </g>
     </g>
    </g>
    <g id="text_14">
     <!-- a.u. -->
     <defs>
      <path d="M 34.28125 27.484375 
Q 23.390625 27.484375 19.1875 25 
Q 14.984375 22.515625 14.984375 16.5 
Q 14.984375 11.71875 18.140625 8.90625 
Q 21.296875 6.109375 26.703125 6.109375 
Q 34.1875 6.109375 38.703125 11.40625 
Q 43.21875 16.703125 43.21875 25.484375 
L 43.21875 27.484375 
z
M 52.203125 31.203125 
L 52.203125 0 
L 43.21875 0 
L 43.21875 8.296875 
Q 40.140625 3.328125 35.546875 0.953125 
Q 30.953125 -1.421875 24.3125 -1.421875 
Q 15.921875 -1.421875 10.953125 3.296875 
Q 6 8.015625 6 15.921875 
Q 6 25.140625 12.171875 29.828125 
Q 18.359375 34.515625 30.609375 34.515625 
L 43.21875 34.515625 
L 43.21875 35.40625 
Q 43.21875 41.609375 39.140625 45 
Q 35.0625 48.390625 27.6875 48.390625 
Q 23 48.390625 18.546875 47.265625 
Q 14.109375 46.140625 10.015625 43.890625 
L 10.015625 52.203125 
Q 14.9375 54.109375 19.578125 55.046875 
Q 24.21875 56 28.609375 56 
Q 40.484375 56 46.34375 49.84375 
Q 52.203125 43.703125 52.203125 31.203125 
" id="DejaVuSans-61"/>
      <path d="M 10.6875 12.40625 
L 21 12.40625 
L 21 0 
L 10.6875 0 
z
" id="DejaVuSans-2e"/>
      <path d="M 8.5 21.578125 
L 8.5 54.6875 
L 17.484375 54.6875 
L 17.484375 21.921875 
Q 17.484375 14.15625 20.5 10.265625 
Q 23.53125 6.390625 29.59375 6.390625 
Q 36.859375 6.390625 41.078125 11.03125 
Q 45.3125 15.671875 45.3125 23.6875 
L 45.3125 54.6875 
L 54.296875 54.6875 
L 54.296875 0 
L 45.3125 0 
L 45.3125 8.40625 
Q 42.046875 3.421875 37.71875 1 
Q 33.40625 -1.421875 27.6875 -1.421875 
Q 18.265625 -1.421875 13.375 4.4375 
Q 8.5 10.296875 8.5 21.578125 
M 31.109375 56 
z
" id="DejaVuSans-75"/>
     </defs>
     <g style="fill:#555555;" transform="translate(16.318125 168.490875)rotate(-90)scale(0.12 -0.12)">
      <use xlink:href="#DejaVuSans-61"/>
      <use x="61.279297" xlink:href="#DejaVuSans-2e"/>
      <use x="93.066406" xlink:href="#DejaVuSans-75"/>
      <use x="156.445312" xlink:href="#DejaVuSans-2e"/>
     </g>
    </g>
   </g>
   <g id="LineCollection_1">
    <path clip-path="url(#pd58c2371d1)" d="M 65.133977 58.447515 
L 65.133977 44.723471 
" style="fill:none;stroke:#348abd;stroke-width:1.5;"/>
    <path clip-path="url(#pd58c2371d1)" d="M 76.328962 58.435575 
L 76.328962 43.330879 
" style="fill:none;stroke:#348abd;stroke-width:1.5;"/>
    <path clip-path="url(#pd58c2371d1)" d="M 87.523946 59.475681 
L 87.523946 36.23775 
" style="fill:none;stroke:#348abd;stroke-width:1.5;"/>
    <path clip-path="url(#pd58c2371d1)" d="M 98.71893 60.573847 
L 98.71893 36.722293 
" style="fill:none;stroke:#348abd;stroke-width:1.5;"/>
    <path clip-path="url(#pd58c2371d1)" d="M 109.913915 63.605624 
L 109.913915 48.954335 
" style="fill:none;stroke:#348abd;stroke-width:1.5;"/>
    <path clip-path="url(#pd58c2371d1)" d="M 121.108899 61.293767 
L 121.108899 49.421034 
" style="fill:none;stroke:#348abd;stroke-width:1.5;"/>
    <path clip-path="url(#pd58c2371d1)" d="M 132.303883 68.372825 
L 132.303883 53.628895 
" style="fill:none;stroke:#348abd;stroke-width:1.5;"/>
    <path clip-path="url(#pd58c2371d1)" d="M 143.498868 70.748069 
L 143.498868 48.411883 
" style="fill:none;stroke:#348abd;stroke-width:1.5;"/>
    <path clip-path="url(#pd58c2371d1)" d="M 154.693852 76.840768 
L 154.693852 64.334025 
" style="fill:none;stroke:#348abd;stroke-width:1.5;"/>
    <path clip-path="url(#pd58c2371d1)" d="M 165.888836 81.164612 
L 165.888836 66.810726 
" style="fill:none;stroke:#348abd;stroke-width:1.5;"/>
    <path clip-path="url(#pd58c2371d1)" d="M 177.083821 97.195687 
L 177.083821 86.298662 
" style="fill:none;stroke:#348abd;stroke-width:1.5;"/>
    <path clip-path="url(#pd58c2371d1)" d="M 188.278805 105.595431 
L 188.278805 79.381097 
" style="fill:none;stroke:#348abd;stroke-width:1.5;"/>
    <path clip-path="url(#pd58c2371d1)" d="M 199.473789 118.918265 
L 199.473789 106.671802 
" style="fill:none;stroke:#348abd;stroke-width:1.5;"/>
    <path clip-path="url(#pd58c2371d1)" d="M 210.668774 133.267819 
L 210.668774 114.391795 
" style="fill:none;stroke:#348abd;stroke-width:1.5;"/>
    <path clip-path="url(#pd58c2371d1)" d="M 221.863758 150.702489 
L 221.863758 137.821453 
" style="fill:none;stroke:#348abd;stroke-width:1.5;"/>
    <path clip-path="url(#pd58c2371d1)" d="M 233.058742 176.452969 
L 233.058742 160.848732 
" style="fill:none;stroke:#348abd;stroke-width:1.5;"/>
    <path clip-path="url(#pd58c2371d1)" d="M 244.253726 195.669475 
L 244.253726 180.235365 
" style="fill:none;stroke:#348abd;stroke-width:1.5;"/>
    <path clip-path="url(#pd58c2371d1)" d="M 255.448711 208.115519 
L 255.448711 198.839052 
" style="fill:none;stroke:#348abd;stroke-width:1.5;"/>
    <path clip-path="url(#pd58c2371d1)" d="M 266.643695 236.240556 
L 266.643695 216.797269 
" style="fill:none;stroke:#348abd;stroke-width:1.5;"/>
    <path clip-path="url(#pd58c2371d1)" d="M 277.838679 246.538626 
L 277.838679 226.756225 
" style="fill:none;stroke:#348abd;stroke-width:1.5;"/>
    <path clip-path="url(#pd58c2371d1)" d="M 289.033664 244.24539 
L 289.033664 232.144722 
" style="fill:none;stroke:#348abd;stroke-width:1.5;"/>
    <path clip-path="url(#pd58c2371d1)" d="M 300.228648 262.306103 
L 300.228648 238.003821 
" style="fill:none;stroke:#348abd;stroke-width:1.5;"/>
    <path clip-path="url(#pd58c2371d1)" d="M 311.423632 256.958994 
L 311.423632 244.514529 
" style="fill:none;stroke:#348abd;stroke-width:1.5;"/>
    <path clip-path="url(#pd58c2371d1)" d="M 322.618617 261.555883 
L 322.618617 250.234915 
" style="fill:none;stroke:#348abd;stroke-width:1.5;"/>
    <path clip-path="url(#pd58c2371d1)" d="M 333.813601 268.988014 
L 333.813601 247.316787 
" style="fill:none;stroke:#348abd;stroke-width:1.5;"/>
    <path clip-path="url(#pd58c2371d1)" d="M 345.008585 269.938315 
L 345.008585 256.762322 
" style="fill:none;stroke:#348abd;stroke-width:1.5;"/>
    <path clip-path="url(#pd58c2371d1)" d="M 356.20357 270.283122 
L 356.20357 249.979537 
" style="fill:none;stroke:#348abd;stroke-width:1.5;"/>
    <path clip-path="url(#pd58c2371d1)" d="M 367.398554 267.191276 
L 367.398554 251.261511 
" style="fill:none;stroke:#348abd;stroke-width:1.5;"/>
    <path clip-path="url(#pd58c2371d1)" d="M 378.593538 272.426236 
L 378.593538 241.565546 
" style="fill:none;stroke:#348abd;stroke-width:1.5;"/>
    <path clip-path="url(#pd58c2371d1)" d="M 389.788523 266.07393 
L 389.788523 252.023377 
" style="fill:none;stroke:#348abd;stroke-width:1.5;"/>
   </g>
   <g id="LineCollection_2">
    <path clip-path="url(#pd58c2371d1)" d="M 65.133977 87.048675 
L 65.133977 71.15821 
" style="fill:none;stroke:#777777;stroke-width:1.5;"/>
    <path clip-path="url(#pd58c2371d1)" d="M 76.328962 89.57774 
L 76.328962 76.835589 
" style="fill:none;stroke:#777777;stroke-width:1.5;"/>
    <path clip-path="url(#pd58c2371d1)" d="M 87.523946 95.015106 
L 87.523946 74.36132 
" style="fill:none;stroke:#777777;stroke-width:1.5;"/>
    <path clip-path="url(#pd58c2371d1)" d="M 98.71893 90.035598 
L 98.71893 77.52128 
" style="fill:none;stroke:#777777;stroke-width:1.5;"/>
    <path clip-path="url(#pd58c2371d1)" d="M 109.913915 92.720193 
L 109.913915 74.844801 
" style="fill:none;stroke:#777777;stroke-width:1.5;"/>
    <path clip-path="url(#pd58c2371d1)" d="M 121.108899 100.618266 
L 121.108899 85.431197 
" style="fill:none;stroke:#777777;stroke-width:1.5;"/>
    <path clip-path="url(#pd58c2371d1)" d="M 132.303883 111.890588 
L 132.303883 79.30372 
" style="fill:none;stroke:#777777;stroke-width:1.5;"/>
    <path clip-path="url(#pd58c2371d1)" d="M 143.498868 112.77923 
L 143.498868 90.244913 
" style="fill:none;stroke:#777777;stroke-width:1.5;"/>
    <path clip-path="url(#pd58c2371d1)" d="M 154.693852 107.842869 
L 154.693852 94.017281 
" style="fill:none;stroke:#777777;stroke-width:1.5;"/>
    <path clip-path="url(#pd58c2371d1)" d="M 165.888836 120.003365 
L 165.888836 98.222805 
" style="fill:none;stroke:#777777;stroke-width:1.5;"/>
    <path clip-path="url(#pd58c2371d1)" d="M 177.083821 117.312212 
L 177.083821 99.606662 
" style="fill:none;stroke:#777777;stroke-width:1.5;"/>
    <path clip-path="url(#pd58c2371d1)" d="M 188.278805 136.176047 
L 188.278805 124.311338 
" style="fill:none;stroke:#777777;stroke-width:1.5;"/>
    <path clip-path="url(#pd58c2371d1)" d="M 199.473789 142.083481 
L 199.473789 129.803113 
" style="fill:none;stroke:#777777;stroke-width:1.5;"/>
    <path clip-path="url(#pd58c2371d1)" d="M 210.668774 164.439727 
L 210.668774 151.367067 
" style="fill:none;stroke:#777777;stroke-width:1.5;"/>
    <path clip-path="url(#pd58c2371d1)" d="M 221.863758 182.577646 
L 221.863758 169.215865 
" style="fill:none;stroke:#777777;stroke-width:1.5;"/>
    <path clip-path="url(#pd58c2371d1)" d="M 233.058742 192.455235 
L 233.058742 182.797868 
" style="fill:none;stroke:#777777;stroke-width:1.5;"/>
    <path clip-path="url(#pd58c2371d1)" d="M 244.253726 211.352632 
L 244.253726 199.7686 
" style="fill:none;stroke:#777777;stroke-width:1.5;"/>
    <path clip-path="url(#pd58c2371d1)" d="M 255.448711 230.497729 
L 255.448711 209.135355 
" style="fill:none;stroke:#777777;stroke-width:1.5;"/>
    <path clip-path="url(#pd58c2371d1)" d="M 266.643695 238.894226 
L 266.643695 221.735751 
" style="fill:none;stroke:#777777;stroke-width:1.5;"/>
    <path clip-path="url(#pd58c2371d1)" d="M 277.838679 248.152605 
L 277.838679 231.217648 
" style="fill:none;stroke:#777777;stroke-width:1.5;"/>
    <path clip-path="url(#pd58c2371d1)" d="M 289.033664 255.715773 
L 289.033664 243.259348 
" style="fill:none;stroke:#777777;stroke-width:1.5;"/>
    <path clip-path="url(#pd58c2371d1)" d="M 300.228648 259.854012 
L 300.228648 247.707354 
" style="fill:none;stroke:#777777;stroke-width:1.5;"/>
    <path clip-path="url(#pd58c2371d1)" d="M 311.423632 274.194192 
L 311.423632 246.902713 
" style="fill:none;stroke:#777777;stroke-width:1.5;"/>
    <path clip-path="url(#pd58c2371d1)" d="M 322.618617 267.529633 
L 322.618617 246.40635 
" style="fill:none;stroke:#777777;stroke-width:1.5;"/>
    <path clip-path="url(#pd58c2371d1)" d="M 333.813601 267.937245 
L 333.813601 252.67146 
" style="fill:none;stroke:#777777;stroke-width:1.5;"/>
    <path clip-path="url(#pd58c2371d1)" d="M 345.008585 272.824014 
L 345.008585 249.67788 
" style="fill:none;stroke:#777777;stroke-width:1.5;"/>
    <path clip-path="url(#pd58c2371d1)" d="M 356.20357 278.15775 
L 356.20357 242.737562 
" style="fill:none;stroke:#777777;stroke-width:1.5;"/>
    <path clip-path="url(#pd58c2371d1)" d="M 367.398554 266.652103 
L 367.398554 252.499238 
" style="fill:none;stroke:#777777;stroke-width:1.5;"/>
    <path clip-path="url(#pd58c2371d1)" d="M 378.593538 267.951555 
L 378.593538 246.438577 
" style="fill:none;stroke:#777777;stroke-width:1.5;"/>
    <path clip-path="url(#pd58c2371d1)" d="M 389.788523 263.131471 
L 389.788523 249.213364 
" style="fill:none;stroke:#777777;stroke-width:1.5;"/>
   </g>
   <g id="line2d_67">
    <path clip-path="url(#pd58c2371d1)" d="M 65.133977 48.756732 
L 76.328962 49.755786 
L 87.523946 51.031329 
L 98.71893 52.661229 
L 109.913915 54.745373 
L 121.108899 57.411484 
L 132.303883 60.821879 
L 143.498868 65.180643 
L 154.693852 70.739791 
L 165.888836 77.801274 
L 177.083821 86.708636 
L 188.278805 97.81741 
L 199.473789 111.427551 
L 210.668774 127.658447 
L 221.863758 146.259448 
L 233.058742 166.39962 
L 244.253726 186.5878 
L 255.448711 204.977745 
L 266.643695 220.166231 
L 277.838679 231.956323 
L 289.033664 241.10242 
L 300.228648 248.210832 
L 311.423632 253.359878 
L 322.618617 256.615079 
L 333.813601 258.33268 
L 345.008585 259.054483 
L 356.20357 259.282507 
L 367.398554 259.332909 
L 378.593538 259.340039 
L 389.788523 259.340617 
" style="fill:none;stroke:#e24a33;stroke-linecap:square;stroke-width:1.5;"/>
   </g>
   <g id="line2d_68">
    <path clip-path="url(#pd58c2371d1)" d="M 65.133977 81.000201 
L 76.328962 81.93296 
L 87.523946 83.132326 
L 98.71893 84.675233 
L 109.913915 86.660199 
L 121.108899 89.212447 
L 132.303883 92.489297 
L 143.498868 96.684892 
L 154.693852 102.032257 
L 165.888836 108.799051 
L 177.083821 117.27085 
L 188.278805 127.712787 
L 199.473789 140.298397 
L 210.668774 154.997808 
L 221.863758 171.434566 
L 233.058742 188.761634 
L 244.253726 205.669464 
L 255.448711 220.669227 
L 266.643695 232.666952 
L 277.838679 241.492962 
L 289.033664 247.818484 
L 300.228648 252.427332 
L 311.423632 255.694923 
L 322.618617 257.766416 
L 333.813601 258.869404 
L 345.008585 259.338453 
L 356.20357 259.488873 
L 367.398554 259.522757 
L 378.593538 259.527666 
L 389.788523 259.528076 
" style="fill:none;stroke:#988ed5;stroke-linecap:square;stroke-width:1.5;"/>
   </g>
   <g id="line2d_69">
    <defs>
     <path d="M -3 3 
L 3 -3 
M -3 -3 
L 3 3 
" id="meddc720ef3" style="stroke:#348abd;"/>
    </defs>
    <g clip-path="url(#pd58c2371d1)">
     <use style="fill:#348abd;stroke:#348abd;" x="65.133977" xlink:href="#meddc720ef3" y="51.585493"/>
     <use style="fill:#348abd;stroke:#348abd;" x="76.328962" xlink:href="#meddc720ef3" y="50.883227"/>
     <use style="fill:#348abd;stroke:#348abd;" x="87.523946" xlink:href="#meddc720ef3" y="47.856715"/>
     <use style="fill:#348abd;stroke:#348abd;" x="98.71893" xlink:href="#meddc720ef3" y="48.64807"/>
     <use style="fill:#348abd;stroke:#348abd;" x="109.913915" xlink:href="#meddc720ef3" y="56.27998"/>
     <use style="fill:#348abd;stroke:#348abd;" x="121.108899" xlink:href="#meddc720ef3" y="55.3574"/>
     <use style="fill:#348abd;stroke:#348abd;" x="132.303883" xlink:href="#meddc720ef3" y="61.00086"/>
     <use style="fill:#348abd;stroke:#348abd;" x="143.498868" xlink:href="#meddc720ef3" y="59.579976"/>
     <use style="fill:#348abd;stroke:#348abd;" x="154.693852" xlink:href="#meddc720ef3" y="70.587396"/>
     <use style="fill:#348abd;stroke:#348abd;" x="165.888836" xlink:href="#meddc720ef3" y="73.987669"/>
     <use style="fill:#348abd;stroke:#348abd;" x="177.083821" xlink:href="#meddc720ef3" y="91.747175"/>
     <use style="fill:#348abd;stroke:#348abd;" x="188.278805" xlink:href="#meddc720ef3" y="92.488264"/>
     <use style="fill:#348abd;stroke:#348abd;" x="199.473789" xlink:href="#meddc720ef3" y="112.795034"/>
     <use style="fill:#348abd;stroke:#348abd;" x="210.668774" xlink:href="#meddc720ef3" y="123.829807"/>
     <use style="fill:#348abd;stroke:#348abd;" x="221.863758" xlink:href="#meddc720ef3" y="144.261971"/>
     <use style="fill:#348abd;stroke:#348abd;" x="233.058742" xlink:href="#meddc720ef3" y="168.65085"/>
     <use style="fill:#348abd;stroke:#348abd;" x="244.253726" xlink:href="#meddc720ef3" y="187.95242"/>
     <use style="fill:#348abd;stroke:#348abd;" x="255.448711" xlink:href="#meddc720ef3" y="203.477285"/>
     <use style="fill:#348abd;stroke:#348abd;" x="266.643695" xlink:href="#meddc720ef3" y="226.518912"/>
     <use style="fill:#348abd;stroke:#348abd;" x="277.838679" xlink:href="#meddc720ef3" y="236.647425"/>
     <use style="fill:#348abd;stroke:#348abd;" x="289.033664" xlink:href="#meddc720ef3" y="238.195056"/>
     <use style="fill:#348abd;stroke:#348abd;" x="300.228648" xlink:href="#meddc720ef3" y="250.154962"/>
     <use style="fill:#348abd;stroke:#348abd;" x="311.423632" xlink:href="#meddc720ef3" y="250.736761"/>
     <use style="fill:#348abd;stroke:#348abd;" x="322.618617" xlink:href="#meddc720ef3" y="255.895399"/>
     <use style="fill:#348abd;stroke:#348abd;" x="333.813601" xlink:href="#meddc720ef3" y="258.1524"/>
     <use style="fill:#348abd;stroke:#348abd;" x="345.008585" xlink:href="#meddc720ef3" y="263.350318"/>
     <use style="fill:#348abd;stroke:#348abd;" x="356.20357" xlink:href="#meddc720ef3" y="260.131329"/>
     <use style="fill:#348abd;stroke:#348abd;" x="367.398554" xlink:href="#meddc720ef3" y="259.226393"/>
     <use style="fill:#348abd;stroke:#348abd;" x="378.593538" xlink:href="#meddc720ef3" y="256.995891"/>
     <use style="fill:#348abd;stroke:#348abd;" x="389.788523" xlink:href="#meddc720ef3" y="259.048653"/>
    </g>
   </g>
   <g id="line2d_70">
    <defs>
     <path d="M -3 3 
L 3 -3 
M -3 -3 
L 3 3 
" id="me8fae71d70" style="stroke:#777777;"/>
    </defs>
    <g clip-path="url(#pd58c2371d1)">
     <use style="fill:#777777;stroke:#777777;" x="65.133977" xlink:href="#me8fae71d70" y="79.103443"/>
     <use style="fill:#777777;stroke:#777777;" x="76.328962" xlink:href="#me8fae71d70" y="83.206665"/>
     <use style="fill:#777777;stroke:#777777;" x="87.523946" xlink:href="#me8fae71d70" y="84.688213"/>
     <use style="fill:#777777;stroke:#777777;" x="98.71893" xlink:href="#me8fae71d70" y="83.778439"/>
     <use style="fill:#777777;stroke:#777777;" x="109.913915" xlink:href="#me8fae71d70" y="83.782497"/>
     <use style="fill:#777777;stroke:#777777;" x="121.108899" xlink:href="#me8fae71d70" y="93.024732"/>
     <use style="fill:#777777;stroke:#777777;" x="132.303883" xlink:href="#me8fae71d70" y="95.597154"/>
     <use style="fill:#777777;stroke:#777777;" x="143.498868" xlink:href="#me8fae71d70" y="101.512072"/>
     <use style="fill:#777777;stroke:#777777;" x="154.693852" xlink:href="#me8fae71d70" y="100.930075"/>
     <use style="fill:#777777;stroke:#777777;" x="165.888836" xlink:href="#me8fae71d70" y="109.113085"/>
     <use style="fill:#777777;stroke:#777777;" x="177.083821" xlink:href="#me8fae71d70" y="108.459437"/>
     <use style="fill:#777777;stroke:#777777;" x="188.278805" xlink:href="#me8fae71d70" y="130.243692"/>
     <use style="fill:#777777;stroke:#777777;" x="199.473789" xlink:href="#me8fae71d70" y="135.943297"/>
     <use style="fill:#777777;stroke:#777777;" x="210.668774" xlink:href="#me8fae71d70" y="157.903397"/>
     <use style="fill:#777777;stroke:#777777;" x="221.863758" xlink:href="#me8fae71d70" y="175.896756"/>
     <use style="fill:#777777;stroke:#777777;" x="233.058742" xlink:href="#me8fae71d70" y="187.626551"/>
     <use style="fill:#777777;stroke:#777777;" x="244.253726" xlink:href="#me8fae71d70" y="205.560616"/>
     <use style="fill:#777777;stroke:#777777;" x="255.448711" xlink:href="#me8fae71d70" y="219.816542"/>
     <use style="fill:#777777;stroke:#777777;" x="266.643695" xlink:href="#me8fae71d70" y="230.314989"/>
     <use style="fill:#777777;stroke:#777777;" x="277.838679" xlink:href="#me8fae71d70" y="239.685127"/>
     <use style="fill:#777777;stroke:#777777;" x="289.033664" xlink:href="#me8fae71d70" y="249.487561"/>
     <use style="fill:#777777;stroke:#777777;" x="300.228648" xlink:href="#me8fae71d70" y="253.780683"/>
     <use style="fill:#777777;stroke:#777777;" x="311.423632" xlink:href="#me8fae71d70" y="260.548452"/>
     <use style="fill:#777777;stroke:#777777;" x="322.618617" xlink:href="#me8fae71d70" y="256.967991"/>
     <use style="fill:#777777;stroke:#777777;" x="333.813601" xlink:href="#me8fae71d70" y="260.304353"/>
     <use style="fill:#777777;stroke:#777777;" x="345.008585" xlink:href="#me8fae71d70" y="261.250947"/>
     <use style="fill:#777777;stroke:#777777;" x="356.20357" xlink:href="#me8fae71d70" y="260.447656"/>
     <use style="fill:#777777;stroke:#777777;" x="367.398554" xlink:href="#me8fae71d70" y="259.57567"/>
     <use style="fill:#777777;stroke:#777777;" x="378.593538" xlink:href="#me8fae71d70" y="257.195066"/>
     <use style="fill:#777777;stroke:#777777;" x="389.788523" xlink:href="#me8fae71d70" y="256.172417"/>
    </g>
   </g>
   <g id="patch_3">
    <path d="M 48.90125 290.25375 
L 48.90125 24.14175 
" style="fill:none;stroke:#ffffff;stroke-linecap:square;stroke-linejoin:miter;"/>
   </g>
   <g id="patch_4">
    <path d="M 406.02125 290.25375 
L 406.02125 24.14175 
" style="fill:none;stroke:#ffffff;stroke-linecap:square;stroke-linejoin:miter;"/>
   </g>
   <g id="patch_5">
    <path d="M 48.90125 290.25375 
L 406.02125 290.25375 
" style="fill:none;stroke:#ffffff;stroke-linecap:square;stroke-linejoin:miter;"/>
   </g>
   <g id="patch_6">
    <path d="M 48.90125 24.14175 
L 406.02125 24.14175 
" style="fill:none;stroke:#ffffff;stroke-linecap:square;stroke-linejoin:miter;"/>
   </g>
   <g id="text_15">
    <!-- CRN $T_1$ an F2, coscos -->
    <defs>
     <path d="M 64.40625 67.28125 
L 64.40625 56.890625 
Q 59.421875 61.53125 53.78125 63.8125 
Q 48.140625 66.109375 41.796875 66.109375 
Q 29.296875 66.109375 22.65625 58.46875 
Q 16.015625 50.828125 16.015625 36.375 
Q 16.015625 21.96875 22.65625 14.328125 
Q 29.296875 6.6875 41.796875 6.6875 
Q 48.140625 6.6875 53.78125 8.984375 
Q 59.421875 11.28125 64.40625 15.921875 
L 64.40625 5.609375 
Q 59.234375 2.09375 53.4375 0.328125 
Q 47.65625 -1.421875 41.21875 -1.421875 
Q 24.65625 -1.421875 15.125 8.703125 
Q 5.609375 18.84375 5.609375 36.375 
Q 5.609375 53.953125 15.125 64.078125 
Q 24.65625 74.21875 41.21875 74.21875 
Q 47.75 74.21875 53.53125 72.484375 
Q 59.328125 70.75 64.40625 67.28125 
" id="DejaVuSans-43"/>
     <path d="M 44.390625 34.1875 
Q 47.5625 33.109375 50.5625 29.59375 
Q 53.5625 26.078125 56.59375 19.921875 
L 66.609375 0 
L 56 0 
L 46.6875 18.703125 
Q 43.0625 26.03125 39.671875 28.421875 
Q 36.28125 30.8125 30.421875 30.8125 
L 19.671875 30.8125 
L 19.671875 0 
L 9.8125 0 
L 9.8125 72.90625 
L 32.078125 72.90625 
Q 44.578125 72.90625 50.734375 67.671875 
Q 56.890625 62.453125 56.890625 51.90625 
Q 56.890625 45.015625 53.6875 40.46875 
Q 50.484375 35.9375 44.390625 34.1875 
M 19.671875 64.796875 
L 19.671875 38.921875 
L 32.078125 38.921875 
Q 39.203125 38.921875 42.84375 42.21875 
Q 46.484375 45.515625 46.484375 51.90625 
Q 46.484375 58.296875 42.84375 61.546875 
Q 39.203125 64.796875 32.078125 64.796875 
z
" id="DejaVuSans-52"/>
     <path d="M 9.8125 72.90625 
L 23.09375 72.90625 
L 55.421875 11.921875 
L 55.421875 72.90625 
L 64.984375 72.90625 
L 64.984375 0 
L 51.703125 0 
L 19.390625 60.984375 
L 19.390625 0 
L 9.8125 0 
z
" id="DejaVuSans-4e"/>
     <path d="M 5.90625 72.90625 
L 67.578125 72.90625 
L 66.015625 64.59375 
L 39.984375 64.59375 
L 27.484375 0 
L 17.578125 0 
L 30.078125 64.59375 
L 4.296875 64.59375 
z
" id="DejaVuSans-Oblique-54"/>
     <path d="M 54.890625 33.015625 
L 54.890625 0 
L 45.90625 0 
L 45.90625 32.71875 
Q 45.90625 40.484375 42.875 44.328125 
Q 39.84375 48.1875 33.796875 48.1875 
Q 26.515625 48.1875 22.3125 43.546875 
Q 18.109375 38.921875 18.109375 30.90625 
L 18.109375 0 
L 9.078125 0 
L 9.078125 54.6875 
L 18.109375 54.6875 
L 18.109375 46.1875 
Q 21.34375 51.125 25.703125 53.5625 
Q 30.078125 56 35.796875 56 
Q 45.21875 56 50.046875 50.171875 
Q 54.890625 44.34375 54.890625 33.015625 
" id="DejaVuSans-6e"/>
     <path d="M 9.8125 72.90625 
L 51.703125 72.90625 
L 51.703125 64.59375 
L 19.671875 64.59375 
L 19.671875 43.109375 
L 48.578125 43.109375 
L 48.578125 34.8125 
L 19.671875 34.8125 
L 19.671875 0 
L 9.8125 0 
z
" id="DejaVuSans-46"/>
     <path d="M 11.71875 12.40625 
L 22.015625 12.40625 
L 22.015625 4 
L 14.015625 -11.625 
L 7.71875 -11.625 
L 11.71875 4 
z
" id="DejaVuSans-2c"/>
     <path d="M 48.78125 52.59375 
L 48.78125 44.1875 
Q 44.96875 46.296875 41.140625 47.34375 
Q 37.3125 48.390625 33.40625 48.390625 
Q 24.65625 48.390625 19.8125 42.84375 
Q 14.984375 37.3125 14.984375 27.296875 
Q 14.984375 17.28125 19.8125 11.734375 
Q 24.65625 6.203125 33.40625 6.203125 
Q 37.3125 6.203125 41.140625 7.25 
Q 44.96875 8.296875 48.78125 10.40625 
L 48.78125 2.09375 
Q 45.015625 0.34375 40.984375 -0.53125 
Q 36.96875 -1.421875 32.421875 -1.421875 
Q 20.0625 -1.421875 12.78125 6.34375 
Q 5.515625 14.109375 5.515625 27.296875 
Q 5.515625 40.671875 12.859375 48.328125 
Q 20.21875 56 33.015625 56 
Q 37.15625 56 41.109375 55.140625 
Q 45.0625 54.296875 48.78125 52.59375 
" id="DejaVuSans-63"/>
     <path d="M 30.609375 48.390625 
Q 23.390625 48.390625 19.1875 42.75 
Q 14.984375 37.109375 14.984375 27.296875 
Q 14.984375 17.484375 19.15625 11.84375 
Q 23.34375 6.203125 30.609375 6.203125 
Q 37.796875 6.203125 41.984375 11.859375 
Q 46.1875 17.53125 46.1875 27.296875 
Q 46.1875 37.015625 41.984375 42.703125 
Q 37.796875 48.390625 30.609375 48.390625 
M 30.609375 56 
Q 42.328125 56 49.015625 48.375 
Q 55.71875 40.765625 55.71875 27.296875 
Q 55.71875 13.875 49.015625 6.21875 
Q 42.328125 -1.421875 30.609375 -1.421875 
Q 18.84375 -1.421875 12.171875 6.21875 
Q 5.515625 13.875 5.515625 27.296875 
Q 5.515625 40.765625 12.171875 48.375 
Q 18.84375 56 30.609375 56 
" id="DejaVuSans-6f"/>
    </defs>
    <g transform="translate(150.85325 18.14175)scale(0.144 -0.144)">
     <use transform="translate(0 0.78125)" xlink:href="#DejaVuSans-43"/>
     <use transform="translate(69.824219 0.78125)" xlink:href="#DejaVuSans-52"/>
     <use transform="translate(139.306641 0.78125)" xlink:href="#DejaVuSans-4e"/>
     <use transform="translate(214.111328 0.78125)" xlink:href="#DejaVuSans-20"/>
     <use transform="translate(245.898438 0.78125)" xlink:href="#DejaVuSans-Oblique-54"/>
     <use transform="translate(306.982422 -15.625)scale(0.7)" xlink:href="#DejaVuSans-31"/>
     <use transform="translate(354.25293 0.78125)" xlink:href="#DejaVuSans-20"/>
     <use transform="translate(386.040039 0.78125)" xlink:href="#DejaVuSans-61"/>
     <use transform="translate(447.319336 0.78125)" xlink:href="#DejaVuSans-6e"/>
     <use transform="translate(510.698242 0.78125)" xlink:href="#DejaVuSans-20"/>
     <use transform="translate(542.485352 0.78125)" xlink:href="#DejaVuSans-46"/>
     <use transform="translate(600.004883 0.78125)" xlink:href="#DejaVuSans-32"/>
     <use transform="translate(663.62793 0.78125)" xlink:href="#DejaVuSans-2c"/>
     <use transform="translate(695.415039 0.78125)" xlink:href="#DejaVuSans-20"/>
     <use transform="translate(727.202148 0.78125)" xlink:href="#DejaVuSans-63"/>
     <use transform="translate(782.182617 0.78125)" xlink:href="#DejaVuSans-6f"/>
     <use transform="translate(843.364258 0.78125)" xlink:href="#DejaVuSans-73"/>
     <use transform="translate(895.463867 0.78125)" xlink:href="#DejaVuSans-63"/>
     <use transform="translate(950.444336 0.78125)" xlink:href="#DejaVuSans-6f"/>
     <use transform="translate(1011.625977 0.78125)" xlink:href="#DejaVuSans-73"/>
    </g>
   </g>
   <g id="legend_1">
    <g id="patch_7">
     <path d="M 317.32125 61.498 
L 399.02125 61.498 
Q 401.02125 61.498 401.02125 59.498 
L 401.02125 31.14175 
Q 401.02125 29.14175 399.02125 29.14175 
L 317.32125 29.14175 
Q 315.32125 29.14175 315.32125 31.14175 
L 315.32125 59.498 
Q 315.32125 61.498 317.32125 61.498 
z
" style="fill:#e5e5e5;opacity:0.8;stroke:#cccccc;stroke-linejoin:miter;stroke-width:0.5;"/>
    </g>
    <g id="LineCollection_3">
     <path d="M 329.32125 42.240187 
L 329.32125 32.240187 
" style="fill:none;stroke:#348abd;stroke-width:1.5;"/>
    </g>
    <g id="line2d_71"/>
    <g id="line2d_72">
     <g>
      <use style="fill:#348abd;stroke:#348abd;" x="329.32125" xlink:href="#meddc720ef3" y="37.240187"/>
     </g>
    </g>
    <g id="text_16">
     <!-- $T$ = 300 K -->
     <defs>
      <path d="M 10.59375 45.40625 
L 73.1875 45.40625 
L 73.1875 37.203125 
L 10.59375 37.203125 
z
M 10.59375 25.484375 
L 73.1875 25.484375 
L 73.1875 17.1875 
L 10.59375 17.1875 
z
" id="DejaVuSans-3d"/>
      <path d="M 9.8125 72.90625 
L 19.671875 72.90625 
L 19.671875 42.09375 
L 52.390625 72.90625 
L 65.09375 72.90625 
L 28.90625 38.921875 
L 67.671875 0 
L 54.6875 0 
L 19.671875 35.109375 
L 19.671875 0 
L 9.8125 0 
z
" id="DejaVuSans-4b"/>
     </defs>
     <g transform="translate(347.32125 40.740187)scale(0.1 -0.1)">
      <use transform="translate(0 0.78125)" xlink:href="#DejaVuSans-Oblique-54"/>
      <use transform="translate(61.083984 0.78125)" xlink:href="#DejaVuSans-20"/>
      <use transform="translate(92.871094 0.78125)" xlink:href="#DejaVuSans-3d"/>
      <use transform="translate(176.660156 0.78125)" xlink:href="#DejaVuSans-20"/>
      <use transform="translate(208.447266 0.78125)" xlink:href="#DejaVuSans-33"/>
      <use transform="translate(272.070312 0.78125)" xlink:href="#DejaVuSans-30"/>
      <use transform="translate(335.693359 0.78125)" xlink:href="#DejaVuSans-30"/>
      <use transform="translate(399.316406 0.78125)" xlink:href="#DejaVuSans-20"/>
      <use transform="translate(431.103516 0.78125)" xlink:href="#DejaVuSans-4b"/>
     </g>
    </g>
    <g id="LineCollection_4">
     <path d="M 329.32125 56.918312 
L 329.32125 46.918312 
" style="fill:none;stroke:#777777;stroke-width:1.5;"/>
    </g>
    <g id="line2d_73"/>
    <g id="line2d_74">
     <g>
      <use style="fill:#777777;stroke:#777777;" x="329.32125" xlink:href="#me8fae71d70" y="51.918312"/>
     </g>
    </g>
    <g id="text_17">
     <!-- $T$ = 310 K -->
     <g transform="translate(347.32125 55.418312)scale(0.1 -0.1)">
      <use transform="translate(0 0.78125)" xlink:href="#DejaVuSans-Oblique-54"/>
      <use transform="translate(61.083984 0.78125)" xlink:href="#DejaVuSans-20"/>
      <use transform="translate(92.871094 0.78125)" xlink:href="#DejaVuSans-3d"/>
      <use transform="translate(176.660156 0.78125)" xlink:href="#DejaVuSans-20"/>
      <use transform="translate(208.447266 0.78125)" xlink:href="#DejaVuSans-33"/>
      <use transform="translate(272.070312 0.78125)" xlink:href="#DejaVuSans-31"/>
      <use transform="translate(335.693359 0.78125)" xlink:href="#DejaVuSans-30"/>
      <use transform="translate(399.316406 0.78125)" xlink:href="#DejaVuSans-20"/>
      <use transform="translate(431.103516 0.78125)" xlink:href="#DejaVuSans-4b"/>
     </g>
    </g>
   </g>
  </g>
 </g>
 <defs>
  <clipPath id="pd58c2371d1">
   <rect height="266.112" width="357.12" x="48.90125" y="24.14175"/>
  </clipPath>
 </defs>
</svg>
