<?xml version="1.0" encoding="utf-8" standalone="no"?>
<!DOCTYPE svg PUBLIC "-//W3C//DTD SVG 1.1//EN"
  "http://www.w3.org/Graphics/SVG/1.1/DTD/svg11.dtd">
<!-- Created with matplotlib (http://matplotlib.org/) -->
<svg height="329pt" version="1.1" viewBox="0 0 416 329" width="416pt" xmlns="http://www.w3.org/2000/svg" xmlns:xlink="http://www.w3.org/1999/xlink">
 <defs>
  <style type="text/css">
*{stroke-linecap:butt;stroke-linejoin:round;}
  </style>
 </defs>
 <g id="figure_1">
  <g id="patch_1">
   <path d="M 0 329.745625 
L 416.72125 329.745625 
L 416.72125 0 
L 0 0 
z
" style="fill:#ffffff;"/>
  </g>
  <g id="axes_1">
   <g id="patch_2">
    <path d="M 48.90125 290.25375 
L 406.02125 290.25375 
L 406.02125 24.14175 
L 48.90125 24.14175 
z
" style="fill:#e5e5e5;"/>
   </g>
   <g id="matplotlib.axis_1">
    <g id="xtick_1">
     <g id="line2d_1">
      <path clip-path="url(#p4953806e92)" d="M 59.569534 290.25375 
L 59.569534 24.14175 
" style="fill:none;stroke:#ffffff;stroke-linecap:square;stroke-width:0.8;"/>
     </g>
     <g id="line2d_2">
      <defs>
       <path d="M 0 0 
L 0 3.5 
" id="mf3cbe37641" style="stroke:#555555;stroke-width:0.8;"/>
      </defs>
      <g>
       <use style="fill:#555555;stroke:#555555;stroke-width:0.8;" x="59.569534" xlink:href="#mf3cbe37641" y="290.25375"/>
      </g>
     </g>
     <g id="text_1">
      <!-- ${10^{-5}}$ -->
      <defs>
       <path d="M 12.40625 8.296875 
L 28.515625 8.296875 
L 28.515625 63.921875 
L 10.984375 60.40625 
L 10.984375 69.390625 
L 28.421875 72.90625 
L 38.28125 72.90625 
L 38.28125 8.296875 
L 54.390625 8.296875 
L 54.390625 0 
L 12.40625 0 
z
" id="DejaVuSans-31"/>
       <path d="M 31.78125 66.40625 
Q 24.171875 66.40625 20.328125 58.90625 
Q 16.5 51.421875 16.5 36.375 
Q 16.5 21.390625 20.328125 13.890625 
Q 24.171875 6.390625 31.78125 6.390625 
Q 39.453125 6.390625 43.28125 13.890625 
Q 47.125 21.390625 47.125 36.375 
Q 47.125 51.421875 43.28125 58.90625 
Q 39.453125 66.40625 31.78125 66.40625 
M 31.78125 74.21875 
Q 44.046875 74.21875 50.515625 64.515625 
Q 56.984375 54.828125 56.984375 36.375 
Q 56.984375 17.96875 50.515625 8.265625 
Q 44.046875 -1.421875 31.78125 -1.421875 
Q 19.53125 -1.421875 13.0625 8.265625 
Q 6.59375 17.96875 6.59375 36.375 
Q 6.59375 54.828125 13.0625 64.515625 
Q 19.53125 74.21875 31.78125 74.21875 
" id="DejaVuSans-30"/>
       <path d="M 10.59375 35.5 
L 73.1875 35.5 
L 73.1875 27.203125 
L 10.59375 27.203125 
z
" id="DejaVuSans-2212"/>
       <path d="M 10.796875 72.90625 
L 49.515625 72.90625 
L 49.515625 64.59375 
L 19.828125 64.59375 
L 19.828125 46.734375 
Q 21.96875 47.46875 24.109375 47.828125 
Q 26.265625 48.1875 28.421875 48.1875 
Q 40.625 48.1875 47.75 41.5 
Q 54.890625 34.8125 54.890625 23.390625 
Q 54.890625 11.625 47.5625 5.09375 
Q 40.234375 -1.421875 26.90625 -1.421875 
Q 22.3125 -1.421875 17.546875 -0.640625 
Q 12.796875 0.140625 7.71875 1.703125 
L 7.71875 11.625 
Q 12.109375 9.234375 16.796875 8.0625 
Q 21.484375 6.890625 26.703125 6.890625 
Q 35.15625 6.890625 40.078125 11.328125 
Q 45.015625 15.765625 45.015625 23.390625 
Q 45.015625 31 40.078125 35.4375 
Q 35.15625 39.890625 26.703125 39.890625 
Q 22.75 39.890625 18.8125 39.015625 
Q 14.890625 38.140625 10.796875 36.28125 
z
" id="DejaVuSans-35"/>
      </defs>
      <g style="fill:#555555;" transform="translate(47.819534 304.852187)scale(0.1 -0.1)">
       <use transform="translate(0 0.684375)" xlink:href="#DejaVuSans-31"/>
       <use transform="translate(63.623047 0.684375)" xlink:href="#DejaVuSans-30"/>
       <use transform="translate(128.203125 38.965625)scale(0.7)" xlink:href="#DejaVuSans-2212"/>
       <use transform="translate(186.855469 38.965625)scale(0.7)" xlink:href="#DejaVuSans-35"/>
      </g>
     </g>
    </g>
    <g id="xtick_2">
     <g id="line2d_3">
      <path clip-path="url(#p4953806e92)" d="M 129.844294 290.25375 
L 129.844294 24.14175 
" style="fill:none;stroke:#ffffff;stroke-linecap:square;stroke-width:0.8;"/>
     </g>
     <g id="line2d_4">
      <g>
       <use style="fill:#555555;stroke:#555555;stroke-width:0.8;" x="129.844294" xlink:href="#mf3cbe37641" y="290.25375"/>
      </g>
     </g>
     <g id="text_2">
      <!-- ${10^{-4}}$ -->
      <defs>
       <path d="M 37.796875 64.3125 
L 12.890625 25.390625 
L 37.796875 25.390625 
z
M 35.203125 72.90625 
L 47.609375 72.90625 
L 47.609375 25.390625 
L 58.015625 25.390625 
L 58.015625 17.1875 
L 47.609375 17.1875 
L 47.609375 0 
L 37.796875 0 
L 37.796875 17.1875 
L 4.890625 17.1875 
L 4.890625 26.703125 
z
" id="DejaVuSans-34"/>
      </defs>
      <g style="fill:#555555;" transform="translate(118.094294 304.852187)scale(0.1 -0.1)">
       <use transform="translate(0 0.684375)" xlink:href="#DejaVuSans-31"/>
       <use transform="translate(63.623047 0.684375)" xlink:href="#DejaVuSans-30"/>
       <use transform="translate(128.203125 38.965625)scale(0.7)" xlink:href="#DejaVuSans-2212"/>
       <use transform="translate(186.855469 38.965625)scale(0.7)" xlink:href="#DejaVuSans-34"/>
      </g>
     </g>
    </g>
    <g id="xtick_3">
     <g id="line2d_5">
      <path clip-path="url(#p4953806e92)" d="M 200.119054 290.25375 
L 200.119054 24.14175 
" style="fill:none;stroke:#ffffff;stroke-linecap:square;stroke-width:0.8;"/>
     </g>
     <g id="line2d_6">
      <g>
       <use style="fill:#555555;stroke:#555555;stroke-width:0.8;" x="200.119054" xlink:href="#mf3cbe37641" y="290.25375"/>
      </g>
     </g>
     <g id="text_3">
      <!-- ${10^{-3}}$ -->
      <defs>
       <path d="M 40.578125 39.3125 
Q 47.65625 37.796875 51.625 33 
Q 55.609375 28.21875 55.609375 21.1875 
Q 55.609375 10.40625 48.1875 4.484375 
Q 40.765625 -1.421875 27.09375 -1.421875 
Q 22.515625 -1.421875 17.65625 -0.515625 
Q 12.796875 0.390625 7.625 2.203125 
L 7.625 11.71875 
Q 11.71875 9.328125 16.59375 8.109375 
Q 21.484375 6.890625 26.8125 6.890625 
Q 36.078125 6.890625 40.9375 10.546875 
Q 45.796875 14.203125 45.796875 21.1875 
Q 45.796875 27.640625 41.28125 31.265625 
Q 36.765625 34.90625 28.71875 34.90625 
L 20.21875 34.90625 
L 20.21875 43.015625 
L 29.109375 43.015625 
Q 36.375 43.015625 40.234375 45.921875 
Q 44.09375 48.828125 44.09375 54.296875 
Q 44.09375 59.90625 40.109375 62.90625 
Q 36.140625 65.921875 28.71875 65.921875 
Q 24.65625 65.921875 20.015625 65.03125 
Q 15.375 64.15625 9.8125 62.3125 
L 9.8125 71.09375 
Q 15.4375 72.65625 20.34375 73.4375 
Q 25.25 74.21875 29.59375 74.21875 
Q 40.828125 74.21875 47.359375 69.109375 
Q 53.90625 64.015625 53.90625 55.328125 
Q 53.90625 49.265625 50.4375 45.09375 
Q 46.96875 40.921875 40.578125 39.3125 
" id="DejaVuSans-33"/>
      </defs>
      <g style="fill:#555555;" transform="translate(188.369054 304.852187)scale(0.1 -0.1)">
       <use transform="translate(0 0.765625)" xlink:href="#DejaVuSans-31"/>
       <use transform="translate(63.623047 0.765625)" xlink:href="#DejaVuSans-30"/>
       <use transform="translate(128.203125 39.046875)scale(0.7)" xlink:href="#DejaVuSans-2212"/>
       <use transform="translate(186.855469 39.046875)scale(0.7)" xlink:href="#DejaVuSans-33"/>
      </g>
     </g>
    </g>
    <g id="xtick_4">
     <g id="line2d_7">
      <path clip-path="url(#p4953806e92)" d="M 270.393814 290.25375 
L 270.393814 24.14175 
" style="fill:none;stroke:#ffffff;stroke-linecap:square;stroke-width:0.8;"/>
     </g>
     <g id="line2d_8">
      <g>
       <use style="fill:#555555;stroke:#555555;stroke-width:0.8;" x="270.393814" xlink:href="#mf3cbe37641" y="290.25375"/>
      </g>
     </g>
     <g id="text_4">
      <!-- ${10^{-2}}$ -->
      <defs>
       <path d="M 19.1875 8.296875 
L 53.609375 8.296875 
L 53.609375 0 
L 7.328125 0 
L 7.328125 8.296875 
Q 12.9375 14.109375 22.625 23.890625 
Q 32.328125 33.6875 34.8125 36.53125 
Q 39.546875 41.84375 41.421875 45.53125 
Q 43.3125 49.21875 43.3125 52.78125 
Q 43.3125 58.59375 39.234375 62.25 
Q 35.15625 65.921875 28.609375 65.921875 
Q 23.96875 65.921875 18.8125 64.3125 
Q 13.671875 62.703125 7.8125 59.421875 
L 7.8125 69.390625 
Q 13.765625 71.78125 18.9375 73 
Q 24.125 74.21875 28.421875 74.21875 
Q 39.75 74.21875 46.484375 68.546875 
Q 53.21875 62.890625 53.21875 53.421875 
Q 53.21875 48.921875 51.53125 44.890625 
Q 49.859375 40.875 45.40625 35.40625 
Q 44.1875 33.984375 37.640625 27.21875 
Q 31.109375 20.453125 19.1875 8.296875 
" id="DejaVuSans-32"/>
      </defs>
      <g style="fill:#555555;" transform="translate(258.643814 304.852187)scale(0.1 -0.1)">
       <use transform="translate(0 0.765625)" xlink:href="#DejaVuSans-31"/>
       <use transform="translate(63.623047 0.765625)" xlink:href="#DejaVuSans-30"/>
       <use transform="translate(128.203125 39.046875)scale(0.7)" xlink:href="#DejaVuSans-2212"/>
       <use transform="translate(186.855469 39.046875)scale(0.7)" xlink:href="#DejaVuSans-32"/>
      </g>
     </g>
    </g>
    <g id="xtick_5">
     <g id="line2d_9">
      <path clip-path="url(#p4953806e92)" d="M 340.668574 290.25375 
L 340.668574 24.14175 
" style="fill:none;stroke:#ffffff;stroke-linecap:square;stroke-width:0.8;"/>
     </g>
     <g id="line2d_10">
      <g>
       <use style="fill:#555555;stroke:#555555;stroke-width:0.8;" x="340.668574" xlink:href="#mf3cbe37641" y="290.25375"/>
      </g>
     </g>
     <g id="text_5">
      <!-- ${10^{-1}}$ -->
      <g style="fill:#555555;" transform="translate(328.918574 304.852187)scale(0.1 -0.1)">
       <use transform="translate(0 0.684375)" xlink:href="#DejaVuSans-31"/>
       <use transform="translate(63.623047 0.684375)" xlink:href="#DejaVuSans-30"/>
       <use transform="translate(128.203125 38.965625)scale(0.7)" xlink:href="#DejaVuSans-2212"/>
       <use transform="translate(186.855469 38.965625)scale(0.7)" xlink:href="#DejaVuSans-31"/>
      </g>
     </g>
    </g>
    <g id="xtick_6">
     <g id="line2d_11">
      <defs>
       <path d="M 0 0 
L 0 2 
" id="mb63c0960ae" style="stroke:#555555;stroke-width:0.6;"/>
      </defs>
      <g>
       <use style="fill:#555555;stroke:#555555;stroke-width:0.6;" x="48.683836" xlink:href="#mb63c0960ae" y="290.25375"/>
      </g>
     </g>
    </g>
    <g id="xtick_7">
     <g id="line2d_12">
      <g>
       <use style="fill:#555555;stroke:#555555;stroke-width:0.6;" x="52.759206" xlink:href="#mb63c0960ae" y="290.25375"/>
      </g>
     </g>
    </g>
    <g id="xtick_8">
     <g id="line2d_13">
      <g>
       <use style="fill:#555555;stroke:#555555;stroke-width:0.6;" x="56.353938" xlink:href="#mb63c0960ae" y="290.25375"/>
      </g>
     </g>
    </g>
    <g id="xtick_9">
     <g id="line2d_14">
      <g>
       <use style="fill:#555555;stroke:#555555;stroke-width:0.6;" x="80.724345" xlink:href="#mb63c0960ae" y="290.25375"/>
      </g>
     </g>
    </g>
    <g id="xtick_10">
     <g id="line2d_15">
      <g>
       <use style="fill:#555555;stroke:#555555;stroke-width:0.6;" x="93.099116" xlink:href="#mb63c0960ae" y="290.25375"/>
      </g>
     </g>
    </g>
    <g id="xtick_11">
     <g id="line2d_16">
      <g>
       <use style="fill:#555555;stroke:#555555;stroke-width:0.6;" x="101.879156" xlink:href="#mb63c0960ae" y="290.25375"/>
      </g>
     </g>
    </g>
    <g id="xtick_12">
     <g id="line2d_17">
      <g>
       <use style="fill:#555555;stroke:#555555;stroke-width:0.6;" x="108.689483" xlink:href="#mb63c0960ae" y="290.25375"/>
      </g>
     </g>
    </g>
    <g id="xtick_13">
     <g id="line2d_18">
      <g>
       <use style="fill:#555555;stroke:#555555;stroke-width:0.6;" x="114.253926" xlink:href="#mb63c0960ae" y="290.25375"/>
      </g>
     </g>
    </g>
    <g id="xtick_14">
     <g id="line2d_19">
      <g>
       <use style="fill:#555555;stroke:#555555;stroke-width:0.6;" x="118.958596" xlink:href="#mb63c0960ae" y="290.25375"/>
      </g>
     </g>
    </g>
    <g id="xtick_15">
     <g id="line2d_20">
      <g>
       <use style="fill:#555555;stroke:#555555;stroke-width:0.6;" x="123.033966" xlink:href="#mb63c0960ae" y="290.25375"/>
      </g>
     </g>
    </g>
    <g id="xtick_16">
     <g id="line2d_21">
      <g>
       <use style="fill:#555555;stroke:#555555;stroke-width:0.6;" x="126.628697" xlink:href="#mb63c0960ae" y="290.25375"/>
      </g>
     </g>
    </g>
    <g id="xtick_17">
     <g id="line2d_22">
      <g>
       <use style="fill:#555555;stroke:#555555;stroke-width:0.6;" x="150.999105" xlink:href="#mb63c0960ae" y="290.25375"/>
      </g>
     </g>
    </g>
    <g id="xtick_18">
     <g id="line2d_23">
      <g>
       <use style="fill:#555555;stroke:#555555;stroke-width:0.6;" x="163.373876" xlink:href="#mb63c0960ae" y="290.25375"/>
      </g>
     </g>
    </g>
    <g id="xtick_19">
     <g id="line2d_24">
      <g>
       <use style="fill:#555555;stroke:#555555;stroke-width:0.6;" x="172.153915" xlink:href="#mb63c0960ae" y="290.25375"/>
      </g>
     </g>
    </g>
    <g id="xtick_20">
     <g id="line2d_25">
      <g>
       <use style="fill:#555555;stroke:#555555;stroke-width:0.6;" x="178.964243" xlink:href="#mb63c0960ae" y="290.25375"/>
      </g>
     </g>
    </g>
    <g id="xtick_21">
     <g id="line2d_26">
      <g>
       <use style="fill:#555555;stroke:#555555;stroke-width:0.6;" x="184.528686" xlink:href="#mb63c0960ae" y="290.25375"/>
      </g>
     </g>
    </g>
    <g id="xtick_22">
     <g id="line2d_27">
      <g>
       <use style="fill:#555555;stroke:#555555;stroke-width:0.6;" x="189.233356" xlink:href="#mb63c0960ae" y="290.25375"/>
      </g>
     </g>
    </g>
    <g id="xtick_23">
     <g id="line2d_28">
      <g>
       <use style="fill:#555555;stroke:#555555;stroke-width:0.6;" x="193.308726" xlink:href="#mb63c0960ae" y="290.25375"/>
      </g>
     </g>
    </g>
    <g id="xtick_24">
     <g id="line2d_29">
      <g>
       <use style="fill:#555555;stroke:#555555;stroke-width:0.6;" x="196.903457" xlink:href="#mb63c0960ae" y="290.25375"/>
      </g>
     </g>
    </g>
    <g id="xtick_25">
     <g id="line2d_30">
      <g>
       <use style="fill:#555555;stroke:#555555;stroke-width:0.6;" x="221.273865" xlink:href="#mb63c0960ae" y="290.25375"/>
      </g>
     </g>
    </g>
    <g id="xtick_26">
     <g id="line2d_31">
      <g>
       <use style="fill:#555555;stroke:#555555;stroke-width:0.6;" x="233.648635" xlink:href="#mb63c0960ae" y="290.25375"/>
      </g>
     </g>
    </g>
    <g id="xtick_27">
     <g id="line2d_32">
      <g>
       <use style="fill:#555555;stroke:#555555;stroke-width:0.6;" x="242.428675" xlink:href="#mb63c0960ae" y="290.25375"/>
      </g>
     </g>
    </g>
    <g id="xtick_28">
     <g id="line2d_33">
      <g>
       <use style="fill:#555555;stroke:#555555;stroke-width:0.6;" x="249.239003" xlink:href="#mb63c0960ae" y="290.25375"/>
      </g>
     </g>
    </g>
    <g id="xtick_29">
     <g id="line2d_34">
      <g>
       <use style="fill:#555555;stroke:#555555;stroke-width:0.6;" x="254.803446" xlink:href="#mb63c0960ae" y="290.25375"/>
      </g>
     </g>
    </g>
    <g id="xtick_30">
     <g id="line2d_35">
      <g>
       <use style="fill:#555555;stroke:#555555;stroke-width:0.6;" x="259.508116" xlink:href="#mb63c0960ae" y="290.25375"/>
      </g>
     </g>
    </g>
    <g id="xtick_31">
     <g id="line2d_36">
      <g>
       <use style="fill:#555555;stroke:#555555;stroke-width:0.6;" x="263.583486" xlink:href="#mb63c0960ae" y="290.25375"/>
      </g>
     </g>
    </g>
    <g id="xtick_32">
     <g id="line2d_37">
      <g>
       <use style="fill:#555555;stroke:#555555;stroke-width:0.6;" x="267.178217" xlink:href="#mb63c0960ae" y="290.25375"/>
      </g>
     </g>
    </g>
    <g id="xtick_33">
     <g id="line2d_38">
      <g>
       <use style="fill:#555555;stroke:#555555;stroke-width:0.6;" x="291.548624" xlink:href="#mb63c0960ae" y="290.25375"/>
      </g>
     </g>
    </g>
    <g id="xtick_34">
     <g id="line2d_39">
      <g>
       <use style="fill:#555555;stroke:#555555;stroke-width:0.6;" x="303.923395" xlink:href="#mb63c0960ae" y="290.25375"/>
      </g>
     </g>
    </g>
    <g id="xtick_35">
     <g id="line2d_40">
      <g>
       <use style="fill:#555555;stroke:#555555;stroke-width:0.6;" x="312.703435" xlink:href="#mb63c0960ae" y="290.25375"/>
      </g>
     </g>
    </g>
    <g id="xtick_36">
     <g id="line2d_41">
      <g>
       <use style="fill:#555555;stroke:#555555;stroke-width:0.6;" x="319.513763" xlink:href="#mb63c0960ae" y="290.25375"/>
      </g>
     </g>
    </g>
    <g id="xtick_37">
     <g id="line2d_42">
      <g>
       <use style="fill:#555555;stroke:#555555;stroke-width:0.6;" x="325.078206" xlink:href="#mb63c0960ae" y="290.25375"/>
      </g>
     </g>
    </g>
    <g id="xtick_38">
     <g id="line2d_43">
      <g>
       <use style="fill:#555555;stroke:#555555;stroke-width:0.6;" x="329.782876" xlink:href="#mb63c0960ae" y="290.25375"/>
      </g>
     </g>
    </g>
    <g id="xtick_39">
     <g id="line2d_44">
      <g>
       <use style="fill:#555555;stroke:#555555;stroke-width:0.6;" x="333.858246" xlink:href="#mb63c0960ae" y="290.25375"/>
      </g>
     </g>
    </g>
    <g id="xtick_40">
     <g id="line2d_45">
      <g>
       <use style="fill:#555555;stroke:#555555;stroke-width:0.6;" x="337.452977" xlink:href="#mb63c0960ae" y="290.25375"/>
      </g>
     </g>
    </g>
    <g id="xtick_41">
     <g id="line2d_46">
      <g>
       <use style="fill:#555555;stroke:#555555;stroke-width:0.6;" x="361.823384" xlink:href="#mb63c0960ae" y="290.25375"/>
      </g>
     </g>
    </g>
    <g id="xtick_42">
     <g id="line2d_47">
      <g>
       <use style="fill:#555555;stroke:#555555;stroke-width:0.6;" x="374.198155" xlink:href="#mb63c0960ae" y="290.25375"/>
      </g>
     </g>
    </g>
    <g id="xtick_43">
     <g id="line2d_48">
      <g>
       <use style="fill:#555555;stroke:#555555;stroke-width:0.6;" x="382.978195" xlink:href="#mb63c0960ae" y="290.25375"/>
      </g>
     </g>
    </g>
    <g id="xtick_44">
     <g id="line2d_49">
      <g>
       <use style="fill:#555555;stroke:#555555;stroke-width:0.6;" x="389.788523" xlink:href="#mb63c0960ae" y="290.25375"/>
      </g>
     </g>
    </g>
    <g id="xtick_45">
     <g id="line2d_50">
      <g>
       <use style="fill:#555555;stroke:#555555;stroke-width:0.6;" x="395.352966" xlink:href="#mb63c0960ae" y="290.25375"/>
      </g>
     </g>
    </g>
    <g id="xtick_46">
     <g id="line2d_51">
      <g>
       <use style="fill:#555555;stroke:#555555;stroke-width:0.6;" x="400.057635" xlink:href="#mb63c0960ae" y="290.25375"/>
      </g>
     </g>
    </g>
    <g id="xtick_47">
     <g id="line2d_52">
      <g>
       <use style="fill:#555555;stroke:#555555;stroke-width:0.6;" x="404.133005" xlink:href="#mb63c0960ae" y="290.25375"/>
      </g>
     </g>
    </g>
    <g id="text_6">
     <!-- Zeit [s] -->
     <defs>
      <path d="M 5.609375 72.90625 
L 62.890625 72.90625 
L 62.890625 65.375 
L 16.796875 8.296875 
L 64.015625 8.296875 
L 64.015625 0 
L 4.5 0 
L 4.5 7.515625 
L 50.59375 64.59375 
L 5.609375 64.59375 
z
" id="DejaVuSans-5a"/>
      <path d="M 56.203125 29.59375 
L 56.203125 25.203125 
L 14.890625 25.203125 
Q 15.484375 15.921875 20.484375 11.0625 
Q 25.484375 6.203125 34.421875 6.203125 
Q 39.59375 6.203125 44.453125 7.46875 
Q 49.3125 8.734375 54.109375 11.28125 
L 54.109375 2.78125 
Q 49.265625 0.734375 44.1875 -0.34375 
Q 39.109375 -1.421875 33.890625 -1.421875 
Q 20.796875 -1.421875 13.15625 6.1875 
Q 5.515625 13.8125 5.515625 26.8125 
Q 5.515625 40.234375 12.765625 48.109375 
Q 20.015625 56 32.328125 56 
Q 43.359375 56 49.78125 48.890625 
Q 56.203125 41.796875 56.203125 29.59375 
M 47.21875 32.234375 
Q 47.125 39.59375 43.09375 43.984375 
Q 39.0625 48.390625 32.421875 48.390625 
Q 24.90625 48.390625 20.390625 44.140625 
Q 15.875 39.890625 15.1875 32.171875 
z
" id="DejaVuSans-65"/>
      <path d="M 9.421875 54.6875 
L 18.40625 54.6875 
L 18.40625 0 
L 9.421875 0 
z
M 9.421875 75.984375 
L 18.40625 75.984375 
L 18.40625 64.59375 
L 9.421875 64.59375 
z
" id="DejaVuSans-69"/>
      <path d="M 18.3125 70.21875 
L 18.3125 54.6875 
L 36.8125 54.6875 
L 36.8125 47.703125 
L 18.3125 47.703125 
L 18.3125 18.015625 
Q 18.3125 11.328125 20.140625 9.421875 
Q 21.96875 7.515625 27.59375 7.515625 
L 36.8125 7.515625 
L 36.8125 0 
L 27.59375 0 
Q 17.1875 0 13.234375 3.875 
Q 9.28125 7.765625 9.28125 18.015625 
L 9.28125 47.703125 
L 2.6875 47.703125 
L 2.6875 54.6875 
L 9.28125 54.6875 
L 9.28125 70.21875 
z
" id="DejaVuSans-74"/>
      <path id="DejaVuSans-20"/>
      <path d="M 8.59375 75.984375 
L 29.296875 75.984375 
L 29.296875 69 
L 17.578125 69 
L 17.578125 -6.203125 
L 29.296875 -6.203125 
L 29.296875 -13.1875 
L 8.59375 -13.1875 
z
" id="DejaVuSans-5b"/>
      <path d="M 44.28125 53.078125 
L 44.28125 44.578125 
Q 40.484375 46.53125 36.375 47.5 
Q 32.28125 48.484375 27.875 48.484375 
Q 21.1875 48.484375 17.84375 46.4375 
Q 14.5 44.390625 14.5 40.28125 
Q 14.5 37.15625 16.890625 35.375 
Q 19.28125 33.59375 26.515625 31.984375 
L 29.59375 31.296875 
Q 39.15625 29.25 43.1875 25.515625 
Q 47.21875 21.78125 47.21875 15.09375 
Q 47.21875 7.46875 41.1875 3.015625 
Q 35.15625 -1.421875 24.609375 -1.421875 
Q 20.21875 -1.421875 15.453125 -0.5625 
Q 10.6875 0.296875 5.421875 2 
L 5.421875 11.28125 
Q 10.40625 8.6875 15.234375 7.390625 
Q 20.0625 6.109375 24.8125 6.109375 
Q 31.15625 6.109375 34.5625 8.28125 
Q 37.984375 10.453125 37.984375 14.40625 
Q 37.984375 18.0625 35.515625 20.015625 
Q 33.0625 21.96875 24.703125 23.78125 
L 21.578125 24.515625 
Q 13.234375 26.265625 9.515625 29.90625 
Q 5.8125 33.546875 5.8125 39.890625 
Q 5.8125 47.609375 11.28125 51.796875 
Q 16.75 56 26.8125 56 
Q 31.78125 56 36.171875 55.265625 
Q 40.578125 54.546875 44.28125 53.078125 
" id="DejaVuSans-73"/>
      <path d="M 30.421875 75.984375 
L 30.421875 -13.1875 
L 9.71875 -13.1875 
L 9.71875 -6.203125 
L 21.390625 -6.203125 
L 21.390625 69 
L 9.71875 69 
L 9.71875 75.984375 
z
" id="DejaVuSans-5d"/>
     </defs>
     <g style="fill:#555555;" transform="translate(205.925938 320.05)scale(0.12 -0.12)">
      <use xlink:href="#DejaVuSans-5a"/>
      <use x="68.505859" xlink:href="#DejaVuSans-65"/>
      <use x="130.029297" xlink:href="#DejaVuSans-69"/>
      <use x="157.8125" xlink:href="#DejaVuSans-74"/>
      <use x="197.021484" xlink:href="#DejaVuSans-20"/>
      <use x="228.808594" xlink:href="#DejaVuSans-5b"/>
      <use x="267.822266" xlink:href="#DejaVuSans-73"/>
      <use x="319.921875" xlink:href="#DejaVuSans-5d"/>
     </g>
    </g>
   </g>
   <g id="matplotlib.axis_2">
    <g id="ytick_1">
     <g id="line2d_53">
      <path clip-path="url(#p4953806e92)" d="M 48.90125 263.407463 
L 406.02125 263.407463 
" style="fill:none;stroke:#ffffff;stroke-linecap:square;stroke-width:0.8;"/>
     </g>
     <g id="line2d_54">
      <defs>
       <path d="M 0 0 
L -3.5 0 
" id="m2afd6ea1bc" style="stroke:#555555;stroke-width:0.8;"/>
      </defs>
      <g>
       <use style="fill:#555555;stroke:#555555;stroke-width:0.8;" x="48.90125" xlink:href="#m2afd6ea1bc" y="263.407463"/>
      </g>
     </g>
     <g id="text_7">
      <!-- 0 -->
      <g style="fill:#555555;" transform="translate(35.53875 267.206681)scale(0.1 -0.1)">
       <use xlink:href="#DejaVuSans-30"/>
      </g>
     </g>
    </g>
    <g id="ytick_2">
     <g id="line2d_55">
      <path clip-path="url(#p4953806e92)" d="M 48.90125 224.011335 
L 406.02125 224.011335 
" style="fill:none;stroke:#ffffff;stroke-linecap:square;stroke-width:0.8;"/>
     </g>
     <g id="line2d_56">
      <g>
       <use style="fill:#555555;stroke:#555555;stroke-width:0.8;" x="48.90125" xlink:href="#m2afd6ea1bc" y="224.011335"/>
      </g>
     </g>
     <g id="text_8">
      <!-- 100 -->
      <g style="fill:#555555;" transform="translate(22.81375 227.810553)scale(0.1 -0.1)">
       <use xlink:href="#DejaVuSans-31"/>
       <use x="63.623047" xlink:href="#DejaVuSans-30"/>
       <use x="127.246094" xlink:href="#DejaVuSans-30"/>
      </g>
     </g>
    </g>
    <g id="ytick_3">
     <g id="line2d_57">
      <path clip-path="url(#p4953806e92)" d="M 48.90125 184.615207 
L 406.02125 184.615207 
" style="fill:none;stroke:#ffffff;stroke-linecap:square;stroke-width:0.8;"/>
     </g>
     <g id="line2d_58">
      <g>
       <use style="fill:#555555;stroke:#555555;stroke-width:0.8;" x="48.90125" xlink:href="#m2afd6ea1bc" y="184.615207"/>
      </g>
     </g>
     <g id="text_9">
      <!-- 200 -->
      <g style="fill:#555555;" transform="translate(22.81375 188.414426)scale(0.1 -0.1)">
       <use xlink:href="#DejaVuSans-32"/>
       <use x="63.623047" xlink:href="#DejaVuSans-30"/>
       <use x="127.246094" xlink:href="#DejaVuSans-30"/>
      </g>
     </g>
    </g>
    <g id="ytick_4">
     <g id="line2d_59">
      <path clip-path="url(#p4953806e92)" d="M 48.90125 145.219079 
L 406.02125 145.219079 
" style="fill:none;stroke:#ffffff;stroke-linecap:square;stroke-width:0.8;"/>
     </g>
     <g id="line2d_60">
      <g>
       <use style="fill:#555555;stroke:#555555;stroke-width:0.8;" x="48.90125" xlink:href="#m2afd6ea1bc" y="145.219079"/>
      </g>
     </g>
     <g id="text_10">
      <!-- 300 -->
      <g style="fill:#555555;" transform="translate(22.81375 149.018298)scale(0.1 -0.1)">
       <use xlink:href="#DejaVuSans-33"/>
       <use x="63.623047" xlink:href="#DejaVuSans-30"/>
       <use x="127.246094" xlink:href="#DejaVuSans-30"/>
      </g>
     </g>
    </g>
    <g id="ytick_5">
     <g id="line2d_61">
      <path clip-path="url(#p4953806e92)" d="M 48.90125 105.822951 
L 406.02125 105.822951 
" style="fill:none;stroke:#ffffff;stroke-linecap:square;stroke-width:0.8;"/>
     </g>
     <g id="line2d_62">
      <g>
       <use style="fill:#555555;stroke:#555555;stroke-width:0.8;" x="48.90125" xlink:href="#m2afd6ea1bc" y="105.822951"/>
      </g>
     </g>
     <g id="text_11">
      <!-- 400 -->
      <g style="fill:#555555;" transform="translate(22.81375 109.62217)scale(0.1 -0.1)">
       <use xlink:href="#DejaVuSans-34"/>
       <use x="63.623047" xlink:href="#DejaVuSans-30"/>
       <use x="127.246094" xlink:href="#DejaVuSans-30"/>
      </g>
     </g>
    </g>
    <g id="ytick_6">
     <g id="line2d_63">
      <path clip-path="url(#p4953806e92)" d="M 48.90125 66.426823 
L 406.02125 66.426823 
" style="fill:none;stroke:#ffffff;stroke-linecap:square;stroke-width:0.8;"/>
     </g>
     <g id="line2d_64">
      <g>
       <use style="fill:#555555;stroke:#555555;stroke-width:0.8;" x="48.90125" xlink:href="#m2afd6ea1bc" y="66.426823"/>
      </g>
     </g>
     <g id="text_12">
      <!-- 500 -->
      <g style="fill:#555555;" transform="translate(22.81375 70.226042)scale(0.1 -0.1)">
       <use xlink:href="#DejaVuSans-35"/>
       <use x="63.623047" xlink:href="#DejaVuSans-30"/>
       <use x="127.246094" xlink:href="#DejaVuSans-30"/>
      </g>
     </g>
    </g>
    <g id="ytick_7">
     <g id="line2d_65">
      <path clip-path="url(#p4953806e92)" d="M 48.90125 27.030695 
L 406.02125 27.030695 
" style="fill:none;stroke:#ffffff;stroke-linecap:square;stroke-width:0.8;"/>
     </g>
     <g id="line2d_66">
      <g>
       <use style="fill:#555555;stroke:#555555;stroke-width:0.8;" x="48.90125" xlink:href="#m2afd6ea1bc" y="27.030695"/>
      </g>
     </g>
     <g id="text_13">
      <!-- 600 -->
      <defs>
       <path d="M 33.015625 40.375 
Q 26.375 40.375 22.484375 35.828125 
Q 18.609375 31.296875 18.609375 23.390625 
Q 18.609375 15.53125 22.484375 10.953125 
Q 26.375 6.390625 33.015625 6.390625 
Q 39.65625 6.390625 43.53125 10.953125 
Q 47.40625 15.53125 47.40625 23.390625 
Q 47.40625 31.296875 43.53125 35.828125 
Q 39.65625 40.375 33.015625 40.375 
M 52.59375 71.296875 
L 52.59375 62.3125 
Q 48.875 64.0625 45.09375 64.984375 
Q 41.3125 65.921875 37.59375 65.921875 
Q 27.828125 65.921875 22.671875 59.328125 
Q 17.53125 52.734375 16.796875 39.40625 
Q 19.671875 43.65625 24.015625 45.921875 
Q 28.375 48.1875 33.59375 48.1875 
Q 44.578125 48.1875 50.953125 41.515625 
Q 57.328125 34.859375 57.328125 23.390625 
Q 57.328125 12.15625 50.6875 5.359375 
Q 44.046875 -1.421875 33.015625 -1.421875 
Q 20.359375 -1.421875 13.671875 8.265625 
Q 6.984375 17.96875 6.984375 36.375 
Q 6.984375 53.65625 15.1875 63.9375 
Q 23.390625 74.21875 37.203125 74.21875 
Q 40.921875 74.21875 44.703125 73.484375 
Q 48.484375 72.75 52.59375 71.296875 
" id="DejaVuSans-36"/>
      </defs>
      <g style="fill:#555555;" transform="translate(22.81375 30.829914)scale(0.1 -0.1)">
       <use xlink:href="#DejaVuSans-36"/>
       <use x="63.623047" xlink:href="#DejaVuSans-30"/>
       <use x="127.246094" xlink:href="#DejaVuSans-30"/>
      </g>
     </g>
    </g>
    <g id="text_14">
     <!-- a.u. -->
     <defs>
      <path d="M 34.28125 27.484375 
Q 23.390625 27.484375 19.1875 25 
Q 14.984375 22.515625 14.984375 16.5 
Q 14.984375 11.71875 18.140625 8.90625 
Q 21.296875 6.109375 26.703125 6.109375 
Q 34.1875 6.109375 38.703125 11.40625 
Q 43.21875 16.703125 43.21875 25.484375 
L 43.21875 27.484375 
z
M 52.203125 31.203125 
L 52.203125 0 
L 43.21875 0 
L 43.21875 8.296875 
Q 40.140625 3.328125 35.546875 0.953125 
Q 30.953125 -1.421875 24.3125 -1.421875 
Q 15.921875 -1.421875 10.953125 3.296875 
Q 6 8.015625 6 15.921875 
Q 6 25.140625 12.171875 29.828125 
Q 18.359375 34.515625 30.609375 34.515625 
L 43.21875 34.515625 
L 43.21875 35.40625 
Q 43.21875 41.609375 39.140625 45 
Q 35.0625 48.390625 27.6875 48.390625 
Q 23 48.390625 18.546875 47.265625 
Q 14.109375 46.140625 10.015625 43.890625 
L 10.015625 52.203125 
Q 14.9375 54.109375 19.578125 55.046875 
Q 24.21875 56 28.609375 56 
Q 40.484375 56 46.34375 49.84375 
Q 52.203125 43.703125 52.203125 31.203125 
" id="DejaVuSans-61"/>
      <path d="M 10.6875 12.40625 
L 21 12.40625 
L 21 0 
L 10.6875 0 
z
" id="DejaVuSans-2e"/>
      <path d="M 8.5 21.578125 
L 8.5 54.6875 
L 17.484375 54.6875 
L 17.484375 21.921875 
Q 17.484375 14.15625 20.5 10.265625 
Q 23.53125 6.390625 29.59375 6.390625 
Q 36.859375 6.390625 41.078125 11.03125 
Q 45.3125 15.671875 45.3125 23.6875 
L 45.3125 54.6875 
L 54.296875 54.6875 
L 54.296875 0 
L 45.3125 0 
L 45.3125 8.40625 
Q 42.046875 3.421875 37.71875 1 
Q 33.40625 -1.421875 27.6875 -1.421875 
Q 18.265625 -1.421875 13.375 4.4375 
Q 8.5 10.296875 8.5 21.578125 
M 31.109375 56 
z
" id="DejaVuSans-75"/>
     </defs>
     <g style="fill:#555555;" transform="translate(16.318125 168.490875)rotate(-90)scale(0.12 -0.12)">
      <use xlink:href="#DejaVuSans-61"/>
      <use x="61.279297" xlink:href="#DejaVuSans-2e"/>
      <use x="93.066406" xlink:href="#DejaVuSans-75"/>
      <use x="156.445312" xlink:href="#DejaVuSans-2e"/>
     </g>
    </g>
   </g>
   <g id="LineCollection_1">
    <path clip-path="url(#p4953806e92)" d="M 65.133977 46.753584 
L 65.133977 36.23775 
" style="fill:none;stroke:#348abd;stroke-width:1.5;"/>
    <path clip-path="url(#p4953806e92)" d="M 76.328962 56.378248 
L 76.328962 39.406594 
" style="fill:none;stroke:#348abd;stroke-width:1.5;"/>
    <path clip-path="url(#p4953806e92)" d="M 87.523946 61.628902 
L 87.523946 36.339017 
" style="fill:none;stroke:#348abd;stroke-width:1.5;"/>
    <path clip-path="url(#p4953806e92)" d="M 98.71893 56.419048 
L 98.71893 45.137456 
" style="fill:none;stroke:#348abd;stroke-width:1.5;"/>
    <path clip-path="url(#p4953806e92)" d="M 109.913915 53.052949 
L 109.913915 41.973013 
" style="fill:none;stroke:#348abd;stroke-width:1.5;"/>
    <path clip-path="url(#p4953806e92)" d="M 121.108899 60.722572 
L 121.108899 46.256382 
" style="fill:none;stroke:#348abd;stroke-width:1.5;"/>
    <path clip-path="url(#p4953806e92)" d="M 132.303883 69.491208 
L 132.303883 36.411327 
" style="fill:none;stroke:#348abd;stroke-width:1.5;"/>
    <path clip-path="url(#p4953806e92)" d="M 143.498868 65.253526 
L 143.498868 55.114258 
" style="fill:none;stroke:#348abd;stroke-width:1.5;"/>
    <path clip-path="url(#p4953806e92)" d="M 154.693852 75.255522 
L 154.693852 58.941224 
" style="fill:none;stroke:#348abd;stroke-width:1.5;"/>
    <path clip-path="url(#p4953806e92)" d="M 165.888836 83.937392 
L 165.888836 70.972493 
" style="fill:none;stroke:#348abd;stroke-width:1.5;"/>
    <path clip-path="url(#p4953806e92)" d="M 177.083821 96.224184 
L 177.083821 70.375589 
" style="fill:none;stroke:#348abd;stroke-width:1.5;"/>
    <path clip-path="url(#p4953806e92)" d="M 188.278805 109.08292 
L 188.278805 83.801939 
" style="fill:none;stroke:#348abd;stroke-width:1.5;"/>
    <path clip-path="url(#p4953806e92)" d="M 199.473789 112.125486 
L 199.473789 100.215892 
" style="fill:none;stroke:#348abd;stroke-width:1.5;"/>
    <path clip-path="url(#p4953806e92)" d="M 210.668774 136.534376 
L 210.668774 124.042636 
" style="fill:none;stroke:#348abd;stroke-width:1.5;"/>
    <path clip-path="url(#p4953806e92)" d="M 221.863758 157.369705 
L 221.863758 137.490253 
" style="fill:none;stroke:#348abd;stroke-width:1.5;"/>
    <path clip-path="url(#p4953806e92)" d="M 233.058742 183.712202 
L 233.058742 152.898923 
" style="fill:none;stroke:#348abd;stroke-width:1.5;"/>
    <path clip-path="url(#p4953806e92)" d="M 244.253726 192.84056 
L 244.253726 180.947531 
" style="fill:none;stroke:#348abd;stroke-width:1.5;"/>
    <path clip-path="url(#p4953806e92)" d="M 255.448711 213.9361 
L 255.448711 203.097793 
" style="fill:none;stroke:#348abd;stroke-width:1.5;"/>
    <path clip-path="url(#p4953806e92)" d="M 266.643695 230.38248 
L 266.643695 214.229064 
" style="fill:none;stroke:#348abd;stroke-width:1.5;"/>
    <path clip-path="url(#p4953806e92)" d="M 277.838679 242.370399 
L 277.838679 231.40174 
" style="fill:none;stroke:#348abd;stroke-width:1.5;"/>
    <path clip-path="url(#p4953806e92)" d="M 289.033664 253.131186 
L 289.033664 240.394206 
" style="fill:none;stroke:#348abd;stroke-width:1.5;"/>
    <path clip-path="url(#p4953806e92)" d="M 300.228648 265.708321 
L 300.228648 249.49454 
" style="fill:none;stroke:#348abd;stroke-width:1.5;"/>
    <path clip-path="url(#p4953806e92)" d="M 311.423632 267.614647 
L 311.423632 248.722469 
" style="fill:none;stroke:#348abd;stroke-width:1.5;"/>
    <path clip-path="url(#p4953806e92)" d="M 322.618617 266.91347 
L 322.618617 252.456369 
" style="fill:none;stroke:#348abd;stroke-width:1.5;"/>
    <path clip-path="url(#p4953806e92)" d="M 333.813601 274.828488 
L 333.813601 242.572348 
" style="fill:none;stroke:#348abd;stroke-width:1.5;"/>
    <path clip-path="url(#p4953806e92)" d="M 345.008585 278.15775 
L 345.008585 256.816009 
" style="fill:none;stroke:#348abd;stroke-width:1.5;"/>
    <path clip-path="url(#p4953806e92)" d="M 356.20357 264.034603 
L 356.20357 250.523409 
" style="fill:none;stroke:#348abd;stroke-width:1.5;"/>
    <path clip-path="url(#p4953806e92)" d="M 367.398554 268.883236 
L 367.398554 252.002901 
" style="fill:none;stroke:#348abd;stroke-width:1.5;"/>
    <path clip-path="url(#p4953806e92)" d="M 378.593538 275.207624 
L 378.593538 261.113711 
" style="fill:none;stroke:#348abd;stroke-width:1.5;"/>
    <path clip-path="url(#p4953806e92)" d="M 389.788523 271.525499 
L 389.788523 254.685605 
" style="fill:none;stroke:#348abd;stroke-width:1.5;"/>
   </g>
   <g id="LineCollection_2">
    <path clip-path="url(#p4953806e92)" d="M 65.133977 89.506054 
L 65.133977 74.786531 
" style="fill:none;stroke:#777777;stroke-width:1.5;"/>
    <path clip-path="url(#p4953806e92)" d="M 76.328962 91.08376 
L 76.328962 72.16179 
" style="fill:none;stroke:#777777;stroke-width:1.5;"/>
    <path clip-path="url(#p4953806e92)" d="M 87.523946 91.18483 
L 87.523946 64.218194 
" style="fill:none;stroke:#777777;stroke-width:1.5;"/>
    <path clip-path="url(#p4953806e92)" d="M 98.71893 94.970179 
L 98.71893 74.120023 
" style="fill:none;stroke:#777777;stroke-width:1.5;"/>
    <path clip-path="url(#p4953806e92)" d="M 109.913915 95.079897 
L 109.913915 75.323102 
" style="fill:none;stroke:#777777;stroke-width:1.5;"/>
    <path clip-path="url(#p4953806e92)" d="M 121.108899 94.132793 
L 121.108899 81.874159 
" style="fill:none;stroke:#777777;stroke-width:1.5;"/>
    <path clip-path="url(#p4953806e92)" d="M 132.303883 95.721859 
L 132.303883 79.440844 
" style="fill:none;stroke:#777777;stroke-width:1.5;"/>
    <path clip-path="url(#p4953806e92)" d="M 143.498868 99.590961 
L 143.498868 83.462972 
" style="fill:none;stroke:#777777;stroke-width:1.5;"/>
    <path clip-path="url(#p4953806e92)" d="M 154.693852 109.267966 
L 154.693852 93.397121 
" style="fill:none;stroke:#777777;stroke-width:1.5;"/>
    <path clip-path="url(#p4953806e92)" d="M 165.888836 114.716204 
L 165.888836 98.839159 
" style="fill:none;stroke:#777777;stroke-width:1.5;"/>
    <path clip-path="url(#p4953806e92)" d="M 177.083821 127.506834 
L 177.083821 100.085026 
" style="fill:none;stroke:#777777;stroke-width:1.5;"/>
    <path clip-path="url(#p4953806e92)" d="M 188.278805 140.704329 
L 188.278805 111.784222 
" style="fill:none;stroke:#777777;stroke-width:1.5;"/>
    <path clip-path="url(#p4953806e92)" d="M 199.473789 147.560684 
L 199.473789 126.413438 
" style="fill:none;stroke:#777777;stroke-width:1.5;"/>
    <path clip-path="url(#p4953806e92)" d="M 210.668774 170.240469 
L 210.668774 145.69681 
" style="fill:none;stroke:#777777;stroke-width:1.5;"/>
    <path clip-path="url(#p4953806e92)" d="M 221.863758 181.526056 
L 221.863758 168.138226 
" style="fill:none;stroke:#777777;stroke-width:1.5;"/>
    <path clip-path="url(#p4953806e92)" d="M 233.058742 198.137857 
L 233.058742 185.067542 
" style="fill:none;stroke:#777777;stroke-width:1.5;"/>
    <path clip-path="url(#p4953806e92)" d="M 244.253726 217.582958 
L 244.253726 196.896863 
" style="fill:none;stroke:#777777;stroke-width:1.5;"/>
    <path clip-path="url(#p4953806e92)" d="M 255.448711 227.863146 
L 255.448711 210.787094 
" style="fill:none;stroke:#777777;stroke-width:1.5;"/>
    <path clip-path="url(#p4953806e92)" d="M 266.643695 245.688136 
L 266.643695 232.163959 
" style="fill:none;stroke:#777777;stroke-width:1.5;"/>
    <path clip-path="url(#p4953806e92)" d="M 277.838679 258.502321 
L 277.838679 235.206478 
" style="fill:none;stroke:#777777;stroke-width:1.5;"/>
    <path clip-path="url(#p4953806e92)" d="M 289.033664 268.124687 
L 289.033664 234.422793 
" style="fill:none;stroke:#777777;stroke-width:1.5;"/>
    <path clip-path="url(#p4953806e92)" d="M 300.228648 270.354442 
L 300.228648 243.116669 
" style="fill:none;stroke:#777777;stroke-width:1.5;"/>
    <path clip-path="url(#p4953806e92)" d="M 311.423632 266.599618 
L 311.423632 241.418416 
" style="fill:none;stroke:#777777;stroke-width:1.5;"/>
    <path clip-path="url(#p4953806e92)" d="M 322.618617 274.096933 
L 322.618617 251.036988 
" style="fill:none;stroke:#777777;stroke-width:1.5;"/>
    <path clip-path="url(#p4953806e92)" d="M 333.813601 272.053065 
L 333.813601 254.836759 
" style="fill:none;stroke:#777777;stroke-width:1.5;"/>
    <path clip-path="url(#p4953806e92)" d="M 345.008585 270.622017 
L 345.008585 255.010716 
" style="fill:none;stroke:#777777;stroke-width:1.5;"/>
    <path clip-path="url(#p4953806e92)" d="M 356.20357 275.115662 
L 356.20357 254.265433 
" style="fill:none;stroke:#777777;stroke-width:1.5;"/>
    <path clip-path="url(#p4953806e92)" d="M 367.398554 274.822825 
L 367.398554 254.493046 
" style="fill:none;stroke:#777777;stroke-width:1.5;"/>
    <path clip-path="url(#p4953806e92)" d="M 378.593538 268.656283 
L 378.593538 258.103256 
" style="fill:none;stroke:#777777;stroke-width:1.5;"/>
    <path clip-path="url(#p4953806e92)" d="M 389.788523 275.361947 
L 389.788523 243.020834 
" style="fill:none;stroke:#777777;stroke-width:1.5;"/>
   </g>
   <g id="line2d_67">
    <path clip-path="url(#p4953806e92)" d="M 65.133977 43.331149 
L 76.328962 44.42773 
L 87.523946 45.830002 
L 98.71893 47.623405 
L 109.913915 49.916507 
L 121.108899 52.846357 
L 132.303883 56.584202 
L 143.498868 61.340777 
L 154.693852 67.369476 
L 165.888836 74.964278 
L 177.083821 84.447079 
L 188.278805 96.136223 
L 199.473789 110.285306 
L 210.668774 126.981704 
L 221.863758 146.003939 
L 233.058742 166.666001 
L 244.253726 187.731431 
L 255.448711 207.538673 
L 266.643695 224.454841 
L 277.838679 237.540201 
L 289.033664 246.927741 
L 300.228648 253.447674 
L 311.423632 257.859716 
L 322.618617 260.596386 
L 333.813601 262.036976 
L 345.008585 262.6423 
L 356.20357 262.833528 
L 367.398554 262.875797 
L 378.593538 262.881776 
L 389.788523 262.882261 
" style="fill:none;stroke:#e24a33;stroke-linecap:square;stroke-width:1.5;"/>
   </g>
   <g id="line2d_68">
    <path clip-path="url(#p4953806e92)" d="M 65.133977 79.401461 
L 76.328962 80.314397 
L 87.523946 81.487483 
L 98.71893 82.996806 
L 109.913915 84.940844 
L 121.108899 87.446504 
L 132.303883 90.67604 
L 143.498868 94.834089 
L 154.693852 100.172992 
L 165.888836 106.992477 
L 177.083821 115.626367 
L 188.278805 126.404 
L 199.473789 139.569025 
L 210.668774 155.13877 
L 221.863758 172.707695 
L 233.058742 191.260757 
L 244.253726 209.17221 
L 255.448711 224.631726 
L 266.643695 236.50785 
L 277.838679 245.004584 
L 289.033664 251.209787 
L 300.228648 255.9339 
L 311.423632 259.360332 
L 322.618617 261.54183 
L 333.813601 262.70371 
L 345.008585 263.197806 
L 356.20357 263.356258 
L 367.398554 263.391951 
L 378.593538 263.397123 
L 389.788523 263.397555 
" style="fill:none;stroke:#988ed5;stroke-linecap:square;stroke-width:1.5;"/>
   </g>
   <g id="line2d_69">
    <defs>
     <path d="M -3 3 
L 3 -3 
M -3 -3 
L 3 3 
" id="m283aea9b3a" style="stroke:#348abd;"/>
    </defs>
    <g clip-path="url(#p4953806e92)">
     <use style="fill:#348abd;stroke:#348abd;" x="65.133977" xlink:href="#m283aea9b3a" y="41.495667"/>
     <use style="fill:#348abd;stroke:#348abd;" x="76.328962" xlink:href="#m283aea9b3a" y="47.892421"/>
     <use style="fill:#348abd;stroke:#348abd;" x="87.523946" xlink:href="#m283aea9b3a" y="48.983959"/>
     <use style="fill:#348abd;stroke:#348abd;" x="98.71893" xlink:href="#m283aea9b3a" y="50.778252"/>
     <use style="fill:#348abd;stroke:#348abd;" x="109.913915" xlink:href="#m283aea9b3a" y="47.512981"/>
     <use style="fill:#348abd;stroke:#348abd;" x="121.108899" xlink:href="#m283aea9b3a" y="53.489477"/>
     <use style="fill:#348abd;stroke:#348abd;" x="132.303883" xlink:href="#m283aea9b3a" y="52.951268"/>
     <use style="fill:#348abd;stroke:#348abd;" x="143.498868" xlink:href="#m283aea9b3a" y="60.183892"/>
     <use style="fill:#348abd;stroke:#348abd;" x="154.693852" xlink:href="#m283aea9b3a" y="67.098373"/>
     <use style="fill:#348abd;stroke:#348abd;" x="165.888836" xlink:href="#m283aea9b3a" y="77.454942"/>
     <use style="fill:#348abd;stroke:#348abd;" x="177.083821" xlink:href="#m283aea9b3a" y="83.299887"/>
     <use style="fill:#348abd;stroke:#348abd;" x="188.278805" xlink:href="#m283aea9b3a" y="96.44243"/>
     <use style="fill:#348abd;stroke:#348abd;" x="199.473789" xlink:href="#m283aea9b3a" y="106.170689"/>
     <use style="fill:#348abd;stroke:#348abd;" x="210.668774" xlink:href="#m283aea9b3a" y="130.288506"/>
     <use style="fill:#348abd;stroke:#348abd;" x="221.863758" xlink:href="#m283aea9b3a" y="147.429979"/>
     <use style="fill:#348abd;stroke:#348abd;" x="233.058742" xlink:href="#m283aea9b3a" y="168.305562"/>
     <use style="fill:#348abd;stroke:#348abd;" x="244.253726" xlink:href="#m283aea9b3a" y="186.894046"/>
     <use style="fill:#348abd;stroke:#348abd;" x="255.448711" xlink:href="#m283aea9b3a" y="208.516946"/>
     <use style="fill:#348abd;stroke:#348abd;" x="266.643695" xlink:href="#m283aea9b3a" y="222.305772"/>
     <use style="fill:#348abd;stroke:#348abd;" x="277.838679" xlink:href="#m283aea9b3a" y="236.88607"/>
     <use style="fill:#348abd;stroke:#348abd;" x="289.033664" xlink:href="#m283aea9b3a" y="246.762696"/>
     <use style="fill:#348abd;stroke:#348abd;" x="300.228648" xlink:href="#m283aea9b3a" y="257.601431"/>
     <use style="fill:#348abd;stroke:#348abd;" x="311.423632" xlink:href="#m283aea9b3a" y="258.168558"/>
     <use style="fill:#348abd;stroke:#348abd;" x="322.618617" xlink:href="#m283aea9b3a" y="259.68492"/>
     <use style="fill:#348abd;stroke:#348abd;" x="333.813601" xlink:href="#m283aea9b3a" y="258.700418"/>
     <use style="fill:#348abd;stroke:#348abd;" x="345.008585" xlink:href="#m283aea9b3a" y="267.486879"/>
     <use style="fill:#348abd;stroke:#348abd;" x="356.20357" xlink:href="#m283aea9b3a" y="257.279006"/>
     <use style="fill:#348abd;stroke:#348abd;" x="367.398554" xlink:href="#m283aea9b3a" y="260.443068"/>
     <use style="fill:#348abd;stroke:#348abd;" x="378.593538" xlink:href="#m283aea9b3a" y="268.160667"/>
     <use style="fill:#348abd;stroke:#348abd;" x="389.788523" xlink:href="#m283aea9b3a" y="263.105552"/>
    </g>
   </g>
   <g id="line2d_70">
    <defs>
     <path d="M -3 3 
L 3 -3 
M -3 -3 
L 3 3 
" id="m9d661d289a" style="stroke:#777777;"/>
    </defs>
    <g clip-path="url(#p4953806e92)">
     <use style="fill:#777777;stroke:#777777;" x="65.133977" xlink:href="#m9d661d289a" y="82.146293"/>
     <use style="fill:#777777;stroke:#777777;" x="76.328962" xlink:href="#m9d661d289a" y="81.622775"/>
     <use style="fill:#777777;stroke:#777777;" x="87.523946" xlink:href="#m9d661d289a" y="77.701512"/>
     <use style="fill:#777777;stroke:#777777;" x="98.71893" xlink:href="#m9d661d289a" y="84.545101"/>
     <use style="fill:#777777;stroke:#777777;" x="109.913915" xlink:href="#m9d661d289a" y="85.2015"/>
     <use style="fill:#777777;stroke:#777777;" x="121.108899" xlink:href="#m9d661d289a" y="88.003476"/>
     <use style="fill:#777777;stroke:#777777;" x="132.303883" xlink:href="#m9d661d289a" y="87.581352"/>
     <use style="fill:#777777;stroke:#777777;" x="143.498868" xlink:href="#m9d661d289a" y="91.526966"/>
     <use style="fill:#777777;stroke:#777777;" x="154.693852" xlink:href="#m9d661d289a" y="101.332543"/>
     <use style="fill:#777777;stroke:#777777;" x="165.888836" xlink:href="#m9d661d289a" y="106.777682"/>
     <use style="fill:#777777;stroke:#777777;" x="177.083821" xlink:href="#m9d661d289a" y="113.79593"/>
     <use style="fill:#777777;stroke:#777777;" x="188.278805" xlink:href="#m9d661d289a" y="126.244276"/>
     <use style="fill:#777777;stroke:#777777;" x="199.473789" xlink:href="#m9d661d289a" y="136.987061"/>
     <use style="fill:#777777;stroke:#777777;" x="210.668774" xlink:href="#m9d661d289a" y="157.96864"/>
     <use style="fill:#777777;stroke:#777777;" x="221.863758" xlink:href="#m9d661d289a" y="174.832141"/>
     <use style="fill:#777777;stroke:#777777;" x="233.058742" xlink:href="#m9d661d289a" y="191.6027"/>
     <use style="fill:#777777;stroke:#777777;" x="244.253726" xlink:href="#m9d661d289a" y="207.23991"/>
     <use style="fill:#777777;stroke:#777777;" x="255.448711" xlink:href="#m9d661d289a" y="219.32512"/>
     <use style="fill:#777777;stroke:#777777;" x="266.643695" xlink:href="#m9d661d289a" y="238.926047"/>
     <use style="fill:#777777;stroke:#777777;" x="277.838679" xlink:href="#m9d661d289a" y="246.8544"/>
     <use style="fill:#777777;stroke:#777777;" x="289.033664" xlink:href="#m9d661d289a" y="251.27374"/>
     <use style="fill:#777777;stroke:#777777;" x="300.228648" xlink:href="#m9d661d289a" y="256.735555"/>
     <use style="fill:#777777;stroke:#777777;" x="311.423632" xlink:href="#m9d661d289a" y="254.009017"/>
     <use style="fill:#777777;stroke:#777777;" x="322.618617" xlink:href="#m9d661d289a" y="262.56696"/>
     <use style="fill:#777777;stroke:#777777;" x="333.813601" xlink:href="#m9d661d289a" y="263.444912"/>
     <use style="fill:#777777;stroke:#777777;" x="345.008585" xlink:href="#m9d661d289a" y="262.816366"/>
     <use style="fill:#777777;stroke:#777777;" x="356.20357" xlink:href="#m9d661d289a" y="264.690547"/>
     <use style="fill:#777777;stroke:#777777;" x="367.398554" xlink:href="#m9d661d289a" y="264.657935"/>
     <use style="fill:#777777;stroke:#777777;" x="378.593538" xlink:href="#m9d661d289a" y="263.37977"/>
     <use style="fill:#777777;stroke:#777777;" x="389.788523" xlink:href="#m9d661d289a" y="259.19139"/>
    </g>
   </g>
   <g id="patch_3">
    <path d="M 48.90125 290.25375 
L 48.90125 24.14175 
" style="fill:none;stroke:#ffffff;stroke-linecap:square;stroke-linejoin:miter;"/>
   </g>
   <g id="patch_4">
    <path d="M 406.02125 290.25375 
L 406.02125 24.14175 
" style="fill:none;stroke:#ffffff;stroke-linecap:square;stroke-linejoin:miter;"/>
   </g>
   <g id="patch_5">
    <path d="M 48.90125 290.25375 
L 406.02125 290.25375 
" style="fill:none;stroke:#ffffff;stroke-linecap:square;stroke-linejoin:miter;"/>
   </g>
   <g id="patch_6">
    <path d="M 48.90125 24.14175 
L 406.02125 24.14175 
" style="fill:none;stroke:#ffffff;stroke-linecap:square;stroke-linejoin:miter;"/>
   </g>
   <g id="text_15">
    <!-- CRN $T_1$ an F2, sinsin -->
    <defs>
     <path d="M 64.40625 67.28125 
L 64.40625 56.890625 
Q 59.421875 61.53125 53.78125 63.8125 
Q 48.140625 66.109375 41.796875 66.109375 
Q 29.296875 66.109375 22.65625 58.46875 
Q 16.015625 50.828125 16.015625 36.375 
Q 16.015625 21.96875 22.65625 14.328125 
Q 29.296875 6.6875 41.796875 6.6875 
Q 48.140625 6.6875 53.78125 8.984375 
Q 59.421875 11.28125 64.40625 15.921875 
L 64.40625 5.609375 
Q 59.234375 2.09375 53.4375 0.328125 
Q 47.65625 -1.421875 41.21875 -1.421875 
Q 24.65625 -1.421875 15.125 8.703125 
Q 5.609375 18.84375 5.609375 36.375 
Q 5.609375 53.953125 15.125 64.078125 
Q 24.65625 74.21875 41.21875 74.21875 
Q 47.75 74.21875 53.53125 72.484375 
Q 59.328125 70.75 64.40625 67.28125 
" id="DejaVuSans-43"/>
     <path d="M 44.390625 34.1875 
Q 47.5625 33.109375 50.5625 29.59375 
Q 53.5625 26.078125 56.59375 19.921875 
L 66.609375 0 
L 56 0 
L 46.6875 18.703125 
Q 43.0625 26.03125 39.671875 28.421875 
Q 36.28125 30.8125 30.421875 30.8125 
L 19.671875 30.8125 
L 19.671875 0 
L 9.8125 0 
L 9.8125 72.90625 
L 32.078125 72.90625 
Q 44.578125 72.90625 50.734375 67.671875 
Q 56.890625 62.453125 56.890625 51.90625 
Q 56.890625 45.015625 53.6875 40.46875 
Q 50.484375 35.9375 44.390625 34.1875 
M 19.671875 64.796875 
L 19.671875 38.921875 
L 32.078125 38.921875 
Q 39.203125 38.921875 42.84375 42.21875 
Q 46.484375 45.515625 46.484375 51.90625 
Q 46.484375 58.296875 42.84375 61.546875 
Q 39.203125 64.796875 32.078125 64.796875 
z
" id="DejaVuSans-52"/>
     <path d="M 9.8125 72.90625 
L 23.09375 72.90625 
L 55.421875 11.921875 
L 55.421875 72.90625 
L 64.984375 72.90625 
L 64.984375 0 
L 51.703125 0 
L 19.390625 60.984375 
L 19.390625 0 
L 9.8125 0 
z
" id="DejaVuSans-4e"/>
     <path d="M 5.90625 72.90625 
L 67.578125 72.90625 
L 66.015625 64.59375 
L 39.984375 64.59375 
L 27.484375 0 
L 17.578125 0 
L 30.078125 64.59375 
L 4.296875 64.59375 
z
" id="DejaVuSans-Oblique-54"/>
     <path d="M 54.890625 33.015625 
L 54.890625 0 
L 45.90625 0 
L 45.90625 32.71875 
Q 45.90625 40.484375 42.875 44.328125 
Q 39.84375 48.1875 33.796875 48.1875 
Q 26.515625 48.1875 22.3125 43.546875 
Q 18.109375 38.921875 18.109375 30.90625 
L 18.109375 0 
L 9.078125 0 
L 9.078125 54.6875 
L 18.109375 54.6875 
L 18.109375 46.1875 
Q 21.34375 51.125 25.703125 53.5625 
Q 30.078125 56 35.796875 56 
Q 45.21875 56 50.046875 50.171875 
Q 54.890625 44.34375 54.890625 33.015625 
" id="DejaVuSans-6e"/>
     <path d="M 9.8125 72.90625 
L 51.703125 72.90625 
L 51.703125 64.59375 
L 19.671875 64.59375 
L 19.671875 43.109375 
L 48.578125 43.109375 
L 48.578125 34.8125 
L 19.671875 34.8125 
L 19.671875 0 
L 9.8125 0 
z
" id="DejaVuSans-46"/>
     <path d="M 11.71875 12.40625 
L 22.015625 12.40625 
L 22.015625 4 
L 14.015625 -11.625 
L 7.71875 -11.625 
L 11.71875 4 
z
" id="DejaVuSans-2c"/>
    </defs>
    <g transform="translate(154.45325 18.14175)scale(0.144 -0.144)">
     <use transform="translate(0 0.015625)" xlink:href="#DejaVuSans-43"/>
     <use transform="translate(69.824219 0.015625)" xlink:href="#DejaVuSans-52"/>
     <use transform="translate(139.306641 0.015625)" xlink:href="#DejaVuSans-4e"/>
     <use transform="translate(214.111328 0.015625)" xlink:href="#DejaVuSans-20"/>
     <use transform="translate(245.898438 0.015625)" xlink:href="#DejaVuSans-Oblique-54"/>
     <use transform="translate(306.982422 -16.390625)scale(0.7)" xlink:href="#DejaVuSans-31"/>
     <use transform="translate(354.25293 0.015625)" xlink:href="#DejaVuSans-20"/>
     <use transform="translate(386.040039 0.015625)" xlink:href="#DejaVuSans-61"/>
     <use transform="translate(447.319336 0.015625)" xlink:href="#DejaVuSans-6e"/>
     <use transform="translate(510.698242 0.015625)" xlink:href="#DejaVuSans-20"/>
     <use transform="translate(542.485352 0.015625)" xlink:href="#DejaVuSans-46"/>
     <use transform="translate(600.004883 0.015625)" xlink:href="#DejaVuSans-32"/>
     <use transform="translate(663.62793 0.015625)" xlink:href="#DejaVuSans-2c"/>
     <use transform="translate(695.415039 0.015625)" xlink:href="#DejaVuSans-20"/>
     <use transform="translate(727.202148 0.015625)" xlink:href="#DejaVuSans-73"/>
     <use transform="translate(779.301758 0.015625)" xlink:href="#DejaVuSans-69"/>
     <use transform="translate(807.084961 0.015625)" xlink:href="#DejaVuSans-6e"/>
     <use transform="translate(870.463867 0.015625)" xlink:href="#DejaVuSans-73"/>
     <use transform="translate(922.563477 0.015625)" xlink:href="#DejaVuSans-69"/>
     <use transform="translate(950.34668 0.015625)" xlink:href="#DejaVuSans-6e"/>
    </g>
   </g>
   <g id="legend_1">
    <g id="patch_7">
     <path d="M 317.32125 61.498 
L 399.02125 61.498 
Q 401.02125 61.498 401.02125 59.498 
L 401.02125 31.14175 
Q 401.02125 29.14175 399.02125 29.14175 
L 317.32125 29.14175 
Q 315.32125 29.14175 315.32125 31.14175 
L 315.32125 59.498 
Q 315.32125 61.498 317.32125 61.498 
z
" style="fill:#e5e5e5;opacity:0.8;stroke:#cccccc;stroke-linejoin:miter;stroke-width:0.5;"/>
    </g>
    <g id="LineCollection_3">
     <path d="M 329.32125 42.240187 
L 329.32125 32.240187 
" style="fill:none;stroke:#348abd;stroke-width:1.5;"/>
    </g>
    <g id="line2d_71"/>
    <g id="line2d_72">
     <g>
      <use style="fill:#348abd;stroke:#348abd;" x="329.32125" xlink:href="#m283aea9b3a" y="37.240187"/>
     </g>
    </g>
    <g id="text_16">
     <!-- $T$ = 300 K -->
     <defs>
      <path d="M 10.59375 45.40625 
L 73.1875 45.40625 
L 73.1875 37.203125 
L 10.59375 37.203125 
z
M 10.59375 25.484375 
L 73.1875 25.484375 
L 73.1875 17.1875 
L 10.59375 17.1875 
z
" id="DejaVuSans-3d"/>
      <path d="M 9.8125 72.90625 
L 19.671875 72.90625 
L 19.671875 42.09375 
L 52.390625 72.90625 
L 65.09375 72.90625 
L 28.90625 38.921875 
L 67.671875 0 
L 54.6875 0 
L 19.671875 35.109375 
L 19.671875 0 
L 9.8125 0 
z
" id="DejaVuSans-4b"/>
     </defs>
     <g transform="translate(347.32125 40.740187)scale(0.1 -0.1)">
      <use transform="translate(0 0.78125)" xlink:href="#DejaVuSans-Oblique-54"/>
      <use transform="translate(61.083984 0.78125)" xlink:href="#DejaVuSans-20"/>
      <use transform="translate(92.871094 0.78125)" xlink:href="#DejaVuSans-3d"/>
      <use transform="translate(176.660156 0.78125)" xlink:href="#DejaVuSans-20"/>
      <use transform="translate(208.447266 0.78125)" xlink:href="#DejaVuSans-33"/>
      <use transform="translate(272.070312 0.78125)" xlink:href="#DejaVuSans-30"/>
      <use transform="translate(335.693359 0.78125)" xlink:href="#DejaVuSans-30"/>
      <use transform="translate(399.316406 0.78125)" xlink:href="#DejaVuSans-20"/>
      <use transform="translate(431.103516 0.78125)" xlink:href="#DejaVuSans-4b"/>
     </g>
    </g>
    <g id="LineCollection_4">
     <path d="M 329.32125 56.918312 
L 329.32125 46.918312 
" style="fill:none;stroke:#777777;stroke-width:1.5;"/>
    </g>
    <g id="line2d_73"/>
    <g id="line2d_74">
     <g>
      <use style="fill:#777777;stroke:#777777;" x="329.32125" xlink:href="#m9d661d289a" y="51.918312"/>
     </g>
    </g>
    <g id="text_17">
     <!-- $T$ = 310 K -->
     <g transform="translate(347.32125 55.418312)scale(0.1 -0.1)">
      <use transform="translate(0 0.78125)" xlink:href="#DejaVuSans-Oblique-54"/>
      <use transform="translate(61.083984 0.78125)" xlink:href="#DejaVuSans-20"/>
      <use transform="translate(92.871094 0.78125)" xlink:href="#DejaVuSans-3d"/>
      <use transform="translate(176.660156 0.78125)" xlink:href="#DejaVuSans-20"/>
      <use transform="translate(208.447266 0.78125)" xlink:href="#DejaVuSans-33"/>
      <use transform="translate(272.070312 0.78125)" xlink:href="#DejaVuSans-31"/>
      <use transform="translate(335.693359 0.78125)" xlink:href="#DejaVuSans-30"/>
      <use transform="translate(399.316406 0.78125)" xlink:href="#DejaVuSans-20"/>
      <use transform="translate(431.103516 0.78125)" xlink:href="#DejaVuSans-4b"/>
     </g>
    </g>
   </g>
  </g>
 </g>
 <defs>
  <clipPath id="p4953806e92">
   <rect height="266.112" width="357.12" x="48.90125" y="24.14175"/>
  </clipPath>
 </defs>
</svg>
