<?xml version="1.0" encoding="utf-8" standalone="no"?>
<!DOCTYPE svg PUBLIC "-//W3C//DTD SVG 1.1//EN"
  "http://www.w3.org/Graphics/SVG/1.1/DTD/svg11.dtd">
<!-- Created with matplotlib (http://matplotlib.org/) -->
<svg height="469pt" version="1.1" viewBox="0 0 716 469" width="716pt" xmlns="http://www.w3.org/2000/svg" xmlns:xlink="http://www.w3.org/1999/xlink">
 <defs>
  <style type="text/css">
*{stroke-linecap:butt;stroke-linejoin:round;}
  </style>
 </defs>
 <g id="figure_1">
  <g id="patch_1">
   <path d="M 0 469.458125 
L 716.45 469.458125 
L 716.45 0 
L 0 0 
z
" style="fill:#ffffff;"/>
  </g>
  <g id="axes_1">
   <g id="patch_2">
    <path d="M 26.925 445.58 
L 696.525 445.58 
L 696.525 10.7 
L 26.925 10.7 
z
" style="fill:#ffffff;"/>
   </g>
   <g id="matplotlib.axis_1">
    <g id="xtick_1">
     <g id="line2d_1">
      <defs>
       <path d="M 0 0 
L 0 3.5 
" id="m1332a2c555" style="stroke:#000000;stroke-width:0.8;"/>
      </defs>
      <g>
       <use style="stroke:#000000;stroke-width:0.8;" x="26.925" xlink:href="#m1332a2c555" y="445.58"/>
      </g>
     </g>
     <g id="text_1">
      <!-- −1000 -->
      <defs>
       <path d="M 10.59375 35.5 
L 73.1875 35.5 
L 73.1875 27.203125 
L 10.59375 27.203125 
z
" id="DejaVuSans-2212"/>
       <path d="M 12.40625 8.296875 
L 28.515625 8.296875 
L 28.515625 63.921875 
L 10.984375 60.40625 
L 10.984375 69.390625 
L 28.421875 72.90625 
L 38.28125 72.90625 
L 38.28125 8.296875 
L 54.390625 8.296875 
L 54.390625 0 
L 12.40625 0 
z
" id="DejaVuSans-31"/>
       <path d="M 31.78125 66.40625 
Q 24.171875 66.40625 20.328125 58.90625 
Q 16.5 51.421875 16.5 36.375 
Q 16.5 21.390625 20.328125 13.890625 
Q 24.171875 6.390625 31.78125 6.390625 
Q 39.453125 6.390625 43.28125 13.890625 
Q 47.125 21.390625 47.125 36.375 
Q 47.125 51.421875 43.28125 58.90625 
Q 39.453125 66.40625 31.78125 66.40625 
z
M 31.78125 74.21875 
Q 44.046875 74.21875 50.515625 64.515625 
Q 56.984375 54.828125 56.984375 36.375 
Q 56.984375 17.96875 50.515625 8.265625 
Q 44.046875 -1.421875 31.78125 -1.421875 
Q 19.53125 -1.421875 13.0625 8.265625 
Q 6.59375 17.96875 6.59375 36.375 
Q 6.59375 54.828125 13.0625 64.515625 
Q 19.53125 74.21875 31.78125 74.21875 
z
" id="DejaVuSans-30"/>
      </defs>
      <g transform="translate(10.010156 460.178437)scale(0.1 -0.1)">
       <use xlink:href="#DejaVuSans-2212"/>
       <use x="83.789062" xlink:href="#DejaVuSans-31"/>
       <use x="147.412109" xlink:href="#DejaVuSans-30"/>
       <use x="211.035156" xlink:href="#DejaVuSans-30"/>
       <use x="274.658203" xlink:href="#DejaVuSans-30"/>
      </g>
     </g>
    </g>
    <g id="xtick_2">
     <g id="line2d_2">
      <g>
       <use style="stroke:#000000;stroke-width:0.8;" x="110.625" xlink:href="#m1332a2c555" y="445.58"/>
      </g>
     </g>
     <g id="text_2">
      <!-- −750 -->
      <defs>
       <path d="M 8.203125 72.90625 
L 55.078125 72.90625 
L 55.078125 68.703125 
L 28.609375 0 
L 18.3125 0 
L 43.21875 64.59375 
L 8.203125 64.59375 
z
" id="DejaVuSans-37"/>
       <path d="M 10.796875 72.90625 
L 49.515625 72.90625 
L 49.515625 64.59375 
L 19.828125 64.59375 
L 19.828125 46.734375 
Q 21.96875 47.46875 24.109375 47.828125 
Q 26.265625 48.1875 28.421875 48.1875 
Q 40.625 48.1875 47.75 41.5 
Q 54.890625 34.8125 54.890625 23.390625 
Q 54.890625 11.625 47.5625 5.09375 
Q 40.234375 -1.421875 26.90625 -1.421875 
Q 22.3125 -1.421875 17.546875 -0.640625 
Q 12.796875 0.140625 7.71875 1.703125 
L 7.71875 11.625 
Q 12.109375 9.234375 16.796875 8.0625 
Q 21.484375 6.890625 26.703125 6.890625 
Q 35.15625 6.890625 40.078125 11.328125 
Q 45.015625 15.765625 45.015625 23.390625 
Q 45.015625 31 40.078125 35.4375 
Q 35.15625 39.890625 26.703125 39.890625 
Q 22.75 39.890625 18.8125 39.015625 
Q 14.890625 38.140625 10.796875 36.28125 
z
" id="DejaVuSans-35"/>
      </defs>
      <g transform="translate(96.891406 460.178437)scale(0.1 -0.1)">
       <use xlink:href="#DejaVuSans-2212"/>
       <use x="83.789062" xlink:href="#DejaVuSans-37"/>
       <use x="147.412109" xlink:href="#DejaVuSans-35"/>
       <use x="211.035156" xlink:href="#DejaVuSans-30"/>
      </g>
     </g>
    </g>
    <g id="xtick_3">
     <g id="line2d_3">
      <g>
       <use style="stroke:#000000;stroke-width:0.8;" x="194.325" xlink:href="#m1332a2c555" y="445.58"/>
      </g>
     </g>
     <g id="text_3">
      <!-- −500 -->
      <g transform="translate(180.591406 460.178437)scale(0.1 -0.1)">
       <use xlink:href="#DejaVuSans-2212"/>
       <use x="83.789062" xlink:href="#DejaVuSans-35"/>
       <use x="147.412109" xlink:href="#DejaVuSans-30"/>
       <use x="211.035156" xlink:href="#DejaVuSans-30"/>
      </g>
     </g>
    </g>
    <g id="xtick_4">
     <g id="line2d_4">
      <g>
       <use style="stroke:#000000;stroke-width:0.8;" x="278.025" xlink:href="#m1332a2c555" y="445.58"/>
      </g>
     </g>
     <g id="text_4">
      <!-- −250 -->
      <defs>
       <path d="M 19.1875 8.296875 
L 53.609375 8.296875 
L 53.609375 0 
L 7.328125 0 
L 7.328125 8.296875 
Q 12.9375 14.109375 22.625 23.890625 
Q 32.328125 33.6875 34.8125 36.53125 
Q 39.546875 41.84375 41.421875 45.53125 
Q 43.3125 49.21875 43.3125 52.78125 
Q 43.3125 58.59375 39.234375 62.25 
Q 35.15625 65.921875 28.609375 65.921875 
Q 23.96875 65.921875 18.8125 64.3125 
Q 13.671875 62.703125 7.8125 59.421875 
L 7.8125 69.390625 
Q 13.765625 71.78125 18.9375 73 
Q 24.125 74.21875 28.421875 74.21875 
Q 39.75 74.21875 46.484375 68.546875 
Q 53.21875 62.890625 53.21875 53.421875 
Q 53.21875 48.921875 51.53125 44.890625 
Q 49.859375 40.875 45.40625 35.40625 
Q 44.1875 33.984375 37.640625 27.21875 
Q 31.109375 20.453125 19.1875 8.296875 
z
" id="DejaVuSans-32"/>
      </defs>
      <g transform="translate(264.291406 460.178437)scale(0.1 -0.1)">
       <use xlink:href="#DejaVuSans-2212"/>
       <use x="83.789062" xlink:href="#DejaVuSans-32"/>
       <use x="147.412109" xlink:href="#DejaVuSans-35"/>
       <use x="211.035156" xlink:href="#DejaVuSans-30"/>
      </g>
     </g>
    </g>
    <g id="xtick_5">
     <g id="line2d_5">
      <g>
       <use style="stroke:#000000;stroke-width:0.8;" x="361.725" xlink:href="#m1332a2c555" y="445.58"/>
      </g>
     </g>
     <g id="text_5">
      <!-- 0 -->
      <g transform="translate(358.54375 460.178437)scale(0.1 -0.1)">
       <use xlink:href="#DejaVuSans-30"/>
      </g>
     </g>
    </g>
    <g id="xtick_6">
     <g id="line2d_6">
      <g>
       <use style="stroke:#000000;stroke-width:0.8;" x="445.425" xlink:href="#m1332a2c555" y="445.58"/>
      </g>
     </g>
     <g id="text_6">
      <!-- 250 -->
      <g transform="translate(435.88125 460.178437)scale(0.1 -0.1)">
       <use xlink:href="#DejaVuSans-32"/>
       <use x="63.623047" xlink:href="#DejaVuSans-35"/>
       <use x="127.246094" xlink:href="#DejaVuSans-30"/>
      </g>
     </g>
    </g>
    <g id="xtick_7">
     <g id="line2d_7">
      <g>
       <use style="stroke:#000000;stroke-width:0.8;" x="529.125" xlink:href="#m1332a2c555" y="445.58"/>
      </g>
     </g>
     <g id="text_7">
      <!-- 500 -->
      <g transform="translate(519.58125 460.178437)scale(0.1 -0.1)">
       <use xlink:href="#DejaVuSans-35"/>
       <use x="63.623047" xlink:href="#DejaVuSans-30"/>
       <use x="127.246094" xlink:href="#DejaVuSans-30"/>
      </g>
     </g>
    </g>
    <g id="xtick_8">
     <g id="line2d_8">
      <g>
       <use style="stroke:#000000;stroke-width:0.8;" x="612.825" xlink:href="#m1332a2c555" y="445.58"/>
      </g>
     </g>
     <g id="text_8">
      <!-- 750 -->
      <g transform="translate(603.28125 460.178437)scale(0.1 -0.1)">
       <use xlink:href="#DejaVuSans-37"/>
       <use x="63.623047" xlink:href="#DejaVuSans-35"/>
       <use x="127.246094" xlink:href="#DejaVuSans-30"/>
      </g>
     </g>
    </g>
    <g id="xtick_9">
     <g id="line2d_9">
      <g>
       <use style="stroke:#000000;stroke-width:0.8;" x="696.525" xlink:href="#m1332a2c555" y="445.58"/>
      </g>
     </g>
     <g id="text_9">
      <!-- 1000 -->
      <g transform="translate(683.8 460.178437)scale(0.1 -0.1)">
       <use xlink:href="#DejaVuSans-31"/>
       <use x="63.623047" xlink:href="#DejaVuSans-30"/>
       <use x="127.246094" xlink:href="#DejaVuSans-30"/>
       <use x="190.869141" xlink:href="#DejaVuSans-30"/>
      </g>
     </g>
    </g>
   </g>
   <g id="matplotlib.axis_2">
    <g id="ytick_1">
     <g id="line2d_10">
      <defs>
       <path d="M 0 0 
L -3.5 0 
" id="m8da5ef623e" style="stroke:#000000;stroke-width:0.8;"/>
      </defs>
      <g>
       <use style="stroke:#000000;stroke-width:0.8;" x="26.925" xlink:href="#m8da5ef623e" y="425.742566"/>
      </g>
     </g>
     <g id="text_10">
      <!-- 0 -->
      <g transform="translate(13.5625 429.541785)scale(0.1 -0.1)">
       <use xlink:href="#DejaVuSans-30"/>
      </g>
     </g>
    </g>
    <g id="ytick_2">
     <g id="line2d_11">
      <g>
       <use style="stroke:#000000;stroke-width:0.8;" x="26.925" xlink:href="#m8da5ef623e" y="354.76279"/>
      </g>
     </g>
     <g id="text_11">
      <!-- 10 -->
      <g transform="translate(7.2 358.562008)scale(0.1 -0.1)">
       <use xlink:href="#DejaVuSans-31"/>
       <use x="63.623047" xlink:href="#DejaVuSans-30"/>
      </g>
     </g>
    </g>
    <g id="ytick_3">
     <g id="line2d_12">
      <g>
       <use style="stroke:#000000;stroke-width:0.8;" x="26.925" xlink:href="#m8da5ef623e" y="283.783013"/>
      </g>
     </g>
     <g id="text_12">
      <!-- 20 -->
      <g transform="translate(7.2 287.582232)scale(0.1 -0.1)">
       <use xlink:href="#DejaVuSans-32"/>
       <use x="63.623047" xlink:href="#DejaVuSans-30"/>
      </g>
     </g>
    </g>
    <g id="ytick_4">
     <g id="line2d_13">
      <g>
       <use style="stroke:#000000;stroke-width:0.8;" x="26.925" xlink:href="#m8da5ef623e" y="212.803236"/>
      </g>
     </g>
     <g id="text_13">
      <!-- 30 -->
      <defs>
       <path d="M 40.578125 39.3125 
Q 47.65625 37.796875 51.625 33 
Q 55.609375 28.21875 55.609375 21.1875 
Q 55.609375 10.40625 48.1875 4.484375 
Q 40.765625 -1.421875 27.09375 -1.421875 
Q 22.515625 -1.421875 17.65625 -0.515625 
Q 12.796875 0.390625 7.625 2.203125 
L 7.625 11.71875 
Q 11.71875 9.328125 16.59375 8.109375 
Q 21.484375 6.890625 26.8125 6.890625 
Q 36.078125 6.890625 40.9375 10.546875 
Q 45.796875 14.203125 45.796875 21.1875 
Q 45.796875 27.640625 41.28125 31.265625 
Q 36.765625 34.90625 28.71875 34.90625 
L 20.21875 34.90625 
L 20.21875 43.015625 
L 29.109375 43.015625 
Q 36.375 43.015625 40.234375 45.921875 
Q 44.09375 48.828125 44.09375 54.296875 
Q 44.09375 59.90625 40.109375 62.90625 
Q 36.140625 65.921875 28.71875 65.921875 
Q 24.65625 65.921875 20.015625 65.03125 
Q 15.375 64.15625 9.8125 62.3125 
L 9.8125 71.09375 
Q 15.4375 72.65625 20.34375 73.4375 
Q 25.25 74.21875 29.59375 74.21875 
Q 40.828125 74.21875 47.359375 69.109375 
Q 53.90625 64.015625 53.90625 55.328125 
Q 53.90625 49.265625 50.4375 45.09375 
Q 46.96875 40.921875 40.578125 39.3125 
z
" id="DejaVuSans-33"/>
      </defs>
      <g transform="translate(7.2 216.602455)scale(0.1 -0.1)">
       <use xlink:href="#DejaVuSans-33"/>
       <use x="63.623047" xlink:href="#DejaVuSans-30"/>
      </g>
     </g>
    </g>
    <g id="ytick_5">
     <g id="line2d_14">
      <g>
       <use style="stroke:#000000;stroke-width:0.8;" x="26.925" xlink:href="#m8da5ef623e" y="141.82346"/>
      </g>
     </g>
     <g id="text_14">
      <!-- 40 -->
      <defs>
       <path d="M 37.796875 64.3125 
L 12.890625 25.390625 
L 37.796875 25.390625 
z
M 35.203125 72.90625 
L 47.609375 72.90625 
L 47.609375 25.390625 
L 58.015625 25.390625 
L 58.015625 17.1875 
L 47.609375 17.1875 
L 47.609375 0 
L 37.796875 0 
L 37.796875 17.1875 
L 4.890625 17.1875 
L 4.890625 26.703125 
z
" id="DejaVuSans-34"/>
      </defs>
      <g transform="translate(7.2 145.622678)scale(0.1 -0.1)">
       <use xlink:href="#DejaVuSans-34"/>
       <use x="63.623047" xlink:href="#DejaVuSans-30"/>
      </g>
     </g>
    </g>
    <g id="ytick_6">
     <g id="line2d_15">
      <g>
       <use style="stroke:#000000;stroke-width:0.8;" x="26.925" xlink:href="#m8da5ef623e" y="70.843683"/>
      </g>
     </g>
     <g id="text_15">
      <!-- 50 -->
      <g transform="translate(7.2 74.642902)scale(0.1 -0.1)">
       <use xlink:href="#DejaVuSans-35"/>
       <use x="63.623047" xlink:href="#DejaVuSans-30"/>
      </g>
     </g>
    </g>
   </g>
   <g id="line2d_16">
    <path clip-path="url(#pb7afb2e819)" d="M 25.83175 425.741837 
L 294.035486 425.63582 
L 296.589807 425.441261 
L 299.144128 425.008559 
L 301.69845 424.278144 
L 305.529932 422.998346 
L 306.807092 422.716265 
L 308.084253 422.587759 
L 309.361414 422.634274 
L 310.638574 422.848616 
L 313.192896 423.627099 
L 317.024377 424.882943 
L 319.578699 425.392217 
L 322.13302 425.633922 
L 325.964502 425.737709 
L 345.121912 425.74762 
L 697.61825 425.74307 
L 697.61825 425.74307 
" style="fill:none;stroke:#1f77b4;stroke-linecap:square;stroke-width:1.5;"/>
   </g>
   <g id="line2d_17">
    <path clip-path="url(#pb7afb2e819)" d="M 25.83175 425.740368 
L 290.204004 425.659018 
L 292.758325 425.540471 
L 295.312646 425.178185 
L 296.589807 424.817309 
L 297.866968 424.277997 
L 299.144128 423.523428 
L 300.421289 422.539834 
L 302.97561 420.037972 
L 305.529932 417.565253 
L 306.807092 416.732162 
L 308.084253 416.352927 
L 309.361414 416.49055 
L 310.638574 417.123872 
L 311.915735 418.153118 
L 317.024377 423.151141 
L 318.301538 424.026034 
L 319.578699 424.671043 
L 320.855859 425.114087 
L 323.410181 425.5694 
L 325.964502 425.716625 
L 333.627466 425.760072 
L 697.61825 425.744053 
L 697.61825 425.744053 
" style="fill:none;stroke:#ff7f0e;stroke-linecap:square;stroke-width:1.5;"/>
   </g>
   <g id="line2d_18">
    <path clip-path="url(#pb7afb2e819)" d="M 25.83175 425.734221 
L 277.432397 425.61701 
L 287.649683 425.47406 
L 290.204004 425.308676 
L 291.481165 425.130178 
L 292.758325 424.821976 
L 294.035486 424.301252 
L 295.312646 423.453847 
L 296.589807 422.139643 
L 297.866968 420.211945 
L 299.144128 417.553839 
L 300.421289 414.128432 
L 301.69845 410.031302 
L 304.252771 401.040181 
L 305.529932 397.113145 
L 306.807092 394.29242 
L 308.084253 393.010477 
L 309.361414 393.476122 
L 310.638574 395.61926 
L 311.915735 399.108941 
L 317.024377 416.248154 
L 318.301538 419.311307 
L 319.578699 421.59935 
L 320.855859 423.19789 
L 322.13302 424.247321 
L 323.410181 424.897749 
L 324.687341 425.280514 
L 327.241663 425.61359 
L 331.073145 425.730072 
L 347.676233 425.769918 
L 697.61825 425.747925 
L 697.61825 425.747925 
" style="fill:none;stroke:#2ca02c;stroke-linecap:square;stroke-width:1.5;"/>
   </g>
   <g id="line2d_19">
    <path clip-path="url(#pb7afb2e819)" d="M 25.83175 425.697479 
L 209.742883 425.558583 
L 246.780542 425.354162 
L 264.660791 425.044592 
L 273.600916 424.689419 
L 278.709558 424.310526 
L 282.54104 423.840197 
L 285.095361 423.343058 
L 287.649683 422.528995 
L 288.926843 421.892627 
L 290.204004 420.986354 
L 291.481165 419.659517 
L 292.758325 417.689248 
L 294.035486 414.767059 
L 295.312646 410.501352 
L 296.589807 404.44983 
L 297.866968 396.194269 
L 299.144128 385.460674 
L 300.421289 372.269658 
L 302.97561 340.864911 
L 304.252771 325.081901 
L 305.529932 311.480883 
L 306.807092 301.796083 
L 308.084253 297.378771 
L 309.361414 298.883014 
L 310.638574 306.105431 
L 311.915735 318.033531 
L 313.192896 333.086381 
L 315.747217 365.520417 
L 317.024377 379.989873 
L 318.301538 392.140054 
L 319.578699 401.732525 
L 320.855859 408.908995 
L 322.13302 414.037047 
L 323.410181 417.56827 
L 324.687341 419.93679 
L 325.964502 421.504297 
L 327.241663 422.543081 
L 328.518823 423.242845 
L 329.795984 423.728113 
L 332.350305 424.338108 
L 336.181787 424.833323 
L 341.29043 425.185004 
L 348.953394 425.439492 
L 363.002161 425.620386 
L 389.822534 425.723476 
L 513.707117 425.771072 
L 697.61825 425.761451 
L 697.61825 425.761451 
" style="fill:none;stroke:#d62728;stroke-linecap:square;stroke-width:1.5;"/>
   </g>
   <g id="line2d_20">
    <path clip-path="url(#pb7afb2e819)" d="M 25.83175 425.149609 
L 115.232996 424.603807 
L 153.547815 424.042068 
L 185.476831 423.210789 
L 203.35708 422.408656 
L 213.574365 421.702796 
L 222.51449 420.899296 
L 230.177454 419.994371 
L 236.563257 419.013772 
L 241.671899 418.011229 
L 246.780542 416.760418 
L 250.612024 415.609797 
L 254.443506 414.207966 
L 256.997827 413.094457 
L 259.552148 411.808155 
L 262.10647 410.31349 
L 264.660791 408.55568 
L 267.215112 406.459207 
L 269.769434 403.93046 
L 272.323755 400.851975 
L 273.600916 399.058423 
L 274.878076 397.061287 
L 276.155237 394.827761 
L 277.432397 392.317641 
L 278.709558 389.481796 
L 279.986719 386.260333 
L 281.263879 382.58031 
L 282.54104 378.3529 
L 283.818201 373.469931 
L 285.095361 367.799877 
L 286.372522 361.183553 
L 287.649683 353.430162 
L 288.926843 344.314889 
L 290.204004 333.579991 
L 291.481165 320.942138 
L 292.758325 306.109349 
L 294.035486 288.810871 
L 295.312646 268.842256 
L 296.589807 246.125313 
L 297.866968 220.778407 
L 300.421289 164.061048 
L 302.97561 105.745098 
L 304.252771 79.534104 
L 305.529932 57.506756 
L 306.807092 41.234259 
L 308.084253 31.969238 
L 309.361414 30.467273 
L 310.638574 36.873236 
L 311.915735 50.697891 
L 313.192896 70.890238 
L 314.470056 95.989434 
L 317.024377 154.213395 
L 319.578699 212.910855 
L 320.855859 239.621435 
L 322.13302 263.750666 
L 323.410181 285.069423 
L 324.687341 303.583322 
L 325.964502 319.45952 
L 327.241663 332.959762 
L 328.518823 344.386703 
L 329.795984 354.045704 
L 331.073145 362.220987 
L 332.350305 369.163311 
L 333.627466 375.085878 
L 334.904626 380.165448 
L 336.181787 384.546284 
L 337.458948 388.345216 
L 338.736108 391.656765 
L 340.013269 394.557703 
L 341.29043 397.11082 
L 342.56759 399.367861 
L 343.844751 401.371773 
L 346.399072 404.757806 
L 348.953394 407.492434 
L 351.507715 409.735612 
L 354.062036 411.602729 
L 356.616357 413.175515 
L 359.170679 414.510445 
L 361.725 415.64812 
L 365.556482 417.05566 
L 369.387964 418.186598 
L 374.496606 419.388562 
L 379.605249 420.348819 
L 385.991052 421.297554 
L 392.376855 422.019729 
L 401.31698 422.795779 
L 411.534265 423.43935 
L 423.028711 423.933347 
L 444.740442 424.527971 
L 463.897852 424.854866 
L 499.65835 425.223308 
L 563.516382 425.49646 
L 669.520715 425.673116 
L 697.61825 425.704801 
L 697.61825 425.704801 
" style="fill:none;stroke:#9467bd;stroke-linecap:square;stroke-width:1.5;"/>
   </g>
   <g id="line2d_21">
    <path clip-path="url(#pb7afb2e819)" d="M 25.83175 424.740717 
L 76.918176 424.242963 
L 110.124353 423.733792 
L 140.776208 423.030034 
L 162.487939 422.305069 
L 180.368188 421.491535 
L 194.416956 420.640827 
L 207.188562 419.648477 
L 217.405847 418.652613 
L 226.345972 417.541956 
L 235.286096 416.193118 
L 242.94906 414.817894 
L 249.334863 413.426579 
L 255.720667 411.764871 
L 260.829309 410.235801 
L 265.937952 408.493752 
L 271.046594 406.492757 
L 276.155237 404.224179 
L 281.263879 401.682868 
L 286.372522 398.849929 
L 291.481165 395.75315 
L 306.807092 386.153497 
L 310.638574 384.15836 
L 313.192896 383.045851 
L 315.747217 382.150518 
L 318.301538 381.506896 
L 320.855859 381.144903 
L 323.410181 381.085594 
L 325.964502 381.336917 
L 328.518823 381.891838 
L 331.073145 382.729331 
L 333.627466 383.817609 
L 336.181787 385.118848 
L 340.013269 387.384492 
L 345.121912 390.794736 
L 357.893518 399.640794 
L 363.002161 402.800583 
L 366.833643 404.947346 
L 370.665125 406.898525 
L 375.773767 409.206491 
L 380.88241 411.217952 
L 385.991052 412.956745 
L 391.099695 414.443357 
L 397.485498 416.020537 
L 403.871301 417.343965 
L 410.257104 418.44503 
L 417.920068 419.527799 
L 426.860193 420.549536 
L 437.077478 421.460756 
L 449.849084 422.348632 
L 462.620691 423.020312 
L 481.778101 423.727507 
L 500.93551 424.222158 
L 527.755884 424.694755 
L 564.793542 425.086454 
L 619.71145 425.402369 
L 697.61825 425.600155 
L 697.61825 425.600155 
" style="fill:none;stroke:#8c564b;stroke-linecap:square;stroke-width:1.5;"/>
   </g>
   <g id="line2d_22">
    <path clip-path="url(#pb7afb2e819)" d="M 25.83175 420.523609 
L 47.543481 419.465618 
L 67.978052 418.241785 
L 87.135461 416.872476 
L 102.461389 415.579241 
L 120.341638 413.817791 
L 134.390405 412.210727 
L 148.439172 410.357495 
L 159.933618 408.620998 
L 172.705225 406.457767 
L 181.645349 404.765158 
L 193.139795 402.366165 
L 203.35708 399.990506 
L 212.297205 397.680388 
L 221.237329 395.122345 
L 228.900293 392.711396 
L 237.840417 389.642316 
L 245.503381 386.791233 
L 253.166345 383.68911 
L 260.829309 380.332803 
L 267.215112 377.321012 
L 273.600916 374.054876 
L 279.986719 370.532039 
L 286.372522 366.79567 
L 292.758325 362.814263 
L 299.144128 358.525361 
L 305.529932 353.950386 
L 313.192896 348.177003 
L 320.855859 342.129008 
L 336.181787 329.836337 
L 340.013269 327.081604 
L 342.56759 325.41645 
L 345.121912 323.95119 
L 347.676233 322.750072 
L 350.230554 321.885049 
L 352.784875 321.433217 
L 354.062036 321.385631 
L 355.339197 321.467769 
L 356.616357 321.686043 
L 357.893518 322.045148 
L 359.170679 322.547869 
L 360.447839 323.194932 
L 361.725 323.98488 
L 364.279321 325.976313 
L 366.833643 328.466597 
L 369.387964 331.372859 
L 371.942285 334.598469 
L 375.773767 339.821418 
L 387.268213 355.849105 
L 392.376855 362.436949 
L 396.208337 367.043515 
L 400.039819 371.342663 
L 403.871301 375.339187 
L 407.702783 379.042793 
L 411.534265 382.457678 
L 415.365747 385.601933 
L 419.197229 388.506638 
L 423.028711 391.193374 
L 426.860193 393.671532 
L 431.968835 396.66788 
L 437.077478 399.358103 
L 442.186121 401.798705 
L 447.294763 404.021964 
L 452.403406 406.044869 
L 457.512048 407.858326 
L 463.897852 409.846711 
L 470.283655 411.605534 
L 477.946619 413.474141 
L 485.609583 415.092626 
L 494.549707 416.709667 
L 502.212671 417.879614 
L 512.429956 419.187138 
L 523.924402 420.425587 
L 535.418848 421.432089 
L 548.190454 422.310914 
L 563.516382 423.144737 
L 581.396631 423.86536 
L 601.831201 424.457114 
L 627.374414 424.940143 
L 656.749109 425.290827 
L 697.61825 425.559349 
L 697.61825 425.559349 
" style="fill:none;stroke:#e377c2;stroke-linecap:square;stroke-width:1.5;"/>
   </g>
   <g id="line2d_23">
    <path clip-path="url(#pb7afb2e819)" d="M 25.83175 420.370213 
L 46.266321 419.319316 
L 67.978052 418.023758 
L 93.521265 416.024358 
L 107.570032 414.746405 
L 129.281763 412.350659 
L 143.33053 410.587248 
L 152.270654 409.228609 
L 167.596582 406.731897 
L 186.753992 403.185563 
L 194.416956 401.560451 
L 209.742883 397.968817 
L 217.405847 395.89674 
L 232.731775 391.407701 
L 239.117578 389.320565 
L 246.780542 386.552171 
L 256.997827 382.587171 
L 265.937952 378.89407 
L 273.600916 375.519007 
L 279.986719 372.451005 
L 285.095361 369.742927 
L 301.69845 360.487005 
L 306.807092 357.319366 
L 311.915735 353.850984 
L 323.410181 345.714044 
L 328.518823 341.775829 
L 334.904626 336.492567 
L 342.56759 329.821188 
L 352.784875 320.63411 
L 355.339197 318.797194 
L 356.616357 318.111667 
L 357.893518 317.642682 
L 359.170679 317.434958 
L 360.447839 317.52588 
L 361.725 317.940134 
L 363.002161 318.685623 
L 364.279321 319.751699 
L 365.556482 321.11023 
L 366.833643 322.719304 
L 369.387964 326.486085 
L 373.219446 332.789722 
L 378.328088 341.180209 
L 382.15957 347.113176 
L 385.991052 352.683726 
L 389.822534 357.861052 
L 393.654016 362.634726 
L 397.485498 367.040933 
L 401.31698 371.130327 
L 405.148462 374.934214 
L 408.979944 378.47132 
L 414.088586 382.825295 
L 417.920068 385.827544 
L 421.75155 388.581387 
L 426.860193 391.931943 
L 431.968835 395.02772 
L 437.077478 397.840633 
L 442.186121 400.369462 
L 448.571924 403.231456 
L 453.680566 405.285401 
L 460.06637 407.587572 
L 466.452173 409.687264 
L 472.837976 411.53295 
L 479.223779 413.121146 
L 486.886743 414.777116 
L 495.826868 416.469905 
L 503.489832 417.734294 
L 512.429956 418.949782 
L 523.924402 420.263281 
L 535.418848 421.349672 
L 548.190454 422.285073 
L 560.962061 423.029275 
L 577.565149 423.777377 
L 601.831201 424.496982 
L 618.43429 424.850922 
L 654.194788 425.326865 
L 697.61825 425.602351 
L 697.61825 425.602351 
" style="fill:none;stroke:#7f7f7f;stroke-linecap:square;stroke-width:1.5;"/>
   </g>
   <g id="line2d_24">
    <path clip-path="url(#pb7afb2e819)" d="M 25.83175 420.755413 
L 47.543481 419.640244 
L 66.700891 418.43692 
L 84.58114 417.100079 
L 101.184229 415.641342 
L 117.787317 413.944688 
L 131.836084 412.28258 
L 145.884851 410.390598 
L 157.379297 408.637843 
L 170.150903 406.468404 
L 180.368188 404.535533 
L 190.585474 402.392916 
L 202.079919 399.74821 
L 211.020044 397.484213 
L 219.960168 395.003816 
L 228.900293 392.30329 
L 237.840417 389.381501 
L 246.780542 386.200747 
L 254.443506 383.262061 
L 262.10647 380.096302 
L 269.769434 376.688643 
L 277.432397 373.02428 
L 285.095361 369.101051 
L 291.481165 365.604535 
L 299.144128 361.126076 
L 305.529932 357.137223 
L 311.915735 352.894182 
L 318.301538 348.400949 
L 324.687341 343.627525 
L 331.073145 338.557298 
L 337.458948 333.179703 
L 343.844751 327.461386 
L 352.784875 319.213046 
L 355.339197 317.266449 
L 356.616357 316.529527 
L 357.893518 316.020219 
L 359.170679 315.789831 
L 360.447839 315.880726 
L 361.725 316.319823 
L 363.002161 317.113976 
L 364.279321 318.248438 
L 365.556482 319.688854 
L 366.833643 321.386274 
L 369.387964 325.324207 
L 380.88241 344.312524 
L 384.713892 349.961347 
L 388.545374 355.215623 
L 392.376855 360.10321 
L 396.208337 364.64993 
L 400.039819 368.880103 
L 403.871301 372.817726 
L 407.702783 376.485391 
L 411.534265 379.903833 
L 415.365747 383.089163 
L 419.197229 386.053365 
L 424.305872 389.68465 
L 429.414514 392.981649 
L 434.523157 395.975921 
L 439.631799 398.69371 
L 444.740442 401.162079 
L 449.849084 403.407413 
L 456.234888 405.932062 
L 462.620691 408.174848 
L 469.006494 410.160914 
L 475.392297 411.917432 
L 483.055261 413.766713 
L 490.718225 415.371819 
L 498.381189 416.760782 
L 507.321313 418.148021 
L 516.261438 419.322457 
L 526.478723 420.442413 
L 537.973169 421.471029 
L 550.744775 422.381455 
L 564.793542 423.157283 
L 581.396631 423.854333 
L 600.554041 424.42101 
L 624.820093 424.905508 
L 655.471948 425.271772 
L 697.61825 425.529913 
L 697.61825 425.529913 
" style="fill:none;stroke:#bcbd22;stroke-linecap:square;stroke-width:1.5;"/>
   </g>
   <g id="line2d_25">
    <path clip-path="url(#pb7afb2e819)" d="M 25.83175 420.767511 
L 47.543481 419.645451 
L 67.978052 418.354459 
L 85.858301 417.006657 
L 102.461389 415.530669 
L 119.064478 413.814343 
L 133.113245 412.133397 
L 145.884851 410.398725 
L 158.656458 408.443215 
L 170.150903 406.471013 
L 181.645349 404.276667 
L 191.862634 402.115556 
L 202.079919 399.742839 
L 212.297205 397.127071 
L 221.237329 394.628031 
L 230.177454 391.902039 
L 239.117578 388.939652 
L 248.057703 385.712618 
L 255.720667 382.734571 
L 263.38363 379.52967 
L 271.046594 376.079052 
L 278.709558 372.374479 
L 286.372522 368.388237 
L 294.035486 364.119501 
L 300.421289 360.327473 
L 306.807092 356.286585 
L 313.192896 352.003378 
L 319.578699 347.458386 
L 325.964502 342.620538 
L 332.350305 337.479666 
L 338.736108 332.033784 
L 345.121912 326.253982 
L 352.784875 319.170265 
L 355.339197 317.22183 
L 356.616357 316.484839 
L 357.893518 315.97586 
L 359.170679 315.746124 
L 360.447839 315.837957 
L 361.725 316.278259 
L 363.002161 317.073839 
L 364.279321 318.209849 
L 365.556482 319.651779 
L 366.833643 321.350497 
L 369.387964 325.2898 
L 380.88241 344.26574 
L 384.713892 349.913079 
L 388.545374 355.172948 
L 392.376855 360.069252 
L 396.208337 364.625577 
L 400.039819 368.867496 
L 403.871301 372.816091 
L 407.702783 376.487 
L 411.534265 379.899277 
L 415.365747 383.075799 
L 420.47439 386.976224 
L 425.583032 390.520404 
L 430.691675 393.736407 
L 435.800317 396.661409 
L 440.90896 399.326269 
L 446.017603 401.745195 
L 451.126245 403.937138 
L 457.512048 406.398259 
L 463.897852 408.584413 
L 470.283655 410.52516 
L 476.669458 412.241501 
L 484.332422 414.047166 
L 491.995386 415.615377 
L 499.65835 416.973359 
L 508.598474 418.328393 
L 517.538599 419.473558 
L 527.755884 420.564469 
L 539.25033 421.568122 
L 552.021936 422.457928 
L 566.070703 423.220668 
L 582.673792 423.893527 
L 603.108362 424.481948 
L 627.374414 424.943335 
L 658.02627 425.293083 
L 697.61825 425.529088 
L 697.61825 425.529088 
" style="fill:none;stroke:#17becf;stroke-linecap:square;stroke-width:1.5;"/>
   </g>
   <g id="line2d_26">
    <path clip-path="url(#pb7afb2e819)" d="M 25.83175 420.765664 
L 47.543481 419.643302 
L 67.978052 418.354409 
L 85.858301 417.007247 
L 102.461389 415.536419 
L 117.787317 413.951679 
L 133.113245 412.13562 
L 145.884851 410.395809 
L 158.656458 408.444388 
L 170.150903 406.472802 
L 181.645349 404.28102 
L 191.862634 402.128325 
L 202.079919 399.737184 
L 212.297205 397.11668 
L 222.51449 394.242797 
L 231.454614 391.499952 
L 240.394739 388.500425 
L 249.334863 385.23782 
L 256.997827 382.225425 
L 264.660791 378.978057 
L 272.323755 375.484861 
L 279.986719 371.731498 
L 287.649683 367.70998 
L 294.035486 364.134567 
L 300.421289 360.333468 
L 306.807092 356.285991 
L 313.192896 351.982753 
L 319.578699 347.430026 
L 325.964502 342.603694 
L 332.350305 337.477138 
L 338.736108 332.028871 
L 345.121912 326.246531 
L 352.784875 319.184543 
L 355.339197 317.238124 
L 356.616357 316.499873 
L 357.893518 315.98839 
L 359.170679 315.755271 
L 360.447839 315.84324 
L 361.725 316.279562 
L 363.002161 317.071356 
L 364.279321 318.204038 
L 365.556482 319.643319 
L 366.833643 321.340243 
L 369.387964 325.278804 
L 380.88241 344.268684 
L 384.713892 349.924706 
L 388.545374 355.192273 
L 392.376855 360.088553 
L 396.208337 364.638074 
L 400.039819 368.870611 
L 403.871301 372.811606 
L 407.702783 376.48213 
L 411.534265 379.900158 
L 415.365747 383.080867 
L 419.197229 386.039404 
L 424.305872 389.665649 
L 429.414514 392.961868 
L 434.523157 395.961076 
L 439.631799 398.687578 
L 444.740442 401.162951 
L 449.849084 403.410677 
L 454.957727 405.451321 
L 461.34353 407.736775 
L 467.729333 409.76637 
L 474.115137 411.572443 
L 480.50094 413.176443 
L 488.163904 414.857315 
L 495.826868 416.316552 
L 504.766992 417.775874 
L 513.707117 419.005035 
L 523.924402 420.17883 
L 535.418848 421.257219 
L 546.913293 422.127846 
L 560.962061 422.96388 
L 576.287988 423.658745 
L 595.445398 424.287909 
L 618.43429 424.798108 
L 646.531824 425.18441 
L 684.846643 425.470587 
L 697.61825 425.528891 
L 697.61825 425.528891 
" style="fill:none;stroke:#1f77b4;stroke-linecap:square;stroke-width:1.5;"/>
   </g>
   <g id="patch_3">
    <path d="M 26.925 445.58 
L 26.925 10.7 
" style="fill:none;stroke:#000000;stroke-linecap:square;stroke-linejoin:miter;stroke-width:0.8;"/>
   </g>
   <g id="patch_4">
    <path d="M 696.525 445.58 
L 696.525 10.7 
" style="fill:none;stroke:#000000;stroke-linecap:square;stroke-linejoin:miter;stroke-width:0.8;"/>
   </g>
   <g id="patch_5">
    <path d="M 26.925 445.58 
L 696.525 445.58 
" style="fill:none;stroke:#000000;stroke-linecap:square;stroke-linejoin:miter;stroke-width:0.8;"/>
   </g>
   <g id="patch_6">
    <path d="M 26.925 10.7 
L 696.525 10.7 
" style="fill:none;stroke:#000000;stroke-linecap:square;stroke-linejoin:miter;stroke-width:0.8;"/>
   </g>
   <g id="legend_1">
    <g id="patch_7">
     <path d="M 552.546875 180.159375 
L 689.525 180.159375 
Q 691.525 180.159375 691.525 178.159375 
L 691.525 17.7 
Q 691.525 15.7 689.525 15.7 
L 552.546875 15.7 
Q 550.546875 15.7 550.546875 17.7 
L 550.546875 178.159375 
Q 550.546875 180.159375 552.546875 180.159375 
z
" style="fill:#ffffff;opacity:0.8;stroke:#cccccc;stroke-linejoin:miter;"/>
    </g>
    <g id="line2d_27">
     <path d="M 554.546875 23.798437 
L 574.546875 23.798437 
" style="fill:none;stroke:#1f77b4;stroke-linecap:square;stroke-width:1.5;"/>
    </g>
    <g id="line2d_28"/>
    <g id="text_16">
     <!-- 1.00411e-07 -->
     <defs>
      <path d="M 10.6875 12.40625 
L 21 12.40625 
L 21 0 
L 10.6875 0 
z
" id="DejaVuSans-2e"/>
      <path d="M 56.203125 29.59375 
L 56.203125 25.203125 
L 14.890625 25.203125 
Q 15.484375 15.921875 20.484375 11.0625 
Q 25.484375 6.203125 34.421875 6.203125 
Q 39.59375 6.203125 44.453125 7.46875 
Q 49.3125 8.734375 54.109375 11.28125 
L 54.109375 2.78125 
Q 49.265625 0.734375 44.1875 -0.34375 
Q 39.109375 -1.421875 33.890625 -1.421875 
Q 20.796875 -1.421875 13.15625 6.1875 
Q 5.515625 13.8125 5.515625 26.8125 
Q 5.515625 40.234375 12.765625 48.109375 
Q 20.015625 56 32.328125 56 
Q 43.359375 56 49.78125 48.890625 
Q 56.203125 41.796875 56.203125 29.59375 
z
M 47.21875 32.234375 
Q 47.125 39.59375 43.09375 43.984375 
Q 39.0625 48.390625 32.421875 48.390625 
Q 24.90625 48.390625 20.390625 44.140625 
Q 15.875 39.890625 15.1875 32.171875 
z
" id="DejaVuSans-65"/>
      <path d="M 4.890625 31.390625 
L 31.203125 31.390625 
L 31.203125 23.390625 
L 4.890625 23.390625 
z
" id="DejaVuSans-2d"/>
     </defs>
     <g transform="translate(582.546875 27.298437)scale(0.1 -0.1)">
      <use xlink:href="#DejaVuSans-31"/>
      <use x="63.623047" xlink:href="#DejaVuSans-2e"/>
      <use x="95.410156" xlink:href="#DejaVuSans-30"/>
      <use x="159.033203" xlink:href="#DejaVuSans-30"/>
      <use x="222.65625" xlink:href="#DejaVuSans-34"/>
      <use x="286.279297" xlink:href="#DejaVuSans-31"/>
      <use x="349.902344" xlink:href="#DejaVuSans-31"/>
      <use x="413.525391" xlink:href="#DejaVuSans-65"/>
      <use x="475.048828" xlink:href="#DejaVuSans-2d"/>
      <use x="511.132812" xlink:href="#DejaVuSans-30"/>
      <use x="574.755859" xlink:href="#DejaVuSans-37"/>
     </g>
    </g>
    <g id="line2d_29">
     <path d="M 554.546875 38.476562 
L 574.546875 38.476562 
" style="fill:none;stroke:#ff7f0e;stroke-linecap:square;stroke-width:1.5;"/>
    </g>
    <g id="line2d_30"/>
    <g id="text_17">
     <!-- 3.01034e-07 -->
     <g transform="translate(582.546875 41.976562)scale(0.1 -0.1)">
      <use xlink:href="#DejaVuSans-33"/>
      <use x="63.623047" xlink:href="#DejaVuSans-2e"/>
      <use x="95.410156" xlink:href="#DejaVuSans-30"/>
      <use x="159.033203" xlink:href="#DejaVuSans-31"/>
      <use x="222.65625" xlink:href="#DejaVuSans-30"/>
      <use x="286.279297" xlink:href="#DejaVuSans-33"/>
      <use x="349.902344" xlink:href="#DejaVuSans-34"/>
      <use x="413.525391" xlink:href="#DejaVuSans-65"/>
      <use x="475.048828" xlink:href="#DejaVuSans-2d"/>
      <use x="511.132812" xlink:href="#DejaVuSans-30"/>
      <use x="574.755859" xlink:href="#DejaVuSans-37"/>
     </g>
    </g>
    <g id="line2d_31">
     <path d="M 554.546875 53.154688 
L 574.546875 53.154688 
" style="fill:none;stroke:#2ca02c;stroke-linecap:square;stroke-width:1.5;"/>
    </g>
    <g id="line2d_32"/>
    <g id="text_18">
     <!-- 1.08049e-06 -->
     <defs>
      <path d="M 31.78125 34.625 
Q 24.75 34.625 20.71875 30.859375 
Q 16.703125 27.09375 16.703125 20.515625 
Q 16.703125 13.921875 20.71875 10.15625 
Q 24.75 6.390625 31.78125 6.390625 
Q 38.8125 6.390625 42.859375 10.171875 
Q 46.921875 13.96875 46.921875 20.515625 
Q 46.921875 27.09375 42.890625 30.859375 
Q 38.875 34.625 31.78125 34.625 
z
M 21.921875 38.8125 
Q 15.578125 40.375 12.03125 44.71875 
Q 8.5 49.078125 8.5 55.328125 
Q 8.5 64.0625 14.71875 69.140625 
Q 20.953125 74.21875 31.78125 74.21875 
Q 42.671875 74.21875 48.875 69.140625 
Q 55.078125 64.0625 55.078125 55.328125 
Q 55.078125 49.078125 51.53125 44.71875 
Q 48 40.375 41.703125 38.8125 
Q 48.828125 37.15625 52.796875 32.3125 
Q 56.78125 27.484375 56.78125 20.515625 
Q 56.78125 9.90625 50.3125 4.234375 
Q 43.84375 -1.421875 31.78125 -1.421875 
Q 19.734375 -1.421875 13.25 4.234375 
Q 6.78125 9.90625 6.78125 20.515625 
Q 6.78125 27.484375 10.78125 32.3125 
Q 14.796875 37.15625 21.921875 38.8125 
z
M 18.3125 54.390625 
Q 18.3125 48.734375 21.84375 45.5625 
Q 25.390625 42.390625 31.78125 42.390625 
Q 38.140625 42.390625 41.71875 45.5625 
Q 45.3125 48.734375 45.3125 54.390625 
Q 45.3125 60.0625 41.71875 63.234375 
Q 38.140625 66.40625 31.78125 66.40625 
Q 25.390625 66.40625 21.84375 63.234375 
Q 18.3125 60.0625 18.3125 54.390625 
z
" id="DejaVuSans-38"/>
      <path d="M 10.984375 1.515625 
L 10.984375 10.5 
Q 14.703125 8.734375 18.5 7.8125 
Q 22.3125 6.890625 25.984375 6.890625 
Q 35.75 6.890625 40.890625 13.453125 
Q 46.046875 20.015625 46.78125 33.40625 
Q 43.953125 29.203125 39.59375 26.953125 
Q 35.25 24.703125 29.984375 24.703125 
Q 19.046875 24.703125 12.671875 31.3125 
Q 6.296875 37.9375 6.296875 49.421875 
Q 6.296875 60.640625 12.9375 67.421875 
Q 19.578125 74.21875 30.609375 74.21875 
Q 43.265625 74.21875 49.921875 64.515625 
Q 56.59375 54.828125 56.59375 36.375 
Q 56.59375 19.140625 48.40625 8.859375 
Q 40.234375 -1.421875 26.421875 -1.421875 
Q 22.703125 -1.421875 18.890625 -0.6875 
Q 15.09375 0.046875 10.984375 1.515625 
z
M 30.609375 32.421875 
Q 37.25 32.421875 41.125 36.953125 
Q 45.015625 41.5 45.015625 49.421875 
Q 45.015625 57.28125 41.125 61.84375 
Q 37.25 66.40625 30.609375 66.40625 
Q 23.96875 66.40625 20.09375 61.84375 
Q 16.21875 57.28125 16.21875 49.421875 
Q 16.21875 41.5 20.09375 36.953125 
Q 23.96875 32.421875 30.609375 32.421875 
z
" id="DejaVuSans-39"/>
      <path d="M 33.015625 40.375 
Q 26.375 40.375 22.484375 35.828125 
Q 18.609375 31.296875 18.609375 23.390625 
Q 18.609375 15.53125 22.484375 10.953125 
Q 26.375 6.390625 33.015625 6.390625 
Q 39.65625 6.390625 43.53125 10.953125 
Q 47.40625 15.53125 47.40625 23.390625 
Q 47.40625 31.296875 43.53125 35.828125 
Q 39.65625 40.375 33.015625 40.375 
z
M 52.59375 71.296875 
L 52.59375 62.3125 
Q 48.875 64.0625 45.09375 64.984375 
Q 41.3125 65.921875 37.59375 65.921875 
Q 27.828125 65.921875 22.671875 59.328125 
Q 17.53125 52.734375 16.796875 39.40625 
Q 19.671875 43.65625 24.015625 45.921875 
Q 28.375 48.1875 33.59375 48.1875 
Q 44.578125 48.1875 50.953125 41.515625 
Q 57.328125 34.859375 57.328125 23.390625 
Q 57.328125 12.15625 50.6875 5.359375 
Q 44.046875 -1.421875 33.015625 -1.421875 
Q 20.359375 -1.421875 13.671875 8.265625 
Q 6.984375 17.96875 6.984375 36.375 
Q 6.984375 53.65625 15.1875 63.9375 
Q 23.390625 74.21875 37.203125 74.21875 
Q 40.921875 74.21875 44.703125 73.484375 
Q 48.484375 72.75 52.59375 71.296875 
z
" id="DejaVuSans-36"/>
     </defs>
     <g transform="translate(582.546875 56.654688)scale(0.1 -0.1)">
      <use xlink:href="#DejaVuSans-31"/>
      <use x="63.623047" xlink:href="#DejaVuSans-2e"/>
      <use x="95.410156" xlink:href="#DejaVuSans-30"/>
      <use x="159.033203" xlink:href="#DejaVuSans-38"/>
      <use x="222.65625" xlink:href="#DejaVuSans-30"/>
      <use x="286.279297" xlink:href="#DejaVuSans-34"/>
      <use x="349.902344" xlink:href="#DejaVuSans-39"/>
      <use x="413.525391" xlink:href="#DejaVuSans-65"/>
      <use x="475.048828" xlink:href="#DejaVuSans-2d"/>
      <use x="511.132812" xlink:href="#DejaVuSans-30"/>
      <use x="574.755859" xlink:href="#DejaVuSans-36"/>
     </g>
    </g>
    <g id="line2d_33">
     <path d="M 554.546875 67.832812 
L 574.546875 67.832812 
" style="fill:none;stroke:#d62728;stroke-linecap:square;stroke-width:1.5;"/>
    </g>
    <g id="line2d_34"/>
    <g id="text_19">
     <!-- 4.87227e-06 -->
     <g transform="translate(582.546875 71.332812)scale(0.1 -0.1)">
      <use xlink:href="#DejaVuSans-34"/>
      <use x="63.623047" xlink:href="#DejaVuSans-2e"/>
      <use x="95.410156" xlink:href="#DejaVuSans-38"/>
      <use x="159.033203" xlink:href="#DejaVuSans-37"/>
      <use x="222.65625" xlink:href="#DejaVuSans-32"/>
      <use x="286.279297" xlink:href="#DejaVuSans-32"/>
      <use x="349.902344" xlink:href="#DejaVuSans-37"/>
      <use x="413.525391" xlink:href="#DejaVuSans-65"/>
      <use x="475.048828" xlink:href="#DejaVuSans-2d"/>
      <use x="511.132812" xlink:href="#DejaVuSans-30"/>
      <use x="574.755859" xlink:href="#DejaVuSans-36"/>
     </g>
    </g>
    <g id="line2d_35">
     <path d="M 554.546875 82.510938 
L 574.546875 82.510938 
" style="fill:none;stroke:#9467bd;stroke-linecap:square;stroke-width:1.5;"/>
    </g>
    <g id="line2d_36"/>
    <g id="text_20">
     <!-- 2.95189e-05 -->
     <g transform="translate(582.546875 86.010938)scale(0.1 -0.1)">
      <use xlink:href="#DejaVuSans-32"/>
      <use x="63.623047" xlink:href="#DejaVuSans-2e"/>
      <use x="95.410156" xlink:href="#DejaVuSans-39"/>
      <use x="159.033203" xlink:href="#DejaVuSans-35"/>
      <use x="222.65625" xlink:href="#DejaVuSans-31"/>
      <use x="286.279297" xlink:href="#DejaVuSans-38"/>
      <use x="349.902344" xlink:href="#DejaVuSans-39"/>
      <use x="413.525391" xlink:href="#DejaVuSans-65"/>
      <use x="475.048828" xlink:href="#DejaVuSans-2d"/>
      <use x="511.132812" xlink:href="#DejaVuSans-30"/>
      <use x="574.755859" xlink:href="#DejaVuSans-35"/>
     </g>
    </g>
    <g id="line2d_37">
     <path d="M 554.546875 97.189062 
L 574.546875 97.189062 
" style="fill:none;stroke:#8c564b;stroke-linecap:square;stroke-width:1.5;"/>
    </g>
    <g id="line2d_38"/>
    <g id="text_21">
     <!-- 0.000264575 -->
     <g transform="translate(582.546875 100.689062)scale(0.1 -0.1)">
      <use xlink:href="#DejaVuSans-30"/>
      <use x="63.623047" xlink:href="#DejaVuSans-2e"/>
      <use x="95.410156" xlink:href="#DejaVuSans-30"/>
      <use x="159.033203" xlink:href="#DejaVuSans-30"/>
      <use x="222.65625" xlink:href="#DejaVuSans-30"/>
      <use x="286.279297" xlink:href="#DejaVuSans-32"/>
      <use x="349.902344" xlink:href="#DejaVuSans-36"/>
      <use x="413.525391" xlink:href="#DejaVuSans-34"/>
      <use x="477.148438" xlink:href="#DejaVuSans-35"/>
      <use x="540.771484" xlink:href="#DejaVuSans-37"/>
      <use x="604.394531" xlink:href="#DejaVuSans-35"/>
     </g>
    </g>
    <g id="line2d_39">
     <path d="M 554.546875 111.867188 
L 574.546875 111.867188 
" style="fill:none;stroke:#e377c2;stroke-linecap:square;stroke-width:1.5;"/>
    </g>
    <g id="line2d_40"/>
    <g id="text_22">
     <!-- 0.00404858 -->
     <g transform="translate(582.546875 115.367188)scale(0.1 -0.1)">
      <use xlink:href="#DejaVuSans-30"/>
      <use x="63.623047" xlink:href="#DejaVuSans-2e"/>
      <use x="95.410156" xlink:href="#DejaVuSans-30"/>
      <use x="159.033203" xlink:href="#DejaVuSans-30"/>
      <use x="222.65625" xlink:href="#DejaVuSans-34"/>
      <use x="286.279297" xlink:href="#DejaVuSans-30"/>
      <use x="349.902344" xlink:href="#DejaVuSans-34"/>
      <use x="413.525391" xlink:href="#DejaVuSans-38"/>
      <use x="477.148438" xlink:href="#DejaVuSans-35"/>
      <use x="540.771484" xlink:href="#DejaVuSans-38"/>
     </g>
    </g>
    <g id="line2d_41">
     <path d="M 554.546875 126.545312 
L 574.546875 126.545312 
" style="fill:none;stroke:#7f7f7f;stroke-linecap:square;stroke-width:1.5;"/>
    </g>
    <g id="line2d_42"/>
    <g id="text_23">
     <!-- 0.132176 -->
     <g transform="translate(582.546875 130.045312)scale(0.1 -0.1)">
      <use xlink:href="#DejaVuSans-30"/>
      <use x="63.623047" xlink:href="#DejaVuSans-2e"/>
      <use x="95.410156" xlink:href="#DejaVuSans-31"/>
      <use x="159.033203" xlink:href="#DejaVuSans-33"/>
      <use x="222.65625" xlink:href="#DejaVuSans-32"/>
      <use x="286.279297" xlink:href="#DejaVuSans-31"/>
      <use x="349.902344" xlink:href="#DejaVuSans-37"/>
      <use x="413.525391" xlink:href="#DejaVuSans-36"/>
     </g>
    </g>
    <g id="line2d_43">
     <path d="M 554.546875 141.223437 
L 574.546875 141.223437 
" style="fill:none;stroke:#bcbd22;stroke-linecap:square;stroke-width:1.5;"/>
    </g>
    <g id="line2d_44"/>
    <g id="text_24">
     <!-- 13.2845 -->
     <g transform="translate(582.546875 144.723437)scale(0.1 -0.1)">
      <use xlink:href="#DejaVuSans-31"/>
      <use x="63.623047" xlink:href="#DejaVuSans-33"/>
      <use x="127.246094" xlink:href="#DejaVuSans-2e"/>
      <use x="159.033203" xlink:href="#DejaVuSans-32"/>
      <use x="222.65625" xlink:href="#DejaVuSans-38"/>
      <use x="286.279297" xlink:href="#DejaVuSans-34"/>
      <use x="349.902344" xlink:href="#DejaVuSans-35"/>
     </g>
    </g>
    <g id="line2d_45">
     <path d="M 554.546875 155.901562 
L 574.546875 155.901562 
" style="fill:none;stroke:#17becf;stroke-linecap:square;stroke-width:1.5;"/>
    </g>
    <g id="line2d_46"/>
    <g id="text_25">
     <!-- 7863.38 -->
     <g transform="translate(582.546875 159.401562)scale(0.1 -0.1)">
      <use xlink:href="#DejaVuSans-37"/>
      <use x="63.623047" xlink:href="#DejaVuSans-38"/>
      <use x="127.246094" xlink:href="#DejaVuSans-36"/>
      <use x="190.869141" xlink:href="#DejaVuSans-33"/>
      <use x="254.492188" xlink:href="#DejaVuSans-2e"/>
      <use x="286.279297" xlink:href="#DejaVuSans-33"/>
      <use x="349.902344" xlink:href="#DejaVuSans-38"/>
     </g>
    </g>
    <g id="line2d_47">
     <path d="M 554.546875 170.579687 
L 574.546875 170.579687 
" style="fill:none;stroke:#1f77b4;stroke-linecap:square;stroke-width:1.5;"/>
    </g>
    <g id="line2d_48"/>
    <g id="text_26">
     <!-- 434644000000000.0 -->
     <g transform="translate(582.546875 174.079687)scale(0.1 -0.1)">
      <use xlink:href="#DejaVuSans-34"/>
      <use x="63.623047" xlink:href="#DejaVuSans-33"/>
      <use x="127.246094" xlink:href="#DejaVuSans-34"/>
      <use x="190.869141" xlink:href="#DejaVuSans-36"/>
      <use x="254.492188" xlink:href="#DejaVuSans-34"/>
      <use x="318.115234" xlink:href="#DejaVuSans-34"/>
      <use x="381.738281" xlink:href="#DejaVuSans-30"/>
      <use x="445.361328" xlink:href="#DejaVuSans-30"/>
      <use x="508.984375" xlink:href="#DejaVuSans-30"/>
      <use x="572.607422" xlink:href="#DejaVuSans-30"/>
      <use x="636.230469" xlink:href="#DejaVuSans-30"/>
      <use x="699.853516" xlink:href="#DejaVuSans-30"/>
      <use x="763.476562" xlink:href="#DejaVuSans-30"/>
      <use x="827.099609" xlink:href="#DejaVuSans-30"/>
      <use x="890.722656" xlink:href="#DejaVuSans-30"/>
      <use x="954.345703" xlink:href="#DejaVuSans-2e"/>
      <use x="986.132812" xlink:href="#DejaVuSans-30"/>
     </g>
    </g>
   </g>
  </g>
 </g>
 <defs>
  <clipPath id="pb7afb2e819">
   <rect height="434.88" width="669.6" x="26.925" y="10.7"/>
  </clipPath>
 </defs>
</svg>
