<?xml version="1.0" encoding="utf-8" standalone="no"?>
<!DOCTYPE svg PUBLIC "-//W3C//DTD SVG 1.1//EN"
  "http://www.w3.org/Graphics/SVG/1.1/DTD/svg11.dtd">
<!-- Created with matplotlib (http://matplotlib.org/) -->
<svg height="469pt" version="1.1" viewBox="0 0 713 469" width="713pt" xmlns="http://www.w3.org/2000/svg" xmlns:xlink="http://www.w3.org/1999/xlink">
 <defs>
  <style type="text/css">
*{stroke-linecap:butt;stroke-linejoin:round;}
  </style>
 </defs>
 <g id="figure_1">
  <g id="patch_1">
   <path d="M 0 469.458125 
L 713.26875 469.458125 
L 713.26875 0 
L 0 0 
z
" style="fill:#ffffff;"/>
  </g>
  <g id="axes_1">
   <g id="patch_2">
    <path d="M 26.925 445.58 
L 696.525 445.58 
L 696.525 10.7 
L 26.925 10.7 
z
" style="fill:#ffffff;"/>
   </g>
   <g id="matplotlib.axis_1">
    <g id="xtick_1">
     <g id="line2d_1">
      <defs>
       <path d="M 0 0 
L 0 3.5 
" id="m23a9b667ef" style="stroke:#000000;stroke-width:0.8;"/>
      </defs>
      <g>
       <use style="stroke:#000000;stroke-width:0.8;" x="26.925" xlink:href="#m23a9b667ef" y="445.58"/>
      </g>
     </g>
     <g id="text_1">
      <!-- −300 -->
      <defs>
       <path d="M 10.59375 35.5 
L 73.1875 35.5 
L 73.1875 27.203125 
L 10.59375 27.203125 
z
" id="DejaVuSans-2212"/>
       <path d="M 40.578125 39.3125 
Q 47.65625 37.796875 51.625 33 
Q 55.609375 28.21875 55.609375 21.1875 
Q 55.609375 10.40625 48.1875 4.484375 
Q 40.765625 -1.421875 27.09375 -1.421875 
Q 22.515625 -1.421875 17.65625 -0.515625 
Q 12.796875 0.390625 7.625 2.203125 
L 7.625 11.71875 
Q 11.71875 9.328125 16.59375 8.109375 
Q 21.484375 6.890625 26.8125 6.890625 
Q 36.078125 6.890625 40.9375 10.546875 
Q 45.796875 14.203125 45.796875 21.1875 
Q 45.796875 27.640625 41.28125 31.265625 
Q 36.765625 34.90625 28.71875 34.90625 
L 20.21875 34.90625 
L 20.21875 43.015625 
L 29.109375 43.015625 
Q 36.375 43.015625 40.234375 45.921875 
Q 44.09375 48.828125 44.09375 54.296875 
Q 44.09375 59.90625 40.109375 62.90625 
Q 36.140625 65.921875 28.71875 65.921875 
Q 24.65625 65.921875 20.015625 65.03125 
Q 15.375 64.15625 9.8125 62.3125 
L 9.8125 71.09375 
Q 15.4375 72.65625 20.34375 73.4375 
Q 25.25 74.21875 29.59375 74.21875 
Q 40.828125 74.21875 47.359375 69.109375 
Q 53.90625 64.015625 53.90625 55.328125 
Q 53.90625 49.265625 50.4375 45.09375 
Q 46.96875 40.921875 40.578125 39.3125 
z
" id="DejaVuSans-33"/>
       <path d="M 31.78125 66.40625 
Q 24.171875 66.40625 20.328125 58.90625 
Q 16.5 51.421875 16.5 36.375 
Q 16.5 21.390625 20.328125 13.890625 
Q 24.171875 6.390625 31.78125 6.390625 
Q 39.453125 6.390625 43.28125 13.890625 
Q 47.125 21.390625 47.125 36.375 
Q 47.125 51.421875 43.28125 58.90625 
Q 39.453125 66.40625 31.78125 66.40625 
z
M 31.78125 74.21875 
Q 44.046875 74.21875 50.515625 64.515625 
Q 56.984375 54.828125 56.984375 36.375 
Q 56.984375 17.96875 50.515625 8.265625 
Q 44.046875 -1.421875 31.78125 -1.421875 
Q 19.53125 -1.421875 13.0625 8.265625 
Q 6.59375 17.96875 6.59375 36.375 
Q 6.59375 54.828125 13.0625 64.515625 
Q 19.53125 74.21875 31.78125 74.21875 
z
" id="DejaVuSans-30"/>
      </defs>
      <g transform="translate(13.191406 460.178437)scale(0.1 -0.1)">
       <use xlink:href="#DejaVuSans-2212"/>
       <use x="83.789062" xlink:href="#DejaVuSans-33"/>
       <use x="147.412109" xlink:href="#DejaVuSans-30"/>
       <use x="211.035156" xlink:href="#DejaVuSans-30"/>
      </g>
     </g>
    </g>
    <g id="xtick_2">
     <g id="line2d_2">
      <g>
       <use style="stroke:#000000;stroke-width:0.8;" x="160.845" xlink:href="#m23a9b667ef" y="445.58"/>
      </g>
     </g>
     <g id="text_2">
      <!-- −200 -->
      <defs>
       <path d="M 19.1875 8.296875 
L 53.609375 8.296875 
L 53.609375 0 
L 7.328125 0 
L 7.328125 8.296875 
Q 12.9375 14.109375 22.625 23.890625 
Q 32.328125 33.6875 34.8125 36.53125 
Q 39.546875 41.84375 41.421875 45.53125 
Q 43.3125 49.21875 43.3125 52.78125 
Q 43.3125 58.59375 39.234375 62.25 
Q 35.15625 65.921875 28.609375 65.921875 
Q 23.96875 65.921875 18.8125 64.3125 
Q 13.671875 62.703125 7.8125 59.421875 
L 7.8125 69.390625 
Q 13.765625 71.78125 18.9375 73 
Q 24.125 74.21875 28.421875 74.21875 
Q 39.75 74.21875 46.484375 68.546875 
Q 53.21875 62.890625 53.21875 53.421875 
Q 53.21875 48.921875 51.53125 44.890625 
Q 49.859375 40.875 45.40625 35.40625 
Q 44.1875 33.984375 37.640625 27.21875 
Q 31.109375 20.453125 19.1875 8.296875 
z
" id="DejaVuSans-32"/>
      </defs>
      <g transform="translate(147.111406 460.178437)scale(0.1 -0.1)">
       <use xlink:href="#DejaVuSans-2212"/>
       <use x="83.789062" xlink:href="#DejaVuSans-32"/>
       <use x="147.412109" xlink:href="#DejaVuSans-30"/>
       <use x="211.035156" xlink:href="#DejaVuSans-30"/>
      </g>
     </g>
    </g>
    <g id="xtick_3">
     <g id="line2d_3">
      <g>
       <use style="stroke:#000000;stroke-width:0.8;" x="294.765" xlink:href="#m23a9b667ef" y="445.58"/>
      </g>
     </g>
     <g id="text_3">
      <!-- −100 -->
      <defs>
       <path d="M 12.40625 8.296875 
L 28.515625 8.296875 
L 28.515625 63.921875 
L 10.984375 60.40625 
L 10.984375 69.390625 
L 28.421875 72.90625 
L 38.28125 72.90625 
L 38.28125 8.296875 
L 54.390625 8.296875 
L 54.390625 0 
L 12.40625 0 
z
" id="DejaVuSans-31"/>
      </defs>
      <g transform="translate(281.031406 460.178437)scale(0.1 -0.1)">
       <use xlink:href="#DejaVuSans-2212"/>
       <use x="83.789062" xlink:href="#DejaVuSans-31"/>
       <use x="147.412109" xlink:href="#DejaVuSans-30"/>
       <use x="211.035156" xlink:href="#DejaVuSans-30"/>
      </g>
     </g>
    </g>
    <g id="xtick_4">
     <g id="line2d_4">
      <g>
       <use style="stroke:#000000;stroke-width:0.8;" x="428.685" xlink:href="#m23a9b667ef" y="445.58"/>
      </g>
     </g>
     <g id="text_4">
      <!-- 0 -->
      <g transform="translate(425.50375 460.178437)scale(0.1 -0.1)">
       <use xlink:href="#DejaVuSans-30"/>
      </g>
     </g>
    </g>
    <g id="xtick_5">
     <g id="line2d_5">
      <g>
       <use style="stroke:#000000;stroke-width:0.8;" x="562.605" xlink:href="#m23a9b667ef" y="445.58"/>
      </g>
     </g>
     <g id="text_5">
      <!-- 100 -->
      <g transform="translate(553.06125 460.178437)scale(0.1 -0.1)">
       <use xlink:href="#DejaVuSans-31"/>
       <use x="63.623047" xlink:href="#DejaVuSans-30"/>
       <use x="127.246094" xlink:href="#DejaVuSans-30"/>
      </g>
     </g>
    </g>
    <g id="xtick_6">
     <g id="line2d_6">
      <g>
       <use style="stroke:#000000;stroke-width:0.8;" x="696.525" xlink:href="#m23a9b667ef" y="445.58"/>
      </g>
     </g>
     <g id="text_6">
      <!-- 200 -->
      <g transform="translate(686.98125 460.178437)scale(0.1 -0.1)">
       <use xlink:href="#DejaVuSans-32"/>
       <use x="63.623047" xlink:href="#DejaVuSans-30"/>
       <use x="127.246094" xlink:href="#DejaVuSans-30"/>
      </g>
     </g>
    </g>
   </g>
   <g id="matplotlib.axis_2">
    <g id="ytick_1">
     <g id="line2d_7">
      <defs>
       <path d="M 0 0 
L -3.5 0 
" id="m4e2aab8725" style="stroke:#000000;stroke-width:0.8;"/>
      </defs>
      <g>
       <use style="stroke:#000000;stroke-width:0.8;" x="26.925" xlink:href="#m4e2aab8725" y="425.742566"/>
      </g>
     </g>
     <g id="text_7">
      <!-- 0 -->
      <g transform="translate(13.5625 429.541785)scale(0.1 -0.1)">
       <use xlink:href="#DejaVuSans-30"/>
      </g>
     </g>
    </g>
    <g id="ytick_2">
     <g id="line2d_8">
      <g>
       <use style="stroke:#000000;stroke-width:0.8;" x="26.925" xlink:href="#m4e2aab8725" y="354.76279"/>
      </g>
     </g>
     <g id="text_8">
      <!-- 10 -->
      <g transform="translate(7.2 358.562008)scale(0.1 -0.1)">
       <use xlink:href="#DejaVuSans-31"/>
       <use x="63.623047" xlink:href="#DejaVuSans-30"/>
      </g>
     </g>
    </g>
    <g id="ytick_3">
     <g id="line2d_9">
      <g>
       <use style="stroke:#000000;stroke-width:0.8;" x="26.925" xlink:href="#m4e2aab8725" y="283.783013"/>
      </g>
     </g>
     <g id="text_9">
      <!-- 20 -->
      <g transform="translate(7.2 287.582232)scale(0.1 -0.1)">
       <use xlink:href="#DejaVuSans-32"/>
       <use x="63.623047" xlink:href="#DejaVuSans-30"/>
      </g>
     </g>
    </g>
    <g id="ytick_4">
     <g id="line2d_10">
      <g>
       <use style="stroke:#000000;stroke-width:0.8;" x="26.925" xlink:href="#m4e2aab8725" y="212.803236"/>
      </g>
     </g>
     <g id="text_10">
      <!-- 30 -->
      <g transform="translate(7.2 216.602455)scale(0.1 -0.1)">
       <use xlink:href="#DejaVuSans-33"/>
       <use x="63.623047" xlink:href="#DejaVuSans-30"/>
      </g>
     </g>
    </g>
    <g id="ytick_5">
     <g id="line2d_11">
      <g>
       <use style="stroke:#000000;stroke-width:0.8;" x="26.925" xlink:href="#m4e2aab8725" y="141.82346"/>
      </g>
     </g>
     <g id="text_11">
      <!-- 40 -->
      <defs>
       <path d="M 37.796875 64.3125 
L 12.890625 25.390625 
L 37.796875 25.390625 
z
M 35.203125 72.90625 
L 47.609375 72.90625 
L 47.609375 25.390625 
L 58.015625 25.390625 
L 58.015625 17.1875 
L 47.609375 17.1875 
L 47.609375 0 
L 37.796875 0 
L 37.796875 17.1875 
L 4.890625 17.1875 
L 4.890625 26.703125 
z
" id="DejaVuSans-34"/>
      </defs>
      <g transform="translate(7.2 145.622678)scale(0.1 -0.1)">
       <use xlink:href="#DejaVuSans-34"/>
       <use x="63.623047" xlink:href="#DejaVuSans-30"/>
      </g>
     </g>
    </g>
    <g id="ytick_6">
     <g id="line2d_12">
      <g>
       <use style="stroke:#000000;stroke-width:0.8;" x="26.925" xlink:href="#m4e2aab8725" y="70.843683"/>
      </g>
     </g>
     <g id="text_12">
      <!-- 50 -->
      <defs>
       <path d="M 10.796875 72.90625 
L 49.515625 72.90625 
L 49.515625 64.59375 
L 19.828125 64.59375 
L 19.828125 46.734375 
Q 21.96875 47.46875 24.109375 47.828125 
Q 26.265625 48.1875 28.421875 48.1875 
Q 40.625 48.1875 47.75 41.5 
Q 54.890625 34.8125 54.890625 23.390625 
Q 54.890625 11.625 47.5625 5.09375 
Q 40.234375 -1.421875 26.90625 -1.421875 
Q 22.3125 -1.421875 17.546875 -0.640625 
Q 12.796875 0.140625 7.71875 1.703125 
L 7.71875 11.625 
Q 12.109375 9.234375 16.796875 8.0625 
Q 21.484375 6.890625 26.703125 6.890625 
Q 35.15625 6.890625 40.078125 11.328125 
Q 45.015625 15.765625 45.015625 23.390625 
Q 45.015625 31 40.078125 35.4375 
Q 35.15625 39.890625 26.703125 39.890625 
Q 22.75 39.890625 18.8125 39.015625 
Q 14.890625 38.140625 10.796875 36.28125 
z
" id="DejaVuSans-35"/>
      </defs>
      <g transform="translate(7.2 74.642902)scale(0.1 -0.1)">
       <use xlink:href="#DejaVuSans-35"/>
       <use x="63.623047" xlink:href="#DejaVuSans-30"/>
      </g>
     </g>
    </g>
   </g>
   <g id="line2d_13">
    <path clip-path="url(#p7eccd13050)" d="M 25.102236 425.738028 
L 157.926943 425.63582 
L 168.144229 425.441261 
L 178.361514 425.008559 
L 188.578799 424.278144 
L 203.904727 422.998346 
L 209.013369 422.716265 
L 214.122012 422.587759 
L 219.230654 422.634274 
L 224.339297 422.848616 
L 234.556582 423.627099 
L 249.88251 424.882943 
L 260.099795 425.392217 
L 270.31708 425.633922 
L 285.643008 425.737709 
L 362.272646 425.74762 
L 699.443057 425.744246 
L 699.443057 425.744246 
" style="fill:none;stroke:#1f77b4;stroke-linecap:square;stroke-width:1.5;"/>
   </g>
   <g id="line2d_14">
    <path clip-path="url(#p7eccd13050)" d="M 25.102236 425.72758 
L 147.709658 425.617113 
L 157.926943 425.405305 
L 163.035586 425.178185 
L 168.144229 424.817309 
L 173.252871 424.277997 
L 178.361514 423.523428 
L 183.470156 422.539834 
L 188.578799 421.352686 
L 198.796084 418.721961 
L 203.904727 417.565253 
L 209.013369 416.732162 
L 214.122012 416.352927 
L 219.230654 416.49055 
L 224.339297 417.123872 
L 229.447939 418.153118 
L 249.88251 423.151141 
L 254.991152 424.026034 
L 260.099795 424.671043 
L 265.208438 425.114087 
L 270.31708 425.398468 
L 280.534365 425.665725 
L 300.968936 425.758213 
L 602.378848 425.748339 
L 699.443057 425.747345 
L 699.443057 425.747345 
" style="fill:none;stroke:#ff7f0e;stroke-linecap:square;stroke-width:1.5;"/>
   </g>
   <g id="line2d_15">
    <path clip-path="url(#p7eccd13050)" d="M 25.102236 425.675525 
L 122.166445 425.540372 
L 137.492373 425.412175 
L 147.709658 425.130178 
L 152.818301 424.821976 
L 157.926943 424.301252 
L 163.035586 423.453847 
L 168.144229 422.139643 
L 173.252871 420.211945 
L 178.361514 417.553839 
L 183.470156 414.128432 
L 188.578799 410.031302 
L 198.796084 401.040181 
L 203.904727 397.113145 
L 209.013369 394.29242 
L 214.122012 393.010477 
L 219.230654 393.476122 
L 224.339297 395.61926 
L 229.447939 399.108941 
L 234.556582 403.438188 
L 239.665225 408.045547 
L 244.773867 412.4332 
L 249.88251 416.248154 
L 254.991152 419.311307 
L 260.099795 421.59935 
L 265.208438 423.19789 
L 270.31708 424.247321 
L 275.425723 424.897749 
L 280.534365 425.280514 
L 290.75165 425.61359 
L 306.077578 425.730072 
L 372.489932 425.769918 
L 699.443057 425.757573 
L 699.443057 425.757573 
" style="fill:none;stroke:#2ca02c;stroke-linecap:square;stroke-width:1.5;"/>
   </g>
   <g id="line2d_16">
    <path clip-path="url(#p7eccd13050)" d="M 25.102236 425.137183 
L 65.971377 424.819719 
L 91.51459 424.424666 
L 106.840518 424.023846 
L 117.057803 423.618067 
L 127.275088 422.992366 
L 132.38373 422.528995 
L 137.492373 421.892627 
L 142.601016 420.986354 
L 147.709658 419.659517 
L 152.818301 417.689248 
L 157.926943 414.767059 
L 163.035586 410.501352 
L 168.144229 404.44983 
L 173.252871 396.194269 
L 178.361514 385.460674 
L 183.470156 372.269658 
L 188.578799 357.079248 
L 193.687441 340.864911 
L 198.796084 325.081901 
L 203.904727 311.480883 
L 209.013369 301.796083 
L 214.122012 297.378771 
L 219.230654 298.883014 
L 224.339297 306.105431 
L 229.447939 318.033531 
L 234.556582 333.086381 
L 244.773867 365.520417 
L 249.88251 379.989873 
L 254.991152 392.140054 
L 260.099795 401.732525 
L 265.208438 408.908995 
L 270.31708 414.037047 
L 275.425723 417.56827 
L 280.534365 419.93679 
L 285.643008 421.504297 
L 290.75165 422.543081 
L 295.860293 423.242845 
L 300.968936 423.728113 
L 311.186221 424.338108 
L 326.512148 424.833323 
L 346.946719 425.185004 
L 377.598574 425.439492 
L 433.793643 425.620386 
L 541.075137 425.723476 
L 699.443057 425.762554 
L 699.443057 425.762554 
" style="fill:none;stroke:#d62728;stroke-linecap:square;stroke-width:1.5;"/>
   </g>
   <g id="line2d_17">
    <path clip-path="url(#p7eccd13050)" d="M 25.102236 411.089778 
L 35.319521 409.471752 
L 45.536807 407.555207 
L 55.754092 405.255478 
L 60.862734 403.93046 
L 65.971377 402.468687 
L 71.08002 400.851975 
L 76.188662 399.058423 
L 81.297305 397.061287 
L 86.405947 394.827761 
L 91.51459 392.317641 
L 96.623232 389.481796 
L 101.731875 386.260333 
L 106.840518 382.58031 
L 111.94916 378.3529 
L 117.057803 373.469931 
L 122.166445 367.799877 
L 127.275088 361.183553 
L 132.38373 353.430162 
L 137.492373 344.314889 
L 142.601016 333.579991 
L 147.709658 320.942138 
L 152.818301 306.109349 
L 157.926943 288.810871 
L 163.035586 268.842256 
L 168.144229 246.125313 
L 173.252871 220.778407 
L 178.361514 193.187255 
L 193.687441 105.745098 
L 198.796084 79.534104 
L 203.904727 57.506756 
L 209.013369 41.234259 
L 214.122012 31.969238 
L 219.230654 30.467273 
L 224.339297 36.873236 
L 229.447939 50.697891 
L 234.556582 70.890238 
L 239.665225 95.989434 
L 244.773867 124.323323 
L 254.991152 184.149651 
L 260.099795 212.910855 
L 265.208438 239.621435 
L 270.31708 263.750666 
L 275.425723 285.069423 
L 280.534365 303.583322 
L 285.643008 319.45952 
L 290.75165 332.959762 
L 295.860293 344.386703 
L 300.968936 354.045704 
L 306.077578 362.220987 
L 311.186221 369.163311 
L 316.294863 375.085878 
L 321.403506 380.165448 
L 326.512148 384.546284 
L 331.620791 388.345216 
L 336.729434 391.656765 
L 341.838076 394.557703 
L 346.946719 397.11082 
L 352.055361 399.367861 
L 357.164004 401.371773 
L 362.272646 403.1584 
L 367.381289 404.757806 
L 372.489932 406.195332 
L 377.598574 407.492434 
L 387.815859 409.735612 
L 398.033145 411.602729 
L 408.25043 413.175515 
L 418.467715 414.510445 
L 428.685 415.64812 
L 444.010928 417.05566 
L 459.336855 418.186598 
L 474.662783 419.114459 
L 495.097354 420.127111 
L 520.640566 421.127946 
L 546.183779 421.889775 
L 581.944277 422.697565 
L 617.704775 423.298687 
L 663.682559 423.843645 
L 699.443057 424.122653 
L 699.443057 424.122653 
" style="fill:none;stroke:#9467bd;stroke-linecap:square;stroke-width:1.5;"/>
   </g>
   <g id="line2d_18">
    <path clip-path="url(#p7eccd13050)" d="M 25.102236 410.235801 
L 45.536807 408.493752 
L 65.971377 406.492757 
L 86.405947 404.224179 
L 106.840518 401.682868 
L 127.275088 398.849929 
L 147.709658 395.75315 
L 209.013369 386.153497 
L 224.339297 384.15836 
L 234.556582 383.045851 
L 244.773867 382.150518 
L 254.991152 381.506896 
L 265.208438 381.144903 
L 275.425723 381.085594 
L 285.643008 381.336917 
L 295.860293 381.891838 
L 306.077578 382.729331 
L 316.294863 383.817609 
L 326.512148 385.118848 
L 341.838076 387.384492 
L 357.164004 389.913969 
L 392.924502 396.188905 
L 413.359072 399.640794 
L 428.685 402.041952 
L 444.010928 404.253399 
L 459.336855 406.269864 
L 474.662783 408.092417 
L 489.988711 409.735612 
L 510.423281 411.677848 
L 530.857852 413.350508 
L 551.292422 414.781134 
L 576.835635 416.304646 
L 602.378848 417.580688 
L 627.922061 418.642005 
L 658.573916 419.687942 
L 694.334414 420.67678 
L 699.443057 420.799626 
L 699.443057 420.799626 
" style="fill:none;stroke:#8c564b;stroke-linecap:square;stroke-width:1.5;"/>
   </g>
   <g id="line2d_19">
    <path clip-path="url(#p7eccd13050)" d="M 25.102236 380.332803 
L 50.645449 377.321012 
L 71.08002 374.730564 
L 96.623232 371.254072 
L 122.166445 367.560511 
L 147.709658 363.633686 
L 168.144229 360.27916 
L 188.578799 356.724953 
L 214.122012 352.058095 
L 239.665225 347.187415 
L 270.31708 341.094558 
L 316.294863 331.787432 
L 331.620791 328.891269 
L 346.946719 326.227742 
L 357.164004 324.655001 
L 367.381289 323.313292 
L 377.598574 322.270779 
L 387.815859 321.602668 
L 392.924502 321.433217 
L 398.033145 321.385631 
L 403.141787 321.467769 
L 408.25043 321.686043 
L 413.359072 322.045148 
L 418.467715 322.547869 
L 423.576357 323.194932 
L 428.685 323.98488 
L 433.793643 324.913995 
L 438.902285 325.976313 
L 444.010928 327.163785 
L 454.228213 329.873612 
L 464.445498 332.95196 
L 474.662783 336.300096 
L 489.988711 341.618992 
L 520.640566 352.389988 
L 535.966494 357.540053 
L 551.292422 362.436949 
L 566.61835 367.043515 
L 581.944277 371.342663 
L 597.270205 375.339187 
L 612.596133 379.042793 
L 627.922061 382.457678 
L 643.247988 385.601933 
L 658.573916 388.506638 
L 673.899844 391.193374 
L 689.225771 393.671532 
L 699.443057 395.211784 
L 699.443057 395.211784 
" style="fill:none;stroke:#e377c2;stroke-linecap:square;stroke-width:1.5;"/>
   </g>
   <g id="line2d_20">
    <path clip-path="url(#p7eccd13050)" d="M 25.102236 381.031644 
L 60.862734 377.237094 
L 86.405947 374.329528 
L 106.840518 371.794835 
L 132.38373 368.328924 
L 193.687441 359.726739 
L 209.013369 357.319366 
L 229.447939 353.850984 
L 270.31708 346.651603 
L 290.75165 342.788982 
L 311.186221 338.641525 
L 336.729434 333.202017 
L 357.164004 328.670467 
L 392.924502 320.63411 
L 398.033145 319.652662 
L 403.141787 318.797194 
L 408.25043 318.111667 
L 413.359072 317.642682 
L 418.467715 317.434958 
L 423.576357 317.52588 
L 428.685 317.940134 
L 433.793643 318.685623 
L 438.902285 319.751699 
L 444.010928 321.11023 
L 449.11957 322.719304 
L 454.228213 324.528729 
L 464.445498 328.542098 
L 495.097354 341.180209 
L 510.423281 347.113176 
L 520.640566 350.868932 
L 530.857852 354.454657 
L 541.075137 357.861052 
L 551.292422 361.086871 
L 561.509707 364.141644 
L 576.835635 368.437168 
L 592.161563 372.429159 
L 607.48749 376.141629 
L 622.813418 379.596404 
L 638.139346 382.825295 
L 653.465273 385.827544 
L 668.791201 388.581387 
L 684.117129 391.120715 
L 699.443057 393.510648 
L 699.443057 393.510648 
" style="fill:none;stroke:#7f7f7f;stroke-linecap:square;stroke-width:1.5;"/>
   </g>
   <g id="line2d_21">
    <path clip-path="url(#p7eccd13050)" d="M 25.102236 380.640326 
L 55.754092 377.274157 
L 86.405947 373.65283 
L 117.057803 369.774214 
L 142.601016 366.321399 
L 168.144229 362.653115 
L 193.687441 358.763593 
L 219.230654 354.621024 
L 244.773867 350.229578 
L 270.31708 345.572775 
L 290.75165 341.634452 
L 311.186221 337.507844 
L 331.620791 333.179703 
L 352.055361 328.631358 
L 377.598574 322.688517 
L 392.924502 319.213046 
L 398.033145 318.177554 
L 403.141787 317.266449 
L 408.25043 316.529527 
L 413.359072 316.020219 
L 418.467715 315.789831 
L 423.576357 315.880726 
L 428.685 316.319823 
L 433.793643 317.113976 
L 438.902285 318.248438 
L 444.010928 319.688854 
L 449.11957 321.386274 
L 454.228213 323.283931 
L 464.445498 327.454388 
L 489.988711 338.250479 
L 500.205996 342.337894 
L 510.423281 346.240891 
L 520.640566 349.961347 
L 530.857852 353.506316 
L 541.075137 356.884219 
L 556.401064 361.655457 
L 571.726992 366.093953 
L 587.05292 370.224004 
L 602.378848 374.069198 
L 617.704775 377.651643 
L 633.030703 380.990882 
L 648.356631 384.101218 
L 663.682559 386.994468 
L 679.008486 389.68465 
L 694.334414 392.186907 
L 699.443057 392.981649 
L 699.443057 392.981649 
" style="fill:none;stroke:#bcbd22;stroke-linecap:square;stroke-width:1.5;"/>
   </g>
   <g id="line2d_22">
    <path clip-path="url(#p7eccd13050)" d="M 25.102236 380.625127 
L 55.754092 377.256682 
L 86.405947 373.639197 
L 111.94916 370.417418 
L 137.492373 366.996567 
L 163.035586 363.379682 
L 188.578799 359.539478 
L 214.122012 355.44913 
L 239.665225 351.116617 
L 260.099795 347.458386 
L 280.534365 343.612356 
L 300.968936 339.572136 
L 321.403506 335.338982 
L 341.838076 330.905484 
L 362.272646 326.253982 
L 392.924502 319.170265 
L 398.033145 318.133526 
L 403.141787 317.22183 
L 408.25043 316.484839 
L 413.359072 315.97586 
L 418.467715 315.746124 
L 423.576357 315.837957 
L 428.685 316.278259 
L 433.793643 317.073839 
L 438.902285 318.209849 
L 444.010928 319.651779 
L 449.11957 321.350497 
L 454.228213 323.249077 
L 464.445498 327.419925 
L 489.988711 338.209633 
L 500.205996 342.292907 
L 510.423281 346.192831 
L 520.640566 349.913079 
L 530.857852 353.46117 
L 541.075137 356.844334 
L 556.401064 361.624544 
L 571.726992 366.073276 
L 587.05292 370.215477 
L 602.378848 374.069784 
L 617.704775 377.652035 
L 633.030703 380.983239 
L 648.356631 384.085717 
L 663.682559 386.976224 
L 679.008486 389.666378 
L 694.334414 392.167259 
L 699.443057 392.961233 
L 699.443057 392.961233 
" style="fill:none;stroke:#17becf;stroke-linecap:square;stroke-width:1.5;"/>
   </g>
   <g id="line2d_23">
    <path clip-path="url(#p7eccd13050)" d="M 25.102236 380.63197 
L 55.754092 377.263024 
L 86.405947 373.641337 
L 117.057803 369.755288 
L 142.601016 366.305651 
L 168.144229 362.642308 
L 193.687441 358.745206 
L 219.230654 354.594808 
L 244.773867 350.192263 
L 270.31708 345.534073 
L 290.75165 341.60314 
L 311.186221 337.477138 
L 331.620791 333.145213 
L 352.055361 328.598342 
L 398.033145 318.149584 
L 403.141787 317.238124 
L 408.25043 316.499873 
L 413.359072 315.98839 
L 418.467715 315.755271 
L 423.576357 315.84324 
L 428.685 316.279562 
L 433.793643 317.071356 
L 438.902285 318.204038 
L 444.010928 319.643319 
L 449.11957 321.340243 
L 454.228213 323.237981 
L 464.445498 327.409829 
L 489.988711 338.20746 
L 500.205996 342.293816 
L 510.423281 346.1983 
L 520.640566 349.924706 
L 530.857852 353.478575 
L 541.075137 356.864631 
L 551.292422 360.088553 
L 566.61835 364.638074 
L 581.944277 368.870611 
L 597.270205 372.811606 
L 612.596133 376.48213 
L 627.922061 379.900158 
L 643.247988 383.080867 
L 658.573916 386.039404 
L 673.899844 388.791468 
L 689.225771 391.352749 
L 699.443057 392.961868 
L 699.443057 392.961868 
" style="fill:none;stroke:#1f77b4;stroke-linecap:square;stroke-width:1.5;"/>
   </g>
   <g id="patch_3">
    <path d="M 26.925 445.58 
L 26.925 10.7 
" style="fill:none;stroke:#000000;stroke-linecap:square;stroke-linejoin:miter;stroke-width:0.8;"/>
   </g>
   <g id="patch_4">
    <path d="M 696.525 445.58 
L 696.525 10.7 
" style="fill:none;stroke:#000000;stroke-linecap:square;stroke-linejoin:miter;stroke-width:0.8;"/>
   </g>
   <g id="patch_5">
    <path d="M 26.925 445.58 
L 696.525 445.58 
" style="fill:none;stroke:#000000;stroke-linecap:square;stroke-linejoin:miter;stroke-width:0.8;"/>
   </g>
   <g id="patch_6">
    <path d="M 26.925 10.7 
L 696.525 10.7 
" style="fill:none;stroke:#000000;stroke-linecap:square;stroke-linejoin:miter;stroke-width:0.8;"/>
   </g>
   <g id="legend_1">
    <g id="patch_7">
     <path d="M 552.546875 180.159375 
L 689.525 180.159375 
Q 691.525 180.159375 691.525 178.159375 
L 691.525 17.7 
Q 691.525 15.7 689.525 15.7 
L 552.546875 15.7 
Q 550.546875 15.7 550.546875 17.7 
L 550.546875 178.159375 
Q 550.546875 180.159375 552.546875 180.159375 
z
" style="fill:#ffffff;opacity:0.8;stroke:#cccccc;stroke-linejoin:miter;"/>
    </g>
    <g id="line2d_24">
     <path d="M 554.546875 23.798437 
L 574.546875 23.798437 
" style="fill:none;stroke:#1f77b4;stroke-linecap:square;stroke-width:1.5;"/>
    </g>
    <g id="line2d_25"/>
    <g id="text_13">
     <!-- 1.00411e-07 -->
     <defs>
      <path d="M 10.6875 12.40625 
L 21 12.40625 
L 21 0 
L 10.6875 0 
z
" id="DejaVuSans-2e"/>
      <path d="M 56.203125 29.59375 
L 56.203125 25.203125 
L 14.890625 25.203125 
Q 15.484375 15.921875 20.484375 11.0625 
Q 25.484375 6.203125 34.421875 6.203125 
Q 39.59375 6.203125 44.453125 7.46875 
Q 49.3125 8.734375 54.109375 11.28125 
L 54.109375 2.78125 
Q 49.265625 0.734375 44.1875 -0.34375 
Q 39.109375 -1.421875 33.890625 -1.421875 
Q 20.796875 -1.421875 13.15625 6.1875 
Q 5.515625 13.8125 5.515625 26.8125 
Q 5.515625 40.234375 12.765625 48.109375 
Q 20.015625 56 32.328125 56 
Q 43.359375 56 49.78125 48.890625 
Q 56.203125 41.796875 56.203125 29.59375 
z
M 47.21875 32.234375 
Q 47.125 39.59375 43.09375 43.984375 
Q 39.0625 48.390625 32.421875 48.390625 
Q 24.90625 48.390625 20.390625 44.140625 
Q 15.875 39.890625 15.1875 32.171875 
z
" id="DejaVuSans-65"/>
      <path d="M 4.890625 31.390625 
L 31.203125 31.390625 
L 31.203125 23.390625 
L 4.890625 23.390625 
z
" id="DejaVuSans-2d"/>
      <path d="M 8.203125 72.90625 
L 55.078125 72.90625 
L 55.078125 68.703125 
L 28.609375 0 
L 18.3125 0 
L 43.21875 64.59375 
L 8.203125 64.59375 
z
" id="DejaVuSans-37"/>
     </defs>
     <g transform="translate(582.546875 27.298437)scale(0.1 -0.1)">
      <use xlink:href="#DejaVuSans-31"/>
      <use x="63.623047" xlink:href="#DejaVuSans-2e"/>
      <use x="95.410156" xlink:href="#DejaVuSans-30"/>
      <use x="159.033203" xlink:href="#DejaVuSans-30"/>
      <use x="222.65625" xlink:href="#DejaVuSans-34"/>
      <use x="286.279297" xlink:href="#DejaVuSans-31"/>
      <use x="349.902344" xlink:href="#DejaVuSans-31"/>
      <use x="413.525391" xlink:href="#DejaVuSans-65"/>
      <use x="475.048828" xlink:href="#DejaVuSans-2d"/>
      <use x="511.132812" xlink:href="#DejaVuSans-30"/>
      <use x="574.755859" xlink:href="#DejaVuSans-37"/>
     </g>
    </g>
    <g id="line2d_26">
     <path d="M 554.546875 38.476562 
L 574.546875 38.476562 
" style="fill:none;stroke:#ff7f0e;stroke-linecap:square;stroke-width:1.5;"/>
    </g>
    <g id="line2d_27"/>
    <g id="text_14">
     <!-- 3.01034e-07 -->
     <g transform="translate(582.546875 41.976562)scale(0.1 -0.1)">
      <use xlink:href="#DejaVuSans-33"/>
      <use x="63.623047" xlink:href="#DejaVuSans-2e"/>
      <use x="95.410156" xlink:href="#DejaVuSans-30"/>
      <use x="159.033203" xlink:href="#DejaVuSans-31"/>
      <use x="222.65625" xlink:href="#DejaVuSans-30"/>
      <use x="286.279297" xlink:href="#DejaVuSans-33"/>
      <use x="349.902344" xlink:href="#DejaVuSans-34"/>
      <use x="413.525391" xlink:href="#DejaVuSans-65"/>
      <use x="475.048828" xlink:href="#DejaVuSans-2d"/>
      <use x="511.132812" xlink:href="#DejaVuSans-30"/>
      <use x="574.755859" xlink:href="#DejaVuSans-37"/>
     </g>
    </g>
    <g id="line2d_28">
     <path d="M 554.546875 53.154688 
L 574.546875 53.154688 
" style="fill:none;stroke:#2ca02c;stroke-linecap:square;stroke-width:1.5;"/>
    </g>
    <g id="line2d_29"/>
    <g id="text_15">
     <!-- 1.08049e-06 -->
     <defs>
      <path d="M 31.78125 34.625 
Q 24.75 34.625 20.71875 30.859375 
Q 16.703125 27.09375 16.703125 20.515625 
Q 16.703125 13.921875 20.71875 10.15625 
Q 24.75 6.390625 31.78125 6.390625 
Q 38.8125 6.390625 42.859375 10.171875 
Q 46.921875 13.96875 46.921875 20.515625 
Q 46.921875 27.09375 42.890625 30.859375 
Q 38.875 34.625 31.78125 34.625 
z
M 21.921875 38.8125 
Q 15.578125 40.375 12.03125 44.71875 
Q 8.5 49.078125 8.5 55.328125 
Q 8.5 64.0625 14.71875 69.140625 
Q 20.953125 74.21875 31.78125 74.21875 
Q 42.671875 74.21875 48.875 69.140625 
Q 55.078125 64.0625 55.078125 55.328125 
Q 55.078125 49.078125 51.53125 44.71875 
Q 48 40.375 41.703125 38.8125 
Q 48.828125 37.15625 52.796875 32.3125 
Q 56.78125 27.484375 56.78125 20.515625 
Q 56.78125 9.90625 50.3125 4.234375 
Q 43.84375 -1.421875 31.78125 -1.421875 
Q 19.734375 -1.421875 13.25 4.234375 
Q 6.78125 9.90625 6.78125 20.515625 
Q 6.78125 27.484375 10.78125 32.3125 
Q 14.796875 37.15625 21.921875 38.8125 
z
M 18.3125 54.390625 
Q 18.3125 48.734375 21.84375 45.5625 
Q 25.390625 42.390625 31.78125 42.390625 
Q 38.140625 42.390625 41.71875 45.5625 
Q 45.3125 48.734375 45.3125 54.390625 
Q 45.3125 60.0625 41.71875 63.234375 
Q 38.140625 66.40625 31.78125 66.40625 
Q 25.390625 66.40625 21.84375 63.234375 
Q 18.3125 60.0625 18.3125 54.390625 
z
" id="DejaVuSans-38"/>
      <path d="M 10.984375 1.515625 
L 10.984375 10.5 
Q 14.703125 8.734375 18.5 7.8125 
Q 22.3125 6.890625 25.984375 6.890625 
Q 35.75 6.890625 40.890625 13.453125 
Q 46.046875 20.015625 46.78125 33.40625 
Q 43.953125 29.203125 39.59375 26.953125 
Q 35.25 24.703125 29.984375 24.703125 
Q 19.046875 24.703125 12.671875 31.3125 
Q 6.296875 37.9375 6.296875 49.421875 
Q 6.296875 60.640625 12.9375 67.421875 
Q 19.578125 74.21875 30.609375 74.21875 
Q 43.265625 74.21875 49.921875 64.515625 
Q 56.59375 54.828125 56.59375 36.375 
Q 56.59375 19.140625 48.40625 8.859375 
Q 40.234375 -1.421875 26.421875 -1.421875 
Q 22.703125 -1.421875 18.890625 -0.6875 
Q 15.09375 0.046875 10.984375 1.515625 
z
M 30.609375 32.421875 
Q 37.25 32.421875 41.125 36.953125 
Q 45.015625 41.5 45.015625 49.421875 
Q 45.015625 57.28125 41.125 61.84375 
Q 37.25 66.40625 30.609375 66.40625 
Q 23.96875 66.40625 20.09375 61.84375 
Q 16.21875 57.28125 16.21875 49.421875 
Q 16.21875 41.5 20.09375 36.953125 
Q 23.96875 32.421875 30.609375 32.421875 
z
" id="DejaVuSans-39"/>
      <path d="M 33.015625 40.375 
Q 26.375 40.375 22.484375 35.828125 
Q 18.609375 31.296875 18.609375 23.390625 
Q 18.609375 15.53125 22.484375 10.953125 
Q 26.375 6.390625 33.015625 6.390625 
Q 39.65625 6.390625 43.53125 10.953125 
Q 47.40625 15.53125 47.40625 23.390625 
Q 47.40625 31.296875 43.53125 35.828125 
Q 39.65625 40.375 33.015625 40.375 
z
M 52.59375 71.296875 
L 52.59375 62.3125 
Q 48.875 64.0625 45.09375 64.984375 
Q 41.3125 65.921875 37.59375 65.921875 
Q 27.828125 65.921875 22.671875 59.328125 
Q 17.53125 52.734375 16.796875 39.40625 
Q 19.671875 43.65625 24.015625 45.921875 
Q 28.375 48.1875 33.59375 48.1875 
Q 44.578125 48.1875 50.953125 41.515625 
Q 57.328125 34.859375 57.328125 23.390625 
Q 57.328125 12.15625 50.6875 5.359375 
Q 44.046875 -1.421875 33.015625 -1.421875 
Q 20.359375 -1.421875 13.671875 8.265625 
Q 6.984375 17.96875 6.984375 36.375 
Q 6.984375 53.65625 15.1875 63.9375 
Q 23.390625 74.21875 37.203125 74.21875 
Q 40.921875 74.21875 44.703125 73.484375 
Q 48.484375 72.75 52.59375 71.296875 
z
" id="DejaVuSans-36"/>
     </defs>
     <g transform="translate(582.546875 56.654688)scale(0.1 -0.1)">
      <use xlink:href="#DejaVuSans-31"/>
      <use x="63.623047" xlink:href="#DejaVuSans-2e"/>
      <use x="95.410156" xlink:href="#DejaVuSans-30"/>
      <use x="159.033203" xlink:href="#DejaVuSans-38"/>
      <use x="222.65625" xlink:href="#DejaVuSans-30"/>
      <use x="286.279297" xlink:href="#DejaVuSans-34"/>
      <use x="349.902344" xlink:href="#DejaVuSans-39"/>
      <use x="413.525391" xlink:href="#DejaVuSans-65"/>
      <use x="475.048828" xlink:href="#DejaVuSans-2d"/>
      <use x="511.132812" xlink:href="#DejaVuSans-30"/>
      <use x="574.755859" xlink:href="#DejaVuSans-36"/>
     </g>
    </g>
    <g id="line2d_30">
     <path d="M 554.546875 67.832812 
L 574.546875 67.832812 
" style="fill:none;stroke:#d62728;stroke-linecap:square;stroke-width:1.5;"/>
    </g>
    <g id="line2d_31"/>
    <g id="text_16">
     <!-- 4.87227e-06 -->
     <g transform="translate(582.546875 71.332812)scale(0.1 -0.1)">
      <use xlink:href="#DejaVuSans-34"/>
      <use x="63.623047" xlink:href="#DejaVuSans-2e"/>
      <use x="95.410156" xlink:href="#DejaVuSans-38"/>
      <use x="159.033203" xlink:href="#DejaVuSans-37"/>
      <use x="222.65625" xlink:href="#DejaVuSans-32"/>
      <use x="286.279297" xlink:href="#DejaVuSans-32"/>
      <use x="349.902344" xlink:href="#DejaVuSans-37"/>
      <use x="413.525391" xlink:href="#DejaVuSans-65"/>
      <use x="475.048828" xlink:href="#DejaVuSans-2d"/>
      <use x="511.132812" xlink:href="#DejaVuSans-30"/>
      <use x="574.755859" xlink:href="#DejaVuSans-36"/>
     </g>
    </g>
    <g id="line2d_32">
     <path d="M 554.546875 82.510938 
L 574.546875 82.510938 
" style="fill:none;stroke:#9467bd;stroke-linecap:square;stroke-width:1.5;"/>
    </g>
    <g id="line2d_33"/>
    <g id="text_17">
     <!-- 2.95189e-05 -->
     <g transform="translate(582.546875 86.010938)scale(0.1 -0.1)">
      <use xlink:href="#DejaVuSans-32"/>
      <use x="63.623047" xlink:href="#DejaVuSans-2e"/>
      <use x="95.410156" xlink:href="#DejaVuSans-39"/>
      <use x="159.033203" xlink:href="#DejaVuSans-35"/>
      <use x="222.65625" xlink:href="#DejaVuSans-31"/>
      <use x="286.279297" xlink:href="#DejaVuSans-38"/>
      <use x="349.902344" xlink:href="#DejaVuSans-39"/>
      <use x="413.525391" xlink:href="#DejaVuSans-65"/>
      <use x="475.048828" xlink:href="#DejaVuSans-2d"/>
      <use x="511.132812" xlink:href="#DejaVuSans-30"/>
      <use x="574.755859" xlink:href="#DejaVuSans-35"/>
     </g>
    </g>
    <g id="line2d_34">
     <path d="M 554.546875 97.189062 
L 574.546875 97.189062 
" style="fill:none;stroke:#8c564b;stroke-linecap:square;stroke-width:1.5;"/>
    </g>
    <g id="line2d_35"/>
    <g id="text_18">
     <!-- 0.000264575 -->
     <g transform="translate(582.546875 100.689062)scale(0.1 -0.1)">
      <use xlink:href="#DejaVuSans-30"/>
      <use x="63.623047" xlink:href="#DejaVuSans-2e"/>
      <use x="95.410156" xlink:href="#DejaVuSans-30"/>
      <use x="159.033203" xlink:href="#DejaVuSans-30"/>
      <use x="222.65625" xlink:href="#DejaVuSans-30"/>
      <use x="286.279297" xlink:href="#DejaVuSans-32"/>
      <use x="349.902344" xlink:href="#DejaVuSans-36"/>
      <use x="413.525391" xlink:href="#DejaVuSans-34"/>
      <use x="477.148438" xlink:href="#DejaVuSans-35"/>
      <use x="540.771484" xlink:href="#DejaVuSans-37"/>
      <use x="604.394531" xlink:href="#DejaVuSans-35"/>
     </g>
    </g>
    <g id="line2d_36">
     <path d="M 554.546875 111.867188 
L 574.546875 111.867188 
" style="fill:none;stroke:#e377c2;stroke-linecap:square;stroke-width:1.5;"/>
    </g>
    <g id="line2d_37"/>
    <g id="text_19">
     <!-- 0.00404858 -->
     <g transform="translate(582.546875 115.367188)scale(0.1 -0.1)">
      <use xlink:href="#DejaVuSans-30"/>
      <use x="63.623047" xlink:href="#DejaVuSans-2e"/>
      <use x="95.410156" xlink:href="#DejaVuSans-30"/>
      <use x="159.033203" xlink:href="#DejaVuSans-30"/>
      <use x="222.65625" xlink:href="#DejaVuSans-34"/>
      <use x="286.279297" xlink:href="#DejaVuSans-30"/>
      <use x="349.902344" xlink:href="#DejaVuSans-34"/>
      <use x="413.525391" xlink:href="#DejaVuSans-38"/>
      <use x="477.148438" xlink:href="#DejaVuSans-35"/>
      <use x="540.771484" xlink:href="#DejaVuSans-38"/>
     </g>
    </g>
    <g id="line2d_38">
     <path d="M 554.546875 126.545312 
L 574.546875 126.545312 
" style="fill:none;stroke:#7f7f7f;stroke-linecap:square;stroke-width:1.5;"/>
    </g>
    <g id="line2d_39"/>
    <g id="text_20">
     <!-- 0.132176 -->
     <g transform="translate(582.546875 130.045312)scale(0.1 -0.1)">
      <use xlink:href="#DejaVuSans-30"/>
      <use x="63.623047" xlink:href="#DejaVuSans-2e"/>
      <use x="95.410156" xlink:href="#DejaVuSans-31"/>
      <use x="159.033203" xlink:href="#DejaVuSans-33"/>
      <use x="222.65625" xlink:href="#DejaVuSans-32"/>
      <use x="286.279297" xlink:href="#DejaVuSans-31"/>
      <use x="349.902344" xlink:href="#DejaVuSans-37"/>
      <use x="413.525391" xlink:href="#DejaVuSans-36"/>
     </g>
    </g>
    <g id="line2d_40">
     <path d="M 554.546875 141.223437 
L 574.546875 141.223437 
" style="fill:none;stroke:#bcbd22;stroke-linecap:square;stroke-width:1.5;"/>
    </g>
    <g id="line2d_41"/>
    <g id="text_21">
     <!-- 13.2845 -->
     <g transform="translate(582.546875 144.723437)scale(0.1 -0.1)">
      <use xlink:href="#DejaVuSans-31"/>
      <use x="63.623047" xlink:href="#DejaVuSans-33"/>
      <use x="127.246094" xlink:href="#DejaVuSans-2e"/>
      <use x="159.033203" xlink:href="#DejaVuSans-32"/>
      <use x="222.65625" xlink:href="#DejaVuSans-38"/>
      <use x="286.279297" xlink:href="#DejaVuSans-34"/>
      <use x="349.902344" xlink:href="#DejaVuSans-35"/>
     </g>
    </g>
    <g id="line2d_42">
     <path d="M 554.546875 155.901562 
L 574.546875 155.901562 
" style="fill:none;stroke:#17becf;stroke-linecap:square;stroke-width:1.5;"/>
    </g>
    <g id="line2d_43"/>
    <g id="text_22">
     <!-- 7863.38 -->
     <g transform="translate(582.546875 159.401562)scale(0.1 -0.1)">
      <use xlink:href="#DejaVuSans-37"/>
      <use x="63.623047" xlink:href="#DejaVuSans-38"/>
      <use x="127.246094" xlink:href="#DejaVuSans-36"/>
      <use x="190.869141" xlink:href="#DejaVuSans-33"/>
      <use x="254.492188" xlink:href="#DejaVuSans-2e"/>
      <use x="286.279297" xlink:href="#DejaVuSans-33"/>
      <use x="349.902344" xlink:href="#DejaVuSans-38"/>
     </g>
    </g>
    <g id="line2d_44">
     <path d="M 554.546875 170.579687 
L 574.546875 170.579687 
" style="fill:none;stroke:#1f77b4;stroke-linecap:square;stroke-width:1.5;"/>
    </g>
    <g id="line2d_45"/>
    <g id="text_23">
     <!-- 434644000000000.0 -->
     <g transform="translate(582.546875 174.079687)scale(0.1 -0.1)">
      <use xlink:href="#DejaVuSans-34"/>
      <use x="63.623047" xlink:href="#DejaVuSans-33"/>
      <use x="127.246094" xlink:href="#DejaVuSans-34"/>
      <use x="190.869141" xlink:href="#DejaVuSans-36"/>
      <use x="254.492188" xlink:href="#DejaVuSans-34"/>
      <use x="318.115234" xlink:href="#DejaVuSans-34"/>
      <use x="381.738281" xlink:href="#DejaVuSans-30"/>
      <use x="445.361328" xlink:href="#DejaVuSans-30"/>
      <use x="508.984375" xlink:href="#DejaVuSans-30"/>
      <use x="572.607422" xlink:href="#DejaVuSans-30"/>
      <use x="636.230469" xlink:href="#DejaVuSans-30"/>
      <use x="699.853516" xlink:href="#DejaVuSans-30"/>
      <use x="763.476562" xlink:href="#DejaVuSans-30"/>
      <use x="827.099609" xlink:href="#DejaVuSans-30"/>
      <use x="890.722656" xlink:href="#DejaVuSans-30"/>
      <use x="954.345703" xlink:href="#DejaVuSans-2e"/>
      <use x="986.132812" xlink:href="#DejaVuSans-30"/>
     </g>
    </g>
   </g>
  </g>
 </g>
 <defs>
  <clipPath id="p7eccd13050">
   <rect height="434.88" width="669.6" x="26.925" y="10.7"/>
  </clipPath>
 </defs>
</svg>
